<svg width="28" height="28" viewBox="0 0 28 28" fill="none" xmlns="http://www.w3.org/2000/svg">
<rect width="28" height="28" fill="#1C1C1C"/>
<path d="M17.148 19.14L12.668 13.414C12.5467 13.2553 12.4207 13.0873 12.29 12.91C12.1593 12.7327 12.0287 12.5507 11.898 12.364H11.884L11.912 16.704C11.912 16.956 11.9073 17.1987 11.898 17.432C11.8887 17.6653 11.8747 17.8427 11.856 17.964C12.0053 17.9453 12.192 17.936 12.416 17.936C12.6493 17.9267 12.8127 17.922 12.906 17.922V19H9.714V18.076C9.92867 18.0667 10.106 18.0387 10.246 17.992C10.3953 17.9453 10.5073 17.838 10.582 17.67C10.666 17.502 10.708 17.2313 10.708 16.858L10.68 11.496C10.68 11.244 10.6847 11.0013 10.694 10.768C10.7033 10.5347 10.7173 10.3573 10.736 10.236C10.5867 10.2453 10.3953 10.2547 10.162 10.264C9.938 10.264 9.77467 10.2687 9.672 10.278V9.2H11.87L16.154 14.604C16.3873 14.9027 16.5787 15.1593 16.728 15.374C16.8867 15.5887 17.022 15.7753 17.134 15.934H17.148V11.496C17.148 11.244 17.1527 11.0013 17.162 10.768C17.1713 10.5347 17.1807 10.3573 17.19 10.236C17.0407 10.2453 16.854 10.2547 16.63 10.264C16.406 10.264 16.2427 10.2687 16.14 10.278V9.2H19.332V10.124C19.1267 10.1333 18.9493 10.1613 18.8 10.208C18.6507 10.2547 18.534 10.362 18.45 10.53C18.3753 10.6887 18.338 10.9593 18.338 11.342V19.14H17.148Z" fill="#FFE141"/>
</svg>
