<svg width="11" height="9" viewBox="0 0 11 9" fill="none" xmlns="http://www.w3.org/2000/svg">
<path d="M0.734375 8.5625V6.23438C0.734375 5.55729 0.864583 4.85938 1.125 4.14062C1.38542 3.42188 1.72917 2.74479 2.15625 2.10938C2.58333 1.46354 3.05208 0.916667 3.5625 0.46875L5.65625 1.6875C5.28125 2.3125 4.95833 2.98438 4.6875 3.70312C4.41667 4.42188 4.28125 5.26562 4.28125 6.23438V8.5625H0.734375ZM6.04688 8.5625V6.23438C6.04688 5.55729 6.17708 4.85938 6.4375 4.14062C6.69792 3.42188 7.04167 2.74479 7.46875 2.10938C7.89583 1.46354 8.36458 0.916667 8.875 0.46875L10.9688 1.6875C10.5938 2.3125 10.2708 2.98438 10 3.70312C9.72917 4.42188 9.59375 5.26562 9.59375 6.23438V8.5625H6.04688Z" fill="#1C1C1C"/>
</svg>
