<svg width="24" height="24" viewBox="0 0 24 24" fill="none" xmlns="http://www.w3.org/2000/svg">
<path fill-rule="evenodd" clip-rule="evenodd" d="M13.1837 20.2012L12.5 21C11.4459 19.7853 10.5201 18.6447 9.72243 17.578L9.20964 16.8778C7.06988 13.8912 6 11.5221 6 9.77038C6 6.0312 8.91015 3 12.5 3C16.0899 3 19 6.0312 19 9.77038C19 11.5221 17.9301 13.8912 15.7904 16.8778L15.2776 17.578C14.6572 18.4076 13.9592 19.282 13.1837 20.2012ZM15 9.5C15 10.8807 13.8807 12 12.5 12C11.1193 12 10 10.8807 10 9.5C10 8.11929 11.1193 7 12.5 7C13.8807 7 15 8.11929 15 9.5Z" fill="#999999"/>
</svg>
