<svg id="gnb_logo_white" xmlns="http://www.w3.org/2000/svg" width="110" height="36" viewBox="0 0 110 36">
    <defs>
        <style>
            .cls-2,.cls-3{fill:#fff}.cls-3{fill-rule:evenodd}
        </style>
    </defs>
    <path id="패스_3742" data-name="패스 3742" class="cls-2" d="M15.645 13.114h-2.5L7.689 4.755a8.968 8.968 0 0 1-.553-.955H7.1a18.962 18.962 0 0 1 .067 1.912v7.4H4.889V.773h2.666l5.265 8.14q.4.621.587.956h.033a12.452 12.452 0 0 1-.067-1.727V.773h2.272z" transform="translate(-3.617 -.572)"/>
    <path id="패스_3743" data-name="패스 3743" class="cls-2" d="M64.148 13.114h-2.607l-1-2.951h-4.634l-.972 2.951h-2.608L56.9.773h2.758zm-4.2-4.846L58.439 3.8a6.263 6.263 0 0 1-.193-1.023h-.059a5.41 5.41 0 0 1-.209 1.006L56.46 8.268z" transform="translate(-38.715 -.572)"/>
    <path id="패스_3744" data-name="패스 3744" class="cls-2" d="M115.246 13.114V5.468q0-.838.1-2.565h-.05a10.014 10.014 0 0 1-.386 1.509l-3.27 8.7h-1.819l-3.311-8.625a14.267 14.267 0 0 1-.386-1.585h-.059q.092 1.367.092 2.968v7.244h-2.171V.773h3.437l2.884 7.688a8.844 8.844 0 0 1 .478 1.694h.059q.184-.729.52-1.71l2.91-7.672h3.337v12.341z" transform="translate(-76.936 -.572)"/>
    <path id="패스_3745" data-name="패스 3745" class="cls-2" d="M197.175 11.1a6.55 6.55 0 0 1-4.46 1.643 5.069 5.069 0 0 1-3.3-.993 3.324 3.324 0 0 1-1.215-2.721q0-2.422 2.951-3.622a3.289 3.289 0 0 1-1.484-2.574 2.48 2.48 0 0 1 .98-2.075A4.149 4.149 0 0 1 193.251 0a3.867 3.867 0 0 1 2.456.742 2.333 2.333 0 0 1 .948 1.924q0 1.878-2.239 2.817a7.107 7.107 0 0 1 3.077 2.758 6.67 6.67 0 0 0 1.333-4.158 3.984 3.984 0 0 0-.159-1.182h2.046a3.913 3.913 0 0 1 .151 1.14 8.375 8.375 0 0 1-2.314 5.718 2.651 2.651 0 0 0 1.861 1.132 3.5 3.5 0 0 0 1.442-.318v1.836a4.785 4.785 0 0 1-1.777.335 3.8 3.8 0 0 1-2.9-1.643m-1.04-1.509a7.461 7.461 0 0 0-3.572-3.186 2.752 2.752 0 0 0-2 2.54 1.807 1.807 0 0 0 .625 1.438 2.39 2.39 0 0 0 1.622.541 4.72 4.72 0 0 0 3.329-1.333m-3.2-5q1.626-.586 1.626-1.752a1.1 1.1 0 0 0-.39-.884 1.374 1.374 0 0 0-.918-.331 1.514 1.514 0 0 0-1.065.369 1.181 1.181 0 0 0-.4.905 1.968 1.968 0 0 0 1.149 1.694" transform="translate(-139.238)"/>
    <path id="패스_3746" data-name="패스 3746" class="cls-2" d="M281.485 13.114h-2.5l-5.458-8.359a8.97 8.97 0 0 1-.553-.956h-.034a18.965 18.965 0 0 1 .067 1.912v7.4h-2.28V.773h2.666l5.265 8.14q.4.621.587.956h.033a12.494 12.494 0 0 1-.067-1.727V.773h2.272z" transform="translate(-200.301 -.572)"/>
    <path id="패스_3747" data-name="패스 3747" class="cls-2" d="M329.988 13.114h-2.607l-1-2.951h-4.636l-.972 2.951h-2.607l4.57-12.341h2.758zm-4.2-4.846L324.279 3.8a6.291 6.291 0 0 1-.193-1.023h-.059a5.39 5.39 0 0 1-.209 1.006L322.3 8.268z" transform="translate(-235.396 -.572)"/>
    <path id="패스_3748" data-name="패스 3748" class="cls-2" d="M381.086 13.114V5.468q0-.838.1-2.565h-.05a10.017 10.017 0 0 1-.385 1.509l-3.27 8.7h-1.82l-3.311-8.625a14.352 14.352 0 0 1-.386-1.585h-.059Q372 4.269 372 5.87v7.244h-2.171V.773h3.437l2.884 7.688a8.865 8.865 0 0 1 .478 1.694h.059q.185-.729.52-1.71l2.906-7.672h3.337v12.341z" transform="translate(-273.617 -.572)"/>
    <path id="사각형_814" data-name="사각형 814" class="cls-2" transform="translate(2.402 23.195)" d="M0 0h2.355v12.161H0z"/>
    <path id="패스_3749" data-name="패스 3749" class="cls-2" d="M38.76 110.63h-2.3v-4.866q0-2.231-1.611-2.231a1.637 1.637 0 0 0-1.318.607 2.319 2.319 0 0 0-.508 1.541v4.949h-2.3v-8.683h2.3v1.4h.025a3.087 3.087 0 0 1 2.817-1.6q2.891 0 2.892 3.577z" transform="translate(-22.729 -75.273)"/>
    <path id="패스_3750" data-name="패스 3750" class="cls-2" d="M75.007 103.7a3.673 3.673 0 0 1-1.636.3q-2.668 0-2.668-2.826v-4.313h-1.438V95.11H70.7v-1.942L73 92.5v2.61h2.008v1.752H73v3.908q0 1.437 1.132 1.437a1.569 1.569 0 0 0 .876-.264z" transform="translate(-51.246 -68.436)"/>
    <path id="패스_3751" data-name="패스 3751" class="cls-2" d="M105.567 106.937h-5.8a2.178 2.178 0 0 0 2.512 2.214 4.515 4.515 0 0 0 2.578-.76v1.752a6.1 6.1 0 0 1-3.1.7 4.166 4.166 0 0 1-3.152-1.173 4.54 4.54 0 0 1-1.128-3.28 4.716 4.716 0 0 1 1.21-3.358 3.974 3.974 0 0 1 3.028-1.293 3.64 3.64 0 0 1 2.834 1.116 4.381 4.381 0 0 1 1.016 3.065zm-2.173-1.512q0-2.065-1.7-2.066a1.689 1.689 0 0 0-1.252.562 2.626 2.626 0 0 0-.673 1.5z" transform="translate(-72.121 -75.273)"/>
    <path id="패스_3752" data-name="패스 3752" class="cls-2" d="M142.876 104.235a2.135 2.135 0 0 0-1.116-.273 1.639 1.639 0 0 0-1.388.707 3.126 3.126 0 0 0-.521 1.9v4.23h-2.3v-8.683h2.3v1.669h.025a2.329 2.329 0 0 1 2.289-1.817 1.7 1.7 0 0 1 .71.116z" transform="translate(-101.766 -75.438)"/>
    <path id="패스_3753" data-name="패스 3753" class="cls-2" d="M173.525 110.63h-2.3v-4.866q0-2.231-1.611-2.231a1.637 1.637 0 0 0-1.318.607 2.319 2.319 0 0 0-.508 1.541v4.949h-2.3v-8.683h2.3v1.4h.025a3.087 3.087 0 0 1 2.817-1.6q2.891 0 2.892 3.577z" transform="translate(-122.436 -75.273)"/>
    <path id="패스_3754" data-name="패스 3754" class="cls-2" d="M205.706 102.5a5.46 5.46 0 0 1 1.52-.55 7.713 7.713 0 0 1 1.677-.21q3.52 0 3.52 3.569v5.321h-2.2v-1.28h-.041a2.833 2.833 0 0 1-2.6 1.5 2.753 2.753 0 0 1-1.991-.706 2.507 2.507 0 0 1-.735-1.9q0-2.486 2.958-2.883l2.421-.33a1.45 1.45 0 0 0-1.619-1.661 4.937 4.937 0 0 0-2.908.967zm2.8 4.164q-1.488.19-1.487 1.33a1.075 1.075 0 0 0 .355.835 1.373 1.373 0 0 0 .958.322 1.772 1.772 0 0 0 1.363-.583 2.078 2.078 0 0 0 .537-1.466v-.661z" transform="translate(-151.563 -75.273)"/>
    <path id="패스_3755" data-name="패스 3755" class="cls-2" d="M247.3 103.7a3.674 3.674 0 0 1-1.636.3q-2.669 0-2.669-2.826v-4.313h-1.437V95.11h1.437v-1.942l2.3-.669v2.611h2.005v1.752h-2.008v3.908q0 1.437 1.132 1.437a1.569 1.569 0 0 0 .876-.264z" transform="translate(-178.717 -68.436)"/>
    <path id="패스_3756" data-name="패스 3756" class="cls-2" d="M271.237 88.021a1.167 1.167 0 0 1 .376-.884 1.356 1.356 0 0 1 .971-.355 1.389 1.389 0 0 1 .967.351 1.146 1.146 0 0 1 .388.888 1.164 1.164 0 0 1-.384.892 1.375 1.375 0 0 1-.971.355 1.342 1.342 0 0 1-.967-.364 1.178 1.178 0 0 1-.38-.884m.182 2.858h2.3v8.683h-2.3z" transform="translate(-200.676 -64.205)"/>
    <path id="패스_3757" data-name="패스 3757" class="cls-2" d="M290.155 106.343a4.506 4.506 0 0 1 1.256-3.367 4.643 4.643 0 0 1 3.4-1.235 4.16 4.16 0 0 1 4.478 4.453 4.625 4.625 0 0 1-1.243 3.383 5.1 5.1 0 0 1-6.671.049 4.429 4.429 0 0 1-1.223-3.284m2.33-.033q0 2.735 2.272 2.735 2.19 0 2.189-2.8 0-2.71-2.2-2.71a2.021 2.021 0 0 0-1.669.739 3.164 3.164 0 0 0-.595 2.036" transform="translate(-214.672 -75.273)"/>
    <path id="패스_3758" data-name="패스 3758" class="cls-2" d="M342.8 110.63h-2.3v-4.866q0-2.231-1.611-2.231a1.637 1.637 0 0 0-1.318.607 2.319 2.319 0 0 0-.508 1.541v4.949h-2.3v-8.683h2.3v1.4h.025a3.086 3.086 0 0 1 2.817-1.6q2.891 0 2.892 3.577z" transform="translate(-247.678 -75.273)"/>
    <path id="패스_3759" data-name="패스 3759" class="cls-2" d="M374.985 102.5a5.46 5.46 0 0 1 1.52-.55 7.711 7.711 0 0 1 1.677-.21q3.52 0 3.52 3.569v5.321h-2.2v-1.28h-.041a2.833 2.833 0 0 1-2.6 1.5 2.753 2.753 0 0 1-1.991-.706 2.507 2.507 0 0 1-.735-1.9q0-2.486 2.958-2.883l2.421-.33a1.45 1.45 0 0 0-1.619-1.661 4.937 4.937 0 0 0-2.908.967zm2.8 4.164q-1.487.19-1.487 1.33a1.075 1.075 0 0 0 .355.835 1.372 1.372 0 0 0 .958.322 1.772 1.772 0 0 0 1.363-.583 2.079 2.079 0 0 0 .537-1.466v-.661z" transform="translate(-276.805 -75.273)"/>
    <path id="사각형_815" data-name="사각형 815" class="cls-2" transform="translate(107.703 22.51)" d="M0 0h2.297v12.847H0z"/>
    <path id="패스_3760" data-name="패스 3760" class="cls-3" d="M0 66.515A1.186 1.186 0 1 1 1.186 67.7 1.186 1.186 0 0 1 0 66.515" transform="translate(0 -48.334)"/>
    <path id="패스_3761" data-name="패스 3761" class="cls-3" d="M28 66.515a1.186 1.186 0 1 1 1.186 1.185A1.186 1.186 0 0 1 28 66.515" transform="translate(-20.717 -48.334)"/>
    <path id="패스_3762" data-name="패스 3762" class="cls-3" d="M57 66.515a1.186 1.186 0 1 1 1.186 1.185A1.186 1.186 0 0 1 57 66.515" transform="translate(-42.172 -48.334)"/>
    <path id="패스_3763" data-name="패스 3763" class="cls-3" d="M84 66.515a1.186 1.186 0 1 1 1.186 1.185A1.186 1.186 0 0 1 84 66.515" transform="translate(-62.148 -48.334)"/>
    <path id="패스_3764" data-name="패스 3764" class="cls-3" d="M113 66.515a1.186 1.186 0 1 1 1.186 1.186A1.186 1.186 0 0 1 113 66.515" transform="translate(-83.604 -48.334)"/>
    <path id="패스_3765" data-name="패스 3765" class="cls-3" d="M141 66.515a1.186 1.186 0 1 1 1.186 1.186A1.186 1.186 0 0 1 141 66.515" transform="translate(-104.32 -48.334)"/>
    <path id="패스_3766" data-name="패스 3766" class="cls-3" d="M170 66.515a1.186 1.186 0 1 1 1.186 1.186A1.186 1.186 0 0 1 170 66.515" transform="translate(-125.775 -48.334)"/>
    <path id="패스_3767" data-name="패스 3767" class="cls-3" d="M198 66.515a1.186 1.186 0 1 1 1.186 1.186A1.186 1.186 0 0 1 198 66.515" transform="translate(-146.49 -48.334)"/>
    <path id="패스_3768" data-name="패스 3768" class="cls-3" d="M227 66.515a1.186 1.186 0 1 1 1.186 1.186A1.186 1.186 0 0 1 227 66.515" transform="translate(-167.947 -48.334)"/>
    <path id="패스_3769" data-name="패스 3769" class="cls-3" d="M255 66.515a1.186 1.186 0 1 1 1.186 1.186A1.186 1.186 0 0 1 255 66.515" transform="translate(-188.662 -48.334)"/>
    <path id="패스_3770" data-name="패스 3770" class="cls-3" d="M283 66.515a1.186 1.186 0 1 1 1.186 1.186A1.186 1.186 0 0 1 283 66.515" transform="translate(-209.379 -48.334)"/>
</svg>
