<svg xmlns="http://www.w3.org/2000/svg" width="120" height="120" viewBox="0 0 120 120">
    <path data-name="합치기 140" d="M-12730.716 94.689h-14.216l-1.384-9.339-16.95-9.785-8.78 3.472-.335-.581-6.771-11.731-.34-.581 7.4-5.867v-19.57l-7.4-5.867.145-.245.2-.338 6.771-11.728.335-.581 8.776 3.475 16.95-9.785 1.384-9.342h14.886l.689 4.671.694 4.671 6.2 3.581 10.747 6.2 6.292-2.488 2.487-.985.336.581 6.771 11.731.335.581-7.4 5.867V60.28l7.4 5.867-.335.581-6.771 11.731-.336.581-8.782-3.475-16.947 9.785-1.384 9.339zm-6.761-21.063a23.252 23.252 0 0 0 9.859-2.214q.858-.406 1.7-.889a23.2 23.2 0 0 0 4.722-3.6c.012-.012.025-.024.036-.037l.047-.047a23.137 23.137 0 0 0 3.66-4.782q.472-.816.87-1.654a23.285 23.285 0 0 0 2.232-9.832v-.034a23.232 23.232 0 0 0-2.212-9.914q-.406-.86-.891-1.7a23.125 23.125 0 0 0-3.663-4.786l-.041-.042a1.02 1.02 0 0 0-.047-.045 23.143 23.143 0 0 0-4.718-3.6 24.774 24.774 0 0 0-1.712-.9l-.1-.048-.019-.009a23.255 23.255 0 0 0-9.731-2.148 23.247 23.247 0 0 0-9.7 2.133c-.63.292-1.254.614-1.866.968a23.177 23.177 0 0 0-4.823 3.7c-.03.032-.064.064-.095.1v.005a23.191 23.191 0 0 0-3.545 4.667q-.513.887-.937 1.8a23.247 23.247 0 0 0-2.166 9.8 23.256 23.256 0 0 0 2.039 9.45 22.971 22.971 0 0 0 1.064 2.076 23.144 23.144 0 0 0 4.487 5.573l.055.049.033.029a23.3 23.3 0 0 0 3.89 2.817c.444.257.9.5 1.349.721a23.263 23.263 0 0 0 10.223 2.393z" transform="translate(12797.486 9.708)" style="fill:transparent;stroke:#111;stroke-miterlimit:10;stroke-width:2px"/>
</svg>
