<svg id="ico_bf_10" xmlns="http://www.w3.org/2000/svg" width="120" height="120" viewBox="0 0 120 120">
    <defs>
        <style>
            .cls-2{fill:none;stroke:#111;stroke-width:2px}
        </style>
    </defs>
    <g id="그룹_1769" data-name="그룹 1769" transform="translate(-449 -96)">
        <g id="그룹_1766" data-name="그룹 1766">
            <g id="그룹_1763" data-name="그룹 1763" transform="translate(3)">
                <g id="그룹_1712" data-name="그룹 1712" transform="translate(-73 -33)">
                    <g id="그룹_1710" data-name="그룹 1710" transform="translate(537 149)">
                        <circle id="타원_288" data-name="타원 288" class="cls-2" cx="9" cy="9" r="9" transform="translate(1 1)"/>
                        <path id="패스_6910" data-name="패스 6910" class="cls-2" d="m7495.226 497.753 2.94 2.588 5.222-4.96" transform="translate(-7489.308 -488.068)"/>
                    </g>
                </g>
                <path id="패스_7078" data-name="패스 7078" class="cls-2" d="M493.134 133.155h54" transform="translate(.866 -4.655)"/>
            </g>
        </g>
        <g id="그룹_1767" data-name="그룹 1767" transform="translate(0 30)">
            <g id="그룹_1763-2" data-name="그룹 1763" transform="translate(3)">
                <g id="그룹_1712-2" data-name="그룹 1712" transform="translate(-73 -33)">
                    <g id="그룹_1710-2" data-name="그룹 1710" transform="translate(537 149)">
                        <circle id="타원_288-2" data-name="타원 288" class="cls-2" cx="9" cy="9" r="9" transform="translate(1 1)"/>
                        <path id="패스_6910-2" data-name="패스 6910" class="cls-2" d="m7495.226 497.753 2.94 2.588 5.222-4.96" transform="translate(-7489.308 -488.068)"/>
                    </g>
                </g>
                <path id="패스_7078-2" data-name="패스 7078" class="cls-2" d="M493.134 133.155h54" transform="translate(.866 -4.655)"/>
            </g>
        </g>
        <g id="그룹_1768" data-name="그룹 1768" transform="translate(0 60)">
            <g id="그룹_1763-3" data-name="그룹 1763" transform="translate(3)">
                <g id="그룹_1712-3" data-name="그룹 1712" transform="translate(-73 -33)">
                    <g id="그룹_1710-3" data-name="그룹 1710" transform="translate(537 149)">
                        <circle id="타원_288-3" data-name="타원 288" class="cls-2" cx="9" cy="9" r="9" transform="translate(1 1)"/>
                        <path id="패스_6910-3" data-name="패스 6910" class="cls-2" d="m7495.226 497.753 2.94 2.588 5.222-4.96" transform="translate(-7489.308 -488.068)"/>
                    </g>
                </g>
                <path id="패스_7078-3" data-name="패스 7078" class="cls-2" d="M493.134 133.155h54" transform="translate(.866 -4.655)"/>
            </g>
        </g>
    </g>
</svg>
