<svg width="581" height="206" viewBox="0 0 581 206" fill="none" xmlns="http://www.w3.org/2000/svg">
<path d="M69.84 45.88H7.6V8.84H19.76V17.96H57.76V8.84H69.84V45.88ZM76.4 62.44H44.88V81H32.64V62.44H1.2V52.44H76.4V62.44ZM57.76 36.12V27.72H19.76V36.12H57.76ZM147.418 51.32H85.1781V10.36H147.418V51.32ZM153.978 77.24H78.7781V67.24H109.978V54.92H122.538V67.24H153.978V77.24ZM135.338 41.4V20.36H97.3381V41.4H135.338ZM226.916 47.8H214.756V8.36H226.916V47.8ZM210.436 44.68H161.476V9.88H173.556V35H210.436V44.68ZM226.916 79.8H167.076V50.76H226.916V79.8ZM214.836 70.04V60.44H179.236V70.04H214.836ZM323.244 59.48H311.084V43.32H297.804C295.938 45.56 293.431 47.32 290.284 48.6C287.191 49.88 283.511 50.52 279.244 50.52C275.458 50.52 272.124 50.0133 269.244 49C266.364 47.9333 263.938 46.5467 261.964 44.84C260.044 43.08 258.578 41.0533 257.564 38.76C256.604 36.4667 256.124 34.04 256.124 31.48V26.92C256.124 24.36 256.604 21.9333 257.564 19.64C258.578 17.3467 260.044 15.3467 261.964 13.64C263.938 11.88 266.364 10.4933 269.244 9.48C272.124 8.46667 275.458 7.96 279.244 7.96C283.404 7.96 287.004 8.6 290.044 9.88C293.138 11.1067 295.644 12.76 297.564 14.84H311.084V8.36H323.244V59.48ZM324.044 79.24H263.804V54.84H275.964V69.32H324.044V79.24ZM290.044 27.72C290.044 26.3333 289.831 25.0533 289.404 23.88C288.978 22.6533 288.311 21.5867 287.404 20.68C286.498 19.7733 285.351 19.0533 283.964 18.52C282.631 17.9867 281.058 17.72 279.244 17.72C277.378 17.72 275.751 17.9867 274.364 18.52C272.978 19.0533 271.831 19.7733 270.924 20.68C270.071 21.5867 269.431 22.6533 269.004 23.88C268.578 25.0533 268.364 26.3333 268.364 27.72V30.68C268.364 32.0667 268.578 33.3733 269.004 34.6C269.431 35.8267 270.071 36.8933 270.924 37.8C271.831 38.7067 272.978 39.4267 274.364 39.96C275.751 40.4933 277.378 40.76 279.244 40.76C281.058 40.76 282.631 40.4933 283.964 39.96C285.351 39.4267 286.498 38.7067 287.404 37.8C288.311 36.8933 288.978 35.8267 289.404 34.6C289.831 33.3733 290.044 32.0667 290.044 30.68V27.72ZM311.084 33.64V24.6H302.044C302.098 25.0267 302.124 25.4267 302.124 25.8C302.178 26.12 302.204 26.4933 302.204 26.92V31.48C302.204 31.8533 302.178 32.2267 302.124 32.6C302.124 32.92 302.098 33.2667 302.044 33.64H311.084ZM405.463 57.4H373.142V81H360.983V57.4H330.263V47.4H405.463V57.4ZM398.903 43.88H386.823V19.56H335.463V9.56H398.903V43.88ZM475.361 54.76C472.214 53.8533 469.147 52.7067 466.161 51.32C463.174 49.9333 460.374 48.3867 457.761 46.68C455.147 44.92 452.774 43.0533 450.641 41.08C448.561 39.0533 446.827 36.9733 445.441 34.84C444.001 36.9733 442.214 39.0533 440.081 41.08C438.001 43.0533 435.654 44.92 433.041 46.68C430.481 48.3867 427.707 49.9333 424.721 51.32C421.734 52.7067 418.641 53.8533 415.441 54.76L409.041 45.8C413.627 44.52 417.761 42.8933 421.441 40.92C425.174 38.9467 428.347 36.7867 430.961 34.44C433.627 32.04 435.654 29.5333 437.041 26.92C438.481 24.2533 439.201 21.64 439.201 19.08V9.56H451.601V19.08C451.601 21.64 452.294 24.2533 453.681 26.92C455.121 29.5333 457.147 32.04 459.761 34.44C462.427 36.7867 465.601 38.9467 469.281 40.92C473.014 42.8933 477.201 44.52 481.841 45.8L475.361 54.76ZM483.041 77.24H407.841V67.24H439.041V51.64H451.601V67.24H483.041V77.24Z" fill="white"/>
<path d="M71.84 188.28H7.12V169.32H58.08V166.76H7.12V158.36H32.4V155H1.2V146.44H76.4V155H45.12V158.36H70.32V177.08H19.36V179.72H71.84V188.28ZM69.36 144.92C62.9067 144.333 57.04 143.293 51.76 141.8C46.48 140.253 42.16 138.2 38.8 135.64C35.3867 138.2 31.04 140.253 25.76 141.8C20.48 143.293 14.6133 144.333 8.16 144.92L2.8 136.52C6.37333 136.2 9.73333 135.773 12.88 135.24C16.0267 134.707 18.8267 134.067 21.28 133.32C23.7867 132.573 25.92 131.747 27.68 130.84C29.44 129.933 30.72 128.973 31.52 127.96H7.12V119.24H32.64V113.32H44.88V119.24H70.4V127.96H46C46.8 128.973 48.08 129.933 49.84 130.84C51.6 131.747 53.7067 132.573 56.16 133.32C58.6667 134.067 61.4933 134.707 64.64 135.24C67.7867 135.773 71.1733 136.2 74.8 136.52L69.36 144.92ZM125.018 157.32C121.018 155.933 117.365 154.04 114.058 151.64C110.751 149.187 107.951 146.28 105.658 142.92C103.845 146.12 101.205 149.133 97.7381 151.96C94.3248 154.733 90.1915 157.053 85.3381 158.92L78.0581 150.52C81.4715 149.293 84.4848 147.827 87.0981 146.12C89.7648 144.36 91.9781 142.467 93.7381 140.44C95.5515 138.413 96.9115 136.307 97.8181 134.12C98.7248 131.933 99.1781 129.773 99.1781 127.64V117.48H111.818V127.64C111.818 129.987 112.298 132.2 113.258 134.28C114.218 136.36 115.551 138.28 117.258 140.04C119.018 141.8 121.071 143.373 123.418 144.76C125.765 146.147 128.351 147.32 131.178 148.28L125.018 157.32ZM149.338 188.6H137.098V171.4H87.9781V161.56H149.338V188.6ZM149.338 158.6H137.178V138.04H123.178V128.2H137.178V116.36H149.338V158.6ZM246.946 188.2H235.266V116.36H246.946V188.2ZM229.666 187.08H218.146V155.24H208.146V144.76H218.146V116.36H229.666V187.08ZM208.866 183.08C203 178.28 198.573 172.36 195.586 165.32C194.306 168.68 192.493 171.987 190.146 175.24C187.8 178.44 184.973 181.4 181.666 184.12L172.946 176.6C178.013 172.867 182.013 168.04 184.946 162.12C187.88 156.2 189.346 149.56 189.346 142.2V135.8H177.026V125.8H189.586V115.16H201.106V125.8H213.186V135.8H201.346V142.2C201.346 145.88 201.72 149.347 202.466 152.6C203.213 155.8 204.253 158.787 205.586 161.56C206.92 164.28 208.466 166.733 210.226 168.92C212.04 171.107 213.96 172.973 215.986 174.52L208.866 183.08ZM321.324 169.24H309.244V153.72H257.884V143.96H309.244V128.36H258.604V118.36H321.324V169.24ZM327.884 185.24H252.684V175.24H327.884V185.24ZM422.453 188.28H359.413V167.48H408.613V164.2H359.413V155.24H420.853V175.8H371.733V179.32H422.453V188.28ZM384.693 152.6C381.599 151.32 378.773 149.773 376.213 147.96C373.706 146.093 371.599 143.88 369.893 141.32C368.506 143.72 366.453 146.04 363.733 148.28C361.066 150.52 357.919 152.44 354.293 154.04L346.932 146.2C351.679 144.28 355.439 141.96 358.213 139.24C360.986 136.52 362.693 133.56 363.333 130.36H350.933V120.92H363.893V113.64H375.493V120.92H387.653V130.36H375.973C376.559 133.4 378.106 135.987 380.613 138.12C383.119 140.2 386.399 142.04 390.453 143.64L384.693 152.6ZM420.853 152.84H409.173V139.56H402.773V152.84H391.413V116.36H402.773V129.16H409.173V116.36H420.853V152.84ZM497.151 168.44H484.991V116.36H497.151V168.44ZM480.671 159.16H430.911V133.88H463.231V127.4H430.911V117.96H475.311V142.92H442.991V149.64H480.671V159.16ZM497.951 187.24H437.711V164.36H449.871V177.4H497.951V187.24ZM550.569 183.48C546.622 180.653 542.969 177.427 539.609 173.8C536.302 170.12 533.662 166.36 531.689 162.52C529.822 166.84 527.262 170.867 524.009 174.6C520.755 178.333 517.022 181.72 512.809 184.76L504.329 176.6C507.369 174.627 510.142 172.413 512.649 169.96C515.155 167.453 517.315 164.733 519.129 161.8C520.995 158.867 522.435 155.72 523.449 152.36C524.462 149 524.969 145.48 524.969 141.8V129H507.769V119H554.169V129H537.529V141.8C537.529 145 538.062 148.2 539.129 151.4C540.195 154.547 541.662 157.56 543.529 160.44C545.395 163.32 547.582 166.013 550.089 168.52C552.595 170.973 555.289 173.107 558.169 174.92L550.569 183.48ZM574.009 188.2H561.769V116.36H574.009V188.2Z" fill="white"/>
</svg>
