<svg width="160" height="160" viewBox="0 0 160 160" fill="none" xmlns="http://www.w3.org/2000/svg">
<circle cx="80" cy="80" r="80" fill="#FA5252"/>
<circle cx="79.5" cy="80.5" r="70.5" fill="#FA5252" stroke="white" stroke-width="4"/>
<path d="M80.4955 87.1011L76.1376 90.1525L63.3497 71.8895L67.7076 68.8381L80.4955 87.1011ZM65.969 82.4036C66.6114 83.321 67.0388 84.3178 67.2511 85.394C67.4826 86.4568 67.4751 87.5445 67.2286 88.657C66.9688 89.7504 66.4567 90.8496 65.6922 91.9546C64.9144 93.0405 63.8565 94.0518 62.5185 94.9887C61.1615 95.9389 59.8397 96.5938 58.5533 96.9533C57.2535 97.2938 56.0359 97.4058 54.9004 97.2893C53.7707 97.1404 52.7365 96.7821 51.7978 96.2145C50.8783 95.6335 50.0973 94.8843 49.4549 93.9669L48.3106 92.3327C47.6682 91.4152 47.2313 90.4251 46.9999 89.3623C46.7875 88.2861 46.8113 87.2013 47.0711 86.1079C47.3366 84.982 47.8583 83.8761 48.6362 82.7902C49.414 81.7043 50.4815 80.6863 51.8385 79.7361C53.1765 78.7992 54.4887 78.151 55.7751 77.7915C57.0615 77.4319 58.2696 77.3266 59.3993 77.4756C60.5157 77.6054 61.5336 77.9608 62.4532 78.5418C63.3918 79.1094 64.1823 79.8519 64.8247 80.7694L65.969 82.4036ZM85.7809 94.0392L64.1921 109.156L58.0692 100.411L62.4271 97.36L66.0607 102.549L83.2916 90.4841L85.7809 94.0392ZM60.6676 84.1075C60.3196 83.6105 59.922 83.2053 59.4746 82.8919C59.0139 82.5594 58.5073 82.3444 57.9549 82.247C57.4024 82.1496 56.8108 82.1793 56.18 82.3361C55.5683 82.4796 54.9376 82.7788 54.2877 83.2339C53.6187 83.7023 53.1027 84.206 52.7396 84.7451C52.3765 85.2842 52.1462 85.83 52.0488 86.3825C51.9705 86.9215 52.0088 87.4644 52.1637 88.0111C52.3052 88.5387 52.55 89.0509 52.8979 89.5479L53.6407 90.6087C53.9887 91.1056 54.393 91.5204 54.8538 91.8529C55.3145 92.1855 55.8115 92.4071 56.3449 92.5179C56.8973 92.6153 57.4889 92.5856 58.1197 92.4288C58.7505 92.272 59.4004 91.9593 60.0694 91.4909C60.7192 91.0359 61.2162 90.5455 61.5602 90.0198C61.9233 89.4807 62.1535 88.9349 62.251 88.3824C62.3484 87.83 62.3196 87.2804 62.1647 86.7337C62.0098 86.1871 61.7584 85.6652 61.4104 85.1683L60.6676 84.1075ZM101.302 69.5414C103.29 68.1495 105.018 67.5662 106.486 67.7916C107.94 67.9978 109.176 68.8273 110.194 70.2799C111.237 71.7708 111.608 73.235 111.304 74.6725C111 76.11 109.854 77.5247 107.866 78.9166L95.3949 87.6493C93.4071 89.0412 91.6762 89.6407 90.2024 89.4478C88.7477 89.2416 87.4984 88.393 86.4545 86.9022C85.4373 85.4495 85.0806 84.0044 85.3844 82.5669C85.6938 81.0969 86.8425 79.666 88.8303 78.2741L101.302 69.5414ZM101.92 60.4777C99.5173 61.8467 97.1328 62.8755 94.7664 63.5639C92.4058 64.2199 90.2353 64.4152 88.2549 64.1498C87.8078 66.1149 86.8628 68.1011 85.4199 70.1084C83.9827 72.0833 82.2005 73.9721 80.0732 75.775L75.7777 73.9118C76.9914 72.9196 78.0722 71.9207 79.0202 70.9151C79.9873 69.8961 80.8034 68.9258 81.4685 68.0044C82.1393 67.0504 82.6562 66.1615 83.0193 65.3376C83.3824 64.5137 83.5696 63.7844 83.581 63.1497L74.9226 69.2124L72.5738 65.858L95.1947 50.0187L97.5434 53.3731L88.885 59.4358C89.4853 59.6422 90.225 59.7224 91.1043 59.6764C92.0028 59.617 93.0053 59.4419 94.1121 59.1512C95.2246 58.828 96.4249 58.3863 97.7132 57.826C99.0015 57.2658 100.329 56.5784 101.696 55.7639L101.92 60.4777ZM107.491 62.9428L80.5414 81.8135L78.1324 78.3731L105.082 59.5024L107.491 62.9428ZM105.326 75.6539C105.823 75.306 106.108 74.9207 106.183 74.4983C106.271 74.0949 106.174 73.6926 105.893 73.2912C105.612 72.8898 105.267 72.6614 104.858 72.606C104.435 72.5315 103.976 72.6683 103.479 73.0163L91.3511 81.5081C90.8542 81.856 90.5684 82.2412 90.4939 82.6637C90.4061 83.0671 90.5027 83.4694 90.7837 83.8708C91.0648 84.2722 91.4098 84.5006 91.8189 84.5559C92.2414 84.6304 92.7011 84.4937 93.198 84.1457L105.326 75.6539Z" fill="white"/>
<path d="M31.502 58.2459C31.2608 57.3803 32.2424 56.6929 32.9734 57.2156L36.4731 59.7183C36.8015 59.9532 37.2425 59.9553 37.5733 59.7237L41.222 57.1689C41.9932 56.6289 42.9967 57.4159 42.6561 58.2936L41.1476 62.1806C40.9903 62.5861 41.1277 63.0468 41.4815 63.2998L44.7938 65.6685C45.5389 66.2013 45.1758 67.376 44.26 67.3953L39.7186 67.4913C39.333 67.4994 38.9904 67.7393 38.8509 68.0989L37.2075 72.3335C36.8761 73.1875 35.6481 73.127 35.4022 72.2446L34.3093 68.3219C34.1925 67.9028 33.8067 67.6161 33.3717 67.6253L29.2032 67.7134C28.262 67.7333 27.8657 66.5211 28.6368 65.9811L32.2855 63.4262C32.6163 63.1946 32.7651 62.7795 32.6567 62.3905L31.502 58.2459Z" fill="white"/>
<path d="M51.8301 44.0118C51.5889 43.1462 52.5706 42.4588 53.3015 42.9815L56.8012 45.4841C57.1297 45.719 57.5706 45.7212 57.9014 45.4896L61.5501 42.9347C62.3213 42.3948 63.3248 43.1818 62.9842 44.0595L61.4758 47.9465C61.3184 48.352 61.4558 48.8127 61.8097 49.0657L65.1219 51.4343C65.8671 51.9672 65.5039 53.1418 64.5881 53.1612L60.0468 53.2571C59.6612 53.2653 59.3185 53.5052 59.179 53.8647L57.5356 58.0994C57.2042 58.9533 55.9762 58.8928 55.7303 58.0104L54.6374 54.0878C54.5206 53.6687 54.1348 53.382 53.6999 53.3912L49.5313 53.4793C48.5901 53.4991 48.1938 52.2869 48.965 51.7469L52.6136 49.1921C52.9445 48.9605 53.0932 48.5454 52.9848 48.1564L51.8301 44.0118Z" fill="white"/>
<path d="M72.1582 29.7778C71.917 28.9122 72.8987 28.2248 73.6296 28.7475L77.1293 31.2501C77.4578 31.485 77.8987 31.4872 78.2295 31.2556L81.8782 28.7007C82.6494 28.1608 83.653 28.9478 83.3124 29.8254L81.8039 33.7124C81.6465 34.118 81.7839 34.5786 82.1378 34.8317L85.4501 37.2003C86.1952 37.7332 85.832 38.9078 84.9162 38.9272L80.3749 39.0231C79.9893 39.0313 79.6467 39.2712 79.5071 39.6307L77.8638 43.8654C77.5323 44.7193 76.3043 44.6588 76.0584 43.7764L74.9655 39.8538C74.8488 39.4347 74.4629 39.148 74.028 39.1572L69.8595 39.2453C68.9182 39.2651 68.5219 38.0529 69.2931 37.5129L72.9418 34.9581C73.2726 34.7265 73.4213 34.3114 73.3129 33.9224L72.1582 29.7778Z" fill="white"/>
<path d="M74.1101 119.097C73.8689 118.231 74.8506 117.544 75.5815 118.067L79.0812 120.569C79.4097 120.804 79.8506 120.806 80.1814 120.575L83.8301 118.02C84.6013 117.48 85.6049 118.267 85.2643 119.145L83.7558 123.032C83.5984 123.437 83.7358 123.898 84.0897 124.151L87.402 126.52C88.1471 127.052 87.7839 128.227 86.8681 128.246L82.3268 128.342C81.9412 128.35 81.5986 128.59 81.459 128.95L79.8157 133.185C79.4842 134.039 78.2562 133.978 78.0104 133.096L76.9174 129.173C76.8007 128.754 76.4148 128.467 75.9799 128.476L71.8114 128.564C70.8702 128.584 70.4738 127.372 71.245 126.832L74.8937 124.277C75.2245 124.046 75.3732 123.631 75.2649 123.242L74.1101 119.097Z" fill="white"/>
<path d="M94.4382 104.863C94.1971 103.997 95.1787 103.31 95.9096 103.833L99.4093 106.335C99.7378 106.57 100.179 106.572 100.51 106.341L104.158 103.786C104.929 103.246 105.933 104.033 105.592 104.911L104.084 108.798C103.927 109.203 104.064 109.664 104.418 109.917L107.73 112.285C108.475 112.818 108.112 113.993 107.196 114.012L102.655 114.108C102.269 114.116 101.927 114.356 101.787 114.716L100.144 118.95C99.8124 119.804 98.5843 119.744 98.3385 118.861L97.2456 114.939C97.1288 114.52 96.7429 114.233 96.308 114.242L92.1395 114.33C91.1983 114.35 90.8019 113.138 91.5731 112.598L95.2218 110.043C95.5526 109.812 95.7014 109.396 95.593 109.007L94.4382 104.863Z" fill="white"/>
<path d="M114.766 90.629C114.525 89.7634 115.507 89.076 116.238 89.5987L119.737 92.1013C120.066 92.3362 120.507 92.3384 120.838 92.1068L124.486 89.5519C125.258 89.012 126.261 89.799 125.921 90.6766L124.412 94.5636C124.255 94.9692 124.392 95.4298 124.746 95.6829L128.058 98.0515C128.803 98.5843 128.44 99.759 127.524 99.7784L122.983 99.8743C122.597 99.8825 122.255 100.122 122.115 100.482L120.472 104.717C120.14 105.571 118.912 105.51 118.667 104.628L117.574 100.705C117.457 100.286 117.071 99.9992 116.636 100.008L112.468 100.096C111.526 100.116 111.13 98.9041 111.901 98.3641L115.55 95.8093C115.881 95.5777 116.029 95.1626 115.921 94.7735L114.766 90.629Z" fill="white"/>
</svg>
