<svg id="fc_box_smaller_color_13" xmlns="http://www.w3.org/2000/svg" width="1108" height="135" viewBox="0 0 1108 135">
    <defs>
        <clipPath id="clip-path">
            <path id="사각형_664" data-name="사각형 664" style="stroke:#527773;stroke-width:2px;fill:none" d="M0 0h20v20H0z"/>
        </clipPath>
        <style>
            .cls-6{fill:none;stroke:#527773;stroke-width:2px}.cls-3{fill:#527773}.cls-6{stroke-miterlimit:10}.cls-7{fill:#999}
        </style>
    </defs>
    <g id="fc_start_end_color" transform="translate(0 5)">
        <g id="fc_start_end_color-2" data-name="fc_start_end_color">
            <g id="fc_start_end">
                <g id="area" style="fill:#f5faf8;stroke-width:2px;stroke:#6c918e;">
                    <rect width="1108" height="130" rx="65" style="stroke:none"/>
                    <rect x="1" y="1" width="1106" height="128" rx="64" style="fill:none"/>
                </g>
                <g id="그룹_1862" data-name="그룹 1862" transform="translate(191 -810)">
                    <path id="line" class="cls-3" transform="translate(211 889)" d="M0 0h304v1H0z"/>
                    <g id="그룹_1835" data-name="그룹 1835">
                        <g id="ico_flowchart_info" transform="translate(490.403 862)">
                            <g id="그룹_883" data-name="그룹 883" transform="translate(2 2)">
                                <g id="그룹_882" data-name="그룹 882" style="clip-path:url(#clip-path)">
                                    <circle id="타원_113" data-name="타원 113" class="cls-6" cx="9" cy="9" r="9" transform="translate(1 1)"/>
                                    <path id="선_136" data-name="선 136" class="cls-6" transform="translate(10 9)" d="M0 0v6"/>
                                    <path id="선_137" data-name="선 137" class="cls-6" transform="translate(10 5)" d="M0 0v2"/>
                                </g>
                            </g>
                        </g>
                        <path id="패스_11115" data-name="패스 11115" class="cls-3" d="M-135.307-18.547v6.721h14.586v-6.721zm2.934 4.409v-2.1h8.66v2.1zm14.122 3.439h-19.459v2.345h8.188v1.367h-5.942v2.254h11.884v1.1h-11.867v5.647h15.373V-.24h-12.439v-1.285h11.884v-5.461h-5.892v-1.368h8.271zm16.144-8.486v10.956h2.967v-10.956zm-8.006 6.812a7.984 7.984 0 0 0 5.155 3.936l1.417-2.3c-3.273-.854-4.881-2.934-5.088-5.064h4.268v-2.387h-11.727v2.388h4.384c-.215 2.287-1.848 4.525-5.163 5.453L-115.508-8a8.2 8.2 0 0 0 5.395-4.373zm-.34 10.691h11.345v-5.694h-14.312v2.262h11.329v1.294h-11.279v5.834h14.843V-.29h-11.925zm34.79 3.829h2.963v-21.3h-2.967zM-88.674-8.329a7.336 7.336 0 0 0 5.138-3.265 7.369 7.369 0 0 0 5.022 2.959l1.177-2.3c-3.157-.572-4.666-2.1-4.749-3.8h4.243v-2.3h-4.243v-2.1h-2.983v2.1h-4.26v2.3h4.235c-.083 1.807-1.583 3.489-4.807 4.077zm11.718.323a114.123 114.123 0 0 1-13.674.588l.365 2.436c1.566 0 3.323-.008 5.18-.083V1.5h3v-6.721c1.773-.133 3.58-.323 5.337-.63zm23.735-2.818a25.662 25.662 0 0 0 .506-5.776v-1.715h-14.818v2.4H-55.7a25.892 25.892 0 0 1-.489 5.1H-69.92v2.378h19.508v-2.378zm-11.428 6.067v-2.279h-2.942v8.959h14.785v-8.959h-2.959v2.279zm0 4.26v-1.981h8.884V-.5zm35.909 2.66h3.025v-21.348h-3.025zm-13.682-19.1v2.345h7.268c-.481 4.74-2.909 8.1-8.412 10.715l1.558 2.377c7.624-3.6 9.9-8.975 9.9-15.439zm21.489 7.376c3.978-.439 6.622-2.113 7.749-4.309C-12.058-11.669-9.4-10-5.4-9.564l1.1-2.345c-4.21-.472-6.423-2.254-6.771-3.994h5.891v-2.354h-15.936v2.357h5.851c-.348 1.732-2.536 3.522-6.746 3.994zm-1.972 3.406h8.528v3.671h2.959v-3.673H-3.4v-2.4h-19.506zm2.287 1.782V1.79h15.074V-.622h-12.091v-3.754zM5.354-9.564c3.977-.436 6.621-2.113 7.746-4.309 1.127 2.2 3.787 3.87 7.782 4.309l1.1-2.345c-4.21-.472-6.423-2.254-6.771-3.994h5.892v-2.354H5.171v2.357h5.851c-.348 1.732-2.536 3.522-6.746 3.994zM3.381-6.157h8.528v3.671h2.959v-3.671h8.022v-2.4H3.381zm2.288 1.781V1.79h15.074V-.622H8.652v-3.754zM33.9-13.765c1.392 2.312 4.127 4.044 7.856 4.575l1.164-2.41c-4.881-.6-7.45-3.39-7.45-5.909v-1.036h-3.141v1.036c-.008 2.519-2.569 5.3-7.417 5.909l1.177 2.412c3.696-.533 6.411-2.265 7.811-4.577zm-9.743 6.19v2.436h8.188v7.3H35.3v-7.3h8.312v-2.436zM65.3-19.185v10.807h2.967v-10.807zm-8.213 6.4a8.03 8.03 0 0 0 5.1 4.1l1.467-2.3c-3.5-1-5.055-3.489-5.039-6.083V-18.7h-3.1v1.633a6.674 6.674 0 0 1-5.163 6.414l1.477 2.333a8.223 8.223 0 0 0 5.254-4.467zM56.95-1.674H68.3v-5.768H53.983v2.312h11.329v1.251H54.033v5.893h14.843V-.34H56.95zm29.238-12.373h-3.307v2.447h3.307v5.138h2.983v-12.723h-2.983zM77.76-11.3a7.975 7.975 0 0 0 4.914 4.21l1.475-2.3a6.6 6.6 0 0 1-4.906-6.21h4.251v-2.378H71.925v2.378H76.2a6.944 6.944 0 0 1-5.13 6.588l1.53 2.357a8.275 8.275 0 0 0 5.16-4.645zm8.428 8.171v5.3h2.983v-7.699h-14.66v2.4zM108.671-6.7h6.157v-11.118h-2.983v3.323h-9.3v-3.323h-3V-6.7h6.166v3.953h-8.228v2.424h19.508v-2.428h-8.32zm3.174-5.42v3.033h-9.3v-3.033zM134.95-5.1a50.7 50.7 0 0 0 .854-10.21v-2.022H120.24v2.378h12.56a46.222 46.222 0 0 1-.87 9.539zm-6.787-5.122H125.2v7.334h-6.961v2.432h19.459v-2.428h-9.53z" transform="translate(348.71 883)"/>
                    </g>
                </g>
            </g>
        </g>
    </g>
    <path id="다각형_118" data-name="다각형 118" class="cls-7" d="M7.5 0 15 11H0z" transform="rotate(180 163.5 5.5)"/>
    <path id="다각형_119" data-name="다각형 119" class="cls-7" d="M7.5 0 15 11H0z" transform="rotate(180 399 5.5)"/>
    <path id="다각형_120" data-name="다각형 120" class="cls-7" d="M7.5 0 15 11H0z" transform="rotate(180 516.5 5.5)"/>
</svg>
