<svg id="fc_box_smaller_color_10" xmlns="http://www.w3.org/2000/svg" width="166" height="135" viewBox="0 0 166 135">
    <defs>
        <clipPath id="clip-path">
            <path id="사각형_664" data-name="사각형 664" style="stroke:#527773;stroke-width:2px;fill:none" d="M0 0h20v20H0z"/>
        </clipPath>
        <style>
            .cls-5{fill:none;stroke:#527773;stroke-width:2px;stroke-miterlimit:10}.cls-6{fill:#326f5e}
        </style>
    </defs>
    <g id="fc_box_smaller_long_color" transform="translate(0 5)">
        <g id="box" style="fill:#f5faf8;stroke-width:2px;stroke:#6c918e;">
            <path style="stroke:none" d="M0 0h166v130H0z"/>
            <path style="fill:none" d="M1 1h164v128H1z"/>
        </g>
        <g id="그룹_1841" data-name="그룹 1841" transform="translate(-80 -1254)">
            <g id="그룹_1846" data-name="그룹 1846" transform="translate(53)">
                <g id="ico_flowchart_info" transform="translate(134.837 1336)">
                    <g id="그룹_883" data-name="그룹 883" transform="translate(2 2)">
                        <g id="그룹_882" data-name="그룹 882" style="clip-path:url(#clip-path)">
                            <circle id="타원_113" data-name="타원 113" class="cls-5" cx="9" cy="9" r="9" transform="translate(1 1)"/>
                            <path id="선_136" data-name="선 136" class="cls-5" transform="translate(10 9)" d="M0 0v6"/>
                            <path id="선_137" data-name="선 137" class="cls-5" transform="translate(10 5)" d="M0 0v2"/>
                        </g>
                    </g>
                </g>
                <path id="패스_11111" data-name="패스 11111" class="cls-6" d="M-28.246-11.471A8.813 8.813 0 0 0-21.7-7.659l.974-2.01c-4.068-.5-6.209-2.825-6.209-4.924v-.863h-2.617v.863c-.007 2.1-2.141 4.42-6.181 4.924l.981 2.01a8.777 8.777 0 0 0 6.506-3.812zm-8.114 5.159v2.03h6.823V1.8h2.465v-6.082h6.927v-2.03zm18.646-2.569c3.322-.173 5.608-1.008 6.727-2.341 1.126 1.333 3.419 2.169 6.713 2.341l.732-1.837c-3.591-.152-5.4-1-5.9-2.03h5.021v-1.844h-5.33v-1.4h-2.472v1.4h-5.29v1.844h4.979c-.518 1.029-2.32 1.878-5.863 2.03zm14.82.477h-16.139v1.816h6.823v1.118h-4.99v1.782h9.9v.888h-9.889v4.478h12.817V-.159h-10.366v-.974h9.9V-5.47h-4.91v-1.118h6.851zm13.847-3.819c1.133 1.747 3.356 3.046 6.367 3.453l.912-1.961c-3.936-.449-6.008-2.521-6-4.385v-.584h-2.57v.587c-.007 1.878-2.086 3.936-6.036 4.385l.953 1.961c3.021-.411 5.235-1.703 6.374-3.457zM2.838-5.836h16.216V-7.79H2.838zm8.073 1.2C7.023-4.641 4.689-3.494 4.689-1.4c0 2.051 2.334 3.218 6.222 3.225 3.847-.009 6.182-1.176 6.195-3.225-.013-2.094-2.348-3.241-6.194-3.234zm0 4.551C8.453-.076 7.217-.49 7.231-1.4c-.014-.925 1.222-1.34 3.681-1.354 2.417.014 3.688.428 3.695 1.354S13.329-.076 10.912-.083zm21.6-15.877v12.778h2.5V-15.96zm-2.39 5.608a4.571 4.571 0 0 0-4.855-4.482 4.573 4.573 0 0 0-4.866 4.484 4.569 4.569 0 0 0 4.862 4.51 4.567 4.567 0 0 0 4.855-4.51zm-7.279 0a2.237 2.237 0 0 1 2.424-2.314 2.244 2.244 0 0 1 2.4 2.314 2.243 2.243 0 0 1-2.4 2.341 2.237 2.237 0 0 1-2.428-2.339zm2.776 5.877h-2.524v5.969h12.383v-2.01h-9.862z" transform="translate(95.36 1355)"/>
            </g>
            <path id="line" class="cls-6" transform="translate(112 1362)" d="M0 0h102v1H0z"/>
        </g>
        <g id="그룹_1840" data-name="그룹 1840" transform="translate(-80 -1254)">
            <path id="패스_11110" data-name="패스 11110" class="cls-6" d="M-48.861-8.95h-2.41v2.017h2.41V1.8h2.461v-17.79h-2.465zm-6.039-4.379V-15.7h-2.5v2.376h-3.95v2h10.45v-2zm-1.243 2.99A4.147 4.147 0 0 0-60.428-6.1a4.159 4.159 0 0 0 4.289 4.24 4.164 4.164 0 0 0 4.274-4.24 4.152 4.152 0 0 0-4.275-4.238zm0 6.36A1.915 1.915 0 0 1-58.108-6.1a1.961 1.961 0 0 1 1.968-2.139A1.971 1.971 0 0 1-54.157-6.1a1.925 1.925 0 0 1-1.983 2.122zm26.064-5.193v-6.816h-2.493V1.761h2.493v-8.874h2.514v-2.058zm-13.211-4.993v2.037h5.925c-.47 3.964-2.728 6.8-6.927 8.909l1.4 1.906c5.974-2.935 8.052-7.535 8.066-12.852zM-25.849-1.45l-.967 5.559h2.065l1.685-5.559zm21.263-5.739v4.337H-2.1V-15.96h-2.486v2.97h-3.273v-1.81h-2.465v2.728h-3.5V-14.8h-2.5v9.144h8.467v-1.533zm0-2h-3.273v-1.8h3.273zm-9.24 1.568v-2.559h3.5v2.562zm2.41 3.46h-2.521v5.653H-1.72v-2.01h-9.7zm24.123-6.989v1.685H8.715v2h3.992v1.747h2.486V-15.96h-2.486v2.845h-3.3a11.7 11.7 0 0 0 .117-1.657h-8.2v2h5.5C6.457-10.331 4.454-8.37.366-7.3l.974 1.962c3.909-1.064 6.436-3 7.541-5.808zM9.268-5.5c-3.646.007-6.084 1.388-6.077 3.6s2.431 3.62 6.077 3.62c3.6 0 6.043-1.4 6.057-3.626-.014-2.21-2.452-3.594-6.057-3.594zm0 5.249c-2.251 0-3.591-.559-3.584-1.651S7.017-3.57 9.268-3.564c2.21-.007 3.55.559 3.557 1.657S11.478-.256 9.268-.256zm25.38-8.699h-2.41v2.017h2.41V1.8h2.465v-17.79h-2.465zm-6.036-4.378V-15.7h-2.5v2.376h-3.95v2H32.6v-2zm-1.243 2.99A4.147 4.147 0 0 0 23.08-6.1a4.159 4.159 0 0 0 4.289 4.24 4.164 4.164 0 0 0 4.275-4.24 4.152 4.152 0 0 0-4.275-4.238zm0 6.36A1.915 1.915 0 0 1 25.4-6.1a1.961 1.961 0 0 1 1.968-2.141A1.971 1.971 0 0 1 29.351-6.1a1.925 1.925 0 0 1-1.982 2.122zm26.063-5.193v-6.816h-2.493V1.761h2.493v-8.874h2.514v-2.058zm-13.211-4.993v2.037h5.925c-.47 3.964-2.728 6.8-6.927 8.909l1.4 1.906c5.974-2.935 8.052-7.535 8.066-12.852zM57.659-1.45l-.967 5.559h2.065l1.685-5.559z" transform="translate(163 1325)"/>
            <path id="line-2" data-name="line" class="cls-6" transform="translate(101 1332)" d="M0 0h124v1H0z"/>
        </g>
        <g id="그룹_1884" data-name="그룹 1884" transform="translate(-80 -1284)">
            <path id="패스_11109" data-name="패스 11109" class="cls-6" d="M-42.058 1.8h2.358v-17.79h-2.355zm-5.953-11.683v2h2.341V.974h2.334v-16.665h-2.334v5.808zm-1.43-2.286h2.693v-2h-8.011v2h2.914v.946c0 3.025-.974 6.215-3.591 7.831l1.506 1.837A8.275 8.275 0 0 0-50.615-6.4a7.518 7.518 0 0 0 3.232 4.434l1.457-1.83c-2.6-1.485-3.522-4.468-3.515-7.431zm13.308 6.7a8.782 8.782 0 0 0 6.471-4.275c1.146 2.106 3.453 3.626 6.568 4.171l.988-1.968c-3.812-.559-6.029-2.721-6.243-5.069h5.414v-2.017h-13.481v2.017h5.407c-.214 2.355-2.417 4.579-6.1 5.173zm7.728-.787h-2.5v3.964h-6.865v2.023h16.257v-2.024H-28.4zm12.141-8.55-4.558 16.933h2.5l4.558-16.934zm11.333 3.336a8.813 8.813 0 0 0 6.547 3.811l.974-2.01c-4.068-.5-6.209-2.825-6.209-4.924v-.863h-2.617v.863c-.007 2.1-2.141 4.42-6.181 4.924l.981 2.01a8.777 8.777 0 0 0 6.505-3.812zm-8.115 5.159v2.03h6.823V1.8h2.465v-6.082H3.17v-2.03zm29.668-9.675v9.565h2.5v-9.565zm-7.244.746c-2.776-.007-4.869 1.727-4.862 4.22C4.51-8.591 6.6-6.858 9.378-6.858s4.855-1.733 4.855-4.164c0-2.493-2.085-4.227-4.855-4.22zm0 2.079a2.148 2.148 0 0 1 2.4 2.141 2.145 2.145 0 0 1-2.4 2.12c-1.423-.007-2.438-.794-2.424-2.12a2.148 2.148 0 0 1 2.424-2.143zm-2.14 7.519V1.6h11.885v-7.242h-2.486v1.651H9.689v-1.651zm2.451 3.584h6.948v1.644H9.689zm25.953-13.9h-2.5v13.085h2.5V-8.9h2.39v-2.06h-2.39zM32.12-7.776q-1 .124-2.072.207v-4.938H31.5v-1.982h-9.587v1.982h1.457v5.221c-.677.007-1.326.014-1.934.014l.269 2a64.506 64.506 0 0 0 10.6-.67zm-4.468-4.731v5.1c-.635.028-1.264.055-1.885.069v-5.166zm-3.543 8.391v5.608h12.169v-2.01H26.6v-3.6zm27.742-5.076h-1.6v-6.519h-2.357V.981h2.355v-8.143h1.6V1.8h2.383v-17.79h-2.381zM46.4-2.673v-11.464h-7.07v11.464zm-2.327-9.5v7.548h-2.41v-7.548z" transform="translate(163 1325)"/>
            <path id="line-3" data-name="line" class="cls-6" transform="translate(107 1332)" d="M0 0h112v1H0z"/>
        </g>
    </g>
    <path id="다각형_122" data-name="다각형 122" d="M7.5 0 15 11H0z" transform="rotate(180 45 5.5)" style="fill:#999"/>
</svg>
