<svg id="fc_box_smaller_color_09" xmlns="http://www.w3.org/2000/svg" width="166" height="135" viewBox="0 0 166 135">
    <defs>
        <clipPath id="clip-path">
            <path id="사각형_664" data-name="사각형 664" style="stroke:#527773;stroke-width:2px;fill:none" d="M0 0h20v20H0z"/>
        </clipPath>
        <style>
            .cls-5{fill:none;stroke:#527773;stroke-width:2px;stroke-miterlimit:10}.cls-6{fill:#326f5e}
        </style>
    </defs>
    <g id="fc_box_smaller_long_color" transform="translate(0 5)">
        <g id="box" style="fill:#d7eae1;stroke:#527773;stroke-width:2px">
            <path style="stroke:none" d="M0 0h166v130H0z"/>
            <path style="fill:none" d="M1 1h164v128H1z"/>
        </g>
        <g id="그룹_1841" data-name="그룹 1841" transform="translate(-80 -1269)">
            <g id="그룹_1846" data-name="그룹 1846" transform="translate(53)">
                <g id="ico_flowchart_info" transform="translate(132.224 1336)">
                    <g id="그룹_883" data-name="그룹 883" transform="translate(2 2)">
                        <g id="그룹_882" data-name="그룹 882" style="clip-path:url(#clip-path)">
                            <circle id="타원_113" data-name="타원 113" class="cls-5" cx="9" cy="9" r="9" transform="translate(1 1)"/>
                            <path id="선_136" data-name="선 136" class="cls-5" transform="translate(10 9)" d="M0 0v6"/>
                            <path id="선_137" data-name="선 137" class="cls-5" transform="translate(10 5)" d="M0 0v2"/>
                        </g>
                    </g>
                </g>
                <path id="패스_11108" data-name="패스 11108" class="cls-6" d="M-25.939-11.471a8.813 8.813 0 0 0 6.547 3.812l.974-2.01c-4.068-.5-6.209-2.825-6.209-4.924v-.863h-2.617v.863c-.007 2.1-2.141 4.42-6.181 4.924l.981 2.01a8.777 8.777 0 0 0 6.505-3.812zm-8.115 5.159v2.03h6.823V1.8h2.465v-6.082h6.927v-2.03zm18.646-2.569c3.322-.173 5.608-1.008 6.727-2.341 1.126 1.333 3.419 2.169 6.713 2.341l.732-1.837c-3.591-.152-5.4-1-5.9-2.03h5.016v-1.844h-5.325v-1.4h-2.472v1.4h-5.29v1.844h4.979c-.518 1.029-2.32 1.878-5.863 2.03zM-.587-8.4h-16.14v1.816H-9.9v1.114h-4.99v1.782h9.9v.888h-9.889v4.478h12.814V-.159h-10.366v-.974h9.9V-5.47h-4.91v-1.118h6.854zm9.233-3.819C9.779-10.477 12-9.178 15.014-8.771l.912-1.961c-3.936-.449-6.008-2.521-6-4.385v-.583H7.355v.587c-.007 1.878-2.086 3.936-6.036 4.385l.953 1.961c3.018-.411 5.235-1.703 6.374-3.457zM.532-5.836h16.215V-7.79H.532zM8.6-4.634C4.717-4.641 2.383-3.494 2.383-1.4c0 2.049 2.334 3.216 6.217 3.223 3.852-.007 6.186-1.174 6.2-3.223-.014-2.094-2.348-3.241-6.2-3.234zm0 4.551C6.146-.076 4.91-.49 4.924-1.4 4.91-2.327 6.146-2.742 8.6-2.756c2.417.014 3.688.428 3.695 1.354S11.022-.076 8.6-.083zM30.2-15.96v12.776h2.5V-15.96zm-2.39 5.608a4.571 4.571 0 0 0-4.855-4.482 4.573 4.573 0 0 0-4.862 4.482 4.569 4.569 0 0 0 4.862 4.51 4.567 4.567 0 0 0 4.856-4.51zm-7.279 0a2.237 2.237 0 0 1 2.424-2.314 2.244 2.244 0 0 1 2.4 2.314 2.243 2.243 0 0 1-2.4 2.341 2.237 2.237 0 0 1-2.423-2.341zm2.776 5.877h-2.52v5.967H33.17v-2.01h-9.862z" transform="translate(95.054 1355)"/>
            </g>
            <path id="line" class="cls-6" transform="translate(114 1362)" d="M0 0h98v1H0z"/>
        </g>
        <g id="그룹_1840" data-name="그룹 1840" transform="translate(-80 -1269)">
            <path id="패스_11107" data-name="패스 11107" class="cls-6" d="M-28.812-11.471a8.813 8.813 0 0 0 6.547 3.812l.974-2.01c-4.068-.5-6.209-2.825-6.209-4.924v-.863h-2.617v.863c-.007 2.1-2.141 4.42-6.181 4.924l.981 2.01a8.777 8.777 0 0 0 6.505-3.812zm-8.115 5.159v2.03h6.827V1.8h2.465v-6.082h6.927v-2.03zm29.669-9.675v9.565h2.5v-9.565zm-7.244.746c-2.776-.007-4.869 1.727-4.862 4.22-.007 2.431 2.086 4.164 4.862 4.164s4.855-1.733 4.855-4.164c-.001-2.494-2.086-4.228-4.853-4.221zm0 2.079a2.148 2.148 0 0 1 2.4 2.141A2.145 2.145 0 0 1-14.5-8.9c-1.423-.007-2.438-.794-2.424-2.12a2.148 2.148 0 0 1 2.424-2.143zm-2.141 7.521V1.6h11.885v-7.242h-2.486v1.651h-6.948v-1.651zm2.452 3.584h6.948v1.643h-6.948zM10.186-8.95h-2.41v2.017h2.41V1.8h2.465v-17.79h-2.465zm-6.035-4.379V-15.7h-2.5v2.376H-2.3v2H8.142v-2zm-1.243 2.99A4.147 4.147 0 0 0-1.381-6.1a4.159 4.159 0 0 0 4.289 4.24A4.164 4.164 0 0 0 7.182-6.1a4.152 4.152 0 0 0-4.275-4.238zm0 6.36A1.915 1.915 0 0 1 .939-6.1a1.961 1.961 0 0 1 1.968-2.139A1.971 1.971 0 0 1 4.889-6.1a1.925 1.925 0 0 1-1.982 2.122zm26.063-5.192v-6.816h-2.493V1.761h2.493v-8.874h2.514v-2.058zM15.76-14.164v2.037h5.925c-.47 3.964-2.728 6.8-6.927 8.909l1.4 1.906c5.974-2.935 8.052-7.535 8.066-12.852zM33.2-1.45l-.967 5.559H34.3l1.681-5.559z" transform="translate(163 1325)"/>
            <path id="line-2" data-name="line" class="cls-6" transform="translate(126 1332)" d="M0 0h74v1H0z"/>
        </g>
    </g>
    <path id="다각형_114" data-name="다각형 114" d="M7.5 0 15 11H0z" transform="rotate(180 45.5 5.5)" style="fill:#999"/>
</svg>
