<svg id="fc_box_smaller_color_06" xmlns="http://www.w3.org/2000/svg" width="166" height="135" viewBox="0 0 166 135">
    <defs>
        <clipPath id="clip-path">
            <path id="사각형_664" data-name="사각형 664" style="stroke:#527773;stroke-width:2px;fill:none" d="M0 0h20v20H0z"/>
        </clipPath>
        <style>
            .cls-6{fill:none;stroke:#527773;stroke-width:2px}.cls-3{fill:#527773}.cls-6{stroke-miterlimit:10}
        </style>
    </defs>
    <g id="fc_box_small_link_color" transform="translate(0 5)">
        <g id="box" style="fill:#d7eae1;stroke:#527773;stroke-width:2px">
            <path style="stroke:none" d="M0 0h166v130H0z"/>
            <path style="fill:none" d="M1 1h164v128H1z"/>
        </g>
        <path id="line" class="cls-3" transform="translate(52 79)" d="M0 0h63v1H0z"/>
        <g id="text" transform="translate(-115)">
            <g id="ic_info" transform="translate(204.529 53)">
                <g id="그룹_883" data-name="그룹 883" transform="translate(2 2)">
                    <g id="그룹_882" data-name="그룹 882" style="clip-path:url(#clip-path)">
                        <circle id="타원_113" data-name="타원 113" class="cls-6" cx="9" cy="9" r="9" transform="translate(1 1)"/>
                        <path id="선_136" data-name="선 136" class="cls-6" transform="translate(10 9)" d="M0 0v6"/>
                        <path id="선_137" data-name="선 137" class="cls-6" transform="translate(10 5)" d="M0 0v2"/>
                    </g>
                </g>
            </g>
            <path id="패스_11275" data-name="패스 11275" class="cls-3" d="M4.979 7.923V5.5h9.848v-2H2.493v6.4h12.424V7.923zM.532 13.178h16.243v-2.03H.532zM8.6 14.249c-3.881 0-6.222 1.174-6.222 3.26 0 2.106 2.341 3.294 6.222 3.287 3.86.007 6.181-1.181 6.195-3.287-.009-2.086-2.33-3.26-6.195-3.26zm0 4.655c-2.459-.007-3.695-.449-3.681-1.4-.014-.9 1.222-1.36 3.681-1.367 2.417.007 3.688.47 3.695 1.367-.002.95-1.273 1.396-3.695 1.396zm18.564-7.638h5.256V9.352H22.307V8.171H32.1V3.365H19.8v1.926h9.8v1.085h-9.773v4.889H24.7v1.291h-6.9v1.989h16.261v-1.988h-6.892zm2.514 6.25v3.2H32.2v-5.162H19.62v1.961z" transform="translate(166.468 53)"/>
        </g>
    </g>
    <path id="다각형_138" data-name="다각형 138" d="M7.5 0 15 11H0z" transform="rotate(180 45.5 5.5)" style="fill:#999"/>
</svg>
