<svg id="fc_box_smaller_color_12" xmlns="http://www.w3.org/2000/svg" width="538" height="135" viewBox="0 0 538 135">
    <defs>
        <clipPath id="clip-path">
            <path id="사각형_664" data-name="사각형 664" style="stroke:#527773;stroke-width:2px;fill:none" d="M0 0h20v20H0z"/>
        </clipPath>
        <style>
            .cls-6{fill:none;stroke:#527773;stroke-width:2px}.cls-3{fill:#527773}.cls-6{stroke-miterlimit:10}.cls-7{fill:#999}
        </style>
    </defs>
    <g id="fc_box_medium_color" transform="translate(0 5)">
        <g id="box" style="fill:#f5faf8;stroke-width:2px;stroke:#6c918e;">
            <path style="stroke:none" d="M0 0h538v130H0z"/>
            <path style="fill:none" d="M1 1h536v128H1z"/>
        </g>
        <g id="그룹_11108" data-name="그룹 11108" transform="translate(-94 -810)">
            <path id="line" class="cls-3" transform="translate(308 889)" d="M0 0h110v1H0z"/>
            <g id="그룹_1835" data-name="그룹 1835">
                <g id="ico_flowchart_info" transform="translate(392.829 862)">
                    <g id="그룹_883" data-name="그룹 883" transform="translate(2 2)">
                        <g id="그룹_882" data-name="그룹 882" style="clip-path:url(#clip-path)">
                            <circle id="타원_113" data-name="타원 113" class="cls-6" cx="9" cy="9" r="9" transform="translate(1 1)"/>
                            <path id="선_136" data-name="선 136" class="cls-6" transform="translate(10 9)" d="M0 0v6"/>
                            <path id="선_137" data-name="선 137" class="cls-6" transform="translate(10 5)" d="M0 0v2"/>
                        </g>
                    </g>
                </g>
                <path id="패스_11298" data-name="패스 11298" class="cls-3" d="M-34.923-7.591a5.776 5.776 0 0 0 4.177-1.633h4.873v2.552h2.983v-12.513h-2.983v2.826H-30.7a5.816 5.816 0 0 0-4.218-1.666c-3.232-.008-5.693 2.18-5.677 5.221-.021 3.017 2.44 5.221 5.672 5.213zm-2.842-5.209a2.566 2.566 0 0 1 2.843-2.66 2.565 2.565 0 0 1 2.8 2.66 2.615 2.615 0 0 1-2.8 2.685 2.614 2.614 0 0 1-2.843-2.685zm11.892 1.193h-3.547a5.115 5.115 0 0 0 .141-1.193 5.524 5.524 0 0 0-.133-1.185h3.539zm-4.309 5.37c-4.508-.008-7.334 1.55-7.326 4.2-.008 2.644 2.818 4.2 7.326 4.193 4.508.008 7.343-1.55 7.351-4.193-.009-2.654-2.843-4.212-7.351-4.203zm0 6.066c-2.826.008-4.409-.622-4.392-1.865-.017-1.276 1.566-1.914 4.392-1.914 2.884 0 4.417.638 4.425 1.914C-25.765-.8-27.3-.166-30.182-.174zm25.06-14.257h-3.555a5.384 5.384 0 0 0-5.494-3.837c-3.282-.017-5.693 2.122-5.677 5.047-.017 2.975 2.4 5.1 5.677 5.1a5.38 5.38 0 0 0 5.5-3.936h3.547v4.343h2.983v-11.474h-2.981zm-9.05 3.812a2.584 2.584 0 0 1-2.843-2.6 2.549 2.549 0 0 1 2.843-2.561 2.544 2.544 0 0 1 2.8 2.561 2.579 2.579 0 0 1-2.799 2.6zm.746 5.9v-2.055h-2.942v8.694h14.23v-8.694h-2.984v2.055zm0 4.218V-2.42h8.3V-.5zm29.1-10.243h-2.895v2.42h2.892V2.163h2.959v-21.348h-2.959zm-7.246-5.253v-2.851h-3v2.851H.688v2.4h12.53v-2.4zm-1.492 3.588A4.976 4.976 0 0 0 1.79-7.318a4.991 4.991 0 0 0 5.146 5.089 5 5 0 0 0 5.13-5.088 4.982 4.982 0 0 0-5.13-5.089zm0 7.633a2.3 2.3 0 0 1-2.361-2.545 2.353 2.353 0 0 1 2.361-2.569 2.365 2.365 0 0 1 2.379 2.569 2.309 2.309 0 0 1-2.379 2.545zm31.276-6.232v-8.18h-2.991v21.3h2.992V-8.536h3.017v-2.47zM22.359-17v2.445h7.11C28.906-9.8 26.2-6.4 21.157-3.862l1.683 2.287C30.008-5.1 32.5-10.616 32.519-17z" transform="translate(347.6 883)"/>
            </g>
        </g>
    </g>
    <path id="다각형_115" data-name="다각형 115" class="cls-7" d="M7.5 0 15 11H0z" transform="rotate(180 45 5.5)"/>
    <path id="다각형_116" data-name="다각형 116" class="cls-7" d="M7.5 0 15 11H0z" transform="rotate(180 163 5.5)"/>
    <path id="다각형_117" data-name="다각형 117" class="cls-7" d="M7.5 0 15 11H0z" transform="rotate(180 238.5 5.5)"/>
</svg>
