<svg id="fc_box_smaller_color_07" xmlns="http://www.w3.org/2000/svg" width="258" height="135" viewBox="0 0 258 135">
    <defs>
        <clipPath id="clip-path">
            <path id="사각형_664" data-name="사각형 664" style="stroke:#527773;stroke-width:2px;fill:none" d="M0 0h20v20H0z"/>
        </clipPath>
        <style>
            .cls-6{fill:none;stroke:#527773;stroke-width:2px}.cls-3{fill:#326f5e}.cls-6{stroke-miterlimit:10}
        </style>
    </defs>
    <g id="fc_box_small2__long_color" data-name="fc_box_small2_ long_color" transform="translate(0 5)">
        <g id="fc_box_smaller_small_long_link_color">
            <g id="fc_box_smaller_small_long_link_color-2" data-name="fc_box_smaller_small_long_link_color">
                <g id="box" style="fill:#f5faf8;stroke-width:2px;stroke:#6c918e;">
                    <path style="stroke:none" d="M0 0h258v130H0z"/>
                    <path style="fill:none" d="M1 1h256v128H1z"/>
                </g>
                <path id="패스_11097" data-name="패스 11097" class="cls-3" d="M-19.841-8.75v-7.238h-2.514V1.8h2.514v-8.485h2.32V-8.75zM-27.383-14v-1.885h-2.507V-14h-4.033v1.954h10.546V-14zm0 9.22C-25.5-5.138-24.254-6.354-24.24-8c-.014-2-1.83-3.349-4.372-3.349C-31.2-11.347-33-9.993-32.99-8c-.01 1.64 1.215 2.848 3.1 3.214v1.533c-1.575.035-3.08.035-4.378.035l.331 2.03a60.711 60.711 0 0 0 10.863-.725l-.166-1.809c-1.326.186-2.735.3-4.144.373zM-30.622-8c-.007-.925.794-1.45 2.01-1.45 1.181 0 1.975.525 1.975 1.45s-.794 1.436-1.975 1.436c-1.215.003-2.016-.501-2.01-1.436zm20.38-6.388v-1.682h-2.486v1.685h-4.04v1.954h10.553v-1.954zm7.583 3.025v-4.627h-2.5v11.16h2.5v-4.5h2.39v-2.03zm-4.454 2.786c0-1.954-1.8-3.273-4.372-3.28s-4.42 1.326-4.413 3.28 1.83 3.277 4.413 3.277 4.372-1.323 4.372-3.277zm-6.36 0c0-.912.794-1.4 1.989-1.409s2 .5 2.01 1.409S-10.3-7.2-11.485-7.2s-1.989-.473-1.989-1.377zm8.315 6.485V1.8h2.5v-5.881h-11.969v1.989zm7.693-13.364v5.6h12.154v-5.6zm2.445 3.674v-1.747h7.22v1.747zm11.767 2.866H.532v1.954h6.823v1.14H2.4v1.878h9.9v.919H2.417v4.7h12.811V-.2H4.862v-1.07h9.9v-4.552H9.855v-1.14h6.892zM30.2-15.988v9.13h2.472v-9.13zm-6.671 5.677a6.653 6.653 0 0 0 4.3 3.28l1.181-1.92c-2.728-.711-4.068-2.445-4.24-4.22h3.557v-1.989H18.55v1.989h3.65c-.18 1.906-1.54 3.771-4.3 4.544l1.133 1.961a6.833 6.833 0 0 0 4.496-3.645zM23.246-1.4H32.7v-4.746H20.773v1.885h9.441v1.077h-9.4v4.862h12.37v-1.92h-9.938z" transform="translate(129 56)"/>
                <g id="그룹_1861" data-name="그룹 1861" transform="translate(-45 -14)">
                    <g id="ico_flowchart_info" transform="translate(225.744 81)">
                        <g id="그룹_883" data-name="그룹 883" transform="translate(2 2)">
                            <g id="그룹_882" data-name="그룹 882" style="clip-path:url(#clip-path)">
                                <circle id="타원_113" data-name="타원 113" class="cls-6" cx="9" cy="9" r="9" transform="translate(1 1)"/>
                                <path id="선_136" data-name="선 136" class="cls-6" transform="translate(10 9)" d="M0 0v6"/>
                                <path id="선_137" data-name="선 137" class="cls-6" transform="translate(10 5)" d="M0 0v2"/>
                            </g>
                        </g>
                    </g>
                    <path id="패스_11098" data-name="패스 11098" class="cls-3" d="M-55.691-14.662v-1.45h-2.486v1.45h-3.853v1.809h10.166v-1.809zm7.6 3.785v-5.083h-2.493v12.079h2.493v-4.952h2.279v-2.044zm-3.322 4.227c-1.36.166-2.818.283-4.275.352v-.919C-53.8-7.5-52.611-8.439-52.6-9.793c-.007-1.644-1.733-2.659-4.351-2.652s-4.365 1.008-4.358 2.652c-.007 1.367 1.2 2.314 3.135 2.583v1c-1.54.041-3.018.048-4.323.048l.256 1.927a66.627 66.627 0 0 0 11.008-.7zm-7.517-3.143c-.007-.684.711-.994 1.975-.994s1.961.311 1.968.994c-.007.649-.718 1.029-1.968 1.022s-1.981-.373-1.975-1.022zm8.343 8.543V1.8h2.493v-4.977h-12.148v1.927zm17.956-14.71v12.776h2.5V-15.96zm-2.389 5.608a4.571 4.571 0 0 0-4.855-4.482 4.573 4.573 0 0 0-4.862 4.482 4.569 4.569 0 0 0 4.862 4.51 4.567 4.567 0 0 0 4.854-4.51zm-7.279 0a2.237 2.237 0 0 1 2.424-2.314 2.244 2.244 0 0 1 2.4 2.314 2.243 2.243 0 0 1-2.4 2.341 2.237 2.237 0 0 1-2.425-2.341zm2.776 5.877h-2.521v5.967h12.383v-2.01h-9.862zm24.3-3.356v2.272h2.486v-10.429h-2.486v2.617h-3.308v-1.305h-8.446v8.136h8.446v-1.291zm-9.277-.684v-4.192h3.529v4.192zm9.282-1.333h-3.308v-1.561h3.308zM-18.812-5.1c-3.785 0-6.112 1.278-6.1 3.46s2.312 3.44 6.1 3.44 6.119-1.243 6.126-3.439S-15.014-5.1-18.812-5.1zm0 5.007c-2.355-.007-3.633-.532-3.626-1.547-.007-1.06 1.271-1.56 3.626-1.56s3.646.5 3.653 1.561C-15.166-.628-16.45-.1-18.812-.1zM2.6 1.8h2.379v-17.79H2.6zM-3.37-9.979v2.03h2.3v8.93h2.334v-16.692H-1.07v5.732zm-1.36-4.475h-2.418v3.066c0 3.011-.974 6.139-3.6 7.769l1.519 1.851a8.091 8.091 0 0 0 3.304-4.675 7.306 7.306 0 0 0 3.073 4.268l1.36-1.92c-2.438-1.561-3.239-4.53-3.239-7.41zm24.13 4.067h-3.481v2.01H19.4V1.844h2.465v-17.832H19.4zm-5.8-4.227h-2.536v2.659C11.05-8.612 9.655-5.18 6.616-3.8l1.561 2.025a8.568 8.568 0 0 0 4.164-5.242A8.051 8.051 0 0 0 16.388-2.1l1.506-1.982c-2.956-1.278-4.3-4.53-4.3-7.873zM41.782 1.8h2.355v-17.79h-2.355zM35.829-9.883v2h2.341V.974h2.33v-16.665h-2.33v5.808zM34.4-12.169h2.693v-2h-8.012v2H32v.946c0 3.023-.978 6.216-3.6 7.832l1.51 1.837A8.275 8.275 0 0 0 33.225-6.4a7.518 7.518 0 0 0 3.232 4.434l1.457-1.83c-2.6-1.485-3.522-4.468-3.515-7.431zm13.024 3.288c3.322-.173 5.608-1.008 6.727-2.341 1.126 1.333 3.419 2.169 6.713 2.341l.732-1.837c-3.591-.152-5.4-1-5.9-2.03h5.021v-1.844h-5.33v-1.4h-2.473v1.4h-5.29v1.844H52.6c-.518 1.029-2.32 1.878-5.863 2.03zm14.82.477H46.1v1.816h6.823v1.118h-4.981v1.782h9.9v.888h-9.886v4.478h12.811V-.159H50.4v-.974h9.9V-5.47h-4.91v-1.118h6.851z" transform="translate(159.5 100)"/>
                </g>
                <path id="line" class="cls-3" transform="translate(52 93)" d="M0 0h154v1H0z"/>
                <path id="line-2" data-name="line" class="cls-3" transform="translate(94 63)" d="M0 0h70v1H0z"/>
            </g>
        </g>
    </g>
    <path id="다각형_104" data-name="다각형 104" d="M7.5 0 15 11H0z" transform="rotate(180 68.5 5.5)" style="fill:#999"/>
</svg>
