<svg id="fc_box_smaller_color_04" xmlns="http://www.w3.org/2000/svg" width="348" height="135" viewBox="0 0 348 135">
    <defs>
        <clipPath id="clip-path">
            <path id="사각형_664" data-name="사각형 664" style="stroke:#527773;stroke-width:2px;fill:none" d="M0 0h20v20H0z"/>
        </clipPath>
        <style>
            .cls-5{fill:none;stroke:#527773;stroke-width:2px;stroke-miterlimit:10}.cls-6{fill:#326f5e}
        </style>
    </defs>
    <g id="fc_box_small_color" transform="translate(0 5)">
        <g id="box" style="fill:#f5faf8;stroke-width:2px;stroke:#6c918e;">
            <path style="stroke:none" d="M0 0h348v130H0z"/>
            <path style="fill:none" d="M1 1h346v128H1z"/>
        </g>
        <g id="그룹_1838" data-name="그룹 1838" transform="translate(-605 -2798)">
            <g id="그룹_1843" data-name="그룹 1843">
                <g id="ico_flowchart_info" transform="translate(802.08 2850)">
                    <g id="그룹_883" data-name="그룹 883" transform="translate(2 2)">
                        <g id="그룹_882" data-name="그룹 882" style="clip-path:url(#clip-path)">
                            <circle id="타원_113" data-name="타원 113" class="cls-5" cx="9" cy="9" r="9" transform="translate(1 1)"/>
                            <path id="선_136" data-name="선 136" class="cls-5" transform="translate(10 9)" d="M0 0v6"/>
                            <path id="선_137" data-name="선 137" class="cls-5" transform="translate(10 5)" d="M0 0v2"/>
                        </g>
                    </g>
                </g>
                <path id="패스_11271" data-name="패스 11271" class="cls-6" d="M-20.3-8.971a16.436 16.436 0 0 0 .511-4.751v-1.458H-32.2v1.954h9.91a15.723 15.723 0 0 1-.456 4.019zm-5.2-2.189h-2.47v3.122h-6.05v2.01h16.14v-2.01h-7.62zm-.546 6.25c-3.854.007-6.34 1.236-6.34 3.363 0 2.1 2.486 3.349 6.34 3.343 3.877.004 6.329-1.244 6.346-3.343-.017-2.127-2.469-3.353-6.35-3.363zm0 4.814C-28.494-.1-29.9-.58-29.89-1.547c-.014-.981 1.4-1.506 3.84-1.506s3.867.525 3.874 1.506S-23.6-.1-26.05-.1zM-7.41-9.109h5.035v-1.954h-9.938v-2.189h9.848v-1.941H-14.8v6.084h4.945v1.519h-6.906v1.975H-.518V-7.59H-7.41zm-1.278 4.378c-3.881 0-6.222 1.174-6.222 3.287 0 2.079 2.341 3.26 6.222 3.267 3.86-.007 6.181-1.188 6.195-3.267-.014-2.113-2.334-3.287-6.195-3.287zm0 4.648c-2.459.007-3.695-.435-3.681-1.36-.014-.919 1.222-1.388 3.681-1.388 2.417 0 3.688.47 3.695 1.388S-6.271-.076-8.688-.083zM4.979-11.077V-13.5h9.848v-2H2.493v6.4h12.424v-1.982zM.532-5.822h16.243v-2.03H.532zM8.6-4.751c-3.881 0-6.222 1.174-6.222 3.26C2.383.615 4.724 1.8 8.6 1.8c3.865 0 6.186-1.185 6.2-3.292-.014-2.085-2.335-3.259-6.2-3.259zM8.6-.1c-2.454 0-3.69-.446-3.676-1.392C4.91-2.39 6.146-2.852 8.6-2.859c2.417.007 3.688.47 3.695 1.367C12.293-.546 11.022-.1 8.6-.1zm18.569-7.635h5.256v-1.913H22.307v-1.181H32.1v-4.807H19.8v1.927h9.8v1.084h-9.773v4.889H24.7v1.291h-6.9v1.989h16.261v-1.987h-6.892zm2.514 6.25v3.2H32.2v-5.161H19.62v1.961z" transform="translate(764.019 2869)"/>
            </g>
            <path id="line" class="cls-6" transform="translate(730 2876)" d="M0 0h98v1H0z"/>
        </g>
    </g>
    <path id="다각형_132" data-name="다각형 132" d="M7.5 0 15 11H0z" transform="rotate(180 91 5.5)" style="fill:#999"/>
</svg>
