<svg id="fc_box_smaller_color_02" xmlns="http://www.w3.org/2000/svg" width="348" height="135" viewBox="0 0 348 135">
    <defs>
        <clipPath id="clip-path">
            <path id="사각형_664" data-name="사각형 664" style="stroke:#527773;stroke-width:2px;fill:none" d="M0 0h20v20H0z"/>
        </clipPath>
        <style>
            .cls-5{fill:none;stroke:#527773;stroke-width:2px;stroke-miterlimit:10}.cls-6{fill:#326f5e}
        </style>
    </defs>
    <g id="fc_box_small_color" transform="translate(0 5)">
        <g id="box" style="fill:#d7eae1;stroke:#527773;stroke-width:2px">
            <path style="stroke:none" d="M0 0h348v130H0z"/>
            <path style="fill:none" d="M1 1h346v128H1z"/>
        </g>
        <g id="그룹_1838" data-name="그룹 1838" transform="translate(-605 -2798)">
            <g id="그룹_1843" data-name="그룹 1843">
                <g id="ico_flowchart_info" transform="translate(840.518 2850)">
                    <g id="그룹_883" data-name="그룹 883" transform="translate(2 2)">
                        <g id="그룹_882" data-name="그룹 882" style="clip-path:url(#clip-path)">
                            <circle id="타원_113" data-name="타원 113" class="cls-5" cx="9" cy="9" r="9" transform="translate(1 1)"/>
                            <path id="선_136" data-name="선 136" class="cls-5" transform="translate(10 9)" d="M0 0v6"/>
                            <path id="선_137" data-name="선 137" class="cls-5" transform="translate(10 5)" d="M0 0v2"/>
                        </g>
                    </g>
                </g>
                <path id="패스_11269" data-name="패스 11269" class="cls-6" d="M-59.04-8.75v-7.238h-2.514V1.8h2.514v-8.485h2.32V-8.75zM-66.581-14v-1.885h-2.507V-14h-4.033v1.954h10.546V-14zm0 9.22c1.881-.358 3.128-1.574 3.142-3.22-.014-2-1.83-3.349-4.372-3.349-2.59 0-4.385 1.354-4.378 3.349-.007 1.637 1.215 2.845 3.1 3.211v1.533c-1.575.035-3.08.035-4.378.035l.331 2.03a60.711 60.711 0 0 0 10.863-.725l-.166-1.809c-1.326.186-2.735.3-4.144.373zM-69.82-8c-.007-.925.794-1.45 2.01-1.45 1.181 0 1.975.525 1.975 1.45s-.794 1.436-1.975 1.436c-1.216.003-2.017-.501-2.01-1.436zm20.38-6.388v-1.682h-2.486v1.685h-4.04v1.954h10.552v-1.954zm7.583 3.025v-4.627h-2.5v11.16h2.5v-4.5h2.389v-2.03zm-4.454 2.783c0-1.954-1.8-3.273-4.372-3.28s-4.42 1.326-4.413 3.28 1.829 3.28 4.412 3.28 4.372-1.323 4.372-3.277zm-6.36 0c0-.912.794-1.4 1.989-1.409s2 .5 2.01 1.409-.828 1.38-2.012 1.38-1.989-.473-1.989-1.377zm8.315 6.485V1.8h2.5v-5.881h-11.97v1.989zm7.693-13.363v5.6h12.153v-5.6zm2.445 3.674v-1.747H-27v1.747zm11.768 2.866h-16.217v1.954h6.823v1.14H-36.8v1.878h9.9v.919h-9.889v4.7h12.811V-.2h-10.359v-1.07h9.9v-4.552h-4.91v-1.14h6.892zM-9-15.988v9.13h2.472v-9.13zm-6.671 5.677a6.653 6.653 0 0 0 4.3 3.28l1.181-1.92c-2.728-.711-4.068-2.445-4.24-4.22h3.557v-1.989h-9.772v1.989H-17c-.18 1.906-1.54 3.771-4.3 4.544l1.133 1.961a6.833 6.833 0 0 0 4.497-3.645zm-.282 8.911H-6.5v-4.746h-11.925v1.885h9.441v1.077h-9.4v4.862h12.369v-1.92h-9.938zm28.978-5.976v4.344h2.486V-15.96h-2.486v2.776H9.717v-1.354H1.271v8.66h8.446v-1.5zm-9.282-.442v-4.744h3.529v4.744zm9.282-1.533H9.717v-1.823h3.308zm-6.83 5.1H3.674v5.743h12.217v-2.01h-9.7zM30.829 1.8h2.355v-17.79h-2.355zM24.876-9.883v2h2.341V.974h2.334v-16.665h-2.334v5.808zm-1.43-2.286h2.693v-2h-8.011v2h2.914v.946c0 3.025-.974 6.215-3.591 7.831l1.506 1.837A8.275 8.275 0 0 0 22.272-6.4 7.518 7.518 0 0 0 25.5-1.961l1.457-1.83c-2.6-1.485-3.522-4.468-3.515-7.431zm28.66-3.791v12.977h2.5V-15.96zm-6.85 6.547a6.851 6.851 0 0 0 4.178 3.695L50.7-7.68a5.645 5.645 0 0 1-4.171-5.594v-1.713H43.95v1.713a6.047 6.047 0 0 1-4.289 5.9l1.3 1.968a7.1 7.1 0 0 0 4.295-4.007zm-.041 5.166h-2.522v5.739h12.383v-2.01h-9.862zm17.154-4.662a6.556 6.556 0 0 0 4.254 3.08l1.167-1.92c-2.859-.739-4.2-2.59-4.22-4.413h3.577v-1.961H63.6v-1.927h-2.516v1.927h-3.577v1.961h3.577c-.021 2.017-1.34 4.033-4.185 4.848l1.167 1.948a6.563 6.563 0 0 0 4.303-3.543zm4.254-.3h2.894v3.985H72v-10.76h-2.483v4.779h-2.894zm-.7 4.282c-3.771 0-6.112 1.2-6.1 3.336s2.334 3.4 6.1 3.391 6.121-1.248 6.128-3.4-2.341-3.331-6.126-3.331zm0 4.834C63.57-.1 62.293-.622 62.3-1.6c-.007-.953 1.271-1.436 3.626-1.43 2.4-.007 3.646.477 3.653 1.43-.007.978-1.25 1.5-3.654 1.5z" transform="translate(764.467 2869)"/>
            </g>
            <path id="line" class="cls-6" transform="translate(691 2876)" d="M0 0h176v1H0z"/>
        </g>
    </g>
    <path id="다각형_130" data-name="다각형 130" d="M7.5 0 15 11H0z" transform="rotate(180 91 5.5)" style="fill:#999"/>
</svg>
