<svg id="fc_box_smaller_color_08" xmlns="http://www.w3.org/2000/svg" width="166" height="135" viewBox="0 0 166 135">
    <defs>
        <clipPath id="clip-path">
            <path id="사각형_664" data-name="사각형 664" style="stroke:#527773;stroke-width:2px;fill:none" d="M0 0h20v20H0z"/>
        </clipPath>
        <style>
            .cls-5{fill:none;stroke:#527773;stroke-width:2px;stroke-miterlimit:10}.cls-6{fill:#326f5e}
        </style>
    </defs>
    <g id="fc_box_smaller_long_color" transform="translate(0 5)">
        <g id="box" style="fill:#d7eae1;stroke:#527773;stroke-width:2px">
            <path style="stroke:none" d="M0 0h166v130H0z"/>
            <path style="fill:none" d="M1 1h164v128H1z"/>
        </g>
        <g id="그룹_1841" data-name="그룹 1841" transform="translate(-80 -1269)">
            <g id="그룹_1846" data-name="그룹 1846" transform="translate(53)">
                <g id="ico_flowchart_info" transform="translate(132.341 1336)">
                    <g id="그룹_883" data-name="그룹 883" transform="translate(2 2)">
                        <g id="그룹_882" data-name="그룹 882" style="clip-path:url(#clip-path)">
                            <circle id="타원_113" data-name="타원 113" class="cls-5" cx="9" cy="9" r="9" transform="translate(1 1)"/>
                            <path id="선_136" data-name="선 136" class="cls-5" transform="translate(10 9)" d="M0 0v6"/>
                            <path id="선_137" data-name="선 137" class="cls-5" transform="translate(10 5)" d="M0 0v2"/>
                        </g>
                    </g>
                </g>
                <path id="패스_11106" data-name="패스 11106" class="cls-6" d="M-21.561-7.189v4.337h2.486V-15.96h-2.486v2.97h-3.273v-1.81H-27.3v2.728h-3.5V-14.8h-2.5v9.144h8.467v-1.533zm0-2h-3.273v-1.8h3.273zM-30.8-7.617v-2.563h3.5v2.562zm2.41 3.46h-2.521v5.649h12.217v-2.01h-9.7zm24.123-6.989v1.685H-8.26v2h3.992v1.747h2.486V-15.96h-2.486v2.845h-3.3a11.7 11.7 0 0 0 .117-1.657h-8.2v2h5.5c-.359 2.438-2.362 4.4-6.45 5.47l.974 1.961c3.909-1.064 6.436-3 7.541-5.808zM-7.707-5.5c-3.646.007-6.084 1.388-6.077 3.6s2.43 3.62 6.077 3.62c3.6 0 6.043-1.4 6.057-3.626C-1.664-4.116-4.1-5.5-7.707-5.5zm0 5.249c-2.251 0-3.591-.559-3.584-1.651s1.332-1.668 3.584-1.662C-5.5-3.57-4.157-3-4.151-1.906S-5.5-.256-7.707-.256zm20.615-15.7v12.968h2.5V-15.96zM6.057-9.413a6.851 6.851 0 0 0 4.178 3.695l1.271-1.962a5.645 5.645 0 0 1-4.171-5.594v-1.713H4.751v1.713a6.047 6.047 0 0 1-4.289 5.9l1.3 1.968a7.1 7.1 0 0 0 4.295-4.007zm-.042 5.166H3.494v5.739h12.383v-2.01H6.015zm25.739 0a42.25 42.25 0 0 0 .711-8.508v-1.685H19.5v1.982h10.47a38.52 38.52 0 0 1-.73 7.948zM26.1-8.515h-2.474V-2.4h-5.8v2.02H34.04V-2.4H26.1z" transform="translate(94.301 1355)"/>
            </g>
            <path id="line" class="cls-6" transform="translate(114 1362)" d="M0 0h98v1H0z"/>
        </g>
        <g id="그룹_1840" data-name="그룹 1840" transform="translate(-80 -1269)">
            <path id="패스_11105" data-name="패스 11105" class="cls-6" d="M-28.812-11.471a8.813 8.813 0 0 0 6.547 3.812l.974-2.01c-4.068-.5-6.209-2.825-6.209-4.924v-.863h-2.617v.863c-.007 2.1-2.141 4.42-6.181 4.924l.981 2.01a8.777 8.777 0 0 0 6.505-3.812zm-8.115 5.159v2.03h6.827V1.8h2.465v-6.082h6.927v-2.03zm29.669-9.675v9.565h2.5v-9.565zm-7.244.746c-2.776-.007-4.869 1.727-4.862 4.22-.007 2.431 2.086 4.164 4.862 4.164s4.855-1.733 4.855-4.164c-.001-2.494-2.086-4.228-4.853-4.221zm0 2.079a2.148 2.148 0 0 1 2.4 2.141A2.145 2.145 0 0 1-14.5-8.9c-1.423-.007-2.438-.794-2.424-2.12a2.148 2.148 0 0 1 2.424-2.143zm-2.141 7.521V1.6h11.885v-7.242h-2.486v1.651h-6.948v-1.651zm2.452 3.584h6.948v1.643h-6.948zm24.227-13.9v12.974h2.5V-15.96zM3.184-9.413a6.851 6.851 0 0 0 4.178 3.695L8.633-7.68a5.645 5.645 0 0 1-4.171-5.594v-1.713H1.878v1.713a6.047 6.047 0 0 1-4.289 5.9l1.3 1.968a7.1 7.1 0 0 0 4.295-4.007zm-.042 5.166H.622v5.739H13v-2.01H3.142zm25.739 0a42.249 42.249 0 0 0 .711-8.508v-1.685H16.623v1.982h10.47a38.52 38.52 0 0 1-.725 7.949zm-5.656-4.268h-2.472V-2.4h-5.8v2.02h16.214V-2.4h-7.942zM33.2-1.45l-.967 5.559H34.3l1.681-5.559z" transform="translate(163 1325)"/>
            <path id="line-2" data-name="line" class="cls-6" transform="translate(126 1332)" d="M0 0h74v1H0z"/>
        </g>
    </g>
    <path id="다각형_113" data-name="다각형 113" d="M7.5 0 15 11H0z" transform="rotate(180 45.5 5.5)" style="fill:#999"/>
</svg>
