<svg id="fc_box_smaller_color_03" xmlns="http://www.w3.org/2000/svg" width="348" height="135" viewBox="0 0 348 135">
    <defs>
        <clipPath id="clip-path">
            <path id="사각형_664" data-name="사각형 664" style="stroke:#527773;stroke-width:2px;fill:none" d="M0 0h20v20H0z"/>
        </clipPath>
        <style>
            .cls-5{fill:none;stroke:#527773;stroke-width:2px;stroke-miterlimit:10}.cls-6{fill:#326f5e}
        </style>
    </defs>
    <g id="fc_box_small_color" transform="translate(0 5)">
        <g id="box" style="fill:#f5faf8;stroke-width:2px;stroke:#6c918e;">
            <path style="stroke:none" d="M0 0h348v130H0z"/>
            <path style="fill:none" d="M1 1h346v128H1z"/>
        </g>
        <g id="그룹_1838" data-name="그룹 1838" transform="translate(-605 -2798)">
            <g id="그룹_1843" data-name="그룹 1843">
                <g id="ico_flowchart_info" transform="translate(802.336 2850)">
                    <g id="그룹_883" data-name="그룹 883" transform="translate(2 2)">
                        <g id="그룹_882" data-name="그룹 882" style="clip-path:url(#clip-path)">
                            <circle id="타원_113" data-name="타원 113" class="cls-5" cx="9" cy="9" r="9" transform="translate(1 1)"/>
                            <path id="선_136" data-name="선 136" class="cls-5" transform="translate(10 9)" d="M0 0v6"/>
                            <path id="선_137" data-name="선 137" class="cls-5" transform="translate(10 5)" d="M0 0v2"/>
                        </g>
                    </g>
                </g>
                <path id="패스_11270" data-name="패스 11270" class="cls-6" d="M-21.126-9.247h-1.63v-6.271h-2.314V1.008h2.314v-8.252h1.63V1.8h2.4v-17.79h-2.4zm-12.251-4.537v2h4.613c-.336 3.484-1.892 6.084-5.511 8.2l1.436 1.727c5.021-2.907 6.5-6.968 6.506-11.927zm29.109 5.172v1.782h2.479v-9.157h-2.479v2.272h-3.273v-1.506h-2.465v2.086h-3.5v-2.086h-2.5v7.88h8.467v-1.271zm0-1.885h-3.273v-1.36h3.273zm-9.24 1.2v-1.961h3.5V-9.3zm2.41 7.88h9.309v-4.75h-11.83v1.913h9.351v1.008H-13.6V1.6h12.336V-.359H-11.1zm16.077-9.66V-13.5h9.848v-2H2.493v6.4h12.424v-1.982zM.532-5.822h16.243v-2.03H.532zM8.6-4.751c-3.881 0-6.222 1.174-6.222 3.26C2.383.615 4.724 1.8 8.6 1.8c3.865 0 6.186-1.185 6.2-3.292-.014-2.085-2.335-3.259-6.2-3.259zM8.6-.1c-2.454 0-3.69-.446-3.676-1.392C4.91-2.39 6.146-2.852 8.6-2.859c2.417.007 3.688.47 3.695 1.367C12.293-.546 11.022-.1 8.6-.1zm18.569-7.635h5.256v-1.913H22.307v-1.181H32.1v-4.807H19.8v1.927h9.8v1.084h-9.773v4.889H24.7v1.291h-6.9v1.989h16.261v-1.987h-6.892zm2.514 6.25v3.2H32.2v-5.161H19.62v1.961z" transform="translate(764.275 2869)"/>
            </g>
            <path id="line" class="cls-6" transform="translate(730 2876)" d="M0 0h98v1H0z"/>
        </g>
    </g>
    <path id="다각형_131" data-name="다각형 131" d="M7.5 0 15 11H0z" transform="rotate(180 91 5.5)" style="fill:#999"/>
</svg>
