<svg id="fc_box_smaller_color_05" xmlns="http://www.w3.org/2000/svg" width="166" height="135" viewBox="0 0 166 135">
    <defs>
        <clipPath id="clip-path">
            <path id="사각형_664" data-name="사각형 664" style="stroke:#527773;stroke-width:2px;fill:none" d="M0 0h20v20H0z"/>
        </clipPath>
        <style>
            .cls-6{fill:none;stroke:#527773;stroke-width:2px}.cls-3{fill:#527773}.cls-6{stroke-miterlimit:10}
        </style>
    </defs>
    <g id="fc_box_small_link_color" transform="translate(0 5)">
        <g id="box" style="fill:#f5faf8;stroke-width:2px;stroke:#6c918e;">
            <path style="stroke:none" d="M0 0h166v130H0z"/>
            <path style="fill:none" d="M1 1h164v128H1z"/>
        </g>
        <path id="line" class="cls-3" transform="translate(52 79)" d="M0 0h63v1H0z"/>
        <g id="text" transform="translate(-115)">
            <g id="ic_info" transform="translate(204.577 53)">
                <g id="그룹_883" data-name="그룹 883" transform="translate(2 2)">
                    <g id="그룹_882" data-name="그룹 882" style="clip-path:url(#clip-path)">
                        <circle id="타원_113" data-name="타원 113" class="cls-6" cx="9" cy="9" r="9" transform="translate(1 1)"/>
                        <path id="선_136" data-name="선 136" class="cls-6" transform="translate(10 9)" d="M0 0v6"/>
                        <path id="선_137" data-name="선 137" class="cls-6" transform="translate(10 5)" d="M0 0v2"/>
                    </g>
                </g>
            </g>
            <path id="패스_11276" data-name="패스 11276" class="cls-3" d="M12.907 3.04v12.977h2.5V3.04zm-6.85 6.547a6.851 6.851 0 0 0 4.178 3.695l1.271-1.961a5.645 5.645 0 0 1-4.172-5.594V4.014H4.751v1.713a6.047 6.047 0 0 1-4.289 5.9l1.3 1.968a7.1 7.1 0 0 0 4.295-4.008zm-.041 5.166H3.494v5.739h12.383v-2.01H6.015zm25.739 0a42.249 42.249 0 0 0 .711-8.508V4.559H19.5v1.982h10.47a38.519 38.519 0 0 1-.725 7.949zM26.1 10.485h-2.474V16.6h-5.8v2.02H34.04V16.6H26.1z" transform="translate(166.537 53)"/>
        </g>
    </g>
    <path id="다각형_134" data-name="다각형 134" d="M7.5 0 15 11H0z" transform="rotate(180 45.5 5.5)" style="fill:#999"/>
</svg>
