<svg id="fc_box_smaller_color_01" xmlns="http://www.w3.org/2000/svg" width="166" height="135" viewBox="0 0 166 135">
    <defs>
        <clipPath id="clip-path">
            <path id="사각형_664" data-name="사각형 664" style="stroke:#527773;stroke-width:2px;fill:none" d="M0 0h20v20H0z"/>
        </clipPath>
        <style>
            .cls-5{fill:none;stroke:#527773;stroke-width:2px;stroke-miterlimit:10}.cls-6{fill:#326f5e}
        </style>
    </defs>
    <g id="fc_box_smaller_color" transform="translate(0 5)">
        <g id="box" style="fill:#f5faf8;stroke-width:2px;stroke:#6c918e;">
            <path style="stroke:none" d="M0 0h166v130H0z"/>
            <path style="fill:none" d="M1 1h164v128H1z"/>
        </g>
        <g id="그룹_1839" data-name="그룹 1839" transform="translate(-80 -1271)">
            <g id="그룹_1846" data-name="그룹 1846">
                <g id="ico_flowchart_info" transform="translate(186.481 1323)">
                    <g id="그룹_883" data-name="그룹 883" transform="translate(2 2)">
                        <g id="그룹_882" data-name="그룹 882" style="clip-path:url(#clip-path)">
                            <circle id="타원_113" data-name="타원 113" class="cls-5" cx="9" cy="9" r="9" transform="translate(1 1)"/>
                            <path id="선_136" data-name="선 136" class="cls-5" transform="translate(10 9)" d="M0 0v6"/>
                            <path id="선_137" data-name="선 137" class="cls-5" transform="translate(10 5)" d="M0 0v2"/>
                        </g>
                    </g>
                </g>
                <path id="패스_11264" data-name="패스 11264" class="cls-6" d="M-20.035-9.13v-6.858h-2.493V1.8h2.493v-8.823h2.624V-9.13zm-7.479-5.483h-2.493v2.659c-.007 3.3-1.43 6.7-4.434 8.08l1.526 2.023A8.59 8.59 0 0 0-28.75-7.03a8.108 8.108 0 0 0 3.93 4.83l1.506-1.982c-2.852-1.381-4.213-4.593-4.2-7.776zm20.339 5.262h2.907v6.367h2.486V-15.96h-2.486v4.6h-2.907zm-4.116.483A6.757 6.757 0 0 0-7.2-5.325L-5.967-7.3a5.477 5.477 0 0 1-4.088-5.186v-.283h3.543v-2h-9.641v2h3.564v.269a5.736 5.736 0 0 1-4.275 5.518l1.278 2.017a7.01 7.01 0 0 0 4.295-3.902zm.2 4.751h-2.486v5.609h12.216v-2.01h-9.731zm24-11.844v12.978h2.5V-15.96zM6.057-9.413a6.851 6.851 0 0 0 4.178 3.695l1.271-1.962a5.645 5.645 0 0 1-4.171-5.594v-1.713H4.751v1.713a6.047 6.047 0 0 1-4.289 5.9l1.3 1.968a7.1 7.1 0 0 0 4.295-4.007zm-.042 5.166H3.494v5.739h12.383v-2.01H6.015zm25.739 0a42.25 42.25 0 0 0 .711-8.508v-1.685H19.5v1.982h10.47a38.52 38.52 0 0 1-.73 7.948zM26.1-8.515h-2.474V-2.4h-5.8v2.02H34.04V-2.4H26.1z" transform="translate(148.441 1342)"/>
            </g>
            <path id="line" class="cls-6" transform="translate(114 1349)" d="M0 0h98v1H0z"/>
        </g>
    </g>
    <path id="다각형_128" data-name="다각형 128" d="M7.5 0 15 11H0z" transform="rotate(180 45.5 5.5)" style="fill:#999"/>
</svg>
