<svg id="fc_box_smaller_color_11" xmlns="http://www.w3.org/2000/svg" width="166" height="135" viewBox="0 0 166 135">
    <defs>
        <clipPath id="clip-path">
            <path id="사각형_664" data-name="사각형 664" style="stroke:#527773;stroke-width:2px;fill:none" d="M0 0h20v20H0z"/>
        </clipPath>
        <style>
            .cls-5{fill:none;stroke:#527773;stroke-width:2px;stroke-miterlimit:10}.cls-6{fill:#326f5e}
        </style>
    </defs>
    <g id="fc_box_smaller_long_color" transform="translate(0 5)">
        <g id="box" style="fill:#d7eae1;stroke:#527773;stroke-width:2px">
            <path style="stroke:none" d="M0 0h166v130H0z"/>
            <path style="fill:none" d="M1 1h164v128H1z"/>
        </g>
        <g id="그룹_1841" data-name="그룹 1841" transform="translate(-80 -1269)">
            <g id="그룹_1846" data-name="그룹 1846" transform="translate(53)">
                <g id="ico_flowchart_info" transform="translate(138 1336)">
                    <g id="그룹_883" data-name="그룹 883" transform="translate(2 2)">
                        <g id="그룹_882" data-name="그룹 882" style="clip-path:url(#clip-path)">
                            <circle id="타원_113" data-name="타원 113" class="cls-5" cx="9" cy="9" r="9" transform="translate(1 1)"/>
                            <path id="선_136" data-name="선 136" class="cls-5" transform="translate(10 9)" d="M0 0v6"/>
                            <path id="선_137" data-name="선 137" class="cls-5" transform="translate(10 5)" d="M0 0v2"/>
                        </g>
                    </g>
                </g>
                <path id="패스_11113" data-name="패스 11113" class="cls-6" d="m-33.557-14.807-4.558 16.934h2.5l4.558-16.934zm17.238 5.677v-6.858h-2.493V1.8h2.493v-8.823h2.624V-9.13zm-7.481-5.483h-2.493v2.659c-.007 3.3-1.43 6.7-4.434 8.08l1.527 2.023a8.59 8.59 0 0 0 4.164-5.18A8.108 8.108 0 0 0-21.1-2.2l1.5-1.978c-2.852-1.381-4.213-4.593-4.2-7.776zM-.573-9.669a2.927 2.927 0 0 0 2.086-2.624c-.007-2.141-2.528-3.425-6.464-3.432s-6.478 1.291-6.471 3.432A2.884 2.884 0 0 0-9.4-9.689v2.141h-3.646v1.989H3.17v-1.989H-.573zm-4.378-4.137c2.486 0 3.9.518 3.9 1.512s-1.409 1.478-3.9 1.478c-2.507 0-3.9-.49-3.881-1.478-.015-.993 1.373-1.511 3.88-1.511zm-1.927 4.759a15.253 15.253 0 0 0 1.927.11 14.882 14.882 0 0 0 1.9-.11v1.5h-3.827zm1.906 4.413c-3.888-.007-6.222 1.14-6.222 3.2 0 2.086 2.334 3.218 6.222 3.211 3.847.007 6.181-1.126 6.195-3.211-.014-2.06-2.349-3.207-6.195-3.2zm0 4.551c-2.459.007-3.695-.456-3.681-1.354-.014-.891 1.222-1.305 3.681-1.319 2.417.014 3.688.428 3.695 1.319S-2.555-.076-4.972-.083zM16.775-8.95h-2.41v2.017h2.41V1.8h2.465v-17.79h-2.465zm-6.036-4.378V-15.7h-2.5v2.376h-3.95v2h10.442v-2zM9.5-10.338A4.147 4.147 0 0 0 5.207-6.1 4.159 4.159 0 0 0 9.5-1.858 4.164 4.164 0 0 0 13.771-6.1 4.152 4.152 0 0 0 9.5-10.338zm0 6.36A1.915 1.915 0 0 1 7.528-6.1 1.961 1.961 0 0 1 9.5-8.239 1.971 1.971 0 0 1 11.478-6.1 1.925 1.925 0 0 1 9.5-3.978zm26.059-5.193v-6.816h-2.493V1.761h2.493v-8.874h2.514v-2.058zm-13.211-4.993v2.037h5.925c-.47 3.964-2.728 6.8-6.927 8.909l1.4 1.906c5.974-2.935 8.052-7.535 8.066-12.852z" transform="translate(96 1355)"/>
            </g>
            <path id="line" class="cls-6" transform="translate(111 1362)" d="M0 0h104v1H0z"/>
        </g>
        <g id="그룹_1840" data-name="그룹 1840" transform="translate(-80 -1269)">
            <path id="패스_11112" data-name="패스 11112" class="cls-6" d="M-24.765 1.8h2.355v-17.79h-2.355zm-5.953-11.683v2h2.341V.974h2.334v-16.665h-2.334v5.808zm-1.43-2.286h2.693v-2h-8.011v2h2.914v.946c0 3.025-.974 6.215-3.591 7.831l1.506 1.837A8.275 8.275 0 0 0-33.322-6.4a7.518 7.518 0 0 0 3.232 4.439l1.457-1.83c-2.6-1.485-3.522-4.468-3.515-7.431zm13.308 6.7a8.782 8.782 0 0 0 6.471-4.275c1.147 2.106 3.453 3.625 6.569 4.171l.988-1.968c-3.812-.559-6.029-2.721-6.243-5.069h5.414v-2.017h-13.482v2.017h5.407c-.214 2.355-2.417 4.579-6.1 5.173zm7.728-.787h-2.5v3.964h-6.865v2.023H-4.22v-2.024h-6.892zm12.141-8.55L-3.529 2.127h2.5l4.558-16.934zm11.333 3.336a8.813 8.813 0 0 0 6.547 3.812l.974-2.01c-4.068-.5-6.209-2.825-6.209-4.924v-.863h-2.617v.863c-.007 2.1-2.141 4.42-6.181 4.924l.981 2.01a8.777 8.777 0 0 0 6.505-3.813zM4.247-6.312v2.03h6.823V1.8h2.465v-6.082h6.927v-2.03zm29.668-9.675v9.565h2.5v-9.565zm-7.244.746c-2.776-.007-4.869 1.727-4.862 4.22-.009 2.43 2.091 4.163 4.862 4.163s4.855-1.733 4.855-4.164c0-2.493-2.085-4.227-4.855-4.22zm0 2.079a2.148 2.148 0 0 1 2.4 2.141 2.145 2.145 0 0 1-2.4 2.12c-1.423-.007-2.438-.794-2.424-2.12a2.148 2.148 0 0 1 2.424-2.142zm-2.141 7.52V1.6h11.886v-7.242H33.93v1.651h-6.948v-1.651zm2.452 3.584h6.948v1.644h-6.948z" transform="translate(163 1325)"/>
            <path id="line-2" data-name="line" class="cls-6" transform="translate(125 1332)" d="M0 0h76v1H0z"/>
        </g>
    </g>
    <path id="다각형_121" data-name="다각형 121" d="M7.5 0 15 11H0z" transform="rotate(180 45.5 5.5)" style="fill:#999"/>
</svg>
