<svg id="flow_chart_2_5" xmlns="http://www.w3.org/2000/svg" width="1336" height="2130" viewBox="0 0 1336 2130">
    <defs>
        <filter id="box" x="105" y="994" width="556" height="148" filterUnits="userSpaceOnUse">
            <feOffset dy="3"/>
            <feGaussianBlur stdDeviation="3" result="blur"/>
            <feFlood flood-color="#111" flood-opacity=".102"/>
            <feComposite operator="in" in2="blur"/>
            <feComposite in="SourceGraphic"/>
        </filter>
        <filter id="box-2" x="105" y="1174" width="556" height="148" filterUnits="userSpaceOnUse">
            <feOffset dy="3"/>
            <feGaussianBlur stdDeviation="3" result="blur-2"/>
            <feFlood flood-color="#111" flood-opacity=".102"/>
            <feComposite operator="in" in2="blur-2"/>
            <feComposite in="SourceGraphic"/>
        </filter>
        <filter id="box-3" x="105" y="814" width="556" height="148" filterUnits="userSpaceOnUse">
            <feOffset dy="3"/>
            <feGaussianBlur stdDeviation="3" result="blur-3"/>
            <feFlood flood-color="#111" flood-opacity=".102"/>
            <feComposite operator="in" in2="blur-3"/>
            <feComposite in="SourceGraphic"/>
        </filter>
        <filter id="다각형_3" x="390" y="274" width="556" height="278" filterUnits="userSpaceOnUse">
            <feOffset dy="3"/>
            <feGaussianBlur stdDeviation="3" result="blur-4"/>
            <feFlood flood-color="#111" flood-opacity=".102"/>
            <feComposite operator="in" in2="blur-4"/>
            <feComposite in="SourceGraphic"/>
        </filter>
        <filter id="box-4" x="105" y="1354" width="1126" height="148" filterUnits="userSpaceOnUse">
            <feOffset dy="3"/>
            <feGaussianBlur stdDeviation="3" result="blur-5"/>
            <feFlood flood-color="#111" flood-opacity=".102"/>
            <feComposite operator="in" in2="blur-5"/>
            <feComposite in="SourceGraphic"/>
        </filter>
        <filter id="box-5" x="105" y="1714" width="1126" height="148" filterUnits="userSpaceOnUse">
            <feOffset dy="3"/>
            <feGaussianBlur stdDeviation="3" result="blur-6"/>
            <feFlood flood-color="#111" flood-opacity=".102"/>
            <feComposite operator="in" in2="blur-6"/>
            <feComposite in="SourceGraphic"/>
        </filter>
        <filter id="area" x="105" y="1894" width="1126" height="148" filterUnits="userSpaceOnUse">
            <feOffset dy="3"/>
            <feGaussianBlur stdDeviation="3" result="blur-7"/>
            <feFlood flood-color="#111" flood-opacity=".102"/>
            <feComposite operator="in" in2="blur-7"/>
            <feComposite in="SourceGraphic"/>
        </filter>
        <filter id="box-6" x="675" y="814" width="556" height="148" filterUnits="userSpaceOnUse">
            <feOffset dy="3"/>
            <feGaussianBlur stdDeviation="3" result="blur-8"/>
            <feFlood flood-color="#111" flood-opacity=".102"/>
            <feComposite operator="in" in2="blur-8"/>
            <feComposite in="SourceGraphic"/>
        </filter>
        <filter id="box-7" x="675" y="634" width="556" height="148" filterUnits="userSpaceOnUse">
            <feOffset dy="3"/>
            <feGaussianBlur stdDeviation="3" result="blur-9"/>
            <feFlood flood-color="#111" flood-opacity=".102"/>
            <feComposite operator="in" in2="blur-9"/>
            <feComposite in="SourceGraphic"/>
        </filter>
        <filter id="box-8" x="675" y="994" width="556" height="148" filterUnits="userSpaceOnUse">
            <feOffset dy="3"/>
            <feGaussianBlur stdDeviation="3" result="blur-10"/>
            <feFlood flood-color="#111" flood-opacity=".102"/>
            <feComposite operator="in" in2="blur-10"/>
            <feComposite in="SourceGraphic"/>
        </filter>
        <filter id="area-2" x="105" y="94" width="1126" height="148" filterUnits="userSpaceOnUse">
            <feOffset dy="3"/>
            <feGaussianBlur stdDeviation="3" result="blur-11"/>
            <feFlood flood-color="#111" flood-opacity=".102"/>
            <feComposite operator="in" in2="blur-11"/>
            <feComposite in="SourceGraphic"/>
        </filter>
        <filter id="box-9" x="675" y="1174" width="556" height="148" filterUnits="userSpaceOnUse">
            <feOffset dy="3"/>
            <feGaussianBlur stdDeviation="3" result="blur-12"/>
            <feFlood flood-color="#111" flood-opacity=".102"/>
            <feComposite operator="in" in2="blur-12"/>
            <feComposite in="SourceGraphic"/>
        </filter>
        <filter id="box-10" x="105" y="1534" width="556" height="148" filterUnits="userSpaceOnUse">
            <feOffset dy="3"/>
            <feGaussianBlur stdDeviation="3" result="blur-13"/>
            <feFlood flood-color="#111" flood-opacity=".102"/>
            <feComposite operator="in" in2="blur-13"/>
            <feComposite in="SourceGraphic"/>
        </filter>
        <style>
            .cls-1{fill:#f8f8f8}.cls-2{fill:#fff;stroke:#999;stroke-width:2px}.cls-3{fill:#333}.cls-5{fill:red;opacity:0}.cls-7{stroke:#326f5e;stroke-width:1.5px}.cls-12,.cls-7{fill:none}.cls-8{fill:#326f5e}.cls-9{fill:#999}.cls-11{stroke:none}
        </style>
    </defs>
    <path id="bg" class="cls-1" d="M0 0h1336v2130H0z"/>
    <g id="fc_boxes" transform="translate(-293 -944)">
        <g id="fc_box_medium" transform="translate(407 1944)">
            <g transform="translate(-114 -1000)" style="filter:url(#box)">
                <g id="box-11" data-name="box" class="cls-2">
                    <path class="cls-11" d="M0 0h538v130H0z" transform="translate(114 1000)"/>
                    <path class="cls-12" d="M1 1h536v128H1z" transform="translate(114 1000)"/>
                </g>
            </g>
            <path id="패스_11332" data-name="패스 11332" class="cls-3" d="M175.528 11.97V3.815h-2.992v21.348h2.992v-10.7h3.149V11.97zm-8.95-3.646h4.293V5.878h-11.819v2.445h4.517v1.31c-.017 3.53-1.807 7.5-5.362 9.157l1.74 2.362a10.573 10.573 0 0 0 5.171-6.373 10.017 10.017 0 0 0 5.014 5.826l1.668-2.345a9.492 9.492 0 0 1-5.221-8.627zm27.622 8.734h3.017v-2.412h-12.53v-2.37h12.033V5.207h-15.05v2.4h12.09V9.9H181.7v7.16h2.751v3.273h-5v2.445h19.508v-2.447H194.2zm-2.942 0v3.273h-3.9v-3.273zm24.224-7.823c1.392 2.312 4.127 4.044 7.856 4.575l1.169-2.412c-4.881-.6-7.45-3.39-7.45-5.909V4.453h-3.141v1.036c-.008 2.519-2.569 5.3-7.417 5.909l1.177 2.412c3.694-.531 6.412-2.263 7.805-4.575zm-9.738 6.191v2.436h8.188v7.3h2.959v-7.3h8.309v-2.437zm35.6-.025h3V3.815h-3zm-8.039-4.3a8.087 8.087 0 0 0 5.113 4.028l1.492-2.329c-3.323-.9-4.948-3.141-5.1-5.412h4.285v-2.38h-11.73v2.379h4.392c-.157 2.42-1.8 4.8-5.2 5.768l1.517 2.337a8.28 8.28 0 0 0 5.233-4.392zm-.282 7.193v-2.007h-2.942v8.635h14.262v-8.635h-2.983v2.006zm0 4.235V20.6h8.337v1.931zm34.61-18.714v12.108h2.967V3.815zm-13.773 1.3v8.975h10.417V5.116zm2.942 6.638V7.445h4.517v4.309zm14.18 7.558V17.1h-6.066v-1.766h-3V17.1h-6.058v2.213h5.959c-.323 1.5-2.561 3.191-6.82 3.539l1.019 2.262c3.572-.348 6.108-1.6 7.409-3.3 1.309 1.682 3.829 2.967 7.384 3.3l1-2.262c-4.243-.406-6.472-2.08-6.8-3.539zm23.08-10.4h-3.8v2.445h3.8v4.417h2.983V3.848h-2.983zm-3.936-3.837h-9.8v2.379h6.588c-.481 2.876-3.124 5.229-7.749 6.472l1.185 2.329c6.25-1.74 9.774-5.602 9.774-11.179zm6.92 19.823v-8.27H282.9V24.9zm-2.967-5.925v3.58h-8.246v-3.58zm16.981-2.2h6.149v-2.37h-12.05v-2.225h11.378V9.831h-11.38V7.7h11.884V5.3h-14.917v11.476h5.925v3.6h-8.229v2.4h19.508v-2.4h-8.271z" transform="translate(30 50)"/>
        </g>
        <g id="fc_box_medium-2" data-name="fc_box_medium" transform="translate(407 2124)">
            <g transform="translate(-114 -1180)" style="filter:url(#box-2)">
                <g id="box-12" data-name="box" class="cls-2">
                    <path class="cls-11" d="M0 0h538v130H0z" transform="translate(114 1180)"/>
                    <path class="cls-12" d="M1 1h536v128H1z" transform="translate(114 1180)"/>
                </g>
            </g>
            <path id="패스_11333" data-name="패스 11333" class="cls-3" d="M134.481 14.05c4.583.008 7.782-1.815 7.782-4.691 0-2.942-3.2-4.823-7.782-4.823s-7.749 1.881-7.74 4.823c-.009 2.876 3.165 4.699 7.74 4.691zm0-7.127c2.884.008 4.691.862 4.691 2.436 0 1.5-1.807 2.329-4.691 2.337-2.859-.008-4.674-.837-4.657-2.337-.017-1.574 1.798-2.428 4.657-2.436zm-9.7 8.776v2.4h4.467v7.061h3.066V18.1h4.376v7.061h3.033V18.1h4.566v-2.4zm36.381-3.191h-1.732v-8.27h-2.8v20.005h2.8V14.9h1.732v10.263h2.843V3.815h-2.843zM149.249 4.42v2.66h-3.729v2.379h10.326V7.08h-3.655V4.42zm1.483 6a4.7 4.7 0 0 0-4.7 5.047c-.008 2.992 1.981 5.1 4.7 5.1s4.674-2.1 4.682-5.1c-.008-2.95-1.955-5.047-4.682-5.047zm0 7.608c-1.235.008-2.08-.928-2.072-2.561-.008-1.6.837-2.569 2.072-2.569 1.2 0 2.047.97 2.055 2.569-.008 1.633-.853 2.569-2.055 2.561zm33.555-1.7V3.815H181.3v3.92h-4v2.445h4v6.149zm-11.362-4.89a7.834 7.834 0 0 0 4.74 4.177l1.591-2.337a6.513 6.513 0 0 1-4.89-6.555V4.934h-3.017v1.931a7.126 7.126 0 0 1-5.246 7.019l1.591 2.387a8.473 8.473 0 0 0 5.231-4.832zm4.069 5.436c-4.541 0-7.334 1.533-7.326 4.152-.008 2.635 2.785 4.135 7.326 4.127 4.558.008 7.343-1.492 7.351-4.127-.008-2.617-2.793-4.15-7.351-4.15zm0 5.95c-2.826.008-4.359-.613-4.351-1.8-.008-1.218 1.525-1.831 4.351-1.831s4.376.613 4.384 1.831c-.008 1.189-1.549 1.81-4.384 1.802zM206.6 4.5v2.232h-8.569V4.5h-2.942v8.768h14.47V4.5zm-8.569 6.414V8.953h8.569v1.964zm-5.453 6.2h8.522v3.439h2.959v-3.437h8.022v-2.354h-19.506zm2.287 1.765v5.911h15.075v-2.412h-12.111v-3.5zm20.773-10.39V14.8h15.456v-2.4h-12.439v-1.731H230.6V4.47h-15.028v2.42h11.95v1.6zm-2.312 7.865v2.337h4.558v6.472h2.992v-6.472h4.442v6.472h3.017v-6.472h4.5v-2.337zm41.163-12.539v12.108h2.967V3.815zm-13.773 1.3v8.975h10.417V5.116zm2.942 6.638V7.445h4.517v4.309zm14.18 7.558V17.1h-6.066v-1.766h-3V17.1h-6.058v2.213h5.959c-.323 1.5-2.561 3.191-6.82 3.539l1.019 2.262c3.572-.348 6.108-1.6 7.409-3.3 1.309 1.682 3.829 2.967 7.384 3.3l1-2.262c-4.243-.406-6.472-2.08-6.8-3.539zm23.054-7.911c1.591-.688 2.494-1.757 2.5-3.149-.008-2.569-3.033-4.11-7.757-4.119-4.74.008-7.773 1.55-7.765 4.119-.008 1.367.878 2.436 2.428 3.124v2.569h-4.376v2.387h19.459v-2.389h-4.492zm-5.254-4.964c2.983 0 4.674.622 4.674 1.815s-1.691 1.773-4.674 1.773c-3.008 0-4.674-.588-4.657-1.773-.017-1.196 1.649-1.817 4.657-1.817zm-2.312 5.71a18.3 18.3 0 0 0 2.312.133 17.858 17.858 0 0 0 2.279-.133v1.8h-4.591zm2.287 5.3c-4.666-.008-7.467 1.367-7.467 3.837 0 2.5 2.8 3.862 7.467 3.854 4.616.008 7.417-1.351 7.434-3.854-.017-2.476-2.818-3.852-7.434-3.844zm0 5.461c-2.95.008-4.434-.547-4.417-1.624-.017-1.069 1.467-1.566 4.417-1.583 2.9.017 4.425.514 4.434 1.583-.008 1.071-1.533 1.626-4.434 1.617zm22.251-7.16h6.191v-2.369h-12.091V7.71h11.942V5.332h-14.934V15.74h5.934v4.55h-8.229v2.436h19.508V20.29h-8.32zm30.091-6.829h-3.8v2.445h3.8v4.417h2.983V3.848h-2.983zm-3.936-3.837h-9.8v2.372h6.588c-.481 2.876-3.124 5.229-7.749 6.472l1.185 2.329c6.257-1.74 9.776-5.602 9.776-11.179zm6.92 19.823v-8.277h-14.146V24.9zm-2.967-5.925v3.58h-8.246v-3.58zm16.981-2.2h6.147v-2.37h-12.05v-2.232h11.378V9.831h-11.376V7.7h11.884V5.3h-14.917v11.476h5.925v3.6h-8.229v2.4h19.508v-2.4h-8.271z" transform="translate(30 50)"/>
        </g>
        <g id="fc_box_medium-3" data-name="fc_box_medium" transform="translate(407 1764)">
            <g transform="translate(-114 -820)" style="filter:url(#box-3)">
                <g id="box-13" data-name="box" class="cls-2">
                    <path class="cls-11" d="M0 0h538v130H0z" transform="translate(114 820)"/>
                    <path class="cls-12" d="M1 1h536v128H1z" transform="translate(114 820)"/>
                </g>
            </g>
            <path id="패스_11331" data-name="패스 11331" class="cls-3" d="M140.356 4.453v6.721h14.586V4.453zm2.934 4.409v-2.1h8.66v2.1zm14.122 3.438h-19.459v2.345h8.188v1.367H140.2v2.254h11.884v1.1h-11.869v5.644h15.373v-2.25h-12.439v-1.285h11.884v-5.461h-5.892v-1.368h8.271zm16.144-8.486v10.957h2.967V3.815zm-8.006 6.812a7.984 7.984 0 0 0 5.155 3.936l1.417-2.3c-3.273-.854-4.881-2.934-5.088-5.064h4.266V4.809h-11.725V7.2h4.384c-.215 2.287-1.848 4.525-5.163 5.453L160.155 15a8.2 8.2 0 0 0 5.395-4.373zm-.34 10.691h11.345v-5.693h-14.312v2.262h11.329v1.294h-11.279v5.834h14.843v-2.3H165.21zm25.906-9.862h3.331v5.039h2.983V3.815h-2.983v5.2h-3.331zm-5.088.265a8.128 8.128 0 0 0 4.906 4.227l1.475-2.354a6.6 6.6 0 0 1-4.909-6.074h4.251v-2.4h-11.566v2.4h4.276a7.1 7.1 0 0 1-5.146 6.613l1.55 2.37a8.462 8.462 0 0 0 5.163-4.781zm4.11 5.246c-4.541 0-7.334 1.525-7.326 4.11-.008 2.586 2.785 4.1 7.326 4.11 4.558-.008 7.343-1.525 7.351-4.11-.008-2.584-2.789-4.109-7.351-4.109zm0 5.934c-2.826.008-4.359-.6-4.351-1.823-.008-1.227 1.525-1.84 4.351-1.84s4.376.613 4.384 1.84c-.008 1.223-1.55 1.832-4.384 1.823zm21.262-6.6h6.157V5.182h-2.983v3.324h-9.3V5.182h-3V16.3h6.166v3.953h-8.229v2.428h19.508v-2.432H211.4zm3.174-5.42v3.033h-9.3v-3.037zm19.856-5.47V3.666h-2.983v1.74h-4.624v2.171h12.2V5.406zm9.116 4.541v-6.1h-2.996v14.492h2.992V12.4h2.735V9.948zm-3.986 5.072c-1.633.2-3.381.34-5.13.423v-1.1c2.271-.34 3.7-1.467 3.7-3.091-.008-1.972-2.08-3.191-5.221-3.182-3.157-.008-5.238 1.21-5.229 3.182-.008 1.641 1.442 2.776 3.762 3.1v1.2c-1.848.05-3.622.058-5.188.058l.307 2.312a79.952 79.952 0 0 0 13.21-.845zm-9.017-3.771c-.008-.82.854-1.193 2.37-1.193 1.5 0 2.354.373 2.362 1.193-.008.779-.862 1.235-2.362 1.227-1.521.004-2.383-.451-2.374-1.23zM240.55 21.5v3.663h2.992v-5.975h-14.578V21.5zM262.1 3.848V19.18h3V3.848zm-2.867 6.729c0-3.124-2.552-5.378-5.826-5.378s-5.843 2.254-5.834 5.378c-.008 3.174 2.561 5.412 5.834 5.412s5.822-2.238 5.822-5.412zm-8.735 0a2.895 2.895 0 0 1 5.785 0 2.893 2.893 0 0 1-5.785 0zm3.331 7.052H250.8v7.16h14.86v-2.411h-11.834zm34.555-13.814v12.108h2.967V3.815zm-13.773 1.3v8.975h10.417V5.116zm2.942 6.638V7.445h4.517v4.309zm14.18 7.558V17.1h-6.066v-1.766h-3V17.1h-6.058v2.213h5.959c-.323 1.5-2.561 3.191-6.82 3.539l1.019 2.262c3.572-.348 6.108-1.6 7.409-3.3 1.309 1.682 3.829 2.967 7.384 3.3l1-2.262c-4.243-.406-6.472-2.08-6.8-3.539zm23.08-10.4h-3.8v2.445h3.8v4.417h2.987V3.848h-2.983zm-3.936-3.837h-9.8v2.379h6.588c-.481 2.876-3.124 5.229-7.749 6.472l1.185 2.329c6.253-1.74 9.775-5.602 9.775-11.179zM317.8 24.9v-8.273h-14.151V24.9zm-2.967-5.925v3.58h-8.246v-3.58zm16.981-2.2h6.149v-2.37h-12.05v-2.228h11.378V9.831h-11.382V7.7h11.884V5.3h-14.917v11.476h5.924v3.6h-8.229v2.4h19.509v-2.4h-8.271z" transform="translate(30 50)"/>
        </g>
        <g id="fc_diamond" transform="translate(692 1224)">
            <g transform="translate(-399 -280)" style="filter:url(#다각형_3)">
                <g id="다각형_3-2" data-name="다각형 3" style="fill:#fff">
                    <path class="cls-11" d="M269 258.89 2.298 130 269 1.11 535.702 130 269 258.89z" transform="translate(399 280)"/>
                    <path d="M269 2.221 4.596 130 269 257.779 533.404 130 269 2.221M269 0l269 130-269 130L0 130 269 0z" style="fill:#999;stroke:none" transform="translate(399 280)"/>
                </g>
            </g>
            <path id="패스_11325" data-name="패스 11325" class="cls-3" d="M97.271 4.867v8.594h14.876V4.867zm2.934 6.257V7.238h8.967v3.887zm-5.238 4.633v2.4h8.213v6.973h2.959v-6.978h8.337v-2.4zm36.439 9.406h2.818V3.815h-2.818zm-7.077-13.11a20.564 20.564 0 0 0 .738-5.693h-8.412v2.4h5.436c-.4 4.185-2.3 7.293-6.613 9.854l1.691 2.1a14.961 14.961 0 0 0 6.232-6.29h3.481v9.786h2.8V4.3h-2.8v7.749zm27.157.613V14.8h2.975V3.815h-2.975v2.726h-3.928V4.735H144.6v2.5h-4.2v-2.5h-3v9.456h10.16v-1.525zm0-2.262h-3.928V8.771h3.928zM140.4 11.845V9.492h4.2v2.354zm2.89 9.455h11.171v-5.7h-14.2v2.3h11.221v1.2h-11.2v5.818h14.8v-2.349h-11.8zm24.829-11.593V6.8h11.818V4.4h-14.8v7.682h14.909V9.707zm-5.337 6.307h19.492v-2.437h-19.492zm9.688 1.286c-4.657 0-7.467 1.409-7.467 3.912 0 2.528 2.809 3.953 7.467 3.945 4.633.008 7.417-1.417 7.434-3.945-.017-2.505-2.804-3.912-7.434-3.912zm0 5.586c-2.95-.008-4.434-.539-4.417-1.674-.017-1.077 1.467-1.633 4.417-1.641 2.9.008 4.425.564 4.434 1.641-.004 1.133-1.534 1.664-4.434 1.672zm22.276-9.166h6.307v-2.3h-12.141v-1.414h11.751V4.238H185.9V6.55h11.76v1.3h-11.724v5.867h5.851v1.55h-8.279v2.387h19.508v-2.386h-8.271zm3.017 7.5v3.845h3.017v-6.2h-15.092v2.354z" transform="translate(120 116)"/>
        </g>
        <g id="fc_box_big_no_btn" transform="translate(407 2304)">
            <g transform="translate(-114 -1360)" style="filter:url(#box-4)">
                <g id="box-14" data-name="box" class="cls-2">
                    <path class="cls-11" d="M0 0h1108v130H0z" transform="translate(114 1360)"/>
                    <path class="cls-12" d="M1 1h1106v128H1z" transform="translate(114 1360)"/>
                </g>
            </g>
            <path id="패스_11337" data-name="패스 11337" class="cls-3" d="M391.838 3.848V19.42h3V3.848zm-8.221 7.852a8.221 8.221 0 0 0 5.014 4.434l1.525-2.354a6.773 6.773 0 0 1-5.006-6.713v-2.05h-3.1v2.055a7.257 7.257 0 0 1-5.146 7.077l1.558 2.362a8.522 8.522 0 0 0 5.155-4.811zm-.05 6.2h-3.025v6.89H395.4v-2.412h-11.832zm30.887 0a50.7 50.7 0 0 0 .854-10.21V5.671h-15.564V8.05h12.564a46.223 46.223 0 0 1-.87 9.539zm-6.787-5.122H404.7v7.334h-6.961v2.428H417.2v-2.424h-9.53zm19.065 1.458a1.525 1.525 0 0 0 1.488 1.608 1.488 1.488 0 0 0 1.512-1.608 1.463 1.463 0 0 0-1.488-1.584 1.509 1.509 0 0 0-1.512 1.588zm17.855-4.533V6.8H456.4V4.4h-14.8v7.682h14.909V9.707zm-5.337 6.307h19.492v-2.433H439.25zm9.688 1.285c-4.657 0-7.467 1.409-7.467 3.912 0 2.528 2.809 3.953 7.467 3.945 4.633.008 7.417-1.417 7.434-3.945-.017-2.5-2.801-3.907-7.434-3.907zm0 5.586c-2.95-.008-4.434-.539-4.417-1.674-.017-1.077 1.467-1.633 4.417-1.641 2.9.008 4.425.564 4.434 1.641-.009 1.138-1.533 1.669-4.434 1.677zm22.276-9.166h6.307v-2.3H465.38v-1.409h11.751V4.238h-14.76V6.55h11.76v1.3H462.4v5.867h5.851v1.55h-8.279v2.387h19.508v-2.386h-8.271zm3.017 7.5v3.845h3.017v-6.2h-15.092v2.354zM501.14 3.848V19.42h3V3.848zm-8.221 7.852a8.221 8.221 0 0 0 5.014 4.434l1.525-2.354a6.773 6.773 0 0 1-5.006-6.713v-2.05h-3.1v2.055a7.257 7.257 0 0 1-5.146 7.077l1.558 2.362a8.522 8.522 0 0 0 5.155-4.811zm-.05 6.2h-3.025v6.89H504.7v-2.412h-11.831zm20.586-5.594a7.867 7.867 0 0 0 5.1 3.7l1.4-2.3c-3.431-.887-5.039-3.108-5.064-5.3h4.293V6.052h-4.26V3.74h-3.017v2.312h-4.287v2.354h4.293c-.025 2.42-1.608 4.84-5.022 5.818l1.4 2.337a7.875 7.875 0 0 0 5.164-4.252zm5.1-.365h3.472v4.782h2.983V3.815h-2.983V9.55h-3.467zm-.837 5.138c-4.525 0-7.334 1.442-7.326 4-.008 2.577 2.8 4.077 7.326 4.069 4.541.008 7.343-1.492 7.351-4.069-.004-2.554-2.805-3.996-7.346-3.996zm0 5.8c-2.826-.008-4.359-.63-4.351-1.8-.008-1.144 1.525-1.724 4.351-1.715 2.884-.008 4.376.572 4.384 1.715-.002 1.175-1.495 1.797-4.379 1.805zm32.433-10.909V3.815h-2.992v21.348h2.992v-10.7h3.149V11.97zM541.2 8.323h4.293V5.878h-11.817v2.445h4.517v1.31c-.017 3.53-1.807 7.5-5.362 9.157l1.74 2.362a10.573 10.573 0 0 0 5.171-6.373 10.018 10.018 0 0 0 5.014 5.826l1.666-2.345a9.492 9.492 0 0 1-5.222-8.627zm27.622 8.735h3.017v-2.412h-12.53v-2.37h12.033V5.207h-15.05v2.4h12.091V9.9h-12.058v7.16h2.751v3.273h-5v2.445h19.508v-2.447h-4.765zm-2.942 0v3.273h-3.9v-3.273zM597.289 9V3.815h-3v12.878h3v-5.2h2.867V9zm-10.533 2.751a8.105 8.105 0 0 0 4.923 4.185l1.517-2.3c-3.448-1.119-4.956-3.671-4.964-6.174h4.26V5.075h-11.637v2.386h4.359A6.963 6.963 0 0 1 580.043 14l1.583 2.3a8.354 8.354 0 0 0 5.13-4.546zm7.533 8.238v5.171h3V17.6h-14.362v2.387zm24.8-3.663V3.815h-2.983v3.92h-4v2.445h4v6.149zm-11.362-4.89a7.834 7.834 0 0 0 4.74 4.177l1.591-2.337a6.513 6.513 0 0 1-4.89-6.555V4.934h-3.017v1.931a7.126 7.126 0 0 1-5.246 7.019l1.591 2.387a8.473 8.473 0 0 0 5.235-4.832zm4.069 5.436c-4.541 0-7.334 1.533-7.326 4.152-.008 2.635 2.785 4.135 7.326 4.127 4.558.008 7.343-1.492 7.351-4.127-.005-2.615-2.789-4.148-7.347-4.148zm0 5.95c-2.826.008-4.359-.613-4.351-1.8-.008-1.218 1.525-1.831 4.351-1.831s4.376.613 4.384 1.831c-.004 1.191-1.546 1.812-4.38 1.804zm15.128-17.59-5.47 20.32h3l5.47-20.32zm19.467 19.931h2.826V3.815h-2.826zm-7.144-14.022v2.4h2.809v10.628h2.8v-20h-2.8v6.97zM637.532 8.4h3.232V6h-9.613v2.4h3.5v1.133c0 3.63-1.169 7.459-4.309 9.4l1.807 2.2a9.93 9.93 0 0 0 3.978-5.809A9.022 9.022 0 0 0 640 20.646l1.749-2.2c-3.116-1.782-4.227-5.362-4.218-8.917zm15.63 3.945c3.986-.207 6.729-1.21 8.072-2.809 1.351 1.6 4.1 2.6 8.055 2.809l.878-2.2c-4.309-.182-6.481-1.2-7.086-2.436h6.025v-2.22h-6.389V3.807h-2.967v1.682h-6.35V7.7h5.975c-.622 1.235-2.785 2.254-7.036 2.436zm17.784.572h-19.367v2.18h8.188v1.343h-5.983v2.138h11.884v1.061H653.8v5.378h15.373v-2.2h-12.439v-1.176h11.884v-5.2h-5.892v-1.347h8.221z" transform="translate(30 51)"/>
        </g>
        <g id="fc_box_big_no_btn-2" data-name="fc_box_big_no_btn" transform="translate(407 2664)">
            <g transform="translate(-114 -1720)" style="filter:url(#box-5)">
                <g id="box-15" data-name="box" class="cls-2">
                    <path class="cls-11" d="M0 0h1108v130H0z" transform="translate(114 1720)"/>
                    <path class="cls-12" d="M1 1h1106v128H1z" transform="translate(114 1720)"/>
                </g>
            </g>
            <path id="패스_11339" data-name="패스 11339" class="cls-3" d="M481.18 13.5h6.174v-2.276H475.37v-1.218h11.3V7.834h-11.3V6.649h11.8V4.337h-14.783V13.5h5.793v1.32h-8.238v2.345h19.508V14.82h-8.27zm-1.5 4.633c-4.765-.008-7.467 1.26-7.467 3.506 0 2.3 2.7 3.522 7.467 3.514 4.707.008 7.417-1.21 7.434-3.514-.014-2.239-2.727-3.512-7.434-3.504zm0 4.807c-3.058.008-4.483-.39-4.475-1.3-.008-.9 1.417-1.293 4.475-1.293 3.008 0 4.425.4 4.434 1.293-.014.912-1.426 1.31-4.434 1.302zm25.889 2.221h3.025V3.815h-3.025zM499 8.323h4.467V5.878h-12.044v2.445h4.533v1.31c-.008 3.622-1.84 7.575-5.37 9.157l1.7 2.345a10.337 10.337 0 0 0 5.246-6.3 9.657 9.657 0 0 0 5.213 5.768l1.608-2.345A9.2 9.2 0 0 1 499 9.633zm27.53 2.213h-4.177v2.412h4.177v12.265h2.959V3.815h-2.959zm-6.961-5.072h-3.041v3.191c-.017 4.011-1.691 8.13-5.337 9.787l1.873 2.428a10.282 10.282 0 0 0 5-6.29 9.661 9.661 0 0 0 4.856 5.9l1.807-2.378c-3.547-1.533-5.163-5.436-5.155-9.448zm27.953 3.771c1.392 2.312 4.127 4.044 7.856 4.575l1.169-2.412c-4.881-.6-7.45-3.39-7.45-5.909V4.453h-3.141v1.036c-.008 2.519-2.569 5.3-7.417 5.909l1.177 2.412c3.693-.531 6.411-2.263 7.803-4.575zm-9.738 6.191v2.436h8.188v7.3h2.959v-7.3h8.312v-2.437zm38.727 1.392V3.848h-3v2.834h-3.489v2.412h3.489v2h-3.489v2.4h3.489v3.331zm-6.964-3.618a41.621 41.621 0 0 1-7.227.5v-2.145h6.439V4.934h-9.431v2.411h6.472v1.964h-6.439v6.82h1.608a47.537 47.537 0 0 0 8.851-.522zm-.29 3.945c-4.583 0-7.376 1.508-7.367 4.061-.008 2.561 2.785 4.019 7.367 4.019 4.566 0 7.343-1.459 7.351-4.019-.008-2.549-2.785-4.057-7.351-4.057zm0 5.8c-2.867 0-4.351-.555-4.343-1.74-.008-1.2 1.475-1.773 4.343-1.773 2.843 0 4.376.572 4.384 1.773-.008 1.195-1.541 1.745-4.384 1.745z" transform="translate(30 51)"/>
        </g>
        <g id="fc_start_end_link" transform="translate(407 2844)">
            <g transform="translate(-114 -1900)" style="filter:url(#area)">
                <g id="area-3" data-name="area" class="cls-2" transform="translate(114 1900)">
                    <rect class="cls-11" width="1108" height="130" rx="65"/>
                    <rect class="cls-12" x="1" y="1" width="1106" height="128" rx="64"/>
                </g>
            </g>
            <g id="fc_textlink" transform="translate(671 79)">
                <g id="stack" transform="translate(-2524.094 20210)">
                    <g id="ico_fc_pop_up" transform="translate(2419.596 -20209)">
                        <g id="그룹_1025" data-name="그룹 1025" transform="translate(-1101.074 -1125)">
                            <g id="그룹_1026" data-name="그룹 1026" transform="translate(1108.074 1129)">
                                <path id="사각형_878" data-name="사각형 878" style="stroke:#326f5e;stroke-width:1.5px;fill:#fff" d="M0 0h9v9H0z"/>
                            </g>
                            <path id="패스_6896" data-name="패스 6896" class="cls-7" d="M1104.574 1132.941v9h9" transform="translate(.5 -.941)"/>
                        </g>
                    </g>
                    <path id="패스_11341" data-name="패스 11341" class="cls-8" d="M-10.028-7.669h-3.89v1.227h3.89v7.8h1.481v-14.032h-1.481zm-8.022-2.475h4.917v-1.226h-6.414v9.287h1.1a31.721 31.721 0 0 0 6.365-.464l-.166-1.215a30.034 30.034 0 0 1-5.8.442zM.707-4.508H4.9v-7.21H3.42V-9.3h-6.873v-2.414h-1.486v7.21h4.177v2.873H-6.4v1.222H6.414v-1.226H.707zM3.42-8.11v2.4h-6.873v-2.4zm14.16 9.436h1.492v-14H17.58zM8.249-11.166v1.182H13.4c-.293 3.265-2.1 5.79-5.829 7.558l.785 1.2c4.807-2.293 6.547-5.845 6.558-9.939zM-20.751 2h41.5v1h-41.5z" transform="translate(2395.094 -20194)"/>
                </g>
            </g>
            <path id="패스_11340" data-name="패스 11340" class="cls-3" d="M499.959 12.044V3.815h-2.992v21.348h2.992V14.572h3.149v-2.528zm-8.975-6.58h-2.992v3.191c-.008 3.961-1.715 8.039-5.32 9.7l1.831 2.428a10.307 10.307 0 0 0 5-6.215 9.73 9.73 0 0 0 4.715 5.8l1.807-2.378c-3.423-1.657-5.055-5.511-5.039-9.331zm24.091.572V3.8h-2.959v2.236h-7.3v2.4h17.511v-2.4zM513.6 16.569c4.591 0 7.351-1.293 7.359-3.638-.008-2.378-2.768-3.663-7.359-3.663s-7.367 1.285-7.359 3.663c-.009 2.345 2.759 3.638 7.359 3.638zm0-5.088c2.826 0 4.243.464 4.26 1.45-.017.961-1.434 1.425-4.26 1.417-2.851.008-4.26-.456-4.251-1.417-.009-.986 1.4-1.45 4.251-1.45zm-9.713 6.133v2.42h8.229v5.146h2.959v-5.147h8.32v-2.42zm37.923-13.8h-3.058v15.979h3.058v-6.97h2.59v-2.494h-2.594zm-5.7 9.149a35.464 35.464 0 0 0 .489-6.257V5.373h-10.991v2.436h8.055a28.5 28.5 0 0 1-.5 4.881zm1.492.878c-2.005.29-4.185.456-6.315.547V10.3h-2.975v4.185c-1.417.025-2.76.033-3.953.033l.257 2.378a76.835 76.835 0 0 0 13.135-.9zm-10.11 4.525v6.424h14.992v-2.412h-11.995v-4.011zm32.793 6.845h2.975V3.815h-2.975zm-10.669-11.377h7.036V5.613h-10.135v2.412h7.083v3.456h-7.069v8.735h1.914a57.731 57.731 0 0 0 10.566-.754l-.257-2.428a55.32 55.32 0 0 1-9.141.721z" transform="translate(30 36)"/>
        </g>
        <g id="fc_box_medium_link" transform="translate(977 1764)">
            <g transform="translate(-684 -820)" style="filter:url(#box-6)">
                <g id="box-16" data-name="box" class="cls-2">
                    <path class="cls-11" d="M0 0h538v130H0z" transform="translate(684 820)"/>
                    <path class="cls-12" d="M1 1h536v128H1z" transform="translate(684 820)"/>
                </g>
            </g>
            <g id="fc_textlink-2" data-name="fc_textlink" transform="translate(386 79)">
                <g id="stack-2" data-name="stack" transform="translate(-2524.094 20210)">
                    <g id="ico_fc_go_tab" transform="translate(2421.503 -20209)">
                        <path id="패스_7163" data-name="패스 7163" class="cls-7" d="m8.62 5.071 5 5-5 5" transform="translate(-2.62 -.072)"/>
                    </g>
                    <path id="패스_11343" data-name="패스 11343" class="cls-8" d="M-11.981-7.669h-3.89v1.227h3.89v7.8h1.481v-14.032h-1.481zM-20-10.144h4.917v-1.226H-21.5v9.287h1.1a31.721 31.721 0 0 0 6.365-.464l-.165-1.215a30.034 30.034 0 0 1-5.8.442zM2.66-4.508h4.188v-7.21H5.373V-9.3H-1.5v-2.414h-1.486v7.21h4.177v2.873h-5.636v1.222H8.367v-1.226H2.66zm2.713-3.6v2.4H-1.5v-2.4zm14.16 9.436h1.492v-14h-1.492zM10.2-11.166v1.182h5.149c-.293 3.265-2.1 5.79-5.829 7.558l.785 1.2c4.807-2.293 6.547-5.845 6.558-9.939zM-22.7 2h45.4v1h-45.4z" transform="translate(2394.798 -20194)"/>
                </g>
            </g>
            <path id="패스_11330" data-name="패스 11330" class="cls-3" d="M158.348 6.028h-6.041V23h5.983c5.171 0 8.3-3.2 8.3-8.5-.004-5.29-3.129-8.472-8.242-8.472zm-2.519 13.948V9.052h2.329c3.207 0 4.906 1.666 4.906 5.445 0 3.8-1.7 5.478-4.923 5.478zm18.564-9.87c-3.381 0-5.3 1.74-5.5 3.953h3.29a1.925 1.925 0 0 1 2.13-1.409c1.285 0 2.014.613 2.022 1.691v1.028c-.53.017-2.254.091-3.157.149-2.445.157-4.732 1.077-4.732 3.928 0 2.511 1.807 3.8 4.235 3.8a3.906 3.906 0 0 0 3.721-2.006h.1V23h3.29v-8.577c-.005-3.067-2.624-4.323-5.4-4.323zm-.729 10.724c-1.11 0-1.9-.506-1.9-1.492s.762-1.55 1.972-1.649c.6-.058 2.1-.141 2.611-.166v.928a2.463 2.463 0 0 1-2.684 2.378zm14.287-.456c-.713-.025-1.21-.265-1.21-1.276v-6.217h2.4v-2.61h-2.4v-3.05h-3.472v3.05h-1.749v2.61h1.749v6.688c-.017 2.478 1.691 3.6 4.21 3.6a11.971 11.971 0 0 0 1.831-.124v-2.73c-.41.025-1.02.066-1.36.058zM196.66 10.1c-3.381 0-5.3 1.74-5.5 3.953h3.29a1.925 1.925 0 0 1 2.13-1.409c1.285 0 2.014.613 2.022 1.691v1.028c-.53.017-2.254.091-3.157.149-2.445.157-4.732 1.077-4.732 3.928 0 2.511 1.807 3.8 4.235 3.8a3.906 3.906 0 0 0 3.721-2.006h.1V23h3.29v-8.577c-.004-3.067-2.623-4.323-5.399-4.323zm-.729 10.724c-1.11 0-1.9-.506-1.9-1.492s.762-1.55 1.972-1.649c.6-.058 2.1-.141 2.611-.166v.928a2.463 2.463 0 0 1-2.683 2.384zm22.3-4.218h3.669c-.05 2.138-1.5 3.5-3.9 3.5-2.71 0-4.442-2.022-4.442-5.61 0-3.564 1.782-5.577 4.4-5.577a3.488 3.488 0 0 1 3.6 2.577h3.588c-.472-3.348-3.423-5.7-7.251-5.7-4.475 0-7.914 3.232-7.914 8.735 0 5.37 3.224 8.7 7.989 8.7 4.276 0 7.334-2.71 7.334-7.169v-2.12h-7.077zm14.935-6.506c-3.381 0-5.3 1.74-5.5 3.953h3.29a1.925 1.925 0 0 1 2.13-1.409c1.285 0 2.014.613 2.022 1.691v1.028c-.53.017-2.254.091-3.157.149-2.445.157-4.732 1.077-4.732 3.928 0 2.511 1.807 3.8 4.235 3.8a3.906 3.906 0 0 0 3.721-2.006h.1V23h3.29v-8.577c-.004-3.067-2.623-4.323-5.399-4.323zm-.729 10.724c-1.11 0-1.9-.506-1.9-1.492s.762-1.55 1.972-1.649c.6-.058 2.1-.141 2.611-.166v.928a2.463 2.463 0 0 1-2.684 2.384zm12.232 6.945v-6.8h.108a3.776 3.776 0 0 0 3.622 2.238c2.909 0 5.171-2.3 5.171-6.555 0-4.359-2.354-6.547-5.171-6.547a3.753 3.753 0 0 0-3.622 2.3h-.157v-2.134h-3.42v17.5zm-.075-11.138c0-2.3.97-3.754 2.718-3.754 1.773 0 2.71 1.525 2.71 3.754 0 2.246-.953 3.8-2.71 3.8-1.732.008-2.718-1.508-2.718-3.796zM264.931 23v-7.036h6.92v-2.909h-6.92v-4.11h7.669V6.028h-11.191V23zm11.644-14.4a1.833 1.833 0 0 0 1.889-1.765 1.894 1.894 0 0 0-3.779 0 1.833 1.833 0 0 0 1.89 1.765zm1.732 14.4V10.271h-3.472V23zm2.7-16.972V23h3.472V6.028zm6.174 0V23h3.472V6.028zM295.1 8.6a1.833 1.833 0 0 0 1.889-1.765 1.894 1.894 0 0 0-3.779 0A1.833 1.833 0 0 0 295.1 8.6zm1.729 14.4V10.271h-3.472V23zM303 15.633a2.373 2.373 0 0 1 2.445-2.644 2.2 2.2 0 0 1 2.279 2.511V23h3.476v-8.1c0-2.975-1.732-4.79-4.384-4.79a3.843 3.843 0 0 0-3.829 2.4h-.149v-2.239h-3.308V23H303zm16.583 12.406c3.622 0 6.182-1.649 6.182-4.906V10.271h-3.431v2.138h-.134a3.77 3.77 0 0 0-3.638-2.3c-2.809 0-5.171 2.146-5.171 6.456 0 4.235 2.3 6.257 5.18 6.257a3.718 3.718 0 0 0 3.638-2.08h.149v2.345c0 1.765-1.077 2.445-2.693 2.445-1.376 0-2.337-.456-2.528-1.483h-3.427c.207 2.415 2.37 3.99 5.876 3.99zm.066-7.831c-1.765 0-2.718-1.4-2.718-3.613 0-2.188.936-3.713 2.718-3.713 1.732 0 2.71 1.459 2.71 3.713s-.992 3.612-2.707 3.612z" transform="translate(30 36)"/>
        </g>
        <g id="fc_box_medium_link-2" data-name="fc_box_medium_link" transform="translate(977 1584)">
            <g transform="translate(-684 -640)" style="filter:url(#box-7)">
                <g id="box-17" data-name="box" class="cls-2">
                    <path class="cls-11" d="M0 0h538v130H0z" transform="translate(684 640)"/>
                    <path class="cls-12" d="M1 1h536v128H1z" transform="translate(684 640)"/>
                </g>
            </g>
            <g id="fc_textlink-3" data-name="fc_textlink" transform="translate(386 79)">
                <g id="stack-3" data-name="stack" transform="translate(-2524.094 20210)">
                    <g id="ico_fc_go_tab-2" data-name="ico_fc_go_tab" transform="translate(2421.503 -20209)">
                        <path id="패스_7163-2" data-name="패스 7163" class="cls-7" d="m8.62 5.071 5 5-5 5" transform="translate(-2.62 -.072)"/>
                    </g>
                    <path id="패스_11329" data-name="패스 11329" class="cls-8" d="M-11.981-7.669h-3.89v1.227h3.89v7.8h1.481v-14.032h-1.481zM-20-10.144h4.917v-1.226H-21.5v9.287h1.1a31.721 31.721 0 0 0 6.365-.464l-.165-1.215a30.034 30.034 0 0 1-5.8.442zM2.66-4.508h4.188v-7.21H5.373V-9.3H-1.5v-2.414h-1.486v7.21h4.177v2.873h-5.636v1.222H8.367v-1.226H2.66zm2.713-3.6v2.4H-1.5v-2.4zm14.16 9.436h1.492v-14h-1.492zM10.2-11.166v1.182h5.149c-.293 3.265-2.1 5.79-5.829 7.558l.785 1.2c4.807-2.293 6.547-5.845 6.558-9.939zM-22.7 2h45.4v1h-45.4z" transform="translate(2394.798 -20194)"/>
                </g>
            </g>
            <path id="패스_11328" data-name="패스 11328" class="cls-3" d="M143.588 6.028h-6.041V23h5.983c5.171 0 8.3-3.2 8.3-8.5-.004-5.29-3.13-8.472-8.242-8.472zm-2.519 13.948V9.052h2.331c3.207 0 4.906 1.666 4.906 5.445 0 3.8-1.7 5.478-4.923 5.478zm18.564-9.87c-3.381 0-5.3 1.74-5.5 3.953h3.29a1.925 1.925 0 0 1 2.13-1.409c1.285 0 2.014.613 2.022 1.691v1.028c-.53.017-2.254.091-3.157.149-2.445.157-4.732 1.077-4.732 3.928 0 2.511 1.807 3.8 4.235 3.8a3.906 3.906 0 0 0 3.721-2.006h.1V23h3.29v-8.577c-.004-3.067-2.623-4.323-5.399-4.323zm-.733 10.723c-1.11 0-1.9-.506-1.9-1.492s.762-1.55 1.972-1.649c.6-.058 2.1-.141 2.611-.166v.928a2.463 2.463 0 0 1-2.683 2.379zm14.287-.456c-.713-.025-1.21-.265-1.21-1.276v-6.216h2.4v-2.61h-2.4v-3.05h-3.472v3.05h-1.745v2.61h1.749v6.688c-.017 2.478 1.691 3.6 4.21 3.6a11.971 11.971 0 0 0 1.831-.124v-2.73c-.415.025-1.02.066-1.359.058zM181.9 10.1c-3.381 0-5.3 1.74-5.5 3.953h3.29a1.925 1.925 0 0 1 2.13-1.409c1.285 0 2.014.613 2.022 1.691v1.028c-.53.017-2.254.091-3.157.149-2.445.157-4.732 1.077-4.732 3.928 0 2.511 1.807 3.8 4.235 3.8a3.906 3.906 0 0 0 3.721-2.006h.1V23h3.29v-8.577c.001-3.067-2.622-4.323-5.399-4.323zm-.729 10.724c-1.11 0-1.9-.506-1.9-1.492s.762-1.55 1.972-1.649c.6-.058 2.1-.141 2.611-.166v.928a2.463 2.463 0 0 1-2.683 2.384zm22.3-4.218h3.671c-.05 2.138-1.5 3.5-3.9 3.5-2.71 0-4.442-2.022-4.442-5.61 0-3.564 1.782-5.577 4.4-5.577a3.488 3.488 0 0 1 3.6 2.577h3.588c-.472-3.348-3.423-5.7-7.251-5.7-4.475 0-7.914 3.232-7.914 8.735 0 5.37 3.224 8.7 7.989 8.7 4.276 0 7.334-2.71 7.334-7.169v-2.12h-7.077zm14.935-6.506c-3.381 0-5.3 1.74-5.5 3.953h3.29a1.925 1.925 0 0 1 2.13-1.409c1.285 0 2.014.613 2.022 1.691v1.028c-.53.017-2.254.091-3.157.149-2.445.157-4.732 1.077-4.732 3.928 0 2.511 1.807 3.8 4.235 3.8a3.906 3.906 0 0 0 3.721-2.006h.1V23h3.29v-8.577c-.005-3.067-2.623-4.323-5.399-4.323zm-.729 10.724c-1.11 0-1.9-.506-1.9-1.492s.762-1.55 1.972-1.649c.6-.058 2.1-.141 2.611-.166v.928a2.463 2.463 0 0 1-2.683 2.384zm12.232 6.945v-6.8h.108a3.776 3.776 0 0 0 3.622 2.238c2.909 0 5.171-2.3 5.171-6.555 0-4.359-2.354-6.547-5.171-6.547a3.753 3.753 0 0 0-3.622 2.3h-.157v-2.134h-3.423v17.5zm-.075-11.138c0-2.3.97-3.754 2.718-3.754 1.773 0 2.71 1.525 2.71 3.754 0 2.246-.953 3.8-2.71 3.8-1.732.008-2.718-1.508-2.718-3.796zM261.964 23 256.1 6.028h-4.533L245.7 23h3.779l1.276-3.912h6.157L258.185 23zm-8.2-13.144h.133l2.113 6.472h-4.359zm13.508 5.776a2.373 2.373 0 0 1 2.445-2.644 2.2 2.2 0 0 1 2.279 2.511V23h3.472v-8.1c0-2.975-1.732-4.79-4.384-4.79a3.843 3.843 0 0 0-3.829 2.4h-.155v-2.239h-3.3V23h3.472zm16.214-5.532c-3.381 0-5.3 1.74-5.5 3.953h3.29a1.925 1.925 0 0 1 2.13-1.409c1.285 0 2.014.613 2.022 1.691v1.028c-.53.017-2.254.091-3.157.149-2.445.157-4.732 1.077-4.732 3.928 0 2.511 1.807 3.8 4.235 3.8a3.906 3.906 0 0 0 3.721-2.006h.1V23h3.29v-8.577c-.004-3.067-2.623-4.323-5.399-4.323zm-.729 10.724c-1.111 0-1.9-.506-1.9-1.492s.762-1.55 1.972-1.649c.6-.058 2.1-.141 2.611-.166v.928a2.463 2.463 0 0 1-2.683 2.384zm8.76-14.8V23h3.472V6.028zm8.221 21.746a4.6 4.6 0 0 0 4.8-3.373l4.964-14.13h-3.671l-2.693 9.381H303l-2.669-9.381h-3.651l4.575 13.086-.2.539a1.481 1.481 0 0 1-1.674 1.16c-.431 0-.961-.008-1.4-.041l-.008 2.7a19.25 19.25 0 0 0 1.765.062zm21.978-13.715c-.182-2.428-2.171-3.953-5.4-3.953-3.273 0-5.37 1.525-5.362 3.97-.008 1.881 1.235 3.133 3.671 3.613l2.1.414c1.193.249 1.724.655 1.732 1.318-.008.82-.845 1.318-2.1 1.318-1.285 0-2.088-.514-2.262-1.508h-3.481c.282 2.486 2.3 4.019 5.743 4.019 3.381 0 5.627-1.674 5.635-4.177-.008-1.84-1.2-2.942-3.663-3.448l-2.3-.464c-1.193-.257-1.641-.7-1.633-1.285-.008-.762.845-1.293 1.972-1.293a1.887 1.887 0 0 1 2.088 1.475zm4.151-5.455a1.833 1.833 0 0 0 1.889-1.765 1.894 1.894 0 0 0-3.779 0 1.833 1.833 0 0 0 1.89 1.765zM327.6 23V10.271h-3.472V23zm13.226-8.942c-.182-2.428-2.171-3.953-5.4-3.953-3.273 0-5.37 1.525-5.362 3.97-.008 1.881 1.235 3.133 3.671 3.613l2.1.414c1.193.249 1.724.655 1.732 1.318-.008.82-.845 1.318-2.1 1.318-1.285 0-2.088-.514-2.262-1.508h-3.481c.282 2.486 2.3 4.019 5.743 4.019 3.381 0 5.627-1.674 5.635-4.177-.008-1.84-1.2-2.942-3.663-3.448l-2.3-.464c-1.193-.257-1.641-.7-1.633-1.285-.008-.762.845-1.293 1.972-1.293a1.887 1.887 0 0 1 2.088 1.475z" transform="translate(30 36)"/>
        </g>
        <g id="fc_box_medium-4" data-name="fc_box_medium" transform="translate(977 1944)">
            <g transform="translate(-684 -1000)" style="filter:url(#box-8)">
                <g id="box-18" data-name="box" class="cls-2">
                    <path class="cls-11" d="M0 0h538v130H0z" transform="translate(684 1000)"/>
                    <path class="cls-12" d="M1 1h536v128H1z" transform="translate(684 1000)"/>
                </g>
            </g>
            <path id="패스_11334" data-name="패스 11334" class="cls-3" d="M165.989 3.815v10.956H169V3.815zm-1.558 7.6c-.837.1-1.707.182-2.594.257V7.42h1.773V5.141h-11.6V7.42h1.732v4.566c-.8.017-1.575.017-2.3.025l.315 2.337a82.849 82.849 0 0 0 12.8-.8zm-5.453-3.995v4.425c-.8.033-1.591.066-2.378.083V7.42zm-1.483 13.9H169v-5.696h-14.514v2.3h11.552v1.256h-11.51v5.834h15.066V22.66h-12.1zm29.528-6.381a5.005 5.005 0 0 0 2.577-4.343c0-3.448-3.414-5.727-8.039-5.727s-8.006 2.279-8 5.727a5.01 5.01 0 0 0 2.635 4.392v5.238h-4.351v2.434h19.508v-2.436h-4.334zm-5.461-7.707c3.025-.017 5.08 1.227 5.088 3.365-.008 2.1-2.064 3.381-5.088 3.39-3.05-.008-5.055-1.293-5.055-3.39-.001-2.141 2.004-3.384 5.054-3.368zm-2.4 8.843a12.393 12.393 0 0 0 2.4.224 13.376 13.376 0 0 0 2.438-.227v4.152h-4.84zm33.8 9.141h3.025V3.815h-3.025zm-6.523-19.752h-3.033v3.191c-.017 4.144-1.823 8.229-5.552 9.8l1.807 2.486a10.247 10.247 0 0 0 5.3-6.389 9.946 9.946 0 0 0 5.1 5.867l1.765-2.4c-3.63-1.525-5.4-5.453-5.387-9.373zm20.262.224V3.649h-2.959v2.039h-4.815v2.378H231.5V5.688zm7.177 4.4h-2.76v2.436h2.76v4.2h2.983V3.815h-2.983zm-3.53 2.519c0-2.246-2.122-3.837-5.113-3.837s-5.138 1.591-5.138 3.837c0 2.312 2.146 3.845 5.138 3.854 2.992-.008 5.113-1.541 5.113-3.853zm-7.376 0c-.017-1.019.87-1.591 2.262-1.583 1.351-.008 2.246.564 2.246 1.583 0 1.069-.9 1.641-2.246 1.641-1.391.001-2.278-.571-2.262-1.64zm13.889 12.315v-7.3h-14.336v7.3zm-2.925-4.948v2.552h-8.42v-2.551zm13.525-14.112V3.7h-2.983v2.162h-4.848V8.2h12.663V5.862zm9.1-2.047h-3v13.558h3v-5.61h2.867V9.285h-2.867zm-5.345 8.942c0-2.279-2.155-3.829-5.246-3.837-3.149.008-5.3 1.558-5.3 3.837-.008 2.3 2.155 3.82 5.3 3.82 3.091 0 5.245-1.525 5.245-3.82zm-7.633 0c0-1.069.953-1.649 2.387-1.657 1.425.008 2.4.588 2.412 1.657-.008 1.052-.986 1.608-2.412 1.6-1.434.008-2.387-.548-2.387-1.6zm6 4.815c-4.475 0-7.235 1.409-7.218 3.8-.017 2.354 2.743 3.787 7.218 3.779 4.4.008 7.2-1.425 7.21-3.779-.008-2.391-2.81-3.8-7.21-3.8zm0 5.354c-2.785 0-4.268-.547-4.26-1.55-.008-1.052 1.475-1.533 4.26-1.533 2.735 0 4.2.481 4.2 1.533.002 1.002-1.465 1.549-4.2 1.549zm22-10.74h5.793V4.669h-14.583v7.517h5.793v2.03h-8.2v2.4h19.459v-2.4h-8.262zM274.436 7v2.84h-8.718V7zm.05 13.541v4.624h2.992v-6.97h-14.934v2.345zm27.68-9.058v5.412H305V3.848h-2.834v5.2h-1.79V4.221H297.6v12h2.776v-4.74zm-10.077.564a6.92 6.92 0 0 0 3.837 3.53l1.591-2.287a5.861 5.861 0 0 1-4.017-5.655V5.124h-2.909v2.511a6.775 6.775 0 0 1-4.21 6.307l1.608 2.312a7.619 7.619 0 0 0 4.099-4.21zm5.619 5.138c-4.517 0-7.392 1.492-7.376 3.978-.017 2.486 2.859 4 7.376 3.994 4.5.008 7.392-1.508 7.4-3.994-.008-2.489-2.901-3.981-7.401-3.981zm0 5.718c-2.793.008-4.4-.58-4.392-1.74-.008-1.144 1.6-1.749 4.392-1.74 2.776-.008 4.384.6 4.392 1.74-.009 1.157-1.617 1.746-4.393 1.737zm26.643-19.071h-3v15.63h3v-6.945h2.867v-2.511h-2.867zm-10.5 8.238a8.078 8.078 0 0 0 4.865 4.251l1.575-2.354a6.64 6.64 0 0 1-5-6.481V5.133h-3.008v2.328a7.009 7.009 0 0 1-5.213 6.9l1.666 2.362a8.417 8.417 0 0 0 5.115-4.654zm-3.351 5.85v6.87h14.63v-2.412h-11.578V17.92z" transform="translate(30 50)"/>
        </g>
        <g id="fc_start_end" transform="translate(407 1044)">
            <g transform="translate(-114 -100)" style="filter:url(#area-2)">
                <g id="area-4" data-name="area" class="cls-2" transform="translate(114 100)">
                    <rect class="cls-11" width="1108" height="130" rx="65"/>
                    <rect class="cls-12" x="1" y="1" width="1106" height="128" rx="64"/>
                </g>
            </g>
            <path id="패스_11324" data-name="패스 11324" class="cls-3" d="M428.506 3.848V19.42h3V3.848zm-8.221 7.852a8.221 8.221 0 0 0 5.014 4.434l1.525-2.354a6.773 6.773 0 0 1-5.006-6.713v-2.05h-3.1v2.055a7.257 7.257 0 0 1-5.146 7.077l1.558 2.362a8.522 8.522 0 0 0 5.155-4.811zm-.05 6.2h-3.025v6.89h14.859v-2.412h-11.834zm30.539-3.7a46.085 46.085 0 0 0 .572-7.765V5h-14.628v2.428h11.7a36.4 36.4 0 0 1-.671 6.771h-13.341v2.412h4.425v8.552h2.992v-8.552h4.434v8.552h2.975v-8.552h4.633V14.2zm21.439-1.7V3.815H469.2v21.348h3.017V14.978H475V12.5zm-9.05-6.3V3.939h-3.008V6.2h-4.84v2.347h12.655V6.2zm0 11.064c2.254-.431 3.754-1.89 3.771-3.862-.017-2.4-2.2-4.019-5.246-4.019-3.108 0-5.262 1.624-5.254 4.019-.008 1.964 1.459 3.414 3.721 3.854V19.1c-1.889.041-3.7.041-5.254.041l.4 2.436a72.853 72.853 0 0 0 13.036-.87l-.2-2.171c-1.591.224-3.282.356-4.972.448zm-3.887-3.864c-.008-1.11.953-1.74 2.412-1.74 1.417 0 2.37.63 2.37 1.74s-.953 1.724-2.37 1.724c-1.459.003-2.42-.602-2.412-1.724zm24.456-7.666V3.715h-2.983v2.023H475.9v2.345h12.663V5.738zm9.1 3.63V3.815h-3v13.392h3V11.8h2.868V9.367zm-5.345 3.34c0-2.345-2.155-3.928-5.246-3.936-3.1.008-5.3 1.591-5.3 3.936-.008 2.345 2.2 3.928 5.3 3.928s5.245-1.58 5.245-3.925zm-7.633 0c0-1.094.953-1.682 2.387-1.691 1.425.008 2.4.6 2.412 1.691-.008 1.086-.986 1.649-2.412 1.649s-2.387-.56-2.387-1.646zm9.978 7.782v4.674h3V18.1H478.47v2.387zm9.232-16.036v6.721h14.586V4.453zM502 8.862v-2.1h8.66v2.1zm14.119 3.438H496.66v2.345h8.188v1.367h-5.942v2.254h11.884v1.1h-11.867v5.644H514.3v-2.25h-12.444v-1.285h11.884v-5.461h-5.892v-1.368h8.271zm16.144-8.486v10.957h2.967V3.815zm-8.006 6.812a7.984 7.984 0 0 0 5.155 3.936l1.417-2.3c-3.273-.854-4.881-2.934-5.088-5.064h4.268V4.809h-11.727V7.2h4.384c-.215 2.287-1.848 4.525-5.163 5.453L518.862 15a8.2 8.2 0 0 0 5.395-4.373zm-.34 10.691h11.345v-5.693H520.95v2.262h11.329v1.294H521v5.834h14.843v-2.3h-11.926zM558.55 3.848V19.42h3V3.848zm-8.221 7.852a8.221 8.221 0 0 0 5.014 4.434l1.525-2.354a6.773 6.773 0 0 1-5.006-6.713v-2.05h-3.1v2.055a7.257 7.257 0 0 1-5.146 7.077l1.558 2.362a8.522 8.522 0 0 0 5.155-4.811zm-.05 6.2h-3.025v6.89h14.859v-2.412h-11.834zm30.887 0a50.693 50.693 0 0 0 .854-10.21V5.671h-15.564V8.05h12.564a46.222 46.222 0 0 1-.87 9.539zm-6.787-5.122h-2.967v7.334h-6.962v2.428h19.459v-2.424h-9.53zm15.878-7.55-5.47 20.32h3l5.47-20.32zm9.2 4.475V6.8h11.818V4.4h-14.8v7.682h14.909V9.707zm-5.337 6.307h19.49v-2.433h-19.491zm9.688 1.285c-4.657 0-7.467 1.409-7.467 3.912 0 2.528 2.809 3.953 7.467 3.945 4.633.008 7.417-1.417 7.434-3.945-.018-2.5-2.803-3.907-7.435-3.907zm0 5.586c-2.95-.008-4.434-.539-4.417-1.674-.017-1.077 1.467-1.633 4.417-1.641 2.9.008 4.425.564 4.434 1.641-.01 1.138-1.535 1.669-4.435 1.677zm22.276-9.166h6.307v-2.3h-12.142v-1.409H632V4.238h-14.76V6.55H629v1.3h-11.727v5.867h5.851v1.55h-8.279v2.387h19.508v-2.386h-8.271zm3.017 7.5v3.845h3.017v-6.2h-15.093v2.354z" transform="translate(30 50)"/>
        </g>
        <g id="fc_box_medium_link-3" data-name="fc_box_medium_link" transform="translate(977 2124)">
            <g transform="translate(-684 -1180)" style="filter:url(#box-9)">
                <g id="box-19" data-name="box" class="cls-2">
                    <path class="cls-11" d="M0 0h538v130H0z" transform="translate(684 1180)"/>
                    <path class="cls-12" d="M1 1h536v128H1z" transform="translate(684 1180)"/>
                </g>
            </g>
            <g id="fc_textlink-4" data-name="fc_textlink" transform="translate(386 79)">
                <g id="stack-4" data-name="stack" transform="translate(-2524.094 20210)">
                    <g id="ico_fc_go_tab-3" data-name="ico_fc_go_tab" transform="translate(2421.503 -20209)">
                        <path id="패스_7163-3" data-name="패스 7163" class="cls-7" d="m8.62 5.071 5 5-5 5" transform="translate(-2.62 -.072)"/>
                    </g>
                    <path id="패스_11336" data-name="패스 11336" class="cls-8" d="M-11.981-7.669h-3.89v1.227h3.89v7.8h1.481v-14.032h-1.481zM-20-10.144h4.917v-1.226H-21.5v9.287h1.1a31.721 31.721 0 0 0 6.365-.464l-.165-1.215a30.034 30.034 0 0 1-5.8.442zM2.66-4.508h4.188v-7.21H5.373V-9.3H-1.5v-2.414h-1.486v7.21h4.177v2.873h-5.636v1.222H8.367v-1.226H2.66zm2.713-3.6v2.4H-1.5v-2.4zm14.16 9.436h1.492v-14h-1.492zM10.2-11.166v1.182h5.149c-.293 3.265-2.1 5.79-5.829 7.558l.785 1.2c4.807-2.293 6.547-5.845 6.558-9.939zM-22.7 2h45.4v1h-45.4z" transform="translate(2394.798 -20194)"/>
                </g>
            </g>
            <path id="패스_11335" data-name="패스 11335" class="cls-3" d="M109.4 25.146h2.967V3.848H109.4zm-8.064-11.378c3.265.017 5.635-1.865 5.635-4.517 0-2.693-2.37-4.55-5.635-4.541-3.24-.008-5.61 1.848-5.594 4.541-.021 2.649 2.349 4.534 5.589 4.517zm0-6.663c1.649-.008 2.793.779 2.8 2.146-.008 1.326-1.152 2.1-2.8 2.088-1.583.008-2.718-.762-2.71-2.088-.013-1.367 1.123-2.151 2.705-2.151zM108.1 14.3a96.99 96.99 0 0 1-13.674.779l.365 2.436c1.533-.017 3.307-.033 5.18-.108v7.119h3v-7.3a48.273 48.273 0 0 0 5.337-.721zm22.641-1.79h-1.732V4.238h-2.8v20.005h2.8V14.9h1.732v10.263h2.843V3.815h-2.843zm-11.915-8.09v2.66H115.1v2.379h10.326V7.08h-3.655V4.42zm1.483 6a4.7 4.7 0 0 0-4.7 5.047c-.008 2.992 1.981 5.1 4.7 5.1s4.674-2.1 4.682-5.1c-.008-2.95-1.955-5.047-4.682-5.047zm0 7.608c-1.235.008-2.08-.928-2.072-2.561-.008-1.6.837-2.569 2.072-2.569 1.2 0 2.047.97 2.055 2.569-.008 1.633-.853 2.569-2.055 2.561zm33.555-1.7V3.815h-2.983v3.92h-4v2.445h4v6.149zM142.5 11.439a7.834 7.834 0 0 0 4.74 4.177l1.591-2.337a6.513 6.513 0 0 1-4.89-6.555v-1.79h-3.017v1.931a7.126 7.126 0 0 1-5.246 7.019l1.591 2.387a8.473 8.473 0 0 0 5.231-4.832zm4.069 5.436c-4.541 0-7.334 1.533-7.326 4.152-.008 2.635 2.785 4.135 7.326 4.127 4.558.008 7.343-1.492 7.351-4.127-.006-2.618-2.79-4.151-7.348-4.151zm0 5.95c-2.826.008-4.359-.613-4.351-1.8-.008-1.218 1.525-1.831 4.351-1.831s4.376.613 4.384 1.831c-.005 1.188-1.547 1.809-4.381 1.801zm25.691 2.337h2.859V3.815h-2.859zm-6.149-13.45c-.323-3.97-2.088-6.365-4.657-6.365-2.809 0-4.641 2.942-4.633 7.707-.008 4.807 1.823 7.765 4.633 7.757 2.635.008 4.425-2.528 4.682-6.713h1.715v10.079h2.826V4.146h-2.826v7.566zm-4.657 6.232c-1.193.008-1.9-1.6-1.881-4.889-.017-3.257.688-4.89 1.881-4.881 1.235-.008 1.964 1.624 1.964 4.881.002 3.29-.727 4.898-1.962 4.89zM200.1 3.815h-3.058v15.978h3.058v-6.97h2.594v-2.494H200.1zm-5.7 9.149a35.458 35.458 0 0 0 .489-6.257V5.373H183.9v2.436h8.055a28.492 28.492 0 0 1-.5 4.881zm1.492.878c-2.006.29-4.185.456-6.315.547V10.3H186.6v4.185c-1.417.025-2.76.033-3.953.033l.253 2.382a76.836 76.836 0 0 0 13.135-.9zm-10.11 4.525v6.423h14.992v-2.412h-11.995v-4.011zM211.5 6.086V3.815h-2.983v2.271h-4.848v2.353h12.663V6.086zm9.1-2.238h-3v15.928h3V12.84h2.867v-2.453H220.6zM210.011 17.4c3.083.008 5.246-1.616 5.246-4.069 0-2.478-2.163-4.135-5.246-4.135-3.116 0-5.3 1.657-5.3 4.135-.004 2.451 2.189 4.075 5.3 4.069zm-2.387-4.069c0-1.193.953-1.848 2.387-1.856 1.425.008 2.4.663 2.412 1.856-.008 1.169-.986 1.8-2.412 1.8s-2.387-.631-2.387-1.802zm-.862 5.213v6.246h14.6v-2.412h-11.616v-3.837zm40.028-6.574V3.815h-2.99v21.348h2.992v-10.7h3.149V11.97zm-8.95-3.646h4.293V5.878h-11.818v2.445h4.517v1.31c-.017 3.53-1.807 7.5-5.362 9.157l1.74 2.362a10.573 10.573 0 0 0 5.171-6.373A10.017 10.017 0 0 0 241.4 20.6l1.666-2.345a9.492 9.492 0 0 1-5.221-8.627zm27.622 8.735h3.017v-2.413h-12.53v-2.37h12.033V5.207h-15.05v2.4h12.091V9.9h-12.059v7.16h2.751v3.273h-5v2.445h19.508v-2.447h-4.765zm-2.942 0v3.273h-3.9v-3.274zm10.434-.87A16.61 16.61 0 0 0 276.3 26.68h3.307c-1.715-2.188-3.041-6.572-3.041-10.492s1.326-8.312 3.041-10.5H276.3a16.618 16.618 0 0 0-3.347 10.5zm23.586-4.243c-.481-3.9-3.431-6.149-7.343-6.149-4.483 0-7.889 3.182-7.889 8.718s3.348 8.718 7.889 8.718c4.309 0 6.945-2.859 7.343-5.992l-3.564-.017a3.521 3.521 0 0 1-3.721 2.884c-2.6 0-4.376-1.931-4.376-5.594 0-3.572 1.749-5.594 4.392-5.594a3.5 3.5 0 0 1 3.7 3.025zm15.05-1.061c-.05-3.008-2.528-5.088-6.29-5.088-3.7 0-6.431 2.047-6.414 5.122-.008 2.5 1.757 3.928 4.616 4.624l1.856.456c1.848.456 2.892.994 2.9 2.146-.008 1.276-1.2 2.13-3.05 2.13-1.873 0-3.232-.854-3.348-2.561h-3.423c.1 3.63 2.718 5.528 6.812 5.528 4.135 0 6.555-1.981 6.572-5.08-.017-2.834-2.18-4.318-5.08-4.972l-1.533-.373c-1.467-.34-2.735-.887-2.71-2.13 0-1.119.994-1.939 2.776-1.939 1.724 0 2.793.787 2.925 2.138zM327.459 23l-3.613-6.6a4.885 4.885 0 0 0 3-4.84c0-3.348-2.213-5.528-6.075-5.528h-6.646V23h3.522v-6.033h2.685L323.555 23zm-7.343-14.08c2.1 0 3.108.936 3.108 2.635s-1.011 2.561-3.1 2.561h-2.478V8.92zm14.967 7.268a16.612 16.612 0 0 0-3.34-10.5h-3.315c1.724 2.188 3.05 6.572 3.05 10.5s-1.326 8.3-3.05 10.492h3.315a16.6 16.6 0 0 0 3.34-10.492zM360.309 9V3.815h-3v12.878h3v-5.2h2.867V9zm-10.533 2.751a8.105 8.105 0 0 0 4.923 4.185l1.517-2.3c-3.448-1.119-4.956-3.671-4.964-6.174h4.26V5.075h-11.636v2.386h4.359A6.963 6.963 0 0 1 343.064 14l1.583 2.3a8.354 8.354 0 0 0 5.129-4.546zm7.533 8.238v5.171h3V17.6h-14.361v2.387zm24.8-3.663V3.815h-2.979v3.92h-4v2.445h4v6.149zm-11.362-4.89a7.834 7.834 0 0 0 4.74 4.177l1.591-2.337a6.513 6.513 0 0 1-4.889-6.555V4.934h-3.017v1.931a7.126 7.126 0 0 1-5.246 7.019l1.591 2.387a8.473 8.473 0 0 0 5.234-4.832zm4.069 5.436c-4.541 0-7.334 1.533-7.326 4.152-.008 2.635 2.785 4.135 7.326 4.127 4.558.008 7.343-1.492 7.351-4.127-.004-2.615-2.789-4.148-7.347-4.148zm0 5.95c-2.826.008-4.359-.613-4.351-1.8-.008-1.218 1.525-1.831 4.351-1.831s4.376.613 4.384 1.831c0 1.191-1.545 1.812-4.38 1.804z" transform="translate(30 36)"/>
        </g>
        <g id="fc_box_medium-5" data-name="fc_box_medium" transform="translate(407 2484)">
            <g transform="translate(-114 -1540)" style="filter:url(#box-10)">
                <g id="box-20" data-name="box" class="cls-2">
                    <path class="cls-11" d="M0 0h538v130H0z" transform="translate(114 1540)"/>
                    <path class="cls-12" d="M1 1h536v128H1z" transform="translate(114 1540)"/>
                </g>
            </g>
            <path id="패스_11338" data-name="패스 11338" class="cls-3" d="M167.319 6.028V16.8h-.149l-7.4-10.773h-3.1V23h3.522V12.218h.124L167.775 23h3.05V6.028zm6.373 0V23h3.522V6.028zM191.5 23v-2.917h-7.9v-4.119h7.276v-2.909H183.6v-4.11h7.865V6.028h-11.384V23zm16.044 0-3.613-6.6a4.885 4.885 0 0 0 3-4.84c0-3.348-2.213-5.528-6.075-5.528h-6.646V23h3.522v-6.033h2.685L203.642 23zM200.2 8.92c2.1 0 3.108.936 3.108 2.635s-1.011 2.561-3.1 2.561h-2.478V8.92zm30.953-5.072h-2.992v16.276h2.992v-7.077h2.735v-2.486h-2.735zm-4.185 10.434c-1.558.224-3.232.373-4.906.481V13.2c2.287-.489 3.82-2.08 3.837-4.16-.017-2.577-2.262-4.334-5.378-4.334-3.133 0-5.378 1.757-5.362 4.334-.017 2.1 1.558 3.713 3.9 4.177V14.9a156.4 156.4 0 0 1-5.022.066l.315 2.37a75.544 75.544 0 0 0 12.837-.878zm-9.033-5.246c-.017-1.334 1.069-2.072 2.586-2.08 1.525.008 2.561.746 2.569 2.08-.008 1.293-1.036 2.055-2.569 2.055-1.514 0-2.6-.762-2.583-2.055zm-1.077 9.655v6.075h15.033v-2.4h-12.014v-3.675zm29.5-6.912h3.489v7.641h2.983V3.848h-2.983v5.519h-3.489zm-4.939.58a8.109 8.109 0 0 0 4.914 4.251l1.475-2.37a6.573 6.573 0 0 1-4.906-6.224v-.34h4.251v-2.4H235.59v2.4h4.276V8a6.884 6.884 0 0 1-5.13 6.622l1.533 2.42a8.412 8.412 0 0 0 5.155-4.683zm.24 5.7h-2.983v6.731h14.66v-2.412h-11.672zm31.923-1.732V3.815H270.6v3.92h-4v2.445h4v6.149zm-11.362-4.89a7.834 7.834 0 0 0 4.74 4.177l1.591-2.337a6.513 6.513 0 0 1-4.889-6.555V4.934h-3.017v1.931a7.126 7.126 0 0 1-5.246 7.019L257 16.271a8.473 8.473 0 0 0 5.225-4.832zm4.069 5.436c-4.541 0-7.334 1.533-7.326 4.152-.008 2.635 2.785 4.135 7.326 4.127 4.558.008 7.343-1.492 7.351-4.127-.003-2.616-2.788-4.149-7.346-4.149zm0 5.95c-2.826.008-4.359-.613-4.351-1.8-.008-1.218 1.525-1.831 4.351-1.831s4.376.613 4.384 1.831c-.003 1.19-1.545 1.811-4.379 1.803zm30.6-13.914h-3.8v2.445h3.8v4.417h2.983V3.848h-2.983zm-3.936-3.837h-9.8v2.381h6.588c-.481 2.876-3.124 5.229-7.749 6.472l1.185 2.329c6.255-1.74 9.777-5.602 9.777-11.179zm6.92 19.823v-8.268h-14.145V24.9zm-2.967-5.925v3.58h-8.246v-3.58zm16.981-2.2h6.149V14.4h-12.05v-2.223h11.378V9.831h-11.376V7.7h11.884V5.3h-14.918v11.476h5.925v3.6h-8.229v2.4h19.508v-2.4h-8.271z" transform="translate(30 50)"/>
        </g>
    </g>
    <g id="fc_line" transform="translate(-293 -944)">
        <path id="세로" class="cls-9" transform="translate(961 1484)" d="M0 0h1v50H0z"/>
        <path id="사각형_514" data-name="사각형 514" class="cls-9" transform="translate(676 1534)" d="M0 0h571v1H0z"/>
        <path id="세로-2" data-name="세로" class="cls-9" transform="translate(1246 1535)" d="M0 0h1v50H0z"/>
        <path id="세로-3" data-name="세로" class="cls-9" d="M0 0h1v230H0z" transform="translate(675 1534)"/>
        <path id="세로-4" data-name="세로" class="cls-9" transform="translate(961 1174)" d="M0 0h1v50H0z"/>
        <path id="세로-5" data-name="세로" class="cls-9" transform="translate(1246 1894)" d="M0 0h1v50H0z"/>
        <path id="세로-6" data-name="세로" class="cls-9" transform="translate(1246 1714)" d="M0 0h1v49H0z"/>
        <path id="세로-7" data-name="세로" class="cls-9" transform="translate(675 2433)" d="M0 0h1v50H0z"/>
        <path id="패스_7154" data-name="패스 7154" d="M1584.279 2910.74h-57v-180h57" transform="translate(-1177.279 -359.74)" style="fill:none;stroke:#999"/>
        <path id="세로-8" data-name="세로" class="cls-9" transform="translate(1246 2073)" d="M0 0h1v50H0z"/>
        <path id="세로-9" data-name="세로" class="cls-9" transform="translate(1246 2253)" d="M0 0h1v50H0z"/>
        <path id="세로-10" data-name="세로" class="cls-9" transform="translate(675 2613)" d="M0 0h1v50H0z"/>
        <path id="세로-11" data-name="세로" class="cls-9" transform="translate(675 2073)" d="M0 0h1v50H0z"/>
        <path id="세로-12" data-name="세로" class="cls-9" transform="translate(675 2253)" d="M0 0h1v50H0z"/>
        <path id="세로-13" data-name="세로" class="cls-9" transform="translate(675 1893)" d="M0 0h1v50H0z"/>
        <path id="세로-14" data-name="세로" class="cls-9" transform="translate(1246 2433)" d="M0 0h1v230H0z"/>
        <path id="세로-15" data-name="세로" class="cls-9" transform="translate(961 2794)" d="M0 0h1v50H0z"/>
    </g>
    <g id="fc_yes" transform="translate(288 180)">
        <g id="fc_yes-2" data-name="fc_yes" transform="translate(475.597 399.21)">
            <path id="사각형_515" data-name="사각형 515" class="cls-1" d="M0 0h97.337v24.149H0z"/>
            <path id="패스_11326" data-name="패스 11326" class="cls-3" d="m-35.6-11.315-2.8 1.779v2.088l2.6-1.63h.066V0h2.354v-11.315zM-26.37.243c2.829 0 4.541-2.16 4.541-5.889.006-3.7-1.718-5.823-4.541-5.823s-4.536 2.116-4.541 5.823S-29.2.238-26.37.243zm0-1.956c-1.309 0-2.155-1.315-2.149-3.934.006-2.586.845-3.89 2.149-3.89s2.144 1.3 2.149 3.89c0 2.619-.84 3.934-2.149 3.934zM-15.807.243c2.829 0 4.541-2.16 4.541-5.889.006-3.7-1.718-5.823-4.541-5.823s-4.536 2.116-4.541 5.823S-18.641.238-15.807.243zm0-1.956c-1.309 0-2.155-1.315-2.149-3.934.006-2.586.845-3.89 2.149-3.89s2.144 1.3 2.149 3.89c.001 2.619-.842 3.934-2.149 3.934zM-1.6 0l-3.334-4.812 3.166-3.674h-2.657l-2.757 3.243h-.127v-6.072h-2.315V0h2.315v-2.713l.646-.735L-4.315 0zm4.362 3.359c2.414 0 4.122-1.1 4.122-3.271v-8.574H4.6v1.425h-.1A2.513 2.513 0 0 0 2.077-8.6C.2-8.6-1.37-7.166-1.37-4.293-1.37-1.47.166-.122 2.083-.122a2.479 2.479 0 0 0 2.425-1.386h.1V.055c0 1.177-.718 1.63-1.8 1.63-.917 0-1.558-.3-1.685-.989h-2.278c.138 1.613 1.58 2.663 3.917 2.663zm.044-5.221C1.63-1.862.994-2.8.994-4.271c0-1.459.624-2.475 1.812-2.475 1.155 0 1.807.972 1.807 2.475S3.95-1.862 2.807-1.862zM21.79-12.79V1.475h2.017V-12.79zm-5.707 1.006c-2.177 0-3.768 1.967-3.762 5.061-.006 3.127 1.586 5.083 3.762 5.083 2.149 0 3.74-1.956 3.746-5.083-.006-3.095-1.597-5.062-3.746-5.062zm0 1.8c1.083 0 1.818 1.155 1.818 3.26 0 2.127-.735 3.276-1.818 3.276-1.1 0-1.845-1.149-1.834-3.276-.011-2.105.729-3.259 1.834-3.259zm20.939-2.806h-2v8.442h2v-3.459h1.912v-1.652h-1.912zm-7.083 5.155a5.259 5.259 0 0 0 3.177 2.713l1.055-1.552a4.2 4.2 0 0 1-3.254-4.072v-1.481h-1.994v1.287a4.741 4.741 0 0 1-3.4 4.652L26.6-4.525a5.465 5.465 0 0 0 3.339-3.11zm2.414 3.58c-2.994-.006-4.873 1.017-4.867 2.735-.006 1.751 1.873 2.762 4.867 2.757 2.95.006 4.8-1.006 4.8-2.757.002-1.719-1.853-2.741-4.799-2.735zm0 3.934c-1.862-.006-2.878-.387-2.873-1.2-.005-.767 1.012-1.179 2.874-1.179s2.834.414 2.834 1.182c0 .81-.988 1.191-2.834 1.196z" transform="translate(48.403 16.79)"/>
        </g>
    </g>
    <g id="fc_yes-3" data-name="fc_yes" transform="translate(1 180)">
        <g id="fc_yes-4" data-name="fc_yes" transform="translate(475.597 399.21)">
            <path id="사각형_515-2" data-name="사각형 515" class="cls-1" d="M0 0h97.337v24.149H0z"/>
            <path id="패스_11327" data-name="패스 11327" class="cls-3" d="m-35.6-11.315-2.8 1.779v2.088l2.6-1.63h.066V0h2.354v-11.315zM-26.37.243c2.829 0 4.541-2.16 4.541-5.889.006-3.7-1.718-5.823-4.541-5.823s-4.536 2.116-4.541 5.823S-29.2.238-26.37.243zm0-1.956c-1.309 0-2.155-1.315-2.149-3.934.006-2.586.845-3.89 2.149-3.89s2.144 1.3 2.149 3.89c0 2.619-.84 3.934-2.149 3.934zM-15.807.243c2.829 0 4.541-2.16 4.541-5.889.006-3.7-1.718-5.823-4.541-5.823s-4.536 2.116-4.541 5.823S-18.641.238-15.807.243zm0-1.956c-1.309 0-2.155-1.315-2.149-3.934.006-2.586.845-3.89 2.149-3.89s2.144 1.3 2.149 3.89c.001 2.619-.842 3.934-2.149 3.934zM-1.6 0l-3.334-4.812 3.166-3.674h-2.657l-2.757 3.243h-.127v-6.072h-2.315V0h2.315v-2.713l.646-.735L-4.315 0zm4.362 3.359c2.414 0 4.122-1.1 4.122-3.271v-8.574H4.6v1.425h-.1A2.513 2.513 0 0 0 2.077-8.6C.2-8.6-1.37-7.166-1.37-4.293-1.37-1.47.166-.122 2.083-.122a2.479 2.479 0 0 0 2.425-1.386h.1V.055c0 1.177-.718 1.63-1.8 1.63-.917 0-1.558-.3-1.685-.989h-2.278c.138 1.613 1.58 2.663 3.917 2.663zm.044-5.221C1.63-1.862.994-2.8.994-4.271c0-1.459.624-2.475 1.812-2.475 1.155 0 1.807.972 1.807 2.475S3.95-1.862 2.807-1.862zM21.79-12.79V1.475h2.017V-12.79zm-9.177 1.3v9.54h6.867v-9.541zm4.934 1.552v6.408H14.6v-6.409zm19.475-2.84h-2V-2.4h2v-4.639h1.912v-1.646h-1.912zM26.16-11.6v6.829h6.829V-11.6zm1.972 5.26v-3.674h2.89v3.674zM27.8-3.431v4.624h9.73V-.414h-7.745v-3.017z" transform="translate(48.403 16.79)"/>
        </g>
    </g>
    <g id="fc_yes-5" data-name="fc_yes" transform="translate(-466 1094)">
        <g id="fc_yes-6" data-name="fc_yes" transform="translate(497.389 400.685)">
            <path id="사각형_515-3" data-name="사각형 515" class="cls-1" d="M0 0h53.917v44.492H0z"/>
            <path id="패스_11342" data-name="패스 11342" class="cls-3" d="M-9.511-11.315v7.182h-.1l-4.934-7.182h-2.065V0h2.348v-7.188h.083L-9.207 0h2.033v-11.315zm4.249 0V0h2.348v-11.315zM6.61 0v-1.945H1.345v-2.746H6.2V-6.63H1.345v-2.74h5.243v-1.945H-1V0zm10.7 0L14.9-4.4a3.257 3.257 0 0 0 2-3.227c0-2.232-1.475-3.685-4.05-3.685H8.417V0h2.348v-4.022h1.79L14.7 0zm-4.9-9.387c1.4 0 2.072.624 2.072 1.757s-.674 1.707-2.066 1.707h-1.651v-3.464zM-5.95 19.53h4.1v-7.408h-1.984v2.215h-6.2v-2.215h-2v7.408h4.11v2.635h-5.486v1.619H-.4v-1.618h-5.55zm2.116-3.613v2.022h-6.2v-2.022zm15.624-4.685H9.8v10.851h1.99v-4.718h1.823v-1.658H11.79zM9 18.188a42.303 42.303 0 0 1-3.271.32v-1.044a2.929 2.929 0 0 0 2.558-2.773C8.276 12.972 6.779 11.8 4.7 11.8s-3.586 1.171-3.575 2.89a2.9 2.9 0 0 0 2.6 2.785V18.6c-1.21.039-2.359.044-3.348.044l.21 1.58a50.362 50.362 0 0 0 8.558-.586zm-6.022-3.5c-.011-.89.713-1.381 1.724-1.387s1.707.5 1.713 1.387c-.006.862-.691 1.37-1.713 1.37s-1.735-.506-1.724-1.367zm-.718 6.439v4.05h10.022v-1.6H4.271v-2.45z" transform="translate(26.61 15.315)"/>
        </g>
    </g>
    <path id="다각형_163" data-name="다각형 163" class="cls-9" d="M7.5 0 15 11H0z" transform="rotate(180 480.5 323)"/>
    <path id="다각형_164" data-name="다각형 164" class="cls-9" d="M7.5 0 15 11H0z" transform="rotate(180 480.5 413)"/>
    <path id="다각형_167" data-name="다각형 167" class="cls-9" d="M7.5 0 15 11H0z" transform="rotate(180 480.5 503)"/>
    <path id="다각형_169" data-name="다각형 169" class="cls-9" d="M7.5 0 15 11H0z" transform="rotate(180 480.5 593)"/>
    <path id="다각형_171" data-name="다각형 171" class="cls-9" d="M7.5 0 15 11H0z" transform="rotate(180 480.5 683)"/>
    <path id="다각형_165" data-name="다각형 165" class="cls-9" d="M7.5 0 15 11H0z" transform="rotate(180 195 413)"/>
    <path id="다각형_166" data-name="다각형 166" class="cls-9" d="M7.5 0 15 11H0z" transform="rotate(180 195 503)"/>
    <path id="다각형_168" data-name="다각형 168" class="cls-9" d="M7.5 0 15 11H0z" transform="rotate(180 195 593)"/>
    <path id="다각형_170" data-name="다각형 170" class="cls-9" d="M7.5 0 15 11H0z" transform="rotate(180 195 683)"/>
    <path id="다각형_172" data-name="다각형 172" class="cls-9" d="M7.5 0 15 11H0z" transform="rotate(180 195 773)"/>
    <path id="다각형_174" data-name="다각형 174" class="cls-9" d="M7.5 0 15 11H0z" transform="rotate(180 195 863)"/>
    <path id="다각형_175" data-name="다각형 175" class="cls-9" d="M7.5 0 15 11H0z" transform="rotate(180 480.5 863)"/>
    <path id="다각형_176" data-name="다각형 176" class="cls-9" d="M7.5 0 15 11H0z" transform="rotate(180 338 953)"/>
    <path id="다각형_173" data-name="다각형 173" class="cls-9" d="M7.5 0 15 11H0z" transform="rotate(90 -650 770)"/>
    <path id="다각형_177" data-name="다각형 177" class="cls-9" d="M7.5 0 15 11H0z" transform="rotate(180 338 143.5)"/>
</svg>
