<svg id="flow_chart_2_7_1" xmlns="http://www.w3.org/2000/svg" width="1336" height="1230" viewBox="0 0 1336 1230">
    <defs>
        <filter id="box" x="105" y="814" width="1126" height="148" filterUnits="userSpaceOnUse">
            <feOffset dy="3"/>
            <feGaussianBlur stdDeviation="3" result="blur"/>
            <feFlood flood-color="#111" flood-opacity=".102"/>
            <feComposite operator="in" in2="blur"/>
            <feComposite in="SourceGraphic"/>
        </filter>
        <filter id="area" x="105" y="94" width="1126" height="148" filterUnits="userSpaceOnUse">
            <feOffset dy="3"/>
            <feGaussianBlur stdDeviation="3" result="blur-2"/>
            <feFlood flood-color="#111" flood-opacity=".102"/>
            <feComposite operator="in" in2="blur-2"/>
            <feComposite in="SourceGraphic"/>
        </filter>
        <filter id="box-2" x="675" y="634" width="556" height="148" filterUnits="userSpaceOnUse">
            <feOffset dy="3"/>
            <feGaussianBlur stdDeviation="3" result="blur-3"/>
            <feFlood flood-color="#111" flood-opacity=".102"/>
            <feComposite operator="in" in2="blur-3"/>
            <feComposite in="SourceGraphic"/>
        </filter>
        <filter id="box-3" x="105" y="274" width="1126" height="148" filterUnits="userSpaceOnUse">
            <feOffset dy="3"/>
            <feGaussianBlur stdDeviation="3" result="blur-4"/>
            <feFlood flood-color="#111" flood-opacity=".102"/>
            <feComposite operator="in" in2="blur-4"/>
            <feComposite in="SourceGraphic"/>
        </filter>
        <filter id="box-4" x="105" y="454" width="1126" height="148" filterUnits="userSpaceOnUse">
            <feOffset dy="3"/>
            <feGaussianBlur stdDeviation="3" result="blur-5"/>
            <feFlood flood-color="#111" flood-opacity=".102"/>
            <feComposite operator="in" in2="blur-5"/>
            <feComposite in="SourceGraphic"/>
        </filter>
        <filter id="area-2" x="105" y="994" width="1126" height="148" filterUnits="userSpaceOnUse">
            <feOffset dy="3"/>
            <feGaussianBlur stdDeviation="3" result="blur-6"/>
            <feFlood flood-color="#111" flood-opacity=".102"/>
            <feComposite operator="in" in2="blur-6"/>
            <feComposite in="SourceGraphic"/>
        </filter>
        <style>
            .cls-1{fill:#f8f8f8}.cls-2,.cls-5{fill:#fff}.cls-2{stroke:#999;stroke-width:2px}.cls-3{fill:#333}.cls-4{fill:red;opacity:0}.cls-5,.cls-6{stroke:#326f5e;stroke-width:1.5px}.cls-11,.cls-6{fill:none}.cls-7{fill:#326f5e}.cls-9{fill:#999}.cls-10{stroke:none}
        </style>
    </defs>
    <path id="bg" class="cls-1" d="M0 0h1336v1230H0z"/>
    <g id="fc_boxes" transform="translate(-293 -944)">
        <g id="fc_box_big_no_btn" transform="translate(407 1764)">
            <g transform="translate(-114 -820)" style="filter:url(#box)">
                <g id="box-5" data-name="box" class="cls-2">
                    <path class="cls-10" d="M0 0h1108v130H0z" transform="translate(114 820)"/>
                    <path class="cls-11" d="M1 1h1106v128H1z" transform="translate(114 820)"/>
                </g>
            </g>
            <path id="패스_11059" data-name="패스 11059" class="cls-3" d="M248.017 14.149v5.213H251V3.848h-2.983V7.18h-3.97V5.555h-10.135v10.393h10.135v-1.8zm-11.138-.53V7.925h4.235v5.693zm11.138-1.84h-3.97V9.591h3.97zm-8.2 6.124H236.8v6.887h14.66v-2.412h-11.64zm29.561 7.26h2.826V3.815h-2.826zm-7.144-14.022v2.4h2.809v10.628h2.8v-20h-2.8v6.97zM260.522 8.4h3.232V6h-9.613v2.4h3.5v1.133c0 3.63-1.169 7.459-4.309 9.4l1.807 2.2a9.93 9.93 0 0 0 3.978-5.809 9.022 9.022 0 0 0 3.878 5.32l1.749-2.2c-3.116-1.782-4.227-5.362-4.218-8.917zm36.365 3.646V3.815H293.9v21.348h2.992V14.572h3.149v-2.528zm-8.975-6.58h-2.992v3.189c-.008 3.961-1.715 8.039-5.32 9.7l1.831 2.428a10.307 10.307 0 0 0 5-6.215 9.73 9.73 0 0 0 4.715 5.8l1.807-2.378c-3.423-1.657-5.055-5.511-5.039-9.331zm22.575 8.586c4.583.008 7.782-1.815 7.782-4.691 0-2.942-3.2-4.823-7.782-4.823s-7.749 1.881-7.74 4.823c-.009 2.874 3.165 4.697 7.739 4.689zm0-7.127c2.884.008 4.691.862 4.691 2.436 0 1.5-1.807 2.329-4.691 2.337-2.859-.008-4.674-.837-4.657-2.337-.018-1.576 1.797-2.43 4.656-2.438zm-9.7 8.776v2.4h4.467v7.061h3.066V18.1h4.38v7.061h3.033V18.1h4.567v-2.4zm35.813-5.165h-4.177v2.412h4.177v12.265h2.959V3.815H336.6zm-6.961-5.072H326.6v3.191c-.017 4.011-1.691 8.13-5.337 9.787l1.873 2.428a10.282 10.282 0 0 0 5-6.29 9.661 9.661 0 0 0 4.856 5.9l1.807-2.378c-3.547-1.533-5.163-5.436-5.155-9.448zm33.207 3.489h-3.307V11.4h3.307v5.138h2.983V3.815h-2.983zm-8.429 2.747a7.975 7.975 0 0 0 4.914 4.21l1.475-2.3A6.6 6.6 0 0 1 355.9 7.4h4.251V5.017h-11.568V7.4h4.276a6.944 6.944 0 0 1-5.13 6.588l1.533 2.362a8.275 8.275 0 0 0 5.155-4.65zm8.428 8.171v5.3h2.983v-7.699h-14.66v2.4zm22.525-7.359a35.615 35.615 0 0 0 .439-6.24V4.751h-14.817v2.387h11.826a33.474 33.474 0 0 1-.456 5.37H368.6V14.9h19.508v-2.392zm-2.5 7.243v5.42h3V17.4h-15.218v2.354zm19.953-14.589V3.649h-2.983v1.517h-4.624v2.005h12.2V5.166zm9.116-1.351h-2.992v12.563h2.992v-5.022h2.735V8.862h-2.735zm-3.986 9.7a63.113 63.113 0 0 1-5.13.439V13.1c2.287-.282 3.7-1.251 3.7-2.768-.008-1.724-2.055-2.743-5.221-2.743-3.182 0-5.238 1.019-5.229 2.743-.008 1.533 1.434 2.5 3.762 2.776v.945c-1.856.041-3.63.041-5.188.041l.307 2.055a81.893 81.893 0 0 0 13.21-.787zm-9.017-3.174c-.008-.6.854-.887 2.37-.887 1.5 0 2.354.282 2.362.887-.008.646-.862.978-2.362.978-1.516-.004-2.378-.336-2.37-.982zm13 11.586v-4.778h-14.442v1.981h11.461v.978h-11.436v4.906h15.133v-2h-12.141v-1.091zM430.611 11.4c1.591-.688 2.494-1.757 2.5-3.149-.008-2.569-3.033-4.11-7.757-4.119-4.74.008-7.773 1.55-7.765 4.119-.008 1.367.878 2.436 2.428 3.124v2.569h-4.376v2.387H435.1v-2.389h-4.492zm-5.254-4.964c2.983 0 4.674.622 4.674 1.815s-1.691 1.773-4.674 1.773c-3.008 0-4.674-.588-4.657-1.773-.018-1.196 1.648-1.817 4.656-1.817zm-2.312 5.71a18.3 18.3 0 0 0 2.312.133 17.858 17.858 0 0 0 2.279-.133v1.8h-4.591zm2.287 5.3c-4.666-.008-7.467 1.367-7.467 3.837 0 2.5 2.8 3.862 7.467 3.854 4.616.008 7.417-1.351 7.434-3.854-.017-2.476-2.818-3.852-7.434-3.844zm0 5.461c-2.95.008-4.434-.547-4.417-1.624-.017-1.069 1.467-1.566 4.417-1.583 2.9.017 4.425.514 4.434 1.583-.009 1.071-1.534 1.626-4.434 1.617zm12.547-6.713a16.61 16.61 0 0 0 3.348 10.492h3.307c-1.715-2.188-3.041-6.572-3.041-10.492s1.326-8.312 3.041-10.5h-3.307a16.618 16.618 0 0 0-3.349 10.494zM459.889 23l-3.613-6.6a4.885 4.885 0 0 0 3-4.84c0-3.348-2.213-5.528-6.075-5.528h-6.646V23h3.522v-6.033h2.685L455.986 23zm-7.342-14.08c2.1 0 3.108.936 3.108 2.635s-1.011 2.561-3.1 2.561h-2.478V8.92zm20.486 7.641c0-4.343-2.635-6.456-5.975-6.456-3.729 0-6.157 2.66-6.157 6.588 0 4.036 2.4 6.555 6.3 6.555 3.141 0 5.246-1.525 5.743-3.87h-3.3a2.468 2.468 0 0 1-2.387 1.268 2.813 2.813 0 0 1-2.925-3.116h8.7zm-8.7-1.2a2.753 2.753 0 0 1 2.793-2.66 2.558 2.558 0 0 1 2.635 2.66zm16.233-5.261c-3.381 0-5.3 1.74-5.5 3.953h3.29a1.925 1.925 0 0 1 2.13-1.409c1.285 0 2.014.613 2.022 1.691v1.028c-.53.017-2.254.091-3.157.149-2.445.157-4.732 1.077-4.732 3.928 0 2.511 1.807 3.8 4.235 3.8a3.906 3.906 0 0 0 3.721-2.006h.1V23h3.29v-8.577c-.004-3.067-2.622-4.323-5.399-4.323zm-.729 10.724c-1.111 0-1.9-.506-1.9-1.492s.762-1.55 1.972-1.649c.6-.058 2.1-.141 2.611-.166v.928a2.463 2.463 0 0 1-2.683 2.384zm13.463 2.383a3.785 3.785 0 0 0 3.622-2.238h.149V23h3.414V6.028h-3.464v6.381h-.1a3.757 3.757 0 0 0-3.63-2.3c-2.809 0-5.171 2.188-5.171 6.547-.004 4.244 2.258 6.551 5.18 6.551zm1.086-2.768c-1.765 0-2.718-1.558-2.718-3.8 0-2.229.936-3.754 2.718-3.754 1.732 0 2.71 1.459 2.71 3.754s-.996 3.8-2.715 3.8zm9.058-5.793V17.4h7.732v-2.754zm15.948-4.546c-3.381 0-5.3 1.74-5.5 3.953h3.29a1.925 1.925 0 0 1 2.13-1.409c1.285 0 2.014.613 2.022 1.691v1.028c-.53.017-2.254.091-3.157.149-2.445.157-4.732 1.077-4.732 3.928 0 2.511 1.807 3.8 4.235 3.8a3.906 3.906 0 0 0 3.721-2.006h.1V23h3.29v-8.577c-.004-3.067-2.622-4.323-5.399-4.323zm-.729 10.724c-1.111 0-1.9-.506-1.9-1.492s.762-1.55 1.972-1.649c.6-.058 2.1-.141 2.61-.166v.928a2.463 2.463 0 0 1-2.682 2.384zm14.494 2.42c3.365 0 5.486-1.981 5.652-4.873h-3.273a2.284 2.284 0 0 1-2.345 2.113c-1.674 0-2.76-1.4-2.76-3.854 0-2.428 1.094-3.82 2.76-3.82a2.3 2.3 0 0 1 2.345 2.13h3.273c-.157-2.925-2.378-4.84-5.669-4.84-3.845 0-6.24 2.677-6.24 6.58 0 3.875 2.346 6.569 6.257 6.569zM544.42 23v-7.235a2.592 2.592 0 0 1 2.718-2.66 6.212 6.212 0 0 1 1.483.191V10.2a6.641 6.641 0 0 0-1.11-.108 3.1 3.1 0 0 0-3.066 2.4h-.133v-2.221h-3.365V23zm11.229.249c3.845 0 6.24-2.644 6.24-6.564 0-3.945-2.4-6.58-6.24-6.58s-6.257 2.635-6.257 6.58c0 3.915 2.408 6.564 6.257 6.564zm.017-2.693c-1.815 0-2.743-1.657-2.743-3.9s.928-3.9 2.743-3.9c1.773 0 2.7 1.674 2.7 3.9s-.927 3.899-2.7 3.899zm18.936-6.5c-.182-2.428-2.171-3.953-5.4-3.953-3.273 0-5.37 1.525-5.362 3.97-.008 1.881 1.235 3.133 3.671 3.613l2.1.414c1.193.249 1.724.655 1.732 1.318-.008.82-.845 1.318-2.1 1.318-1.285 0-2.088-.514-2.262-1.508H563.5c.282 2.486 2.3 4.019 5.743 4.019 3.381 0 5.627-1.674 5.635-4.177-.008-1.84-1.2-2.942-3.663-3.448l-2.3-.464c-1.193-.257-1.641-.7-1.633-1.285-.008-.762.845-1.293 1.972-1.293a1.887 1.887 0 0 1 2.088 1.475zm12.936 0c-.182-2.428-2.171-3.953-5.4-3.953-3.273 0-5.37 1.525-5.362 3.97-.008 1.881 1.235 3.133 3.671 3.613l2.1.414c1.193.249 1.724.655 1.732 1.318-.008.82-.845 1.318-2.1 1.318-1.285 0-2.088-.514-2.262-1.508h-3.481c.282 2.486 2.3 4.019 5.743 4.019 3.381 0 5.627-1.674 5.635-4.177-.008-1.84-1.2-2.942-3.663-3.448l-2.3-.464c-1.193-.257-1.641-.7-1.633-1.285-.008-.762.845-1.293 1.972-1.293a1.887 1.887 0 0 1 2.088 1.475zM598.959 23v-7.235a2.592 2.592 0 0 1 2.718-2.66 6.212 6.212 0 0 1 1.483.191V10.2a6.641 6.641 0 0 0-1.11-.108 3.1 3.1 0 0 0-3.066 2.4h-.133v-2.221h-3.365V23zm17.1-6.439c0-4.343-2.635-6.456-5.975-6.456-3.729 0-6.157 2.66-6.157 6.588 0 4.036 2.4 6.555 6.3 6.555 3.141 0 5.246-1.525 5.743-3.87h-3.3a2.468 2.468 0 0 1-2.387 1.268 2.813 2.813 0 0 1-2.925-3.116h8.7zm-8.7-1.2a2.753 2.753 0 0 1 2.793-2.66 2.558 2.558 0 0 1 2.635 2.66zm14.354 12.414v-6.8h.108a3.777 3.777 0 0 0 3.622 2.238c2.909 0 5.171-2.3 5.171-6.555 0-4.359-2.354-6.547-5.171-6.547a3.753 3.753 0 0 0-3.622 2.3h-.157v-2.14h-3.423v17.5zm-.075-11.138c0-2.3.97-3.754 2.718-3.754 1.773 0 2.71 1.525 2.71 3.754 0 2.246-.953 3.8-2.71 3.8-1.729.002-2.715-1.514-2.715-3.802zm16.931 6.613c3.845 0 6.24-2.644 6.24-6.564 0-3.945-2.4-6.58-6.24-6.58s-6.257 2.635-6.257 6.58c.003 3.914 2.406 6.563 6.26 6.563zm.017-2.693c-1.815 0-2.743-1.657-2.743-3.9s.928-3.9 2.743-3.9c1.773 0 2.7 1.674 2.7 3.9s-.924 3.898-2.698 3.898zM650.472 23v-7.235a2.592 2.592 0 0 1 2.718-2.66 6.212 6.212 0 0 1 1.483.191V10.2a6.641 6.641 0 0 0-1.11-.108 3.1 3.1 0 0 0-3.066 2.4h-.133v-2.221H647V23zm12.058-2.627c-.713-.025-1.21-.265-1.21-1.276v-6.216h2.4v-2.61h-2.4v-3.05h-3.472v3.05H656.1v2.61h1.749v6.688c-.017 2.478 1.691 3.6 4.21 3.6a11.971 11.971 0 0 0 1.831-.124v-2.73c-.415.025-1.02.066-1.36.058zm3.787.887-1.16 6.671h2.478l2.022-6.671zm22.028-9.481h3.489v7.641h2.983V3.848h-2.983v5.519h-3.489zm-4.939.58a8.109 8.109 0 0 0 4.914 4.251l1.475-2.37a6.573 6.573 0 0 1-4.906-6.224v-.34h4.251v-2.4h-11.568v2.4h4.276V8a6.884 6.884 0 0 1-5.13 6.622l1.533 2.42a8.412 8.412 0 0 0 5.155-4.683zm.24 5.7h-2.983v6.731h14.66v-2.412h-11.677zM700 4.751v7.873h14.586V4.751zm2.925 5.544V7.08h8.718v3.22zm-5.354 6.456h8.529v3.68h2.959v-3.68h8.022v-2.386h-19.512zm2.287 1.823v6.216h15.075v-2.412H702.84v-3.8zm35.312-6.58V3.815h-2.992v21.3h2.992V14.464h3.017v-2.47zM719.315 6v2.448h7.11c-.564 4.757-3.273 8.155-8.312 10.691l1.682 2.287c7.169-3.522 9.663-9.041 9.68-15.423zm40.26-2.188v21.4h2.975V3.815zm-8.047 1.434c-3.356 0-5.925 2.18-5.917 5.238-.008 3.066 2.561 5.238 5.917 5.238 3.4 0 5.909-2.171 5.925-5.238-.017-3.056-2.528-5.235-5.925-5.235zm0 2.586c1.715 0 3 .986 3.008 2.652-.008 1.691-1.3 2.652-3.008 2.652a2.667 2.667 0 1 1 0-5.3zm-6.464 13.011a72.213 72.213 0 0 0 13.525-.961l-.224-2.155a103.741 103.741 0 0 1-13.641.688zm35.312-10.5v2.378h-4.881v2.412h4.881v4.434h2.967V3.848h-2.967v4.11H776.6a12.427 12.427 0 0 0 .257-2.519H766.8v2.4h6.787c-.522 3.141-3.381 5.685-7.923 7.119l1.243 2.337c4.293-1.293 7.384-3.7 8.892-6.945zM772.329 18h-3.041v6.79H783.9v-2.412h-11.571zm28.84-7.467h-4.177v2.412h4.177v12.268h2.959V3.815h-2.959zm-6.961-5.072h-3.041v3.194c-.017 4.011-1.691 8.13-5.337 9.787l1.87 2.428a10.282 10.282 0 0 0 5-6.29 9.661 9.661 0 0 0 4.856 5.9l1.807-2.378c-3.547-1.533-5.163-5.436-5.155-9.448zm19.276 10.724a16.612 16.612 0 0 0-3.34-10.5h-3.315c1.724 2.188 3.05 6.572 3.05 10.5s-1.326 8.3-3.05 10.492h3.315a16.6 16.6 0 0 0 3.339-10.489z" transform="translate(30 51)"/>
        </g>
        <g id="fc_start_end_link" transform="translate(407 1044)">
            <g transform="translate(-114 -100)" style="filter:url(#area)">
                <g id="area-3" data-name="area" class="cls-2" transform="translate(114 100)">
                    <rect class="cls-10" width="1108" height="130" rx="65"/>
                    <rect class="cls-11" x="1" y="1" width="1106" height="128" rx="64"/>
                </g>
            </g>
            <g id="fc_textlink" transform="translate(671 79)">
                <g id="stack" transform="translate(-2524.094 20210)">
                    <g id="ico_fc_pop_up" transform="translate(2421.503 -20209)">
                        <g id="그룹_1025" data-name="그룹 1025" transform="translate(-1101.074 -1125)">
                            <g id="그룹_1026" data-name="그룹 1026" transform="translate(1108.074 1129)">
                                <path id="사각형_878" data-name="사각형 878" class="cls-5" d="M0 0h9v9H0z"/>
                            </g>
                            <path id="패스_6896" data-name="패스 6896" class="cls-6" d="M1104.574 1132.941v9h9" transform="translate(.5 -.941)"/>
                        </g>
                    </g>
                    <path id="패스_11053" data-name="패스 11053" class="cls-7" d="M-11.981-7.669h-3.89v1.227h3.89v7.8h1.481v-14.032h-1.481zM-20-10.144h4.917v-1.226H-21.5v9.287h1.1a31.721 31.721 0 0 0 6.365-.464l-.165-1.215a30.034 30.034 0 0 1-5.8.442zM2.66-4.508h4.188v-7.21H5.373V-9.3H-1.5v-2.414h-1.486v7.21h4.177v2.873h-5.636v1.222H8.367v-1.226H2.66zm2.713-3.6v2.4H-1.5v-2.4zm14.16 9.436h1.492v-14h-1.492zM10.2-11.166v1.182h5.149c-.293 3.265-2.1 5.79-5.829 7.558l.785 1.2c4.807-2.293 6.547-5.845 6.558-9.939zM-22.7 2h45.4v1h-45.4z" transform="translate(2394.798 -20194)"/>
                </g>
            </g>
            <path id="패스_11052" data-name="패스 11052" class="cls-3" d="M185.8 25.213h2.975V3.815H185.8zm-13.028-9.191a7.65 7.65 0 0 0 5.155-3.97 7.847 7.847 0 0 0 5.188 3.8l1.359-2.312c-3.224-.787-4.823-2.727-5.014-4.79h4.359v-2.4h-4.409V4.014h-2.983v2.337h-4.376v2.4h4.3c-.191 2.171-1.765 4.169-4.981 5.014zm6.638-.671h-2.983V18.7a164.45 164.45 0 0 1-5.478.075l.34 2.412a74.19 74.19 0 0 0 13.525-.936l-.224-2.2a60.818 60.818 0 0 1-5.18.522zm27.8-3.29h-2.055V4.188h-2.743v19.931h2.743v-9.663h2.055v10.707h2.826V3.815h-2.826zM195.2 8.7h4.964V6.3H192.2v14.03h1.492a38.764 38.764 0 0 0 7.682-.588l-.224-2.436a35.124 35.124 0 0 1-5.95.522zm28.028 1.011V6.8h11.818V4.4h-14.8v7.682h14.909V9.707zm-5.337 6.307h19.492v-2.441h-19.491zm9.689 1.282c-4.657 0-7.467 1.409-7.467 3.912 0 2.528 2.809 3.953 7.467 3.945 4.633.008 7.417-1.417 7.434-3.945-.014-2.505-2.801-3.912-7.434-3.912zm0 5.586c-2.95-.008-4.434-.539-4.417-1.674-.017-1.077 1.467-1.633 4.417-1.641 2.9.008 4.425.564 4.434 1.641-.009 1.133-1.533 1.664-4.434 1.672zm22.276-9.166h6.307v-2.3h-12.141v-1.414h11.751V4.238h-14.76V6.55h11.76v1.3h-11.726v5.867h5.853v1.55h-8.279v2.387h19.508v-2.386h-8.271zm3.017 7.5v3.845h3.017v-6.2H240.8v2.354zm23.246-7.193h6.174v-2.265h-11.984V10.37h11.3v-2.2h-11.3V6.807h11.8V4.519h-14.783v9.506h5.793v1.55h-8.238v2.4h19.508v-2.4h-8.271zm-8.843 4.981v5.782H282.4v-2.412h-12.182v-3.372zm28.144-9.773c1.392 2.312 4.127 4.044 7.856 4.575l1.169-2.412c-4.881-.6-7.45-3.39-7.45-5.909V4.453h-3.141v1.036c-.008 2.519-2.569 5.3-7.417 5.909l1.177 2.412c3.695-.531 6.414-2.263 7.806-4.575zm-9.738 6.191v2.436h8.188v7.3h2.959v-7.3h8.312v-2.437zm31.624-5.718V6.8h11.818V4.4h-14.8v7.682h14.909V9.707zm-5.337 6.307h19.492v-2.438H311.97zm9.688 1.285c-4.657 0-7.467 1.409-7.467 3.912 0 2.528 2.809 3.953 7.467 3.945 4.633.008 7.417-1.417 7.434-3.945-.016-2.505-2.801-3.912-7.434-3.912zm0 5.586c-2.95-.008-4.434-.539-4.417-1.674-.017-1.077 1.467-1.633 4.417-1.641 2.9.008 4.425.564 4.434 1.641-.008 1.133-1.533 1.664-4.434 1.672zm22.276-9.166h6.307v-2.3H338.1v-1.414h11.751V4.238h-14.76V6.55h11.76v1.3h-11.727v5.867h5.851v1.55H332.7v2.387h19.5v-2.386h-8.271zm3.017 7.5v3.845h3.017v-6.2h-15.091v2.354zm26.909-17.37v15.57h3V3.848zm-8.221 7.85a8.221 8.221 0 0 0 5.014 4.434l1.525-2.354a6.773 6.773 0 0 1-5.006-6.713v-2.05h-3.1v2.055a7.257 7.257 0 0 1-5.146 7.077l1.558 2.362a8.522 8.522 0 0 0 5.155-4.811zm-.05 6.2h-3.025v6.89h14.859v-2.412h-11.834zm20.586-5.594a7.867 7.867 0 0 0 5.1 3.7l1.4-2.3c-3.431-.887-5.039-3.108-5.064-5.3h4.293V6.052h-4.26V3.74h-3.017v2.312h-4.286v2.354h4.293c-.025 2.42-1.608 4.84-5.022 5.818l1.4 2.337a7.875 7.875 0 0 0 5.163-4.252zm5.1-.365h3.472v4.782h2.983V3.815h-2.983V9.55h-3.472zm-.837 5.138c-4.525 0-7.334 1.442-7.326 4-.008 2.577 2.8 4.077 7.326 4.069 4.541.008 7.343-1.492 7.351-4.069-.004-2.554-2.805-3.996-7.346-3.996zm0 5.8c-2.826-.008-4.359-.63-4.351-1.8-.008-1.144 1.525-1.724 4.351-1.715 2.884-.008 4.376.572 4.384 1.715-.003 1.175-1.495 1.797-4.379 1.805zm19.782-11.461c4.914 0 7.749-1.276 7.757-3.663-.008-2.345-2.843-3.63-7.757-3.63s-7.773 1.285-7.765 3.63c-.004 2.391 2.846 3.668 7.77 3.668zm0-5.1c3.166-.008 4.674.506 4.674 1.442 0 1.052-1.508 1.459-4.674 1.467-3.124-.008-4.649-.414-4.633-1.467-.011-.937 1.514-1.451 4.638-1.442zm-9.708 8.482h19.459v-2.37h-19.459zm17.08 6.671V16.03h-14.834v2.2h11.884v1.16h-11.868v5.627h15.373V22.76h-12.439v-1.285zm24.215 3.671h2.967V3.848h-2.967zm-8.064-11.378c3.265.017 5.635-1.865 5.635-4.517 0-2.693-2.37-4.55-5.635-4.541-3.24-.008-5.61 1.848-5.594 4.541-.015 2.653 2.352 4.538 5.595 4.521zm0-6.663c1.649-.008 2.793.779 2.8 2.146-.008 1.326-1.152 2.1-2.8 2.088-1.583.008-2.718-.762-2.71-2.088-.007-1.363 1.128-2.147 2.711-2.147zm6.771 7.193a96.99 96.99 0 0 1-13.674.779l.365 2.436c1.533-.017 3.307-.033 5.18-.108v7.119h3v-7.3a48.273 48.273 0 0 0 5.337-.721zm22.641-1.79h-1.732V4.238h-2.8v20.005h2.8V14.9h1.732v10.263H466V3.815h-2.843zM451.238 4.42v2.66h-3.729v2.379h10.326V7.08h-3.655V4.42zm1.483 6a4.7 4.7 0 0 0-4.7 5.047c-.008 2.992 1.981 5.1 4.7 5.1s4.674-2.1 4.682-5.1c-.003-2.95-1.955-5.047-4.682-5.047zm0 7.608c-1.235.008-2.08-.928-2.072-2.561-.008-1.6.837-2.569 2.072-2.569 1.2 0 2.047.97 2.055 2.569-.008 1.633-.853 2.569-2.055 2.561zm36.058 7.185h2.975V3.815h-2.975zm-13.028-9.191a7.651 7.651 0 0 0 5.155-3.97 7.847 7.847 0 0 0 5.188 3.8l1.359-2.312c-3.224-.787-4.823-2.727-5.014-4.79h4.361v-2.4h-4.409V4.014h-2.983v2.337h-4.378v2.4h4.3c-.191 2.171-1.765 4.169-4.981 5.014zm6.638-.671h-2.983V18.7a164.45 164.45 0 0 1-5.478.075l.34 2.412a74.19 74.19 0 0 0 13.525-.936l-.224-2.2a60.818 60.818 0 0 1-5.18.522zm21.829-4.633a10.869 10.869 0 0 0 7.939 5.354l1.276-2.494c-4.889-.746-7.633-3.961-7.624-7.011V5.05h-3.191v1.516c-.017 3.017-2.735 6.265-7.575 7.011l1.276 2.494a10.846 10.846 0 0 0 7.899-5.353zm1.5 4.674h-2.967v4.823h-8.163v2.4H514.1v-2.4h-8.378zm17.445-9.307v-2.27h-2.983v2.271h-4.848v2.353h12.663V6.086zm9.1-2.238h-3v15.929h3V12.84h2.867v-2.453h-2.867zM521.671 17.4c3.083.008 5.246-1.616 5.246-4.069 0-2.478-2.163-4.135-5.246-4.135-3.116 0-5.3 1.657-5.3 4.135-.004 2.451 2.184 4.075 5.3 4.069zm-2.387-4.069c0-1.193.953-1.848 2.387-1.856 1.425.008 2.4.663 2.412 1.856-.008 1.169-.986 1.8-2.412 1.8s-2.386-.631-2.386-1.802zm-.862 5.213v6.246h14.6v-2.412h-11.616v-3.837zm38.378-3.6a5.005 5.005 0 0 0 2.577-4.343c0-3.448-3.414-5.727-8.039-5.727s-8.006 2.279-8 5.727a5.009 5.009 0 0 0 2.635 4.392v5.238h-4.351v2.429h19.508v-2.436h-4.33zm-5.46-7.715c3.025-.017 5.08 1.227 5.088 3.365-.008 2.1-2.064 3.381-5.088 3.39-3.05-.008-5.055-1.293-5.055-3.39-.001-2.138 2.005-3.381 5.055-3.365zm-2.4 8.843a12.393 12.393 0 0 0 2.4.224 13.376 13.376 0 0 0 2.436-.224v4.152h-4.84zm30.058-1.923a37.061 37.061 0 0 0 .555-7.16V5.075h-14.945v2.378h11.967a33.376 33.376 0 0 1-.6 6.7h-13.6v2.412h8.125v8.615h3.017v-8.619h8.32v-2.412zm19.077 11.064h2.975V3.815h-2.975zM591.682 14.9h4.135v-2.4h-8.229V8.1h8.13V5.721h-11.1V14.9h4.069v3.6c-1.914.033-3.771.041-5.47.033l.34 2.436a89.378 89.378 0 0 0 13.525-.754l-.224-2.171a85.49 85.49 0 0 1-5.18.365zm17.594-5.246V4.577H606.3v7.417h14.9V9.649zm-5.42 6.97h19.508v-2.351h-19.508zm2.246 1.749v6.323h15.232v-2.4h-12.24v-3.92zm38.892 6.845h3.025V3.815h-3.025zm-6.522-19.754h-3.033v3.191c-.017 4.144-1.823 8.229-5.552 9.8l1.807 2.486a10.248 10.248 0 0 0 5.3-6.389 9.946 9.946 0 0 0 5.1 5.867l1.765-2.4c-3.63-1.525-5.4-5.453-5.387-9.373zm20.262.224V3.649h-2.959v2.039h-4.815v2.378h12.572V5.688zm7.177 4.4h-2.76v2.436h2.76v4.2h2.983V3.815h-2.983zm-3.53 2.519c0-2.246-2.122-3.837-5.113-3.837s-5.138 1.591-5.138 3.837c0 2.312 2.146 3.845 5.138 3.854 2.992-.008 5.113-1.541 5.113-3.853zm-7.376 0c-.017-1.019.87-1.591 2.262-1.583 1.351-.008 2.246.564 2.246 1.583 0 1.069-.9 1.641-2.246 1.641-1.391.001-2.278-.571-2.262-1.64zm13.889 12.315v-7.3h-14.336v7.3zm-2.925-4.948v2.552h-8.42v-2.551zm22.525-8.006V3.815H685.5v21.348h2.992v-10.7h3.149V11.97zm-8.95-3.646h4.293V5.878h-11.818v2.445h4.517v1.31c-.017 3.53-1.807 7.5-5.362 9.157l1.74 2.362a10.573 10.573 0 0 0 5.171-6.373A10.018 10.018 0 0 0 683.1 20.6l1.666-2.345a9.492 9.492 0 0 1-5.221-8.627zm27.622 8.735h3.017v-2.411h-12.53v-2.37h12.033V5.207h-15.05v2.4h12.091V9.9h-12.059v7.16h2.751v3.273h-5v2.445h19.508v-2.447h-4.765zm-2.942 0v3.273h-3.9v-3.272zm22.309-11.2V3.7h-2.983v2.162h-4.85V8.2h12.663V5.862zm9.1-2.047h-3v13.563h3v-5.61h2.867V9.285h-2.867zm-5.345 8.942c0-2.279-2.155-3.829-5.246-3.837-3.149.008-5.3 1.558-5.3 3.837-.008 2.3 2.155 3.82 5.3 3.82 3.091.005 5.245-1.52 5.245-3.815zm-7.633 0c0-1.069.953-1.649 2.387-1.657 1.425.008 2.4.588 2.412 1.657-.008 1.052-.986 1.608-2.412 1.6-1.434.013-2.387-.543-2.387-1.595zm6 4.815c-4.475 0-7.235 1.409-7.218 3.8-.017 2.354 2.743 3.787 7.218 3.779 4.4.008 7.2-1.425 7.21-3.779-.009-2.386-2.81-3.795-7.21-3.795zm0 5.354c-2.785 0-4.268-.547-4.26-1.55-.008-1.052 1.475-1.533 4.26-1.533 2.735 0 4.2.481 4.2 1.533.001 1.007-1.466 1.554-4.2 1.554zm22-10.74h5.793V4.669h-14.583v7.517h5.793v2.03h-8.2v2.4h19.462v-2.4h-8.262zM753.508 7v2.84h-8.718V7zm.05 13.541v4.624h2.992v-6.97h-14.934v2.345zM773.68 5.406v-1.74h-2.98v1.74h-4.624v2.171h12.2V5.406zm9.12 4.542v-6.1h-3v14.495h3V12.4h2.735V9.948zm-3.986 5.072c-1.633.2-3.381.34-5.13.423v-1.1c2.271-.34 3.7-1.467 3.7-3.091-.008-1.972-2.08-3.191-5.221-3.182-3.157-.008-5.238 1.21-5.229 3.182-.008 1.641 1.442 2.776 3.762 3.1v1.2c-1.848.05-3.622.058-5.188.058l.307 2.312a79.952 79.952 0 0 0 13.21-.845zm-9.017-3.771c-.008-.82.854-1.193 2.37-1.193 1.5 0 2.354.373 2.362 1.193-.008.779-.862 1.235-2.362 1.227-1.521.007-2.383-.448-2.374-1.227zM779.8 21.5v3.663h3v-5.975h-14.582V21.5zm21.551-17.652V19.18h3V3.848zm-2.867 6.729c0-3.124-2.552-5.378-5.826-5.378s-5.843 2.254-5.834 5.378c-.008 3.174 2.561 5.412 5.834 5.412s5.825-2.238 5.825-5.412zm-8.735 0a2.895 2.895 0 0 1 5.785 0 2.893 2.893 0 0 1-5.785 0zm3.331 7.052h-3.025v7.16h14.859v-2.411H793.08zm19.227-12.4-5.47 20.32h3l5.47-20.32zm15.058 6.953h5.793V4.669h-14.586v7.517h5.793v2.03h-8.2v2.4h19.459v-2.4h-8.262zM830.215 7v2.84H821.5V7zm.05 13.541v4.624h2.992v-6.97h-14.934v2.345zm17.867-6.82h6.307v-2.3H842.3v-1.415h11.75V4.238h-14.76V6.55h11.76v1.3h-11.727v5.867h5.851v1.55H836.9v2.387h19.5v-2.386h-8.271zm3.017 7.5v3.845h3.017v-6.2h-15.091v2.354zm23.578-8.721V3.815h-3.017v21.348h3.017V14.978h2.785V12.5zm-9.05-6.3V3.939h-3.008V6.2h-4.84v2.347h12.655V6.2zm0 11.064c2.254-.431 3.754-1.89 3.771-3.862-.017-2.4-2.2-4.019-5.246-4.019-3.108 0-5.262 1.624-5.254 4.019-.008 1.964 1.459 3.414 3.721 3.854V19.1c-1.89.041-3.7.041-5.254.041l.4 2.436a72.853 72.853 0 0 0 13.036-.87l-.2-2.171c-1.591.224-3.282.356-4.972.448zM861.79 13.4c-.008-1.11.953-1.74 2.412-1.74 1.417 0 2.37.63 2.37 1.74s-.953 1.724-2.37 1.724c-1.459.003-2.42-.602-2.412-1.724z" transform="translate(30 36)"/>
        </g>
        <g id="fc_box_medium_no_btn" transform="translate(977 1584)">
            <g transform="translate(-684 -640)" style="filter:url(#box-2)">
                <g id="box-6" data-name="box" style="fill:#eee;stroke:#999;stroke-width:2px">
                    <path class="cls-10" d="M0 0h538v130H0z" transform="translate(684 640)"/>
                    <path class="cls-11" d="M1 1h536v128H1z" transform="translate(684 640)"/>
                </g>
            </g>
            <path id="패스_11058" data-name="패스 11058" class="cls-3" d="M158.348 6.028h-6.041V23h5.983c5.171 0 8.3-3.2 8.3-8.5-.004-5.29-3.129-8.472-8.242-8.472zm-2.519 13.948V9.052h2.329c3.207 0 4.906 1.666 4.906 5.445 0 3.8-1.7 5.478-4.923 5.478zm18.564-9.87c-3.381 0-5.3 1.74-5.5 3.953h3.29a1.925 1.925 0 0 1 2.13-1.409c1.285 0 2.014.613 2.022 1.691v1.028c-.53.017-2.254.091-3.157.149-2.445.157-4.732 1.077-4.732 3.928 0 2.511 1.807 3.8 4.235 3.8a3.906 3.906 0 0 0 3.721-2.006h.1V23h3.29v-8.577c-.005-3.067-2.624-4.323-5.4-4.323zm-.729 10.724c-1.11 0-1.9-.506-1.9-1.492s.762-1.55 1.972-1.649c.6-.058 2.1-.141 2.611-.166v.928a2.463 2.463 0 0 1-2.684 2.378zm14.287-.456c-.713-.025-1.21-.265-1.21-1.276v-6.217h2.4v-2.61h-2.4v-3.05h-3.472v3.05h-1.749v2.61h1.749v6.688c-.017 2.478 1.691 3.6 4.21 3.6a11.971 11.971 0 0 0 1.831-.124v-2.73c-.41.025-1.02.066-1.36.058zM196.66 10.1c-3.381 0-5.3 1.74-5.5 3.953h3.29a1.925 1.925 0 0 1 2.13-1.409c1.285 0 2.014.613 2.022 1.691v1.028c-.53.017-2.254.091-3.157.149-2.445.157-4.732 1.077-4.732 3.928 0 2.511 1.807 3.8 4.235 3.8a3.906 3.906 0 0 0 3.721-2.006h.1V23h3.29v-8.577c-.004-3.067-2.623-4.323-5.399-4.323zm-.729 10.724c-1.11 0-1.9-.506-1.9-1.492s.762-1.55 1.972-1.649c.6-.058 2.1-.141 2.611-.166v.928a2.463 2.463 0 0 1-2.683 2.384zm22.3-4.218h3.669c-.05 2.138-1.5 3.5-3.9 3.5-2.71 0-4.442-2.022-4.442-5.61 0-3.564 1.782-5.577 4.4-5.577a3.488 3.488 0 0 1 3.6 2.577h3.588c-.472-3.348-3.423-5.7-7.251-5.7-4.475 0-7.914 3.232-7.914 8.735 0 5.37 3.224 8.7 7.989 8.7 4.276 0 7.334-2.71 7.334-7.169v-2.12h-7.077zm14.935-6.506c-3.381 0-5.3 1.74-5.5 3.953h3.29a1.925 1.925 0 0 1 2.13-1.409c1.285 0 2.014.613 2.022 1.691v1.028c-.53.017-2.254.091-3.157.149-2.445.157-4.732 1.077-4.732 3.928 0 2.511 1.807 3.8 4.235 3.8a3.906 3.906 0 0 0 3.721-2.006h.1V23h3.29v-8.577c-.004-3.067-2.623-4.323-5.399-4.323zm-.729 10.724c-1.11 0-1.9-.506-1.9-1.492s.762-1.55 1.972-1.649c.6-.058 2.1-.141 2.611-.166v.928a2.463 2.463 0 0 1-2.684 2.384zm12.232 6.945v-6.8h.108a3.776 3.776 0 0 0 3.622 2.238c2.909 0 5.171-2.3 5.171-6.555 0-4.359-2.354-6.547-5.171-6.547a3.753 3.753 0 0 0-3.622 2.3h-.157v-2.134h-3.42v17.5zm-.075-11.138c0-2.3.97-3.754 2.718-3.754 1.773 0 2.71 1.525 2.71 3.754 0 2.246-.953 3.8-2.71 3.8-1.732.008-2.718-1.508-2.718-3.796zM264.931 23v-7.036h6.92v-2.909h-6.92v-4.11h7.669V6.028h-11.191V23zm11.644-14.4a1.833 1.833 0 0 0 1.889-1.765 1.894 1.894 0 0 0-3.779 0 1.833 1.833 0 0 0 1.89 1.765zm1.732 14.4V10.271h-3.472V23zm2.7-16.972V23h3.472V6.028zm6.174 0V23h3.472V6.028zM295.1 8.6a1.833 1.833 0 0 0 1.889-1.765 1.894 1.894 0 0 0-3.779 0A1.833 1.833 0 0 0 295.1 8.6zm1.729 14.4V10.271h-3.472V23zM303 15.633a2.373 2.373 0 0 1 2.445-2.644 2.2 2.2 0 0 1 2.279 2.511V23h3.476v-8.1c0-2.975-1.732-4.79-4.384-4.79a3.843 3.843 0 0 0-3.829 2.4h-.149v-2.239h-3.308V23H303zm16.583 12.406c3.622 0 6.182-1.649 6.182-4.906V10.271h-3.431v2.138h-.134a3.77 3.77 0 0 0-3.638-2.3c-2.809 0-5.171 2.146-5.171 6.456 0 4.235 2.3 6.257 5.18 6.257a3.718 3.718 0 0 0 3.638-2.08h.149v2.345c0 1.765-1.077 2.445-2.693 2.445-1.376 0-2.337-.456-2.528-1.483h-3.427c.207 2.415 2.37 3.99 5.876 3.99zm.066-7.831c-1.765 0-2.718-1.4-2.718-3.613 0-2.188.936-3.713 2.718-3.713 1.732 0 2.71 1.459 2.71 3.713s-.992 3.612-2.707 3.612z" transform="translate(30 51)"/>
        </g>
        <g id="fc_box_big_no_btn-2" data-name="fc_box_big_no_btn" transform="translate(407 1224)">
            <g transform="translate(-114 -280)" style="filter:url(#box-3)">
                <g id="box-7" data-name="box" class="cls-2">
                    <path class="cls-10" d="M0 0h1108v130H0z" transform="translate(114 280)"/>
                    <path class="cls-11" d="M1 1h1106v128H1z" transform="translate(114 280)"/>
                </g>
            </g>
            <path id="패스_11054" data-name="패스 11054" class="cls-3" d="M207.318 9.707V6.8h11.818V4.4h-14.8v7.682h14.909V9.707zm-5.337 6.307h19.492v-2.437h-19.492zm9.688 1.285c-4.657 0-7.467 1.409-7.467 3.912 0 2.528 2.809 3.953 7.467 3.945 4.633.008 7.417-1.417 7.434-3.945-.017-2.504-2.803-3.911-7.435-3.911zm0 5.586c-2.95-.008-4.434-.539-4.417-1.674-.017-1.077 1.467-1.633 4.417-1.641 2.9.008 4.425.564 4.434 1.641-.009 1.134-1.534 1.665-4.435 1.673zm22.276-9.166h6.307v-2.3H228.11v-1.413h11.751V4.238H225.1V6.55h11.76v1.3h-11.725v5.867h5.851v1.55h-8.279v2.387h19.508v-2.386h-8.271zm3.017 7.5v3.845h3.017v-6.2h-15.092v2.354zM263.87 3.848V19.42h3V3.848zm-8.221 7.852a8.221 8.221 0 0 0 5.014 4.434l1.525-2.354a6.773 6.773 0 0 1-5.006-6.713v-2.05h-3.1v2.055a7.257 7.257 0 0 1-5.146 7.077l1.558 2.362a8.522 8.522 0 0 0 5.155-4.811zm-.05 6.2h-3.025v6.89h14.859v-2.412H255.6zm20.586-5.594a7.867 7.867 0 0 0 5.1 3.7l1.4-2.3c-3.431-.887-5.039-3.108-5.064-5.3h4.293V6.052h-4.26V3.74h-3.017v2.312h-4.293v2.354h4.293c-.025 2.42-1.608 4.84-5.022 5.818l1.4 2.337a7.875 7.875 0 0 0 5.17-4.252zm5.1-.365h3.472v4.782h2.983V3.815h-2.983V9.55h-3.467zm-.837 5.138c-4.525 0-7.334 1.442-7.326 4-.008 2.577 2.8 4.077 7.326 4.069 4.541.008 7.343-1.492 7.351-4.069.001-2.554-2.805-3.996-7.346-3.996zm0 5.8c-2.826-.008-4.359-.63-4.351-1.8-.008-1.144 1.525-1.724 4.351-1.715 2.884-.008 4.376.572 4.384 1.715-.003 1.175-1.495 1.797-4.379 1.805zm18.013-18.426v6.721h14.586V4.453zm2.934 4.409v-2.1h8.66v2.1zm14.122 3.438h-19.459v2.345h8.188v1.367H298.3v2.254h11.884v1.1H298.32v5.644h15.373v-2.25h-12.439v-1.285h11.884v-5.461h-5.892v-1.368h8.271zm16.143-8.485v10.956h2.967V3.815zm-8.006 6.812a7.983 7.983 0 0 0 5.155 3.936l1.417-2.3c-3.273-.854-4.881-2.934-5.088-5.064h4.268v-2.39H317.68V7.2h4.384c-.215 2.287-1.848 4.525-5.163 5.453L318.26 15a8.2 8.2 0 0 0 5.395-4.373zm-.34 10.691h11.346v-5.694h-14.312v2.262h11.329v1.294H320.4v5.834h14.84v-2.3h-11.925zM352.5 3.815v21.4h2.975v-21.4zm-8.047 1.434c-3.356 0-5.925 2.18-5.917 5.238-.008 3.066 2.561 5.238 5.917 5.238 3.4 0 5.909-2.171 5.925-5.238-.013-3.059-2.524-5.238-5.922-5.238zm0 2.586c1.715 0 3 .986 3.008 2.652-.008 1.691-1.3 2.652-3.008 2.652a2.667 2.667 0 1 1 0-5.3zm-6.464 13.011a72.212 72.212 0 0 0 13.525-.961l-.224-2.155a103.74 103.74 0 0 1-13.641.688zm31.238-9.546v-1.286h11.3V7.8h-11.3V6.616h11.8V4.3h-14.784v9.265h14.967V11.3zm-5.427 5.965h19.508v-2.353H363.8zm14.08 3.762v4.135h3.02v-6.5H366v2.362zm24.7-4.7V3.815h-2.983v3.92h-4v2.445h4v6.149zm-11.362-4.89a7.834 7.834 0 0 0 4.74 4.177l1.591-2.337a6.513 6.513 0 0 1-4.889-6.555V4.934h-3.017v1.931a7.126 7.126 0 0 1-5.246 7.019l1.591 2.387a8.473 8.473 0 0 0 5.225-4.832zm4.069 5.436c-4.541 0-7.334 1.533-7.326 4.152-.008 2.635 2.785 4.135 7.326 4.127 4.558.008 7.343-1.492 7.351-4.127-.014-2.616-2.798-4.149-7.356-4.149zm0 5.95c-2.826.008-4.359-.613-4.351-1.8-.008-1.218 1.525-1.831 4.351-1.831s4.376.613 4.384 1.831c-.014 1.19-1.555 1.811-4.389 1.803zm32.423-10.878v-8.13h-2.992v21.348h2.992V14.381h3.149v-2.436zM421.138 8.2h1.906V5.787h-11.9V8.2h1.881v9.6c-.854.008-1.666.008-2.42.008l.323 2.436a77.346 77.346 0 0 0 12.912-.87l-.149-2.146c-.829.108-1.682.191-2.552.257zm-2.876 0v9.472c-.787.033-1.566.066-2.337.083V8.2zm30.3.646V3.815h-3V16.3h3v-5.018h2.867V8.845zm-5.1 1.343c-.017-3.017-2.519-5.2-5.826-5.2-3.331-.008-5.859 2.18-5.843 5.2-.017 3.066 2.511 5.229 5.843 5.229 3.3-.001 5.803-2.164 5.82-5.23zm-8.743 0a2.923 2.923 0 1 1 2.917 2.685 2.628 2.628 0 0 1-2.923-2.686zm10.848 9.423v5.568h3V17.2H434.2v2.412zm23.546-13.576V3.8h-2.959v2.236h-7.3v2.4h17.511v-2.4zm-1.475 10.533c4.591 0 7.351-1.293 7.359-3.638-.008-2.378-2.768-3.663-7.359-3.663s-7.367 1.285-7.359 3.663c-.008 2.345 2.76 3.638 7.359 3.638zm0-5.088c2.826 0 4.243.464 4.26 1.45-.017.961-1.434 1.425-4.26 1.417-2.851.008-4.26-.456-4.251-1.417-.009-.986 1.4-1.45 4.251-1.45zm-9.713 6.133v2.42h8.229v5.146h2.959v-5.147h8.32v-2.42zm41.113 7.6h3.025V3.815h-3.025zm-6.521-19.75h-3.033v3.191c-.017 4.144-1.823 8.229-5.552 9.8l1.807 2.486a10.247 10.247 0 0 0 5.3-6.389 9.946 9.946 0 0 0 5.1 5.867l1.765-2.4c-3.63-1.525-5.4-5.453-5.387-9.373zm20.262.224V3.649h-2.959v2.039h-4.815v2.378h12.572V5.688zm7.177 4.4H517.2v2.436h2.76v4.2h2.983V3.815h-2.983zm-3.53 2.519c0-2.246-2.122-3.837-5.113-3.837s-5.138 1.591-5.138 3.837c0 2.312 2.146 3.845 5.138 3.854 2.987-.008 5.112-1.541 5.112-3.853zm-7.376 0c-.017-1.019.87-1.591 2.262-1.583 1.351-.008 2.246.564 2.246 1.583 0 1.069-.9 1.641-2.246 1.641-1.392.001-2.279-.571-2.262-1.64zm13.889 12.315v-7.3H508.6v7.3zm-2.925-4.948v2.552h-8.42v-2.551zm26.229-5.826v5.213h2.983V3.848h-2.983V7.18h-3.97V5.555h-10.135v10.393h10.135v-1.8zm-11.138-.53V7.925h4.235v5.693zm11.138-1.84h-3.97V9.591h3.97zm-8.2 6.124h-3.025v6.888h14.66v-2.412h-11.631zm29.561 7.26h2.826V3.815h-2.826zM560.46 11.14v2.4h2.809v10.629h2.8v-20h-2.8v6.97zm-1.711-2.74h3.232V6h-9.613v2.4h3.5v1.133c0 3.63-1.169 7.459-4.309 9.4l1.807 2.2a9.93 9.93 0 0 0 3.978-5.809 9.022 9.022 0 0 0 3.878 5.32l1.749-2.2c-3.116-1.782-4.227-5.362-4.218-8.917zm36.365 3.6V3.815h-2.992v21.3h2.992V14.464h3.017v-2.47zM579.26 6v2.448h7.11c-.564 4.757-3.273 8.155-8.312 10.691l1.682 2.287c7.169-3.526 9.66-9.042 9.68-15.426zm25.218 3.166V4.155H601.5v7.409h14.826v-2.4zm-5.436 6.646h19.492V13.4h-19.493zm9.688 1.359c-4.657.008-7.467 1.434-7.467 3.945 0 2.544 2.809 3.961 7.467 3.961 4.633 0 7.417-1.417 7.434-3.961-.018-2.508-2.802-3.934-7.435-3.942zm0 5.627c-2.95.008-4.434-.572-4.417-1.682-.017-1.127 1.467-1.616 4.417-1.624 2.9.008 4.425.5 4.434 1.624-.009 1.113-1.534 1.693-4.435 1.684zm18.886-16.712V3.815h-2.983v2.271h-4.848v2.353h12.663V6.086zm9.1-2.238h-3v15.928h3V12.84h2.867v-2.453h-2.867zM626.124 17.4c3.083.008 5.246-1.616 5.246-4.069 0-2.478-2.163-4.135-5.246-4.135-3.116 0-5.3 1.657-5.3 4.135-.004 2.451 2.184 4.075 5.3 4.069zm-2.387-4.069c0-1.193.953-1.848 2.387-1.856 1.425.008 2.4.663 2.412 1.856-.008 1.169-.986 1.8-2.412 1.8s-2.386-.631-2.386-1.802zm-.862 5.213v6.246h14.6v-2.412h-11.616v-3.837zm38.03 6.671h3.025v-21.4h-3.025zm-6.521-19.751h-3.033v3.191c-.017 4.144-1.823 8.229-5.552 9.8l1.807 2.486a10.248 10.248 0 0 0 5.3-6.389 9.946 9.946 0 0 0 5.1 5.867l1.765-2.4c-3.63-1.525-5.4-5.453-5.387-9.373zm20.262.224V3.649h-2.959v2.039h-4.815v2.378h12.572V5.688zm7.177 4.4h-2.76v2.436h2.76v4.2h2.983V3.815h-2.983zm-3.53 2.519c0-2.246-2.122-3.837-5.113-3.837s-5.138 1.591-5.138 3.837c0 2.312 2.146 3.845 5.138 3.854 2.991-.008 5.113-1.541 5.113-3.853zm-7.376 0c-.017-1.019.87-1.591 2.262-1.583 1.351-.008 2.246.564 2.246 1.583 0 1.069-.9 1.641-2.246 1.641-1.392.001-2.279-.571-2.262-1.64zm13.889 12.315v-7.3H670.47v7.3zm-2.925-4.948v2.552h-8.42v-2.551zm13.525-14.112V3.7h-2.983v2.162h-4.848V8.2h12.663V5.862zm9.1-2.047h-3v13.558h3v-5.61h2.867V9.285h-2.867zm-5.345 8.942c0-2.279-2.155-3.829-5.246-3.837-3.149.008-5.3 1.558-5.3 3.837-.008 2.3 2.155 3.82 5.3 3.82 3.09 0 5.245-1.525 5.245-3.82zm-7.633 0c0-1.069.953-1.649 2.387-1.657 1.425.008 2.4.588 2.412 1.657-.008 1.052-.986 1.608-2.412 1.6-1.434.008-2.387-.548-2.387-1.6zm6 4.815c-4.475 0-7.235 1.409-7.218 3.8-.017 2.354 2.743 3.787 7.218 3.779 4.4.008 7.2-1.425 7.21-3.779-.009-2.391-2.81-3.8-7.21-3.8zm0 5.354c-2.785 0-4.268-.547-4.26-1.55-.008-1.052 1.475-1.533 4.26-1.533 2.735 0 4.2.481 4.2 1.533.001 1.002-1.466 1.549-4.2 1.549zm22-10.74h5.793V4.669h-14.583v7.517h5.793v2.03h-8.2v2.4h19.459v-2.4h-8.26zM722.381 7v2.84h-8.718V7zm.05 13.541v4.624h2.992v-6.97h-14.934v2.345zm20.121-15.135v-1.74h-2.983v1.74h-4.624v2.171h12.2V5.406zm9.116 4.541v-6.1h-2.992v14.496h2.992V12.4h2.732V9.948zm-3.986 5.072c-1.633.2-3.381.34-5.13.423v-1.1c2.271-.34 3.7-1.467 3.7-3.091-.008-1.972-2.08-3.191-5.221-3.182-3.157-.008-5.238 1.21-5.229 3.182-.008 1.641 1.442 2.776 3.762 3.1v1.2c-1.848.05-3.622.058-5.188.058l.307 2.312a79.952 79.952 0 0 0 13.21-.845zm-9.017-3.771c-.008-.82.854-1.193 2.37-1.193 1.5 0 2.354.373 2.362 1.193-.008.779-.862 1.235-2.362 1.227-1.516.008-2.378-.447-2.369-1.226zM748.677 21.5v3.663h2.992v-5.975h-14.578V21.5zm21.547-17.652V19.18h3V3.848zm-2.867 6.729c0-3.124-2.552-5.378-5.826-5.378s-5.843 2.254-5.834 5.378c-.008 3.174 2.561 5.412 5.834 5.412s5.825-2.238 5.825-5.412zm-8.735 0a2.895 2.895 0 0 1 5.785 0 2.893 2.893 0 0 1-5.785 0zm3.331 7.052h-3.025v7.16h14.859v-2.411h-11.834zm19.227-12.4-5.47 20.32h3l5.47-20.32zm15.058 6.953h5.793V4.669h-14.586v7.517h5.793v2.03h-8.2v2.4H804.5v-2.4h-8.262zM799.088 7v2.84h-8.718V7zm.05 13.541v4.624h2.992v-6.97H787.2v2.345zm17.867-6.82h6.307v-2.3h-12.141v-1.415h11.751V4.238h-14.76V6.55h11.76v1.3H808.2v5.867h5.851v1.55h-8.279v2.387h19.508v-2.386h-8.271zm3.017 7.5v3.845h3.017v-6.2h-15.091v2.354zM843.6 12.5V3.815h-3.017v21.348h3.017V14.978h2.785V12.5zm-9.05-6.3V3.939h-3.008V6.2H826.7v2.347h12.655V6.2zm0 11.064c2.254-.431 3.754-1.89 3.771-3.862-.017-2.4-2.2-4.019-5.246-4.019-3.108 0-5.262 1.624-5.254 4.019-.008 1.964 1.459 3.414 3.721 3.854V19.1c-1.89.041-3.7.041-5.254.041l.4 2.436a72.853 72.853 0 0 0 13.036-.87l-.2-2.171c-1.591.224-3.282.356-4.972.448zm-3.887-3.864c-.008-1.11.953-1.74 2.412-1.74 1.417 0 2.37.63 2.37 1.74s-.953 1.724-2.37 1.724c-1.459.003-2.42-.602-2.412-1.724z" transform="translate(30 36)"/>
            <g id="fc_textlink-2" data-name="fc_textlink" transform="translate(667 79)">
                <g id="stack-2" data-name="stack" transform="translate(-2524.094 20210)">
                    <g id="ico_fc_pop_up-2" data-name="ico_fc_pop_up" transform="translate(2421.503 -20209)">
                        <g id="그룹_1025-2" data-name="그룹 1025" transform="translate(-1101.074 -1125)">
                            <g id="그룹_1026-2" data-name="그룹 1026" transform="translate(1108.074 1129)">
                                <path id="사각형_878-2" data-name="사각형 878" class="cls-5" d="M0 0h9v9H0z"/>
                            </g>
                            <path id="패스_6896-2" data-name="패스 6896" class="cls-6" d="M1104.574 1132.941v9h9" transform="translate(.5 -.941)"/>
                        </g>
                    </g>
                    <path id="패스_11055" data-name="패스 11055" class="cls-7" d="M-11.981-7.669h-3.89v1.227h3.89v7.8h1.481v-14.032h-1.481zM-20-10.144h4.917v-1.226H-21.5v9.287h1.1a31.721 31.721 0 0 0 6.365-.464l-.165-1.215a30.034 30.034 0 0 1-5.8.442zM2.66-4.508h4.188v-7.21H5.373V-9.3H-1.5v-2.414h-1.486v7.21h4.177v2.873h-5.636v1.222H8.367v-1.226H2.66zm2.713-3.6v2.4H-1.5v-2.4zm14.16 9.436h1.492v-14h-1.492zM10.2-11.166v1.182h5.149c-.293 3.265-2.1 5.79-5.829 7.558l.785 1.2c4.807-2.293 6.547-5.845 6.558-9.939zM-22.7 2h45.4v1h-45.4z" transform="translate(2394.798 -20194)"/>
                </g>
            </g>
        </g>
        <g id="fc_box_big_no_btn-3" data-name="fc_box_big_no_btn" transform="translate(407 1404)">
            <g transform="translate(-114 -460)" style="filter:url(#box-4)">
                <g id="box-8" data-name="box" class="cls-2">
                    <path class="cls-10" d="M0 0h1108v130H0z" transform="translate(114 460)"/>
                    <path class="cls-11" d="M1 1h1106v128H1z" transform="translate(114 460)"/>
                </g>
            </g>
            <path id="패스_11056" data-name="패스 11056" class="cls-3" d="M303.409 25.213h3.025V3.815h-3.025zm-6.522-19.749h-3.033v3.191c-.017 4.144-1.823 8.229-5.552 9.8l1.807 2.486a10.247 10.247 0 0 0 5.3-6.389 9.946 9.946 0 0 0 5.1 5.867l1.765-2.4c-3.63-1.525-5.4-5.453-5.387-9.373zm20.262.224V3.649h-2.959v2.039h-4.815v2.378h12.572V5.688zm7.177 4.4h-2.76v2.436h2.76v4.2h2.983V3.815h-2.983zm-3.53 2.519c0-2.246-2.122-3.837-5.113-3.837s-5.138 1.591-5.138 3.837c0 2.312 2.146 3.845 5.138 3.854 2.991-.008 5.117-1.541 5.117-3.853zm-7.376 0c-.017-1.019.87-1.591 2.262-1.583 1.351-.008 2.246.564 2.246 1.583 0 1.069-.9 1.641-2.246 1.641-1.392.001-2.282-.571-2.262-1.64zm13.889 12.315v-7.3h-14.337v7.3zm-2.925-4.948v2.552h-8.42v-2.551zm13.525-14.112V3.7h-2.983v2.162h-4.848V8.2h12.662V5.862zm9.1-2.047h-3v13.558h3v-5.61h2.867V9.285h-2.867zm-5.345 8.942c0-2.279-2.155-3.829-5.246-3.837-3.149.008-5.3 1.558-5.3 3.837-.008 2.3 2.155 3.82 5.3 3.82 3.09 0 5.245-1.525 5.245-3.82zm-7.633 0c0-1.069.953-1.649 2.387-1.657 1.425.008 2.4.588 2.412 1.657-.008 1.052-.986 1.608-2.412 1.6-1.435.008-2.388-.548-2.388-1.6zm6 4.815c-4.475 0-7.235 1.409-7.218 3.8-.017 2.354 2.743 3.787 7.218 3.779 4.4.008 7.2-1.425 7.21-3.779-.009-2.391-2.81-3.8-7.211-3.8zm0 5.354c-2.785 0-4.268-.547-4.26-1.55-.008-1.052 1.475-1.533 4.26-1.533 2.735 0 4.2.481 4.2 1.533.001 1.002-1.466 1.549-4.201 1.549zm22-10.74h5.793V4.669H353.24v7.517h5.793v2.03h-8.2v2.4H370.3v-2.4h-8.262zM364.884 7v2.84h-8.718V7zm.05 13.541v4.624h2.992v-6.97h-14.934v2.345zm21.646-7.873V14.8h2.975V3.815h-2.975v2.726h-3.928V4.735h-2.959v2.5h-4.2v-2.5h-3v9.456h10.16v-1.525zm0-2.262h-3.928V8.771h3.928zm-11.088 1.442V9.492h4.2v2.354zm2.892 9.456h11.171V15.6h-14.2v2.3h11.225v1.2h-11.2v5.818h14.8v-2.349h-11.8zm34.316 3.909h3.025V3.815H412.7zm-6.52-19.749h-3.033v3.191c-.017 4.144-1.823 8.229-5.552 9.8l1.807 2.486a10.247 10.247 0 0 0 5.3-6.389 9.946 9.946 0 0 0 5.1 5.867l1.765-2.4c-3.63-1.525-5.4-5.453-5.387-9.373zm20.262.224V3.649h-2.959v2.039h-4.815v2.378h12.572V5.688zm7.177 4.4h-2.76v2.436h2.76v4.2h2.981V3.815h-2.983zm-3.53 2.519c0-2.246-2.122-3.837-5.113-3.837s-5.138 1.591-5.138 3.837c0 2.312 2.146 3.845 5.138 3.854 2.991-.008 5.112-1.541 5.112-3.853zm-7.376 0c-.017-1.019.87-1.591 2.262-1.583 1.351-.008 2.246.564 2.246 1.583 0 1.069-.9 1.641-2.246 1.641-1.392.001-2.275-.571-2.262-1.64zM436.6 24.923v-7.3h-14.335v7.3zm-2.925-4.948v2.552h-8.42v-2.552zM456.2 11.97V3.815h-2.99v21.348h2.99v-10.7h3.149V11.97zm-8.95-3.646h4.293V5.878h-11.816v2.445h4.517v1.31c-.017 3.53-1.807 7.5-5.362 9.157l1.74 2.362a10.573 10.573 0 0 0 5.171-6.373 10.017 10.017 0 0 0 5.014 5.826l1.666-2.345a9.492 9.492 0 0 1-5.221-8.627zm27.622 8.735h3.017v-2.413h-12.53v-2.37h12.033V5.207h-15.05v2.4h12.091V9.9h-12.057v7.16h2.751v3.273h-5v2.445h19.508v-2.447h-4.765zm-2.942 0v3.273h-3.9v-3.274zm30.191-5.113c-.481-3.9-3.431-6.149-7.343-6.149-4.483 0-7.889 3.182-7.889 8.718s3.348 8.718 7.889 8.718c4.309 0 6.945-2.859 7.343-5.992l-3.564-.017a3.521 3.521 0 0 1-3.721 2.884c-2.6 0-4.376-1.931-4.376-5.594 0-3.572 1.749-5.594 4.392-5.594a3.5 3.5 0 0 1 3.7 3.025zm8.113 11.3c3.845 0 6.24-2.644 6.24-6.564 0-3.945-2.4-6.58-6.24-6.58s-6.257 2.635-6.257 6.58c.001 3.918 2.404 6.567 6.258 6.567zm.017-2.693c-1.815 0-2.743-1.657-2.743-3.9s.928-3.9 2.743-3.9c1.773 0 2.7 1.674 2.7 3.9s-.926 3.902-2.7 3.902zm8.412-14.528V23h3.472V6.028zm6.174 0V23h3.472V6.028zm17.784 10.533c0-4.343-2.635-6.456-5.975-6.456-3.729 0-6.157 2.66-6.157 6.588 0 4.036 2.4 6.555 6.3 6.555 3.141 0 5.246-1.525 5.743-3.87h-3.3a2.468 2.468 0 0 1-2.387 1.268 2.813 2.813 0 0 1-2.925-3.116h8.7zm-8.7-1.2a2.753 2.753 0 0 1 2.793-2.66 2.558 2.558 0 0 1 2.635 2.66zm16.616 7.889c3.365 0 5.486-1.981 5.652-4.873h-3.273a2.284 2.284 0 0 1-2.345 2.113c-1.674 0-2.76-1.4-2.76-3.854 0-2.428 1.094-3.82 2.76-3.82a2.3 2.3 0 0 1 2.345 2.13h3.273c-.157-2.925-2.378-4.84-5.669-4.84-3.845 0-6.24 2.677-6.24 6.58-.001 3.872 2.344 6.566 6.256 6.566zm13.318-2.876c-.713-.025-1.21-.265-1.21-1.276v-6.214h2.4v-2.61h-2.4v-3.05h-3.472v3.05h-1.749v2.61h1.749v6.688c-.017 2.478 1.691 3.6 4.21 3.6a11.971 11.971 0 0 0 1.831-.124v-2.73c-.414.025-1.021.066-1.36.058zM568.95 8.6a1.833 1.833 0 0 0 1.89-1.76 1.894 1.894 0 0 0-3.779 0 1.833 1.833 0 0 0 1.889 1.76zm1.732 14.4V10.271h-3.472V23zm8.437.249c3.845 0 6.24-2.644 6.24-6.564 0-3.945-2.4-6.58-6.24-6.58s-6.257 2.635-6.257 6.58c0 3.915 2.403 6.564 6.257 6.564zm.017-2.693c-1.815 0-2.743-1.657-2.743-3.9s.928-3.9 2.743-3.9c1.773 0 2.7 1.674 2.7 3.9s-.927 3.899-2.701 3.899zm11.884-4.923a2.373 2.373 0 0 1 2.445-2.644 2.2 2.2 0 0 1 2.279 2.511V23h3.472v-8.1c0-2.975-1.732-4.79-4.384-4.79a3.843 3.843 0 0 0-3.829 2.4h-.149v-2.239h-3.307V23h3.472zm15.207-10.4-5.47 20.32h3l5.47-20.32zm10.7.8h-6.041V23h5.983c5.171 0 8.3-3.2 8.3-8.5-.006-5.29-3.13-8.472-8.244-8.472zm-2.519 13.948V9.052h2.329c3.207 0 4.906 1.666 4.906 5.445 0 3.8-1.7 5.478-4.923 5.478zM632.97 10.1c-3.381 0-5.3 1.74-5.5 3.953h3.29a1.925 1.925 0 0 1 2.13-1.409c1.285 0 2.014.613 2.022 1.691v1.028c-.53.017-2.254.091-3.157.149-2.445.157-4.732 1.077-4.732 3.928 0 2.511 1.807 3.8 4.235 3.8a3.906 3.906 0 0 0 3.721-2.006h.1V23h3.29v-8.577c-.004-3.067-2.623-4.323-5.399-4.323zm-.729 10.724c-1.111 0-1.9-.506-1.9-1.492s.762-1.55 1.972-1.649c.6-.058 2.1-.141 2.61-.166v.928a2.463 2.463 0 0 1-2.683 2.384zm14.287-.456c-.713-.025-1.21-.265-1.21-1.276v-6.211h2.4v-2.61h-2.4v-3.05h-3.472v3.05H640.1v2.61h1.749v6.688c-.017 2.478 1.691 3.6 4.21 3.6a11.971 11.971 0 0 0 1.831-.124v-2.73c-.418.025-1.023.066-1.362.058zm8.71-10.268c-3.381 0-5.3 1.74-5.5 3.953h3.29a1.925 1.925 0 0 1 2.13-1.409c1.285 0 2.014.613 2.022 1.691v1.028c-.53.017-2.254.091-3.157.149-2.445.157-4.732 1.077-4.732 3.928 0 2.511 1.807 3.8 4.235 3.8a3.906 3.906 0 0 0 3.721-2.006h.1V23h3.29v-8.577c-.004-3.067-2.623-4.323-5.399-4.323zm-.729 10.724c-1.111 0-1.9-.506-1.9-1.492s.762-1.55 1.972-1.649c.6-.058 2.1-.141 2.61-.166v.928a2.463 2.463 0 0 1-2.683 2.384zm22.3-4.218h3.671c-.05 2.138-1.5 3.5-3.9 3.5-2.71 0-4.442-2.022-4.442-5.61 0-3.564 1.782-5.577 4.4-5.577a3.488 3.488 0 0 1 3.6 2.577h3.588c-.472-3.348-3.423-5.7-7.251-5.7-4.475 0-7.914 3.232-7.914 8.735 0 5.37 3.224 8.7 7.989 8.7 4.276 0 7.334-2.71 7.334-7.169v-2.12h-7.077zm14.934-6.506c-3.381 0-5.3 1.74-5.5 3.953h3.29a1.925 1.925 0 0 1 2.13-1.409c1.285 0 2.014.613 2.022 1.691v1.028c-.53.017-2.254.091-3.157.149-2.445.157-4.732 1.077-4.732 3.928 0 2.511 1.807 3.8 4.235 3.8a3.906 3.906 0 0 0 3.721-2.006h.1V23h3.29v-8.577c-.004-3.067-2.623-4.323-5.399-4.323zm-.729 10.724c-1.111 0-1.9-.506-1.9-1.492s.762-1.55 1.972-1.649c.6-.058 2.1-.141 2.61-.166v.928a2.463 2.463 0 0 1-2.682 2.384zm12.232 6.945v-6.8h.108a3.777 3.777 0 0 0 3.622 2.238c2.909 0 5.171-2.3 5.171-6.555 0-4.359-2.354-6.547-5.171-6.547a3.753 3.753 0 0 0-3.622 2.3h-.154v-2.134h-3.423v17.5zm-.075-11.138c0-2.3.97-3.754 2.718-3.754 1.773 0 2.71 1.525 2.71 3.754 0 2.246-.953 3.8-2.71 3.8-1.732.008-2.718-1.508-2.718-3.796zm32.735 1.269a50.693 50.693 0 0 0 .854-10.21V5.671H721.2V8.05h12.56a46.222 46.222 0 0 1-.87 9.539zm-6.787-5.122h-2.967v7.334h-6.961v2.428h19.459v-2.424h-9.53zm25.815-4.425h-3.588v2.428h3.588v3.365h-3.646v2.445h3.646v8.619h2.975V3.815h-2.975zM743.671 13.8h6.555V5.6h-9.588v2.383h6.655v3.5h-6.6v8.95h1.682a56.4 56.4 0 0 0 9.191-.564l-.24-2.445a53.292 53.292 0 0 1-7.649.555z" transform="translate(30 36)"/>
            <g id="fc_textlink-3" data-name="fc_textlink" transform="translate(667 79)">
                <g id="stack-3" data-name="stack" transform="translate(-2524.094 20210)">
                    <g id="ico_fc_pop_up-3" data-name="ico_fc_pop_up" transform="translate(2421.503 -20209)">
                        <g id="그룹_1025-3" data-name="그룹 1025" transform="translate(-1101.074 -1125)">
                            <g id="그룹_1026-3" data-name="그룹 1026" transform="translate(1108.074 1129)">
                                <path id="사각형_878-3" data-name="사각형 878" class="cls-5" d="M0 0h9v9H0z"/>
                            </g>
                            <path id="패스_6896-3" data-name="패스 6896" class="cls-6" d="M1104.574 1132.941v9h9" transform="translate(.5 -.941)"/>
                        </g>
                    </g>
                    <path id="패스_11057" data-name="패스 11057" class="cls-7" d="M-11.981-7.669h-3.89v1.227h3.89v7.8h1.481v-14.032h-1.481zM-20-10.144h4.917v-1.226H-21.5v9.287h1.1a31.721 31.721 0 0 0 6.365-.464l-.165-1.215a30.034 30.034 0 0 1-5.8.442zM2.66-4.508h4.188v-7.21H5.373V-9.3H-1.5v-2.414h-1.486v7.21h4.177v2.873h-5.636v1.222H8.367v-1.226H2.66zm2.713-3.6v2.4H-1.5v-2.4zm14.16 9.436h1.492v-14h-1.492zM10.2-11.166v1.182h5.149c-.293 3.265-2.1 5.79-5.829 7.558l.785 1.2c4.807-2.293 6.547-5.845 6.558-9.939zM-22.7 2h45.4v1h-45.4z" transform="translate(2394.798 -20194)"/>
                </g>
            </g>
        </g>
        <g id="fc_box_big_no_btn-4" data-name="fc_box_big_no_btn" transform="translate(407 1944)">
            <g id="fc_start_end">
                <g transform="translate(-114 -1000)" style="filter:url(#area-2)">
                    <g id="area-4" data-name="area" class="cls-2" transform="translate(114 1000)">
                        <rect class="cls-10" width="1108" height="130" rx="65"/>
                        <rect class="cls-11" x="1" y="1" width="1106" height="128" rx="64"/>
                    </g>
                </g>
                <path id="패스_11060" data-name="패스 11060" class="cls-3" d="M464.866 6.028h-6.041V23h5.983c5.171 0 8.3-3.2 8.3-8.5-.008-5.29-3.129-8.472-8.242-8.472zm-2.519 13.948V9.052h2.329c3.207 0 4.906 1.666 4.906 5.445 0 3.8-1.7 5.478-4.923 5.478zm18.945 3.273c3.845 0 6.24-2.644 6.24-6.564 0-3.945-2.4-6.58-6.24-6.58s-6.257 2.635-6.257 6.58c0 3.915 2.403 6.564 6.256 6.564zm.017-2.693c-1.815 0-2.743-1.657-2.743-3.9s.928-3.9 2.743-3.9c1.773 0 2.7 1.674 2.7 3.9s-.928 3.899-2.701 3.899zm18.936-6.5c-.182-2.428-2.171-3.953-5.4-3.953-3.273 0-5.37 1.525-5.362 3.97-.008 1.881 1.235 3.133 3.671 3.613l2.1.414c1.193.249 1.724.655 1.732 1.318-.008.82-.845 1.318-2.1 1.318-1.285 0-2.088-.514-2.262-1.508h-3.481c.282 2.486 2.3 4.019 5.743 4.019 3.381 0 5.627-1.674 5.635-4.177-.008-1.84-1.2-2.942-3.663-3.448l-2.3-.464c-1.193-.257-1.641-.7-1.633-1.285-.008-.762.845-1.293 1.972-1.293A1.887 1.887 0 0 1 497 14.058zm12.936 0c-.182-2.428-2.171-3.953-5.4-3.953-3.273 0-5.37 1.525-5.362 3.97-.008 1.881 1.235 3.133 3.671 3.613l2.1.414c1.193.249 1.724.655 1.732 1.318-.008.82-.845 1.318-2.1 1.318-1.285 0-2.088-.514-2.262-1.508h-3.481c.282 2.486 2.3 4.019 5.743 4.019 3.381 0 5.627-1.674 5.635-4.177-.008-1.84-1.2-2.942-3.663-3.448l-2.3-.464c-1.193-.257-1.641-.7-1.633-1.285-.008-.762.845-1.293 1.972-1.293a1.887 1.887 0 0 1 2.088 1.475zm4.152-5.456a1.833 1.833 0 0 0 1.889-1.765 1.894 1.894 0 0 0-3.779 0 1.833 1.833 0 0 0 1.89 1.765zm1.732 14.4V10.271h-3.472V23zm14.312-6.439c0-4.343-2.635-6.456-5.975-6.456-3.729 0-6.157 2.66-6.157 6.588 0 4.036 2.4 6.555 6.3 6.555 3.141 0 5.246-1.525 5.743-3.87h-3.3a2.468 2.468 0 0 1-2.387 1.268 2.813 2.813 0 0 1-2.925-3.116h8.7zm-8.7-1.2a2.753 2.753 0 0 1 2.793-2.66 2.558 2.558 0 0 1 2.635 2.66zM539.029 23v-7.235a2.592 2.592 0 0 1 2.718-2.66 6.212 6.212 0 0 1 1.483.191V10.2a6.641 6.641 0 0 0-1.11-.108 3.1 3.1 0 0 0-3.066 2.4h-.133v-2.221h-3.365V23zm27.638-14V3.815h-3v12.878h3v-5.2h2.867V9zm-10.533 2.751a8.105 8.105 0 0 0 4.923 4.185l1.517-2.3c-3.448-1.119-4.956-3.671-4.964-6.174h4.26V5.075h-11.637v2.386h4.359A6.963 6.963 0 0 1 549.421 14L551 16.3a8.354 8.354 0 0 0 5.134-4.546zm7.533 8.238v5.171h3V17.6h-14.362v2.387zm24.8-3.663V3.815h-2.983v3.92h-4v2.445h4v6.149zm-11.362-4.89a7.834 7.834 0 0 0 4.74 4.177l1.591-2.337a6.513 6.513 0 0 1-4.89-6.555V4.934h-3.017v1.931a7.126 7.126 0 0 1-5.246 7.019l1.591 2.387a8.473 8.473 0 0 0 5.235-4.832zm4.069 5.436c-4.541 0-7.334 1.533-7.326 4.152-.008 2.635 2.785 4.135 7.326 4.127 4.558.008 7.343-1.492 7.351-4.127-.004-2.615-2.789-4.148-7.347-4.148zm0 5.95c-2.826.008-4.359-.613-4.351-1.8-.008-1.218 1.525-1.831 4.351-1.831s4.376.613 4.384 1.831c-.004 1.191-1.546 1.812-4.38 1.804z" transform="translate(30 50)"/>
            </g>
        </g>
    </g>
    <g id="fc_line" transform="translate(-293 -944)">
        <path id="세로" class="cls-9" transform="translate(1246 1534)" d="M0 0h1v50H0z"/>
        <path id="세로-2" data-name="세로" class="cls-9" transform="translate(961 1174)" d="M0 0h1v50H0z"/>
        <path id="세로-3" data-name="세로" class="cls-9" transform="translate(961 1354)" d="M0 0h1v50H0z"/>
        <path id="세로-4" data-name="세로" class="cls-9" transform="translate(675 1534)" d="M0 0h1v229H0z"/>
        <path id="세로-5" data-name="세로" class="cls-9" transform="translate(961 1894)" d="M0 0h1v50H0z"/>
        <path id="다각형_177" data-name="다각형 177" class="cls-9" d="M7.5 0 15 11H0z" transform="rotate(180 484.5 615)"/>
        <path id="다각형_178" data-name="다각형 178" class="cls-9" d="M7.5 0 15 11H0z" transform="rotate(180 484.5 705)"/>
        <path id="다각형_179" data-name="다각형 179" class="cls-9" d="M7.5 0 15 11H0z" transform="rotate(180 627 795)"/>
        <path id="다각형_180" data-name="다각형 180" class="cls-9" d="M7.5 0 15 11H0z" transform="rotate(180 341.5 885)"/>
        <path id="다각형_181" data-name="다각형 181" class="cls-9" d="M7.5 0 15 11H0z" transform="rotate(180 484.5 975)"/>
    </g>
    <g id="fc_yes" transform="translate(-142 298)">
        <g id="fc_yes-2" data-name="fc_yes" transform="translate(484.895 399.21)">
            <path id="사각형_515" data-name="사각형 515" class="cls-1" d="M0 0h77.188v22.265H0z"/>
            <path id="패스_11061" data-name="패스 11061" class="cls-3" d="M-22.641-5.912c3.055 0 5.188-1.232 5.188-3.171 0-1.972-2.133-3.227-5.188-3.227s-5.166 1.254-5.16 3.227c-.006 1.939 2.11 3.171 5.16 3.171zm0-4.807c1.923.006 3.127.591 3.127 1.635 0 1.022-1.2 1.6-3.127 1.6-1.906 0-3.116-.575-3.1-1.6-.016-1.043 1.194-1.629 3.1-1.634zM-29.1-4.834V-3.2h5.475v4.653h1.972V-3.2h5.553v-1.63zM-3.271-2.26v-10.508H-5.26v3.022h-2.663v1.613h2.663v5.873zm-7.635-5.022a5.45 5.45 0 0 0 3.144 2.917l1.082-1.552a4.52 4.52 0 0 1-3.254-4.425v-1.569h-2.011v1.552a4.786 4.786 0 0 1-3.4 4.762l1.072 1.569a5.618 5.618 0 0 0 3.367-3.254zm.182 3.917h-2.016v4.558h9.773V-.414h-7.757zM13.414-3.4a33.8 33.8 0 0 0 .569-6.807v-1.348H3.608v1.586h8.376a30.816 30.816 0 0 1-.58 6.359zM8.889-6.812H6.912v4.89H2.271V-.3h12.972v-1.623H8.889zM26.1-9.762h-2.393v1.619H26.1V-5.9h-2.431v1.63H26.1v5.745h1.983V-12.79H26.1zm-7.508 3.63h4.37V-11.6h-6.393v1.586h4.436v2.334H16.6v5.967h1.122a37.6 37.6 0 0 0 6.127-.376l-.16-1.63a35.529 35.529 0 0 1-5.1.37z" transform="translate(39.105 16.79)"/>
        </g>
    </g>
</svg>
