<svg id="flow_chart_4_2" xmlns="http://www.w3.org/2000/svg" width="1336" height="2410" viewBox="0 0 1336 2410">
    <defs>
        <filter id="box" x="865" y="734" width="366" height="148" filterUnits="userSpaceOnUse">
            <feOffset dy="3"/>
            <feGaussianBlur stdDeviation="3" result="blur"/>
            <feFlood flood-color="#111" flood-opacity=".102"/>
            <feComposite operator="in" in2="blur"/>
            <feComposite in="SourceGraphic"/>
        </filter>
        <filter id="box-2" x="105" y="734" width="366" height="148" filterUnits="userSpaceOnUse">
            <feOffset dy="3"/>
            <feGaussianBlur stdDeviation="3" result="blur-2"/>
            <feFlood flood-color="#111" flood-opacity=".102"/>
            <feComposite operator="in" in2="blur-2"/>
            <feComposite in="SourceGraphic"/>
        </filter>
        <filter id="box-3" x="485" y="914" width="366" height="148" filterUnits="userSpaceOnUse">
            <feOffset dy="3"/>
            <feGaussianBlur stdDeviation="3" result="blur-3"/>
            <feFlood flood-color="#111" flood-opacity=".102"/>
            <feComposite operator="in" in2="blur-3"/>
            <feComposite in="SourceGraphic"/>
        </filter>
        <filter id="box-4" x="485" y="1094" width="366" height="148" filterUnits="userSpaceOnUse">
            <feOffset dy="3"/>
            <feGaussianBlur stdDeviation="3" result="blur-4"/>
            <feFlood flood-color="#111" flood-opacity=".102"/>
            <feComposite operator="in" in2="blur-4"/>
            <feComposite in="SourceGraphic"/>
        </filter>
        <filter id="다각형_3" x="390" y="274" width="556" height="278" filterUnits="userSpaceOnUse">
            <feOffset dy="3"/>
            <feGaussianBlur stdDeviation="3" result="blur-5"/>
            <feFlood flood-color="#111" flood-opacity=".102"/>
            <feComposite operator="in" in2="blur-5"/>
            <feComposite in="SourceGraphic"/>
        </filter>
        <filter id="area" x="105" y="2174" width="1126" height="148" filterUnits="userSpaceOnUse">
            <feOffset dy="3"/>
            <feGaussianBlur stdDeviation="3" result="blur-6"/>
            <feFlood flood-color="#111" flood-opacity=".102"/>
            <feComposite operator="in" in2="blur-6"/>
            <feComposite in="SourceGraphic"/>
        </filter>
        <filter id="area-2" x="105" y="94" width="1126" height="148" filterUnits="userSpaceOnUse">
            <feOffset dy="3"/>
            <feGaussianBlur stdDeviation="3" result="blur-7"/>
            <feFlood flood-color="#111" flood-opacity=".102"/>
            <feComposite operator="in" in2="blur-7"/>
            <feComposite in="SourceGraphic"/>
        </filter>
        <filter id="box-5" x="105" y="1274" width="1126" height="148" filterUnits="userSpaceOnUse">
            <feOffset dy="3"/>
            <feGaussianBlur stdDeviation="3" result="blur-8"/>
            <feFlood flood-color="#111" flood-opacity=".102"/>
            <feComposite operator="in" in2="blur-8"/>
            <feComposite in="SourceGraphic"/>
        </filter>
        <filter id="box-6" x="105" y="1454" width="1126" height="148" filterUnits="userSpaceOnUse">
            <feOffset dy="3"/>
            <feGaussianBlur stdDeviation="3" result="blur-9"/>
            <feFlood flood-color="#111" flood-opacity=".102"/>
            <feComposite operator="in" in2="blur-9"/>
            <feComposite in="SourceGraphic"/>
        </filter>
        <filter id="box-7" x="105" y="1814" width="1126" height="148" filterUnits="userSpaceOnUse">
            <feOffset dy="3"/>
            <feGaussianBlur stdDeviation="3" result="blur-10"/>
            <feFlood flood-color="#111" flood-opacity=".102"/>
            <feComposite operator="in" in2="blur-10"/>
            <feComposite in="SourceGraphic"/>
        </filter>
        <filter id="box-8" x="105" y="1994" width="1126" height="148" filterUnits="userSpaceOnUse">
            <feOffset dy="3"/>
            <feGaussianBlur stdDeviation="3" result="blur-11"/>
            <feFlood flood-color="#111" flood-opacity=".102"/>
            <feComposite operator="in" in2="blur-11"/>
            <feComposite in="SourceGraphic"/>
        </filter>
        <filter id="box-9" x="105" y="1634" width="1126" height="148" filterUnits="userSpaceOnUse">
            <feOffset dy="3"/>
            <feGaussianBlur stdDeviation="3" result="blur-12"/>
            <feFlood flood-color="#111" flood-opacity=".102"/>
            <feComposite operator="in" in2="blur-12"/>
            <feComposite in="SourceGraphic"/>
        </filter>
        <filter id="box-10" x="485" y="734" width="366" height="148" filterUnits="userSpaceOnUse">
            <feOffset dy="3"/>
            <feGaussianBlur stdDeviation="3" result="blur-13"/>
            <feFlood flood-color="#111" flood-opacity=".102"/>
            <feComposite operator="in" in2="blur-13"/>
            <feComposite in="SourceGraphic"/>
        </filter>
        <style>
            .cls-1{fill:#f8f8f8}.cls-4{stroke:#999;stroke-width:2px}.cls-3{fill:#333}.cls-4{fill:#fff}.cls-6{fill:red;opacity:0}.cls-12,.cls-7{fill:none}.cls-7{stroke:#326f5e;stroke-width:1.5px}.cls-8{fill:#326f5e}.cls-10{fill:#999}.cls-11{stroke:none}
        </style>
    </defs>
    <path id="bg" class="cls-1" d="M0 0h1336v2410H0z"/>
    <g id="fc_box_small_no_btn" transform="translate(874 740)">
        <g transform="translate(-874 -740)" style="filter:url(#box)">
            <g id="box-11" data-name="box" style="stroke:#999;stroke-width:2px;fill:#eee">
                <path class="cls-11" d="M0 0h348v130H0z" transform="translate(874 740)"/>
                <path class="cls-12" d="M1 1h346v128H1z" transform="translate(874 740)"/>
            </g>
        </g>
        <path id="패스_11141" data-name="패스 11141" class="cls-3" d="M108.155 6.776c1.133 1.747 3.356 3.046 6.367 3.453l.912-1.961c-3.936-.449-6.008-2.521-6-4.385V3.3h-2.569v.587c-.007 1.878-2.086 3.936-6.036 4.385l.953 1.961c3.018-.411 5.233-1.703 6.373-3.457zm-8.115 6.388h16.215V11.21H100.04zm8.073 1.2c-3.888-.007-6.222 1.14-6.222 3.232 0 2.051 2.334 3.218 6.222 3.225 3.847-.007 6.181-1.174 6.195-3.225-.014-2.09-2.348-3.237-6.195-3.23zm0 4.551c-2.459.007-3.695-.407-3.681-1.319-.014-.925 1.222-1.34 3.681-1.354 2.417.014 3.688.428 3.695 1.354s-1.278 1.328-3.695 1.321zm21.6-15.877v12.778h2.5V3.04zm-2.39 5.608a4.874 4.874 0 0 0-9.717 0 4.872 4.872 0 0 0 9.717 0zm-7.279 0a2.412 2.412 0 0 1 4.82 0 2.411 2.411 0 0 1-4.82 0zm2.776 5.877h-2.52v5.967h12.383v-2.01h-9.862zm29.423 6.277h2.357V3.012h-2.355zM146.29 9.117v2h2.341v8.854h2.334V3.309h-2.334v5.808zm-1.43-2.286h2.693v-2h-8.011v2h2.914v.946c0 3.025-.974 6.215-3.591 7.831l1.506 1.837a8.275 8.275 0 0 0 3.315-4.841 7.518 7.518 0 0 0 3.232 4.434l1.457-1.83c-2.6-1.485-3.522-4.468-3.515-7.431zm24.123 14.012h2.479V3.012h-2.479zm-5.463-8.184a4.312 4.312 0 0 0 3.695-4.227c-.014-2.548-2.106-4.351-4.938-4.358-2.8.007-4.938 1.809-4.931 4.358a4.311 4.311 0 0 0 3.688 4.227v2.5c-1.6.048-3.115.055-4.427.055l.283 2.01a61.265 61.265 0 0 0 11.271-.787l-.186-1.8c-1.436.2-2.949.331-4.454.414zm-3.7-4.227a2.208 2.208 0 0 1 2.459-2.217 2.232 2.232 0 1 1-2.459 2.217zm31.623 1.45h-1.713V3.323h-2.286v16.609h2.286V11.88h1.713v8.92h2.357V3.012h-2.355zm-10.007-2.8h4.137v-2h-6.637v11.687h1.243a32.3 32.3 0 0 0 6.4-.49l-.186-2.03a29.27 29.27 0 0 1-4.959.435zm28.4-4.068h-2.5v10.551h2.5V9.242h2.389V7.177h-2.389zm-8.854 6.443a6.574 6.574 0 0 0 3.971 3.391l1.319-1.941a5.249 5.249 0 0 1-4.068-5.09V3.965h-2.493v1.61a5.926 5.926 0 0 1-4.247 5.815l1.34 1.954a6.831 6.831 0 0 0 4.175-3.888zM204 13.931c-3.743-.007-6.091 1.271-6.084 3.419-.007 2.189 2.341 3.453 6.084 3.446 3.688.007 6-1.257 6-3.446 0-2.15-2.315-3.426-6-3.419zm0 4.917c-2.327-.007-3.6-.483-3.591-1.5-.007-.96 1.264-1.478 3.591-1.478s3.543.518 3.543 1.478c-.003 1.017-1.232 1.493-3.543 1.5z" transform="translate(18 53)"/>
    </g>
    <g id="fc_box_small" transform="translate(114 740)">
        <g transform="translate(-114 -740)" style="filter:url(#box-2)">
            <g id="box-12" data-name="box" class="cls-4">
                <path class="cls-11" d="M0 0h348v130H0z" transform="translate(114 740)"/>
                <path class="cls-12" d="M1 1h346v128H1z" transform="translate(114 740)"/>
            </g>
        </g>
        <path id="패스_11138" data-name="패스 11138" class="cls-3" d="M106.076 3.04v12.977h2.5V3.04zm-6.851 6.547a6.851 6.851 0 0 0 4.178 3.695l1.271-1.961a5.645 5.645 0 0 1-4.174-5.594V4.014h-2.58v1.713a6.047 6.047 0 0 1-4.289 5.9l1.3 1.968a7.1 7.1 0 0 0 4.294-4.008zm-.041 5.166h-2.521v5.739h12.383v-2.01h-9.862zm25.449-3.087a38.406 38.406 0 0 0 .477-6.471V4h-12.19v2.023h9.751a30.336 30.336 0 0 1-.559 5.642h-11.119v2.01h3.688V20.8h2.493v-7.125h3.695V20.8h2.479v-7.125h3.86v-2.01zM147 3.012h-2.5v9.158h2.5V8.537h2.389V6.493H147zM138.2 8.4a6.413 6.413 0 0 0 4.033 3.294l1.267-1.927c-2.838-.815-4.1-2.825-4.081-5V3.648h-2.507V4.78a5.51 5.51 0 0 1-4.247 5.387l1.215 1.982A6.854 6.854 0 0 0 138.2 8.4zm8.8 9.2v-4.76h-11.8v1.927h9.309v1.043h-9.282v4.869h12.279v-1.962h-9.82V17.6zm16.1-8.2v4.51h2.362V3.04H163.1v4.337h-1.492V3.351h-2.314v10h2.314V9.4zm-8.4.47a5.767 5.767 0 0 0 3.2 2.942l1.326-1.906a4.884 4.884 0 0 1-3.349-4.71V4.1h-2.424v2.1a5.646 5.646 0 0 1-3.508 5.256l1.34 1.927A6.349 6.349 0 0 0 154.7 9.87zm4.682 4.282c-3.764 0-6.16 1.243-6.146 3.315-.014 2.072 2.383 3.336 6.146 3.329s6.16-1.257 6.167-3.329-2.415-3.315-6.165-3.315zm0 4.765c-2.327.007-3.667-.483-3.66-1.45s1.333-1.457 3.66-1.45 3.653.5 3.66 1.45-1.342 1.457-3.658 1.45zm10.1-15.373v5.6h12.155v-5.6zm2.445 3.674V5.471h7.217v1.747zm11.773 2.866h-16.215v1.954h6.823v1.14h-4.952v1.878h9.9v.919h-9.886v4.7h12.811V18.8h-10.366v-1.07h9.9v-4.552h-4.91v-1.14h6.895zm3.08-6.54v5.6h12.155v-5.6zm2.445 3.674V5.471h7.217v1.747zm11.768 2.866h-16.215v1.954h6.822v1.14h-4.952v1.878h9.9v.919h-9.889v4.7h12.811V18.8h-10.362v-1.07h9.9v-4.552H194.1v-1.14h6.892zm13.453-7.072v9.13h2.472v-9.13zm-6.671 5.677a6.653 6.653 0 0 0 4.3 3.28l1.181-1.92c-2.728-.711-4.068-2.445-4.24-4.22h3.557V3.841H202.8V5.83h3.653c-.18 1.906-1.54 3.771-4.3 4.544l1.133 1.961a6.833 6.833 0 0 0 4.489-3.646zm-.283 8.909h9.454v-4.744h-11.927v1.885h9.441v1.077h-9.4v4.862h12.37v-1.92h-9.938z" transform="translate(18 53)"/>
    </g>
    <g id="fc_box_small-2" data-name="fc_box_small" transform="translate(494 920)">
        <g transform="translate(-494 -920)" style="filter:url(#box-3)">
            <g id="box-13" data-name="box" class="cls-4">
                <path class="cls-11" d="M0 0h348v130H0z" transform="translate(494 920)"/>
                <path class="cls-12" d="M1 1h346v128H1z" transform="translate(494 920)"/>
            </g>
        </g>
        <path id="패스_11142" data-name="패스 11142" class="cls-3" d="M73.8 3.544v5.6h12.152v-5.6zm2.445 3.674V5.471h7.217v1.747zm11.765 2.866H71.794v1.954h6.823v1.14h-4.951v1.878h9.9v.919H73.68v4.7h12.81V18.8H76.124v-1.07h9.9v-4.552h-4.91v-1.14h6.896zm13.453-7.072v9.13h2.472v-9.13zm-6.672 5.677a6.653 6.653 0 0 0 4.3 3.28l1.181-1.92C97.54 9.338 96.2 7.6 96.028 5.83h3.557V3.841h-9.773V5.83h3.653c-.18 1.906-1.54 3.771-4.3 4.544l1.135 1.962a6.833 6.833 0 0 0 4.491-3.647zm-.283 8.911h9.454v-4.746H92.036v1.885h9.441v1.077h-9.4v4.862h12.369v-1.92h-9.938zm24.6-10.822c1.133 1.747 3.356 3.046 6.367 3.453l.912-1.961c-3.936-.449-6.008-2.521-6-4.385V3.3h-2.569v.587c-.007 1.878-2.086 3.936-6.036 4.385l.953 1.961c3.016-.411 5.233-1.703 6.373-3.457zm-8.115 6.388h16.215V11.21h-16.215zm8.073 1.2c-3.888-.007-6.222 1.14-6.222 3.232 0 2.051 2.334 3.218 6.222 3.225 3.847-.007 6.181-1.174 6.195-3.225-.014-2.092-2.348-3.239-6.195-3.232zm0 4.551c-2.459.007-3.695-.407-3.681-1.319-.014-.925 1.222-1.34 3.681-1.354 2.417.014 3.688.428 3.695 1.354s-1.278 1.326-3.695 1.319zm21.6-15.877v12.776h2.5V3.04zm-2.389 5.608a4.874 4.874 0 0 0-9.717 0 4.872 4.872 0 0 0 9.717 0zm-7.279 0a2.412 2.412 0 0 1 4.82 0 2.411 2.411 0 0 1-4.82 0zm2.776 5.877h-2.521v5.967h12.383v-2.01h-9.862zm28.8-11.485v12.977h2.5V3.04zm-6.851 6.547a6.851 6.851 0 0 0 4.178 3.695l1.271-1.961a5.645 5.645 0 0 1-4.171-5.594V4.014h-2.583v1.713a6.047 6.047 0 0 1-4.289 5.9l1.3 1.968a7.1 7.1 0 0 0 4.288-4.008zm-.041 5.166h-2.521v5.739h12.383v-2.01h-9.862zm17.155-4.662a6.556 6.556 0 0 0 4.254 3.08l1.167-1.92c-2.859-.739-4.2-2.59-4.22-4.413h3.577V4.877h-3.55V2.95h-2.514v1.927h-3.577v1.961h3.577c-.021 2.017-1.34 4.033-4.185 4.848l1.167 1.948a6.563 6.563 0 0 0 4.297-3.543zm4.254-.3h2.894v3.985h2.486V3.012h-2.486v4.779h-2.894zm-.7 4.282c-3.771 0-6.112 1.2-6.1 3.336s2.334 3.4 6.1 3.391 6.119-1.243 6.126-3.391-2.346-3.34-6.13-3.34zm0 4.834c-2.355-.007-3.633-.525-3.626-1.5-.007-.953 1.271-1.436 3.626-1.43 2.4-.007 3.646.477 3.653 1.43-.011.971-1.254 1.493-3.657 1.493zm26.057 1.9h2.348V3.012h-2.348zm-5.5-13.094a19.454 19.454 0 0 0 .166-2.576h-6.961v2h4.5c-.345 3.488-1.934 6.077-5.525 8.211l1.457 1.747a12.19 12.19 0 0 0 5.953-7.362h2.2v2.4h-2.521v2.017h2.521v5.856h2.355V3.42h-2.355v4.289zm16.837-3.37V2.9H211.3v1.438h-4.006v1.81h10.532v-1.81zm5.3 10.725h2.528V3.054h-2.528zm-1.1-2.756a61.178 61.178 0 0 1-4.2.359v-.856c1.948-.262 3.211-1.195 3.218-2.562-.007-1.644-1.816-2.7-4.441-2.693-2.693-.007-4.468 1.05-4.454 2.693-.014 1.367 1.222 2.293 3.191 2.562v.953a178.25 178.25 0 0 1-4.537.048l.325 1.885a67.715 67.715 0 0 0 11.077-.711zM210.5 9.249c0-.691.787-1.036 2.058-1.036 1.215 0 2.051.345 2.058 1.036-.007.649-.843.988-2.058.981-1.268.006-2.058-.33-2.058-.981zm8.584 8.425V20.8h2.528v-5.039h-12.359v1.913zM236.5 8.613h-3.481v2.01h3.481v10.221h2.465V3.012H236.5zm-5.8-4.227h-2.535v2.66c-.014 3.343-1.409 6.775-4.448 8.156l1.561 2.023a8.568 8.568 0 0 0 4.164-5.242 8.051 8.051 0 0 0 4.047 4.917L235 14.919c-2.956-1.278-4.3-4.53-4.3-7.873z" transform="translate(18 53)"/>
    </g>
    <g id="fc_box_small-3" data-name="fc_box_small" transform="translate(494 1100)">
        <g transform="translate(-494 -1100)" style="filter:url(#box-4)">
            <g id="box-14" data-name="box" class="cls-4">
                <path class="cls-11" d="M0 0h348v130H0z" transform="translate(494 1100)"/>
                <path class="cls-12" d="M1 1h346v128H1z" transform="translate(494 1100)"/>
            </g>
        </g>
        <path id="패스_11143" data-name="패스 11143" class="cls-3" d="M117.333 4.559V2.874h-2.479v1.685h-3.826v1.962h9.872V4.559zm6.153 2.258H121.1v2h2.383v1.506h-2.424v2h2.424v1.291h2.486V3.012h-2.486zm-3.2 3.446c-.014-1.913-1.775-3.232-4.213-3.232-2.459 0-4.178 1.319-4.164 3.232-.014 1.927 1.706 3.225 4.164 3.225 2.434.001 4.195-1.297 4.209-3.224zm-6.057 0c-.007-.884.718-1.374 1.844-1.374s1.892.49 1.9 1.374-.787 1.423-1.9 1.423-1.855-.524-1.848-1.422zm2.251 5.325v-1.312h-2.493V20.6h11.989v-6.324H123.5v1.312zm0 3.087v-1.236h7.02v1.236zm24.258-15.663v17.832h2.479V3.012zm-6.706 1.195c-2.8 0-4.938 1.816-4.931 4.365s2.134 4.365 4.931 4.365c2.831 0 4.924-1.809 4.938-4.365-.014-2.549-2.107-4.365-4.938-4.365zm0 2.155a2.228 2.228 0 1 1 0 4.42 2.223 2.223 0 1 1 0-4.42zM128.645 17.2a60.177 60.177 0 0 0 11.271-.8l-.186-1.8a86.45 86.45 0 0 1-11.367.573zm29.938 3.6h2.355V3.012h-2.355zm-5.7-11.036V11.8h2.093v8.177h2.334V3.309h-2.334v6.458zm-1.754-1.74h2.8v-2H151.1v-2.4h-2.327v2.4h-2.863v2h2.866v.407c-.014 2.749-.967 5.642-3.536 7.134l1.43 1.872a7.707 7.707 0 0 0 3.294-4.42 6.893 6.893 0 0 0 3.287 3.992l1.367-1.823c-2.528-1.36-3.5-4.054-3.494-6.754zm30.207 3.6a30.883 30.883 0 0 0 .463-5.967v-1.6h-12.456v1.987h9.972a27.815 27.815 0 0 1-.5 5.58h-11.33v2.01h6.768v7.182h2.514v-7.182h6.933v-2.01zm18.425 1.816V3.012h-2.486v3.267h-3.336v2.037h3.336v5.124zm-9.468-4.075a6.528 6.528 0 0 0 3.95 3.481l1.326-1.948a5.427 5.427 0 0 1-4.075-5.463v-1.49h-2.514v1.609a5.938 5.938 0 0 1-4.38 5.846l1.326 1.989a7.061 7.061 0 0 0 4.363-4.023zm3.391 4.53c-3.785 0-6.112 1.278-6.1 3.46s2.32 3.446 6.1 3.439 6.119-1.243 6.126-3.439-2.332-3.455-6.13-3.455zm0 4.959c-2.355.007-3.633-.511-3.626-1.5-.007-1.015 1.271-1.526 3.626-1.526s3.646.511 3.653 1.526c-.011.99-1.296 1.508-3.657 1.501z" transform="translate(18 53)"/>
    </g>
    <g id="fc_diamond_link" transform="translate(399 280)">
        <g transform="translate(-399 -280)" style="filter:url(#다각형_3)">
            <g id="다각형_3-2" data-name="다각형 3" style="fill:#fff">
                <path class="cls-11" d="M269 258.89 2.298 130 269 1.11 535.702 130 269 258.89z" transform="translate(399 280)"/>
                <path d="M269 2.221 4.596 130 269 257.779 533.404 130 269 2.221M269 0l269 130-269 130L0 130 269 0z" style="fill:#999;stroke:none" transform="translate(399 280)"/>
            </g>
        </g>
        <g id="fc_textlink" transform="translate(386 137)">
            <g id="stack" transform="translate(-2524.094 20210)">
                <g id="ico_fc_pdf" transform="translate(2474.094 -20210)">
                    <g id="그룹_1025" data-name="그룹 1025" transform="translate(-1101.5 -1126.5)">
                        <path id="패스_6892" data-name="패스 6892" class="cls-7" d="M1108.592 1130.5h7.714l4.286 4.286v7.714h-12z" transform="translate(-3.092)"/>
                        <path id="패스_6891" data-name="패스 6891" class="cls-7" d="M1052.728 2115.047v5h5" transform="translate(59.772 -984.547)"/>
                    </g>
                </g>
                <path id="패스_11135" data-name="패스 11135" class="cls-8" d="M-68.119-10.022a7.079 7.079 0 0 0 5.1 2.945l.552-1.171c-2.663-.331-4.9-1.939-4.9-3.613v-.586h-1.525v.586c0 1.707-2.227 3.282-4.923 3.613l.575 1.171a7.047 7.047 0 0 0 5.121-2.945zm-6.392 5.144h12.762v-1.183h-12.762zm6.365 1.2C-71.185-3.691-73-2.8-73-1.182c0 1.6 1.818 2.5 4.856 2.508 3.017-.011 4.829-.912 4.84-2.508-.014-1.618-1.826-2.509-4.842-2.498zm0 3.84c-2.138.011-3.359-.459-3.348-1.343-.011-.884 1.21-1.359 3.348-1.37 2.116.011 3.348.486 3.359 1.37C-64.8-.3-66.03.171-68.146.16zm17.6-12.823v10.175h1.486v-10.177zm-6.116 7.9a3.486 3.486 0 0 0 3.718-3.481 3.493 3.493 0 0 0-3.718-3.464A3.5 3.5 0 0 0-60.4-8.249a3.5 3.5 0 0 0 3.734 3.481zm-2.276-3.481a2.135 2.135 0 0 1 2.276-2.171A2.144 2.144 0 0 1-54.4-8.249a2.145 2.145 0 0 1-2.265 2.188 2.136 2.136 0 0 1-2.277-2.188zm2.21 4.729h-1.492v4.552h9.569V-.177h-8.077zm24.388 4.839h1.409v-14h-1.409zm-5.011-9.039v1.2h2.182V.619h1.4v-12.995h-1.4v4.663zm-1.37-2.177h2.414v-1.21h-6.409v1.21h2.564v1.122c0 2.492-1.011 5.039-2.994 6.243l.917 1.1a7.059 7.059 0 0 0 2.812-4.243 6.514 6.514 0 0 0 2.746 3.917l.884-1.094a6.7 6.7 0 0 1-2.934-5.923zm19.713 11.244h1.481v-14.028h-1.481zm-4.8-6.53a3.325 3.325 0 0 0 3.077-3.276c-.011-1.967-1.6-3.326-3.812-3.337-2.2.011-3.823 1.37-3.812 3.337a3.305 3.305 0 0 0 3.065 3.27v2.271c-1.354.039-2.635.044-3.74.044l.182 1.221a50.537 50.537 0 0 0 9.077-.608l-.116-1.083c-1.26.188-2.6.3-3.923.365zm-3.083-3.276a2.1 2.1 0 0 1 2.348-2.05 2.124 2.124 0 0 1 2.365 2.05A2.127 2.127 0 0 1-24.544-6.4a2.1 2.1 0 0 1-2.348-2.053zm17.16-3.773v4.315h9.485v-4.315zm1.453 3.149v-1.978h6.552v1.978zm9.68 2.2h-12.764V-5.7h5.619v1.23h-4.1v1.133h8.166v1.072h-8.138v3.458h10V.044h-8.547v-1.232h8.144V-4.47h-4.039V-5.7H1.4zm11.2-5.8v7.243h1.464v-7.243zM6.931-8.564a5.519 5.519 0 0 0 3.519 2.9l.718-1.144c-2.177-.619-3.514-2.2-3.514-3.906h3.083v-1.2H3.008v1.2h3.149a4.62 4.62 0 0 1-3.535 4.173l.685 1.171a5.682 5.682 0 0 0 3.624-3.194zm-.569 7.238h7.724V-4.79h-9.21v1.144h7.734v1.238H4.92v3.6h9.624V.022H6.362zm24.851-11.348h-1.486v8.448h1.486v-3.686h2.027v-1.237h-2.027zm-6.89 4.624a5.583 5.583 0 0 0 3.3 3.011l.79-1.166a4.588 4.588 0 0 1-3.381-4.227v-1.514h-1.47v1.387A5.013 5.013 0 0 1 20.1-5.823l.8 1.177a5.766 5.766 0 0 0 3.423-3.404zm2.365 4.15c-2.906 0-4.7.961-4.7 2.591 0 1.663 1.79 2.608 4.7 2.608C29.572 1.3 31.34.359 31.34-1.3c0-1.634-1.768-2.6-4.652-2.6zm0 4.033c-2.022-.006-3.221-.509-3.21-1.433-.011-.89 1.188-1.414 3.21-1.414s3.2.525 3.2 1.414c-.001.924-1.188 1.427-3.2 1.438zM44.66 1.326h1.425v-14H44.66zM39.6-7.751v1.232h2.182V.635h1.4V-12.4h-1.4v4.652zM38.312-11.4h-1.436v2.613a7.023 7.023 0 0 1-3.022 6.05l.928 1.1a6.975 6.975 0 0 0 2.834-4.116 6.471 6.471 0 0 0 2.674 3.819l.834-1.149a6.729 6.729 0 0 1-2.812-5.768zm16.674 6.892h4.188v-7.21H57.7V-9.3h-6.874v-2.414H49.34v7.21h4.177v2.873h-5.636v1.222h12.812v-1.226h-5.707zM57.7-8.11v2.4h-6.874v-2.4zm14.16 9.436h1.492v-14h-1.493zm-9.332-12.492v1.182h5.149c-.293 3.265-2.1 5.79-5.829 7.558l.785 1.2c4.807-2.293 6.547-5.845 6.558-9.939zM-75.03 2H75.03v1H-75.03z" transform="translate(2395.094 -20194)"/>
            </g>
        </g>
        <path id="패스_11134" data-name="패스 11134" d="M44.124 3.815h-3V14.8h3v-4.355h2.867V7.992h-2.867zm-10.566 6.464a7.7 7.7 0 0 0 4.84 3.953l1.525-2.312c-3.406-.978-4.914-3.389-4.9-6V4.577h-3.006v1.359a6.612 6.612 0 0 1-5.1 6.464l1.459 2.378a8.225 8.225 0 0 0 5.182-4.499zm10.566 11.039v-5.71H29.97v2.312h11.171v1.251H30v5.843h14.738V22.66H32.953v-1.342zm19.318-9.837v5.412h2.834V3.848h-2.834v5.2h-1.79V4.221h-2.776v12h2.776v-4.74zm-10.077.564a6.92 6.92 0 0 0 3.837 3.53l1.591-2.287a5.861 5.861 0 0 1-4.019-5.652V5.124h-2.909v2.511a6.775 6.775 0 0 1-4.21 6.307l1.608 2.312a7.619 7.619 0 0 0 4.102-4.21zm5.619 5.138c-4.517 0-7.392 1.492-7.376 3.978-.017 2.486 2.859 4 7.376 3.994 4.5.008 7.392-1.508 7.4-3.994-.008-2.487-2.901-3.979-7.401-3.979zm0 5.718c-2.793.008-4.4-.58-4.392-1.74-.008-1.144 1.6-1.749 4.392-1.74 2.776-.008 4.384.6 4.392 1.74-.009 1.159-1.616 1.748-4.393 1.739zM71.108 4.453v6.721h14.585V4.453zm2.934 4.409v-2.1H82.7v2.1zM88.163 12.3H68.7v2.345h8.188v1.367H70.95v2.254h11.884v1.1H70.967v5.644H86.34v-2.25H73.9v-1.285h11.885v-5.461h-5.893v-1.368h8.271zm3.7-7.848v6.721h14.586v-6.72zm2.934 4.409v-2.1h8.66v2.1zm14.117 3.439H89.456v2.345h8.188v1.367H91.7v2.254h11.884v1.1H91.718v5.644h15.373v-2.25H94.652v-1.285h11.884v-5.461h-5.892v-1.368h8.271zm16.144-8.486v10.957h2.967V3.815zm-8.006 6.812a7.984 7.984 0 0 0 5.155 3.936l1.417-2.3c-3.273-.854-4.881-2.934-5.088-5.064h4.264V4.809h-11.723V7.2h4.384c-.215 2.287-1.848 4.525-5.163 5.453L111.657 15a8.2 8.2 0 0 0 5.395-4.373zm-.34 10.691h11.345v-5.693h-14.311v2.262h11.329v1.294H113.8v5.834h14.843v-2.3h-11.93zm29.52-12.986c1.359 2.1 4.028 3.655 7.641 4.144l1.094-2.354c-4.724-.539-7.21-3.025-7.2-5.262v-.7h-3.083v.7c-.008 2.254-2.5 4.724-7.243 5.262l1.144 2.354c3.615-.489 6.28-2.039 7.647-4.144zM136.494 16h19.459v-2.348h-19.459zm9.688 1.442c-4.666-.008-7.467 1.367-7.467 3.878 0 2.461 2.8 3.862 7.467 3.87 4.616-.008 7.417-1.409 7.434-3.87-.016-2.513-2.816-3.889-7.434-3.881zm0 5.461c-2.95.008-4.434-.489-4.417-1.583-.017-1.11 1.467-1.608 4.417-1.624 2.9.017 4.425.514 4.434 1.624-.008 1.092-1.533 1.589-4.434 1.58zM172.1 3.848V19.18h3V3.848zm-2.867 6.729c0-3.124-2.552-5.378-5.826-5.378s-5.843 2.254-5.834 5.378c-.008 3.174 2.561 5.412 5.834 5.412s5.822-2.238 5.822-5.412zm-8.735 0a2.895 2.895 0 0 1 5.785 0 2.893 2.893 0 0 1-5.785 0zm3.331 7.052H160.8v7.16h14.86v-2.411h-11.834zm35.312-5.569h-2.055V4.188h-2.746v19.931h2.743v-9.663h2.055v10.707h2.826V3.815h-2.826zM187.13 8.7h4.964V6.3h-7.964v14.03h1.492a38.764 38.764 0 0 0 7.682-.588l-.224-2.442a35.124 35.124 0 0 1-5.95.522zm34.077-4.881h-3v12.659h3V11.29h2.867V8.812h-2.867zm-10.624 7.732a7.889 7.889 0 0 0 4.765 4.069l1.583-2.329c-3.373-1.036-4.881-3.522-4.881-6.108V4.959h-2.992V6.89a7.112 7.112 0 0 1-5.1 6.978l1.608 2.345a8.2 8.2 0 0 0 5.017-4.666zm3.622 5.37c-4.492-.008-7.309 1.525-7.3 4.1-.008 2.627 2.809 4.144 7.3 4.135 4.425.008 7.2-1.508 7.2-4.135.001-2.579-2.775-4.112-7.205-4.104zm0 5.9c-2.793-.008-4.318-.58-4.309-1.8-.008-1.152 1.517-1.773 4.309-1.773 2.776 0 4.251.622 4.251 1.773 0 1.217-1.475 1.788-4.256 1.797zm31.4-14.61h-4.674a5.008 5.008 0 0 0-4.483-2.884c-3.24 0-5.552 2.95-5.544 7.591-.008 4.691 2.3 7.624 5.544 7.624a5.094 5.094 0 0 0 4.7-3.323h4.452v8h2.959V3.815H245.6zm-9.157 9.622c-1.591 0-2.685-1.724-2.677-4.914-.008-3.157 1.086-4.89 2.677-4.89 1.608 0 2.677 1.732 2.685 4.89-.009 3.181-1.078 4.91-2.686 4.91zm5.378-3.008a12.64 12.64 0 0 0 .141-1.906 12.441 12.441 0 0 0-.207-2.3h3.84v4.2zM265.5 4.652V7.1h-8.967V4.652h-2.95v9.414h14.909V4.652zm-8.967 7.028V9.45h8.967v2.23zm-5.233 4.45v2.345h8.213v6.688h2.959v-6.688h8.337V16.13z" transform="translate(120 94)" style="fill:#111"/>
    </g>
    <g id="fc_start_end" transform="translate(114 2180)">
        <g transform="translate(-114 -2180)" style="filter:url(#area)">
            <g id="area-3" data-name="area" class="cls-4" transform="translate(114 2180)">
                <rect class="cls-11" width="1108" height="130" rx="65"/>
                <rect class="cls-12" x="1" y="1" width="1106" height="128" rx="64"/>
            </g>
        </g>
        <path id="패스_11147" data-name="패스 11147" class="cls-3" d="M435.459 8.331c1.359 2.1 4.028 3.655 7.641 4.144l1.094-2.354c-4.724-.539-7.21-3.025-7.2-5.262v-.7h-3.083v.7c-.008 2.254-2.5 4.724-7.243 5.262l1.144 2.354c3.619-.489 6.279-2.039 7.647-4.144zM425.721 16h19.459v-2.348h-19.459zm9.688 1.442c-4.666-.008-7.467 1.367-7.467 3.878 0 2.461 2.8 3.862 7.467 3.87 4.616-.008 7.417-1.409 7.434-3.87-.017-2.513-2.818-3.889-7.434-3.881zm0 5.461c-2.95.008-4.434-.489-4.417-1.583-.017-1.11 1.467-1.608 4.417-1.624 2.9.017 4.425.514 4.434 1.624-.009 1.092-1.534 1.589-4.434 1.58zm25.914-19.055V19.18h3V3.848zm-2.867 6.729c0-3.124-2.552-5.378-5.826-5.378s-5.843 2.254-5.834 5.378c-.008 3.174 2.561 5.412 5.834 5.412s5.826-2.238 5.826-5.412zm-8.735 0a2.895 2.895 0 0 1 5.785 0 2.893 2.893 0 0 1-5.785 0zm3.331 7.052h-3.025v7.16h14.859v-2.411h-11.834zm36.53-5.586V3.815h-2.992v21.348h2.992V14.572h3.149v-2.528zm-8.975-6.58h-2.992v3.192c-.008 3.961-1.715 8.039-5.32 9.7l1.831 2.428a10.307 10.307 0 0 0 5-6.215 9.73 9.73 0 0 0 4.715 5.8l1.807-2.378c-3.423-1.657-5.055-5.511-5.039-9.331zm24.091.572V3.8h-2.958v2.236h-7.3v2.4h17.51v-2.4zm-1.475 10.533c4.591 0 7.351-1.293 7.359-3.638-.008-2.378-2.768-3.663-7.359-3.663s-7.367 1.285-7.359 3.663c-.008 2.346 2.76 3.639 7.36 3.639zm0-5.088c2.826 0 4.243.464 4.26 1.45-.017.961-1.434 1.425-4.26 1.417-2.851.008-4.26-.456-4.251-1.417-.008-.985 1.401-1.449 4.252-1.449zm-9.713 6.133v2.42h8.229v5.147h2.961v-5.147h8.32v-2.42zm37.923-13.8h-3.058v15.98h3.058v-6.97h2.594v-2.494h-2.594zm-5.7 9.149a35.464 35.464 0 0 0 .489-6.257V5.373h-10.99v2.436h8.055a28.489 28.489 0 0 1-.5 4.881zm1.492.878c-2.005.29-4.185.456-6.315.547V10.3h-2.975v4.185c-1.417.025-2.76.033-3.953.033l.257 2.378a76.835 76.835 0 0 0 13.135-.9zm-10.11 4.525v6.425H532.1v-2.412h-11.987v-4.011zm32.793 6.845h2.975V3.815h-2.975zM539.24 13.834h7.036V5.613h-10.135v2.412h7.086v3.456h-7.069v8.735h1.914a57.731 57.731 0 0 0 10.566-.754l-.257-2.428a55.32 55.32 0 0 1-9.141.721zm37.094-3.3h-4.177v2.412h4.177v12.267h2.959V3.815h-2.959zm-6.961-5.072h-3.041v3.193c-.017 4.011-1.691 8.13-5.337 9.787l1.873 2.428a10.282 10.282 0 0 0 5-6.29 9.661 9.661 0 0 0 4.856 5.9l1.807-2.378c-3.547-1.533-5.163-5.436-5.155-9.448zm27.505-1.649v21.4h3.022V3.815zM583.113 5.53v14.685h10.533V5.53H590.7v5.18h-4.6V5.53zm2.992 7.508h4.6v4.749h-4.6zm26.337-2.2a10.881 10.881 0 0 0 7.856 5.569l1.318-2.486c-4.831-.82-7.6-4.16-7.591-7.293V5.1h-3.191v1.533c-.017 3.1-2.8 6.448-7.541 7.293l1.285 2.486a11.062 11.062 0 0 0 7.864-5.569zm-9.638 11.7h19.508v-2.455H602.8z" transform="translate(30 50)"/>
    </g>
    <path id="세로" class="cls-10" transform="translate(668 539)" d="M0 0h1v50H0z"/>
    <path id="세로-2" data-name="세로" class="cls-10" transform="translate(289 690)" d="M0 0h1v50H0z"/>
    <path id="세로-3" data-name="세로" class="cls-10" transform="translate(289 870)" d="M0 0h1v410H0z"/>
    <path id="세로-4" data-name="세로" class="cls-10" transform="translate(668 690)" d="M0 0h1v50H0z"/>
    <path id="세로-5" data-name="세로" class="cls-10" transform="translate(668 870)" d="M0 0h1v50H0z"/>
    <path id="세로-6" data-name="세로" class="cls-10" transform="translate(668 1050)" d="M0 0h1v50H0z"/>
    <path id="세로-7" data-name="세로" class="cls-10" transform="translate(668 1230)" d="M0 0h1v50H0z"/>
    <path id="세로-8" data-name="세로" class="cls-10" transform="translate(668 229)" d="M0 0h1v50H0z"/>
    <g id="fc_start_end-2" data-name="fc_start_end" transform="translate(114 100)">
        <g transform="translate(-114 -100)" style="filter:url(#area-2)">
            <g id="area-4" data-name="area" class="cls-4" transform="translate(114 100)">
                <rect class="cls-11" width="1108" height="130" rx="65"/>
                <rect class="cls-12" x="1" y="1" width="1106" height="128" rx="64"/>
            </g>
        </g>
        <path id="패스_11133" data-name="패스 11133" class="cls-3" d="M302.219 3.815h-3V14.8h3v-4.355h2.867V7.992h-2.867zm-10.566 6.464a7.7 7.7 0 0 0 4.84 3.953l1.525-2.312c-3.406-.978-4.914-3.389-4.9-6V4.577h-3.008v1.359a6.612 6.612 0 0 1-5.1 6.464l1.459 2.378a8.225 8.225 0 0 0 5.184-4.499zm10.566 11.039v-5.71h-14.154v2.312h11.171v1.251H288.1v5.843h14.735V22.66h-11.787v-1.342zm19.318-9.837v5.412h2.834V3.848h-2.834v5.2h-1.79V4.221h-2.776v12h2.776v-4.74zm-10.077.564a6.92 6.92 0 0 0 3.837 3.53l1.591-2.287a5.861 5.861 0 0 1-4.019-5.652V5.124h-2.909v2.511a6.775 6.775 0 0 1-4.21 6.307l1.608 2.312a7.619 7.619 0 0 0 4.102-4.21zm5.619 5.138c-4.517 0-7.392 1.492-7.376 3.978-.017 2.486 2.859 4 7.376 3.994 4.5.008 7.392-1.508 7.4-3.994-.008-2.487-2.9-3.979-7.4-3.979zm0 5.718c-2.793.008-4.4-.58-4.392-1.74-.008-1.144 1.6-1.749 4.392-1.74 2.776-.008 4.384.6 4.392 1.74-.008 1.159-1.616 1.748-4.392 1.739zM329.2 4.453v6.721h14.586V4.453zm2.934 4.409v-2.1h8.66v2.1zm14.124 3.438H326.8v2.345h8.188v1.367h-5.942v2.254h11.884v1.1h-11.868v5.644h15.373v-2.25H332v-1.285h11.88v-5.461h-5.892v-1.368h8.271zm16.9 12.862h2.826V3.815h-2.826zm-7.144-14.022v2.4h2.809v10.629h2.8v-20h-2.8v6.97zM354.3 8.4h3.232V6h-9.613v2.4h3.5v1.133c0 3.63-1.169 7.459-4.309 9.4l1.807 2.2a9.93 9.93 0 0 0 3.978-5.809 9.022 9.022 0 0 0 3.878 5.32l1.749-2.2c-3.116-1.782-4.227-5.362-4.218-8.917zm15.854 1.657v2.4h15.721v-2.4h-2.635V6.815h2.776v-2.4h-16v2.4h2.768v3.24zm5.611 0V6.815h4.467v3.24zm12 3.762H368.3v2.361h8.213v1.831h-5.959v6.912h14.867v-6.912h-5.931V16.18h8.271zM373.5 22.528v-2.2h9.008v2.2zm31.177 2.635h2.859V3.815h-2.859zm-6.149-13.45c-.323-3.97-2.088-6.365-4.657-6.365-2.809 0-4.641 2.942-4.633 7.707-.008 4.807 1.823 7.765 4.633 7.757 2.635.008 4.425-2.528 4.682-6.713h1.715v10.078h2.826V4.146h-2.826v7.566zm-4.657 6.232c-1.193.008-1.9-1.6-1.881-4.889-.017-3.257.688-4.89 1.881-4.881 1.235-.008 1.964 1.624 1.964 4.881-.002 3.289-.735 4.897-1.966 4.889zm38.3-5.9v-8.23h-2.992v21.348h2.992V14.572h3.149v-2.528zm-8.975-6.58H420.2v3.19c-.008 3.961-1.715 8.039-5.32 9.7l1.831 2.428a10.307 10.307 0 0 0 5-6.215 9.73 9.73 0 0 0 4.715 5.8l1.807-2.378c-3.423-1.657-5.055-5.511-5.039-9.331zm27.87 5.934c1.591-.688 2.494-1.757 2.5-3.149-.008-2.569-3.033-4.11-7.757-4.119-4.74.008-7.773 1.55-7.765 4.119-.008 1.367.878 2.436 2.428 3.124v2.569h-4.376v2.387h19.459v-2.388h-4.492zm-5.254-4.964c2.983 0 4.674.622 4.674 1.815s-1.691 1.773-4.674 1.773c-3.008 0-4.674-.588-4.657-1.773-.024-1.195 1.645-1.816 4.65-1.816zm-2.312 5.71a18.3 18.3 0 0 0 2.312.133 17.858 17.858 0 0 0 2.279-.133v1.8H443.5zm2.287 5.3c-4.666-.008-7.467 1.367-7.467 3.837 0 2.5 2.8 3.862 7.467 3.854 4.616.008 7.417-1.351 7.434-3.854-.021-2.475-2.821-3.851-7.441-3.843zm0 5.461c-2.95.008-4.434-.547-4.417-1.624-.017-1.069 1.467-1.566 4.417-1.583 2.9.017 4.425.514 4.434 1.583-.015 1.072-1.54 1.627-4.441 1.618zm27.887-10.724V3.815h-2.959v21.348h2.959V14.638h3.149v-2.461zm-12.115-8.027v2.851h-4.831V9.4h12.539V7h-4.724V4.155zm1.492 6.439c-3.149 0-5.47 2.113-5.461 5.088-.008 2.983 2.312 5.08 5.461 5.088a5.1 5.1 0 1 0 0-10.177zm0 7.724a2.447 2.447 0 0 1-2.594-2.635 2.591 2.591 0 1 1 5.18 0 2.462 2.462 0 0 1-2.586 2.635zm29.436 6.845h3.025V3.815h-3.025zm-13.682-19.1v2.343h7.268c-.481 4.74-2.909 8.1-8.412 10.715l1.558 2.378c7.624-3.6 9.9-8.975 9.9-15.439zm40.086 19.086h2.967V3.848h-2.967zm-8.064-11.378c3.265.017 5.635-1.865 5.635-4.517 0-2.693-2.37-4.55-5.635-4.541-3.24-.008-5.61 1.848-5.594 4.541-.016 2.646 2.354 4.531 5.594 4.514zm0-6.663c1.649-.008 2.793.779 2.8 2.146-.008 1.326-1.152 2.1-2.8 2.088-1.583.008-2.718-.762-2.71-2.088-.008-1.37 1.127-2.154 2.71-2.154zM517.6 14.3a96.99 96.99 0 0 1-13.674.779l.365 2.436c1.533-.017 3.307-.033 5.18-.108v7.119h3v-7.3a48.274 48.274 0 0 0 5.337-.721zm14.859-8.213V3.815h-2.983v2.271h-4.848v2.353h12.663V6.086zm9.1-2.238h-3v15.927h3V12.84h2.867v-2.453h-2.867zM530.965 17.4c3.083.008 5.246-1.616 5.246-4.069 0-2.478-2.163-4.135-5.246-4.135-3.116 0-5.3 1.657-5.3 4.135-.004 2.451 2.184 4.075 5.3 4.069zm-2.387-4.069c0-1.193.953-1.848 2.387-1.856 1.425.008 2.4.663 2.412 1.856-.008 1.169-.986 1.8-2.412 1.8s-2.386-.631-2.386-1.802zm-.862 5.213v6.246h14.6v-2.412H530.7v-3.837zm40.128-14.729h-3V14.8h3v-4.355h2.867V7.992h-2.867zm-10.566 6.464a7.7 7.7 0 0 0 4.84 3.953l1.525-2.312c-3.406-.978-4.914-3.389-4.9-6V4.577h-3.008v1.359a6.612 6.612 0 0 1-5.1 6.464l1.459 2.378a8.225 8.225 0 0 0 5.183-4.499zm10.566 11.039v-5.71h-14.155v2.312h11.171v1.251h-11.138v5.843h14.735V22.66h-11.785v-1.342zm19.318-9.837v5.412H590V3.848h-2.834v5.2h-1.79V4.221H582.6v12h2.776v-4.74zm-10.077.564a6.92 6.92 0 0 0 3.837 3.53l1.591-2.287a5.861 5.861 0 0 1-4.019-5.652V5.124h-2.909v2.511a6.775 6.775 0 0 1-4.21 6.307l1.608 2.312a7.619 7.619 0 0 0 4.101-4.21zm5.619 5.138c-4.517 0-7.392 1.492-7.376 3.978-.017 2.486 2.859 4 7.376 3.994 4.5.008 7.392-1.508 7.4-3.994-.004-2.487-2.904-3.979-7.404-3.979zm0 5.718c-2.793.008-4.4-.58-4.392-1.74-.008-1.144 1.6-1.749 4.392-1.74 2.776-.008 4.384.6 4.392 1.74-.009 1.159-1.617 1.748-4.396 1.739zm12.123-18.448v6.721h14.586V4.453zm2.934 4.409v-2.1h8.66v2.1zm14.121 3.438h-19.458v2.345h8.188v1.367h-5.942v2.254h11.884v1.1h-11.868v5.644h15.373v-2.25H597.62v-1.285h11.88v-5.461h-5.892v-1.368h8.271zm3.7-7.848v6.721h14.586v-6.72zm2.934 4.409v-2.1h8.66v2.1zm14.118 3.439h-19.459v2.345h8.188v1.367h-5.942v2.254h11.884v1.1h-11.867v5.644h15.373v-2.25h-12.44v-1.285h11.884v-5.461h-5.892v-1.368h8.271zm16.144-8.486v10.957h2.967V3.815zm-8.006 6.812a7.984 7.984 0 0 0 5.155 3.936l1.417-2.3c-3.273-.854-4.881-2.934-5.088-5.064h4.268V4.809H634.8V7.2h4.384c-.215 2.287-1.848 4.525-5.163 5.453L635.377 15a8.2 8.2 0 0 0 5.395-4.373zm-.34 10.691h11.345v-5.693h-14.312v2.262h11.329v1.294h-11.279v5.834h14.843v-2.3h-11.926zm35.387 3.845h2.826V3.815h-2.826zm-7.144-14.022v2.4h2.809v10.629h2.8v-20h-2.8v6.97zM666.96 8.4h3.232V6h-9.613v2.4h3.5v1.133c0 3.63-1.169 7.459-4.309 9.4l1.807 2.2a9.93 9.93 0 0 0 3.978-5.809 9.022 9.022 0 0 0 3.878 5.32l1.749-2.2c-3.116-1.782-4.227-5.362-4.218-8.917zm15.97 8.039c3.68-.671 6.414-2.552 7.765-5.13 1.376 2.528 4.144 4.351 7.881 5.006l1.185-2.362c-4.575-.671-7.235-3.265-7.492-6.083h6.5V5.448H682.59v2.42h6.489c-.257 2.826-2.9 5.494-7.326 6.207zm9.273-.945h-3v4.757h-8.238v2.428h19.508v-2.43H692.2zm17.756-1.252a1.525 1.525 0 0 0 1.488 1.608 1.488 1.488 0 0 0 1.512-1.608 1.463 1.463 0 0 0-1.488-1.584 1.509 1.509 0 0 0-1.512 1.582zm22.256-5.005c1.392 2.312 4.127 4.044 7.856 4.575l1.168-2.412c-4.881-.6-7.45-3.39-7.45-5.909V4.453h-3.141v1.036c-.008 2.519-2.569 5.3-7.417 5.909l1.177 2.412c3.692-.531 6.414-2.263 7.806-4.575zm-9.738 6.191v2.436h8.188v7.3h2.959v-7.3h8.312v-2.439zm35.6-11.61v11.475h3V3.815zm-8.693.9c-3.331-.008-5.843 2.072-5.834 5.064-.008 2.917 2.5 5 5.834 5s5.826-2.08 5.826-5c.001-3-2.501-5.082-5.824-5.072zm0 2.494a2.578 2.578 0 0 1 2.876 2.569c0 1.591-1.21 2.536-2.876 2.544-1.707-.008-2.925-.953-2.909-2.544-.015-1.607 1.203-2.581 2.911-2.581zm-2.569 9.025v8.693h14.262v-8.701H758.1v1.981h-8.337v-1.981zm2.942 4.3h8.343V22.5h-8.337z" transform="translate(30 50)"/>
    </g>
    <path id="사각형_514" data-name="사각형 514" class="cls-10" transform="translate(479 589)" d="M0 0h570v1H0z"/>
    <path id="사각형_915" data-name="사각형 915" class="cls-10" transform="translate(289 689)" d="M0 0h380v1H0z"/>
    <path id="세로-9" data-name="세로" class="cls-10" transform="translate(1048 589)" d="M0 0h1v151H0z"/>
    <path id="세로-10" data-name="세로" class="cls-10" transform="translate(479 589)" d="M0 0h1v100H0z"/>
    <g id="fc_yes" transform="translate(1018.381 628.21)">
        <g id="그룹_1842" data-name="그룹 1842" transform="translate(-494.381 -399.21)">
            <g id="fc_yes-2" data-name="fc_yes" transform="translate(494.381 399.21)">
                <path id="사각형_515" data-name="사각형 515" class="cls-1" d="M0 0h60.155v22.265H0z"/>
                <path id="패스_11136" data-name="패스 11136" class="cls-3" d="M-10.442-12.79V1.475h2.017V-12.79zm-9.177 1.144v9.79h7.019v-9.79h-1.961v3.453h-3.066v-3.453zm1.994 5.006h3.066v3.166h-3.066zm21.537-.653H2.541v-5.249H.713V.746h1.828V-5.7h1.37v7.142H5.8V-12.79H3.912zm-8.006-2.243h3.309v-1.6h-5.309v9.354h.994a25.843 25.843 0 0 0 5.122-.395L-.127-3.8a23.416 23.416 0 0 1-3.967.348zm22.718-3.254h-2v8.442h2v-3.459h1.912v-1.652h-1.912zm-7.083 5.155a5.259 5.259 0 0 0 3.177 2.713l1.055-1.552a4.2 4.2 0 0 1-3.254-4.072v-1.481h-1.994v1.287a4.741 4.741 0 0 1-3.4 4.652L8.2-4.525a5.465 5.465 0 0 0 3.341-3.11zm2.414 3.58c-2.994-.006-4.872 1.016-4.867 2.735-.005 1.751 1.873 2.762 4.868 2.756 2.95.006 4.8-1.006 4.8-2.757.001-1.718-1.85-2.74-4.8-2.734zm0 3.934c-1.862-.006-2.878-.387-2.873-1.2-.005-.767 1.012-1.179 2.874-1.179s2.834.414 2.834 1.182c0 .81-.983 1.191-2.834 1.196z" transform="translate(29.619 16.79)"/>
            </g>
        </g>
    </g>
    <g id="fc_yes-3" data-name="fc_yes" transform="translate(455.988 628.21)">
        <g id="그룹_1842-2" data-name="그룹 1842" transform="translate(-500.989 -399.21)">
            <g id="fc_yes-4" data-name="fc_yes" transform="translate(500.989 399.21)">
                <path id="사각형_515-2" data-name="사각형 515" class="cls-1" d="M0 0h46.63v22.232H0z"/>
                <path id="패스_11137" data-name="패스 11137" class="cls-3" d="M-3.006-7.293h-1.37v-5.249H-6.2V.746h1.829V-5.7h1.37v7.142h1.884V-12.79h-1.889zm-8.006-2.243H-7.7v-1.6h-5.309v9.354h.994A25.843 25.843 0 0 0-6.9-2.177L-7.044-3.8a23.416 23.416 0 0 1-3.967.348zm22.719-3.254h-2v8.442h2v-3.459h1.912v-1.652h-1.912zM4.624-7.635A5.259 5.259 0 0 0 7.8-4.923l1.056-1.552A4.2 4.2 0 0 1 5.6-10.547v-1.481H3.608v1.287A4.741 4.741 0 0 1 .21-6.088l1.072 1.563a5.465 5.465 0 0 0 3.342-3.11zm2.414 3.58C4.044-4.061 2.166-3.039 2.171-1.32 2.166.431 4.044 1.442 7.039 1.436c2.95.006 4.8-1.006 4.8-2.757.001-1.718-1.85-2.74-4.8-2.734zm0 3.934C5.177-.127 4.16-.508 4.166-1.32 4.16-2.088 5.177-2.5 7.039-2.5s2.834.414 2.834 1.182c0 .81-.984 1.191-2.834 1.196z" transform="translate(23.011 16.79)"/>
            </g>
        </g>
    </g>
    <g id="fc_yes-5" data-name="fc_yes" transform="translate(235.055 1064.21)">
        <g id="그룹_1842-3" data-name="그룹 1842" transform="translate(-469.055 -399.21)">
            <g id="fc_yes-6" data-name="fc_yes" transform="translate(469.055 399.21)">
                <path id="사각형_515-3" data-name="사각형 515" class="cls-1" d="M0 0h110.044v22.249H0z"/>
                <path id="패스_11144" data-name="패스 11144" class="cls-3" d="M-34.425-7.4h-1.3v-5.017h-1.855V.807h1.851V-5.8h1.3v7.242h1.917V-12.79h-1.917zm-9.8-3.63v1.6h3.691a7.959 7.959 0 0 1-4.409 6.564l1.143 1.38c4.017-2.326 5.2-5.575 5.2-9.541zm23.287 4.138v1.425h1.983v-7.323h-1.983v1.818h-2.619v-1.2h-1.973v1.669h-2.8v-1.669h-2v6.3h6.773v-1.017zm0-1.508h-2.619v-1.086h2.619zm-7.392.961v-1.567h2.8v1.569zm1.928 6.3h7.448v-3.8h-9.466V-3.4h7.481v.8H-28.4v3.882h9.867V-.287H-26.4zm19.485-8.64a6.992 6.992 0 0 0 5.094 2.762l.729-1.569C-4.243-8.945-5.9-10.6-5.9-12.094v-.47h-2.05v.47c-.006 1.5-1.669 3.149-4.829 3.508l.762 1.569a6.986 6.986 0 0 0 5.1-2.762zm-6.492 5.11H-.436v-1.563h-12.973zm6.459.961c-3.11-.006-4.978.912-4.978 2.586 0 1.641 1.867 2.575 4.978 2.58 3.077-.006 4.945-.939 4.956-2.58C-2.006-2.8-3.873-3.713-6.95-3.707zm0 3.641c-1.967.006-2.956-.325-2.95-1.055-.011-.74.978-1.072 2.945-1.083 1.934.011 2.95.343 2.956 1.083S-5.017-.061-6.95-.066zm17.276-12.7v10.22h2v-10.221zM8.414-8.282a3.657 3.657 0 0 0-3.884-3.585A3.658 3.658 0 0 0 .641-8.282 3.655 3.655 0 0 0 4.53-4.674a3.654 3.654 0 0 0 3.884-3.608zm-5.823 0a1.79 1.79 0 0 1 1.939-1.851 1.8 1.8 0 0 1 1.918 1.851A1.794 1.794 0 0 1 4.53-6.409a1.789 1.789 0 0 1-1.939-1.873zm2.221 4.7H2.8v4.775h9.9V-.414H4.812zm20.9-4.707h2.238v2.746h1.983v-7.247h-1.988v2.928h-2.238zm-3.459.171a5.282 5.282 0 0 0 3.32 2.58l.913-1.562c-2.166-.624-3.2-2.116-3.243-3.541h2.829v-1.591h-7.713v1.591h2.873a4.464 4.464 0 0 1-3.414 3.862l.982 1.541a5.526 5.526 0 0 0 3.449-2.878zm.232 6.967h7.448v-3.843h-9.469v1.574h7.481v.812h-7.464V1.3h9.867V-.249h-7.867zM43-7.26v-5.53h-1.994V1.442H43v-7.033h2.1V-7.26zm-6.077-1.618h2.906v-1.586h-2.89v-2h-2.005v2h-2.928v1.586h2.939v.552a6.071 6.071 0 0 1-3.436 5.58L32.6-1.2a6.4 6.4 0 0 0 3.35-3.855 6.247 6.247 0 0 0 3.171 3.608l1.11-1.508a5.9 5.9 0 0 1-3.309-5.37z" transform="translate(54.945 16.79)"/>
            </g>
        </g>
    </g>
    <g id="fc_box_big_no_btn" transform="translate(114 1280)">
        <g transform="translate(-114 -1280)" style="filter:url(#box-5)">
            <g id="box-15" data-name="box" class="cls-4">
                <path class="cls-11" d="M0 0h1108v130H0z" transform="translate(114 1280)"/>
                <path class="cls-12" d="M1 1h1106v128H1z" transform="translate(114 1280)"/>
            </g>
        </g>
        <path id="패스_11145" data-name="패스 11145" class="cls-3" d="M497.191 11.97V3.815H494.2v21.348h2.992v-10.7h3.149V11.97zm-8.95-3.646h4.293V5.878h-11.819v2.445h4.517v1.31c-.017 3.53-1.807 7.5-5.362 9.157l1.74 2.362a10.573 10.573 0 0 0 5.171-6.373A10.017 10.017 0 0 0 491.8 20.6l1.666-2.345a9.492 9.492 0 0 1-5.221-8.627zm27.622 8.735h3.017v-2.413h-12.53v-2.37h12.033V5.207h-15.05v2.4h12.091V9.9h-12.059v7.16h2.751v3.273h-5v2.445h19.508v-2.447h-4.765zm-2.942 0v3.273h-3.9v-3.274zm16.434-3.622c3.978-.439 6.622-2.113 7.749-4.309 1.127 2.2 3.787 3.87 7.782 4.309l1.1-2.345c-4.21-.472-6.423-2.254-6.771-3.994h5.892V4.743h-15.936V7.1h5.851c-.348 1.732-2.536 3.522-6.746 3.994zm-1.972 3.406h8.528v3.671h2.959v-3.671h8.022v-2.4h-19.511zm2.287 1.782v6.165h15.075v-2.412h-12.093v-3.754zm33.313-14.81v21.4h3.025v-21.4zM549.218 5.53v14.685h10.533V5.53h-2.942v5.18h-4.6V5.53zm2.992 7.508h4.6v4.749h-4.6z" transform="translate(30 51)"/>
    </g>
    <g id="fc_box_big_no_btn-2" data-name="fc_box_big_no_btn" transform="translate(114 1460)">
        <g transform="translate(-114 -1460)" style="filter:url(#box-6)">
            <g id="box-16" data-name="box" class="cls-4">
                <path class="cls-11" d="M0 0h1108v130H0z" transform="translate(114 1460)"/>
                <path class="cls-12" d="M1 1h1106v128H1z" transform="translate(114 1460)"/>
            </g>
        </g>
        <path id="패스_11146" data-name="패스 11146" class="cls-3" d="M459.251 4.453v6.721h14.586V4.453zm2.934 4.409v-2.1h8.66v2.1zm14.122 3.438h-19.459v2.345h8.188v1.367h-5.942v2.254h11.884v1.1h-11.867v5.644h15.373v-2.25h-12.44v-1.285h11.884v-5.461h-5.892v-1.368h8.271zm16.143-8.485v10.956h2.967V3.815zm-8.006 6.812a7.983 7.983 0 0 0 5.155 3.936l1.417-2.3c-3.273-.854-4.881-2.934-5.088-5.064h4.272v-2.39h-11.73V7.2h4.384c-.215 2.287-1.848 4.525-5.163 5.453L479.05 15a8.2 8.2 0 0 0 5.395-4.373zm-.34 10.691h11.346v-5.694h-14.312v2.262h11.329v1.294h-11.279v5.834h14.842v-2.3H484.1zm29.52-12.987c1.359 2.1 4.028 3.655 7.641 4.144l1.094-2.354c-4.724-.539-7.21-3.025-7.2-5.262v-.7h-3.083v.7c-.008 2.254-2.5 4.724-7.243 5.262l1.144 2.354c3.623-.489 6.28-2.039 7.647-4.144zM503.887 16h19.459v-2.348h-19.459zm9.688 1.442c-4.666-.008-7.467 1.367-7.467 3.878 0 2.461 2.8 3.862 7.467 3.87 4.616-.008 7.417-1.409 7.434-3.87-.017-2.513-2.818-3.889-7.434-3.881zm0 5.461c-2.95.008-4.434-.489-4.417-1.583-.017-1.11 1.467-1.608 4.417-1.624 2.9.017 4.425.514 4.434 1.624-.009 1.092-1.534 1.589-4.434 1.58zm25.914-19.055V19.18h3V3.848zm-2.867 6.729c0-3.124-2.552-5.378-5.826-5.378s-5.843 2.254-5.834 5.378c-.008 3.174 2.561 5.412 5.834 5.412s5.826-2.238 5.826-5.412zm-8.735 0a2.895 2.895 0 0 1 5.785 0 2.893 2.893 0 0 1-5.785 0zm3.331 7.052h-3.025v7.16h14.859v-2.411h-11.834zm34.558-13.781V19.42h3V3.848zm-8.221 7.852a8.221 8.221 0 0 0 5.014 4.434l1.525-2.354a6.773 6.773 0 0 1-5.006-6.713v-2.05h-3.1v2.055a7.257 7.257 0 0 1-5.146 7.077l1.558 2.362a8.522 8.522 0 0 0 5.155-4.811zm-.05 6.2h-3.025v6.89h14.86v-2.412h-11.835zm20.586-5.594a7.867 7.867 0 0 0 5.1 3.7l1.4-2.3c-3.431-.887-5.039-3.108-5.064-5.3h4.293V6.052h-4.26V3.74h-3.01v2.312h-4.293v2.354h4.293c-.025 2.42-1.608 4.84-5.022 5.818l1.4 2.337a7.875 7.875 0 0 0 5.163-4.252zm5.1-.365h3.472v4.782h2.983V3.815h-2.983V9.55H583.2zm-.837 5.138c-4.525 0-7.334 1.442-7.326 4-.008 2.577 2.8 4.077 7.326 4.069 4.541.008 7.343-1.492 7.351-4.069-.005-2.554-2.805-3.996-7.346-3.996zm0 5.8c-2.826-.008-4.359-.63-4.351-1.8-.008-1.144 1.525-1.724 4.351-1.715 2.884-.008 4.376.572 4.384 1.715-.003 1.175-1.495 1.797-4.379 1.805z" transform="translate(30 51)"/>
    </g>
    <g id="fc_box_big_no_btn-3" data-name="fc_box_big_no_btn" transform="translate(114 1820)">
        <g transform="translate(-114 -1820)" style="filter:url(#box-7)">
            <g id="box-17" data-name="box" class="cls-4">
                <path class="cls-11" d="M0 0h1108v130H0z" transform="translate(114 1820)"/>
                <path class="cls-12" d="M1 1h1106v128H1z" transform="translate(114 1820)"/>
            </g>
        </g>
        <path id="패스_11149" data-name="패스 11149" class="cls-3" d="M425.356 4.453v6.721h14.586V4.453zm2.934 4.409v-2.1h8.66v2.1zm14.122 3.438h-19.459v2.345h8.188v1.367H425.2v2.254h11.884v1.1h-11.869v5.644h15.373v-2.25h-12.439v-1.285h11.884v-5.461h-5.892v-1.368h8.271zm16.144-8.486v10.957h2.967V3.815zm-8.006 6.812a7.983 7.983 0 0 0 5.155 3.936l1.417-2.3c-3.273-.854-4.881-2.934-5.088-5.064h4.266V4.809h-11.725V7.2h4.384c-.215 2.287-1.848 4.525-5.163 5.453L445.155 15a8.2 8.2 0 0 0 5.395-4.373zm-.34 10.691h11.345v-5.693h-14.312v2.262h11.329v1.294h-11.279v5.834h14.843v-2.3H450.21zm31-9.249h6.041V9.724h-11.922V7.1h11.818V4.768h-14.8v7.3h5.934v1.823h-8.287v2.37h19.492v-2.37h-8.271zm-1.533 5.254c-4.657 0-7.467 1.409-7.467 3.945 0 2.494 2.809 3.912 7.467 3.92 4.633-.008 7.417-1.425 7.434-3.92-.011-2.535-2.799-3.944-7.431-3.944zm0 5.577c-2.95.008-4.434-.522-4.417-1.633-.017-1.1 1.467-1.666 4.417-1.666 2.9 0 4.425.564 4.434 1.666-.011 1.112-1.531 1.643-4.431 1.634zm16.4-13.193V6.8H507.9V4.4h-14.8v7.682h14.909V9.707zm-5.337 6.307h19.492v-2.436h-19.489zm9.688 1.285c-4.657 0-7.467 1.409-7.467 3.912 0 2.528 2.809 3.953 7.467 3.945 4.633.008 7.417-1.417 7.434-3.945-.014-2.503-2.798-3.91-7.431-3.91zm0 5.586c-2.95-.008-4.434-.539-4.417-1.674-.017-1.077 1.467-1.633 4.417-1.641 2.9.008 4.425.564 4.434 1.641-.006 1.135-1.531 1.666-4.431 1.674zm29.039-6.555V3.815h-2.983v3.92h-4v2.445h4v6.149zm-11.362-4.89a7.834 7.834 0 0 0 4.74 4.177l1.591-2.337a6.513 6.513 0 0 1-4.889-6.555v-1.79h-3.017v1.931a7.126 7.126 0 0 1-5.246 7.019l1.591 2.387a8.473 8.473 0 0 0 5.233-4.832zm4.069 5.436c-4.541 0-7.334 1.533-7.326 4.152-.008 2.635 2.785 4.135 7.326 4.127 4.558.008 7.343-1.492 7.351-4.127-.006-2.618-2.79-4.151-7.348-4.151zm0 5.95c-2.826.008-4.359-.613-4.351-1.8-.008-1.218 1.525-1.831 4.351-1.831s4.376.613 4.384 1.831c-.006 1.188-1.547 1.809-4.381 1.801zm23.536-17.42V3.666h-2.983v1.74H538.1v2.171h12.2V5.406zm9.116 4.541v-6.1h-2.992v14.497h2.992V12.4h2.735V9.948zm-3.986 5.072c-1.633.2-3.381.34-5.13.423v-1.1c2.271-.34 3.7-1.467 3.7-3.091-.008-1.972-2.08-3.191-5.221-3.182-3.157-.008-5.238 1.21-5.229 3.182-.008 1.641 1.442 2.776 3.762 3.1v1.2c-1.848.05-3.622.058-5.188.058l.307 2.312a79.952 79.952 0 0 0 13.21-.845zm-9.017-3.771c-.008-.82.854-1.193 2.37-1.193 1.5 0 2.354.373 2.362 1.193-.008.779-.862 1.235-2.362 1.227-1.513.009-2.375-.446-2.367-1.225zM551.837 21.5v3.663h2.992v-5.975h-14.578V21.5zm21.547-17.652V19.18h3V3.848zm-2.867 6.729c0-3.124-2.552-5.378-5.826-5.378s-5.843 2.254-5.834 5.378c-.008 3.174 2.561 5.412 5.834 5.412s5.826-2.238 5.826-5.412zm-8.735 0a2.895 2.895 0 0 1 5.785 0 2.893 2.893 0 0 1-5.785 0zm3.331 7.052h-3.025v7.16h14.859v-2.411h-11.834zm34.558-13.781V19.42h3V3.848zM591.45 11.7a8.221 8.221 0 0 0 5.014 4.434l1.525-2.354a6.773 6.773 0 0 1-5.006-6.713v-2.05h-3.1v2.055a7.257 7.257 0 0 1-5.146 7.077l1.558 2.362a8.522 8.522 0 0 0 5.155-4.811zm-.05 6.2h-3.025v6.89h14.859v-2.412H591.4zm20.586-5.594a7.867 7.867 0 0 0 5.1 3.7l1.4-2.3c-3.431-.887-5.039-3.108-5.064-5.3h4.293V6.052h-4.26V3.74h-3.017v2.312h-4.293v2.354h4.293c-.025 2.42-1.608 4.84-5.022 5.818l1.4 2.337a7.875 7.875 0 0 0 5.17-4.252zm5.1-.365h3.472v4.782h2.983V3.815h-2.983V9.55h-3.472zm-.837 5.138c-4.525 0-7.334 1.442-7.326 4-.008 2.577 2.8 4.077 7.326 4.069 4.541.008 7.343-1.492 7.351-4.069 0-2.554-2.8-3.996-7.346-3.996zm0 5.8c-2.826-.008-4.359-.63-4.351-1.8-.008-1.144 1.525-1.724 4.351-1.715 2.884-.008 4.376.572 4.384 1.715-.003 1.175-1.495 1.797-4.379 1.805z" transform="translate(30 51)"/>
    </g>
    <g id="fc_box_big_no_btn-4" data-name="fc_box_big_no_btn" transform="translate(114 2000)">
        <g transform="translate(-114 -2000)" style="filter:url(#box-8)">
            <g id="box-18" data-name="box" class="cls-4">
                <path class="cls-11" d="M0 0h1108v130H0z" transform="translate(114 2000)"/>
                <path class="cls-12" d="M1 1h1106v128H1z" transform="translate(114 2000)"/>
            </g>
        </g>
        <path id="패스_11148" data-name="패스 11148" class="cls-3" d="M459.251 4.453v6.721h14.586V4.453zm2.934 4.409v-2.1h8.66v2.1zm14.122 3.438h-19.459v2.345h8.188v1.367h-5.942v2.254h11.884v1.1h-11.867v5.644h15.373v-2.25h-12.44v-1.285h11.884v-5.461h-5.892v-1.368h8.271zm16.143-8.485v10.956h2.967V3.815zm-8.006 6.812a7.983 7.983 0 0 0 5.155 3.936l1.417-2.3c-3.273-.854-4.881-2.934-5.088-5.064h4.272v-2.39h-11.73V7.2h4.384c-.215 2.287-1.848 4.525-5.163 5.453L479.05 15a8.2 8.2 0 0 0 5.395-4.373zm-.34 10.691h11.346v-5.694h-14.312v2.262h11.329v1.294h-11.279v5.834h14.842v-2.3H484.1zm29.52-12.987c1.359 2.1 4.028 3.655 7.641 4.144l1.094-2.354c-4.724-.539-7.21-3.025-7.2-5.262v-.7h-3.083v.7c-.008 2.254-2.5 4.724-7.243 5.262l1.144 2.354c3.623-.489 6.28-2.039 7.647-4.144zM503.887 16h19.459v-2.348h-19.459zm9.688 1.442c-4.666-.008-7.467 1.367-7.467 3.878 0 2.461 2.8 3.862 7.467 3.87 4.616-.008 7.417-1.409 7.434-3.87-.017-2.513-2.818-3.889-7.434-3.881zm0 5.461c-2.95.008-4.434-.489-4.417-1.583-.017-1.11 1.467-1.608 4.417-1.624 2.9.017 4.425.514 4.434 1.624-.009 1.092-1.534 1.589-4.434 1.58zm25.914-19.055V19.18h3V3.848zm-2.867 6.729c0-3.124-2.552-5.378-5.826-5.378s-5.843 2.254-5.834 5.378c-.008 3.174 2.561 5.412 5.834 5.412s5.826-2.238 5.826-5.412zm-8.735 0a2.895 2.895 0 0 1 5.785 0 2.893 2.893 0 0 1-5.785 0zm3.331 7.052h-3.025v7.16h14.859v-2.411h-11.834zm30.9-4.127h6.174v-2.278H556.3v-1.218h11.3V7.834h-11.3V6.649h11.8V4.337h-14.78V13.5h5.793v1.32h-8.238v2.345h19.508V14.82h-8.271zm-1.5 4.633c-4.765-.008-7.467 1.26-7.467 3.506 0 2.3 2.7 3.522 7.467 3.514 4.707.008 7.417-1.21 7.434-3.514-.022-2.241-2.732-3.514-7.439-3.506zm0 4.807c-3.058.008-4.483-.39-4.475-1.3-.008-.9 1.417-1.293 4.475-1.293 3.008 0 4.425.4 4.434 1.293-.013.91-1.43 1.308-4.439 1.3zm25.882 2.221h3.025V3.815H586.5zm-6.572-16.84h4.472V5.878h-12.044v2.445h4.533v1.31c-.008 3.622-1.84 7.575-5.37 9.157l1.7 2.345a10.336 10.336 0 0 0 5.246-6.3 9.657 9.657 0 0 0 5.213 5.768l1.608-2.345a9.2 9.2 0 0 1-5.354-8.627z" transform="translate(30 51)"/>
    </g>
    <g id="fc_box_big_no_btn-5" data-name="fc_box_big_no_btn" transform="translate(114 1640)">
        <g transform="translate(-114 -1640)" style="filter:url(#box-9)">
            <g id="box-19" data-name="box" class="cls-4">
                <path class="cls-11" d="M0 0h1108v130H0z" transform="translate(114 1640)"/>
                <path class="cls-12" d="M1 1h1106v128H1z" transform="translate(114 1640)"/>
            </g>
        </g>
        <path id="패스_11150" data-name="패스 11150" class="cls-3" d="M459.251 4.453v6.721h14.586V4.453zm2.934 4.409v-2.1h8.66v2.1zm14.122 3.438h-19.459v2.345h8.188v1.367h-5.942v2.254h11.884v1.1h-11.867v5.644h15.373v-2.25h-12.44v-1.285h11.884v-5.461h-5.892v-1.368h8.271zm16.143-8.485v10.956h2.967V3.815zm-8.006 6.812a7.983 7.983 0 0 0 5.155 3.936l1.417-2.3c-3.273-.854-4.881-2.934-5.088-5.064h4.272v-2.39h-11.73V7.2h4.384c-.215 2.287-1.848 4.525-5.163 5.453L479.05 15a8.2 8.2 0 0 0 5.395-4.373zm-.34 10.691h11.346v-5.694h-14.312v2.262h11.329v1.294h-11.279v5.834h14.842v-2.3H484.1zm37.757-4.45V3.815h-2.983V7.3h-2.611v2.341h2.611v1.641h-2.611v2.387h2.611v3.2zm-5.751-3.746c-.671.075-1.367.141-2.08.2V7.627h1.749v-2.4h-11.354v2.4h1.715v5.992c-.8.008-1.558.017-2.262.017l.315 2.436a77.847 77.847 0 0 0 12.033-.754zm-4.939-5.494v5.867c-.713.033-1.425.058-2.13.075V7.627zm3.4 9.572c-4.575 0-7.334 1.442-7.326 4-.008 2.478 2.751 3.961 7.326 3.953 4.583.008 7.343-1.475 7.351-3.953-.01-2.559-2.77-4-7.353-4zm0 5.685c-2.851-.008-4.359-.564-4.351-1.682-.008-1.169 1.5-1.732 4.351-1.732s4.376.564 4.384 1.732c-.01 1.117-1.535 1.673-4.386 1.681zm26.892-10.889V3.815h-2.993v21.3h2.992V14.464h3.017v-2.47zM525.608 6v2.448h7.11c-.564 4.757-3.273 8.155-8.312 10.691l1.682 2.287c7.169-3.522 9.663-9.041 9.68-15.423zm36.953 4.566h3.356v4.119h2.975V3.815h-2.975v4.392h-3.356zm-5.188.257a7.922 7.922 0 0 0 4.981 3.87l1.376-2.354c-3.249-.936-4.8-3.174-4.865-5.312h4.243V4.644h-11.569V7.03h4.309c-.091 2.262-1.765 4.715-5.122 5.793l1.467 2.32a8.289 8.289 0 0 0 5.18-4.317zm.348 10.45h11.171v-5.765H554.7v2.362h11.221v1.218h-11.2v5.859h14.8v-2.32h-11.8zm30.779-9.162v-8.3h-2.992v21.352h2.992v-10.55h3.149v-2.5zm-9.116-2.428h4.359V7.3h-4.334v-3H576.4v3h-4.392v2.382h4.409v.829a9.107 9.107 0 0 1-5.155 8.37l1.641 2.312a9.6 9.6 0 0 0 5.022-5.776 9.37 9.37 0 0 0 4.757 5.412l1.666-2.262a8.843 8.843 0 0 1-4.964-8.055z" transform="translate(30 51)"/>
    </g>
    <path id="세로-11" data-name="세로" class="cls-10" transform="translate(668 1590)" d="M0 0h1v50H0z"/>
    <path id="세로-12" data-name="세로" class="cls-10" transform="translate(668 2130)" d="M0 0h1v50H0z"/>
    <path id="세로-13" data-name="세로" class="cls-10" transform="translate(668 1410)" d="M0 0h1v50H0z"/>
    <path id="세로-14" data-name="세로" class="cls-10" transform="translate(668 1770)" d="M0 0h1v50H0z"/>
    <path id="세로-15" data-name="세로" class="cls-10" transform="translate(668 1950)" d="M0 0h1v50H0z"/>
    <g id="fc_box_small_link" transform="translate(494 740)">
        <g transform="translate(-494 -740)" style="filter:url(#box-10)">
            <g id="box-20" data-name="box" class="cls-4">
                <path class="cls-11" d="M0 0h348v130H0z" transform="translate(494 740)"/>
                <path class="cls-12" d="M1 1h346v128H1z" transform="translate(494 740)"/>
            </g>
        </g>
        <g id="btn" transform="translate(103 76)">
            <g id="그룹_668" data-name="그룹 668" transform="translate(-545.845)">
                <g id="ico_fc_pdf-2" data-name="ico_fc_pdf" transform="translate(666.425 2)">
                    <g id="그룹_1025-2" data-name="그룹 1025" transform="translate(-1101.5 -1126.5)">
                        <path id="패스_6892-2" data-name="패스 6892" class="cls-7" d="M1108.592 1130.5h7.714l4.286 4.286v7.714h-12z" transform="translate(-3.092)"/>
                        <path id="패스_6891-2" data-name="패스 6891" class="cls-7" d="M1052.728 2115.047v5h5" transform="translate(59.772 -984.547)"/>
                    </g>
                </g>
                <path id="패스_11140" data-name="패스 11140" class="cls-8" d="M-50.417-6.011c2.961.011 4.994-1.171 4.994-3.039 0-1.89-2.033-3.088-4.994-3.1-2.961.011-4.978 1.21-4.978 3.1-.005 1.868 2.017 3.05 4.978 3.039zm0-4.934c2.083 0 3.464.718 3.464 1.9 0 1.149-1.381 1.856-3.464 1.862S-53.881-7.9-53.87-9.05c-.011-1.177 1.376-1.895 3.453-1.895zm-6.376 6.182v1.215h3.193v4.874h1.525v-4.873h3.348v4.873h1.5v-4.873h3.243v-1.215zm24.47 6.088h1.423v-14h-1.425zm-4.823-10.7a2.851 2.851 0 0 0-2.624-2.177c-1.823 0-3.011 1.9-3.011 4.923 0 3.044 1.188 4.95 3.011 4.945a2.838 2.838 0 0 0 2.624-2.188h2.033V.635h1.4V-12.4h-1.4v3.028zM-39.771-3.1c-1.033.011-1.657-1.3-1.646-3.53-.011-2.227.613-3.53 1.646-3.53s1.691 1.3 1.691 3.53-.652 3.542-1.691 3.53zm2.939-2a10.138 10.138 0 0 0 .116-1.53 9.463 9.463 0 0 0-.122-1.536h1.724V-5.1zm17.873 6.425h1.492v-14h-1.492zm-9.331-12.491v1.182h5.149c-.293 3.265-2.1 5.79-5.829 7.558l.785 1.2c4.807-2.293 6.547-5.845 6.558-9.939zm24.022-1.508h-1.5V-2.5h1.5v-4.8h2.028v-1.236h-2.028zm-3.8 1.066H-14.7v1.232h5.017c-.287 2.3-2.32 4.171-5.6 5.155l.63 1.182c4.087-1.232 6.584-3.895 6.584-7.569zm-5.088 8.066v4.58h9.47V-.177h-7.978v-3.364zm26.63-9.133h-1.488v8.448h1.486v-3.685H15.5v-1.237h-2.028zM6.583-8.05a5.583 5.583 0 0 0 3.3 3.011l.79-1.166a4.588 4.588 0 0 1-3.383-4.226v-1.514H5.82v1.387a5.013 5.013 0 0 1-3.458 4.735l.8 1.177A5.766 5.766 0 0 0 6.583-8.05zM8.948-3.9c-2.906 0-4.7.961-4.7 2.591 0 1.663 1.79 2.608 4.7 2.608C11.831 1.3 13.6.359 13.6-1.3c0-1.634-1.769-2.6-4.652-2.6zm0 4.033C6.925.127 5.727-.376 5.738-1.3c-.011-.89 1.188-1.414 3.21-1.414s3.2.525 3.2 1.414c-.002.924-1.184 1.427-3.2 1.438zM26.92 1.326h1.425v-14H26.92zm-5.061-9.077v1.232h2.182V.635h1.4V-12.4h-1.4v4.652zM20.572-11.4h-1.437v2.613a7.023 7.023 0 0 1-3.022 6.05l.928 1.1a6.975 6.975 0 0 0 2.834-4.116 6.471 6.471 0 0 0 2.675 3.819l.834-1.149a6.729 6.729 0 0 1-2.812-5.768zm16.674 6.892h4.188v-7.21h-1.475V-9.3h-6.873v-2.414H31.6v7.21h4.177v2.873h-5.636v1.222h12.812v-1.226h-5.707zm2.713-3.6v2.4h-6.873v-2.4zm14.16 9.436h1.491v-14h-1.491zm-9.332-12.494v1.182h5.149c-.293 3.265-2.1 5.79-5.829 7.558l.785 1.2c4.807-2.293 6.547-5.845 6.558-9.939zM-57.29 2H57.29v1H-57.29z" transform="translate(605.135 18)"/>
            </g>
        </g>
        <path id="패스_11139" data-name="패스 11139" class="cls-3" d="M95.157 20.8h2.521V3.012h-2.521zM83.756 4.884v1.954h6.057c-.4 3.95-2.424 6.754-7.01 8.93l1.3 1.982c6.354-3 8.246-7.479 8.253-12.866zm17.907 6.216c3.315-.394 5.518-1.789 6.457-3.64.939 1.858 3.156 3.246 6.485 3.64l.919-1.989c-3.508-.366-5.352-1.865-5.642-3.349h4.91v-1.99h-13.28v1.989h4.876c-.3 1.478-2.113 2.983-5.622 3.349zm7.693-1.285h-2.472v2.472h-6.844v2h16.215v-2h-6.9zm-7.362 5.559v5.117H114.4v-2.01h-9.91v-3.107zm34.054-12.362h-2.5v9.158h2.5V8.537h2.389V6.493h-2.389zM127.243 8.4a6.413 6.413 0 0 0 4.033 3.294l1.271-1.927c-2.838-.815-4.1-2.825-4.081-5V3.648h-2.507V4.78a5.51 5.51 0 0 1-4.247 5.387l1.215 1.982a6.854 6.854 0 0 0 4.316-3.749zm8.805 9.2v-4.76h-11.8v1.927h9.309v1.043h-9.277v4.869h12.279v-1.962h-9.82V17.6zm16.1-8.2v4.51h2.362V3.04h-2.362v4.337h-1.492V3.351h-2.314v10h2.314V9.4zm-8.4.47a5.767 5.767 0 0 0 3.2 2.942l1.326-1.906a4.884 4.884 0 0 1-3.349-4.71V4.1H142.5v2.1a5.646 5.646 0 0 1-3.508 5.256l1.34 1.927a6.349 6.349 0 0 0 3.417-3.513zm4.682 4.282c-3.764 0-6.16 1.243-6.146 3.315-.014 2.072 2.383 3.336 6.146 3.329s6.16-1.257 6.167-3.329-2.416-3.315-6.166-3.315zm0 4.765c-2.327.007-3.667-.483-3.66-1.45s1.333-1.457 3.66-1.45 3.653.5 3.66 1.45-1.346 1.457-3.659 1.45zm10.1-15.373v5.6h12.155v-5.6zm2.445 3.674V5.471h7.225v1.747zm11.768 2.866h-16.211v1.954h6.823v1.14H158.4v1.878h9.9v.919h-9.889v4.7h12.811V18.8h-10.36v-1.07h9.9v-4.552h-4.91v-1.14h6.892zM186.829 20.8h2.355V3.012h-2.355zm-5.953-11.683v2h2.341v8.854h2.334V3.309h-2.334v5.808zm-1.43-2.286h2.693v-2h-8.011v2h2.914v.946c0 3.025-.974 6.215-3.591 7.831l1.506 1.837a8.275 8.275 0 0 0 3.315-4.841 7.518 7.518 0 0 0 3.232 4.434l1.457-1.83c-2.6-1.485-3.522-4.468-3.515-7.431zm28.66-3.791v12.977h2.5V3.04zm-6.851 6.547a6.851 6.851 0 0 0 4.178 3.695l1.267-1.962a5.645 5.645 0 0 1-4.171-5.594V4.014h-2.579v1.713a6.047 6.047 0 0 1-4.289 5.9l1.3 1.968a7.1 7.1 0 0 0 4.295-4.008zm-.041 5.166h-2.521v5.739h12.383v-2.01h-9.862zm25.739 0a42.248 42.248 0 0 0 .711-8.508V4.559h-12.97v1.982h10.47a38.52 38.52 0 0 1-.725 7.949zm-5.653-4.268h-2.472V16.6h-5.8v2.02h16.215V16.6H221.3z" transform="translate(18 38)"/>
    </g>
    <path id="다각형_14" data-name="다각형 14" class="cls-10" d="M7.5 0 15 11H0z" transform="rotate(180 338 143.5)"/>
    <path id="다각형_77" data-name="다각형 77" class="cls-10" d="M7.5 0 15 11H0z" transform="rotate(180 338 373)"/>
    <path id="다각형_80" data-name="다각형 80" class="cls-10" d="M7.5 0 15 11H0z" transform="rotate(180 338 463)"/>
    <path id="다각형_81" data-name="다각형 81" class="cls-10" d="M7.5 0 15 11H0z" transform="rotate(180 338 553)"/>
    <path id="다각형_82" data-name="다각형 82" class="cls-10" d="M7.5 0 15 11H0z" transform="rotate(180 338 643)"/>
    <path id="다각형_83" data-name="다각형 83" class="cls-10" d="M7.5 0 15 11H0z" transform="rotate(180 148.5 643)"/>
    <path id="다각형_84" data-name="다각형 84" class="cls-10" d="M7.5 0 15 11H0z" transform="rotate(180 338 733)"/>
    <path id="다각형_85" data-name="다각형 85" class="cls-10" d="M7.5 0 15 11H0z" transform="rotate(180 338 823)"/>
    <path id="다각형_86" data-name="다각형 86" class="cls-10" d="M7.5 0 15 11H0z" transform="rotate(180 338 913)"/>
    <path id="다각형_87" data-name="다각형 87" class="cls-10" d="M7.5 0 15 11H0z" transform="rotate(180 338 1003)"/>
    <path id="다각형_88" data-name="다각형 88" class="cls-10" d="M7.5 0 15 11H0z" transform="rotate(180 338 1093)"/>
    <path id="다각형_79" data-name="다각형 79" class="cls-10" d="M7.5 0 15 11H0z" transform="rotate(180 528 373)"/>
    <path id="다각형_78" data-name="다각형 78" class="cls-10" d="M7.5 0 15 11H0z" transform="rotate(180 148.5 373)"/>
</svg>
