<svg id="flow_chart_4_1" xmlns="http://www.w3.org/2000/svg" width="1336" height="2060" viewBox="0 0 1336 2060">
    <defs>
        <filter id="box" x="105" y="274" width="1126" height="148" filterUnits="userSpaceOnUse">
            <feOffset dy="3"/>
            <feGaussianBlur stdDeviation="3" result="blur"/>
            <feFlood flood-color="#111" flood-opacity=".102"/>
            <feComposite operator="in" in2="blur"/>
            <feComposite in="SourceGraphic"/>
        </filter>
        <filter id="box-2" x="105" y="454" width="1126" height="148" filterUnits="userSpaceOnUse">
            <feOffset dy="3"/>
            <feGaussianBlur stdDeviation="3" result="blur-2"/>
            <feFlood flood-color="#111" flood-opacity=".102"/>
            <feComposite operator="in" in2="blur-2"/>
            <feComposite in="SourceGraphic"/>
        </filter>
        <filter id="box-3" x="105" y="1174" width="1126" height="148" filterUnits="userSpaceOnUse">
            <feOffset dy="3"/>
            <feGaussianBlur stdDeviation="3" result="blur-3"/>
            <feFlood flood-color="#111" flood-opacity=".102"/>
            <feComposite operator="in" in2="blur-3"/>
            <feComposite in="SourceGraphic"/>
        </filter>
        <filter id="area" x="105" y="94" width="1126" height="148" filterUnits="userSpaceOnUse">
            <feOffset dy="3"/>
            <feGaussianBlur stdDeviation="3" result="blur-4"/>
            <feFlood flood-color="#111" flood-opacity=".102"/>
            <feComposite operator="in" in2="blur-4"/>
            <feComposite in="SourceGraphic"/>
        </filter>
        <filter id="area-2" x="105" y="1534" width="1126" height="148" filterUnits="userSpaceOnUse">
            <feOffset dy="3"/>
            <feGaussianBlur stdDeviation="3" result="blur-5"/>
            <feFlood flood-color="#111" flood-opacity=".102"/>
            <feComposite operator="in" in2="blur-5"/>
            <feComposite in="SourceGraphic"/>
        </filter>
        <filter id="box-4" x="675" y="634" width="556" height="148" filterUnits="userSpaceOnUse">
            <feOffset dy="3"/>
            <feGaussianBlur stdDeviation="3" result="blur-6"/>
            <feFlood flood-color="#111" flood-opacity=".102"/>
            <feComposite operator="in" in2="blur-6"/>
            <feComposite in="SourceGraphic"/>
        </filter>
        <filter id="box-5" x="105" y="814" width="556" height="148" filterUnits="userSpaceOnUse">
            <feOffset dy="3"/>
            <feGaussianBlur stdDeviation="3" result="blur-7"/>
            <feFlood flood-color="#111" flood-opacity=".102"/>
            <feComposite operator="in" in2="blur-7"/>
            <feComposite in="SourceGraphic"/>
        </filter>
        <filter id="box-6" x="105" y="994" width="556" height="148" filterUnits="userSpaceOnUse">
            <feOffset dy="3"/>
            <feGaussianBlur stdDeviation="3" result="blur-8"/>
            <feFlood flood-color="#111" flood-opacity=".102"/>
            <feComposite operator="in" in2="blur-8"/>
            <feComposite in="SourceGraphic"/>
        </filter>
        <filter id="box-7" x="105" y="634" width="556" height="148" filterUnits="userSpaceOnUse">
            <feOffset dy="3"/>
            <feGaussianBlur stdDeviation="3" result="blur-9"/>
            <feFlood flood-color="#111" flood-opacity=".102"/>
            <feComposite operator="in" in2="blur-9"/>
            <feComposite in="SourceGraphic"/>
        </filter>
        <filter id="box-8" x="675" y="814" width="556" height="148" filterUnits="userSpaceOnUse">
            <feOffset dy="3"/>
            <feGaussianBlur stdDeviation="3" result="blur-10"/>
            <feFlood flood-color="#111" flood-opacity=".102"/>
            <feComposite operator="in" in2="blur-10"/>
            <feComposite in="SourceGraphic"/>
        </filter>
        <filter id="box-9" x="675" y="994" width="556" height="148" filterUnits="userSpaceOnUse">
            <feOffset dy="3"/>
            <feGaussianBlur stdDeviation="3" result="blur-11"/>
            <feFlood flood-color="#111" flood-opacity=".102"/>
            <feComposite operator="in" in2="blur-11"/>
            <feComposite in="SourceGraphic"/>
        </filter>
        <filter id="box-10" x="105" y="1354" width="1126" height="148" filterUnits="userSpaceOnUse">
            <feOffset dy="3"/>
            <feGaussianBlur stdDeviation="3" result="blur-12"/>
            <feFlood flood-color="#111" flood-opacity=".102"/>
            <feComposite operator="in" in2="blur-12"/>
            <feComposite in="SourceGraphic"/>
        </filter>
        <style>
            .cls-4{fill:#999}.cls-5{fill:#fff;stroke:#999;stroke-width:2px}.cls-6{fill:#333}.cls-7{fill:red;opacity:0}.cls-11,.cls-8{fill:none}.cls-8{stroke:#326f5e;stroke-width:1.5px}.cls-9{fill:#326f5e}.cls-10{stroke:none}
        </style>
    </defs>
    <path id="bg" d="M0 2060h1336V0H0z" style="fill:#f8f8f8"/>
    <g id="bottom_text" transform="translate(-293 -2014.304)">
        <path id="패스_11131" data-name="패스 11131" d="M2.069-11.6.435-10.562v1.218l1.515-.951h.039V-5h1.372v-6.6zm5.118 3.951a6.46 6.46 0 0 0-1.3-4.083H4.6a7.349 7.349 0 0 1 1.185 4.083A7.345 7.345 0 0 1 4.6-3.569h1.288a6.457 6.457 0 0 0 1.299-4.08zm34.063-5.13h-2V-2.42h2v-4.635h1.912V-8.7h-1.913zm-3.4 4.525a3.671 3.671 0 0 0-3.884-3.613 3.665 3.665 0 0 0-3.9 3.613 3.678 3.678 0 0 0 3.9 3.613 3.685 3.685 0 0 0 3.88-3.613zm-5.829 0a1.815 1.815 0 0 1 1.945-1.878A1.814 1.814 0 0 1 35.9-8.254a1.821 1.821 0 0 1-1.939 1.873 1.823 1.823 0 0 1-1.944-1.873zm.006 4.74v4.707h9.735V-.414h-7.75v-3.1zM51.47-7.481h2.33v5.094h1.989v-10.381H53.8v3.68h-2.33zm-3.293.387a5.406 5.406 0 0 0 3.277 2.834l.983-1.58a4.382 4.382 0 0 1-3.271-4.149v-.227H52v-1.6h-7.712v1.6h2.851V-10a4.589 4.589 0 0 1-3.42 4.414l1.022 1.613a5.608 5.608 0 0 0 3.436-3.121zm.16 3.8h-1.988v4.487h9.773V-.414h-7.784zm19.227 4.736h2.017V-12.79h-2.017zm-9.121-12.735v1.564h4.845c-.32 3.16-1.939 5.4-5.608 7.144L58.719-1c5.083-2.4 6.6-5.983 6.6-10.293zm14.326 4.917c2.652-.293 4.414-1.409 5.166-2.873.751 1.47 2.525 2.58 5.188 2.873l.735-1.564c-2.807-.315-4.282-1.5-4.514-2.663h3.928v-1.569H72.647v1.572h3.9c-.232 1.155-1.691 2.348-4.5 2.663zM71.454-4.1h5.685v2.448h1.972V-4.1h5.348v-1.6H71.454zm1.525 1.188v4.11h10.05V-.414h-8.062v-2.5zM98.99-9.365h-2.2v1.63h2.2v3.425h1.989v-8.48H98.99zm-5.619 1.829a5.317 5.317 0 0 0 3.276 2.807l.983-1.536a4.4 4.4 0 0 1-3.27-4.135h2.834v-1.586h-7.713v1.586h2.851a4.63 4.63 0 0 1-3.42 4.392l1.022 1.575a5.516 5.516 0 0 0 3.437-3.103zm5.619 5.448v3.53h1.989v-5.127h-9.774v1.6zm9.055-9.442v-1.354h-1.989v1.354h-3.232v1.564h8.442v-1.564zm6.066 2.177v-3.437h-2v8.337h2V-7.7h1.912v-1.654zm-7.061 4.817c2.061.006 3.5-.994 3.5-2.514s-1.436-2.508-3.5-2.514c-2.1.006-3.536 1-3.53 2.514s1.431 2.52 3.53 2.514zm-1.591-2.514c0-.663.635-1.055 1.591-1.05s1.6.387 1.608 1.05c-.006.691-.657 1.061-1.608 1.061s-1.591-.37-1.591-1.061zm1.32 4.227v-1.089H104.8v5.194h9.309v-5.194h-2v1.088zm0 2.536v-1.006h5.331v1.006zm18.862-11.442v-1.16h-1.989v1.16h-3.082v1.448h8.13v-1.448zm6.078 3.029v-4.066h-1.994V-3.1h1.994v-3.966h1.823V-8.7zm-2.658 3.38a46.653 46.653 0 0 1-3.42.282v-.735c1.514-.227 2.464-.978 2.47-2.061-.006-1.315-1.387-2.127-3.481-2.122s-3.492.807-3.486 2.122c-.006 1.094.961 1.851 2.508 2.066v.8c-1.232.033-2.414.039-3.459.039l.2 1.541a53.3 53.3 0 0 0 8.807-.564zm-6.011-2.514c-.006-.547.569-.8 1.58-.8s1.569.249 1.575.8c-.006.519-.575.823-1.575.818s-1.585-.299-1.58-.818zM129.724-1v2.442h1.994v-3.983H122V-1zm14.365-11.768v10.221h2v-10.221zm-1.912 4.486a3.657 3.657 0 0 0-3.884-3.586 3.658 3.658 0 0 0-3.893 3.586 3.655 3.655 0 0 0 3.889 3.608 3.654 3.654 0 0 0 3.888-3.608zm-5.823 0a1.79 1.79 0 0 1 1.939-1.851 1.8 1.8 0 0 1 1.917 1.851 1.794 1.794 0 0 1-1.917 1.873 1.789 1.789 0 0 1-1.939-1.873zm2.221 4.7h-2.017v4.775h9.906V-.414h-7.889zM161.6 1.475h2.017V-12.79H161.6zm-4.348-13.166h-2.022v2.127c-.011 2.762-1.215 5.486-3.7 6.536l1.2 1.657a6.832 6.832 0 0 0 3.536-4.26 6.631 6.631 0 0 0 3.4 3.912l1.177-1.6c-2.42-1.017-3.6-3.635-3.591-6.249zm13.508.149V-12.9h-1.972v1.359h-3.21v1.586h8.381v-1.586zm4.785 2.934H173.7v1.624h1.84v2.8h1.989v-8.606h-1.989zm-2.354 1.68c0-1.5-1.414-2.558-3.409-2.558s-3.425 1.061-3.425 2.558c0 1.541 1.431 2.564 3.425 2.569s3.406-1.028 3.406-2.569zm-4.917 0c-.011-.68.58-1.061 1.508-1.055.9-.006 1.5.376 1.5 1.055 0 .713-.6 1.094-1.5 1.094-.931 0-1.522-.381-1.511-1.094zm9.26 8.21v-4.868h-9.558v4.868zm-1.95-3.3v1.7h-5.613v-1.7zM10.785 25.293h1.227V11.381h-1.227zM5.5 12.586H4.276v2.53a7.231 7.231 0 0 1-3.79 6.232l.773 1.028A7.755 7.755 0 0 0 4.9 17.7a7.584 7.584 0 0 0 3.608 4.4l.751-.972A6.943 6.943 0 0 1 5.5 15.116zm13.569.254v-1.591h-1.2v1.591h-3.46v1.006h8.11V12.84zm5.616 2.76H22.32v1.03h2.365v3.17h1.227v-8.42h-1.227zm-2.994 1.436c-.011-1.459-1.337-2.475-3.227-2.475s-3.227 1.017-3.227 2.475c0 1.492 1.337 2.475 3.227 2.475s3.216-.981 3.227-2.472zm-5.271 0c-.011-.9.829-1.525 2.044-1.525s2.044.63 2.044 1.525c0 .917-.84 1.525-2.044 1.536-1.215-.008-2.055-.616-2.044-1.533zm9.492 8.044v-4.539h-9.083v4.541zm-1.2-3.558v2.552h-6.657v-2.549zm9.025-3.4a.874.874 0 0 0 .864.88.888.888 0 0 0 .88-.88.874.874 0 0 0-.88-.864.86.86 0 0 0-.868.87zm18.627-3.156h-3.088V16h3.083v3.315h1.227v-7.923h-1.227zm-3.116-2.685h-6.3V13.3h4.989c-.271 2.359-2.392 4.2-5.707 5.138l.519.961c3.997-1.134 6.483-3.631 6.494-7.112zm4.343 12.785V19.9h-9.022v5.171zm-1.221-4.182v3.193h-6.607v-3.193zm14.287-3.867v-5.636h-1.226v13.89h1.227v-7.194h2.32v-1.06zm-6.088-4.431h-1.215v2.53a7.343 7.343 0 0 1-3.646 6.2l.773.983a7.851 7.851 0 0 0 3.5-4.641 7.552 7.552 0 0 0 3.42 4.376l.762-.983a6.97 6.97 0 0 1-3.591-5.934zm19.426 12.685h1.227v-13.89h-1.227zM70.558 12.9v.994h5.3c-.271 3.315-2.188 5.989-5.945 7.768l.663 1.006c4.663-2.243 6.519-5.779 6.53-9.768zm23.9-1.514h-1.237v10.448h1.238V16.95h2.033V15.9h-2.033zM90.912 17.3a21.228 21.228 0 0 0 .365-4.11v-.74h-6.929v1.028h5.718a18.688 18.688 0 0 1-.381 3.724zm1.359.84c-1.442.2-3.033.309-4.575.376v-2.98h-1.215v3.022c-1.072.028-2.088.033-2.983.039l.122 1.017a55.76 55.76 0 0 0 8.729-.564zm-6.63 2.74v4.077h9.271v-1.012h-8.044v-3.061zm12.74-1.646a12.088 12.088 0 0 0 2.11 7.072h1.193a13.6 13.6 0 0 1-1.912-7.072 13.6 13.6 0 0 1 1.912-7.072h-1.193a12.088 12.088 0 0 0-2.11 7.076zm9.4-6.486v-1.411h-1.227v1.414h-3.414v.928h8.044v-.928zm5.912-1.37h-1.223v10.865h1.23v-4.961h2.077v-1.039H113.7zm-2.088 7.757c-1.21.188-2.525.309-3.823.381v-1c1.608-.166 2.619-.928 2.63-2.1-.011-1.337-1.293-2.144-3.26-2.133-1.956-.011-3.26.8-3.249 2.133-.011 1.177 1.033 1.945 2.652 2.1v1.05c-1.359.05-2.663.061-3.768.061l.144 1.006a52.484 52.484 0 0 0 8.773-.619zm-6.53-2.718c-.011-.785.8-1.271 2.077-1.271s2.088.486 2.088 1.271c0 .762-.807 1.249-2.088 1.249s-2.085-.484-2.074-1.246zm-.2 5.094v3.448h9.325v-1.014h-8.1v-2.431zm22.1-6.552v1.881h-3.7v1.017h3.7v1.878h1.225v-8.343h-1.227v2.586h-3.243a7.123 7.123 0 0 0 .171-1.558h-6.32v1.028h4.994c-.254 2.409-2.354 4.3-5.7 5.282l.508.972c2.983-.878 5.127-2.5 6.039-4.74zm-3.315 4.917c-2.851 0-4.652.994-4.652 2.652s1.8 2.674 4.652 2.674c2.807 0 4.619-1.006 4.619-2.674s-1.809-2.65-4.616-2.65zm0 4.331c-2.1 0-3.436-.63-3.436-1.68s1.337-1.68 3.436-1.669c2.055-.011 3.392.619 3.4 1.669-.005 1.053-1.342 1.683-3.397 1.683zm16.685-10.939a12.586 12.586 0 0 1-.376 3.547l1.2.133a12.993 12.993 0 0 0 .387-3.68v-1.18h-9.525v1.006h8.309zm-3.37 1.9h-1.2v2.685h-5.238v1.006h12.641v-1.003h-6.2zm-.177 4.983c-2.972 0-4.862.939-4.862 2.552 0 1.591 1.889 2.53 4.862 2.53s4.873-.939 4.884-2.53c-.008-1.609-1.897-2.548-4.882-2.548zm0 4.11c-2.21 0-3.646-.6-3.635-1.558-.011-.994 1.425-1.6 3.635-1.613 2.221.011 3.646.619 3.657 1.613-.007.966-1.433 1.562-3.655 1.562zm18.42-12.9h-1.227v10.075h1.227v-4.9h2.1v-1.022h-2.1zm-2.751 6.11a28.142 28.142 0 0 1-6.232.453V13.6h4.965v-1.014h-6.177v6.376h1.072a31.2 31.2 0 0 0 6.53-.464zm-5.945 2.939v4.541h9.337v-1.006h-8.122V20.42zm14.983-8.265L157.862 25.7h1.227l3.646-13.547zm6.807.939v-1.7H167.1v1.7h-3.536V14.1h8.276v-1.006zm6.077-1.7h-1.227V21.8h1.227V17h2.088v-1.033h-2.088zm-3.348 6.066c-.011-1.58-1.359-2.6-3.337-2.6-2.011 0-3.359 1.017-3.348 2.6-.011 1.558 1.337 2.564 3.348 2.564 1.981.008 3.329-.997 3.34-2.555zm-5.514 0c-.011-.994.862-1.635 2.177-1.635 1.293 0 2.166.641 2.177 1.635-.011.972-.884 1.6-2.177 1.591-1.312.02-2.184-.61-2.173-1.582zm.166 3.5v4h9.337v-1.005h-8.122v-2.984zm24.387-3.945h-2.017a17.859 17.859 0 0 0 .348-3.956v-.994h-9.436v1.006h8.225a17.421 17.421 0 0 1-.359 3.956h-9.475v1.006h5.724v2.564h-4.41v1.006h8.586v3.68h1.234v-4.687h-4.2v-2.564h5.779zm6.044-4.265v-1.403H194.9v1.414h-3.414v.928h8.044v-.928zm5.912-1.37h-1.227v10.873h1.227v-4.961h2.077v-1.039h-2.077zm-2.088 7.757c-1.21.188-2.525.309-3.823.381v-1c1.608-.166 2.619-.928 2.63-2.1-.011-1.337-1.293-2.144-3.26-2.133-1.956-.011-3.26.8-3.249 2.133-.011 1.177 1.033 1.945 2.652 2.1v1.05c-1.359.05-2.663.061-3.768.061l.144 1.006a52.484 52.484 0 0 0 8.773-.619zm-6.53-2.718c-.011-.785.8-1.271 2.077-1.271s2.088.486 2.088 1.271c0 .762-.807 1.249-2.088 1.249s-2.086-.476-2.075-1.238zm-.2 5.094v3.448h9.326v-1.006h-8.1v-2.431zm22.1-6.552v1.889h-3.7v1.017h3.7v1.878h1.227v-8.343h-1.227v2.586h-3.243a7.123 7.123 0 0 0 .171-1.558h-6.32v1.028h4.994c-.254 2.409-2.354 4.3-5.7 5.282l.508.972c2.983-.878 5.127-2.5 6.039-4.74zm-3.315 4.917c-2.851 0-4.652.994-4.652 2.652s1.8 2.674 4.652 2.674c2.807 0 4.619-1.006 4.619-2.674s-1.81-2.642-4.616-2.642zm0 4.331c-2.1 0-3.436-.63-3.436-1.68s1.337-1.68 3.436-1.669c2.055-.011 3.392.619 3.4 1.669-.003 1.061-1.342 1.691-3.397 1.691zM229.73 11.37h-1.23v10.276h1.227v-4.961h2.088v-1.05h-2.085zm-6.751 4.8a5.853 5.853 0 0 0 3.414 3.2l.63-.983A4.867 4.867 0 0 1 223.542 14v-1.768h-1.2v1.724a5.124 5.124 0 0 1-3.525 4.785l.685.972a5.894 5.894 0 0 0 3.476-3.547zm-1.923 4.486v4.309h9.315v-1.02H222.3v-3.293zm21.934-5.945h-2.917a3.336 3.336 0 0 0-3.547-2.674c-2.11-.011-3.613 1.315-3.6 3.2-.011 1.9 1.492 3.215 3.6 3.215a3.338 3.338 0 0 0 3.552-2.729h2.912v3.1h1.227v-7.442h-1.227zm-6.464 2.707a2.23 2.23 0 0 1-2.431-2.177 2.433 2.433 0 1 1 2.431 2.177zm-.033 3.878v-1.76h-1.227v5.547h8.95v-5.547h-1.227v1.757zm0 2.785v-1.8h6.5v1.8zm20.3 1.193h1.227V11.381h-1.23zM247.354 12.9v.994h5.3c-.271 3.315-2.188 5.989-5.945 7.768l.663 1.006c4.663-2.243 6.519-5.779 6.53-9.768zm19.343.613c.878 1.5 3.017 2.481 5.21 2.768l.431-.939c-2.5-.3-5.005-1.624-5.005-3.348v-.541h-1.26v.541c0 1.724-2.508 3.05-5.006 3.348l.431.939c2.165-.292 4.314-1.275 5.202-2.773zm6.337 3.685H260.37v.994h5.7v1.388h-4.166v.972h8.287v1.26h-8.254v3.3h9.878v-.972h-8.674v-1.411h8.259V19.58h-4.1v-1.392h5.735zm8.519 3.3h2.862v1.448h1.238V11.392h-1.238V19.6h-2.862zm-2.862-3.713c2.033 0 3.425-.928 3.436-2.409-.011-1.459-1.4-2.42-3.436-2.42-2.055 0-3.448.961-3.448 2.42 0 1.48 1.393 2.409 3.448 2.409zm0-3.9c1.315-.011 2.254.6 2.265 1.492-.011.906-.95 1.492-2.265 1.492-1.359 0-2.287-.586-2.276-1.492-.015-.896.917-1.504 2.276-1.493zm.74 8.575v-2.747a38.99 38.99 0 0 0 3.823-.4l-.088-.9a78.664 78.664 0 0 1-9.039.409l.166 1.006c1.166.006 2.508 0 3.912-.055v2.685zm-2.077-.552h-1.227v4.055h9.867v-1.018h-8.641zm14.033-1.669a12.088 12.088 0 0 0-2.11-7.072h-1.193a13.6 13.6 0 0 1 1.912 7.072 13.6 13.6 0 0 1-1.912 7.072h1.193a12.088 12.088 0 0 0 2.11-7.073zm12.813 6.032h1.182v-13.89H304.2zm-4.58-8.475c-.155-2.619-1.3-4.243-2.989-4.243-1.8 0-2.972 1.867-2.972 4.818s1.171 4.84 2.972 4.829c1.718.011 2.873-1.68 2.994-4.387h1.79v6.751h1.185V11.68h-1.18v5.12zm-2.989 4.243c-1.116.011-1.834-1.414-1.823-3.669-.011-2.254.707-3.669 1.823-3.669 1.138 0 1.856 1.414 1.856 3.669s-.713 3.68-1.851 3.669zm20.983-4.917h-3.293v1.006h3.293v8.166h1.215V11.381h-1.215zm-5.414-3.536h-1.238v2.53a7.355 7.355 0 0 1-3.657 6.232l.785.983a7.824 7.824 0 0 0 3.5-4.7 7.517 7.517 0 0 0 3.5 4.448l.74-.994a6.856 6.856 0 0 1-3.635-5.967zm17.37 11.569c2.254 0 3.945-1.37 3.934-3.227a2.6 2.6 0 0 0-2.354-2.718v-.088a2.518 2.518 0 0 0 1.923-2.552 3.148 3.148 0 0 0-3.459-3.039c-2.011 0-3.68 1.2-3.746 2.994h1.359a2.136 2.136 0 0 1 2.365-1.768 1.889 1.889 0 0 1 2.122 1.878c0 1.171-.961 1.945-2.343 1.945h-.917v1.238h.917c1.768 0 2.751.873 2.751 2.1 0 1.182-1.083 1.989-2.575 1.989-1.348 0-2.42-.674-2.5-1.746h-1.417c.077 1.789 1.691 2.994 3.945 2.994zm16.972-2.475V11.392h-1.227v1.823h-4.005v.994h4.011v1.657h-4.011v.994h4.011v4.82zm-3.58-3.624a31.176 31.176 0 0 1-5.878.508V12.4h-1.227v7.2h1.05a33.165 33.165 0 0 0 6.188-.519zm-4.133 2.74H337.6v4.166h9.326v-1.017h-8.088zm20.785-3.867v-5.548h-1.227v13.89h1.227v-7.293h2.32v-1.05zm-3.768 4.807v-8.95h-6.409v8.95zm-1.227-7.967v6.961h-3.989v-6.962zm18.829 3.1v-5.488h-1.227v13.912h1.227V17.9h2.32v-1.027zm-8.917-3.127h5.26V12.74h-6.481v9.072h1.09a35.321 35.321 0 0 0 6.641-.464l-.155-1.061a33.074 33.074 0 0 1-6.354.486zm26.232 11.547h1.227V11.381h-1.227zm-5.282-12.707h-1.221v2.53a7.231 7.231 0 0 1-3.79 6.232l.773 1.028a7.755 7.755 0 0 0 3.641-4.674 7.584 7.584 0 0 0 3.608 4.4l.751-.972a6.943 6.943 0 0 1-3.757-6.011zm13.569.254v-1.587h-1.2v1.591h-3.459v1.006h8.109V12.84zm5.613 2.762H402.3v1.032h2.365v3.17h1.235v-8.42h-1.227zm-2.994 1.436c-.011-1.459-1.337-2.475-3.227-2.475s-3.227 1.017-3.227 2.475c0 1.492 1.337 2.475 3.227 2.475s3.221-.979 3.232-2.47zm-5.271 0c-.011-.9.829-1.525 2.044-1.525s2.044.63 2.044 1.525c0 .917-.84 1.525-2.044 1.536-1.21-.006-2.05-.614-2.042-1.531zm9.492 8.044v-4.537h-9.083v4.541zm-1.2-3.558v2.552h-6.652v-2.547zM5.243 67v-1.125H2.42v-.045l1.005-.97c1.36-1.231 1.724-1.85 1.727-2.6 0-1.144-.941-1.95-2.359-1.95a2.109 2.109 0 0 0-2.34 2.117h1.3A.955.955 0 0 1 2.784 61.4a.952.952 0 0 1 1.047.944c0 .529-.335.893-.947 1.482L.512 66.011V67zm3.268-2.649a6.46 6.46 0 0 0-1.3-4.083H5.923a7.349 7.349 0 0 1 1.186 4.083 7.345 7.345 0 0 1-1.186 4.08h1.289a6.457 6.457 0 0 0 1.299-4.08zm34.063-5.13h-2V69.58h2v-4.635h1.912V63.3h-1.912zm-3.4 4.525a3.671 3.671 0 0 0-3.884-3.613 3.623 3.623 0 1 0 0 7.227 3.685 3.685 0 0 0 3.88-3.614zm-5.829 0a1.943 1.943 0 1 1 1.945 1.873 1.815 1.815 0 0 1-1.948-1.873zm.006 4.74v4.707h9.735v-1.607h-7.75v-3.1zm19.448-3.967h2.326v5.094h1.985V59.232h-1.989v3.68h-2.326zm-3.293.387a5.406 5.406 0 0 0 3.276 2.834l.983-1.58a4.382 4.382 0 0 1-3.271-4.149v-.227h2.834v-1.6h-7.716v1.6h2.851V62a4.589 4.589 0 0 1-3.42 4.414l1.022 1.613a5.608 5.608 0 0 0 3.435-3.121zm.16 3.8h-1.993v4.486h9.773v-1.606h-7.784zm19.227 4.735h2.017V59.21h-2.021zm-9.126-12.734v1.564h4.845c-.32 3.16-1.939 5.4-5.608 7.144L60.043 71c5.083-2.4 6.6-5.983 6.6-10.293zm14.326 4.917c2.652-.293 4.414-1.409 5.166-2.873.751 1.47 2.525 2.58 5.188 2.873l.735-1.564c-2.807-.315-4.282-1.5-4.514-2.663H84.6v-1.568H73.972V61.4h3.9c-.232 1.155-1.691 2.348-4.5 2.663zM72.778 67.9h5.685v2.448h1.972V67.9h5.348v-1.6H72.778zm1.522 1.183v4.11h10.05v-1.607h-8.058v-2.5zm26.011-6.448h-2.2v1.63h2.2v3.425h1.989v-8.48h-1.989zM94.7 64.464a5.317 5.317 0 0 0 3.276 2.807l.983-1.536a4.4 4.4 0 0 1-3.275-4.135h2.834v-1.589h-7.712V61.6h2.851a4.63 4.63 0 0 1-3.42 4.392l1.022 1.575a5.516 5.516 0 0 0 3.441-3.103zm5.619 5.448v3.53h1.981v-5.127h-9.77v1.6zm9.055-9.442v-1.354h-1.994v1.354h-3.232v1.564h8.442V60.47zm6.066 2.177V59.21h-2v8.337h2V64.3h1.912v-1.654zm-7.061 4.818c2.061.006 3.5-.994 3.5-2.514s-1.436-2.508-3.5-2.514c-2.1.006-3.536 1-3.53 2.514s1.426 2.519 3.526 2.513zm-1.591-2.514c0-.663.635-1.055 1.591-1.05s1.6.387 1.608 1.05c-.006.691-.657 1.061-1.608 1.061s-1.595-.371-1.595-1.062zm1.32 4.227v-1.09h-1.978v5.193h9.309v-5.193h-2v1.088zm0 2.536v-1.007h5.331v1.006zm18.862-11.442v-1.16h-1.989v1.16h-3.083v1.448h8.133v-1.449zm6.077 3.028v-4.068h-1.994V68.9h1.994v-3.966h1.823V63.3zm-2.657 3.381a46.653 46.653 0 0 1-3.42.282v-.735c1.514-.227 2.464-.978 2.47-2.061-.006-1.315-1.387-2.127-3.481-2.122s-3.492.807-3.486 2.122c-.006 1.094.961 1.851 2.508 2.066v.8c-1.232.033-2.414.039-3.459.039l.2 1.541a53.3 53.3 0 0 0 8.807-.564zm-6.011-2.514c-.006-.547.569-.8 1.58-.8s1.569.249 1.575.8c-.006.519-.575.823-1.575.818s-1.59-.3-1.584-.819zm6.67 6.833v2.442h1.994v-3.983h-9.718V71zm14.365-11.768v10.221h2V59.232zm-1.914 4.486a3.9 3.9 0 1 0-3.884 3.608 3.657 3.657 0 0 0 3.884-3.608zm-5.823 0a1.929 1.929 0 1 1 1.939 1.873 1.79 1.79 0 0 1-1.937-1.873zm2.221 4.7h-2.017v4.773h9.906v-1.605H139.9zm23.039-9.188v10.383h2V59.232zm-5.481 5.238a5.481 5.481 0 0 0 3.343 2.956l1.017-1.569a4.516 4.516 0 0 1-3.337-4.475v-1.37h-2.066v1.37a4.838 4.838 0 0 1-3.431 4.718l1.039 1.575a5.681 5.681 0 0 0 3.437-3.203zm-.033 4.133h-2.017v4.591h9.906v-1.606h-7.889zm20.591 0a33.8 33.8 0 0 0 .569-6.807v-1.346h-10.374v1.586h8.376a30.816 30.816 0 0 1-.58 6.359zm-4.525-3.414h-1.978v4.889h-4.641V71.7h12.972v-1.623h-6.354zM5.348 85.094v-1.7H4.133v1.7H.6V86.1h8.273v-1.006zm6.077-1.7H10.2V93.8h1.227V89h2.088v-1.033h-2.09zm-3.348 6.065c-.011-1.58-1.359-2.6-3.337-2.6-2.011 0-3.359 1.017-3.348 2.6-.011 1.558 1.337 2.564 3.348 2.564 1.978-.001 3.326-1.006 3.337-2.564zm-5.514 0c-.011-.994.862-1.635 2.177-1.635 1.293 0 2.166.641 2.177 1.635-.011.972-.884 1.6-2.177 1.591-1.315.011-2.188-.619-2.176-1.591zm.166 3.5v4h9.337v-1.014H3.945v-2.984zm24.387-3.945H25.1a17.859 17.859 0 0 0 .348-3.956v-1.003h-9.437v1.006h8.221a17.421 17.421 0 0 1-.359 3.956H14.4v1.006h5.724v2.564h-4.411v1.006H24.3v3.68h1.238v-4.687h-4.2v-2.564h5.779zm6.044-4.265v-1.412h-1.226v1.414h-3.415v.928h8.044v-.928zm5.912-1.37h-1.227v10.864h1.227v-4.961h2.077v-1.039h-2.077zm-2.088 7.757c-1.21.188-2.525.309-3.823.381v-1c1.608-.166 2.619-.928 2.63-2.1-.011-1.337-1.293-2.144-3.26-2.133-1.956-.011-3.26.8-3.249 2.133-.011 1.177 1.033 1.945 2.652 2.1v1.05c-1.359.05-2.663.061-3.768.061l.144 1.006a52.484 52.484 0 0 0 8.773-.619zm-6.53-2.718c-.011-.785.8-1.271 2.077-1.271s2.088.486 2.088 1.271c0 .762-.807 1.249-2.088 1.249s-2.089-.485-2.078-1.247zm-.2 5.094v3.448h9.326v-1.015h-8.1v-2.431zm22.1-6.552v1.88h-3.7v1.017h3.7v1.878h1.226v-8.343h-1.226v2.586H49.11a7.124 7.124 0 0 0 .171-1.558h-6.32v1.028h4.994c-.254 2.409-2.354 4.3-5.7 5.282l.508.972c2.983-.878 5.127-2.5 6.039-4.74zm-3.315 4.917c-2.851 0-4.652.994-4.652 2.652s1.8 2.674 4.652 2.674c2.807 0 4.619-1.006 4.619-2.674s-1.813-2.651-4.619-2.651zm0 4.331c-2.1 0-3.436-.63-3.436-1.68s1.337-1.68 3.436-1.669c2.055-.011 3.392.619 3.4 1.669-.008 1.052-1.345 1.682-3.4 1.682zM66.762 83.37h-1.226v10.276h1.227v-4.961h2.088v-1.05h-2.089zm-6.751 4.8a5.853 5.853 0 0 0 3.414 3.2l.63-.983A4.867 4.867 0 0 1 60.575 86v-1.768h-1.2v1.724a5.124 5.124 0 0 1-3.525 4.785l.685.972a5.894 5.894 0 0 0 3.476-3.547zm-1.923 4.486v4.309H67.4v-1.02h-8.063v-3.293zm21.934-5.945H77.1a3.336 3.336 0 0 0-3.547-2.674c-2.11-.011-3.613 1.315-3.6 3.2-.011 1.9 1.492 3.215 3.6 3.215a3.338 3.338 0 0 0 3.552-2.729h2.912v3.1h1.227v-7.442h-1.222zm-6.464 2.707a2.23 2.23 0 0 1-2.431-2.177 2.433 2.433 0 1 1 2.431 2.177zm-.033 3.878v-1.76H72.3v5.547h8.95v-5.547h-1.228v1.757zm0 2.785v-1.8h6.5v1.8zm20.3 1.193h1.225V83.381h-1.227zM84.387 84.9v.994h5.3c-.271 3.315-2.188 5.989-5.945 7.768l.663 1.006c4.663-2.243 6.519-5.779 6.53-9.768zm19.343.613c.878 1.5 3.017 2.481 5.21 2.768l.431-.939c-2.5-.3-5.006-1.624-5.006-3.348v-.541H103.1v.541c0 1.724-2.508 3.05-5.006 3.348l.431.939c2.175-.292 4.32-1.275 5.204-2.773zm6.337 3.685H97.4v.994h5.7v1.388h-4.161v.972h8.287v1.26h-8.254v3.3h9.878v-.972h-8.674v-1.411h8.254V91.58h-4.1v-1.392h5.735zm8.519 3.3h2.862v1.448h1.238V83.392h-1.238V91.6h-2.862zm-2.862-3.713c2.033 0 3.425-.928 3.436-2.409-.011-1.459-1.4-2.42-3.436-2.42-2.055 0-3.448.961-3.448 2.42 0 1.48 1.393 2.409 3.448 2.409zm0-3.9c1.315-.011 2.254.6 2.265 1.492-.011.906-.95 1.492-2.265 1.492-1.359 0-2.287-.586-2.276-1.492-.012-.896.917-1.504 2.276-1.493zm.74 8.575v-2.747a38.99 38.99 0 0 0 3.823-.4l-.088-.9a78.665 78.665 0 0 1-9.039.409l.166 1.006c1.166.006 2.508 0 3.912-.055v2.685zm-2.077-.552h-1.227v4.055h9.867v-1.018h-8.641zm21.4 4.365h1.182V83.381h-1.179zM131.21 88.8c-.155-2.619-1.3-4.243-2.989-4.243-1.8 0-2.972 1.867-2.972 4.818s1.171 4.84 2.972 4.829c1.718.011 2.873-1.68 2.994-4.387h1.79v6.751h1.182V83.68h-1.182v5.12zm-2.989 4.243c-1.116.011-1.834-1.414-1.823-3.669-.011-2.254.707-3.669 1.823-3.669 1.138 0 1.856 1.414 1.856 3.669s-.718 3.676-1.856 3.665zm24.979-6.026h-2.8v1.028h2.8V91.7h1.227v-8.32H153.2zm-6.055.972a5.725 5.725 0 0 0 3.381 3.149l.641-.961a4.769 4.769 0 0 1-3.425-4.232v-.6h3.1v-1.002h-7.472v1.006h3.138v.608a5.089 5.089 0 0 1-3.536 4.541l.641.972a5.949 5.949 0 0 0 3.536-3.481zm6.055 5.459v3.823h1.227v-4.829h-9.348v1.006zm8.332-8.63v-1.569h-1.212v1.569h-3.536v1.006h8.276v-1.006zm6.077 2.122v-3.559h-1.227v8.066h1.227v-3.47h2.091v-1.038zm-6.685 4.4c1.989.011 3.326-.95 3.337-2.431-.011-1.481-1.348-2.431-3.337-2.431-2.022 0-3.359.95-3.348 2.431-.007 1.478 1.33 2.439 3.352 2.428zm-2.177-2.431c-.011-.9.862-1.5 2.177-1.492 1.293-.011 2.166.6 2.177 1.492-.011.906-.884 1.5-2.177 1.5-1.311 0-2.184-.597-2.173-1.503zm1.293 4.641v-1.495h-1.215v5.028h8.785v-5.028h-1.227v1.492zm0 2.541v-1.572h6.343v1.569zm19.481-11.436v-1.384H178.3v1.381h-3.414v.939h8.044v-.939zm5.912 2.939v-4.2h-1.223v9.3h1.227v-4.075h2.077v-1.028zm-2.088 3.249c-1.215.182-2.525.287-3.823.354v-.978c1.608-.155 2.619-.9 2.63-2.039-.011-1.271-1.293-2.055-3.26-2.044-1.956-.011-3.26.773-3.249 2.044-.011 1.149 1.033 1.9 2.652 2.039v1.022c-1.359.044-2.657.044-3.768.044l.144 1.006a52.112 52.112 0 0 0 8.773-.552zm-6.53-2.663c-.011-.74.8-1.193 2.077-1.182 1.282-.011 2.088.442 2.088 1.182 0 .718-.807 1.215-2.088 1.2-1.279.012-2.085-.48-2.074-1.203zm7.392 6.2v2.9h1.227v-3.888h-9.193v.983zm14.464-10.983v10.15h1.229V83.392zm-6.276 7.79a3.417 3.417 0 1 0-3.646-3.414 3.4 3.4 0 0 0 3.651 3.409zm-2.442-3.414a2.444 2.444 0 1 1 2.442 2.343 2.306 2.306 0 0 1-2.439-2.348zm2.2 4.74h-1.227v4.453h9.4v-1.021h-8.177zm24.347 4.78h1.227V83.381H216.5zm-5.282-12.707h-1.227v2.53a7.231 7.231 0 0 1-3.79 6.232l.773 1.028a7.755 7.755 0 0 0 3.641-4.674 7.584 7.584 0 0 0 3.608 4.4l.751-.972a6.943 6.943 0 0 1-3.757-6.011zm13.569.254v-1.591h-1.2v1.591h-3.459v1.006h8.11V84.84zm5.613 2.76h-2.365v1.03h2.365v3.17h1.227v-8.42H230.4zm-3 1.439c-.011-1.459-1.337-2.475-3.227-2.475s-3.227 1.017-3.227 2.475c0 1.492 1.337 2.475 3.227 2.475s3.219-.984 3.227-2.475zm-5.271 0c-.011-.9.829-1.525 2.044-1.525s2.044.63 2.044 1.525c0 .917-.84 1.525-2.044 1.536-1.212-.011-2.051-.619-2.04-1.536zm9.492 8.044v-4.542h-9.083v4.541zm-1.2-3.558v2.552h-6.652v-2.552zM248.8 83.392h-1.227v10.63h1.227v-4.884h2.077V88.1H248.8zm-2.122 7.061c-1.215.182-2.536.3-3.834.37v-1.359a2.84 2.84 0 0 0 2.807-2.691c-.011-1.646-1.425-2.74-3.459-2.74s-3.448 1.094-3.436 2.74c-.011 1.464 1.144 2.508 2.862 2.7v1.409a98.141 98.141 0 0 1-3.669.05l.144 1.017a51.141 51.141 0 0 0 8.685-.575zm-6.773-3.68c-.011-1.072.939-1.79 2.287-1.79s2.287.718 2.3 1.79c-.011 1.061-.939 1.779-2.3 1.79-1.352-.011-2.303-.729-2.292-1.79zm.077 6.32v3.857h9.318v-1.027h-8.1v-2.829zm21.072-1.215h2.177v-1.016H254.6v-2.254h8.309v-4.2h-9.558v1.017h8.343v2.166h-8.309v4.287h1.989v2.63h-3.58v1.039h12.718v-1.039h-3.462zm-1.2 0v2.63h-3.282v-2.63zm16.718-6.906V83.3h-1.215v1.669H270.3v1.017h11.26v-1.014zm-.608 6.442c2.829-.011 4.53-.84 4.53-2.309 0-1.492-1.7-2.32-4.53-2.32s-4.541.829-4.53 2.32c-.02 1.47 1.682 2.295 4.522 2.309zm0-3.691c2.055 0 3.26.508 3.271 1.381-.011.862-1.215 1.37-3.271 1.359-2.066.011-3.271-.5-3.26-1.359-.019-.872 1.186-1.38 3.252-1.38zm-6.32 4.652v1.017h5.713v3.9h1.215v-3.9h5.79v-1.016zm22.254 3.779c2.254 0 3.945-1.37 3.934-3.227a2.6 2.6 0 0 0-2.354-2.718v-.088a2.518 2.518 0 0 0 1.923-2.552 3.148 3.148 0 0 0-3.459-3.039c-2.011 0-3.68 1.2-3.746 2.994h1.359a2.136 2.136 0 0 1 2.365-1.768 1.889 1.889 0 0 1 2.122 1.878c0 1.171-.961 1.945-2.343 1.945h-.917v1.238h.917c1.768 0 2.751.873 2.751 2.1 0 1.182-1.083 1.989-2.575 1.989-1.348 0-2.42-.674-2.5-1.746h-1.425c.072 1.79 1.685 2.995 3.939 2.995zm9.657 0c2.508 0 3.956-2.11 3.956-5.812 0-3.669-1.47-5.812-3.956-5.812s-3.956 2.144-3.956 5.812c-.008 3.702 1.44 5.813 3.948 5.813zm0-1.249c-1.635 0-2.586-1.635-2.586-4.564s.961-4.586 2.586-4.586 2.586 1.657 2.586 4.586-.959 4.565-2.594 4.565zm15.569-11.525v7.127h1.227v-7.126zm-2.707 3.591c-.011-1.812-1.525-3.072-3.6-3.083-2.1.011-3.613 1.271-3.613 3.083s1.514 3.061 3.613 3.061c2.067.001 3.583-1.247 3.592-3.06zm-6.011 0a2.439 2.439 0 1 1 2.409 2.055 2.152 2.152 0 0 1-2.415-2.054zm2.144 7.558h7.8v-3.347h-9.05v.994h7.823V93.6h-7.779v3.481h9.492v-.994h-8.3zm24.4-11.149v13.913h1.227V83.381zm-6.155 1.072c-2.077.011-3.547 1.889-3.547 4.84s1.47 4.84 3.547 4.84c2.055 0 3.547-1.878 3.547-4.84s-1.502-4.828-3.557-4.839zm0 1.094c1.392.011 2.354 1.492 2.354 3.746s-.961 3.746-2.354 3.746-2.365-1.481-2.365-3.746.962-3.734 2.355-3.745zm20.431 3.492H347.2v-5.347h-1.16v12.85h1.16v-6.464h2.011v7.193h1.193V83.381h-1.193zm-8.74-3.967h-1.227v8.6h.873a27.09 27.09 0 0 0 5.05-.453l-.144-1.083a23.343 23.343 0 0 1-4.552.442zm22.63 12.2h1.182v-13.89H363.1zm-4.58-8.475c-.155-2.619-1.3-4.243-2.989-4.243-1.8 0-2.972 1.867-2.972 4.818s1.171 4.84 2.972 4.829c1.718.011 2.873-1.68 2.994-4.387h1.79v6.751h1.169V83.68h-1.18v5.12zm-2.989 4.243c-1.116.011-1.834-1.414-1.823-3.669-.011-2.254.707-3.669 1.823-3.669 1.138 0 1.856 1.414 1.856 3.669s-.729 3.68-1.867 3.669zm24.939-9.646V93.58h1.214V83.392zm-5.939 4.448a6.034 6.034 0 0 0 3.475 3.475l.641-.983a5.167 5.167 0 0 1-3.5-4.773v-1.394H373.9v1.392a5.5 5.5 0 0 1-3.525 5.05l.674.961a6.21 6.21 0 0 0 3.487-3.729zm-.58 4.8h-1.227v4.32h9.4v-1.016h-8.177zm20.022-6.475a30.733 30.733 0 0 1-.53 6.265l1.238.144a33.267 33.267 0 0 0 .519-6.409v-1.381h-9.79V85.8h8.564zm-3.735 3.149h-1.215v4.961h-4.961V95.3h12.663v-1.024h-6.486z" transform="translate(407 3877.011)" style="fill:#666"/>
        <path id="사각형_554" data-name="사각형 554" transform="translate(407 3821)" style="fill:#bbb" d="M0 0h1108v1H0z"/>
        <path id="패스_11132" data-name="패스 11132" class="cls-4" d="M-115.171 1.271H-114v-13.89h-1.171zm-5.138-8.884v1.006h2.343V.541h1.16v-12.828h-1.16v4.674zm-1.481-2.354h2.541v-1.017h-6.409v1.017h2.685v1.3a7.3 7.3 0 0 1-3.061 6.232l.773.917a7.276 7.276 0 0 0 2.9-4.414 6.758 6.758 0 0 0 2.829 4.083l.74-.906a6.8 6.8 0 0 1-2.994-5.912zm17.238 1.989h2.807v3.635h1.227v-8.276h-1.227v3.624h-2.807zm-3.243-.044a5.765 5.765 0 0 0 3.376 3.16l.641-.983a4.746 4.746 0 0 1-3.425-4.232v-.508h3.1V-11.6h-7.481v1.017h3.138v.519a5.157 5.157 0 0 1-3.536 4.619l.641.972a6.02 6.02 0 0 0 3.541-3.549zm2.669 4.11c-2.9 0-4.663.95-4.652 2.586-.011 1.635 1.757 2.575 4.652 2.586 2.884-.011 4.652-.95 4.652-2.586s-1.769-2.586-4.653-2.586zm0 4.188c-2.133.011-3.448-.6-3.436-1.6-.011-1.017 1.3-1.624 3.436-1.624s3.436.608 3.436 1.624-1.316 1.611-3.437 1.6zm7.9-5.039a12.088 12.088 0 0 0 2.11 7.072h1.193a13.6 13.6 0 0 1-1.912-7.072 13.6 13.6 0 0 1 1.912-7.072h-1.193a12.088 12.088 0 0 0-2.111 7.073zm7.558-6.552-2.818 1.878v1.414l2.751-1.823h.066V0h1.414v-11.315zm8.2-.155a3.725 3.725 0 0 0-3.956 3.79 3.663 3.663 0 0 0 3.7 3.746 3.463 3.463 0 0 0 2.9-1.5h.155c-.011 2.751-1.138 4.343-2.983 4.343a2.226 2.226 0 0 1-2.287-1.768h-1.392A3.515 3.515 0 0 0-81.657.155c2.652 0 4.3-2.243 4.3-6.265-.002-4.166-2.168-5.338-4.113-5.36zm0 1.238A2.558 2.558 0 0 1-78.9-7.713a2.617 2.617 0 0 1-2.619 2.541 2.476 2.476 0 0 1-2.541-2.519 2.531 2.531 0 0 1 2.59-2.541zm6.617 10.32a1.009 1.009 0 0 0 1.006-1.005 1.009 1.009 0 0 0-1.006-1.006 1 1 0 0 0-1.005 1.006A1 1 0 0 0-74.851.088zm6.4.066c2.508 0 3.956-2.11 3.956-5.812 0-3.669-1.47-5.812-3.956-5.812s-3.956 2.144-3.956 5.812c-.002 3.702 1.446 5.813 3.954 5.813zm0-1.249c-1.635 0-2.586-1.635-2.586-4.564s.961-4.586 2.586-4.586 2.586 1.657 2.586 4.586-.953 4.565-2.588 4.565zm8.409-10.221-2.818 1.878v1.414l2.751-1.823h.066V0h1.414v-11.315zM-55.3.088a1.009 1.009 0 0 0 1-1.005 1.009 1.009 0 0 0-1-1.006 1 1 0 0 0-1.009 1.006A1 1 0 0 0-55.3.088zm6.4.066c2.508 0 3.956-2.11 3.956-5.812 0-3.669-1.47-5.812-3.956-5.812s-3.956 2.144-3.956 5.812c-.006 3.702 1.442 5.813 3.95 5.813zm0-1.249c-1.635 0-2.586-1.635-2.586-4.564s.961-4.586 2.586-4.586 2.586 1.657 2.586 4.586-.957 4.565-2.592 4.565zm8.4-10.22-2.818 1.878v1.414l2.751-1.823h.066V0h1.414v-11.315zm7.282 6.552a12.088 12.088 0 0 0-2.11-7.072h-1.193a13.6 13.6 0 0 1 1.912 7.072 13.6 13.6 0 0 1-1.912 7.072h1.193a12.088 12.088 0 0 0 2.113-7.071zm16.331-7.856V1.293h1.227v-13.912zm-6.155 1.072c-2.077.011-3.547 1.89-3.547 4.84s1.47 4.84 3.547 4.84c2.055 0 3.547-1.878 3.547-4.84s-1.488-4.829-3.544-4.84zm0 1.094c1.392.011 2.354 1.492 2.354 3.746s-.961 3.746-2.354 3.746S-25.4-4.442-25.4-6.707s.969-3.735 2.361-3.746zm16.7-.575V-12.7h-1.216v1.669h-5.05v1.017h11.26v-1.017zm-.608 6.442C-4.122-4.6-2.42-5.425-2.42-6.9c0-1.492-1.7-2.32-4.53-2.32s-4.541.829-4.53 2.32c-.012 1.475 1.69 2.3 4.53 2.314zm0-3.691c2.055 0 3.26.508 3.271 1.381-.011.862-1.215 1.37-3.271 1.359-2.066.011-3.271-.5-3.26-1.359-.011-.872 1.193-1.38 3.26-1.38zm-6.32 4.652v1.017h5.713v3.9h1.215v-3.9h5.79v-1.016z" transform="translate(1515 3797)"/>
    </g>
    <path id="세로" class="cls-4" transform="translate(668 230)" d="M0 0h1v50H0z"/>
    <g id="fc_box_big_no_btn" transform="translate(114 280)">
        <g transform="translate(-114 -280)" style="filter:url(#box)">
            <g id="box-11" data-name="box" class="cls-5">
                <path class="cls-10" d="M0 0h1108v130H0z" transform="translate(114 280)"/>
                <path class="cls-11" d="M1 1h1106v128H1z" transform="translate(114 280)"/>
            </g>
        </g>
        <path id="패스_11314" data-name="패스 11314" class="cls-6" d="M321.935 3.832h-3V19.37h3v-6.953h2.865V9.956h-2.867zm-5.1 6.787A5.507 5.507 0 0 0 311 5.2c-3.273 0-5.859 2.254-5.843 5.42-.017 3.133 2.569 5.42 5.843 5.42a5.527 5.527 0 0 0 5.83-5.421zm-8.743 0a2.915 2.915 0 0 1 5.826 0 2.915 2.915 0 0 1-5.826 0zm.008 7.11v7.061h14.6v-2.412h-11.621v-4.649zm29.171-5.95h3.489v7.641h2.983V3.848h-2.983v5.519h-3.489zm-4.939.58a8.109 8.109 0 0 0 4.914 4.251l1.475-2.37a6.573 6.573 0 0 1-4.906-6.224v-.34h4.251v-2.4h-11.573v2.4h4.276V8a6.884 6.884 0 0 1-5.13 6.622l1.533 2.42a8.412 8.412 0 0 0 5.155-4.683zm.24 5.7h-2.983v6.731h14.66v-2.412h-11.681zm21.874-12.653v-1.74h-2.983v1.74h-4.624v2.171h12.2V5.406zm9.116 4.541v-6.1h-2.992v14.496h2.992V12.4h2.738V9.948zm-3.986 5.072c-1.633.2-3.381.34-5.13.423v-1.1c2.271-.34 3.7-1.467 3.7-3.091-.008-1.972-2.08-3.191-5.221-3.182-3.157-.008-5.238 1.21-5.229 3.182-.008 1.641 1.442 2.776 3.762 3.1v1.2c-1.848.05-3.622.058-5.188.058l.307 2.312a79.952 79.952 0 0 0 13.21-.845zm-9.017-3.771c-.008-.82.854-1.193 2.37-1.193 1.5 0 2.354.373 2.362 1.193-.008.779-.862 1.235-2.362 1.227-1.516.008-2.378-.447-2.37-1.226zM360.57 21.5v3.663h2.992v-5.975h-14.577V21.5zm21.547-17.652V19.18h3V3.848zm-2.867 6.729c0-3.124-2.552-5.378-5.826-5.378s-5.843 2.254-5.834 5.378c-.008 3.174 2.561 5.412 5.834 5.412s5.826-2.238 5.826-5.412zm-8.735 0a2.895 2.895 0 0 1 5.785 0 2.893 2.893 0 0 1-5.785 0zm3.331 7.052h-3.025v7.16h14.859v-2.411h-11.833zm29.776-5.569h-2.055V4.188h-2.743v19.931h2.743v-9.663h2.055v10.707h2.826V3.815h-2.826zM391.615 8.7h4.964V6.3h-7.964v14.03h1.492a38.764 38.764 0 0 0 7.682-.588l-.224-2.436a35.125 35.125 0 0 1-5.95.522zm34.077-4.881h-3v12.659h3V11.29h2.867V8.812h-2.867zm-10.624 7.732a7.889 7.889 0 0 0 4.765 4.069l1.583-2.329c-3.373-1.036-4.881-3.522-4.881-6.108V4.959h-2.992V6.89a7.112 7.112 0 0 1-5.1 6.978l1.608 2.345a8.2 8.2 0 0 0 5.017-4.666zm3.622 5.37c-4.492-.008-7.309 1.525-7.3 4.1-.008 2.627 2.809 4.144 7.3 4.135 4.425.008 7.2-1.508 7.2-4.135.001-2.579-2.775-4.112-7.201-4.104zm0 5.9c-2.793-.008-4.318-.58-4.309-1.8-.008-1.152 1.517-1.773 4.309-1.773 2.776 0 4.251.622 4.251 1.773 0 1.217-1.476 1.788-4.252 1.797zm26.32-11.337v5.412h2.834V3.848h-2.834v5.2h-1.79V4.221h-2.776v12h2.776v-4.74zm-10.077.564a6.92 6.92 0 0 0 3.837 3.53l1.591-2.287a5.861 5.861 0 0 1-4.019-5.652V5.124h-2.909v2.511a6.775 6.775 0 0 1-4.21 6.307l1.608 2.312a7.619 7.619 0 0 0 4.101-4.21zm5.619 5.138c-4.517 0-7.392 1.492-7.376 3.978-.017 2.486 2.859 4 7.376 3.994 4.5.008 7.392-1.508 7.4-3.994-.009-2.49-2.901-3.982-7.401-3.982zm0 5.718c-2.793.008-4.4-.58-4.392-1.74-.008-1.144 1.6-1.749 4.392-1.74 2.776-.008 4.384.6 4.392 1.74-.009 1.156-1.617 1.745-4.393 1.736zM458.2 5.166V3.649h-2.98v1.517h-4.62v2.005h12.2V5.166zm9.116-1.351h-2.992v12.563h2.992v-5.022h2.735V8.862h-2.735zm-3.986 9.7a63.113 63.113 0 0 1-5.13.439V13.1c2.287-.282 3.7-1.251 3.7-2.768-.008-1.724-2.055-2.743-5.221-2.743-3.182 0-5.238 1.019-5.229 2.743-.008 1.533 1.434 2.5 3.762 2.776v.945c-1.856.041-3.63.041-5.188.041l.307 2.055a81.893 81.893 0 0 0 13.21-.787zm-9.017-3.174c-.008-.6.854-.887 2.37-.887 1.5 0 2.354.282 2.362.887-.008.646-.862.978-2.362.978-1.513-.004-2.375-.336-2.367-.982zm13 11.586v-4.778h-14.439v1.981h11.461v.978H452.9v4.906h15.133v-2h-12.142v-1.091zm20.76-9.423V3.815h-3.017v21.348h3.017V14.978h2.785V12.5zm-9.05-6.3V3.939h-3.008V6.2h-4.84v2.347h12.655V6.2zm0 11.064c2.254-.431 3.754-1.89 3.771-3.862-.017-2.4-2.2-4.019-5.246-4.019-3.108 0-5.262 1.624-5.254 4.019-.008 1.964 1.459 3.414 3.721 3.854v1.84c-1.889.041-3.7.041-5.254.041l.4 2.436A72.853 72.853 0 0 0 484.2 20.7l-.2-2.171c-1.591.224-3.282.356-4.972.448zm-3.881-3.868c-.008-1.11.953-1.74 2.412-1.74 1.417 0 2.37.63 2.37 1.74s-.953 1.724-2.37 1.724c-1.454.003-2.42-.602-2.412-1.724zM499.6 5.738V3.715h-2.983v2.023h-4.848v2.345h12.661V5.738zm9.1 3.63V3.815h-3v13.392h3V11.8h2.867V9.367zm-5.345 3.34c0-2.345-2.155-3.928-5.246-3.936-3.1.008-5.3 1.591-5.3 3.936-.008 2.345 2.2 3.928 5.3 3.928s5.243-1.584 5.243-3.929zm-7.633 0c0-1.094.953-1.682 2.387-1.691 1.425.008 2.4.6 2.412 1.691-.008 1.086-.986 1.649-2.412 1.649s-2.389-.564-2.389-1.65zm9.978 7.782v4.674h3V18.1h-14.364v2.387zm22.434 4.674h2.826V3.815h-2.826zm-7.144-14.022v2.4h2.81v10.627h2.8v-20h-2.8v6.97zM519.272 8.4h3.228V6h-9.613v2.4h3.5v1.133c0 3.63-1.169 7.459-4.309 9.4l1.807 2.2a9.93 9.93 0 0 0 3.978-5.809 9.022 9.022 0 0 0 3.878 5.32l1.749-2.2c-3.116-1.782-4.227-5.362-4.218-8.917zm15.854 1.657v2.4h15.721v-2.4h-2.635V6.815h2.776v-2.4h-16v2.4h2.768v3.24zm5.61 0V6.815h4.464v3.24zm12 3.762h-19.458v2.361h8.213v1.831h-5.959v6.912H550.4v-6.912h-5.934V16.18h8.271zm-14.262 8.71v-2.2h9.008v2.2zm36.7-10.467h-2.055V4.188h-2.743v19.931h2.743v-9.663h2.055v10.707H578V3.815h-2.83zM563.162 8.7h4.964V6.3h-7.964v14.03h1.492a38.763 38.763 0 0 0 7.682-.588l-.224-2.436a35.124 35.124 0 0 1-5.95.522zm34.077-4.881h-3v12.659h3V11.29h2.867V8.812h-2.867zm-10.624 7.732a7.889 7.889 0 0 0 4.765 4.069l1.583-2.329c-3.373-1.036-4.881-3.522-4.881-6.108V4.959h-2.992V6.89a7.112 7.112 0 0 1-5.1 6.978l1.608 2.345a8.2 8.2 0 0 0 5.017-4.666zm3.622 5.37c-4.492-.008-7.309 1.525-7.3 4.1-.008 2.627 2.809 4.144 7.3 4.135 4.425.008 7.2-1.508 7.2-4.135.001-2.579-2.775-4.112-7.201-4.104zm0 5.9c-2.793-.008-4.318-.58-4.309-1.8-.008-1.152 1.517-1.773 4.309-1.773 2.776 0 4.251.622 4.251 1.773 0 1.217-1.476 1.788-4.252 1.797zm24.3-17.412V3.666h-2.983v1.74h-4.624v2.171h12.2V5.406zm9.116 4.541v-6.1h-2.992v14.493h2.992V12.4h2.735V9.948zm-3.986 5.072c-1.633.2-3.381.34-5.13.423v-1.1c2.271-.34 3.7-1.467 3.7-3.091-.008-1.972-2.08-3.191-5.221-3.182-3.157-.008-5.238 1.21-5.229 3.182-.008 1.641 1.442 2.776 3.762 3.1v1.2c-1.848.05-3.622.058-5.188.058l.307 2.312a79.952 79.952 0 0 0 13.21-.845zm-9.017-3.771c-.008-.82.854-1.193 2.37-1.193 1.5 0 2.354.373 2.362 1.193-.008.779-.862 1.235-2.362 1.227-1.52.005-2.381-.45-2.372-1.229zM620.659 21.5v3.663h2.992v-5.975h-14.578V21.5zm21.547-17.652V19.18h3V3.848zm-2.867 6.729c0-3.124-2.552-5.378-5.826-5.378s-5.843 2.254-5.834 5.378c-.008 3.174 2.561 5.412 5.834 5.412s5.825-2.238 5.825-5.412zm-8.735 0a2.895 2.895 0 0 1 5.785 0 2.893 2.893 0 0 1-5.785 0zm3.331 7.052h-3.025v7.16h14.859v-2.411h-11.834zm21.191-1.442a16.61 16.61 0 0 0 3.348 10.492h3.307c-1.715-2.188-3.041-6.572-3.041-10.492s1.326-8.312 3.041-10.5h-3.307a16.618 16.618 0 0 0-3.348 10.501zm14.867 7.044c3.82 0 6.58-2.088 6.564-4.989.017-2.122-1.359-3.638-3.862-3.945v-.133a3.6 3.6 0 0 0 3.224-3.6c.017-2.677-2.345-4.773-5.876-4.773-3.481 0-6.116 2.03-6.174 4.948h3.381c.05-1.3 1.276-2.138 2.776-2.138a2.224 2.224 0 0 1 2.494 2.18c.008 1.343-1.16 2.254-2.843 2.254H668.1v2.61h1.575c2 0 3.224.978 3.215 2.362.008 1.367-1.2 2.3-2.892 2.3-1.633 0-2.859-.837-2.917-2.088h-3.555c.061 2.966 2.729 5.013 6.467 5.013zm15.29 0c3.812 0 6.414-2.453 6.406-5.884a5.322 5.322 0 0 0-5.42-5.586 4.294 4.294 0 0 0-3.406 1.442h-.133l.464-4.285h7.541v-2.89h-10.441l-.928 9.771h3.207a2.728 2.728 0 0 1 2.652-1.417 2.937 2.937 0 0 1 3.058 3.058 2.88 2.88 0 0 1-3 3.017 2.571 2.571 0 0 1-2.776-2.229h-3.423c.067 2.916 2.66 5.004 6.199 5.004zm9.961-13.177v2.4h15.721v-2.4h-2.635V6.815h2.776v-2.4h-16v2.4h2.768v3.24zm5.61 0V6.815h4.467v3.24zm12 3.762H693.4v2.364h8.213v1.831h-5.959v6.912h14.867v-6.912h-5.934V16.18h8.271zm-14.262 8.71v-2.2h9.008v2.2zm26.751-10.343h5.793V4.669h-14.585v7.517h5.793v2.03h-8.2v2.4h19.459v-2.4h-8.262zM728.195 7v2.84h-8.718V7zm.05 13.541v4.624h2.992v-6.97H716.3v2.345zm13.255-4.353a16.612 16.612 0 0 0-3.34-10.5h-3.315c1.724 2.188 3.05 6.572 3.05 10.5s-1.326 8.3-3.05 10.492h3.315a16.6 16.6 0 0 0 3.34-10.492z" transform="translate(30 51)"/>
    </g>
    <g id="fc_box_big_no_btn-2" data-name="fc_box_big_no_btn" transform="translate(114 460)">
        <g transform="translate(-114 -460)" style="filter:url(#box-2)">
            <g id="box-12" data-name="box" class="cls-5">
                <path class="cls-10" d="M0 0h1108v130H0z" transform="translate(114 460)"/>
                <path class="cls-11" d="M1 1h1106v128H1z" transform="translate(114 460)"/>
            </g>
        </g>
        <path id="패스_11315" data-name="패스 11315" class="cls-6" d="M362.4 3.832h-3V19.37h3v-6.953h2.867V9.956H362.4zm-5.1 6.787a5.507 5.507 0 0 0-5.826-5.42c-3.273 0-5.859 2.254-5.843 5.42-.017 3.133 2.569 5.42 5.843 5.42a5.527 5.527 0 0 0 5.826-5.42zm-8.743 0a2.915 2.915 0 0 1 5.826 0 2.915 2.915 0 0 1-5.826 0zm.008 7.11v7.061h14.6v-2.412h-11.62v-4.649zm29.171-5.95h3.489v7.641h2.983V3.848h-2.983v5.519h-3.489zm-4.939.58a8.109 8.109 0 0 0 4.914 4.251l1.475-2.37a6.573 6.573 0 0 1-4.906-6.224v-.34h4.251v-2.4H366.96v2.4h4.276V8a6.884 6.884 0 0 1-5.13 6.622l1.533 2.42a8.412 8.412 0 0 0 5.155-4.683zm.24 5.7h-2.983v6.731h14.66v-2.412h-11.68zm21.876-12.653v-1.74h-2.983v1.74h-4.624v2.171h12.2V5.406zm9.116 4.541v-6.1h-2.992v14.496h2.992V12.4h2.735V9.948zm-3.986 5.072c-1.633.2-3.381.34-5.13.423v-1.1c2.271-.34 3.7-1.467 3.7-3.091-.008-1.972-2.08-3.191-5.221-3.182-3.157-.008-5.238 1.21-5.229 3.182-.008 1.641 1.442 2.776 3.762 3.1v1.2c-1.848.05-3.622.058-5.188.058l.307 2.312a79.952 79.952 0 0 0 13.21-.845zm-9.017-3.771c-.008-.82.854-1.193 2.37-1.193 1.5 0 2.354.373 2.362 1.193-.008.779-.862 1.235-2.362 1.227-1.516.008-2.378-.447-2.37-1.226zM401.037 21.5v3.663h2.992v-5.975h-14.578V21.5zm21.547-17.652V19.18h3V3.848zm-2.867 6.729c0-3.124-2.552-5.378-5.826-5.378s-5.843 2.254-5.834 5.378c-.008 3.174 2.561 5.412 5.834 5.412s5.826-2.238 5.826-5.412zm-8.735 0a2.895 2.895 0 0 1 5.785 0 2.893 2.893 0 0 1-5.785 0zm3.331 7.052h-3.025v7.16h14.859v-2.411h-11.834zm29.776-5.569h-2.055V4.188h-2.743v19.931h2.743v-9.663h2.055v10.707h2.826V3.815h-2.825zM432.081 8.7h4.964V6.3h-7.964v14.03h1.492a38.764 38.764 0 0 0 7.682-.588l-.224-2.436a35.125 35.125 0 0 1-5.95.522zm34.077-4.881h-3v12.659h3V11.29h2.867V8.812h-2.867zm-10.624 7.732a7.889 7.889 0 0 0 4.765 4.069l1.583-2.329C458.509 12.251 457 9.765 457 7.18V4.959h-2.992V6.89a7.112 7.112 0 0 1-5.1 6.978l1.608 2.345a8.2 8.2 0 0 0 5.018-4.666zm3.622 5.37c-4.492-.008-7.309 1.525-7.3 4.1-.008 2.627 2.809 4.144 7.3 4.135 4.425.008 7.2-1.508 7.2-4.135.002-2.579-2.775-4.112-7.2-4.104zm0 5.9c-2.793-.008-4.318-.58-4.309-1.8-.008-1.152 1.517-1.773 4.309-1.773 2.776 0 4.251.622 4.251 1.773 0 1.217-1.475 1.788-4.251 1.797zm26.32-11.337v5.412h2.834V3.848h-2.834v5.2h-1.79V4.221h-2.776v12h2.776v-4.74zm-10.077.564a6.92 6.92 0 0 0 3.837 3.53l1.591-2.287a5.861 5.861 0 0 1-4.019-5.652V5.124H473.9v2.511a6.775 6.775 0 0 1-4.21 6.307l1.608 2.312a7.619 7.619 0 0 0 4.102-4.21zm5.619 5.138c-4.517 0-7.392 1.492-7.376 3.978-.017 2.486 2.859 4 7.376 3.994 4.5.008 7.392-1.508 7.4-3.994-.008-2.49-2.9-3.982-7.4-3.982zm0 5.718c-2.793.008-4.4-.58-4.392-1.74-.008-1.144 1.6-1.749 4.392-1.74 2.776-.008 4.384.6 4.392 1.74-.01 1.156-1.616 1.745-4.392 1.736zM498.67 5.166V3.649h-2.983v1.517h-4.624v2.005h12.2V5.166zm9.116-1.351h-2.992v12.563h2.992v-5.022h2.735V8.862h-2.735zm-3.986 9.7a63.113 63.113 0 0 1-5.13.439V13.1c2.287-.282 3.7-1.251 3.7-2.768-.008-1.724-2.055-2.743-5.221-2.743-3.182 0-5.238 1.019-5.229 2.743-.008 1.533 1.434 2.5 3.762 2.776v.945c-1.856.041-3.63.041-5.188.041l.307 2.055a81.893 81.893 0 0 0 13.21-.787zm-9.017-3.174c-.008-.6.854-.887 2.37-.887 1.5 0 2.354.282 2.362.887-.008.646-.862.978-2.362.978-1.516-.004-2.378-.336-2.37-.982zm13 11.586v-4.778h-14.442v1.981H504.8v.978h-11.434v4.906H508.5v-2h-12.142v-1.091zm20.76-9.423V3.815h-3.017v21.348h3.017V14.978h2.785V12.5zM519.5 6.2V3.939h-3.008V6.2h-4.84v2.347H524.3V6.2zm0 11.064c2.254-.431 3.754-1.89 3.771-3.862-.017-2.4-2.2-4.019-5.246-4.019-3.108 0-5.262 1.624-5.254 4.019-.008 1.964 1.459 3.414 3.721 3.854V19.1c-1.89.041-3.7.041-5.254.041l.4 2.436a72.853 72.853 0 0 0 13.036-.87l-.2-2.171c-1.591.224-3.282.356-4.972.448zm-3.891-3.864c-.008-1.11.953-1.74 2.412-1.74 1.417 0 2.37.63 2.37 1.74s-.953 1.724-2.37 1.724c-1.459.003-2.421-.602-2.412-1.724zm24.456-7.666V3.715h-2.983v2.023h-4.848v2.345H544.9V5.738zm9.1 3.63V3.815h-3v13.392h3V11.8h2.867V9.367zm-5.345 3.34c0-2.345-2.155-3.928-5.246-3.936-3.1.008-5.3 1.591-5.3 3.936-.008 2.345 2.2 3.928 5.3 3.928s5.245-1.58 5.245-3.925zm-7.633 0c0-1.094.953-1.682 2.387-1.691 1.425.008 2.4.6 2.412 1.691-.008 1.086-.986 1.649-2.412 1.649s-2.388-.56-2.388-1.646zm9.978 7.782v4.674h3V18.1H534.8v2.387zm22.435 4.677h2.826V3.815H568.6zm-7.144-14.022v2.4h2.809v10.628h2.8v-20h-2.8v6.97zM559.739 8.4h3.232V6h-9.613v2.4h3.5v1.133c0 3.63-1.169 7.459-4.309 9.4l1.807 2.2a9.93 9.93 0 0 0 3.978-5.809 9.022 9.022 0 0 0 3.878 5.32l1.749-2.2c-3.116-1.782-4.227-5.362-4.218-8.917zm15.854 1.657v2.4h15.721v-2.4h-2.635V6.815h2.776v-2.4h-16v2.4h2.768v3.24zm5.61 0V6.815h4.467v3.24zm12 3.762h-19.459v2.361h8.213v1.831H576v6.912h14.867v-6.912h-5.934V16.18h8.267zm-14.262 8.71v-2.2h9.008v2.2zm36.7 2.635h2.826V3.815h-2.826zm-7.144-14.022v2.4h2.803v10.627h2.8v-20h-2.8v6.97zm-1.72-2.742h3.232V6H600.4v2.4h3.5v1.133c0 3.63-1.169 7.459-4.309 9.4l1.807 2.2a9.93 9.93 0 0 0 3.978-5.809 9.022 9.022 0 0 0 3.878 5.32L611 18.45c-3.116-1.782-4.227-5.362-4.218-8.917zm15.97 8.039c3.68-.671 6.414-2.552 7.765-5.13 1.376 2.528 4.144 4.351 7.881 5.006l1.185-2.362c-4.575-.671-7.235-3.265-7.492-6.083h6.5V5.448h-16.179v2.42h6.493c-.257 2.826-2.9 5.494-7.326 6.207zm9.273-.945h-3v4.757h-8.238v2.428h19.508v-2.43h-8.271zm17.756-1.252a1.525 1.525 0 0 0 1.488 1.608 1.488 1.488 0 0 0 1.512-1.608 1.463 1.463 0 0 0-1.488-1.584 1.509 1.509 0 0 0-1.512 1.582zm22.256-5.005c1.392 2.312 4.127 4.044 7.856 4.575l1.168-2.412c-4.881-.6-7.45-3.39-7.45-5.909V4.453h-3.141v1.036c-.008 2.519-2.569 5.3-7.417 5.909l1.177 2.412c3.696-.531 6.415-2.263 7.807-4.575zm-9.738 6.191v2.436h8.188v7.3h2.959v-7.3h8.312v-2.439zm35.6-11.61v11.475h3V3.815zm-8.693.9c-3.331-.008-5.843 2.072-5.834 5.064-.008 2.917 2.5 5 5.834 5s5.826-2.08 5.826-5c.002-3-2.501-5.082-5.827-5.072zm0 2.494a2.578 2.578 0 0 1 2.876 2.569c0 1.591-1.21 2.536-2.876 2.544-1.707-.008-2.925-.953-2.909-2.544C686.278 8.174 687.5 7.2 689.2 7.2zm-2.569 9.025v8.693H700.9v-8.701h-2.983v1.981h-8.337v-1.981zm2.942 4.3h8.337V22.5h-8.337z" transform="translate(30 51)"/>
    </g>
    <g id="fc_box_big_no_btn-3" data-name="fc_box_big_no_btn" transform="translate(114 1180)">
        <g transform="translate(-114 -1180)" style="filter:url(#box-3)">
            <g id="box-13" data-name="box" class="cls-5">
                <path class="cls-10" d="M0 0h1108v130H0z" transform="translate(114 1180)"/>
                <path class="cls-11" d="M1 1h1106v128H1z" transform="translate(114 1180)"/>
            </g>
        </g>
        <path id="패스_11316" data-name="패스 11316" class="cls-6" d="M253.1 3.832h-3V19.37h3v-6.953h2.867V9.956H253.1zm-5.1 6.787a5.507 5.507 0 0 0-5.826-5.42c-3.273 0-5.859 2.254-5.843 5.42-.017 3.133 2.569 5.42 5.843 5.42a5.527 5.527 0 0 0 5.826-5.42zm-8.743 0a2.915 2.915 0 0 1 5.826 0 2.915 2.915 0 0 1-5.826 0zm.008 7.11v7.061h14.6v-2.412h-11.617v-4.649zm29.171-5.95h3.489v7.641h2.983V3.848h-2.983v5.519h-3.489zm-4.939.58a8.109 8.109 0 0 0 4.914 4.251l1.475-2.37a6.573 6.573 0 0 1-4.906-6.224v-.34h4.251v-2.4h-11.568v2.4h4.276V8a6.884 6.884 0 0 1-5.13 6.622l1.533 2.42a8.412 8.412 0 0 0 5.158-4.683zm.24 5.7h-2.983v6.731h14.66v-2.412h-11.677zm21.879-12.653v-1.74h-2.983v1.74h-4.624v2.171h12.2V5.406zm9.116 4.541v-6.1h-2.992v14.496h2.992V12.4h2.735V9.948zm-3.986 5.072c-1.633.2-3.381.34-5.13.423v-1.1c2.271-.34 3.7-1.467 3.7-3.091-.008-1.972-2.08-3.191-5.221-3.182-3.157-.008-5.238 1.21-5.229 3.182-.008 1.641 1.442 2.776 3.762 3.1v1.2c-1.848.05-3.622.058-5.188.058l.307 2.312a79.952 79.952 0 0 0 13.21-.845zm-9.017-3.771c-.008-.82.854-1.193 2.37-1.193 1.5 0 2.354.373 2.362 1.193-.008.779-.862 1.235-2.362 1.227-1.516.008-2.378-.447-2.37-1.226zM291.74 21.5v3.663h2.992v-5.975h-14.578V21.5zm21.547-17.652V19.18h3V3.848zm-2.867 6.729c0-3.124-2.552-5.378-5.826-5.378s-5.843 2.254-5.834 5.378c-.008 3.174 2.561 5.412 5.834 5.412s5.826-2.238 5.826-5.412zm-8.735 0a2.895 2.895 0 0 1 5.785 0 2.893 2.893 0 0 1-5.785 0zm3.331 7.052h-3.025v7.16h14.859v-2.411h-11.834zm29.776-5.569h-2.055V4.188h-2.743v19.931h2.743v-9.663h2.055v10.707h2.826V3.815h-2.826zM322.784 8.7h4.964V6.3h-7.964v14.03h1.492a38.764 38.764 0 0 0 7.682-.588l-.224-2.436a35.125 35.125 0 0 1-5.95.522zm34.077-4.881h-3v12.659h3V11.29h2.867V8.812h-2.867zm-10.624 7.732A7.889 7.889 0 0 0 351 15.616l1.583-2.329c-3.373-1.036-4.881-3.522-4.881-6.108v-2.22h-2.992V6.89a7.112 7.112 0 0 1-5.1 6.978l1.608 2.345a8.2 8.2 0 0 0 5.019-4.666zm3.622 5.37c-4.492-.008-7.309 1.525-7.3 4.1-.008 2.627 2.809 4.144 7.3 4.135 4.425.008 7.2-1.508 7.2-4.135.001-2.579-2.775-4.112-7.2-4.104zm0 5.9c-2.793-.008-4.318-.58-4.309-1.8-.008-1.152 1.517-1.773 4.309-1.773 2.776 0 4.251.622 4.251 1.773 0 1.217-1.475 1.788-4.251 1.797zm26.32-11.337v5.412h2.834V3.848h-2.834v5.2h-1.79V4.221h-2.776v12h2.776v-4.74zm-10.077.564a6.92 6.92 0 0 0 3.837 3.53l1.591-2.287a5.861 5.861 0 0 1-4.019-5.652V5.124H364.6v2.511a6.775 6.775 0 0 1-4.21 6.307l1.61 2.312a7.619 7.619 0 0 0 4.1-4.21zm5.619 5.138c-4.517 0-7.392 1.492-7.376 3.978-.017 2.486 2.859 4 7.376 3.994 4.5.008 7.392-1.508 7.4-3.994-.008-2.49-2.9-3.982-7.4-3.982zm0 5.718c-2.793.008-4.4-.58-4.392-1.74-.008-1.144 1.6-1.749 4.392-1.74 2.776-.008 4.384.6 4.392 1.74-.013 1.156-1.613 1.745-4.392 1.736zm17.652-17.738V3.649h-2.983v1.517h-4.624v2.005h12.2V5.166zm9.116-1.351H395.5v12.563h2.992v-5.022h2.735V8.862h-2.735zm-3.986 9.7a63.113 63.113 0 0 1-5.13.439V13.1c2.287-.282 3.7-1.251 3.7-2.768-.008-1.724-2.055-2.743-5.221-2.743-3.182 0-5.238 1.019-5.229 2.743-.008 1.533 1.434 2.5 3.762 2.776v.945c-1.856.041-3.63.041-5.188.041l.307 2.055a81.893 81.893 0 0 0 13.21-.787zm-9.017-3.174c-.008-.6.854-.887 2.37-.887 1.5 0 2.354.282 2.362.887-.008.646-.862.978-2.362.978-1.517-.004-2.378-.336-2.37-.982zm13 11.586v-4.778h-14.442v1.981h11.461v.978h-11.436v4.906H399.2v-2h-12.14v-1.091zm20.76-9.423V3.815h-3.017v21.348h3.017V14.978h2.785V12.5zM410.2 6.2V3.939h-3.01V6.2h-4.84v2.347h12.655V6.2zm0 11.064c2.254-.431 3.754-1.89 3.771-3.862-.017-2.4-2.2-4.019-5.246-4.019-3.108 0-5.262 1.624-5.254 4.019-.008 1.964 1.459 3.414 3.721 3.854V19.1c-1.889.041-3.7.041-5.254.041l.4 2.436a72.853 72.853 0 0 0 13.036-.87l-.2-2.171c-1.591.224-3.282.356-4.972.448zm-3.888-3.864c-.008-1.11.953-1.74 2.412-1.74 1.417 0 2.37.63 2.37 1.74s-.953 1.724-2.37 1.724c-1.459.003-2.424-.602-2.412-1.724zm24.456-7.666V3.715h-2.983v2.023h-4.848v2.345H435.6V5.738zm9.1 3.63V3.815h-3v13.392h3V11.8h2.867V9.367zm-5.345 3.34c0-2.345-2.155-3.928-5.246-3.936-3.1.008-5.3 1.591-5.3 3.936-.008 2.345 2.2 3.928 5.3 3.928s5.245-1.58 5.245-3.925zm-7.633 0c0-1.094.953-1.682 2.387-1.691 1.425.008 2.4.6 2.412 1.691-.008 1.086-.986 1.649-2.412 1.649s-2.388-.56-2.388-1.646zm9.978 7.782v4.674h3V18.1h-14.363v2.387zm22.432 4.677h2.826V3.815H459.3zm-7.144-14.022v2.4h2.809v10.628h2.8v-20h-2.8v6.97zM450.442 8.4h3.232V6h-9.614v2.4h3.5v1.133c0 3.63-1.169 7.459-4.309 9.4l1.807 2.2a9.93 9.93 0 0 0 3.978-5.809 9.022 9.022 0 0 0 3.878 5.32l1.749-2.2c-3.116-1.782-4.227-5.362-4.218-8.917zm15.858 1.655v2.4h15.721v-2.4h-2.635v-3.24h2.776v-2.4h-16v2.4h2.768v3.24zm5.611 0v-3.24h4.467v3.24zm12 3.762h-19.464v2.363h8.213v1.831h-5.96v6.912h14.867v-6.912h-5.934V16.18h8.271zm-14.262 8.71v-2.2h9.008v2.2zm25.268-11.1c4.914 0 7.749-1.276 7.757-3.663-.008-2.345-2.843-3.63-7.757-3.63s-7.773 1.285-7.765 3.63c-.014 2.382 2.837 3.659 7.759 3.659zm0-5.1c3.166-.008 4.674.506 4.674 1.442 0 1.052-1.508 1.459-4.674 1.467-3.124-.008-4.649-.414-4.633-1.467-.022-.946 1.503-1.46 4.627-1.451zM485.2 14.8h19.459v-2.37H485.2zm17.08 6.671V16.03h-14.836v2.2h11.884v1.16h-11.867v5.627h15.373V22.76h-12.439v-1.285zm24.812 3.688h2.826V3.815h-2.826zm-7.144-14.022v2.4h2.809v10.632h2.8v-20h-2.8v6.97zM518.232 8.4h3.232V6h-9.614v2.4h3.5v1.133c0 3.63-1.169 7.459-4.309 9.4l1.807 2.2a9.93 9.93 0 0 0 3.978-5.809 9.022 9.022 0 0 0 3.878 5.32l1.749-2.2c-3.116-1.782-4.227-5.362-4.218-8.917zm15.97 8.039c3.68-.671 6.414-2.552 7.765-5.13 1.376 2.528 4.144 4.351 7.881 5.006l1.185-2.362c-4.575-.671-7.235-3.265-7.492-6.083h6.5V5.448h-16.179v2.42h6.489c-.257 2.826-2.9 5.494-7.326 6.207zm9.273-.945h-3v4.757h-8.238v2.428h19.508v-2.43h-8.271zm17.755-1.254a1.525 1.525 0 0 0 1.488 1.608 1.488 1.488 0 0 0 1.512-1.608 1.463 1.463 0 0 0-1.488-1.584 1.509 1.509 0 0 0-1.512 1.584zm22.256-5.005c1.392 2.312 4.127 4.044 7.856 4.575l1.168-2.412c-4.881-.6-7.45-3.39-7.45-5.909V4.453h-3.14v1.036c-.008 2.519-2.569 5.3-7.417 5.909l1.177 2.412c3.696-.531 6.414-2.263 7.806-4.575zm-9.738 6.191v2.436h8.188v7.3h2.964v-7.3h8.312v-2.437zm35.6-11.61v11.477h3V3.815zm-8.693.9c-3.331-.008-5.843 2.072-5.834 5.064-.008 2.917 2.5 5 5.834 5s5.826-2.08 5.826-5c.002-2.998-2.5-5.08-5.824-5.07zm0 2.494a2.578 2.578 0 0 1 2.876 2.569c0 1.591-1.21 2.536-2.876 2.544-1.707-.008-2.925-.953-2.909-2.544-.014-1.605 1.204-2.579 2.911-2.579zm-2.569 9.025v8.693h14.262v-8.699h-2.983v1.981h-8.335v-1.981zm2.942 4.3h8.337V22.5h-8.335zm31.044-8.354V3.815h-2.959v21.348h2.959V14.638h3.149v-2.461zm-12.105-8.026v2.851h-4.831V9.4h12.539V7h-4.725V4.155zm1.492 6.439c-3.149 0-5.47 2.113-5.461 5.088-.008 2.983 2.312 5.08 5.461 5.088a5.1 5.1 0 1 0 0-10.177zm0 7.724a2.447 2.447 0 0 1-2.594-2.635 2.591 2.591 0 1 1 5.18 0 2.462 2.462 0 0 1-2.586 2.635zm29.577-10.11h-4.674a5.008 5.008 0 0 0-4.483-2.884c-3.24 0-5.552 2.95-5.544 7.591-.008 4.691 2.3 7.624 5.544 7.624a5.1 5.1 0 0 0 4.7-3.323h4.459v8h2.959V3.815h-2.959zm-9.157 9.622c-1.591 0-2.685-1.724-2.677-4.914-.008-3.157 1.086-4.89 2.677-4.89 1.608 0 2.677 1.732 2.685 4.89-.009 3.184-1.078 4.913-2.686 4.913zm5.378-3.008a12.644 12.644 0 0 0 .141-1.906 12.443 12.443 0 0 0-.207-2.3h3.845v4.2zm34.541-2.71h-2.743a28.063 28.063 0 0 0 .439-5.677V4.751h-14.817v2.387H676.5a25.393 25.393 0 0 1-.456 4.972H662.29v2.4h8.21v3.058h-6.257v2.345H676.5v5.254h3v-7.6h-6v-3.061h8.3zm16.757-.041h-2V4.188h-2.8v19.931h2.8v-9.63h2v10.674h2.876V3.815h-2.876zM686.9 6.185h-3V19.95h1.45a41.762 41.762 0 0 0 7.5-.63l-.3-2.577a34.653 34.653 0 0 1-5.652.6zm39.356-2.337h-3v15.7h3v-7.222h2.867V9.848h-2.867zm-4.227 9.82q-1.206.149-2.486.249V7.992h1.74V5.613h-11.5v2.379h1.749v6.265c-.812.008-1.591.017-2.32.017l.323 2.4a77.407 77.407 0 0 0 12.721-.8zm-5.362-5.677v6.116c-.762.033-1.517.066-2.262.083v-6.2zm-4.251 10.069v6.73h14.6v-2.412h-11.621v-4.317zm33.284-6.09h-1.923V4.146h-2.826v20.03h2.826v-9.77h1.923v10.757h2.859V3.815H745.7zm-6.539 7.823V6.036h-8.486v13.757zM736.37 8.39v9.058h-2.892V8.39zm22.7 5.85a1.525 1.525 0 0 0 1.488 1.608 1.488 1.488 0 0 0 1.512-1.608 1.463 1.463 0 0 0-1.488-1.584 1.509 1.509 0 0 0-1.509 1.584zm22.189-.19c4.583.008 7.782-1.815 7.782-4.691 0-2.942-3.2-4.823-7.782-4.823s-7.749 1.881-7.74 4.823c-.005 2.876 3.169 4.699 7.744 4.691zm0-7.127c2.884.008 4.691.862 4.691 2.436 0 1.5-1.807 2.329-4.691 2.337-2.859-.008-4.674-.837-4.657-2.337-.013-1.574 1.798-2.428 4.661-2.436zm-9.7 8.776v2.4h4.467v7.061h3.074V18.1h4.376v7.061h3.033V18.1h4.566v-2.4zm31.964-2.2h6.177v-2.275h-11.979v-1.218h11.3V7.834h-11.3V6.649h11.8V4.337h-14.783V13.5h5.793v1.32h-8.238v2.345H811.8V14.82h-8.271zm-1.5 4.633c-4.765-.008-7.467 1.26-7.467 3.506 0 2.3 2.7 3.522 7.467 3.514 4.707.008 7.417-1.21 7.434-3.514-.009-2.238-2.719-3.511-7.426-3.503zm0 4.807c-3.058.008-4.483-.39-4.475-1.3-.008-.9 1.417-1.293 4.475-1.293 3.008 0 4.425.4 4.434 1.293-.001.913-1.418 1.311-4.426 1.303z" transform="translate(30 51)"/>
    </g>
    <g id="fc_start_end" transform="translate(114 100)">
        <g transform="translate(-114 -100)" style="filter:url(#area)">
            <g id="area-3" data-name="area" class="cls-5" transform="translate(114 100)">
                <rect class="cls-10" width="1108" height="130" rx="65"/>
                <rect class="cls-11" x="1" y="1" width="1106" height="128" rx="64"/>
            </g>
        </g>
        <path id="패스_11117" data-name="패스 11117" class="cls-6" d="M423.222 11.481v5.412h2.834V3.848h-2.834v5.2h-1.79V4.221h-2.776v12h2.776v-4.74zm-10.077.564a6.92 6.92 0 0 0 3.837 3.53l1.591-2.287a5.861 5.861 0 0 1-4.019-5.652V5.124h-2.909v2.511a6.775 6.775 0 0 1-4.21 6.307l1.608 2.312a7.619 7.619 0 0 0 4.102-4.21zm5.619 5.138c-4.517 0-7.392 1.492-7.376 3.978-.017 2.486 2.859 4 7.376 3.994 4.5.008 7.392-1.508 7.4-3.994-.008-2.487-2.9-3.979-7.4-3.979zm0 5.718c-2.793.008-4.4-.58-4.392-1.74-.008-1.144 1.6-1.749 4.392-1.74 2.776-.008 4.384.6 4.392 1.74-.008 1.159-1.616 1.748-4.392 1.739zm17.652-17.735V3.649h-2.983v1.517h-4.624v2.005h12.2V5.166zm9.116-1.351h-2.992v12.563h2.992v-5.022h2.735V8.862h-2.735zm-3.986 9.7a63.113 63.113 0 0 1-5.13.439V13.1c2.287-.282 3.7-1.251 3.7-2.768-.008-1.724-2.055-2.743-5.221-2.743-3.182 0-5.238 1.019-5.229 2.743-.008 1.533 1.434 2.5 3.762 2.776v.945c-1.856.041-3.63.041-5.188.041l.307 2.055a81.893 81.893 0 0 0 13.21-.787zm-9.017-3.174c-.008-.6.854-.887 2.37-.887 1.5 0 2.354.282 2.362.887-.008.646-.862.978-2.362.978-1.517-.004-2.378-.336-2.37-.982zm13 11.586v-4.778h-14.442v1.981h11.461v.978h-11.436v4.906h15.133v-2H434.1v-1.091zm20.76-9.423V3.815h-3.017v21.348h3.017V14.978h2.785V12.5zm-9.05-6.3V3.939h-3.008V6.2h-4.84v2.347h12.655V6.2zm0 11.064c2.254-.431 3.754-1.89 3.771-3.862-.017-2.4-2.2-4.019-5.246-4.019-3.108 0-5.262 1.624-5.254 4.019-.008 1.964 1.459 3.414 3.721 3.854v1.84c-1.889.041-3.7.041-5.254.041l.4 2.436a72.853 72.853 0 0 0 13.036-.87l-.2-2.171c-1.591.224-3.282.356-4.972.448zm-3.884-3.868c-.008-1.11.953-1.74 2.412-1.74 1.417 0 2.37.63 2.37 1.74s-.953 1.724-2.37 1.724c-1.459.003-2.42-.602-2.412-1.724zm24.456-7.666V3.715h-2.983v2.023h-4.848v2.345h12.663V5.738zm9.1 3.63V3.815h-3v13.392h3V11.8h2.867V9.367zm-5.345 3.34c0-2.345-2.155-3.928-5.246-3.936-3.1.008-5.3 1.591-5.3 3.936-.008 2.345 2.2 3.928 5.3 3.928s5.245-1.58 5.245-3.925zm-7.633 0c0-1.094.953-1.682 2.387-1.691 1.425.008 2.4.6 2.412 1.691-.008 1.086-.986 1.649-2.412 1.649s-2.388-.56-2.388-1.646zm9.978 7.782v4.674h3V18.1h-14.363v2.387zm22.434 4.674h2.826V3.815h-2.826zM499.2 11.141v2.4h2.809v10.628h2.8v-20h-2.8v6.97zM497.485 8.4h3.232V6H491.1v2.4h3.5v1.133c0 3.63-1.169 7.459-4.309 9.4l1.807 2.2a9.93 9.93 0 0 0 3.978-5.809 9.022 9.022 0 0 0 3.878 5.32l1.749-2.2c-3.116-1.782-4.227-5.362-4.218-8.917zm15.854 1.657v2.4h15.721v-2.4h-2.635V6.815h2.775v-2.4h-16v2.4h2.768v3.24zm5.611 0V6.815h4.467v3.24zm12 3.762h-19.46v2.361h8.21v1.831h-5.959v6.912h14.867v-6.912h-5.934V16.18h8.271zm-14.262 8.71v-2.2h9.008v2.2zm36.7 2.635h2.826V3.815h-2.826zm-7.144-14.022v2.4h2.809v10.627h2.8v-20h-2.8v6.97zM544.523 8.4h3.232V6h-9.613v2.4h3.5v1.133c0 3.63-1.169 7.459-4.309 9.4l1.807 2.2a9.93 9.93 0 0 0 3.978-5.809 9.022 9.022 0 0 0 3.878 5.32l1.749-2.2c-3.116-1.782-4.227-5.362-4.218-8.917zm15.97 8.039c3.68-.671 6.414-2.552 7.765-5.13 1.376 2.528 4.144 4.351 7.881 5.006l1.185-2.362c-4.575-.671-7.235-3.265-7.492-6.083h6.5V5.448h-16.179v2.42h6.489c-.257 2.826-2.9 5.494-7.326 6.207zm9.273-.945h-3v4.757h-8.238v2.428h19.508v-2.43h-8.271zm17.756-1.252a1.525 1.525 0 0 0 1.488 1.608 1.488 1.488 0 0 0 1.512-1.608 1.463 1.463 0 0 0-1.488-1.584 1.509 1.509 0 0 0-1.512 1.582zm22.256-5.005c1.392 2.312 4.127 4.044 7.856 4.575L618.8 11.4c-4.881-.6-7.45-3.39-7.45-5.909V4.453h-3.141v1.036c-.008 2.519-2.569 5.3-7.417 5.909l1.177 2.412c3.698-.531 6.416-2.263 7.809-4.575zm-9.738 6.191v2.436h8.188v7.3h2.959v-7.3h8.313v-2.439zm35.6-11.61v11.475h3V3.815zm-8.693.9c-3.331-.008-5.843 2.072-5.834 5.064-.008 2.917 2.5 5 5.834 5s5.826-2.08 5.826-5c.002-3-2.501-5.082-5.824-5.072zm0 2.494a2.578 2.578 0 0 1 2.876 2.569c0 1.591-1.21 2.536-2.876 2.544-1.707-.008-2.925-.953-2.909-2.544-.014-1.607 1.204-2.581 2.911-2.581zm-2.569 9.025v8.693h14.262v-8.701h-2.983v1.981h-8.337v-1.981zm2.942 4.3h8.337V22.5h-8.337z" transform="translate(30 50)"/>
    </g>
    <g id="fc_start_end-2" data-name="fc_start_end" transform="translate(114 1540)">
        <g transform="translate(-114 -1540)" style="filter:url(#area-2)">
            <g id="area-4" data-name="area" class="cls-5" transform="translate(114 1540)">
                <rect class="cls-10" width="1108" height="130" rx="65"/>
                <rect class="cls-11" x="1" y="1" width="1106" height="128" rx="64"/>
            </g>
        </g>
        <path id="패스_11130" data-name="패스 11130" class="cls-6" d="M419.728 3.832h-3V19.37h3v-6.953h2.872V9.956h-2.867zm-5.1 6.787A5.507 5.507 0 0 0 408.8 5.2c-3.273 0-5.859 2.254-5.843 5.42-.017 3.133 2.569 5.42 5.843 5.42a5.527 5.527 0 0 0 5.823-5.421zm-8.743 0a2.915 2.915 0 0 1 5.826 0 2.915 2.915 0 0 1-5.826 0zm.008 7.11v7.061h14.6v-2.412h-11.622v-4.649zm29.171-5.95h3.489v7.641h2.983V3.848h-2.983v5.519h-3.489zm-4.939.58a8.109 8.109 0 0 0 4.914 4.251l1.475-2.37a6.573 6.573 0 0 1-4.914-6.223v-.34h4.251v-2.4h-11.565v2.4h4.276V8a6.884 6.884 0 0 1-5.13 6.622l1.533 2.42a8.412 8.412 0 0 0 5.155-4.683zm.24 5.7h-2.983v6.731h14.66v-2.412H430.36zm28.84 7.1h3.025V3.815h-3.03zm-13.682-19.1v2.347h7.268c-.481 4.74-2.909 8.1-8.412 10.715l1.558 2.378c7.624-3.6 9.9-8.975 9.9-15.439zm21.489 7.376c3.978-.439 6.622-2.113 7.749-4.309 1.127 2.2 3.787 3.87 7.782 4.309l1.1-2.345c-4.21-.472-6.423-2.254-6.771-3.994h5.892V4.743h-15.94V7.1h5.851c-.348 1.732-2.536 3.522-6.746 3.994zm-1.972 3.406h8.528v3.671h2.959v-3.669h8.022v-2.4h-19.515zm2.287 1.782v6.167H482.4v-2.412h-12.1v-3.754zm39.017-9.671h-3.307V11.4h3.307v5.138h2.983V3.815h-2.983zM497.91 11.7a7.975 7.975 0 0 0 4.914 4.21l1.475-2.3a6.6 6.6 0 0 1-4.906-6.21h4.251V5.017h-11.568V7.4h4.276a6.944 6.944 0 0 1-5.13 6.588l1.533 2.362a8.275 8.275 0 0 0 5.155-4.65zm8.428 8.171v5.3h2.983v-7.699h-14.66v2.4zM519.921 5.7V3.674h-2.983V5.7h-4.848v2.35h12.663V5.7zm9.1 3.265v-5.15h-3V16.32h3v-4.864h2.867V8.97zM518.429 16.2c3.091.008 5.246-1.492 5.246-3.771s-2.155-3.762-5.246-3.771c-3.149.008-5.3 1.5-5.3 3.771-.004 2.271 2.151 3.771 5.3 3.771zm-2.387-3.771c0-.994.953-1.583 2.387-1.575 1.425-.008 2.4.58 2.412 1.575-.008 1.036-.986 1.591-2.412 1.591s-2.386-.559-2.386-1.595zm1.981 6.34v-1.636h-2.967v7.79h13.964v-7.79h-3v1.633zm0 3.8v-1.508h8v1.508zm28.293-17.163v-1.74h-2.983v1.74h-4.624v2.171h12.2V5.406zm9.116 4.541v-6.1h-2.992v14.496h2.992V12.4h2.735V9.948zm-3.986 5.072c-1.633.2-3.381.34-5.13.423v-1.1c2.271-.34 3.7-1.467 3.7-3.091-.008-1.972-2.08-3.191-5.221-3.182-3.157-.008-5.238 1.21-5.229 3.182-.008 1.641 1.442 2.776 3.762 3.1v1.2c-1.848.05-3.622.058-5.188.058l.307 2.312a79.952 79.952 0 0 0 13.21-.845zm-9.017-3.771c-.008-.82.854-1.193 2.37-1.193 1.5 0 2.354.373 2.362 1.193-.008.779-.862 1.235-2.362 1.227-1.516.008-2.378-.447-2.37-1.226zM552.44 21.5v3.663h2.992v-5.975h-14.577V21.5zm21.547-17.652V19.18h3V3.848zm-2.867 6.729c0-3.124-2.552-5.378-5.826-5.378s-5.843 2.254-5.834 5.378c-.008 3.174 2.561 5.412 5.834 5.412s5.826-2.238 5.826-5.412zm-8.735 0a2.895 2.895 0 0 1 5.785 0 2.893 2.893 0 0 1-5.785 0zm3.331 7.052h-3.025v7.16h14.859v-2.411h-11.833zm34.559-13.781V19.42h3V3.848zm-8.221 7.852a8.221 8.221 0 0 0 5.014 4.434l1.525-2.354a6.773 6.773 0 0 1-5.006-6.713v-2.05h-3.1v2.055a7.257 7.257 0 0 1-5.146 7.077l1.558 2.362a8.522 8.522 0 0 0 5.155-4.811zM592 17.9h-3.025v6.89h14.859v-2.412H592zm30.887 0a50.693 50.693 0 0 0 .854-10.21V5.671h-15.56V8.05h12.564a46.222 46.222 0 0 1-.87 9.539zm-6.787-5.118h-2.967v7.334h-6.961v2.428h19.459v-2.428H616.1zM639.689 15v-1.687h-4.235v-.068l1.508-1.455c2.04-1.847 2.586-2.775 2.591-3.9 0-1.716-1.412-2.925-3.539-2.925-2.079 0-3.514 1.237-3.509 3.176h1.953a1.56 1.56 0 0 1 3.113-.121c0 .793-.5 1.339-1.421 2.224l-3.558 3.273v1.484zm4.9-3.974a9.69 9.69 0 0 0-1.946-6.126h-1.934a11.023 11.023 0 0 1 1.779 6.125 11.018 11.018 0 0 1-1.779 6.12h1.934a9.686 9.686 0 0 0 1.948-6.119z" transform="translate(30 50)"/>
    </g>
    <path id="세로-2" data-name="세로" class="cls-4" transform="translate(668 410)" d="M0 0h1v50H0z"/>
    <g id="fc_box_medium_link" transform="translate(684 640)">
        <g transform="translate(-684 -640)" style="filter:url(#box-4)">
            <g id="box-14" data-name="box" class="cls-5">
                <path class="cls-10" d="M0 0h538v130H0z" transform="translate(684 640)"/>
                <path class="cls-11" d="M1 1h536v128H1z" transform="translate(684 640)"/>
            </g>
        </g>
        <g id="fc_textlink" transform="translate(386 79)">
            <g id="stack" transform="translate(-2524.094 20210)">
                <g id="ico_fc_pdf" transform="translate(2443.005 -20209)">
                    <g id="그룹_1025" data-name="그룹 1025" transform="translate(-1101.5 -1126.5)">
                        <path id="패스_6892" data-name="패스 6892" class="cls-8" d="M1108.592 1130.5h7.714l4.286 4.286v7.714h-12z" transform="translate(-3.092)"/>
                        <path id="패스_6891" data-name="패스 6891" class="cls-8" d="M1052.728 2115.047v5h5" transform="translate(59.772 -984.547)"/>
                    </g>
                </g>
                <path id="패스_11123" data-name="패스 11123" class="cls-9" d="M-41.71-8.365v1.21h10.276v-1.21h-1.978v-2.674h2.039v-1.2h-10.4v1.2h2.044v2.674zm3.459 0v-2.674h3.351v2.674zm8.077 2.392h-12.762v1.193h5.636v1.5h-4.11v4.429h9.674v-4.425h-4.1v-1.5h5.657zm-9.768 5.918V-2.11h6.768v2.055zm17.95-7.238h4.022v-4.8h-9.508v4.8h4.011v1.63H-29.1v1.2h12.76v-1.2h-5.652zm2.558-3.63v2.442h-6.591v-2.442zm.033 8.961v3.288h1.492v-4.464h-9.779v1.177zM-.362-12.674h-1.486v8.448h1.486v-3.686h2.028v-1.237H-.362zM-7.251-8.05a5.583 5.583 0 0 0 3.3 3.011l.79-1.166a4.588 4.588 0 0 1-3.381-4.227v-1.514h-1.47v1.387a5.013 5.013 0 0 1-3.459 4.735l.8 1.177a5.766 5.766 0 0 0 3.42-3.403zm2.364 4.15c-2.906 0-4.7.961-4.7 2.591 0 1.663 1.79 2.608 4.7 2.608C-2 1.3-.235.359-.235-1.3c0-1.634-1.765-2.6-4.652-2.6zm0 4.033C-6.909.127-8.108-.376-8.1-1.3c-.011-.89 1.188-1.414 3.21-1.414s3.2.525 3.2 1.414C-1.688-.376-2.87.127-4.887.138zm17.973 1.193h1.425v-14h-1.425zM8.025-7.751v1.232h2.182V.635h1.4V-12.4h-1.4v4.652zM6.738-11.4H5.3v2.613a7.023 7.023 0 0 1-3.022 6.05l.928 1.1a6.975 6.975 0 0 0 2.835-4.109 6.471 6.471 0 0 0 2.674 3.812l.835-1.149a6.729 6.729 0 0 1-2.812-5.768zm16.674 6.892H27.6v-7.21h-1.476V-9.3h-6.873v-2.414h-1.486v7.21h4.177v2.873h-5.635v1.222h12.812v-1.226h-5.707zm2.713-3.6v2.4h-6.874v-2.4zm14.16 9.436h1.492v-14h-1.492zm-9.332-12.494v1.182H36.1c-.293 3.265-2.1 5.79-5.829 7.558l.785 1.2c4.807-2.293 6.547-5.845 6.558-9.939zM-43.456 2h86.912v1h-86.912z" transform="translate(2395.55 -20194)"/>
            </g>
        </g>
        <path id="패스_11122" data-name="패스 11122" class="cls-6" d="M141.794 8.331c1.359 2.1 4.028 3.655 7.641 4.144l1.094-2.354c-4.724-.539-7.21-3.025-7.2-5.262v-.7h-3.083v.7c-.008 2.254-2.5 4.724-7.243 5.262l1.144 2.354c3.62-.489 6.28-2.039 7.647-4.144zM132.057 16h19.459v-2.348h-19.459zm9.688 1.442c-4.666-.008-7.467 1.367-7.467 3.878 0 2.461 2.8 3.862 7.467 3.87 4.616-.008 7.417-1.409 7.434-3.87-.017-2.513-2.818-3.889-7.435-3.881zm0 5.461c-2.95.008-4.434-.489-4.417-1.583-.017-1.11 1.467-1.608 4.417-1.624 2.9.017 4.425.514 4.434 1.624-.009 1.092-1.534 1.589-4.435 1.58zm25.914-19.055V19.18h3V3.848zm-2.867 6.729c0-3.124-2.552-5.378-5.826-5.378s-5.843 2.254-5.834 5.378c-.008 3.174 2.561 5.412 5.834 5.412s5.825-2.238 5.825-5.412zm-8.735 0a2.895 2.895 0 0 1 5.785 0 2.893 2.893 0 0 1-5.785 0zm3.331 7.052h-3.025v7.16h14.859v-2.411h-11.834zm35.312-5.568h-2.055V4.188H189.9v19.931h2.743v-9.663h2.057v10.707h2.826V3.815H194.7zM182.692 8.7h4.964V6.3h-7.964v14.03h1.492a38.764 38.764 0 0 0 7.682-.588l-.224-2.436a35.124 35.124 0 0 1-5.95.522zm34.077-4.881h-3v12.659h3V11.29h2.867V8.812h-2.867zm-10.624 7.732a7.889 7.889 0 0 0 4.765 4.069l1.583-2.329c-3.373-1.036-4.881-3.522-4.881-6.108V4.959h-2.992V6.89a7.112 7.112 0 0 1-5.1 6.978l1.608 2.345a8.2 8.2 0 0 0 5.017-4.666zm3.622 5.37c-4.492-.008-7.309 1.525-7.3 4.1-.008 2.627 2.809 4.144 7.3 4.135 4.425.008 7.2-1.508 7.2-4.135.001-2.579-2.775-4.112-7.2-4.104zm0 5.9c-2.793-.008-4.318-.58-4.309-1.8-.008-1.152 1.517-1.773 4.309-1.773 2.776 0 4.251.622 4.251 1.773 0 1.217-1.475 1.788-4.251 1.797zm31.972 2.345h2.826V3.815h-2.826zM234.6 11.141v2.4h2.8v10.628h2.8v-20h-2.8v6.97zM232.88 8.4h3.232V6H226.5v2.4h3.5v1.133c0 3.63-1.169 7.459-4.309 9.4l1.807 2.2a9.93 9.93 0 0 0 3.978-5.809 9.022 9.022 0 0 0 3.878 5.32l1.749-2.2c-3.116-1.782-4.227-5.362-4.218-8.917zm15.854 1.657v2.4h15.721v-2.4h-2.635V6.815h2.78v-2.4h-16v2.4h2.768v3.24zm5.61 0V6.815h4.467v3.24zm12 3.762h-19.459v2.361h8.215v1.831h-5.96v6.912h14.867v-6.912h-5.934V16.18h8.271zm-14.262 8.71v-2.2h9.008v2.2zm22.575-6.34A16.61 16.61 0 0 0 278 26.68h3.307c-1.715-2.188-3.041-6.572-3.041-10.492s1.326-8.312 3.041-10.5H278a16.618 16.618 0 0 0-3.344 10.5zM287.535 23l7.16-14.03V6.028H282.72V8.92h8.32v.116L283.888 23zM298.2 10.055v2.4h15.721v-2.4h-2.635v-3.24h2.776v-2.4h-16v2.4h2.768v3.24zm5.611 0v-3.24h4.467v3.24zm12 3.762h-19.459v2.363h8.213v1.831h-5.959v6.912h14.867v-6.912h-5.933V16.18h8.271zm-14.262 8.71v-2.2h9.008v2.2zM328.3 12.185h5.793V4.669h-14.586v7.517h5.793v2.03h-8.2v2.4h19.459v-2.4H328.3zM331.151 7v2.84h-8.718V7zm.05 13.541v4.624h2.992v-6.97h-14.935v2.345zm13.251-4.351a16.612 16.612 0 0 0-3.34-10.5H337.8c1.724 2.188 3.05 6.572 3.05 10.5s-1.326 8.3-3.05 10.492h3.315a16.6 16.6 0 0 0 3.337-10.494z" transform="translate(30 36)"/>
    </g>
    <g id="fc_box_medium" transform="translate(114 820)">
        <g transform="translate(-114 -820)" style="filter:url(#box-5)">
            <g id="box-15" data-name="box" class="cls-5">
                <path class="cls-10" d="M0 0h538v130H0z" transform="translate(114 820)"/>
                <path class="cls-11" d="M1 1h536v128H1z" transform="translate(114 820)"/>
            </g>
        </g>
        <path id="패스_11124" data-name="패스 11124" class="cls-6" d="M191.539 3.832h-3V19.37h3v-6.953h2.867V9.956h-2.867zm-5.1 6.787a5.507 5.507 0 0 0-5.826-5.42c-3.273 0-5.859 2.254-5.843 5.42-.017 3.133 2.569 5.42 5.843 5.42a5.527 5.527 0 0 0 5.821-5.42zm-8.743 0a2.915 2.915 0 0 1 5.826 0 2.915 2.915 0 0 1-5.826 0zm.008 7.11v7.061h14.6v-2.412h-11.622v-4.649zm29.171-5.95h3.489v7.641h2.983V3.848h-2.983v5.519h-3.494zm-4.939.58a8.109 8.109 0 0 0 4.914 4.251l1.475-2.37a6.573 6.573 0 0 1-4.906-6.224v-.34h4.251v-2.4H196.1v2.4h4.276V8a6.884 6.884 0 0 1-5.13 6.622l1.533 2.42a8.412 8.412 0 0 0 5.152-4.683zm.24 5.7h-2.983v6.731h14.66v-2.412h-11.682zm28.84 7.1h3.025V3.815h-3.025zm-13.682-19.1v2.347h7.266c-.481 4.74-2.909 8.1-8.412 10.715l1.558 2.378c7.624-3.6 9.9-8.975 9.9-15.439zm21.489 7.376c3.978-.439 6.622-2.113 7.749-4.309 1.127 2.2 3.787 3.87 7.782 4.309l1.1-2.345c-4.21-.472-6.423-2.254-6.771-3.994h5.892V4.743h-15.94V7.1h5.851c-.348 1.732-2.536 3.522-6.746 3.994zm-1.972 3.406h8.528v3.671h2.959v-3.669h8.022v-2.4h-19.515zm2.287 1.782v6.167h15.075v-2.412h-12.097v-3.754zm31.95-13.217v-1.74H268.1v1.74h-4.624v2.171h12.2V5.406zm9.112 4.542v-6.1h-2.992v14.495h2.992V12.4h2.735V9.948zm-3.986 5.072c-1.633.2-3.381.34-5.13.423v-1.1c2.271-.34 3.7-1.467 3.7-3.091-.008-1.972-2.08-3.191-5.221-3.182-3.157-.008-5.238 1.21-5.229 3.182-.008 1.641 1.442 2.776 3.762 3.1v1.2c-1.848.05-3.622.058-5.188.058l.307 2.312a79.952 79.952 0 0 0 13.21-.845zm-9.014-3.771c-.008-.82.854-1.193 2.37-1.193 1.5 0 2.354.373 2.362 1.193-.008.779-.862 1.235-2.362 1.227-1.515.007-2.377-.448-2.37-1.227zM277.213 21.5v3.663h2.987v-5.975h-14.573V21.5zM298.76 3.848V19.18h3V3.848zm-2.867 6.729c0-3.124-2.552-5.378-5.826-5.378s-5.843 2.254-5.834 5.378c-.008 3.174 2.561 5.412 5.834 5.412s5.825-2.238 5.825-5.412zm-8.735 0a2.895 2.895 0 0 1 5.785 0 2.893 2.893 0 0 1-5.785 0zm3.331 7.052h-3.025v7.16h14.859v-2.411h-11.834z" transform="translate(30 50)"/>
    </g>
    <g id="fc_box_medium-2" data-name="fc_box_medium" transform="translate(114 1000)">
        <g transform="translate(-114 -1000)" style="filter:url(#box-6)">
            <g id="box-16" data-name="box" class="cls-5">
                <path class="cls-10" d="M0 0h538v130H0z" transform="translate(114 1000)"/>
                <path class="cls-11" d="M1 1h536v128H1z" transform="translate(114 1000)"/>
            </g>
        </g>
        <path id="패스_11127" data-name="패스 11127" class="cls-6" d="M135.721 3.832h-3V19.37h3v-6.953h2.867V9.956h-2.867zm-5.1 6.787A5.507 5.507 0 0 0 124.79 5.2c-3.273 0-5.859 2.254-5.843 5.42-.017 3.133 2.569 5.42 5.843 5.42a5.527 5.527 0 0 0 5.826-5.421zm-8.743 0a2.915 2.915 0 0 1 5.826 0 2.915 2.915 0 0 1-5.826 0zm.008 7.11v7.061h14.6v-2.412h-11.621v-4.649zm29.171-5.95h3.489v7.641h2.983V3.848h-2.983v5.519h-3.489zm-4.939.58a8.109 8.109 0 0 0 4.914 4.251l1.475-2.37a6.573 6.573 0 0 1-4.907-6.223v-.34h4.251v-2.4h-11.572v2.4h4.276V8a6.884 6.884 0 0 1-5.13 6.622l1.533 2.42a8.412 8.412 0 0 0 5.155-4.683zm.24 5.7h-2.988v6.731h14.66v-2.412h-11.676zm28.84 7.1h3.025V3.815h-3.025zm-13.682-19.1v2.347h7.268c-.481 4.74-2.909 8.1-8.412 10.715l1.558 2.378c7.624-3.6 9.9-8.975 9.9-15.439zM183 13.436c3.978-.439 6.622-2.113 7.749-4.309 1.127 2.2 3.787 3.87 7.782 4.309l1.1-2.345c-4.21-.472-6.423-2.254-6.771-3.994h5.892V4.743h-15.934V7.1h5.851c-.348 1.732-2.536 3.522-6.746 3.994zm-1.972 3.406h8.528v3.671h2.959v-3.67h8.022v-2.4h-19.509zm2.287 1.782v6.166h15.075v-2.412H186.3v-3.754zm39.017-9.671h-3.307V11.4h3.307v5.138h2.983V3.815h-2.983zM213.9 11.7a7.975 7.975 0 0 0 4.914 4.21l1.475-2.3a6.6 6.6 0 0 1-4.902-6.21h4.251V5.017h-11.569V7.4h4.276a6.944 6.944 0 0 1-5.13 6.588l1.533 2.362a8.275 8.275 0 0 0 5.152-4.65zm8.428 8.171v5.3h2.983v-7.699h-14.66v2.4zM235.914 5.7V3.674h-2.983V5.7h-4.848v2.35h12.663V5.7zm9.1 3.265v-5.15h-3V16.32h3v-4.864h2.867V8.97zM234.423 16.2c3.091.008 5.246-1.492 5.246-3.771s-2.155-3.762-5.246-3.771c-3.149.008-5.3 1.5-5.3 3.771-.004 2.271 2.15 3.771 5.3 3.771zm-2.387-3.771c0-.994.953-1.583 2.387-1.575 1.425-.008 2.4.58 2.412 1.575-.008 1.036-.986 1.591-2.412 1.591s-2.387-.559-2.387-1.595zm1.981 6.34v-1.636h-2.967v7.79h13.964v-7.79h-3v1.633zm0 3.8v-1.508h8v1.508zm28.292-17.163v-1.74h-2.983v1.74H254.7v2.171h12.2V5.406zm9.116 4.541v-6.1h-2.992v14.496h2.992V12.4h2.735V9.948zm-3.986 5.072c-1.633.2-3.381.34-5.13.423v-1.1c2.271-.34 3.7-1.467 3.7-3.091-.008-1.972-2.08-3.191-5.221-3.182-3.157-.008-5.238 1.21-5.229 3.182-.008 1.641 1.442 2.776 3.762 3.1v1.2c-1.848.05-3.622.058-5.188.058l.307 2.312a79.952 79.952 0 0 0 13.21-.845zm-9.017-3.771c-.008-.82.854-1.193 2.37-1.193 1.5 0 2.354.373 2.362 1.193-.008.779-.862 1.235-2.362 1.227-1.516.008-2.378-.447-2.369-1.226zM268.434 21.5v3.663h2.992v-5.975h-14.578V21.5zm21.547-17.652V19.18h3V3.848zm-2.867 6.729c0-3.124-2.552-5.378-5.826-5.378s-5.843 2.254-5.834 5.378c-.008 3.174 2.561 5.412 5.834 5.412s5.825-2.238 5.825-5.412zm-8.735 0a2.895 2.895 0 0 1 5.785 0 2.893 2.893 0 0 1-5.785 0zm3.331 7.052h-3.025v7.16h14.859v-2.411H281.71zm34.533 7.583h3.025V3.815h-3.025zm-6.522-19.748h-3.033v3.191c-.017 4.144-1.823 8.229-5.552 9.8l1.807 2.486a10.247 10.247 0 0 0 5.3-6.389 9.946 9.946 0 0 0 5.1 5.867l1.765-2.4c-3.63-1.525-5.4-5.453-5.387-9.373zm20.262.224V3.649h-2.959v2.039h-4.814v2.378h12.572V5.688zm7.177 4.4h-2.76v2.436h2.76v4.2h2.983V3.815h-2.983zm-3.53 2.519c0-2.246-2.122-3.837-5.113-3.837s-5.138 1.591-5.138 3.837c0 2.312 2.146 3.845 5.138 3.854 2.991-.008 5.113-1.541 5.113-3.853zm-7.376 0c-.017-1.019.87-1.591 2.262-1.583 1.351-.008 2.246.564 2.246 1.583 0 1.069-.9 1.641-2.246 1.641-1.392.001-2.278-.571-2.262-1.64zm13.889 12.315v-7.3h-14.336v7.3zm-2.925-4.948v2.552H328.8v-2.551zM350.921 5.1l-2.451 1.557v1.827l2.272-1.426h.058V15h2.059V5.1zm7.676 5.926a9.69 9.69 0 0 0-1.948-6.126h-1.934a11.023 11.023 0 0 1 1.779 6.125 11.018 11.018 0 0 1-1.779 6.12h1.934a9.685 9.685 0 0 0 1.951-6.119z" transform="translate(30 50)"/>
    </g>
    <g id="fc_box_medium_link-2" data-name="fc_box_medium_link" transform="translate(114 640)">
        <g transform="translate(-114 -640)" style="filter:url(#box-7)">
            <g id="box-17" data-name="box" class="cls-5">
                <path class="cls-10" d="M0 0h538v130H0z" transform="translate(114 640)"/>
                <path class="cls-11" d="M1 1h536v128H1z" transform="translate(114 640)"/>
            </g>
        </g>
        <g id="fc_textlink-2" data-name="fc_textlink" transform="translate(386 79)">
            <g id="stack-2" data-name="stack" transform="translate(-2524.094 20210)">
                <g id="ico_fc_pdf-2" data-name="ico_fc_pdf" transform="translate(2443.005 -20209)">
                    <g id="그룹_1025-2" data-name="그룹 1025" transform="translate(-1101.5 -1126.5)">
                        <path id="패스_6892-2" data-name="패스 6892" class="cls-8" d="M1108.592 1130.5h7.714l4.286 4.286v7.714h-12z" transform="translate(-3.092)"/>
                        <path id="패스_6891-2" data-name="패스 6891" class="cls-8" d="M1052.728 2115.047v5h5" transform="translate(59.772 -984.547)"/>
                    </g>
                </g>
                <path id="패스_11121" data-name="패스 11121" class="cls-9" d="M-41.71-8.365v1.21h10.276v-1.21h-1.978v-2.674h2.039v-1.2h-10.4v1.2h2.044v2.674zm3.459 0v-2.674h3.351v2.674zm8.077 2.392h-12.762v1.193h5.636v1.5h-4.11v4.429h9.674v-4.425h-4.1v-1.5h5.657zm-9.768 5.918V-2.11h6.768v2.055zm17.95-7.238h4.022v-4.8h-9.508v4.8h4.011v1.63H-29.1v1.2h12.76v-1.2h-5.652zm2.558-3.63v2.442h-6.591v-2.442zm.033 8.961v3.288h1.492v-4.464h-9.779v1.177zM-.362-12.674h-1.486v8.448h1.486v-3.686h2.028v-1.237H-.362zM-7.251-8.05a5.583 5.583 0 0 0 3.3 3.011l.79-1.166a4.588 4.588 0 0 1-3.381-4.227v-1.514h-1.47v1.387a5.013 5.013 0 0 1-3.459 4.735l.8 1.177a5.766 5.766 0 0 0 3.42-3.403zm2.364 4.15c-2.906 0-4.7.961-4.7 2.591 0 1.663 1.79 2.608 4.7 2.608C-2 1.3-.235.359-.235-1.3c0-1.634-1.765-2.6-4.652-2.6zm0 4.033C-6.909.127-8.108-.376-8.1-1.3c-.011-.89 1.188-1.414 3.21-1.414s3.2.525 3.2 1.414C-1.688-.376-2.87.127-4.887.138zm17.973 1.193h1.425v-14h-1.425zM8.025-7.751v1.232h2.182V.635h1.4V-12.4h-1.4v4.652zM6.738-11.4H5.3v2.613a7.023 7.023 0 0 1-3.022 6.05l.928 1.1a6.975 6.975 0 0 0 2.835-4.109 6.471 6.471 0 0 0 2.674 3.812l.835-1.149a6.729 6.729 0 0 1-2.812-5.768zm16.674 6.892H27.6v-7.21h-1.476V-9.3h-6.873v-2.414h-1.486v7.21h4.177v2.873h-5.635v1.222h12.812v-1.226h-5.707zm2.713-3.6v2.4h-6.874v-2.4zm14.16 9.436h1.492v-14h-1.492zm-9.332-12.494v1.182H36.1c-.293 3.265-2.1 5.79-5.829 7.558l.785 1.2c4.807-2.293 6.547-5.845 6.558-9.939zM-43.456 2h86.912v1h-86.912z" transform="translate(2395.55 -20194)"/>
            </g>
        </g>
        <path id="패스_11120" data-name="패스 11120" class="cls-6" d="M138.773 3.848V19.42h3V3.848zm-8.221 7.852a8.221 8.221 0 0 0 5.014 4.434l1.525-2.354a6.773 6.773 0 0 1-5.006-6.713v-2.05h-3.1v2.055a7.257 7.257 0 0 1-5.146 7.077l1.558 2.362a8.522 8.522 0 0 0 5.155-4.811zm-.05 6.2h-3.025v6.89h14.859v-2.412H130.5zm30.887 0a50.7 50.7 0 0 0 .854-10.21V5.671H146.68V8.05h12.564a46.222 46.222 0 0 1-.87 9.539zm-6.789-5.118h-2.967v7.334h-6.961v2.428h19.459v-2.428H154.6zm31.964-.721h-2.055V4.188h-2.743v19.931h2.743v-9.663h2.055v10.707h2.826V3.815h-2.826zM174.558 8.7h4.964V6.3h-7.964v14.03h1.492a38.764 38.764 0 0 0 7.682-.588l-.224-2.436a35.124 35.124 0 0 1-5.95.522zm34.077-4.881h-3v12.659h3V11.29h2.865V8.812h-2.867zm-10.624 7.732a7.889 7.889 0 0 0 4.765 4.069l1.583-2.329c-3.373-1.036-4.881-3.522-4.881-6.108V4.959h-2.992V6.89a7.112 7.112 0 0 1-5.1 6.978L193 16.213a8.2 8.2 0 0 0 5.011-4.666zm3.622 5.37c-4.492-.008-7.309 1.525-7.3 4.1-.008 2.627 2.809 4.144 7.3 4.135 4.425.008 7.2-1.508 7.2-4.135.001-2.579-2.775-4.112-7.2-4.104zm0 5.9c-2.793-.008-4.318-.58-4.309-1.8-.008-1.152 1.517-1.773 4.309-1.773 2.776 0 4.251.622 4.251 1.773 0 1.217-1.475 1.788-4.251 1.797zm31.967 2.342h2.826V3.815H233.6zm-7.144-14.022v2.4h2.809v10.628h2.8v-20h-2.8v6.97zm-1.71-2.741h3.232V6h-9.613v2.4h3.5v1.133c0 3.63-1.169 7.459-4.309 9.4l1.807 2.2a9.93 9.93 0 0 0 3.978-5.809 9.022 9.022 0 0 0 3.878 5.32l1.749-2.2c-3.116-1.782-4.227-5.362-4.218-8.917zm15.854 1.655v2.4h15.72v-2.4h-2.635v-3.24h2.776v-2.4h-16v2.4h2.768v3.24zm5.61 0v-3.24h4.467v3.24zm12 3.762h-19.459v2.363h8.213v1.831h-5.959v6.912h14.867v-6.912h-5.934V16.18h8.271zm-14.262 8.71v-2.2h9.008v2.2zm22.575-6.34a16.61 16.61 0 0 0 3.347 10.493h3.307c-1.715-2.188-3.041-6.572-3.041-10.492s1.326-8.312 3.041-10.5h-3.307a16.618 16.618 0 0 0-3.348 10.5zM287.249 23v-2.892h-7.26v-.116l2.586-2.494c3.5-3.166 4.434-4.757 4.442-6.688-.009-2.943-2.417-5.01-6.067-5.01-3.564 0-6.025 2.122-6.017 5.445h3.348a2.674 2.674 0 0 1 5.337-.207c-.008 1.359-.862 2.3-2.436 3.812l-6.1 5.61.009 2.54zm8.884.232c3.862 0 6.646-2.039 6.655-4.8a4.343 4.343 0 0 0-3.738-4.193v-.116a3.809 3.809 0 0 0 3.091-3.762c-.008-2.635-2.552-4.566-6.008-4.566-3.472 0-6.017 1.931-6.017 4.566a3.784 3.784 0 0 0 3.091 3.762v.116a4.313 4.313 0 0 0-3.729 4.193c0 2.761 2.776 4.8 6.655 4.8zm0-10.2a2.351 2.351 0 0 1-2.569-2.3 2.59 2.59 0 0 1 5.138 0 2.356 2.356 0 0 1-2.569 2.298zm0 7.591c-1.8 0-2.992-1.019-2.975-2.461a3.015 3.015 0 0 1 5.959 0c-.001 1.449-1.194 2.46-2.984 2.46zm10.2-10.566v2.4h15.721v-2.4h-2.634V6.815h2.78v-2.4h-16v2.4h2.768v3.24zm5.611 0V6.815h4.467v3.24zm12 3.762h-19.458v2.361h8.214v1.831h-5.96v6.912h14.867v-6.912h-5.934V16.18h8.271zm-14.262 8.71v-2.2h9.008v2.2zm26.751-10.343h5.793V4.669h-14.585v7.517h5.793v2.03h-8.2v2.4H344.7v-2.4h-8.262zM339.284 7v2.84h-8.718V7zm.05 13.541v4.624h2.992v-6.97h-14.934v2.345zm13.251-4.351a16.612 16.612 0 0 0-3.34-10.5h-3.315c1.724 2.188 3.05 6.572 3.05 10.5s-1.326 8.3-3.05 10.492h3.315a16.6 16.6 0 0 0 3.341-10.494z" transform="translate(30 36)"/>
    </g>
    <g id="fc_box_medium-3" data-name="fc_box_medium" transform="translate(684 820)">
        <g transform="translate(-684 -820)" style="filter:url(#box-8)">
            <g id="box-18" data-name="box" class="cls-5">
                <path class="cls-10" d="M0 0h538v130H0z" transform="translate(684 820)"/>
                <path class="cls-11" d="M1 1h536v128H1z" transform="translate(684 820)"/>
            </g>
        </g>
        <path id="패스_11125" data-name="패스 11125" class="cls-6" d="M184.354 8.331c1.359 2.1 4.028 3.655 7.641 4.144l1.094-2.354c-4.724-.539-7.21-3.025-7.2-5.262v-.7H182.8v.7c-.008 2.254-2.5 4.724-7.243 5.262l1.144 2.354c3.625-.489 6.285-2.039 7.653-4.144zM174.616 16h19.459v-2.348h-19.459zm9.688 1.442c-4.666-.008-7.467 1.367-7.467 3.878 0 2.461 2.8 3.862 7.467 3.87 4.616-.008 7.417-1.409 7.434-3.87-.017-2.513-2.818-3.889-7.438-3.881zm0 5.461c-2.95.008-4.434-.489-4.417-1.583-.017-1.11 1.467-1.608 4.417-1.624 2.9.017 4.425.514 4.434 1.624-.009 1.092-1.538 1.589-4.438 1.58zm25.914-19.055V19.18h3V3.848zm-2.867 6.729c0-3.124-2.552-5.378-5.826-5.378s-5.843 2.254-5.834 5.378c-.008 3.174 2.561 5.412 5.834 5.412s5.826-2.238 5.826-5.412zm-8.735 0a2.895 2.895 0 0 1 5.785 0 2.893 2.893 0 0 1-5.785 0zm3.331 7.052h-3.025v7.16h14.859v-2.411h-11.833zm30.994-5.66V3.815h-2.991v21.348h2.992v-10.7h3.149V11.97zm-8.95-3.646h4.293V5.878h-11.817v2.445h4.517v1.31c-.017 3.53-1.807 7.5-5.362 9.157l1.74 2.362a10.573 10.573 0 0 0 5.171-6.373 10.018 10.018 0 0 0 5.014 5.826l1.666-2.345a9.492 9.492 0 0 1-5.221-8.627zm27.622 8.735h3.017v-2.412H242.1v-2.37h12.033V5.207h-15.05v2.4h12.091V9.9h-12.058v7.16h2.751v3.273h-5v2.445h19.508v-2.447h-4.765zm-2.942 0v3.273h-3.9v-3.273zm16.429-3.622c3.978-.439 6.622-2.113 7.749-4.309 1.127 2.2 3.787 3.87 7.782 4.309l1.1-2.345c-4.21-.472-6.423-2.254-6.771-3.994h5.892V4.743h-15.929V7.1h5.851c-.348 1.732-2.536 3.522-6.746 3.994zm-1.972 3.406h8.528v3.671h2.959v-3.67h8.022v-2.4h-19.504zm2.287 1.782v6.166h15.075v-2.412H268.4v-3.754zm33.32-14.809v21.4h3.025v-21.4zM284.97 5.53v14.685h10.53V5.53h-2.942v5.18h-4.6V5.53zm2.992 7.508h4.6v4.749h-4.6z" transform="translate(30 50)"/>
    </g>
    <g id="fc_box_medium-4" data-name="fc_box_medium" transform="translate(684 1000)">
        <g transform="translate(-684 -1000)" style="filter:url(#box-9)">
            <g id="box-19" data-name="box" class="cls-5">
                <path class="cls-10" d="M0 0h538v130H0z" transform="translate(684 1000)"/>
                <path class="cls-11" d="M1 1h536v128H1z" transform="translate(684 1000)"/>
            </g>
        </g>
        <path id="패스_11126" data-name="패스 11126" class="cls-6" d="M210.972 25.163h2.828V3.815h-2.826zm-7.144-14.022v2.4h2.809v10.628h2.8v-20h-2.8v6.97zM202.113 8.4h3.232V6h-9.613v2.4h3.5v1.133c0 3.63-1.169 7.459-4.309 9.4l1.807 2.2a9.93 9.93 0 0 0 3.978-5.809 9.022 9.022 0 0 0 3.878 5.32l1.749-2.2c-3.116-1.782-4.227-5.362-4.218-8.917zm15.854 1.657v2.4h15.721v-2.4h-2.635V6.815h2.776v-2.4h-16v2.4h2.768v3.24zm5.61 0V6.815h4.467v3.24zm12 3.762h-19.458v2.361h8.213v1.831h-5.959v6.912h14.867v-6.912h-5.934V16.18h8.271zm-14.262 8.71v-2.2h9.008v2.2zm30.829-14.2c1.359 2.1 4.028 3.655 7.641 4.144l1.094-2.354c-4.724-.539-7.21-3.025-7.2-5.262v-.7h-3.083v.7c-.008 2.254-2.5 4.724-7.243 5.262l1.144 2.354c3.619-.487 6.279-2.037 7.647-4.142zM242.406 16h19.459v-2.348h-19.459zm9.688 1.442c-4.666-.008-7.467 1.367-7.467 3.878 0 2.461 2.8 3.862 7.467 3.87 4.616-.008 7.417-1.409 7.434-3.87-.017-2.513-2.818-3.889-7.434-3.881zm0 5.461c-2.95.008-4.434-.489-4.417-1.583-.017-1.11 1.467-1.608 4.417-1.624 2.9.017 4.425.514 4.434 1.624-.009 1.092-1.534 1.589-4.434 1.58zm25.914-19.055V19.18h3V3.848zm-2.867 6.729c0-3.124-2.552-5.378-5.826-5.378s-5.843 2.254-5.834 5.378c-.008 3.174 2.561 5.412 5.834 5.412s5.826-2.238 5.826-5.412zm-8.735 0a2.895 2.895 0 0 1 5.785 0 2.893 2.893 0 0 1-5.785 0zm3.331 7.052h-3.025v7.16h14.859v-2.411h-11.833z" transform="translate(30 50)"/>
    </g>
    <g id="fc_box_big_no_btn-4" data-name="fc_box_big_no_btn" transform="translate(114 1360)">
        <g transform="translate(-114 -1360)" style="filter:url(#box-10)">
            <g id="box-20" data-name="box" class="cls-5">
                <path class="cls-10" d="M0 0h1108v130H0z" transform="translate(114 1360)"/>
                <path class="cls-11" d="M1 1h1106v128H1z" transform="translate(114 1360)"/>
            </g>
        </g>
        <path id="패스_11129" data-name="패스 11129" class="cls-6" d="M474.185 16.345h3.215v-2.411h-2.909v-6h3.009V5.53h-16.359v2.4h2.95v6h-2.859v2.412h3.224V20.4h-4.84v2.4h19.508v-2.4h-4.939zm-2.644-8.412v6h-4.467v-6zm-.356 8.412V20.4h-3.729v-4.055zm24.008 8.867h3.025V3.815h-3.025zm-6.522-19.748h-3.033v3.191c-.017 4.144-1.823 8.229-5.552 9.8l1.807 2.486a10.247 10.247 0 0 0 5.3-6.389 9.946 9.946 0 0 0 5.1 5.867l1.765-2.4c-3.63-1.525-5.4-5.453-5.387-9.373zm27.34 19.7h3.025V3.815h-3.025zm-13.682-19.1v2.342h7.271c-.481 4.74-2.909 8.1-8.412 10.715l1.558 2.378c7.624-3.6 9.9-8.975 9.9-15.439zm21.489 7.376c3.978-.439 6.622-2.113 7.749-4.309 1.127 2.2 3.787 3.87 7.782 4.309l1.1-2.345c-4.21-.472-6.423-2.254-6.771-3.994h5.892V4.743h-15.935V7.1h5.851c-.348 1.732-2.536 3.522-6.746 3.994zm-1.972 3.406h8.528v3.671h2.959v-3.674h8.022v-2.4h-19.51zm2.287 1.782v6.162h15.075v-2.412h-12.092v-3.754zm25.967-5.192c3.978-.439 6.622-2.113 7.749-4.309 1.127 2.2 3.787 3.87 7.782 4.309l1.1-2.345c-4.21-.472-6.423-2.254-6.771-3.994h5.892V4.743h-15.929V7.1h5.851c-.348 1.732-2.536 3.522-6.746 3.994zm-1.972 3.406h8.528v3.671h2.959v-3.67h8.022v-2.4h-19.504zm2.287 1.782v6.166h15.075v-2.412H553.4v-3.754zm28.227-9.389c1.392 2.312 4.127 4.044 7.856 4.575l1.168-2.412c-4.881-.6-7.45-3.39-7.45-5.909V4.453h-3.136v1.036c-.008 2.519-2.569 5.3-7.417 5.909l1.177 2.412c3.696-.531 6.414-2.263 7.806-4.575zm-9.738 6.191v2.436h8.196v7.3h2.959v-7.3h8.312v-2.437z" transform="translate(30 51)"/>
    </g>
    <path id="세로-3" data-name="세로" class="cls-4" transform="translate(668 1310)" d="M0 0h1v50H0z"/>
    <path id="세로-4" data-name="세로" class="cls-4" transform="translate(668 1490)" d="M0 0h1v50H0z"/>
    <path id="세로-5" data-name="세로" class="cls-4" transform="translate(383 1130)" d="M0 0h1v50H0z"/>
    <path id="세로-6" data-name="세로" class="cls-4" transform="translate(383 950)" d="M0 0h1v50H0z"/>
    <path id="세로-7" data-name="세로" class="cls-4" transform="translate(383 770)" d="M0 0h1v50H0z"/>
    <path id="세로-8" data-name="세로" class="cls-4" transform="translate(383 590)" d="M0 0h1v50H0z"/>
    <path id="세로-9" data-name="세로" class="cls-4" transform="translate(953 1130)" d="M0 0h1v50H0z"/>
    <path id="세로-10" data-name="세로" class="cls-4" transform="translate(953 950)" d="M0 0h1v50H0z"/>
    <path id="세로-11" data-name="세로" class="cls-4" transform="translate(953 770)" d="M0 0h1v50H0z"/>
    <path id="세로-12" data-name="세로" class="cls-4" transform="translate(953 590)" d="M0 0h1v50H0z"/>
    <path id="다각형_14" data-name="다각형 14" class="cls-4" d="M7.5 0 15 11H0z" transform="rotate(180 338 143)"/>
    <path id="다각형_66" data-name="다각형 66" class="cls-4" d="M7.5 0 15 11H0z" transform="rotate(180 338 233)"/>
    <path id="다각형_67" data-name="다각형 67" class="cls-4" d="M7.5 0 15 11H0z" transform="rotate(180 195.5 323)"/>
    <path id="다각형_70" data-name="다각형 70" class="cls-4" d="M7.5 0 15 11H0z" transform="rotate(180 195.5 413)"/>
    <path id="다각형_72" data-name="다각형 72" class="cls-4" d="M7.5 0 15 11H0z" transform="rotate(180 195.5 503)"/>
    <path id="다각형_73" data-name="다각형 73" class="cls-4" d="M7.5 0 15 11H0z" transform="rotate(180 195.5 593)"/>
    <path id="다각형_68" data-name="다각형 68" class="cls-4" d="M7.5 0 15 11H0z" transform="rotate(180 480.5 323)"/>
    <path id="다각형_69" data-name="다각형 69" class="cls-4" d="M7.5 0 15 11H0z" transform="rotate(180 480.5 413)"/>
    <path id="다각형_71" data-name="다각형 71" class="cls-4" d="M7.5 0 15 11H0z" transform="rotate(180 480.5 503)"/>
    <path id="다각형_74" data-name="다각형 74" class="cls-4" d="M7.5 0 15 11H0z" transform="rotate(180 480.5 593)"/>
    <path id="다각형_75" data-name="다각형 75" class="cls-4" d="M7.5 0 15 11H0z" transform="rotate(180 338 683)"/>
    <path id="다각형_76" data-name="다각형 76" class="cls-4" d="M7.5 0 15 11H0z" transform="rotate(180 338 773)"/>
</svg>
