<svg id="flow_chart_3_1" xmlns="http://www.w3.org/2000/svg" width="1336" height="1970" viewBox="0 0 1336 1970">
    <defs>
        <filter id="area" x="105" y="1734" width="1126" height="148" filterUnits="userSpaceOnUse">
            <feOffset dy="3"/>
            <feGaussianBlur stdDeviation="3" result="blur"/>
            <feFlood flood-color="#4b5c6a" flood-opacity=".102"/>
            <feComposite operator="in" in2="blur"/>
            <feComposite in="SourceGraphic"/>
        </filter>
        <filter id="box" x="385" y="784" width="276" height="148" filterUnits="userSpaceOnUse">
            <feOffset dy="3"/>
            <feGaussianBlur stdDeviation="3" result="blur-2"/>
            <feFlood flood-color="#111" flood-opacity=".102"/>
            <feComposite operator="in" in2="blur-2"/>
            <feComposite in="SourceGraphic"/>
        </filter>
        <filter id="box-2" x="105" y="784" width="276" height="148" filterUnits="userSpaceOnUse">
            <feOffset dy="3"/>
            <feGaussianBlur stdDeviation="3" result="blur-3"/>
            <feFlood flood-color="#4b5c6a" flood-opacity=".102"/>
            <feComposite operator="in" in2="blur-3"/>
            <feComposite in="SourceGraphic"/>
        </filter>
        <filter id="box-3" x="813" y="1374" width="184" height="148" filterUnits="userSpaceOnUse">
            <feOffset dy="3"/>
            <feGaussianBlur stdDeviation="3" result="blur-4"/>
            <feFlood flood-color="#4b5c6a" flood-opacity=".102"/>
            <feComposite operator="in" in2="blur-4"/>
            <feComposite in="SourceGraphic"/>
        </filter>
        <filter id="box-4" x="341" y="1374" width="184" height="148" filterUnits="userSpaceOnUse">
            <feOffset dy="3"/>
            <feGaussianBlur stdDeviation="3" result="blur-5"/>
            <feFlood flood-color="#4b5c6a" flood-opacity=".102"/>
            <feComposite operator="in" in2="blur-5"/>
            <feComposite in="SourceGraphic"/>
        </filter>
        <filter id="box-5" x="1047" y="1374" width="184" height="148" filterUnits="userSpaceOnUse">
            <feOffset dy="3"/>
            <feGaussianBlur stdDeviation="3" result="blur-6"/>
            <feFlood flood-color="#4b5c6a" flood-opacity=".102"/>
            <feComposite operator="in" in2="blur-6"/>
            <feComposite in="SourceGraphic"/>
        </filter>
        <filter id="box-6" x="105" y="1374" width="184" height="148" filterUnits="userSpaceOnUse">
            <feOffset dy="3"/>
            <feGaussianBlur stdDeviation="3" result="blur-7"/>
            <feFlood flood-color="#4b5c6a" flood-opacity=".102"/>
            <feComposite operator="in" in2="blur-7"/>
            <feComposite in="SourceGraphic"/>
        </filter>
        <filter id="box-7" x="106" y="1554" width="556" height="148" filterUnits="userSpaceOnUse">
            <feOffset dy="3"/>
            <feGaussianBlur stdDeviation="3" result="blur-8"/>
            <feFlood flood-color="#4b5c6a" flood-opacity=".102"/>
            <feComposite operator="in" in2="blur-8"/>
            <feComposite in="SourceGraphic"/>
        </filter>
        <filter id="box-8" x="105" y="964" width="1126" height="148" filterUnits="userSpaceOnUse">
            <feOffset dy="3"/>
            <feGaussianBlur stdDeviation="3" result="blur-9"/>
            <feFlood flood-color="#111" flood-opacity=".102"/>
            <feComposite operator="in" in2="blur-9"/>
            <feComposite in="SourceGraphic"/>
        </filter>
        <filter id="area-2" x="105" y="94" width="1126" height="148" filterUnits="userSpaceOnUse">
            <feOffset dy="3"/>
            <feGaussianBlur stdDeviation="3" result="blur-10"/>
            <feFlood flood-color="#111" flood-opacity=".102"/>
            <feComposite operator="in" in2="blur-10"/>
            <feComposite in="SourceGraphic"/>
        </filter>
        <filter id="box-9" x="675" y="274" width="556" height="148" filterUnits="userSpaceOnUse">
            <feOffset dy="3"/>
            <feGaussianBlur stdDeviation="3" result="blur-11"/>
            <feFlood flood-color="#111" flood-opacity=".102"/>
            <feComposite operator="in" in2="blur-11"/>
            <feComposite in="SourceGraphic"/>
        </filter>
        <filter id="box-10" x="105" y="274" width="556" height="148" filterUnits="userSpaceOnUse">
            <feOffset dy="3"/>
            <feGaussianBlur stdDeviation="3" result="blur-12"/>
            <feFlood flood-color="#111" flood-opacity=".102"/>
            <feComposite operator="in" in2="blur-12"/>
            <feComposite in="SourceGraphic"/>
        </filter>
        <filter id="box-11" x="105" y="454" width="556" height="148" filterUnits="userSpaceOnUse">
            <feOffset dy="3"/>
            <feGaussianBlur stdDeviation="3" result="blur-13"/>
            <feFlood flood-color="#111" flood-opacity=".102"/>
            <feComposite operator="in" in2="blur-13"/>
            <feComposite in="SourceGraphic"/>
        </filter>
        <filter id="box-12" x="105" y="1194" width="184" height="148" filterUnits="userSpaceOnUse">
            <feOffset dy="3"/>
            <feGaussianBlur stdDeviation="3" result="blur-14"/>
            <feFlood flood-color="#111" flood-opacity=".102"/>
            <feComposite operator="in" in2="blur-14"/>
            <feComposite in="SourceGraphic"/>
        </filter>
        <filter id="box-13" x="341" y="1194" width="184" height="148" filterUnits="userSpaceOnUse">
            <feOffset dy="3"/>
            <feGaussianBlur stdDeviation="3" result="blur-15"/>
            <feFlood flood-color="#111" flood-opacity=".102"/>
            <feComposite operator="in" in2="blur-15"/>
            <feComposite in="SourceGraphic"/>
        </filter>
        <filter id="box-14" x="576" y="1194" width="184" height="148" filterUnits="userSpaceOnUse">
            <feOffset dy="3"/>
            <feGaussianBlur stdDeviation="3" result="blur-16"/>
            <feFlood flood-color="#111" flood-opacity=".102"/>
            <feComposite operator="in" in2="blur-16"/>
            <feComposite in="SourceGraphic"/>
        </filter>
        <filter id="box-15" x="812" y="1194" width="184" height="148" filterUnits="userSpaceOnUse">
            <feOffset dy="3"/>
            <feGaussianBlur stdDeviation="3" result="blur-17"/>
            <feFlood flood-color="#111" flood-opacity=".102"/>
            <feComposite operator="in" in2="blur-17"/>
            <feComposite in="SourceGraphic"/>
        </filter>
        <filter id="box-16" x="1047" y="1194" width="184" height="148" filterUnits="userSpaceOnUse">
            <feOffset dy="3"/>
            <feGaussianBlur stdDeviation="3" result="blur-18"/>
            <feFlood flood-color="#111" flood-opacity=".102"/>
            <feComposite operator="in" in2="blur-18"/>
            <feComposite in="SourceGraphic"/>
        </filter>
        <clipPath id="clip-path">
            <path id="사각형_664" data-name="사각형 664" style="stroke-width:2px;stroke:#527773;fill:none" d="M0 0h20v20H0z"/>
        </clipPath>
        <style>
            .cls-14,.cls-16,.cls-7{fill:none}.cls-7{stroke:#527773}.cls-11,.cls-3,.cls-7{stroke-width:2px}.cls-2{fill:#f8f8f8}.cls-3{fill:#f5faf8;stroke:#6c918e}.cls-4{fill:#527773}.cls-11,.cls-5{fill:#fff}.cls-5{opacity:0}.cls-6{clip-path:url(#clip-path)}.cls-7{stroke-miterlimit:10}.cls-11{stroke:#999}.cls-9{fill:#333}.cls-10{fill:#326f5e}.cls-12{fill:#999}.cls-14{stroke:#326f5e;stroke-width:1.5px}.cls-15{stroke:none}
        </style>
    </defs>
    <path id="bg" class="cls-2" d="M0 1970h1336V0H0z"/>
    <g id="fc_start_end_color" transform="translate(114 1740)">
        <g id="fc_start_end_color-2" data-name="fc_start_end_color">
            <g id="fc_start_end">
                <g transform="translate(-114 -1740)" style="filter:url(#area)">
                    <g id="area-3" data-name="area" class="cls-3" transform="translate(114 1740)">
                        <rect class="cls-15" width="1108" height="130" rx="65"/>
                        <rect class="cls-16" x="1" y="1" width="1106" height="128" rx="64"/>
                    </g>
                </g>
                <g id="그룹_1862" data-name="그룹 1862" transform="translate(191 -810)">
                    <path id="line" class="cls-4" transform="translate(211 889)" d="M0 0h304v1H0z"/>
                    <g id="그룹_1835" data-name="그룹 1835">
                        <g id="ico_flowchart_info" transform="translate(490.403 862)">
                            <g id="그룹_883" data-name="그룹 883" transform="translate(2 2)">
                                <g id="그룹_882" data-name="그룹 882" class="cls-6">
                                    <circle id="타원_113" data-name="타원 113" class="cls-7" cx="9" cy="9" r="9" transform="translate(1 1)"/>
                                    <path id="선_136" data-name="선 136" class="cls-7" transform="translate(10 9)" d="M0 0v6"/>
                                    <path id="선_137" data-name="선 137" class="cls-7" transform="translate(10 5)" d="M0 0v2"/>
                                </g>
                            </g>
                        </g>
                        <path id="패스_11115" data-name="패스 11115" class="cls-4" d="M-135.307-18.547v6.721h14.586v-6.721zm2.934 4.409v-2.1h8.66v2.1zm14.122 3.439h-19.459v2.345h8.188v1.367h-5.942v2.254h11.884v1.1h-11.867v5.647h15.373V-.24h-12.439v-1.285h11.884v-5.461h-5.892v-1.368h8.271zm16.144-8.486v10.956h2.967v-10.956zm-8.006 6.812a7.984 7.984 0 0 0 5.155 3.936l1.417-2.3c-3.273-.854-4.881-2.934-5.088-5.064h4.268v-2.387h-11.727v2.388h4.384c-.215 2.287-1.848 4.525-5.163 5.453L-115.508-8a8.2 8.2 0 0 0 5.395-4.373zm-.34 10.691h11.345v-5.694h-14.312v2.262h11.329v1.294h-11.279v5.834h14.843V-.29h-11.925zm34.79 3.829h2.963v-21.3h-2.967zM-88.674-8.329a7.336 7.336 0 0 0 5.138-3.265 7.369 7.369 0 0 0 5.022 2.959l1.177-2.3c-3.157-.572-4.666-2.1-4.749-3.8h4.243v-2.3h-4.243v-2.1h-2.983v2.1h-4.26v2.3h4.235c-.083 1.807-1.583 3.489-4.807 4.077zm11.718.323a114.123 114.123 0 0 1-13.674.588l.365 2.436c1.566 0 3.323-.008 5.18-.083V1.5h3v-6.721c1.773-.133 3.58-.323 5.337-.63zm23.735-2.818a25.662 25.662 0 0 0 .506-5.776v-1.715h-14.818v2.4H-55.7a25.892 25.892 0 0 1-.489 5.1H-69.92v2.378h19.508v-2.378zm-11.428 6.067v-2.279h-2.942v8.959h14.785v-8.959h-2.959v2.279zm0 4.26v-1.981h8.884V-.5zm35.909 2.66h3.025v-21.348h-3.025zm-13.682-19.1v2.345h7.268c-.481 4.74-2.909 8.1-8.412 10.715l1.558 2.377c7.624-3.6 9.9-8.975 9.9-15.439zm21.489 7.376c3.978-.439 6.622-2.113 7.749-4.309C-12.058-11.669-9.4-10-5.4-9.564l1.1-2.345c-4.21-.472-6.423-2.254-6.771-3.994h5.891v-2.354h-15.936v2.357h5.851c-.348 1.732-2.536 3.522-6.746 3.994zm-1.972 3.406h8.528v3.671h2.959v-3.673H-3.4v-2.4h-19.506zm2.287 1.782V1.79h15.074V-.622h-12.091v-3.754zM5.354-9.564c3.977-.436 6.621-2.113 7.746-4.309 1.127 2.2 3.787 3.87 7.782 4.309l1.1-2.345c-4.21-.472-6.423-2.254-6.771-3.994h5.892v-2.354H5.171v2.357h5.851c-.348 1.732-2.536 3.522-6.746 3.994zM3.381-6.157h8.528v3.671h2.959v-3.671h8.022v-2.4H3.381zm2.288 1.781V1.79h15.074V-.622H8.652v-3.754zM33.9-13.765c1.392 2.312 4.127 4.044 7.856 4.575l1.164-2.41c-4.881-.6-7.45-3.39-7.45-5.909v-1.036h-3.141v1.036c-.008 2.519-2.569 5.3-7.417 5.909l1.177 2.412c3.696-.533 6.411-2.265 7.811-4.577zm-9.743 6.19v2.436h8.188v7.3H35.3v-7.3h8.312v-2.436zM65.3-19.185v10.807h2.967v-10.807zm-8.213 6.4a8.03 8.03 0 0 0 5.1 4.1l1.467-2.3c-3.5-1-5.055-3.489-5.039-6.083V-18.7h-3.1v1.633a6.674 6.674 0 0 1-5.163 6.414l1.477 2.333a8.223 8.223 0 0 0 5.254-4.467zM56.95-1.674H68.3v-5.768H53.983v2.312h11.329v1.251H54.033v5.893h14.843V-.34H56.95zm29.238-12.373h-3.307v2.447h3.307v5.138h2.983v-12.723h-2.983zM77.76-11.3a7.975 7.975 0 0 0 4.914 4.21l1.475-2.3a6.6 6.6 0 0 1-4.906-6.21h4.251v-2.378H71.925v2.378H76.2a6.944 6.944 0 0 1-5.13 6.588l1.53 2.357a8.275 8.275 0 0 0 5.16-4.645zm8.428 8.171v5.3h2.983v-7.699h-14.66v2.4zM108.671-6.7h6.157v-11.118h-2.983v3.323h-9.3v-3.323h-3V-6.7h6.166v3.953h-8.228v2.424h19.508v-2.428h-8.32zm3.174-5.42v3.033h-9.3v-3.033zM134.95-5.1a50.7 50.7 0 0 0 .854-10.21v-2.022H120.24v2.378h12.56a46.222 46.222 0 0 1-.87 9.539zm-6.787-5.122H125.2v7.334h-6.961v2.432h19.459v-2.428h-9.53z" transform="translate(348.71 883)"/>
                    </g>
                </g>
            </g>
        </g>
    </g>
    <g id="fc_box_small2" transform="translate(394 790)">
        <g id="fc_box_medium_small">
            <g transform="translate(-394 -790)" style="filter:url(#box)">
                <g id="box-17" data-name="box" style="stroke:#999;fill:#eee;stroke-width:2px">
                    <path class="cls-15" d="M0 0h258v130H0z" transform="translate(394 790)"/>
                    <path class="cls-16" d="M1 1h256v128H1z" transform="translate(394 790)"/>
                </g>
            </g>
            <path id="패스_11096" data-name="패스 11096" class="cls-9" d="M47.4 10.257h-1.446V3.365H43.62v16.671h2.334v-7.79H47.4V20.8h2.369V3.012H47.4zm-9.931-6.74v2.216h-3.11v1.982h8.6V5.733h-3.04V3.517zm1.236 5a3.921 3.921 0 0 0-3.916 4.206 3.922 3.922 0 1 0 7.818 0A3.914 3.914 0 0 0 38.7 8.517zm0 6.34c-1.029.007-1.733-.773-1.727-2.134-.007-1.333.7-2.141 1.727-2.141 1 0 1.706.808 1.713 2.141-.009 1.36-.718 2.14-1.718 2.133zM65.816 3.012h-2.527v10.3h2.528V9.269h2.362V7.246h-2.363zM61.873 9.8a33.254 33.254 0 0 1-7.093.539V6.217h5.525v-2h-8v8.135h1.478a37.858 37.858 0 0 0 8.308-.552zm-1.92 3.819c-3.709.007-6.091 1.333-6.084 3.57-.007 2.279 2.376 3.612 6.084 3.6 3.667.007 6-1.326 6-3.6.001-2.236-2.333-3.562-6-3.569zm0 5.2c-2.327 0-3.633-.559-3.626-1.63-.007-1.05 1.3-1.6 3.626-1.588 2.265-.007 3.577.539 3.584 1.588-.007 1.072-1.319 1.631-3.584 1.631zM87.9 3.012h-2.546v13.315H87.9v-5.808h2.162V8.441H87.9zm-4.751 7.624a29.548 29.548 0 0 0 .407-5.214V4.311H74.4v2.03h6.713a23.744 23.744 0 0 1-.414 4.068zm1.243.732c-1.671.242-3.488.38-5.262.456V8.42h-2.478v3.488c-1.181.021-2.3.028-3.294.028l.214 1.982a64.03 64.03 0 0 0 10.946-.753zm-8.424 3.772v5.352h12.493v-2.01h-9.993V15.14zm29.9 1.022V3.04h-2.486v2.693h-2.921v1.982h2.921v2.017h-2.921v2h2.921v4.434zm-5.808-4.641a35.211 35.211 0 0 1-6.015.449V9.939h5.38v-5.7h-7.89v1.992h5.38v1.844h-5.367v5.9h1.367a40.391 40.391 0 0 0 7.417-.449zm-3.64 3.633h-2.482v5.311h12.376v-2.03h-9.9zm24.251-8.074H117.4V3.931h-2.465V6.2h-3.5V3.931h-2.5v8.308h8.465V9.124h3.273v3.626h2.486V3.012h-2.486zm-9.24 3.163V8.116h3.5v2.127zm2.334 4.889v-1.643H111.3v7.079h11.851v-7.079h-2.479v1.644zm0 3.439v-1.532h6.906v1.533zm28.812-11.277h-2.756v2.037h2.756v4.282h2.486V3.012h-2.486zm-7.023 2.286a6.646 6.646 0 0 0 4.1 3.508l1.229-1.92A5.5 5.5 0 0 1 136.79 6h3.543V4.014h-9.641V6h3.564a5.787 5.787 0 0 1-4.275 5.49l1.278 1.968a6.9 6.9 0 0 0 4.295-3.878zm7.023 6.809V20.8h2.486v-6.406h-12.216v2zm17.272-7.058a2.927 2.927 0 0 0 2.086-2.624c-.007-2.141-2.528-3.425-6.464-3.432S148.993 4.566 149 6.707a2.884 2.884 0 0 0 2.023 2.6v2.141h-3.646v1.989h16.215v-1.985h-3.743zm-4.378-4.137c2.486 0 3.9.518 3.9 1.512s-1.409 1.478-3.9 1.478c-2.507 0-3.9-.49-3.881-1.478-.014-.993 1.374-1.511 3.881-1.511zm-1.927 4.758a15.253 15.253 0 0 0 1.927.11 14.882 14.882 0 0 0 1.9-.11v1.5h-3.826zm1.906 4.413c-3.888-.007-6.222 1.14-6.222 3.2 0 2.086 2.334 3.218 6.222 3.211 3.847.007 6.181-1.126 6.195-3.211-.014-2.059-2.345-3.206-6.195-3.199zm0 4.551c-2.459.007-3.695-.456-3.681-1.354-.014-.891 1.222-1.305 3.681-1.319 2.417.014 3.688.428 3.695 1.319s-1.278 1.362-3.695 1.355z" transform="translate(30 53)"/>
        </g>
    </g>
    <g id="fc_box_small2__long_color" data-name="fc_box_small2_ long_color" transform="translate(114 790)">
        <g id="fc_box_smaller_small_long_link_color">
            <g id="fc_box_smaller_small_long_link_color-2" data-name="fc_box_smaller_small_long_link_color">
                <g transform="translate(-114 -790)" style="filter:url(#box-2)">
                    <g id="box-18" data-name="box" class="cls-3">
                        <path class="cls-15" d="M0 0h258v130H0z" transform="translate(114 790)"/>
                        <path class="cls-16" d="M1 1h256v128H1z" transform="translate(114 790)"/>
                    </g>
                </g>
                <path id="패스_11097" data-name="패스 11097" class="cls-10" d="M-19.841-8.75v-7.238h-2.514V1.8h2.514v-8.485h2.32V-8.75zM-27.383-14v-1.885h-2.507V-14h-4.033v1.954h10.546V-14zm0 9.22C-25.5-5.138-24.254-6.354-24.24-8c-.014-2-1.83-3.349-4.372-3.349C-31.2-11.347-33-9.993-32.99-8c-.01 1.64 1.215 2.848 3.1 3.214v1.533c-1.575.035-3.08.035-4.378.035l.331 2.03a60.711 60.711 0 0 0 10.863-.725l-.166-1.809c-1.326.186-2.735.3-4.144.373zM-30.622-8c-.007-.925.794-1.45 2.01-1.45 1.181 0 1.975.525 1.975 1.45s-.794 1.436-1.975 1.436c-1.215.003-2.016-.501-2.01-1.436zm20.38-6.388v-1.682h-2.486v1.685h-4.04v1.954h10.553v-1.954zm7.583 3.025v-4.627h-2.5v11.16h2.5v-4.5h2.39v-2.03zm-4.454 2.786c0-1.954-1.8-3.273-4.372-3.28s-4.42 1.326-4.413 3.28 1.83 3.277 4.413 3.277 4.372-1.323 4.372-3.277zm-6.36 0c0-.912.794-1.4 1.989-1.409s2 .5 2.01 1.409S-10.3-7.2-11.485-7.2s-1.989-.473-1.989-1.377zm8.315 6.485V1.8h2.5v-5.881h-11.969v1.989zm7.693-13.364v5.6h12.154v-5.6zm2.445 3.674v-1.747h7.22v1.747zm11.767 2.866H.532v1.954h6.823v1.14H2.4v1.878h9.9v.919H2.417v4.7h12.811V-.2H4.862v-1.07h9.9v-4.552H9.855v-1.14h6.892zM30.2-15.988v9.13h2.472v-9.13zm-6.671 5.677a6.653 6.653 0 0 0 4.3 3.28l1.181-1.92c-2.728-.711-4.068-2.445-4.24-4.22h3.557v-1.989H18.55v1.989h3.65c-.18 1.906-1.54 3.771-4.3 4.544l1.133 1.961a6.833 6.833 0 0 0 4.496-3.645zM23.246-1.4H32.7v-4.746H20.773v1.885h9.441v1.077h-9.4v4.862h12.37v-1.92h-9.938z" transform="translate(129 56)"/>
                <g id="그룹_1861" data-name="그룹 1861" transform="translate(-45 -14)">
                    <g id="ico_flowchart_info-2" data-name="ico_flowchart_info" transform="translate(225.744 81)">
                        <g id="그룹_883-2" data-name="그룹 883" transform="translate(2 2)">
                            <g id="그룹_882-2" data-name="그룹 882" class="cls-6">
                                <circle id="타원_113-2" data-name="타원 113" class="cls-7" cx="9" cy="9" r="9" transform="translate(1 1)"/>
                                <path id="선_136-2" data-name="선 136" class="cls-7" transform="translate(10 9)" d="M0 0v6"/>
                                <path id="선_137-2" data-name="선 137" class="cls-7" transform="translate(10 5)" d="M0 0v2"/>
                            </g>
                        </g>
                    </g>
                    <path id="패스_11098" data-name="패스 11098" class="cls-10" d="M-55.691-14.662v-1.45h-2.486v1.45h-3.853v1.809h10.166v-1.809zm7.6 3.785v-5.083h-2.493v12.079h2.493v-4.952h2.279v-2.044zm-3.322 4.227c-1.36.166-2.818.283-4.275.352v-.919C-53.8-7.5-52.611-8.439-52.6-9.793c-.007-1.644-1.733-2.659-4.351-2.652s-4.365 1.008-4.358 2.652c-.007 1.367 1.2 2.314 3.135 2.583v1c-1.54.041-3.018.048-4.323.048l.256 1.927a66.627 66.627 0 0 0 11.008-.7zm-7.517-3.143c-.007-.684.711-.994 1.975-.994s1.961.311 1.968.994c-.007.649-.718 1.029-1.968 1.022s-1.981-.373-1.975-1.022zm8.343 8.543V1.8h2.493v-4.977h-12.148v1.927zm17.956-14.71v12.776h2.5V-15.96zm-2.389 5.608a4.571 4.571 0 0 0-4.855-4.482 4.573 4.573 0 0 0-4.862 4.482 4.569 4.569 0 0 0 4.862 4.51 4.567 4.567 0 0 0 4.854-4.51zm-7.279 0a2.237 2.237 0 0 1 2.424-2.314 2.244 2.244 0 0 1 2.4 2.314 2.243 2.243 0 0 1-2.4 2.341 2.237 2.237 0 0 1-2.425-2.341zm2.776 5.877h-2.521v5.967h12.383v-2.01h-9.862zm24.3-3.356v2.272h2.486v-10.429h-2.486v2.617h-3.308v-1.305h-8.446v8.136h8.446v-1.291zm-9.277-.684v-4.192h3.529v4.192zm9.282-1.333h-3.308v-1.561h3.308zM-18.812-5.1c-3.785 0-6.112 1.278-6.1 3.46s2.312 3.44 6.1 3.44 6.119-1.243 6.126-3.439S-15.014-5.1-18.812-5.1zm0 5.007c-2.355-.007-3.633-.532-3.626-1.547-.007-1.06 1.271-1.56 3.626-1.56s3.646.5 3.653 1.561C-15.166-.628-16.45-.1-18.812-.1zM2.6 1.8h2.379v-17.79H2.6zM-3.37-9.979v2.03h2.3v8.93h2.334v-16.692H-1.07v5.732zm-1.36-4.475h-2.418v3.066c0 3.011-.974 6.139-3.6 7.769l1.519 1.851a8.091 8.091 0 0 0 3.304-4.675 7.306 7.306 0 0 0 3.073 4.268l1.36-1.92c-2.438-1.561-3.239-4.53-3.239-7.41zm24.13 4.067h-3.481v2.01H19.4V1.844h2.465v-17.832H19.4zm-5.8-4.227h-2.536v2.659C11.05-8.612 9.655-5.18 6.616-3.8l1.561 2.025a8.568 8.568 0 0 0 4.164-5.242A8.051 8.051 0 0 0 16.388-2.1l1.506-1.982c-2.956-1.278-4.3-4.53-4.3-7.873zM41.782 1.8h2.355v-17.79h-2.355zM35.829-9.883v2h2.341V.974h2.33v-16.665h-2.33v5.808zM34.4-12.169h2.693v-2h-8.012v2H32v.946c0 3.023-.978 6.216-3.6 7.832l1.51 1.837A8.275 8.275 0 0 0 33.225-6.4a7.518 7.518 0 0 0 3.232 4.434l1.457-1.83c-2.6-1.485-3.522-4.468-3.515-7.431zm13.024 3.288c3.322-.173 5.608-1.008 6.727-2.341 1.126 1.333 3.419 2.169 6.713 2.341l.732-1.837c-3.591-.152-5.4-1-5.9-2.03h5.021v-1.844h-5.33v-1.4h-2.473v1.4h-5.29v1.844H52.6c-.518 1.029-2.32 1.878-5.863 2.03zm14.82.477H46.1v1.816h6.823v1.118h-4.981v1.782h9.9v.888h-9.886v4.478h12.811V-.159H50.4v-.974h9.9V-5.47h-4.91v-1.118h6.851z" transform="translate(159.5 100)"/>
                </g>
                <path id="line-2" data-name="line" class="cls-10" transform="translate(52 93)" d="M0 0h154v1H0z"/>
                <path id="line-3" data-name="line" class="cls-10" transform="translate(94 63)" d="M0 0h70v1H0z"/>
            </g>
        </g>
    </g>
    <g id="fc_box_smaller_long_color" transform="translate(822 1380)">
        <g transform="translate(-822 -1380)" style="filter:url(#box-3)">
            <g id="box-19" data-name="box" class="cls-3">
                <path class="cls-15" d="M0 0h166v130H0z" transform="translate(822 1380)"/>
                <path class="cls-16" d="M1 1h164v128H1z" transform="translate(822 1380)"/>
            </g>
        </g>
        <g id="그룹_1841" data-name="그룹 1841" transform="translate(-80 -1254)">
            <g id="그룹_1846" data-name="그룹 1846" transform="translate(53)">
                <g id="ico_flowchart_info-3" data-name="ico_flowchart_info" transform="translate(134.837 1336)">
                    <g id="그룹_883-3" data-name="그룹 883" transform="translate(2 2)">
                        <g id="그룹_882-3" data-name="그룹 882" class="cls-6">
                            <circle id="타원_113-3" data-name="타원 113" class="cls-7" cx="9" cy="9" r="9" transform="translate(1 1)"/>
                            <path id="선_136-3" data-name="선 136" class="cls-7" transform="translate(10 9)" d="M0 0v6"/>
                            <path id="선_137-3" data-name="선 137" class="cls-7" transform="translate(10 5)" d="M0 0v2"/>
                        </g>
                    </g>
                </g>
                <path id="패스_11111" data-name="패스 11111" class="cls-10" d="M-28.246-11.471A8.813 8.813 0 0 0-21.7-7.659l.974-2.01c-4.068-.5-6.209-2.825-6.209-4.924v-.863h-2.617v.863c-.007 2.1-2.141 4.42-6.181 4.924l.981 2.01a8.777 8.777 0 0 0 6.506-3.812zm-8.114 5.159v2.03h6.823V1.8h2.465v-6.082h6.927v-2.03zm18.646-2.569c3.322-.173 5.608-1.008 6.727-2.341 1.126 1.333 3.419 2.169 6.713 2.341l.732-1.837c-3.591-.152-5.4-1-5.9-2.03h5.021v-1.844h-5.33v-1.4h-2.472v1.4h-5.29v1.844h4.979c-.518 1.029-2.32 1.878-5.863 2.03zm14.82.477h-16.139v1.816h6.823v1.118h-4.99v1.782h9.9v.888h-9.889v4.478h12.817V-.159h-10.366v-.974h9.9V-5.47h-4.91v-1.118h6.851zm13.847-3.819c1.133 1.747 3.356 3.046 6.367 3.453l.912-1.961c-3.936-.449-6.008-2.521-6-4.385v-.584h-2.57v.587c-.007 1.878-2.086 3.936-6.036 4.385l.953 1.961c3.021-.411 5.235-1.703 6.374-3.457zM2.838-5.836h16.216V-7.79H2.838zm8.073 1.2C7.023-4.641 4.689-3.494 4.689-1.4c0 2.051 2.334 3.218 6.222 3.225 3.847-.009 6.182-1.176 6.195-3.225-.013-2.094-2.348-3.241-6.194-3.234zm0 4.551C8.453-.076 7.217-.49 7.231-1.4c-.014-.925 1.222-1.34 3.681-1.354 2.417.014 3.688.428 3.695 1.354S13.329-.076 10.912-.083zm21.6-15.877v12.778h2.5V-15.96zm-2.39 5.608a4.571 4.571 0 0 0-4.855-4.482 4.573 4.573 0 0 0-4.866 4.484 4.569 4.569 0 0 0 4.862 4.51 4.567 4.567 0 0 0 4.855-4.51zm-7.279 0a2.237 2.237 0 0 1 2.424-2.314 2.244 2.244 0 0 1 2.4 2.314 2.243 2.243 0 0 1-2.4 2.341 2.237 2.237 0 0 1-2.428-2.339zm2.776 5.877h-2.524v5.969h12.383v-2.01h-9.862z" transform="translate(95.36 1355)"/>
            </g>
            <path id="line-4" data-name="line" class="cls-10" transform="translate(112 1362)" d="M0 0h102v1H0z"/>
        </g>
        <g id="그룹_1840" data-name="그룹 1840" transform="translate(-80 -1254)">
            <path id="패스_11110" data-name="패스 11110" class="cls-10" d="M-48.861-8.95h-2.41v2.017h2.41V1.8h2.461v-17.79h-2.465zm-6.039-4.379V-15.7h-2.5v2.376h-3.95v2h10.45v-2zm-1.243 2.99A4.147 4.147 0 0 0-60.428-6.1a4.159 4.159 0 0 0 4.289 4.24 4.164 4.164 0 0 0 4.274-4.24 4.152 4.152 0 0 0-4.275-4.238zm0 6.36A1.915 1.915 0 0 1-58.108-6.1a1.961 1.961 0 0 1 1.968-2.139A1.971 1.971 0 0 1-54.157-6.1a1.925 1.925 0 0 1-1.983 2.122zm26.064-5.193v-6.816h-2.493V1.761h2.493v-8.874h2.514v-2.058zm-13.211-4.993v2.037h5.925c-.47 3.964-2.728 6.8-6.927 8.909l1.4 1.906c5.974-2.935 8.052-7.535 8.066-12.852zM-25.849-1.45l-.967 5.559h2.065l1.685-5.559zm21.263-5.739v4.337H-2.1V-15.96h-2.486v2.97h-3.273v-1.81h-2.465v2.728h-3.5V-14.8h-2.5v9.144h8.467v-1.533zm0-2h-3.273v-1.8h3.273zm-9.24 1.568v-2.559h3.5v2.562zm2.41 3.46h-2.521v5.653H-1.72v-2.01h-9.7zm24.123-6.989v1.685H8.715v2h3.992v1.747h2.486V-15.96h-2.486v2.845h-3.3a11.7 11.7 0 0 0 .117-1.657h-8.2v2h5.5C6.457-10.331 4.454-8.37.366-7.3l.974 1.962c3.909-1.064 6.436-3 7.541-5.808zM9.268-5.5c-3.646.007-6.084 1.388-6.077 3.6s2.431 3.62 6.077 3.62c3.6 0 6.043-1.4 6.057-3.626-.014-2.21-2.452-3.594-6.057-3.594zm0 5.249c-2.251 0-3.591-.559-3.584-1.651S7.017-3.57 9.268-3.564c2.21-.007 3.55.559 3.557 1.657S11.478-.256 9.268-.256zm25.38-8.699h-2.41v2.017h2.41V1.8h2.465v-17.79h-2.465zm-6.036-4.378V-15.7h-2.5v2.376h-3.95v2H32.6v-2zm-1.243 2.99A4.147 4.147 0 0 0 23.08-6.1a4.159 4.159 0 0 0 4.289 4.24 4.164 4.164 0 0 0 4.275-4.24 4.152 4.152 0 0 0-4.275-4.238zm0 6.36A1.915 1.915 0 0 1 25.4-6.1a1.961 1.961 0 0 1 1.968-2.141A1.971 1.971 0 0 1 29.351-6.1a1.925 1.925 0 0 1-1.982 2.122zm26.063-5.193v-6.816h-2.493V1.761h2.493v-8.874h2.514v-2.058zm-13.211-4.993v2.037h5.925c-.47 3.964-2.728 6.8-6.927 8.909l1.4 1.906c5.974-2.935 8.052-7.535 8.066-12.852zM57.659-1.45l-.967 5.559h2.065l1.685-5.559z" transform="translate(163 1325)"/>
            <path id="line-5" data-name="line" class="cls-10" transform="translate(101 1332)" d="M0 0h124v1H0z"/>
        </g>
        <g id="그룹_1884" data-name="그룹 1884" transform="translate(-80 -1284)">
            <path id="패스_11109" data-name="패스 11109" class="cls-10" d="M-42.058 1.8h2.358v-17.79h-2.355zm-5.953-11.683v2h2.341V.974h2.334v-16.665h-2.334v5.808zm-1.43-2.286h2.693v-2h-8.011v2h2.914v.946c0 3.025-.974 6.215-3.591 7.831l1.506 1.837A8.275 8.275 0 0 0-50.615-6.4a7.518 7.518 0 0 0 3.232 4.434l1.457-1.83c-2.6-1.485-3.522-4.468-3.515-7.431zm13.308 6.7a8.782 8.782 0 0 0 6.471-4.275c1.146 2.106 3.453 3.626 6.568 4.171l.988-1.968c-3.812-.559-6.029-2.721-6.243-5.069h5.414v-2.017h-13.481v2.017h5.407c-.214 2.355-2.417 4.579-6.1 5.173zm7.728-.787h-2.5v3.964h-6.865v2.023h16.257v-2.024H-28.4zm12.141-8.55-4.558 16.933h2.5l4.558-16.934zm11.333 3.336a8.813 8.813 0 0 0 6.547 3.811l.974-2.01c-4.068-.5-6.209-2.825-6.209-4.924v-.863h-2.617v.863c-.007 2.1-2.141 4.42-6.181 4.924l.981 2.01a8.777 8.777 0 0 0 6.505-3.812zm-8.115 5.159v2.03h6.823V1.8h2.465v-6.082H3.17v-2.03zm29.668-9.675v9.565h2.5v-9.565zm-7.244.746c-2.776-.007-4.869 1.727-4.862 4.22C4.51-8.591 6.6-6.858 9.378-6.858s4.855-1.733 4.855-4.164c0-2.493-2.085-4.227-4.855-4.22zm0 2.079a2.148 2.148 0 0 1 2.4 2.141 2.145 2.145 0 0 1-2.4 2.12c-1.423-.007-2.438-.794-2.424-2.12a2.148 2.148 0 0 1 2.424-2.143zm-2.14 7.519V1.6h11.885v-7.242h-2.486v1.651H9.689v-1.651zm2.451 3.584h6.948v1.644H9.689zm25.953-13.9h-2.5v13.085h2.5V-8.9h2.39v-2.06h-2.39zM32.12-7.776q-1 .124-2.072.207v-4.938H31.5v-1.982h-9.587v1.982h1.457v5.221c-.677.007-1.326.014-1.934.014l.269 2a64.506 64.506 0 0 0 10.6-.67zm-4.468-4.731v5.1c-.635.028-1.264.055-1.885.069v-5.166zm-3.543 8.391v5.608h12.169v-2.01H26.6v-3.6zm27.742-5.076h-1.6v-6.519h-2.357V.981h2.355v-8.143h1.6V1.8h2.383v-17.79h-2.381zM46.4-2.673v-11.464h-7.07v11.464zm-2.327-9.5v7.548h-2.41v-7.548z" transform="translate(163 1325)"/>
            <path id="line-6" data-name="line" class="cls-10" transform="translate(107 1332)" d="M0 0h112v1H0z"/>
        </g>
    </g>
    <g id="fc_box_smaller_long_color-2" data-name="fc_box_smaller_long_color" transform="translate(350 1380)">
        <g transform="translate(-350 -1380)" style="filter:url(#box-4)">
            <g id="box-20" data-name="box" class="cls-3">
                <path class="cls-15" d="M0 0h166v130H0z" transform="translate(350 1380)"/>
                <path class="cls-16" d="M1 1h164v128H1z" transform="translate(350 1380)"/>
            </g>
        </g>
        <g id="그룹_1841-2" data-name="그룹 1841" transform="translate(-80 -1269)">
            <g id="그룹_1846-2" data-name="그룹 1846" transform="translate(53)">
                <g id="ico_flowchart_info-4" data-name="ico_flowchart_info" transform="translate(132.224 1336)">
                    <g id="그룹_883-4" data-name="그룹 883" transform="translate(2 2)">
                        <g id="그룹_882-4" data-name="그룹 882" class="cls-6">
                            <circle id="타원_113-4" data-name="타원 113" class="cls-7" cx="9" cy="9" r="9" transform="translate(1 1)"/>
                            <path id="선_136-4" data-name="선 136" class="cls-7" transform="translate(10 9)" d="M0 0v6"/>
                            <path id="선_137-4" data-name="선 137" class="cls-7" transform="translate(10 5)" d="M0 0v2"/>
                        </g>
                    </g>
                </g>
                <path id="패스_11108" data-name="패스 11108" class="cls-10" d="M-25.939-11.471a8.813 8.813 0 0 0 6.547 3.812l.974-2.01c-4.068-.5-6.209-2.825-6.209-4.924v-.863h-2.617v.863c-.007 2.1-2.141 4.42-6.181 4.924l.981 2.01a8.777 8.777 0 0 0 6.505-3.812zm-8.115 5.159v2.03h6.823V1.8h2.465v-6.082h6.927v-2.03zm18.646-2.569c3.322-.173 5.608-1.008 6.727-2.341 1.126 1.333 3.419 2.169 6.713 2.341l.732-1.837c-3.591-.152-5.4-1-5.9-2.03h5.016v-1.844h-5.325v-1.4h-2.472v1.4h-5.29v1.844h4.979c-.518 1.029-2.32 1.878-5.863 2.03zM-.587-8.4h-16.14v1.816H-9.9v1.114h-4.99v1.782h9.9v.888h-9.889v4.478h12.814V-.159h-10.366v-.974h9.9V-5.47h-4.91v-1.118h6.854zm9.233-3.819C9.779-10.477 12-9.178 15.014-8.771l.912-1.961c-3.936-.449-6.008-2.521-6-4.385v-.583H7.355v.587c-.007 1.878-2.086 3.936-6.036 4.385l.953 1.961c3.018-.411 5.235-1.703 6.374-3.457zM.532-5.836h16.215V-7.79H.532zM8.6-4.634C4.717-4.641 2.383-3.494 2.383-1.4c0 2.049 2.334 3.216 6.217 3.223 3.852-.007 6.186-1.174 6.2-3.223-.014-2.094-2.348-3.241-6.2-3.234zm0 4.551C6.146-.076 4.91-.49 4.924-1.4 4.91-2.327 6.146-2.742 8.6-2.756c2.417.014 3.688.428 3.695 1.354S11.022-.076 8.6-.083zM30.2-15.96v12.776h2.5V-15.96zm-2.39 5.608a4.571 4.571 0 0 0-4.855-4.482 4.573 4.573 0 0 0-4.862 4.482 4.569 4.569 0 0 0 4.862 4.51 4.567 4.567 0 0 0 4.856-4.51zm-7.279 0a2.237 2.237 0 0 1 2.424-2.314 2.244 2.244 0 0 1 2.4 2.314 2.243 2.243 0 0 1-2.4 2.341 2.237 2.237 0 0 1-2.423-2.341zm2.776 5.877h-2.52v5.967H33.17v-2.01h-9.862z" transform="translate(95.054 1355)"/>
            </g>
            <path id="line-7" data-name="line" class="cls-10" transform="translate(114 1362)" d="M0 0h98v1H0z"/>
        </g>
        <g id="그룹_1840-2" data-name="그룹 1840" transform="translate(-80 -1269)">
            <path id="패스_11107" data-name="패스 11107" class="cls-10" d="M-28.812-11.471a8.813 8.813 0 0 0 6.547 3.812l.974-2.01c-4.068-.5-6.209-2.825-6.209-4.924v-.863h-2.617v.863c-.007 2.1-2.141 4.42-6.181 4.924l.981 2.01a8.777 8.777 0 0 0 6.505-3.812zm-8.115 5.159v2.03h6.827V1.8h2.465v-6.082h6.927v-2.03zm29.669-9.675v9.565h2.5v-9.565zm-7.244.746c-2.776-.007-4.869 1.727-4.862 4.22-.007 2.431 2.086 4.164 4.862 4.164s4.855-1.733 4.855-4.164c-.001-2.494-2.086-4.228-4.853-4.221zm0 2.079a2.148 2.148 0 0 1 2.4 2.141A2.145 2.145 0 0 1-14.5-8.9c-1.423-.007-2.438-.794-2.424-2.12a2.148 2.148 0 0 1 2.424-2.143zm-2.141 7.521V1.6h11.885v-7.242h-2.486v1.651h-6.948v-1.651zm2.452 3.584h6.948v1.643h-6.948zM10.186-8.95h-2.41v2.017h2.41V1.8h2.465v-17.79h-2.465zm-6.035-4.379V-15.7h-2.5v2.376H-2.3v2H8.142v-2zm-1.243 2.99A4.147 4.147 0 0 0-1.381-6.1a4.159 4.159 0 0 0 4.289 4.24A4.164 4.164 0 0 0 7.182-6.1a4.152 4.152 0 0 0-4.275-4.238zm0 6.36A1.915 1.915 0 0 1 .939-6.1a1.961 1.961 0 0 1 1.968-2.139A1.971 1.971 0 0 1 4.889-6.1a1.925 1.925 0 0 1-1.982 2.122zm26.063-5.192v-6.816h-2.493V1.761h2.493v-8.874h2.514v-2.058zM15.76-14.164v2.037h5.925c-.47 3.964-2.728 6.8-6.927 8.909l1.4 1.906c5.974-2.935 8.052-7.535 8.066-12.852zM33.2-1.45l-.967 5.559H34.3l1.681-5.559z" transform="translate(163 1325)"/>
            <path id="line-8" data-name="line" class="cls-10" transform="translate(126 1332)" d="M0 0h74v1H0z"/>
        </g>
    </g>
    <g id="fc_box_smaller_long_color-3" data-name="fc_box_smaller_long_color" transform="translate(1056 1380)">
        <g transform="translate(-1056 -1380)" style="filter:url(#box-5)">
            <g id="box-21" data-name="box" class="cls-3">
                <path class="cls-15" d="M0 0h166v130H0z" transform="translate(1056 1380)"/>
                <path class="cls-16" d="M1 1h164v128H1z" transform="translate(1056 1380)"/>
            </g>
        </g>
        <g id="그룹_1841-3" data-name="그룹 1841" transform="translate(-80 -1269)">
            <g id="그룹_1846-3" data-name="그룹 1846" transform="translate(53)">
                <g id="ico_flowchart_info-5" data-name="ico_flowchart_info" transform="translate(138 1336)">
                    <g id="그룹_883-5" data-name="그룹 883" transform="translate(2 2)">
                        <g id="그룹_882-5" data-name="그룹 882" class="cls-6">
                            <circle id="타원_113-5" data-name="타원 113" class="cls-7" cx="9" cy="9" r="9" transform="translate(1 1)"/>
                            <path id="선_136-5" data-name="선 136" class="cls-7" transform="translate(10 9)" d="M0 0v6"/>
                            <path id="선_137-5" data-name="선 137" class="cls-7" transform="translate(10 5)" d="M0 0v2"/>
                        </g>
                    </g>
                </g>
                <path id="패스_11113" data-name="패스 11113" class="cls-10" d="m-33.557-14.807-4.558 16.934h2.5l4.558-16.934zm17.238 5.677v-6.858h-2.493V1.8h2.493v-8.823h2.624V-9.13zm-7.481-5.483h-2.493v2.659c-.007 3.3-1.43 6.7-4.434 8.08l1.527 2.023a8.59 8.59 0 0 0 4.164-5.18A8.108 8.108 0 0 0-21.1-2.2l1.5-1.978c-2.852-1.381-4.213-4.593-4.2-7.776zM-.573-9.669a2.927 2.927 0 0 0 2.086-2.624c-.007-2.141-2.528-3.425-6.464-3.432s-6.478 1.291-6.471 3.432A2.884 2.884 0 0 0-9.4-9.689v2.141h-3.646v1.989H3.17v-1.989H-.573zm-4.378-4.137c2.486 0 3.9.518 3.9 1.512s-1.409 1.478-3.9 1.478c-2.507 0-3.9-.49-3.881-1.478-.015-.993 1.373-1.511 3.88-1.511zm-1.927 4.759a15.253 15.253 0 0 0 1.927.11 14.882 14.882 0 0 0 1.9-.11v1.5h-3.827zm1.906 4.413c-3.888-.007-6.222 1.14-6.222 3.2 0 2.086 2.334 3.218 6.222 3.211 3.847.007 6.181-1.126 6.195-3.211-.014-2.06-2.349-3.207-6.195-3.2zm0 4.551c-2.459.007-3.695-.456-3.681-1.354-.014-.891 1.222-1.305 3.681-1.319 2.417.014 3.688.428 3.695 1.319S-2.555-.076-4.972-.083zM16.775-8.95h-2.41v2.017h2.41V1.8h2.465v-17.79h-2.465zm-6.036-4.378V-15.7h-2.5v2.376h-3.95v2h10.442v-2zM9.5-10.338A4.147 4.147 0 0 0 5.207-6.1 4.159 4.159 0 0 0 9.5-1.858 4.164 4.164 0 0 0 13.771-6.1 4.152 4.152 0 0 0 9.5-10.338zm0 6.36A1.915 1.915 0 0 1 7.528-6.1 1.961 1.961 0 0 1 9.5-8.239 1.971 1.971 0 0 1 11.478-6.1 1.925 1.925 0 0 1 9.5-3.978zm26.059-5.193v-6.816h-2.493V1.761h2.493v-8.874h2.514v-2.058zm-13.211-4.993v2.037h5.925c-.47 3.964-2.728 6.8-6.927 8.909l1.4 1.906c5.974-2.935 8.052-7.535 8.066-12.852z" transform="translate(96 1355)"/>
            </g>
            <path id="line-9" data-name="line" class="cls-10" transform="translate(111 1362)" d="M0 0h104v1H0z"/>
        </g>
        <g id="그룹_1840-3" data-name="그룹 1840" transform="translate(-80 -1269)">
            <path id="패스_11112" data-name="패스 11112" class="cls-10" d="M-24.765 1.8h2.355v-17.79h-2.355zm-5.953-11.683v2h2.341V.974h2.334v-16.665h-2.334v5.808zm-1.43-2.286h2.693v-2h-8.011v2h2.914v.946c0 3.025-.974 6.215-3.591 7.831l1.506 1.837A8.275 8.275 0 0 0-33.322-6.4a7.518 7.518 0 0 0 3.232 4.439l1.457-1.83c-2.6-1.485-3.522-4.468-3.515-7.431zm13.308 6.7a8.782 8.782 0 0 0 6.471-4.275c1.147 2.106 3.453 3.625 6.569 4.171l.988-1.968c-3.812-.559-6.029-2.721-6.243-5.069h5.414v-2.017h-13.482v2.017h5.407c-.214 2.355-2.417 4.579-6.1 5.173zm7.728-.787h-2.5v3.964h-6.865v2.023H-4.22v-2.024h-6.892zm12.141-8.55L-3.529 2.127h2.5l4.558-16.934zm11.333 3.336a8.813 8.813 0 0 0 6.547 3.812l.974-2.01c-4.068-.5-6.209-2.825-6.209-4.924v-.863h-2.617v.863c-.007 2.1-2.141 4.42-6.181 4.924l.981 2.01a8.777 8.777 0 0 0 6.505-3.813zM4.247-6.312v2.03h6.823V1.8h2.465v-6.082h6.927v-2.03zm29.668-9.675v9.565h2.5v-9.565zm-7.244.746c-2.776-.007-4.869 1.727-4.862 4.22-.009 2.43 2.091 4.163 4.862 4.163s4.855-1.733 4.855-4.164c0-2.493-2.085-4.227-4.855-4.22zm0 2.079a2.148 2.148 0 0 1 2.4 2.141 2.145 2.145 0 0 1-2.4 2.12c-1.423-.007-2.438-.794-2.424-2.12a2.148 2.148 0 0 1 2.424-2.142zm-2.141 7.52V1.6h11.886v-7.242H33.93v1.651h-6.948v-1.651zm2.452 3.584h6.948v1.644h-6.948z" transform="translate(163 1325)"/>
            <path id="line-10" data-name="line" class="cls-10" transform="translate(125 1332)" d="M0 0h76v1H0z"/>
        </g>
    </g>
    <g id="fc_box_smaller_long_color-4" data-name="fc_box_smaller_long_color" transform="translate(114 1380)">
        <g transform="translate(-114 -1380)" style="filter:url(#box-6)">
            <g id="box-22" data-name="box" class="cls-3">
                <path class="cls-15" d="M0 0h166v130H0z" transform="translate(114 1380)"/>
                <path class="cls-16" d="M1 1h164v128H1z" transform="translate(114 1380)"/>
            </g>
        </g>
        <g id="그룹_1841-4" data-name="그룹 1841" transform="translate(-80 -1269)">
            <g id="그룹_1846-4" data-name="그룹 1846" transform="translate(53)">
                <g id="ico_flowchart_info-6" data-name="ico_flowchart_info" transform="translate(132.341 1336)">
                    <g id="그룹_883-6" data-name="그룹 883" transform="translate(2 2)">
                        <g id="그룹_882-6" data-name="그룹 882" class="cls-6">
                            <circle id="타원_113-6" data-name="타원 113" class="cls-7" cx="9" cy="9" r="9" transform="translate(1 1)"/>
                            <path id="선_136-6" data-name="선 136" class="cls-7" transform="translate(10 9)" d="M0 0v6"/>
                            <path id="선_137-6" data-name="선 137" class="cls-7" transform="translate(10 5)" d="M0 0v2"/>
                        </g>
                    </g>
                </g>
                <path id="패스_11106" data-name="패스 11106" class="cls-10" d="M-21.561-7.189v4.337h2.486V-15.96h-2.486v2.97h-3.273v-1.81H-27.3v2.728h-3.5V-14.8h-2.5v9.144h8.467v-1.533zm0-2h-3.273v-1.8h3.273zM-30.8-7.617v-2.563h3.5v2.562zm2.41 3.46h-2.521v5.649h12.217v-2.01h-9.7zm24.123-6.989v1.685H-8.26v2h3.992v1.747h2.486V-15.96h-2.486v2.845h-3.3a11.7 11.7 0 0 0 .117-1.657h-8.2v2h5.5c-.359 2.438-2.362 4.4-6.45 5.47l.974 1.961c3.909-1.064 6.436-3 7.541-5.808zM-7.707-5.5c-3.646.007-6.084 1.388-6.077 3.6s2.43 3.62 6.077 3.62c3.6 0 6.043-1.4 6.057-3.626C-1.664-4.116-4.1-5.5-7.707-5.5zm0 5.249c-2.251 0-3.591-.559-3.584-1.651s1.332-1.668 3.584-1.662C-5.5-3.57-4.157-3-4.151-1.906S-5.5-.256-7.707-.256zm20.615-15.7v12.968h2.5V-15.96zM6.057-9.413a6.851 6.851 0 0 0 4.178 3.695l1.271-1.962a5.645 5.645 0 0 1-4.171-5.594v-1.713H4.751v1.713a6.047 6.047 0 0 1-4.289 5.9l1.3 1.968a7.1 7.1 0 0 0 4.295-4.007zm-.042 5.166H3.494v5.739h12.383v-2.01H6.015zm25.739 0a42.25 42.25 0 0 0 .711-8.508v-1.685H19.5v1.982h10.47a38.52 38.52 0 0 1-.73 7.948zM26.1-8.515h-2.474V-2.4h-5.8v2.02H34.04V-2.4H26.1z" transform="translate(94.301 1355)"/>
            </g>
            <path id="line-11" data-name="line" class="cls-10" transform="translate(114 1362)" d="M0 0h98v1H0z"/>
        </g>
        <g id="그룹_1840-4" data-name="그룹 1840" transform="translate(-80 -1269)">
            <path id="패스_11105" data-name="패스 11105" class="cls-10" d="M-28.812-11.471a8.813 8.813 0 0 0 6.547 3.812l.974-2.01c-4.068-.5-6.209-2.825-6.209-4.924v-.863h-2.617v.863c-.007 2.1-2.141 4.42-6.181 4.924l.981 2.01a8.777 8.777 0 0 0 6.505-3.812zm-8.115 5.159v2.03h6.827V1.8h2.465v-6.082h6.927v-2.03zm29.669-9.675v9.565h2.5v-9.565zm-7.244.746c-2.776-.007-4.869 1.727-4.862 4.22-.007 2.431 2.086 4.164 4.862 4.164s4.855-1.733 4.855-4.164c-.001-2.494-2.086-4.228-4.853-4.221zm0 2.079a2.148 2.148 0 0 1 2.4 2.141A2.145 2.145 0 0 1-14.5-8.9c-1.423-.007-2.438-.794-2.424-2.12a2.148 2.148 0 0 1 2.424-2.143zm-2.141 7.521V1.6h11.885v-7.242h-2.486v1.651h-6.948v-1.651zm2.452 3.584h6.948v1.643h-6.948zm24.227-13.9v12.974h2.5V-15.96zM3.184-9.413a6.851 6.851 0 0 0 4.178 3.695L8.633-7.68a5.645 5.645 0 0 1-4.171-5.594v-1.713H1.878v1.713a6.047 6.047 0 0 1-4.289 5.9l1.3 1.968a7.1 7.1 0 0 0 4.295-4.007zm-.042 5.166H.622v5.739H13v-2.01H3.142zm25.739 0a42.249 42.249 0 0 0 .711-8.508v-1.685H16.623v1.982h10.47a38.52 38.52 0 0 1-.725 7.949zm-5.656-4.268h-2.472V-2.4h-5.8v2.02h16.214V-2.4h-7.942zM33.2-1.45l-.967 5.559H34.3l1.681-5.559z" transform="translate(163 1325)"/>
            <path id="line-12" data-name="line" class="cls-10" transform="translate(126 1332)" d="M0 0h74v1H0z"/>
        </g>
    </g>
    <g id="fc_box_medium_color" transform="translate(115 1560)">
        <g transform="translate(-115 -1560)" style="filter:url(#box-7)">
            <g id="box-23" data-name="box" class="cls-3">
                <path class="cls-15" d="M0 0h538v130H0z" transform="translate(115 1560)"/>
                <path class="cls-16" d="M1 1h536v128H1z" transform="translate(115 1560)"/>
            </g>
        </g>
        <g id="그룹_1834" data-name="그룹 1834" transform="translate(-94 -810)">
            <path id="line-13" data-name="line" class="cls-4" transform="translate(308 889)" d="M0 0h110v1H0z"/>
            <g id="그룹_1835-2" data-name="그룹 1835">
                <g id="ico_flowchart_info-7" data-name="ico_flowchart_info" transform="translate(392.829 862)">
                    <g id="그룹_883-7" data-name="그룹 883" transform="translate(2 2)">
                        <g id="그룹_882-7" data-name="그룹 882" class="cls-6">
                            <circle id="타원_113-7" data-name="타원 113" class="cls-7" cx="9" cy="9" r="9" transform="translate(1 1)"/>
                            <path id="선_136-7" data-name="선 136" class="cls-7" transform="translate(10 9)" d="M0 0v6"/>
                            <path id="선_137-7" data-name="선 137" class="cls-7" transform="translate(10 5)" d="M0 0v2"/>
                        </g>
                    </g>
                </g>
                <path id="패스_11298" data-name="패스 11298" class="cls-4" d="M-34.923-7.591a5.776 5.776 0 0 0 4.177-1.633h4.873v2.552h2.983v-12.513h-2.983v2.826H-30.7a5.816 5.816 0 0 0-4.218-1.666c-3.232-.008-5.693 2.18-5.677 5.221-.021 3.017 2.44 5.221 5.672 5.213zm-2.842-5.209a2.566 2.566 0 0 1 2.843-2.66 2.565 2.565 0 0 1 2.8 2.66 2.615 2.615 0 0 1-2.8 2.685 2.614 2.614 0 0 1-2.843-2.685zm11.892 1.193h-3.547a5.115 5.115 0 0 0 .141-1.193 5.524 5.524 0 0 0-.133-1.185h3.539zm-4.309 5.37c-4.508-.008-7.334 1.55-7.326 4.2-.008 2.644 2.818 4.2 7.326 4.193 4.508.008 7.343-1.55 7.351-4.193-.009-2.654-2.843-4.212-7.351-4.203zm0 6.066c-2.826.008-4.409-.622-4.392-1.865-.017-1.276 1.566-1.914 4.392-1.914 2.884 0 4.417.638 4.425 1.914C-25.765-.8-27.3-.166-30.182-.174zm25.06-14.257h-3.555a5.384 5.384 0 0 0-5.494-3.837c-3.282-.017-5.693 2.122-5.677 5.047-.017 2.975 2.4 5.1 5.677 5.1a5.38 5.38 0 0 0 5.5-3.936h3.547v4.343h2.983v-11.474h-2.981zm-9.05 3.812a2.584 2.584 0 0 1-2.843-2.6 2.549 2.549 0 0 1 2.843-2.561 2.544 2.544 0 0 1 2.8 2.561 2.579 2.579 0 0 1-2.799 2.6zm.746 5.9v-2.055h-2.942v8.694h14.23v-8.694h-2.984v2.055zm0 4.218V-2.42h8.3V-.5zm29.1-10.243h-2.895v2.42h2.892V2.163h2.959v-21.348h-2.959zm-7.246-5.253v-2.851h-3v2.851H.688v2.4h12.53v-2.4zm-1.492 3.588A4.976 4.976 0 0 0 1.79-7.318a4.991 4.991 0 0 0 5.146 5.089 5 5 0 0 0 5.13-5.088 4.982 4.982 0 0 0-5.13-5.089zm0 7.633a2.3 2.3 0 0 1-2.361-2.545 2.353 2.353 0 0 1 2.361-2.569 2.365 2.365 0 0 1 2.379 2.569 2.309 2.309 0 0 1-2.379 2.545zm31.276-6.232v-8.18h-2.991v21.3h2.992V-8.536h3.017v-2.47zM22.359-17v2.445h7.11C28.906-9.8 26.2-6.4 21.157-3.862l1.683 2.287C30.008-5.1 32.5-10.616 32.519-17z" transform="translate(347.6 883)"/>
            </g>
        </g>
    </g>
    <g id="fc_box_big_no_btn" transform="translate(114 970)">
        <g transform="translate(-114 -970)" style="filter:url(#box-8)">
            <g id="box-24" data-name="box" class="cls-11">
                <path class="cls-15" d="M0 0h1108v130H0z" transform="translate(114 970)"/>
                <path class="cls-16" d="M1 1h1106v128H1z" transform="translate(114 970)"/>
            </g>
        </g>
        <path id="패스_11116" data-name="패스 11116" class="cls-9" d="M418.42 14.05c4.583.008 7.782-1.815 7.782-4.691 0-2.942-3.2-4.823-7.782-4.823s-7.749 1.881-7.74 4.823c-.009 2.876 3.165 4.699 7.74 4.691zm0-7.127c2.884.008 4.691.862 4.691 2.436 0 1.5-1.807 2.329-4.691 2.337-2.859-.008-4.674-.837-4.657-2.337-.017-1.574 1.798-2.428 4.657-2.436zm-9.7 8.776v2.4h4.467v7.061h3.066V18.1h4.376v7.061h3.033V18.1h4.566v-2.4zm36.38-3.191h-1.732v-8.27h-2.8v20.005h2.8V14.9h1.732v10.263h2.843V3.815H445.1zM433.188 4.42v2.66h-3.729v2.379h10.326V7.08h-3.655V4.42zm1.483 6a4.7 4.7 0 0 0-4.7 5.047c-.008 2.992 1.981 5.1 4.7 5.1s4.674-2.1 4.682-5.1c-.008-2.95-1.953-5.047-4.682-5.047zm0 7.608c-1.235.008-2.08-.928-2.072-2.561-.008-1.6.837-2.569 2.072-2.569 1.2 0 2.047.97 2.055 2.569-.008 1.633-.853 2.569-2.055 2.561zm32.636-5.528V3.815h-3.017v21.348h3.017V14.978h2.785V12.5zm-9.05-6.3V3.939h-3.008V6.2h-4.84v2.347h12.655V6.2zm0 11.064c2.254-.431 3.754-1.89 3.771-3.862-.017-2.4-2.2-4.019-5.246-4.019-3.108 0-5.262 1.624-5.254 4.019-.008 1.964 1.459 3.414 3.721 3.854V19.1c-1.889.041-3.7.041-5.254.041l.4 2.436a72.853 72.853 0 0 0 13.036-.87l-.2-2.171c-1.591.224-3.282.356-4.972.448zM454.37 13.4c-.008-1.11.953-1.74 2.412-1.74 1.417 0 2.37.63 2.37 1.74s-.953 1.724-2.37 1.724c-1.459.003-2.42-.602-2.412-1.724zm24.456-7.666V3.715h-2.983v2.023h-4.848v2.345h12.663V5.738zm9.1 3.63V3.815h-3v13.392h3V11.8h2.867V9.367zm-5.345 3.34c0-2.345-2.155-3.928-5.246-3.936-3.1.008-5.3 1.591-5.3 3.936-.008 2.345 2.2 3.928 5.3 3.928s5.245-1.58 5.245-3.925zm-7.633 0c0-1.094.953-1.682 2.387-1.691 1.425.008 2.4.6 2.412 1.691-.008 1.086-.986 1.649-2.412 1.649s-2.387-.56-2.387-1.646zm9.978 7.782v4.674h3V18.1h-14.362v2.387zm9.232-16.036v6.721h14.586V4.453zm2.934 4.409v-2.1h8.66v2.1zm14.121 3.441h-19.459v2.345h8.188v1.367H494v2.254h11.884v1.1h-11.867v5.644h15.373v-2.25h-12.44v-1.285h11.884v-5.461h-5.892v-1.368h8.271zm16.144-8.486v10.957h2.967V3.815zm-8.005 6.812a7.983 7.983 0 0 0 5.155 3.936l1.417-2.3c-3.273-.854-4.881-2.934-5.088-5.064h4.264V4.809h-11.724V7.2h4.384c-.215 2.287-1.848 4.525-5.163 5.453L513.956 15a8.2 8.2 0 0 0 5.395-4.373zm-.34 10.691h11.345v-5.693h-14.313v2.262h11.329v1.294h-11.279v5.834h14.843v-2.3h-11.926zm15.729-5.13a16.61 16.61 0 0 0 3.348 10.492h3.311c-1.715-2.188-3.041-6.572-3.041-10.492s1.326-8.312 3.041-10.5h-3.307a16.618 16.618 0 0 0-3.353 10.501zm23.486 8.975h2.826V3.815h-2.826zm-7.144-14.022v2.4h2.809v10.629h2.8v-20h-2.8v6.97zm-1.716-2.74h3.233V6h-9.613v2.4h3.5v1.133c0 3.63-1.169 7.459-4.309 9.4l1.807 2.2a9.93 9.93 0 0 0 3.978-5.809 9.022 9.022 0 0 0 3.878 5.32l1.749-2.2c-3.116-1.782-4.227-5.362-4.218-8.917zm15.854 1.657v2.4h15.721v-2.4h-2.635V6.815h2.776v-2.4h-16v2.4h2.768v3.24zm5.61 0V6.815h4.469v3.24zm12 3.762h-19.458v2.361h8.213v1.831h-5.959v6.912h14.867v-6.912h-5.934V16.18h8.271zm-14.262 8.71v-2.2h9.008v2.2zm22.152-6.34a16.612 16.612 0 0 0-3.34-10.5h-3.315c1.724 2.188 3.05 6.572 3.05 10.5s-1.326 8.3-3.05 10.492h3.315a16.6 16.6 0 0 0 3.34-10.493zm23.337-7.981h-4.674a5.008 5.008 0 0 0-4.484-2.885c-3.24 0-5.552 2.95-5.544 7.591-.008 4.691 2.3 7.624 5.544 7.624a5.1 5.1 0 0 0 4.7-3.323h4.459v8h2.959v-21.4h-2.959zm-9.158 9.621c-1.591 0-2.685-1.724-2.677-4.914-.008-3.157 1.086-4.89 2.677-4.89 1.608 0 2.677 1.732 2.685 4.89-.008 3.185-1.077 4.914-2.685 4.914zm5.378-3.008a12.644 12.644 0 0 0 .141-1.906 12.443 12.443 0 0 0-.207-2.3h3.845v4.2zm23.678-10.169V7.1h-8.967V4.652h-2.95v9.414h14.909V4.652zm-8.967 7.028V9.45h8.967v2.23zm-5.238 4.45v2.345h8.213v6.688h2.959v-6.688h8.337V16.13z" transform="translate(30 51)"/>
    </g>
    <g id="fc_start_end-2" data-name="fc_start_end" transform="translate(114 100)">
        <g transform="translate(-114 -100)" style="filter:url(#area-2)">
            <g id="area-11" data-name="area" class="cls-11" transform="translate(114 100)">
                <rect class="cls-15" width="1108" height="130" rx="65"/>
                <rect class="cls-16" x="1" y="1" width="1106" height="128" rx="64"/>
            </g>
        </g>
        <path id="패스_11089" data-name="패스 11089" class="cls-9" d="M470.075 12.5V3.815h-3.017v21.348h3.017V14.978h2.785V12.5zm-9.05-6.3V3.939h-3.008V6.2h-4.84v2.347h12.655V6.2zm0 11.064c2.254-.431 3.754-1.89 3.771-3.862-.017-2.4-2.2-4.019-5.246-4.019-3.108 0-5.262 1.624-5.254 4.019-.008 1.964 1.459 3.414 3.721 3.854V19.1c-1.889.041-3.7.041-5.254.041l.4 2.436A72.853 72.853 0 0 0 466.2 20.7l-.2-2.171c-1.591.224-3.282.356-4.972.448zm-3.887-3.864c-.008-1.11.953-1.74 2.412-1.74 1.417 0 2.37.63 2.37 1.74s-.953 1.724-2.37 1.724c-1.459.003-2.42-.602-2.412-1.724zm24.456-7.666V3.715h-2.983v2.023h-4.848v2.345h12.663V5.738zm9.1 3.63V3.815h-3v13.392h3V11.8h2.867V9.367zm-5.345 3.34c0-2.345-2.155-3.928-5.246-3.936-3.1.008-5.3 1.591-5.3 3.936-.008 2.345 2.2 3.928 5.3 3.928s5.245-1.58 5.245-3.925zm-7.633 0c0-1.094.953-1.682 2.387-1.691 1.425.008 2.4.6 2.412 1.691-.008 1.086-.986 1.649-2.412 1.649s-2.388-.56-2.388-1.646zm9.978 7.782v4.674h3V18.1h-14.363v2.387zm9.232-16.036v6.721h14.586V4.453zm2.934 4.409v-2.1h8.66v2.1zm14.121 3.441h-19.459v2.345h8.188v1.367h-5.942v2.254h11.884v1.1h-11.867v5.644h15.373v-2.25h-12.44v-1.285H511.6v-5.461h-5.89v-1.368h8.271zm16.144-8.486v10.957h2.967V3.815zm-8.006 6.812a7.984 7.984 0 0 0 5.155 3.936l1.417-2.3c-3.273-.854-4.881-2.934-5.088-5.064h4.268V4.809h-11.727V7.2h4.384c-.215 2.287-1.848 4.525-5.163 5.453L516.724 15a8.2 8.2 0 0 0 5.395-4.373zm-.34 10.691h11.345v-5.693h-14.312v2.262h11.329v1.294h-11.279v5.834H533.7v-2.3h-11.921zm15.729-5.13a16.61 16.61 0 0 0 3.348 10.492h3.307c-1.715-2.188-3.041-6.572-3.041-10.492s1.326-8.312 3.041-10.5h-3.307a16.618 16.618 0 0 0-3.348 10.501zm23.486 8.975h2.826V3.815h-2.826zM553.85 11.14v2.4h2.809v10.629h2.8v-20h-2.8v6.97zm-1.715-2.74h3.232V6h-9.613v2.4h3.5v1.133c0 3.63-1.169 7.459-4.309 9.4l1.807 2.2a9.93 9.93 0 0 0 3.978-5.809 9.022 9.022 0 0 0 3.878 5.32l1.749-2.2c-3.116-1.782-4.227-5.362-4.218-8.917zm15.854 1.657v2.4h15.721v-2.4h-2.635V6.815h2.776v-2.4h-16v2.4h2.768v3.24zm5.61 0V6.815h4.467v3.24zm12 3.762h-19.458v2.361h8.213v1.831H568.4v6.912h14.867v-6.912h-5.934V16.18h8.267zm-14.262 8.71v-2.2h9.008v2.2zm22.152-6.34a16.612 16.612 0 0 0-3.34-10.5h-3.315c1.724 2.188 3.05 6.572 3.05 10.5s-1.326 8.3-3.05 10.492h3.315a16.6 16.6 0 0 0 3.34-10.493z" transform="translate(30 50)"/>
    </g>
    <path id="세로" class="cls-12" transform="translate(523 693)" d="M0 0h1v99H0z"/>
    <path id="세로-2" data-name="세로" class="cls-12" transform="translate(383 230)" d="M0 0h1v50H0z"/>
    <path id="세로-3" data-name="세로" class="cls-12" transform="translate(383 410)" d="M0 0h1v50H0z"/>
    <g id="fc_box_medium" transform="translate(684 280)">
        <g transform="translate(-684 -280)" style="filter:url(#box-9)">
            <g id="box-25" data-name="box" class="cls-11">
                <path class="cls-15" d="M0 0h538v130H0z" transform="translate(684 280)"/>
                <path class="cls-16" d="M1 1h536v128H1z" transform="translate(684 280)"/>
            </g>
        </g>
        <path id="패스_11091" data-name="패스 11091" class="cls-9" d="M32.837 12.044V3.815h-2.992v21.348h2.992V14.572h3.149v-2.528zm-8.975-6.58H20.87v3.191c-.008 3.961-1.715 8.039-5.32 9.7l1.831 2.428a10.307 10.307 0 0 0 5-6.215 9.73 9.73 0 0 0 4.715 5.8l1.804-2.382c-3.423-1.657-5.055-5.511-5.039-9.331zm27.87 5.936c1.591-.688 2.494-1.757 2.5-3.149-.005-2.571-3.032-4.113-7.754-4.121-4.74.008-7.773 1.55-7.765 4.119-.008 1.367.878 2.436 2.428 3.124v2.569h-4.376v2.387h19.459v-2.387h-4.492zm-5.254-4.966c2.983 0 4.674.622 4.674 1.815s-1.691 1.773-4.674 1.773c-3.008 0-4.674-.588-4.657-1.773-.021-1.194 1.649-1.815 4.657-1.815zm-2.312 5.71a18.3 18.3 0 0 0 2.312.133 17.858 17.858 0 0 0 2.279-.133v1.8h-4.591zm2.287 5.3c-4.666-.008-7.467 1.367-7.467 3.837 0 2.5 2.8 3.862 7.467 3.854 4.616.008 7.417-1.351 7.434-3.854-.017-2.474-2.818-3.85-7.434-3.842zm0 5.461c-2.95.008-4.434-.547-4.417-1.624-.017-1.069 1.467-1.566 4.417-1.583 2.9.017 4.425.514 4.434 1.583-.009 1.073-1.533 1.628-4.434 1.619zM58.66 21.26l-1.16 6.671h2.478L62 21.26zM86.108 3.848h-3v15.7h3v-7.222h2.867V9.848h-2.867zm-4.227 9.82q-1.206.149-2.486.249V7.992h1.74V5.613h-11.5v2.379h1.749v6.265c-.812.008-1.591.017-2.32.017l.323 2.4a77.408 77.408 0 0 0 12.721-.8zm-5.362-5.676v6.116c-.762.033-1.517.066-2.262.083v-6.2zm-4.251 10.069v6.729h14.6v-2.412H75.251v-4.317zm33.29-6.091h-1.923V4.146h-2.826v20.03h2.826v-9.77h1.923v10.757h2.859V3.815h-2.859zm-6.539 7.823V6.036h-8.486v13.757zM96.227 8.39v9.058h-2.893V8.39zm15.6 12.87-1.16 6.671h2.478l2.022-6.671zm21.717-4.96h6.156V5.182h-2.983v3.324h-9.3V5.182h-3V16.3h6.166v3.953h-8.229v2.428h19.508v-2.432h-8.32zm3.174-5.42v3.033h-9.3v-3.037zm23.561-7.061h-3.058v15.974h3.058v-6.97h2.594v-2.494h-2.594zm-5.7 9.149a35.458 35.458 0 0 0 .489-6.257V5.373h-10.991v2.436h8.055a28.492 28.492 0 0 1-.5 4.881zm1.492.878c-2.006.29-4.185.456-6.315.547V10.3h-2.975v4.185c-1.417.025-2.76.033-3.953.033l.257 2.378a76.836 76.836 0 0 0 13.135-.9zm-10.11 4.525v6.419h14.989v-2.412h-11.991v-4.011zm22.953-13.139-5.47 20.32h3l5.47-20.32zm18.878 6.033h-3.82v2.428h3.82v11.52h3.008V3.815h-3.008zm-6.961-2.975h4.434V5.878H173.34V8.29h4.434v.887c-.017 3.945-1.757 8.006-5.337 9.663l1.782 2.362a10.6 10.6 0 0 0 5.1-6.555 10 10 0 0 0 5.072 6.116l1.757-2.37c-3.6-1.55-5.329-5.47-5.32-9.215zm29.619-4.475h-3v12.671h3v-5.271h2.867V8.779h-2.867zm-10.5 8.1a7.941 7.941 0 0 0 4.948 3.97l1.417-2.337c-3.4-1.011-4.906-3.414-4.923-5.9h4.26V5.257h-11.635v2.387h4.359a6.93 6.93 0 0 1-5.171 6.588l1.517 2.362a8.417 8.417 0 0 0 5.228-4.682zm3.5 4.989c-4.508-.008-7.309 1.508-7.3 4.11-.008 2.6 2.793 4.152 7.3 4.144 4.45.008 7.2-1.541 7.2-4.144s-2.75-4.122-7.203-4.114zm0 5.925c-2.793.008-4.318-.6-4.309-1.815-.008-1.2 1.517-1.79 4.309-1.782 2.776-.008 4.251.58 4.251 1.782-.001 1.215-1.477 1.82-4.254 1.812zm11.975-1.566-1.16 6.671h2.478l2.022-6.671zm20.238-8.2c4.633 0 7.707-1.682 7.715-4.392-.008-2.71-3.083-4.417-7.715-4.425-4.633.008-7.732 1.715-7.724 4.425-.011 2.702 3.089 4.384 7.721 4.384zm0-6.456c2.76-.008 4.508.7 4.508 2.064 0 1.3-1.749 2-4.508 2.006-2.743-.008-4.508-.7-4.492-2.006-.019-1.371 1.746-2.08 4.489-2.071zm-9.738 9.994h8.412v3.713h3.033v-3.72h8.064v-2.37h-19.511zm2.32 1.807v6.382h15.041v-2.428H231.26V18.4zm35.377-14.56h-3v15.7h3v-7.239h2.867V9.848h-2.867zm-8.95 1.508v3.092H250.3V5.356h-2.967v10.8h10.326v-10.8zm-4.372 8.453v-3.066h4.376v3.066zm-.514 4.135v6.846h14.6v-2.412h-11.621v-4.433zm38.826 7.218h2.859V3.815h-2.859zm-6.82-16.608c-.8-2.047-2.2-3.207-3.986-3.207-2.809 0-4.641 2.942-4.633 7.707-.008 4.807 1.823 7.765 4.633 7.757 1.8.008 3.2-1.169 3.994-3.24h2.494v6.6h2.818V4.146h-2.822v4.409zm-3.992 9.391c-1.243.008-1.931-1.6-1.923-4.889-.008-3.257.68-4.89 1.923-4.881 1.235-.008 1.989 1.624 2 4.881-.01 3.289-.756 4.897-2 4.889zm4.583-2.8a16.5 16.5 0 0 0 .133-2.088 15.293 15.293 0 0 0-.141-2.1h1.914v4.193zm23.017-3.689h3.331v5.039h2.983V3.815h-2.983v5.2H305.4zm-5.088.265a8.128 8.128 0 0 0 4.906 4.227l1.475-2.354a6.6 6.6 0 0 1-4.906-6.075h4.251v-2.4h-11.571v2.4h4.276a7.1 7.1 0 0 1-5.146 6.613l1.55 2.37a8.462 8.462 0 0 0 5.162-4.781zm4.111 5.246c-4.541 0-7.334 1.525-7.326 4.11-.008 2.586 2.785 4.1 7.326 4.11 4.558-.008 7.343-1.525 7.351-4.11-.012-2.585-2.796-4.11-7.354-4.11zm0 5.934c-2.826.008-4.359-.6-4.351-1.823-.008-1.227 1.525-1.84 4.351-1.84s4.376.613 4.384 1.84c-.007 1.222-1.553 1.831-4.387 1.822zm32.66-10.4V3.815h-3.017v21.348h3.017V14.978h2.785V12.5zm-9.05-6.3V3.939h-3.008V6.2h-4.84v2.347h12.655V6.2zm0 11.064c2.254-.431 3.754-1.89 3.771-3.862-.017-2.4-2.2-4.019-5.246-4.019-3.108 0-5.262 1.624-5.254 4.019-.008 1.964 1.459 3.414 3.721 3.854V19.1c-1.889.041-3.7.041-5.254.041l.4 2.436A72.853 72.853 0 0 0 333.2 20.7l-.2-2.171c-1.591.224-3.282.356-4.972.448zm-3.889-3.865c-.008-1.11.953-1.74 2.412-1.74 1.417 0 2.37.63 2.37 1.74s-.953 1.724-2.37 1.724c-1.456.003-2.421-.602-2.412-1.724zM348.6 5.738V3.715h-2.983v2.023h-4.848v2.345h12.663V5.738zm9.1 3.63V3.815h-3v13.392h3V11.8h2.867V9.367zm-5.345 3.34c0-2.345-2.155-3.928-5.246-3.936-3.1.008-5.3 1.591-5.3 3.936-.008 2.345 2.2 3.928 5.3 3.928s5.245-1.584 5.245-3.929zm-7.633 0c0-1.094.953-1.682 2.387-1.691 1.425.008 2.4.6 2.412 1.691-.008 1.086-.986 1.649-2.412 1.649s-2.388-.564-2.388-1.65zm9.978 7.782v4.674h3V18.1h-14.363v2.387zm9.232-16.036v6.721h14.586V4.453zm2.934 4.409v-2.1h8.66v2.1zm14.12 3.437h-19.458v2.345h8.188v1.367h-5.942v2.254h11.884v1.1H363.79v5.644h15.373v-2.25h-12.439v-1.285h11.884v-5.461h-5.892v-1.368h8.271zm16.144-8.485v10.956h2.97V3.815zm-8.006 6.812a7.983 7.983 0 0 0 5.155 3.936l1.417-2.3c-3.273-.854-4.881-2.934-5.088-5.064h4.268v-2.39h-11.727V7.2h4.384c-.215 2.287-1.848 4.525-5.163 5.453L383.729 15a8.2 8.2 0 0 0 5.395-4.373zm-.34 10.691h11.346v-5.694h-14.312v2.262h11.329v1.294h-11.28v5.834h14.843v-2.3h-11.925zm15.729-5.13a16.61 16.61 0 0 0 3.348 10.492h3.307c-1.715-2.188-3.041-6.572-3.041-10.492s1.326-8.312 3.041-10.5h-3.307a16.618 16.618 0 0 0-3.347 10.5zM428 25.163h2.826V3.815H428zm-7.144-14.022v2.4h2.809v10.628h2.8v-20h-2.8v6.97zM419.141 8.4h3.232V6h-9.613v2.4h3.5v1.133c0 3.63-1.169 7.459-4.309 9.4l1.807 2.2a9.93 9.93 0 0 0 3.978-5.809 9.022 9.022 0 0 0 3.878 5.32l1.749-2.2c-3.116-1.782-4.227-5.362-4.218-8.917zm15.854 1.657v2.4h15.721v-2.4h-2.636V6.815h2.776v-2.4h-16v2.4h2.768v3.24zm5.611 0V6.815h4.467v3.24zm12 3.762h-19.46v2.361h8.213v1.831H435.4v6.912h14.867v-6.912h-5.934V16.18h8.267zm-14.262 8.71v-2.2h9.008v2.2zm22.152-6.34a16.612 16.612 0 0 0-3.34-10.5h-3.316c1.724 2.188 3.05 6.572 3.05 10.5s-1.326 8.3-3.05 10.492h3.315a16.6 16.6 0 0 0 3.339-10.493z" transform="translate(30 50)"/>
    </g>
    <g id="fc_box_medium-2" data-name="fc_box_medium" transform="translate(114 280)">
        <g transform="translate(-114 -280)" style="filter:url(#box-10)">
            <g id="box-26" data-name="box" class="cls-11">
                <path class="cls-15" d="M0 0h538v130H0z" transform="translate(114 280)"/>
                <path class="cls-16" d="M1 1h536v128H1z" transform="translate(114 280)"/>
            </g>
        </g>
        <path id="패스_11090" data-name="패스 11090" class="cls-9" d="M105.508 9.235c1.392 2.312 4.127 4.044 7.856 4.575l1.169-2.412c-4.881-.6-7.45-3.39-7.45-5.909V4.453h-3.141v1.036c-.008 2.519-2.569 5.3-7.417 5.909l1.175 2.411c3.7-.53 6.416-2.262 7.808-4.574zm-9.738 6.191v2.436h8.188v7.3h2.959v-7.3h8.312v-2.437zm35.6-11.61v11.477h3V3.815zm-8.693.9c-3.331-.008-5.843 2.072-5.834 5.064-.008 2.917 2.5 5 5.834 5s5.826-2.08 5.826-5c.003-2.998-2.503-5.08-5.823-5.07zm0 2.494a2.578 2.578 0 0 1 2.876 2.569c0 1.591-1.21 2.536-2.876 2.544-1.707-.008-2.925-.953-2.909-2.544-.014-1.605 1.204-2.579 2.912-2.579zm-2.569 9.025v8.693h14.262v-8.699h-2.983v1.981h-8.337v-1.981zm2.942 4.3h8.337V22.5h-8.337zm19.276-15.3-5.47 20.32h3l5.47-20.32zM161.8 25.163h2.826V3.815H161.8zm-7.144-14.022v2.4h2.809v10.628h2.8v-20h-2.8v6.97zm-1.72-2.741h3.232V6h-9.613v2.4h3.5v1.133c0 3.63-1.169 7.459-4.309 9.4l1.807 2.2a9.93 9.93 0 0 0 3.978-5.809 9.022 9.022 0 0 0 3.878 5.32l1.749-2.2c-3.116-1.782-4.227-5.362-4.218-8.917zm15.97 8.039c3.68-.671 6.414-2.552 7.765-5.13 1.376 2.528 4.144 4.351 7.881 5.006l1.185-2.362c-4.575-.671-7.235-3.265-7.492-6.083h6.5V5.448h-16.179v2.42h6.489c-.257 2.826-2.9 5.494-7.326 6.207zm9.273-.945h-3v4.757h-8.238v2.428h19.509v-2.43h-8.27zm30.671 9.671h2.859V3.815h-2.859zm-6.82-16.61c-.8-2.047-2.2-3.207-3.986-3.207-2.809 0-4.641 2.942-4.633 7.707-.008 4.807 1.823 7.765 4.633 7.757 1.8.008 3.2-1.169 3.994-3.24h2.494v6.6h2.818V4.146h-2.818v4.409zm-3.986 9.389c-1.243.008-1.931-1.6-1.923-4.889-.008-3.257.68-4.89 1.923-4.881 1.235-.008 1.989 1.624 2 4.881-.011 3.29-.757 4.898-2 4.89zm4.583-2.8a16.5 16.5 0 0 0 .133-2.088 15.293 15.293 0 0 0-.141-2.1h1.914v4.193zm23.014-3.688h3.331v5.039h2.983V3.815h-2.983v5.2h-3.331zm-5.088.265a8.128 8.128 0 0 0 4.906 4.227l1.475-2.354a6.6 6.6 0 0 1-4.906-6.075h4.251v-2.4H214.71v2.4h4.276a7.1 7.1 0 0 1-5.146 6.613l1.55 2.37a8.462 8.462 0 0 0 5.162-4.781zm4.11 5.246c-4.541 0-7.334 1.525-7.326 4.11-.008 2.586 2.785 4.1 7.326 4.11 4.558-.008 7.343-1.525 7.351-4.11-.008-2.585-2.793-4.11-7.351-4.11zm0 5.934c-2.826.008-4.359-.6-4.351-1.823-.008-1.227 1.525-1.84 4.351-1.84s4.376.613 4.384 1.84c-.008 1.222-1.547 1.831-4.384 1.822zm32.66-10.4V3.815h-3.017v21.348h3.017V14.978h2.785V12.5zm-9.05-6.3V3.939h-3.008V6.2h-4.84v2.347h12.655V6.2zm0 11.064c2.254-.431 3.754-1.89 3.771-3.862-.017-2.4-2.2-4.019-5.246-4.019-3.108 0-5.262 1.624-5.254 4.019-.008 1.964 1.459 3.414 3.721 3.854V19.1c-1.89.041-3.7.041-5.254.041l.4 2.436a72.853 72.853 0 0 0 13.036-.87l-.2-2.171c-1.591.224-3.282.356-4.972.448zm-3.886-3.865c-.008-1.11.953-1.74 2.412-1.74 1.417 0 2.37.63 2.37 1.74s-.953 1.724-2.37 1.724c-1.459.003-2.421-.602-2.412-1.724zm24.456-7.666V3.715h-2.983v2.023h-4.848v2.345h12.663V5.738zm9.1 3.63V3.815h-3v13.392h3V11.8h2.867V9.367zm-5.345 3.34c0-2.345-2.155-3.928-5.246-3.936-3.1.008-5.3 1.591-5.3 3.936-.008 2.345 2.2 3.928 5.3 3.928s5.248-1.58 5.248-3.925zm-7.633 0c0-1.094.953-1.682 2.387-1.691 1.425.008 2.4.6 2.412 1.691-.008 1.086-.986 1.649-2.412 1.649s-2.388-.56-2.388-1.646zm9.978 7.782v4.674h3V18.1H263.58v2.387zm9.232-16.036v6.721h14.585V4.453zm2.934 4.409v-2.1h8.66v2.1zm14.12 3.441h-19.458v2.345h8.188v1.367h-5.942v2.254H295.9v1.1h-11.867v5.644h15.373v-2.25h-12.439v-1.285h11.884v-5.461h-5.892v-1.368h8.271zm16.144-8.486v10.957h2.967V3.815zm-8.006 6.812a7.983 7.983 0 0 0 5.155 3.936l1.417-2.3c-3.273-.854-4.881-2.934-5.088-5.064h4.268V4.809h-11.727V7.2h4.384c-.215 2.287-1.848 4.525-5.163 5.453L303.972 15a8.2 8.2 0 0 0 5.395-4.373zm-.34 10.691h11.345v-5.693h-14.311v2.262h11.329v1.294h-11.28v5.834h14.843v-2.3h-11.925zm15.729-5.13A16.61 16.61 0 0 0 328.1 26.68h3.307c-1.715-2.188-3.041-6.572-3.041-10.492s1.326-8.312 3.041-10.5H328.1a16.618 16.618 0 0 0-3.343 10.5zm23.486 8.975h2.826V3.815h-2.826zM341.1 11.141v2.4h2.809v10.628h2.8v-20h-2.8v6.97zM339.384 8.4h3.232V6H333v2.4h3.5v1.133c0 3.63-1.169 7.459-4.309 9.4l1.807 2.2a9.93 9.93 0 0 0 3.978-5.809 9.022 9.022 0 0 0 3.878 5.32l1.749-2.2c-3.116-1.782-4.227-5.362-4.218-8.917zm15.854 1.657v2.4h15.721v-2.4h-2.635V6.815h2.776v-2.4h-16v2.4h2.768v3.24zm5.611 0V6.815h4.467v3.24zm12 3.762h-19.46v2.361h8.211v1.831h-5.959v6.912h14.867v-6.912h-5.934V16.18h8.271zm-14.262 8.71v-2.2h9.008v2.2zm22.152-6.34a16.612 16.612 0 0 0-3.34-10.5h-3.315c1.724 2.188 3.05 6.572 3.05 10.5s-1.326 8.3-3.05 10.492h3.316a16.6 16.6 0 0 0 3.338-10.493z" transform="translate(30 50)"/>
    </g>
    <path id="세로-4" data-name="세로" class="cls-12" transform="translate(953 230)" d="M0 0h1v50H0z"/>
    <path id="세로-5" data-name="세로" class="cls-12" transform="translate(243 693)" d="M0 0h1v99H0z"/>
    <path id="세로-6" data-name="세로" class="cls-12" d="M0 0h1v50H0V0z" transform="translate(243 920)"/>
    <path id="사각형_519" data-name="사각형 519" class="cls-12" transform="translate(243 692)" d="M0 0h281v1H0z"/>
    <path id="세로-7" data-name="세로" class="cls-12" transform="translate(383 590)" d="M0 0h1v102H0z"/>
    <g id="fc_yes" transform="translate(-280 332)">
        <g id="fc_yes-2" data-name="fc_yes" transform="translate(500.989 399.21)">
            <path id="사각형_515" data-name="사각형 515" class="cls-2" d="M0 0h46.63v22.232H0z"/>
            <path id="패스_11094" data-name="패스 11094" class="cls-9" d="M-3.006-7.293h-1.37v-5.249H-6.2V.746h1.829V-5.7h1.37v7.142h1.884V-12.79h-1.889zm-8.006-2.243H-7.7v-1.6h-5.309v9.354h.994A25.843 25.843 0 0 0-6.9-2.177L-7.044-3.8a23.416 23.416 0 0 1-3.967.348zm22.719-3.254h-2v8.442h2v-3.459h1.912v-1.652h-1.912zM4.624-7.635A5.259 5.259 0 0 0 7.8-4.923l1.056-1.552A4.2 4.2 0 0 1 5.6-10.547v-1.481H3.608v1.287A4.741 4.741 0 0 1 .21-6.088l1.072 1.563a5.465 5.465 0 0 0 3.342-3.11zm2.414 3.58C4.044-4.061 2.166-3.039 2.171-1.32 2.166.431 4.044 1.442 7.039 1.436c2.95.006 4.8-1.006 4.8-2.757.001-1.718-1.85-2.74-4.8-2.734zm0 3.934C5.177-.127 4.16-.508 4.166-1.32 4.16-2.088 5.177-2.5 7.039-2.5s2.834.414 2.834 1.182c0 .81-.984 1.191-2.834 1.196z" transform="translate(23.011 16.79)"/>
        </g>
    </g>
    <g id="fc_yes-3" data-name="fc_yes" transform="translate(0 332)">
        <g id="fc_yes-4" data-name="fc_yes" transform="translate(494.381 399.21)">
            <path id="사각형_515-2" data-name="사각형 515" class="cls-2" d="M0 0h60.155v22.265H0z"/>
            <path id="패스_11095" data-name="패스 11095" class="cls-9" d="M-10.442-12.79V1.475h2.017V-12.79zm-9.177 1.144v9.79h7.019v-9.79h-1.961v3.453h-3.066v-3.453zm1.994 5.006h3.066v3.166h-3.066zm21.537-.653H2.541v-5.249H.713V.746h1.828V-5.7h1.37v7.142H5.8V-12.79H3.912zm-8.006-2.243h3.309v-1.6h-5.309v9.354h.994a25.843 25.843 0 0 0 5.122-.395L-.127-3.8a23.416 23.416 0 0 1-3.967.348zm22.718-3.254h-2v8.442h2v-3.459h1.912v-1.652h-1.912zm-7.083 5.155a5.259 5.259 0 0 0 3.177 2.713l1.055-1.552a4.2 4.2 0 0 1-3.254-4.072v-1.481h-1.994v1.287a4.741 4.741 0 0 1-3.4 4.652L8.2-4.525a5.465 5.465 0 0 0 3.341-3.11zm2.414 3.58c-2.994-.006-4.872 1.016-4.867 2.735-.005 1.751 1.873 2.762 4.868 2.756 2.95.006 4.8-1.006 4.8-2.757.001-1.718-1.85-2.74-4.8-2.734zm0 3.934c-1.862-.006-2.878-.387-2.873-1.2-.005-.767 1.012-1.179 2.874-1.179s2.834.414 2.834 1.182c0 .81-.983 1.191-2.834 1.196z" transform="translate(29.619 16.79)"/>
        </g>
    </g>
    <g id="fc_box_medium_link" transform="translate(114 460)">
        <g transform="translate(-114 -460)" style="filter:url(#box-11)">
            <g id="box-27" data-name="box" class="cls-11">
                <path class="cls-15" d="M0 0h538v130H0z" transform="translate(114 460)"/>
                <path class="cls-16" d="M1 1h536v128H1z" transform="translate(114 460)"/>
            </g>
        </g>
        <g id="fc_textlink" transform="translate(386 79)">
            <g id="stack" transform="translate(-2524.094 20210)">
                <g id="ico_fc_pdf" transform="translate(2487.823 -20209)">
                    <g id="그룹_1025" data-name="그룹 1025" transform="translate(-1101.5 -1126.5)">
                        <path id="패스_6892" data-name="패스 6892" class="cls-14" d="M1108.592 1130.5h7.714l4.286 4.286v7.714h-12z" transform="translate(-3.092)"/>
                        <path id="패스_6891" data-name="패스 6891" class="cls-14" d="M1052.728 2115.047v5h5" transform="translate(59.772 -984.547)"/>
                    </g>
                </g>
                <path id="패스_11093" data-name="패스 11093" class="cls-10" d="M-78.157-9.11h-2.6v1.227h2.6V-4.3h1.481v-8.37h-1.481zm-5.906 1.254a5.568 5.568 0 0 0 3.343 3.039l.757-1.155a4.635 4.635 0 0 1-3.376-4.21v-.387h3.017v-1.2h-7.558v1.2h3.039v.4a4.925 4.925 0 0 1-3.5 4.5l.768 1.177a5.817 5.817 0 0 0 3.509-3.364zm5.906 5.456v3.726h1.481V-3.6h-9.492v1.2zm13.315-5.32a2.294 2.294 0 0 0 1.7-2.077c0-1.663-1.928-2.63-4.994-2.635s-5.006.972-5.006 2.635a2.282 2.282 0 0 0 1.7 2.072v1.878h-3.061v1.2h12.762v-1.2h-3.094zm-3.3-3.558c2.166 0 3.475.541 3.475 1.481s-1.309 1.459-3.475 1.459-3.474-.518-3.458-1.462c-.016-.935 1.282-1.476 3.459-1.476zm-1.818 3.95a12.185 12.185 0 0 0 1.818.127 11.528 11.528 0 0 0 1.823-.133v1.486h-3.641zm1.812 3.646C-71.185-3.691-73-2.8-73-1.2s1.818 2.5 4.856 2.5c3.017 0 4.829-.884 4.84-2.5-.014-1.6-1.826-2.491-4.842-2.48zm0 3.84c-2.138.011-3.359-.486-3.348-1.359-.011-.867 1.21-1.343 3.348-1.354 2.116.011 3.348.486 3.359 1.354C-64.8-.326-66.03.171-68.146.16zm17.657-9.475h-3.059v-2.633h-1.47v2.039h-3.508v-2.039h-1.486v6.45h6.464v-2.577h3.061v3.05h1.481v-7.646h-1.481zM-58.528-6.7v-2.05h3.508v2.05zm1.867 3.9v-1.57h-1.475v5.5h9.116v-5.5h-1.47v1.57zm0 2.724v-1.565h6.171v1.564zm23.851-12.6v8.006h1.464v-8.006zm-9.4.89v5.762h6.663v-5.762zm1.459 4.591V-10.6h3.74v3.409zm9.735 4.547v-1.125h-4.116v-1.3h-1.481v1.3h-4.1v1.127h4.066c-.085 1.254-2.08 2.536-4.643 2.79l.519 1.144a6.975 6.975 0 0 0 4.9-2.442 6.9 6.9 0 0 0 4.851 2.442l.508-1.144c-2.558-.293-4.514-1.564-4.6-2.79zm16.011-3.436v3.624h1.481v-10.2h-1.481v2.37h-3.055v-1.188h-6.5v6.63h6.5v-1.235zm-8.088.055v-4.254h3.58v4.254zm8.088-1.26h-3.055v-1.783h3.055zm-6.166 3.9h-1.5v4.428h9.459V-.177h-7.961zM-.765 1.326H.644v-14H-.765zm-5.011-9.039v1.2h2.182V.619h1.4v-12.995h-1.4v4.663zm-1.37-2.177h2.414v-1.21h-6.409v1.21h2.564v1.122c0 2.492-1.011 5.039-2.994 6.243l.917 1.1a7.059 7.059 0 0 0 2.811-4.244A6.514 6.514 0 0 0-5.1-1.751l.884-1.094a6.7 6.7 0 0 1-2.93-5.923zm20.215 2.768h-1.812v-5.265h-1.37V.608h1.37v-6.52h1.812v7.238h1.409v-14h-1.409zM4.428-9.785H8.18v-1.2H2.942v8.95h.928a24.775 24.775 0 0 0 5.182-.409l-.121-1.23a23.591 23.591 0 0 1-4.5.381zm22.878-2.89H25.82v8.448h1.486v-3.685h2.028v-1.237h-2.027zM20.417-8.05a5.583 5.583 0 0 0 3.3 3.011l.79-1.166a4.588 4.588 0 0 1-3.381-4.227v-1.514h-1.47v1.387A5.013 5.013 0 0 1 16.2-5.823l.8 1.177a5.766 5.766 0 0 0 3.417-3.404zm2.365 4.15c-2.906 0-4.7.961-4.7 2.591 0 1.663 1.79 2.608 4.7 2.608 2.884 0 4.652-.945 4.652-2.608 0-1.625-1.768-2.591-4.652-2.591zm0 4.033C20.76.127 19.561-.376 19.572-1.3c-.011-.89 1.188-1.414 3.21-1.414s3.2.525 3.2 1.414c-.001.924-1.182 1.427-3.2 1.438zm22.265-12.807h-1.486v8.448h1.486v-3.686h2.028v-1.237h-2.028zm-6.89 4.624a5.583 5.583 0 0 0 3.3 3.011l.79-1.166a4.588 4.588 0 0 1-3.381-4.227v-1.514H37.4v1.387a5.013 5.013 0 0 1-3.459 4.735l.8 1.177a5.766 5.766 0 0 0 3.416-3.403zm2.365 4.15c-2.906 0-4.7.961-4.7 2.591 0 1.663 1.79 2.608 4.7 2.608 2.884 0 4.652-.945 4.652-2.608 0-1.625-1.768-2.591-4.652-2.591zm0 4.033C38.5.127 37.3-.376 37.312-1.3c-.011-.89 1.188-1.414 3.21-1.414s3.2.525 3.2 1.414c-.001.924-1.183 1.427-3.2 1.438zm17.972 1.193h1.426v-14h-1.426zm-5.06-9.077v1.232h2.182V.635h1.4V-12.4h-1.4v4.652zM52.146-11.4H50.71v2.613a7.023 7.023 0 0 1-3.022 6.05l.928 1.1a6.975 6.975 0 0 0 2.834-4.109 6.471 6.471 0 0 0 2.674 3.812l.834-1.149a6.729 6.729 0 0 1-2.812-5.768zM68.82-4.508h4.188v-7.21h-1.475V-9.3H64.66v-2.414h-1.486v7.21h4.177v2.873h-5.636v1.222h12.813v-1.226H68.82zm2.713-3.6v2.4H64.66v-2.4zm14.16 9.436h1.492v-14h-1.492zm-9.331-12.494v1.182h5.149c-.293 3.265-2.1 5.79-5.829 7.558l.785 1.2c4.807-2.293 6.547-5.845 6.558-9.939zM-88.865 2h177.73v1h-177.73z" transform="translate(2395.094 -20194)"/>
            </g>
        </g>
        <path id="패스_11092" data-name="패스 11092" class="cls-9" d="M197.215 8.953h-3.307V11.4h3.307v5.138h2.985V3.815h-2.983zm-8.428 2.747a7.975 7.975 0 0 0 4.914 4.21l1.475-2.3a6.6 6.6 0 0 1-4.905-6.21h4.251V5.017h-11.569V7.4h4.276a6.944 6.944 0 0 1-5.13 6.588l1.533 2.362a8.275 8.275 0 0 0 5.155-4.65zm8.428 8.171v5.3h2.985v-7.699h-14.66v2.4zm20.727-8.47c1.591-.688 2.494-1.757 2.5-3.149-.008-2.569-3.033-4.11-7.757-4.119-4.74.008-7.773 1.55-7.765 4.119-.008 1.367.878 2.436 2.428 3.124v2.569h-4.376v2.387h19.459v-2.39h-4.492zm-5.254-4.964c2.983 0 4.674.622 4.674 1.815s-1.691 1.773-4.674 1.773c-3.008 0-4.674-.588-4.657-1.773-.017-1.197 1.649-1.818 4.657-1.818zm-2.312 5.71a18.3 18.3 0 0 0 2.312.133 17.858 17.858 0 0 0 2.279-.133v1.8h-4.591zm2.287 5.3c-4.666-.008-7.467 1.367-7.467 3.837 0 2.5 2.8 3.862 7.467 3.854 4.616.008 7.417-1.351 7.434-3.854-.017-2.477-2.818-3.853-7.434-3.845zm0 5.461c-2.95.008-4.434-.547-4.417-1.624-.017-1.069 1.467-1.566 4.417-1.583 2.9.017 4.425.514 4.434 1.583-.009 1.07-1.533 1.625-4.434 1.616zM244.254 8.7h-3.928V4.917h-2.959v2.727h-4.2V4.917h-3v9.97h10.16v-3.738h3.928V15.5h2.983V3.815h-2.983zm-11.088 3.8V9.939h4.2v2.552zm2.8 5.867v-1.98h-2.959v8.494h14.221v-8.494h-2.975v1.972zm0 4.127v-1.84h8.287v1.84zm34.575-13.582h-3.8v2.445h3.8v4.417h2.983V3.848h-2.983zM266.6 5.075h-9.8v2.378h6.6c-.481 2.876-3.124 5.229-7.749 6.472l1.185 2.329c6.247-1.74 9.764-5.602 9.764-11.179zm6.92 19.823v-8.271h-14.142V24.9zm-2.967-5.925v3.58h-8.246v-3.58zm16.981-2.2h6.149v-2.37h-12.05v-2.226h11.378V9.831h-11.373V7.7h11.884V5.3H278.6v11.476h5.925v3.6H276.3v2.4h19.508v-2.4h-8.271z" transform="translate(30 36)"/>
    </g>
    <path id="사각형_516" data-name="사각형 516" class="cls-12" transform="translate(197 1149)" d="M0 0h943v1H0z"/>
    <path id="사각형_1211" data-name="사각형 1211" class="cls-12" transform="translate(584 1380)" d="M0 0h85v1H0z"/>
    <path id="세로-8" data-name="세로" class="cls-12" transform="translate(668 1100)" d="M0 0h1v50H0z"/>
    <g id="fc_box_smaller_color" transform="translate(114 1200)">
        <g transform="translate(-114 -1200)" style="filter:url(#box-12)">
            <g id="box-28" data-name="box" class="cls-11">
                <path class="cls-15" d="M0 0h166v130H0z" transform="translate(114 1200)"/>
                <path class="cls-16" d="M1 1h164v128H1z" transform="translate(114 1200)"/>
            </g>
        </g>
        <path id="패스_11100" data-name="패스 11100" class="cls-9" d="M27.006 11.541c3.819.007 6.485-1.512 6.485-3.909 0-2.452-2.666-4.019-6.485-4.019s-6.457 1.568-6.45 4.019c-.008 2.397 2.637 3.916 6.45 3.909zm0-5.939c2.4.007 3.909.718 3.909 2.03 0 1.25-1.506 1.941-3.909 1.948-2.383-.007-3.9-.7-3.881-1.948-.015-1.312 1.498-2.023 3.881-2.032zm-8.08 7.314v2h3.722V20.8H25.2v-5.881h3.646V20.8h2.528v-5.881h3.805v-2zm26.657-2.866h5.124v-2H40.693V5.7h9.841V3.738H38.2v6.312h4.883v1.581h-6.844v1.982h16.215v-1.982h-6.871zm2.479 6.75v4.047h2.459v-6.004H38.035V16.8zm7.472-13.26v5.6h12.155v-5.6zm2.445 3.674V5.471H65.2v1.747zm11.768 2.866H53.532v1.954h6.823v1.14H55.4v1.878h9.9v.919h-9.883v4.7h12.811V18.8H57.862v-1.07h9.9v-4.552h-4.91v-1.14h6.892zM83.2 3.012v9.13h2.472v-9.13zm-6.671 5.677a6.653 6.653 0 0 0 4.3 3.28l1.181-1.92c-2.728-.711-4.068-2.445-4.24-4.22h3.557V3.841H71.55V5.83h3.65c-.18 1.906-1.54 3.771-4.3 4.544l1.133 1.961a6.833 6.833 0 0 0 4.496-3.646zm-.283 8.911H85.7v-4.746H73.773v1.885h9.441v1.077h-9.4v4.862h12.37v-1.92h-9.938z" transform="translate(30 53)"/>
    </g>
    <g id="fc_box_smaller_color-2" data-name="fc_box_smaller_color" transform="translate(350 1200)">
        <g transform="translate(-350 -1200)" style="filter:url(#box-13)">
            <g id="box-29" data-name="box" class="cls-11">
                <path class="cls-15" d="M0 0h166v130H0z" transform="translate(350 1200)"/>
                <path class="cls-16" d="M1 1h164v128H1z" transform="translate(350 1200)"/>
            </g>
        </g>
        <path id="패스_11101" data-name="패스 11101" class="cls-9" d="M31.95 20.8h2.355V3.012H31.95zM26 9.117v2h2.341v8.854h2.334V3.309h-2.337v5.808zm-1.43-2.286h2.693v-2H19.25v2h2.914v.946c0 3.025-.974 6.215-3.591 7.831l1.506 1.837a8.275 8.275 0 0 0 3.315-4.845 7.518 7.518 0 0 0 3.232 4.434l1.457-1.83c-2.6-1.485-3.522-4.468-3.515-7.431zM42.758 4.9V3.012h-2.486V4.9h-4.04v1.966h10.553V4.9zm7.583-1.86h-2.5v13.274h2.5v-5.78h2.389V8.489h-2.389zm-8.826 11.291c2.569.007 4.372-1.347 4.372-3.391 0-2.065-1.8-3.446-4.372-3.446-2.6 0-4.42 1.381-4.413 3.446-.002 2.045 1.817 3.398 4.413 3.391zm-1.989-3.391c0-.994.794-1.54 1.989-1.547s2 .552 2.01 1.547c-.007.974-.822 1.5-2.01 1.5s-1.989-.526-1.989-1.499zm-.718 4.344v5.207h12.169v-2.01h-9.683v-3.2zm16.727-11.74v5.6h12.154v-5.6zm2.445 3.674V5.471h7.22v1.747zm11.768 2.866H53.532v1.954h6.823v1.14H55.4v1.878h9.9v.919h-9.883v4.7h12.811V18.8H57.862v-1.07h9.9v-4.552h-4.91v-1.14h6.892zM83.2 3.012v9.13h2.472v-9.13zm-6.671 5.677a6.653 6.653 0 0 0 4.3 3.28l1.181-1.92c-2.728-.711-4.068-2.445-4.24-4.22h3.557V3.841H71.55V5.83h3.65c-.18 1.906-1.54 3.771-4.3 4.544l1.133 1.961a6.833 6.833 0 0 0 4.496-3.646zm-.283 8.911H85.7v-4.746H73.773v1.885h9.441v1.077h-9.4v4.862h12.37v-1.92h-9.938z" transform="translate(30 53)"/>
    </g>
    <g id="fc_box_smaller_color-3" data-name="fc_box_smaller_color" transform="translate(585 1200)">
        <g transform="translate(-585 -1200)" style="filter:url(#box-14)">
            <g id="box-30" data-name="box" class="cls-11">
                <path class="cls-15" d="M0 0h166v130H0z" transform="translate(585 1200)"/>
                <path class="cls-16" d="M1 1h164v128H1z" transform="translate(585 1200)"/>
            </g>
        </g>
        <path id="패스_11102" data-name="패스 11102" class="cls-9" d="M15.673 9.87V3.012H13.18V20.8h2.493v-8.823H18.3V9.87zm-7.48-5.483H5.7v2.659c-.007 3.3-1.43 6.7-4.434 8.08l1.526 2.023a8.59 8.59 0 0 0 4.164-5.18 8.108 8.108 0 0 0 3.93 4.834l1.506-1.982c-2.852-1.381-4.213-4.593-4.2-7.776zm24.683 10.366a42.249 42.249 0 0 0 .711-8.508V4.559h-12.97v1.982h10.47a38.519 38.519 0 0 1-.725 7.949zm-5.656-4.268h-2.473V16.6h-5.8v2.02h16.215V16.6H27.22zm22.023-.6H47.53V3.323h-2.286v16.609h2.286V11.88h1.713v8.92H51.6V3.012h-2.357zM39.236 7.08h4.137v-2h-6.637v11.689h1.243a32.3 32.3 0 0 0 6.4-.49l-.186-2.03a29.27 29.27 0 0 1-4.959.435zm26.651-4.068v17.832h2.521V3.012zm-11.471 1.43V16.68h8.778V4.442h-2.452v4.316h-3.833V4.442zm2.493 6.258h3.833v3.957h-3.833zm15.918-7.156v5.6h12.155v-5.6zm2.445 3.674V5.471h7.217v1.747zm11.768 2.866H70.825v1.954h6.823v1.14H72.7v1.878h9.9v.919h-9.89v4.7h12.811V18.8H75.155v-1.07h9.9v-4.552h-4.91v-1.14h6.895zm13.453-7.072v9.13h2.472v-9.13zm-6.671 5.677a6.653 6.653 0 0 0 4.3 3.28L99.3 10.05c-2.728-.711-4.068-2.445-4.24-4.22h3.557V3.841h-9.774V5.83H92.5c-.18 1.906-1.54 3.771-4.3 4.544l1.133 1.961a6.833 6.833 0 0 0 4.489-3.646zm-.283 8.911h9.454v-4.746H91.066v1.885h9.441v1.077h-9.4v4.862h12.369v-1.92h-9.937z" transform="translate(30 53)"/>
    </g>
    <g id="fc_box_smaller_color-4" data-name="fc_box_smaller_color" transform="translate(821 1200)">
        <g transform="translate(-821 -1200)" style="filter:url(#box-15)">
            <g id="box-31" data-name="box" class="cls-11">
                <path class="cls-15" d="M0 0h166v130H0z" transform="translate(821 1200)"/>
                <path class="cls-16" d="M1 1h164v128H1z" transform="translate(821 1200)"/>
            </g>
        </g>
        <path id="패스_11103" data-name="패스 11103" class="cls-9" d="M32.855 10.209a22.136 22.136 0 0 0 .428-4.959V3.834H20.935v1.989H30.8a20.336 20.336 0 0 1-.456 4.385h-11.4v2.01H35.2v-2.01zm.359 10.391v-6.5H20.866v6.5zm-2.479-4.551v2.555h-7.424v-2.553zM48.594 20.8h2.521V3.012h-2.521zM43.117 6.769h3.723V4.732H36.805v2.037h3.778v1.092c-.007 3.018-1.533 6.312-4.475 7.631l1.416 1.954A8.614 8.614 0 0 0 41.9 12.2a8.047 8.047 0 0 0 4.339 4.8l1.34-1.954a7.663 7.663 0 0 1-4.461-7.189zm12.418-3.225v5.6h12.154v-5.6zm2.445 3.674V5.471h7.22v1.747zm11.768 2.866H53.532v1.954h6.823v1.14H55.4v1.878h9.9v.919h-9.883v4.7h12.811V18.8H57.862v-1.07h9.9v-4.552h-4.91v-1.14h6.892zM83.2 3.012v9.13h2.472v-9.13zm-6.671 5.677a6.653 6.653 0 0 0 4.3 3.28l1.181-1.92c-2.728-.711-4.068-2.445-4.24-4.22h3.557V3.841H71.55V5.83h3.65c-.18 1.906-1.54 3.771-4.3 4.544l1.133 1.961a6.833 6.833 0 0 0 4.496-3.646zm-.283 8.911H85.7v-4.746H73.773v1.885h9.441v1.077h-9.4v4.862h12.37v-1.92h-9.938z" transform="translate(30 53)"/>
    </g>
    <g id="fc_box_smaller_color-5" data-name="fc_box_smaller_color" transform="translate(1056 1200)">
        <g transform="translate(-1056 -1200)" style="filter:url(#box-16)">
            <g id="box-32" data-name="box" class="cls-11">
                <path class="cls-15" d="M0 0h166v130H0z" transform="translate(1056 1200)"/>
                <path class="cls-16" d="M1 1h164v128H1z" transform="translate(1056 1200)"/>
            </g>
        </g>
        <path id="패스_11104" data-name="패스 11104" class="cls-9" d="M31.474 10.05h-2.41v2.017h2.41V20.8h2.465V3.012h-2.465zm-6.036-4.379V3.3h-2.5v2.371h-3.95v2H29.43v-2zm-1.243 2.99a4.147 4.147 0 0 0-4.289 4.24 4.159 4.159 0 0 0 4.289 4.24A4.164 4.164 0 0 0 28.47 12.9a4.152 4.152 0 0 0-4.275-4.238zm0 6.36a1.915 1.915 0 0 1-1.968-2.12 1.982 1.982 0 1 1 3.95 0 1.925 1.925 0 0 1-1.982 2.121zm26.063-5.192V3.012h-2.493v17.749h2.493v-8.874h2.514V9.829zM37.047 4.836v2.037h5.925c-.47 3.964-2.728 6.8-6.927 8.909l1.4 1.906c5.974-2.935 8.052-7.535 8.066-12.852zm18.488-1.292v5.6h12.154v-5.6zm2.445 3.674V5.471h7.22v1.747zm11.768 2.866H53.532v1.954h6.823v1.14H55.4v1.878h9.9v.919h-9.883v4.7h12.811V18.8H57.862v-1.07h9.9v-4.552h-4.91v-1.14h6.892zM83.2 3.012v9.13h2.472v-9.13zm-6.671 5.677a6.653 6.653 0 0 0 4.3 3.28l1.181-1.92c-2.728-.711-4.068-2.445-4.24-4.22h3.557V3.841H71.55V5.83h3.65c-.18 1.906-1.54 3.771-4.3 4.544l1.133 1.961a6.833 6.833 0 0 0 4.496-3.646zm-.283 8.911H85.7v-4.746H73.773v1.885h9.441v1.077h-9.4v4.862h12.37v-1.92h-9.938z" transform="translate(30 53)"/>
    </g>
    <path id="세로-9" data-name="세로" class="cls-12" d="M0 0h1v50H0z" transform="translate(433 1150)"/>
    <path id="세로-10" data-name="세로" class="cls-12" d="M0 0h1v50H0z" transform="translate(197 1150)"/>
    <path id="세로-11" data-name="세로" class="cls-12" d="M0 0h1v50H0z" transform="translate(668 1150)"/>
    <path id="세로-12" data-name="세로" class="cls-12" d="M0 0h1v50H0z" transform="translate(668 1330)"/>
    <path id="세로-13" data-name="세로" class="cls-12" d="M0 0h1v50H0z" transform="translate(904 1150)"/>
    <path id="세로-14" data-name="세로" class="cls-12" d="M0 0h1v50H0z" transform="translate(1139 1150)"/>
    <path id="세로-15" data-name="세로" class="cls-12" d="M0 0h1v50H0z" transform="translate(197 1330)"/>
    <path id="세로-16" data-name="세로" class="cls-12" d="M0 0h1v50H0z" transform="translate(433 1330)"/>
    <path id="세로-17" data-name="세로" class="cls-12" d="M0 0h1v50H0z" transform="translate(197 1510)"/>
    <path id="세로-18" data-name="세로" class="cls-12" d="M0 0h1v50H0z" transform="translate(433 1510)"/>
    <path id="세로-19" data-name="세로" class="cls-12" d="M0 0h1v179H0z" transform="translate(584 1381)"/>
    <path id="세로-20" data-name="세로" class="cls-12" d="M0 0h1v50H0z" transform="translate(433 1690)"/>
    <path id="세로-21" data-name="세로" class="cls-12" d="M0 0h1v50H0z" transform="translate(904 1330)"/>
    <path id="세로-22" data-name="세로" class="cls-12" d="M0 0h1v230H0z" transform="translate(904 1510)"/>
    <path id="세로-23" data-name="세로" class="cls-12" d="M0 0h1v230H0z" transform="translate(1139 1510)"/>
    <path id="세로-24" data-name="세로" class="cls-12" d="M0 0h1v50H0z" transform="translate(1139 1330)"/>
    <path id="세로-25" data-name="세로" class="cls-12" transform="translate(953 410)" d="M0 0h1v560H0z"/>
    <path id="다각형_14" data-name="다각형 14" class="cls-12" d="M7.5 0 15 11H0z" transform="rotate(180 195.5 143)"/>
    <path id="다각형_102" data-name="다각형 102" class="cls-12" d="M7.5 0 15 11H0z" transform="rotate(180 195.5 233)"/>
    <path id="다각형_103" data-name="다각형 103" class="cls-12" d="M7.5 0 15 11H0z" transform="rotate(180 265.5 398)"/>
    <path id="다각형_101" data-name="다각형 101" class="cls-12" d="M7.5 0 15 11H0z" transform="rotate(180 480.5 143)"/>
    <path id="다각형_105" data-name="다각형 105" class="cls-12" d="M7.5 0 15 11H0z" transform="rotate(180 125.5 488)"/>
    <path id="다각형_106" data-name="다각형 106" class="cls-12" d="M7.5 0 15 11H0z" transform="rotate(180 480.5 488)"/>
    <path id="다각형_107" data-name="다각형 107" class="cls-12" d="M7.5 0 15 11H0z" transform="rotate(180 573.5 603)"/>
    <path id="다각형_108" data-name="다각형 108" class="cls-12" d="M7.5 0 15 11H0z" transform="rotate(180 456 603)"/>
    <path id="다각형_109" data-name="다각형 109" class="cls-12" d="M7.5 0 15 11H0z" transform="rotate(180 338 603)"/>
    <path id="다각형_110" data-name="다각형 110" class="cls-12" d="M7.5 0 15 11H0z" transform="rotate(180 220.5 603)"/>
    <path id="다각형_111" data-name="다각형 111" class="cls-12" d="M7.5 0 15 11H0z" transform="rotate(180 102.5 603)"/>
</svg>
