<svg id="flow_chart_2_4" xmlns="http://www.w3.org/2000/svg" width="1336" height="1950" viewBox="0 0 1336 1950">
    <defs>
        <filter id="다각형_3" x="390" y="274" width="556" height="278" filterUnits="userSpaceOnUse">
            <feOffset dy="3"/>
            <feGaussianBlur stdDeviation="3" result="blur"/>
            <feFlood flood-color="#111" flood-opacity=".102"/>
            <feComposite operator="in" in2="blur"/>
            <feComposite in="SourceGraphic"/>
        </filter>
        <filter id="box" x="105" y="1174" width="1126" height="148" filterUnits="userSpaceOnUse">
            <feOffset dy="3"/>
            <feGaussianBlur stdDeviation="3" result="blur-2"/>
            <feFlood flood-color="#111" flood-opacity=".102"/>
            <feComposite operator="in" in2="blur-2"/>
            <feComposite in="SourceGraphic"/>
        </filter>
        <filter id="box-2" x="105" y="1354" width="1126" height="148" filterUnits="userSpaceOnUse">
            <feOffset dy="3"/>
            <feGaussianBlur stdDeviation="3" result="blur-3"/>
            <feFlood flood-color="#111" flood-opacity=".102"/>
            <feComposite operator="in" in2="blur-3"/>
            <feComposite in="SourceGraphic"/>
        </filter>
        <filter id="box-3" x="105" y="1534" width="1126" height="148" filterUnits="userSpaceOnUse">
            <feOffset dy="3"/>
            <feGaussianBlur stdDeviation="3" result="blur-4"/>
            <feFlood flood-color="#111" flood-opacity=".102"/>
            <feComposite operator="in" in2="blur-4"/>
            <feComposite in="SourceGraphic"/>
        </filter>
        <filter id="area" x="105" y="1714" width="1126" height="148" filterUnits="userSpaceOnUse">
            <feOffset dy="3"/>
            <feGaussianBlur stdDeviation="3" result="blur-5"/>
            <feFlood flood-color="#111" flood-opacity=".102"/>
            <feComposite operator="in" in2="blur-5"/>
            <feComposite in="SourceGraphic"/>
        </filter>
        <filter id="area-2" x="105" y="94" width="1126" height="148" filterUnits="userSpaceOnUse">
            <feOffset dy="3"/>
            <feGaussianBlur stdDeviation="3" result="blur-6"/>
            <feFlood flood-color="#111" flood-opacity=".102"/>
            <feComposite operator="in" in2="blur-6"/>
            <feComposite in="SourceGraphic"/>
        </filter>
        <filter id="box-4" x="675" y="994" width="556" height="148" filterUnits="userSpaceOnUse">
            <feOffset dy="3"/>
            <feGaussianBlur stdDeviation="3" result="blur-7"/>
            <feFlood flood-color="#111" flood-opacity=".102"/>
            <feComposite operator="in" in2="blur-7"/>
            <feComposite in="SourceGraphic"/>
        </filter>
        <filter id="box-5" x="675" y="814" width="556" height="148" filterUnits="userSpaceOnUse">
            <feOffset dy="3"/>
            <feGaussianBlur stdDeviation="3" result="blur-8"/>
            <feFlood flood-color="#111" flood-opacity=".102"/>
            <feComposite operator="in" in2="blur-8"/>
            <feComposite in="SourceGraphic"/>
        </filter>
        <filter id="box-6" x="675" y="634" width="556" height="148" filterUnits="userSpaceOnUse">
            <feOffset dy="3"/>
            <feGaussianBlur stdDeviation="3" result="blur-9"/>
            <feFlood flood-color="#111" flood-opacity=".102"/>
            <feComposite operator="in" in2="blur-9"/>
            <feComposite in="SourceGraphic"/>
        </filter>
        <filter id="box-7" x="105" y="994" width="556" height="148" filterUnits="userSpaceOnUse">
            <feOffset dy="3"/>
            <feGaussianBlur stdDeviation="3" result="blur-10"/>
            <feFlood flood-color="#111" flood-opacity=".102"/>
            <feComposite operator="in" in2="blur-10"/>
            <feComposite in="SourceGraphic"/>
        </filter>
        <style>
            .cls-1{fill:#f8f8f8}.cls-4{fill:#fff}.cls-3{fill:#333}.cls-4{stroke:#999;stroke-width:2px}.cls-5{fill:red;opacity:0}.cls-7{stroke:#326f5e;stroke-width:1.5px}.cls-13,.cls-7{fill:none}.cls-8{fill:#326f5e}.cls-9{fill:#999}.cls-11{stroke:none}
        </style>
    </defs>
    <path id="bg" class="cls-1" d="M0 0h1336v1950H0z"/>
    <g id="fc_boxes" transform="translate(-293 -947)">
        <g id="fc_diamond" transform="translate(692 1227)">
            <g transform="translate(-399 -280)" style="filter:url(#다각형_3)">
                <g id="다각형_3-2" data-name="다각형 3" style="fill:#fff">
                    <path class="cls-11" d="M269 258.89 2.298 130 269 1.11 535.702 130 269 258.89z" transform="translate(399 280)"/>
                    <path d="M269 2.221 4.596 130 269 257.779 533.404 130 269 2.221M269 0l269 130-269 130L0 130 269 0z" style="fill:#999;stroke:none" transform="translate(399 280)"/>
                </g>
            </g>
            <path id="패스_11016" data-name="패스 11016" class="cls-3" d="M87.185 9.707V6.8H99V4.4H84.2v7.682h14.91V9.707zm-5.337 6.307h19.492v-2.437H81.848zm9.688 1.286c-4.657 0-7.467 1.409-7.467 3.912 0 2.528 2.809 3.953 7.467 3.945 4.633.008 7.417-1.417 7.434-3.945-.017-2.505-2.801-3.912-7.434-3.912zm0 5.586c-2.95-.008-4.434-.539-4.417-1.674-.017-1.077 1.467-1.633 4.417-1.641 2.9.008 4.425.564 4.434 1.641-.009 1.133-1.534 1.664-4.434 1.672zm22.276-9.166h6.307v-2.3h-12.141v-1.414h11.751V4.238H104.97V6.55h11.76v1.3H105v5.867h5.851v1.55h-8.279v2.387h19.508v-2.386h-8.271zm3.017 7.5v3.845h3.017v-6.2h-15.092v2.354zM143.92 8.207h-4.674a5.008 5.008 0 0 0-4.483-2.884c-3.24 0-5.552 2.95-5.544 7.591-.008 4.691 2.3 7.624 5.544 7.624a5.094 5.094 0 0 0 4.7-3.323h4.459v8h2.959v-21.4h-2.961zm-9.157 9.622c-1.591 0-2.685-1.724-2.677-4.914-.008-3.157 1.086-4.89 2.677-4.89 1.608 0 2.677 1.732 2.685 4.89-.009 3.185-1.078 4.914-2.686 4.914zm5.378-3.008a12.64 12.64 0 0 0 .141-1.906 12.441 12.441 0 0 0-.207-2.3h3.845v4.2zm23.677-10.169V7.1h-8.967V4.652H151.9v9.414h14.909V4.652zm-8.967 7.028V9.45h8.967v2.23zm-5.238 4.45v2.345h8.213v6.688h2.959v-6.688h8.337V16.13zm34.243-10.724v-1.74h-2.983v1.74h-4.624v2.171h12.2V5.406zm9.116 4.541v-6.1h-2.992v14.496h2.992V12.4h2.735V9.948zm-3.986 5.072c-1.633.2-3.381.34-5.13.423v-1.1c2.271-.34 3.7-1.467 3.7-3.091-.008-1.972-2.08-3.191-5.221-3.182-3.157-.008-5.238 1.21-5.229 3.182-.008 1.641 1.442 2.776 3.762 3.1v1.2c-1.848.05-3.622.058-5.188.058l.307 2.312a79.952 79.952 0 0 0 13.21-.845zm-9.017-3.771c-.008-.82.854-1.193 2.37-1.193 1.5 0 2.354.373 2.362 1.193-.008.779-.862 1.235-2.362 1.227-1.516.008-2.378-.447-2.369-1.226zM189.981 21.5v3.663h2.992v-5.975H178.4V21.5zm21.547-17.652V19.18h3V3.848zm-2.867 6.729c0-3.124-2.552-5.378-5.826-5.378s-5.843 2.254-5.835 5.378c-.008 3.174 2.561 5.412 5.834 5.412s5.826-2.238 5.826-5.412zm-8.735 0a2.895 2.895 0 0 1 5.785 0 2.893 2.893 0 0 1-5.785 0zm3.331 7.052h-3.025v7.16h14.859v-2.411h-11.834z" transform="translate(120 116)"/>
        </g>
        <g id="fc_box_big_no_btn" transform="translate(407 2127)">
            <g transform="translate(-114 -1180)" style="filter:url(#box)">
                <g id="box-8" data-name="box" class="cls-4">
                    <path class="cls-11" d="M0 0h1108v130H0z" transform="translate(114 1180)"/>
                    <path class="cls-13" d="M1 1h1106v128H1z" transform="translate(114 1180)"/>
                </g>
            </g>
            <path id="패스_11025" data-name="패스 11025" class="cls-3" d="M413.456 9.707V6.8h11.818V4.4h-14.8v7.682h14.909V9.707zm-5.337 6.307h19.491v-2.437h-19.491zm9.688 1.285c-4.657 0-7.467 1.409-7.467 3.912 0 2.528 2.809 3.953 7.467 3.945 4.633.008 7.417-1.417 7.434-3.945-.017-2.504-2.802-3.911-7.434-3.911zm0 5.586c-2.95-.008-4.434-.539-4.417-1.674-.017-1.077 1.467-1.633 4.417-1.641 2.9.008 4.425.564 4.434 1.641-.009 1.134-1.534 1.665-4.434 1.673zm22.276-9.166h6.307v-2.3h-12.141v-1.413H446V4.238h-14.76V6.55H443v1.3h-11.727v5.867h5.851v1.55h-8.279v2.387h19.508v-2.386h-8.271zm3.017 7.5v3.845h3.017v-6.2h-15.092v2.354zm26.909-17.37V19.42h3V3.848zm-8.222 7.851a8.221 8.221 0 0 0 5.014 4.434l1.525-2.354a6.773 6.773 0 0 1-5.006-6.713v-2.05h-3.1v2.055a7.257 7.257 0 0 1-5.146 7.077l1.558 2.362a8.522 8.522 0 0 0 5.155-4.811zm-.05 6.2h-3.025v6.89h14.859v-2.412h-11.833zm20.586-5.594a7.867 7.867 0 0 0 5.1 3.7l1.4-2.3c-3.431-.887-5.039-3.108-5.064-5.3h4.293V6.052H483.8V3.74h-3.017v2.312h-4.293v2.354h4.293c-.025 2.42-1.608 4.84-5.022 5.818l1.4 2.337a7.875 7.875 0 0 0 5.162-4.252zm5.1-.365h3.477v4.782h2.983V3.815H490.9V9.55h-3.472zm-.837 5.138c-4.525 0-7.334 1.442-7.326 4-.008 2.577 2.8 4.077 7.326 4.069 4.541.008 7.343-1.492 7.351-4.069-.003-2.554-2.804-3.996-7.346-3.996zm0 5.8c-2.826-.008-4.359-.63-4.351-1.8-.008-1.144 1.525-1.724 4.351-1.715 2.884-.008 4.376.572 4.384 1.715-.003 1.175-1.495 1.797-4.379 1.805zm32.433-10.909V3.815h-2.992v21.348h2.992v-10.7h3.149V11.97zm-8.95-3.646h4.293V5.878h-11.818v2.445h4.517v1.31c-.017 3.53-1.807 7.5-5.362 9.157l1.74 2.362a10.573 10.573 0 0 0 5.171-6.373 10.017 10.017 0 0 0 5.014 5.826l1.666-2.345a9.492 9.492 0 0 1-5.221-8.627zm27.622 8.735h3.017v-2.413h-12.53v-2.37h12.032V5.207h-15.05v2.4h12.091V9.9h-12.058v7.16h2.751v3.273h-5v2.445h19.508v-2.447h-4.765zm-2.942 0v3.273h-3.9v-3.274zM566.157 9V3.815h-3v12.878h3v-5.2h2.867V9zm-10.533 2.751a8.105 8.105 0 0 0 4.923 4.185l1.517-2.3c-3.448-1.119-4.956-3.671-4.964-6.174h4.26V5.075h-11.636v2.386h4.359A6.963 6.963 0 0 1 548.912 14l1.583 2.3a8.354 8.354 0 0 0 5.129-4.546zm7.533 8.238v5.171h3V17.6H551.8v2.387zm24.8-3.663V3.815h-2.983v3.92h-4v2.445h4v6.149zM576.6 11.439a7.834 7.834 0 0 0 4.74 4.177l1.591-2.337a6.513 6.513 0 0 1-4.89-6.555v-1.79h-3.017v1.931a7.126 7.126 0 0 1-5.246 7.019l1.591 2.387a8.473 8.473 0 0 0 5.231-4.832zm4.069 5.436c-4.541 0-7.334 1.533-7.326 4.152-.008 2.635 2.785 4.135 7.326 4.127 4.558.008 7.343-1.492 7.351-4.127-.009-2.618-2.794-4.151-7.352-4.151zm0 5.95c-2.826.008-4.359-.613-4.351-1.8-.008-1.218 1.525-1.831 4.351-1.831s4.376.613 4.384 1.831c-.009 1.188-1.553 1.809-4.385 1.801zm15.124-17.593-5.47 20.32h3l5.47-20.32zm19.467 19.931h2.826V3.815h-2.826zm-7.144-14.022v2.4h2.809v10.628h2.8v-20h-2.8v6.97zM606.4 8.4h3.232V6h-9.613v2.4h3.5v1.133c0 3.63-1.169 7.459-4.309 9.4l1.807 2.2a9.93 9.93 0 0 0 3.978-5.809 9.022 9.022 0 0 0 3.878 5.32l1.749-2.2c-3.116-1.782-4.227-5.362-4.218-8.917zm15.63 3.945c3.986-.207 6.729-1.21 8.072-2.809 1.351 1.6 4.1 2.6 8.055 2.809l.878-2.2c-4.309-.182-6.481-1.2-7.086-2.436h6.025v-2.22h-6.389V3.807h-2.967v1.682h-6.348V7.7h5.975c-.622 1.235-2.785 2.254-7.036 2.436zm17.784.572h-19.366v2.18h8.188v1.343h-5.983v2.138h11.884v1.061h-11.868v5.378h15.373v-2.2H625.6v-1.176h11.884v-5.2h-5.892v-1.347h8.221z" transform="translate(30 51)"/>
        </g>
        <g id="fc_box_big_no_btn-2" data-name="fc_box_big_no_btn" transform="translate(407 2307)">
            <g transform="translate(-114 -1360)" style="filter:url(#box-2)">
                <g id="box-9" data-name="box" class="cls-4">
                    <path class="cls-11" d="M0 0h1108v130H0z" transform="translate(114 1360)"/>
                    <path class="cls-13" d="M1 1h1106v128H1z" transform="translate(114 1360)"/>
                </g>
            </g>
            <path id="패스_11026" data-name="패스 11026" class="cls-3" d="M452.319 6.028V16.8h-.149l-7.4-10.773h-3.1V23h3.522V12.218h.124L452.775 23h3.05V6.028zm6.373 0V23h3.522V6.028zM476.5 23v-2.917h-7.9v-4.119h7.276v-2.909H468.6v-4.11h7.865V6.028h-11.384V23zm16.044 0-3.613-6.6a4.885 4.885 0 0 0 3-4.84c0-3.348-2.213-5.528-6.075-5.528h-6.646V23h3.522v-6.033h2.685L488.642 23zM485.2 8.92c2.1 0 3.108.936 3.108 2.635s-1.011 2.561-3.1 2.561h-2.478V8.92zm30.953-5.072h-2.992v16.276h2.992v-7.077h2.735v-2.486h-2.735zm-4.185 10.434c-1.558.224-3.232.373-4.906.481V13.2c2.287-.489 3.82-2.08 3.837-4.16-.017-2.577-2.262-4.334-5.378-4.334-3.133 0-5.378 1.757-5.362 4.334-.017 2.1 1.558 3.713 3.9 4.177V14.9a156.4 156.4 0 0 1-5.022.066l.315 2.37a75.543 75.543 0 0 0 12.837-.878zm-9.033-5.246c-.017-1.334 1.069-2.072 2.586-2.08 1.525.008 2.561.746 2.569 2.08-.008 1.293-1.036 2.055-2.569 2.055-1.514 0-2.6-.762-2.583-2.055zm-1.077 9.655v6.075h15.033v-2.4h-12.014v-3.675zm29.5-6.912h3.489v7.641h2.983V3.848h-2.983v5.519h-3.489zm-4.939.58a8.109 8.109 0 0 0 4.914 4.251l1.475-2.37a6.573 6.573 0 0 1-4.906-6.224v-.34h4.251v-2.4H520.59v2.4h4.276V8a6.884 6.884 0 0 1-5.13 6.622l1.533 2.42a8.412 8.412 0 0 0 5.155-4.683zm.24 5.7h-2.983v6.731h14.66v-2.412h-11.672zm31.923-1.732V3.815H555.6v3.92h-4v2.445h4v6.149zm-11.362-4.89a7.834 7.834 0 0 0 4.74 4.177l1.591-2.337a6.513 6.513 0 0 1-4.89-6.555V4.934h-3.017v1.931a7.126 7.126 0 0 1-5.246 7.019L542 16.271a8.473 8.473 0 0 0 5.225-4.832zm4.069 5.436c-4.541 0-7.334 1.533-7.326 4.152-.008 2.635 2.785 4.135 7.326 4.127 4.558.008 7.343-1.492 7.351-4.127-.003-2.616-2.788-4.149-7.346-4.149zm0 5.95c-2.826.008-4.359-.613-4.351-1.8-.008-1.218 1.525-1.831 4.351-1.831s4.376.613 4.384 1.831c-.003 1.19-1.545 1.811-4.379 1.803zm30.6-13.914h-3.8v2.445h3.8v4.417h2.983V3.848h-2.983zm-3.936-3.837h-9.8v2.381h6.588c-.481 2.876-3.124 5.229-7.749 6.472l1.185 2.329c6.255-1.74 9.777-5.602 9.777-11.179zm6.92 19.823v-8.268h-14.145V24.9zm-2.967-5.925v3.58h-8.246v-3.58zm16.981-2.2h6.149V14.4h-12.05v-2.223h11.378V9.831h-11.376V7.7h11.884V5.3h-14.918v11.476h5.925v3.6h-8.229v2.4h19.508v-2.4h-8.271z" transform="translate(30 51)"/>
        </g>
        <g id="fc_box_big_no_btn-3" data-name="fc_box_big_no_btn" transform="translate(407 2487)">
            <g transform="translate(-114 -1540)" style="filter:url(#box-3)">
                <g id="box-10" data-name="box" class="cls-4">
                    <path class="cls-11" d="M0 0h1108v130H0z" transform="translate(114 1540)"/>
                    <path class="cls-13" d="M1 1h1106v128H1z" transform="translate(114 1540)"/>
                </g>
            </g>
            <path id="패스_11028" data-name="패스 11028" class="cls-3" d="M451.809 9.707V6.8h11.818V4.4h-14.8v7.682h14.909V9.707zm-5.337 6.307h19.492v-2.437h-19.492zm9.688 1.286c-4.657 0-7.467 1.409-7.467 3.912 0 2.528 2.809 3.953 7.467 3.945 4.633.008 7.417-1.417 7.434-3.945-.017-2.505-2.801-3.912-7.434-3.912zm0 5.586c-2.95-.008-4.434-.539-4.417-1.674-.017-1.077 1.467-1.633 4.417-1.641 2.9.008 4.425.564 4.434 1.641-.008 1.133-1.533 1.664-4.434 1.672zm22.276-9.166h6.307v-2.3H472.6v-1.414h11.751V4.238h-14.76V6.55h11.76v1.3h-11.724v5.867h5.851v1.55H467.2v2.387h19.508v-2.386h-8.271zm3.017 7.5v3.845h3.017v-6.2h-15.092v2.354zM504.7 13.5h6.174v-2.276h-11.985v-1.218h11.3V7.834h-11.3V6.649h11.8V4.337h-14.783V13.5h5.794v1.32h-8.238v2.345h19.508V14.82h-8.27zm-1.5 4.633c-4.765-.008-7.467 1.26-7.467 3.506 0 2.3 2.7 3.522 7.467 3.514 4.707.008 7.417-1.21 7.434-3.514-.018-2.239-2.728-3.512-7.434-3.504zm0 4.807c-3.058.008-4.483-.39-4.475-1.3-.008-.9 1.417-1.293 4.475-1.293 3.008 0 4.425.4 4.434 1.293-.01.912-1.427 1.31-4.434 1.302zm25.889 2.221h3.025V3.815h-3.025zm-6.572-16.84h4.467V5.878h-12.042v2.445h4.533v1.31c-.008 3.622-1.84 7.575-5.37 9.157l1.7 2.345a10.336 10.336 0 0 0 5.246-6.3 9.657 9.657 0 0 0 5.213 5.768l1.608-2.345a9.2 9.2 0 0 1-5.354-8.627zm27.53 2.213h-4.177v2.412h4.177v12.267h2.959V3.815h-2.959zm-6.961-5.072h-3.041v3.193c-.017 4.011-1.691 8.13-5.337 9.787l1.873 2.428a10.282 10.282 0 0 0 5-6.29 9.661 9.661 0 0 0 4.856 5.9l1.803-2.38c-3.547-1.533-5.163-5.436-5.155-9.448zm27.953 3.771c1.392 2.312 4.127 4.044 7.856 4.575l1.168-2.412c-4.881-.6-7.45-3.39-7.45-5.909V4.453h-3.141v1.036c-.008 2.519-2.569 5.3-7.417 5.909l1.177 2.412c3.696-.531 6.414-2.263 7.807-4.575zm-9.739 6.192v2.436h8.188v7.3h2.959v-7.3h8.312v-2.436zm38.727 1.392V3.848h-3v2.834h-3.489v2.412h3.489v2h-3.489v2.4h3.489v3.331zm-6.961-3.617a41.621 41.621 0 0 1-7.227.5v-2.145h6.439V4.934h-9.431v2.411h6.472v1.964h-6.439v6.82h1.608a47.537 47.537 0 0 0 8.851-.522zm-.29 3.945c-4.583 0-7.376 1.508-7.367 4.061-.008 2.561 2.785 4.019 7.367 4.019 4.566 0 7.343-1.459 7.351-4.019-.008-2.549-2.784-4.057-7.351-4.057zm0 5.8c-2.867 0-4.351-.555-4.343-1.74-.008-1.2 1.475-1.773 4.343-1.773 2.843 0 4.376.572 4.384 1.773-.008 1.195-1.541 1.745-4.384 1.745z" transform="translate(30 51)"/>
        </g>
        <g id="fc_start_end_link" transform="translate(407 2667)">
            <g transform="translate(-114 -1720)" style="filter:url(#area)">
                <g id="area-3" data-name="area" class="cls-4" transform="translate(114 1720)">
                    <rect class="cls-11" width="1108" height="130" rx="65"/>
                    <rect class="cls-13" x="1" y="1" width="1106" height="128" rx="64"/>
                </g>
            </g>
            <g id="fc_textlink" transform="translate(671 79)">
                <g id="stack" transform="translate(-2524.094 20210)">
                    <g id="ico_fc_pop_up" transform="translate(2419.596 -20209)">
                        <g id="그룹_1025" data-name="그룹 1025" transform="translate(-1101.074 -1125)">
                            <g id="그룹_1026" data-name="그룹 1026" transform="translate(1108.074 1129)">
                                <path id="사각형_878" data-name="사각형 878" style="stroke:#326f5e;stroke-width:1.5px;fill:#fff" d="M0 0h9v9H0z"/>
                            </g>
                            <path id="패스_6896" data-name="패스 6896" class="cls-7" d="M1104.574 1132.941v9h9" transform="translate(.5 -.941)"/>
                        </g>
                    </g>
                    <path id="패스_11030" data-name="패스 11030" class="cls-8" d="M-10.028-7.669h-3.89v1.227h3.89v7.8h1.481v-14.032h-1.481zm-8.022-2.475h4.917v-1.226h-6.414v9.287h1.1a31.721 31.721 0 0 0 6.365-.464l-.166-1.215a30.034 30.034 0 0 1-5.8.442zM.707-4.508H4.9v-7.21H3.42V-9.3h-6.873v-2.414h-1.486v7.21h4.177v2.873H-6.4v1.222H6.414v-1.226H.707zM3.42-8.11v2.4h-6.873v-2.4zm14.16 9.436h1.492v-14H17.58zM8.249-11.166v1.182H13.4c-.293 3.265-2.1 5.79-5.829 7.558l.785 1.2c4.807-2.293 6.547-5.845 6.558-9.939zM-20.751 2h41.5v1h-41.5z" transform="translate(2395.094 -20194)"/>
                </g>
            </g>
            <path id="패스_11029" data-name="패스 11029" class="cls-3" d="M499.959 12.044V3.815h-2.992v21.348h2.992V14.572h3.149v-2.528zm-8.975-6.58h-2.992v3.191c-.008 3.961-1.715 8.039-5.32 9.7l1.831 2.428a10.307 10.307 0 0 0 5-6.215 9.73 9.73 0 0 0 4.715 5.8l1.807-2.378c-3.423-1.657-5.055-5.511-5.039-9.331zm24.091.572V3.8h-2.959v2.236h-7.3v2.4h17.511v-2.4zM513.6 16.569c4.591 0 7.351-1.293 7.359-3.638-.008-2.378-2.768-3.663-7.359-3.663s-7.367 1.285-7.359 3.663c-.009 2.345 2.759 3.638 7.359 3.638zm0-5.088c2.826 0 4.243.464 4.26 1.45-.017.961-1.434 1.425-4.26 1.417-2.851.008-4.26-.456-4.251-1.417-.009-.986 1.4-1.45 4.251-1.45zm-9.713 6.133v2.42h8.229v5.146h2.959v-5.147h8.32v-2.42zm37.923-13.8h-3.058v15.979h3.058v-6.97h2.59v-2.494h-2.594zm-5.7 9.149a35.464 35.464 0 0 0 .489-6.257V5.373h-10.991v2.436h8.055a28.5 28.5 0 0 1-.5 4.881zm1.492.878c-2.005.29-4.185.456-6.315.547V10.3h-2.975v4.185c-1.417.025-2.76.033-3.953.033l.257 2.378a76.835 76.835 0 0 0 13.135-.9zm-10.11 4.525v6.424h14.992v-2.412h-11.995v-4.011zm32.793 6.845h2.975V3.815h-2.975zm-10.669-11.377h7.036V5.613h-10.135v2.412h7.083v3.456h-7.069v8.735h1.914a57.731 57.731 0 0 0 10.566-.754l-.257-2.428a55.32 55.32 0 0 1-9.141.721z" transform="translate(30 36)"/>
        </g>
        <g id="fc_start_end_link-2" data-name="fc_start_end_link" transform="translate(407 1047)">
            <g transform="translate(-114 -100)" style="filter:url(#area-2)">
                <g id="area-4" data-name="area" class="cls-4" transform="translate(114 100)">
                    <rect class="cls-11" width="1108" height="130" rx="65"/>
                    <rect class="cls-13" x="1" y="1" width="1106" height="128" rx="64"/>
                </g>
            </g>
            <g id="fc_textlink-2" data-name="fc_textlink" transform="translate(671 79)">
                <g id="stack-2" data-name="stack" transform="translate(-2524.094 20210)">
                    <g id="ico_fc_pdf" transform="translate(2443.005 -20209)">
                        <g id="그룹_1025-2" data-name="그룹 1025" transform="translate(-1101.5 -1126.5)">
                            <path id="패스_6892" data-name="패스 6892" class="cls-7" d="M1108.592 1130.5h7.714l4.286 4.286v7.714h-12z" transform="translate(-3.092)"/>
                            <path id="패스_6891" data-name="패스 6891" class="cls-7" d="M1052.728 2115.047v5h5" transform="translate(59.772 -984.547)"/>
                        </g>
                    </g>
                    <path id="패스_11015" data-name="패스 11015" class="cls-8" d="M-32.34-7.122h-1.812v-5.265h-1.37V.608h1.37v-6.52h1.812v7.238h1.409v-14h-1.409zm-8.641-2.663h3.751v-1.2h-5.238v8.95h.928a24.776 24.776 0 0 0 5.182-.409l-.122-1.227a23.592 23.592 0 0 1-4.5.381zm22.878-2.89h-1.486v8.448h1.489v-3.685h2.028v-1.237H-18.1zm-6.889 4.625a5.583 5.583 0 0 0 3.3 3.011L-20.9-6.2a4.588 4.588 0 0 1-3.381-4.227v-1.514h-1.47v1.387a5.013 5.013 0 0 1-3.459 4.735l.8 1.177a5.766 5.766 0 0 0 3.418-3.408zm2.365 4.15c-2.906 0-4.7.961-4.7 2.591 0 1.663 1.79 2.608 4.7 2.608 2.884 0 4.652-.945 4.652-2.608 0-1.625-1.768-2.591-4.652-2.591zm0 4.033c-2.022-.011-3.221-.514-3.21-1.442-.011-.89 1.188-1.414 3.21-1.414s3.2.525 3.2 1.414c-.001.933-1.184 1.436-3.2 1.447zM-.362-12.674h-1.486v8.448h1.486v-3.686h2.028v-1.237H-.362zM-7.251-8.05a5.583 5.583 0 0 0 3.3 3.011l.79-1.166a4.588 4.588 0 0 1-3.381-4.227v-1.514h-1.47v1.387a5.013 5.013 0 0 1-3.459 4.735l.8 1.177a5.766 5.766 0 0 0 3.42-3.403zm2.364 4.15c-2.906 0-4.7.961-4.7 2.591 0 1.663 1.79 2.608 4.7 2.608C-2 1.3-.235.359-.235-1.3c0-1.634-1.765-2.6-4.652-2.6zm0 4.033C-6.909.127-8.108-.376-8.1-1.3c-.011-.89 1.188-1.414 3.21-1.414s3.2.525 3.2 1.414C-1.688-.376-2.87.127-4.887.138zm17.973 1.193h1.425v-14h-1.425zM8.025-7.751v1.232h2.182V.635h1.4V-12.4h-1.4v4.652zM6.738-11.4H5.3v2.613a7.023 7.023 0 0 1-3.022 6.05l.928 1.1a6.975 6.975 0 0 0 2.835-4.109 6.471 6.471 0 0 0 2.674 3.812l.835-1.149a6.729 6.729 0 0 1-2.812-5.768zm16.674 6.892H27.6v-7.21h-1.476V-9.3h-6.873v-2.414h-1.486v7.21h4.177v2.873h-5.635v1.222h12.812v-1.226h-5.707zm2.713-3.6v2.4h-6.874v-2.4zm14.16 9.436h1.492v-14h-1.492zm-9.332-12.494v1.182H36.1c-.293 3.265-2.1 5.79-5.829 7.558l.785 1.2c4.807-2.293 6.547-5.845 6.558-9.939zM-43.456 2h86.912v1h-86.912z" transform="translate(2395.55 -20194)"/>
                </g>
            </g>
            <path id="패스_11323" data-name="패스 11323" class="cls-3" d="M379.18 9.707V6.8H391V4.4h-14.8v7.682h14.9V9.707zm-5.337 6.307h19.492v-2.437h-19.492zm9.687 1.286c-4.657 0-7.467 1.409-7.467 3.912 0 2.528 2.809 3.953 7.467 3.945 4.633.008 7.417-1.417 7.434-3.945-.017-2.505-2.801-3.912-7.434-3.912zm0 5.586c-2.95-.008-4.434-.539-4.417-1.674-.017-1.077 1.467-1.633 4.417-1.641 2.9.008 4.425.564 4.434 1.641-.008 1.133-1.533 1.664-4.434 1.672zm22.276-9.166h6.307v-2.3h-12.141v-1.414h11.751V4.238h-14.76V6.55h11.76v1.3H397v5.867h5.851v1.55h-8.279v2.387h19.508v-2.386h-8.271zm3.017 7.5v3.845h3.017v-6.2h-15.091v2.354zm22.127-9.157h-2.055V4.188h-2.743v19.931h2.743v-9.663h2.055v10.707h2.826V3.815h-2.826zM418.942 8.7h4.964V6.3h-7.964v14.03h1.492a38.764 38.764 0 0 0 7.682-.588l-.224-2.436a35.125 35.125 0 0 1-5.95.522zm34.077-4.881h-3v12.659h3V11.29h2.867V8.812h-2.867zM442.4 11.547a7.889 7.889 0 0 0 4.765 4.069l1.583-2.329c-3.373-1.036-4.881-3.522-4.881-6.108v-2.22h-2.997V6.89a7.112 7.112 0 0 1-5.1 6.978l1.608 2.345a8.2 8.2 0 0 0 5.022-4.666zm3.622 5.37c-4.492-.008-7.309 1.525-7.3 4.1-.008 2.627 2.809 4.144 7.3 4.135 4.425.008 7.2-1.508 7.2-4.135-.004-2.575-2.78-4.108-7.205-4.1zm0 5.9c-2.793-.008-4.318-.58-4.309-1.8-.008-1.152 1.517-1.773 4.309-1.773 2.776 0 4.251.622 4.251 1.773-.005 1.221-1.48 1.792-4.256 1.801zm25.724 2.345h3.025V3.815h-3.031zm-13.682-19.1v2.344h7.268c-.481 4.74-2.909 8.1-8.412 10.715l1.558 2.378c7.624-3.6 9.9-8.975 9.9-15.439zm21.489 7.459c3.978-.472 6.622-2.146 7.749-4.367 1.127 2.229 3.787 3.9 7.782 4.367l1.1-2.387c-4.21-.439-6.423-2.238-6.771-4.019h5.887V4.727h-15.935v2.386h5.851c-.356 1.773-2.536 3.58-6.746 4.019zm9.232-1.541h-2.967v2.967H477.6v2.4h19.459v-2.4h-8.279zm-8.834 6.671v6.139h14.892v-2.412h-11.898v-3.729zm35.455-6.151V3.815h-3.017v21.348h3.017V14.978h2.785V12.5zm-9.05-6.3V3.939h-3.008V6.2h-4.84v2.347h12.655V6.2zm0 11.064c2.254-.431 3.754-1.89 3.771-3.862-.017-2.4-2.2-4.019-5.246-4.019-3.108 0-5.262 1.624-5.254 4.019-.008 1.964 1.459 3.414 3.721 3.854V19.1c-1.889.041-3.7.041-5.254.041l.4 2.436a72.853 72.853 0 0 0 13.036-.87l-.2-2.171c-1.591.224-3.282.356-4.972.448zM502.47 13.4c-.008-1.11.953-1.74 2.412-1.74 1.417 0 2.37.63 2.37 1.74s-.953 1.724-2.37 1.724c-1.459.003-2.421-.602-2.412-1.724zm24.456-7.666V3.715h-2.983v2.023h-4.848v2.345h12.663V5.738zm9.1 3.63V3.815h-3v13.392h3V11.8h2.867V9.367zm-5.345 3.34c0-2.345-2.155-3.928-5.246-3.936-3.1.008-5.3 1.591-5.3 3.936-.008 2.345 2.2 3.928 5.3 3.928s5.245-1.58 5.245-3.925zm-7.633 0c0-1.094.953-1.682 2.387-1.691 1.425.008 2.4.6 2.412 1.691-.008 1.086-.986 1.649-2.412 1.649s-2.388-.56-2.388-1.646zm9.978 7.782v4.674h3V18.1h-14.363v2.387zm9.232-16.036v6.721h14.586V4.453zm2.934 4.409v-2.1h8.66v2.1zm14.12 3.441h-19.458v2.345h8.188v1.367H542.1v2.254h11.884v1.1h-11.868v5.644h15.373v-2.25H545.05v-1.285h11.884v-5.461h-5.892v-1.368h8.271zm16.144-8.486v10.957h2.967V3.815zm-8.006 6.812a7.984 7.984 0 0 0 5.155 3.936l1.417-2.3c-3.273-.854-4.881-2.934-5.088-5.064h4.266V4.809h-11.725V7.2h4.384c-.215 2.287-1.848 4.525-5.163 5.453L562.055 15a8.2 8.2 0 0 0 5.395-4.373zm-.34 10.691h11.345v-5.693h-14.311v2.262h11.329v1.294h-11.28v5.834h14.843v-2.3H567.11zm35.39-9.256h-2.055V4.188H597.7v19.931h2.743v-9.663h2.057v10.707h2.826V3.815H602.5zM590.489 8.7h4.964V6.3h-7.964v14.03h1.492a38.763 38.763 0 0 0 7.682-.588l-.224-2.436a35.124 35.124 0 0 1-5.95.522zm34.077-4.881h-3v12.659h3V11.29h2.867V8.812h-2.867zm-10.624 7.732a7.889 7.889 0 0 0 4.765 4.069l1.583-2.329c-3.373-1.036-4.881-3.522-4.881-6.108V4.959h-2.992V6.89a7.112 7.112 0 0 1-5.1 6.978l1.608 2.345a8.2 8.2 0 0 0 5.017-4.666zm3.622 5.37c-4.492-.008-7.309 1.525-7.3 4.1-.008 2.627 2.809 4.144 7.3 4.135 4.425.008 7.2-1.508 7.2-4.135.001-2.579-2.775-4.112-7.201-4.104zm0 5.9c-2.793-.008-4.318-.58-4.309-1.8-.008-1.152 1.517-1.773 4.309-1.773 2.776 0 4.251.622 4.251 1.773 0 1.217-1.475 1.788-4.252 1.797zm24.3-17.412V3.666h-2.983v1.74h-4.624v2.171h12.2V5.406zm9.116 4.541v-6.1h-2.992v14.493h2.992V12.4h2.735V9.948zm-3.986 5.072c-1.633.2-3.381.34-5.13.423v-1.1c2.271-.34 3.7-1.467 3.7-3.091-.008-1.972-2.08-3.191-5.221-3.182-3.157-.008-5.238 1.21-5.229 3.182-.008 1.641 1.442 2.776 3.762 3.1v1.2c-1.848.05-3.622.058-5.188.058L634 17.92a79.952 79.952 0 0 0 13.21-.845zm-9.017-3.771c-.008-.82.854-1.193 2.37-1.193 1.5 0 2.354.373 2.362 1.193-.008.779-.862 1.235-2.362 1.227-1.518.005-2.38-.45-2.372-1.229zM647.986 21.5v3.663h2.992v-5.975H636.4V21.5zm21.547-17.652V19.18h3V3.848zm-2.867 6.729c0-3.124-2.552-5.378-5.826-5.378s-5.84 2.254-5.835 5.378c-.008 3.174 2.561 5.412 5.834 5.412s5.827-2.238 5.827-5.412zm-8.735 0a2.895 2.895 0 0 1 5.785 0 2.893 2.893 0 0 1-5.785 0zm3.331 7.052h-3.025v7.16H673.1v-2.411h-11.838z" transform="translate(30 36)"/>
        </g>
        <g id="fc_box_medium_link" transform="translate(977 1947)">
            <g transform="translate(-684 -1000)" style="filter:url(#box-4)">
                <g id="box-11" data-name="box" class="cls-4">
                    <path class="cls-11" d="M0 0h538v130H0z" transform="translate(684 1000)"/>
                    <path class="cls-13" d="M1 1h536v128H1z" transform="translate(684 1000)"/>
                </g>
            </g>
            <g id="fc_textlink-3" data-name="fc_textlink" transform="translate(386 79)">
                <g id="stack-3" data-name="stack" transform="translate(-2524.094 20210)">
                    <g id="ico_fc_go_tab" transform="translate(2421.503 -20209)">
                        <path id="패스_7163" data-name="패스 7163" class="cls-7" d="m8.62 5.071 5 5-5 5" transform="translate(-2.62 -.072)"/>
                    </g>
                    <path id="패스_11024" data-name="패스 11024" class="cls-8" d="M-11.981-7.669h-3.89v1.227h3.89v7.8h1.481v-14.032h-1.481zM-20-10.144h4.917v-1.226H-21.5v9.287h1.1a31.721 31.721 0 0 0 6.365-.464l-.165-1.215a30.034 30.034 0 0 1-5.8.442zM2.66-4.508h4.188v-7.21H5.373V-9.3H-1.5v-2.414h-1.486v7.21h4.177v2.873h-5.636v1.222H8.367v-1.226H2.66zm2.713-3.6v2.4H-1.5v-2.4zm14.16 9.436h1.492v-14h-1.492zM10.2-11.166v1.182h5.149c-.293 3.265-2.1 5.79-5.829 7.558l.785 1.2c4.807-2.293 6.547-5.845 6.558-9.939zM-22.7 2h45.4v1h-45.4z" transform="translate(2394.798 -20194)"/>
                </g>
            </g>
            <path id="패스_11021" data-name="패스 11021" class="cls-3" d="M142.586 25.146h2.967V3.848h-2.967zm-8.064-11.378c3.265.017 5.635-1.865 5.635-4.517 0-2.693-2.37-4.55-5.635-4.541-3.24-.008-5.61 1.848-5.594 4.541-.016 2.649 2.354 4.534 5.594 4.517zm0-6.663c1.649-.008 2.793.779 2.8 2.146-.008 1.326-1.152 2.1-2.8 2.088-1.583.008-2.718-.762-2.71-2.088-.012-1.367 1.127-2.151 2.71-2.151zm6.771 7.193a96.99 96.99 0 0 1-13.674.779l.365 2.436c1.533-.017 3.307-.033 5.18-.108v7.119h3v-7.3a48.272 48.272 0 0 0 5.336-.724zm22.641-1.79H162.2v-8.27h-2.8v20.005h2.8V14.9h1.732v10.263h2.843V3.815h-2.843zM152.017 4.42v2.66h-3.729v2.379h10.326V7.08h-3.655V4.42zm1.483 6a4.7 4.7 0 0 0-4.7 5.047c-.008 2.992 1.981 5.1 4.7 5.1s4.674-2.1 4.682-5.1c-.008-2.95-1.955-5.047-4.682-5.047zm0 7.608c-1.235.008-2.08-.928-2.072-2.561-.008-1.6.837-2.569 2.072-2.569 1.2 0 2.047.97 2.055 2.569-.008 1.633-.855 2.569-2.055 2.561zm33.555-1.7V3.815h-2.983v3.92h-4v2.445h4v6.149zm-11.362-4.89a7.834 7.834 0 0 0 4.74 4.177l1.591-2.337a6.513 6.513 0 0 1-4.89-6.555V4.934h-3.017v1.931a7.126 7.126 0 0 1-5.246 7.019l1.591 2.387a8.473 8.473 0 0 0 5.231-4.832zm4.069 5.436c-4.541 0-7.334 1.533-7.326 4.152-.008 2.635 2.785 4.135 7.326 4.127 4.558.008 7.343-1.492 7.351-4.127-.013-2.617-2.793-4.15-7.351-4.15zm0 5.95c-2.826.008-4.359-.613-4.351-1.8-.008-1.218 1.525-1.831 4.351-1.831s4.376.613 4.384 1.831c-.008 1.189-1.546 1.81-4.384 1.802zm25.691 2.337h2.859V3.815h-2.859zM199.3 11.713c-.323-3.97-2.088-6.365-4.657-6.365-2.809 0-4.641 2.942-4.633 7.707-.008 4.807 1.823 7.765 4.633 7.757 2.635.008 4.425-2.528 4.682-6.713h1.715v10.078h2.826V4.146h-2.826v7.566zm-4.657 6.232c-1.193.008-1.9-1.6-1.881-4.889-.017-3.257.688-4.89 1.881-4.881 1.235-.008 1.964 1.624 1.964 4.881.003 3.289-.726 4.897-1.961 4.889zm38.647-14.13h-3.058v15.978h3.058v-6.97h2.594v-2.494h-2.594zm-5.7 9.149a35.458 35.458 0 0 0 .489-6.257V5.373h-10.991v2.436h8.055a28.492 28.492 0 0 1-.5 4.881zm1.492.878c-2.006.29-4.185.456-6.315.547V10.3h-2.977v4.185c-1.417.025-2.76.033-3.953.033l.257 2.378a76.836 76.836 0 0 0 13.135-.9zm-10.11 4.525v6.423h14.992v-2.412H221.97v-4.011zm25.721-12.281V3.815h-2.983v2.271h-4.848v2.353h12.663V6.086zm9.1-2.238h-3v15.928h3V12.84h2.867v-2.453h-2.867zM243.2 17.4c3.083.008 5.246-1.616 5.246-4.069 0-2.478-2.163-4.135-5.246-4.135-3.116 0-5.3 1.657-5.3 4.135 0 2.451 2.186 4.075 5.3 4.069zm-2.387-4.069c0-1.193.953-1.848 2.387-1.856 1.425.008 2.4.663 2.412 1.856-.008 1.169-.986 1.8-2.412 1.8s-2.385-.631-2.385-1.802zm-.862 5.213v6.246h14.6v-2.412h-11.615v-3.837zm40.028-6.572V3.815h-2.992v21.348h2.992v-10.7h3.149V11.97zm-8.95-3.646h4.293V5.878h-11.816v2.445h4.517v1.31c-.017 3.53-1.807 7.5-5.362 9.157l1.74 2.362a10.573 10.573 0 0 0 5.171-6.373 10.017 10.017 0 0 0 5.014 5.826l1.666-2.345a9.492 9.492 0 0 1-5.221-8.627zm27.622 8.735h3.017v-2.415h-12.53v-2.37h12.033V5.207h-15.05v2.4h12.091V9.9h-12.057v7.16h2.751v3.273h-5v2.445h19.508v-2.447h-4.765zm-2.942 0v3.273h-3.9v-3.276zM327.119 9V3.815h-3v12.878h3v-5.2h2.867V9zm-10.533 2.751a8.105 8.105 0 0 0 4.923 4.185l1.517-2.3c-3.448-1.119-4.956-3.671-4.964-6.174h4.26V5.075h-11.637v2.386h4.359A6.963 6.963 0 0 1 309.873 14l1.583 2.3a8.354 8.354 0 0 0 5.13-4.546zm7.533 8.238v5.171h3V17.6h-14.362v2.387zm24.8-3.663V3.815h-2.983v3.92h-4v2.445h4v6.149zm-11.362-4.89a7.834 7.834 0 0 0 4.74 4.177l1.591-2.337A6.513 6.513 0 0 1 339 6.724v-1.79h-3.017v1.931a7.126 7.126 0 0 1-5.246 7.019l1.591 2.387a8.473 8.473 0 0 0 5.233-4.832zm4.069 5.436c-4.541 0-7.334 1.533-7.326 4.152-.008 2.635 2.785 4.135 7.326 4.127 4.558.008 7.343-1.492 7.351-4.127-.005-2.615-2.789-4.148-7.347-4.148zm0 5.95c-2.826.008-4.359-.613-4.351-1.8-.008-1.218 1.525-1.831 4.351-1.831s4.376.613 4.384 1.831c-.004 1.191-1.546 1.812-4.38 1.804z" transform="translate(30 36)"/>
        </g>
        <g id="fc_box_medium_link-2" data-name="fc_box_medium_link" transform="translate(977 1767)">
            <g transform="translate(-684 -820)" style="filter:url(#box-5)">
                <g id="box-12" data-name="box" class="cls-4">
                    <path class="cls-11" d="M0 0h538v130H0z" transform="translate(684 820)"/>
                    <path class="cls-13" d="M1 1h536v128H1z" transform="translate(684 820)"/>
                </g>
            </g>
            <g id="fc_textlink-4" data-name="fc_textlink" transform="translate(386 79)">
                <g id="stack-4" data-name="stack" transform="translate(-2524.094 20210)">
                    <g id="ico_fc_go_tab-2" data-name="ico_fc_go_tab" transform="translate(2421.503 -20209)">
                        <path id="패스_7163-2" data-name="패스 7163" class="cls-7" d="m8.62 5.071 5 5-5 5" transform="translate(-2.62 -.072)"/>
                    </g>
                    <path id="패스_11031" data-name="패스 11031" class="cls-8" d="M-11.981-7.669h-3.89v1.227h3.89v7.8h1.481v-14.032h-1.481zM-20-10.144h4.917v-1.226H-21.5v9.287h1.1a31.721 31.721 0 0 0 6.365-.464l-.165-1.215a30.034 30.034 0 0 1-5.8.442zM2.66-4.508h4.188v-7.21H5.373V-9.3H-1.5v-2.414h-1.486v7.21h4.177v2.873h-5.636v1.222H8.367v-1.226H2.66zm2.713-3.6v2.4H-1.5v-2.4zm14.16 9.436h1.492v-14h-1.492zM10.2-11.166v1.182h5.149c-.293 3.265-2.1 5.79-5.829 7.558l.785 1.2c4.807-2.293 6.547-5.845 6.558-9.939zM-22.7 2h45.4v1h-45.4z" transform="translate(2394.798 -20194)"/>
                </g>
            </g>
            <path id="패스_11020" data-name="패스 11020" class="cls-3" d="M158.348 6.028h-6.041V23h5.983c5.171 0 8.3-3.2 8.3-8.5-.004-5.29-3.129-8.472-8.242-8.472zm-2.519 13.948V9.052h2.329c3.207 0 4.906 1.666 4.906 5.445 0 3.8-1.7 5.478-4.923 5.478zm18.564-9.87c-3.381 0-5.3 1.74-5.5 3.953h3.29a1.925 1.925 0 0 1 2.13-1.409c1.285 0 2.014.613 2.022 1.691v1.028c-.53.017-2.254.091-3.157.149-2.445.157-4.732 1.077-4.732 3.928 0 2.511 1.807 3.8 4.235 3.8a3.906 3.906 0 0 0 3.721-2.006h.1V23h3.29v-8.577c-.005-3.067-2.624-4.323-5.4-4.323zm-.729 10.724c-1.11 0-1.9-.506-1.9-1.492s.762-1.55 1.972-1.649c.6-.058 2.1-.141 2.611-.166v.928a2.463 2.463 0 0 1-2.684 2.378zm14.287-.456c-.713-.025-1.21-.265-1.21-1.276v-6.217h2.4v-2.61h-2.4v-3.05h-3.472v3.05h-1.749v2.61h1.749v6.688c-.017 2.478 1.691 3.6 4.21 3.6a11.971 11.971 0 0 0 1.831-.124v-2.73c-.41.025-1.02.066-1.36.058zM196.66 10.1c-3.381 0-5.3 1.74-5.5 3.953h3.29a1.925 1.925 0 0 1 2.13-1.409c1.285 0 2.014.613 2.022 1.691v1.028c-.53.017-2.254.091-3.157.149-2.445.157-4.732 1.077-4.732 3.928 0 2.511 1.807 3.8 4.235 3.8a3.906 3.906 0 0 0 3.721-2.006h.1V23h3.29v-8.577c-.004-3.067-2.623-4.323-5.399-4.323zm-.729 10.724c-1.11 0-1.9-.506-1.9-1.492s.762-1.55 1.972-1.649c.6-.058 2.1-.141 2.611-.166v.928a2.463 2.463 0 0 1-2.683 2.384zm22.3-4.218h3.669c-.05 2.138-1.5 3.5-3.9 3.5-2.71 0-4.442-2.022-4.442-5.61 0-3.564 1.782-5.577 4.4-5.577a3.488 3.488 0 0 1 3.6 2.577h3.588c-.472-3.348-3.423-5.7-7.251-5.7-4.475 0-7.914 3.232-7.914 8.735 0 5.37 3.224 8.7 7.989 8.7 4.276 0 7.334-2.71 7.334-7.169v-2.12h-7.077zm14.935-6.506c-3.381 0-5.3 1.74-5.5 3.953h3.29a1.925 1.925 0 0 1 2.13-1.409c1.285 0 2.014.613 2.022 1.691v1.028c-.53.017-2.254.091-3.157.149-2.445.157-4.732 1.077-4.732 3.928 0 2.511 1.807 3.8 4.235 3.8a3.906 3.906 0 0 0 3.721-2.006h.1V23h3.29v-8.577c-.004-3.067-2.623-4.323-5.399-4.323zm-.729 10.724c-1.11 0-1.9-.506-1.9-1.492s.762-1.55 1.972-1.649c.6-.058 2.1-.141 2.611-.166v.928a2.463 2.463 0 0 1-2.684 2.384zm12.232 6.945v-6.8h.108a3.776 3.776 0 0 0 3.622 2.238c2.909 0 5.171-2.3 5.171-6.555 0-4.359-2.354-6.547-5.171-6.547a3.753 3.753 0 0 0-3.622 2.3h-.157v-2.134h-3.42v17.5zm-.075-11.138c0-2.3.97-3.754 2.718-3.754 1.773 0 2.71 1.525 2.71 3.754 0 2.246-.953 3.8-2.71 3.8-1.732.008-2.718-1.508-2.718-3.796zM264.931 23v-7.036h6.92v-2.909h-6.92v-4.11h7.669V6.028h-11.191V23zm11.644-14.4a1.833 1.833 0 0 0 1.889-1.765 1.894 1.894 0 0 0-3.779 0 1.833 1.833 0 0 0 1.89 1.765zm1.732 14.4V10.271h-3.472V23zm2.7-16.972V23h3.472V6.028zm6.174 0V23h3.472V6.028zM295.1 8.6a1.833 1.833 0 0 0 1.889-1.765 1.894 1.894 0 0 0-3.779 0A1.833 1.833 0 0 0 295.1 8.6zm1.729 14.4V10.271h-3.472V23zM303 15.633a2.373 2.373 0 0 1 2.445-2.644 2.2 2.2 0 0 1 2.279 2.511V23h3.476v-8.1c0-2.975-1.732-4.79-4.384-4.79a3.843 3.843 0 0 0-3.829 2.4h-.149v-2.239h-3.308V23H303zm16.583 12.406c3.622 0 6.182-1.649 6.182-4.906V10.271h-3.431v2.138h-.134a3.77 3.77 0 0 0-3.638-2.3c-2.809 0-5.171 2.146-5.171 6.456 0 4.235 2.3 6.257 5.18 6.257a3.718 3.718 0 0 0 3.638-2.08h.149v2.345c0 1.765-1.077 2.445-2.693 2.445-1.376 0-2.337-.456-2.528-1.483h-3.427c.207 2.415 2.37 3.99 5.876 3.99zm.066-7.831c-1.765 0-2.718-1.4-2.718-3.613 0-2.188.936-3.713 2.718-3.713 1.732 0 2.71 1.459 2.71 3.713s-.992 3.612-2.707 3.612z" transform="translate(30 36)"/>
        </g>
        <g id="fc_box_medium_link-3" data-name="fc_box_medium_link" transform="translate(977 1587)">
            <g transform="translate(-684 -640)" style="filter:url(#box-6)">
                <g id="box-13" data-name="box" class="cls-4">
                    <path class="cls-11" d="M0 0h538v130H0z" transform="translate(684 640)"/>
                    <path class="cls-13" d="M1 1h536v128H1z" transform="translate(684 640)"/>
                </g>
            </g>
            <g id="fc_textlink-5" data-name="fc_textlink" transform="translate(386 79)">
                <g id="stack-5" data-name="stack" transform="translate(-2524.094 20210)">
                    <g id="ico_fc_go_tab-3" data-name="ico_fc_go_tab" transform="translate(2421.503 -20209)">
                        <path id="패스_7163-3" data-name="패스 7163" class="cls-7" d="m8.62 5.071 5 5-5 5" transform="translate(-2.62 -.072)"/>
                    </g>
                    <path id="패스_11023" data-name="패스 11023" class="cls-8" d="M-11.981-7.669h-3.89v1.227h3.89v7.8h1.481v-14.032h-1.481zM-20-10.144h4.917v-1.226H-21.5v9.287h1.1a31.721 31.721 0 0 0 6.365-.464l-.165-1.215a30.034 30.034 0 0 1-5.8.442zM2.66-4.508h4.188v-7.21H5.373V-9.3H-1.5v-2.414h-1.486v7.21h4.177v2.873h-5.636v1.222H8.367v-1.226H2.66zm2.713-3.6v2.4H-1.5v-2.4zm14.16 9.436h1.492v-14h-1.492zM10.2-11.166v1.182h5.149c-.293 3.265-2.1 5.79-5.829 7.558l.785 1.2c4.807-2.293 6.547-5.845 6.558-9.939zM-22.7 2h45.4v1h-45.4z" transform="translate(2394.798 -20194)"/>
                </g>
            </g>
            <path id="패스_11019" data-name="패스 11019" class="cls-3" d="M143.588 6.028h-6.041V23h5.983c5.171 0 8.3-3.2 8.3-8.5-.004-5.29-3.13-8.472-8.242-8.472zm-2.519 13.948V9.052h2.331c3.207 0 4.906 1.666 4.906 5.445 0 3.8-1.7 5.478-4.923 5.478zm18.564-9.87c-3.381 0-5.3 1.74-5.5 3.953h3.29a1.925 1.925 0 0 1 2.13-1.409c1.285 0 2.014.613 2.022 1.691v1.028c-.53.017-2.254.091-3.157.149-2.445.157-4.732 1.077-4.732 3.928 0 2.511 1.807 3.8 4.235 3.8a3.906 3.906 0 0 0 3.721-2.006h.1V23h3.29v-8.577c-.004-3.067-2.623-4.323-5.399-4.323zm-.733 10.723c-1.11 0-1.9-.506-1.9-1.492s.762-1.55 1.972-1.649c.6-.058 2.1-.141 2.611-.166v.928a2.463 2.463 0 0 1-2.683 2.379zm14.287-.456c-.713-.025-1.21-.265-1.21-1.276v-6.216h2.4v-2.61h-2.4v-3.05h-3.472v3.05h-1.745v2.61h1.749v6.688c-.017 2.478 1.691 3.6 4.21 3.6a11.971 11.971 0 0 0 1.831-.124v-2.73c-.415.025-1.02.066-1.359.058zM181.9 10.1c-3.381 0-5.3 1.74-5.5 3.953h3.29a1.925 1.925 0 0 1 2.13-1.409c1.285 0 2.014.613 2.022 1.691v1.028c-.53.017-2.254.091-3.157.149-2.445.157-4.732 1.077-4.732 3.928 0 2.511 1.807 3.8 4.235 3.8a3.906 3.906 0 0 0 3.721-2.006h.1V23h3.29v-8.577c.001-3.067-2.622-4.323-5.399-4.323zm-.729 10.724c-1.11 0-1.9-.506-1.9-1.492s.762-1.55 1.972-1.649c.6-.058 2.1-.141 2.611-.166v.928a2.463 2.463 0 0 1-2.683 2.384zm22.3-4.218h3.671c-.05 2.138-1.5 3.5-3.9 3.5-2.71 0-4.442-2.022-4.442-5.61 0-3.564 1.782-5.577 4.4-5.577a3.488 3.488 0 0 1 3.6 2.577h3.588c-.472-3.348-3.423-5.7-7.251-5.7-4.475 0-7.914 3.232-7.914 8.735 0 5.37 3.224 8.7 7.989 8.7 4.276 0 7.334-2.71 7.334-7.169v-2.12h-7.077zm14.935-6.506c-3.381 0-5.3 1.74-5.5 3.953h3.29a1.925 1.925 0 0 1 2.13-1.409c1.285 0 2.014.613 2.022 1.691v1.028c-.53.017-2.254.091-3.157.149-2.445.157-4.732 1.077-4.732 3.928 0 2.511 1.807 3.8 4.235 3.8a3.906 3.906 0 0 0 3.721-2.006h.1V23h3.29v-8.577c-.005-3.067-2.623-4.323-5.399-4.323zm-.729 10.724c-1.11 0-1.9-.506-1.9-1.492s.762-1.55 1.972-1.649c.6-.058 2.1-.141 2.611-.166v.928a2.463 2.463 0 0 1-2.683 2.384zm12.232 6.945v-6.8h.108a3.776 3.776 0 0 0 3.622 2.238c2.909 0 5.171-2.3 5.171-6.555 0-4.359-2.354-6.547-5.171-6.547a3.753 3.753 0 0 0-3.622 2.3h-.157v-2.134h-3.423v17.5zm-.075-11.138c0-2.3.97-3.754 2.718-3.754 1.773 0 2.71 1.525 2.71 3.754 0 2.246-.953 3.8-2.71 3.8-1.732.008-2.718-1.508-2.718-3.796zM261.964 23 256.1 6.028h-4.533L245.7 23h3.779l1.276-3.912h6.157L258.185 23zm-8.2-13.144h.133l2.113 6.472h-4.359zm13.508 5.776a2.373 2.373 0 0 1 2.445-2.644 2.2 2.2 0 0 1 2.279 2.511V23h3.472v-8.1c0-2.975-1.732-4.79-4.384-4.79a3.843 3.843 0 0 0-3.829 2.4h-.155v-2.239h-3.3V23h3.472zm16.214-5.532c-3.381 0-5.3 1.74-5.5 3.953h3.29a1.925 1.925 0 0 1 2.13-1.409c1.285 0 2.014.613 2.022 1.691v1.028c-.53.017-2.254.091-3.157.149-2.445.157-4.732 1.077-4.732 3.928 0 2.511 1.807 3.8 4.235 3.8a3.906 3.906 0 0 0 3.721-2.006h.1V23h3.29v-8.577c-.004-3.067-2.623-4.323-5.399-4.323zm-.729 10.724c-1.111 0-1.9-.506-1.9-1.492s.762-1.55 1.972-1.649c.6-.058 2.1-.141 2.611-.166v.928a2.463 2.463 0 0 1-2.683 2.384zm8.76-14.8V23h3.472V6.028zm8.221 21.746a4.6 4.6 0 0 0 4.8-3.373l4.964-14.13h-3.671l-2.693 9.381H303l-2.669-9.381h-3.651l4.575 13.086-.2.539a1.481 1.481 0 0 1-1.674 1.16c-.431 0-.961-.008-1.4-.041l-.008 2.7a19.25 19.25 0 0 0 1.765.062zm21.978-13.715c-.182-2.428-2.171-3.953-5.4-3.953-3.273 0-5.37 1.525-5.362 3.97-.008 1.881 1.235 3.133 3.671 3.613l2.1.414c1.193.249 1.724.655 1.732 1.318-.008.82-.845 1.318-2.1 1.318-1.285 0-2.088-.514-2.262-1.508h-3.481c.282 2.486 2.3 4.019 5.743 4.019 3.381 0 5.627-1.674 5.635-4.177-.008-1.84-1.2-2.942-3.663-3.448l-2.3-.464c-1.193-.257-1.641-.7-1.633-1.285-.008-.762.845-1.293 1.972-1.293a1.887 1.887 0 0 1 2.088 1.475zm4.151-5.455a1.833 1.833 0 0 0 1.889-1.765 1.894 1.894 0 0 0-3.779 0 1.833 1.833 0 0 0 1.89 1.765zM327.6 23V10.271h-3.472V23zm13.226-8.942c-.182-2.428-2.171-3.953-5.4-3.953-3.273 0-5.37 1.525-5.362 3.97-.008 1.881 1.235 3.133 3.671 3.613l2.1.414c1.193.249 1.724.655 1.732 1.318-.008.82-.845 1.318-2.1 1.318-1.285 0-2.088-.514-2.262-1.508h-3.481c.282 2.486 2.3 4.019 5.743 4.019 3.381 0 5.627-1.674 5.635-4.177-.008-1.84-1.2-2.942-3.663-3.448l-2.3-.464c-1.193-.257-1.641-.7-1.633-1.285-.008-.762.845-1.293 1.972-1.293a1.887 1.887 0 0 1 2.088 1.475z" transform="translate(30 36)"/>
        </g>
        <g id="fc_box_medium" transform="translate(407 1947)">
            <g transform="translate(-114 -1000)" style="filter:url(#box-7)">
                <g id="box-14" data-name="box" class="cls-4">
                    <path class="cls-11" d="M0 0h538v130H0z" transform="translate(114 1000)"/>
                    <path class="cls-13" d="M1 1h536v128H1z" transform="translate(114 1000)"/>
                </g>
            </g>
            <path id="패스_11022" data-name="패스 11022" class="cls-3" d="M191.389 12.111a7.846 7.846 0 0 0 5.072 3.7l1.376-2.3c-3.4-.912-4.923-3.05-4.989-5.2h4.293v-2.35h-4.26V3.74h-3.017v2.221h-4.293v2.354h4.293c-.058 2.354-1.657 4.641-5.047 5.569l1.417 2.3a7.817 7.817 0 0 0 5.155-4.073zm10.525-3.273V3.815h-3v12.514h3v-5.047h2.867V8.837zm0 16.086v-7.709h-13.947v7.707zm-2.959-5.354v2.959h-8.039v-2.96zm8.751-3.133c3.68-.671 6.414-2.552 7.765-5.13 1.376 2.528 4.144 4.351 7.881 5.006l1.185-2.362c-4.575-.671-7.235-3.265-7.492-6.083h6.5v-2.42h-16.178v2.42h6.489c-.257 2.826-2.9 5.494-7.326 6.207zm9.273-.945h-3v4.757h-8.238v2.428h19.508v-2.428h-8.271zm20.536 2.055h4.169v2.362h3.05V3.848h-3.05V15.2h-4.169zm-5.215 1.011h2.7v-4.566c1.79-.141 3.613-.348 5.37-.663l-.2-2.122c-.671.091-1.367.174-2.064.24a35.055 35.055 0 0 0 .423-5.76v-.8h-10.244v2.37h7.251a39.142 39.142 0 0 1-.414 4.417c-3.124.182-6.24.215-8.768.24l.365 2.354c1.6 0 3.414-.025 5.32-.108v4.1h-2.727v6.53h15.9v-2.412H232.3zm37.1-4.409a37.059 37.059 0 0 0 .555-7.16V5.075h-14.944v2.378h11.967a33.376 33.376 0 0 1-.6 6.7h-13.6v2.412h8.122v8.615h3.017v-8.619h8.32v-2.412zm19.757-2.18h-1.923V4.146h-2.826v20.03h2.826v-9.77h1.923v10.757h2.859V3.815h-2.859zm-6.539 7.823V6.036h-8.488v13.757zm-2.793-11.4v9.058h-2.892V8.39z" transform="translate(30 50)"/>
        </g>
    </g>
    <g id="fc_line" transform="translate(-293 -947)">
        <path id="세로" class="cls-9" transform="translate(1246 1717)" d="M0 0h1v50H0z"/>
        <path id="세로-2" data-name="세로" class="cls-9" transform="translate(961 1487)" d="M0 0h1v50H0z"/>
        <path id="사각형_514" data-name="사각형 514" class="cls-9" transform="translate(675 1537)" d="M0 0h572v1H0z"/>
        <path id="세로-3" data-name="세로" class="cls-9" transform="translate(675 1538)" d="M0 0h1v50H0z"/>
        <path id="세로-4" data-name="세로" class="cls-9" transform="translate(1246 1538)" d="M0 0h1v49H0z"/>
        <path id="세로-5" data-name="세로" class="cls-9" transform="translate(961 1177)" d="M0 0h1v50H0z"/>
        <path id="세로-6" data-name="세로" class="cls-9" transform="translate(1246 1897)" d="M0 0h1v50H0z"/>
        <path id="세로-7" data-name="세로" class="cls-9" transform="translate(675 1588)" d="M0 0h1v359H0z"/>
        <path id="세로-8" data-name="세로" class="cls-9" transform="translate(961 2256)" d="M0 0h1v50H0z"/>
        <path id="세로-9" data-name="세로" class="cls-9" transform="translate(961 2436)" d="M0 0h1v50H0z"/>
        <path id="세로-10" data-name="세로" class="cls-9" transform="translate(1246 2076)" d="M0 0h1v50H0z"/>
        <path id="세로-11" data-name="세로" class="cls-9" transform="translate(961 2616)" d="M0 0h1v50H0z"/>
        <path id="세로-12" data-name="세로" class="cls-9" transform="translate(675 2076)" d="M0 0h1v50H0z"/>
        <path id="패스_7154" data-name="패스 7154" d="M1527.279 2910.74h57v-180h-57" transform="translate(-12.279 -538.74)" style="fill:none;stroke:#999"/>
        <path id="다각형_140" data-name="다각형 140" class="cls-9" d="M7.5 0 15 11H0z" transform="rotate(180 484.5 1156.5)"/>
        <path id="다각형_153" data-name="다각형 153" class="cls-9" d="M7.5 0 15 11H0z" transform="rotate(180 484.5 1246.5)"/>
        <path id="다각형_154" data-name="다각형 154" class="cls-9" d="M7.5 0 15 11H0z" transform="rotate(180 484.5 1336.5)"/>
        <path id="다각형_155" data-name="다각형 155" class="cls-9" d="M7.5 0 15 11H0z" transform="rotate(180 627 1066.5)"/>
        <path id="다각형_162" data-name="다각형 162" class="cls-9" d="M7.5 0 15 11H0z" transform="rotate(180 341.5 1066.5)"/>
        <path id="다각형_156" data-name="다각형 156" class="cls-9" d="M7.5 0 15 11H0z" transform="rotate(180 627 976.5)"/>
        <path id="다각형_159" data-name="다각형 159" class="cls-9" d="M7.5 0 15 11H0z" transform="rotate(180 341.5 976.5)"/>
        <path id="다각형_157" data-name="다각형 157" class="cls-9" d="M7.5 0 15 11H0z" transform="rotate(180 627 886.5)"/>
        <path id="다각형_158" data-name="다각형 158" class="cls-9" d="M7.5 0 15 11H0z" transform="rotate(180 627 796.5)"/>
        <path id="다각형_160" data-name="다각형 160" class="cls-9" d="M7.5 0 15 11H0z" transform="rotate(180 484.5 617)"/>
        <path id="다각형_161" data-name="다각형 161" class="cls-9" d="M7.5 0 15 11H0z" transform="rotate(-90 1854.5 345.5)"/>
    </g>
    <g id="fc_yes" transform="translate(755 918)">
        <g id="fc_yes-2" data-name="fc_yes" transform="translate(481.71 406.232)">
            <path id="사각형_515" data-name="사각형 515" class="cls-1" d="M0 0h85.315v21.945H0z"/>
            <path id="패스_11027" data-name="패스 11027" class="cls-3" d="M-25.191-11.315v7.182h-.1l-4.934-7.182h-2.065V0h2.348v-7.188h.083L-24.887 0h2.033v-11.315zm4.249 0V0h2.348v-11.315zM-9.069 0v-1.945h-5.265v-2.746h4.851V-6.63h-4.851v-2.74h5.243v-1.945h-7.591V0zm10.7 0L-.782-4.4a3.257 3.257 0 0 0 2-3.227c0-2.232-1.475-3.685-4.05-3.685h-4.43V0h2.348v-4.022h1.79L-.975 0zm-4.9-9.387c1.4 0 2.072.624 2.072 1.757s-.673 1.707-2.065 1.707h-1.652v-3.464zm16.73 4.917h4.1v-7.409h-1.984v2.215h-6.2v-2.215h-2v7.409h4.11v2.635H6v1.62h13.008v-1.619h-5.547zm2.116-3.613v2.022h-6.2v-2.022zM31.2-12.768h-1.993v10.851H31.2v-4.718h1.823v-1.658H31.2zm-2.79 6.956a42.303 42.303 0 0 1-3.271.32v-1.044A2.929 2.929 0 0 0 27.7-9.309c-.011-1.718-1.508-2.89-3.586-2.89s-3.586 1.171-3.575 2.89a2.9 2.9 0 0 0 2.6 2.785V-5.4c-1.21.039-2.359.044-3.348.044L20-3.779a50.362 50.362 0 0 0 8.558-.586zm-6.022-3.5c-.011-.89.713-1.381 1.724-1.387s1.707.5 1.713 1.387c-.006.862-.691 1.37-1.713 1.37s-1.734-.506-1.722-1.367zm-.718 6.436v4.05h10.023v-1.6h-8.011v-2.447z" transform="translate(42.29 16.768)"/>
        </g>
    </g>
    <g id="fc_yes-3" data-name="fc_yes" transform="translate(287 180)">
        <g id="fc_yes-4" data-name="fc_yes" transform="translate(494.381 399.21)">
            <path id="사각형_515-2" data-name="사각형 515" class="cls-1" d="M0 0h59.95v22.265H0z"/>
            <path id="패스_11018" data-name="패스 11018" class="cls-3" d="M-10.442-12.79V1.475h2.017V-12.79zm-9.177 1.3v9.54h6.867v-9.541zm4.934 1.552v6.408h-2.95v-6.409zm11.751 1.076V-10.8h7.879v-1.6h-9.868v5.122h9.94v-1.584zm-3.558 4.2H6.5v-1.62H-6.492zm6.459.862c-3.1 0-4.978.939-4.978 2.608 0 1.685 1.873 2.635 4.978 2.63 3.088.006 4.945-.945 4.956-2.63C4.912-2.862 3.055-3.8-.033-3.8zm0 3.724C-2-.083-2.989-.436-2.978-1.193-2.989-1.912-2-2.282-.033-2.287c1.934.006 2.95.376 2.956 1.094C2.917-.436 1.9-.083-.033-.077zm14.851-6.11h4.2v-1.53h-8.09v-.945h7.834v-3.845H8.923v1.541h7.84v.867H8.945v3.912h3.9v1.033H7.326v1.591h13.005v-1.593h-5.513zm2.011 5v2.562h2.011v-4.133H8.779v1.569z" transform="translate(29.619 16.79)"/>
        </g>
    </g>
    <g id="fc_yes-5" data-name="fc_yes" transform="translate(1 180)">
        <g id="fc_yes-6" data-name="fc_yes" transform="translate(493.718 399.21)">
            <path id="사각형_515-3" data-name="사각형 515" class="cls-1" d="M0 0h60.613v22.232H0z"/>
            <path id="패스_11017" data-name="패스 11017" class="cls-3" d="M-10.4 1.442h2.017V-12.79H-10.4zm-9.122-12.735v1.564h4.845c-.32 3.16-1.939 5.4-5.608 7.144L-19.243-1c5.083-2.4 6.6-5.983 6.6-10.293zm16.588 2.431V-10.8h7.879v-1.6h-9.868v5.122h9.94v-1.584zm-3.558 4.2H6.5v-1.62H-6.492zm6.459.862c-3.1 0-4.978.939-4.978 2.608 0 1.685 1.873 2.635 4.978 2.63 3.088.006 4.945-.945 4.956-2.63C4.912-2.862 3.055-3.8-.033-3.8zm0 3.724C-2-.083-2.989-.436-2.978-1.193-2.989-1.912-2-2.282-.033-2.287c1.934.006 2.95.376 2.956 1.094C2.917-.436 1.9-.083-.033-.077zm14.851-6.11h4.2v-1.53h-8.09v-.945h7.834v-3.845H8.923v1.541h7.84v.867H8.945v3.912h3.9v1.033H7.326v1.591h13.005v-1.593h-5.513zm2.011 5v2.562h2.011v-4.133H8.779v1.569z" transform="translate(30.282 16.79)"/>
        </g>
    </g>
</svg>
