<svg id="flow_chart_6_1" xmlns="http://www.w3.org/2000/svg" width="1336" height="1587" viewBox="0 0 1336 1587">
    <defs>
        <filter id="box" x="675" y="325" width="271" height="148" filterUnits="userSpaceOnUse">
            <feOffset dy="3"/>
            <feGaussianBlur stdDeviation="3" result="blur"/>
            <feFlood flood-color="#111" flood-opacity=".102"/>
            <feComposite operator="in" in2="blur"/>
            <feComposite in="SourceGraphic"/>
        </filter>
        <filter id="box-2" x="960" y="325" width="271" height="148" filterUnits="userSpaceOnUse">
            <feOffset dy="3"/>
            <feGaussianBlur stdDeviation="3" result="blur-2"/>
            <feFlood flood-color="#111" flood-opacity=".102"/>
            <feComposite operator="in" in2="blur-2"/>
            <feComposite in="SourceGraphic"/>
        </filter>
        <filter id="box-3" x="105" y="94" width="556" height="148" filterUnits="userSpaceOnUse">
            <feOffset dy="3"/>
            <feGaussianBlur stdDeviation="3" result="blur-3"/>
            <feFlood flood-color="#111" flood-opacity=".102"/>
            <feComposite operator="in" in2="blur-3"/>
            <feComposite in="SourceGraphic"/>
        </filter>
        <filter id="box-4" x="675" y="94" width="556" height="148" filterUnits="userSpaceOnUse">
            <feOffset dy="3"/>
            <feGaussianBlur stdDeviation="3" result="blur-4"/>
            <feFlood flood-color="#111" flood-opacity=".102"/>
            <feComposite operator="in" in2="blur-4"/>
            <feComposite in="SourceGraphic"/>
        </filter>
        <filter id="다각형_3" x="105" y="274" width="556" height="278" filterUnits="userSpaceOnUse">
            <feOffset dy="3"/>
            <feGaussianBlur stdDeviation="3" result="blur-5"/>
            <feFlood flood-color="#111" flood-opacity=".102"/>
            <feComposite operator="in" in2="blur-5"/>
            <feComposite in="SourceGraphic"/>
        </filter>
        <filter id="box-5" x="390" y="634" width="271" height="148" filterUnits="userSpaceOnUse">
            <feOffset dy="3"/>
            <feGaussianBlur stdDeviation="3" result="blur-6"/>
            <feFlood flood-color="#111" flood-opacity=".102"/>
            <feComposite operator="in" in2="blur-6"/>
            <feComposite in="SourceGraphic"/>
        </filter>
        <filter id="box-6" x="105" y="1351" width="271" height="148" filterUnits="userSpaceOnUse">
            <feOffset dy="3"/>
            <feGaussianBlur stdDeviation="3" result="blur-7"/>
            <feFlood flood-color="#111" flood-opacity=".102"/>
            <feComposite operator="in" in2="blur-7"/>
            <feComposite in="SourceGraphic"/>
        </filter>
        <filter id="box-7" x="960" y="1351" width="271" height="148" filterUnits="userSpaceOnUse">
            <feOffset dy="3"/>
            <feGaussianBlur stdDeviation="3" result="blur-8"/>
            <feFlood flood-color="#111" flood-opacity=".102"/>
            <feComposite operator="in" in2="blur-8"/>
            <feComposite in="SourceGraphic"/>
        </filter>
        <filter id="box-8" x="390" y="1351" width="556" height="148" filterUnits="userSpaceOnUse">
            <feOffset dy="3"/>
            <feGaussianBlur stdDeviation="3" result="blur-9"/>
            <feFlood flood-color="#111" flood-opacity=".102"/>
            <feComposite operator="in" in2="blur-9"/>
            <feComposite in="SourceGraphic"/>
        </filter>
        <filter id="box-9" x="105" y="1172" width="841" height="148" filterUnits="userSpaceOnUse">
            <feOffset dy="3"/>
            <feGaussianBlur stdDeviation="3" result="blur-10"/>
            <feFlood flood-color="#111" flood-opacity=".102"/>
            <feComposite operator="in" in2="blur-10"/>
            <feComposite in="SourceGraphic"/>
        </filter>
        <filter id="box-10" x="105" y="634" width="271" height="148" filterUnits="userSpaceOnUse">
            <feOffset dy="3"/>
            <feGaussianBlur stdDeviation="3" result="blur-11"/>
            <feFlood flood-color="#111" flood-opacity=".102"/>
            <feComposite operator="in" in2="blur-11"/>
            <feComposite in="SourceGraphic"/>
        </filter>
        <filter id="box-11" x="105" y="814" width="271" height="148" filterUnits="userSpaceOnUse">
            <feOffset dy="3"/>
            <feGaussianBlur stdDeviation="3" result="blur-12"/>
            <feFlood flood-color="#111" flood-opacity=".102"/>
            <feComposite operator="in" in2="blur-12"/>
            <feComposite in="SourceGraphic"/>
        </filter>
        <filter id="box-12" x="105" y="994" width="556" height="148" filterUnits="userSpaceOnUse">
            <feOffset dy="3"/>
            <feGaussianBlur stdDeviation="3" result="blur-13"/>
            <feFlood flood-color="#111" flood-opacity=".102"/>
            <feComposite operator="in" in2="blur-13"/>
            <feComposite in="SourceGraphic"/>
        </filter>
        <style>
            .cls-1{fill:#f8f8f8}.cls-2{fill:#fff;stroke:#999;stroke-width:2px}.cls-3{fill:#333}.cls-11,.cls-7{fill:none}.cls-7{stroke:#326f5e;stroke-width:1.5px}.cls-9{fill:#999}.cls-10{stroke:none}
        </style>
    </defs>
    <g id="수정flow_chart_6_1" transform="translate(-292 -1278)">
        <path id="bg" class="cls-1" d="M0 0h1336v1587H0z" transform="translate(292 1278)"/>
        <g id="fc_box_smaller_color" transform="translate(976 1609)">
            <g transform="translate(-684 -331)" style="filter:url(#box)">
                <g id="box-13" data-name="box" class="cls-2">
                    <path class="cls-10" d="M0 0h253v130H0z" transform="translate(684 331)"/>
                    <path class="cls-11" d="M1 1h251v128H1z" transform="translate(684 331)"/>
                </g>
            </g>
            <path id="패스_11347" data-name="패스 11347" class="cls-3" d="M76.4 9.925h-2.29a23.385 23.385 0 0 0 .366-4.731v-1.4H62.128v1.988h9.855a21.161 21.161 0 0 1-.38 4.144H60.14v2h6.844v2.544h-5.215v1.954h10.214V20.8h2.5v-6.33h-5v-2.549H76.4zm14.05-.117h-1.6V3.289h-2.357v16.692h2.355v-8.143h1.6V20.8h2.383V3.012H90.45zM85 16.327V4.863h-7.07v11.464zm-2.327-9.5v7.548h-2.41v-7.55zm30.768-3.787h-2.5v13.087h2.5V10.1h2.389V8.04h-2.389zm-3.522 8.184q-1 .124-2.072.207V6.493h1.45V4.511h-9.586v1.982h1.457v5.221c-.677.007-1.326.014-1.934.014l.269 2a64.507 64.507 0 0 0 10.6-.67zm-4.469-4.731v5.1c-.635.028-1.264.055-1.885.069V6.493zm-3.543 8.391v5.608h12.168v-2.01h-9.682v-3.6zm27.742-5.076h-1.6V3.289h-2.355v16.692h2.355v-8.143h1.6V20.8h2.383V3.012h-2.383zm-5.449 6.519V4.863h-7.072v11.464zm-2.327-9.5v7.548h-2.41v-7.55z" transform="translate(30 53)"/>
        </g>
        <g id="fc_box_smaller_color-2" data-name="fc_box_smaller_color" transform="translate(1261 1609)">
            <g transform="translate(-969 -331)" style="filter:url(#box-2)">
                <g id="box-14" data-name="box" class="cls-2">
                    <path class="cls-10" d="M0 0h253v130H0z" transform="translate(969 331)"/>
                    <path class="cls-11" d="M1 1h251v128H1z" transform="translate(969 331)"/>
                </g>
            </g>
            <path id="패스_11348" data-name="패스 11348" class="cls-3" d="M73.144 10.257H71.7V3.365h-2.334v16.671H71.7v-7.79h1.443V20.8h2.369V3.012h-2.368zm-9.931-6.74v2.216H60.1v1.982h8.6V5.733h-3.036V3.517zm1.236 5a3.921 3.921 0 0 0-3.916 4.206 3.922 3.922 0 1 0 7.818 0 3.914 3.914 0 0 0-3.902-4.206zm0 6.34c-1.029.007-1.733-.773-1.727-2.134-.007-1.333.7-2.141 1.727-2.141 1 0 1.706.808 1.713 2.141-.007 1.36-.712 2.14-1.713 2.133zm25.435 5.988h2.479V3.012h-2.479zm-5.463-8.185a4.312 4.312 0 0 0 3.695-4.227c-.016-2.548-2.106-4.35-4.938-4.357-2.8.007-4.938 1.809-4.931 4.358a4.311 4.311 0 0 0 3.688 4.227v2.5c-1.6.048-3.115.055-4.427.055l.283 2.01a61.266 61.266 0 0 0 11.271-.787l-.186-1.8c-1.436.2-2.949.331-4.454.414zm-3.7-4.227a2.208 2.208 0 0 1 2.459-2.217 2.232 2.232 0 1 1-2.46 2.218zm26.733-.9A8.813 8.813 0 0 0 114 11.341l.974-2.01c-4.068-.5-6.209-2.825-6.209-4.924v-.863h-2.617v.863c-.007 2.1-2.141 4.42-6.181 4.924l.981 2.01a8.777 8.777 0 0 0 6.505-3.812zm-8.115 5.159v2.03h6.823V20.8h2.465v-6.082h6.927v-2.03zm18.646-2.569c3.322-.173 5.608-1.008 6.727-2.341 1.126 1.333 3.419 2.169 6.713 2.341l.732-1.837c-3.591-.152-5.4-1-5.9-2.03h5.021V4.407h-5.325v-1.4h-2.472v1.4h-5.29v1.844h4.979c-.518 1.029-2.32 1.878-5.863 2.03zm14.82.477h-16.139v1.816h6.823v1.114H118.5v1.782h9.9v.888h-9.889v4.482h12.811v-1.841h-10.361v-.974h9.9V13.53h-4.91v-1.118h6.851z" transform="translate(30 53)"/>
        </g>
        <g id="fc_box_medium" transform="translate(406 1378)">
            <g transform="translate(-114 -100)" style="filter:url(#box-3)">
                <g id="box-15" data-name="box" class="cls-2">
                    <path class="cls-10" d="M0 0h538v130H0z" transform="translate(114 100)"/>
                    <path class="cls-11" d="M1 1h536v128H1z" transform="translate(114 100)"/>
                </g>
            </g>
            <path id="패스_11344" data-name="패스 11344" class="cls-3" d="M173.978 9.235c1.392 2.312 4.127 4.044 7.856 4.575L183 11.4c-4.881-.6-7.45-3.39-7.45-5.909V4.453h-3.141v1.036c-.008 2.519-2.569 5.3-7.417 5.909l1.177 2.412c3.698-.531 6.417-2.263 7.809-4.575zm-9.738 6.191v2.436h8.188v7.3h2.959v-7.3h8.313v-2.437zm35.6-11.61v11.477h3V3.815zm-8.693.9c-3.331-.008-5.843 2.072-5.834 5.064-.008 2.917 2.5 5 5.834 5s5.826-2.08 5.826-5c.002-2.998-2.501-5.08-5.824-5.07zm0 2.494a2.578 2.578 0 0 1 2.876 2.569c0 1.591-1.21 2.536-2.876 2.544-1.707-.008-2.925-.953-2.909-2.544-.014-1.605 1.204-2.579 2.911-2.579zm-2.569 9.025v8.693h14.262v-8.699h-2.983v1.981h-8.337v-1.981zm2.942 4.3h8.337V22.5h-8.337zm29.1-16.715v16.056h3.033V3.815zm-1.32 10.735a82.432 82.432 0 0 1-4.948.356v-2.154h3.829v-2.379h-7.541V7.511H218v-2.4h-10.359v7.641h3.729v2.254c-1.939.05-3.829.058-5.536.066l.39 2.362a98.856 98.856 0 0 0 13.293-.738zm-7.152 4.119h-3.025v6.116h15.117v-2.412h-12.091zm36.938-6.174V3.815h-3.017v21.348h3.017V14.978h2.785V12.5zm-9.05-6.3V3.939h-3.008V6.2h-4.84v2.347h12.655V6.2zm0 11.064c2.254-.431 3.754-1.89 3.771-3.862-.017-2.4-2.2-4.019-5.246-4.019-3.108 0-5.262 1.624-5.254 4.019-.008 1.964 1.459 3.414 3.721 3.854V19.1c-1.89.041-3.7.041-5.254.041l.4 2.436a72.853 72.853 0 0 0 13.036-.87l-.2-2.171c-1.591.224-3.282.356-4.972.448zm-3.887-3.864c-.008-1.11.953-1.74 2.412-1.74 1.417 0 2.37.63 2.37 1.74s-.953 1.724-2.37 1.724c-1.461.003-2.42-.602-2.412-1.724zM260.6 5.738V3.715h-2.983v2.023h-4.848v2.345h12.663V5.738zm9.1 3.63V3.815h-3v13.392h3V11.8h2.867V9.367zm-5.345 3.34c0-2.345-2.155-3.928-5.246-3.936-3.1.008-5.3 1.591-5.3 3.936-.008 2.345 2.2 3.928 5.3 3.928s5.25-1.584 5.25-3.929zm-7.633 0c0-1.094.953-1.682 2.387-1.691 1.425.008 2.4.6 2.412 1.691-.008 1.086-.986 1.649-2.412 1.649s-2.382-.564-2.382-1.65zm9.978 7.782v4.674h3V18.1h-14.357v2.387zm9.232-16.036v6.721h14.586V4.453zm2.934 4.409v-2.1h8.66v2.1zm14.126 3.437h-19.459v2.345h8.188v1.367h-5.942v2.254h11.884v1.1H275.8v5.644h15.373v-2.25h-12.444v-1.285h11.884v-5.461h-5.892v-1.368h8.271zm16.144-8.486v10.957h2.964V3.815zm-8.006 6.812a7.983 7.983 0 0 0 5.155 3.936l1.417-2.3c-3.273-.854-4.881-2.934-5.088-5.064h4.268V4.809h-11.727V7.2h4.384c-.215 2.287-1.848 4.525-5.163 5.453L295.735 15a8.2 8.2 0 0 0 5.395-4.373zm-.34 10.691h11.345v-5.693h-14.312v2.262h11.329v1.294h-11.279v5.834h14.843v-2.3H300.79z" transform="translate(30 50)"/>
        </g>
        <g id="fc_box_medium-2" data-name="fc_box_medium" transform="translate(976 1378)">
            <g transform="translate(-684 -100)" style="filter:url(#box-4)">
                <g id="box-16" data-name="box" class="cls-2">
                    <path class="cls-10" d="M0 0h538v130H0z" transform="translate(684 100)"/>
                    <path class="cls-11" d="M1 1h536v128H1z" transform="translate(684 100)"/>
                </g>
            </g>
            <path id="패스_11345" data-name="패스 11345" class="cls-3" d="M179.845 25.163h2.826V3.815h-2.826zM172.7 11.141v2.4h2.809v10.628h2.8v-20h-2.8v6.97zM170.986 8.4h3.232V6H164.6v2.4h3.5v1.133c0 3.63-1.169 7.459-4.309 9.4l1.807 2.2a9.93 9.93 0 0 0 3.978-5.809 9.022 9.022 0 0 0 3.878 5.32l1.749-2.2c-3.116-1.782-4.227-5.362-4.218-8.917zm15.97 8.039c3.68-.671 6.414-2.552 7.765-5.13 1.376 2.528 4.144 4.351 7.881 5.006l1.185-2.362c-4.575-.671-7.235-3.265-7.492-6.083h6.5V5.448h-16.179v2.42h6.484c-.257 2.826-2.9 5.494-7.326 6.207zm9.273-.945h-3v4.757h-8.238v2.428H204.5v-2.43h-8.271zm24.4-11.677v16.059h3.033V3.815zM219.3 14.555a82.432 82.432 0 0 1-4.948.356v-2.154h3.829v-2.379h-7.541V7.511H218v-2.4h-10.359v7.641h3.729v2.254c-1.939.05-3.829.058-5.536.066l.39 2.362a98.856 98.856 0 0 0 13.293-.738zm-7.152 4.119h-3.025v6.116h15.117v-2.412h-12.091zm36.938-6.174V3.815h-3.017v21.348h3.017V14.978h2.785V12.5zm-9.05-6.3V3.939h-3.008V6.2h-4.84v2.347h12.655V6.2zm0 11.064c2.254-.431 3.754-1.89 3.771-3.862-.017-2.4-2.2-4.019-5.246-4.019-3.108 0-5.262 1.624-5.254 4.019-.008 1.964 1.459 3.414 3.721 3.854V19.1c-1.89.041-3.7.041-5.254.041l.4 2.436a72.853 72.853 0 0 0 13.036-.87l-.2-2.171c-1.591.224-3.282.356-4.972.448zm-3.887-3.864c-.008-1.11.953-1.74 2.412-1.74 1.417 0 2.37.63 2.37 1.74s-.953 1.724-2.37 1.724c-1.461.003-2.42-.602-2.412-1.724zM260.6 5.738V3.715h-2.983v2.023h-4.848v2.345h12.663V5.738zm9.1 3.63V3.815h-3v13.392h3V11.8h2.867V9.367zm-5.345 3.34c0-2.345-2.155-3.928-5.246-3.936-3.1.008-5.3 1.591-5.3 3.936-.008 2.345 2.2 3.928 5.3 3.928s5.25-1.584 5.25-3.929zm-7.633 0c0-1.094.953-1.682 2.387-1.691 1.425.008 2.4.6 2.412 1.691-.008 1.086-.986 1.649-2.412 1.649s-2.382-.564-2.382-1.65zm9.978 7.782v4.674h3V18.1h-14.357v2.387zm9.232-16.036v6.721h14.586V4.453zm2.934 4.409v-2.1h8.66v2.1zm14.126 3.437h-19.459v2.345h8.188v1.367h-5.942v2.254h11.884v1.1H275.8v5.644h15.373v-2.25h-12.444v-1.285h11.884v-5.461h-5.892v-1.368h8.271zm16.144-8.486v10.957h2.964V3.815zm-8.006 6.812a7.983 7.983 0 0 0 5.155 3.936l1.417-2.3c-3.273-.854-4.881-2.934-5.088-5.064h4.268V4.809h-11.727V7.2h4.384c-.215 2.287-1.848 4.525-5.163 5.453L295.735 15a8.2 8.2 0 0 0 5.395-4.373zm-.34 10.691h11.345v-5.693h-14.312v2.262h11.329v1.294h-11.279v5.834h14.843v-2.3H300.79z" transform="translate(30 50)"/>
        </g>
        <g id="fc_diamond_long" transform="translate(406 1558)">
            <g transform="translate(-114 -280)" style="filter:url(#다각형_3)">
                <g id="다각형_3-2" data-name="다각형 3" style="fill:#fff">
                    <path class="cls-10" d="M269 258.89 2.298 130 269 1.11 535.702 130 269 258.89z" transform="translate(114 280)"/>
                    <path d="M269 2.221 4.596 130 269 257.779 533.404 130 269 2.221M269 0l269 130-269 130L0 130 269 0z" style="fill:#999;stroke:none" transform="translate(114 280)"/>
                </g>
            </g>
            <path id="패스_11346" data-name="패스 11346" d="M54.292 8.926a14.792 14.792 0 0 0 .46-4.276V3.338H43.583V5.1H52.5a14.151 14.151 0 0 1-.41 3.617zm-4.68-1.97h-2.219v2.809h-5.445v1.809h14.525V9.765h-6.861zm-.491 5.625c-3.468.006-5.706 1.113-5.706 3.027 0 1.89 2.238 3.015 5.706 3.008 3.493.006 5.7-1.119 5.712-3.008-.013-1.915-2.219-3.021-5.712-3.027zm0 4.332c-2.2-.006-3.468-.435-3.456-1.305-.012-.883 1.256-1.355 3.456-1.355s3.481.472 3.487 1.355-1.287 1.299-3.487 1.305zM70 8.883a19.247 19.247 0 0 0 .379-4.332V3.264H59.27v1.8h8.876a19.42 19.42 0 0 1-.367 3.823H57.48v1.784h14.632V8.883zm-8.571 4.55v-1.71h-2.202v6.719h11.088v-6.719H68.1v1.709zm0 3.195v-1.486H68.1v1.485zm24.228-7.9V2.611h-2.24v16.011h2.244V10.6h2.362V8.727zm-6.708-2.736h3.22V4.159H73.3v1.833h3.387v.982a7.6 7.6 0 0 1-4.021 6.868l1.305 1.771a7.93 7.93 0 0 0 3.878-4.78 7.513 7.513 0 0 0 3.76 4.369l1.249-1.759a7.119 7.119 0 0 1-3.916-6.47zM97 12.581h4.929V10.76h-9.4v-1.8h9.025v-5.3H90.267v1.8h9.068V7.2h-9.043v5.383h4.488V15h-6.173v1.834h14.631V15H97zm17.807-9.342v1.84h-6.727v-1.84h-2.213V10.3h11.182V3.239zM108.08 8.51V6.838h6.725V8.51zm-3.928 3.338v1.759h6.16v5.016h2.219v-5.017h6.253v-1.759zm26.857-3.574H128.2v1.8h2.809v8.59h2.219V2.611h-2.219zm-8.3 1.908h4.655V8.423h-4.655V5.769h5.24V3.96h-7.483v11.07h1.274a46.243 46.243 0 0 0 7.173-.441l-.224-1.8a39.009 39.009 0 0 1-5.979.41zm22.612-5.867v-1.7h-2.241v1.7h-3.636v1.764h9.5V4.314zm6.825-1.678h-2.25v11.945h2.25V9.38h2.151V7.54h-2.151zM144.2 12.8c2.312.006 3.934-1.212 3.934-3.052 0-1.858-1.622-3.1-3.934-3.1-2.337 0-3.978 1.243-3.972 3.1-.007 1.838 1.634 3.052 3.972 3.052zm-1.79-3.052c0-.9.715-1.386 1.79-1.392s1.8.5 1.809 1.392c-.006.876-.74 1.349-1.809 1.349s-1.792-.474-1.792-1.35zm-.646 3.91v4.686h10.952v-1.81H144v-2.878zm27.883-4.823h-2.057a21.046 21.046 0 0 0 .329-4.258V3.314H156.8V5.1h8.869a19.046 19.046 0 0 1-.342 3.729h-10.314v1.8h6.16v2.294h-4.693v1.759h9.193v3.941h2.25v-5.7h-4.5v-2.294h6.222zm12.205-.435h-2.785c-.311-2.878-1.927-4.655-4.084-4.655-2.43 0-4.164 2.213-4.158 5.693-.006 3.518 1.728 5.718 4.158 5.718 2.225 0 3.878-1.89 4.108-4.96h2.76v8.464h2.219V2.611h-2.219zm-6.868 4.724c-1.193 0-2.014-1.293-2.008-3.686-.006-2.368.814-3.667 2.008-3.667s2.008 1.3 2.014 3.667c-.007 2.391-.808 3.684-2.014 3.684zM190.889 17h2.561V8.634h.106l3.319 8.31h1.765l3.319-8.279h.106V17h2.567V4.271h-3.263l-3.537 8.629h-.149l-3.537-8.627h-3.257zm25.328-9.087c-.037-2.256-1.9-3.816-4.718-3.816-2.778 0-4.823 1.535-4.811 3.841-.006 1.877 1.318 2.946 3.462 3.468l1.392.342c1.386.342 2.169.746 2.175 1.61-.006.957-.9 1.6-2.287 1.6-1.4 0-2.424-.64-2.511-1.921h-2.567c.075 2.722 2.039 4.146 5.109 4.146 3.1 0 4.916-1.485 4.929-3.81-.012-2.126-1.635-3.238-3.81-3.729l-1.15-.28c-1.1-.255-2.051-.665-2.032-1.6 0-.839.746-1.454 2.082-1.454 1.293 0 2.095.59 2.194 1.6zm6.433-3.642h-4.531V17h4.488c3.878 0 6.222-2.4 6.222-6.377s-2.344-6.352-6.179-6.352zm-1.89 10.461V6.539h1.747c2.405 0 3.68 1.249 3.68 4.084 0 2.853-1.274 4.108-3.692 4.108zm19.411-6.818c-.037-2.256-1.9-3.816-4.718-3.816-2.778 0-4.823 1.535-4.811 3.841-.006 1.877 1.318 2.946 3.462 3.468l1.392.342c1.386.342 2.169.746 2.175 1.61-.006.957-.9 1.6-2.287 1.6-1.4 0-2.424-.64-2.511-1.921h-2.567c.075 2.722 2.039 4.146 5.109 4.146 3.1 0 4.916-1.485 4.929-3.81-.012-2.126-1.635-3.238-3.81-3.729l-1.15-.28c-1.1-.255-2.051-.665-2.032-1.6 0-.839.746-1.454 2.082-1.454 1.293 0 2.095.59 2.194 1.6zm3.108-2.673v3.8H254.6v-1.52h-9.087v-.857h8.814V2.91h-11.07v1.522h8.82v.808zm-1.821 6.215h14.631V9.79h-14.631zm12.885 4.575v-3.78H243.13v1.554h8.988v.8h-8.975v3.866h11.666v-1.527h-9.435v-.914zM111.673 30.8v-1.3h-2.238v1.3h-3.468v1.628h9.149V30.8zm6.837 3.406v-4.57h-2.244v10.871h2.244V36.05h2.051v-1.84zm-2.99 3.8a52.925 52.925 0 0 1-3.847.317V37.5c1.7-.255 2.772-1.1 2.778-2.318-.006-1.479-1.56-2.393-3.916-2.387s-3.928.907-3.922 2.387c-.006 1.231 1.081 2.082 2.822 2.325v.9a145.59 145.59 0 0 1-3.891.044l.23 1.734a59.964 59.964 0 0 0 9.907-.634zm-6.762-2.828c-.006-.615.64-.9 1.778-.9s1.765.28 1.771.9c-.006.584-.646.926-1.771.92s-1.784-.327-1.778-.912zm7.508 7.689v2.747h2.244v-4.473h-10.933v1.734zm13.413-3.9h4.621v-8.33h-2.24v2.492h-6.974v-2.492h-2.25v8.335h4.624v2.965h-6.172v1.821h14.632v-1.822h-6.24zm2.381-4.065v2.275h-6.974v-2.27zm16.409.64v3.941h2.126v-9.847h-2.126v4.1h-1.256v-3.882h-2.088v9.454h2.088v-3.76zm-6.657-4.388v-1.443h-2.225v1.448h-2.822v1.771h7.856v-1.771zm-1.1 7.863c2.039-.006 3.493-1.15 3.5-2.791-.006-1.678-1.461-2.8-3.5-2.8-2 .006-3.462 1.125-3.462 2.8 0 1.646 1.46 2.789 3.462 2.795zm0-3.984c.876 0 1.467.41 1.473 1.193-.006.746-.6 1.181-1.473 1.175s-1.461-.429-1.461-1.175c0-.778.591-1.189 1.461-1.189zm8.117 4.948H146.6v.319a3.9 3.9 0 0 1-1.852 3.17 3.614 3.614 0 0 1-1.771-3.17v-.317h-2.219v.317a3.7 3.7 0 0 1-3.014 3.456l1.05 1.666a5.047 5.047 0 0 0 3.058-2.5 4.816 4.816 0 0 0 2.934 2.666 4.976 4.976 0 0 0 2.9-2.735 4.818 4.818 0 0 0 3.114 2.573l1.038-1.666a3.529 3.529 0 0 1-3.008-3.456zm7.633-6v-3.8h-2.232v5.563h11.175v-1.757zm-4.062 5.233h14.631v-1.759H152.4zm1.684 1.311v4.742h11.424v-1.8h-9.18v-2.94zm26.515-4.78v-6.134h-2.244v15.974h2.245V37.6h2.262v-1.854zm-11.89-4.494v1.834h5.333c-.423 3.568-2.455 6.116-6.234 8.018l1.262 1.715c5.376-2.642 7.247-6.781 7.26-11.567zm19.952 8.938v-.2a2.436 2.436 0 0 1 1.43-2.387A3.4 3.4 0 0 0 192 34.54c0-2.169-1.734-3.443-4.189-3.443-2.244 0-4.084 1.187-4.133 3.655h2.5a1.568 1.568 0 0 1 1.616-1.573 1.445 1.445 0 0 1 1.541 1.442c0 .82-.584 1.367-1.349 1.852-1.044.659-1.635 1.33-1.647 3.518v.2zm-1.113 3.965a1.47 1.47 0 1 0 0-2.94 1.47 1.47 0 1 0 0 2.94z" transform="translate(120 106)" style="fill:#111"/>
        </g>
        <g id="fc_box_medium-3" data-name="fc_box_medium" transform="translate(691 1918)">
            <g transform="translate(-399 -640)" style="filter:url(#box-5)">
                <g id="box-17" data-name="box" class="cls-2">
                    <path class="cls-10" d="M0 0h253v130H0z" transform="translate(399 640)"/>
                    <path class="cls-11" d="M1 1h251v128H1z" transform="translate(399 640)"/>
                </g>
            </g>
            <path id="패스_11351" data-name="패스 11351" class="cls-3" d="M48.151 9.925h-2.286a23.385 23.385 0 0 0 .366-4.731v-1.4H33.883v1.988h9.855a21.161 21.161 0 0 1-.38 4.144H31.894v2h6.844v2.544h-5.215v1.954h10.215V20.8h2.5v-6.33h-5v-2.549h6.913zm13.964-.035H60.45V3.323h-2.334v16.609h2.334v-8.025h1.664v8.9h2.4V3.012h-2.4zM52.4 4.988h-2.5v11.471h1.209a34.8 34.8 0 0 0 6.25-.525l-.249-2.148a28.877 28.877 0 0 1-4.71.5zm32.334 6.678a38.406 38.406 0 0 0 .477-6.471V4H73.019v2.023h9.751a30.336 30.336 0 0 1-.559 5.642H71.093v2.01h3.687V20.8h2.493v-7.125h3.695V20.8h2.479v-7.125h3.86v-2.01zM98.1 9.38h2.776v4.2h2.486V3.012h-2.486v4.337H98.1zm-4.24.221a6.774 6.774 0 0 0 4.088 3.522l1.229-1.961A5.5 5.5 0 0 1 95.091 6.1h3.543v-2h-9.641v2h3.564a5.918 5.918 0 0 1-4.289 5.511l1.291 1.975A7.052 7.052 0 0 0 93.862 9.6zm3.425 4.372c-3.785 0-6.112 1.271-6.1 3.425s2.32 3.419 6.1 3.425 6.119-1.271 6.126-3.425-2.325-3.426-6.124-3.426zm0 4.945c-2.355.007-3.633-.5-3.626-1.519s1.271-1.533 3.626-1.533 3.646.511 3.653 1.533-1.289 1.525-3.651 1.518zM118.7 20.8h2.383V3.012H118.7zm-5.128-11.206c-.269-3.308-1.74-5.3-3.881-5.3-2.341 0-3.867 2.452-3.86 6.423-.007 4.006 1.519 6.471 3.86 6.464 2.2.007 3.688-2.106 3.9-5.594h1.43v8.4h2.355V3.289h-2.355v6.305zm-3.881 5.193c-.994.007-1.581-1.333-1.568-4.075-.014-2.714.573-4.075 1.568-4.068 1.029-.007 1.637 1.354 1.637 4.068-.001 2.742-.608 4.082-1.637 4.075zm32.272-5.117v-6.7h-2.493V20.8h2.493v-9.058h2.137V9.67zm-11.54-2.87h2.127v-2h-4.613v11.631h.891a20.568 20.568 0 0 0 4.026-.29l-.2-2.044a16.6 16.6 0 0 1-2.231.269zm5.511 0h2.348v-2h-4.8v11.631h.932a16.2 16.2 0 0 0 4.316-.331l-.186-2.044a10.9 10.9 0 0 1-2.611.325zM158.9 9.732v-6.72h-2.465v17.832h2.465V11.8h2.624V9.732zM148.1 11.4h5.718V4.511H145.6v2.01h5.732v2.907h-5.711V16.7h1.492a44.375 44.375 0 0 0 8.294-.615l-.221-1.989a41.793 41.793 0 0 1-7.086.532zM53.872 37.336v-4.324h-2.5v10.732h2.5v-4.337h2.39v-2.071zm-8.778 2.293a6.754 6.754 0 0 0 4.1 3.488l1.264-1.92a5.428 5.428 0 0 1-4.137-5.145h3.55v-1.99h-9.7v1.989h3.639A5.8 5.8 0 0 1 39.5 41.5l1.319 1.92a6.962 6.962 0 0 0 4.276-3.792zm6.278 6.865V50.8h2.5v-6.3H41.9v1.989zm20.67-3.052v-10.43h-2.486v3.267H66.22v2.037h3.336v5.124zm-9.468-4.075a6.528 6.528 0 0 0 3.95 3.481L67.85 40.9a5.427 5.427 0 0 1-4.075-5.463v-1.492h-2.513v1.609A5.938 5.938 0 0 1 56.89 41.4l1.326 1.989a7.061 7.061 0 0 0 4.358-4.023zm3.391 4.53c-3.785 0-6.112 1.278-6.1 3.46s2.32 3.446 6.1 3.439 6.119-1.243 6.126-3.439-2.328-3.457-6.126-3.457zm0 4.959c-2.355.007-3.633-.511-3.626-1.5-.007-1.015 1.271-1.526 3.626-1.526s3.646.511 3.653 1.526c-.007.988-1.291 1.506-3.653 1.499zm20.843 1.989h2.479V33.012h-2.48zm-5.325-8.6h3.446v-2h-6.858v-3.669h6.775V34.6H75.6v7.645h3.39v3c-1.6.028-3.142.035-4.558.028l.283 2.03a74.481 74.481 0 0 0 11.271-.628l-.186-1.812a67.781 67.781 0 0 1-4.316.3zm15.117.215a4.494 4.494 0 0 0 4.586-3.294h2.956v3.819h2.486v-9.973h-2.486v4.144h-2.97a4.509 4.509 0 0 0-4.572-3.225c-2.707-.007-4.744 1.8-4.738 4.254-.006 2.493 2.031 4.282 4.738 4.275zm0-6.46a2.139 2.139 0 0 1 2.327 2.182 2.341 2.341 0 0 1-4.675 0A2.134 2.134 0 0 1 96.6 36zm8.308 7.652h-2.452v.718a5.008 5.008 0 0 1-2.072 3.957 4.663 4.663 0 0 1-2.044-3.957v-.718h-2.424v.718a4.527 4.527 0 0 1-3.336 4.358l1.209 1.83a5.817 5.817 0 0 0 3.343-3 5.54 5.54 0 0 0 3.253 3.156 5.869 5.869 0 0 0 3.253-3.225 5.536 5.536 0 0 0 3.4 3.066l1.264-1.83a4.387 4.387 0 0 1-3.4-4.358zm8.529-5.78v-4.224h-2.479v6.181h12.417v-1.955zm-4.517 5.808h16.257v-1.952h-16.256zm1.872 1.457v5.269h12.693v-2h-10.2V45.14zm29.461-5.311v-6.814h-2.493v17.749h2.493v-8.874h2.514v-2.058zm-13.211-4.993v2.037h5.925c-.47 3.964-2.728 6.8-6.927 8.909l1.4 1.906c5.974-2.935 8.052-7.535 8.066-12.852zm22.169 9.931v-.221a2.707 2.707 0 0 1 1.588-2.652 3.775 3.775 0 0 0 2.12-3.4c0-2.41-1.927-3.826-4.655-3.826-2.493 0-4.537 1.319-4.593 4.061h2.776a1.742 1.742 0 0 1 1.8-1.747 1.605 1.605 0 0 1 1.713 1.6c0 .912-.649 1.519-1.5 2.058-1.16.732-1.816 1.478-1.83 3.909v.221zm-1.236 4.406a1.633 1.633 0 1 0 0-3.267 1.633 1.633 0 1 0 0 3.267z" transform="translate(30 38.001)"/>
        </g>
        <g id="fc_box_medium-4" data-name="fc_box_medium" transform="translate(406 2635)">
            <g transform="translate(-114 -1357)" style="filter:url(#box-6)">
                <g id="box-18" data-name="box" class="cls-2">
                    <path class="cls-10" d="M0 0h253v130H0z" transform="translate(114 1357)"/>
                    <path class="cls-11" d="M1 1h251v128H1z" transform="translate(114 1357)"/>
                </g>
            </g>
            <path id="패스_11358" data-name="패스 11358" class="cls-3" d="M33.884 14.753a42.25 42.25 0 0 0 .716-8.509V4.559H21.626v1.982H32.1a38.52 38.52 0 0 1-.725 7.949zm-5.656-4.268h-2.472V16.6h-5.8v2.02H36.17V16.6h-7.942zM49.72 9.331a2.927 2.927 0 0 0 2.086-2.624c-.007-2.141-2.528-3.425-6.464-3.432s-6.479 1.291-6.472 3.432a2.884 2.884 0 0 0 2.023 2.6v2.141h-3.646v1.989h16.216v-1.985H49.72zm-4.379-4.136c2.486 0 3.9.518 3.9 1.512s-1.409 1.478-3.9 1.478c-2.507 0-3.9-.49-3.881-1.478-.014-.994 1.374-1.512 3.881-1.512zm-1.927 4.758a15.253 15.253 0 0 0 1.927.11 14.882 14.882 0 0 0 1.9-.11v1.5h-3.827zm1.906 4.413c-3.888-.007-6.222 1.14-6.222 3.2 0 2.086 2.334 3.218 6.222 3.211 3.847.007 6.181-1.126 6.195-3.211-.015-2.06-2.348-3.207-6.195-3.2zm0 4.551c-2.459.007-3.695-.456-3.681-1.354-.014-.891 1.222-1.305 3.681-1.319 2.417.014 3.688.428 3.695 1.319s-1.277 1.361-3.695 1.354zm18.58-6.222h5.124v-2H58.9V4.387h-2.544v8.308H61.4v4.075h-6.86v2H70.8v-2h-6.9zm17.279-2.8h5.035V7.936H76.28V5.747h9.848v-1.94H73.794v6.084h4.945v1.519h-6.906v1.975h16.243V11.41h-6.892zm-1.278 4.378c-3.881 0-6.222 1.174-6.222 3.287 0 2.079 2.341 3.26 6.222 3.267 3.86-.007 6.181-1.188 6.195-3.267-.009-2.117-2.329-3.291-6.19-3.291zm0 4.648c-2.459.007-3.695-.435-3.681-1.36-.014-.919 1.222-1.388 3.681-1.388 2.417 0 3.688.47 3.695 1.388s-1.273 1.363-3.69 1.356zM100.942 3.71v2.044H93.47V3.71h-2.459v7.845h12.424V3.71zM93.47 9.566V7.709h7.472v1.857zm-4.37 3.709v1.954h6.844V20.8h2.465v-5.571h6.948v-1.954zm35.856 1.478a42.249 42.249 0 0 0 .711-8.508V4.559H112.7v1.982h10.47a38.52 38.52 0 0 1-.725 7.949zm-5.656-4.268h-2.472V16.6h-5.8v2.02h16.215V16.6h-7.942zm21.38 10.359h2.52V3.012h-2.52zm-5.436-16.457h-2.528v2.659c-.014 3.453-1.519 6.858-4.627 8.17l1.506 2.072a8.54 8.54 0 0 0 4.42-5.325 8.289 8.289 0 0 0 4.247 4.889l1.471-2c-3.025-1.271-4.5-4.544-4.489-7.811zM158.635 20.8h2.383V3.012h-2.383zm-5.124-11.206c-.269-3.308-1.74-5.3-3.881-5.3-2.341 0-3.867 2.452-3.86 6.423-.007 4.006 1.519 6.471 3.86 6.464 2.2.007 3.688-2.106 3.9-5.594h1.43v8.4h2.355V3.289h-2.355v6.305zm-3.881 5.193c-.994.007-1.581-1.333-1.568-4.075-.014-2.714.573-4.075 1.568-4.068 1.029-.007 1.637 1.354 1.637 4.068 0 2.742-.608 4.082-1.637 4.075zM181.9 9.67v-6.7h-2.493V20.8h2.493v-9.058h2.141V9.67zM170.362 6.8h2.127v-2h-4.613v11.631h.891a20.568 20.568 0 0 0 4.026-.29l-.2-2.044a16.6 16.6 0 0 1-2.231.269zm5.511 0h2.348v-2h-4.8v11.631h.932a16.2 16.2 0 0 0 4.316-.331l-.186-2.044a10.9 10.9 0 0 1-2.611.325zm22.963 2.935V3.012h-2.466v17.832h2.465V11.8h2.624V9.732zm-10.8 1.664h5.718V4.511h-8.218v2.01h5.732v2.907h-5.711V16.7h1.492a44.375 44.375 0 0 0 8.294-.615l-.223-1.985a41.793 41.793 0 0 1-7.086.532zM36.481 39.746v6.4h2.486V33.04h-2.486v4.71h-3.274V34.2h-2.465v2.728h-3.5V34.2h-2.5v9.144h8.467v-3.6zm-9.24 1.637V38.82h3.5v2.562zm2.41 3.46H27.13v5.649h12.217v-2.01h-9.7zm24.123-9.434h-3.985a4.787 4.787 0 0 0-3.557-1.436 4.4 4.4 0 1 0 0 8.771 4.807 4.807 0 0 0 3.568-1.465h3.978v2.251h2.482V33.012h-2.487zm-7.542 5.221a2.28 2.28 0 1 1 2.334-2.307 2.2 2.2 0 0 1-2.334 2.307zm4.6-1.347a4.391 4.391 0 0 0 .007-1.865h2.935v1.865zm2.942 7.01V50.8h2.486v-6.469H44.043v1.961zM70.859 40.2a22.438 22.438 0 0 1-3.936.4v-4.1h3.819v-1.989H64.43v8.129h1.146a24.368 24.368 0 0 0 5.449-.4zm3.488.456v-4.163h3.805v-1.982h-6.3v8.129h6.438v-1.983zm-1.872 2.749H70.01v3.315h-6.824v2h16.257v-2h-6.968zm12.5-5.532v-4.225H82.5v6.181h12.413v-1.955zm-4.517 5.808h16.257v-1.953H80.459zm1.872 1.459v5.269h12.693v-2h-10.2V45.14zm34.157-7.8v-4.328h-2.5v10.732h2.5v-4.337h2.389v-2.071zm-8.778 2.293a6.754 6.754 0 0 0 4.1 3.488l1.264-1.92a5.428 5.428 0 0 1-4.137-5.145h3.55v-1.994h-9.7v1.989h3.633a5.8 5.8 0 0 1-4.309 5.449l1.319 1.92a6.962 6.962 0 0 0 4.281-3.792zm6.278 6.865V50.8h2.5v-6.3h-11.968v1.989zm20.67-3.052V33.012h-2.486v3.267h-3.336v2.037h3.336v5.124zm-9.468-4.075a6.528 6.528 0 0 0 3.95 3.481l1.326-1.948a5.427 5.427 0 0 1-4.075-5.463v-1.496h-2.514v1.609a5.938 5.938 0 0 1-4.372 5.849l1.326 1.989a7.061 7.061 0 0 0 4.359-4.026zm3.391 4.53c-3.785 0-6.112 1.278-6.1 3.46s2.32 3.446 6.1 3.439 6.119-1.243 6.126-3.439-2.328-3.461-6.126-3.461zm0 4.959c-2.355.007-3.633-.511-3.626-1.5-.007-1.015 1.271-1.526 3.626-1.526s3.646.511 3.653 1.526c-.006.984-1.291 1.502-3.653 1.495zm25.38-15.843V43.1h2.472V33.012zM142.482 34.1v7.479h8.681V34.1zm2.452 5.532v-3.595h3.766v3.591zm11.816 6.3v-1.849h-5.055v-1.471h-2.5v1.471h-5.048v1.844h4.965c-.269 1.25-2.134 2.659-5.684 2.949l.849 1.885c2.977-.29 5.09-1.333 6.174-2.749 1.091 1.4 3.191 2.472 6.153 2.749l.836-1.885c-3.536-.338-5.394-1.733-5.67-2.949zm19.744 4.868h2.355V33.012h-2.355zm-5.953-11.685v2h2.341v8.854h2.334v-16.66h-2.334v5.808zm-1.43-2.286h2.693v-2h-8.011v2h2.914v.946c0 3.025-.974 6.215-3.591 7.831l1.506 1.837a8.275 8.275 0 0 0 3.315-4.841 7.518 7.518 0 0 0 3.232 4.434l1.457-1.83c-2.6-1.485-3.522-4.468-3.515-7.431zm13.025 3.287c3.322-.173 5.608-1.008 6.727-2.341 1.126 1.333 3.419 2.169 6.713 2.341l.732-1.837c-3.591-.152-5.4-1-5.9-2.03h5.021v-1.842H190.1v-1.4h-2.472v1.4h-5.29v1.844h4.979c-.518 1.029-2.32 1.878-5.863 2.03zm14.82.477h-16.138v1.816h6.823v1.121h-4.986v1.782h9.9v.888h-9.889v4.482h12.811v-1.841h-10.364v-.974h9.9V43.53h-4.91v-1.118h6.851z" transform="translate(16 38.001)"/>
        </g>
        <g id="fc_box_medium-5" data-name="fc_box_medium" transform="translate(1261 2635)">
            <g transform="translate(-969 -1357)" style="filter:url(#box-7)">
                <g id="box-19" data-name="box" class="cls-2">
                    <path class="cls-10" d="M0 0h253v130H0z" transform="translate(969 1357)"/>
                    <path class="cls-11" d="M1 1h251v128H1z" transform="translate(969 1357)"/>
                </g>
            </g>
            <path id="패스_11360" data-name="패스 11360" class="cls-3" d="M19.7 10.257h-1.444V3.365h-2.335v16.671h2.334v-7.79H19.7V20.8h2.369V3.012H19.7zm-9.932-6.74v2.216H6.66v1.982h8.6V5.733h-3.04V3.517zm1.236 5a3.921 3.921 0 0 0-3.916 4.206 3.922 3.922 0 1 0 7.818 0A3.914 3.914 0 0 0 11 8.517zm0 6.34c-1.029.007-1.733-.773-1.727-2.134-.007-1.333.7-2.141 1.727-2.141 1 0 1.706.808 1.713 2.141-.007 1.36-.711 2.14-1.717 2.133zM38.117 3.012H35.59v10.3h2.528V9.269h2.362V7.246h-2.363zM34.174 9.8a33.254 33.254 0 0 1-7.093.539V6.217h5.525v-2h-8v8.135h1.478A37.858 37.858 0 0 0 34.4 11.8zm-1.92 3.819c-3.709.007-6.091 1.333-6.084 3.57-.007 2.279 2.376 3.612 6.084 3.6 3.667.007 6-1.326 6-3.6.002-2.236-2.333-3.562-6-3.569zm0 5.2c-2.327 0-3.633-.559-3.626-1.63-.007-1.05 1.3-1.6 3.626-1.588 2.265-.007 3.577.539 3.584 1.588-.007 1.072-1.319 1.631-3.584 1.631zm29.9-8.9h-2.289a23.385 23.385 0 0 0 .366-4.731v-1.4H47.883v1.994h9.855a21.161 21.161 0 0 1-.38 4.144H45.894v2h6.844v2.544h-5.215v1.954h10.215V20.8h2.5v-6.33h-5v-2.549h6.913zm15.055-.1V3.012h-2.496v17.749h2.493v-8.874h2.514V9.829zM63.994 4.836v2.037h5.926c-.47 3.964-2.728 6.8-6.927 8.909l1.4 1.906c5.974-2.935 8.052-7.535 8.066-12.852zm35.2 2.5V3.012h-2.5v10.732h2.5V9.407h2.389V7.336zm-8.777 2.292a6.754 6.754 0 0 0 4.1 3.488l1.264-1.92a5.428 5.428 0 0 1-4.137-5.145H95.2V4.062h-9.7v1.989h3.633a5.8 5.8 0 0 1-4.31 5.449l1.319 1.92a6.962 6.962 0 0 0 4.275-3.792zm6.278 6.865V20.8h2.5v-6.3H87.227v1.989zm20.67-3.052V3.012h-2.486v3.267h-3.336v2.037h3.336v5.124zM107.9 9.366a6.528 6.528 0 0 0 3.95 3.481l1.326-1.948a5.427 5.427 0 0 1-4.076-5.463V3.945h-2.514v1.609a5.938 5.938 0 0 1-4.372 5.849l1.326 1.989a7.061 7.061 0 0 0 4.36-4.026zm3.391 4.53c-3.785 0-6.112 1.278-6.1 3.46s2.32 3.446 6.1 3.439 6.119-1.243 6.126-3.439-2.331-3.456-6.13-3.456zm0 4.959c-2.355.007-3.633-.511-3.626-1.5-.007-1.015 1.271-1.526 3.626-1.526s3.646.511 3.653 1.526c-.01.989-1.295 1.507-3.657 1.5zm26.644-7.189a38.407 38.407 0 0 0 .477-6.471V4h-12.194v2.023h9.751a30.336 30.336 0 0 1-.559 5.642h-11.119v2.01h3.688V20.8h2.493v-7.125h3.695V20.8h2.479v-7.125h3.86v-2.01zM151.3 9.38h2.776v4.2h2.486V3.012h-2.486v4.337H151.3zm-4.24.221a6.774 6.774 0 0 0 4.088 3.522l1.229-1.961A5.5 5.5 0 0 1 148.29 6.1h3.543v-2h-9.641v2h3.564a5.918 5.918 0 0 1-4.289 5.511l1.291 1.975a7.052 7.052 0 0 0 4.303-3.986zm3.425 4.372c-3.785 0-6.112 1.271-6.1 3.425s2.32 3.419 6.1 3.425 6.119-1.271 6.126-3.425-2.326-3.426-6.125-3.426zm0 4.945c-2.355.007-3.633-.5-3.626-1.519s1.271-1.533 3.626-1.533 3.646.511 3.653 1.533-1.29 1.525-3.652 1.518zM171.9 20.8h2.383V3.012H171.9zm-5.129-11.206c-.269-3.308-1.74-5.3-3.881-5.3-2.341 0-3.867 2.452-3.86 6.423-.007 4.006 1.519 6.471 3.86 6.464 2.2.007 3.688-2.106 3.9-5.594h1.43v8.4h2.355V3.289h-2.355v6.305zm-3.881 5.193c-.994.007-1.581-1.333-1.568-4.075-.014-2.714.573-4.075 1.568-4.068 1.029-.007 1.637 1.354 1.637 4.068-.001 2.742-.608 4.082-1.638 4.075zm32.272-5.117v-6.7h-2.493V20.8h2.493v-9.058h2.138V9.67zm-11.54-2.87h2.127v-2h-4.613v11.631h.891a20.568 20.568 0 0 0 4.026-.29l-.2-2.044a16.6 16.6 0 0 1-2.231.269zm5.511 0h2.348v-2h-4.8v11.631h.932a16.2 16.2 0 0 0 4.316-.331l-.186-2.044a10.9 10.9 0 0 1-2.61.325zM212.1 9.732v-6.72h-2.47v17.832h2.47V11.8h2.624V9.732zm-10.8 1.664h5.718V4.511H198.8v2.01h5.732v2.907h-5.711V16.7h1.492a44.375 44.375 0 0 0 8.294-.615l-.227-1.985a41.793 41.793 0 0 1-7.086.532zM77.289 37.336v-4.324h-2.5v10.732h2.5v-4.337h2.39v-2.071zm-8.778 2.293a6.754 6.754 0 0 0 4.1 3.488l1.264-1.92a5.428 5.428 0 0 1-4.137-5.145h3.55v-1.99h-9.7v1.989h3.633a5.8 5.8 0 0 1-4.304 5.449l1.319 1.92a6.962 6.962 0 0 0 4.275-3.792zm6.278 6.865V50.8h2.5v-6.3H65.32v1.989zm20.67-3.052v-10.43h-2.487v3.267h-3.335v2.037h3.336v5.124zm-9.469-4.076a6.528 6.528 0 0 0 3.95 3.481l1.327-1.947a5.427 5.427 0 0 1-4.075-5.463v-1.492h-2.514v1.609a5.938 5.938 0 0 1-4.371 5.846l1.326 1.989a7.061 7.061 0 0 0 4.357-4.023zm3.391 4.53c-3.785 0-6.112 1.278-6.1 3.46s2.32 3.446 6.1 3.439 6.119-1.243 6.126-3.439S93.18 43.9 89.381 43.9zm0 4.959c-2.355.007-3.633-.511-3.626-1.5-.007-1.015 1.271-1.526 3.626-1.526s3.646.511 3.653 1.526c-.006.989-1.291 1.507-3.653 1.5zm25.38-15.843V43.1h2.472V33.012zM103.283 34.1v7.479h8.681V34.1zm2.452 5.532v-3.595h3.765v3.591zm11.816 6.3v-1.849H112.5v-1.471H110v1.471h-5.048v1.844h4.965c-.269 1.25-2.134 2.659-5.684 2.949l.849 1.885c2.977-.29 5.09-1.333 6.174-2.749 1.091 1.4 3.191 2.472 6.153 2.749l.836-1.885c-3.536-.338-5.394-1.733-5.67-2.949zm19.233-6.181v6.4h2.486V33.04h-2.486v4.71h-3.273V34.2h-2.465v2.728h-3.5V34.2h-2.5v9.144h8.467v-3.6zm-9.24 1.637V38.82h3.5v2.562zm2.41 3.46h-2.521v5.649h12.217v-2.01h-9.7zm24.123-9.434h-3.985a4.787 4.787 0 0 0-3.557-1.436 4.4 4.4 0 1 0 0 8.771 4.807 4.807 0 0 0 3.564-1.464h3.978v2.245h2.486V33.012h-2.486zm-7.541 5.221a2.28 2.28 0 1 1 2.334-2.307 2.2 2.2 0 0 1-2.334 2.302zm4.6-1.347a4.391 4.391 0 0 0 .007-1.865h2.935v1.865zm2.942 7.01V50.8h2.486v-6.469h-12.217v1.961z" transform="translate(16 38.001)"/>
        </g>
        <g id="fc_box_medium-6" data-name="fc_box_medium" transform="translate(691 2635)">
            <g transform="translate(-399 -1357)" style="filter:url(#box-8)">
                <g id="box-20" data-name="box" class="cls-2">
                    <path class="cls-10" d="M0 0h538v130H0z" transform="translate(399 1357)"/>
                    <path class="cls-11" d="M1 1h536v128H1z" transform="translate(399 1357)"/>
                </g>
            </g>
            <path id="패스_11359" data-name="패스 11359" class="cls-3" d="M176.384 14.753a42.248 42.248 0 0 0 .711-8.508V4.559h-12.97v1.982H174.6a38.52 38.52 0 0 1-.725 7.949zm-5.656-4.268h-2.472V16.6h-5.8v2.02h16.214V16.6h-7.942zm21.492-1.154a2.927 2.927 0 0 0 2.086-2.624c-.007-2.141-2.528-3.425-6.464-3.432s-6.478 1.291-6.471 3.432a2.884 2.884 0 0 0 2.023 2.6v2.141h-3.646v1.989h16.215v-1.985h-3.743zm-4.378-4.137c2.486 0 3.9.518 3.9 1.512s-1.409 1.478-3.9 1.478c-2.507 0-3.9-.49-3.881-1.478-.015-.993 1.373-1.511 3.88-1.511zm-1.927 4.758a15.253 15.253 0 0 0 1.927.11 14.882 14.882 0 0 0 1.9-.11v1.5h-3.826zm1.906 4.413c-3.888-.007-6.222 1.14-6.222 3.2 0 2.086 2.334 3.218 6.222 3.211 3.847.007 6.181-1.126 6.195-3.211-.016-2.059-2.349-3.206-6.196-3.199zm0 4.551c-2.459.007-3.695-.456-3.681-1.354-.014-.891 1.222-1.305 3.681-1.319 2.417.014 3.688.428 3.695 1.319s-1.278 1.362-3.696 1.355zm18.579-6.221h5.124v-2H201.4V4.387h-2.541v8.308h5.041v4.075h-6.86v2h16.26v-2h-6.9zm17.279-2.8h5.035V7.936h-9.934V5.747h9.848v-1.94h-12.334v6.084h4.945v1.519h-6.906v1.975h16.243V11.41h-6.892zm-1.278 4.378c-3.881 0-6.222 1.174-6.222 3.287 0 2.079 2.341 3.26 6.222 3.267 3.861-.007 6.181-1.188 6.195-3.267-.009-2.117-2.329-3.291-6.19-3.291zm0 4.648c-2.459.007-3.695-.435-3.681-1.36-.014-.919 1.222-1.388 3.681-1.388 2.417 0 3.688.47 3.695 1.388s-1.273 1.363-3.69 1.356zM243.442 3.71v2.044h-7.472V3.71h-2.459v7.845h12.424V3.71zm-7.472 5.856V7.709h7.472v1.857zm-4.37 3.709v1.954h6.844V20.8h2.465v-5.571h6.948v-1.954zm35.856 1.478a42.247 42.247 0 0 0 .711-8.508V4.559H255.2v1.982h10.47a38.519 38.519 0 0 1-.725 7.949zm-5.656-4.268h-2.472V16.6h-5.8v2.02h16.215V16.6h-7.942zm21.38 10.359h2.52V3.012h-2.52zm-5.436-16.457h-2.528v2.659c-.014 3.453-1.519 6.858-4.627 8.17l1.506 2.072a8.54 8.54 0 0 0 4.42-5.325 8.289 8.289 0 0 0 4.247 4.889l1.471-2c-3.025-1.271-4.5-4.544-4.489-7.811zM301.135 20.8h2.383V3.012h-2.383zm-5.124-11.206c-.269-3.308-1.74-5.3-3.881-5.3-2.341 0-3.867 2.452-3.86 6.423-.007 4.006 1.519 6.471 3.86 6.464 2.2.007 3.688-2.106 3.9-5.594h1.43v8.4h2.355V3.289h-2.355v6.305zm-3.881 5.193c-.994.007-1.581-1.333-1.568-4.075-.014-2.714.573-4.075 1.568-4.068 1.029-.007 1.637 1.354 1.637 4.068 0 2.742-.608 4.082-1.637 4.075zM324.4 9.67v-6.7h-2.493V20.8h2.493v-9.058h2.141V9.67zM312.862 6.8h2.127v-2h-4.613v11.631h.891a20.567 20.567 0 0 0 4.026-.29l-.2-2.044a16.6 16.6 0 0 1-2.231.269zm5.511 0h2.348v-2h-4.8v11.631h.932a16.2 16.2 0 0 0 4.316-.331l-.186-2.044a10.9 10.9 0 0 1-2.61.325zm22.963 2.935V3.012h-2.466v17.832h2.465V11.8h2.624V9.732zm-10.8 1.664h5.718V4.511h-8.218v2.01h5.732v2.907h-5.711V16.7h1.492a44.375 44.375 0 0 0 8.294-.615l-.223-1.985a41.793 41.793 0 0 1-7.086.532zM219.789 37.336v-4.324h-2.5v10.732h2.5v-4.337h2.389v-2.071zm-8.778 2.293a6.754 6.754 0 0 0 4.1 3.488l1.264-1.92a5.428 5.428 0 0 1-4.137-5.145h3.55v-1.99h-9.7v1.989h3.633a5.8 5.8 0 0 1-4.309 5.449l1.319 1.92a6.962 6.962 0 0 0 4.28-3.792zm6.278 6.865V50.8h2.5v-6.3H207.82v1.989zm20.67-3.052v-10.43h-2.486v3.267h-3.336v2.037h3.336v5.124zm-9.468-4.075a6.528 6.528 0 0 0 3.95 3.481l1.326-1.948a5.427 5.427 0 0 1-4.075-5.463v-1.492h-2.514v1.609a5.938 5.938 0 0 1-4.372 5.849l1.326 1.989a7.061 7.061 0 0 0 4.358-4.026zm3.391 4.53c-3.785 0-6.112 1.278-6.1 3.46s2.32 3.446 6.1 3.439 6.119-1.243 6.126-3.439-2.328-3.457-6.127-3.457zm0 4.959c-2.355.007-3.633-.511-3.626-1.5-.007-1.015 1.271-1.526 3.626-1.526s3.646.511 3.653 1.526c-.007.988-1.292 1.506-3.654 1.499zm25.38-15.843V43.1h2.472V33.012zM245.783 34.1v7.479h8.681V34.1zm2.452 5.532v-3.595H252v3.591zm11.816 6.3v-1.849H255v-1.471h-2.5v1.471h-5.048v1.844h4.965c-.269 1.25-2.134 2.659-5.684 2.949l.849 1.885c2.977-.29 5.09-1.333 6.174-2.749 1.091 1.4 3.191 2.472 6.153 2.749l.836-1.885c-3.536-.338-5.394-1.733-5.67-2.949zM279.8 50.8h2.355V33.012H279.8zm-5.953-11.685v2h2.341v8.854h2.334v-16.66h-2.334v5.808zm-1.43-2.286h2.693v-2h-8.01v2h2.914v.946c0 3.025-.974 6.215-3.591 7.831l1.506 1.837a8.275 8.275 0 0 0 3.315-4.841 7.518 7.518 0 0 0 3.232 4.434l1.457-1.83c-2.6-1.485-3.522-4.468-3.515-7.431zm13.025 3.287c3.322-.173 5.608-1.008 6.727-2.341 1.126 1.333 3.419 2.169 6.713 2.341l.732-1.837c-3.591-.152-5.4-1-5.9-2.03h5.021v-1.842H293.4v-1.4h-2.472v1.4h-5.29v1.844h4.979c-.518 1.029-2.32 1.878-5.863 2.03zm14.82.477h-16.143v1.816h6.823v1.121h-4.986v1.782h9.9v.888h-9.886v4.482h12.81v-1.841h-10.366v-.974h9.9V43.53h-4.91v-1.118h6.851z" transform="translate(16 38.001)"/>
        </g>
        <g id="fc_box_medium-7" data-name="fc_box_medium" transform="translate(406 2456)">
            <g transform="translate(-114 -1178)" style="filter:url(#box-9)">
                <g id="box-21" data-name="box" class="cls-2">
                    <path class="cls-10" d="M0 0h823v130H0z" transform="translate(114 1178)"/>
                    <path class="cls-11" d="M1 1h821v128H1z" transform="translate(114 1178)"/>
                </g>
            </g>
            <path id="패스_11357" data-name="패스 11357" class="cls-3" d="M242.547 12.111H239.8a28.062 28.062 0 0 0 .439-5.677V4.751h-14.814v2.387h11.826a25.394 25.394 0 0 1-.456 4.972h-13.756v2.4h8.213v3.058h-6.257v2.345h12.257v5.254h3v-7.6h-6v-3.061h8.3zm16.757-.041h-2V4.188h-2.8v19.931h2.8v-9.63h2v10.674h2.876V3.815h-2.88zm-11.66-5.884h-3V19.95h1.45a41.762 41.762 0 0 0 7.5-.63l-.3-2.577a34.653 34.653 0 0 1-5.652.6zm39.489 6.314V3.815h-3.017v21.348h3.017V14.978h2.785V12.5zm-9.05-6.3V3.939h-3.008V6.2h-4.84v2.347h12.655V6.2zm0 11.064c2.254-.431 3.754-1.89 3.771-3.862-.017-2.4-2.2-4.019-5.246-4.019-3.108 0-5.262 1.624-5.254 4.019-.008 1.964 1.459 3.414 3.721 3.854V19.1c-1.889.041-3.7.041-5.254.041l.4 2.436a72.853 72.853 0 0 0 13.036-.87l-.2-2.171c-1.591.224-3.282.356-4.972.448zM274.2 13.4c-.008-1.11.953-1.74 2.412-1.74 1.417 0 2.37.63 2.37 1.74s-.953 1.724-2.37 1.724c-1.463.003-2.424-.602-2.412-1.724zm24.456-7.666V3.715h-2.983v2.023h-4.853v2.345h12.663V5.738zm9.1 3.63V3.815h-3v13.392h3V11.8h2.867V9.367zm-5.345 3.34c0-2.345-2.155-3.928-5.246-3.936-3.1.008-5.3 1.591-5.3 3.936-.008 2.345 2.2 3.928 5.3 3.928s5.241-1.58 5.241-3.925zm-7.633 0c0-1.094.953-1.682 2.387-1.691 1.425.008 2.4.6 2.412 1.691-.008 1.086-.986 1.649-2.412 1.649s-2.392-.56-2.392-1.646zm9.978 7.782v4.674h3V18.1h-14.367v2.387zm9.232-16.036v6.721h14.586V4.453zm2.934 4.409v-2.1h8.66v2.1zm14.117 3.441H311.58v2.345h8.188v1.367h-5.942v2.254h11.884v1.1h-11.867v5.644h15.373v-2.25h-12.44v-1.285h11.884v-5.461h-5.892v-1.368h8.271zm16.144-8.486v10.957h2.967V3.815zm-8.006 6.812a7.983 7.983 0 0 0 5.155 3.936l1.417-2.3c-3.273-.854-4.881-2.934-5.088-5.064h4.268V4.809H333.2V7.2h4.384c-.215 2.287-1.848 4.525-5.163 5.453L333.782 15a8.2 8.2 0 0 0 5.395-4.373zm-.34 10.691h11.345v-5.693H335.87v2.262h11.33v1.294h-11.28v5.834h14.843v-2.3h-11.926zm36.953-17.5h-3.058v15.976h3.058v-6.97h2.594v-2.494h-2.594zm-5.7 9.149a35.458 35.458 0 0 0 .489-6.257V5.373h-10.991v2.436h8.055a28.489 28.489 0 0 1-.5 4.881zm1.492.878c-2.006.29-4.185.456-6.315.547V10.3h-2.977v4.185c-1.417.025-2.76.033-3.953.033l.257 2.378a76.836 76.836 0 0 0 13.135-.9zm-10.11 4.525v6.421h14.992v-2.412H364.47v-4.011zm35.876 1.227V3.848h-2.983V7.08h-3.506v2.379h3.506v2.42h-3.506v2.4h3.506v5.32zm-6.97-5.569a42.253 42.253 0 0 1-7.218.539v-2.439h6.456V5.29h-9.464v2.387h6.448V9.89h-6.439v7.077h1.641a48.469 48.469 0 0 0 8.9-.539zm-4.367 4.359h-2.975v6.373h14.851V22.32h-11.879zM420.649 8.7h-3.928V4.917h-2.959v2.727h-4.2V4.917h-3v9.97h10.16v-3.738h3.928V15.5h2.983V3.815h-2.983zm-11.088 3.8V9.939h4.2v2.552zm2.8 5.867v-1.98H409.4v8.494h14.221v-8.494h-2.975v1.972zm0 4.127v-1.84h8.287v1.84zM441.4 8.953h-3.307V11.4h3.307v5.138h2.983V3.815H441.4zm-8.428 2.747a7.975 7.975 0 0 0 4.914 4.21l1.475-2.3a6.6 6.6 0 0 1-4.905-6.21h4.251V5.017h-11.569V7.4h4.276a6.944 6.944 0 0 1-5.13 6.588l1.533 2.362a8.275 8.275 0 0 0 5.155-4.65zm8.428 8.171v5.3h2.983v-7.699h-14.66v2.4zm27.664-5.671a46.085 46.085 0 0 0 .572-7.765V5h-14.628v2.428h11.7a36.4 36.4 0 0 1-.671 6.771H452.7v2.412h4.425v8.552h2.992v-8.552h4.434v8.552h2.975v-8.552h4.633V14.2zm19.989 10.964h2.826V3.815h-2.826zm-7.144-14.022v2.4h2.809v10.627h2.8v-20h-2.8v6.97zM480.193 8.4h3.232V6h-9.613v2.4h3.5v1.133c0 3.63-1.169 7.459-4.309 9.4l1.807 2.2a9.93 9.93 0 0 0 3.978-5.809 9.022 9.022 0 0 0 3.878 5.32l1.749-2.2c-3.116-1.782-4.227-5.362-4.218-8.917zm27.472-2.992V3.666h-2.983v1.74h-4.624v2.171h12.2V5.406zm9.116 4.541v-6.1h-2.991v14.494h2.992V12.4h2.735V9.948zm-3.981 5.07c-1.633.2-3.381.34-5.13.423v-1.1c2.271-.34 3.7-1.467 3.7-3.091-.008-1.972-2.08-3.191-5.221-3.182-3.157-.008-5.238 1.21-5.229 3.182-.008 1.641 1.442 2.776 3.762 3.1v1.2c-1.848.05-3.622.058-5.188.058l.307 2.312a79.952 79.952 0 0 0 13.21-.845zm-9.017-3.771c-.008-.82.854-1.193 2.37-1.193 1.5 0 2.354.373 2.362 1.193-.008.779-.862 1.235-2.362 1.227-1.52.008-2.382-.447-2.374-1.226zM513.79 21.5v3.663h2.992v-5.975H502.2V21.5zm21.547-17.652V19.18h3V3.848zm-2.867 6.729c0-3.124-2.552-5.378-5.826-5.378s-5.843 2.254-5.834 5.378c-.008 3.174 2.561 5.412 5.834 5.412s5.826-2.238 5.826-5.412zm-8.735 0a2.895 2.895 0 0 1 5.785 0 2.893 2.893 0 0 1-5.785 0zm3.331 7.052h-3.025v7.16H538.9v-2.411h-11.834z" transform="translate(30 50)"/>
        </g>
        <g id="fc_box_medium-8" data-name="fc_box_medium" transform="translate(406 1918)">
            <g transform="translate(-114 -640)" style="filter:url(#box-10)">
                <g id="box-22" data-name="box" class="cls-2">
                    <path class="cls-10" d="M0 0h253v130H0z" transform="translate(114 640)"/>
                    <path class="cls-11" d="M1 1h251v128H1z" transform="translate(114 640)"/>
                </g>
            </g>
            <path id="패스_11352" data-name="패스 11352" class="cls-3" d="M58.9 10.029a16.436 16.436 0 0 0 .511-4.751V3.82H47v1.955h9.91a15.723 15.723 0 0 1-.456 4.019zM53.7 7.84h-2.462v3.122h-6.05v2.01h16.139v-2.01H53.7zm-.546 6.25c-3.854.007-6.34 1.236-6.34 3.363 0 2.1 2.486 3.349 6.34 3.343 3.881.007 6.333-1.243 6.347-3.343-.011-2.127-2.462-3.353-6.344-3.363zm0 4.814c-2.445-.007-3.854-.483-3.84-1.45-.014-.981 1.4-1.506 3.84-1.506s3.867.525 3.874 1.506S55.6 18.9 53.157 18.9zm23.2-8.923a21.385 21.385 0 0 0 .421-4.814V3.738h-12.34v2H74.3a21.577 21.577 0 0 1-.407 4.247H62.446v1.982H78.7V9.981zm-9.523 5.055v-1.9h-2.444V20.6h12.32v-7.463h-2.465v1.9zm0 3.55v-1.651h7.4v1.651zm26.92-8.778v-6.8h-2.486V20.8h2.493v-8.913h2.624V9.808zM86.3 6.769h3.577V4.732h-9.848v2.037h3.764v1.092c-.014 2.942-1.506 6.25-4.468 7.631l1.45 1.968a8.811 8.811 0 0 0 4.309-5.311A8.348 8.348 0 0 0 89.262 17l1.388-1.954a7.91 7.91 0 0 1-4.35-7.185zm20.055 7.32h5.477v-2.023H101.39v-2h10.028V4.173H98.876v2h10.076v1.936H98.9v5.981h4.986v2.686h-6.854v2.037h16.257v-2.037h-6.934zM126.141 3.71v2.044h-7.472V3.71h-2.459v7.845h12.424V3.71zm-7.472 5.856V7.709h7.472v1.857zm-4.369 3.709v1.954h6.844V20.8h2.465v-5.571h6.948v-1.954zM144.145 9.3h-3.122v2h3.122v9.544h2.465V3.012h-2.465zm-9.227 2.12h5.173V9.47h-5.173V6.521h5.822v-2.01h-8.315v12.3h1.416a51.381 51.381 0 0 0 7.97-.49l-.249-2a43.343 43.343 0 0 1-6.644.456zM47.381 45.05h3.4v1.423h2.5V33.04h-2.5v10.311h-3.4zm-3.446-5.083c2.59 0 4.434-1.229 4.441-3.135s-1.851-3.2-4.441-3.191c-2.638-.007-4.468 1.3-4.468 3.191s1.833 3.135 4.467 3.135zm0-4.5c1.2 0 2.065.483 2.072 1.367-.007.863-.87 1.333-2.072 1.333-1.264 0-2.113-.47-2.106-1.333-.008-.886.842-1.37 2.105-1.37zm-1.022 10.58h2.5v-3.38a50.54 50.54 0 0 0 4.3-.5l-.145-1.789a102.415 102.415 0 0 1-11.416.546l.3 1.968c1.354 0 2.873-.014 4.468-.076v2.369h-2.501v5.311h13.253v-2.01h-10.76zm14.606-12.254v6.561h12.154v-6.561zm2.438 4.62v-2.68h7.265v2.68zm-4.457 5.38h7.1v3.066h2.465v-3.066h6.685V41.8H55.5zm1.9 1.519v5.18h12.563v-2.01H59.887v-3.17zM88.575 38.9c-.041-2.507-2.106-4.24-5.242-4.24-3.087 0-5.359 1.706-5.345 4.268-.007 2.086 1.464 3.273 3.847 3.854l1.547.38c1.54.38 2.41.829 2.417 1.789-.007 1.064-1 1.775-2.541 1.775-1.561 0-2.693-.711-2.79-2.134h-2.853c.083 3.025 2.265 4.606 5.677 4.606 3.446 0 5.463-1.651 5.477-4.233-.014-2.362-1.816-3.6-4.233-4.144l-1.278-.311c-1.222-.283-2.279-.739-2.258-1.775 0-.932.829-1.616 2.314-1.616 1.436 0 2.327.656 2.438 1.782zm7.148-4.047h-5.034V49h4.986c4.309 0 6.913-2.666 6.913-7.086s-2.604-7.058-6.865-7.058zm-2.1 11.623v-9.1h1.941c2.673 0 4.088 1.388 4.088 4.537 0 3.17-1.416 4.565-4.1 4.565zm21.568-7.576c-.041-2.507-2.106-4.24-5.242-4.24-3.087 0-5.359 1.706-5.345 4.268-.007 2.086 1.464 3.273 3.847 3.854l1.547.38c1.54.38 2.41.829 2.417 1.789-.007 1.064-1 1.775-2.541 1.775-1.561 0-2.693-.711-2.79-2.134h-2.852c.083 3.025 2.265 4.606 5.677 4.606 3.446 0 5.463-1.651 5.477-4.233-.014-2.362-1.816-3.6-4.233-4.144l-1.278-.311c-1.222-.283-2.279-.739-2.258-1.775 0-.932.829-1.616 2.314-1.616 1.436 0 2.327.656 2.438 1.782zm12.673-4.565v-1.45h-2.486v1.45h-3.854v1.809h10.166v-1.806zm7.6 3.785v-5.08h-2.493v12.079h2.493v-4.952h2.279v-2.044zm-3.322 4.227a58.668 58.668 0 0 1-4.275.352v-.919c1.892-.283 3.08-1.222 3.087-2.576-.007-1.644-1.733-2.659-4.351-2.652s-4.365 1.008-4.358 2.652c-.007 1.367 1.2 2.314 3.135 2.583v1c-1.54.041-3.018.048-4.323.048l.256 1.927a66.627 66.627 0 0 0 11.008-.7zm-7.514-3.142c-.007-.684.711-.994 1.975-.994s1.961.311 1.968.994c-.007.649-.718 1.029-1.968 1.022s-1.985-.371-1.978-1.02zm8.343 8.543V50.8h2.493v-4.977h-12.151v1.927zm14.9-4.337H153v-9.259h-2.486v2.769h-7.749v-2.769h-2.5v9.261h5.138v3.294h-6.858v2.023H154.8v-2.023h-6.934zm2.645-4.517v2.528h-7.749V38.9z" transform="translate(30 38.001)"/>
        </g>
        <g id="fc_box_medium-9" data-name="fc_box_medium" transform="translate(406 2098)">
            <g transform="translate(-114 -820)" style="filter:url(#box-11)">
                <g id="box-23" data-name="box" class="cls-2">
                    <path class="cls-10" d="M0 0h253v130H0z" transform="translate(114 820)"/>
                    <path class="cls-11" d="M1 1h251v128H1z" transform="translate(114 820)"/>
                </g>
            </g>
            <path id="패스_11353" data-name="패스 11353" class="cls-3" d="M38.734 15.05h3.4v1.423h2.5V3.04h-2.5v10.311h-3.4zm-3.446-5.083c2.59 0 4.434-1.229 4.441-3.135s-1.851-3.2-4.441-3.191c-2.638-.007-4.468 1.3-4.468 3.191s1.83 3.135 4.468 3.135zm0-4.5c1.2 0 2.065.483 2.072 1.367-.007.863-.87 1.333-2.072 1.333-1.264 0-2.113-.47-2.106-1.333-.007-.886.842-1.37 2.106-1.37zm-1.022 10.58h2.5v-3.38a50.54 50.54 0 0 0 4.3-.5l-.145-1.789a102.415 102.415 0 0 1-11.421.542l.3 1.968c1.354 0 2.873-.014 4.468-.076v2.369h-2.495v5.311h13.253v-2.01h-10.76zM48.872 3.793v6.561h12.155V3.793zm2.438 4.62v-2.68h7.265v2.68zm-4.461 5.38h7.106v3.066h2.465v-3.066h6.685V11.8H46.849zm1.906 1.519v5.18h12.562v-2.01H51.241v-3.17zM79.929 8.9c-.041-2.507-2.106-4.24-5.242-4.24-3.087 0-5.359 1.706-5.345 4.268-.007 2.086 1.464 3.273 3.847 3.854l1.547.38c1.54.38 2.41.829 2.417 1.789-.007 1.064-1 1.775-2.541 1.775-1.561 0-2.693-.711-2.79-2.134h-2.853c.083 3.025 2.265 4.606 5.677 4.606 3.446 0 5.463-1.651 5.477-4.233-.014-2.362-1.816-3.6-4.233-4.144l-1.278-.311c-1.222-.283-2.279-.739-2.258-1.775 0-.932.829-1.616 2.314-1.616 1.436 0 2.327.656 2.438 1.782zm7.148-4.047h-5.035V19h4.986c4.309 0 6.913-2.666 6.913-7.086s-2.603-7.058-6.864-7.058zm-2.1 11.623v-9.1h1.941c2.673 0 4.088 1.388 4.088 4.537 0 3.17-1.416 4.565-4.1 4.565zM106.545 8.9c-.041-2.507-2.106-4.24-5.242-4.24-3.087 0-5.359 1.706-5.345 4.268-.007 2.086 1.464 3.273 3.847 3.854l1.547.38c1.54.38 2.41.829 2.417 1.789-.007 1.064-1 1.775-2.541 1.775-1.561 0-2.693-.711-2.79-2.134h-2.853c.083 3.025 2.265 4.606 5.677 4.606 3.446 0 5.463-1.651 5.477-4.233-.014-2.362-1.816-3.6-4.233-4.144l-1.278-.311c-1.222-.283-2.279-.739-2.258-1.775 0-.932.829-1.616 2.314-1.616 1.436 0 2.327.656 2.438 1.782zm12.583-4V3.012h-2.486V4.9H112.6v1.966h10.552V4.9zm7.583-1.865h-2.5v13.279h2.5v-5.78h2.389V8.489h-2.389zm-8.826 11.291c2.569.007 4.372-1.347 4.372-3.391 0-2.065-1.8-3.446-4.372-3.446-2.6 0-4.42 1.381-4.413 3.446-.007 2.05 1.816 3.403 4.413 3.396zm-1.985-3.385c0-.994.794-1.54 1.989-1.547s2 .552 2.01 1.547c-.007.974-.822 1.5-2.01 1.5s-1.989-.527-1.989-1.5zm-.718 4.344v5.207h12.168v-2.01h-9.682v-3.2zm30.981-5.359h-2.286a23.384 23.384 0 0 0 .366-4.731v-1.4H131.89v1.987h9.855a21.162 21.162 0 0 1-.38 4.144H129.9v2h6.844v2.544h-5.214v1.954h10.214V20.8h2.5v-6.33h-5v-2.549h6.913zm13.564-.483h-3.094c-.345-3.2-2.141-5.173-4.537-5.173-2.7 0-4.627 2.459-4.62 6.326-.007 3.909 1.92 6.354 4.62 6.354 2.472 0 4.309-2.1 4.565-5.511h3.066v9.406h2.465V3.012h-2.465zm-7.631 5.249c-1.326 0-2.238-1.436-2.231-4.1-.007-2.631.9-4.075 2.231-4.075s2.231 1.443 2.238 4.075c-.013 2.662-.904 4.099-2.244 4.099zM17.37 39.746v6.4h2.486V33.04H17.37v4.71H14.1V34.2h-2.469v2.728H8.13V34.2h-2.5v9.144h8.47v-3.6zm-9.24 1.637V38.82h3.5v2.562zm2.41 3.46H8.019v5.649h12.217v-2.01h-9.7zm24.123-9.434h-3.985a4.787 4.787 0 0 0-3.557-1.436 4.4 4.4 0 1 0 0 8.771 4.807 4.807 0 0 0 3.564-1.464h3.978v2.25h2.486V33.012h-2.486zm-7.541 5.221a2.281 2.281 0 1 1 0-4.558 2.28 2.28 0 1 1 0 4.558zm4.6-1.347a4.391 4.391 0 0 0 .007-1.865h2.935v1.865zm2.942 7.01V50.8h2.486v-6.469H24.932v1.961zM53.4 34.863V33h-2.466v1.865h-6.085v2h14.593v-2zm-1.23 8.778c3.826 0 6.126-1.077 6.133-3.032-.003-1.982-2.303-3.052-6.133-3.052s-6.139 1.07-6.133 3.052c-.007 1.955 2.3 3.032 6.133 3.032zm0-4.24c2.355 0 3.536.387 3.55 1.209-.014.8-1.195 1.188-3.55 1.181-2.376.007-3.55-.38-3.543-1.181-.007-.823 1.167-1.21 3.543-1.21zm-8.094 5.11v2.017h6.858v4.289H53.4v-4.289h6.934v-2.017zm34.91 6.289h2.355V33.012h-2.355zm-5.953-11.683v2h2.341v8.854h2.334V33.309h-2.334v5.808zM71.6 36.831h2.7v-2h-8.014v2H69.2v.946c0 3.025-.974 6.215-3.591 7.831l1.506 1.837A8.275 8.275 0 0 0 70.43 42.6a7.518 7.518 0 0 0 3.232 4.434l1.457-1.83c-2.6-1.485-3.522-4.468-3.515-7.431zm13.025 3.287c3.322-.173 5.608-1.008 6.727-2.341 1.126 1.333 3.419 2.169 6.713 2.341l.732-1.837c-3.591-.152-5.4-1-5.9-2.03h5.021v-1.844h-5.327v-1.4h-2.472v1.4h-5.29v1.844h4.979c-.518 1.029-2.32 1.878-5.863 2.03zm14.82.477H83.309v1.816h6.823v1.119h-4.986v1.782h9.9v.888H85.16v4.482h12.811v-1.841H87.6v-.974h9.9V43.53h-4.9v-1.118h6.851zm2.072 6.954-.967 5.559h2.065l1.685-5.558zM123.3 50.8h2.355V33.012H123.3zm-5.953-11.685v2h2.341v8.854h2.334v-16.66h-2.334v5.808zm-1.43-2.286h2.693v-2h-8.01v2h2.914v.946c0 3.025-.974 6.215-3.591 7.831l1.506 1.837a8.275 8.275 0 0 0 3.315-4.841 7.518 7.518 0 0 0 3.232 4.434l1.457-1.83c-2.6-1.485-3.522-4.468-3.515-7.431zm25.421 3.2a16.435 16.435 0 0 0 .511-4.751V33.82h-12.41v1.954h9.91a15.723 15.723 0 0 1-.456 4.019zm-5.2-2.189h-2.465v3.122h-6.05v2.01h16.139v-2.01h-7.624zm-.546 6.25c-3.854.007-6.34 1.236-6.34 3.363 0 2.1 2.486 3.349 6.34 3.343 3.881.007 6.333-1.243 6.347-3.343-.018-2.127-2.469-3.353-6.351-3.363zm0 4.814c-2.445-.007-3.854-.483-3.84-1.45-.014-.981 1.4-1.506 3.84-1.506s3.867.525 3.874 1.506-1.433 1.446-3.878 1.446zm10.238-1.354-.967 5.559h2.065l1.685-5.559zm21.126-14.537v17.831h2.521V33.012zm-11.471 1.43V46.68h8.778V34.442h-2.452v4.316h-3.833v-4.316zm2.493 6.257h3.833v3.957h-3.833zm26.271 10.1h2.493V33.012h-2.493zm-5.407-12.9h3.688v-1.98h-3.7v-2.5h-2.479v2.5h-3.771v1.98h3.785v.691a7.6 7.6 0 0 1-4.378 6.975l1.333 1.913a8.106 8.106 0 0 0 4.316-4.848 7.975 7.975 0 0 0 4.282 4.572l1.34-1.906a7.283 7.283 0 0 1-4.413-6.706zM72.591 63.012v17.832h2.479V63.012zm-6.706 1.195c-2.8 0-4.938 1.816-4.931 4.365s2.134 4.365 4.931 4.365c2.831 0 4.924-1.809 4.938-4.365-.014-2.549-2.106-4.365-4.938-4.365zm0 2.155a2.228 2.228 0 1 1 0 4.42 2.223 2.223 0 1 1 0-4.42zM60.5 77.2a60.177 60.177 0 0 0 11.271-.8l-.186-1.8a86.45 86.45 0 0 1-11.367.573zm18.831-13.31v7.162h12.4V63.89zm2.445 5.21v-3.235h7.472V69.1zm-4.365 3.86v2h6.844v5.815h2.465V74.96h6.948v-2zm36.029-9.952h-2.5v9.061h2.5V68.5h2.389v-2.021h-2.389zm-7.459.808v2.106h-3.646V63.82h-2.472v7.756h8.6V63.82zm-3.646 5.8V67.8h3.646v1.823zm11.1 7.942v-4.829h-11.8v1.927h9.309v1.119h-9.282v4.9h12.279v-1.958h-9.82v-1.153zm16.1-8.163v4.51h2.365V63.04h-2.362v4.337h-1.492v-4.026h-2.314v10h2.314V69.4zm-8.4.47a5.767 5.767 0 0 0 3.2 2.942l1.326-1.906a4.884 4.884 0 0 1-3.349-4.71V64.1h-2.424v2.1a5.646 5.646 0 0 1-3.508 5.256l1.34 1.927a6.349 6.349 0 0 0 3.421-3.513zm4.682 4.282c-3.764 0-6.16 1.243-6.146 3.315-.014 2.072 2.383 3.336 6.146 3.329s6.16-1.257 6.167-3.329-2.411-3.31-6.161-3.31zm0 4.765c-2.327.007-3.667-.483-3.66-1.45s1.333-1.457 3.66-1.45 3.653.5 3.66 1.45-1.34 1.462-3.654 1.455z" transform="translate(30 23.284)"/>
        </g>
        <g id="fc_box_big_no_btn" transform="translate(406 2278)">
            <g transform="translate(-114 -1000)" style="filter:url(#box-12)">
                <g id="box-24" data-name="box" class="cls-2">
                    <path class="cls-10" d="M0 0h538v130H0z" transform="translate(114 1000)"/>
                    <path class="cls-11" d="M1 1h536v128H1z" transform="translate(114 1000)"/>
                </g>
            </g>
            <path id="패스_11355" data-name="패스 11355" class="cls-3" d="M95.787 17.9a50.7 50.7 0 0 0 .854-10.21V5.671H81.077V8.05h12.564a46.224 46.224 0 0 1-.87 9.539zM89 12.782h-2.967v7.334h-6.961v2.428H98.53v-2.428H89zm25.79-1.382c1.591-.688 2.494-1.757 2.5-3.149-.008-2.569-3.033-4.11-7.757-4.119-4.74.008-7.773 1.55-7.765 4.119-.008 1.367.878 2.436 2.428 3.124v2.569h-4.373v2.387h19.459v-2.389h-4.492zm-5.254-4.964c2.983 0 4.674.622 4.674 1.815s-1.691 1.773-4.674 1.773c-3.008 0-4.674-.588-4.657-1.773-.017-1.196 1.649-1.817 4.657-1.817zm-2.312 5.71a18.3 18.3 0 0 0 2.312.133 17.858 17.858 0 0 0 2.279-.133v1.8h-4.591zm2.287 5.3c-4.666-.008-7.467 1.367-7.467 3.837 0 2.5 2.8 3.862 7.467 3.854 4.616.008 7.417-1.351 7.434-3.854-.017-2.476-2.818-3.852-7.434-3.844zm0 5.461c-2.95.008-4.434-.547-4.417-1.624-.017-1.069 1.467-1.566 4.417-1.583 2.9.017 4.425.514 4.434 1.583-.009 1.071-1.533 1.626-4.434 1.617zm22.3-7.467h6.149v-2.4H125.8V5.464h-3.05v9.97h6.05v4.889h-8.229v2.4h19.508v-2.4h-8.271zm20.735-3.365h6.041V9.724h-11.924V7.1h11.818V4.768h-14.8v7.3h5.934v1.823h-8.287v2.37h19.492v-2.37h-8.271zm-1.533 5.254c-4.657 0-7.467 1.409-7.467 3.945 0 2.494 2.809 3.912 7.467 3.92 4.633-.008 7.417-1.425 7.434-3.92-.016-2.542-2.801-3.951-7.433-3.951zm0 5.577c-2.95.008-4.434-.522-4.417-1.633-.017-1.1 1.467-1.666 4.417-1.666 2.9 0 4.425.564 4.434 1.666-.008 1.105-1.533 1.636-4.433 1.627zm25.244-18.254V7.1h-8.967V4.652h-2.95v9.414h14.909V4.652zm-8.967 7.028V9.45h8.967v2.23zm-5.238 4.45v2.345h8.213v6.688h2.959v-6.688h8.337V16.13zm43.028 1.77a50.7 50.7 0 0 0 .854-10.21V5.671H190.37V8.05h12.564a46.223 46.223 0 0 1-.87 9.539zm-6.787-5.122h-2.967v7.334h-6.961v2.428h19.459v-2.424h-9.53zm25.649 12.431h3.025V3.815h-3.025zM217.42 5.464h-3.033v3.191c-.017 4.144-1.823 8.229-5.552 9.8l1.807 2.486a10.247 10.247 0 0 0 5.3-6.389 9.946 9.946 0 0 0 5.1 5.867l1.765-2.4c-3.63-1.525-5.4-5.453-5.387-9.373zm28.069 19.7h2.859V3.815h-2.859zm-6.149-13.45c-.323-3.97-2.088-6.365-4.657-6.365-2.809 0-4.641 2.942-4.633 7.707-.008 4.807 1.823 7.765 4.633 7.757 2.635.008 4.425-2.528 4.682-6.713h1.715v10.077h2.826V4.146h-2.826v7.566zm-4.657 6.232c-1.193.008-1.9-1.6-1.881-4.889-.017-3.257.688-4.89 1.881-4.881 1.235-.008 1.964 1.624 1.964 4.881-.001 3.288-.73 4.896-1.965 4.888zm38.726-6.146V3.765h-2.992v21.4h2.992V14.29h2.569V11.8zm-13.848-3.444h2.552v-2.4h-5.536v13.961h1.069a24.681 24.681 0 0 0 4.832-.348l-.24-2.453a19.918 19.918 0 0 1-2.677.323zm6.613 0h2.818v-2.4h-5.76v13.961h1.119a19.437 19.437 0 0 0 5.18-.4l-.224-2.453a13.077 13.077 0 0 1-3.133.39zm13.135-.282v5.909h15.116v-2.245h-12.14v-1.525h11.751v-5.9h-14.76v2.311h11.76v1.45zm-2.428 9.68h19.508v-2.4h-19.508zm2.461 1.177v5.859H294.5v-2.412h-12.166v-3.447zm32.569-2.32h3.671c-.05 2.138-1.5 3.5-3.9 3.5-2.71 0-4.442-2.022-4.442-5.61 0-3.564 1.782-5.577 4.4-5.577a3.488 3.488 0 0 1 3.6 2.577h3.588c-.472-3.348-3.423-5.7-7.251-5.7-4.475 0-7.914 3.232-7.914 8.735 0 5.37 3.224 8.7 7.989 8.7 4.276 0 7.334-2.71 7.334-7.169v-2.125h-7.077zM325.1 23v-7.036h7.351V23h3.53V6.028h-3.53v7.028H325.1V6.028h-3.522V23zm26.329-12.116c-.05-3.008-2.528-5.088-6.29-5.088-3.7 0-6.431 2.047-6.414 5.122-.008 2.5 1.757 3.928 4.616 4.624l1.856.456c1.848.456 2.892.994 2.9 2.146-.008 1.276-1.2 2.13-3.05 2.13-1.873 0-3.232-.854-3.348-2.561h-3.423c.1 3.63 2.718 5.528 6.812 5.528 4.135 0 6.555-1.981 6.572-5.08-.017-2.834-2.18-4.318-5.08-4.972l-1.533-.373c-1.467-.34-2.735-.887-2.71-2.13 0-1.119.994-1.939 2.776-1.939 1.724 0 2.793.787 2.925 2.138zm22.268-1.972h-3.8v2.445h3.8v4.417h2.983V3.848h-2.983zm-3.936-3.837h-9.8v2.378h6.588c-.481 2.876-3.124 5.229-7.749 6.472l1.185 2.329c6.25-1.74 9.772-5.602 9.772-11.179zm6.92 19.823v-8.271H362.53V24.9zm-2.967-5.925v3.58h-8.246v-3.58zm16.981-2.2h6.149v-2.37H384.79v-2.226h11.378V9.831H384.79V7.7h11.884V5.3h-14.917v11.476h5.925v3.6h-8.229v2.4h19.508v-2.4h-8.271z" transform="translate(30 34)"/>
            <g id="fc_textlink" transform="translate(180.143 78)">
                <g id="stack" transform="translate(-2318.236)">
                    <g id="ico_fc_pdf" transform="translate(2569.718)">
                        <g id="그룹_1025" data-name="그룹 1025" transform="translate(4 4)">
                            <path id="패스_6892" data-name="패스 6892" class="cls-7" d="M1108.592 1130.5h7.714l4.286 4.286v7.714h-12z" transform="translate(-1108.592 -1130.5)"/>
                            <path id="패스_6891" data-name="패스 6891" class="cls-7" d="M1052.728 2115.047v5h5" transform="translate(-1045.728 -2115.047)"/>
                        </g>
                    </g>
                    <path id="패스_11356" data-name="패스 11356" d="M-159.7 1.326h1.409v-14h-1.409zm-5.011-9.039v1.2h2.182V.619h1.4v-12.995h-1.4v4.663zm-1.37-2.177h2.414v-1.21h-6.409v1.21h2.564v1.122c0 2.492-1.011 5.039-2.994 6.243l.917 1.1a7.059 7.059 0 0 0 2.812-4.243 6.514 6.514 0 0 0 2.746 3.917l.884-1.094a6.7 6.7 0 0 1-2.934-5.923zm10.845 1.525v1.21h10.276v-1.21h-1.978v-2.674h2.039v-1.2h-10.4v1.2h2.044v2.674zm3.459 0v-2.674h3.354v2.674zm8.077 2.392h-12.762v1.193h5.641v1.5h-4.11v4.429h9.674v-4.425h-4.1v-1.5h5.657zm-9.768 5.917V-2.11h6.768v2.055zm21.028-7v1.663h1.47v-7.282h-1.47v1.928h-3.06v-1.293h-1.47v1.89h-3.508v-1.89h-1.486v6.133h6.464v-1.148zm0-1.149h-3.06v-1.4h3.061zm-8.039 1.116V-9h3.508v1.912zm1.856 5.768h7.652v-3.447h-9.155V-3.6h7.685v1.166h-7.657v3.583h9.624V-.039h-8.149zm23.878 2.646h1.492v-14h-1.492zm-9.331-12.492v1.182h5.149c-.293 3.265-2.1 5.79-5.829 7.558l.785 1.2c4.807-2.293 6.547-5.845 6.558-9.939zm14.276 4.758c2.4-.337 4.359-1.459 5.116-3.039.757 1.58 2.729 2.7 5.127 3.039l.564-1.193c-2.608-.315-4.624-1.669-4.7-3.2h4.249v-1.21h-10.448v1.21h4.227c-.083 1.53-2.077 2.89-4.685 3.2zm5.845-1.006h-1.459v2.2h-5.641V-4h12.785v-1.21h-5.685zm-5.492 4.459v3.995h9.718V-.177h-8.227v-2.779zm26.3 4.287h1.459v-13.994h-1.459zm-8.956-7.05a5 5 0 0 0 3.464-2.42 5.092 5.092 0 0 0 3.414 2.227l.6-1.16c-2.039-.425-3.293-1.575-3.293-2.9v-.006h3.006v-1.16h-3.006v-1.5h-1.481v1.5H-92.4v1.16h3v.006c0 1.4-1.254 2.652-3.32 3.088zm7.983.448a74.674 74.674 0 0 1-9.215.409l.193 1.238c1.127 0 2.409-.011 3.757-.061V.906h1.486v-4.668a38.3 38.3 0 0 0 3.884-.431zm15.453-1.762a16.841 16.841 0 0 0 .37-3.961v-1.061h-9.586v1.21h8.11a17.134 17.134 0 0 1-.354 3.812h-9.359v1.21h12.812v-1.21zm-7.735 4.088V-4.68h-1.464v5.829h9.541V-4.68h-1.47v1.735zm0 2.884V-1.79h6.608v1.729zm12.381-12.166v4.315h9.486v-4.315zm1.453 3.149v-1.978h6.552v1.978zm9.68 2.2h-12.753V-5.7h5.619v1.23h-4.1v1.133h8.166v1.072h-8.138v3.458h10V.044h-8.547v-1.232h8.141V-4.47h-4.039V-5.7h5.657zm14.111-3.707h-2.039v-2.077h-1.486V-4.2h1.486v-2.192h2.039V-7.63h-2.039v-1.713h2.039zm-4.79 3.961a34.314 34.314 0 0 1-6.193.431V-7.9h4.878v-3.906h-6.381v1.193h4.928v1.58h-4.9v4.072h1.135a35.674 35.674 0 0 0 6.7-.459zm-1.79 2.762c-2.912.006-4.7.972-4.7 2.6S-48.26 1.3-45.348 1.3c2.878 0 4.669-.934 4.669-2.558s-1.791-2.598-4.669-2.604zm0 4.022c-2.044.011-3.249-.514-3.238-1.42-.005-.911 1.203-1.44 3.247-1.44s3.215.525 3.215 1.436S-43.315.171-45.348.16zm17.47-12.834V1.354h1.487v-14.028zm-5.536.994c-2.2 0-3.823 1.37-3.812 3.337-.011 1.972 1.608 3.337 3.812 3.337s3.8-1.365 3.812-3.337c-.002-1.966-1.589-3.337-3.803-3.337zm0 1.287a2.133 2.133 0 0 1 2.365 2.05 2.13 2.13 0 0 1-2.365 2.05 2.107 2.107 0 0 1-2.348-2.05 2.11 2.11 0 0 1 2.357-2.049zm-4.3 8.735a49.623 49.623 0 0 0 9.077-.619l-.116-1.083a66.294 66.294 0 0 1-9.138.46zm24.591-4.492h4.193V-7.3H-17.1v-1.313h7.713v-1.122H-17.1v-1.276h8.072v-1.16h-9.564v6.022h3.978v1.331h-5.646v1.21h12.79v-1.21h-5.657zm-5.5 3.4v3.789H-8.8V-.177h-8.36v-2.569zM-.006-9.459a7.185 7.185 0 0 0 5.2 3.2l.591-1.21C3.033-7.834.762-9.58.762-11.442v-.758H-.785v.762c0 1.884-2.265 3.608-5.011 3.978l.6 1.21a7.151 7.151 0 0 0 5.19-3.209zM-6.4-4.878v1.227h5.621v4.977H.68v-4.978h5.685v-1.226zM17.624-9.2h-3.06v-2.68h-1.47v2.11H9.586v-2.11H8.1v6.6h6.464v-2.7h3.061v3.414H19.1v-8.116h-1.476zM9.586-6.475V-8.6h3.508v2.122zM19.1 1.149v-5.055H9.862v5.055zm-1.448-3.873v2.669h-6.3v-2.669zm13.79 4.055H32.9v-13.994h-1.458zm-5.58-7.558c2.11.011 3.63-1.182 3.63-2.9s-1.519-2.912-3.63-2.9c-2.1-.011-3.619 1.171-3.613 2.9s1.508 2.912 3.613 2.9zm0-4.6c1.3-.011 2.221.674 2.221 1.7s-.917 1.691-2.221 1.68c-1.271.011-2.188-.663-2.177-1.68-.011-1.022.906-1.707 2.177-1.696zm4.608 5.175a66.685 66.685 0 0 1-9.215.508l.193 1.238c1.11-.006 2.4-.017 3.757-.077V.9h1.486v-4.966a35.5 35.5 0 0 0 3.884-.481zm15.248 6.978h1.425v-14h-1.425zM41.3-7.309c-.177-2.63-1.331-4.243-3.033-4.243-1.823 0-3.011 1.9-3.011 4.923 0 3.044 1.188 4.95 3.011 4.945 1.735.006 2.9-1.685 3.039-4.42h1.575V.635H44.3V-12.4h-1.416v5.094zM38.271-3.1c-1.006.011-1.641-1.3-1.63-3.53-.011-2.227.624-3.53 1.63-3.53 1.033 0 1.674 1.3 1.674 3.53S39.3-3.088 38.271-3.1zM64-7.26v-5.44h-1.481V1.326H64v-7.337h1.928V-7.26zm-9.3-2.757h2.11v-1.21h-3.595v8.956h.646a14.9 14.9 0 0 0 3.2-.276l-.133-1.227a12.9 12.9 0 0 1-2.232.26zm4.354 0h2.282v-1.21h-3.75v8.956h.691a13.582 13.582 0 0 0 3.558-.309L61.7-3.807a11.244 11.244 0 0 1-2.652.3zm9.246.277v3.6h9.84v-1.142h-8.37v-1.37h8.083v-3.6h-9.588v1.171h8.11v1.341zm-1.643 5.967H79.47v-1.2H66.657zm1.674.989v3.823h9.829V-.177h-8.337v-2.608zm19.221-4.862v-1.227h7.713v-1.133h-7.713v-1.144h8.072v-1.166h-9.563V-6.5h9.657v-1.146zm-3.16 3.514h12.79v-1.177h-12.79zm9.657 2.4v3.058h1.5v-4.243h-9.715v1.188zm14.8 3.055h1.409v-14h-1.409zm-4.584-10.406v1.2h1.757v2.271h-1.757V-4.4h1.757V.608h1.409v-13.017h-1.409v3.326zm-4.138 2.917h3.4v-5.022h-4.853v1.2h3.414v2.635H98.7v5.359h.9a28.492 28.492 0 0 0 4.945-.376l-.116-1.215a27.82 27.82 0 0 1-4.3.359zm22.1 7.492h1.492v-14h-1.492zM112.9-11.166v1.182h5.149c-.293 3.265-2.1 5.79-5.829 7.558l.785 1.2c4.807-2.293 6.547-5.845 6.558-9.939zm24.022-1.508h-1.5V-2.5h1.5v-4.8h2.028v-1.236h-2.028zm-3.8 1.066h-6.63v1.232h5.017c-.287 2.3-2.32 4.171-5.6 5.155l.63 1.182c4.085-1.232 6.583-3.895 6.583-7.569zm-5.088 8.066v4.58h9.47V-.177h-7.978v-3.364zm20.674-7.934v-1.309h-1.481v1.309h-3.3v1.11H152v-1.11zm5.967 2.967v-4.155h-1.481v9.425h1.481v-4.037h1.994v-1.232zM152.4-5.215a42.967 42.967 0 0 1-3.691.331v-.9c1.58-.177 2.569-.928 2.58-2.05-.011-1.282-1.326-2.077-3.337-2.066-2.006-.011-3.337.785-3.326 2.066-.011 1.133 1.006 1.878 2.6 2.05v.95c-1.315.033-2.575.039-3.663.039l.166 1.188a52.729 52.729 0 0 0 8.785-.558zm-6.359-2.613c-.006-.674.724-1.061 1.912-1.05 1.188-.011 1.917.376 1.917 1.05 0 .652-.729 1.088-1.917 1.077-1.191.011-1.92-.426-1.914-1.078zm7.155 6.414v2.74h1.481v-3.912h-9.365v1.171zm14.431-11.249v10.177h1.486v-10.177zm-6.116 7.9a3.486 3.486 0 0 0 3.718-3.481 3.493 3.493 0 0 0-3.718-3.464 3.5 3.5 0 0 0-3.729 3.464 3.5 3.5 0 0 0 3.726 3.476zm-2.276-3.481a2.135 2.135 0 0 1 2.276-2.171 2.144 2.144 0 0 1 2.265 2.171 2.145 2.145 0 0 1-2.265 2.188 2.136 2.136 0 0 1-2.279-2.193zm2.21 4.729h-1.495v4.554h9.569V-.177h-8.077zM-170.812 2h341.624v1h-341.624z" transform="translate(2395.094 15)" style="fill:#326f5e"/>
                </g>
            </g>
        </g>
        <path id="세로" class="cls-9" transform="translate(675 1508)" d="M0 0h1v50H0z"/>
        <path id="세로-2" data-name="세로" class="cls-9" transform="translate(1245 1508)" d="M0 0h1v50H0z"/>
        <path id="세로-3" data-name="세로" class="cls-9" transform="translate(675 1817)" d="M0 0h1v51H0z"/>
        <path id="세로-4" data-name="세로" class="cls-9" transform="translate(817 2048)" d="M0 0h1v230H0z"/>
        <g id="fc_yes" transform="translate(787.746 2152.21)">
            <g id="그룹_1842" data-name="그룹 1842" transform="translate(-493.746 -399.21)">
                <g id="fc_yes-2" data-name="fc_yes" transform="translate(493.746 399.21)">
                    <path id="사각형_515" data-name="사각형 515" class="cls-1" d="M0 0h60.602v22.232H0z"/>
                    <path id="패스_11354" data-name="패스 11354" class="cls-3" d="M-9.111-7.42v-5.37H-11.1V1.442h1.994v-7.2h2.1V-7.42zm-7.389-4.365c-2.177 0-3.762 1.967-3.751 5.061-.014 3.124 1.571 5.083 3.751 5.083s3.74-1.956 3.751-5.083c-.013-3.094-1.582-5.061-3.751-5.061zm0 8.337c-1.088 0-1.829-1.149-1.823-3.276-.006-2.1.735-3.26 1.823-3.26 1.116 0 1.834 1.155 1.84 3.26-.009 2.124-.727 3.276-1.84 3.276zm19.981 4.89h1.983V-12.79H3.481zm-7.238-12.867h-1.972v9.354h1.254a33.781 33.781 0 0 0 7.039-.674l-.249-1.647a34.884 34.884 0 0 1-6.072.619zM14.8-4.282c2.558-.287 4.376-1.729 4.376-3.878 0-2.337-2.293-3.89-5.359-3.89-3.05 0-5.337 1.552-5.331 3.89-.006 2.144 1.8 3.586 4.343 3.873v2.436H7.343v1.624h13.005v-1.624H14.8zM10.448-8.16c0-1.42 1.387-2.3 3.37-2.3 2.006 0 3.387.878 3.392 2.3-.006 1.5-1.387 2.343-3.392 2.348-1.984-.006-3.37-.845-3.37-2.348z" transform="translate(30.254 16.79)"/>
                </g>
            </g>
        </g>
        <path id="사각형_514" data-name="사각형 514" class="cls-9" transform="translate(532 1868)" d="M0 0h286v1H0z"/>
        <path id="세로-5" data-name="세로" class="cls-9" transform="translate(532 1869)" d="M0 0h1v50H0z"/>
        <path id="세로-6" data-name="세로" class="cls-9" transform="translate(532 2586)" d="M0 0h1v50H0z"/>
        <path id="세로-7" data-name="세로" class="cls-9" transform="translate(817 2586)" d="M0 0h1v50H0z"/>
        <path id="세로-8" data-name="세로" class="cls-9" transform="translate(1102 2586)" d="M0 0h1v50H0z"/>
        <path id="세로-9" data-name="세로" class="cls-9" transform="translate(817 1869)" d="M0 0h1v50H0z"/>
        <path id="세로-10" data-name="세로" class="cls-9" transform="translate(532 2048)" d="M0 0h1v50H0z"/>
        <path id="세로-11" data-name="세로" class="cls-9" transform="translate(532 2228)" d="M0 0h1v50H0z"/>
        <path id="세로-12" data-name="세로" class="cls-9" transform="translate(532 2408)" d="M0 0h1v50H0z"/>
        <path id="세로-13" data-name="세로" class="cls-9" transform="translate(817 2408)" d="M0 0h1v50H0z"/>
        <g id="fc_yes-3" data-name="fc_yes" transform="translate(723.431 1857.11)">
            <g id="그룹_1842-2" data-name="그룹 1842" transform="translate(-.431 -2.111)">
                <g id="fc_yes-4" data-name="fc_yes" transform="translate(.431 2.111)">
                    <path id="사각형_515-2" data-name="사각형 515" class="cls-1" d="M0 0h47v22.331H0z"/>
                    <path id="패스_11350" data-name="패스 11350" class="cls-3" d="M-8.122-11.729v-1.16h-1.988v1.16h-3.083v1.448h8.133v-1.448zM-2.044-8.7v-4.066h-1.995V-3.1h1.994v-3.966h1.824V-8.7zM-4.7-5.32a46.653 46.653 0 0 1-3.42.282v-.735C-6.608-6-5.657-6.751-5.652-7.834c-.006-1.315-1.387-2.127-3.481-2.122s-3.492.807-3.486 2.122c-.006 1.094.961 1.851 2.508 2.066v.8c-1.232.033-2.414.039-3.459.039l.2 1.541a53.3 53.3 0 0 0 8.812-.562zm-6.011-2.514c-.006-.547.569-.8 1.58-.8s1.569.249 1.575.8c-.006.519-.575.823-1.575.818s-1.587-.299-1.582-.818zM-4.039-1v2.442h1.994v-3.983h-9.718V-1zM7.884-4.47h4.1v-7.409H10v2.215H3.8v-2.215h-2v7.409h4.11v2.635H.425v1.62h13.006v-1.619H7.884zM10-8.083v2.022H3.8v-2.022z" transform="translate(23.569 16.889)"/>
                </g>
            </g>
        </g>
        <g id="fc_yes-5" data-name="fc_yes" transform="translate(574.381 1857.11)">
            <g id="그룹_1842-3" data-name="그룹 1842" transform="translate(-1.381 -2.111)">
                <g id="fc_yes-6" data-name="fc_yes" transform="translate(1.381 2.111)">
                    <path id="사각형_515-3" data-name="사각형 515" class="cls-1" d="M0 0h59.967v22.365H0z"/>
                    <path id="패스_11349" data-name="패스 11349" class="cls-3" d="M-10.442-12.79V1.475h2.017V-12.79zm-9.177 1.3v9.54h6.867v-9.541zm4.934 1.552v6.408h-2.95v-6.409zM-1.2-11.729v-1.16h-1.993v1.16h-3.083v1.448h8.132v-1.448zM4.873-8.7v-4.066H2.878V-3.1h1.995v-3.966H6.7V-8.7zM2.215-5.32a46.653 46.653 0 0 1-3.42.282v-.735C.309-6 1.26-6.751 1.265-7.834 1.26-9.149-.122-9.961-2.215-9.956s-3.492.807-3.485 2.122c-.006 1.094.961 1.851 2.508 2.066v.8c-1.232.033-2.414.039-3.459.039l.2 1.541a53.3 53.3 0 0 0 8.81-.562zM-3.8-7.834c-.006-.547.569-.8 1.58-.8s1.569.249 1.575.8c-.006.519-.575.823-1.575.818s-1.58-.299-1.58-.818zM2.878-1v2.442h1.995v-3.983h-9.718V-1zM14.8-4.47h4.1v-7.409h-1.983v2.215h-6.2v-2.215h-2v7.409h4.11v2.635H7.343v1.62h13.005v-1.619H14.8zm2.116-3.613v2.022h-6.2v-2.022z" transform="translate(29.619 16.889)"/>
                </g>
            </g>
        </g>
        <path id="사각형_8106" data-name="사각형 8106" class="cls-9" transform="translate(1102 1558)" d="M0 0h286v1H0z"/>
        <path id="세로-14" data-name="세로" class="cls-9" transform="translate(1102 1559)" d="M0 0h1v50H0z"/>
        <path id="세로-15" data-name="세로" class="cls-9" transform="translate(1102 1739)" d="M0 0h1v718H0z"/>
        <path id="세로-16" data-name="세로" class="cls-9" transform="translate(1387 1739)" d="M0 0h1v897H0z"/>
        <path id="세로-17" data-name="세로" class="cls-9" transform="translate(1387 1559)" d="M0 0h1v50H0z"/>
        <path id="다각형_11" data-name="다각형 11" class="cls-9" d="M7.5 0 15 11H0z" transform="rotate(180 341.5 782.5)"/>
        <path id="다각형_12" data-name="다각형 12" class="cls-9" d="M7.5 0 15 11H0z" transform="rotate(180 555 807.5)"/>
        <path id="다각형_13" data-name="다각형 13" class="cls-9" d="M7.5 0 15 11H0z" transform="rotate(180 697.5 807.5)"/>
        <path id="다각형_14" data-name="다각형 14" class="cls-9" d="M7.5 0 15 11H0z" transform="rotate(180 270 962)"/>
        <path id="다각형_16" data-name="다각형 16" class="cls-9" d="M7.5 0 15 11H0z" transform="rotate(180 270 1052)"/>
        <path id="다각형_17" data-name="다각형 17" class="cls-9" d="M7.5 0 15 11H0z" transform="rotate(180 270 1142)"/>
        <path id="다각형_19" data-name="다각형 19" class="cls-9" d="M7.5 0 15 11H0z" transform="rotate(180 270 1231)"/>
        <path id="다각형_22" data-name="다각형 22" class="cls-9" d="M7.5 0 15 11H0z" transform="rotate(180 270 1320.5)"/>
        <path id="다각형_20" data-name="다각형 20" class="cls-9" d="M7.5 0 15 11H0z" transform="rotate(180 412.5 1231)"/>
        <path id="다각형_23" data-name="다각형 23" class="cls-9" d="M7.5 0 15 11H0z" transform="rotate(180 412.5 1320.5)"/>
        <path id="다각형_21" data-name="다각형 21" class="cls-9" d="M7.5 0 15 11H0z" transform="rotate(180 555 1231)"/>
        <path id="다각형_24" data-name="다각형 24" class="cls-9" d="M7.5 0 15 11H0z" transform="rotate(180 555 1320.5)"/>
        <path id="다각형_25" data-name="다각형 25" class="cls-9" d="M7.5 0 15 11H0z" transform="rotate(180 697.5 1320.5)"/>
        <path id="다각형_15" data-name="다각형 15" class="cls-9" d="M7.5 0 15 11H0z" transform="rotate(180 412.5 962)"/>
        <path id="다각형_18" data-name="다각형 18" class="cls-9" d="M7.5 0 15 11H0z" transform="rotate(180 412.5 1142)"/>
    </g>
</svg>
