<svg id="flow_chart_4_3" xmlns="http://www.w3.org/2000/svg" width="1336" height="2280" viewBox="0 0 1336 2280">
    <defs>
        <filter id="다각형_3" x="390" y="274" width="556" height="278" filterUnits="userSpaceOnUse">
            <feOffset dy="3"/>
            <feGaussianBlur stdDeviation="3" result="blur"/>
            <feFlood flood-color="#111" flood-opacity=".102"/>
            <feComposite operator="in" in2="blur"/>
            <feComposite in="SourceGraphic"/>
        </filter>
        <filter id="box" x="105" y="634" width="556" height="148" filterUnits="userSpaceOnUse">
            <feOffset dy="3"/>
            <feGaussianBlur stdDeviation="3" result="blur-2"/>
            <feFlood flood-color="#111" flood-opacity=".102"/>
            <feComposite operator="in" in2="blur-2"/>
            <feComposite in="SourceGraphic"/>
        </filter>
        <filter id="box-2" x="675" y="634" width="556" height="148" filterUnits="userSpaceOnUse">
            <feOffset dy="3"/>
            <feGaussianBlur stdDeviation="3" result="blur-3"/>
            <feFlood flood-color="#111" flood-opacity=".102"/>
            <feComposite operator="in" in2="blur-3"/>
            <feComposite in="SourceGraphic"/>
        </filter>
        <filter id="area" x="105" y="2044" width="1126" height="148" filterUnits="userSpaceOnUse">
            <feOffset dy="3"/>
            <feGaussianBlur stdDeviation="3" result="blur-4"/>
            <feFlood flood-color="#111" flood-opacity=".102"/>
            <feComposite operator="in" in2="blur-4"/>
            <feComposite in="SourceGraphic"/>
        </filter>
        <filter id="area-2" x="105" y="94" width="1126" height="148" filterUnits="userSpaceOnUse">
            <feOffset dy="3"/>
            <feGaussianBlur stdDeviation="3" result="blur-5"/>
            <feFlood flood-color="#111" flood-opacity=".102"/>
            <feComposite operator="in" in2="blur-5"/>
            <feComposite in="SourceGraphic"/>
        </filter>
        <filter id="box-3" x="105" y="864" width="556" height="148" filterUnits="userSpaceOnUse">
            <feOffset dy="3"/>
            <feGaussianBlur stdDeviation="3" result="blur-6"/>
            <feFlood flood-color="#111" flood-opacity=".102"/>
            <feComposite operator="in" in2="blur-6"/>
            <feComposite in="SourceGraphic"/>
        </filter>
        <filter id="box-4" x="675" y="864" width="556" height="148" filterUnits="userSpaceOnUse">
            <feOffset dy="3"/>
            <feGaussianBlur stdDeviation="3" result="blur-7"/>
            <feFlood flood-color="#111" flood-opacity=".102"/>
            <feComposite operator="in" in2="blur-7"/>
            <feComposite in="SourceGraphic"/>
        </filter>
        <filter id="box-5" x="105" y="1324" width="1126" height="148" filterUnits="userSpaceOnUse">
            <feOffset dy="3"/>
            <feGaussianBlur stdDeviation="3" result="blur-8"/>
            <feFlood flood-color="#111" flood-opacity=".102"/>
            <feComposite operator="in" in2="blur-8"/>
            <feComposite in="SourceGraphic"/>
        </filter>
        <filter id="box-6" x="105" y="1504" width="1126" height="148" filterUnits="userSpaceOnUse">
            <feOffset dy="3"/>
            <feGaussianBlur stdDeviation="3" result="blur-9"/>
            <feFlood flood-color="#111" flood-opacity=".102"/>
            <feComposite operator="in" in2="blur-9"/>
            <feComposite in="SourceGraphic"/>
        </filter>
        <filter id="box-7" x="105" y="1864" width="1126" height="148" filterUnits="userSpaceOnUse">
            <feOffset dy="3"/>
            <feGaussianBlur stdDeviation="3" result="blur-10"/>
            <feFlood flood-color="#111" flood-opacity=".102"/>
            <feComposite operator="in" in2="blur-10"/>
            <feComposite in="SourceGraphic"/>
        </filter>
        <filter id="box-8" x="105" y="1684" width="1126" height="148" filterUnits="userSpaceOnUse">
            <feOffset dy="3"/>
            <feGaussianBlur stdDeviation="3" result="blur-11"/>
            <feFlood flood-color="#111" flood-opacity=".102"/>
            <feComposite operator="in" in2="blur-11"/>
            <feComposite in="SourceGraphic"/>
        </filter>
        <filter id="box-9" x="952" y="1094" width="184" height="148" filterUnits="userSpaceOnUse">
            <feOffset dy="3"/>
            <feGaussianBlur stdDeviation="3" result="blur-12"/>
            <feFlood flood-color="#111" flood-opacity=".102"/>
            <feComposite operator="in" in2="blur-12"/>
            <feComposite in="SourceGraphic"/>
        </filter>
        <filter id="box-10" x="770" y="1094" width="184" height="148" filterUnits="userSpaceOnUse">
            <feOffset dy="3"/>
            <feGaussianBlur stdDeviation="3" result="blur-13"/>
            <feFlood flood-color="#111" flood-opacity=".102"/>
            <feComposite operator="in" in2="blur-13"/>
            <feComposite in="SourceGraphic"/>
        </filter>
        <style>
            .cls-1{fill:#f8f8f8}.cls-7{fill:#fff}.cls-3{fill:red;opacity:0}.cls-13,.cls-4{fill:none}.cls-4{stroke:#326f5e;stroke-width:1.5px}.cls-5{fill:#326f5e}.cls-7{stroke:#999;stroke-width:2px}.cls-8{fill:#333}.cls-10{fill:#999}.cls-11{stroke:none}
        </style>
    </defs>
    <path id="bg" class="cls-1" d="M0 0h1336v2280H0z"/>
    <g id="fc_diamond_link" transform="translate(399 280)">
        <g transform="translate(-399 -280)" style="filter:url(#다각형_3)">
            <g id="다각형_3-2" data-name="다각형 3" style="fill:#fff">
                <path class="cls-11" d="M269 258.89 2.298 130 269 1.11 535.702 130 269 258.89z" transform="translate(399 280)"/>
                <path d="M269 2.221 4.596 130 269 257.779 533.404 130 269 2.221M269 0l269 130-269 130L0 130 269 0z" style="fill:#999;stroke:none" transform="translate(399 280)"/>
            </g>
        </g>
        <g id="fc_textlink" transform="translate(386 137)">
            <g id="stack" transform="translate(-2524.094 20210)">
                <g id="ico_fc_pdf" transform="translate(2474.094 -20210)">
                    <g id="그룹_1025" data-name="그룹 1025" transform="translate(-1101.5 -1126.5)">
                        <path id="패스_6892" data-name="패스 6892" class="cls-4" d="M1108.592 1130.5h7.714l4.286 4.286v7.714h-12z" transform="translate(-3.092)"/>
                        <path id="패스_6891" data-name="패스 6891" class="cls-4" d="M1052.728 2115.047v5h5" transform="translate(59.772 -984.547)"/>
                    </g>
                </g>
                <path id="패스_11153" data-name="패스 11153" class="cls-5" d="M-68.119-10.022a7.079 7.079 0 0 0 5.1 2.945l.552-1.171c-2.663-.331-4.9-1.939-4.9-3.613v-.586h-1.525v.586c0 1.707-2.227 3.282-4.923 3.613l.575 1.171a7.047 7.047 0 0 0 5.121-2.945zm-6.392 5.144h12.762v-1.183h-12.762zm6.365 1.2C-71.185-3.691-73-2.8-73-1.182c0 1.6 1.818 2.5 4.856 2.508 3.017-.011 4.829-.912 4.84-2.508-.014-1.618-1.826-2.509-4.842-2.498zm0 3.84c-2.138.011-3.359-.459-3.348-1.343-.011-.884 1.21-1.359 3.348-1.37 2.116.011 3.348.486 3.359 1.37C-64.8-.3-66.03.171-68.146.16zm17.6-12.823v10.175h1.486v-10.177zm-6.116 7.9a3.486 3.486 0 0 0 3.718-3.481 3.493 3.493 0 0 0-3.718-3.464A3.5 3.5 0 0 0-60.4-8.249a3.5 3.5 0 0 0 3.734 3.481zm-2.276-3.481a2.135 2.135 0 0 1 2.276-2.171A2.144 2.144 0 0 1-54.4-8.249a2.145 2.145 0 0 1-2.265 2.188 2.136 2.136 0 0 1-2.277-2.188zm2.21 4.729h-1.492v4.552h9.569V-.177h-8.077zm24.388 4.839h1.409v-14h-1.409zm-5.011-9.039v1.2h2.182V.619h1.4v-12.995h-1.4v4.663zm-1.37-2.177h2.414v-1.21h-6.409v1.21h2.564v1.122c0 2.492-1.011 5.039-2.994 6.243l.917 1.1a7.059 7.059 0 0 0 2.812-4.243 6.514 6.514 0 0 0 2.746 3.917l.884-1.094a6.7 6.7 0 0 1-2.934-5.923zm19.713 11.244h1.481v-14.028h-1.481zm-4.8-6.53a3.325 3.325 0 0 0 3.077-3.276c-.011-1.967-1.6-3.326-3.812-3.337-2.2.011-3.823 1.37-3.812 3.337a3.305 3.305 0 0 0 3.065 3.27v2.271c-1.354.039-2.635.044-3.74.044l.182 1.221a50.537 50.537 0 0 0 9.077-.608l-.116-1.083c-1.26.188-2.6.3-3.923.365zm-3.083-3.276a2.1 2.1 0 0 1 2.348-2.05 2.124 2.124 0 0 1 2.365 2.05A2.127 2.127 0 0 1-24.544-6.4a2.1 2.1 0 0 1-2.348-2.053zm26.126 1.33h-1.812v-5.265h-1.37V.608h1.37v-6.52h1.812v7.238H.644v-14H-.765zm-8.641-2.663h3.751v-1.2h-5.238v8.95h.928a24.775 24.775 0 0 0 5.182-.409l-.117-1.23a23.591 23.591 0 0 1-4.5.381zm22.878-2.89h-1.486v8.448h1.486v-3.685H15.5v-1.237h-2.028zM6.583-8.05a5.583 5.583 0 0 0 3.3 3.011l.79-1.166a4.588 4.588 0 0 1-3.383-4.226v-1.514H5.82v1.387a5.013 5.013 0 0 1-3.458 4.735l.8 1.177A5.766 5.766 0 0 0 6.583-8.05zM8.948-3.9c-2.906 0-4.7.961-4.7 2.591 0 1.663 1.79 2.608 4.7 2.608C11.831 1.3 13.6.359 13.6-1.3c0-1.634-1.769-2.6-4.652-2.6zm0 4.033C6.925.127 5.727-.376 5.738-1.3c-.011-.89 1.188-1.414 3.21-1.414s3.2.525 3.2 1.414c-.002.924-1.184 1.427-3.2 1.438zm22.265-12.807h-1.486v8.448h1.486v-3.686h2.027v-1.237h-2.027zm-6.89 4.624a5.583 5.583 0 0 0 3.3 3.011l.79-1.166a4.588 4.588 0 0 1-3.381-4.227v-1.514h-1.47v1.387A5.013 5.013 0 0 1 20.1-5.823l.8 1.177a5.766 5.766 0 0 0 3.423-3.404zm2.365 4.15c-2.906 0-4.7.961-4.7 2.591 0 1.663 1.79 2.608 4.7 2.608C29.572 1.3 31.34.359 31.34-1.3c0-1.634-1.768-2.6-4.652-2.6zm0 4.033c-2.022-.006-3.221-.509-3.21-1.433-.011-.89 1.188-1.414 3.21-1.414s3.2.525 3.2 1.414c-.001.924-1.188 1.427-3.2 1.438zM44.66 1.326h1.425v-14H44.66zM39.6-7.751v1.232h2.182V.635h1.4V-12.4h-1.4v4.652zM38.312-11.4h-1.436v2.613a7.023 7.023 0 0 1-3.022 6.05l.928 1.1a6.975 6.975 0 0 0 2.834-4.116 6.471 6.471 0 0 0 2.674 3.819l.834-1.149a6.729 6.729 0 0 1-2.812-5.768zm16.674 6.892h4.188v-7.21H57.7V-9.3h-6.874v-2.414H49.34v7.21h4.177v2.873h-5.636v1.222h12.812v-1.226h-5.707zM57.7-8.11v2.4h-6.874v-2.4zm14.16 9.436h1.492v-14h-1.493zm-9.332-12.492v1.182h5.149c-.293 3.265-2.1 5.79-5.829 7.558l.785 1.2c4.807-2.293 6.547-5.845 6.558-9.939zM-75.03 2H75.03v1H-75.03z" transform="translate(2395.094 -20194)"/>
            </g>
        </g>
        <path id="패스_11152" data-name="패스 11152" d="M40.432 3.815h-3V14.8h3v-4.355H43.3V7.992h-2.868zm-10.566 6.464a7.7 7.7 0 0 0 4.84 3.953l1.525-2.312c-3.406-.978-4.914-3.389-4.9-6V4.577h-3.006v1.359a6.612 6.612 0 0 1-5.1 6.464l1.459 2.378a8.225 8.225 0 0 0 5.182-4.499zm10.566 11.039v-5.71H26.278v2.312h11.171v1.251H26.311v5.843h14.735V22.66H29.261v-1.342zm19.318-9.837v5.412h2.834V3.848H59.75v5.2h-1.79V4.221h-2.776v12h2.776v-4.74zm-10.077.564a6.92 6.92 0 0 0 3.837 3.53l1.59-2.288a5.861 5.861 0 0 1-4.019-5.652V5.124h-2.908v2.511a6.775 6.775 0 0 1-4.21 6.307l1.608 2.312a7.619 7.619 0 0 0 4.102-4.21zm5.619 5.138c-4.517 0-7.392 1.492-7.376 3.978-.017 2.486 2.859 4 7.376 3.994 4.5.008 7.392-1.508 7.4-3.994-.008-2.487-2.901-3.979-7.401-3.979zm0 5.718c-2.793.008-4.4-.58-4.392-1.74-.008-1.144 1.6-1.749 4.392-1.74 2.776-.008 4.384.6 4.392 1.74-.009 1.159-1.616 1.748-4.393 1.739zM67.416 4.453v6.721H82V4.453zm2.934 4.409v-2.1h8.66v2.1zM84.471 12.3H65.012v2.345H73.2v1.367h-5.942v2.254h11.884v1.1H67.275v5.644h15.373v-2.25H70.209v-1.285h11.884v-5.461H76.2v-1.368h8.271zm16.9 12.862h2.826V3.815h-2.826zm-7.146-14.021v2.4h2.809v10.628h2.8v-20h-2.8v6.97zM92.51 8.4h3.232V6h-9.614v2.4h3.5v1.133c0 3.63-1.169 7.459-4.309 9.4l1.807 2.2a9.93 9.93 0 0 0 3.974-5.807 9.022 9.022 0 0 0 3.878 5.32l1.749-2.2c-3.116-1.782-4.227-5.362-4.218-8.917zm15.854 1.657v2.4h15.721v-2.4h-2.635V6.815h2.776v-2.4h-16v2.4h2.768v3.24zm5.61 0V6.815h4.467v3.24zm12 3.762h-19.459v2.361h8.213v1.831h-5.959v6.912h14.867v-6.912H117.7V16.18h8.271zm-14.262 8.71v-2.2h9.008v2.2zm30.829-14.2c1.359 2.1 4.028 3.655 7.641 4.144l1.094-2.354c-4.724-.539-7.21-3.025-7.2-5.262v-.7h-3.086v.7c-.008 2.254-2.5 4.724-7.243 5.262l1.144 2.354c3.621-.487 6.282-2.037 7.649-4.142zM132.8 16h19.459v-2.348H132.8zm9.688 1.442c-4.666-.008-7.467 1.367-7.467 3.878 0 2.461 2.8 3.862 7.467 3.87 4.616-.008 7.417-1.409 7.434-3.87-.015-2.513-2.816-3.889-7.432-3.881zm0 5.461c-2.95.008-4.434-.489-4.417-1.583-.017-1.11 1.467-1.608 4.417-1.624 2.9.017 4.425.514 4.434 1.624-.006 1.092-1.531 1.589-4.432 1.58zM168.4 3.848V19.18h3V3.848zm-2.867 6.729c0-3.124-2.552-5.378-5.826-5.378s-5.843 2.254-5.834 5.378c-.008 3.174 2.561 5.412 5.834 5.412s5.83-2.238 5.83-5.412zm-8.735 0a2.895 2.895 0 0 1 5.785 0 2.893 2.893 0 0 1-5.785 0zm3.331 7.052h-3.025v7.16h14.859v-2.411h-11.829zm35.312-5.569h-2.055V4.188h-2.743v19.931h2.743v-9.663h2.055v10.707h2.826V3.815h-2.826zM183.438 8.7h4.962V6.3h-7.964v14.03h1.492a38.764 38.764 0 0 0 7.682-.588l-.224-2.436a35.124 35.124 0 0 1-5.95.522zm34.077-4.881h-3v12.659h3V11.29h2.867V8.812h-2.867zm-10.624 7.732a7.889 7.889 0 0 0 4.765 4.069l1.583-2.329c-3.373-1.036-4.881-3.522-4.881-6.108V4.959h-2.992V6.89a7.112 7.112 0 0 1-5.1 6.978l1.608 2.345a8.2 8.2 0 0 0 5.017-4.666zm3.622 5.37c-4.492-.008-7.309 1.525-7.3 4.1-.008 2.627 2.809 4.144 7.3 4.135 4.425.008 7.2-1.508 7.2-4.135.001-2.579-2.775-4.112-7.201-4.104zm0 5.9c-2.793-.008-4.318-.58-4.309-1.8-.008-1.152 1.517-1.773 4.309-1.773 2.776 0 4.251.622 4.251 1.773 0 1.217-1.475 1.788-4.252 1.797zm25.682-18.97V19.18h3V3.848zm-2.867 6.729c0-3.124-2.552-5.378-5.826-5.378s-5.843 2.254-5.834 5.378c-.008 3.174 2.561 5.412 5.834 5.412s5.825-2.241 5.825-5.415zm-8.735 0a2.895 2.895 0 0 1 5.785 0 2.893 2.893 0 0 1-5.785 0zm3.331 7.052H224.9v7.16h14.859v-2.414h-11.835zm30.994-5.635V3.815h-2.992v21.3h2.992V14.464h3.017v-2.47zM243.065 6v2.448h7.111c-.564 4.757-3.273 8.155-8.312 10.691l1.682 2.287c7.169-3.522 9.663-9.041 9.68-15.423zm26.6 11.917v-.265a3.249 3.249 0 0 1 1.906-3.182 4.53 4.53 0 0 0 2.544-4.086c0-2.892-2.312-4.591-5.586-4.591-2.992 0-5.445 1.583-5.511 4.873h3.331a2.09 2.09 0 0 1 2.155-2.1 1.926 1.926 0 0 1 2.055 1.923c0 1.094-.779 1.823-1.8 2.47-1.392.878-2.18 1.773-2.2 4.691v.265zm-1.483 5.287a1.96 1.96 0 1 0 0-3.92 1.96 1.96 0 1 0 0 3.92z" transform="translate(120 94)" style="fill:#111"/>
    </g>
    <g id="fc_box_medium_link" transform="translate(114 640)">
        <g transform="translate(-114 -640)" style="filter:url(#box)">
            <g id="box-11" data-name="box" class="cls-7">
                <path class="cls-11" d="M0 0h538v130H0z" transform="translate(114 640)"/>
                <path class="cls-13" d="M1 1h536v128H1z" transform="translate(114 640)"/>
            </g>
        </g>
        <g id="fc_textlink-2" data-name="fc_textlink" transform="translate(386 79)">
            <g id="stack-2" data-name="stack" transform="translate(-2524.094 20210)">
                <g id="ico_fc_pdf-2" data-name="ico_fc_pdf" transform="translate(2458.58 -20209)">
                    <g id="그룹_1025-2" data-name="그룹 1025" transform="translate(-1101.5 -1126.5)">
                        <path id="패스_6892-2" data-name="패스 6892" class="cls-4" d="M1108.592 1130.5h7.714l4.286 4.286v7.714h-12z" transform="translate(-3.092)"/>
                        <path id="패스_6891-2" data-name="패스 6891" class="cls-4" d="M1052.728 2115.047v5h5" transform="translate(59.772 -984.547)"/>
                    </g>
                </g>
                <path id="패스_11155" data-name="패스 11155" class="cls-5" d="M-55.591-7.646v-1.227h7.713v-1.133h-7.713v-1.144h8.072v-1.166h-9.564V-6.5h9.657v-1.146zm-3.16 3.514h12.79v-1.177h-12.79zm9.657 2.4v3.058h1.5v-4.243h-9.718v1.188zm14.8 3.055h1.409v-14h-1.409zm-4.584-10.406v1.2h1.757v2.271h-1.757V-4.4h1.757V.608h1.409v-13.017h-1.409v3.326zm-4.138 2.917h3.4v-5.022h-4.854v1.2h3.414v2.635h-3.392v5.359h.906A28.492 28.492 0 0 0-38.6-2.37l-.116-1.215a27.82 27.82 0 0 1-4.3.359zm26.464-.956h-1.812v-5.265h-1.37V.608h1.37v-6.52h1.812v7.238h1.409v-14h-1.409zm-8.641-2.663h3.751v-1.2h-5.238v8.95h.928a24.775 24.775 0 0 0 5.182-.409l-.122-1.227a23.592 23.592 0 0 1-4.5.381zm22.878-2.89H-3.8v8.448h1.486v-3.685h2.027v-1.237h-2.028zM-9.2-8.05a5.583 5.583 0 0 0 3.3 3.011l.79-1.166a4.588 4.588 0 0 1-3.39-4.226v-1.514h-1.47v1.387a5.013 5.013 0 0 1-3.459 4.735l.8 1.177A5.766 5.766 0 0 0-9.2-8.05zm2.36 4.15c-2.906 0-4.7.961-4.7 2.591 0 1.663 1.79 2.608 4.7 2.608C-3.956 1.3-2.188.359-2.188-1.3c0-1.634-1.768-2.6-4.652-2.6zm0 4.033C-8.862.127-10.061-.376-10.05-1.3c-.011-.89 1.188-1.414 3.21-1.414s3.2.525 3.2 1.414C-3.641-.376-4.823.127-6.84.138zm22.265-12.807h-1.486v8.448h1.486v-3.686h2.028v-1.237h-2.028zM8.536-8.05a5.583 5.583 0 0 0 3.3 3.011l.79-1.166a4.588 4.588 0 0 1-3.381-4.227v-1.514H7.773v1.387a5.013 5.013 0 0 1-3.458 4.736l.8 1.177A5.766 5.766 0 0 0 8.536-8.05zM10.9-3.9c-2.906 0-4.7.961-4.7 2.591C6.2.359 7.994 1.3 10.9 1.3c2.884 0 4.652-.945 4.652-2.608 0-1.626-1.767-2.592-4.652-2.592zm0 4.033C8.878.127 7.68-.376 7.691-1.3c-.011-.89 1.188-1.414 3.21-1.414s3.2.525 3.2 1.414C14.1-.376 12.917.127 10.9.138zm17.973 1.193H30.3v-14h-1.427zm-5.061-9.077v1.232h2.182V.635h1.4V-12.4h-1.4v4.652zM22.525-11.4h-1.437v2.613a7.023 7.023 0 0 1-3.022 6.05l.928 1.1a6.975 6.975 0 0 0 2.834-4.116A6.471 6.471 0 0 0 24.5-1.934l.834-1.149a6.729 6.729 0 0 1-2.812-5.768zM39.2-4.508h4.188v-7.21h-1.476V-9.3h-6.873v-2.414h-1.487v7.21h4.177v2.873h-5.635v1.222h12.812v-1.226H39.2zm2.713-3.6v2.4h-6.874v-2.4zm14.16 9.436h1.492v-14h-1.493zM46.74-11.166v1.182h5.149c-.293 3.265-2.1 5.79-5.829 7.558l.785 1.2c4.807-2.293 6.547-5.845 6.558-9.939zM-59.243 2H59.243v1H-59.243z" transform="translate(2395.094 -20194)"/>
            </g>
        </g>
        <path id="패스_11154" data-name="패스 11154" class="cls-8" d="M130.432 3.815h-3V14.8h3v-4.355h2.868V7.992h-2.867zm-10.566 6.464a7.7 7.7 0 0 0 4.84 3.953l1.525-2.312c-3.406-.978-4.914-3.389-4.9-6V4.577h-3.008v1.359a6.612 6.612 0 0 1-5.1 6.464l1.459 2.378a8.225 8.225 0 0 0 5.184-4.499zm10.566 11.039v-5.71h-14.154v2.312h11.171v1.251h-11.138v5.843h14.735V22.66h-11.785v-1.342zm19.318-9.837v5.412h2.834V3.848h-2.834v5.2h-1.79V4.221h-2.776v12h2.776v-4.74zm-10.077.564a6.92 6.92 0 0 0 3.837 3.53l1.591-2.287a5.861 5.861 0 0 1-4.019-5.652V5.124h-2.909v2.511a6.775 6.775 0 0 1-4.21 6.307l1.608 2.312a7.619 7.619 0 0 0 4.102-4.21zm5.619 5.138c-4.517 0-7.392 1.492-7.376 3.978-.017 2.486 2.859 4 7.376 3.994 4.5.008 7.392-1.508 7.4-3.994-.008-2.487-2.901-3.979-7.401-3.979zm0 5.718c-2.793.008-4.4-.58-4.392-1.74-.008-1.144 1.6-1.749 4.392-1.74 2.776-.008 4.384.6 4.392 1.74-.009 1.159-1.616 1.748-4.393 1.739zm12.124-18.448v6.721H172V4.453zm2.934 4.409v-2.1h8.66v2.1zm14.121 3.438h-19.459v2.345h8.188v1.367h-5.942v2.254h11.884v1.1h-11.867v5.644h15.373v-2.25h-12.439v-1.285h11.884v-5.461H166.2v-1.368h8.271zm16.9 12.862h2.826V3.815h-2.826zm-7.144-14.022v2.4h2.809v10.629h2.8v-20h-2.8v6.97zM182.51 8.4h3.232V6h-9.613v2.4h3.5v1.133c0 3.63-1.169 7.459-4.309 9.4l1.807 2.2a9.93 9.93 0 0 0 3.978-5.809 9.022 9.022 0 0 0 3.878 5.32l1.749-2.2c-3.116-1.782-4.227-5.362-4.218-8.917zm15.854 1.657v2.4h15.721v-2.4h-2.635V6.815h2.776v-2.4h-16v2.4h2.768v3.24zm5.61 0V6.815h4.467v3.24zm12 3.762h-19.459v2.361h8.213v1.831h-5.959v6.912h14.867v-6.912H207.7V16.18h8.271zm-14.262 8.71v-2.2h9.008v2.2zM228.181 11.3v-1.286h11.3V7.8h-11.3V6.616h11.8V4.3H225.2v9.265h14.967V11.3zm-5.428 5.967h19.508v-2.355h-19.508zm14.08 3.762v4.135h3.017v-6.5h-14.893v2.362zm22.326 4.135h2.826V3.815h-2.826zm-6.738-16.078v2.387h2.32v2.892h-2.32v2.412h2.32v7.343h2.826V4.18h-2.826v4.906zm-5.4 4.989h4.4V5.9h-7.3v2.39h4.392v3.439h-4.367v8.6h1.392a39.134 39.134 0 0 0 7.069-.547l-.224-2.412a39.565 39.565 0 0 1-5.362.481zm38.42-2.014h-2.055V4.188h-2.743v19.931h2.743v-9.663h2.055v10.707h2.826V3.815h-2.826zM273.438 8.7h4.962V6.3h-7.964v14.03h1.492a38.764 38.764 0 0 0 7.682-.588l-.224-2.436a35.125 35.125 0 0 1-5.95.522zm34.077-4.881h-3v12.659h3V11.29h2.867V8.812h-2.867zm-10.624 7.732a7.889 7.889 0 0 0 4.765 4.069l1.583-2.329c-3.373-1.036-4.881-3.522-4.881-6.108V4.959h-2.992V6.89a7.112 7.112 0 0 1-5.1 6.978l1.608 2.345a8.2 8.2 0 0 0 5.017-4.666zm3.622 5.37c-4.492-.008-7.309 1.525-7.3 4.1-.008 2.627 2.809 4.144 7.3 4.135 4.425.008 7.2-1.508 7.2-4.135.001-2.579-2.775-4.112-7.201-4.104zm0 5.9c-2.793-.008-4.318-.58-4.309-1.8-.008-1.152 1.517-1.773 4.309-1.773 2.776 0 4.251.622 4.251 1.773 0 1.217-1.475 1.788-4.252 1.797zm25.682-18.97V19.18h3V3.848zm-2.867 6.729c0-3.124-2.552-5.378-5.826-5.378s-5.843 2.254-5.834 5.378c-.008 3.174 2.561 5.412 5.834 5.412s5.825-2.241 5.825-5.415zm-8.735 0a2.895 2.895 0 0 1 5.785 0 2.893 2.893 0 0 1-5.785 0zm3.331 7.052H314.9v7.16h14.859v-2.414h-11.835zm30.994-5.635V3.815h-2.992v21.3h2.992V14.464h3.017v-2.47zM333.065 6v2.448h7.111c-.564 4.757-3.273 8.155-8.312 10.691l1.682 2.287c7.168-3.522 9.663-9.041 9.68-15.423zm26.6 11.917v-.265a3.249 3.249 0 0 1 1.906-3.182 4.53 4.53 0 0 0 2.544-4.086c0-2.892-2.312-4.591-5.586-4.591-2.992 0-5.445 1.583-5.511 4.873h3.331a2.09 2.09 0 0 1 2.155-2.1 1.926 1.926 0 0 1 2.055 1.923c0 1.094-.779 1.823-1.8 2.47-1.392.878-2.18 1.773-2.2 4.691v.265zm-1.483 5.287a1.96 1.96 0 1 0 0-3.92 1.96 1.96 0 1 0 0 3.92z" transform="translate(30 36)"/>
    </g>
    <g id="fc_box_medium_no_btn" transform="translate(684 640)">
        <g transform="translate(-684 -640)" style="filter:url(#box-2)">
            <g id="box-12" data-name="box" style="fill:#eee;stroke:#999;stroke-width:2px">
                <path class="cls-11" d="M0 0h538v130H0z" transform="translate(684 640)"/>
                <path class="cls-13" d="M1 1h536v128H1z" transform="translate(684 640)"/>
            </g>
        </g>
        <path id="패스_11156" data-name="패스 11156" class="cls-8" d="M205.1 8.331c1.359 2.1 4.028 3.655 7.641 4.144l1.094-2.354c-4.724-.539-7.21-3.025-7.2-5.262v-.7h-3.083v.7c-.008 2.254-2.5 4.724-7.243 5.262l1.144 2.354c3.624-.489 6.285-2.039 7.647-4.144zM195.367 16h19.459v-2.348h-19.459zm9.688 1.442c-4.666-.008-7.467 1.367-7.467 3.878 0 2.461 2.8 3.862 7.467 3.87 4.616-.008 7.417-1.409 7.434-3.87-.017-2.513-2.818-3.889-7.434-3.881zm0 5.461c-2.95.008-4.434-.489-4.417-1.583-.017-1.11 1.467-1.608 4.417-1.624 2.9.017 4.425.514 4.434 1.624-.008 1.092-1.533 1.589-4.434 1.58zM230.97 3.848V19.18h3V3.848zm-2.87 6.729c0-3.124-2.552-5.378-5.826-5.378s-5.843 2.254-5.834 5.378c-.008 3.174 2.561 5.412 5.834 5.412s5.826-2.238 5.826-5.412zm-8.735 0a2.895 2.895 0 0 1 5.785 0 2.893 2.893 0 0 1-5.785 0zm3.335 7.053h-3.025v7.16h14.859v-2.412H222.7zm35.312 7.533h2.826V3.815h-2.826zm-7.144-14.022v2.4h2.809v10.628h2.8v-20h-2.8v6.97zM249.152 8.4h3.232V6h-9.613v2.4h3.5v1.133c0 3.63-1.169 7.459-4.309 9.4l1.807 2.2a9.93 9.93 0 0 0 3.978-5.809 9.022 9.022 0 0 0 3.878 5.32l1.749-2.2c-3.116-1.782-4.227-5.362-4.218-8.917zM278.1 25.213h2.975V3.815H278.1zm-6.555-9.82a5.175 5.175 0 0 0 4.434-5.072c-.017-3.058-2.528-5.221-5.925-5.229-3.356.008-5.925 2.171-5.917 5.229a5.173 5.173 0 0 0 4.425 5.072v3c-1.923.058-3.738.066-5.312.066l.34 2.412a73.518 73.518 0 0 0 13.525-.945l-.224-2.155c-1.724.24-3.539.4-5.345.5zM267.1 10.32a2.65 2.65 0 0 1 2.95-2.66c1.707 0 3 .961 3.008 2.66a2.71 2.71 0 0 1-3.008 2.669 2.674 2.674 0 0 1-2.95-2.669z" transform="translate(30 51)"/>
    </g>
    <g id="fc_start_end" transform="translate(114 2050)">
        <g transform="translate(-114 -2050)" style="filter:url(#area)">
            <g id="area-3" data-name="area" class="cls-7" transform="translate(114 2050)">
                <rect class="cls-11" width="1108" height="130" rx="65"/>
                <rect class="cls-13" x="1" y="1" width="1106" height="128" rx="64"/>
            </g>
        </g>
        <path id="패스_11169" data-name="패스 11169" class="cls-8" d="M435.459 8.331c1.359 2.1 4.028 3.655 7.641 4.144l1.094-2.354c-4.724-.539-7.21-3.025-7.2-5.262v-.7h-3.083v.7c-.008 2.254-2.5 4.724-7.243 5.262l1.144 2.354c3.619-.489 6.279-2.039 7.647-4.144zM425.721 16h19.459v-2.348h-19.459zm9.688 1.442c-4.666-.008-7.467 1.367-7.467 3.878 0 2.461 2.8 3.862 7.467 3.87 4.616-.008 7.417-1.409 7.434-3.87-.017-2.513-2.818-3.889-7.434-3.881zm0 5.461c-2.95.008-4.434-.489-4.417-1.583-.017-1.11 1.467-1.608 4.417-1.624 2.9.017 4.425.514 4.434 1.624-.009 1.092-1.534 1.589-4.434 1.58zm25.914-19.055V19.18h3V3.848zm-2.867 6.729c0-3.124-2.552-5.378-5.826-5.378s-5.843 2.254-5.834 5.378c-.008 3.174 2.561 5.412 5.834 5.412s5.826-2.238 5.826-5.412zm-8.735 0a2.895 2.895 0 0 1 5.785 0 2.893 2.893 0 0 1-5.785 0zm3.331 7.052h-3.025v7.16h14.859v-2.411h-11.834zm36.53-5.586V3.815h-2.992v21.348h2.992V14.572h3.149v-2.528zm-8.975-6.58h-2.992v3.192c-.008 3.961-1.715 8.039-5.32 9.7l1.831 2.428a10.307 10.307 0 0 0 5-6.215 9.73 9.73 0 0 0 4.715 5.8l1.807-2.378c-3.423-1.657-5.055-5.511-5.039-9.331zm24.091.572V3.8h-2.958v2.236h-7.3v2.4h17.51v-2.4zm-1.475 10.533c4.591 0 7.351-1.293 7.359-3.638-.008-2.378-2.768-3.663-7.359-3.663s-7.367 1.285-7.359 3.663c-.008 2.346 2.76 3.639 7.36 3.639zm0-5.088c2.826 0 4.243.464 4.26 1.45-.017.961-1.434 1.425-4.26 1.417-2.851.008-4.26-.456-4.251-1.417-.008-.985 1.401-1.449 4.252-1.449zm-9.713 6.133v2.42h8.229v5.147h2.961v-5.147h8.32v-2.42zm37.923-13.8h-3.058v15.98h3.058v-6.97h2.594v-2.494h-2.594zm-5.7 9.149a35.464 35.464 0 0 0 .489-6.257V5.373h-10.99v2.436h8.055a28.489 28.489 0 0 1-.5 4.881zm1.492.878c-2.005.29-4.185.456-6.315.547V10.3h-2.975v4.185c-1.417.025-2.76.033-3.953.033l.257 2.378a76.835 76.835 0 0 0 13.135-.9zm-10.11 4.525v6.425H532.1v-2.412h-11.987v-4.011zm32.793 6.845h2.975V3.815h-2.975zM539.24 13.834h7.036V5.613h-10.135v2.412h7.086v3.456h-7.069v8.735h1.914a57.731 57.731 0 0 0 10.566-.754l-.257-2.428a55.32 55.32 0 0 1-9.141.721zm37.094-3.3h-4.177v2.412h4.177v12.267h2.959V3.815h-2.959zm-6.961-5.072h-3.041v3.193c-.017 4.011-1.691 8.13-5.337 9.787l1.873 2.428a10.282 10.282 0 0 0 5-6.29 9.661 9.661 0 0 0 4.856 5.9l1.807-2.378c-3.547-1.533-5.163-5.436-5.155-9.448zm27.505-1.649v21.4h3.022V3.815zM583.113 5.53v14.685h10.533V5.53H590.7v5.18h-4.6V5.53zm2.992 7.508h4.6v4.749h-4.6zm26.337-2.2a10.881 10.881 0 0 0 7.856 5.569l1.318-2.486c-4.831-.82-7.6-4.16-7.591-7.293V5.1h-3.191v1.533c-.017 3.1-2.8 6.448-7.541 7.293l1.285 2.486a11.062 11.062 0 0 0 7.864-5.569zm-9.638 11.7h19.508v-2.455H602.8z" transform="translate(30 50)"/>
    </g>
    <path id="세로" class="cls-10" transform="translate(668 539)" d="M0 0h1v50H0z"/>
    <path id="세로-2" data-name="세로" class="cls-10" transform="translate(581 770)" d="M0 0h1v50H0z"/>
    <path id="세로-3" data-name="세로" class="cls-10" transform="translate(668 229)" d="M0 0h1v50H0z"/>
    <g id="fc_start_end-2" data-name="fc_start_end" transform="translate(114 100)">
        <g transform="translate(-114 -100)" style="filter:url(#area-2)">
            <g id="area-4" data-name="area" class="cls-7" transform="translate(114 100)">
                <rect class="cls-11" width="1108" height="130" rx="65"/>
                <rect class="cls-13" x="1" y="1" width="1106" height="128" rx="64"/>
            </g>
        </g>
        <path id="패스_11151" data-name="패스 11151" class="cls-8" d="M304.8 12.111h-2.743a28.063 28.063 0 0 0 .439-5.677V4.751h-14.817v2.387h11.826a25.4 25.4 0 0 1-.456 4.972h-13.757v2.4h8.213v3.058h-6.257v2.345h12.257v5.254h3v-7.6h-6v-3.061h8.3zm16.757-.041h-2V4.188h-2.8v19.931h2.8v-9.63h2v10.674h2.876V3.815h-2.876zM309.9 6.185h-3V19.95h1.45a41.762 41.762 0 0 0 7.5-.63l-.3-2.577a34.653 34.653 0 0 1-5.652.6zm39.356-2.337h-3v15.7h3v-7.222h2.867V9.848h-2.867zm-4.227 9.82q-1.206.149-2.486.249V7.992h1.74V5.613h-11.5v2.379h1.749v6.265c-.812.008-1.591.017-2.32.017l.323 2.4a77.408 77.408 0 0 0 12.721-.8zm-5.362-5.677v6.116c-.762.033-1.517.066-2.262.083v-6.2zm-4.251 10.069v6.73h14.6v-2.412H338.4v-4.317zm33.284-6.09h-1.923V4.146h-2.826v20.03h2.826v-9.77h1.923v10.757h2.859V3.815H368.7zm-6.539 7.823V6.036h-8.486v13.757zm-2.793-11.4v9.058h-2.888V8.39zm22.7 5.85a1.525 1.525 0 0 0 1.488 1.608 1.488 1.488 0 0 0 1.512-1.608 1.463 1.463 0 0 0-1.488-1.584 1.509 1.509 0 0 0-1.504 1.581zm22.189-.19c4.583.008 7.782-1.815 7.782-4.691 0-2.942-3.2-4.823-7.782-4.823s-7.749 1.881-7.74 4.823c0 2.873 3.174 4.696 7.748 4.688zm0-7.127c2.884.008 4.691.862 4.691 2.436 0 1.5-1.807 2.329-4.691 2.337-2.859-.008-4.674-.837-4.657-2.337-.009-1.577 1.806-2.431 4.665-2.439zm-9.7 8.776v2.4h4.467v7.061h3.076V18.1h4.376v7.061h3.033V18.1h4.566v-2.4zm31.964-2.2h6.174v-2.278h-11.971v-1.218h11.3V7.834h-11.3V6.649h11.8V4.337H417.74V13.5h5.793v1.32H415.3v2.345h19.5V14.82h-8.271zm-1.5 4.633c-4.765-.008-7.467 1.26-7.467 3.506 0 2.3 2.7 3.522 7.467 3.514 4.707.008 7.417-1.21 7.434-3.514-.005-2.241-2.715-3.514-7.422-3.506zm0 4.807c-3.058.008-4.483-.39-4.475-1.3-.008-.9 1.417-1.293 4.475-1.293 3.008 0 4.425.4 4.434 1.293.004.91-1.414 1.308-4.422 1.3zm25.89 2.271h3.025V3.815h-3.025zM444.4 5.464h-3.033v3.191c-.017 4.144-1.823 8.229-5.552 9.8l1.807 2.486a10.247 10.247 0 0 0 5.3-6.389 9.946 9.946 0 0 0 5.1 5.867l1.765-2.4c-3.63-1.525-5.4-5.453-5.387-9.373zm27.34 19.7h3.025V3.815h-3.025zM458.307 5.87v2.4h7.2a16.287 16.287 0 0 1-.507 2.863l-7.8.448.365 2.544 6.464-.572c-1.285 2.387-3.481 4.376-6.994 6.116l1.575 2.3c8.047-3.953 9.854-9.547 9.87-16.1zm34.185 19.293h3.025V3.815h-3.025zm-13.682-19.1v2.343h7.268c-.481 4.74-2.909 8.1-8.412 10.715l1.558 2.378c7.624-3.6 9.9-8.975 9.9-15.439zm40.09 19.083h2.967V3.848H518.9zm-8.064-11.378c3.265.017 5.635-1.865 5.635-4.517 0-2.693-2.37-4.55-5.635-4.541-3.24-.008-5.61 1.848-5.594 4.541-.021 2.649 2.349 4.534 5.589 4.517zm0-6.663c1.649-.008 2.793.779 2.8 2.146-.008 1.326-1.152 2.1-2.8 2.088-1.583.008-2.718-.762-2.71-2.088-.013-1.367 1.123-2.151 2.705-2.151zM517.6 14.3a96.99 96.99 0 0 1-13.674.779l.365 2.436c1.533-.017 3.307-.033 5.18-.108v7.119h3v-7.3a48.274 48.274 0 0 0 5.337-.721zm14.859-8.213V3.815h-2.983v2.271h-4.846v2.353h12.663V6.086zm9.1-2.238h-3v15.927h3V12.84h2.867v-2.453h-2.867zM530.97 17.4c3.083.008 5.246-1.616 5.246-4.069 0-2.478-2.163-4.135-5.246-4.135-3.116 0-5.3 1.657-5.3 4.135-.004 2.451 2.184 4.075 5.3 4.069zm-2.387-4.069c0-1.193.953-1.848 2.387-1.856 1.425.008 2.4.663 2.412 1.856-.008 1.169-.986 1.8-2.412 1.8s-2.387-.631-2.387-1.802zm-.862 5.213v6.246h14.6v-2.412H530.7v-3.837zm40.127-14.729h-3V14.8h3v-4.355h2.867V7.992h-2.867zm-10.566 6.464a7.7 7.7 0 0 0 4.84 3.953l1.525-2.312c-3.406-.978-4.914-3.389-4.9-6V4.577h-3.007v1.359a6.612 6.612 0 0 1-5.1 6.464l1.459 2.378a8.225 8.225 0 0 0 5.183-4.499zm10.566 11.039v-5.71h-14.155v2.312h11.171v1.251h-11.137v5.843h14.735V22.66h-11.785v-1.342zm19.318-9.837v5.412H590V3.848h-2.834v5.2h-1.79V4.221H582.6v12h2.776v-4.74zm-10.077.564a6.92 6.92 0 0 0 3.837 3.53l1.591-2.287a5.861 5.861 0 0 1-4.017-5.653V5.124h-2.909v2.511a6.775 6.775 0 0 1-4.21 6.307l1.608 2.312a7.619 7.619 0 0 0 4.099-4.21zm5.619 5.138c-4.517 0-7.392 1.492-7.376 3.978-.017 2.486 2.859 4 7.376 3.994 4.5.008 7.392-1.508 7.4-3.994-.008-2.487-2.901-3.979-7.401-3.979zm0 5.718c-2.793.008-4.4-.58-4.392-1.74-.008-1.144 1.6-1.749 4.392-1.74 2.776-.008 4.384.6 4.392 1.74-.009 1.159-1.617 1.748-4.393 1.739zm12.123-18.448v6.721h14.586V4.453zm2.934 4.409v-2.1h8.66v2.1zm14.122 3.438h-19.459v2.345h8.188v1.367h-5.942v2.254h11.884v1.1h-11.867v5.644h15.373v-2.25h-12.44v-1.285h11.884v-5.461h-5.892v-1.368h8.271zm16.9 12.862h2.826V3.815h-2.826zm-7.144-14.022v2.4h2.809v10.629h2.8v-20h-2.8v6.97zm-1.718-2.74h3.232V6h-9.613v2.4h3.5v1.133c0 3.63-1.169 7.459-4.309 9.4l1.807 2.2a9.93 9.93 0 0 0 3.978-5.809 9.022 9.022 0 0 0 3.878 5.32l1.749-2.2c-3.116-1.782-4.227-5.362-4.218-8.917zm15.854 1.657v2.4H651.5v-2.4h-2.635V6.815h2.776v-2.4h-16v2.4h2.768v3.24zm5.61 0V6.815h4.467v3.24zm12 3.762h-19.458v2.361h8.213v1.831h-5.959v6.912h14.867v-6.912h-5.934V16.18h8.271zm-14.262 8.71v-2.2h9.008v2.2zm36.7 2.635h2.826V3.815h-2.826zm-7.147-14.023v2.4h2.809v10.628h2.8v-20h-2.8v6.97zM666.964 8.4h3.236V6h-9.613v2.4h3.5v1.133c0 3.63-1.169 7.459-4.309 9.4l1.807 2.2a9.93 9.93 0 0 0 3.978-5.809 9.022 9.022 0 0 0 3.878 5.32l1.749-2.2c-3.116-1.782-4.227-5.362-4.218-8.917zm15.97 8.039c3.68-.671 6.414-2.552 7.765-5.13 1.376 2.528 4.144 4.351 7.881 5.006l1.185-2.362c-4.575-.671-7.235-3.265-7.492-6.083h6.5V5.448h-16.179v2.42h6.489c-.257 2.826-2.9 5.494-7.326 6.207zm9.273-.945h-3v4.757h-8.237v2.428h19.508v-2.43h-8.271zm17.756-1.252a1.525 1.525 0 0 0 1.488 1.608 1.488 1.488 0 0 0 1.512-1.608 1.463 1.463 0 0 0-1.488-1.584 1.509 1.509 0 0 0-1.512 1.582zm22.256-5.005c1.392 2.312 4.127 4.044 7.856 4.575l1.168-2.412c-4.881-.6-7.45-3.39-7.45-5.909V4.453h-3.141v1.036c-.008 2.519-2.569 5.3-7.417 5.909l1.177 2.412c3.696-.531 6.414-2.263 7.807-4.575zm-9.738 6.191v2.436h8.188v7.3h2.959v-7.3h8.312v-2.439zm35.6-11.61v11.475h3V3.815zm-8.693.9c-3.331-.008-5.843 2.072-5.834 5.064-.008 2.917 2.5 5 5.834 5s5.826-2.08 5.826-5c.002-3-2.501-5.082-5.824-5.072zm0 2.494a2.578 2.578 0 0 1 2.876 2.569c0 1.591-1.21 2.536-2.876 2.544-1.707-.008-2.925-.953-2.909-2.544-.015-1.607 1.204-2.581 2.911-2.581zm-2.569 9.025v8.693h14.262v-8.701H758.1v1.981h-8.337v-1.981zm2.942 4.3h8.339V22.5h-8.337z" transform="translate(30 50)"/>
    </g>
    <g id="fc_box_medium" transform="translate(114 870)">
        <g transform="translate(-114 -870)" style="filter:url(#box-3)">
            <g id="box-13" data-name="box" class="cls-7">
                <path class="cls-11" d="M0 0h538v130H0z" transform="translate(114 870)"/>
                <path class="cls-13" d="M1 1h536v128H1z" transform="translate(114 870)"/>
            </g>
        </g>
        <path id="패스_11162" data-name="패스 11162" class="cls-8" d="M187.453 25.163h2.826V3.815h-2.826zm-7.144-14.022v2.4h2.809v10.628h2.8v-20h-2.8v6.97zM178.594 8.4h3.232V6h-9.613v2.4h3.5v1.133c0 3.63-1.169 7.459-4.309 9.4l1.807 2.2a9.93 9.93 0 0 0 3.978-5.809 9.022 9.022 0 0 0 3.878 5.32l1.749-2.2c-3.116-1.782-4.227-5.362-4.218-8.917zm15.854 1.657v2.4h15.721v-2.4h-2.635V6.815h2.776v-2.4h-16v2.4h2.768v3.24zm5.61 0V6.815h4.467v3.24zm12 3.762H192.6v2.361h8.213v1.831h-5.959v6.912h14.867v-6.912h-5.934V16.18h8.271zM197.8 22.528v-2.2h9v2.2zm30.829-14.2c1.359 2.1 4.028 3.655 7.641 4.144l1.094-2.354c-4.724-.539-7.21-3.025-7.2-5.262v-.7h-3.083v.7c-.008 2.254-2.5 4.724-7.243 5.262l1.144 2.354c3.618-.486 6.275-2.036 7.642-4.141zM218.887 16h19.459v-2.348h-19.459zm9.688 1.442c-4.666-.008-7.467 1.367-7.467 3.878 0 2.461 2.8 3.862 7.467 3.87 4.616-.008 7.417-1.409 7.434-3.87-.017-2.513-2.818-3.889-7.434-3.881zm0 5.461c-2.95.008-4.434-.489-4.417-1.583-.017-1.11 1.467-1.608 4.417-1.624 2.9.017 4.425.514 4.434 1.624-.009 1.092-1.534 1.589-4.434 1.58zm25.914-19.055V19.18h3V3.848zm-2.867 6.729c0-3.124-2.552-5.378-5.826-5.378s-5.843 2.254-5.834 5.378c-.008 3.174 2.561 5.412 5.834 5.412s5.826-2.238 5.826-5.412zm-8.735 0a2.895 2.895 0 0 1 5.785 0 2.893 2.893 0 0 1-5.785 0zm3.331 7.052h-3.025v7.16h14.859v-2.411h-11.834zM271.3 11.3v-1.286h11.3V7.8h-11.3V6.616h11.8V4.3h-14.78v9.265h14.967V11.3zm-5.428 5.967h19.508v-2.355h-19.504zm14.08 3.762v4.135h3.017v-6.5H268.08v2.362zm22.326 4.135h2.826V3.815h-2.826zm-6.734-16.078v2.387h2.32v2.892h-2.32v2.412h2.32v7.343h2.826V4.18h-2.826v4.906zm-5.4 4.989h4.4V5.9h-7.3v2.39h4.392v3.439h-4.367v8.6h1.392a39.134 39.134 0 0 0 7.069-.547l-.224-2.412a39.565 39.565 0 0 1-5.362.481z" transform="translate(30 50)"/>
    </g>
    <g id="fc_box_medium-2" data-name="fc_box_medium" transform="translate(684 870)">
        <g transform="translate(-684 -870)" style="filter:url(#box-4)">
            <g id="box-14" data-name="box" class="cls-7">
                <path class="cls-11" d="M0 0h538v130H0z" transform="translate(684 870)"/>
                <path class="cls-13" d="M1 1h536v128H1z" transform="translate(684 870)"/>
            </g>
        </g>
        <path id="패스_11161" data-name="패스 11161" class="cls-8" d="M212.191 11.97V3.815H209.2v21.348h2.992v-10.7h3.149V11.97zm-8.95-3.646h4.293V5.878h-11.819v2.445h4.517v1.31c-.017 3.53-1.807 7.5-5.362 9.157l1.74 2.362a10.573 10.573 0 0 0 5.171-6.373A10.017 10.017 0 0 0 206.8 20.6l1.666-2.345a9.492 9.492 0 0 1-5.221-8.627zm27.622 8.735h3.017v-2.413h-12.53v-2.37h12.033V5.207h-15.05v2.4h12.091V9.9h-12.059v7.16h2.751v3.273h-5v2.445h19.508v-2.447h-4.765zm-2.942 0v3.273h-3.9v-3.274zm16.434-3.622c3.978-.439 6.622-2.113 7.749-4.309 1.127 2.2 3.787 3.87 7.782 4.309l1.1-2.345c-4.21-.472-6.423-2.254-6.771-3.994h5.892V4.743h-15.936V7.1h5.851c-.348 1.732-2.536 3.522-6.746 3.994zm-1.972 3.406h8.528v3.671h2.959v-3.671h8.022v-2.4h-19.511zm2.287 1.782v6.165h15.075v-2.412h-12.093v-3.754zm33.313-14.81v21.4h3.025v-21.4zM264.218 5.53v14.685h10.533V5.53h-2.942v5.18h-4.6V5.53zm2.992 7.508h4.6v4.749h-4.6z" transform="translate(30 50)"/>
    </g>
    <path id="사각형_514" data-name="사각형 514" class="cls-10" transform="translate(383 589)" d="M0 0h570v1H0z"/>
    <path id="사각형_904" data-name="사각형 904" class="cls-10" transform="translate(383 820)" d="M0 0h570v1H0z"/>
    <path id="세로-4" data-name="세로" class="cls-10" transform="translate(383 590)" d="M0 0h1v50H0z"/>
    <path id="세로-5" data-name="세로" class="cls-10" transform="translate(383 821)" d="M0 0h1v50H0z"/>
    <path id="세로-6" data-name="세로" class="cls-10" transform="translate(383 1000)" d="M0 0h1v330H0z"/>
    <path id="세로-7" data-name="세로" class="cls-10" transform="translate(953 589)" d="M0 0h1v50H0z"/>
    <path id="세로-8" data-name="세로" class="cls-10" transform="translate(953 820)" d="M0 0h1v50H0z"/>
    <g id="fc_yes" transform="translate(502.989 578.21)">
        <g id="그룹_1842" data-name="그룹 1842" transform="translate(-500.989 -399.21)">
            <g id="fc_yes-2" data-name="fc_yes" transform="translate(500.989 399.21)">
                <path id="사각형_515" data-name="사각형 515" class="cls-1" d="M0 0h46.63v22.232H0z"/>
                <path id="패스_11158" data-name="패스 11158" class="cls-8" d="M-3.006-7.293h-1.37v-5.249H-6.2V.746h1.829V-5.7h1.37v7.142h1.884V-12.79h-1.889zm-8.006-2.243H-7.7v-1.6h-5.309v9.354h.994A25.843 25.843 0 0 0-6.9-2.177L-7.044-3.8a23.416 23.416 0 0 1-3.967.348zm22.719-3.254h-2v8.442h2v-3.459h1.912v-1.652h-1.912zM4.624-7.635A5.259 5.259 0 0 0 7.8-4.923l1.056-1.552A4.2 4.2 0 0 1 5.6-10.547v-1.481H3.608v1.287A4.741 4.741 0 0 1 .21-6.088l1.072 1.563a5.465 5.465 0 0 0 3.342-3.11zm2.414 3.58C4.044-4.061 2.166-3.039 2.171-1.32 2.166.431 4.044 1.442 7.039 1.436c2.95.006 4.8-1.006 4.8-2.757.001-1.718-1.85-2.74-4.8-2.734zm0 3.934C5.177-.127 4.16-.508 4.166-1.32 4.16-2.088 5.177-2.5 7.039-2.5s2.834.414 2.834 1.182c0 .81-.984 1.191-2.834 1.196z" transform="translate(23.011 16.79)"/>
            </g>
        </g>
    </g>
    <g id="fc_yes-3" data-name="fc_yes" transform="translate(502.989 809.21)">
        <g id="그룹_1842-2" data-name="그룹 1842" transform="translate(-500.989 -399.21)">
            <g id="fc_yes-4" data-name="fc_yes" transform="translate(500.989 399.21)">
                <path id="사각형_515-2" data-name="사각형 515" class="cls-1" d="M0 0h46.63v22.232H0z"/>
                <path id="패스_11159" data-name="패스 11159" class="cls-8" d="M-3.006-7.293h-1.37v-5.249H-6.2V.746h1.829V-5.7h1.37v7.142h1.884V-12.79h-1.889zm-8.006-2.243H-7.7v-1.6h-5.309v9.354h.994A25.843 25.843 0 0 0-6.9-2.177L-7.044-3.8a23.416 23.416 0 0 1-3.967.348zm22.719-3.254h-2v8.442h2v-3.459h1.912v-1.652h-1.912zM4.624-7.635A5.259 5.259 0 0 0 7.8-4.923l1.056-1.552A4.2 4.2 0 0 1 5.6-10.547v-1.481H3.608v1.287A4.741 4.741 0 0 1 .21-6.088l1.072 1.563a5.465 5.465 0 0 0 3.342-3.11zm2.414 3.58C4.044-4.061 2.166-3.039 2.171-1.32 2.166.431 4.044 1.442 7.039 1.436c2.95.006 4.8-1.006 4.8-2.757.001-1.718-1.85-2.74-4.8-2.734zm0 3.934C5.177-.127 4.16-.508 4.166-1.32 4.16-2.088 5.177-2.5 7.039-2.5s2.834.414 2.834 1.182c0 .81-.984 1.191-2.834 1.196z" transform="translate(23.011 16.79)"/>
            </g>
        </g>
    </g>
    <g id="fc_yes-5" data-name="fc_yes" transform="translate(782.381 578.21)">
        <g id="그룹_1842-3" data-name="그룹 1842" transform="translate(-494.381 -399.21)">
            <g id="fc_yes-6" data-name="fc_yes" transform="translate(494.381 399.21)">
                <path id="사각형_515-3" data-name="사각형 515" class="cls-1" d="M0 0h60.155v22.265H0z"/>
                <path id="패스_11157" data-name="패스 11157" class="cls-8" d="M-10.442-12.79V1.475h2.017V-12.79zm-9.177 1.144v9.79h7.019v-9.79h-1.961v3.453h-3.066v-3.453zm1.994 5.006h3.066v3.166h-3.066zm21.537-.653H2.541v-5.249H.713V.746h1.828V-5.7h1.37v7.142H5.8V-12.79H3.912zm-8.006-2.243h3.309v-1.6h-5.309v9.354h.994a25.843 25.843 0 0 0 5.122-.395L-.127-3.8a23.416 23.416 0 0 1-3.967.348zm22.718-3.254h-2v8.442h2v-3.459h1.912v-1.652h-1.912zm-7.083 5.155a5.259 5.259 0 0 0 3.177 2.713l1.055-1.552a4.2 4.2 0 0 1-3.254-4.072v-1.481h-1.994v1.287a4.741 4.741 0 0 1-3.4 4.652L8.2-4.525a5.465 5.465 0 0 0 3.341-3.11zm2.414 3.58c-2.994-.006-4.872 1.016-4.867 2.735-.005 1.751 1.873 2.762 4.868 2.756 2.95.006 4.8-1.006 4.8-2.757.001-1.718-1.85-2.74-4.8-2.734zm0 3.934c-1.862-.006-2.878-.387-2.873-1.2-.005-.767 1.012-1.179 2.874-1.179s2.834.414 2.834 1.182c0 .81-.983 1.191-2.834 1.196z" transform="translate(29.619 16.79)"/>
            </g>
        </g>
    </g>
    <g id="fc_yes-7" data-name="fc_yes" transform="translate(782.381 809.21)">
        <g id="그룹_1842-4" data-name="그룹 1842" transform="translate(-494.381 -399.21)">
            <g id="fc_yes-8" data-name="fc_yes" transform="translate(494.381 399.21)">
                <path id="사각형_515-4" data-name="사각형 515" class="cls-1" d="M0 0h60.155v22.265H0z"/>
                <path id="패스_11160" data-name="패스 11160" class="cls-8" d="M-10.442-12.79V1.475h2.017V-12.79zm-9.177 1.144v9.79h7.019v-9.79h-1.961v3.453h-3.066v-3.453zm1.994 5.006h3.066v3.166h-3.066zm21.537-.653H2.541v-5.249H.713V.746h1.828V-5.7h1.37v7.142H5.8V-12.79H3.912zm-8.006-2.243h3.309v-1.6h-5.309v9.354h.994a25.843 25.843 0 0 0 5.122-.395L-.127-3.8a23.416 23.416 0 0 1-3.967.348zm22.718-3.254h-2v8.442h2v-3.459h1.912v-1.652h-1.912zm-7.083 5.155a5.259 5.259 0 0 0 3.177 2.713l1.055-1.552a4.2 4.2 0 0 1-3.254-4.072v-1.481h-1.994v1.287a4.741 4.741 0 0 1-3.4 4.652L8.2-4.525a5.465 5.465 0 0 0 3.341-3.11zm2.414 3.58c-2.994-.006-4.872 1.016-4.867 2.735-.005 1.751 1.873 2.762 4.868 2.756 2.95.006 4.8-1.006 4.8-2.757.001-1.718-1.85-2.74-4.8-2.734zm0 3.934c-1.862-.006-2.878-.387-2.873-1.2-.005-.767 1.012-1.179 2.874-1.179s2.834.414 2.834 1.182c0 .81-.983 1.191-2.834 1.196z" transform="translate(29.619 16.79)"/>
            </g>
        </g>
    </g>
    <g id="fc_box_big_no_btn" transform="translate(114 1330)">
        <g transform="translate(-114 -1330)" style="filter:url(#box-5)">
            <g id="box-15" data-name="box" class="cls-7">
                <path class="cls-11" d="M0 0h1108v130H0z" transform="translate(114 1330)"/>
                <path class="cls-13" d="M1 1h1106v128H1z" transform="translate(114 1330)"/>
            </g>
        </g>
        <path id="패스_11165" data-name="패스 11165" class="cls-8" d="M495.972 25.163h2.828V3.815h-2.826zm-7.144-14.022v2.4h2.809v10.628h2.8v-20h-2.8v6.97zM487.113 8.4h3.232V6h-9.613v2.4h3.5v1.133c0 3.63-1.169 7.459-4.309 9.4l1.807 2.2a9.93 9.93 0 0 0 3.978-5.809 9.022 9.022 0 0 0 3.878 5.32l1.749-2.2c-3.116-1.782-4.227-5.362-4.218-8.917zm15.854 1.657v2.4h15.721v-2.4h-2.635V6.815h2.776v-2.4h-16v2.4h2.768v3.24zm5.611 0V6.815h4.467v3.24zm12 3.762h-19.459v2.361h8.213v1.831h-5.959v6.912h14.867v-6.912h-5.934V16.18h8.271zm-14.262 8.71v-2.2h9.008v2.2zm39.066-5.66V3.815H542.4V7.3h-2.61v2.341h2.61v1.641h-2.61v2.387h2.61v3.2zm-5.751-3.746c-.671.075-1.367.141-2.08.2V7.627h1.749v-2.4h-11.355v2.4h1.715v5.992c-.8.008-1.558.017-2.262.017l.315 2.436a77.847 77.847 0 0 0 12.033-.754zm-4.939-5.494v5.867c-.713.033-1.425.058-2.13.075V7.627zm3.4 9.572c-4.575 0-7.334 1.442-7.326 4-.008 2.478 2.751 3.961 7.326 3.953 4.583.008 7.343-1.475 7.351-3.953-.012-2.56-2.772-4.001-7.355-4.001zm0 5.685c-2.851-.008-4.359-.564-4.351-1.682-.008-1.169 1.5-1.732 4.351-1.732s4.376.564 4.384 1.732c-.012 1.116-1.537 1.672-4.388 1.68zm26.892-10.889V3.815h-2.992v21.3h2.992V14.464H568v-2.47zM549.127 6v2.448h7.11c-.564 4.757-3.273 8.155-8.312 10.691l1.682 2.287c7.169-3.522 9.663-9.041 9.68-15.423z" transform="translate(30 51)"/>
    </g>
    <g id="fc_box_big_no_btn-2" data-name="fc_box_big_no_btn" transform="translate(114 1510)">
        <g transform="translate(-114 -1510)" style="filter:url(#box-6)">
            <g id="box-16" data-name="box" class="cls-7">
                <path class="cls-11" d="M0 0h1108v130H0z" transform="translate(114 1510)"/>
                <path class="cls-13" d="M1 1h1106v128H1z" transform="translate(114 1510)"/>
            </g>
        </g>
        <path id="패스_11166" data-name="패스 11166" class="cls-8" d="M495.972 25.163h2.828V3.815h-2.826zm-7.144-14.022v2.4h2.809v10.628h2.8v-20h-2.8v6.97zM487.113 8.4h3.232V6h-9.613v2.4h3.5v1.133c0 3.63-1.169 7.459-4.309 9.4l1.807 2.2a9.93 9.93 0 0 0 3.978-5.809 9.022 9.022 0 0 0 3.878 5.32l1.749-2.2c-3.116-1.782-4.227-5.362-4.218-8.917zm15.854 1.657v2.4h15.721v-2.4h-2.635V6.815h2.776v-2.4h-16v2.4h2.768v3.24zm5.611 0V6.815h4.467v3.24zm12 3.762h-19.459v2.361h8.213v1.831h-5.959v6.912h14.867v-6.912h-5.934V16.18h8.271zm-14.262 8.71v-2.2h9.008v2.2zm30.829-14.2c1.359 2.1 4.028 3.655 7.641 4.144l1.094-2.354c-4.724-.539-7.21-3.025-7.2-5.262v-.7h-3.083v.7c-.008 2.254-2.5 4.724-7.243 5.262l1.144 2.354c3.618-.487 6.278-2.037 7.646-4.142zM527.406 16h19.459v-2.348h-19.459zm9.688 1.442c-4.666-.008-7.467 1.367-7.467 3.878 0 2.461 2.8 3.862 7.467 3.87 4.616-.008 7.417-1.409 7.434-3.87-.017-2.513-2.818-3.889-7.434-3.881zm0 5.461c-2.95.008-4.434-.489-4.417-1.583-.017-1.11 1.467-1.608 4.417-1.624 2.9.017 4.425.514 4.434 1.624-.009 1.092-1.534 1.589-4.434 1.58zm25.914-19.055V19.18h3V3.848zm-2.867 6.729c0-3.124-2.552-5.378-5.826-5.378s-5.843 2.254-5.834 5.378c-.008 3.174 2.561 5.412 5.834 5.412s5.826-2.238 5.826-5.412zm-8.735 0a2.895 2.895 0 0 1 5.785 0 2.893 2.893 0 0 1-5.785 0zm3.331 7.052h-3.025v7.16h14.859v-2.411h-11.833z" transform="translate(30 51)"/>
    </g>
    <g id="fc_box_big_no_btn-3" data-name="fc_box_big_no_btn" transform="translate(114 1870)">
        <g transform="translate(-114 -1870)" style="filter:url(#box-7)">
            <g id="box-17" data-name="box" class="cls-7">
                <path class="cls-11" d="M0 0h1108v130H0z" transform="translate(114 1870)"/>
                <path class="cls-13" d="M1 1h1106v128H1z" transform="translate(114 1870)"/>
            </g>
        </g>
        <path id="패스_11168" data-name="패스 11168" class="cls-8" d="M471.417 16.345h3.215v-2.411h-2.909v-6h3.008V5.53h-16.358v2.4h2.95v6h-2.859v2.412h3.224V20.4h-4.84v2.4h19.508v-2.4h-4.939zm-2.644-8.412v6h-4.467v-6zm-.356 8.412V20.4h-3.729v-4.055zm24.008 8.867h3.025V3.815h-3.025zM485.9 5.464h-3.03v3.191c-.017 4.144-1.823 8.229-5.552 9.8l1.807 2.486a10.247 10.247 0 0 0 5.3-6.389 9.946 9.946 0 0 0 5.1 5.867l1.765-2.4c-3.63-1.525-5.4-5.453-5.387-9.373zm32.876 19.7h3.024V3.815h-3.025zM505.1 6.061v2.345h7.268c-.481 4.74-2.909 8.1-8.412 10.715l1.558 2.378c7.624-3.6 9.9-8.975 9.9-15.439zm21.489 7.376c3.978-.439 6.622-2.113 7.749-4.309 1.127 2.2 3.787 3.87 7.782 4.309l1.1-2.345c-4.21-.472-6.423-2.254-6.771-3.994h5.892V4.743H526.4V7.1h5.851c-.348 1.732-2.536 3.522-6.746 3.994zm-1.972 3.406h8.528v3.671h2.955v-3.671h8.022v-2.4h-19.509zm2.287 1.782v6.165h15.075v-2.412h-12.095v-3.754zm25.972-5.188c3.978-.439 6.622-2.113 7.749-4.309 1.127 2.2 3.787 3.87 7.782 4.309l1.1-2.345c-4.21-.472-6.423-2.254-6.771-3.994h5.892V4.743h-15.937V7.1h5.851c-.348 1.732-2.536 3.522-6.746 3.994zm-1.976 3.406h8.528v3.671h2.959v-3.671h8.022v-2.4H550.9zm2.287 1.782v6.165h15.075v-2.412h-12.091v-3.754zm28.227-9.389c1.392 2.312 4.127 4.044 7.856 4.575l1.168-2.412c-4.881-.6-7.45-3.39-7.45-5.909V4.453h-3.141v1.036c-.008 2.519-2.569 5.3-7.417 5.909l1.177 2.412c3.693-.531 6.415-2.263 7.807-4.575zm-9.738 6.191v2.436h8.188v7.3h2.959v-7.3h8.312v-2.438z" transform="translate(30 51)"/>
    </g>
    <g id="fc_box_big_no_btn-4" data-name="fc_box_big_no_btn" transform="translate(114 1690)">
        <g transform="translate(-114 -1690)" style="filter:url(#box-8)">
            <g id="box-18" data-name="box" class="cls-7">
                <path class="cls-11" d="M0 0h1108v130H0z" transform="translate(114 1690)"/>
                <path class="cls-13" d="M1 1h1106v128H1z" transform="translate(114 1690)"/>
            </g>
        </g>
        <path id="패스_11167" data-name="패스 11167" class="cls-8" d="M325.734 3.815h-3V14.8h3v-4.355h2.866V7.992h-2.867zm-10.566 6.464a7.7 7.7 0 0 0 4.84 3.953l1.525-2.312c-3.406-.978-4.914-3.389-4.9-6V4.577h-3.008v1.359a6.612 6.612 0 0 1-5.1 6.464l1.459 2.378a8.225 8.225 0 0 0 5.184-4.499zm10.566 11.039v-5.71H311.58v2.312h11.171v1.251h-11.138v5.843h14.735V22.66h-11.785v-1.342zm19.318-9.837v5.412h2.834V3.848h-2.834v5.2h-1.79V4.221h-2.776v12h2.776v-4.74zm-10.077.564a6.92 6.92 0 0 0 3.837 3.53l1.591-2.287a5.861 5.861 0 0 1-4.019-5.652V5.124h-2.909v2.511a6.775 6.775 0 0 1-4.21 6.307l1.608 2.312a7.619 7.619 0 0 0 4.102-4.21zm5.619 5.138c-4.517 0-7.392 1.492-7.376 3.978-.017 2.486 2.859 4 7.376 3.994 4.5.008 7.392-1.508 7.4-3.994-.008-2.487-2.9-3.979-7.4-3.979zm0 5.718c-2.793.008-4.4-.58-4.392-1.74-.008-1.144 1.6-1.749 4.392-1.74 2.776-.008 4.384.6 4.392 1.74-.008 1.159-1.616 1.748-4.392 1.739zm12.124-18.448v6.721H367.3V4.453zm2.934 4.409v-2.1h8.66v2.1zm14.121 3.438h-19.458v2.345h8.185v1.367h-5.94v2.254h11.884v1.1h-11.867v5.644h15.373v-2.25h-12.439v-1.285h11.884v-5.461H361.5v-1.368h8.271zm16.9 12.862h2.827V3.815h-2.826zm-7.144-14.022v2.4h2.809v10.629h2.8v-20h-2.8v6.97zm-1.717-2.74h3.232V6h-9.613v2.4h3.5v1.133c0 3.63-1.169 7.459-4.309 9.4l1.807 2.2a9.93 9.93 0 0 0 3.978-5.809 9.022 9.022 0 0 0 3.878 5.32l1.749-2.2c-3.116-1.782-4.227-5.362-4.218-8.917zm15.854 1.657v2.4h15.721v-2.4h-2.635V6.815h2.776v-2.4h-16v2.4h2.768v3.24zm5.611 0V6.815h4.467v3.24zm12 3.762h-19.46v2.361h8.213v1.831h-5.959v6.912h14.867v-6.912h-5.934V16.18h8.271zm-14.262 8.71v-2.2h9.008v2.2zm25.268-11.1c4.914 0 7.749-1.276 7.757-3.663-.008-2.345-2.843-3.63-7.757-3.63s-7.773 1.285-7.765 3.63c-.01 2.38 2.841 3.657 7.763 3.657zm0-5.1c3.166-.008 4.674.506 4.674 1.442 0 1.052-1.508 1.459-4.674 1.467-3.124-.008-4.649-.414-4.633-1.467-.018-.948 1.507-1.462 4.631-1.453zm-9.714 8.471h19.459v-2.37h-19.459zm17.08 6.671V16.03h-14.834v2.2H426.7v1.16h-11.869v5.627H430.2V22.76h-12.435v-1.285zm24.812 3.688h2.826V3.815h-2.826zm-7.144-14.022v2.4h2.809v10.632h2.8v-20h-2.8v6.97zM445.6 8.4h3.232V6h-9.613v2.4h3.5v1.133c0 3.63-1.169 7.459-4.309 9.4l1.807 2.2a9.93 9.93 0 0 0 3.978-5.809 9.022 9.022 0 0 0 3.878 5.32l1.749-2.2c-3.116-1.782-4.227-5.362-4.218-8.917zm15.97 8.039c3.68-.671 6.414-2.552 7.765-5.13 1.376 2.528 4.144 4.351 7.881 5.006l1.184-2.365c-4.575-.671-7.235-3.265-7.492-6.083h6.5V5.448h-16.176v2.42h6.489c-.257 2.826-2.9 5.494-7.326 6.207zm9.273-.945h-3v4.757h-8.238v2.428h19.508v-2.43h-8.271zM488.6 14.24a1.525 1.525 0 0 0 1.488 1.608 1.488 1.488 0 0 0 1.512-1.608 1.463 1.463 0 0 0-1.488-1.584 1.509 1.509 0 0 0-1.512 1.584zm22.256-5.005c1.392 2.312 4.127 4.044 7.856 4.575l1.169-2.412c-4.881-.6-7.45-3.39-7.45-5.909V4.453h-3.141v1.036c-.008 2.519-2.569 5.3-7.417 5.909l1.177 2.412c3.696-.531 6.414-2.263 7.806-4.575zm-9.738 6.191v2.436h8.188v7.3h2.959v-7.3h8.312v-2.437zm35.6-11.61v11.477h3V3.815zm-8.693.9c-3.331-.008-5.843 2.072-5.834 5.064-.008 2.917 2.5 5 5.834 5s5.826-2.08 5.826-5c.003-2.998-2.5-5.08-5.823-5.07zm0 2.494a2.578 2.578 0 0 1 2.875 2.563c0 1.591-1.21 2.536-2.876 2.544-1.707-.008-2.925-.953-2.909-2.544-.015-1.599 1.205-2.573 2.913-2.573zm-2.569 9.025v8.693h14.262v-8.699h-2.983v1.981H528.4v-1.981zm2.942 4.3h8.337V22.5H528.4zm31.044-8.354V3.815h-2.959v21.348h2.959V14.638h3.149v-2.461zm-12.105-8.026v2.851h-4.831V9.4h12.539V7h-4.725V4.155zm1.492 6.439c-3.149 0-5.47 2.113-5.461 5.088-.008 2.983 2.312 5.08 5.461 5.088a5.1 5.1 0 1 0 0-10.177zm0 7.724a2.447 2.447 0 0 1-2.594-2.635 2.591 2.591 0 1 1 5.18 0 2.462 2.462 0 0 1-2.586 2.635zm29.577-10.11h-4.674a5.008 5.008 0 0 0-4.483-2.884c-3.24 0-5.552 2.95-5.544 7.591-.008 4.691 2.3 7.624 5.544 7.624a5.1 5.1 0 0 0 4.7-3.323h4.459v8h2.959V3.815h-2.959zm-9.157 9.622c-1.591 0-2.685-1.724-2.677-4.914-.008-3.157 1.086-4.89 2.677-4.89 1.608 0 2.677 1.732 2.685 4.89-.009 3.184-1.078 4.913-2.685 4.913zm5.378-3.008a12.644 12.644 0 0 0 .141-1.906 12.443 12.443 0 0 0-.207-2.3h3.845v4.2zm34.541-2.71h-2.743a28.063 28.063 0 0 0 .439-5.677V4.751h-14.817v2.387h11.826a25.393 25.393 0 0 1-.456 4.972H589.66v2.4h8.213v3.058h-6.257v2.345h12.257v5.254h3v-7.6h-6v-3.061h8.3zm16.757-.041h-2V4.188h-2.8v19.931h2.8v-9.63h2v10.674h2.875V3.815h-2.876zm-11.66-5.884h-3V19.95h1.45a41.762 41.762 0 0 0 7.5-.63l-.3-2.577a34.653 34.653 0 0 1-5.652.6zm39.356-2.337h-3v15.7h3v-7.224h2.867V9.848h-2.867zm-4.227 9.82q-1.206.149-2.486.249V7.992h1.74V5.613h-11.5v2.379h1.752v6.265c-.812.008-1.591.017-2.32.017l.323 2.4a77.407 77.407 0 0 0 12.721-.8zm-5.362-5.677v6.116c-.762.033-1.517.066-2.262.083v-6.2zm-4.251 10.069v6.728h14.6v-2.412h-11.616v-4.317zm33.29-6.091h-1.923V4.146h-2.826v20.03h2.826v-9.77h1.923v10.757h2.859V3.815h-2.859zm-6.539 7.823V6.036h-8.486v13.757zM663.74 8.39v9.058h-2.892V8.39zm22.7 5.85a1.525 1.525 0 0 0 1.488 1.608 1.488 1.488 0 0 0 1.512-1.608 1.463 1.463 0 0 0-1.488-1.584 1.509 1.509 0 0 0-1.508 1.584zm22.189-.19c4.583.008 7.782-1.815 7.782-4.691 0-2.942-3.2-4.823-7.782-4.823s-7.749 1.881-7.74 4.823c-.005 2.876 3.169 4.699 7.744 4.691zm0-7.127c2.884.008 4.691.862 4.691 2.436 0 1.5-1.807 2.329-4.691 2.337-2.859-.008-4.674-.837-4.657-2.337-.013-1.574 1.802-2.428 4.661-2.436zm-9.7 8.776v2.4h4.471v7.061h3.066V18.1h4.376v7.061h3.033V18.1h4.566v-2.4zM730.9 13.5h6.174v-2.276h-11.982v-1.218h11.3V7.834h-11.3V6.649h11.8V4.337h-14.784V13.5h5.792v1.32h-8.238v2.345h19.508V14.82h-8.27zm-1.5 4.633c-4.765-.008-7.467 1.26-7.467 3.506 0 2.3 2.7 3.522 7.467 3.514 4.707.008 7.417-1.21 7.434-3.514-.016-2.239-2.726-3.512-7.434-3.504zm0 4.807c-3.058.008-4.483-.39-4.475-1.3-.008-.9 1.417-1.293 4.475-1.293 3.008 0 4.425.4 4.434 1.293-.008.912-1.425 1.31-4.434 1.302z" transform="translate(30 51)"/>
    </g>
    <path id="세로-9" data-name="세로" class="cls-10" transform="translate(668 1640)" d="M0 0h1v50H0z"/>
    <path id="세로-10" data-name="세로" class="cls-10" transform="translate(668 2000)" d="M0 0h1v50H0z"/>
    <path id="세로-11" data-name="세로" class="cls-10" transform="translate(668 1460)" d="M0 0h1v50H0z"/>
    <path id="세로-12" data-name="세로" class="cls-10" transform="translate(668 1820)" d="M0 0h1v50H0z"/>
    <path id="세로-13" data-name="세로" class="cls-10" transform="translate(953 1000)" d="M0 0h1v50H0z"/>
    <path id="세로-14" data-name="세로" class="cls-10" transform="translate(953 1281)" d="M0 0h1v50H0z"/>
    <path id="세로-15" data-name="세로" class="cls-10" transform="translate(862 1231)" d="M0 0h1v50H0z"/>
    <path id="세로-16" data-name="세로" class="cls-10" transform="translate(1044 1231)" d="M0 0h1v50H0z"/>
    <path id="사각형_913" data-name="사각형 913" class="cls-10" transform="translate(863 1050)" d="M0 0h181v1H0z"/>
    <path id="사각형_914" data-name="사각형 914" class="cls-10" transform="translate(863 1280)" d="M0 0h181v1H0z"/>
    <path id="세로-17" data-name="세로" class="cls-10" transform="translate(1044 1050)" d="M0 0h1v50H0z"/>
    <path id="세로-18" data-name="세로" class="cls-10" transform="translate(862 1050)" d="M0 0h1v50H0z"/>
    <g id="fc_box_smaller_long" transform="translate(961 1100)">
        <g transform="translate(-961 -1100)" style="filter:url(#box-9)">
            <g id="box-19" data-name="box" class="cls-7">
                <path class="cls-11" d="M0 0h166v130H0z" transform="translate(961 1100)"/>
                <path class="cls-13" d="M1 1h164v128H1z" transform="translate(961 1100)"/>
            </g>
        </g>
        <path id="패스_11164" data-name="패스 11164" class="cls-8" d="M21 20.8h2.355V3.012H21zM15.044 9.117v2h2.341v8.854h2.335V3.309h-2.335v5.808zm-1.43-2.286h2.693v-2H8.3v2h2.914v.946c0 3.025-.974 6.215-3.591 7.831l1.506 1.837a8.275 8.275 0 0 0 3.312-4.845 7.518 7.518 0 0 0 3.232 4.434l1.457-1.83c-2.6-1.485-3.522-4.468-3.515-7.431zm13.212 1.382v2h13.1v-2h-2.2v-2.7h2.314v-2H26.709v2h2.307v2.7zm4.675 0v-2.7h3.722v2.7zm10 3.135H25.286v1.968h6.844v1.526h-4.966V20.6h12.39v-5.76h-4.945v-1.524H41.5zm-11.885 7.258v-1.837h7.507v1.837zm25.635-7.065c3.819.007 6.485-1.512 6.485-3.909 0-2.452-2.666-4.019-6.485-4.019s-6.457 1.568-6.451 4.02c-.006 2.396 2.639 3.915 6.451 3.908zm0-5.939c2.4.007 3.909.718 3.909 2.03 0 1.25-1.506 1.941-3.909 1.948-2.383-.007-3.9-.7-3.881-1.948-.014-1.312 1.499-2.023 3.881-2.032zm-8.08 7.314v2h3.722V20.8h2.555v-5.881H57.1V20.8h2.528v-5.881h3.805v-2zM78.5 9.87V3.012h-2.489V20.8H78.5v-8.823h2.624V9.87zm-7.475-5.483h-2.493v2.659c-.007 3.3-1.43 6.7-4.434 8.08l1.526 2.023a8.59 8.59 0 0 0 4.164-5.18 8.108 8.108 0 0 0 3.93 4.834l1.506-1.982c-2.852-1.381-4.213-4.593-4.2-7.776zm25.732 9.054V3.012h-2.486v3.267h-3.336v2.037h3.336v5.124zm-9.468-4.075a6.528 6.528 0 0 0 3.95 3.481l1.326-1.947a5.427 5.427 0 0 1-4.075-5.464V3.945h-2.513v1.609A5.938 5.938 0 0 1 81.6 11.4l1.326 1.989a7.061 7.061 0 0 0 4.363-4.023zM90.68 13.9c-3.785 0-6.112 1.278-6.1 3.46s2.32 3.44 6.1 3.44 6.119-1.243 6.126-3.439S94.478 13.9 90.68 13.9zm0 4.959c-2.355.007-3.633-.511-3.626-1.5-.007-1.015 1.271-1.526 3.626-1.526s3.646.511 3.653 1.526c-.007.985-1.292 1.503-3.653 1.496zM29.015 33.04v12.776h2.5V33.04zm-2.39 5.608a4.571 4.571 0 0 0-4.855-4.482 4.51 4.51 0 1 0 0 8.992 4.567 4.567 0 0 0 4.856-4.51zm-7.279 0a2.237 2.237 0 0 1 2.424-2.314 2.328 2.328 0 1 1 0 4.655 2.237 2.237 0 0 1-2.423-2.341zm2.776 5.877H19.6v5.967h12.385v-2.01h-9.862zm21.527-5.145h2.776v4.2h2.486V33.012h-2.486v4.337h-2.776zm-4.24.221a6.774 6.774 0 0 0 4.091 3.522l1.229-1.961a5.5 5.5 0 0 1-4.091-5.062h3.543v-2H34.54v2h3.56a5.918 5.918 0 0 1-4.289 5.511l1.291 1.975a7.052 7.052 0 0 0 4.307-3.986zm3.425 4.372c-3.785 0-6.112 1.271-6.1 3.425s2.32 3.419 6.1 3.425 6.119-1.271 6.126-3.425-2.327-3.426-6.126-3.426zm0 4.945c-2.355.007-3.633-.5-3.626-1.519s1.271-1.533 3.626-1.533 3.646.511 3.653 1.533-1.287 1.525-3.653 1.518zm25.38-15.878v12.977h2.5V33.04zm-6.851 6.547a6.851 6.851 0 0 0 4.178 3.695l1.271-1.961a5.645 5.645 0 0 1-4.171-5.594v-1.713h-2.583v1.713a6.047 6.047 0 0 1-4.289 5.9l1.3 1.968a7.1 7.1 0 0 0 4.294-4.008zm-.041 5.166H58.8v5.739h12.384v-2.01h-9.862zm17.155-4.662a6.556 6.556 0 0 0 4.254 3.08l1.167-1.92c-2.859-.739-4.2-2.59-4.22-4.413h3.577v-1.961h-3.55V32.95h-2.513v1.927h-3.577v1.961h3.577c-.021 2.017-1.34 4.033-4.185 4.848l1.167 1.948a6.563 6.563 0 0 0 4.303-3.543zm4.254-.3h2.894v3.985h2.485V33.012h-2.486v4.779h-2.893zm-.7 4.282c-3.771 0-6.112 1.2-6.1 3.336s2.334 3.4 6.1 3.391 6.119-1.243 6.126-3.391-2.339-3.34-6.124-3.34zm0 4.834c-2.355-.007-3.633-.525-3.626-1.5-.007-.953 1.271-1.436 3.626-1.43 2.4-.007 3.646.477 3.653 1.43-.004.971-1.248 1.493-3.651 1.493z" transform="translate(30 38)"/>
    </g>
    <g id="fc_box_smaller_long-2" data-name="fc_box_smaller_long" transform="translate(779 1100)">
        <g transform="translate(-779 -1100)" style="filter:url(#box-10)">
            <g id="box-20" data-name="box" class="cls-7">
                <path class="cls-11" d="M0 0h166v130H0z" transform="translate(779 1100)"/>
                <path class="cls-13" d="M1 1h164v128H1z" transform="translate(779 1100)"/>
            </g>
        </g>
        <path id="패스_11163" data-name="패스 11163" class="cls-8" d="M29.644 20.8H32V3.012h-2.356zM23.691 9.117v2h2.341v8.854h2.334V3.309h-2.334v5.808zm-1.43-2.286h2.693v-2h-8.011v2h2.914v.946c0 3.025-.974 6.215-3.591 7.831l1.506 1.837a8.275 8.275 0 0 0 3.315-4.845 7.518 7.518 0 0 0 3.232 4.434l1.457-1.83c-2.6-1.485-3.522-4.468-3.515-7.431zm13.211 1.382v2h13.1v-2h-2.2v-2.7h2.314v-2H35.355v2h2.307v2.7zm4.675 0v-2.7h3.723v2.7zm10 3.135H33.932v1.968h6.844v1.526h-4.965V20.6H48.2v-5.76h-4.944v-1.524h6.892zm-11.885 7.258v-1.837h7.507v1.837zm25.691-11.83c1.133 1.747 3.356 3.046 6.367 3.453l.912-1.961c-3.936-.449-6.008-2.521-6-4.385V3.3h-2.57v.587c-.007 1.878-2.086 3.936-6.036 4.385l.953 1.961c3.021-.411 5.235-1.703 6.374-3.457zm-8.115 6.388h16.216V11.21H55.838zm8.073 1.2c-3.888-.007-6.222 1.14-6.222 3.232 0 2.051 2.334 3.218 6.222 3.225 3.847-.007 6.181-1.174 6.195-3.225-.013-2.09-2.348-3.237-6.194-3.23zm0 4.551c-2.459.007-3.695-.407-3.681-1.319-.014-.925 1.222-1.34 3.681-1.354 2.417.014 3.688.428 3.695 1.354s-1.277 1.328-3.694 1.321zM85.507 3.04v12.776h2.5V3.04zm-2.39 5.608a4.874 4.874 0 0 0-9.717 0 4.872 4.872 0 0 0 9.717 0zm-7.279 0a2.412 2.412 0 0 1 4.82 0 2.411 2.411 0 0 1-4.82 0zm2.776 5.877h-2.52v5.967h12.383v-2.01h-9.862zm-30 18.515v12.977h2.5V33.04zm-6.851 6.547a6.851 6.851 0 0 0 4.178 3.695l1.271-1.961a5.645 5.645 0 0 1-4.171-5.594v-1.713h-2.582v1.713a6.047 6.047 0 0 1-4.289 5.9l1.3 1.968a7.1 7.1 0 0 0 4.294-4.008zm-.041 5.166H39.2v5.739h12.384v-2.01h-9.862zm17.155-4.662a6.556 6.556 0 0 0 4.254 3.08l1.167-1.92c-2.859-.739-4.2-2.59-4.22-4.413h3.577v-1.961h-3.55V32.95h-2.512v1.927h-3.578v1.961h3.577c-.021 2.017-1.34 4.033-4.185 4.848l1.167 1.948a6.563 6.563 0 0 0 4.303-3.543zm4.254-.3h2.894v3.985h2.486V33.012h-2.486v4.779h-2.894zm-.7 4.282c-3.771 0-6.112 1.2-6.1 3.336s2.334 3.4 6.1 3.391 6.119-1.243 6.126-3.391-2.339-3.34-6.123-3.34zm0 4.834c-2.355-.007-3.633-.525-3.626-1.5-.007-.953 1.271-1.436 3.626-1.43 2.4-.007 3.646.477 3.653 1.43-.004.971-1.247 1.493-3.65 1.493z" transform="translate(30 38)"/>
    </g>
    <path id="다각형_14" data-name="다각형 14" class="cls-10" d="M7.5 0 15 11H0z" transform="rotate(180 338 143.5)"/>
    <path id="다각형_89" data-name="다각형 89" class="cls-10" d="M7.5 0 15 11H0z" transform="rotate(180 195.5 668)"/>
    <path id="다각형_90" data-name="다각형 90" class="cls-10" d="M7.5 0 15 11H0z" transform="rotate(180 195.5 438)"/>
    <path id="다각형_91" data-name="다각형 91" class="cls-10" d="M7.5 0 15 11H0z" transform="rotate(180 195.5 323)"/>
    <path id="다각형_92" data-name="다각형 92" class="cls-10" d="M7.5 0 15 11H0z" transform="rotate(180 480.5 668)"/>
    <path id="다각형_93" data-name="다각형 93" class="cls-10" d="M7.5 0 15 11H0z" transform="rotate(180 480.5 438)"/>
    <path id="다각형_94" data-name="다각형 94" class="cls-10" d="M7.5 0 15 11H0z" transform="rotate(180 480.5 323)"/>
    <path id="다각형_95" data-name="다각형 95" class="cls-10" d="M7.5 0 15 11H0z" transform="rotate(180 435 553)"/>
    <path id="다각형_96" data-name="다각형 96" class="cls-10" d="M7.5 0 15 11H0z" transform="rotate(180 526 553)"/>
    <path id="다각형_97" data-name="다각형 97" class="cls-10" d="M7.5 0 15 11H0z" transform="rotate(180 338 758)"/>
    <path id="다각형_98" data-name="다각형 98" class="cls-10" d="M7.5 0 15 11H0z" transform="rotate(180 338 848)"/>
    <path id="다각형_99" data-name="다각형 99" class="cls-10" d="M7.5 0 15 11H0z" transform="rotate(180 338 938)"/>
    <path id="다각형_100" data-name="다각형 100" class="cls-10" d="M7.5 0 15 11H0z" transform="rotate(180 338 1028)"/>
</svg>
