<svg id="flow_chart_2_7_3" xmlns="http://www.w3.org/2000/svg" width="1336" height="2000" viewBox="0 0 1336 2000">
    <defs>
        <filter id="area" x="105" y="94" width="1126" height="148" filterUnits="userSpaceOnUse">
            <feOffset dy="3"/>
            <feGaussianBlur stdDeviation="3" result="blur"/>
            <feFlood flood-color="#111" flood-opacity=".102"/>
            <feComposite operator="in" in2="blur"/>
            <feComposite in="SourceGraphic"/>
        </filter>
        <filter id="box" x="105" y="274" width="1126" height="148" filterUnits="userSpaceOnUse">
            <feOffset dy="3"/>
            <feGaussianBlur stdDeviation="3" result="blur-2"/>
            <feFlood flood-color="#111" flood-opacity=".102"/>
            <feComposite operator="in" in2="blur-2"/>
            <feComposite in="SourceGraphic"/>
        </filter>
        <filter id="box-2" x="105" y="454" width="1126" height="148" filterUnits="userSpaceOnUse">
            <feOffset dy="3"/>
            <feGaussianBlur stdDeviation="3" result="blur-3"/>
            <feFlood flood-color="#111" flood-opacity=".102"/>
            <feComposite operator="in" in2="blur-3"/>
            <feComposite in="SourceGraphic"/>
        </filter>
        <filter id="box-3" x="105" y="634" width="1126" height="148" filterUnits="userSpaceOnUse">
            <feOffset dy="3"/>
            <feGaussianBlur stdDeviation="3" result="blur-4"/>
            <feFlood flood-color="#111" flood-opacity=".102"/>
            <feComposite operator="in" in2="blur-4"/>
            <feComposite in="SourceGraphic"/>
        </filter>
        <filter id="box-4" x="105" y="814" width="1126" height="148" filterUnits="userSpaceOnUse">
            <feOffset dy="3"/>
            <feGaussianBlur stdDeviation="3" result="blur-5"/>
            <feFlood flood-color="#111" flood-opacity=".102"/>
            <feComposite operator="in" in2="blur-5"/>
            <feComposite in="SourceGraphic"/>
        </filter>
        <filter id="다각형_3" x="390" y="994" width="556" height="278" filterUnits="userSpaceOnUse">
            <feOffset dy="3"/>
            <feGaussianBlur stdDeviation="3" result="blur-6"/>
            <feFlood flood-color="#111" flood-opacity=".102"/>
            <feComposite operator="in" in2="blur-6"/>
            <feComposite in="SourceGraphic"/>
        </filter>
        <filter id="area-2" x="105" y="1764" width="1126" height="148" filterUnits="userSpaceOnUse">
            <feOffset dy="3"/>
            <feGaussianBlur stdDeviation="3" result="blur-7"/>
            <feFlood flood-color="#111" flood-opacity=".102"/>
            <feComposite operator="in" in2="blur-7"/>
            <feComposite in="SourceGraphic"/>
        </filter>
        <filter id="box-5" x="105" y="1354" width="556" height="148" filterUnits="userSpaceOnUse">
            <feOffset dy="3"/>
            <feGaussianBlur stdDeviation="3" result="blur-8"/>
            <feFlood flood-color="#111" flood-opacity=".102"/>
            <feComposite operator="in" in2="blur-8"/>
            <feComposite in="SourceGraphic"/>
        </filter>
        <filter id="box-6" x="105" y="1534" width="556" height="148" filterUnits="userSpaceOnUse">
            <feOffset dy="3"/>
            <feGaussianBlur stdDeviation="3" result="blur-9"/>
            <feFlood flood-color="#111" flood-opacity=".102"/>
            <feComposite operator="in" in2="blur-9"/>
            <feComposite in="SourceGraphic"/>
        </filter>
        <style>
            .cls-1{fill:#f8f8f8}.cls-2,.cls-5{fill:#fff}.cls-2{stroke:#999;stroke-width:2px}.cls-3{fill:#333}.cls-4{fill:red;opacity:0}.cls-5,.cls-6{stroke:#326f5e;stroke-width:1.5px}.cls-13,.cls-6{fill:none}.cls-7{fill:#326f5e}.cls-10{fill:#999}.cls-12{stroke:none}
        </style>
    </defs>
    <path id="bg" class="cls-1" d="M0 0h1336v2000H0z"/>
    <g id="fc_boxes" transform="translate(-293 -944)">
        <g id="fc_start_end" transform="translate(407 1044)">
            <g transform="translate(-114 -100)" style="filter:url(#area)">
                <g id="area-3" data-name="area" class="cls-2" transform="translate(114 100)">
                    <rect class="cls-12" width="1108" height="130" rx="65"/>
                    <rect class="cls-13" x="1" y="1" width="1106" height="128" rx="64"/>
                </g>
            </g>
            <path id="패스_11074" data-name="패스 11074" class="cls-3" d="M425.207 11.945c-.481-3.9-3.431-6.149-7.343-6.149-4.483 0-7.889 3.182-7.889 8.718s3.348 8.718 7.889 8.718c4.309 0 6.945-2.859 7.343-5.992l-3.564-.017a3.521 3.521 0 0 1-3.721 2.884c-2.6 0-4.376-1.931-4.376-5.594 0-3.572 1.749-5.594 4.392-5.594a3.5 3.5 0 0 1 3.7 3.025zm15.05-1.061c-.05-3.008-2.528-5.088-6.29-5.088-3.7 0-6.431 2.047-6.414 5.122-.008 2.5 1.757 3.928 4.616 4.624l1.856.456c1.848.456 2.892.994 2.9 2.146-.008 1.276-1.2 2.13-3.05 2.13-1.873 0-3.232-.854-3.348-2.561H427.1c.1 3.63 2.718 5.528 6.812 5.528 4.135 0 6.555-1.981 6.572-5.08-.017-2.834-2.18-4.318-5.08-4.972l-1.533-.373c-1.467-.34-2.735-.887-2.71-2.13 0-1.119.994-1.939 2.776-1.939 1.724 0 2.793.787 2.925 2.138zM456.127 23l-3.613-6.6a4.885 4.885 0 0 0 3-4.84c0-3.348-2.213-5.528-6.075-5.528h-6.646V23h3.522v-6.033H449L452.224 23zm-7.342-14.08c2.1 0 3.108.936 3.108 2.635s-1.011 2.561-3.1 2.561h-2.478V8.92zm30.828.08V3.815h-3v12.878h3v-5.2h2.867V9zm-10.533 2.754a8.105 8.105 0 0 0 4.92 4.185l1.517-2.3c-3.448-1.119-4.956-3.671-4.964-6.174h4.26v-2.39H463.18v2.386h4.359A6.963 6.963 0 0 1 462.367 14l1.583 2.3a8.354 8.354 0 0 0 5.13-4.546zm7.533 8.238v5.171h3V17.6h-14.362v2.387zm24.8-3.663V3.815h-2.983v3.92h-4v2.445h4v6.149zm-11.362-4.89a7.834 7.834 0 0 0 4.74 4.177l1.591-2.337a6.513 6.513 0 0 1-4.882-6.555v-1.79h-3.017v1.931a7.126 7.126 0 0 1-5.246 7.019l1.591 2.387a8.473 8.473 0 0 0 5.227-4.832zm4.069 5.436c-4.541 0-7.334 1.533-7.326 4.152-.008 2.635 2.785 4.135 7.326 4.127 4.558.008 7.343-1.492 7.351-4.127-.004-2.618-2.789-4.151-7.347-4.151zm0 5.95c-2.826.008-4.359-.613-4.351-1.8-.008-1.218 1.525-1.831 4.351-1.831s4.376.613 4.384 1.831c-.004 1.188-1.545 1.809-4.38 1.801zm30.551-19.01v21.4h2.975v-21.4zm-8.047 1.434c-3.356 0-5.925 2.18-5.917 5.238-.008 3.066 2.561 5.238 5.917 5.238 3.4 0 5.909-2.171 5.925-5.238-.016-3.059-2.527-5.238-5.925-5.238zm0 2.586c1.715 0 3 .986 3.008 2.652-.008 1.691-1.3 2.652-3.008 2.652a2.667 2.667 0 1 1 0-5.3zm-6.464 13.01a72.213 72.213 0 0 0 13.525-.961l-.224-2.155a103.741 103.741 0 0 1-13.641.688zm22.6-15.978v8.594h14.876V4.867zm2.934 6.257V7.238h8.967v3.887zm-5.238 4.633v2.4h8.213v6.973h2.959v-6.978h8.337v-2.4zm43.367-3.257V3.815h-3.017v21.348h3.017V14.978h2.785V12.5zm-9.05-6.3V3.939h-3.008V6.2h-4.84v2.347h12.655V6.2zm0 11.064c2.254-.431 3.754-1.89 3.771-3.862-.017-2.4-2.2-4.019-5.246-4.019-3.108 0-5.262 1.624-5.254 4.019-.008 1.964 1.459 3.414 3.721 3.854V19.1c-1.89.041-3.7.041-5.254.041l.4 2.436a72.853 72.853 0 0 0 13.036-.87l-.2-2.171c-1.591.224-3.282.356-4.972.448zm-3.886-3.864c-.008-1.11.953-1.74 2.412-1.74 1.417 0 2.37.63 2.37 1.74s-.953 1.724-2.37 1.724c-1.459.003-2.421-.602-2.412-1.724zm24.456-7.666V3.715h-2.983v2.023h-4.848v2.345h12.663V5.738zm9.1 3.63V3.815h-3v13.392h3V11.8h2.867V9.367zm-5.345 3.34c0-2.345-2.155-3.928-5.246-3.936-3.1.008-5.3 1.591-5.3 3.936-.008 2.345 2.2 3.928 5.3 3.928s5.248-1.58 5.248-3.925zm-7.633 0c0-1.094.953-1.682 2.387-1.691 1.425.008 2.4.6 2.412 1.691-.008 1.086-.986 1.649-2.412 1.649s-2.388-.56-2.388-1.646zm9.978 7.782v4.674h3V18.1H580.08v2.387zm9.232-16.036v6.721h14.585V4.453zm2.934 4.409v-2.1h8.66v2.1zm14.12 3.441h-19.458v2.345h8.188v1.367h-5.942v2.254H612.4v1.1h-11.867v5.644h15.373v-2.25h-12.439v-1.285h11.884v-5.461h-5.892v-1.368h8.271zm16.144-8.486v10.957h2.967V3.815zm-8.006 6.812a7.984 7.984 0 0 0 5.155 3.936l1.417-2.3c-3.273-.854-4.881-2.934-5.088-5.064h4.268V4.809h-11.727V7.2h4.384c-.215 2.287-1.848 4.525-5.163 5.453L620.472 15a8.2 8.2 0 0 0 5.395-4.373zm-.34 10.691h11.345v-5.693h-14.311v2.262h11.329v1.294h-11.28v5.834h14.843v-2.3h-11.925z" transform="translate(30 50)"/>
        </g>
        <g id="fc_box_big_no_btn" transform="translate(407 1224)">
            <g transform="translate(-114 -280)" style="filter:url(#box)">
                <g id="box-7" data-name="box" class="cls-2">
                    <path class="cls-12" d="M0 0h1108v130H0z" transform="translate(114 280)"/>
                    <path class="cls-13" d="M1 1h1106v128H1z" transform="translate(114 280)"/>
                </g>
            </g>
            <path id="패스_11075" data-name="패스 11075" class="cls-3" d="m453.351 6.028-4.2 2.669v3.133l3.9-2.445h.1V23h3.53V6.028zm8.412 17.18a1.96 1.96 0 1 0 0-3.92 1.96 1.96 0 1 0 0 3.92zm23.693 1.956h3.025V3.815h-3.025zm-13.682-19.1v2.342h7.268c-.481 4.74-2.909 8.1-8.412 10.715l1.558 2.378c7.624-3.6 9.9-8.975 9.9-15.439zm30.738 7.251h5.76V4.594h-2.959v2.13h-8.569v-2.13H493.8v8.718h5.71v1.807h-8.2v2.4h19.459v-2.4h-8.262zm2.8-4.293v1.923h-8.569V9.019zm-11.652 9.71v6.058h14.892v-2.412H496.66v-3.646zm30.066-7.276h3.332v5.039h2.983V3.815h-2.983v5.2h-3.332zm-5.088.265a8.128 8.128 0 0 0 4.906 4.227l1.475-2.354a6.6 6.6 0 0 1-4.906-6.075h4.251v-2.4H512.8v2.4h4.276a7.1 7.1 0 0 1-5.146 6.613l1.55 2.37a8.462 8.462 0 0 0 5.158-4.781zm4.111 5.246c-4.541 0-7.334 1.525-7.326 4.11-.008 2.586 2.785 4.1 7.326 4.11 4.558-.008 7.343-1.525 7.351-4.11-.009-2.585-2.793-4.11-7.351-4.11zm0 5.934c-2.826.008-4.359-.6-4.351-1.823-.008-1.227 1.525-1.84 4.351-1.84s4.376.613 4.384 1.84c-.009 1.222-1.55 1.831-4.384 1.822zm21.257-6.6h6.157V5.182h-2.983v3.324h-9.3V5.182h-3V16.3h6.166v3.953h-8.229v2.428h19.508v-2.432h-8.32zm3.174-5.42v3.033h-9.3v-3.038zm19.856-5.47V3.666h-2.983v1.74h-4.624v2.171h12.2V5.406zm9.116 4.541v-6.1h-2.992v14.491h2.992V12.4h2.735V9.948zm-3.986 5.072c-1.633.2-3.381.34-5.13.423v-1.1c2.271-.34 3.7-1.467 3.7-3.091-.008-1.972-2.08-3.191-5.221-3.182-3.157-.008-5.238 1.21-5.229 3.182-.008 1.641 1.442 2.776 3.762 3.1v1.2c-1.848.05-3.622.058-5.188.058l.307 2.312a79.952 79.952 0 0 0 13.21-.845zm-9.017-3.771c-.008-.82.854-1.193 2.37-1.193 1.5 0 2.354.373 2.362 1.193-.008.779-.862 1.235-2.362 1.227-1.519.003-2.378-.452-2.37-1.231zM573.16 21.5v3.663h2.992v-5.975h-14.577V21.5zm21.547-17.652V19.18h3V3.848zm-2.867 6.729c0-3.124-2.552-5.378-5.826-5.378s-5.843 2.254-5.834 5.378c-.008 3.174 2.561 5.412 5.834 5.412s5.826-2.238 5.826-5.412zm-8.735 0a2.895 2.895 0 0 1 5.785 0 2.893 2.893 0 0 1-5.785 0zm3.331 7.052h-3.025v7.16h14.859v-2.411h-11.834z" transform="translate(30 36)"/>
            <g id="fc_textlink" transform="translate(671 79)">
                <g id="stack" transform="translate(-2524.094 20210)">
                    <g id="ico_fc_pop_up" transform="translate(2421.503 -20209)">
                        <g id="그룹_1025" data-name="그룹 1025" transform="translate(-1101.074 -1125)">
                            <g id="그룹_1026" data-name="그룹 1026" transform="translate(1108.074 1129)">
                                <path id="사각형_878" data-name="사각형 878" class="cls-5" d="M0 0h9v9H0z"/>
                            </g>
                            <path id="패스_6896" data-name="패스 6896" class="cls-6" d="M1104.574 1132.941v9h9" transform="translate(.5 -.941)"/>
                        </g>
                    </g>
                    <path id="패스_11076" data-name="패스 11076" class="cls-7" d="M-11.981-7.669h-3.89v1.227h3.89v7.8h1.481v-14.032h-1.481zM-20-10.144h4.917v-1.226H-21.5v9.287h1.1a31.721 31.721 0 0 0 6.365-.464l-.165-1.215a30.034 30.034 0 0 1-5.8.442zM2.66-4.508h4.188v-7.21H5.373V-9.3H-1.5v-2.414h-1.486v7.21h4.177v2.873h-5.636v1.222H8.367v-1.226H2.66zm2.713-3.6v2.4H-1.5v-2.4zm14.16 9.436h1.492v-14h-1.492zM10.2-11.166v1.182h5.149c-.293 3.265-2.1 5.79-5.829 7.558l.785 1.2c4.807-2.293 6.547-5.845 6.558-9.939zM-22.7 2h45.4v1h-45.4z" transform="translate(2394.798 -20194)"/>
                </g>
            </g>
        </g>
        <g id="fc_box_big_no_btn-2" data-name="fc_box_big_no_btn" transform="translate(407 1404)">
            <g transform="translate(-114 -460)" style="filter:url(#box-2)">
                <g id="box-8" data-name="box" class="cls-2">
                    <path class="cls-12" d="M0 0h1108v130H0z" transform="translate(114 460)"/>
                    <path class="cls-13" d="M1 1h1106v128H1z" transform="translate(114 460)"/>
                </g>
            </g>
            <path id="패스_11077" data-name="패스 11077" class="cls-3" d="M448.979 23v-2.892h-7.26v-.116l2.586-2.494c3.5-3.166 4.434-4.757 4.442-6.688-.008-2.942-2.42-5.014-6.066-5.014-3.564 0-6.025 2.122-6.017 5.445h3.348a2.674 2.674 0 0 1 5.337-.207c-.008 1.359-.862 2.3-2.436 3.812l-6.1 5.61.009 2.544zm4.558.207a1.96 1.96 0 1 0 0-3.92 1.96 1.96 0 1 0 0 3.92zm22.8-18.7v2.225h-8.569V4.5h-2.942v8.768h14.47V4.5zm-8.569 6.414V8.953h8.569v1.964zm-5.453 6.2h8.528v3.439h2.957v-3.444h8.022v-2.354h-19.509zm2.287 1.765v5.904h15.075v-2.412h-12.109v-3.5zm20.775-10.397V14.8h15.456v-2.4h-12.44v-1.731h11.942V4.47h-15.024v2.42h11.95v1.6zm-2.312 7.865v2.337h4.558v6.472h2.992v-6.472h4.442v6.472h3.017v-6.472h4.5v-2.337zm29.018-2.114a1.525 1.525 0 0 0 1.488 1.608 1.488 1.488 0 0 0 1.512-1.608 1.463 1.463 0 0 0-1.488-1.584 1.509 1.509 0 0 0-1.512 1.584zm27.087 2.105h3.216v-2.411h-2.909v-6h3.008V5.53h-16.359v2.4h2.95v6h-2.859v2.412h3.224V20.4H524.6v2.4h19.508v-2.4h-4.938zm-2.644-8.412v6h-4.466v-6zm-.356 8.412V20.4h-3.729v-4.055zm24.008 8.867h3.022V3.815h-3.025zm-6.522-19.748h-3.033v3.191c-.017 4.144-1.823 8.229-5.552 9.8l1.807 2.486a10.248 10.248 0 0 0 5.3-6.389 9.946 9.946 0 0 0 5.1 5.867l1.765-2.4c-3.63-1.525-5.4-5.453-5.387-9.373zm25.914-.058v-1.74h-2.983v1.74h-4.624v2.171h12.2V5.406zm9.116 4.541v-6.1h-2.992v14.496h2.992V12.4h2.735V9.948zm-3.986 5.072c-1.633.2-3.381.34-5.13.423v-1.1c2.271-.34 3.7-1.467 3.7-3.091-.008-1.972-2.08-3.191-5.221-3.182-3.157-.008-5.238 1.21-5.229 3.182-.008 1.641 1.442 2.776 3.762 3.1v1.2c-1.848.05-3.622.058-5.188.058l.307 2.312a79.952 79.952 0 0 0 13.21-.845zm-9.017-3.771c-.008-.82.854-1.193 2.37-1.193 1.5 0 2.354.373 2.362 1.193-.008.779-.862 1.235-2.362 1.227-1.516.008-2.377-.447-2.369-1.226zM585.695 21.5v3.663h2.992v-5.975h-14.578V21.5zm21.547-17.652V19.18h3V3.848zm-2.867 6.729c0-3.124-2.552-5.378-5.826-5.378s-5.843 2.254-5.834 5.378c-.008 3.174 2.561 5.412 5.834 5.412s5.825-2.238 5.825-5.412zm-8.735 0a2.895 2.895 0 0 1 5.785 0 2.893 2.893 0 0 1-5.785 0zm3.331 7.052h-3.025v7.16h14.859v-2.411h-11.834z" transform="translate(30 51)"/>
        </g>
        <g id="fc_box_big_no_btn-3" data-name="fc_box_big_no_btn" transform="translate(407 1584)">
            <g transform="translate(-114 -640)" style="filter:url(#box-3)">
                <g id="box-9" data-name="box" class="cls-2">
                    <path class="cls-12" d="M0 0h1108v130H0z" transform="translate(114 640)"/>
                    <path class="cls-13" d="M1 1h1106v128H1z" transform="translate(114 640)"/>
                </g>
            </g>
            <path id="패스_11078" data-name="패스 11078" class="cls-3" d="M463.776 23.232c3.82 0 6.58-2.088 6.564-4.989.017-2.122-1.359-3.638-3.862-3.945v-.133a3.6 3.6 0 0 0 3.224-3.6c.017-2.677-2.345-4.773-5.876-4.773-3.481 0-6.116 2.03-6.174 4.948h3.381c.05-1.3 1.276-2.138 2.776-2.138a2.224 2.224 0 0 1 2.494 2.18c.008 1.343-1.16 2.254-2.843 2.254h-1.575v2.61h1.575c2 0 3.224.978 3.215 2.362.008 1.367-1.2 2.3-2.892 2.3-1.633 0-2.859-.837-2.917-2.088h-3.555c.059 2.965 2.728 5.012 6.465 5.012zm10.616-.025a1.96 1.96 0 1 0 0-3.92 1.96 1.96 0 1 0 0 3.92zm18.472-9.157c4.583.008 7.782-1.815 7.782-4.691 0-2.942-3.2-4.823-7.782-4.823s-7.749 1.881-7.74 4.823c-.008 2.876 3.166 4.699 7.741 4.691zm0-7.127c2.884.008 4.691.862 4.691 2.436 0 1.5-1.807 2.329-4.691 2.337-2.859-.008-4.674-.837-4.657-2.337-.016-1.574 1.798-2.428 4.658-2.436zm-9.7 8.776v2.4h4.467v7.061h3.069V18.1h4.376v7.061h3.033V18.1h4.566v-2.4zm36.381-3.191h-1.732v-8.27h-2.8v20.005h2.8V14.9h1.732v10.263h2.843V3.815h-2.838zM507.633 4.42v2.66H503.9v2.379h10.326V7.08h-3.655V4.42zm1.483 6a4.7 4.7 0 0 0-4.7 5.047c-.008 2.992 1.981 5.1 4.7 5.1s4.674-2.1 4.682-5.1c-.008-2.95-1.955-5.047-4.682-5.047zm0 7.608c-1.235.008-2.08-.928-2.072-2.561-.008-1.6.837-2.569 2.072-2.569 1.2 0 2.047.97 2.055 2.569-.008 1.633-.853 2.569-2.055 2.561zm33.555-1.7V3.815h-2.983v3.92h-4v2.445h4v6.149zm-11.362-4.89a7.834 7.834 0 0 0 4.74 4.177l1.591-2.337a6.513 6.513 0 0 1-4.89-6.555V4.934h-3.017v1.931a7.126 7.126 0 0 1-5.246 7.019l1.591 2.387a8.473 8.473 0 0 0 5.231-4.832zm4.069 5.436c-4.541 0-7.334 1.533-7.326 4.152-.008 2.635 2.785 4.135 7.326 4.127 4.558.008 7.343-1.492 7.351-4.127-.008-2.617-2.793-4.15-7.351-4.15zm0 5.95c-2.826.008-4.359-.613-4.351-1.8-.008-1.218 1.525-1.831 4.351-1.831s4.376.613 4.384 1.831c-.008 1.189-1.549 1.81-4.384 1.802zm33.58-5.959V3.815h-2.983V7.3h-2.61v2.341h2.61v1.641h-2.61v2.387h2.61v3.2zm-5.751-3.746c-.671.075-1.367.141-2.08.2V7.627h1.749v-2.4h-11.354v2.4h1.715v5.992c-.8.008-1.558.017-2.262.017l.315 2.436a77.847 77.847 0 0 0 12.033-.754zm-4.939-5.494v5.867c-.713.033-1.425.058-2.13.075v-5.94zm3.4 9.572c-4.575 0-7.334 1.442-7.326 4-.008 2.478 2.751 3.961 7.326 3.953 4.583.008 7.343-1.475 7.351-3.953-.011-2.556-2.77-3.997-7.353-3.997zm0 5.685c-2.851-.008-4.359-.564-4.351-1.682-.008-1.169 1.5-1.732 4.351-1.732s4.376.564 4.384 1.732c-.011 1.12-1.535 1.676-4.386 1.684zm26.892-10.889V3.815h-2.992v21.3h2.992V14.464h3.017v-2.47zM572.7 6v2.448h7.11c-.564 4.757-3.273 8.155-8.312 10.691l1.682 2.287c7.169-3.522 9.663-9.041 9.68-15.423z" transform="translate(30 51)"/>
        </g>
        <g id="fc_box_big_no_btn-4" data-name="fc_box_big_no_btn" transform="translate(407 1764)">
            <g transform="translate(-114 -820)" style="filter:url(#box-4)">
                <g id="box-10" data-name="box" class="cls-2">
                    <path class="cls-12" d="M0 0h1108v130H0z" transform="translate(114 820)"/>
                    <path class="cls-13" d="M1 1h1106v128H1z" transform="translate(114 820)"/>
                </g>
            </g>
            <path id="패스_11079" data-name="패스 11079" class="cls-3" d="M427.022 17.166V6.028H422.6l-7.185 11.188v2.776h8.246V23h3.365v-3.008h2.138v-2.826zM423.55 9.89h.157v7.276h-4.74v-.133zm9.622 13.318a1.96 1.96 0 1 0 0-3.92 1.96 1.96 0 1 0 0 3.92zm25.723-19.376h-3v15.621h3v-6.945h2.867v-2.461h-2.867zm-10.517 8.428a8.037 8.037 0 0 0 4.823 4.127l1.633-2.238c-3.481-1.119-5.006-3.7-5-6.257V7.8h4.26V5.423h-11.55V7.8h4.276v.091a7 7 0 0 1-5.18 6.68l1.575 2.37a8.493 8.493 0 0 0 5.163-4.681zm-3.323 5.64v6.89h14.6v-2.412h-11.617V17.9zm19.956-9.414V14.8h15.456v-2.4h-12.44v-1.731h11.942V4.47h-15.024v2.42h11.95v1.6zm-2.311 7.868v2.337h4.558v6.472h2.992v-6.472h4.442v6.472h3.017v-6.472h4.5v-2.337zm38.751-.025V3.815h-2.983v3.92h-4v2.445h4v6.149zm-11.362-4.89a7.834 7.834 0 0 0 4.74 4.177l1.591-2.337a6.513 6.513 0 0 1-4.889-6.555v-1.79h-3.017v1.931a7.126 7.126 0 0 1-5.246 7.019l1.591 2.387a8.473 8.473 0 0 0 5.229-4.832zm4.069 5.436c-4.541 0-7.334 1.533-7.326 4.152-.008 2.635 2.785 4.135 7.326 4.127 4.558.008 7.343-1.492 7.351-4.127-.009-2.618-2.794-4.151-7.352-4.151zm0 5.95c-2.826.008-4.359-.613-4.351-1.8-.008-1.218 1.525-1.831 4.351-1.831s4.376.613 4.384 1.831c-.009 1.188-1.55 1.809-4.385 1.801zm18.311-8.586a1.525 1.525 0 0 0 1.488 1.608 1.488 1.488 0 0 0 1.512-1.608 1.463 1.463 0 0 0-1.488-1.584 1.509 1.509 0 0 0-1.513 1.585zm14.242-.671c3.912-.282 6.63-1.409 7.972-3.141 1.334 1.732 4.044 2.859 7.964 3.141l.92-2.238c-4.657-.315-6.82-1.7-7.168-3.24h6.157V5.779h-6.389V3.84H533.2v1.939h-6.348v2.312h6.108c-.365 1.541-2.528 2.925-7.152 3.24zm17.735.754h-19.46v2.37h8.214v1.848h-6.058v2.38h11.942v4.21h2.992v-6.589h-5.909v-1.848h8.279zm16.285-5.37h-3.307V11.4h3.307v5.138h2.983V3.815h-2.983zM552.3 11.7a7.975 7.975 0 0 0 4.914 4.21l1.475-2.3a6.6 6.6 0 0 1-4.904-6.21h4.251V5.017h-11.569V7.4h4.276a6.944 6.944 0 0 1-5.13 6.588l1.533 2.362a8.275 8.275 0 0 0 5.154-4.65zm8.428 8.171v5.3h2.983v-7.699h-14.66v2.4zm23.735-3.539V3.815h-2.983v3.92h-4v2.445h4v6.149zM573.1 11.439a7.834 7.834 0 0 0 4.74 4.177l1.591-2.337a6.513 6.513 0 0 1-4.89-6.555v-1.79h-3.017v1.931a7.126 7.126 0 0 1-5.246 7.019l1.591 2.387a8.473 8.473 0 0 0 5.231-4.832zm4.069 5.436c-4.541 0-7.334 1.533-7.326 4.152-.008 2.635 2.785 4.135 7.326 4.127 4.558.008 7.343-1.492 7.351-4.127-.006-2.618-2.791-4.151-7.349-4.151zm0 5.95c-2.826.008-4.359-.613-4.351-1.8-.008-1.218 1.525-1.831 4.351-1.831s4.376.613 4.384 1.831c-.006 1.188-1.547 1.809-4.382 1.801zm33.58-5.959V3.815h-2.983V7.3h-2.61v2.341h2.61v1.641h-2.61v2.387h2.61v3.2zM605 13.122c-.671.075-1.367.141-2.08.2V7.627h1.749v-2.4h-11.354v2.4h1.715v5.992c-.8.008-1.558.017-2.262.017l.315 2.436a77.847 77.847 0 0 0 12.033-.754zm-4.939-5.494v5.867c-.713.033-1.425.058-2.13.075V7.627zm3.4 9.572c-4.575 0-7.334 1.442-7.326 4-.008 2.478 2.751 3.961 7.326 3.953 4.583.008 7.343-1.475 7.351-3.953-.012-2.559-2.77-4-7.353-4zm0 5.685c-2.851-.008-4.359-.564-4.351-1.682-.008-1.169 1.5-1.732 4.351-1.732s4.376.564 4.384 1.732c-.011 1.117-1.535 1.673-4.386 1.681zm26.892-10.889V3.815h-2.992v21.3h2.992V14.464h3.017v-2.47zM614.5 6v2.448h7.11c-.564 4.757-3.273 8.155-8.312 10.691l1.682 2.287c7.169-3.522 9.663-9.041 9.68-15.423z" transform="translate(30 51)"/>
        </g>
        <g id="fc_diamond_long" transform="translate(692 1944)">
            <g transform="translate(-399 -1000)" style="filter:url(#다각형_3)">
                <g id="다각형_3-2" data-name="다각형 3" style="fill:#fff">
                    <path class="cls-12" d="M269 258.89 2.298 130 269 1.11 535.702 130 269 258.89z" transform="translate(399 1000)"/>
                    <path d="M269 2.221 4.596 130 269 257.779 533.404 130 269 2.221M269 0l269 130-269 130L0 130 269 0z" style="fill:#999;stroke:none" transform="translate(399 1000)"/>
                </g>
            </g>
            <path id="패스_11080" data-name="패스 11080" d="M76.838 10.287c3.437.006 5.836-1.361 5.836-3.518 0-2.206-2.4-3.617-5.836-3.617s-5.811 1.411-5.805 3.617c-.006 2.157 2.374 3.525 5.805 3.518zm0-5.345c2.163.006 3.518.646 3.518 1.827 0 1.125-1.355 1.747-3.518 1.753-2.144-.006-3.506-.628-3.493-1.753-.012-1.181 1.349-1.821 3.493-1.827zm-7.272 6.582v1.8h3.35v5.3h2.3v-5.3H78.5v5.3h2.275v-5.3H84.2v-1.8zm27.286-2.393h-1.3v-6.2h-2.1v15h2.1v-7.01h1.3v7.7h2.132V2.611h-2.132zm-8.938-6.066v2h-2.8v1.779h7.744V5.06h-2.737v-2zm1.113 4.5A3.529 3.529 0 0 0 85.5 11.35a3.53 3.53 0 1 0 7.036 0 3.523 3.523 0 0 0-3.509-3.785zm0 5.706c-.926.006-1.56-.7-1.554-1.921-.006-1.2.628-1.927 1.554-1.927.9 0 1.535.727 1.541 1.927-.006 1.225-.64 1.927-1.541 1.921zM114.193 12V2.611h-2.238v2.94h-3v1.834h3V12zm-8.521-3.667a5.875 5.875 0 0 0 3.555 3.133l1.193-1.753a4.884 4.884 0 0 1-3.667-4.916V3.45h-2.262V4.9a5.344 5.344 0 0 1-3.934 5.264l1.193 1.79a6.355 6.355 0 0 0 3.922-3.625zm3.052 4.077c-3.406 0-5.5 1.15-5.494 3.114s2.088 3.1 5.494 3.1 5.507-1.119 5.513-3.1-2.095-3.117-5.513-3.117zm0 4.463c-2.119.006-3.269-.46-3.263-1.349-.006-.914 1.144-1.374 3.263-1.374s3.282.46 3.288 1.374c-.006.886-1.163 1.352-3.288 1.345zM123.56 3.438c-3.375 0-6 1.827-6 4.6-.006 2.791 2.623 4.612 6 4.612s6.029-1.821 6.029-4.612c0-2.773-2.641-4.6-6.029-4.6zm0 1.815c2.213-.012 3.81 1.069 3.816 2.785-.006 1.74-1.6 2.772-3.816 2.772s-3.829-1.032-3.823-2.772c-.006-1.716 1.604-2.798 3.823-2.785zm-7.285 9.6v1.815h14.631v-1.812zm23.954-2.275h4.929V10.76h-9.4v-1.8h9.025v-5.3H133.5v1.8h9.068V7.2h-9.044v5.383h4.488V15h-6.172v1.834h14.63V15h-6.24zm21.822-9.454V4.8h-6.427V3.127h-2.206V9.7h10.852V3.127zm-6.427 4.811v-1.47h6.427v1.473zm-4.09 4.649h6.4v2.579h2.219v-2.576h6.017v-1.765h-14.634zm1.715 1.324v4.432h11.306v-1.806h-9.081v-2.623zm15.582-7.794v4.736h11.592v-1.8H171.1v-1.3h8.956V3.1h-11.272v1.817h8.963v1.2zm-1.734 5.9v1.753h3.419v4.854h2.244v-4.853h3.331v4.854h2.262v-4.854h3.375v-1.753zm26.789 6.644h2.231V2.611h-2.231zm-4.786-7.737h3.1v-1.8h-6.172v-3.3h6.1v-1.78H183.8v6.881h3.052v2.7c-1.436.025-2.828.031-4.1.025l.248 1.824a67.033 67.033 0 0 0 10.144-.566l-.168-1.628a62.696 62.696 0 0 1-3.885.273zm20.393-2.151h-3.176v1.83h3.176v8.018h2.231V2.611h-2.231zM206.4 4.3h-7.564v1.755h5.3c-.329 3.5-2 6.035-6.041 8.024l1.144 1.753c5.588-2.766 7.148-6.713 7.161-11.532zm20.026 4.388V2.611h-2.244v15.974h2.244v-8.068h2.262V8.684zm-9.876-4.542h-2.238v10.529h1.388a38.45 38.45 0 0 0 7.637-.675l-.236-1.871a36.325 36.325 0 0 1-6.551.69zM72.317 31.271V44h2.642v-4.146h2.287c2.927 0 4.612-1.753 4.612-4.282s-1.66-4.3-4.556-4.3zm2.642 6.452V33.44h1.851c1.573 0 2.331.852 2.331 2.132a2.042 2.042 0 0 1-2.325 2.151zM88.931 44c2.872 0 4.388-1.492 4.388-3.506a2.955 2.955 0 0 0-2.8-3.1v-.124a2.708 2.708 0 0 0 2.3-2.729c0-1.914-1.417-3.269-4.22-3.269h-5.063V44zm-2.754-10.585h2.082c1.206 0 1.89.628 1.89 1.554 0 1.019-.827 1.635-1.939 1.635h-2.033zm0 5h2.287a1.874 1.874 0 0 1 2.126 1.821c0 .963-.665 1.6-2.182 1.6h-2.231zM98.4 33.459V44h2.617V33.459h3.9v-2.188h-10.43v2.188zm8.683 5.432a12.458 12.458 0 0 0 2.511 7.869h2.48a14.723 14.723 0 0 1 0-15.744h-2.48a12.463 12.463 0 0 0-2.514 7.875zm13.164-1.541c3.437 0 5.836-1.386 5.836-3.568 0-2.219-2.4-3.63-5.836-3.63s-5.811 1.411-5.805 3.63c-.009 2.181 2.371 3.567 5.802 3.567zm0-5.407c2.163.006 3.518.665 3.518 1.84 0 1.15-1.355 1.8-3.518 1.8-2.144 0-3.506-.646-3.493-1.8-.015-1.176 1.346-1.835 3.49-1.841zm-7.272 6.619V40.4h6.16v5.24h2.219V40.4h6.246v-1.839zm26.825-5.545h-2.691v1.821h2.691v2.523h-2.735V39.2h2.735v6.46h2.231V29.611H139.8zm-8.449 4.083h4.916v-6.146h-7.191v1.784h4.991v2.623h-4.954v6.713h1.262a42.3 42.3 0 0 0 6.893-.423l-.18-1.834a39.969 39.969 0 0 1-5.737.416zm17.714 1.79a12.459 12.459 0 0 0-2.5-7.875h-2.486a14.689 14.689 0 0 1 0 15.744h2.486a12.454 12.454 0 0 0 2.5-7.868zm8.03-8.8v5.041h10.939V30.09zm2.2 3.307v-1.573h6.5V33.4zm10.591 2.579h-14.593v1.759h6.141v1.025h-4.456v1.691h8.913v.827h-8.9v4.232h11.53v-1.69h-9.331v-.963h8.91v-4.1h-4.419v-1.022h6.2zm12.108-6.365v8.217h2.225v-8.217zm-6 5.109a5.988 5.988 0 0 0 3.866 2.952l1.063-1.728c-2.455-.64-3.661-2.2-3.816-3.8h3.2v-1.79h-8.795v1.79h3.288c-.162 1.715-1.386 3.394-3.872 4.09L171.944 38a6.149 6.149 0 0 0 4.047-3.28zm-.255 8.018h8.509v-4.27h-10.737v1.7h8.5v.97h-8.459v4.372h11.128v-1.728h-8.944zm21.823-13.1v11.5h2.25v-11.5zm-2.151 5.047a4.385 4.385 0 1 0-4.369 4.059 4.114 4.114 0 0 0 4.366-4.061zm-6.551 0a2.17 2.17 0 1 1 2.182 2.107 2.014 2.014 0 0 1-2.185-2.109zm2.5 5.289h-2.269v5.37h11.144v-1.81h-8.876zm23.24-4.228v-6.135h-2.244v15.974h2.244V37.6h2.262v-1.854zm-11.89-4.494v1.834h5.333c-.423 3.568-2.455 6.116-6.234 8.018l1.262 1.715c5.376-2.642 7.247-6.781 7.26-11.567zm19.952 8.938v-.2a2.436 2.436 0 0 1 1.43-2.387A3.4 3.4 0 0 0 226 34.54c0-2.169-1.734-3.443-4.189-3.443-2.244 0-4.084 1.187-4.133 3.655h2.5a1.568 1.568 0 0 1 1.616-1.573 1.445 1.445 0 0 1 1.541 1.442c0 .82-.584 1.367-1.349 1.852-1.044.659-1.635 1.33-1.647 3.518v.2zm-1.113 3.965a1.47 1.47 0 1 0 0-2.94 1.47 1.47 0 1 0 0 2.94z" transform="translate(120 106)" style="fill:#111"/>
        </g>
        <g id="fc_start_end-2" data-name="fc_start_end" transform="translate(407 2714)">
            <g transform="translate(-114 -1770)" style="filter:url(#area-2)">
                <g id="area-4" data-name="area" class="cls-2" transform="translate(114 1770)">
                    <rect class="cls-12" width="1108" height="130" rx="65"/>
                    <rect class="cls-13" x="1" y="1" width="1106" height="128" rx="64"/>
                </g>
            </g>
            <path id="패스_11088" data-name="패스 11088" class="cls-3" d="M390.923 25.146h2.967V3.848h-2.967zm-8.064-11.378c3.265.017 5.635-1.865 5.635-4.517 0-2.693-2.37-4.55-5.635-4.541-3.24-.008-5.61 1.848-5.594 4.541-.016 2.649 2.354 4.534 5.594 4.517zm0-6.663c1.649-.008 2.793.779 2.8 2.146-.008 1.326-1.152 2.1-2.8 2.088-1.583.008-2.718-.762-2.71-2.088-.008-1.367 1.127-2.151 2.71-2.151zm6.771 7.195a96.99 96.99 0 0 1-13.674.779l.365 2.436c1.533-.017 3.307-.033 5.18-.108v7.119h3v-7.3a48.273 48.273 0 0 0 5.337-.721zm22.641-1.79h-1.732V4.238h-2.8v20.005h2.8V14.9h1.732v10.263h2.843V3.815h-2.843zm-11.917-8.09v2.66h-3.729v2.379h10.325V7.08h-3.65V4.42zm1.483 6a4.7 4.7 0 0 0-4.7 5.047c-.008 2.992 1.981 5.1 4.7 5.1s4.674-2.1 4.682-5.1c-.008-2.95-1.955-5.047-4.682-5.047zm0 7.608c-1.235.008-2.08-.928-2.072-2.561-.008-1.6.837-2.569 2.072-2.569 1.2 0 2.047.97 2.055 2.569-.008 1.633-.853 2.569-2.055 2.561zm33.555-1.7V3.815h-2.983v3.92h-4v2.445h4v6.149zm-11.362-4.89a7.834 7.834 0 0 0 4.74 4.177l1.591-2.337a6.513 6.513 0 0 1-4.889-6.555V4.934h-3.017v1.931a7.126 7.126 0 0 1-5.246 7.019l1.591 2.387a8.473 8.473 0 0 0 5.23-4.832zm4.069 5.436c-4.541 0-7.334 1.533-7.326 4.152-.008 2.635 2.785 4.135 7.326 4.127 4.558.008 7.343-1.492 7.351-4.127-.008-2.617-2.793-4.15-7.35-4.15zm0 5.95c-2.826.008-4.359-.613-4.351-1.8-.008-1.218 1.525-1.831 4.351-1.831s4.376.613 4.384 1.831c-.008 1.189-1.549 1.81-4.383 1.802zm25.691 2.337h2.859V3.815h-2.859zm-6.149-13.45c-.323-3.97-2.088-6.365-4.657-6.365-2.809 0-4.641 2.942-4.633 7.707-.008 4.807 1.823 7.765 4.633 7.757 2.635.008 4.425-2.528 4.682-6.713h1.715v10.08h2.826V4.146h-2.826v7.566zm-4.657 6.232c-1.193.008-1.9-1.6-1.881-4.889-.017-3.257.688-4.89 1.881-4.881 1.235-.008 1.964 1.624 1.964 4.881 0 3.291-.73 4.899-1.965 4.891zm38.644-14.13h-3.058v15.98h3.058v-6.97h2.594v-2.494h-2.594zm-5.7 9.149a35.458 35.458 0 0 0 .489-6.257V5.373h-10.992v2.436h8.055a28.489 28.489 0 0 1-.5 4.881zm1.492.878c-2.006.29-4.185.456-6.315.547V10.3h-2.975v4.185c-1.417.025-2.76.033-3.953.033l.257 2.378a76.836 76.836 0 0 0 13.135-.9zm-10.11 4.525v6.425h14.99v-2.412h-11.993v-4.011zm25.72-12.279V3.815h-2.983v2.271H485.2v2.353h12.663V6.086zm9.1-2.238h-3v15.928h3V12.84H505v-2.453h-2.87zM491.539 17.4c3.083.008 5.246-1.616 5.246-4.069 0-2.478-2.163-4.135-5.246-4.135-3.116 0-5.3 1.657-5.3 4.135-.004 2.451 2.184 4.075 5.3 4.069zm-2.387-4.069c0-1.193.953-1.848 2.387-1.856 1.425.008 2.4.663 2.412 1.856-.008 1.169-.986 1.8-2.412 1.8s-2.387-.631-2.387-1.802zm-.862 5.213v6.246h14.6v-2.412h-11.617v-3.837zm40.028-6.572V3.815h-2.992v21.348h2.992v-10.7h3.149V11.97zm-8.95-3.646h4.293V5.878h-11.818v2.445h4.517v1.31c-.017 3.53-1.807 7.5-5.362 9.157l1.74 2.362a10.573 10.573 0 0 0 5.171-6.373 10.018 10.018 0 0 0 5.014 5.826l1.666-2.345a9.492 9.492 0 0 1-5.221-8.627zm27.622 8.735h3.017v-2.415h-12.53v-2.37h12.033V5.207h-15.05v2.4h12.09V9.9h-12.058v7.16h2.751v3.273h-5v2.445h19.508v-2.447h-4.765zm-2.942 0v3.273h-3.9v-3.276zM575.456 9V3.815h-3v12.878h3v-5.2h2.867V9zm-10.533 2.751a8.105 8.105 0 0 0 4.923 4.185l1.517-2.3c-3.448-1.119-4.956-3.671-4.964-6.174h4.26V5.075h-11.637v2.386h4.359A6.963 6.963 0 0 1 558.21 14l1.583 2.3a8.354 8.354 0 0 0 5.13-4.546zm7.533 8.238v5.171h3V17.6h-14.362v2.387zm24.8-3.663V3.815h-2.983v3.92h-4v2.445h4v6.149zM585.9 11.439a7.834 7.834 0 0 0 4.74 4.177l1.591-2.337a6.513 6.513 0 0 1-4.89-6.555v-1.79h-3.017v1.931a7.126 7.126 0 0 1-5.246 7.019l1.591 2.387a8.473 8.473 0 0 0 5.231-4.832zm4.069 5.436c-4.541 0-7.334 1.533-7.326 4.152-.008 2.635 2.785 4.135 7.326 4.127 4.558.008 7.343-1.492 7.351-4.127-.011-2.618-2.795-4.151-7.353-4.151zm0 5.95c-2.826.008-4.359-.613-4.351-1.8-.008-1.218 1.525-1.831 4.351-1.831s4.376.613 4.384 1.831c-.01 1.188-1.553 1.809-4.386 1.801zm30.454-19.01v12.108h2.967V3.815zm-13.773 1.3v8.975h10.417V5.116zm2.942 6.638V7.445h4.517v4.309zm14.18 7.558V17.1H617.7v-1.766h-3V17.1h-6.058v2.213h5.958c-.323 1.5-2.561 3.191-6.82 3.539l1.019 2.262c3.572-.348 6.108-1.6 7.409-3.3 1.309 1.682 3.829 2.967 7.384 3.3l1-2.262c-4.243-.406-6.472-2.08-6.8-3.539zm23.693 5.851h2.826V3.815h-2.826zm-7.145-14.021v2.4h2.809v10.628h2.8v-20h-2.8v6.97zM638.6 8.4h3.232V6h-9.613v2.4h3.5v1.133c0 3.63-1.169 7.459-4.309 9.4l1.807 2.2a9.93 9.93 0 0 0 3.978-5.809 9.022 9.022 0 0 0 3.878 5.32l1.749-2.2c-3.116-1.782-4.227-5.362-4.218-8.917zm15.63 3.945c3.986-.207 6.729-1.21 8.072-2.809 1.351 1.6 4.1 2.6 8.055 2.809l.878-2.2c-4.309-.182-6.481-1.2-7.086-2.436h6.025v-2.22h-6.384V3.807h-2.967v1.682h-6.348V7.7h5.975c-.622 1.235-2.785 2.254-7.036 2.436zm17.784.572h-19.362v2.18h8.188v1.343h-5.983v2.138h11.883v1.061h-11.867v5.378h15.373v-2.2h-12.439v-1.176h11.884v-5.2H663.8v-1.347h8.221z" transform="translate(30 50)"/>
        </g>
        <g id="fc_box_medium_link" transform="translate(407 2304)">
            <g transform="translate(-114 -1360)" style="filter:url(#box-5)">
                <g id="box-11" data-name="box" class="cls-2">
                    <path class="cls-12" d="M0 0h538v130H0z" transform="translate(114 1360)"/>
                    <path class="cls-13" d="M1 1h536v128H1z" transform="translate(114 1360)"/>
                </g>
            </g>
            <g id="fc_textlink-2" data-name="fc_textlink" transform="translate(386 79)">
                <g id="stack-2" data-name="stack" transform="translate(-2524.094 20210)">
                    <g id="ico_fc_pop_up-2" data-name="ico_fc_pop_up" transform="translate(2421.503 -20209)">
                        <g id="그룹_1025-2" data-name="그룹 1025" transform="translate(-1101.074 -1125)">
                            <g id="그룹_1026-2" data-name="그룹 1026" transform="translate(1108.074 1129)">
                                <path id="사각형_878-2" data-name="사각형 878" class="cls-5" d="M0 0h9v9H0z"/>
                            </g>
                            <path id="패스_6896-2" data-name="패스 6896" class="cls-6" d="M1104.574 1132.941v9h9" transform="translate(.5 -.941)"/>
                        </g>
                    </g>
                    <path id="패스_11084" data-name="패스 11084" class="cls-7" d="M-11.981-7.669h-3.89v1.227h3.89v7.8h1.481v-14.032h-1.481zM-20-10.144h4.917v-1.226H-21.5v9.287h1.1a31.721 31.721 0 0 0 6.365-.464l-.165-1.215a30.034 30.034 0 0 1-5.8.442zM2.66-4.508h4.188v-7.21H5.373V-9.3H-1.5v-2.414h-1.486v7.21h4.177v2.873h-5.636v1.222H8.367v-1.226H2.66zm2.713-3.6v2.4H-1.5v-2.4zm14.16 9.436h1.492v-14h-1.492zM10.2-11.166v1.182h5.149c-.293 3.265-2.1 5.79-5.829 7.558l.785 1.2c4.807-2.293 6.547-5.845 6.558-9.939zM-22.7 2h45.4v1h-45.4z" transform="translate(2394.798 -20194)"/>
                </g>
            </g>
            <path id="패스_11083" data-name="패스 11083" class="cls-3" d="M192.04 23.232c3.812 0 6.414-2.453 6.406-5.884a5.322 5.322 0 0 0-5.42-5.586 4.294 4.294 0 0 0-3.406 1.438h-.133l.464-4.285h7.541V6.028h-10.441l-.928 9.771h3.207a2.728 2.728 0 0 1 2.652-1.417 2.937 2.937 0 0 1 3.058 3.058 2.88 2.88 0 0 1-3 3.017 2.571 2.571 0 0 1-2.776-2.229h-3.423c.066 2.916 2.659 5.004 6.199 5.004zm10.326-.025a1.96 1.96 0 1 0 0-3.92 1.96 1.96 0 1 0 0 3.92zm20.034-7.773h6.149v-2.4H216.4v-7.57h-3.05v9.97h6.05v4.889h-8.229v2.4h19.508v-2.4H222.4zm11.138-3.091c3.986-.207 6.729-1.21 8.072-2.809 1.351 1.6 4.1 2.6 8.055 2.809l.878-2.2c-4.309-.182-6.481-1.2-7.086-2.436h6.025V5.489H243.1V3.807h-2.967v1.682h-6.348V7.7h5.975c-.622 1.235-2.785 2.254-7.036 2.436zm17.785.572H231.96v2.18h8.188v1.343h-5.983v2.138h11.884v1.061h-11.868v5.378h15.373v-2.2h-12.439v-1.174H249v-5.2h-5.892v-1.347h8.221zm19.318 3.953V3.815h-2.983V7.3h-2.611v2.341h2.611v1.641h-2.611v2.387h2.611v3.2zm-5.751-3.746c-.671.075-1.367.141-2.08.2V7.627h1.749v-2.4h-11.35v2.4h1.715v5.992c-.8.008-1.558.017-2.262.017l.315 2.436a77.848 77.848 0 0 0 12.033-.754zm-4.939-5.494v5.867c-.713.033-1.425.058-2.13.075V7.627zm3.4 9.572c-4.575 0-7.334 1.442-7.326 4-.008 2.478 2.751 3.961 7.326 3.953 4.583.008 7.343-1.475 7.351-3.953-.007-2.559-2.767-4-7.35-4zm0 5.685c-2.851-.008-4.359-.564-4.351-1.682-.008-1.169 1.5-1.732 4.351-1.732s4.376.564 4.384 1.732c-.007 1.117-1.535 1.673-4.383 1.681zm26.892-10.889V3.815h-2.992v21.3h2.992V14.464h3.017v-2.47zM274.391 6v2.448h7.109c-.564 4.757-3.273 8.155-8.312 10.691l1.682 2.287c7.168-3.522 9.663-9.041 9.68-15.423z" transform="translate(30 36)"/>
        </g>
        <g id="fc_box_medium" transform="translate(407 2484)">
            <g transform="translate(-114 -1540)" style="filter:url(#box-6)">
                <g id="box-12" data-name="box" class="cls-2">
                    <path class="cls-12" d="M0 0h538v130H0z" transform="translate(114 1540)"/>
                    <path class="cls-13" d="M1 1h536v128H1z" transform="translate(114 1540)"/>
                </g>
            </g>
            <path id="패스_11085" data-name="패스 11085" class="cls-3" d="M121.93 13.5h6.17v-2.276h-11.98v-1.218h11.3V7.834h-11.3V6.649h11.8V4.337h-14.783V13.5h5.793v1.32h-8.238v2.345H130.2V14.82h-8.27zm-1.5 4.633c-4.765-.008-7.467 1.26-7.467 3.506 0 2.3 2.7 3.522 7.467 3.514 4.707.008 7.417-1.21 7.434-3.514-.017-2.239-2.727-3.512-7.434-3.504zm0 4.807c-3.058.008-4.483-.39-4.475-1.3-.008-.9 1.417-1.293 4.475-1.293 3.008 0 4.425.4 4.434 1.293-.009.912-1.426 1.31-4.434 1.302zm26.67 2.223h2.826V3.815H147.1zm-7.144-14.022v2.4h2.809v10.628h2.8v-20h-2.8v6.97zM138.239 8.4h3.232V6h-9.613v2.4h3.5v1.133c0 3.63-1.169 7.459-4.309 9.4l1.807 2.2a9.93 9.93 0 0 0 3.978-5.809 9.022 9.022 0 0 0 3.878 5.32l1.749-2.2c-3.116-1.782-4.227-5.362-4.218-8.917zm36.365 3.6V3.815h-2.992v21.3h2.988V14.464h3.017v-2.47zM158.75 6v2.448h7.111c-.564 4.757-3.273 8.155-8.312 10.691l1.682 2.287C166.4 17.9 168.894 12.384 168.91 6zm25.218 3.166V4.155h-2.975v7.409h14.826v-2.4zm-5.436 6.646h19.492V13.4h-19.492zm9.688 1.359c-4.657.008-7.467 1.434-7.467 3.945 0 2.544 2.809 3.961 7.467 3.961 4.633 0 7.417-1.417 7.434-3.961-.017-2.508-2.802-3.934-7.434-3.942zm0 5.627c-2.95.008-4.434-.572-4.417-1.682-.017-1.127 1.467-1.616 4.417-1.624 2.9.008 4.425.5 4.434 1.624-.009 1.113-1.534 1.693-4.434 1.684zm18.886-16.712V3.815h-2.983v2.271h-4.848v2.353h12.663V6.086zm9.1-2.238h-3v15.928h3V12.84h2.867v-2.453h-2.867zM205.615 17.4c3.083.008 5.246-1.616 5.246-4.069 0-2.478-2.163-4.135-5.246-4.135-3.116 0-5.3 1.657-5.3 4.135-.004 2.451 2.185 4.075 5.3 4.069zm-2.387-4.069c0-1.193.953-1.848 2.387-1.856 1.425.008 2.4.663 2.412 1.856-.008 1.169-.986 1.8-2.412 1.8s-2.387-.631-2.387-1.802zm-.862 5.213v6.246h14.6v-2.412h-11.617v-3.837zm40.127-14.71h-3V19.37h3v-6.953h2.867V9.956h-2.867zm-5.1 6.787a5.507 5.507 0 0 0-5.826-5.42c-3.273 0-5.859 2.254-5.843 5.42-.017 3.133 2.569 5.42 5.843 5.42a5.527 5.527 0 0 0 5.821-5.422zm-8.743 0a2.915 2.915 0 0 1 5.826 0 2.915 2.915 0 0 1-5.826 0zm.008 7.11v7.059h14.6v-2.412h-11.621v-4.649zm29.171-5.95h3.489v7.639h2.982V3.848h-2.983v5.519h-3.489zm-4.939.58a8.109 8.109 0 0 0 4.914 4.251l1.475-2.37a6.573 6.573 0 0 1-4.906-6.224v-.34h4.251v-2.4h-11.573v2.4h4.276V8a6.884 6.884 0 0 1-5.13 6.622l1.533 2.42a8.412 8.412 0 0 0 5.155-4.683zm.24 5.7h-2.983v6.729H264.8v-2.412h-11.674zm29.221-8.826c1.392 2.312 4.127 4.044 7.856 4.575l1.169-2.412c-4.881-.6-7.45-3.39-7.45-5.909V4.453h-3.146v1.036c-.008 2.519-2.569 5.3-7.417 5.909l1.177 2.412c3.696-.531 6.414-2.263 7.807-4.575zm-9.738 6.191v2.436h8.187v7.3h2.959v-7.3h8.312v-2.437zm22.7-1.989c3.978-.439 6.622-2.113 7.749-4.309 1.127 2.2 3.787 3.87 7.782 4.309l1.1-2.345c-4.21-.472-6.423-2.254-6.771-3.994h5.892V4.743h-15.939V7.1h5.851c-.348 1.732-2.536 3.522-6.746 3.994zm-1.972 3.406h8.528v3.671h2.959v-3.671h8.022v-2.4h-19.514zm2.287 1.782v6.165H310.7v-2.412h-12.094v-3.754zm33.34-14.776V19.18h3V3.848zm-2.868 6.728c0-3.124-2.552-5.378-5.826-5.378s-5.843 2.254-5.834 5.378c-.008 3.174 2.561 5.412 5.834 5.412s5.826-2.238 5.826-5.412zm-8.735 0a2.895 2.895 0 0 1 5.785 0 2.893 2.893 0 0 1-5.785 0zm3.331 7.052h-3.025v7.16h14.859v-2.411h-11.838zm30.994-5.635V3.815h-2.992v21.3h2.992V14.464h3.01v-2.47zM335.833 6v2.448h7.111c-.564 4.757-3.273 8.155-8.312 10.691l1.682 2.287c7.168-3.522 9.663-9.041 9.68-15.423zm26.6 11.917v-.265a3.249 3.249 0 0 1 1.906-3.182 4.53 4.53 0 0 0 2.544-4.086c0-2.892-2.312-4.591-5.586-4.591-2.992 0-5.445 1.583-5.511 4.873h3.331a2.09 2.09 0 0 1 2.155-2.1 1.926 1.926 0 0 1 2.055 1.923c0 1.094-.779 1.823-1.8 2.47-1.392.878-2.18 1.773-2.2 4.691v.265zm-1.483 5.287a1.96 1.96 0 1 0 0-3.92 1.96 1.96 0 1 0 0 3.92z" transform="translate(30 50)"/>
        </g>
    </g>
    <g id="fc_line" transform="translate(-293 -944)">
        <path id="세로" class="cls-10" transform="translate(961 2203)" d="M0 0h1v50H0z"/>
        <path id="사각형_1195" data-name="사각형 1195" class="cls-10" transform="translate(675 2253)" d="M0 0h572v1H0z"/>
        <path id="세로-2" data-name="세로" class="cls-10" transform="translate(675 2254)" d="M0 0h1v50H0z"/>
        <path id="세로-3" data-name="세로" class="cls-10" transform="translate(1246 2254)" d="M0 0h1v458H0z"/>
        <path id="세로-4" data-name="세로" class="cls-10" transform="translate(675 2434)" d="M0 0h1v50H0z"/>
        <path id="세로-5" data-name="세로" class="cls-10" transform="translate(675 2614)" d="M0 0h1v100H0z"/>
        <path id="패스_7154" data-name="패스 7154" d="M1584.279 3631.74h-57v-901h57" transform="translate(-1177.279 -1082.523)" style="fill:none;stroke:#999"/>
        <path id="세로-6" data-name="세로" class="cls-10" transform="translate(961 1174)" d="M0 0h1v50H0z"/>
        <path id="세로-7" data-name="세로" class="cls-10" transform="translate(961 1354)" d="M0 0h1v50H0z"/>
        <path id="세로-8" data-name="세로" class="cls-10" transform="translate(961 1534)" d="M0 0h1v50H0z"/>
        <path id="세로-9" data-name="세로" class="cls-10" transform="translate(961 1714)" d="M0 0h1v50H0z"/>
        <path id="세로-10" data-name="세로" class="cls-10" transform="translate(961 1894)" d="M0 0h1v50H0z"/>
        <path id="다각형_182" data-name="다각형 182" class="cls-10" d="M7.5 0 15 11H0z" transform="rotate(180 484.5 615)"/>
        <path id="다각형_186" data-name="다각형 186" class="cls-10" d="M7.5 0 15 11H0z" transform="rotate(180 484.5 795)"/>
        <path id="다각형_184" data-name="다각형 184" class="cls-10" d="M7.5 0 15 11H0z" transform="rotate(180 484.5 705)"/>
        <path id="다각형_185" data-name="다각형 185" class="cls-10" d="M7.5 0 15 11H0z" transform="rotate(180 484.5 885)"/>
        <path id="다각형_187" data-name="다각형 187" class="cls-10" d="M7.5 0 15 11H0z" transform="rotate(180 484.5 975.5)"/>
        <path id="다각형_188" data-name="다각형 188" class="cls-10" d="M7.5 0 15 11H0z" transform="rotate(180 341.5 1155)"/>
        <path id="다각형_189" data-name="다각형 189" class="cls-10" d="M7.5 0 15 11H0z" transform="rotate(180 341.5 1245)"/>
        <path id="다각형_191" data-name="다각형 191" class="cls-10" d="M7.5 0 15 11H0z" transform="rotate(180 341.5 1360)"/>
        <path id="다각형_192" data-name="다각형 192" class="cls-10" d="M7.5 0 15 11H0z" transform="rotate(180 627 1360)"/>
        <path id="다각형_190" data-name="다각형 190" class="cls-10" d="M7.5 0 15 11H0z" transform="rotate(90 -1064.5 1477.5)"/>
    </g>
    <g id="fc_yes" transform="translate(-467 1105)">
        <g id="fc_yes-2" data-name="fc_yes" transform="translate(493.746 399.21)">
            <path id="사각형_515" data-name="사각형 515" class="cls-1" d="M0 0h60.602v22.232H0z"/>
            <path id="패스_11086" data-name="패스 11086" class="cls-3" d="M-9.111-7.42v-5.37H-11.1V1.442h1.994v-7.2h2.1V-7.42zm-7.389-4.365c-2.177 0-3.762 1.967-3.751 5.061-.014 3.124 1.571 5.083 3.751 5.083s3.74-1.956 3.751-5.083c-.013-3.094-1.582-5.061-3.751-5.061zm0 8.337c-1.088 0-1.829-1.149-1.823-3.276-.006-2.1.735-3.26 1.823-3.26 1.116 0 1.834 1.155 1.84 3.26-.009 2.124-.727 3.276-1.84 3.276zm19.981 4.89h1.983V-12.79H3.481zm-7.238-12.867h-1.972v9.354h1.254a33.781 33.781 0 0 0 7.039-.674l-.249-1.647a34.884 34.884 0 0 1-6.072.619zm21.215 6.05a3.337 3.337 0 0 0 1.718-2.9c0-2.3-2.276-3.818-5.359-3.818s-5.336 1.524-5.331 3.822a3.34 3.34 0 0 0 1.757 2.928v3.492h-2.9v1.624h13.005v-1.624h-2.89zm-3.641-5.138c2.017-.011 3.387.818 3.392 2.243-.006 1.4-1.376 2.254-3.392 2.26-2.033-.006-3.37-.862-3.37-2.26.001-1.43 1.338-2.255 3.371-2.244zm-1.6 5.9a8.262 8.262 0 0 0 1.6.149 8.918 8.918 0 0 0 1.624-.149v2.768h-3.226z" transform="translate(30.254 16.79)"/>
        </g>
    </g>
    <g id="fc_yes-3" data-name="fc_yes" transform="translate(-140 1309)">
        <g id="fc_yes-4" data-name="fc_yes" transform="translate(455.066 399.21)">
            <path id="사각형_515-2" data-name="사각형 515" class="cls-1" d="M0 0h137.541v22.243H0z"/>
            <path id="패스_11087" data-name="패스 11087" class="cls-3" d="M-47.387-7.354v-5.436h-1.994V1.442h1.994v-7.133h2.1v-1.663zm-5.967-2.431h2.862v-1.63h-7.878v1.63h3.011v.873a6.755 6.755 0 0 1-3.575 6.1l1.16 1.575a7.049 7.049 0 0 0 3.448-4.249A6.678 6.678 0 0 0-50.983-1.6l1.11-1.564a6.328 6.328 0 0 1-3.481-5.751zm18.414 5.823h2.011v-1.607h-8.354v-1.58h8.022v-4.713h-10.032v1.6h8.061v1.525h-8.039v4.773h1.834v2.182h-3.331v1.63h13.006v-1.63h-3.177zm-1.961 0v2.182h-2.6v-2.181zm17.182-3.376v-5.452h-1.994v14.2h1.994v-7.1h2.011v-1.647zm-10.569-3.994V-9.7h4.74c-.376 3.171-2.182 5.436-5.541 7.127l1.122 1.525a10.645 10.645 0 0 0 6.453-10.282zm26.331-.9v1.632h-5.977v-1.635H-11.9v6.276h9.939v-6.276zm-5.977 4.685v-1.486h5.978v1.486zm-3.491 2.967v1.564h5.475v4.458h1.972v-4.459H-.42V-4.58zM1.7-6.823c2.669-.271 4.442-1.3 5.193-2.685.759 1.392 2.555 2.408 5.223 2.685l.729-1.564c-2.735-.26-4.21-1.26-4.519-2.3h3.9v-1.586H1.6v1.586h3.87c-.315 1.03-1.779 2.041-4.476 2.3zm6.182-.9H5.9v1.862H.425v1.6H13.4v-1.6H7.878zm1.941 6.066v3.1h1.994v-4.686H1.862v1.586zm9.652-9.619v-1.514h-1.989v1.514h-3.232v1.569H22.7v-1.569zm6.066-1.492h-2v10.619h2v-4.624h1.912v-1.636h-1.912zm-7.06 9.033c2.055.006 3.5-1.077 3.5-2.713 0-1.652-1.442-2.757-3.5-2.757-2.077 0-3.536 1.1-3.53 2.757-.006 1.636 1.449 2.719 3.53 2.713zM16.89-6.448c0-.8.635-1.232 1.591-1.238s1.6.442 1.608 1.238c-.006.779-.657 1.2-1.608 1.2s-1.591-.421-1.591-1.2zm-.575 3.475v4.166h9.735V-.414H18.3v-2.558zm25.464-5.944v1.348h-3.193v1.6h3.193v1.4h1.989v-8.2h-1.989v2.276h-2.641a9.364 9.364 0 0 0 .094-1.326h-6.563v1.6h4.4c-.287 1.95-1.89 3.519-5.16 4.376l.779 1.569c3.127-.851 5.149-2.4 6.033-4.646zM39.028-4.4c-2.917.006-4.867 1.11-4.862 2.878s1.945 2.9 4.862 2.9c2.884 0 4.834-1.122 4.845-2.9-.011-1.771-1.961-2.878-4.845-2.878zm0 4.2c-1.8 0-2.873-.448-2.867-1.32s1.066-1.331 2.867-1.326c1.768-.006 2.84.448 2.845 1.326S40.8-.2 39.028-.2zm13.038-5.712c3.055 0 5.188-1.232 5.188-3.171 0-1.972-2.133-3.227-5.188-3.227s-5.166 1.254-5.16 3.227c-.006 1.939 2.111 3.171 5.16 3.171zm0-4.807c1.923.006 3.127.591 3.127 1.635 0 1.022-1.2 1.6-3.127 1.6-1.906 0-3.116-.575-3.1-1.6-.016-1.043 1.194-1.629 3.1-1.634zM45.6-4.834V-3.2h5.475v4.653h1.975V-3.2h5.558v-1.63z" transform="translate(68.934 16.79)"/>
        </g>
    </g>
    <g id="fc_yes-5" data-name="fc_yes" transform="translate(781.746 1298.21)">
        <path id="사각형_515-3" data-name="사각형 515" class="cls-1" d="M0 0h60.602v22.232H0z"/>
        <path id="패스_11082" data-name="패스 11082" class="cls-3" d="M-9.111-7.42v-5.37H-11.1V1.442h1.994v-7.2h2.1V-7.42zm-7.389-4.365c-2.177 0-3.762 1.967-3.751 5.061-.014 3.124 1.571 5.083 3.751 5.083s3.74-1.956 3.751-5.083c-.013-3.094-1.582-5.061-3.751-5.061zm0 8.337c-1.088 0-1.829-1.149-1.823-3.276-.006-2.1.735-3.26 1.823-3.26 1.116 0 1.834 1.155 1.84 3.26-.009 2.124-.727 3.276-1.84 3.276zm19.981 4.89h1.983V-12.79H3.481zm-7.238-12.867h-1.972v9.354h1.254a33.781 33.781 0 0 0 7.039-.674l-.249-1.647a34.884 34.884 0 0 1-6.072.619zm21.215 6.05a3.337 3.337 0 0 0 1.718-2.9c0-2.3-2.276-3.818-5.359-3.818s-5.336 1.524-5.331 3.822a3.34 3.34 0 0 0 1.757 2.928v3.492h-2.9v1.624h13.005v-1.624h-2.89zm-3.641-5.138c2.017-.011 3.387.818 3.392 2.243-.006 1.4-1.376 2.254-3.392 2.26-2.033-.006-3.37-.862-3.37-2.26.001-1.43 1.338-2.255 3.371-2.244zm-1.6 5.9a8.262 8.262 0 0 0 1.6.149 8.918 8.918 0 0 0 1.624-.149v2.768h-3.226z" transform="translate(30.254 16.79)"/>
    </g>
    <g id="fc_yes-6" data-name="fc_yes" transform="translate(1 899)">
        <g id="fc_yes-7" data-name="fc_yes" transform="translate(507.63 399.21)">
            <path id="사각형_515-4" data-name="사각형 515" class="cls-1" d="M0 0h32.199v22.232H0z"/>
            <path id="패스_11081" data-name="패스 11081" class="cls-3" d="M3.923 1.442h1.906V-12.79H3.923zM-.624-9.63a2.888 2.888 0 0 0-2.657-2.138c-1.873 0-3.094 1.961-3.088 5.138-.006 3.2 1.215 5.177 3.088 5.171a2.884 2.884 0 0 0 2.662-2.16h1.663v4.4h1.879v-13.35H1.044v2.939zm-2.658 6.26c-.829.006-1.287-1.066-1.282-3.26-.006-2.171.453-3.26 1.282-3.254S-1.956-8.8-1.95-6.63c-.006 2.194-.503 3.265-1.332 3.26zm3.055-1.868A11 11 0 0 0-.138-6.63a10.2 10.2 0 0 0-.094-1.4h1.276v2.8z" transform="translate(16.37 16.79)"/>
        </g>
    </g>
</svg>
