<svg id="flow_chart_5_3" xmlns="http://www.w3.org/2000/svg" width="1336" height="2521" viewBox="0 0 1336 2521">
    <defs>
        <filter id="box" x="933" y="787" width="366" height="148" filterUnits="userSpaceOnUse">
            <feOffset dy="3"/>
            <feGaussianBlur stdDeviation="3" result="blur"/>
            <feFlood flood-color="#111" flood-opacity=".102"/>
            <feComposite operator="in" in2="blur"/>
            <feComposite in="SourceGraphic"/>
        </filter>
        <filter id="box-2" x="485" y="1018" width="366" height="148" filterUnits="userSpaceOnUse">
            <feOffset dy="3"/>
            <feGaussianBlur stdDeviation="3" result="blur-2"/>
            <feFlood flood-color="#111" flood-opacity=".102"/>
            <feComposite operator="in" in2="blur-2"/>
            <feComposite in="SourceGraphic"/>
        </filter>
        <filter id="box-3" x="485" y="325" width="366" height="148" filterUnits="userSpaceOnUse">
            <feOffset dy="3"/>
            <feGaussianBlur stdDeviation="3" result="blur-3"/>
            <feFlood flood-color="#111" flood-opacity=".102"/>
            <feComposite operator="in" in2="blur-3"/>
            <feComposite in="SourceGraphic"/>
        </filter>
        <filter id="box-4" x="485" y="556" width="366" height="148" filterUnits="userSpaceOnUse">
            <feOffset dy="3"/>
            <feGaussianBlur stdDeviation="3" result="blur-4"/>
            <feFlood flood-color="#111" flood-opacity=".102"/>
            <feComposite operator="in" in2="blur-4"/>
            <feComposite in="SourceGraphic"/>
        </filter>
        <filter id="box-5" x="485" y="1480" width="366" height="148" filterUnits="userSpaceOnUse">
            <feOffset dy="3"/>
            <feGaussianBlur stdDeviation="3" result="blur-5"/>
            <feFlood flood-color="#111" flood-opacity=".102"/>
            <feComposite operator="in" in2="blur-5"/>
            <feComposite in="SourceGraphic"/>
        </filter>
        <filter id="box-6" x="485" y="787" width="366" height="148" filterUnits="userSpaceOnUse">
            <feOffset dy="3"/>
            <feGaussianBlur stdDeviation="3" result="blur-6"/>
            <feFlood flood-color="#111" flood-opacity=".102"/>
            <feComposite operator="in" in2="blur-6"/>
            <feComposite in="SourceGraphic"/>
        </filter>
        <filter id="box-7" x="485" y="1941" width="366" height="148" filterUnits="userSpaceOnUse">
            <feOffset dy="3"/>
            <feGaussianBlur stdDeviation="3" result="blur-7"/>
            <feFlood flood-color="#111" flood-opacity=".102"/>
            <feComposite operator="in" in2="blur-7"/>
            <feComposite in="SourceGraphic"/>
        </filter>
        <filter id="box-8" x="485" y="2171" width="366" height="148" filterUnits="userSpaceOnUse">
            <feOffset dy="3"/>
            <feGaussianBlur stdDeviation="3" result="blur-8"/>
            <feFlood flood-color="#111" flood-opacity=".102"/>
            <feComposite operator="in" in2="blur-8"/>
            <feComposite in="SourceGraphic"/>
        </filter>
        <filter id="box-9" x="933" y="1941" width="366" height="148" filterUnits="userSpaceOnUse">
            <feOffset dy="3"/>
            <feGaussianBlur stdDeviation="3" result="blur-9"/>
            <feFlood flood-color="#111" flood-opacity=".102"/>
            <feComposite operator="in" in2="blur-9"/>
            <feComposite in="SourceGraphic"/>
        </filter>
        <filter id="box-10" x="933" y="2171" width="366" height="148" filterUnits="userSpaceOnUse">
            <feOffset dy="3"/>
            <feGaussianBlur stdDeviation="3" result="blur-10"/>
            <feFlood flood-color="#111" flood-opacity=".102"/>
            <feComposite operator="in" in2="blur-10"/>
            <feComposite in="SourceGraphic"/>
        </filter>
        <filter id="box-11" x="37" y="2171" width="366" height="148" filterUnits="userSpaceOnUse">
            <feOffset dy="3"/>
            <feGaussianBlur stdDeviation="3" result="blur-11"/>
            <feFlood flood-color="#111" flood-opacity=".102"/>
            <feComposite operator="in" in2="blur-11"/>
            <feComposite in="SourceGraphic"/>
        </filter>
        <filter id="box-12" x="933" y="1018" width="366" height="148" filterUnits="userSpaceOnUse">
            <feOffset dy="3"/>
            <feGaussianBlur stdDeviation="3" result="blur-12"/>
            <feFlood flood-color="#111" flood-opacity=".102"/>
            <feComposite operator="in" in2="blur-12"/>
            <feComposite in="SourceGraphic"/>
        </filter>
        <filter id="box-13" x="485" y="1249" width="366" height="148" filterUnits="userSpaceOnUse">
            <feOffset dy="3"/>
            <feGaussianBlur stdDeviation="3" result="blur-13"/>
            <feFlood flood-color="#111" flood-opacity=".102"/>
            <feComposite operator="in" in2="blur-13"/>
            <feComposite in="SourceGraphic"/>
        </filter>
        <filter id="box-14" x="485" y="1711" width="366" height="148" filterUnits="userSpaceOnUse">
            <feOffset dy="3"/>
            <feGaussianBlur stdDeviation="3" result="blur-14"/>
            <feFlood flood-color="#111" flood-opacity=".102"/>
            <feComposite operator="in" in2="blur-14"/>
            <feComposite in="SourceGraphic"/>
        </filter>
        <filter id="box-15" x="485" y="94" width="366" height="148" filterUnits="userSpaceOnUse">
            <feOffset dy="3"/>
            <feGaussianBlur stdDeviation="3" result="blur-15"/>
            <feFlood flood-color="#111" flood-opacity=".102"/>
            <feComposite operator="in" in2="blur-15"/>
            <feComposite in="SourceGraphic"/>
        </filter>
        <filter id="box-16" x="933" y="1480" width="366" height="148" filterUnits="userSpaceOnUse">
            <feOffset dy="3"/>
            <feGaussianBlur stdDeviation="3" result="blur-16"/>
            <feFlood flood-color="#111" flood-opacity=".102"/>
            <feComposite operator="in" in2="blur-16"/>
            <feComposite in="SourceGraphic"/>
        </filter>
        <style>
            .cls-1{fill:#f8f8f8}.cls-4{stroke:#999;stroke-width:2px}.cls-3{fill:#333}.cls-4{fill:#fff}.cls-11{fill:none}.cls-9{fill:#999}.cls-10{stroke:none}
        </style>
    </defs>
    <path id="bg" class="cls-1" d="M0 0h1336v2521H0z"/>
    <g id="fc_box_small_no_btn" transform="translate(942 793)">
        <g transform="translate(-942 -793)" style="filter:url(#box)">
            <g id="box-17" data-name="box" style="stroke:#999;stroke-width:2px;fill:#eee">
                <path class="cls-10" d="M0 0h348v130H0z" transform="translate(942 793)"/>
                <path class="cls-11" d="M1 1h346v128H1z" transform="translate(942 793)"/>
            </g>
        </g>
        <path id="패스_11209" data-name="패스 11209" class="cls-3" d="M60.537 3.04v12.977h2.5V3.04zm-6.851 6.547a6.851 6.851 0 0 0 4.178 3.695l1.271-1.961a5.645 5.645 0 0 1-4.171-5.594V4.014h-2.583v1.713a6.047 6.047 0 0 1-4.289 5.9l1.3 1.968a7.1 7.1 0 0 0 4.294-4.008zm-.041 5.166h-2.521v5.739h12.383v-2.01h-9.862zm25.449-3.087a38.406 38.406 0 0 0 .477-6.471V4h-12.19v2.023h9.751a30.336 30.336 0 0 1-.559 5.642H65.454v2.01h3.688V20.8h2.493v-7.125h3.695V20.8h2.479v-7.125h3.86v-2.01zM96.96 10.25V3.012h-2.514V20.8h2.514v-8.485h2.32V10.25zM89.419 5V3.116h-2.507V5h-4.034v1.956h10.546V5zm0 9.22c1.878-.359 3.128-1.575 3.142-3.218-.014-2-1.83-3.349-4.372-3.349-2.589 0-4.389 1.354-4.378 3.347-.007 1.637 1.215 2.845 3.1 3.211v1.533c-1.575.035-3.08.035-4.378.035l.331 2.03a60.711 60.711 0 0 0 10.863-.725l-.166-1.809c-1.326.186-2.735.3-4.144.373zM86.18 11c-.007-.925.794-1.45 2.01-1.45 1.181 0 1.975.525 1.975 1.45s-.794 1.436-1.975 1.436c-1.216.003-2.017-.501-2.01-1.436zm20.38-6.388V2.93h-2.486v1.685h-4.04v1.954h10.552V4.615zm7.583 3.025V3.012h-2.5v11.16h2.5V9.67h2.389V7.64zm-4.454 2.783c0-1.954-1.8-3.273-4.372-3.28s-4.42 1.326-4.413 3.28 1.83 3.273 4.413 3.273 4.371-1.316 4.371-3.27zm-6.36 0c0-.912.794-1.4 1.989-1.409s2 .5 2.01 1.409-.822 1.374-2.01 1.374-1.991-.467-1.991-1.371zm8.315 6.485v3.9h2.5v-5.886h-11.97v1.989zm7.693-13.363v5.6h12.153v-5.6zm2.445 3.674V5.471H129v1.747zm11.768 2.866h-16.217v1.954h6.823v1.14H119.2v1.878h9.9v.919h-9.889v4.7h12.811V18.8h-10.359v-1.07h9.9v-4.552h-4.91v-1.14h6.892zM147 3.012v9.13h2.472v-9.13zm-6.67 5.677a6.653 6.653 0 0 0 4.3 3.28l1.181-1.92c-2.728-.711-4.068-2.445-4.24-4.22h3.557V3.841h-9.772V5.83H139c-.18 1.906-1.54 3.771-4.3 4.544l1.133 1.961a6.833 6.833 0 0 0 4.497-3.646zm-.283 8.909h9.453v-4.744h-11.925v1.885h9.441v1.077h-9.4v4.862h12.369v-1.92h-9.938zm21.195-3.508h5.477v-2.024h-10.443v-2H166.3V4.173h-12.538v2h10.076v1.936H153.79v5.981h4.986v2.686h-6.858v2.037h16.257v-2.037h-6.934zM186.2 3.04v12.977h2.5V3.04zm-6.851 6.547a6.851 6.851 0 0 0 4.178 3.695l1.273-1.962a5.645 5.645 0 0 1-4.171-5.594V4.014h-2.583v1.713a6.047 6.047 0 0 1-4.289 5.9l1.3 1.968a7.1 7.1 0 0 0 4.292-4.008zm-.041 5.166h-2.521v5.739h12.383v-2.01h-9.862zm25.739 0a42.248 42.248 0 0 0 .711-8.508V4.559h-12.97v1.982h10.47a38.52 38.52 0 0 1-.725 7.949zm-5.656-4.268h-2.472V16.6h-5.8v2.02h16.215V16.6h-7.942zm25.3-7.2v1.24h-7.141V3.289h-2.45v5.953h12.058V3.289zM217.547 7.4V6.32h7.141V7.4zm11.692 2.776h-16.216v2.01h6.823V13.3H214.9v1.823h9.9v.953h-9.889v4.606h12.809V18.8h-10.366v-1.009h9.9V13.3h-4.91v-1.116h6.892zm13.488-7.162v9.13h2.507V3.012zm-1.3 6.333c-.7.083-1.423.152-2.162.214V6.017h1.478v-1.9h-9.669v1.9h1.443v3.805c-.67.014-1.312.014-1.913.021l.262 1.948a69.041 69.041 0 0 0 10.67-.663zm-4.544-3.329V9.7c-.663.028-1.326.055-1.982.069V6.017zM235.648 17.6h9.586v-4.746h-12.093v1.92h9.627v1.043h-9.593v4.862h12.555v-1.962h-10.082zm24.606-5.318a4.171 4.171 0 0 0 2.146-3.62c0-2.873-2.845-4.772-6.7-4.772s-6.671 1.9-6.664 4.772a4.175 4.175 0 0 0 2.2 3.66v4.365h-3.626v2.03h16.257v-2.03h-3.612zM255.7 5.858c2.521-.014 4.233 1.022 4.24 2.8-.007 1.747-1.72 2.818-4.24 2.825-2.541-.007-4.213-1.077-4.213-2.825.003-1.778 1.675-2.814 4.213-2.8zm-2 7.369a10.328 10.328 0 0 0 2 .186 11.147 11.147 0 0 0 2.03-.186v3.46h-4.03z" transform="translate(18 53)"/>
    </g>
    <g id="fc_box_small_link" transform="translate(494 1024)">
        <g transform="translate(-494 -1024)" style="filter:url(#box-2)">
            <g id="box-18" data-name="box" class="cls-4">
                <path class="cls-10" d="M0 0h348v130H0z" transform="translate(494 1024)"/>
                <path class="cls-11" d="M1 1h346v128H1z" transform="translate(494 1024)"/>
            </g>
        </g>
        <g id="btn" transform="translate(103 76)">
            <g id="그룹_668" data-name="그룹 668" transform="translate(-545.845)">
                <g id="ico_fc_pop_up" transform="translate(681.845 2)">
                    <g id="그룹_1025" data-name="그룹 1025" transform="translate(-1101.074 -1125)">
                        <g id="그룹_1026" data-name="그룹 1026" transform="translate(1108.074 1129)">
                            <path id="사각형_878" data-name="사각형 878" style="stroke:#326f5e;stroke-width:1.5px;fill:#fff" d="M0 0h9v9H0z"/>
                        </g>
                        <path id="패스_6896" data-name="패스 6896" d="M1104.574 1132.941v9h9" transform="translate(.5 -.941)" style="fill:none;stroke:#326f5e;stroke-width:1.5px"/>
                    </g>
                </g>
                <path id="패스_11211" data-name="패스 11211" d="M-61.652-7.088v-5.586h-1.486v14h1.486v-7.149h2.243v-1.265zm-6.055-4.42h-1.475v2.4A7.186 7.186 0 0 1-72.8-2.823l.923 1.193a7.509 7.509 0 0 0 3.442-4.492A7.2 7.2 0 0 0-65.1-1.9l.912-1.188a6.865 6.865 0 0 1-3.519-6.022zm16.486 3.845h2.685v5.254h1.481v-10.254h-1.481v3.79h-2.685zm-3.221.166A5.61 5.61 0 0 0-51.1-4.442l.757-1.182a4.634 4.634 0 0 1-3.376-4.2v-.552h3.019v-1.21h-7.56v1.21h3.039v.552a4.882 4.882 0 0 1-3.5 4.5l.768 1.21A5.872 5.872 0 0 0-54.442-7.5zm-.221 4.177h-1.481v4.359h9.459V-.177h-7.978zm14.818-8.155v-1.309h-1.481v1.309h-3.3v1.11h8.077v-1.11zm5.967 2.967v-4.155h-1.481v9.425h1.481v-4.038h1.994v-1.232zm-2.276 3.293a42.967 42.967 0 0 1-3.691.331v-.9c1.58-.177 2.569-.928 2.58-2.05-.011-1.276-1.326-2.072-3.335-2.066-2.006-.011-3.337.785-3.326 2.066-.011 1.133 1.006 1.878 2.6 2.05v.95c-1.315.033-2.575.039-3.663.039l.166 1.188a52.729 52.729 0 0 0 8.785-.558zm-6.359-2.613c-.006-.674.724-1.061 1.912-1.05 1.188-.011 1.917.376 1.917 1.05 0 .652-.729 1.088-1.917 1.077-1.189.011-1.918-.426-1.913-1.078zm7.155 6.414v2.74h1.481v-3.912h-9.365v1.171zm14.431-11.249v10.177h1.486v-10.177zm-6.116 7.9a3.486 3.486 0 0 0 3.718-3.481 3.493 3.493 0 0 0-3.718-3.464 3.5 3.5 0 0 0-3.729 3.464 3.5 3.5 0 0 0 3.728 3.476zm-2.277-3.486a2.135 2.135 0 0 1 2.276-2.171 2.144 2.144 0 0 1 2.265 2.171 2.145 2.145 0 0 1-2.265 2.188 2.136 2.136 0 0 1-2.276-2.188zm2.21 4.729h-1.49v4.559h9.569V-.177h-8.079zm24.392-3.6H-4.53v-5.265H-5.9V.608h1.37v-6.52h1.812v7.238h1.409v-14h-1.409zm-8.641-2.663h3.751v-1.2h-5.238v8.95h.928a24.775 24.775 0 0 0 5.182-.409l-.122-1.227a23.591 23.591 0 0 1-4.5.381zm22.878-2.89h-1.486v8.448h1.486v-3.687h2.028v-1.237h-2.028zM4.63-8.05a5.583 5.583 0 0 0 3.3 3.011L8.718-6.2a4.588 4.588 0 0 1-3.381-4.227v-1.514h-1.47v1.387A5.013 5.013 0 0 1 .409-5.823l.8 1.177A5.766 5.766 0 0 0 4.63-8.05zM6.994-3.9c-2.906 0-4.7.961-4.7 2.591C2.3.359 4.088 1.3 6.994 1.3c2.884 0 4.652-.945 4.652-2.608 0-1.626-1.768-2.592-4.652-2.592zm0 4.033C4.972.127 3.773-.376 3.785-1.3c-.011-.89 1.188-1.414 3.21-1.414s3.2.525 3.2 1.414C10.193-.376 9.011.127 6.994.138zM29.26-12.674h-1.487v8.448h1.487v-3.686h2.028v-1.237H29.26zM22.37-8.05a5.583 5.583 0 0 0 3.3 3.011l.79-1.166a4.588 4.588 0 0 1-3.381-4.227v-1.514h-1.47v1.387a5.013 5.013 0 0 1-3.459 4.735l.8 1.177a5.766 5.766 0 0 0 3.42-3.403zm2.365 4.15c-2.906 0-4.7.961-4.7 2.591 0 1.663 1.79 2.608 4.7 2.608 2.884 0 4.652-.945 4.652-2.608 0-1.625-1.768-2.591-4.652-2.591zm0 4.033c-2.022-.006-3.221-.509-3.21-1.433-.011-.89 1.188-1.414 3.21-1.414s3.2.525 3.2 1.414c-.001.924-1.184 1.427-3.2 1.438zm17.972 1.193h1.425v-14h-1.425zm-5.061-9.077v1.232h2.182V.635h1.4V-12.4h-1.4v4.652zM36.359-11.4h-1.436v2.613A7.023 7.023 0 0 1 31.9-2.735l.928 1.1a6.975 6.975 0 0 0 2.834-4.116 6.471 6.471 0 0 0 2.674 3.812l.834-1.149a6.729 6.729 0 0 1-2.812-5.768zm16.674 6.892h4.188v-7.21h-1.475V-9.3h-6.873v-2.414h-1.486v7.21h4.177v2.873h-5.636v1.222H58.74v-1.226h-5.707zm2.713-3.6v2.4h-6.873v-2.4zm14.16 9.436H71.4v-14h-1.494zm-9.331-12.494v1.182h5.149c-.293 3.265-2.1 5.79-5.829 7.558l.785 1.2c4.807-2.293 6.547-5.845 6.558-9.939zM-73.077 2H73.077v1H-73.077z" transform="translate(604.845 18)" style="fill:#326f5e"/>
            </g>
        </g>
        <path id="패스_11210" data-name="패스 11210" class="cls-3" d="M74.09 9.87V3.012H71.6V20.8h2.49v-8.823h2.624V9.87zm-7.479-5.483h-2.493v2.659c-.007 3.3-1.43 6.7-4.434 8.08l1.526 2.023a8.59 8.59 0 0 0 4.164-5.18A8.108 8.108 0 0 0 69.3 16.8l1.506-1.982c-2.852-1.381-4.213-4.593-4.2-7.776zM86.95 9.649h2.907v6.367h2.486V3.04h-2.486v4.6H86.95zm-4.116.483a6.757 6.757 0 0 0 4.1 3.543l1.224-1.975a5.477 5.477 0 0 1-4.088-5.186v-.283h3.543v-2h-9.641v2h3.564V6.5a5.736 5.736 0 0 1-4.275 5.518l1.278 2.017a7.01 7.01 0 0 0 4.295-3.902zm.2 4.751h-2.486v5.608h12.216v-2.01h-9.73zm18.232-10.545v-1.45H98.78v1.45h-3.854v1.81h10.166v-1.81zm7.6 3.785V3.04h-2.493v12.079h2.493v-4.952h2.279V8.123zm-3.322 4.227c-1.36.166-2.818.283-4.275.352v-.919c1.892-.283 3.08-1.222 3.087-2.576-.007-1.644-1.733-2.659-4.351-2.652s-4.365 1.008-4.358 2.652c-.007 1.367 1.2 2.314 3.135 2.583v1c-1.54.041-3.018.048-4.323.048l.256 1.927a66.627 66.627 0 0 0 11.008-.7zm-7.517-3.143c-.007-.684.711-.994 1.975-.994s1.961.311 1.968.994c-.007.649-.718 1.029-1.968 1.022s-1.982-.373-1.975-1.022zm8.343 8.543v3.05h2.493v-4.977H96.715v1.927zm17.955-14.71v12.776h2.5V3.04zm-2.39 5.608a4.874 4.874 0 0 0-9.717 0 4.872 4.872 0 0 0 9.717 0zm-7.279 0a2.412 2.412 0 0 1 4.82 0 2.411 2.411 0 0 1-4.82 0zm2.776 5.877h-2.521v5.967h12.383v-2.01h-9.862zm29.428-4.641h-1.713V3.323h-2.286v16.609h2.286V11.88h1.713v8.92h2.355V3.012h-2.355zm-10.007-2.8h4.137v-2h-6.637v11.685h1.247a32.3 32.3 0 0 0 6.4-.49l-.186-2.03a29.27 29.27 0 0 1-4.959.435zm28.4-4.068h-2.5v10.549h2.5V9.242h2.389V7.177h-2.389zm-8.853 6.44a6.574 6.574 0 0 0 3.971 3.391l1.319-1.941a5.249 5.249 0 0 1-4.068-5.09V3.965h-2.493v1.61a5.926 5.926 0 0 1-4.247 5.815l1.34 1.954a6.831 6.831 0 0 0 4.178-3.888zm3.018 4.475c-3.743-.007-6.091 1.271-6.084 3.419-.007 2.189 2.341 3.453 6.084 3.446 3.688.007 6-1.257 6-3.446-.002-2.15-2.318-3.426-6.003-3.419zm0 4.917c-2.327-.007-3.6-.483-3.591-1.5-.007-.96 1.264-1.478 3.591-1.478s3.543.518 3.543 1.478c-.003 1.017-1.232 1.493-3.546 1.5zm15.642-15.3v5.6h12.155v-5.6zm2.44 3.67V5.471h7.217v1.747zm11.768 2.866h-16.213v1.954h6.823v1.14h-4.952v1.878h9.9v.919h-9.886v4.7h12.811V18.8h-10.366v-1.07h9.9v-4.552h-4.91v-1.14h6.892zm13.453-7.072v9.13h2.479v-9.13zm-6.671 5.677a6.653 6.653 0 0 0 4.3 3.28l1.181-1.92c-2.728-.711-4.068-2.445-4.24-4.22h3.557V3.841h-9.772V5.83h3.653c-.18 1.906-1.54 3.771-4.3 4.544l1.133 1.961a6.833 6.833 0 0 0 4.49-3.646zm-.283 8.909h9.454v-4.744H193.3v1.885h9.441v1.077h-9.4v4.862h12.369v-1.92h-9.938zM220.016 3.04v12.776h2.5V3.04zm-2.39 5.608a4.874 4.874 0 0 0-9.717 0 4.872 4.872 0 0 0 9.717 0zm-7.279 0a2.412 2.412 0 0 1 4.82 0 2.411 2.411 0 0 1-4.82 0zm2.776 5.877H210.6v5.967h12.383v-2.01h-9.862zm25.829-4.7V3.012h-2.493v17.749h2.493v-8.874h2.514V9.829zm-13.211-4.989v2.037h5.925c-.47 3.964-2.728 6.8-6.927 8.909l1.4 1.906c5.974-2.935 8.052-7.535 8.066-12.852zm22.169 9.931v-.221a2.707 2.707 0 0 1 1.588-2.652 3.775 3.775 0 0 0 2.12-3.4c0-2.41-1.927-3.826-4.655-3.826-2.493 0-4.537 1.319-4.593 4.061h2.776a1.742 1.742 0 0 1 1.8-1.747 1.605 1.605 0 0 1 1.713 1.6c0 .912-.649 1.519-1.5 2.058-1.16.732-1.816 1.478-1.83 3.909v.221zm-1.236 4.406a1.633 1.633 0 1 0 0-3.267 1.633 1.633 0 1 0 0 3.267z" transform="translate(18 38)"/>
    </g>
    <path id="세로" class="cls-9" transform="translate(668 230)" d="M0 0h1v100H0z"/>
    <path id="세로-2" data-name="세로" class="cls-9" transform="translate(668 461)" d="M0 0h1v100H0z"/>
    <path id="세로-3" data-name="세로" class="cls-9" transform="translate(668 923)" d="M0 0h1v100H0z"/>
    <path id="세로-4" data-name="세로" class="cls-9" transform="translate(668 1385)" d="M0 0h1v100H0z"/>
    <path id="세로-5" data-name="세로" class="cls-9" transform="translate(668 692)" d="M0 0h1v100H0z"/>
    <path id="세로-6" data-name="세로" class="cls-9" transform="translate(668 1847)" d="M0 0h1v100H0z"/>
    <path id="세로-7" data-name="세로" class="cls-9" transform="translate(668 2077)" d="M0 0h1v100H0z"/>
    <path id="세로-8" data-name="세로" class="cls-9" transform="translate(668 1154)" d="M0 0h1v100H0z"/>
    <path id="세로-9" data-name="세로" class="cls-9" transform="translate(668 1616)" d="M0 0h1v100H0z"/>
    <path id="세로-10" data-name="세로" class="cls-9" transform="translate(1112 165)" d="M0 0h1v630H0z"/>
    <g id="fc_box_small" transform="translate(494 331)">
        <g transform="translate(-494 -331)" style="filter:url(#box-3)">
            <g id="box-19" data-name="box" class="cls-4">
                <path class="cls-10" d="M0 0h348v130H0z" transform="translate(494 331)"/>
                <path class="cls-11" d="M1 1h346v128H1z" transform="translate(494 331)"/>
            </g>
        </g>
        <path id="패스_11206" data-name="패스 11206" class="cls-3" d="M71.784 9.767V3.012h-2.493V20.8h2.493v-8.955h2.624V9.767zM60.99 11.41h5.635V9.456H60.99V6.521h5.9V4.5h-8.421v12.262h1.492a52.785 52.785 0 0 0 8.246-.5l-.221-2a45.27 45.27 0 0 1-7 .5zm31.174-4.33H88.89V3.931h-2.465V6.2h-3.5V3.931h-2.5v8.308h8.465V9.124h3.273v3.626h2.487V3.012h-2.486zm-9.24 3.163V8.116h3.5v2.127zm2.334 4.889v-1.643h-2.466v7.079h11.851v-7.079h-2.479v1.644zm0 3.439v-1.532h6.906v1.533zm26.685-4.724V3.04h-2.5V5.4h-2.907v2.01h2.907v1.666h-2.907v2h2.907v2.776zm-5.8-3.011a34.684 34.684 0 0 1-6.022.414V9.463h5.366V3.945h-7.861v2.01h5.394v1.636h-5.366v5.684h1.34a39.614 39.614 0 0 0 7.376-.435zm-.242 3.287c-3.819 0-6.146 1.257-6.14 3.384s2.32 3.349 6.14 3.349 6.119-1.215 6.126-3.349-2.322-3.383-6.127-3.383zm0 4.834c-2.39 0-3.626-.463-3.619-1.45s1.229-1.478 3.619-1.478c2.369 0 3.646.477 3.653 1.478s-1.285 1.452-3.654 1.452zm20.807-15.945v17.832h2.479V3.012zM120 4.207c-2.8 0-4.938 1.816-4.931 4.365s2.134 4.365 4.931 4.365c2.831 0 4.924-1.809 4.938-4.365-.012-2.549-2.104-4.365-4.938-4.365zm0 2.155a2.228 2.228 0 1 1 0 4.42 2.223 2.223 0 1 1 0-4.42zM114.615 17.2a60.177 60.177 0 0 0 11.271-.8l-.186-1.8a86.45 86.45 0 0 1-11.367.573zm35.185-5.534a38.407 38.407 0 0 0 .477-6.471V4h-12.188v2.023h9.751a30.336 30.336 0 0 1-.559 5.642h-11.119v2.01h3.688V20.8h2.493v-7.125h3.695V20.8h2.479v-7.125h3.86v-2.01zm16.659 9.134h2.355V3.012h-2.355zm-5.953-11.683v2h2.341v8.854h2.334V3.309h-2.334v5.808zm-1.43-2.286h2.693v-2h-8.011v2h2.914v.946c0 3.025-.974 6.215-3.591 7.831l1.506 1.837A8.275 8.275 0 0 0 157.9 12.6a7.518 7.518 0 0 0 3.232 4.434l1.457-1.83c-2.6-1.485-3.522-4.468-3.515-7.431zm29.289 3.052h-1.713v-6.56h-2.286v16.609h2.286V11.88h1.713v8.92h2.355V3.012h-2.355zm-10.007-2.8h4.142v-2h-6.637v11.686h1.237a32.3 32.3 0 0 0 6.4-.49l-.186-2.03a29.27 29.27 0 0 1-4.959.435zm28.4-4.068h-2.5v10.55h2.5V9.242h2.389V7.177h-2.389zM197.9 9.456a6.574 6.574 0 0 0 3.971 3.391l1.319-1.941a5.249 5.249 0 0 1-4.068-5.09V3.965h-2.493v1.61a5.926 5.926 0 0 1-4.247 5.815l1.34 1.954a6.831 6.831 0 0 0 4.178-3.888zm3.018 4.475c-3.743-.007-6.091 1.271-6.084 3.419-.007 2.189 2.341 3.453 6.084 3.446 3.688.007 6-1.257 6-3.446.004-2.15-2.31-3.426-5.997-3.419zm0 4.917c-2.327-.007-3.6-.483-3.591-1.5-.007-.96 1.264-1.478 3.591-1.478s3.543.518 3.543 1.478c.002 1.017-1.227 1.493-3.54 1.5zm21.4-15.808v12.776h2.5V3.04zm-2.39 5.608a4.874 4.874 0 0 0-9.717 0 4.872 4.872 0 0 0 9.717 0zm-7.279 0a2.412 2.412 0 0 1 4.82 0 2.411 2.411 0 0 1-4.82 0zm2.776 5.877h-2.515v5.967h12.383v-2.01h-9.863zm25.829-4.7V3.012h-2.493v17.749h2.493v-8.874h2.514V9.829zm-13.206-4.989v2.037h5.925c-.47 3.964-2.728 6.8-6.927 8.909l1.4 1.906c5.974-2.935 8.052-7.535 8.066-12.852zm22.169 9.931v-.221a2.707 2.707 0 0 1 1.588-2.652 3.775 3.775 0 0 0 2.12-3.4c0-2.41-1.927-3.826-4.655-3.826-2.493 0-4.537 1.319-4.593 4.061h2.776a1.742 1.742 0 0 1 1.8-1.747 1.605 1.605 0 0 1 1.713 1.6c0 .912-.649 1.519-1.5 2.058-1.16.732-1.816 1.478-1.83 3.909v.221zm-1.236 4.406a1.633 1.633 0 1 0 0-3.267 1.633 1.633 0 1 0 0 3.267z" transform="translate(18 53)"/>
    </g>
    <g id="fc_box_small-2" data-name="fc_box_small" transform="translate(494 562)">
        <g transform="translate(-494 -562)" style="filter:url(#box-4)">
            <g id="box-20" data-name="box" class="cls-4">
                <path class="cls-10" d="M0 0h348v130H0z" transform="translate(494 562)"/>
                <path class="cls-11" d="M1 1h346v128H1z" transform="translate(494 562)"/>
            </g>
        </g>
        <path id="패스_11207" data-name="패스 11207" class="cls-3" d="M74.381 3.012h-2.549v13.315h2.548v-5.808h2.162V8.441h-2.161zm-4.751 7.624a29.548 29.548 0 0 0 .407-5.214V4.311h-9.158v2.03h6.713a23.744 23.744 0 0 1-.414 4.068zm1.243.732c-1.671.242-3.488.38-5.262.456V8.42h-2.48v3.488c-1.181.021-2.3.028-3.294.028l.214 1.982A64.03 64.03 0 0 0 71 13.164zm-8.426 3.772v5.352H74.94v-2.01h-9.993V15.14zm24.24-1.727h5.131V4.152h-2.486v2.769h-7.748V4.152h-2.5v9.261h5.138v3.294h-6.858v2.023h16.257v-2.023h-6.934zM89.332 8.9v2.528h-7.748V8.9zm23.688 1.133a16.436 16.436 0 0 0 .511-4.751V3.82h-12.41v1.955h9.91a15.723 15.723 0 0 1-.456 4.019zm-5.2-2.189h-2.465v3.122H99.3v2.01h16.139v-2.01h-7.619zm-.546 6.25c-3.854.007-6.34 1.236-6.34 3.363 0 2.1 2.486 3.349 6.34 3.343 3.881.007 6.333-1.243 6.347-3.343-.014-2.131-2.466-3.357-6.347-3.367zm0 4.814c-2.445-.007-3.854-.483-3.84-1.45-.014-.981 1.4-1.506 3.84-1.506s3.867.525 3.874 1.506-1.429 1.442-3.874 1.442zm21.644 1.941h2.521V3.012h-2.521zm-5.435-16.462h-2.528v2.659c-.014 3.453-1.519 6.858-4.627 8.17l1.506 2.072a8.54 8.54 0 0 0 4.42-5.325 8.289 8.289 0 0 0 4.247 4.889l1.471-2c-3.025-1.271-4.5-4.544-4.489-7.811zm29.2 5.863V3.012h-2.514V20.8h2.514v-8.485H155V10.25zM145.14 5V3.116h-2.507V5H138.6v1.956h10.546V5zm0 9.22c1.878-.359 3.128-1.575 3.142-3.218-.014-2-1.83-3.349-4.372-3.349-2.59 0-4.385 1.354-4.378 3.349-.007 1.637 1.215 2.845 3.1 3.211v1.533c-1.575.035-3.08.035-4.378.035l.331 2.03a60.711 60.711 0 0 0 10.863-.725l-.166-1.809c-1.326.186-2.735.3-4.144.373zM141.9 11c-.007-.925.794-1.45 2.01-1.45 1.181 0 1.975.525 1.975 1.45s-.794 1.436-1.975 1.436c-1.21.003-2.016-.501-2.01-1.436zm20.38-6.388V2.93h-2.486v1.685h-4.04v1.954h10.552V4.615zm7.583 3.025V3.012h-2.5v11.16h2.5V9.67h2.389V7.64zm-4.454 2.783c0-1.954-1.8-3.273-4.372-3.28s-4.42 1.326-4.413 3.28 1.83 3.273 4.413 3.273 4.373-1.316 4.373-3.27zm-6.36 0c0-.912.794-1.4 1.989-1.409s2 .5 2.01 1.409-.822 1.374-2.01 1.374-1.989-.467-1.989-1.371zm8.315 6.485v3.9h2.5v-5.886H157.9v1.989zm7.693-13.363v5.6h12.155v-5.6zm2.443 3.676V5.471h7.217v1.747zm11.768 2.866h-16.213v1.954h6.823v1.14h-4.952v1.878h9.9v.919h-9.886v4.7h12.811V18.8h-10.366v-1.07h9.9v-4.552h-4.91v-1.14h6.892zm13.453-7.072v9.13h2.479v-9.13zm-6.671 5.677a6.653 6.653 0 0 0 4.3 3.28l1.181-1.92c-2.728-.711-4.068-2.445-4.24-4.22h3.557V3.841h-9.772V5.83h3.653c-.18 1.906-1.54 3.771-4.3 4.544l1.133 1.961a6.833 6.833 0 0 0 4.49-3.646zm-.283 8.909h9.454v-4.744H193.3v1.885h9.441v1.077h-9.4v4.862h12.369v-1.92h-9.938zM220.016 3.04v12.776h2.5V3.04zm-2.39 5.608a4.874 4.874 0 0 0-9.717 0 4.872 4.872 0 0 0 9.717 0zm-7.279 0a2.412 2.412 0 0 1 4.82 0 2.411 2.411 0 0 1-4.82 0zm2.776 5.877H210.6v5.967h12.383v-2.01h-9.862zm25.829-4.7V3.012h-2.493v17.749h2.493v-8.874h2.514V9.829zm-13.211-4.989v2.037h5.925c-.47 3.964-2.728 6.8-6.927 8.909l1.4 1.906c5.974-2.935 8.052-7.535 8.066-12.852zm22.169 9.931v-.221a2.707 2.707 0 0 1 1.588-2.652 3.775 3.775 0 0 0 2.12-3.4c0-2.41-1.927-3.826-4.655-3.826-2.493 0-4.537 1.319-4.593 4.061h2.776a1.742 1.742 0 0 1 1.8-1.747 1.605 1.605 0 0 1 1.713 1.6c0 .912-.649 1.519-1.5 2.058-1.16.732-1.816 1.478-1.83 3.909v.221zm-1.236 4.406a1.633 1.633 0 1 0 0-3.267 1.633 1.633 0 1 0 0 3.267z" transform="translate(18 53)"/>
    </g>
    <g id="fc_box_small-3" data-name="fc_box_small" transform="translate(494 1486)">
        <g transform="translate(-494 -1486)" style="filter:url(#box-5)">
            <g id="box-21" data-name="box" class="cls-4">
                <path class="cls-10" d="M0 0h348v130H0z" transform="translate(494 1486)"/>
                <path class="cls-11" d="M1 1h346v128H1z" transform="translate(494 1486)"/>
            </g>
        </g>
        <path id="패스_11214" data-name="패스 11214" class="cls-3" d="M110.378 8.869a9.067 9.067 0 0 0 6.547 4.641l1.1-2.072c-4.026-.684-6.333-3.467-6.326-6.077V4.083h-2.659v1.278c-.014 2.583-2.334 5.373-6.285 6.077l1.07 2.072a9.218 9.218 0 0 0 6.553-4.641zm-8.032 9.751H118.6v-2.051h-16.253zm18.6-8.764.3 1.989 10.3-.5a29.333 29.333 0 0 1-.677 3.985l2.479.221a38.269 38.269 0 0 0 .822-8.888V4.58h-12.68v2h10.249v.083c0 .919-.007 1.837-.048 2.811zm-1.312 8.805h16.215v-2.03H119.64zm29.7 2.182h2.479V3.012h-2.479zm-8.888-9.482h5.863v-6.85h-8.446v2.01h5.9V9.4h-5.891v7.28h1.6a48.108 48.108 0 0 0 8.805-.628l-.214-2.023a46.1 46.1 0 0 1-7.617.6zm26.1-8.349v10.332h2.479V3.012zm-1.443 6.5a38.321 38.321 0 0 1-7.376.76V4.131h-2.5v8.2h1.54a40.574 40.574 0 0 0 8.633-.808zM163 13.558c-3.757-.007-6.139 1.347-6.133 3.646-.007 2.238 2.376 3.6 6.133 3.591s6.119-1.354 6.126-3.591c-.004-2.304-2.373-3.653-6.126-3.646zm0 5.262c-2.362 0-3.646-.559-3.639-1.616-.007-1.119 1.278-1.644 3.639-1.644s3.612.525 3.626 1.644c-.011 1.057-1.268 1.616-3.626 1.616zm28.108-4.931V3.012h-2.486v2.9h-2.175v1.955h2.175v1.368h-2.175v1.989h2.175v2.666zm-4.793-3.122a62.42 62.42 0 0 1-1.733.166V6.189h1.457v-2h-9.459v2h1.43v4.993c-.663.007-1.3.014-1.885.014l.262 2.03a64.873 64.873 0 0 0 10.028-.628zM182.2 6.189v4.889a76.49 76.49 0 0 1-1.775.062V6.189zm2.831 7.977c-3.812 0-6.112 1.2-6.1 3.336-.007 2.065 2.293 3.3 6.1 3.294s6.119-1.229 6.126-3.294c-.005-2.135-2.305-3.336-6.124-3.336zm0 4.738c-2.376-.007-3.633-.47-3.626-1.4-.007-.974 1.25-1.443 3.626-1.443s3.646.47 3.653 1.443c-.004.93-1.275 1.396-3.651 1.396zm22.41-9.075V3.012h-2.491v17.749h2.493v-8.874h2.514V9.829zm-13.209-4.993v2.037h5.925c-.47 3.964-2.728 6.8-6.927 8.909l1.4 1.906c5.974-2.935 8.052-7.535 8.066-12.852z" transform="translate(18 53)"/>
    </g>
    <g id="fc_box_small-4" data-name="fc_box_small" transform="translate(494 793)">
        <g transform="translate(-494 -793)" style="filter:url(#box-6)">
            <g id="box-22" data-name="box" class="cls-4">
                <path class="cls-10" d="M0 0h348v130H0z" transform="translate(494 793)"/>
                <path class="cls-11" d="M1 1h346v128H1z" transform="translate(494 793)"/>
            </g>
        </g>
        <path id="패스_11208" data-name="패스 11208" class="cls-3" d="M71.269 20.844h2.521V3.012h-2.521zM65.834 4.387h-2.527v2.659c-.014 3.453-1.519 6.858-4.627 8.17l1.506 2.072a8.54 8.54 0 0 0 4.42-5.325 8.289 8.289 0 0 0 4.247 4.889l1.471-2c-3.025-1.271-4.5-4.544-4.489-7.811zm16.885.186v-1.7h-2.465v1.7h-4.012v1.982h10.476V4.573zM88.7 8.24h-2.3v2.03h2.3v3.5h2.486V3.012H88.7zm-2.942 2.1c0-1.872-1.768-3.2-4.261-3.2s-4.282 1.326-4.282 3.2c0 1.927 1.789 3.2 4.282 3.211s4.261-1.284 4.261-3.211zm-6.146 0c-.014-.849.725-1.326 1.885-1.319 1.126-.007 1.872.47 1.872 1.319 0 .891-.746 1.367-1.872 1.367-1.16 0-1.897-.476-1.885-1.367zM91.186 20.6v-6.082H79.239V20.6zm-2.438-4.123v2.127h-7.016v-2.125zm17.244-4.655v4.213h2.486v-13h-2.486v2.491h-4.068a4.725 4.725 0 0 0-3.474-1.457 4.539 4.539 0 0 0-4.731 4.613 4.539 4.539 0 0 0 4.731 4.593 4.73 4.73 0 0 0 3.467-1.45zm-9.91-3.142a2.352 2.352 0 1 1 4.7 0 2.352 2.352 0 1 1-4.7 0zm9.91 1.14h-2.977a4.725 4.725 0 0 0 .138-1.14 4.526 4.526 0 0 0-.145-1.16h2.983zm-6.823 4.91h-2.485v5.76H108.9v-2.01h-9.73zm25.47-3.108a30.883 30.883 0 0 0 .463-5.967v-1.6h-12.451v1.989h9.972a27.813 27.813 0 0 1-.5 5.58h-11.33v2.01h6.768v7.182h2.514v-7.182h6.934v-2.01zm15.919-2.293a2.927 2.927 0 0 0 2.086-2.624c-.007-2.141-2.528-3.425-6.464-3.432s-6.478 1.291-6.471 3.432a2.884 2.884 0 0 0 2.023 2.6v2.141h-3.646v1.989H144.3v-1.983h-3.743zm-4.378-4.134c2.486 0 3.9.518 3.9 1.512s-1.409 1.478-3.9 1.478c-2.507 0-3.9-.49-3.881-1.478-.014-.994 1.374-1.512 3.881-1.512zm-1.927 4.758a15.253 15.253 0 0 0 1.927.11 14.882 14.882 0 0 0 1.9-.11v1.5h-3.826zm1.906 4.413c-3.888-.007-6.222 1.14-6.222 3.2 0 2.086 2.334 3.218 6.222 3.211 3.847.007 6.181-1.126 6.195-3.211-.014-2.06-2.348-3.207-6.195-3.2zm0 4.551c-2.459.007-3.695-.456-3.681-1.354-.014-.891 1.222-1.305 3.681-1.319 2.417.014 3.688.428 3.695 1.319s-1.278 1.361-3.695 1.354zm19.206.29c3.2 0 5.2-2.2 5.2-5.47 0-3.287-2-5.483-5.2-5.483s-5.214 2.2-5.214 5.483c0 3.263 2.002 5.47 5.214 5.47zm.014-2.244c-1.512 0-2.286-1.381-2.286-3.246s.773-3.253 2.286-3.253c1.478 0 2.251 1.4 2.251 3.253s-.774 3.246-2.252 3.246zm9.9 2.037v-6.029a2.16 2.16 0 0 1 2.265-2.217 5.177 5.177 0 0 1 1.236.159V8.33a5.534 5.534 0 0 0-.925-.09 2.585 2.585 0 0 0-2.555 2h-.111V8.392h-2.8V19zm21.285 1.844h2.521V3.012h-2.521zm-5.433-16.457H178.6v2.659c-.014 3.453-1.519 6.858-4.627 8.17l1.506 2.072a8.54 8.54 0 0 0 4.42-5.325 8.289 8.289 0 0 0 4.247 4.889l1.471-2c-3.025-1.271-4.5-4.544-4.489-7.811zm26.775.981h-2.3V3.012h-2.5V13.5h2.5v-2.235h2.3V9.2h-2.3V7.384h2.3zm-6.554 2.956c-.014-2.514-2.1-4.337-4.855-4.33-2.776-.007-4.883 1.816-4.869 4.33-.014 2.555 2.093 4.358 4.869 4.358 2.756-.001 4.841-1.804 4.855-4.359zm-7.286 0a2.436 2.436 0 1 1 2.431 2.238 2.19 2.19 0 0 1-2.431-2.239zm9.04 7.907V20.8h2.5v-6.579h-11.968v2.01zM221.173 3.04v12.776h2.5V3.04zm-2.39 5.608a4.874 4.874 0 0 0-9.717 0 4.872 4.872 0 0 0 9.717 0zm-7.279 0a2.412 2.412 0 0 1 4.82 0 2.411 2.411 0 0 1-4.82 0zm2.776 5.877h-2.52v5.967h12.383v-2.01h-9.863zm25.829-4.7V3.012h-2.493v17.749h2.493v-8.874h2.514V9.829zM226.9 4.836v2.037h5.925c-.47 3.964-2.728 6.8-6.927 8.909l1.4 1.906c5.974-2.935 8.052-7.535 8.066-12.852zm22.169 9.931v-.221a2.707 2.707 0 0 1 1.588-2.652 3.775 3.775 0 0 0 2.12-3.4c0-2.41-1.927-3.826-4.655-3.826-2.493 0-4.537 1.319-4.593 4.061h2.771a1.742 1.742 0 0 1 1.8-1.747 1.605 1.605 0 0 1 1.713 1.6c0 .912-.649 1.519-1.5 2.058-1.16.732-1.816 1.478-1.83 3.909v.221zm-1.236 4.406a1.633 1.633 0 1 0 0-3.267 1.633 1.633 0 1 0 0 3.267z" transform="translate(18 53)"/>
    </g>
    <g id="fc_box_small-5" data-name="fc_box_small" transform="translate(494 1947)">
        <g transform="translate(-494 -1947)" style="filter:url(#box-7)">
            <g id="box-23" data-name="box" class="cls-4">
                <path class="cls-10" d="M0 0h348v130H0z" transform="translate(494 1947)"/>
                <path class="cls-11" d="M1 1h346v128H1z" transform="translate(494 1947)"/>
            </g>
        </g>
        <path id="패스_11217" data-name="패스 11217" class="cls-3" d="M120.838 20.789h2.472V3.04h-2.472zm-6.72-9.482c2.721.014 4.7-1.554 4.7-3.764 0-2.244-1.975-3.791-4.7-3.785-2.7-.007-4.675 1.54-4.662 3.785-.013 2.21 1.962 3.777 4.662 3.764zm0-5.552c1.374-.007 2.327.649 2.334 1.789-.007 1.1-.96 1.747-2.334 1.74-1.319.007-2.265-.635-2.258-1.74-.007-1.144.94-1.797 2.258-1.79zm5.642 5.994a80.825 80.825 0 0 1-11.4.649l.3 2.03c1.278-.014 2.756-.028 4.316-.09v5.932h2.5v-6.084a40.227 40.227 0 0 0 4.448-.6zm18.867-1.492h-1.443V3.365h-2.334v16.671h2.334v-7.79h1.443V20.8H141V3.012h-2.369zm-9.927-6.74v2.216h-3.108v1.982h8.6V5.733h-3.046V3.517zm1.236 5a3.921 3.921 0 0 0-3.916 4.206 3.922 3.922 0 1 0 7.818 0 3.914 3.914 0 0 0-3.905-4.206zm0 6.34c-1.029.007-1.733-.773-1.727-2.134-.007-1.333.7-2.141 1.727-2.141 1 0 1.706.808 1.713 2.141-.01 1.36-.715 2.14-1.716 2.133zm27.964-1.416V3.012h-2.49v3.267h-3.336v2.037h3.336v5.124zm-9.468-4.075a6.528 6.528 0 0 0 3.95 3.481L153.7 10.9a5.427 5.427 0 0 1-4.075-5.463V3.945h-2.514v1.609a5.938 5.938 0 0 1-4.372 5.849l1.326 1.989a7.061 7.061 0 0 0 4.362-4.026zm3.391 4.53c-3.785 0-6.112 1.278-6.1 3.46s2.32 3.446 6.1 3.439 6.119-1.243 6.126-3.439-2.332-3.456-6.131-3.456zm0 4.959c-2.355.007-3.633-.511-3.626-1.5-.007-1.015 1.271-1.526 3.626-1.526s3.646.511 3.653 1.526c-.011.989-1.296 1.507-3.658 1.5zM179.8 13.89V3.012h-2.486v2.9h-2.174v1.955h2.175v1.368h-2.175v1.989h2.175v2.666zm-4.793-3.122a62.42 62.42 0 0 1-1.733.166V6.189h1.457v-2h-9.461v2h1.43v4.993c-.663.007-1.3.014-1.885.014l.262 2.03a64.873 64.873 0 0 0 10.028-.628zm-4.116-4.579v4.889a76.49 76.49 0 0 1-1.775.062V6.189zm2.831 7.977c-3.812 0-6.112 1.2-6.1 3.336-.007 2.065 2.293 3.3 6.1 3.294s6.119-1.229 6.126-3.294c-.005-2.135-2.304-3.336-6.124-3.336zm0 4.738c-2.376-.007-3.633-.47-3.626-1.4-.007-.974 1.25-1.443 3.626-1.443s3.646.47 3.653 1.443c-.004.93-1.275 1.396-3.651 1.396zm22.41-9.075V3.012h-2.493v17.749h2.493v-8.874h2.514V9.829zm-13.209-4.993v2.037h5.925c-.47 3.964-2.728 6.8-6.927 8.909l1.4 1.906c5.974-2.935 8.052-7.535 8.066-12.852zm21.761.021V19h2.935V4.856z" transform="translate(18 53)"/>
    </g>
    <g id="fc_box_small-6" data-name="fc_box_small" transform="translate(494 2177)">
        <g transform="translate(-494 -2177)" style="filter:url(#box-8)">
            <g id="box-24" data-name="box" class="cls-4">
                <path class="cls-10" d="M0 0h348v130H0z" transform="translate(494 2177)"/>
                <path class="cls-11" d="M1 1h346v128H1z" transform="translate(494 2177)"/>
            </g>
        </g>
        <path id="패스_11220" data-name="패스 11220" class="cls-3" d="M118.179 20.789h2.472V3.04h-2.472zm-6.72-9.482c2.721.014 4.7-1.554 4.7-3.764 0-2.244-1.975-3.791-4.7-3.785-2.7-.007-4.675 1.54-4.662 3.785-.013 2.21 1.962 3.777 4.662 3.764zm0-5.552c1.374-.007 2.327.649 2.334 1.789-.007 1.1-.96 1.747-2.334 1.74-1.319.007-2.265-.635-2.258-1.74-.007-1.144.939-1.797 2.258-1.79zm5.642 5.994a80.825 80.825 0 0 1-11.4.649l.3 2.03c1.278-.014 2.756-.028 4.316-.09v5.932h2.5v-6.084a40.227 40.227 0 0 0 4.448-.6zm18.867-1.492h-1.443V3.365h-2.334v16.671h2.334v-7.79h1.443V20.8h2.369V3.012h-2.369zm-9.931-6.74v2.216h-3.107v1.982h8.6V5.733h-3.04V3.517zm1.236 5a3.921 3.921 0 0 0-3.916 4.206 3.922 3.922 0 1 0 7.818 0 3.914 3.914 0 0 0-3.901-4.206zm0 6.34c-1.029.007-1.733-.773-1.727-2.134-.007-1.333.7-2.141 1.727-2.141 1 0 1.706.808 1.713 2.141-.006 1.36-.71 2.14-1.712 2.133zm27.963-1.416V3.012h-2.486v3.267h-3.336v2.037h3.336v5.124zm-9.468-4.075a6.528 6.528 0 0 0 3.95 3.481l1.326-1.948a5.427 5.427 0 0 1-4.075-5.463V3.945h-2.514v1.609a5.938 5.938 0 0 1-4.372 5.849l1.326 1.989a7.061 7.061 0 0 0 4.36-4.026zm3.391 4.53c-3.785 0-6.112 1.278-6.1 3.46s2.32 3.446 6.1 3.439 6.119-1.243 6.126-3.439-2.327-3.456-6.125-3.456zm0 4.959c-2.355.007-3.633-.511-3.626-1.5-.007-1.015 1.271-1.526 3.626-1.526s3.646.511 3.653 1.526c-.006.989-1.291 1.507-3.652 1.5zm27.983-4.965V3.012h-2.486v2.9h-2.175v1.955h2.175v1.368h-2.175v1.989h2.175v2.666zm-4.793-3.122a62.42 62.42 0 0 1-1.733.166V6.189h1.457v-2h-9.461v2h1.43v4.993c-.663.007-1.3.014-1.885.014l.262 2.03a64.873 64.873 0 0 0 10.028-.628zm-4.116-4.579v4.889a76.49 76.49 0 0 1-1.775.062V6.189zm2.831 7.977c-3.812 0-6.112 1.2-6.1 3.336-.007 2.065 2.293 3.3 6.1 3.294s6.119-1.229 6.126-3.294c-.006-2.135-2.305-3.336-6.124-3.336zm0 4.738c-2.376-.007-3.633-.47-3.626-1.4-.007-.974 1.25-1.443 3.626-1.443s3.646.47 3.653 1.443c-.005.93-1.276 1.396-3.651 1.396zm22.41-9.075V3.012h-2.493v17.749h2.493v-8.874h2.514V9.829zm-13.21-4.993v2.037h5.925c-.47 3.964-2.728 6.8-6.927 8.909l1.4 1.906c5.974-2.935 8.052-7.535 8.066-12.852zm21.761.021V19h2.935V4.856zm5.325 0V19h2.935V4.856z" transform="translate(18 53)"/>
    </g>
    <g id="fc_box_small-7" data-name="fc_box_small" transform="translate(942 1947)">
        <g transform="translate(-942 -1947)" style="filter:url(#box-9)">
            <g id="box-25" data-name="box" class="cls-4">
                <path class="cls-10" d="M0 0h348v130H0z" transform="translate(942 1947)"/>
                <path class="cls-11" d="M1 1h346v128H1z" transform="translate(942 1947)"/>
            </g>
        </g>
        <path id="패스_11218" data-name="패스 11218" class="cls-3" d="M117.029 3.012v8.923h2.5V3.012zM114.46 7.6c-.014-2.369-2.051-4.061-4.758-4.061-2.742 0-4.786 1.692-4.779 4.061s2.037 4.04 4.779 4.047c2.707-.002 4.744-1.68 4.758-4.047zm-7.12 0c-.014-1.271 1-2.023 2.362-2.023a2.051 2.051 0 1 1 0 4.061c-1.368.004-2.376-.748-2.362-2.038zm2.735 9.889h9.454v-4.822H107.6v1.92h9.441v1.084h-9.4V20.6h12.369v-1.959h-9.938zM136.048 3.04h-2.5v13.087h2.5v-6.036h2.389V8.04h-2.389zM128.59 4.3v2.573h-3.646V4.3h-2.472v9h8.6v-9zm-3.646 7.044V8.786h3.646v2.555zm-.428 3.446v5.7h12.169v-2.01H127v-3.693zm28.936-4.537V3.012h-2.514V20.8h2.514v-8.485h2.32V10.25zM145.91 5V3.116h-2.51V5h-4.03v1.956h10.546V5zm0 9.22c1.878-.359 3.128-1.575 3.142-3.218-.014-2-1.83-3.349-4.372-3.349-2.59 0-4.385 1.354-4.378 3.349-.007 1.637 1.215 2.845 3.1 3.211v1.533c-1.575.035-3.08.035-4.378.035l.331 2.03a60.711 60.711 0 0 0 10.863-.725l-.166-1.809c-1.326.186-2.735.3-4.144.373zM142.671 11c-.007-.925.794-1.45 2.01-1.45 1.181 0 1.975.525 1.975 1.45s-.794 1.436-1.975 1.436c-1.216.003-2.017-.501-2.01-1.436zm20.38-6.388V2.93h-2.486v1.685h-4.04v1.954h10.552V4.615zm7.583 3.025V3.012h-2.5v11.16h2.5V9.67h2.389V7.64zm-4.454 2.783c0-1.954-1.8-3.273-4.372-3.28s-4.42 1.326-4.413 3.28 1.83 3.273 4.413 3.273 4.372-1.316 4.372-3.27zm-6.36 0c0-.912.794-1.4 1.989-1.409s2 .5 2.01 1.409-.819 1.38-2.011 1.38-1.989-.473-1.989-1.377zm8.315 6.485v3.9h2.5v-5.886h-11.969v1.989zm7.693-13.363v5.6h12.155v-5.6zm2.445 3.674V5.471h7.217v1.747zm11.768 2.866h-16.216v1.954h6.823v1.14H175.7v1.878h9.9v.919h-9.89v4.7h12.811V18.8h-10.366v-1.07h9.9v-4.552h-4.91v-1.14h6.892zm13.453-7.072v9.13h2.472V3.012zm-6.671 5.677a6.653 6.653 0 0 0 4.3 3.28l1.181-1.92c-2.728-.711-4.068-2.445-4.24-4.22h3.557V3.841h-9.772V5.83h3.651c-.18 1.906-1.54 3.771-4.3 4.544l1.133 1.961a6.833 6.833 0 0 0 4.489-3.646zm-.283 8.909h9.454v-4.742h-11.928v1.885h9.441v1.077h-9.4v4.862h12.369v-1.92h-9.938z" transform="translate(18 53)"/>
    </g>
    <g id="fc_box_small-8" data-name="fc_box_small" transform="translate(942 2177)">
        <g transform="translate(-942 -2177)" style="filter:url(#box-10)">
            <g id="box-26" data-name="box" class="cls-4">
                <path class="cls-10" d="M0 0h348v130H0z" transform="translate(942 2177)"/>
                <path class="cls-11" d="M1 1h346v128H1z" transform="translate(942 2177)"/>
            </g>
        </g>
        <path id="패스_11219" data-name="패스 11219" class="cls-3" d="M91.953 20.8h2.355V3.012h-2.355zM86 9.117v2h2.341v8.854h2.334V3.309h-2.334v5.808zm-1.43-2.286h2.693v-2h-8.01v2h2.914v.946c0 3.025-.974 6.215-3.591 7.831l1.506 1.837A8.275 8.275 0 0 0 83.4 12.6a7.518 7.518 0 0 0 3.232 4.434l1.457-1.83c-2.6-1.485-3.522-4.468-3.515-7.431zM106.946 19v-2.41H100.9v-.1l2.155-2.079c2.914-2.638 3.695-3.964 3.7-5.573-.007-2.452-2.017-4.178-5.055-4.178-2.97 0-5.021 1.768-5.014 4.537h2.79a2.229 2.229 0 0 1 4.448-.173c-.007 1.133-.718 1.913-2.03 3.177l-5.086 4.679.007 2.12zm3.073-8.6c3.349-.325 5.573-1.568 6.512-3.28.946 1.713 3.2 2.956 6.547 3.28l.884-1.941c-3.336-.311-5.152-1.485-5.6-2.707h4.838V3.779h-13.28v1.968h4.807c-.456 1.229-2.279 2.4-5.58 2.707zm7.749-1.008H115.3v2.141h-6.844v2h16.215v-2h-6.9zm-1.243 5.108c-3.888.007-6.222 1.126-6.222 3.142s2.334 3.156 6.222 3.149 6.181-1.119 6.195-3.149c-.014-2.012-2.314-3.131-6.195-3.142zm0 4.434c-2.479 0-3.695-.414-3.681-1.291-.014-.843 1.2-1.243 3.681-1.243 2.438 0 3.688.4 3.695 1.243-.007.88-1.257 1.295-3.695 1.295zm18.315-9.685V8.178h9.42V6.334h-9.42v-.987h9.834V3.42h-12.32v7.721h12.472V9.249zm-4.523 4.972h16.257V12.26h-16.258zm11.733 3.135V20.8h2.514v-5.412h-12.41v1.968zm15.317-7.976h2.776v4.2h2.486V3.012h-2.486v4.337h-2.776zm-4.24.221a6.774 6.774 0 0 0 4.088 3.522l1.229-1.961a5.5 5.5 0 0 1-4.088-5.062h3.544v-2h-9.641v2h3.564a5.918 5.918 0 0 1-4.289 5.511l1.291 1.975a7.052 7.052 0 0 0 4.302-3.986zm3.425 4.372c-3.785 0-6.112 1.271-6.1 3.425s2.32 3.419 6.1 3.425 6.119-1.271 6.126-3.425-2.327-3.426-6.126-3.426zm0 4.945c-2.355.007-3.633-.5-3.626-1.519s1.271-1.533 3.626-1.533 3.646.511 3.653 1.533-1.291 1.525-3.653 1.518zm22.6-8.667V3.012h-2.514V20.8h2.514v-8.485h2.32V10.25zM171.615 5V3.116h-2.507V5h-4.033v1.956h10.545V5zm0 9.22c1.878-.359 3.128-1.575 3.142-3.218-.014-2-1.83-3.349-4.372-3.349-2.59 0-4.385 1.354-4.378 3.349-.007 1.637 1.215 2.845 3.1 3.211v1.533c-1.575.035-3.08.035-4.378.035l.331 2.03a60.711 60.711 0 0 0 10.863-.725l-.166-1.809c-1.326.186-2.735.3-4.144.373zM168.376 11c-.007-.925.794-1.45 2.01-1.45 1.181 0 1.975.525 1.975 1.45s-.794 1.436-1.975 1.436c-1.216.003-2.017-.501-2.01-1.436zm20.38-6.388V2.93h-2.486v1.685h-4.04v1.954h10.552V4.615zm7.583 3.025V3.012h-2.5v11.16h2.5V9.67h2.389V7.64zm-4.454 2.783c0-1.954-1.8-3.273-4.372-3.28s-4.42 1.326-4.413 3.28 1.83 3.273 4.413 3.273 4.371-1.316 4.371-3.27zm-6.36 0c0-.912.794-1.4 1.989-1.409s2 .5 2.01 1.409-.822 1.374-2.01 1.374-1.991-.467-1.991-1.371zm8.315 6.485v3.9h2.5v-5.886h-11.97v1.989zm7.693-13.363v5.6h12.155v-5.6zm2.445 3.674V5.471h7.217v1.747zm11.768 2.866h-16.217v1.954h6.823v1.14H201.4v1.878h9.9v.919h-9.889v4.7h12.811V18.8h-10.363v-1.07h9.9v-4.552h-4.91v-1.14h6.892zm13.454-7.07v9.13h2.472v-9.13zm-6.671 5.677a6.653 6.653 0 0 0 4.3 3.28L228 10.05c-2.728-.711-4.068-2.445-4.24-4.22h3.557V3.841h-9.772V5.83h3.655c-.18 1.906-1.54 3.771-4.3 4.544l1.133 1.961a6.833 6.833 0 0 0 4.493-3.646zm-.283 8.909h9.454v-4.744h-11.929v1.885h9.441v1.077h-9.4v4.862h12.369v-1.92h-9.938z" transform="translate(18 53)"/>
    </g>
    <g id="fc_box_small-9" data-name="fc_box_small" transform="translate(46 2177)">
        <g transform="translate(-46 -2177)" style="filter:url(#box-11)">
            <g id="box-27" data-name="box" class="cls-4">
                <path class="cls-10" d="M0 0h348v130H0z" transform="translate(46 2177)"/>
                <path class="cls-11" d="M1 1h346v128H1z" transform="translate(46 2177)"/>
            </g>
        </g>
        <path id="패스_11221" data-name="패스 11221" class="cls-3" d="M93.372 20.8h2.355V3.012h-2.355zM87.419 9.117v2h2.341v8.854h2.334V3.309H89.76v5.808zM85.99 6.831h2.693v-2h-8.011v2h2.914v.946c0 3.025-.974 6.215-3.591 7.831l1.505 1.838a8.275 8.275 0 0 0 3.316-4.846 7.518 7.518 0 0 0 3.232 4.434l1.457-1.83c-2.6-1.485-3.522-4.468-3.515-7.431zm15.573-1.975-3.5 2.224v2.61l3.246-2.037h.083V19h2.942V4.856zM108.6 10.4c3.349-.325 5.573-1.568 6.512-3.28.946 1.713 3.2 2.956 6.547 3.28l.884-1.941c-3.336-.311-5.152-1.485-5.6-2.707h4.841V3.779H108.5v1.968h4.807c-.456 1.229-2.279 2.4-5.58 2.707zm7.749-1.008h-2.472v2.141h-6.844v2h16.215v-2h-6.9zm-1.243 5.108c-3.888.007-6.222 1.126-6.222 3.142s2.334 3.156 6.222 3.149 6.181-1.119 6.195-3.149c-.014-2.012-2.314-3.131-6.195-3.142zm0 4.434c-2.479 0-3.695-.414-3.681-1.291-.014-.843 1.2-1.243 3.681-1.243 2.438 0 3.688.4 3.695 1.243-.008.88-1.257 1.295-3.695 1.295zm18.315-9.689V8.178h9.42V6.334h-9.42v-.987h9.834V3.42h-12.32v7.721h12.472V9.249zm-4.521 4.976h16.257V12.26H128.9zm11.733 3.135V20.8h2.514v-5.412h-12.41v1.968zm15.315-7.976h2.776v4.2h2.486V3.012h-2.486v4.337h-2.776zm-4.24.221a6.774 6.774 0 0 0 4.088 3.522l1.229-1.961a5.5 5.5 0 0 1-4.088-5.062h3.543v-2h-9.641v2h3.561a5.918 5.918 0 0 1-4.289 5.511l1.291 1.975a7.052 7.052 0 0 0 4.306-3.986zm3.425 4.372c-3.785 0-6.112 1.271-6.1 3.425s2.32 3.419 6.1 3.425 6.119-1.271 6.126-3.425-2.327-3.426-6.126-3.426zm0 4.945c-2.355.007-3.633-.5-3.626-1.519s1.271-1.533 3.626-1.533 3.646.511 3.653 1.533-1.286 1.525-3.653 1.518zm22.6-8.667V3.012h-2.514V20.8h2.514v-8.485h2.32V10.25zM170.2 5V3.116h-2.507V5h-4.033v1.956h10.54V5zm0 9.22c1.878-.359 3.128-1.575 3.142-3.218-.014-2-1.83-3.349-4.372-3.349-2.59 0-4.385 1.354-4.378 3.349-.007 1.637 1.215 2.845 3.1 3.211v1.533c-1.575.035-3.08.035-4.378.035l.331 2.03a60.711 60.711 0 0 0 10.863-.725l-.166-1.809c-1.326.186-2.735.3-4.144.373zM166.956 11c-.007-.925.794-1.45 2.01-1.45 1.181 0 1.975.525 1.975 1.45s-.794 1.436-1.975 1.436c-1.215.003-2.016-.501-2.01-1.436zm20.38-6.388V2.93h-2.486v1.685h-4.04v1.954h10.552V4.615zm7.583 3.025V3.012h-2.5v11.16h2.5V9.67h2.389V7.64zm-4.454 2.783c0-1.954-1.8-3.273-4.372-3.28s-4.42 1.326-4.413 3.28 1.83 3.273 4.413 3.273 4.372-1.316 4.372-3.27zm-6.36 0c0-.912.794-1.4 1.989-1.409s2 .5 2.01 1.409-.822 1.374-2.01 1.374-1.994-.467-1.994-1.371zm8.315 6.485v3.9h2.5v-5.886h-11.969v1.989zm7.693-13.363v5.6h12.155v-5.6zm2.445 3.674V5.471h7.217v1.747zm11.768 2.866H198.11v1.954h6.823v1.14h-4.952v1.878h9.9v.919H200v4.7h12.811V18.8H202.44v-1.07h9.9v-4.552h-4.91v-1.14h6.892zm13.453-7.072v9.13h2.472V3.012zm-6.671 5.677a6.653 6.653 0 0 0 4.3 3.28l1.181-1.92c-2.728-.711-4.068-2.445-4.24-4.22h3.551V3.841h-9.772V5.83h3.653c-.18 1.906-1.54 3.771-4.3 4.544l1.133 1.961a6.833 6.833 0 0 0 4.493-3.646zm-.283 8.909h9.454v-4.742h-11.927v1.885h9.441v1.077h-9.4v4.862h12.369v-1.92h-9.938z" transform="translate(18 53)"/>
    </g>
    <g id="fc_box_small-10" data-name="fc_box_small" transform="translate(942 1024)">
        <g transform="translate(-942 -1024)" style="filter:url(#box-12)">
            <g id="box-28" data-name="box" class="cls-4">
                <path class="cls-10" d="M0 0h348v130H0z" transform="translate(942 1024)"/>
                <path class="cls-11" d="M1 1h346v128H1z" transform="translate(942 1024)"/>
            </g>
        </g>
        <path id="패스_11212" data-name="패스 11212" class="cls-3" d="M74.86 9.87V3.012h-2.493V20.8h2.493v-8.823h2.624V9.87zm-7.479-5.483h-2.493v2.659c-.007 3.3-1.43 6.7-4.434 8.08l1.526 2.023a8.59 8.59 0 0 0 4.164-5.18 8.108 8.108 0 0 0 3.93 4.834l1.506-1.982c-2.852-1.381-4.213-4.593-4.2-7.776zM87.72 9.649h2.907v6.367h2.486V3.04h-2.486v4.6H87.72zm-4.116.483a6.757 6.757 0 0 0 4.1 3.543l1.224-1.975a5.477 5.477 0 0 1-4.088-5.186v-.283h3.543v-2h-9.641v2h3.564V6.5a5.736 5.736 0 0 1-4.275 5.518l1.278 2.017a7.01 7.01 0 0 0 4.291-3.902zm.2 4.751h-2.486v5.608h12.217v-2.01H83.8zm22.845-10.545v-1.45h-2.486v1.45h-3.854v1.81h10.166v-1.81zm7.6 3.785V3.04h-2.493v12.079h2.493v-4.952h2.279V8.123zm-3.322 4.227c-1.36.166-2.818.283-4.275.352v-.919c1.892-.283 3.08-1.222 3.087-2.576-.007-1.644-1.733-2.659-4.351-2.652s-4.365 1.008-4.358 2.652c-.007 1.367 1.2 2.314 3.135 2.583v1c-1.54.041-3.018.048-4.323.048l.256 1.927a66.627 66.627 0 0 0 11.008-.7zm-7.517-3.143c-.007-.684.711-.994 1.975-.994s1.961.311 1.968.994c-.007.649-.718 1.029-1.968 1.022s-1.985-.373-1.975-1.022zm8.343 8.543v3.05h2.493v-4.977H102.1v1.927zm17.956-14.71v12.776h2.5V3.04zm-2.389 5.608a4.874 4.874 0 0 0-9.717 0 4.872 4.872 0 0 0 9.717 0zm-7.279 0a2.412 2.412 0 0 1 4.82 0 2.411 2.411 0 0 1-4.82 0zm2.776 5.877H120.3v5.967h12.383v-2.01h-9.862zm29.427-4.641h-1.714V3.323h-2.286v16.609h2.286V11.88h1.713v8.92h2.357V3.012h-2.355zm-10.007-2.8h4.137v-2h-6.637v11.685h1.243a32.3 32.3 0 0 0 6.4-.49l-.186-2.03a29.27 29.27 0 0 1-4.959.435zm28.4-4.068h-2.5v10.549h2.5V9.242h2.389V7.177h-2.389zm-8.857 6.44a6.574 6.574 0 0 0 3.971 3.391l1.319-1.941a5.249 5.249 0 0 1-4.07-5.09V3.965h-2.49v1.61a5.926 5.926 0 0 1-4.247 5.815l1.34 1.954a6.831 6.831 0 0 0 4.177-3.888zm3.018 4.475c-3.743-.007-6.091 1.271-6.084 3.419-.007 2.189 2.341 3.453 6.084 3.446 3.688.007 6-1.257 6-3.446.002-2.15-2.312-3.426-5.998-3.419zm0 4.917c-2.327-.007-3.6-.483-3.591-1.5-.007-.96 1.264-1.478 3.591-1.478s3.543.518 3.543 1.478c0 1.017-1.229 1.493-3.541 1.5zm15.642-15.3v5.6h12.16v-5.6zm2.445 3.674V5.471h7.215v1.747zm11.768 2.866h-16.215v1.954h6.823v1.14h-4.952v1.878h9.9v.919h-9.889v4.7h12.811V18.8h-10.363v-1.07h9.9v-4.552h-4.91v-1.14h6.892zm13.453-7.072v9.13h2.472V3.012zm-6.671 5.677a6.653 6.653 0 0 0 4.3 3.28l1.181-1.92c-2.728-.711-4.068-2.445-4.24-4.22h3.557V3.841h-9.772V5.83h3.653c-.18 1.906-1.54 3.771-4.3 4.544l1.133 1.961a6.833 6.833 0 0 0 4.488-3.646zm-.283 8.909h9.454v-4.748H198.68v1.885h9.441v1.077h-9.4v4.862h12.369v-1.92h-9.938zm28.86-14.562v12.977h2.5V3.04zm-6.851 6.547a6.851 6.851 0 0 0 4.178 3.695l1.271-1.961a5.645 5.645 0 0 1-4.171-5.594V4.014h-2.583v1.713a6.047 6.047 0 0 1-4.289 5.9l1.3 1.968a7.1 7.1 0 0 0 4.295-4.008zm-.041 5.166h-2.52v5.739h12.383v-2.01h-9.863zm25.739 0a42.248 42.248 0 0 0 .711-8.508V4.559H236.6v1.982h10.47a38.52 38.52 0 0 1-.725 7.949zm-5.659-4.268h-2.472V16.6h-5.8v2.02h16.215V16.6H243.2z" transform="translate(18 53)"/>
    </g>
    <g id="fc_box_small-11" data-name="fc_box_small" transform="translate(494 1255)">
        <g transform="translate(-494 -1255)" style="filter:url(#box-13)">
            <g id="box-29" data-name="box" class="cls-4">
                <path class="cls-10" d="M0 0h348v130H0z" transform="translate(494 1255)"/>
                <path class="cls-11" d="M1 1h346v128H1z" transform="translate(494 1255)"/>
            </g>
        </g>
        <path id="패스_11213" data-name="패스 11213" class="cls-3" d="M119.052 11.541c3.819.007 6.485-1.512 6.485-3.909 0-2.452-2.666-4.019-6.485-4.019s-6.452 1.568-6.452 4.02c0 2.396 2.64 3.915 6.452 3.908zm0-5.939c2.4.007 3.909.718 3.909 2.03 0 1.25-1.506 1.941-3.909 1.948-2.383-.007-3.9-.7-3.881-1.948-.014-1.312 1.499-2.023 3.881-2.032zm-8.08 7.314v2h3.722V20.8h2.555v-5.881h3.651V20.8h2.528v-5.881h3.805v-2zm30.318-2.659h-1.443V3.365h-2.334v16.671h2.334v-7.79h1.443V20.8h2.369V3.012h-2.369zm-9.931-6.74v2.216h-3.108v1.982h8.6V5.733h-3.046V3.517zm1.236 5a3.921 3.921 0 0 0-3.916 4.206 3.922 3.922 0 1 0 7.818 0 3.914 3.914 0 0 0-3.897-4.206zm0 6.34c-1.029.007-1.733-.773-1.727-2.134-.007-1.333.7-2.141 1.727-2.141 1 0 1.706.808 1.713 2.141-.008 1.36-.708 2.14-1.708 2.133zm27.963-1.416V3.012h-2.486v3.267h-3.336v2.037h3.336v5.124zm-9.468-4.075a6.528 6.528 0 0 0 3.95 3.481l1.326-1.948a5.427 5.427 0 0 1-4.075-5.463V3.945h-2.514v1.609a5.938 5.938 0 0 1-4.372 5.849l1.326 1.989a7.061 7.061 0 0 0 4.359-4.026zm3.391 4.53c-3.785 0-6.112 1.278-6.1 3.46s2.32 3.446 6.1 3.439 6.119-1.243 6.126-3.439-2.328-3.456-6.126-3.456zm0 4.959c-2.355.007-3.633-.511-3.626-1.5-.007-1.015 1.271-1.526 3.626-1.526s3.646.511 3.653 1.526c-.007.989-1.291 1.507-3.653 1.5zm27.983-4.965V3.012h-2.486v2.9H177.8v1.955h2.175v1.368H177.8v1.989h2.175v2.666zm-4.793-3.122a62.42 62.42 0 0 1-1.733.166V6.189h1.462v-2h-9.461v2h1.43v4.993c-.663.007-1.3.014-1.885.014l.262 2.03a64.873 64.873 0 0 0 10.028-.628zm-4.116-4.579v4.889a76.49 76.49 0 0 1-1.775.062V6.189zm2.831 7.977c-3.812 0-6.112 1.2-6.1 3.336-.007 2.065 2.293 3.3 6.1 3.294s6.119-1.229 6.126-3.294c-.006-2.135-2.306-3.336-6.125-3.336zm0 4.738c-2.376-.007-3.633-.47-3.626-1.4-.007-.974 1.25-1.443 3.626-1.443s3.646.47 3.653 1.443c-.006.93-1.277 1.396-3.652 1.396zM198.8 9.829V3.012h-2.5v17.749h2.5v-8.874h2.514V9.829zm-13.214-4.993v2.037h5.925c-.47 3.964-2.728 6.8-6.927 8.909l1.4 1.906c5.974-2.935 8.052-7.535 8.066-12.852z" transform="translate(18 53)"/>
    </g>
    <g id="fc_box_small-12" data-name="fc_box_small" transform="translate(494 1717)">
        <g transform="translate(-494 -1717)" style="filter:url(#box-14)">
            <g id="box-30" data-name="box" class="cls-4">
                <path class="cls-10" d="M0 0h348v130H0z" transform="translate(494 1717)"/>
                <path class="cls-11" d="M1 1h346v128H1z" transform="translate(494 1717)"/>
            </g>
        </g>
        <path id="패스_11216" data-name="패스 11216" class="cls-3" d="M95.42 11.611c3.819 0 6.485-1.54 6.485-3.964 0-2.465-2.666-4.033-6.485-4.033s-6.457 1.568-6.45 4.033c-.007 2.423 2.638 3.964 6.45 3.964zm0-6.008c2.4.007 3.909.739 3.909 2.044 0 1.278-1.506 2-3.909 2-2.383 0-3.9-.718-3.881-2-.014-1.306 1.498-2.038 3.881-2.047zm-8.08 7.355v2.037h6.844v5.822h2.465v-5.823h6.951v-2.037zm32.293 3.218V3.04h-2.486v3.778h-3.329v2.016h3.329v7.341zM110.088 9.9a6.813 6.813 0 0 0 3.93 3.646l1.354-1.941a5.65 5.65 0 0 1-4.072-5.533V4.111h-2.51v1.94A5.982 5.982 0 0 1 104.543 12l1.34 1.961a7.022 7.022 0 0 0 4.205-4.061zm.228 4.9H107.8v5.7h12.217v-2.01h-9.7zm26.609-.9V3.012h-2.486v2.9h-2.175v1.955h2.175v1.368h-2.175v1.989h2.175v2.666zm-4.793-3.122a62.42 62.42 0 0 1-1.733.166V6.189h1.457v-2H122.4v2h1.43v4.993c-.663.007-1.3.014-1.885.014l.262 2.03a64.873 64.873 0 0 0 10.028-.628zm-4.116-4.579v4.889a76.49 76.49 0 0 1-1.775.062V6.189zm2.831 7.977c-3.812 0-6.112 1.2-6.1 3.336-.007 2.065 2.293 3.3 6.1 3.294s6.119-1.229 6.126-3.294c-.006-2.145-2.306-3.346-6.125-3.346zm0 4.738c-2.376-.007-3.633-.47-3.626-1.4-.007-.974 1.25-1.443 3.626-1.443s3.646.47 3.653 1.443c-.006.92-1.276 1.386-3.652 1.386zm22.41-9.075V3.012h-2.493v17.749h2.493v-8.874h2.514V9.829zm-13.21-5.003v2.037h5.925c-.47 3.964-2.728 6.8-6.927 8.909l1.4 1.906c5.974-2.935 8.052-7.535 8.066-12.852zm30.7 5.414V3.012h-2.514V20.8h2.514v-8.485h2.32V10.25zM163.2 5V3.116h-2.5V5h-4.033v1.956h10.546V5zm0 9.22c1.878-.359 3.128-1.575 3.142-3.218-.014-2-1.83-3.349-4.372-3.349-2.59 0-4.385 1.354-4.378 3.349-.007 1.637 1.215 2.845 3.1 3.211v1.533c-1.575.035-3.08.035-4.378.035l.331 2.03a60.711 60.711 0 0 0 10.863-.725l-.166-1.809c-1.326.186-2.735.3-4.144.373zM159.964 11c-.007-.925.794-1.45 2.01-1.45 1.181 0 1.975.525 1.975 1.45s-.794 1.436-1.975 1.436c-1.216.003-2.017-.501-2.01-1.436zm20.38-6.388V2.93h-2.486v1.685h-4.04v1.954h10.552V4.615zm7.583 3.025V3.012h-2.5v11.16h2.5V9.67h2.389V7.64zm-4.454 2.783c0-1.954-1.8-3.273-4.372-3.28s-4.42 1.326-4.413 3.28 1.83 3.273 4.413 3.273 4.371-1.316 4.371-3.27zm-6.36 0c0-.912.794-1.4 1.989-1.409s2 .5 2.01 1.409-.822 1.374-2.01 1.374-1.99-.467-1.99-1.371zm8.315 6.485v3.9h2.5v-5.886h-11.969v1.989zm7.692-13.361v5.6h12.155v-5.6zm2.445 3.674V5.471h7.217v1.747zm11.768 2.866h-16.216v1.954h6.823v1.14h-4.952v1.878h9.9v.919H193v4.7h12.811V18.8h-10.363v-1.07h9.9v-4.552h-4.91v-1.14h6.892zm13.453-7.072v9.13h2.472v-9.13zm-6.671 5.677a6.653 6.653 0 0 0 4.3 3.28l1.181-1.92c-2.728-.711-4.068-2.445-4.24-4.22h3.557V3.841h-9.772V5.83h3.653c-.18 1.906-1.54 3.771-4.3 4.544l1.133 1.961a6.833 6.833 0 0 0 4.488-3.646zm-.283 8.909h9.454v-4.744h-11.927v1.885h9.441v1.077h-9.4v4.862h12.369v-1.92h-9.938z" transform="translate(18 53)"/>
    </g>
    <g id="fc_box_small-13" data-name="fc_box_small" transform="translate(494 100)">
        <g transform="translate(-494 -100)" style="filter:url(#box-15)">
            <g id="box-31" data-name="box" class="cls-4">
                <path class="cls-10" d="M0 0h348v130H0z" transform="translate(494 100)"/>
                <path class="cls-11" d="M1 1h346v128H1z" transform="translate(494 100)"/>
            </g>
        </g>
        <path id="패스_11205" data-name="패스 11205" class="cls-3" d="M129.567 20.8h2.355V3.012h-2.355zm-5.953-11.683v2h2.341v8.854h2.334V3.309h-2.334v5.808zm-1.43-2.286h2.693v-2h-8.011v2h2.914v.946c0 3.025-.974 6.215-3.591 7.831l1.506 1.837a8.275 8.275 0 0 0 3.315-4.845 7.518 7.518 0 0 0 3.232 4.434l1.457-1.83c-2.6-1.485-3.522-4.468-3.515-7.431zM135.4 8.213v2h13.1v-2h-2.2v-2.7h2.314v-2h-13.336v2h2.307v2.7zm4.675 0v-2.7h3.722v2.7zm10 3.135h-16.219v1.968h6.844v1.526h-4.965V20.6h12.389v-5.76h-4.945v-1.524h6.892zm-11.885 7.258v-1.837h7.507v1.837zM163.524 3.04v12.776h2.5V3.04zm-2.39 5.608a4.874 4.874 0 0 0-9.717 0 4.872 4.872 0 0 0 9.717 0zm-7.279 0a2.412 2.412 0 0 1 4.82 0 2.411 2.411 0 0 1-4.82 0zm2.776 5.877h-2.521v5.967h12.383v-2.01h-9.862zm25.829-4.7V3.012h-2.493v17.749h2.493v-8.874h2.514V9.829zm-13.211-4.989v2.037h5.925c-.47 3.964-2.728 6.8-6.927 8.909l1.4 1.906c5.974-2.935 8.052-7.535 8.066-12.852zm22.169 9.931v-.221a2.707 2.707 0 0 1 1.588-2.652 3.775 3.775 0 0 0 2.12-3.4c0-2.41-1.927-3.826-4.655-3.826-2.493 0-4.537 1.319-4.593 4.061h2.776a1.742 1.742 0 0 1 1.8-1.747 1.605 1.605 0 0 1 1.713 1.6c0 .912-.649 1.519-1.5 2.058-1.16.732-1.816 1.478-1.83 3.909v.221zm-1.236 4.406a1.633 1.633 0 1 0 0-3.267 1.633 1.633 0 1 0 0 3.267z" transform="translate(18 53)"/>
    </g>
    <g id="fc_yes" transform="translate(637.746 269.21)">
        <g id="그룹_1842" data-name="그룹 1842" transform="translate(-493.746 -399.21)">
            <g id="fc_yes-2" data-name="fc_yes" transform="translate(493.746 399.21)">
                <path id="사각형_515" data-name="사각형 515" class="cls-1" d="M0 0h60.602v22.232H0z"/>
                <path id="패스_11233" data-name="패스 11233" class="cls-3" d="M-9.111-7.42v-5.37H-11.1V1.442h1.994v-7.2h2.1V-7.42zm-7.389-4.365c-2.177 0-3.762 1.967-3.751 5.061-.014 3.124 1.571 5.083 3.751 5.083s3.74-1.956 3.751-5.083c-.013-3.094-1.582-5.061-3.751-5.061zm0 8.337c-1.088 0-1.829-1.149-1.823-3.276-.006-2.1.735-3.26 1.823-3.26 1.116 0 1.834 1.155 1.84 3.26-.009 2.124-.727 3.276-1.84 3.276zm19.981 4.89h1.983V-12.79H3.481zm-7.238-12.867h-1.972v9.354h1.254a33.781 33.781 0 0 0 7.039-.674l-.249-1.647a34.884 34.884 0 0 1-6.072.619zM14.8-4.282c2.558-.287 4.376-1.729 4.376-3.878 0-2.337-2.293-3.89-5.359-3.89-3.05 0-5.337 1.552-5.331 3.89-.006 2.144 1.8 3.586 4.343 3.873v2.436H7.343v1.624h13.005v-1.624H14.8zM10.448-8.16c0-1.42 1.387-2.3 3.37-2.3 2.006 0 3.387.878 3.392 2.3-.006 1.5-1.387 2.343-3.392 2.348-1.984-.006-3.37-.845-3.37-2.348z" transform="translate(30.254 16.79)"/>
            </g>
        </g>
    </g>
    <g id="fc_yes-3" data-name="fc_yes" transform="translate(637.746 500.21)">
        <g id="그룹_1842-2" data-name="그룹 1842" transform="translate(-493.746 -399.21)">
            <g id="fc_yes-4" data-name="fc_yes" transform="translate(493.746 399.21)">
                <path id="사각형_515-2" data-name="사각형 515" class="cls-1" d="M0 0h60.602v22.232H0z"/>
                <path id="패스_11234" data-name="패스 11234" class="cls-3" d="M-9.111-7.42v-5.37H-11.1V1.442h1.994v-7.2h2.1V-7.42zm-7.389-4.365c-2.177 0-3.762 1.967-3.751 5.061-.014 3.124 1.571 5.083 3.751 5.083s3.74-1.956 3.751-5.083c-.013-3.094-1.582-5.061-3.751-5.061zm0 8.337c-1.088 0-1.829-1.149-1.823-3.276-.006-2.1.735-3.26 1.823-3.26 1.116 0 1.834 1.155 1.84 3.26-.009 2.124-.727 3.276-1.84 3.276zm19.981 4.89h1.983V-12.79H3.481zm-7.238-12.867h-1.972v9.354h1.254a33.781 33.781 0 0 0 7.039-.674l-.249-1.647a34.884 34.884 0 0 1-6.072.619zM14.8-4.282c2.558-.287 4.376-1.729 4.376-3.878 0-2.337-2.293-3.89-5.359-3.89-3.05 0-5.337 1.552-5.331 3.89-.006 2.144 1.8 3.586 4.343 3.873v2.436H7.343v1.624h13.005v-1.624H14.8zM10.448-8.16c0-1.42 1.387-2.3 3.37-2.3 2.006 0 3.387.878 3.392 2.3-.006 1.5-1.387 2.343-3.392 2.348-1.984-.006-3.37-.845-3.37-2.348z" transform="translate(30.254 16.79)"/>
            </g>
        </g>
    </g>
    <g id="fc_yes-5" data-name="fc_yes" transform="translate(637.746 962.21)">
        <g id="그룹_1842-3" data-name="그룹 1842" transform="translate(-493.746 -399.21)">
            <g id="fc_yes-6" data-name="fc_yes" transform="translate(493.746 399.21)">
                <path id="사각형_515-3" data-name="사각형 515" class="cls-1" d="M0 0h60.602v22.232H0z"/>
                <path id="패스_11228" data-name="패스 11228" class="cls-3" d="M-9.111-7.42v-5.37H-11.1V1.442h1.994v-7.2h2.1V-7.42zm-7.389-4.365c-2.177 0-3.762 1.967-3.751 5.061-.014 3.124 1.571 5.083 3.751 5.083s3.74-1.956 3.751-5.083c-.013-3.094-1.582-5.061-3.751-5.061zm0 8.337c-1.088 0-1.829-1.149-1.823-3.276-.006-2.1.735-3.26 1.823-3.26 1.116 0 1.834 1.155 1.84 3.26-.009 2.124-.727 3.276-1.84 3.276zm19.981 4.89h1.983V-12.79H3.481zm-7.238-12.867h-1.972v9.354h1.254a33.781 33.781 0 0 0 7.039-.674l-.249-1.647a34.884 34.884 0 0 1-6.072.619zM14.8-4.282c2.558-.287 4.376-1.729 4.376-3.878 0-2.337-2.293-3.89-5.359-3.89-3.05 0-5.337 1.552-5.331 3.89-.006 2.144 1.8 3.586 4.343 3.873v2.436H7.343v1.624h13.005v-1.624H14.8zM10.448-8.16c0-1.42 1.387-2.3 3.37-2.3 2.006 0 3.387.878 3.392 2.3-.006 1.5-1.387 2.343-3.392 2.348-1.984-.006-3.37-.845-3.37-2.348z" transform="translate(30.254 16.79)"/>
            </g>
        </g>
    </g>
    <g id="fc_yes-7" data-name="fc_yes" transform="translate(637.746 1424.21)">
        <g id="그룹_1842-4" data-name="그룹 1842" transform="translate(-493.746 -399.21)">
            <g id="fc_yes-8" data-name="fc_yes" transform="translate(493.746 399.21)">
                <path id="사각형_515-4" data-name="사각형 515" class="cls-1" d="M0 0h60.602v22.232H0z"/>
                <path id="패스_11223" data-name="패스 11223" class="cls-3" d="M-9.111-7.42v-5.37H-11.1V1.442h1.994v-7.2h2.1V-7.42zm-7.389-4.365c-2.177 0-3.762 1.967-3.751 5.061-.014 3.124 1.571 5.083 3.751 5.083s3.74-1.956 3.751-5.083c-.013-3.094-1.582-5.061-3.751-5.061zm0 8.337c-1.088 0-1.829-1.149-1.823-3.276-.006-2.1.735-3.26 1.823-3.26 1.116 0 1.834 1.155 1.84 3.26-.009 2.124-.727 3.276-1.84 3.276zm19.981 4.89h1.983V-12.79H3.481zm-7.238-12.867h-1.972v9.354h1.254a33.781 33.781 0 0 0 7.039-.674l-.249-1.647a34.884 34.884 0 0 1-6.072.619zM14.8-4.282c2.558-.287 4.376-1.729 4.376-3.878 0-2.337-2.293-3.89-5.359-3.89-3.05 0-5.337 1.552-5.331 3.89-.006 2.144 1.8 3.586 4.343 3.873v2.436H7.343v1.624h13.005v-1.624H14.8zM10.448-8.16c0-1.42 1.387-2.3 3.37-2.3 2.006 0 3.387.878 3.392 2.3-.006 1.5-1.387 2.343-3.392 2.348-1.984-.006-3.37-.845-3.37-2.348z" transform="translate(30.254 16.79)"/>
            </g>
        </g>
    </g>
    <g id="fc_yes-9" data-name="fc_yes" transform="translate(637.746 731.21)">
        <g id="그룹_1842-5" data-name="그룹 1842" transform="translate(-493.746 -399.21)">
            <g id="fc_yes-10" data-name="fc_yes" transform="translate(493.746 399.21)">
                <path id="사각형_515-5" data-name="사각형 515" class="cls-1" d="M0 0h60.602v22.232H0z"/>
                <path id="패스_11229" data-name="패스 11229" class="cls-3" d="M-9.111-7.42v-5.37H-11.1V1.442h1.994v-7.2h2.1V-7.42zm-7.389-4.365c-2.177 0-3.762 1.967-3.751 5.061-.014 3.124 1.571 5.083 3.751 5.083s3.74-1.956 3.751-5.083c-.013-3.094-1.582-5.061-3.751-5.061zm0 8.337c-1.088 0-1.829-1.149-1.823-3.276-.006-2.1.735-3.26 1.823-3.26 1.116 0 1.834 1.155 1.84 3.26-.009 2.124-.727 3.276-1.84 3.276zm19.981 4.89h1.983V-12.79H3.481zm-7.238-12.867h-1.972v9.354h1.254a33.781 33.781 0 0 0 7.039-.674l-.249-1.647a34.884 34.884 0 0 1-6.072.619zM14.8-4.282c2.558-.287 4.376-1.729 4.376-3.878 0-2.337-2.293-3.89-5.359-3.89-3.05 0-5.337 1.552-5.331 3.89-.006 2.144 1.8 3.586 4.343 3.873v2.436H7.343v1.624h13.005v-1.624H14.8zM10.448-8.16c0-1.42 1.387-2.3 3.37-2.3 2.006 0 3.387.878 3.392 2.3-.006 1.5-1.387 2.343-3.392 2.348-1.984-.006-3.37-.845-3.37-2.348z" transform="translate(30.254 16.79)"/>
            </g>
        </g>
    </g>
    <g id="fc_yes-11" data-name="fc_yes" transform="translate(637.746 1193.21)">
        <g id="그룹_1842-6" data-name="그룹 1842" transform="translate(-493.746 -399.21)">
            <g id="fc_yes-12" data-name="fc_yes" transform="translate(493.746 399.21)">
                <path id="사각형_515-6" data-name="사각형 515" class="cls-1" d="M0 0h60.602v22.232H0z"/>
                <path id="패스_11225" data-name="패스 11225" class="cls-3" d="M-9.111-7.42v-5.37H-11.1V1.442h1.994v-7.2h2.1V-7.42zm-7.389-4.365c-2.177 0-3.762 1.967-3.751 5.061-.014 3.124 1.571 5.083 3.751 5.083s3.74-1.956 3.751-5.083c-.013-3.094-1.582-5.061-3.751-5.061zm0 8.337c-1.088 0-1.829-1.149-1.823-3.276-.006-2.1.735-3.26 1.823-3.26 1.116 0 1.834 1.155 1.84 3.26-.009 2.124-.727 3.276-1.84 3.276zm19.981 4.89h1.983V-12.79H3.481zm-7.238-12.867h-1.972v9.354h1.254a33.781 33.781 0 0 0 7.039-.674l-.249-1.647a34.884 34.884 0 0 1-6.072.619zM14.8-4.282c2.558-.287 4.376-1.729 4.376-3.878 0-2.337-2.293-3.89-5.359-3.89-3.05 0-5.337 1.552-5.331 3.89-.006 2.144 1.8 3.586 4.343 3.873v2.436H7.343v1.624h13.005v-1.624H14.8zM10.448-8.16c0-1.42 1.387-2.3 3.37-2.3 2.006 0 3.387.878 3.392 2.3-.006 1.5-1.387 2.343-3.392 2.348-1.984-.006-3.37-.845-3.37-2.348z" transform="translate(30.254 16.79)"/>
            </g>
        </g>
    </g>
    <g id="fc_yes-13" data-name="fc_yes" transform="translate(630.757 1655.21)">
        <g id="그룹_1842-7" data-name="그룹 1842" transform="translate(-486.757 -399.21)">
            <g id="fc_yes-14" data-name="fc_yes" transform="translate(486.757 399.21)">
                <path id="사각형_515-7" data-name="사각형 515" class="cls-1" d="M0 0h73.525v22.232H0z"/>
                <path id="패스_11222" data-name="패스 11222" class="cls-3" d="M-16.1-3.4a33.8 33.8 0 0 0 .57-6.8v-1.348h-10.376v1.586h8.376a30.816 30.816 0 0 1-.58 6.359zm-4.525-3.414H-22.6v4.89h-4.641V-.3h12.972v-1.623h-6.354zM-3.4 1.431h1.978v-14.2H-3.4zm-5.379-7.586C-6.6-6.144-5.022-7.4-5.022-9.166c0-1.8-1.58-3.033-3.757-3.028-2.16-.006-3.74 1.232-3.729 3.028-.011 1.766 1.569 3.022 3.729 3.011zm0-4.442c1.1-.006 1.862.519 1.867 1.431-.006.884-.768 1.4-1.867 1.392-1.055.006-1.812-.508-1.807-1.392-.005-.911.752-1.434 1.807-1.434zm4.514 4.8a64.66 64.66 0 0 1-9.116.519l.243 1.624c1.022-.011 2.2-.022 3.453-.072v4.743h2v-4.868a32.182 32.182 0 0 0 3.558-.481zm15.094-1.197H9.674v-5.514H7.807V.829h1.867V-5.4h1.155v6.842h1.9V-12.79h-1.9zm-7.945-5.393v1.773H.4v1.586h6.882v-1.586H4.845v-1.773zm.989 4A3.137 3.137 0 0 0 .74-5.022a3.15 3.15 0 0 0 3.133 3.4 3.145 3.145 0 0 0 3.122-3.4 3.131 3.131 0 0 0-3.122-3.365zm0 5.072c-.823.006-1.387-.619-1.381-1.707-.006-1.066.558-1.713 1.381-1.713.8 0 1.365.646 1.37 1.713-.005 1.088-.569 1.713-1.37 1.707zm22.37-1.133v-8.342h-1.989v2.613h-2.668v1.63h2.669v4.1zm-7.575-3.26a5.223 5.223 0 0 0 3.16 2.785l1.061-1.558a4.342 4.342 0 0 1-3.26-4.37v-1.193h-2.01v1.287a4.751 4.751 0 0 1-3.5 4.68l1.061 1.591a5.649 5.649 0 0 0 3.489-3.221zm2.713 3.624c-3.028 0-4.889 1.022-4.884 2.768s1.856 2.757 4.884 2.751 4.9-.994 4.9-2.751-1.861-2.767-4.9-2.767zm0 3.967c-1.884.006-2.906-.409-2.9-1.2-.006-.812 1.017-1.221 2.9-1.221s2.919.411 2.919 1.223c0 .79-1.029 1.205-2.919 1.199z" transform="translate(37.243 16.79)"/>
            </g>
        </g>
    </g>
    <path id="사각형_880" data-name="사각형 880" class="cls-9" transform="translate(842 165)" d="M0 0h270v1H0z"/>
    <path id="사각형_888" data-name="사각형 888" class="cls-9" transform="translate(842 395)" d="M0 0h270v1H0z"/>
    <path id="사각형_889" data-name="사각형 889" class="cls-9" transform="translate(842 626)" d="M0 0h270v1H0z"/>
    <path id="사각형_890" data-name="사각형 890" class="cls-9" transform="translate(842 857)" d="M0 0h100v1H0z"/>
    <path id="사각형_897" data-name="사각형 897" class="cls-9" transform="translate(842 2011)" d="M0 0h100v1H0z"/>
    <path id="사각형_898" data-name="사각형 898" class="cls-9" transform="translate(842 2241)" d="M0 0h100v1H0z"/>
    <path id="사각형_895" data-name="사각형 895" class="cls-9" transform="translate(842 1088)" d="M0 0h100v1H0z"/>
    <path id="사각형_896" data-name="사각형 896" class="cls-9" transform="translate(842 1550)" d="M0 0h100v1H0z"/>
    <g id="fc_yes-15" data-name="fc_yes" transform="translate(960.63 154.21)">
        <g id="그룹_1842-8" data-name="그룹 1842" transform="translate(-507.63 -399.21)">
            <g id="fc_yes-16" data-name="fc_yes" transform="translate(507.63 399.21)">
                <path id="사각형_515-8" data-name="사각형 515" class="cls-1" d="M0 0h32.199v22.232H0z"/>
                <path id="패스_11232" data-name="패스 11232" class="cls-3" d="M3.923 1.442h1.906V-12.79H3.923zM-.624-9.63a2.888 2.888 0 0 0-2.657-2.138c-1.873 0-3.094 1.961-3.088 5.138-.006 3.2 1.215 5.177 3.088 5.171a2.884 2.884 0 0 0 2.662-2.16h1.663v4.4h1.879v-13.35H1.044v2.939zm-2.658 6.26c-.829.006-1.287-1.066-1.282-3.26-.006-2.171.453-3.26 1.282-3.254S-1.956-8.8-1.95-6.63c-.006 2.194-.503 3.265-1.332 3.26zm3.055-1.868A11 11 0 0 0-.138-6.63a10.2 10.2 0 0 0-.094-1.4h1.276v2.8z" transform="translate(16.37 16.79)"/>
            </g>
        </g>
    </g>
    <g id="fc_yes-17" data-name="fc_yes" transform="translate(960.63 385.21)">
        <g id="그룹_1842-9" data-name="그룹 1842" transform="translate(-507.63 -399.21)">
            <g id="fc_yes-18" data-name="fc_yes" transform="translate(507.63 399.21)">
                <path id="사각형_515-9" data-name="사각형 515" class="cls-1" d="M0 0h32.199v22.232H0z"/>
                <path id="패스_11231" data-name="패스 11231" class="cls-3" d="M3.923 1.442h1.906V-12.79H3.923zM-.624-9.63a2.888 2.888 0 0 0-2.657-2.138c-1.873 0-3.094 1.961-3.088 5.138-.006 3.2 1.215 5.177 3.088 5.171a2.884 2.884 0 0 0 2.662-2.16h1.663v4.4h1.879v-13.35H1.044v2.939zm-2.658 6.26c-.829.006-1.287-1.066-1.282-3.26-.006-2.171.453-3.26 1.282-3.254S-1.956-8.8-1.95-6.63c-.006 2.194-.503 3.265-1.332 3.26zm3.055-1.868A11 11 0 0 0-.138-6.63a10.2 10.2 0 0 0-.094-1.4h1.276v2.8z" transform="translate(16.37 16.79)"/>
            </g>
        </g>
    </g>
    <g id="fc_yes-19" data-name="fc_yes" transform="translate(960.63 616.21)">
        <g id="그룹_1842-10" data-name="그룹 1842" transform="translate(-507.63 -399.21)">
            <g id="fc_yes-20" data-name="fc_yes" transform="translate(507.63 399.21)">
                <path id="사각형_515-10" data-name="사각형 515" class="cls-1" d="M0 0h32.199v22.232H0z"/>
                <path id="패스_11230" data-name="패스 11230" class="cls-3" d="M3.923 1.442h1.906V-12.79H3.923zM-.624-9.63a2.888 2.888 0 0 0-2.657-2.138c-1.873 0-3.094 1.961-3.088 5.138-.006 3.2 1.215 5.177 3.088 5.171a2.884 2.884 0 0 0 2.662-2.16h1.663v4.4h1.879v-13.35H1.044v2.939zm-2.658 6.26c-.829.006-1.287-1.066-1.282-3.26-.006-2.171.453-3.26 1.282-3.254S-1.956-8.8-1.95-6.63c-.006 2.194-.503 3.265-1.332 3.26zm3.055-1.868A11 11 0 0 0-.138-6.63a10.2 10.2 0 0 0-.094-1.4h1.276v2.8z" transform="translate(16.37 16.79)"/>
            </g>
        </g>
    </g>
    <g id="fc_yes-21" data-name="fc_yes" transform="translate(875.63 847.21)">
        <g id="그룹_1842-11" data-name="그룹 1842" transform="translate(-507.63 -399.21)">
            <g id="fc_yes-22" data-name="fc_yes" transform="translate(507.63 399.21)">
                <path id="사각형_515-11" data-name="사각형 515" class="cls-1" d="M0 0h32.199v22.232H0z"/>
                <path id="패스_11227" data-name="패스 11227" class="cls-3" d="M3.923 1.442h1.906V-12.79H3.923zM-.624-9.63a2.888 2.888 0 0 0-2.657-2.138c-1.873 0-3.094 1.961-3.088 5.138-.006 3.2 1.215 5.177 3.088 5.171a2.884 2.884 0 0 0 2.662-2.16h1.663v4.4h1.879v-13.35H1.044v2.939zm-2.658 6.26c-.829.006-1.287-1.066-1.282-3.26-.006-2.171.453-3.26 1.282-3.254S-1.956-8.8-1.95-6.63c-.006 2.194-.503 3.265-1.332 3.26zm3.055-1.868A11 11 0 0 0-.138-6.63a10.2 10.2 0 0 0-.094-1.4h1.276v2.8z" transform="translate(16.37 16.79)"/>
            </g>
        </g>
    </g>
    <g id="fc_yes-23" data-name="fc_yes" transform="translate(875.63 1078.21)">
        <g id="그룹_1842-12" data-name="그룹 1842" transform="translate(-507.63 -399.21)">
            <g id="fc_yes-24" data-name="fc_yes" transform="translate(507.63 399.21)">
                <path id="사각형_515-12" data-name="사각형 515" class="cls-1" d="M0 0h32.199v22.232H0z"/>
                <path id="패스_11226" data-name="패스 11226" class="cls-3" d="M3.923 1.442h1.906V-12.79H3.923zM-.624-9.63a2.888 2.888 0 0 0-2.657-2.138c-1.873 0-3.094 1.961-3.088 5.138-.006 3.2 1.215 5.177 3.088 5.171a2.884 2.884 0 0 0 2.662-2.16h1.663v4.4h1.879v-13.35H1.044v2.939zm-2.658 6.26c-.829.006-1.287-1.066-1.282-3.26-.006-2.171.453-3.26 1.282-3.254S-1.956-8.8-1.95-6.63c-.006 2.194-.503 3.265-1.332 3.26zm3.055-1.868A11 11 0 0 0-.138-6.63a10.2 10.2 0 0 0-.094-1.4h1.276v2.8z" transform="translate(16.37 16.79)"/>
            </g>
        </g>
    </g>
    <g id="fc_yes-25" data-name="fc_yes" transform="translate(845.768 1497.21)">
        <g id="그룹_1842-13" data-name="그룹 1842" transform="translate(-477.768 -399.21)">
            <g id="fc_yes-26" data-name="fc_yes" transform="translate(477.768 399.21)">
                <path id="사각형_515-13" data-name="사각형 515" class="cls-1" d="M0 0h91.939v46.227H0z"/>
                <path id="패스_11224" data-name="패스 11224" class="cls-3" d="M-25.994-7.823h-2.547V-6.2h2.547v7.68h2.006v-14.27h-2.006zm-4.641-1.983h2.956v-1.608h-7.95v1.608h2.956v.591c-.011 2.63-1.171 5.337-3.558 6.442l1.187 1.573a7.066 7.066 0 0 0 3.4-4.37 6.667 6.667 0 0 0 3.384 4.078l1.171-1.58a6.49 6.49 0 0 1-3.547-6.144zm18.47 11.238h1.978v-14.2h-1.978zm-5.376-7.586c2.177.011 3.757-1.243 3.757-3.011 0-1.8-1.58-3.033-3.757-3.028-2.16-.006-3.74 1.232-3.729 3.028-.012 1.765 1.57 3.021 3.729 3.01zm0-4.442c1.1-.006 1.862.519 1.867 1.431-.006.884-.768 1.4-1.867 1.392-1.055.006-1.812-.508-1.807-1.392-.006-.912.748-1.435 1.807-1.435zm4.514 4.8a64.66 64.66 0 0 1-9.116.519l.243 1.624c1.022-.011 2.2-.022 3.453-.072v4.742h2v-4.868a32.182 32.182 0 0 0 3.558-.481zM2.066-6.994H.912v-5.514H-.956V.829H.912V-5.4h1.154v6.842h1.9V-12.79h-1.9zm-7.945-5.392v1.773h-2.486v1.586h6.884v-1.586h-2.436v-1.773zm.989 4a3.137 3.137 0 0 0-3.132 3.364 3.15 3.15 0 0 0 3.133 3.4 3.145 3.145 0 0 0 3.122-3.4A3.131 3.131 0 0 0-4.89-8.387zm0 5.072c-.823.006-1.387-.619-1.381-1.707-.006-1.066.558-1.713 1.381-1.713.8 0 1.365.646 1.37 1.713-.005 1.087-.568 1.712-1.37 1.706zm22.37-1.133v-8.343h-1.988v2.613h-2.669v1.63h2.669v4.1zm-7.574-3.26a5.223 5.223 0 0 0 3.16 2.785l1.061-1.558a4.342 4.342 0 0 1-3.26-4.37v-1.193H8.856v1.287a4.751 4.751 0 0 1-3.5 4.68l1.064 1.59a5.649 5.649 0 0 0 3.486-3.221zm2.713 3.624c-3.028 0-4.889 1.022-4.884 2.768s1.856 2.757 4.884 2.751 4.9-.994 4.9-2.751-1.862-2.768-4.9-2.768zm0 3.967c-1.884.006-2.906-.409-2.9-1.2-.006-.812 1.017-1.221 2.9-1.221s2.917.409 2.923 1.221c-.006.791-1.034 1.206-2.923 1.2zm20.3-12.674v8.072H34.9v-8.072zm-9.182.867v5.983h6.945v-5.983zM25.7-7.5v-2.87h3.011v2.87zm9.453 5.039v-1.473H31.11V-5.11h-2v1.177h-4.038v1.475h3.972c-.215 1-1.707 2.127-4.547 2.359l.68 1.508c2.381-.232 4.072-1.066 4.939-2.2a6.91 6.91 0 0 0 4.923 2.2L35.707-.1c-2.829-.271-4.315-1.387-4.536-2.359zm-59.878 13.68h-2V21.58h2v-4.635h1.912V15.3h-1.912zm-3.4 4.525a3.671 3.671 0 0 0-3.884-3.613 3.665 3.665 0 0 0-3.9 3.613 3.678 3.678 0 0 0 3.9 3.613 3.685 3.685 0 0 0 3.882-3.611zm-5.829 0a1.815 1.815 0 0 1 1.945-1.878 1.814 1.814 0 0 1 1.939 1.878 1.821 1.821 0 0 1-1.939 1.873 1.823 1.823 0 0 1-1.947-1.871zm.006 4.74v4.707h9.735v-1.605h-7.746v-3.1zm19.448-3.965h2.326v5.094h1.989V11.232h-1.989v3.68H-14.5zm-3.293.387a5.406 5.406 0 0 0 3.276 2.834l.983-1.58a4.382 4.382 0 0 1-3.271-4.149v-.227h2.834v-1.6h-7.713v1.6h2.851V14a4.589 4.589 0 0 1-3.42 4.414l1.022 1.613a5.608 5.608 0 0 0 3.431-3.121zm.16 3.8h-1.989v4.486h9.773v-1.606h-7.785zm21.279-1.154V11.21H1.657v2.613h-2.668v1.63h2.668v4.1zm-7.575-3.26a5.222 5.222 0 0 0 3.16 2.785l1.062-1.558a4.342 4.342 0 0 1-3.26-4.37v-1.193h-2.011v1.287a4.751 4.751 0 0 1-3.5 4.68l1.061 1.591a5.649 5.649 0 0 0 3.489-3.221zm2.713 3.624c-3.028 0-4.889 1.022-4.884 2.768s1.856 2.757 4.884 2.751 4.9-.994 4.9-2.751-1.861-2.767-4.899-2.767zm0 3.967c-1.884.006-2.906-.409-2.9-1.2-.006-.812 1.017-1.221 2.9-1.221s2.917.409 2.923 1.221c-.007.792-1.033 1.207-2.922 1.201zM10.79 11.635v4.481h9.724v-4.481zm1.956 2.939v-1.4h5.773v1.4zm9.414 2.293H9.188v1.564h5.459v.912h-3.962v1.5h7.923v.735H10.7v3.762h10.245v-1.5h-8.293v-.856h7.923v-3.641h-3.929v-.912h5.514zm10.763-5.657v7.3H34.9v-7.3zm-5.337 4.541a5.322 5.322 0 0 0 3.436 2.624l.945-1.536c-2.182-.569-3.254-1.956-3.392-3.376h2.845v-1.59H23.6v1.591h2.923a4.291 4.291 0 0 1-3.44 3.636l.906 1.569a5.466 5.466 0 0 0 3.597-2.918zm-.227 7.127h7.564v-3.8h-9.542v1.508h7.552v.862h-7.519v3.889h9.9v-1.53h-7.95z" transform="translate(46.232 16.79)"/>
            </g>
        </g>
    </g>
    <g id="fc_box_small-14" data-name="fc_box_small" transform="translate(942 1486)">
        <g transform="translate(-942 -1486)" style="filter:url(#box-16)">
            <g id="box-32" data-name="box" class="cls-4">
                <path class="cls-10" d="M0 0h348v130H0z" transform="translate(942 1486)"/>
                <path class="cls-11" d="M1 1h346v128H1z" transform="translate(942 1486)"/>
            </g>
        </g>
        <path id="패스_11215" data-name="패스 11215" class="cls-3" d="M127.512 20.8h2.355V3.012h-2.355zm-5.953-11.683v2h2.341v8.854h2.334V3.309H123.9v5.808zm-1.43-2.286h2.693v-2h-8.011v2h2.914v.946c0 3.025-.974 6.215-3.591 7.831l1.506 1.837a8.275 8.275 0 0 0 3.315-4.841 7.518 7.518 0 0 0 3.232 4.434l1.457-1.83c-2.6-1.485-3.522-4.468-3.515-7.431zm13.308 6.7a8.782 8.782 0 0 0 6.471-4.275c1.146 2.106 3.453 3.626 6.568 4.171l.988-1.968c-3.812-.559-6.029-2.721-6.243-5.069h5.414V4.373h-13.48V6.39h5.407c-.214 2.355-2.417 4.579-6.1 5.173zm7.728-.787h-2.5v3.964H131.8v2.023h16.257v-2.024h-6.892zM156 14.442a1.63 1.63 0 1 0 0-3.26 1.63 1.63 0 1 0 0 3.26zm16.084-6.913a8.813 8.813 0 0 0 6.547 3.812l.974-2.01c-4.068-.5-6.209-2.825-6.209-4.924v-.863h-2.617v.863c-.007 2.1-2.141 4.42-6.181 4.924l.981 2.01a8.777 8.777 0 0 0 6.505-3.812zm-8.115 5.159v2.03h6.823V20.8h2.465v-6.082h6.927v-2.03zm29.669-9.675v9.565h2.5V3.012zm-7.244.746c-2.776-.007-4.869 1.727-4.862 4.22-.007 2.431 2.086 4.164 4.862 4.164s4.855-1.733 4.855-4.164c0-2.494-2.086-4.228-4.855-4.221zm0 2.079a2.145 2.145 0 1 1 0 4.261c-1.423-.007-2.438-.794-2.424-2.12a2.148 2.148 0 0 1 2.424-2.142zm-2.141 7.521V20.6h11.885v-7.242h-2.486v1.651H186.7v-1.651zm2.452 3.584h6.948v1.644H186.7z" transform="translate(18 53)"/>
    </g>
    <path id="사각형_884" data-name="사각형 884" class="cls-9" transform="translate(224 1320)" d="M0 0h270v1H0z"/>
    <path id="세로-11" data-name="세로" class="cls-9" transform="translate(224 1320)" d="M0 0h1v856H0z"/>
    <path id="패스_11235" data-name="패스 11235" class="cls-9" d="M-101.4 0v-1.249h-5.4v-.088l2.586-2.674c2.011-2.066 2.6-3.05 2.608-4.309a3.275 3.275 0 0 0-3.525-3.149 3.332 3.332 0 0 0-3.58 3.348h1.337a2.028 2.028 0 0 1 2.2-2.122 2.03 2.03 0 0 1 2.254 1.923c-.011 1.039-.652 1.8-1.989 3.227l-3.856 4.066.014 1.027zm5.746.155c2.508 0 3.956-2.11 3.956-5.812 0-3.669-1.47-5.812-3.956-5.812s-3.956 2.144-3.956 5.812c-.003 3.701 1.444 5.812 3.953 5.812zm0-1.249c-1.635 0-2.586-1.635-2.586-4.564s.961-4.586 2.586-4.586 2.586 1.657 2.586 4.586-.954 4.564-2.589 4.564zm8.409-10.221-2.818 1.878v1.414l2.751-1.823h.066V0h1.414v-11.315zm8.217 11.47c2.354 0 4.011-1.315 4.022-3.16a2.885 2.885 0 0 0-2.309-2.873v-.055a2.542 2.542 0 0 0 1.867-2.53c-.011-1.735-1.525-3.006-3.58-3.006-2.077 0-3.591 1.271-3.591 3.006a2.507 2.507 0 0 0 1.867 2.53v.055a2.844 2.844 0 0 0-2.3 2.873c-.009 1.845 1.638 3.16 4.024 3.16zm0-6.6a1.989 1.989 0 0 1-2.221-1.923c0-1.127.873-1.89 2.221-1.89a1.962 1.962 0 0 1 2.21 1.89 1.991 1.991 0 0 1-2.21 1.926zm0 5.359c-1.635 0-2.641-.807-2.619-2-.022-1.249 1.094-2.166 2.619-2.166a2.35 2.35 0 0 1 2.619 2.166c0 1.196-1.005 2.003-2.619 2.003zM-72.5.088a1.009 1.009 0 0 0 1.008-1.005A1.009 1.009 0 0 0-72.5-1.923a1 1 0 0 0-1 1.006 1 1 0 0 0 1 1.005zm6.4.066c2.508 0 3.956-2.11 3.956-5.812 0-3.669-1.47-5.812-3.956-5.812s-3.956 2.144-3.956 5.812C-70.055-1.956-68.608.155-66.1.155zm0-1.249c-1.635 0-2.586-1.635-2.586-4.564s.961-4.586 2.586-4.586 2.586 1.657 2.586 4.586-.95 4.565-2.586 4.565zm9.514 1.25a3.711 3.711 0 0 0 3.9-3.768A3.652 3.652 0 0 0-56.431-7.4a3.453 3.453 0 0 0-2.055.652h-.122l.42-3.315h4.961v-1.249h-6.133l-.8 6.188h1.36a2.2 2.2 0 0 1 2.11-1.017 2.527 2.527 0 0 1 2.63 2.564 2.442 2.442 0 0 1-2.53 2.5A2.163 2.163 0 0 1-58.9-2.84h-1.37c.093 1.74 1.64 2.995 3.684 2.995zm6.409-.066a1.009 1.009 0 0 0 1.006-1.006 1.009 1.009 0 0 0-1.006-1.006 1 1 0 0 0-1.005 1.006A1 1 0 0 0-50.177.088zm6.586.066c2.254 0 3.945-1.37 3.934-3.227a2.6 2.6 0 0 0-2.354-2.718v-.088a2.518 2.518 0 0 0 1.923-2.552 3.148 3.148 0 0 0-3.459-3.039c-2.011 0-3.68 1.2-3.746 2.994h1.359a2.136 2.136 0 0 1 2.365-1.768 1.889 1.889 0 0 1 2.122 1.878c0 1.171-.961 1.945-2.343 1.945h-.917v1.238h.917c1.768 0 2.751.873 2.751 2.1 0 1.182-1.083 1.989-2.575 1.989-1.348 0-2.42-.674-2.5-1.746h-1.425c.08 1.789 1.694 2.994 3.948 2.994zm8.541-11.47-2.818 1.878v1.414l2.751-1.823h.066V0h1.414v-11.315zm18.166-1.3V1.293h1.227v-13.912zm-6.155 1.072c-2.077.011-3.547 1.89-3.547 4.84s1.47 4.84 3.547 4.84c2.055 0 3.547-1.878 3.547-4.84s-1.491-4.833-3.547-4.844zm0 1.094c1.392.011 2.354 1.492 2.354 3.746s-.961 3.746-2.354 3.746-2.361-1.485-2.361-3.75.969-3.735 2.361-3.746zm16.7-.575V-12.7h-1.219v1.669h-5.05v1.017h11.26v-1.017zm-.611 6.438C-4.122-4.6-2.42-5.425-2.42-6.9c0-1.492-1.7-2.32-4.53-2.32s-4.541.829-4.53 2.32c-.012 1.475 1.69 2.3 4.53 2.314zm0-3.691c2.055 0 3.26.508 3.271 1.381-.011.862-1.215 1.37-3.271 1.359-2.066.011-3.271-.5-3.26-1.359-.011-.872 1.193-1.38 3.26-1.38zm-6.32 4.652v1.017h5.713v3.9h1.215v-3.9h5.79v-1.016z" transform="translate(1290 2419.696)"/>
    <path id="세로-12" data-name="세로" class="cls-9" transform="translate(1116 1154)" d="M0 0h1v334H0z"/>
    <path id="다각형_14" data-name="다각형 14" class="cls-9" d="M7.5 0 15 11H0z" transform="rotate(180 338 168.5)"/>
    <path id="다각형_50" data-name="다각형 50" class="cls-9" d="M7.5 0 15 11H0z" transform="rotate(180 338 284)"/>
    <path id="다각형_51" data-name="다각형 51" class="cls-9" d="M7.5 0 15 11H0z" transform="rotate(180 338 399.5)"/>
    <path id="다각형_65" data-name="다각형 65" class="cls-9" d="M7.5 0 15 11H0z" transform="rotate(180 560 399.5)"/>
    <path id="다각형_52" data-name="다각형 52" class="cls-9" d="M7.5 0 15 11H0z" transform="rotate(180 338 515)"/>
    <path id="다각형_53" data-name="다각형 53" class="cls-9" d="M7.5 0 15 11H0z" transform="rotate(180 338 630.5)"/>
    <path id="다각형_54" data-name="다각형 54" class="cls-9" d="M7.5 0 15 11H0z" transform="rotate(180 338 746)"/>
    <path id="다각형_62" data-name="다각형 62" class="cls-9" d="M7.5 0 15 11H0z" transform="rotate(180 562 746)"/>
    <path id="다각형_55" data-name="다각형 55" class="cls-9" d="M7.5 0 15 11H0z" transform="rotate(180 338 861.5)"/>
    <path id="다각형_56" data-name="다각형 56" class="cls-9" d="M7.5 0 15 11H0z" transform="rotate(180 338 976.5)"/>
    <path id="다각형_57" data-name="다각형 57" class="cls-9" d="M7.5 0 15 11H0z" transform="rotate(180 338 1091.5)"/>
    <path id="다각형_59" data-name="다각형 59" class="cls-9" d="M7.5 0 15 11H0z" transform="rotate(90 -643 1591)"/>
    <path id="다각형_60" data-name="다각형 60" class="cls-9" d="M7.5 0 15 11H0z" transform="rotate(90 -528 1476)"/>
    <path id="다각형_61" data-name="다각형 61" class="cls-9" d="M7.5 0 15 11H0z" transform="rotate(90 -297.5 1245.5)"/>
    <path id="다각형_63" data-name="다각형 63" class="cls-9" d="M7.5 0 15 11H0z" transform="rotate(90 -66.5 1014.5)"/>
    <path id="다각형_64" data-name="다각형 64" class="cls-9" d="M7.5 0 15 11H0z" transform="rotate(90 49 899)"/>
    <path id="다각형_58" data-name="다각형 58" class="cls-9" d="M7.5 0 15 11H0z" transform="rotate(180 116 1091.5)"/>
</svg>
