<svg id="flow_chart_2_7_2" xmlns="http://www.w3.org/2000/svg" width="1336" height="791" viewBox="0 0 1336 791">
    <defs>
        <filter id="area" x="105" y="94" width="1126" height="148" filterUnits="userSpaceOnUse">
            <feOffset dy="3"/>
            <feGaussianBlur stdDeviation="3" result="blur"/>
            <feFlood flood-color="#111" flood-opacity=".102"/>
            <feComposite operator="in" in2="blur"/>
            <feComposite in="SourceGraphic"/>
        </filter>
        <filter id="box" x="105" y="555" width="556" height="148" filterUnits="userSpaceOnUse">
            <feOffset dy="3"/>
            <feGaussianBlur stdDeviation="3" result="blur-2"/>
            <feFlood flood-color="#111" flood-opacity=".102"/>
            <feComposite operator="in" in2="blur-2"/>
            <feComposite in="SourceGraphic"/>
        </filter>
        <filter id="box-2" x="675" y="325" width="556" height="148" filterUnits="userSpaceOnUse">
            <feOffset dy="3"/>
            <feGaussianBlur stdDeviation="3" result="blur-3"/>
            <feFlood flood-color="#111" flood-opacity=".102"/>
            <feComposite operator="in" in2="blur-3"/>
            <feComposite in="SourceGraphic"/>
        </filter>
        <filter id="box-3" x="675" y="555" width="556" height="148" filterUnits="userSpaceOnUse">
            <feOffset dy="3"/>
            <feGaussianBlur stdDeviation="3" result="blur-4"/>
            <feFlood flood-color="#111" flood-opacity=".102"/>
            <feComposite operator="in" in2="blur-4"/>
            <feComposite in="SourceGraphic"/>
        </filter>
        <style>
            .cls-1{fill:#f8f8f8}.cls-2,.cls-4{fill:#fff}.cls-2{stroke:#999;stroke-width:2px}.cls-3{fill:red;opacity:0}.cls-4,.cls-5{stroke:#326f5e;stroke-width:1.5px}.cls-11,.cls-5{fill:none}.cls-6{fill:#326f5e}.cls-7{fill:#333}.cls-9{fill:#999}.cls-10{stroke:none}
        </style>
    </defs>
    <path id="bg" class="cls-1" d="M0 0h1336v791H0z"/>
    <g id="fc_start_end_link" transform="translate(114 100)">
        <g transform="translate(-114 -100)" style="filter:url(#area)">
            <g id="area-2" data-name="area" class="cls-2" transform="translate(114 100)">
                <rect class="cls-10" width="1108" height="130" rx="65"/>
                <rect class="cls-11" x="1" y="1" width="1106" height="128" rx="64"/>
            </g>
        </g>
        <g id="fc_textlink" transform="translate(671 79)">
            <g id="stack" transform="translate(-2524.094 20210)">
                <g id="ico_fc_pop_up" transform="translate(2421.503 -20209)">
                    <g id="그룹_1025" data-name="그룹 1025" transform="translate(-1101.074 -1125)">
                        <g id="그룹_1026" data-name="그룹 1026" transform="translate(1108.074 1129)">
                            <path id="사각형_878" data-name="사각형 878" class="cls-4" d="M0 0h9v9H0z"/>
                        </g>
                        <path id="패스_6896" data-name="패스 6896" class="cls-5" d="M1104.574 1132.941v9h9" transform="translate(.5 -.941)"/>
                    </g>
                </g>
                <path id="패스_11304" data-name="패스 11304" class="cls-6" d="M-11.981-7.669h-3.89v1.227h3.89v7.8h1.481v-14.032h-1.481zM-20-10.144h4.917v-1.226H-21.5v9.287h1.1a31.721 31.721 0 0 0 6.365-.464l-.165-1.215a30.034 30.034 0 0 1-5.8.442zM2.66-4.508h4.188v-7.21H5.373V-9.3H-1.5v-2.414h-1.486v7.21h4.177v2.873h-5.636v1.222H8.367v-1.226H2.66zm2.713-3.6v2.4H-1.5v-2.4zm14.16 9.436h1.492v-14h-1.492zM10.2-11.166v1.182h5.149c-.293 3.265-2.1 5.79-5.829 7.558l.785 1.2c4.807-2.293 6.547-5.845 6.558-9.939zM-22.7 2h45.4v1h-45.4z" transform="translate(2394.798 -20194)"/>
            </g>
        </g>
        <path id="패스_11303" data-name="패스 11303" class="cls-7" d="M372.873 25.163h2.975V3.815h-2.975zM366.442 6.2V3.923h-2.992V6.2h-5.005v2.347H371.4V6.2zm-.017 11.064c2.329-.431 3.854-1.89 3.854-3.862 0-2.4-2.2-4.019-5.37-4.019-3.141 0-5.312 1.624-5.3 4.019-.008 1.989 1.508 3.448 3.845 3.87v1.808c-1.939.041-3.8.05-5.428.058l.389 2.436a81.273 81.273 0 0 0 13.492-.845l-.2-2.221c-1.7.232-3.5.373-5.279.464zm-3.977-3.864c-.008-1.11 1.011-1.74 2.461-1.74 1.5 0 2.511.63 2.511 1.74s-1.011 1.724-2.511 1.724c-1.45.003-2.47-.602-2.461-1.724zm27.224 4.856h4.077v1.707h3V3.848h-3v12.373h-4.077zm-4.135-6.1c3.108 0 5.32-1.475 5.329-3.762-.008-2.271-2.221-3.837-5.329-3.829-3.166-.008-5.362 1.558-5.362 3.829-.001 2.291 2.195 3.766 5.361 3.766zm0-5.4c1.442 0 2.478.58 2.486 1.641-.008 1.036-1.044 1.6-2.486 1.6-1.517 0-2.536-.564-2.528-1.6-.009-1.06 1.01-1.64 2.527-1.64zm-1.227 12.7h3V15.4a60.782 60.782 0 0 0 5.155-.6l-.174-2.146a122.9 122.9 0 0 1-13.7.655l.356 2.362c1.624 0 3.448-.017 5.362-.091v2.843h-2.992v6.367h15.9v-2.412h-12.908zm31.948-7.409V3.815h-2.992v21.348h2.992V14.572h3.149v-2.528zm-8.975-6.58h-2.993v3.188c-.008 3.961-1.715 8.039-5.32 9.7l1.831 2.428a10.307 10.307 0 0 0 5-6.215 9.73 9.73 0 0 0 4.715 5.8l1.807-2.378c-3.423-1.657-5.055-5.511-5.039-9.331zm33.953 6.6h-2V4.188h-2.8v19.931h2.8v-9.63h2v10.674h2.876V3.815h-2.876zm-11.66-5.884h-3V19.95h1.45a41.762 41.762 0 0 0 7.5-.63l-.3-2.577a34.653 34.653 0 0 1-5.652.6zm31.077-1.533V7.1h-8.967V4.652h-2.95v9.414h14.909V4.652zm-8.967 7.028V9.45h8.967v2.23zm-5.238 4.45v2.345h8.213v6.688h2.959v-6.686h8.337V16.13zm35.942-5.412a10.869 10.869 0 0 0 7.939 5.354l1.276-2.494c-4.89-.746-7.633-3.961-7.624-7.011V5.05h-3.191v1.516c-.017 3.017-2.735 6.265-7.575 7.011l1.276 2.494a10.846 10.846 0 0 0 7.898-5.353zm1.5 4.674h-2.967v4.823h-8.163v2.4h19.508v-2.4h-8.378zm19.293-1.343c4.583.008 7.782-1.815 7.782-4.691 0-2.942-3.2-4.823-7.782-4.823s-7.749 1.881-7.74 4.823c-.009 2.879 3.165 4.702 7.739 4.694zm0-7.127c2.884.008 4.691.862 4.691 2.436 0 1.5-1.807 2.329-4.691 2.337-2.859-.008-4.674-.837-4.657-2.337-.018-1.571 1.797-2.425 4.656-2.433zm-9.7 8.776v2.4h4.467v7.061h3.066V18.1h4.384v7.061h3.033V18.1h4.566v-2.4zm37.6-3.729V3.815h-2.992v21.348h2.992v-10.7h3.149V11.97zm-8.95-3.646h4.293V5.878h-11.815v2.445h4.517v1.31c-.017 3.53-1.807 7.5-5.362 9.157l1.74 2.362a10.573 10.573 0 0 0 5.171-6.373 10.018 10.018 0 0 0 5.014 5.826l1.666-2.345a9.492 9.492 0 0 1-5.221-8.627zm27.622 8.735h3.017v-2.41h-12.53v-2.37h12.033V5.207h-15.05v2.4h12.091V9.9H537.26v7.16h2.751v3.273h-5v2.445h19.508v-2.447h-4.765zm-2.942 0v3.273h-3.9v-3.271zm22.419-11.89V3.649h-2.983v1.517h-4.624v2.005h12.2V5.166zm9.116-1.351h-2.992v12.563h2.992v-5.022h2.735V8.862h-2.735zm-3.986 9.7c-1.641.215-3.39.356-5.13.439V13.1c2.287-.282 3.7-1.251 3.7-2.768-.008-1.724-2.055-2.743-5.221-2.743-3.182 0-5.238 1.019-5.229 2.743-.008 1.533 1.434 2.5 3.762 2.776v.945c-1.856.041-3.63.041-5.188.041l.307 2.055a81.893 81.893 0 0 0 13.21-.787zm-9.017-3.174c-.008-.6.854-.887 2.37-.887 1.5 0 2.354.282 2.362.887-.008.646-.862.978-2.362.978-1.515-.004-2.378-.336-2.37-.982zm13 11.586v-4.778H563.9v1.981h11.461v.978h-11.433v4.906h15.133v-2H566.92v-1.091zM597.019 11.4c1.591-.688 2.494-1.757 2.5-3.149-.008-2.569-3.033-4.11-7.757-4.119-4.74.008-7.773 1.55-7.765 4.119-.008 1.367.878 2.436 2.428 3.124v2.569h-4.376v2.387h19.459v-2.389h-4.492zm-5.254-4.964c2.983 0 4.674.622 4.674 1.815s-1.691 1.773-4.674 1.773c-3.008 0-4.674-.588-4.657-1.773-.017-1.196 1.649-1.817 4.657-1.817zm-2.312 5.71a18.3 18.3 0 0 0 2.312.133 17.858 17.858 0 0 0 2.279-.133v1.8h-4.591zm2.287 5.3c-4.666-.008-7.467 1.367-7.467 3.837 0 2.5 2.8 3.862 7.467 3.854 4.616.008 7.417-1.351 7.434-3.854-.017-2.476-2.818-3.852-7.434-3.844zm0 5.461c-2.95.008-4.434-.547-4.417-1.624-.017-1.069 1.467-1.566 4.417-1.583 2.9.017 4.425.514 4.434 1.583-.008 1.071-1.533 1.626-4.434 1.617zm26.1-14.693h-4.674a5.008 5.008 0 0 0-4.483-2.884c-3.24 0-5.552 2.95-5.544 7.591-.008 4.691 2.3 7.624 5.544 7.624a5.1 5.1 0 0 0 4.7-3.323h4.459v8h2.958V3.815h-2.959zm-9.157 9.622c-1.591 0-2.685-1.724-2.677-4.914-.008-3.157 1.086-4.89 2.677-4.89 1.608 0 2.677 1.732 2.685 4.89-.012 3.178-1.081 4.907-2.688 4.907zm5.378-3.008a12.644 12.644 0 0 0 .141-1.906 12.443 12.443 0 0 0-.207-2.3h3.845v4.2zm23.674-10.176V7.1h-8.967V4.652h-2.95v9.414h14.909V4.652zm-8.967 7.028V9.45h8.967v2.23zm-5.238 4.45v2.345h8.213v6.688h2.957v-6.688h8.337V16.13zm43.135-4.185v-8.13h-2.992v21.348h2.992V14.381h3.149v-2.436zM660.094 8.2H662V5.787h-11.9V8.2h1.881v9.6c-.854.008-1.666.008-2.42.008l.323 2.436a77.345 77.345 0 0 0 12.912-.87l-.149-2.146c-.829.108-1.682.191-2.552.257zm-2.876 0v9.472c-.787.033-1.566.066-2.337.083V8.2zm30.3.646V3.815h-3V16.3h3v-5.018h2.867V8.845zm-5.1 1.343c-.017-3.017-2.519-5.2-5.826-5.2-3.331-.008-5.859 2.18-5.843 5.2-.017 3.066 2.511 5.229 5.843 5.229 3.3-.001 5.808-2.164 5.82-5.23zm-8.743 0a2.923 2.923 0 1 1 2.917 2.685 2.628 2.628 0 0 1-2.923-2.686zm10.848 9.423v5.568h3V17.2h-14.368v2.412z" transform="translate(30 36)"/>
    </g>
    <g id="fc_box_medium_no_btn" transform="translate(114 561)">
        <g transform="translate(-114 -561)" style="filter:url(#box)">
            <g id="box-4" data-name="box" style="fill:#eee;stroke:#999;stroke-width:2px">
                <path class="cls-10" d="M0 0h538v130H0z" transform="translate(114 561)"/>
                <path class="cls-11" d="M1 1h536v128H1z" transform="translate(114 561)"/>
            </g>
        </g>
        <path id="패스_11313" data-name="패스 11313" class="cls-7" d="M179.866 6.028h-6.041V23h5.983c5.171 0 8.3-3.2 8.3-8.5-.008-5.29-3.129-8.472-8.242-8.472zm-2.519 13.948V9.052h2.329c3.207 0 4.906 1.666 4.906 5.445 0 3.8-1.7 5.478-4.923 5.478zm18.945 3.273c3.845 0 6.24-2.644 6.24-6.564 0-3.945-2.4-6.58-6.24-6.58s-6.257 2.635-6.257 6.58c0 3.915 2.403 6.564 6.256 6.564zm.017-2.693c-1.815 0-2.743-1.657-2.743-3.9s.928-3.9 2.743-3.9c1.773 0 2.7 1.674 2.7 3.9s-.928 3.899-2.701 3.899zm18.936-6.5c-.182-2.428-2.171-3.953-5.4-3.953-3.273 0-5.37 1.525-5.362 3.97-.008 1.881 1.235 3.133 3.671 3.613l2.1.414c1.193.249 1.724.655 1.732 1.318-.008.82-.845 1.318-2.1 1.318-1.285 0-2.088-.514-2.262-1.508h-3.481c.282 2.486 2.3 4.019 5.743 4.019 3.381 0 5.627-1.674 5.635-4.177-.008-1.84-1.2-2.942-3.663-3.448l-2.3-.464c-1.193-.257-1.641-.7-1.633-1.285-.008-.762.845-1.293 1.972-1.293A1.887 1.887 0 0 1 212 14.058zm12.936 0c-.182-2.428-2.171-3.953-5.4-3.953-3.273 0-5.37 1.525-5.362 3.97-.008 1.881 1.235 3.133 3.671 3.613l2.1.414c1.193.249 1.724.655 1.732 1.318-.008.82-.845 1.318-2.1 1.318-1.285 0-2.088-.514-2.262-1.508h-3.481c.282 2.486 2.3 4.019 5.743 4.019 3.381 0 5.627-1.674 5.635-4.177-.008-1.84-1.2-2.942-3.663-3.448l-2.3-.464c-1.193-.257-1.641-.7-1.633-1.285-.008-.762.845-1.293 1.972-1.293a1.887 1.887 0 0 1 2.088 1.475zm4.152-5.456a1.833 1.833 0 0 0 1.89-1.765 1.894 1.894 0 0 0-3.779 0 1.833 1.833 0 0 0 1.889 1.765zm1.732 14.4V10.271h-3.472V23zm14.312-6.439c0-4.343-2.635-6.456-5.975-6.456-3.729 0-6.157 2.66-6.157 6.588 0 4.036 2.4 6.555 6.3 6.555 3.141 0 5.246-1.525 5.743-3.87h-3.3a2.468 2.468 0 0 1-2.387 1.268 2.813 2.813 0 0 1-2.925-3.116h8.7zm-8.7-1.2a2.753 2.753 0 0 1 2.793-2.66 2.558 2.558 0 0 1 2.635 2.66zM254.029 23v-7.235a2.592 2.592 0 0 1 2.718-2.66 6.212 6.212 0 0 1 1.483.191V10.2a6.64 6.64 0 0 0-1.11-.108 3.1 3.1 0 0 0-3.066 2.4h-.133v-2.221h-3.365V23zm27.638-14V3.815h-3v12.878h3v-5.2h2.867V9zm-10.533 2.751a8.105 8.105 0 0 0 4.923 4.185l1.517-2.3c-3.448-1.119-4.956-3.671-4.964-6.174h4.26V5.075h-11.637v2.386h4.359A6.963 6.963 0 0 1 264.421 14L266 16.3a8.354 8.354 0 0 0 5.134-4.546zm7.533 8.238v5.171h3V17.6h-14.362v2.387zm24.8-3.663V3.815h-2.983v3.92h-4v2.445h4v6.149zm-11.362-4.89a7.834 7.834 0 0 0 4.74 4.177l1.591-2.337a6.513 6.513 0 0 1-4.889-6.555V4.934h-3.017v1.931a7.126 7.126 0 0 1-5.246 7.019l1.591 2.387a8.473 8.473 0 0 0 5.234-4.832zm4.069 5.436c-4.541 0-7.334 1.533-7.326 4.152-.008 2.635 2.785 4.135 7.326 4.127 4.558.008 7.343-1.492 7.351-4.127-.004-2.615-2.789-4.148-7.347-4.148zm0 5.95c-2.826.008-4.359-.613-4.351-1.8-.008-1.218 1.525-1.831 4.351-1.831s4.376.613 4.384 1.831c-.004 1.191-1.546 1.812-4.38 1.804z" transform="translate(30 51)"/>
    </g>
    <g id="fc_box_medium_link" transform="translate(684 331)">
        <g transform="translate(-684 -331)" style="filter:url(#box-2)">
            <g id="box-5" data-name="box" class="cls-2">
                <path class="cls-10" d="M0 0h538v130H0z" transform="translate(684 331)"/>
                <path class="cls-11" d="M1 1h536v128H1z" transform="translate(684 331)"/>
            </g>
        </g>
        <g id="fc_textlink-2" data-name="fc_textlink" transform="translate(386 79)">
            <g id="stack-2" data-name="stack" transform="translate(-2524.094 20210)">
                <g id="ico_fc_pop_up-2" data-name="ico_fc_pop_up" transform="translate(2421.503 -20209)">
                    <g id="그룹_1025-2" data-name="그룹 1025" transform="translate(-1101.074 -1125)">
                        <g id="그룹_1026-2" data-name="그룹 1026" transform="translate(1108.074 1129)">
                            <path id="사각형_878-2" data-name="사각형 878" class="cls-4" d="M0 0h9v9H0z"/>
                        </g>
                        <path id="패스_6896-2" data-name="패스 6896" class="cls-5" d="M1104.574 1132.941v9h9" transform="translate(.5 -.941)"/>
                    </g>
                </g>
                <path id="패스_11309" data-name="패스 11309" class="cls-6" d="M-11.981-7.669h-3.89v1.227h3.89v7.8h1.481v-14.032h-1.481zM-20-10.144h4.917v-1.226H-21.5v9.287h1.1a31.721 31.721 0 0 0 6.365-.464l-.165-1.215a30.034 30.034 0 0 1-5.8.442zM2.66-4.508h4.188v-7.21H5.373V-9.3H-1.5v-2.414h-1.486v7.21h4.177v2.873h-5.636v1.222H8.367v-1.226H2.66zm2.713-3.6v2.4H-1.5v-2.4zm14.16 9.436h1.492v-14h-1.492zM10.2-11.166v1.182h5.149c-.293 3.265-2.1 5.79-5.829 7.558l.785 1.2c4.807-2.293 6.547-5.845 6.558-9.939zM-22.7 2h45.4v1h-45.4z" transform="translate(2394.798 -20194)"/>
            </g>
        </g>
        <path id="패스_11308" data-name="패스 11308" class="cls-7" d="M53.721 23v-2.917h-7.9v-4.119H53.1v-2.909h-7.277v-4.11h7.865V6.028H42.3V23zm13.21-6.249a3.491 3.491 0 0 1-6.978 0V6.028h-3.522V17.05c0 3.713 2.785 6.191 7.011 6.191 4.2 0 7.019-2.478 7.019-6.191V6.028h-3.53zm18.746-11.08V3.649H82.7v2.022h-4.59v2.354h11.851V5.671zm7.384 2.71H90.2v2.4h2.859v1.807h-2.907v2.4h2.909v1.55h2.983V3.815h-2.983zm-3.845 4.135c-.017-2.3-2.13-3.878-5.055-3.878-2.95 0-5.014 1.583-5 3.878-.017 2.312 2.047 3.87 5 3.87 2.925.001 5.039-1.557 5.054-3.869zm-7.268 0c-.008-1.061.862-1.649 2.213-1.649 1.334 0 2.271.588 2.279 1.649-.008 1.077-.945 1.707-2.279 1.707-1.352.001-2.222-.629-2.213-1.706zm2.7 6.389v-1.574h-2.991v7.591h14.387v-7.591h-2.967v1.575zm0 3.7v-1.478h8.428v1.483zm29.113-18.8v21.4h2.975V3.815zm-8.047 1.434c-3.356 0-5.925 2.18-5.917 5.238-.008 3.066 2.561 5.238 5.917 5.238 3.4 0 5.909-2.171 5.925-5.238-.015-3.049-2.526-5.228-5.924-5.228zm0 2.586c1.715 0 3 .986 3.008 2.652-.008 1.691-1.3 2.652-3.008 2.652a2.667 2.667 0 1 1 0-5.3zm-6.463 13.02a72.213 72.213 0 0 0 13.525-.961l-.224-2.155a103.74 103.74 0 0 1-13.641.688zm35.925 4.318H138V3.815h-2.826zm-6.845-13.243v2.436h2.511v9.812h2.8v-20h-2.8v7.752zm-2.1-2.088h3.356v-2.4H126.2V4.561h-2.793v2.875h-3.437v2.4h3.439v.489c-.017 3.3-1.16 6.771-4.243 8.561l1.715 2.246a9.248 9.248 0 0 0 3.953-5.3 8.272 8.272 0 0 0 3.945 4.79l1.641-2.188c-3.033-1.633-4.2-4.865-4.193-8.1zm24.97-.124V6.8h11.818V4.4h-14.8v7.682h14.909V9.707zm-5.337 6.307h19.492v-2.438h-19.497zm9.688 1.285c-4.657 0-7.467 1.409-7.467 3.912 0 2.528 2.809 3.953 7.467 3.945 4.633.008 7.417-1.417 7.434-3.945-.022-2.505-2.806-3.912-7.439-3.912zm0 5.586c-2.95-.008-4.434-.539-4.417-1.674-.017-1.077 1.467-1.633 4.417-1.641 2.9.008 4.425.564 4.434 1.641-.014 1.133-1.538 1.664-4.439 1.672zm31.541 2.329h2.975v-21.4h-2.975zm-6.555-9.82a5.175 5.175 0 0 0 4.434-5.072c-.017-3.058-2.528-5.221-5.925-5.229-3.356.008-5.925 2.171-5.917 5.229a5.173 5.173 0 0 0 4.425 5.072v3c-1.923.058-3.738.066-5.312.066l.34 2.412a73.519 73.519 0 0 0 13.525-.945l-.224-2.155c-1.724.24-3.539.4-5.345.5zm-4.442-5.072a2.65 2.65 0 0 1 2.95-2.66c1.707 0 3 .961 3.008 2.66a2.71 2.71 0 0 1-3.008 2.669 2.674 2.674 0 0 1-2.955-2.672zm30.986-5.669V7.1h-8.972V4.652h-2.95v9.414h14.909V4.652zm-8.972 7.026V9.45h8.967v2.23zm-5.238 4.45v2.345h8.213v6.688h2.959v-6.688h8.337V16.13zm35.942-5.412a10.869 10.869 0 0 0 7.939 5.354l1.276-2.494c-4.889-.746-7.633-3.961-7.624-7.011V5.05h-3.191v1.516c-.017 3.017-2.735 6.265-7.575 7.011l1.276 2.494a10.846 10.846 0 0 0 7.9-5.353zm1.5 4.674h-2.967v4.823h-8.163v2.4h19.508v-2.4h-8.378zm19.293-1.343c4.583.008 7.782-1.815 7.782-4.691 0-2.942-3.2-4.823-7.782-4.823s-7.749 1.881-7.74 4.823c-.008 2.877 3.166 4.7 7.741 4.692zm0-7.127c2.884.008 4.691.862 4.691 2.436 0 1.5-1.807 2.329-4.691 2.337-2.859-.008-4.674-.837-4.657-2.337-.016-1.573 1.799-2.427 4.658-2.435zm-9.7 8.776v2.4h4.467v7.061h3.066V18.1h4.376v7.061h3.033V18.1h4.566v-2.4zm37.6-3.729V3.815h-2.992v21.348h2.992v-10.7h3.149V11.97zm-8.95-3.646h4.293V5.878h-11.814v2.445h4.517v1.31c-.017 3.53-1.807 7.5-5.362 9.157l1.74 2.362a10.573 10.573 0 0 0 5.171-6.373 10.017 10.017 0 0 0 5.014 5.826l1.666-2.345a9.492 9.492 0 0 1-5.221-8.627zm27.621 8.735h3.022v-2.412h-12.53v-2.37h12.03V5.207h-15.05v2.4h12.091V9.9h-12.056v7.16h2.751v3.273h-5v2.445h19.508v-2.447h-4.765zm-2.942 0v3.273h-3.9v-3.273zm22.421-11.892V3.649h-2.983v1.517h-4.624v2.005h12.2V5.166zm9.116-1.351h-2.992v12.563h2.992v-5.022h2.735V8.862h-2.735zm-3.986 9.7a63.113 63.113 0 0 1-5.13.439V13.1c2.287-.282 3.7-1.251 3.7-2.768-.008-1.724-2.055-2.743-5.221-2.743-3.182 0-5.238 1.019-5.229 2.743-.008 1.533 1.434 2.5 3.762 2.776v.945c-1.856.041-3.63.041-5.188.041l.307 2.055A81.893 81.893 0 0 0 321 15.367zm-9.017-3.174c-.008-.6.854-.887 2.37-.887 1.5 0 2.354.282 2.362.887-.008.646-.862.978-2.362.978-1.516-.004-2.378-.336-2.369-.982zm13 11.586v-4.778h-14.441v1.981h11.461v.978h-11.436v4.906h15.133v-2h-12.142v-1.091zM343.445 11.4c1.591-.688 2.494-1.757 2.5-3.149-.008-2.569-3.033-4.11-7.757-4.119-4.74.008-7.773 1.55-7.765 4.119-.008 1.367.878 2.436 2.428 3.124v2.569h-4.376v2.387h19.459v-2.389h-4.492zm-5.254-4.964c2.983 0 4.674.622 4.674 1.815s-1.691 1.773-4.674 1.773c-3.008 0-4.674-.588-4.657-1.773-.017-1.196 1.648-1.817 4.657-1.817zm-2.312 5.71a18.3 18.3 0 0 0 2.312.133 17.858 17.858 0 0 0 2.279-.133v1.8h-4.591zm2.287 5.3c-4.666-.008-7.467 1.367-7.467 3.837 0 2.5 2.8 3.862 7.467 3.854 4.616.008 7.417-1.351 7.434-3.854-.017-2.476-2.818-3.852-7.434-3.844zm0 5.461c-2.95.008-4.434-.547-4.417-1.624-.017-1.069 1.467-1.566 4.417-1.583 2.9.017 4.425.514 4.434 1.583-.009 1.071-1.534 1.626-4.434 1.617zm26.1-14.693h-4.674a5.008 5.008 0 0 0-4.492-2.891c-3.24 0-5.552 2.95-5.544 7.591-.008 4.691 2.3 7.624 5.544 7.624a5.1 5.1 0 0 0 4.7-3.323h4.459v8h2.959v-21.4h-2.959zm-9.166 9.615c-1.591 0-2.685-1.724-2.677-4.914-.008-3.157 1.086-4.89 2.677-4.89 1.608 0 2.677 1.732 2.685 4.89-.003 3.185-1.072 4.914-2.685 4.914zm5.378-3.008a12.64 12.64 0 0 0 .141-1.906 12.441 12.441 0 0 0-.207-2.3h3.845v4.2zM384.16 4.652V7.1h-8.967V4.652h-2.95v9.414h14.909V4.652zm-8.967 7.028V9.45h8.967v2.23zm-5.238 4.45v2.345h8.213v6.688h2.959v-6.688h8.337V16.13zm43.135-4.185v-8.13h-2.99v21.348h2.992V14.381h3.149v-2.436zM406.519 8.2h1.906V5.787h-11.9V8.2h1.881v9.6c-.854.008-1.666.008-2.42.008l.323 2.436a77.346 77.346 0 0 0 12.912-.87l-.149-2.146c-.829.108-1.682.191-2.552.257zm-2.876 0v9.472c-.787.033-1.566.066-2.337.083V8.2zm30.3.646V3.815h-3V16.3h3v-5.018h2.867V8.845zm-5.1 1.343c-.017-3.017-2.519-5.2-5.826-5.2-3.331-.008-5.859 2.18-5.843 5.2-.017 3.066 2.511 5.229 5.843 5.229 3.301-.001 5.803-2.164 5.82-5.23zm-8.743 0a2.923 2.923 0 1 1 2.917 2.685 2.628 2.628 0 0 1-2.923-2.686zm10.848 9.423v5.568h3V17.2H419.58v2.412z" transform="translate(30 36)"/>
    </g>
    <g id="fc_box_medium_link-2" data-name="fc_box_medium_link" transform="translate(684 561)">
        <g transform="translate(-684 -561)" style="filter:url(#box-3)">
            <g id="box-6" data-name="box" class="cls-2">
                <path class="cls-10" d="M0 0h538v130H0z" transform="translate(684 561)"/>
                <path class="cls-11" d="M1 1h536v128H1z" transform="translate(684 561)"/>
            </g>
        </g>
        <g id="fc_textlink-3" data-name="fc_textlink" transform="translate(386 79)">
            <g id="stack-3" data-name="stack" transform="translate(-2524.094 20210)">
                <g id="ico_fc_pop_up-3" data-name="ico_fc_pop_up" transform="translate(2421.503 -20209)">
                    <g id="그룹_1025-3" data-name="그룹 1025" transform="translate(-1101.074 -1125)">
                        <g id="그룹_1026-3" data-name="그룹 1026" transform="translate(1108.074 1129)">
                            <path id="사각형_878-3" data-name="사각형 878" class="cls-4" d="M0 0h9v9H0z"/>
                        </g>
                        <path id="패스_6896-3" data-name="패스 6896" class="cls-5" d="M1104.574 1132.941v9h9" transform="translate(.5 -.941)"/>
                    </g>
                </g>
                <path id="패스_11312" data-name="패스 11312" class="cls-6" d="M-11.981-7.669h-3.89v1.227h3.89v7.8h1.481v-14.032h-1.481zM-20-10.144h4.917v-1.226H-21.5v9.287h1.1a31.721 31.721 0 0 0 6.365-.464l-.165-1.215a30.034 30.034 0 0 1-5.8.442zM2.66-4.508h4.188v-7.21H5.373V-9.3H-1.5v-2.414h-1.486v7.21h4.177v2.873h-5.636v1.222H8.367v-1.226H2.66zm2.713-3.6v2.4H-1.5v-2.4zm14.16 9.436h1.492v-14h-1.492zM10.2-11.166v1.182h5.149c-.293 3.265-2.1 5.79-5.829 7.558l.785 1.2c4.807-2.293 6.547-5.845 6.558-9.939zM-22.7 2h45.4v1h-45.4z" transform="translate(2394.798 -20194)"/>
            </g>
        </g>
        <path id="패스_11311" data-name="패스 11311" class="cls-7" d="M51.148 4.652V7.1h-8.967V4.652h-2.95v9.414h14.908V4.652zm-8.967 7.028V9.45h8.967v2.23zm-5.238 4.45v2.345h8.213v6.688h2.959v-6.688h8.337V16.13zm22.682-3.365c4-.406 6.663-1.948 7.79-4.028 1.144 2.088 3.837 3.613 7.84 4.028l1.094-2.345c-4.1-.39-6.315-1.89-6.779-3.448h5.851V4.594H59.485v2.378h5.8c-.472 1.541-2.669 3.058-6.713 3.448zm9.275-1.342h-2.968v2.793H57.72v2.4h19.458v-2.4H68.9zm2.917 9.091v4.649h2.992v-7.028H59.874v2.378zM86.294 6.086V3.815h-2.983v2.271h-4.848v2.353h12.663V6.086zm9.1-2.238h-3v15.928h3V12.84h2.867v-2.453h-2.867zM84.8 17.4c3.083.008 5.246-1.616 5.246-4.069 0-2.478-2.163-4.135-5.246-4.135-3.116 0-5.3 1.657-5.3 4.135 0 2.451 2.186 4.075 5.3 4.069zm-2.387-4.069c0-1.193.953-1.848 2.387-1.856 1.425.008 2.4.663 2.412 1.856-.008 1.169-.986 1.8-2.412 1.8s-2.384-.631-2.384-1.802zm-.862 5.213v6.246h14.6v-2.412H84.537v-3.837zm38.03 6.671h3.025v-21.4h-3.025zm-6.519-19.751h-3.033v3.191c-.017 4.144-1.823 8.229-5.552 9.8l1.807 2.486a10.247 10.247 0 0 0 5.3-6.389 9.946 9.946 0 0 0 5.1 5.867l1.765-2.4c-3.63-1.525-5.4-5.453-5.387-9.373zm20.262.224V3.649h-2.959v2.039h-4.815v2.378h12.572V5.688zm7.177 4.4h-2.76v2.436h2.76v4.2h2.983V3.815H140.5zm-3.53 2.519c0-2.246-2.122-3.837-5.113-3.837s-5.138 1.591-5.138 3.837c0 2.312 2.146 3.845 5.138 3.854 2.991-.008 5.113-1.541 5.113-3.853zm-7.376 0c-.017-1.019.87-1.591 2.262-1.583 1.351-.008 2.246.564 2.246 1.583 0 1.069-.9 1.641-2.246 1.641-1.392.001-2.278-.571-2.257-1.64zm13.889 12.315v-7.3h-14.336v7.3zm-2.925-4.948v2.552h-8.42v-2.551zm22.525-8.006V3.815h-2.992v21.348h2.992v-10.7h3.149V11.97zm-8.95-3.646h4.293V5.878h-11.818v2.445h4.517v1.31c-.017 3.53-1.807 7.5-5.362 9.157l1.74 2.362a10.573 10.573 0 0 0 5.171-6.373 10.017 10.017 0 0 0 5.014 5.826l1.666-2.345a9.492 9.492 0 0 1-5.221-8.627zm27.622 8.735h3.017v-2.411h-12.53v-2.37h12.033V5.207h-15.05v2.4h12.091V9.9h-12.059v7.16h2.751v3.273h-5v2.445h19.508v-2.447h-4.765zm-2.942 0v3.273h-3.9v-3.272zm24.572 8.1h2.859V3.815h-2.859zm-6.149-13.45c-.323-3.97-2.088-6.365-4.657-6.365-2.809 0-4.641 2.942-4.633 7.707-.008 4.807 1.823 7.765 4.633 7.757 2.635.008 4.425-2.528 4.682-6.713h1.715v10.084h2.823V4.146h-2.826v7.566zm-4.657 6.232c-1.193.008-1.9-1.6-1.881-4.889-.017-3.257.688-4.89 1.881-4.881 1.235-.008 1.964 1.624 1.964 4.881-.001 3.295-.73 4.903-1.965 4.895zm37.077-5.884H227.6V4.188h-2.743v19.931h2.743v-9.663h2.055v10.707h2.826V3.815h-2.826zM217.648 8.7h4.964V6.3h-7.964v14.03h1.492a38.764 38.764 0 0 0 7.682-.588L223.6 17.3a35.124 35.124 0 0 1-5.95.522zm32.76 3.812h-1.732V4.238h-2.8v20.005h2.8V14.9h1.732v10.263h2.843V3.815h-2.843zM238.49 4.42v2.66h-3.729v2.379h10.326V7.08h-3.655V4.42zm1.483 6a4.7 4.7 0 0 0-4.7 5.047c-.008 2.992 1.981 5.1 4.7 5.1s4.674-2.1 4.682-5.1c-.007-2.95-1.955-5.047-4.681-5.047zm0 7.608c-1.235.008-2.08-.928-2.072-2.561-.008-1.6.837-2.569 2.072-2.569 1.2 0 2.047.97 2.055 2.569-.007 1.633-.853 2.569-2.054 2.561zm29.834-1.417h3.671c-.05 2.138-1.5 3.5-3.9 3.5-2.71 0-4.442-2.022-4.442-5.61 0-3.564 1.782-5.577 4.4-5.577a3.488 3.488 0 0 1 3.6 2.577h3.588c-.472-3.348-3.423-5.7-7.251-5.7-4.475 0-7.914 3.232-7.914 8.735 0 5.37 3.224 8.7 7.989 8.7 4.276 0 7.334-2.71 7.334-7.169v-2.125h-7.077zM290.294 23v-2.917h-7.3V6.028h-3.522V23zm2.271-16.972V23h3.522v-5.528h3.05c3.9 0 6.149-2.337 6.149-5.71 0-3.356-2.213-5.735-6.075-5.735zm3.522 8.6V8.92h2.47c2.1 0 3.108 1.135 3.108 2.843s-1.011 2.867-3.1 2.867zm31.069 10.533h3.025V3.815h-3.025zm-13.682-19.1v2.345h7.268c-.481 4.74-2.909 8.1-8.412 10.715l1.558 2.378c7.624-3.6 9.9-8.975 9.9-15.439zm36.713-2.246h-3.058v15.978h3.058v-6.97h2.594v-2.494h-2.594zm-5.7 9.149a35.458 35.458 0 0 0 .489-6.257V5.373h-10.991v2.436h8.055a28.489 28.489 0 0 1-.5 4.881zm1.492.878c-2.006.29-4.185.456-6.315.547V10.3h-2.975v4.185c-1.417.025-2.76.033-3.953.033l.257 2.378a76.836 76.836 0 0 0 13.135-.9zm-10.11 4.525v6.423h14.992v-2.412h-11.995v-4.011zm38.262 6.845h3.025V3.815h-3.025zm-6.525-19.748h-3.033v3.191c-.017 4.144-1.823 8.229-5.552 9.8l1.807 2.486a10.247 10.247 0 0 0 5.3-6.389 9.946 9.946 0 0 0 5.1 5.867l1.765-2.4c-3.63-1.525-5.4-5.453-5.387-9.373zm20.262.224V3.649h-2.958v2.039h-4.81v2.378h12.572V5.688zm7.177 4.4h-2.76v2.436h2.76v4.2h2.983V3.815h-2.983zm-3.53 2.519c0-2.246-2.122-3.837-5.113-3.837s-5.138 1.591-5.138 3.837c0 2.312 2.146 3.845 5.138 3.854 2.992-.008 5.113-1.541 5.113-3.853zm-7.376 0c-.017-1.019.87-1.591 2.262-1.583 1.351-.008 2.246.564 2.246 1.583 0 1.069-.9 1.641-2.246 1.641-1.391.001-2.278-.571-2.262-1.64zm13.889 12.315v-7.3h-14.336v7.3zm-2.928-4.947v2.552h-8.42v-2.552zm20.644-16.16v21.4h2.975v-21.4zM407.7 5.249c-3.356 0-5.925 2.18-5.917 5.238-.008 3.066 2.561 5.238 5.917 5.238 3.4 0 5.909-2.171 5.925-5.238-.016-3.059-2.525-5.238-5.925-5.238zm0 2.586c1.715 0 3 .986 3.008 2.652-.008 1.691-1.3 2.652-3.008 2.652a2.667 2.667 0 1 1 0-5.3zm-6.464 13.011a72.212 72.212 0 0 0 13.525-.961l-.224-2.155a103.74 103.74 0 0 1-13.641.688zm35.264 4.367h2.975V3.815H436.5zm-6.331-9.033h4.392v-2.313h-8.47v-1.856h7.981v-6.34h-10.99v2.354h8.03V9.84h-8.022v6.34h4.094v2.743c-1.939.041-3.82.041-5.536.025l.34 2.445a79.716 79.716 0 0 0 13.525-.746l-.224-2.171a89.526 89.526 0 0 1-5.122.356z" transform="translate(30 36)"/>
    </g>
    <path id="세로" class="cls-9" transform="translate(668 230)" d="M0 0h1v50H0z"/>
    <path id="세로-2" data-name="세로" class="cls-9" transform="translate(668 231)" d="M0 0h1v50H0z"/>
    <path id="사각형_1195" data-name="사각형 1195" class="cls-9" transform="translate(383 281)" d="M0 0h571v1H0z"/>
    <path id="세로-3" data-name="세로" class="cls-9" transform="translate(953 282)" d="M0 0h1v49H0z"/>
    <path id="세로-4" data-name="세로" class="cls-9" transform="translate(953 461)" d="M0 0h1v100H0z"/>
    <path id="세로-5" data-name="세로" class="cls-9" d="M0 0h1v278H0z" transform="translate(383 282)"/>
    <path id="사각형_1196" data-name="사각형 1196" class="cls-9" transform="translate(384 397)" d="M0 0h300v1H0z"/>
    <g id="fc_yes" transform="translate(885.066 499.21)">
        <path id="사각형_515" data-name="사각형 515" class="cls-1" d="M0 0h137.541v22.243H0z"/>
        <path id="패스_11310" data-name="패스 11310" class="cls-7" d="M-47.387-7.354v-5.436h-1.994V1.442h1.994v-7.133h2.1v-1.663zm-5.967-2.431h2.862v-1.63h-7.878v1.63h3.011v.873a6.755 6.755 0 0 1-3.575 6.1l1.16 1.575a7.049 7.049 0 0 0 3.448-4.249A6.678 6.678 0 0 0-50.983-1.6l1.11-1.564a6.328 6.328 0 0 1-3.481-5.751zm18.414 5.823h2.011v-1.607h-8.354v-1.58h8.022v-4.713h-10.032v1.6h8.061v1.525h-8.039v4.773h1.834v2.182h-3.331v1.63h13.006v-1.63h-3.177zm-1.961 0v2.182h-2.6v-2.181zm17.182-3.376v-5.452h-1.994v14.2h1.994v-7.1h2.011v-1.647zm-10.569-3.994V-9.7h4.74c-.376 3.171-2.182 5.436-5.541 7.127l1.122 1.525a10.645 10.645 0 0 0 6.453-10.282zm26.331-.9v1.632h-5.977v-1.635H-11.9v6.276h9.939v-6.276zm-5.977 4.685v-1.486h5.978v1.486zm-3.491 2.967v1.564h5.475v4.458h1.972v-4.459H-.42V-4.58zM1.7-6.823c2.669-.271 4.442-1.3 5.193-2.685.759 1.392 2.555 2.408 5.223 2.685l.729-1.564c-2.735-.26-4.21-1.26-4.519-2.3h3.9v-1.586H1.6v1.586h3.87c-.315 1.03-1.779 2.041-4.476 2.3zm6.182-.9H5.9v1.862H.425v1.6H13.4v-1.6H7.878zm1.941 6.066v3.1h1.994v-4.686H1.862v1.586zm9.652-9.619v-1.514h-1.989v1.514h-3.232v1.569H22.7v-1.569zm6.066-1.492h-2v10.619h2v-4.624h1.912v-1.636h-1.912zm-7.06 9.033c2.055.006 3.5-1.077 3.5-2.713 0-1.652-1.442-2.757-3.5-2.757-2.077 0-3.536 1.1-3.53 2.757-.006 1.636 1.449 2.719 3.53 2.713zM16.89-6.448c0-.8.635-1.232 1.591-1.238s1.6.442 1.608 1.238c-.006.779-.657 1.2-1.608 1.2s-1.591-.421-1.591-1.2zm-.575 3.475v4.166h9.735V-.414H18.3v-2.558zm25.464-5.944v1.348h-3.193v1.6h3.193v1.4h1.989v-8.2h-1.989v2.276h-2.641a9.364 9.364 0 0 0 .094-1.326h-6.563v1.6h4.4c-.287 1.95-1.89 3.519-5.16 4.376l.779 1.569c3.127-.851 5.149-2.4 6.033-4.646zM39.028-4.4c-2.917.006-4.867 1.11-4.862 2.878s1.945 2.9 4.862 2.9c2.884 0 4.834-1.122 4.845-2.9-.011-1.771-1.961-2.878-4.845-2.878zm0 4.2c-1.8 0-2.873-.448-2.867-1.32s1.066-1.331 2.867-1.326c1.768-.006 2.84.448 2.845 1.326S40.8-.2 39.028-.2zm13.038-5.712c3.055 0 5.188-1.232 5.188-3.171 0-1.972-2.133-3.227-5.188-3.227s-5.166 1.254-5.16 3.227c-.006 1.939 2.111 3.171 5.16 3.171zm0-4.807c1.923.006 3.127.591 3.127 1.635 0 1.022-1.2 1.6-3.127 1.6-1.906 0-3.116-.575-3.1-1.6-.016-1.043 1.194-1.629 3.1-1.634zM45.6-4.834V-3.2h5.475v4.653h1.975V-3.2h5.558v-1.63z" transform="translate(68.934 16.79)"/>
    </g>
    <g id="fc_yes-2" data-name="fc_yes" transform="translate(443.375 270.1)">
        <path id="사각형_515-2" data-name="사각형 515" class="cls-1" d="M0 0h165.066v22.376H0z"/>
        <path id="패스_11306" data-name="패스 11306" class="cls-7" d="M-62.552 1.475h2.017V-12.79h-2.017zM-66.9-11.691h-2.022v2.127c-.011 2.762-1.215 5.486-3.7 6.536l1.2 1.657a6.832 6.832 0 0 0 3.536-4.26 6.631 6.631 0 0 0 3.4 3.912l1.177-1.6c-2.42-1.017-3.6-3.635-3.591-6.249zm13.508.149V-12.9h-1.972v1.359h-3.21v1.586h8.381v-1.586zm4.785 2.934h-1.84v1.624h1.84v2.8h1.989v-8.606h-1.989zm-2.354 1.68c0-1.5-1.414-2.558-3.409-2.558s-3.43 1.061-3.43 2.558c0 1.541 1.431 2.564 3.425 2.569s3.414-1.028 3.414-2.569zm-4.917 0c-.011-.68.58-1.061 1.508-1.055.9-.006 1.5.376 1.5 1.055 0 .713-.6 1.094-1.5 1.094-.93 0-1.52-.381-1.508-1.094zm9.26 8.21v-4.868h-9.558v4.868zm-1.95-3.3v1.7h-5.613v-1.7zm9.017-9.409v-1.442h-1.989v1.442h-3.232v1.558h8.442v-1.558zm6.066-1.365h-2v9.039h2v-3.74h1.912v-1.651h-1.912zm-3.565 5.963c0-1.519-1.436-2.552-3.5-2.558-2.1.006-3.536 1.039-3.53 2.558s1.436 2.547 3.53 2.547c2.064 0 3.5-1.018 3.5-2.547zm-5.088 0c0-.713.635-1.1 1.591-1.1s1.6.392 1.608 1.1-.657 1.072-1.608 1.066-1.591-.364-1.591-1.066zm4 3.21c-2.983 0-4.823.939-4.812 2.536-.011 1.569 1.829 2.525 4.812 2.519 2.934.006 4.8-.95 4.807-2.519-.006-1.597-1.869-2.536-4.807-2.536zm0 3.569c-1.856 0-2.845-.365-2.84-1.033-.006-.7.983-1.022 2.84-1.022 1.823 0 2.8.32 2.8 1.022.001.669-.977 1.033-2.8 1.033zm14.668-7.16h3.862v-5.011h-9.724v5.011h3.862v1.354h-5.464v1.6h12.972v-1.6h-5.508zm1.9-3.459v1.9h-5.812v-1.9zm.033 9.028v3.083h1.994V-3.2H-29.5v1.564zM-7.215-12.79V1.475H-5.2V-12.79zm-5.707 1.006c-2.177 0-3.768 1.967-3.762 5.061-.007 3.123 1.584 5.082 3.761 5.082 2.149 0 3.74-1.956 3.746-5.083-.005-3.094-1.596-5.061-3.746-5.061zm0 1.8c1.083 0 1.818 1.155 1.818 3.26 0 2.127-.735 3.276-1.818 3.276-1.1 0-1.845-1.149-1.834-3.276-.012-2.105.728-3.259 1.833-3.259zm19.8 4.017c3.055.006 5.188-1.21 5.188-3.127 0-1.961-2.133-3.215-5.188-3.215s-5.166 1.254-5.16 3.215c-.011 1.917 2.105 3.133 5.155 3.127zm0-4.751C8.8-10.713 10-10.144 10-9.094c0 1-1.2 1.552-3.127 1.558-1.906-.006-3.116-.558-3.1-1.558-.016-1.05 1.194-1.619 3.1-1.624zM.409-4.867v1.6h2.978v4.709h2.044v-4.707h2.917v4.707h2.022v-4.707h3.044v-1.6zm21.3-6.1v-1.652h-1.974v1.652h-4.917v1.591h11.823v-1.591zm2.354 7.044a2.332 2.332 0 0 0 1.508-2.127c0-1.724-1.867-2.74-4.856-2.74s-4.867 1.017-4.856 2.74a2.322 2.322 0 0 0 1.511 2.127v2.343h-3.11V.011h13.005V-1.58h-3.2zm-3.345-3.342c1.807 0 2.8.409 2.807 1.21s-1 1.2-2.807 1.2c-1.84 0-2.812-.4-2.807-1.2s.967-1.21 2.807-1.21zM19.37-3.392a11.439 11.439 0 0 0 1.348.077A10.946 10.946 0 0 0 22.1-3.4v1.82h-2.73zm13.939-7.884v-1.514H31.32v1.514h-3.232v1.569h8.442v-1.569zm6.066-1.492h-2v10.619h2v-4.624h1.912v-1.636h-1.911zm-7.06 9.033c2.055.006 3.5-1.077 3.5-2.713 0-1.652-1.442-2.757-3.5-2.757-2.077 0-3.536 1.1-3.53 2.757-.006 1.636 1.453 2.719 3.53 2.713zm-1.591-2.713c0-.8.635-1.232 1.591-1.238s1.6.442 1.608 1.238c-.006.779-.657 1.2-1.608 1.2s-1.591-.421-1.591-1.2zm-.575 3.475v4.166h9.735V-.414h-7.746v-2.558zm25.464-5.944v1.348H52.42v1.6h3.193v1.4H57.6v-8.2h-1.987v2.276h-2.641a9.364 9.364 0 0 0 .094-1.326H46.5v1.6h4.4c-.287 1.95-1.89 3.519-5.16 4.376l.779 1.569c3.127-.851 5.149-2.4 6.033-4.646zM52.862-4.4c-2.917 0-4.868 1.107-4.862 2.875s1.945 2.9 4.862 2.9c2.884 0 4.834-1.122 4.845-2.9C57.7-3.293 55.746-4.4 52.862-4.4zm0 4.2c-1.8 0-2.873-.448-2.867-1.32s1.066-1.331 2.867-1.326c1.768-.006 2.84.448 2.845 1.326S54.63-.2 52.862-.2zM65.9-5.912c3.055 0 5.188-1.232 5.188-3.171 0-1.972-2.133-3.227-5.188-3.227s-5.166 1.254-5.16 3.227c-.005 1.939 2.111 3.171 5.16 3.171zm0-4.807c1.923.006 3.127.591 3.127 1.635 0 1.022-1.2 1.6-3.127 1.6-1.906 0-3.116-.575-3.1-1.6-.015-1.043 1.194-1.629 3.1-1.634zm-6.464 5.885V-3.2h5.475v4.653h1.972V-3.2h5.558v-1.63z" transform="translate(82.624 16.901)"/>
    </g>
    <g id="fc_yes-3" data-name="fc_yes" transform="translate(745.066 270.21)">
        <path id="사각형_515-3" data-name="사각형 515" class="cls-1" d="M0 0h137.541v22.243H0z"/>
        <path id="패스_11305" data-name="패스 11305" class="cls-7" d="M-47.387-7.354v-5.436h-1.994V1.442h1.994v-7.133h2.1v-1.663zm-5.967-2.431h2.862v-1.63h-7.878v1.63h3.011v.873a6.755 6.755 0 0 1-3.575 6.1l1.16 1.575a7.049 7.049 0 0 0 3.448-4.249A6.678 6.678 0 0 0-50.983-1.6l1.11-1.564a6.328 6.328 0 0 1-3.481-5.751zm18.414 5.823h2.011v-1.607h-8.354v-1.58h8.022v-4.713h-10.032v1.6h8.061v1.525h-8.039v4.773h1.834v2.182h-3.331v1.63h13.006v-1.63h-3.177zm-1.961 0v2.182h-2.6v-2.181zm17.182-3.376v-5.452h-1.994v14.2h1.994v-7.1h2.011v-1.647zm-10.569-3.994V-9.7h4.74c-.376 3.171-2.182 5.436-5.541 7.127l1.122 1.525a10.645 10.645 0 0 0 6.453-10.282zm26.331-.9v1.632h-5.977v-1.635H-11.9v6.276h9.939v-6.276zm-5.977 4.685v-1.486h5.978v1.486zm-3.491 2.967v1.564h5.475v4.458h1.972v-4.459H-.42V-4.58zM1.7-6.823c2.669-.271 4.442-1.3 5.193-2.685.759 1.392 2.555 2.408 5.223 2.685l.729-1.564c-2.735-.26-4.21-1.26-4.519-2.3h3.9v-1.586H1.6v1.586h3.87c-.315 1.03-1.779 2.041-4.476 2.3zm6.182-.9H5.9v1.862H.425v1.6H13.4v-1.6H7.878zm1.941 6.066v3.1h1.994v-4.686H1.862v1.586zm9.652-9.619v-1.514h-1.989v1.514h-3.232v1.569H22.7v-1.569zm6.066-1.492h-2v10.619h2v-4.624h1.912v-1.636h-1.912zm-7.06 9.033c2.055.006 3.5-1.077 3.5-2.713 0-1.652-1.442-2.757-3.5-2.757-2.077 0-3.536 1.1-3.53 2.757-.006 1.636 1.449 2.719 3.53 2.713zM16.89-6.448c0-.8.635-1.232 1.591-1.238s1.6.442 1.608 1.238c-.006.779-.657 1.2-1.608 1.2s-1.591-.421-1.591-1.2zm-.575 3.475v4.166h9.735V-.414H18.3v-2.558zm25.464-5.944v1.348h-3.193v1.6h3.193v1.4h1.989v-8.2h-1.989v2.276h-2.641a9.364 9.364 0 0 0 .094-1.326h-6.563v1.6h4.4c-.287 1.95-1.89 3.519-5.16 4.376l.779 1.569c3.127-.851 5.149-2.4 6.033-4.646zM39.028-4.4c-2.917.006-4.867 1.11-4.862 2.878s1.945 2.9 4.862 2.9c2.884 0 4.834-1.122 4.845-2.9-.011-1.771-1.961-2.878-4.845-2.878zm0 4.2c-1.8 0-2.873-.448-2.867-1.32s1.066-1.331 2.867-1.326c1.768-.006 2.84.448 2.845 1.326S40.8-.2 39.028-.2zm13.038-5.712c3.055 0 5.188-1.232 5.188-3.171 0-1.972-2.133-3.227-5.188-3.227s-5.166 1.254-5.16 3.227c-.006 1.939 2.111 3.171 5.16 3.171zm0-4.807c1.923.006 3.127.591 3.127 1.635 0 1.022-1.2 1.6-3.127 1.6-1.906 0-3.116-.575-3.1-1.6-.016-1.043 1.194-1.629 3.1-1.634zM45.6-4.834V-3.2h5.475v4.653h1.975V-3.2h5.558v-1.63z" transform="translate(68.934 16.79)"/>
    </g>
    <g id="fc_yes-4" data-name="fc_yes" transform="translate(443.375 386.1)">
        <path id="사각형_515-4" data-name="사각형 515" class="cls-1" d="M0 0h165.066v22.376H0z"/>
        <path id="패스_11307" data-name="패스 11307" class="cls-7" d="M-62.552 1.475h2.017V-12.79h-2.017zM-66.9-11.691h-2.022v2.127c-.011 2.762-1.215 5.486-3.7 6.536l1.2 1.657a6.832 6.832 0 0 0 3.536-4.26 6.631 6.631 0 0 0 3.4 3.912l1.177-1.6c-2.42-1.017-3.6-3.635-3.591-6.249zm13.508.149V-12.9h-1.972v1.359h-3.21v1.586h8.381v-1.586zm4.785 2.934h-1.84v1.624h1.84v2.8h1.989v-8.606h-1.989zm-2.354 1.68c0-1.5-1.414-2.558-3.409-2.558s-3.43 1.061-3.43 2.558c0 1.541 1.431 2.564 3.425 2.569s3.414-1.028 3.414-2.569zm-4.917 0c-.011-.68.58-1.061 1.508-1.055.9-.006 1.5.376 1.5 1.055 0 .713-.6 1.094-1.5 1.094-.93 0-1.52-.381-1.508-1.094zm9.26 8.21v-4.868h-9.558v4.868zm-1.95-3.3v1.7h-5.613v-1.7zm9.017-9.409v-1.442h-1.989v1.442h-3.232v1.558h8.442v-1.558zm6.066-1.365h-2v9.039h2v-3.74h1.912v-1.651h-1.912zm-3.565 5.963c0-1.519-1.436-2.552-3.5-2.558-2.1.006-3.536 1.039-3.53 2.558s1.436 2.547 3.53 2.547c2.064 0 3.5-1.018 3.5-2.547zm-5.088 0c0-.713.635-1.1 1.591-1.1s1.6.392 1.608 1.1-.657 1.072-1.608 1.066-1.591-.364-1.591-1.066zm4 3.21c-2.983 0-4.823.939-4.812 2.536-.011 1.569 1.829 2.525 4.812 2.519 2.934.006 4.8-.95 4.807-2.519-.006-1.597-1.869-2.536-4.807-2.536zm0 3.569c-1.856 0-2.845-.365-2.84-1.033-.006-.7.983-1.022 2.84-1.022 1.823 0 2.8.32 2.8 1.022.001.669-.977 1.033-2.8 1.033zm14.668-7.16h3.862v-5.011h-9.724v5.011h3.862v1.354h-5.464v1.6h12.972v-1.6h-5.508zm1.9-3.459v1.9h-5.812v-1.9zm.033 9.028v3.083h1.994V-3.2H-29.5v1.564zM-7.215-12.79V1.475H-5.2V-12.79zm-5.707 1.006c-2.177 0-3.768 1.967-3.762 5.061-.007 3.123 1.584 5.082 3.761 5.082 2.149 0 3.74-1.956 3.746-5.083-.005-3.094-1.596-5.061-3.746-5.061zm0 1.8c1.083 0 1.818 1.155 1.818 3.26 0 2.127-.735 3.276-1.818 3.276-1.1 0-1.845-1.149-1.834-3.276-.012-2.105.728-3.259 1.833-3.259zm19.8 4.017c3.055.006 5.188-1.21 5.188-3.127 0-1.961-2.133-3.215-5.188-3.215s-5.166 1.254-5.16 3.215c-.011 1.917 2.105 3.133 5.155 3.127zm0-4.751C8.8-10.713 10-10.144 10-9.094c0 1-1.2 1.552-3.127 1.558-1.906-.006-3.116-.558-3.1-1.558-.016-1.05 1.194-1.619 3.1-1.624zM.409-4.867v1.6h2.978v4.709h2.044v-4.707h2.917v4.707h2.022v-4.707h3.044v-1.6zm21.3-6.1v-1.652h-1.974v1.652h-4.917v1.591h11.823v-1.591zm2.354 7.044a2.332 2.332 0 0 0 1.508-2.127c0-1.724-1.867-2.74-4.856-2.74s-4.867 1.017-4.856 2.74a2.322 2.322 0 0 0 1.511 2.127v2.343h-3.11V.011h13.005V-1.58h-3.2zm-3.345-3.342c1.807 0 2.8.409 2.807 1.21s-1 1.2-2.807 1.2c-1.84 0-2.812-.4-2.807-1.2s.967-1.21 2.807-1.21zM19.37-3.392a11.439 11.439 0 0 0 1.348.077A10.946 10.946 0 0 0 22.1-3.4v1.82h-2.73zm13.939-7.884v-1.514H31.32v1.514h-3.232v1.569h8.442v-1.569zm6.066-1.492h-2v10.619h2v-4.624h1.912v-1.636h-1.911zm-7.06 9.033c2.055.006 3.5-1.077 3.5-2.713 0-1.652-1.442-2.757-3.5-2.757-2.077 0-3.536 1.1-3.53 2.757-.006 1.636 1.453 2.719 3.53 2.713zm-1.591-2.713c0-.8.635-1.232 1.591-1.238s1.6.442 1.608 1.238c-.006.779-.657 1.2-1.608 1.2s-1.591-.421-1.591-1.2zm-.575 3.475v4.166h9.735V-.414h-7.746v-2.558zm25.464-5.944v1.348H52.42v1.6h3.193v1.4H57.6v-8.2h-1.987v2.276h-2.641a9.364 9.364 0 0 0 .094-1.326H46.5v1.6h4.4c-.287 1.95-1.89 3.519-5.16 4.376l.779 1.569c3.127-.851 5.149-2.4 6.033-4.646zM52.862-4.4c-2.917 0-4.868 1.107-4.862 2.875s1.945 2.9 4.862 2.9c2.884 0 4.834-1.122 4.845-2.9C57.7-3.293 55.746-4.4 52.862-4.4zm0 4.2c-1.8 0-2.873-.448-2.867-1.32s1.066-1.331 2.867-1.326c1.768-.006 2.84.448 2.845 1.326S54.63-.2 52.862-.2zM65.9-5.912c3.055 0 5.188-1.232 5.188-3.171 0-1.972-2.133-3.227-5.188-3.227s-5.166 1.254-5.16 3.227c-.005 1.939 2.111 3.171 5.16 3.171zm0-4.807c1.923.006 3.127.591 3.127 1.635 0 1.022-1.2 1.6-3.127 1.6-1.906 0-3.116-.575-3.1-1.6-.015-1.043 1.194-1.629 3.1-1.634zm-6.464 5.885V-3.2h5.475v4.653h1.972V-3.2h5.558v-1.63z" transform="translate(82.624 16.901)"/>
    </g>
    <path id="다각형_179" data-name="다각형 179" class="cls-9" d="M7.5 0 15 11H0z" transform="rotate(180 480.5 168.5)"/>
    <path id="다각형_182" data-name="다각형 182" class="cls-9" d="M7.5 0 15 11H0z" transform="rotate(180 480.5 283.5)"/>
    <path id="다각형_183" data-name="다각형 183" class="cls-9" d="M7.5 0 15 11H0z" transform="rotate(180 195.5 283.5)"/>
</svg>
