<svg id="flow_chart_2_3" xmlns="http://www.w3.org/2000/svg" width="1336" height="2669" viewBox="0 0 1336 2669">
    <defs>
        <filter id="area" x="105" y="94" width="1126" height="148" filterUnits="userSpaceOnUse">
            <feOffset dy="3"/>
            <feGaussianBlur stdDeviation="3" result="blur"/>
            <feFlood flood-color="#111" flood-opacity=".102"/>
            <feComposite operator="in" in2="blur"/>
            <feComposite in="SourceGraphic"/>
        </filter>
        <filter id="box" x="105" y="274" width="1126" height="148" filterUnits="userSpaceOnUse">
            <feOffset dy="3"/>
            <feGaussianBlur stdDeviation="3" result="blur-2"/>
            <feFlood flood-color="#111" flood-opacity=".102"/>
            <feComposite operator="in" in2="blur-2"/>
            <feComposite in="SourceGraphic"/>
        </filter>
        <filter id="다각형_3" x="390" y="453" width="556" height="278" filterUnits="userSpaceOnUse">
            <feOffset dy="3"/>
            <feGaussianBlur stdDeviation="3" result="blur-3"/>
            <feFlood flood-color="#111" flood-opacity=".102"/>
            <feComposite operator="in" in2="blur-3"/>
            <feComposite in="SourceGraphic"/>
        </filter>
        <filter id="box-2" x="675" y="813" width="556" height="148" filterUnits="userSpaceOnUse">
            <feOffset dy="3"/>
            <feGaussianBlur stdDeviation="3" result="blur-4"/>
            <feFlood flood-color="#111" flood-opacity=".102"/>
            <feComposite operator="in" in2="blur-4"/>
            <feComposite in="SourceGraphic"/>
        </filter>
        <filter id="box-3" x="675" y="993" width="556" height="148" filterUnits="userSpaceOnUse">
            <feOffset dy="3"/>
            <feGaussianBlur stdDeviation="3" result="blur-5"/>
            <feFlood flood-color="#111" flood-opacity=".102"/>
            <feComposite operator="in" in2="blur-5"/>
            <feComposite in="SourceGraphic"/>
        </filter>
        <filter id="box-4" x="105" y="1353" width="1126" height="148" filterUnits="userSpaceOnUse">
            <feOffset dy="3"/>
            <feGaussianBlur stdDeviation="3" result="blur-6"/>
            <feFlood flood-color="#111" flood-opacity=".102"/>
            <feComposite operator="in" in2="blur-6"/>
            <feComposite in="SourceGraphic"/>
        </filter>
        <filter id="box-5" x="105" y="1533" width="1126" height="148" filterUnits="userSpaceOnUse">
            <feOffset dy="3"/>
            <feGaussianBlur stdDeviation="3" result="blur-7"/>
            <feFlood flood-color="#111" flood-opacity=".102"/>
            <feComposite operator="in" in2="blur-7"/>
            <feComposite in="SourceGraphic"/>
        </filter>
        <filter id="box-6" x="105" y="1713" width="1126" height="148" filterUnits="userSpaceOnUse">
            <feOffset dy="3"/>
            <feGaussianBlur stdDeviation="3" result="blur-8"/>
            <feFlood flood-color="#111" flood-opacity=".102"/>
            <feComposite operator="in" in2="blur-8"/>
            <feComposite in="SourceGraphic"/>
        </filter>
        <filter id="box-7" x="105" y="1893" width="1126" height="148" filterUnits="userSpaceOnUse">
            <feOffset dy="3"/>
            <feGaussianBlur stdDeviation="3" result="blur-9"/>
            <feFlood flood-color="#111" flood-opacity=".102"/>
            <feComposite operator="in" in2="blur-9"/>
            <feComposite in="SourceGraphic"/>
        </filter>
        <filter id="box-8" x="105" y="2073" width="1126" height="148" filterUnits="userSpaceOnUse">
            <feOffset dy="3"/>
            <feGaussianBlur stdDeviation="3" result="blur-10"/>
            <feFlood flood-color="#111" flood-opacity=".102"/>
            <feComposite operator="in" in2="blur-10"/>
            <feComposite in="SourceGraphic"/>
        </filter>
        <filter id="box-9" x="105" y="2253" width="1126" height="148" filterUnits="userSpaceOnUse">
            <feOffset dy="3"/>
            <feGaussianBlur stdDeviation="3" result="blur-11"/>
            <feFlood flood-color="#111" flood-opacity=".102"/>
            <feComposite operator="in" in2="blur-11"/>
            <feComposite in="SourceGraphic"/>
        </filter>
        <filter id="area-2" x="105" y="2433" width="1126" height="148" filterUnits="userSpaceOnUse">
            <feOffset dy="3"/>
            <feGaussianBlur stdDeviation="3" result="blur-12"/>
            <feFlood flood-color="#111" flood-opacity=".102"/>
            <feComposite operator="in" in2="blur-12"/>
            <feComposite in="SourceGraphic"/>
        </filter>
        <filter id="box-10" x="105" y="1173" width="1126" height="148" filterUnits="userSpaceOnUse">
            <feOffset dy="3"/>
            <feGaussianBlur stdDeviation="3" result="blur-13"/>
            <feFlood flood-color="#111" flood-opacity=".102"/>
            <feComposite operator="in" in2="blur-13"/>
            <feComposite in="SourceGraphic"/>
        </filter>
        <style>
            .cls-1{fill:#f8f8f8}.cls-2{fill:#fff;stroke:#999;stroke-width:2px}.cls-3{fill:#333}.cls-5{fill:red;opacity:0}.cls-12,.cls-6{fill:none}.cls-6{stroke:#326f5e;stroke-width:1.5px}.cls-7{fill:#326f5e}.cls-9{fill:#999}.cls-11{stroke:none}
        </style>
    </defs>
    <path id="bg" class="cls-1" d="M0 0h1336v2669H0z"/>
    <g id="fc_boxes" transform="translate(-293 -947)">
        <g id="fc_start_end" transform="translate(407 1047)">
            <g transform="translate(-114 -100)" style="filter:url(#area)">
                <g id="area-3" data-name="area" class="cls-2" transform="translate(114 100)">
                    <rect class="cls-11" width="1108" height="130" rx="65"/>
                    <rect class="cls-12" x="1" y="1" width="1106" height="128" rx="64"/>
                </g>
            </g>
            <path id="패스_11322" data-name="패스 11322" class="cls-3" d="M419.862 25.163h3.025V3.815h-3.025zM406.18 6.061v2.345h7.268c-.481 4.74-2.909 8.1-8.412 10.715l1.558 2.378c7.624-3.6 9.9-8.975 9.9-15.439zm21.489 7.459c3.978-.472 6.622-2.146 7.749-4.367 1.127 2.229 3.787 3.9 7.782 4.367l1.1-2.387c-4.21-.439-6.423-2.238-6.771-4.019h5.892V4.727h-15.935v2.386h5.851c-.356 1.773-2.536 3.58-6.746 4.019zm9.232-1.541h-2.967v2.967h-8.213v2.4h19.459v-2.4h-8.28zm-8.834 6.671v6.14h14.892v-2.412h-11.893v-3.729zm35.461-6.15V3.815h-3.017v21.348h3.017V14.978h2.785V12.5zm-9.05-6.3V3.939h-3.008V6.2h-4.84v2.347h12.655V6.2zm0 11.064c2.254-.431 3.754-1.89 3.771-3.862-.017-2.4-2.2-4.019-5.246-4.019-3.108 0-5.262 1.624-5.254 4.019-.008 1.964 1.459 3.414 3.721 3.854V19.1c-1.889.041-3.7.041-5.254.041l.4 2.436a72.853 72.853 0 0 0 13.036-.87l-.2-2.171c-1.591.224-3.282.356-4.972.448zm-3.887-3.864c-.008-1.11.953-1.74 2.412-1.74 1.417 0 2.37.63 2.37 1.74s-.953 1.724-2.37 1.724c-1.459.003-2.42-.602-2.412-1.724zm24.456-7.666V3.715h-2.983v2.023h-4.848v2.345h12.663V5.738zm9.1 3.63V3.815h-3v13.392h3V11.8h2.867V9.367zm-5.345 3.34c0-2.345-2.155-3.928-5.246-3.936-3.1.008-5.3 1.591-5.3 3.936-.008 2.345 2.2 3.928 5.3 3.928s5.244-1.58 5.244-3.925zm-7.633 0c0-1.094.953-1.682 2.387-1.691 1.425.008 2.4.6 2.412 1.691-.008 1.086-.986 1.649-2.412 1.649s-2.387-.56-2.387-1.646zm9.978 7.782v4.674h3V18.1h-14.362v2.387zm9.232-16.036v6.721h14.586V4.453zm2.934 4.409v-2.1h8.66v2.1zm14.121 3.441h-19.459v2.345h8.188v1.367h-5.942v2.254H502.1v1.1h-11.862v5.644h15.372v-2.25h-12.439v-1.285h11.884v-5.461h-5.892v-1.368h8.271zm16.144-8.486v10.957h2.967V3.815zm-8.006 6.812a7.984 7.984 0 0 0 5.155 3.936l1.417-2.3c-3.273-.854-4.881-2.934-5.088-5.064h4.268V4.809H509.6V7.2h4.384c-.215 2.287-1.848 4.525-5.163 5.453L510.177 15a8.2 8.2 0 0 0 5.395-4.373zm-.34 10.691h11.345v-5.693h-14.312v2.262h11.329v1.294h-11.279v5.834h14.843v-2.3h-11.926zm31-9.249h6.041V9.724h-11.922V7.1h11.818V4.768h-14.8v7.3h5.931v1.823h-8.287v2.37h19.492v-2.37h-8.271zm-1.532 5.255c-4.657 0-7.467 1.409-7.467 3.945 0 2.494 2.809 3.912 7.467 3.92 4.633-.008 7.417-1.425 7.434-3.92-.015-2.536-2.8-3.945-7.434-3.945zm0 5.577c-2.95.008-4.434-.522-4.417-1.633-.017-1.1 1.467-1.666 4.417-1.666 2.9 0 4.425.564 4.434 1.666-.007 1.111-1.534 1.642-4.434 1.633zm25.916-19.085v10.956h2.967V3.815zm-8.006 6.812a7.984 7.984 0 0 0 5.155 3.936l1.417-2.3c-3.273-.854-4.881-2.934-5.088-5.064h4.268v-2.39h-11.727V7.2h4.384c-.215 2.287-1.848 4.525-5.163 5.453L557.215 15a8.2 8.2 0 0 0 5.395-4.373zm-.34 10.691h11.345v-5.694H559.3v2.262h11.329v1.294h-11.275v5.834H574.2v-2.3h-11.929zm32.221-4.989V3.815h-2.983v3.92h-4v2.445h4v6.149zm-11.362-4.89a7.834 7.834 0 0 0 4.74 4.177l1.591-2.337a6.513 6.513 0 0 1-4.89-6.555v-1.79h-3.017v1.931a7.126 7.126 0 0 1-5.246 7.019l1.591 2.387a8.473 8.473 0 0 0 5.232-4.832zm4.069 5.436c-4.541 0-7.334 1.533-7.326 4.152-.008 2.635 2.785 4.135 7.326 4.127 4.558.008 7.343-1.492 7.351-4.127-.008-2.618-2.792-4.151-7.349-4.151zm0 5.95c-2.826.008-4.359-.613-4.351-1.8-.008-1.218 1.525-1.831 4.351-1.831s4.376.613 4.384 1.831c-.007 1.188-1.549 1.809-4.382 1.801zm23.536-17.42V3.666h-2.983v1.74h-4.624v2.171h12.2V5.406zm9.116 4.541v-6.1h-2.992v14.497h2.992V12.4h2.735V9.948zm-3.986 5.072c-1.633.2-3.381.34-5.13.423v-1.1c2.271-.34 3.7-1.467 3.7-3.091-.008-1.972-2.08-3.191-5.221-3.182-3.157-.008-5.238 1.21-5.229 3.182-.008 1.641 1.442 2.776 3.762 3.1v1.2c-1.848.05-3.622.058-5.188.058l.307 2.312a79.952 79.952 0 0 0 13.21-.845zm-9.017-3.771c-.008-.82.854-1.193 2.37-1.193 1.5 0 2.354.373 2.362 1.193-.008.779-.862 1.235-2.362 1.227-1.517.009-2.377-.446-2.369-1.225zM616.859 21.5v3.663h2.992v-5.975h-14.578V21.5zm21.547-17.652V19.18h3V3.848zm-2.867 6.729c0-3.124-2.552-5.378-5.826-5.378s-5.843 2.254-5.834 5.378c-.008 3.174 2.561 5.412 5.834 5.412s5.826-2.238 5.826-5.412zm-8.735 0a2.895 2.895 0 0 1 5.785 0 2.893 2.893 0 0 1-5.785 0zm3.331 7.052h-3.025v7.16h14.86v-2.411h-11.835z" transform="translate(30 50)"/>
        </g>
        <g id="fc_box_big_no_btn" transform="translate(407 1227)">
            <g transform="translate(-114 -280)" style="filter:url(#box)">
                <g id="box-11" data-name="box" class="cls-2">
                    <path class="cls-11" d="M0 0h1108v130H0z" transform="translate(114 280)"/>
                    <path class="cls-12" d="M1 1h1106v128H1z" transform="translate(114 280)"/>
                </g>
            </g>
            <path id="패스_10995" data-name="패스 10995" class="cls-3" d="M440.936 5.671V3.649h-2.975v2.022h-4.591v2.354h11.851V5.671zm7.384 2.71h-2.859v2.4h2.859v1.807h-2.909v2.4h2.909v1.55h2.98V3.815h-2.98zm-3.845 4.135c-.017-2.3-2.13-3.878-5.055-3.878-2.95 0-5.014 1.583-5 3.878-.017 2.312 2.047 3.87 5 3.87 2.925.001 5.039-1.557 5.055-3.869zm-7.268 0c-.008-1.061.862-1.649 2.213-1.649 1.334 0 2.271.588 2.279 1.649-.008 1.077-.945 1.707-2.279 1.707-1.351.001-2.22-.629-2.213-1.706zm2.7 6.389v-1.574h-2.992v7.591H451.3v-7.591h-2.967v1.575zm0 3.7v-1.478h8.428v1.483zm29.113-18.8v21.4H472V3.815zm-8.047 1.434c-3.356 0-5.925 2.18-5.917 5.238-.008 3.066 2.561 5.238 5.917 5.238 3.4 0 5.909-2.171 5.925-5.238-.014-3.049-2.525-5.228-5.923-5.228zm0 2.586c1.715 0 3 .986 3.008 2.652-.008 1.691-1.3 2.652-3.008 2.652a2.667 2.667 0 1 1 0-5.3zm-6.464 13.011a72.212 72.212 0 0 0 13.525-.961l-.224-2.155a103.74 103.74 0 0 1-13.641.688zm35.925 4.318h2.826V3.815h-2.826zm-6.843-13.234v2.436h2.509v9.812h2.8v-20h-2.8v7.752zm-2.1-2.088h3.356v-2.4h-3.381V4.561h-2.793v2.875h-3.439v2.4h3.439v.489c-.017 3.3-1.16 6.771-4.243 8.561l1.715 2.246a9.248 9.248 0 0 0 3.953-5.3 8.272 8.272 0 0 0 3.945 4.79l1.641-2.188c-3.033-1.633-4.2-4.865-4.193-8.1zm36.249 4.318a37.061 37.061 0 0 0 .555-7.16V5.075h-14.947v2.378h11.967a33.371 33.371 0 0 1-.6 6.7h-13.6v2.412h8.122v8.615h3.017v-8.619h8.32v-2.412zm22.11 2.18V3.815h-2.983v3.92h-4v2.445h4v6.149zm-11.362-4.89a7.834 7.834 0 0 0 4.74 4.177l1.591-2.337a6.513 6.513 0 0 1-4.89-6.555V4.934h-3.017v1.931a7.126 7.126 0 0 1-5.246 7.019l1.591 2.387a8.473 8.473 0 0 0 5.226-4.832zm4.069 5.436c-4.541 0-7.334 1.533-7.326 4.152-.008 2.635 2.785 4.135 7.326 4.127 4.558.008 7.343-1.492 7.351-4.127-.008-2.619-2.798-4.152-7.356-4.152zm0 5.95c-2.826.008-4.359-.613-4.351-1.8-.008-1.218 1.525-1.831 4.351-1.831s4.376.613 4.384 1.831c-.013 1.187-1.554 1.808-4.389 1.8zm30.451-19.011v12.108h2.967V3.815zm-13.773 1.3v8.975h10.417V5.116zm2.942 6.638V7.445h4.517v4.309zm14.18 7.558V17.1h-6.067v-1.766h-3V17.1h-6.058v2.213h5.959c-.323 1.5-2.561 3.191-6.82 3.539l1.019 2.262c3.572-.348 6.108-1.6 7.409-3.3 1.309 1.682 3.829 2.967 7.384 3.3l1-2.262c-4.243-.406-6.472-2.08-6.8-3.539zm24.912-7.318V3.815h-2.992v21.3h2.992V14.464h3.017v-2.47zM575.414 6v2.448h7.11c-.564 4.757-3.273 8.155-8.312 10.691l1.682 2.287c7.169-3.522 9.663-9.041 9.68-15.423zm34.633-2.188v11.481h3V3.815zm-8.693.9c-3.331-.008-5.843 2.072-5.834 5.064-.008 2.917 2.5 5 5.834 5s5.826-2.08 5.826-5c0-2.994-2.503-5.076-5.826-5.066zm0 2.494a2.578 2.578 0 0 1 2.876 2.569c0 1.591-1.21 2.536-2.876 2.544-1.707-.008-2.925-.953-2.909-2.544-.017-1.601 1.201-2.575 2.909-2.575zm-2.569 9.025v8.693h14.262v-8.695h-2.983v1.981h-8.337v-1.981zm2.942 4.3h8.337V22.5h-8.337z" transform="translate(30 51)"/>
        </g>
        <g id="fc_diamond" transform="translate(692 1406)">
            <g transform="translate(-399 -459)" style="filter:url(#다각형_3)">
                <g id="다각형_3-2" data-name="다각형 3" style="fill:#fff">
                    <path class="cls-11" d="M269 258.89 2.298 130 269 1.11 535.702 130 269 258.89z" transform="translate(399 459)"/>
                    <path d="M269 2.221 4.596 130 269 257.779 533.404 130 269 2.221M269 0l269 130-269 130L0 130 269 0z" style="fill:#999;stroke:none" transform="translate(399 459)"/>
                </g>
            </g>
            <path id="패스_10996" data-name="패스 10996" class="cls-3" d="M87.185 9.707V6.8H99V4.4H84.2v7.682h14.91V9.707zm-5.337 6.307h19.492v-2.437H81.848zm9.688 1.286c-4.657 0-7.467 1.409-7.467 3.912 0 2.528 2.809 3.953 7.467 3.945 4.633.008 7.417-1.417 7.434-3.945-.017-2.505-2.801-3.912-7.434-3.912zm0 5.586c-2.95-.008-4.434-.539-4.417-1.674-.017-1.077 1.467-1.633 4.417-1.641 2.9.008 4.425.564 4.434 1.641-.009 1.133-1.534 1.664-4.434 1.672zm22.276-9.166h6.307v-2.3h-12.141v-1.414h11.751V4.238H104.97V6.55h11.76v1.3H105v5.867h5.851v1.55h-8.279v2.387h19.508v-2.386h-8.271zm3.017 7.5v3.845h3.017v-6.2h-15.092v2.354zm13.939-8.544c4.019-.39 6.688-1.881 7.815-3.936 1.135 2.055 3.837 3.547 7.856 3.936l1.061-2.329c-4-.373-6.182-1.782-6.721-3.249h5.809V4.735h-15.936V7.1h5.768c-.547 1.475-2.735 2.876-6.7 3.249zm9.3-1.21H137.1v2.569h-8.213v2.4h19.459v-2.4h-8.279zm-1.493 6.134c-4.666.008-7.467 1.351-7.467 3.771 0 2.436 2.8 3.787 7.467 3.779 4.657.008 7.417-1.343 7.434-3.779-.017-2.415-2.777-3.758-7.434-3.771zm0 5.32c-2.975 0-4.434-.5-4.417-1.55-.017-1.011 1.442-1.492 4.417-1.492 2.925 0 4.425.481 4.434 1.492-.009 1.058-1.509 1.555-4.434 1.555zm13.35-14.431V14.8h15.456v-2.4h-12.439v-1.731h11.942V4.47h-15.025v2.42h11.95v1.6zm-2.312 7.865v2.337h4.558v6.472h2.992v-6.472h4.437v6.472h3.017v-6.472h4.5v-2.337zm34.243-10.948v-1.74h-2.983v1.74h-4.624v2.171h12.2V5.406zm9.116 4.541v-6.1h-2.992v14.496h2.992V12.4h2.735V9.948zm-3.986 5.072c-1.633.2-3.381.34-5.13.423v-1.1c2.271-.34 3.7-1.467 3.7-3.091-.008-1.972-2.08-3.191-5.221-3.182-3.157-.008-5.238 1.21-5.229 3.182-.008 1.641 1.442 2.776 3.762 3.1v1.2c-1.848.05-3.622.058-5.188.058l.307 2.312a79.952 79.952 0 0 0 13.21-.845zm-9.017-3.771c-.008-.82.854-1.193 2.37-1.193 1.5 0 2.354.373 2.362 1.193-.008.779-.862 1.235-2.362 1.227-1.516.008-2.378-.447-2.369-1.226zM189.981 21.5v3.663h2.992v-5.975H178.4V21.5zm21.547-17.652V19.18h3V3.848zm-2.867 6.729c0-3.124-2.552-5.378-5.826-5.378s-5.843 2.254-5.835 5.378c-.008 3.174 2.561 5.412 5.834 5.412s5.826-2.238 5.826-5.412zm-8.735 0a2.895 2.895 0 0 1 5.785 0 2.893 2.893 0 0 1-5.785 0zm3.331 7.052h-3.025v7.16h14.859v-2.411h-11.834z" transform="translate(120 116)"/>
        </g>
        <g id="fc_box_medium" transform="translate(977 1766)">
            <g transform="translate(-684 -819)" style="filter:url(#box-2)">
                <g id="box-12" data-name="box" class="cls-2">
                    <path class="cls-11" d="M0 0h538v130H0z" transform="translate(684 819)"/>
                    <path class="cls-12" d="M1 1h536v128H1z" transform="translate(684 819)"/>
                </g>
            </g>
            <path id="패스_10999" data-name="패스 10999" class="cls-3" d="M153.587 12.061h-2.055V4.188h-2.743v19.931h2.743v-9.663h2.055v10.707h2.826V3.815h-2.826zM141.579 8.7h4.964V6.3h-7.964v14.03h1.492a38.764 38.764 0 0 0 7.682-.588l-.224-2.436a35.124 35.124 0 0 1-5.95.522zm31.721 7.645h3.215v-2.411h-2.909v-6h3.008V5.53h-16.356v2.4h2.95v6h-2.859v2.412h3.224V20.4h-4.84v2.4h19.508v-2.4H173.3zm-2.644-8.412v6h-4.467v-6zm-.356 8.412V20.4h-3.729v-4.055zm20.055-6.638V6.8h11.818V4.4h-14.8v7.682h14.909V9.707zm-5.337 6.307h19.492v-2.437h-19.489zm9.688 1.285c-4.657 0-7.467 1.409-7.467 3.912 0 2.528 2.809 3.953 7.467 3.945 4.633.008 7.417-1.417 7.434-3.945-.014-2.504-2.799-3.911-7.431-3.911zm0 5.586c-2.95-.008-4.434-.539-4.417-1.674-.017-1.077 1.467-1.633 4.417-1.641 2.9.008 4.425.564 4.434 1.641-.006 1.134-1.531 1.665-4.431 1.673zm22.276-9.166h6.307v-2.3h-12.138v-1.413H222.9V4.238h-14.76V6.55h11.76v1.3h-11.725v5.867h5.851v1.55h-8.279v2.387h19.508v-2.386h-8.271zm3.017 7.5v3.845h3.017v-6.2h-15.089v2.354zm23.345-9.249V3.815h-2.992v21.348h2.992v-10.7h3.156V11.97zM234.4 8.323h4.293V5.878h-11.821v2.445h4.517v1.31c-.017 3.53-1.807 7.5-5.362 9.157l1.74 2.362a10.573 10.573 0 0 0 5.171-6.373 10.017 10.017 0 0 0 5.014 5.826l1.666-2.345a9.492 9.492 0 0 1-5.218-8.627zm14.362 7.865a16.61 16.61 0 0 0 3.348 10.492h3.307c-1.715-2.188-3.041-6.572-3.041-10.492s1.326-8.312 3.041-10.5h-3.307a16.618 16.618 0 0 0-3.352 10.5zM268.258 23v-2.917h-7.3V6.028h-3.522V23zm15.6 0-3.613-6.6a4.885 4.885 0 0 0 3-4.84c0-3.348-2.213-5.528-6.075-5.528h-6.646V23h3.522v-6.033h2.685L279.96 23zm-7.337-14.08c2.1 0 3.108.936 3.108 2.635s-1.011 2.561-3.1 2.561h-2.478V8.92zm14.967 7.268a16.612 16.612 0 0 0-3.34-10.5h-3.315c1.724 2.188 3.05 6.572 3.05 10.5s-1.326 8.3-3.05 10.492h3.315a16.6 16.6 0 0 0 3.34-10.492zm26.279 3.423V3.848h-2.983v4.533h-3.994V10.8h3.994v8.809zm-11.453-7.533a8.175 8.175 0 0 0 4.715 4.376l1.624-2.329a6.781 6.781 0 0 1-4.881-6.638V5.133h-3.017v2.328a7.179 7.179 0 0 1-5.1 7.144l1.608 2.354a8.426 8.426 0 0 0 5.051-4.882zm.273 5.876h-3.025v6.836h14.66v-2.412h-11.635zm25.616-6.5h3.331v5.039h2.983V3.815h-2.983v5.2H332.2zm-5.088.265a8.128 8.128 0 0 0 4.906 4.227l1.475-2.354a6.6 6.6 0 0 1-4.906-6.075h4.251v-2.4h-11.569v2.4h4.276a7.1 7.1 0 0 1-5.146 6.613l1.55 2.37a8.462 8.462 0 0 0 5.163-4.779zm4.111 5.246c-4.541 0-7.334 1.525-7.326 4.11-.008 2.586 2.785 4.1 7.326 4.11 4.558-.008 7.343-1.525 7.351-4.11-.009-2.583-2.794-4.108-7.352-4.108zm0 5.934c-2.826.008-4.359-.6-4.351-1.823-.008-1.227 1.525-1.84 4.351-1.84s4.376.613 4.384 1.84c-.01 1.224-1.551 1.833-4.385 1.824z" transform="translate(30 50)"/>
        </g>
        <g id="fc_box_medium-2" data-name="fc_box_medium" transform="translate(977 1946)">
            <g transform="translate(-684 -999)" style="filter:url(#box-3)">
                <g id="box-13" data-name="box" class="cls-2">
                    <path class="cls-11" d="M0 0h538v130H0z" transform="translate(684 999)"/>
                    <path class="cls-12" d="M1 1h536v128H1z" transform="translate(684 999)"/>
                </g>
            </g>
            <path id="패스_11000" data-name="패스 11000" class="cls-3" d="M202.975 5.671V3.649H200v2.022h-4.591v2.354h11.851V5.671zm7.384 2.71H207.5v2.4h2.859v1.807h-2.909v2.4h2.909v1.55h2.983V3.815h-2.983zm-3.845 4.135c-.017-2.3-2.13-3.878-5.055-3.878-2.95 0-5.014 1.583-5 3.878-.017 2.312 2.047 3.87 5 3.87 2.925.001 5.041-1.557 5.055-3.869zm-7.268 0c-.008-1.061.862-1.649 2.213-1.649 1.334 0 2.271.588 2.279 1.649-.008 1.077-.945 1.707-2.279 1.707-1.351.001-2.221-.629-2.213-1.706zm2.7 6.389v-1.574h-2.992v7.591h14.387v-7.591h-2.967v1.575zm0 3.7v-1.478h8.428v1.483zM235.8 6.641h-2.76V3.815h-3V16.4h3v-2.682h2.76V11.24h-2.76V9.061h2.76zm-7.865 3.547c-.017-3.017-2.519-5.2-5.826-5.2-3.331-.008-5.859 2.18-5.843 5.2-.017 3.066 2.511 5.229 5.843 5.229 3.308 0 5.811-2.163 5.827-5.229zm-8.743 0a2.923 2.923 0 1 1 2.917 2.685 2.628 2.628 0 0 1-2.916-2.685zm10.848 9.489v5.486h3v-7.9h-14.36v2.412zm27.97 5.486h2.826V3.815h-2.826zm-6.844-13.243v2.436h2.511v9.812h2.8v-20h-2.8v7.752zm-2.1-2.088h3.356v-2.4h-3.381V4.561h-2.793v2.875H242.8v2.4h3.439v.489c-.017 3.3-1.16 6.771-4.243 8.561l1.715 2.246a9.248 9.248 0 0 0 3.953-5.3 8.272 8.272 0 0 0 3.945 4.79l1.641-2.188c-3.033-1.633-4.2-4.865-4.193-8.1zm29.088-1.052v1.865h-4.873v2.271h4.873v1.657h2.983V3.815h-2.983v2.693h-4.028a13.19 13.19 0 0 0 .133-1.848h-9.638v2.4h6.331c-.389 2.561-2.644 4.591-7.533 5.561l1.011 2.428c4.715-1.019 7.757-3.066 9.075-6.265zm-8.18 12.4h11.163v-5.846h-14.192v2.346h11.188v1.285h-11.155v5.983H281.6v-2.37h-11.63z" transform="translate(30 50)"/>
        </g>
        <g id="fc_box_big_no_btn-2" data-name="fc_box_big_no_btn" transform="translate(407 2306)">
            <g transform="translate(-114 -1359)" style="filter:url(#box-4)">
                <g id="box-14" data-name="box" class="cls-2">
                    <path class="cls-11" d="M0 0h1108v130H0z" transform="translate(114 1359)"/>
                    <path class="cls-12" d="M1 1h1106v128H1z" transform="translate(114 1359)"/>
                </g>
            </g>
            <path id="패스_11002" data-name="패스 11002" class="cls-3" d="M443.348 6.028h-6.041V23h5.983c5.171 0 8.3-3.2 8.3-8.5-.004-5.29-3.129-8.472-8.242-8.472zm-2.519 13.948V9.052h2.329c3.207 0 4.906 1.666 4.906 5.445 0 3.8-1.7 5.478-4.923 5.478zm18.564-9.87c-3.381 0-5.3 1.74-5.5 3.953h3.29a1.925 1.925 0 0 1 2.13-1.409c1.285 0 2.014.613 2.022 1.691v1.028c-.53.017-2.254.091-3.157.149-2.445.157-4.732 1.077-4.732 3.928 0 2.511 1.807 3.8 4.235 3.8a3.906 3.906 0 0 0 3.721-2.006h.1V23h3.29v-8.577c-.005-3.067-2.624-4.323-5.4-4.323zm-.729 10.724c-1.111 0-1.9-.506-1.9-1.492s.762-1.55 1.972-1.649c.6-.058 2.1-.141 2.611-.166v.928a2.463 2.463 0 0 1-2.684 2.378zm14.287-.456c-.713-.025-1.21-.265-1.21-1.276v-6.217h2.4v-2.61h-2.4v-3.05h-3.472v3.05h-1.749v2.61h1.749v6.688c-.017 2.478 1.691 3.6 4.21 3.6a11.972 11.972 0 0 0 1.832-.124v-2.73c-.411.025-1.021.066-1.361.058zM481.66 10.1c-3.381 0-5.3 1.74-5.5 3.953h3.29a1.925 1.925 0 0 1 2.13-1.409c1.285 0 2.014.613 2.022 1.691v1.028c-.53.017-2.254.091-3.157.149-2.445.157-4.732 1.077-4.732 3.928 0 2.511 1.807 3.8 4.235 3.8a3.906 3.906 0 0 0 3.721-2.006h.1V23h3.29v-8.577c-.004-3.067-2.623-4.323-5.399-4.323zm-.729 10.724c-1.111 0-1.9-.506-1.9-1.492s.762-1.55 1.972-1.649c.6-.058 2.1-.141 2.611-.166v.928a2.463 2.463 0 0 1-2.683 2.384zm22.3-4.218h3.669c-.05 2.138-1.5 3.5-3.9 3.5-2.71 0-4.442-2.022-4.442-5.61 0-3.564 1.782-5.577 4.4-5.577a3.488 3.488 0 0 1 3.6 2.577h3.588c-.472-3.348-3.423-5.7-7.251-5.7-4.475 0-7.914 3.232-7.914 8.735 0 5.37 3.224 8.7 7.989 8.7 4.276 0 7.334-2.71 7.334-7.169v-2.12h-7.077zm14.935-6.506c-3.381 0-5.3 1.74-5.5 3.953h3.29a1.925 1.925 0 0 1 2.13-1.409c1.285 0 2.014.613 2.022 1.691v1.028c-.53.017-2.254.091-3.157.149-2.445.157-4.732 1.077-4.732 3.928 0 2.511 1.807 3.8 4.235 3.8a3.906 3.906 0 0 0 3.721-2.006h.1V23h3.29v-8.577c-.004-3.067-2.623-4.323-5.399-4.323zm-.729 10.724c-1.111 0-1.9-.506-1.9-1.492s.762-1.55 1.972-1.649c.6-.058 2.1-.141 2.61-.166v.928a2.463 2.463 0 0 1-2.683 2.384zm12.232 6.945v-6.8h.108a3.777 3.777 0 0 0 3.622 2.238c2.909 0 5.171-2.3 5.171-6.555 0-4.359-2.354-6.547-5.171-6.547a3.753 3.753 0 0 0-3.622 2.3h-.157v-2.134h-3.42v17.5zm-.075-11.138c0-2.3.97-3.754 2.718-3.754 1.773 0 2.71 1.525 2.71 3.754 0 2.246-.953 3.8-2.71 3.8-1.732.008-2.718-1.508-2.718-3.796zM549.931 23v-7.036h6.92v-2.909h-6.92v-4.11h7.669V6.028h-11.191V23zm11.644-14.4a1.833 1.833 0 0 0 1.889-1.765 1.894 1.894 0 0 0-3.779 0 1.833 1.833 0 0 0 1.89 1.765zm1.732 14.4V10.271h-3.472V23zm2.7-16.972V23h3.472V6.028zm6.174 0V23h3.472V6.028zM580.1 8.6a1.833 1.833 0 0 0 1.889-1.765 1.894 1.894 0 0 0-3.779 0A1.833 1.833 0 0 0 580.1 8.6zm1.729 14.4V10.271h-3.472V23zM588 15.633a2.373 2.373 0 0 1 2.445-2.644 2.2 2.2 0 0 1 2.279 2.511V23h3.476v-8.1c0-2.975-1.732-4.79-4.384-4.79a3.843 3.843 0 0 0-3.829 2.4h-.149v-2.239h-3.308V23H588zm16.583 12.406c3.622 0 6.182-1.649 6.182-4.906V10.271h-3.431v2.138h-.134a3.77 3.77 0 0 0-3.638-2.3c-2.809 0-5.171 2.146-5.171 6.456 0 4.235 2.3 6.257 5.18 6.257a3.718 3.718 0 0 0 3.638-2.08h.149v2.345c0 1.765-1.077 2.445-2.693 2.445-1.376 0-2.337-.456-2.528-1.483h-3.427c.207 2.415 2.37 3.99 5.876 3.99zm.066-7.831c-1.765 0-2.718-1.4-2.718-3.613 0-2.188.936-3.713 2.718-3.713 1.732 0 2.71 1.459 2.71 3.713s-.992 3.612-2.707 3.612z" transform="translate(30 36)"/>
            <g id="fc_textlink" transform="translate(671 79)">
                <g id="stack" transform="translate(-2524.094 20210)">
                    <g id="ico_fc_go_tab" transform="translate(2419.596 -20209)">
                        <path id="패스_7163" data-name="패스 7163" class="cls-6" d="m8.62 5.071 5 5-5 5" transform="translate(-2.62 -.072)"/>
                    </g>
                    <path id="패스_11011" data-name="패스 11011" class="cls-7" d="M-10.028-7.669h-3.89v1.227h3.89v7.8h1.481v-14.032h-1.481zm-8.022-2.475h4.917v-1.226h-6.414v9.287h1.1a31.721 31.721 0 0 0 6.365-.464l-.166-1.215a30.034 30.034 0 0 1-5.8.442zM.707-4.508H4.9v-7.21H3.42V-9.3h-6.873v-2.414h-1.486v7.21h4.177v2.873H-6.4v1.222H6.414v-1.226H.707zM3.42-8.11v2.4h-6.873v-2.4zm14.16 9.436h1.492v-14H17.58zM8.249-11.166v1.182H13.4c-.293 3.265-2.1 5.79-5.829 7.558l.785 1.2c4.807-2.293 6.547-5.845 6.558-9.939zM-20.751 2h41.5v1h-41.5z" transform="translate(2395.094 -20194)"/>
                </g>
            </g>
        </g>
        <g id="fc_box_big_no_btn-3" data-name="fc_box_big_no_btn" transform="translate(407 2486)">
            <g transform="translate(-114 -1539)" style="filter:url(#box-5)">
                <g id="box-15" data-name="box" class="cls-2">
                    <path class="cls-11" d="M0 0h1108v130H0z" transform="translate(114 1539)"/>
                    <path class="cls-12" d="M1 1h1106v128H1z" transform="translate(114 1539)"/>
                </g>
            </g>
            <path id="패스_11003" data-name="패스 11003" class="cls-3" d="M394.4 25.146h2.967V3.848H394.4zm-8.064-11.378c3.265.017 5.635-1.865 5.635-4.517 0-2.693-2.37-4.55-5.635-4.541-3.24-.008-5.61 1.848-5.594 4.541-.021 2.649 2.349 4.534 5.589 4.517zm0-6.663c1.649-.008 2.793.779 2.8 2.146-.008 1.326-1.152 2.1-2.8 2.088-1.583.008-2.718-.762-2.71-2.088-.013-1.367 1.123-2.151 2.705-2.151zM393.1 14.3a96.99 96.99 0 0 1-13.674.779l.365 2.436c1.533-.017 3.307-.033 5.18-.108v7.119h3v-7.3a48.273 48.273 0 0 0 5.337-.721zm22.641-1.79h-1.732V4.238h-2.8v20.005h2.8V14.9h1.732v10.263h2.843V3.815h-2.843zm-11.915-8.09v2.66H400.1v2.379h10.326V7.08h-3.655V4.42zm1.483 6a4.7 4.7 0 0 0-4.7 5.047c-.008 2.992 1.981 5.1 4.7 5.1s4.674-2.1 4.682-5.1c-.008-2.95-1.955-5.047-4.682-5.047zm0 7.608c-1.235.008-2.08-.928-2.072-2.561-.008-1.6.837-2.569 2.072-2.569 1.2 0 2.047.97 2.055 2.569-.008 1.633-.853 2.569-2.055 2.561zm33.555-1.7V3.815h-2.983v3.92h-4v2.445h4v6.149zM427.5 11.439a7.834 7.834 0 0 0 4.74 4.177l1.591-2.337a6.513 6.513 0 0 1-4.889-6.555v-1.79h-3.017v1.931a7.126 7.126 0 0 1-5.246 7.019l1.591 2.387a8.473 8.473 0 0 0 5.23-4.832zm4.069 5.436c-4.541 0-7.334 1.533-7.326 4.152-.008 2.635 2.785 4.135 7.326 4.127 4.558.008 7.343-1.492 7.351-4.127-.006-2.618-2.79-4.151-7.348-4.151zm0 5.95c-2.826.008-4.359-.613-4.351-1.8-.008-1.218 1.525-1.831 4.351-1.831s4.376.613 4.384 1.831c-.005 1.188-1.547 1.809-4.381 1.801zm25.691 2.337h2.859V3.815h-2.859zm-6.149-13.45c-.323-3.97-2.088-6.365-4.657-6.365-2.809 0-4.641 2.942-4.633 7.707-.008 4.807 1.823 7.765 4.633 7.757 2.635.008 4.425-2.528 4.682-6.713h1.715v10.079h2.826V4.146h-2.826v7.566zm-4.657 6.232c-1.193.008-1.9-1.6-1.881-4.889-.017-3.257.688-4.89 1.881-4.881 1.235-.008 1.964 1.624 1.964 4.881.002 3.29-.727 4.898-1.962 4.89zM485.1 3.815h-3.058v15.978h3.058v-6.97h2.594v-2.494H485.1zm-5.7 9.149a35.458 35.458 0 0 0 .489-6.257V5.373H468.9v2.436h8.055a28.489 28.489 0 0 1-.5 4.881zm1.492.878c-2.006.29-4.185.456-6.315.547V10.3H471.6v4.185c-1.417.025-2.76.033-3.953.033l.253 2.382a76.836 76.836 0 0 0 13.135-.9zm-10.11 4.525v6.423h14.992v-2.412h-11.995v-4.011zM496.5 6.086V3.815h-2.983v2.271h-4.848v2.353h12.663V6.086zm9.1-2.238h-3v15.928h3V12.84h2.867v-2.453H505.6zM495.011 17.4c3.083.008 5.246-1.616 5.246-4.069 0-2.478-2.163-4.135-5.246-4.135-3.116 0-5.3 1.657-5.3 4.135-.004 2.451 2.189 4.075 5.3 4.069zm-2.387-4.069c0-1.193.953-1.848 2.387-1.856 1.425.008 2.4.663 2.412 1.856-.008 1.169-.986 1.8-2.412 1.8s-2.387-.631-2.387-1.802zm-.862 5.213v6.246h14.6v-2.412h-11.616v-3.837zm40.028-6.574V3.815h-2.99v21.348h2.992v-10.7h3.149V11.97zm-8.95-3.646h4.293V5.878h-11.818v2.445h4.517v1.31c-.017 3.53-1.807 7.5-5.362 9.157l1.74 2.362a10.573 10.573 0 0 0 5.171-6.373A10.018 10.018 0 0 0 526.4 20.6l1.666-2.345a9.492 9.492 0 0 1-5.221-8.627zm27.622 8.735h3.017v-2.413h-12.53v-2.37h12.033V5.207h-15.05v2.4h12.091V9.9h-12.059v7.16h2.751v3.273h-5v2.445h19.508v-2.447h-4.765zm-2.942 0v3.273h-3.9v-3.274zm10.434-.87A16.61 16.61 0 0 0 561.3 26.68h3.307c-1.715-2.188-3.041-6.572-3.041-10.492s1.326-8.312 3.041-10.5H561.3a16.618 16.618 0 0 0-3.347 10.5zm23.586-4.243c-.481-3.9-3.431-6.149-7.343-6.149-4.483 0-7.89 3.182-7.89 8.718s3.348 8.718 7.89 8.718c4.309 0 6.945-2.859 7.343-5.992l-3.564-.017a3.521 3.521 0 0 1-3.721 2.884c-2.6 0-4.376-1.931-4.376-5.594 0-3.572 1.749-5.594 4.392-5.594a3.5 3.5 0 0 1 3.7 3.025zm15.05-1.061c-.05-3.008-2.528-5.088-6.29-5.088-3.7 0-6.431 2.047-6.414 5.122-.008 2.5 1.757 3.928 4.616 4.624l1.856.456c1.848.456 2.892.994 2.9 2.146-.008 1.276-1.2 2.13-3.05 2.13-1.873 0-3.232-.854-3.348-2.561h-3.423c.1 3.63 2.718 5.528 6.812 5.528 4.135 0 6.555-1.981 6.572-5.08-.017-2.834-2.18-4.318-5.08-4.972l-1.533-.373c-1.467-.34-2.735-.887-2.71-2.13 0-1.119.995-1.939 2.776-1.939 1.724 0 2.793.787 2.925 2.138zM612.459 23l-3.613-6.6a4.885 4.885 0 0 0 3-4.84c0-3.348-2.213-5.528-6.075-5.528h-6.646V23h3.522v-6.033h2.685L608.555 23zm-7.343-14.08c2.1 0 3.108.936 3.108 2.635s-1.011 2.561-3.1 2.561h-2.478V8.92zm14.967 7.268a16.612 16.612 0 0 0-3.34-10.5h-3.315c1.724 2.188 3.05 6.572 3.05 10.5s-1.326 8.3-3.05 10.492h3.315a16.6 16.6 0 0 0 3.34-10.492zm10.251-2.751c3.978-.439 6.622-2.113 7.749-4.309 1.127 2.2 3.787 3.87 7.782 4.309l1.1-2.345c-4.21-.472-6.423-2.254-6.771-3.994h5.892V4.743h-15.934V7.1H636c-.348 1.732-2.536 3.522-6.746 3.994zm-1.972 3.406h8.528v3.671h2.959v-3.671h8.022v-2.4h-19.509zm2.287 1.782v6.165h15.075v-2.412h-12.091v-3.754zm33.315-14.81v21.4h3.025v-21.4zM650.2 5.53v14.685h10.533V5.53h-2.943v5.18h-4.6V5.53zm2.992 7.508h4.6v4.749h-4.6z" transform="translate(30 36)"/>
            <g id="fc_textlink-2" data-name="fc_textlink" transform="translate(671 79)">
                <g id="stack-2" data-name="stack" transform="translate(-2524.094 20210)">
                    <g id="ico_fc_go_tab-2" data-name="ico_fc_go_tab" transform="translate(2419.596 -20209)">
                        <path id="패스_7163-2" data-name="패스 7163" class="cls-6" d="m8.62 5.071 5 5-5 5" transform="translate(-2.62 -.072)"/>
                    </g>
                    <path id="패스_11012" data-name="패스 11012" class="cls-7" d="M-10.028-7.669h-3.89v1.227h3.89v7.8h1.481v-14.032h-1.481zm-8.022-2.475h4.917v-1.226h-6.414v9.287h1.1a31.721 31.721 0 0 0 6.365-.464l-.166-1.215a30.034 30.034 0 0 1-5.8.442zM.707-4.508H4.9v-7.21H3.42V-9.3h-6.873v-2.414h-1.486v7.21h4.177v2.873H-6.4v1.222H6.414v-1.226H.707zM3.42-8.11v2.4h-6.873v-2.4zm14.16 9.436h1.492v-14H17.58zM8.249-11.166v1.182H13.4c-.293 3.265-2.1 5.79-5.829 7.558l.785 1.2c4.807-2.293 6.547-5.845 6.558-9.939zM-20.751 2h41.5v1h-41.5z" transform="translate(2395.094 -20194)"/>
                </g>
            </g>
        </g>
        <g id="fc_box_big_no_btn-4" data-name="fc_box_big_no_btn" transform="translate(407 2666)">
            <g transform="translate(-114 -1719)" style="filter:url(#box-6)">
                <g id="box-16" data-name="box" class="cls-2">
                    <path class="cls-11" d="M0 0h1108v130H0z" transform="translate(114 1719)"/>
                    <path class="cls-12" d="M1 1h1106v128H1z" transform="translate(114 1719)"/>
                </g>
            </g>
            <path id="패스_11004" data-name="패스 11004" class="cls-3" d="M408.38 23v-2.917h-7.3V6.028h-3.522V23zm15.6 0-3.613-6.6a4.885 4.885 0 0 0 3-4.84c0-3.348-2.213-5.528-6.075-5.528h-6.646V23h3.522v-6.033h2.685L420.081 23zm-7.338-14.08c2.1 0 3.108.936 3.108 2.635s-1.011 2.561-3.1 2.561h-2.478V8.92zm19.243.787V6.8H447.7V4.4h-14.8v7.682h14.909V9.707zm-5.337 6.307h19.492v-2.437h-19.492zm9.688 1.285c-4.657 0-7.467 1.409-7.467 3.912 0 2.528 2.809 3.953 7.467 3.945 4.633.008 7.417-1.417 7.434-3.945-.017-2.504-2.801-3.911-7.434-3.911zm0 5.586c-2.95-.008-4.434-.539-4.417-1.674-.017-1.077 1.467-1.633 4.417-1.641 2.9.008 4.425.564 4.434 1.641-.008 1.134-1.533 1.665-4.434 1.673zm22.276-9.166h6.307v-2.3h-12.141v-1.413h11.752V4.238h-14.76V6.55h11.76v1.3H453.7v5.867h5.851v1.55h-8.279v2.387h19.508v-2.386h-8.271zm3.017 7.5v3.845h3.017v-6.2h-15.092v2.354zM486.9 3.848V19.42h3V3.848zm-8.219 7.852a8.221 8.221 0 0 0 5.014 4.434l1.525-2.354a6.773 6.773 0 0 1-5.006-6.713v-2.05h-3.1v2.055a7.257 7.257 0 0 1-5.146 7.077l1.558 2.362a8.522 8.522 0 0 0 5.155-4.811zm-.05 6.2h-3.025v6.89h14.859v-2.412h-11.834zm20.586-5.594a7.867 7.867 0 0 0 5.1 3.7l1.4-2.3c-3.431-.887-5.039-3.108-5.064-5.3h4.293V6.052h-4.26V3.74h-3.017v2.312h-4.293v2.354h4.293c-.025 2.42-1.608 4.84-5.022 5.818l1.4 2.337a7.875 7.875 0 0 0 5.17-4.252zm5.1-.365h3.472v4.782h2.983V3.815h-2.983V9.55h-3.472zm-.837 5.138c-4.525 0-7.334 1.442-7.326 4-.008 2.577 2.8 4.077 7.326 4.069 4.541.008 7.343-1.492 7.351-4.069-.004-2.554-2.805-3.996-7.346-3.996zm0 5.8c-2.826-.008-4.359-.63-4.351-1.8-.008-1.144 1.525-1.724 4.351-1.715 2.884-.008 4.376.572 4.384 1.715-.003 1.175-1.495 1.797-4.379 1.805zm26.897-10.909V3.815h-2.992v21.348h2.992v-10.7h3.149V11.97zm-8.95-3.646h4.293V5.878H513.9v2.445h4.517v1.31c-.017 3.53-1.807 7.5-5.362 9.157l1.74 2.362a10.573 10.573 0 0 0 5.171-6.373 10.018 10.018 0 0 0 5.014 5.826l1.666-2.345a9.492 9.492 0 0 1-5.221-8.627zm27.622 8.735h3.017v-2.413h-12.53v-2.37h12.033V5.207h-15.05v2.4h12.091V9.9h-12.059v7.16h2.749v3.273h-5v2.445h19.508v-2.447h-4.765zm-2.942 0v3.273h-3.9v-3.274zM577.515 9V3.815h-3v12.878h3v-5.2h2.867V9zm-10.533 2.751a8.105 8.105 0 0 0 4.923 4.185l1.517-2.3c-3.448-1.119-4.956-3.671-4.964-6.174h4.26V5.075h-11.637v2.386h4.359A6.963 6.963 0 0 1 560.269 14l1.583 2.3a8.354 8.354 0 0 0 5.13-4.546zm7.533 8.238v5.171h3V17.6h-14.362v2.387zm24.8-3.663V3.815h-2.983v3.92h-4v2.445h4v6.149zm-11.362-4.89a7.834 7.834 0 0 0 4.74 4.177l1.591-2.337a6.513 6.513 0 0 1-4.89-6.555V4.934h-3.017v1.931a7.126 7.126 0 0 1-5.246 7.019l1.591 2.387a8.473 8.473 0 0 0 5.235-4.832zm4.069 5.436c-4.541 0-7.334 1.533-7.326 4.152-.008 2.635 2.785 4.135 7.326 4.127 4.558.008 7.343-1.492 7.351-4.127-.004-2.615-2.789-4.148-7.347-4.148zm0 5.95c-2.826.008-4.359-.613-4.351-1.8-.008-1.218 1.525-1.831 4.351-1.831s4.376.613 4.384 1.831c-.006 1.191-1.546 1.812-4.38 1.804zm15.129-17.59-5.47 20.32h3l5.47-20.32zm19.467 19.931h2.826V3.815h-2.826zm-7.144-14.022v2.4h2.809v10.628h2.8v-20h-2.8v6.97zM617.758 8.4h3.232V6h-9.613v2.4h3.5v1.133c0 3.63-1.169 7.459-4.309 9.4l1.807 2.2a9.93 9.93 0 0 0 3.978-5.809 9.022 9.022 0 0 0 3.878 5.32l1.749-2.2c-3.116-1.782-4.227-5.362-4.218-8.917zm15.63 3.945c3.986-.207 6.729-1.21 8.072-2.809 1.351 1.6 4.1 2.6 8.055 2.809l.878-2.2c-4.309-.182-6.481-1.2-7.086-2.436h6.025v-2.22h-6.389V3.807h-2.967v1.682h-6.348V7.7h5.972c-.622 1.235-2.785 2.254-7.036 2.436zm17.784.572h-19.367v2.18h8.188v1.343h-5.983v2.138h11.884v1.061h-11.868v5.378H649.4v-2.2h-12.44v-1.176h11.884v-5.2h-5.892v-1.347h8.221z" transform="translate(30 51)"/>
        </g>
        <g id="fc_box_big_no_btn-5" data-name="fc_box_big_no_btn" transform="translate(407 2846)">
            <g transform="translate(-114 -1899)" style="filter:url(#box-7)">
                <g id="box-17" data-name="box" class="cls-2">
                    <path class="cls-11" d="M0 0h1108v130H0z" transform="translate(114 1899)"/>
                    <path class="cls-12" d="M1 1h1106v128H1z" transform="translate(114 1899)"/>
                </g>
            </g>
            <path id="패스_11005" data-name="패스 11005" class="cls-3" d="M487.039 3.848h-2.992v16.276h2.992v-7.077h2.735v-2.486h-2.735zm-4.185 10.434c-1.558.224-3.232.373-4.906.481V13.2c2.287-.489 3.82-2.08 3.837-4.16-.017-2.577-2.262-4.334-5.378-4.334-3.133 0-5.378 1.757-5.362 4.334-.017 2.1 1.558 3.713 3.9 4.177V14.9a156.4 156.4 0 0 1-5.022.066l.315 2.37a75.544 75.544 0 0 0 12.837-.878zm-9.034-5.246c-.017-1.334 1.069-2.072 2.586-2.08 1.525.008 2.561.746 2.569 2.08-.008 1.293-1.036 2.055-2.569 2.055-1.517 0-2.606-.762-2.586-2.055zm-1.077 9.655v6.075h15.033v-2.4H475.76v-3.675zm29.5-6.912h3.489v7.641h2.983V3.848h-2.983v5.519h-3.489zm-4.939.58a8.109 8.109 0 0 0 4.914 4.251l1.475-2.37a6.573 6.573 0 0 1-4.906-6.224v-.34h4.251v-2.4h-11.566v2.4h4.276V8a6.884 6.884 0 0 1-5.13 6.622l1.533 2.42a8.412 8.412 0 0 0 5.156-4.683zm.24 5.7h-2.983v6.731h14.66v-2.412h-11.674zm31.923-1.732V3.815h-2.983v3.92h-4v2.445h4v6.149zm-11.362-4.89a7.834 7.834 0 0 0 4.74 4.177l1.591-2.337a6.513 6.513 0 0 1-4.89-6.555V4.934h-3.017v1.931a7.126 7.126 0 0 1-5.246 7.019l1.591 2.387a8.473 8.473 0 0 0 5.234-4.832zm4.069 5.436c-4.541 0-7.334 1.533-7.326 4.152-.008 2.635 2.785 4.135 7.326 4.127 4.558.008 7.343-1.492 7.351-4.127-.006-2.616-2.79-4.149-7.348-4.149zm0 5.95c-2.826.008-4.359-.613-4.351-1.8-.008-1.218 1.525-1.831 4.351-1.831s4.376.613 4.384 1.831c-.006 1.19-1.547 1.811-4.381 1.803zm30.6-13.914h-3.8v2.445h3.8v4.417h2.983V3.848h-2.983zm-3.936-3.837h-9.8v2.381h6.588c-.481 2.876-3.124 5.229-7.749 6.472l1.185 2.329c6.253-1.74 9.775-5.602 9.775-11.179zm6.92 19.823v-8.268H541.61V24.9zm-2.967-5.925v3.58h-8.246v-3.58zm16.981-2.2h6.149V14.4H563.87v-2.223h11.378V9.831H563.87V7.7h11.884V5.3h-14.917v11.476h5.925v3.6h-8.229v2.4h19.508v-2.4h-8.271z" transform="translate(30 51)"/>
        </g>
        <g id="fc_box_big_no_btn-6" data-name="fc_box_big_no_btn" transform="translate(407 3026)">
            <g transform="translate(-114 -2079)" style="filter:url(#box-8)">
                <g id="box-18" data-name="box" class="cls-2">
                    <path class="cls-11" d="M0 0h1108v130H0z" transform="translate(114 2079)"/>
                    <path class="cls-12" d="M1 1h1106v128H1z" transform="translate(114 2079)"/>
                </g>
            </g>
            <path id="패스_11006" data-name="패스 11006" class="cls-3" d="M391.934 25.163h2.975V3.815h-2.975zM385.5 6.2V3.923h-2.992V6.2h-5.005v2.347h12.953V6.2zm-.017 11.064c2.329-.431 3.854-1.89 3.854-3.862 0-2.4-2.2-4.019-5.37-4.019-3.141 0-5.312 1.624-5.3 4.019-.008 1.989 1.508 3.448 3.845 3.87v1.808c-1.939.041-3.8.05-5.428.058l.389 2.436a81.273 81.273 0 0 0 13.492-.845l-.2-2.221c-1.7.232-3.5.373-5.279.464zm-3.975-3.864c-.008-1.11 1.011-1.74 2.461-1.74 1.5 0 2.511.63 2.511 1.74s-1.011 1.724-2.511 1.724c-1.45.003-2.469-.602-2.461-1.724zm27.224 4.856h4.077v1.707h3V3.848h-3v12.373h-4.077zm-4.135-6.1c3.108 0 5.32-1.475 5.329-3.762-.008-2.271-2.221-3.837-5.329-3.829-3.166-.008-5.362 1.558-5.362 3.829 0 2.291 2.196 3.766 5.365 3.766zm0-5.4c1.442 0 2.478.58 2.486 1.641-.008 1.036-1.044 1.6-2.486 1.6-1.517 0-2.536-.564-2.528-1.6-.008-1.06 1.011-1.64 2.531-1.64zm-1.227 12.7h3V15.4a60.782 60.782 0 0 0 5.155-.6l-.174-2.146a122.9 122.9 0 0 1-13.7.655l.356 2.362c1.624 0 3.448-.017 5.362-.091v2.843h-2.992v6.367h15.9v-2.412H403.37zm31.947-7.409V3.815h-2.992v21.348h2.992V14.572h3.149v-2.528zm-8.975-6.58h-2.992v3.188c-.008 3.961-1.715 8.039-5.32 9.7l1.831 2.428a10.307 10.307 0 0 0 5-6.215 9.73 9.73 0 0 0 4.715 5.8l1.807-2.378c-3.423-1.657-5.055-5.511-5.039-9.331zm23.776 4.243V6.8h11.818V4.4h-14.8v7.682h14.909V9.707zm-5.337 6.307h19.492v-2.44h-19.491zm9.689 1.283c-4.657 0-7.467 1.409-7.467 3.912 0 2.528 2.809 3.953 7.467 3.945 4.633.008 7.417-1.417 7.434-3.945-.017-2.505-2.804-3.912-7.434-3.912zm0 5.586c-2.95-.008-4.434-.539-4.417-1.674-.017-1.077 1.467-1.633 4.417-1.641 2.9.008 4.425.564 4.434 1.641-.009 1.133-1.534 1.664-4.434 1.672zm22.276-9.166h6.307v-2.3h-12.141v-1.414h11.751V4.238H467.9V6.55h11.76v1.3h-11.724v5.867h5.851v1.55h-8.279v2.387h19.508v-2.386h-8.271zm3.017 7.5v3.845h3.017v-6.2h-15.092v2.354zm26.909-17.37v15.57h3V3.848zm-8.222 7.85a8.221 8.221 0 0 0 5.014 4.434l1.525-2.354a6.773 6.773 0 0 1-5.006-6.713v-2.05h-3.1v2.055a7.257 7.257 0 0 1-5.146 7.077l1.558 2.362a8.522 8.522 0 0 0 5.155-4.811zm-.05 6.2h-3.025v6.89h14.859v-2.412H498.4zm20.586-5.594a7.867 7.867 0 0 0 5.1 3.7l1.4-2.3c-3.431-.887-5.039-3.108-5.064-5.3h4.293V6.052h-4.26V3.74h-3.017v2.312h-4.293v2.354h4.293c-.025 2.42-1.608 4.84-5.022 5.818l1.4 2.337a7.875 7.875 0 0 0 5.17-4.252zm5.1-.365h3.472v4.782h2.983V3.815h-2.983V9.55h-3.472zm-.837 5.138c-4.525 0-7.334 1.442-7.326 4-.008 2.577 2.8 4.077 7.326 4.069 4.541.008 7.343-1.492 7.351-4.069 0-2.554-2.8-3.996-7.346-3.996zm0 5.8c-2.826-.008-4.359-.63-4.351-1.8-.008-1.144 1.525-1.724 4.351-1.715 2.884-.008 4.376.572 4.384 1.715-.003 1.175-1.495 1.797-4.379 1.805zm26.897-10.909V3.815h-2.992v21.348h2.992v-10.7h3.154V11.97zM541.2 8.323h4.293V5.878h-11.822v2.445h4.517v1.31c-.017 3.53-1.807 7.5-5.362 9.157l1.74 2.362a10.573 10.573 0 0 0 5.171-6.373 10.018 10.018 0 0 0 5.014 5.826l1.666-2.345a9.492 9.492 0 0 1-5.217-8.627zm27.622 8.735h3.017v-2.412H559.3v-2.37h12.033V5.207h-15.05v2.4h12.091V9.9H556.32v7.16h2.751v3.273h-5v2.445h19.508v-2.447h-4.765zm-2.942 0v3.273h-3.9v-3.273zM597.285 9V3.815h-3v12.878h3v-5.2h2.867V9zm-10.533 2.751a8.105 8.105 0 0 0 4.923 4.185l1.517-2.3c-3.448-1.119-4.956-3.671-4.964-6.174h4.26V5.075h-11.637v2.386h4.359A6.963 6.963 0 0 1 580.039 14l1.583 2.3a8.354 8.354 0 0 0 5.129-4.546zm7.533 8.238v5.171h3V17.6h-14.362v2.387zm24.8-3.663V3.815H616.1v3.92h-4v2.445h4v6.149zm-11.362-4.89a7.834 7.834 0 0 0 4.74 4.177l1.591-2.337a6.513 6.513 0 0 1-4.89-6.555V4.934h-3.017v1.931a7.126 7.126 0 0 1-5.246 7.019l1.591 2.387a8.473 8.473 0 0 0 5.235-4.832zm4.069 5.436c-4.541 0-7.334 1.533-7.326 4.152-.008 2.635 2.785 4.135 7.326 4.127 4.558.008 7.343-1.492 7.351-4.127-.005-2.615-2.789-4.148-7.343-4.148zm0 5.95c-2.826.008-4.359-.613-4.351-1.8-.008-1.218 1.525-1.831 4.351-1.831s4.376.613 4.384 1.831c-.005 1.191-1.546 1.812-4.376 1.804zm15.128-17.59-5.47 20.32h3l5.47-20.32zm19.467 19.931h2.826V3.815h-2.826zm-7.144-14.022v2.4h2.809v10.628h2.8v-20h-2.8v6.97zM637.528 8.4h3.232V6h-9.613v2.4h3.5v1.133c0 3.63-1.169 7.459-4.309 9.4l1.807 2.2a9.93 9.93 0 0 0 3.978-5.809A9.022 9.022 0 0 0 640 20.646l1.749-2.2c-3.116-1.782-4.227-5.362-4.218-8.917zm15.63 3.945c3.986-.207 6.729-1.21 8.072-2.809 1.351 1.6 4.1 2.6 8.055 2.809l.878-2.2c-4.309-.182-6.481-1.2-7.086-2.436h6.023v-2.22h-6.389V3.807h-2.967v1.682H653.4V7.7h5.975c-.622 1.235-2.785 2.254-7.036 2.436zm17.784.572h-19.367v2.18h8.188v1.343h-5.983v2.138h11.884v1.061H653.8v5.378h15.373v-2.2h-12.444v-1.176h11.884v-5.2h-5.892v-1.347h8.221z" transform="translate(30 51)"/>
        </g>
        <g id="fc_box_big_no_btn-7" data-name="fc_box_big_no_btn" transform="translate(407 3206)">
            <g transform="translate(-114 -2259)" style="filter:url(#box-9)">
                <g id="box-19" data-name="box" class="cls-2">
                    <path class="cls-11" d="M0 0h1108v130H0z" transform="translate(114 2259)"/>
                    <path class="cls-12" d="M1 1h1106v128H1z" transform="translate(114 2259)"/>
                </g>
            </g>
            <path id="패스_11007" data-name="패스 11007" class="cls-3" d="M451.809 9.707V6.8h11.818V4.4h-14.8v7.682h14.909V9.707zm-5.337 6.307h19.492v-2.437h-19.492zm9.688 1.286c-4.657 0-7.467 1.409-7.467 3.912 0 2.528 2.809 3.953 7.467 3.945 4.633.008 7.417-1.417 7.434-3.945-.017-2.505-2.801-3.912-7.434-3.912zm0 5.586c-2.95-.008-4.434-.539-4.417-1.674-.017-1.077 1.467-1.633 4.417-1.641 2.9.008 4.425.564 4.434 1.641-.008 1.133-1.533 1.664-4.434 1.672zm22.276-9.166h6.307v-2.3H472.6v-1.414h11.751V4.238h-14.76V6.55h11.76v1.3h-11.724v5.867h5.851v1.55H467.2v2.387h19.508v-2.386h-8.271zm3.017 7.5v3.845h3.017v-6.2h-15.092v2.354zM504.7 13.5h6.174v-2.276h-11.985v-1.218h11.3V7.834h-11.3V6.649h11.8V4.337h-14.783V13.5h5.794v1.32h-8.238v2.345h19.508V14.82h-8.27zm-1.5 4.633c-4.765-.008-7.467 1.26-7.467 3.506 0 2.3 2.7 3.522 7.467 3.514 4.707.008 7.417-1.21 7.434-3.514-.018-2.239-2.728-3.512-7.434-3.504zm0 4.807c-3.058.008-4.483-.39-4.475-1.3-.008-.9 1.417-1.293 4.475-1.293 3.008 0 4.425.4 4.434 1.293-.01.912-1.427 1.31-4.434 1.302zm25.889 2.221h3.025V3.815h-3.025zm-6.572-16.84h4.467V5.878h-12.042v2.445h4.533v1.31c-.008 3.622-1.84 7.575-5.37 9.157l1.7 2.345a10.336 10.336 0 0 0 5.246-6.3 9.657 9.657 0 0 0 5.213 5.768l1.608-2.345a9.2 9.2 0 0 1-5.354-8.627zm27.53 2.213h-4.177v2.412h4.177v12.267h2.959V3.815h-2.959zm-6.961-5.072h-3.041v3.193c-.017 4.011-1.691 8.13-5.337 9.787l1.873 2.428a10.282 10.282 0 0 0 5-6.29 9.661 9.661 0 0 0 4.856 5.9l1.803-2.38c-3.547-1.533-5.163-5.436-5.155-9.448zm27.953 3.771c1.392 2.312 4.127 4.044 7.856 4.575l1.168-2.412c-4.881-.6-7.45-3.39-7.45-5.909V4.453h-3.141v1.036c-.008 2.519-2.569 5.3-7.417 5.909l1.177 2.412c3.696-.531 6.414-2.263 7.807-4.575zm-9.739 6.192v2.436h8.188v7.3h2.959v-7.3h8.312v-2.436zm38.727 1.392V3.848h-3v2.834h-3.489v2.412h3.489v2h-3.489v2.4h3.489v3.331zm-6.961-3.617a41.621 41.621 0 0 1-7.227.5v-2.145h6.439V4.934h-9.431v2.411h6.472v1.964h-6.439v6.82h1.608a47.537 47.537 0 0 0 8.851-.522zm-.29 3.945c-4.583 0-7.376 1.508-7.367 4.061-.008 2.561 2.785 4.019 7.367 4.019 4.566 0 7.343-1.459 7.351-4.019-.008-2.549-2.784-4.057-7.351-4.057zm0 5.8c-2.867 0-4.351-.555-4.343-1.74-.008-1.2 1.475-1.773 4.343-1.773 2.843 0 4.376.572 4.384 1.773-.008 1.195-1.541 1.745-4.384 1.745z" transform="translate(30 51)"/>
        </g>
        <g id="fc_start_end_link" transform="translate(407 3386)">
            <g transform="translate(-114 -2439)" style="filter:url(#area-2)">
                <g id="area-4" data-name="area" class="cls-2" transform="translate(114 2439)">
                    <rect class="cls-11" width="1108" height="130" rx="65"/>
                    <rect class="cls-12" x="1" y="1" width="1106" height="128" rx="64"/>
                </g>
            </g>
            <g id="fc_textlink-3" data-name="fc_textlink" transform="translate(671 79)">
                <g id="stack-3" data-name="stack" transform="translate(-2524.094 20210)">
                    <g id="ico_fc_pop_up" transform="translate(2419.596 -20209)">
                        <g id="그룹_1025" data-name="그룹 1025" transform="translate(-1101.074 -1125)">
                            <g id="그룹_1026" data-name="그룹 1026" transform="translate(1108.074 1129)">
                                <path id="사각형_878" data-name="사각형 878" style="stroke:#326f5e;stroke-width:1.5px;fill:#fff" d="M0 0h9v9H0z"/>
                            </g>
                            <path id="패스_6896" data-name="패스 6896" class="cls-6" d="M1104.574 1132.941v9h9" transform="translate(.5 -.941)"/>
                        </g>
                    </g>
                    <path id="패스_11013" data-name="패스 11013" class="cls-7" d="M-10.028-7.669h-3.89v1.227h3.89v7.8h1.481v-14.032h-1.481zm-8.022-2.475h4.917v-1.226h-6.414v9.287h1.1a31.721 31.721 0 0 0 6.365-.464l-.166-1.215a30.034 30.034 0 0 1-5.8.442zM.707-4.508H4.9v-7.21H3.42V-9.3h-6.873v-2.414h-1.486v7.21h4.177v2.873H-6.4v1.222H6.414v-1.226H.707zM3.42-8.11v2.4h-6.873v-2.4zm14.16 9.436h1.492v-14H17.58zM8.249-11.166v1.182H13.4c-.293 3.265-2.1 5.79-5.829 7.558l.785 1.2c4.807-2.293 6.547-5.845 6.558-9.939zM-20.751 2h41.5v1h-41.5z" transform="translate(2395.094 -20194)"/>
                </g>
            </g>
            <path id="패스_11008" data-name="패스 11008" class="cls-3" d="M499.959 12.044V3.815h-2.992v21.348h2.992V14.572h3.149v-2.528zm-8.975-6.58h-2.992v3.191c-.008 3.961-1.715 8.039-5.32 9.7l1.831 2.428a10.307 10.307 0 0 0 5-6.215 9.73 9.73 0 0 0 4.715 5.8l1.807-2.378c-3.423-1.657-5.055-5.511-5.039-9.331zm24.091.572V3.8h-2.959v2.236h-7.3v2.4h17.511v-2.4zM513.6 16.569c4.591 0 7.351-1.293 7.359-3.638-.008-2.378-2.768-3.663-7.359-3.663s-7.367 1.285-7.359 3.663c-.009 2.345 2.759 3.638 7.359 3.638zm0-5.088c2.826 0 4.243.464 4.26 1.45-.017.961-1.434 1.425-4.26 1.417-2.851.008-4.26-.456-4.251-1.417-.009-.986 1.4-1.45 4.251-1.45zm-9.713 6.133v2.42h8.229v5.146h2.959v-5.147h8.32v-2.42zm37.923-13.8h-3.058v15.979h3.058v-6.97h2.59v-2.494h-2.594zm-5.7 9.149a35.464 35.464 0 0 0 .489-6.257V5.373h-10.991v2.436h8.055a28.5 28.5 0 0 1-.5 4.881zm1.492.878c-2.005.29-4.185.456-6.315.547V10.3h-2.975v4.185c-1.417.025-2.76.033-3.953.033l.257 2.378a76.835 76.835 0 0 0 13.135-.9zm-10.11 4.525v6.424h14.992v-2.412h-11.995v-4.011zm32.793 6.845h2.975V3.815h-2.975zm-10.669-11.377h7.036V5.613h-10.135v2.412h7.083v3.456h-7.069v8.735h1.914a57.731 57.731 0 0 0 10.566-.754l-.257-2.428a55.32 55.32 0 0 1-9.141.721z" transform="translate(30 36)"/>
        </g>
        <g id="fc_box_big_no_btn-8" data-name="fc_box_big_no_btn" transform="translate(407 2126)">
            <g transform="translate(-114 -1179)" style="filter:url(#box-10)">
                <g id="box-20" data-name="box" class="cls-2">
                    <path class="cls-11" d="M0 0h1108v130H0z" transform="translate(114 1179)"/>
                    <path class="cls-12" d="M1 1h1106v128H1z" transform="translate(114 1179)"/>
                </g>
            </g>
            <path id="패스_11001" data-name="패스 11001" class="cls-3" d="M428.588 6.028h-6.041V23h5.983c5.171 0 8.3-3.2 8.3-8.5-.004-5.29-3.13-8.472-8.242-8.472zm-2.519 13.948V9.052h2.331c3.207 0 4.906 1.666 4.906 5.445 0 3.8-1.7 5.478-4.923 5.478zm18.564-9.87c-3.381 0-5.3 1.74-5.5 3.953h3.29a1.925 1.925 0 0 1 2.13-1.409c1.285 0 2.014.613 2.022 1.691v1.028c-.53.017-2.254.091-3.157.149-2.445.157-4.732 1.077-4.732 3.928 0 2.511 1.807 3.8 4.235 3.8a3.906 3.906 0 0 0 3.721-2.006h.1V23h3.29v-8.577c-.004-3.067-2.623-4.323-5.399-4.323zm-.733 10.723c-1.111 0-1.9-.506-1.9-1.492s.762-1.55 1.972-1.649c.6-.058 2.1-.141 2.611-.166v.928a2.463 2.463 0 0 1-2.683 2.379zm14.287-.456c-.713-.025-1.21-.265-1.21-1.276v-6.216h2.4v-2.61h-2.4v-3.05h-3.472v3.05h-1.745v2.61h1.749v6.688c-.017 2.478 1.691 3.6 4.21 3.6a11.971 11.971 0 0 0 1.831-.124v-2.73c-.415.025-1.02.066-1.359.058zM466.9 10.1c-3.381 0-5.3 1.74-5.5 3.953h3.29a1.925 1.925 0 0 1 2.13-1.409c1.285 0 2.014.613 2.022 1.691v1.028c-.53.017-2.254.091-3.157.149-2.445.157-4.732 1.077-4.732 3.928 0 2.511 1.807 3.8 4.235 3.8a3.906 3.906 0 0 0 3.721-2.006h.1V23h3.29v-8.577c.001-3.067-2.622-4.323-5.399-4.323zm-.729 10.724c-1.111 0-1.9-.506-1.9-1.492s.762-1.55 1.972-1.649c.6-.058 2.1-.141 2.611-.166v.928a2.463 2.463 0 0 1-2.683 2.384zm22.3-4.218h3.671c-.05 2.138-1.5 3.5-3.9 3.5-2.71 0-4.442-2.022-4.442-5.61 0-3.564 1.782-5.577 4.4-5.577a3.488 3.488 0 0 1 3.6 2.577h3.588c-.472-3.348-3.423-5.7-7.251-5.7-4.475 0-7.914 3.232-7.914 8.735 0 5.37 3.224 8.7 7.989 8.7 4.276 0 7.334-2.71 7.334-7.169v-2.12h-7.077zm14.935-6.506c-3.381 0-5.3 1.74-5.5 3.953h3.29a1.925 1.925 0 0 1 2.13-1.409c1.285 0 2.014.613 2.022 1.691v1.028c-.53.017-2.254.091-3.157.149-2.445.157-4.732 1.077-4.732 3.928 0 2.511 1.807 3.8 4.235 3.8a3.906 3.906 0 0 0 3.721-2.006h.1V23h3.29v-8.577c-.005-3.067-2.623-4.323-5.399-4.323zm-.729 10.724c-1.111 0-1.9-.506-1.9-1.492s.762-1.55 1.972-1.649c.6-.058 2.1-.141 2.611-.166v.928a2.463 2.463 0 0 1-2.683 2.384zm12.232 6.945v-6.8h.108a3.777 3.777 0 0 0 3.622 2.238c2.909 0 5.171-2.3 5.171-6.555 0-4.359-2.354-6.547-5.171-6.547a3.753 3.753 0 0 0-3.622 2.3h-.157v-2.134h-3.423v17.5zm-.075-11.138c0-2.3.97-3.754 2.718-3.754 1.773 0 2.71 1.525 2.71 3.754 0 2.246-.953 3.8-2.71 3.8-1.732.008-2.718-1.508-2.718-3.796zM546.964 23 541.1 6.028h-4.533L530.7 23h3.779l1.276-3.912h6.157L543.185 23zm-8.2-13.144h.133l2.113 6.472h-4.359zm13.508 5.776a2.373 2.373 0 0 1 2.445-2.644 2.2 2.2 0 0 1 2.279 2.511V23h3.472v-8.1c0-2.975-1.732-4.79-4.384-4.79a3.843 3.843 0 0 0-3.829 2.4h-.155v-2.239h-3.3V23h3.472zm16.214-5.532c-3.381 0-5.3 1.74-5.5 3.953h3.29a1.925 1.925 0 0 1 2.13-1.409c1.285 0 2.014.613 2.022 1.691v1.028c-.53.017-2.254.091-3.157.149-2.445.157-4.732 1.077-4.732 3.928 0 2.511 1.807 3.8 4.235 3.8a3.906 3.906 0 0 0 3.721-2.006h.1V23h3.29v-8.577c-.004-3.067-2.623-4.323-5.399-4.323zm-.729 10.724c-1.111 0-1.9-.506-1.9-1.492s.762-1.55 1.972-1.649c.6-.058 2.1-.141 2.61-.166v.928a2.463 2.463 0 0 1-2.682 2.384zm8.76-14.8V23h3.472V6.028zm8.221 21.746a4.6 4.6 0 0 0 4.8-3.373l4.964-14.13h-3.671l-2.693 9.381H588l-2.669-9.381h-3.651l4.575 13.086-.2.539a1.481 1.481 0 0 1-1.674 1.16c-.431 0-.961-.008-1.4-.041l-.008 2.7a19.25 19.25 0 0 0 1.765.062zm21.978-13.715c-.182-2.428-2.171-3.953-5.4-3.953-3.273 0-5.37 1.525-5.362 3.97-.008 1.881 1.235 3.133 3.671 3.613l2.1.414c1.193.249 1.724.655 1.732 1.318-.008.82-.845 1.318-2.1 1.318-1.285 0-2.088-.514-2.262-1.508h-3.481c.282 2.486 2.3 4.019 5.743 4.019 3.381 0 5.627-1.674 5.635-4.177-.008-1.84-1.2-2.942-3.663-3.448l-2.3-.464c-1.193-.257-1.641-.7-1.633-1.285-.008-.762.845-1.293 1.972-1.293a1.887 1.887 0 0 1 2.088 1.475zm4.151-5.455a1.833 1.833 0 0 0 1.889-1.765 1.894 1.894 0 0 0-3.779 0 1.833 1.833 0 0 0 1.89 1.765zM612.6 23V10.271h-3.472V23zm13.227-8.942c-.182-2.428-2.171-3.953-5.4-3.953-3.273 0-5.37 1.525-5.362 3.97-.008 1.881 1.235 3.133 3.671 3.613l2.1.414c1.193.249 1.724.655 1.732 1.318-.008.82-.845 1.318-2.1 1.318-1.285 0-2.088-.514-2.262-1.508h-3.481c.282 2.486 2.3 4.019 5.743 4.019 3.381 0 5.627-1.674 5.635-4.177-.008-1.84-1.2-2.942-3.663-3.448l-2.3-.464c-1.193-.257-1.641-.7-1.633-1.285-.008-.762.845-1.293 1.972-1.293a1.887 1.887 0 0 1 2.088 1.475z" transform="translate(30 36)"/>
            <g id="fc_textlink-4" data-name="fc_textlink" transform="translate(671 79)">
                <g id="stack-4" data-name="stack" transform="translate(-2524.094 20210)">
                    <g id="ico_fc_go_tab-3" data-name="ico_fc_go_tab" transform="translate(2419.596 -20209)">
                        <path id="패스_7163-3" data-name="패스 7163" class="cls-6" d="m8.62 5.071 5 5-5 5" transform="translate(-2.62 -.072)"/>
                    </g>
                    <path id="패스_11010" data-name="패스 11010" class="cls-7" d="M-10.028-7.669h-3.89v1.227h3.89v7.8h1.481v-14.032h-1.481zm-8.022-2.475h4.917v-1.226h-6.414v9.287h1.1a31.721 31.721 0 0 0 6.365-.464l-.166-1.215a30.034 30.034 0 0 1-5.8.442zM.707-4.508H4.9v-7.21H3.42V-9.3h-6.873v-2.414h-1.486v7.21h4.177v2.873H-6.4v1.222H6.414v-1.226H.707zM3.42-8.11v2.4h-6.873v-2.4zm14.16 9.436h1.492v-14H17.58zM8.249-11.166v1.182H13.4c-.293 3.265-2.1 5.79-5.829 7.558l.785 1.2c4.807-2.293 6.547-5.845 6.558-9.939zM-20.751 2h41.5v1h-41.5z" transform="translate(2395.094 -20194)"/>
                </g>
            </g>
        </g>
    </g>
    <g id="fc_line" transform="translate(-293 -947)">
        <path id="세로" class="cls-9" transform="translate(1246 1896)" d="M0 0h1v50H0z"/>
        <path id="세로-2" data-name="세로" class="cls-9" transform="translate(961 1666)" d="M0 0h1v50H0z"/>
        <path id="사각형_514" data-name="사각형 514" class="cls-9" transform="translate(676 1716)" d="M0 0h571v1H0z"/>
        <path id="세로-3" data-name="세로" class="cls-9" transform="translate(1246 1717)" d="M0 0h1v49H0z"/>
        <path id="세로-4" data-name="세로" class="cls-9" transform="translate(961 1356)" d="M0 0h1v50H0z"/>
        <path id="세로-5" data-name="세로" class="cls-9" transform="translate(961 1177)" d="M0 0h1v50H0z"/>
        <path id="세로-6" data-name="세로" class="cls-9" transform="translate(1246 2076)" d="M0 0h1v50H0z"/>
        <path id="세로-7" data-name="세로" class="cls-9" transform="translate(676 1717)" d="M0 0h1v409H0z"/>
        <path id="세로-8" data-name="세로" class="cls-9" transform="translate(961 2256)" d="M0 0h1v50H0z"/>
        <path id="세로-9" data-name="세로" class="cls-9" transform="translate(961 2436)" d="M0 0h1v50H0z"/>
        <path id="세로-10" data-name="세로" class="cls-9" transform="translate(961 2616)" d="M0 0h1v50H0z"/>
        <path id="세로-11" data-name="세로" class="cls-9" transform="translate(961 2796)" d="M0 0h1v50H0z"/>
        <path id="세로-12" data-name="세로" class="cls-9" transform="translate(961 2976)" d="M0 0h1v50H0z"/>
        <path id="세로-13" data-name="세로" class="cls-9" transform="translate(961 3156)" d="M0 0h1v50H0z"/>
        <path id="세로-14" data-name="세로" class="cls-9" transform="translate(961 3336)" d="M0 0h1v50H0z"/>
        <path id="패스_7154" data-name="패스 7154" d="M1527.279 2910.74h57v-180h-57" transform="translate(-12.279 .26)" style="fill:none;stroke:#999"/>
        <path id="다각형_140" data-name="다각형 140" class="cls-9" d="M7.5 0 15 11H0z" transform="rotate(180 484.5 616.5)"/>
        <path id="다각형_141" data-name="다각형 141" class="cls-9" d="M7.5 0 15 11H0z" transform="rotate(180 484.5 706.5)"/>
        <path id="다각형_142" data-name="다각형 142" class="cls-9" d="M7.5 0 15 11H0z" transform="rotate(180 484.5 1156)"/>
        <path id="다각형_143" data-name="다각형 143" class="cls-9" d="M7.5 0 15 11H0z" transform="rotate(180 484.5 1246)"/>
        <path id="다각형_144" data-name="다각형 144" class="cls-9" d="M7.5 0 15 11H0z" transform="rotate(180 484.5 1336)"/>
        <path id="다각형_145" data-name="다각형 145" class="cls-9" d="M7.5 0 15 11H0z" transform="rotate(180 484.5 1426)"/>
        <path id="다각형_146" data-name="다각형 146" class="cls-9" d="M7.5 0 15 11H0z" transform="rotate(180 484.5 1516)"/>
        <path id="다각형_147" data-name="다각형 147" class="cls-9" d="M7.5 0 15 11H0z" transform="rotate(180 484.5 1606)"/>
        <path id="다각형_148" data-name="다각형 148" class="cls-9" d="M7.5 0 15 11H0z" transform="rotate(180 484.5 1696)"/>
        <path id="다각형_149" data-name="다각형 149" class="cls-9" d="M7.5 0 15 11H0z" transform="rotate(-90 2124 615)"/>
        <path id="다각형_150" data-name="다각형 150" class="cls-9" d="M7.5 0 15 11H0z" transform="rotate(180 627 1066)"/>
        <path id="다각형_193" data-name="다각형 193" class="cls-9" d="M7.5 0 15 11H0z" transform="rotate(180 342 1066)"/>
        <path id="다각형_151" data-name="다각형 151" class="cls-9" d="M7.5 0 15 11H0z" transform="rotate(180 627 976)"/>
        <path id="다각형_152" data-name="다각형 152" class="cls-9" d="M7.5 0 15 11H0z" transform="rotate(180 627 886)"/>
    </g>
    <g id="fc_yes" transform="translate(288 360)">
        <g id="fc_yes-2" data-name="fc_yes" transform="translate(486.785 399.492)">
            <path id="사각형_515" data-name="사각형 515" class="cls-1" d="M0 0h74.464v21.967H0z"/>
            <path id="패스_10997" data-name="패스 10997" class="cls-3" d="M-16.243-7.177a13.149 13.149 0 0 0 .409-3.8v-1.166h-9.928v1.564h7.928a12.579 12.579 0 0 1-.366 3.214zM-20.4-8.928h-1.972v2.5h-4.84v1.608H-14.3v-1.611h-6.1zm-.436 5c-3.083.006-5.072.989-5.072 2.691 0 1.68 1.989 2.68 5.072 2.674 3.1.006 5.066-.994 5.077-2.674-.014-1.702-1.976-2.686-5.081-2.691zm0 3.851c-1.956-.006-3.083-.387-3.072-1.16-.011-.785 1.116-1.2 3.072-1.2s3.094.42 3.1 1.2-1.148 1.154-3.104 1.16zm14.912-7.21H-1.9v-1.564h-7.95V-10.6h7.878v-1.552h-9.868v4.867h3.956v1.215h-5.525v1.58H-.414v-1.58h-5.514zm-1.022 3.5c-3.1 0-4.978.939-4.978 2.63 0 1.663 1.873 2.608 4.978 2.613 3.088-.006 4.945-.95 4.956-2.613-.016-1.688-1.872-2.628-4.96-2.628zm0 3.718c-1.971.008-2.96-.345-2.954-1.086-.011-.735.978-1.11 2.945-1.11 1.934 0 2.95.376 2.956 1.11S-5.017-.061-6.95-.066zm10.934-8.8V-10.8h7.878v-1.6H1.994v5.122h9.939v-1.584zM.425-4.657H13.42v-1.625H.425zm6.459.857c-3.1 0-4.978.939-4.978 2.608 0 1.685 1.873 2.635 4.978 2.63 3.088.006 4.945-.945 4.956-2.63C11.829-2.862 9.972-3.8 6.884-3.8zm0 3.724c-1.967-.007-2.956-.36-2.945-1.117-.011-.718.978-1.088 2.945-1.094 1.934.006 2.95.376 2.956 1.094-.006.757-1.022 1.11-2.956 1.116zm14.851-6.11h4.2v-1.53h-8.09v-.945h7.835v-3.845h-9.84v1.541h7.84v.867h-7.818v3.912h3.9v1.033h-5.519v1.591h13.006v-1.593h-5.514zm2.011 5v2.562h2.011v-4.133H15.7v1.569z" transform="translate(37.215 16.508)"/>
        </g>
    </g>
    <g id="fc_yes-3" data-name="fc_yes" transform="translate(1 359)">
        <g id="fc_yes-4" data-name="fc_yes" transform="translate(486.58 399.21)">
            <path id="사각형_515-2" data-name="사각형 515" class="cls-1" d="M0 0h74.669v22.232H0z"/>
            <path id="패스_10998" data-name="패스 10998" class="cls-3" d="M-16.9-7.4h-1.3v-5.017h-1.851V.807h1.851V-5.8h1.3v7.242h1.917V-12.79H-16.9zm-9.8-3.63v1.6h3.691a7.959 7.959 0 0 1-4.411 6.563l1.149 1.381c4.017-2.326 5.2-5.575 5.2-9.541zm23.286 4.141v1.425h1.983v-7.326h-1.983v1.818h-2.619v-1.2h-1.973v1.669h-2.8v-1.669h-2v6.3h6.773v-1.017zm0-1.508h-2.619v-1.089h2.619zm-7.392.961v-1.57h2.8v1.569zm1.928 6.3h7.448v-3.8h-9.47V-3.4h7.481v.8h-7.464v3.882h9.867V-.287h-7.862zM3.983-8.862V-10.8h7.878v-1.6H1.994v5.122h9.939v-1.584zM.425-4.657H13.42v-1.625H.425zm6.459.857c-3.1 0-4.978.939-4.978 2.608 0 1.685 1.873 2.635 4.978 2.63 3.088.006 4.945-.945 4.956-2.63C11.829-2.862 9.972-3.8 6.884-3.8zm0 3.724c-1.967-.007-2.956-.36-2.945-1.117-.011-.718.978-1.088 2.945-1.094 1.934.006 2.95.376 2.956 1.094-.006.757-1.022 1.11-2.956 1.116zm14.851-6.11h4.2v-1.53h-8.09v-.945h7.835v-3.845h-9.84v1.541h7.84v.867h-7.818v3.912h3.9v1.033h-5.519v1.591h13.006v-1.593h-5.514zm2.011 5v2.562h2.011v-4.133H15.7v1.569z" transform="translate(37.42 16.79)"/>
        </g>
    </g>
    <g id="fc_yes-5" data-name="fc_yes" transform="translate(755 1451)">
        <g id="fc_yes-6" data-name="fc_yes" transform="translate(486.757 400.685)">
            <path id="사각형_515-3" data-name="사각형 515" class="cls-1" d="M0 0h73.525v44.751H0z"/>
            <path id="패스_11009" data-name="패스 11009" class="cls-3" d="M-9.511-11.315v7.182h-.1l-4.934-7.182h-2.065V0h2.348v-7.188h.083L-9.207 0h2.033v-11.315zm4.249 0V0h2.348v-11.315zM6.61 0v-1.945H1.345v-2.746H6.2V-6.63H1.345v-2.74h5.243v-1.945H-1V0zm10.7 0L14.9-4.4a3.257 3.257 0 0 0 2-3.227c0-2.232-1.475-3.685-4.05-3.685H8.417V0h2.348v-4.022h1.79L14.7 0zm-4.9-9.387c1.4 0 2.072.624 2.072 1.757s-.674 1.707-2.066 1.707h-1.651v-3.464zm-32.2 28.917h4.1v-7.408h-1.989v2.215h-6.2v-2.215h-2v7.408h4.11v2.635h-5.486v1.619h13.006v-1.618h-5.547zm2.116-3.613v2.022h-6.2v-2.022zm15.624-4.685h-1.989v10.851h1.994v-4.718h1.824v-1.658h-1.823zm-2.79 6.956a42.303 42.303 0 0 1-3.271.32v-1.044a2.929 2.929 0 0 0 2.558-2.773c-.011-1.718-1.508-2.89-3.586-2.89s-3.586 1.171-3.575 2.89a2.9 2.9 0 0 0 2.6 2.785V18.6c-1.21.039-2.359.044-3.348.044l.21 1.58a50.362 50.362 0 0 0 8.558-.586zm-6.022-3.5c-.011-.89.713-1.381 1.724-1.387s1.707.5 1.713 1.387c-.006.862-.691 1.37-1.713 1.37s-1.729-.506-1.718-1.367zm-.718 6.436v4.05h10.028v-1.6h-8.012v-2.447zm22.116-2.5a3.337 3.337 0 0 0 1.718-2.9c0-2.3-2.276-3.818-5.359-3.818s-5.337 1.519-5.331 3.818a3.34 3.34 0 0 0 1.757 2.928v3.492H.425v1.624h13.006v-1.619h-2.89zM6.9 13.486c2.017-.011 3.387.818 3.392 2.243-.006 1.4-1.376 2.254-3.392 2.26-2.033-.006-3.37-.862-3.37-2.26 0-1.429 1.337-2.254 3.37-2.243zm-1.6 5.9a8.262 8.262 0 0 0 1.6.149 8.918 8.918 0 0 0 1.624-.149v2.768H5.3zm13.238-2.508a5.245 5.245 0 0 0 3.4 2.464l.934-1.536c-2.287-.591-3.359-2.072-3.376-3.53h2.862V12.7h-2.84v-1.54h-2.01v1.54h-2.862v1.569h2.862a4.145 4.145 0 0 1-3.348 3.878l.934 1.558a5.25 5.25 0 0 0 3.442-2.832zm3.4-.243h2.315v3.188h1.989V11.21h-1.988v3.823h-2.315zm-.558 3.425c-3.017 0-4.889.961-4.884 2.669s1.867 2.718 4.884 2.713 4.9-.994 4.9-2.713-1.871-2.674-4.899-2.674zm0 3.867c-1.884-.006-2.906-.42-2.9-1.2-.006-.762 1.017-1.149 2.9-1.144 1.923-.006 2.917.381 2.923 1.144-.003.773-1.003 1.19-2.922 1.196z" transform="translate(37.243 15.315)"/>
        </g>
    </g>
</svg>
