<svg id="ico_field_02_240" xmlns="http://www.w3.org/2000/svg" width="240" height="240" viewBox="0 0 240 240">
    <defs>
        <style>
            .cls-2{fill:#111}
        </style>
    </defs>
    <g id="그룹_830" data-name="그룹 830">
        <g id="그룹_848" data-name="그룹 848" transform="translate(41.25 42.37)">
            <path id="패스_332" data-name="패스 332" class="cls-2" d="m69.254 106.169-.01-2a46.885 46.885 0 0 0 4.885-.27l.215 1.99a48.085 48.085 0 0 1-5.09.28m-5.09-.24a50 50 0 0 1-5.035-.765l.4-1.965a44.957 44.957 0 0 0 4.83.74zm15.215-.86-.42-1.95a46.517 46.517 0 0 0 4.725-1.28l.625 1.9a48.262 48.262 0 0 1-4.93 1.325m-25.195-1.21a48.051 48.051 0 0 1-4.775-1.8l.8-1.835a44.669 44.669 0 0 0 4.58 1.73zm34.88-1.96-.82-1.83a44.538 44.538 0 0 0 4.35-2.23l1 1.73a50.328 50.328 0 0 1-4.535 2.33m-44.21-2.14A48.982 48.982 0 0 1 40.569 97l1.16-1.63c1.345.96 2.73 1.85 4.12 2.645zm53.01-2.98-1.185-1.62a45.133 45.133 0 0 0 3.8-3.085l1.34 1.485a49.011 49.011 0 0 1-3.955 3.22m-61.28-2.97a50.043 50.043 0 0 1-3.63-3.58l1.475-1.35a48.059 48.059 0 0 0 3.48 3.44zm68.84-3.87-1.49-1.33a48.8 48.8 0 0 0 3.075-3.81l1.62 1.18a49.766 49.766 0 0 1-3.205 3.96m-75.7-3.655a49.331 49.331 0 0 1-2.81-4.26l1.73-1.01a45.956 45.956 0 0 0 2.69 4.08zM111.4 81.7l-1.73-1.005a44.5 44.5 0 0 0 2.22-4.355l1.83.81a47.387 47.387 0 0 1-2.32 4.55m-86.836-4.2a49.908 49.908 0 0 1-1.86-4.75l1.895-.63a47.218 47.218 0 0 0 1.79 4.555zm90.98-5.11-1.9-.62a45.632 45.632 0 0 0 1.265-4.73l1.95.415a48.656 48.656 0 0 1-1.31 4.935m-94.2-4.56a51.68 51.68 0 0 1-.83-5.03l1.99-.22a46.193 46.193 0 0 0 .791 4.82zm96.3-5.415-1.995-.205a46.87 46.87 0 0 0 .255-4.885c.005-.265.005-.5 0-.74l2-.04c.005.265.005.525 0 .8a49.259 49.259 0 0 1-.26 5.07M22.214 57.7h-2.005v-.375c0-1.58.08-3.165.225-4.71l2 .19c-.145 1.48-.215 3-.215 4.52zm93.365-6a47.543 47.543 0 0 0-.835-4.82l1.95-.445a48.794 48.794 0 0 1 .865 5.025zm-92.43-3.735-1.96-.4a46.286 46.286 0 0 1 1.28-4.94l1.9.6a47.718 47.718 0 0 0-1.22 4.735m90.255-5.79a45.712 45.712 0 0 0-1.82-4.54l1.815-.84a49.638 49.638 0 0 1 1.9 4.73zm-87.325-3.521-1.835-.8a49.786 49.786 0 0 1 2.28-4.565l1.74.985a48.285 48.285 0 0 0-2.185 4.38m83.215-5.335a47.589 47.589 0 0 0-2.725-4.065l1.6-1.195a49.959 49.959 0 0 1 2.845 4.23zm-78.4-3.17-1.63-1.165a47.11 47.11 0 0 1 3.18-3.99l1.49 1.32a49.399 49.399 0 0 0-3.04 3.835m72.53-4.655a47.065 47.065 0 0 0-3.5-3.41l1.315-1.5a48.349 48.349 0 0 1 3.66 3.56zm-66.06-2.67-1.355-1.475a50.351 50.351 0 0 1 3.93-3.25l1.19 1.61a47.1 47.1 0 0 0-3.765 3.115m58.72-3.765a48.1 48.1 0 0 0-4.135-2.615l.975-1.745a49.531 49.531 0 0 1 4.315 2.73zm-50.88-2.065-1.015-1.72a48.588 48.588 0 0 1 4.52-2.365l.83 1.82a47.7 47.7 0 0 0-4.335 2.265m42.355-2.72a46.4 46.4 0 0 0-4.59-1.7l.6-1.91a47.393 47.393 0 0 1 4.785 1.77zm-33.47-1.355-.645-1.9a48.783 48.783 0 0 1 4.91-1.375L58.8 11.6a45.679 45.679 0 0 0-4.705 1.315m24.14-1.54a45.948 45.948 0 0 0-4.845-.7l.185-1.995a49.914 49.914 0 0 1 5.05.73zm-14.61-.59L63.389 8.8a48.22 48.22 0 0 1 5.09-.325l.02 2a45.409 45.409 0 0 0-4.875.31" transform="translate(39.586 -8.474)"/>
            <path id="패스_333" data-name="패스 333" class="cls-2" d="m57.295 117.009-.01-2a46.885 46.885 0 0 0 4.885-.27l.215 1.995a49.444 49.444 0 0 1-5.09.275m-5.095-.24a50 50 0 0 1-5.035-.769l.4-1.965a44.957 44.957 0 0 0 4.83.74zm15.215-.85-.42-1.95a47.862 47.862 0 0 0 4.725-1.28l.625 1.9a48.27 48.27 0 0 1-4.93 1.325M42.22 114.7a48.055 48.055 0 0 1-4.775-1.8l.8-1.835a44.673 44.673 0 0 0 4.58 1.73zm34.875-1.955-.82-1.83a44.531 44.531 0 0 0 4.35-2.23l1.005 1.73a49.671 49.671 0 0 1-4.535 2.33M32.89 110.6c-1.45-.83-2.89-1.76-4.285-2.755l1.16-1.63c1.345.96 2.73 1.85 4.12 2.645zm53.01-2.98L84.715 106a45.13 45.13 0 0 0 3.8-3.085l1.34 1.485a49.011 49.011 0 0 1-3.955 3.22m-61.275-2.975a50.041 50.041 0 0 1-3.63-3.58l1.475-1.35a48.055 48.055 0 0 0 3.48 3.44zm68.83-3.86-1.48-1.34a48.768 48.768 0 0 0 3.07-3.8l1.62 1.17a48 48 0 0 1-3.21 3.97m-75.7-3.66a50.92 50.92 0 0 1-2.81-4.26l1.73-1.015a45.237 45.237 0 0 0 2.69 4.08zm81.68-4.585-1.73-1.01a45.671 45.671 0 0 0 2.22-4.355l1.83.81a47.522 47.522 0 0 1-2.32 4.555M12.6 88.344a49.48 49.48 0 0 1-1.86-4.755l1.895-.625a46.631 46.631 0 0 0 1.79 4.55zm90.98-5.115-1.9-.615a46.221 46.221 0 0 0 1.265-4.725l1.955.41a49.563 49.563 0 0 1-1.315 4.93m-94.2-4.555a49.355 49.355 0 0 1-.83-5.035l1.99-.225a47.416 47.416 0 0 0 .8 4.83zm96.305-5.415-1.995-.2a48.732 48.732 0 0 0 .25-4.885l-.005-.735 2-.04v.775c0 1.68-.085 3.39-.255 5.09m-95.425-4.72H8.255L8.25 68.2c0-1.62.08-3.205.225-4.75l2 .195c-.145 1.48-.215 3-.215 4.52zm93.355-5.995a47.543 47.543 0 0 0-.835-4.82l1.95-.44a47.263 47.263 0 0 1 .865 5.025zm-92.425-3.74L9.23 58.4a48.12 48.12 0 0 1 1.28-4.94l1.9.6a46.427 46.427 0 0 0-1.22 4.74m90.255-5.78a45 45 0 0 0-1.82-4.54l1.815-.84a47.218 47.218 0 0 1 1.9 4.735zm-87.32-3.54-1.835-.8a49.08 49.08 0 0 1 2.28-4.56l1.74.98a47.646 47.646 0 0 0-2.185 4.38m83.21-5.325A48.39 48.39 0 0 0 94.61 40.1l1.6-1.2a51.622 51.622 0 0 1 2.845 4.23zM18.94 40.984l-1.63-1.16a48.277 48.277 0 0 1 3.19-3.995l1.49 1.325a48.018 48.018 0 0 0-3.045 3.83m72.535-4.64a46.08 46.08 0 0 0-3.5-3.415l1.315-1.5a50.24 50.24 0 0 1 3.66 3.56zm-66.06-2.685-1.36-1.475a50.354 50.354 0 0 1 3.93-3.25l1.19 1.61a47.1 47.1 0 0 0-3.765 3.115M84.13 29.9c-1.32-.93-2.71-1.81-4.135-2.615l.975-1.74a48.323 48.323 0 0 1 4.315 2.725zm-50.88-2.07-1.015-1.72a48.587 48.587 0 0 1 4.52-2.365l.83 1.82a47.7 47.7 0 0 0-4.335 2.265m42.36-2.715c-1.5-.64-3.04-1.21-4.59-1.7l.6-1.9a49.076 49.076 0 0 1 4.78 1.764zm-33.47-1.356-.64-1.895a48.786 48.786 0 0 1 4.91-1.375l.44 1.955a45.677 45.677 0 0 0-4.705 1.315m24.14-1.54a45.947 45.947 0 0 0-4.845-.7l.185-2a49.916 49.916 0 0 1 5.05.73zm-14.615-.59-.225-1.985a47.059 47.059 0 0 1 5.085-.32l.02 2a45.82 45.82 0 0 0-4.88.305" transform="translate(-8.25 34.927)"/>
            <path id="패스_334" data-name="패스 334" class="cls-2" d="m69.254 117.014-.01-2a46.893 46.893 0 0 0 4.885-.27l.215 1.99a48.085 48.085 0 0 1-5.09.28m-5.09-.24a50 50 0 0 1-5.035-.765l.4-1.965a44.964 44.964 0 0 0 4.83.74zm15.215-.86-.42-1.95a46.513 46.513 0 0 0 4.725-1.28l.625 1.9a48.262 48.262 0 0 1-4.93 1.325M54.184 114.7a48.055 48.055 0 0 1-4.775-1.8l.8-1.835a44.672 44.672 0 0 0 4.58 1.73zm34.88-1.96-.82-1.83a44.535 44.535 0 0 0 4.35-2.23l1 1.73a50.324 50.324 0 0 1-4.535 2.33m-44.21-2.14c-1.45-.83-2.89-1.76-4.285-2.755l1.16-1.63c1.345.96 2.73 1.85 4.12 2.645zm53.01-2.98-1.18-1.62a45.127 45.127 0 0 0 3.8-3.085l1.34 1.485a49.014 49.014 0 0 1-3.955 3.22m-61.28-2.97a50.04 50.04 0 0 1-3.63-3.58l1.475-1.35a48.052 48.052 0 0 0 3.48 3.44zm68.835-3.865-1.48-1.34a48.77 48.77 0 0 0 3.07-3.8l1.62 1.17a48 48 0 0 1-3.21 3.97m-75.7-3.655a50.923 50.923 0 0 1-2.81-4.26l1.73-1.015a45.238 45.238 0 0 0 2.69 4.08zm81.68-4.585-1.73-1.01a45.673 45.673 0 0 0 2.22-4.355l1.83.81a47.518 47.518 0 0 1-2.32 4.555m-86.835-4.2a49.478 49.478 0 0 1-1.86-4.755l1.895-.625a46.627 46.627 0 0 0 1.79 4.55zm90.98-5.12-1.9-.615a46.221 46.221 0 0 0 1.265-4.725l1.95.41a48.214 48.214 0 0 1-1.31 4.93m-94.2-4.55a49.359 49.359 0 0 1-.83-5.035l1.99-.225a46.068 46.068 0 0 0 .795 4.83zm96.3-5.42-1.995-.2a46.871 46.871 0 0 0 .255-4.885l-.01-.74 2-.04.01.76a49.459 49.459 0 0 1-.26 5.11m-95.435-4.716h-2.005v-.375c0-1.585.08-3.17.225-4.71l2 .2a46.363 46.363 0 0 0-.215 4.515zm93.36-6a47.543 47.543 0 0 0-.835-4.82l1.95-.44a47.266 47.266 0 0 1 .865 5.025zm-92.425-3.73-1.96-.4a48.124 48.124 0 0 1 1.28-4.94l1.9.6a46.429 46.429 0 0 0-1.22 4.74m90.26-5.795a45 45 0 0 0-1.82-4.54l1.815-.84a47.219 47.219 0 0 1 1.9 4.735zm-87.33-3.53-1.835-.8a49.079 49.079 0 0 1 2.28-4.56l1.74.98a47.649 47.649 0 0 0-2.185 4.38m83.215-5.33a48.391 48.391 0 0 0-2.725-4.065l1.6-1.195a51.622 51.622 0 0 1 2.845 4.23zm-78.4-3.17-1.63-1.165a47.113 47.113 0 0 1 3.18-3.99l1.49 1.32a49.399 49.399 0 0 0-3.04 3.835m72.535-4.65a47.059 47.059 0 0 0-3.5-3.41l1.315-1.5a48.343 48.343 0 0 1 3.66 3.56zm-66.06-2.675-1.355-1.475a49.25 49.25 0 0 1 3.93-3.25l1.19 1.605a46.122 46.122 0 0 0-3.765 3.12m58.72-3.764a48.1 48.1 0 0 0-4.135-2.615l.975-1.745a49.531 49.531 0 0 1 4.315 2.73zM45.2 27.834l-1.015-1.72a47.417 47.417 0 0 1 4.52-2.365l.83 1.815a47.753 47.753 0 0 0-4.335 2.27m42.365-2.72c-1.5-.64-3.04-1.21-4.59-1.7l.6-1.9a49.078 49.078 0 0 1 4.785 1.765zm-33.471-1.355-.645-1.895a48.785 48.785 0 0 1 4.91-1.375l.44 1.955a45.679 45.679 0 0 0-4.705 1.315m24.145-1.54a45.946 45.946 0 0 0-4.845-.7l.185-2a49.916 49.916 0 0 1 5.05.73zm-14.615-.59-.224-1.985a47.059 47.059 0 0 1 5.085-.32l.02 2a45.819 45.819 0 0 0-4.88.305" transform="translate(39.586 34.927)"/>
            <path id="패스_335" data-name="패스 335" class="cls-2" d="M57.1 106.169a48.848 48.848 0 1 1 48.85-48.845 48.906 48.906 0 0 1-48.85 48.845m0-95.7a46.848 46.848 0 1 0 46.845 46.85A46.9 46.9 0 0 0 57.1 10.474" transform="translate(-8.25 -8.474)"/>
        </g>
        <path id="사각형_632" data-name="사각형 632" style="fill:none" d="M0 0h240v240H0z"/>
    </g>
</svg>
