<svg id="ico_field_03_120" xmlns="http://www.w3.org/2000/svg" width="120" height="120" viewBox="0 0 120 120">
    <defs>
        <clipPath id="clip-path">
            <path id="사각형_634" data-name="사각형 634" style="fill:none" d="M0 0h120v120H0z"/>
        </clipPath>
        <style>
            .cls-4{fill:#231815}
        </style>
    </defs>
    <g id="그룹_833" data-name="그룹 833">
        <g id="그룹_832" data-name="그룹 832" style="clip-path:url(#clip-path)">
            <path id="패스_336" data-name="패스 336" d="M32.484 46.22a13.846 13.846 0 1 1 13.847-13.847A13.864 13.864 0 0 1 32.484 46.22m0-26.692a12.846 12.846 0 1 0 12.847 12.845 12.86 12.86 0 0 0-12.847-12.845" transform="translate(27.954 27.792)"/>
            <path id="패스_337" data-name="패스 337" d="M28.3 22.689a7.166 7.166 0 1 1 7.165-7.165 7.175 7.175 0 0 1-7.165 7.165m0-13.332a6.166 6.166 0 1 0 6.165 6.167A6.174 6.174 0 0 0 28.3 9.357" transform="translate(31.7 12.535)"/>
            <path id="패스_338" data-name="패스 338" class="cls-4" d="M37.636 26.692a7.256 7.256 0 0 1-1.647-.19l.23-.975a6.227 6.227 0 0 0 2.3.1l.143.99a7.257 7.257 0 0 1-1.02.073m3.547-.937-.495-.87a6.15 6.15 0 0 0 1.753-1.49l.775.628a7.123 7.123 0 0 1-2.033 1.732m-7.635-.34a7.144 7.144 0 0 1-1.87-1.908l.83-.555a6.2 6.2 0 0 0 1.61 1.64zm10.928-3.748-.953-.3a6.15 6.15 0 0 0 .278-1.842c0-.145 0-.292-.013-.435l1-.08c.015.173.02.343.02.515a7.089 7.089 0 0 1-.327 2.142m-13.845-.615a7.2 7.2 0 0 1-.165-1.528 7.03 7.03 0 0 1 .1-1.145l.985.16a6.486 6.486 0 0 0-.077.985 6 6 0 0 0 .14 1.312zM43.2 16.862a6.13 6.13 0 0 0-1.362-1.85l.685-.732a7.249 7.249 0 0 1 1.577 2.154zm-10.867-.485-.86-.51a7.125 7.125 0 0 1 1.768-2l.615.79a6.15 6.15 0 0 0-1.522 1.722m7.563-2.592a6.241 6.241 0 0 0-4-.177l-.283-.963a7.215 7.215 0 0 1 4.645.21z" transform="translate(45.699 18.536)"/>
            <path id="패스_339" data-name="패스 339" d="M41.19 35.579a7.166 7.166 0 1 1 7.167-7.168 7.175 7.175 0 0 1-7.167 7.168m0-13.333a6.166 6.166 0 1 0 6.167 6.165 6.173 6.173 0 0 0-6.167-6.165" transform="translate(51.033 31.869)"/>
            <path id="패스_340" data-name="패스 340" class="cls-4" d="M37.2 44.466a7.161 7.161 0 0 1-1.652-.19l.225-.972a6.312 6.312 0 0 0 2.3.1l.142.993a8.016 8.016 0 0 1-1.015.072m3.54-.94-.495-.87a6.222 6.222 0 0 0 1.752-1.488l.775.63a7.151 7.151 0 0 1-2.032 1.728m-7.64-.346a7.163 7.163 0 0 1-1.87-1.9l.83-.558a6.128 6.128 0 0 0 1.61 1.64zm10.927-3.742-.952-.3a6.254 6.254 0 0 0 .28-1.845c0-.15 0-.293-.012-.437l1-.078c.015.168.02.343.02.515a7.085 7.085 0 0 1-.33 2.143m-13.842-.618a7.161 7.161 0 0 1-.165-1.525 7.014 7.014 0 0 1 .1-1.148l.985.16a6.47 6.47 0 0 0-.077.988 5.975 5.975 0 0 0 .14 1.31zm12.567-4.187a6.13 6.13 0 0 0-1.362-1.85l.685-.732a7.217 7.217 0 0 1 1.583 2.155zm-10.867-.485-.86-.508a7.08 7.08 0 0 1 1.77-2l.61.793a6.14 6.14 0 0 0-1.52 1.72m7.562-2.59a6.255 6.255 0 0 0-4-.177l-.278-.963a7.262 7.262 0 0 1 4.643.208z" transform="translate(45.032 45.204)"/>
            <path id="패스_341" data-name="패스 341" d="M28.3 48.023a7.166 7.166 0 1 1 7.165-7.167 7.175 7.175 0 0 1-7.165 7.167m0-13.332a6.166 6.166 0 1 0 6.165 6.165 6.173 6.173 0 0 0-6.165-6.165" transform="translate(31.7 50.536)"/>
            <path id="패스_342" data-name="패스 342" class="cls-4" d="M19.417 44.466a7.161 7.161 0 0 1-1.653-.19l.23-.972a6.278 6.278 0 0 0 2.295.1l.143.993a8.016 8.016 0 0 1-1.015.072m3.545-.94-.495-.87a6.153 6.153 0 0 0 1.75-1.488l.775.63a7.157 7.157 0 0 1-2.03 1.728m-7.638-.343a7.163 7.163 0 0 1-1.87-1.9l.83-.558a6.128 6.128 0 0 0 1.61 1.64zm10.928-3.742-.952-.3a6.19 6.19 0 0 0 .277-1.845c0-.147 0-.29-.012-.435l.995-.077c.015.167.02.342.02.512a7.113 7.113 0 0 1-.327 2.143m-13.842-.622a7.463 7.463 0 0 1-.165-1.518 7.022 7.022 0 0 1 .095-1.15l.985.16a6.469 6.469 0 0 0-.077.988 6.332 6.332 0 0 0 .14 1.31zm12.567-4.18a6.129 6.129 0 0 0-1.365-1.853l.685-.732a7.257 7.257 0 0 1 1.585 2.153zm-10.868-.487-.86-.508a7.079 7.079 0 0 1 1.77-2l.61.793a6.14 6.14 0 0 0-1.52 1.72m7.56-2.59a6.229 6.229 0 0 0-4-.177l-.278-.963a7.255 7.255 0 0 1 4.64.208z" transform="translate(18.366 45.204)"/>
            <path id="패스_343" data-name="패스 343" d="M15.856 35.579a7.166 7.166 0 1 1 7.165-7.168 7.175 7.175 0 0 1-7.165 7.168m0-13.333a6.166 6.166 0 1 0 6.165 6.165 6.173 6.173 0 0 0-6.165-6.165" transform="translate(13.034 31.869)"/>
            <path id="패스_344" data-name="패스 344" class="cls-4" d="M19.411 26.246a7.256 7.256 0 0 1-1.648-.19l.23-.975a6.23 6.23 0 0 0 2.295.1l.143.99a7.257 7.257 0 0 1-1.02.072m3.552-.937-.5-.868a6.281 6.281 0 0 0 1.753-1.493l.775.628a7.182 7.182 0 0 1-2.028 1.732m-7.64-.34a7.144 7.144 0 0 1-1.87-1.908l.83-.555a6.2 6.2 0 0 0 1.61 1.64zm10.928-3.748-.952-.3a6.15 6.15 0 0 0 .277-1.842c0-.148 0-.293-.012-.437l.995-.078c.015.17.02.343.02.515a7.089 7.089 0 0 1-.327 2.142M12.409 20.6a7.161 7.161 0 0 1-.165-1.525 7.03 7.03 0 0 1 .095-1.145l.985.16a6.487 6.487 0 0 0-.077.985 5.975 5.975 0 0 0 .14 1.31zm12.567-4.187a6.118 6.118 0 0 0-1.365-1.85l.685-.733a7.226 7.226 0 0 1 1.585 2.153zm-10.868-.485-.86-.51a7.155 7.155 0 0 1 1.765-2l.615.79a6.18 6.18 0 0 0-1.52 1.723m7.56-2.593a6.233 6.233 0 0 0-3.995-.178l-.283-.96a7.191 7.191 0 0 1 4.643.208z" transform="translate(18.366 17.869)"/>
        </g>
    </g>
</svg>
