<svg id="ico_field_01_240" xmlns="http://www.w3.org/2000/svg" width="240" height="240" viewBox="0 0 240 240">
    <defs>
        <style>
            .cls-2{fill:#111}
        </style>
    </defs>
    <g id="그룹_849" data-name="그룹 849" transform="translate(20.001 60)">
        <path id="패스_329" data-name="패스 329" class="cls-2" d="M67.1 132.917a60 60 0 1 1 60-60 60.064 60.064 0 0 1-60 60m0-117.828a57.831 57.831 0 1 0 57.834 57.828A57.894 57.894 0 0 0 67.1 15.088" transform="translate(-7.102 -12.922)"/>
        <path id="패스_330" data-name="패스 330" class="cls-2" d="m73.189 133.223-.011-2.172c1.8-.005 3.594-.092 5.354-.25l.2 2.161a62.455 62.455 0 0 1-5.538.261m-5.56-.4a78.462 78.462 0 0 1-5.473-.8l.4-2.128c1.759.315 3.556.576 5.316.766zm16.6-.63-.407-2.134c1.732-.32 3.48-.738 5.212-1.222l.592 2.085a60.7 60.7 0 0 1-5.4 1.271M56.759 130.8a65.607 65.607 0 0 1-5.288-1.678l.744-2.036a61.846 61.846 0 0 0 5.1 1.613zm38.141-1.655-.787-2.025a56.873 56.873 0 0 0 4.892-2.161l.972 1.938a59.674 59.674 0 0 1-5.077 2.248m-48.56-2.161a59.219 59.219 0 0 1-4.9-2.612l1.113-1.862a53.3 53.3 0 0 0 4.729 2.508zm58.482-2.8-1.135-1.846c1.526-.95 3-1.966 4.4-3.024l1.319 1.727c-1.455 1.1-3 2.156-4.583 3.144m-68.017-2.872A55.207 55.207 0 0 1 32.5 117.8l1.455-1.613a53.3 53.3 0 0 0 4.132 3.383zm76.856-3.817-1.455-1.6a57.889 57.889 0 0 0 3.774-3.79l1.618 1.461a59.823 59.823 0 0 1-3.936 3.931m-85.1-3.622a53.611 53.611 0 0 1-3.529-4.3l1.748-1.3a52.856 52.856 0 0 0 3.383 4.132zm92.58-4.588-1.732-1.3a58.723 58.723 0 0 0 3.024-4.42l1.841 1.146a59.025 59.025 0 0 1-3.133 4.577m-99.2-4.333a63.6 63.6 0 0 1-2.628-4.892l1.966-.934a54.026 54.026 0 0 0 2.536 4.713zm105.047-5.1-1.938-.966c.8-1.6 1.52-3.247 2.161-4.892l2.02.782a57.83 57.83 0 0 1-2.242 5.077m-109.835-4.91a63.935 63.935 0 0 1-1.694-5.288l2.1-.576a58.878 58.878 0 0 0 1.629 5.115zM131 89.509l-2.085-.592c.483-1.7.89-3.448 1.216-5.207l2.134.391A59.154 59.154 0 0 1 131 89.509M14.262 84.247a65.04 65.04 0 0 1-.733-5.506l2.156-.19c.168 1.792.407 3.578.717 5.31zm118.762-5.641-2.161-.2c.163-1.792.239-3.589.239-5.348l2.177-.255v.255c0 1.824-.087 3.687-.255 5.544M13.279 73.193v-.13c0-1.8.076-3.616.228-5.413l2.166.185a62.084 62.084 0 0 0-.217 5.229zm117.557-5.734a60.258 60.258 0 0 0-.755-5.294l2.123-.407a53.855 53.855 0 0 1 .787 5.5zM16.352 62.513l-2.139-.364a64.641 64.641 0 0 1 1.178-5.424l2.107.554a60.718 60.718 0 0 0-1.146 5.234m112.48-5.56a55.514 55.514 0 0 0-1.721-5.06l2.031-.793a59.191 59.191 0 0 1 1.775 5.261zM19.1 52.169l-2.036-.738a56.322 56.322 0 0 1 2.139-5.131l1.96.934A60.457 60.457 0 0 0 19.1 52.17m105.829-5.164a57.784 57.784 0 0 0-2.622-4.664l1.83-1.157a57.08 57.08 0 0 1 2.737 4.843zM23.677 42.5 21.8 41.4c.961-1.607 2-3.165 3.073-4.631l1.743 1.281a59.85 59.85 0 0 0-2.943 4.458m95.583-4.566a59.047 59.047 0 0 0-3.448-4.1l1.6-1.466a63.092 63.092 0 0 1 3.573 4.251zM30 33.9l-1.613-1.455a54.758 54.758 0 0 1 3.92-3.942l1.461 1.6A57.386 57.386 0 0 0 30 33.9m82.031-3.839a55.783 55.783 0 0 0-4.132-3.4l1.3-1.743a60.734 60.734 0 0 1 4.289 3.535zM37.886 26.71l-1.292-1.743a57.514 57.514 0 0 1 4.621-3.089l1.113 1.862a55.988 55.988 0 0 0-4.441 2.97m65.579-3.062a64.344 64.344 0 0 0-4.686-2.6l.966-1.944c1.623.8 3.258 1.71 4.849 2.688zM47.04 21.215l-.934-1.966a61.256 61.256 0 0 1 5.1-2.15l.755 2.036a59.579 59.579 0 0 0-4.925 2.08m46.83-2.308a57.92 57.92 0 0 0-5.077-1.683l.586-2.085a56.155 56.155 0 0 1 5.261 1.743zM57.069 17.5l-.57-2.1c1.748-.472 3.562-.9 5.4-1.238l.4 2.134a68.421 68.421 0 0 0-5.223 1.2m26.507-1.471a59.57 59.57 0 0 0-5.3-.717l.19-2.161c1.846.163 3.692.413 5.506.744zM67.608 15.5l-.244-2.156c1.781-.2 3.638-.342 5.506-.424l.092 2.172c-1.83.076-3.627.212-5.354.407" transform="translate(27.606 -12.924)"/>
        <path id="패스_331" data-name="패스 331" class="cls-2" d="m78.706 133.228-.011-2.172c1.8-.005 3.6-.092 5.354-.25l.2 2.161a62.681 62.681 0 0 1-5.544.261m-5.555-.4a77.943 77.943 0 0 1-5.473-.8l.391-2.129c1.765.315 3.557.576 5.316.766zm16.6-.635-.4-2.134a57.904 57.904 0 0 0 5.207-1.222l.6 2.085c-1.8.51-3.616.939-5.408 1.271m-27.475-1.385a66.27 66.27 0 0 1-5.289-1.678l.744-2.036a63.078 63.078 0 0 0 5.1 1.613zm38.145-1.656-.782-2.025a57.05 57.05 0 0 0 4.887-2.161l.977 1.938a59.913 59.913 0 0 1-5.082 2.248m-48.554-2.156a58.272 58.272 0 0 1-4.9-2.612l1.113-1.868a52.567 52.567 0 0 0 4.724 2.514zm58.48-2.8-1.14-1.846a57.647 57.647 0 0 0 4.4-3.024l1.314 1.727a60.933 60.933 0 0 1-4.577 3.144m-68.011-2.877a54.3 54.3 0 0 1-4.311-3.52l1.455-1.613a54.586 54.586 0 0 0 4.138 3.383zm76.86-3.817-1.461-1.6a59.243 59.243 0 0 0 3.779-3.79l1.613 1.461a60.99 60.99 0 0 1-3.931 3.931m-85.1-3.622a54.88 54.88 0 0 1-3.535-4.3l1.748-1.3a54.116 54.116 0 0 0 3.383 4.132zm92.574-4.588-1.727-1.3a58.723 58.723 0 0 0 3.024-4.42l1.846 1.146a60.891 60.891 0 0 1-3.144 4.577m-99.2-4.338a61.957 61.957 0 0 1-2.633-4.892l1.966-.934a55.688 55.688 0 0 0 2.536 4.713zm105.052-5.093-1.944-.967c.8-1.6 1.52-3.247 2.161-4.892l2.025.782a60.648 60.648 0 0 1-2.243 5.077m-109.84-4.914a63.837 63.837 0 0 1-1.694-5.289l2.1-.576a61.013 61.013 0 0 0 1.629 5.115zm113.848-5.441-2.091-.592c.483-1.7.891-3.448 1.222-5.207l2.128.391a58.81 58.81 0 0 1-1.26 5.408M19.775 84.245a63.227 63.227 0 0 1-.728-5.506l2.161-.19c.157 1.776.4 3.562.706 5.31zm118.773-5.636-2.167-.2c.163-1.792.239-3.589.239-5.348l2.177-.255v.255c0 1.824-.087 3.687-.25 5.544M18.8 73.2v-.13c0-1.8.081-3.622.228-5.414l2.167.179a62.115 62.115 0 0 0-.217 5.234zm117.56-5.733a58.08 58.08 0 0 0-.755-5.294l2.128-.407c.353 1.83.619 3.687.787 5.5zM21.877 62.515l-2.145-.364a62.366 62.366 0 0 1 1.184-5.424l2.1.554a58.52 58.52 0 0 0-1.14 5.234m112.48-5.555a54.028 54.028 0 0 0-1.716-5.061l2.025-.8a59.33 59.33 0 0 1 1.781 5.262zM24.619 52.171l-2.036-.744a58.56 58.56 0 0 1 2.139-5.126l1.96.934a61.257 61.257 0 0 0-2.063 4.936m105.839-5.158a57.317 57.317 0 0 0-2.628-4.664l1.846-1.151a61.279 61.279 0 0 1 2.72 4.838zM29.2 42.506l-1.868-1.113c.956-1.6 1.993-3.16 3.068-4.626l1.748 1.281a55.73 55.73 0 0 0-2.948 4.458m95.587-4.561a60.416 60.416 0 0 0-3.443-4.1l1.6-1.466a63.994 63.994 0 0 1 3.567 4.252zm-89.267-4.04L33.9 32.45a57.144 57.144 0 0 1 3.92-3.942l1.466 1.6a54.31 54.31 0 0 0-3.774 3.8m82.034-3.839a55.893 55.893 0 0 0-4.138-3.4l1.3-1.738a60.857 60.857 0 0 1 4.284 3.529zM43.412 26.71l-1.292-1.743a58.06 58.06 0 0 1 4.626-3.09l1.113 1.862a57.216 57.216 0 0 0-4.447 2.97m65.576-3.062a61.363 61.363 0 0 0-4.686-2.59l.967-1.944c1.634.8 3.269 1.71 4.854 2.688zm-56.427-2.432-.934-1.966a61.269 61.269 0 0 1 5.11-2.15l.755 2.036a58.686 58.686 0 0 0-4.93 2.08M99.4 18.908a58.695 58.695 0 0 0-5.082-1.683l.586-2.085a56.468 56.468 0 0 1 5.267 1.743zM62.6 17.5l-.576-2.1c1.748-.478 3.562-.9 5.4-1.243l.4 2.134a68.27 68.27 0 0 0-5.224 1.205m26.5-1.471a60.547 60.547 0 0 0-5.294-.717l.19-2.161c1.846.163 3.7.413 5.5.744zM73.129 15.5l-.244-2.156c1.781-.2 3.638-.342 5.511-.424l.092 2.172c-1.83.076-3.633.212-5.359.407" transform="translate(59.682 -12.922)"/>
    </g>
</svg>
