<svg id="ico_field_05_120" xmlns="http://www.w3.org/2000/svg" width="120" height="120" viewBox="0 0 120 120">
    <defs>
        <style>
            .cls-2{fill:#231815}
        </style>
    </defs>
    <g id="그룹_838" data-name="그룹 838" transform="translate(6 25.001)">
        <path id="패스_358" data-name="패스 358" class="cls-2" d="m41.071 80.535-35-35 35-35 35 35zm-33.377-35 33.377 33.376 33.38-33.379-33.38-33.377z" transform="translate(-6.074 -10.532)"/>
        <path id="패스_359" data-name="패스 359" class="cls-2" d="m52.074 79.9-2.024-2.026.81-.813 2.024 2.024zM54 78.788l-.813-.81 2.027-2.024.81.81zm-5.97-2.938L46 73.826l.81-.813 2.024 2.024zm10.018-1.111-.81-.81 2.02-2.029.81.81zM43.977 71.8l-2.027-2.026.81-.81 2.027 2.024zm18.116-1.11-.81-.81 2.024-2.024.81.81zm-22.167-2.94L37.9 65.726l.81-.81 2.024 2.024zm26.216-1.108-.81-.81 2.024-2.024.81.81zM35.877 63.7l-2.024-2.024.81-.81 2.024 2.024zm34.313-1.107-.81-.813 2.027-2.027.81.813zm-38.362-2.94L29.8 57.625l.813-.81 2.024 2.027zm42.413-1.111-.81-.813 2.024-2.029.81.813zM27.777 55.6l-2.024-2.024.813-.81 2.024 2.024zm50.513-1.107-.81-.813 2.02-2.024.81.813zm-54.562-2.94L21.7 49.528l.813-.81 2.027 2.024zm58.61-1.108-.81-.813 2.024-2.024.81.81zM19.677 47.5l-2.2-2.2.633-.636.407.407.178-.178 1.8 1.8zm66.71-1.111-.81-.81.281-.278-.936-.936.813-.81 1.744 1.747zm-65.439-2.934-.813-.81 2.027-2.024.81.81zM82.9 42.344l-2.027-2.024.813-.81 2.024 2.024zM25 39.407l-.81-.81 2.024-2.024.81.81zM78.848 38.3l-2.024-2.027.813-.81 2.024 2.027zm-49.8-2.938-.81-.81 2.024-2.024.81.81zM74.8 34.244l-2.025-2.024.81-.81 2.024 2.024zM33.094 31.31l-.81-.81 2.024-2.024.81.81zm37.657-1.11-2.024-2.024.81-.81 2.024 2.024zm-33.606-2.942-.81-.81 2.024-2.024.81.81zM66.7 26.147l-2.024-2.024.81-.81 2.024 2.024zM41.194 23.21l-.81-.81 2.024-2.024.81.81zm21.457-1.11-2.024-2.024.81-.81 2.024 2.024zm-17.408-2.939-.81-.81 2.024-2.027.81.813zM58.6 18.047l-2.024-2.024.81-.81 2.024 2.024zm-9.311-2.935-.81-.813 2.024-2.024.81.813zM54.554 14l-2.024-2.026.81-.81 2.024 2.024z" transform="translate(21.42 -9.442)"/>
    </g>
</svg>
