<svg id="ico_field_02_120" xmlns="http://www.w3.org/2000/svg" width="120" height="120" viewBox="0 0 120 120">
    <defs>
        <style>
            .cls-2{fill:#231815}
        </style>
    </defs>
    <g id="그룹_830" data-name="그룹 830">
        <g id="그룹_848" data-name="그룹 848" transform="translate(20.625 21.185)">
            <path id="패스_332" data-name="패스 332" class="cls-2" d="M44.731 57.322v-1a23.443 23.443 0 0 0 2.442-.135l.107 1a24.042 24.042 0 0 1-2.545.14m-2.545-.12a25 25 0 0 1-2.518-.382l.2-.982a22.478 22.478 0 0 0 2.415.37zm7.607-.43-.21-.975a23.259 23.259 0 0 0 2.362-.64l.313.952a24.131 24.131 0 0 1-2.465.662m-12.6-.6a24.025 24.025 0 0 1-2.388-.9l.4-.918a22.335 22.335 0 0 0 2.29.865zm17.44-.98-.41-.915a22.269 22.269 0 0 0 2.173-1.124l.5.865a25.164 25.164 0 0 1-2.268 1.165m-22.1-1.07a25.647 25.647 0 0 1-2.143-1.378l.58-.815c.672.48 1.365.925 2.06 1.322zm26.505-1.49-.593-.81a22.567 22.567 0 0 0 1.9-1.543l.67.742a24.505 24.505 0 0 1-1.977 1.61M28.4 51.142a25.021 25.021 0 0 1-1.815-1.79l.738-.675a24.029 24.029 0 0 0 1.74 1.72zm34.42-1.935-.745-.665a24.4 24.4 0 0 0 1.538-1.9l.81.59a24.883 24.883 0 0 1-1.6 1.98m-37.859-1.833a24.666 24.666 0 0 1-1.405-2.13l.865-.5a22.978 22.978 0 0 0 1.345 2.04zM65.8 45.087l-.865-.5a22.248 22.248 0 0 0 1.11-2.177l.915.4a23.693 23.693 0 0 1-1.16 2.275m-43.417-2.1a24.954 24.954 0 0 1-.93-2.375l.947-.31a23.609 23.609 0 0 0 .9 2.277zm45.49-2.555-.952-.31a22.816 22.816 0 0 0 .632-2.365l.975.208a24.328 24.328 0 0 1-.655 2.467m-47.1-2.28a25.84 25.84 0 0 1-.415-2.515l1-.11a23.1 23.1 0 0 0 .4 2.413zm48.15-2.707-1-.1a23.435 23.435 0 0 0 .127-2.442v-.37l1-.02v.4a24.629 24.629 0 0 1-.13 2.535m-47.708-2.359h-1V32.9c0-.79.04-1.583.112-2.355l1 .095c-.072.74-.107 1.5-.107 2.26zm46.683-3a23.771 23.771 0 0 0-.418-2.41l.975-.222a24.4 24.4 0 0 1 .433 2.512zm-46.216-1.868-.98-.2a23.143 23.143 0 0 1 .64-2.47l.95.3a23.859 23.859 0 0 0-.61 2.368m45.127-2.9a22.856 22.856 0 0 0-.91-2.27l.907-.42A24.819 24.819 0 0 1 67.754 25zm-43.662-1.756-.917-.4a24.893 24.893 0 0 1 1.14-2.283l.87.493a24.143 24.143 0 0 0-1.093 2.19m41.608-2.667a23.8 23.8 0 0 0-1.363-2.033l.8-.6a24.979 24.979 0 0 1 1.423 2.115zm-39.2-1.585-.815-.583a23.555 23.555 0 0 1 1.59-1.995l.745.66a24.573 24.573 0 0 0-1.52 1.917m36.265-2.328a23.532 23.532 0 0 0-1.75-1.7l.658-.752a24.174 24.174 0 0 1 1.83 1.78zm-33.03-1.335-.677-.738a25.175 25.175 0 0 1 1.965-1.625l.595.805a23.552 23.552 0 0 0-1.882 1.558m29.36-1.883a24.047 24.047 0 0 0-2.067-1.307l.487-.872a24.766 24.766 0 0 1 2.158 1.365zm-25.44-1.032-.507-.86a24.294 24.294 0 0 1 2.26-1.183l.415.91a23.85 23.85 0 0 0-2.168 1.133m21.177-1.36a23.2 23.2 0 0 0-2.295-.848l.3-.955a23.7 23.7 0 0 1 2.393.885zm-16.735-.677-.322-.948a24.392 24.392 0 0 1 2.455-.687l.22.977a22.839 22.839 0 0 0-2.353.658m12.07-.77a22.974 22.974 0 0 0-2.423-.35l.093-1a24.957 24.957 0 0 1 2.525.365zm-7.3-.3-.12-.987a24.11 24.11 0 0 1 2.545-.163l.01 1a22.7 22.7 0 0 0-2.437.155" transform="translate(9.688 -8.474)"/>
            <path id="패스_333" data-name="패스 333" class="cls-2" d="m32.772 68.166-.005-1a23.443 23.443 0 0 0 2.443-.135l.107 1a24.722 24.722 0 0 1-2.545.137m-2.547-.12a25 25 0 0 1-2.517-.382l.2-.983a22.478 22.478 0 0 0 2.415.37zm7.607-.425-.21-.975a23.931 23.931 0 0 0 2.362-.64l.313.952a24.135 24.135 0 0 1-2.465.663m-12.6-.608a24.028 24.028 0 0 1-2.388-.9l.4-.918a22.337 22.337 0 0 0 2.29.865zm17.437-.978-.41-.915a22.265 22.265 0 0 0 2.175-1.115l.5.865a24.836 24.836 0 0 1-2.268 1.165m-22.1-1.072a25.469 25.469 0 0 1-2.142-1.378l.58-.815c.672.48 1.365.925 2.06 1.322zm26.505-1.49-.593-.81a22.565 22.565 0 0 0 1.9-1.543l.67.743a24.506 24.506 0 0 1-1.977 1.61m-30.633-1.488a25.02 25.02 0 0 1-1.815-1.79l.738-.675a24.027 24.027 0 0 0 1.74 1.72zm34.415-1.93-.74-.67a24.384 24.384 0 0 0 1.535-1.9l.81.585a24 24 0 0 1-1.605 1.985M13 58.226a25.46 25.46 0 0 1-1.4-2.126l.865-.507a22.619 22.619 0 0 0 1.345 2.04zm40.84-2.292-.865-.505a22.835 22.835 0 0 0 1.11-2.177l.915.4a23.761 23.761 0 0 1-1.16 2.277m-43.417-2.1a24.74 24.74 0 0 1-.93-2.377l.947-.312a23.316 23.316 0 0 0 .9 2.275zm45.49-2.557-.952-.307a23.11 23.11 0 0 0 .632-2.363l.978.205a24.781 24.781 0 0 1-.658 2.465M8.818 49a24.678 24.678 0 0 1-.418-2.519l.995-.112a23.708 23.708 0 0 0 .4 2.415zm48.152-2.709-1-.1a24.366 24.366 0 0 0 .125-2.443v-.368l1-.02v.387c0 .84-.042 1.695-.127 2.545M9.255 43.934h-1v-.17c0-.81.04-1.6.112-2.375l1 .1c-.073.74-.108 1.5-.108 2.26zm46.678-3a23.772 23.772 0 0 0-.418-2.41l.975-.22a23.632 23.632 0 0 1 .433 2.513zM9.72 39.067l-.98-.2a24.06 24.06 0 0 1 .64-2.47l.95.3a23.213 23.213 0 0 0-.61 2.37m45.128-2.89a22.5 22.5 0 0 0-.91-2.27l.908-.42a23.609 23.609 0 0 1 .95 2.368zm-43.66-1.77-.918-.4a24.54 24.54 0 0 1 1.14-2.28l.87.49a23.823 23.823 0 0 0-1.093 2.19m41.6-2.663a24.2 24.2 0 0 0-1.362-2.032l.8-.6c.5.673.983 1.385 1.423 2.115zm-39.2-1.59-.815-.58a24.139 24.139 0 0 1 1.593-2l.745.662a24.593 24.593 0 0 0-1.523 1.915m36.268-2.32a23.04 23.04 0 0 0-1.75-1.708l.658-.752a25.12 25.12 0 0 1 1.83 1.78zm-33.03-1.342-.677-.738a25.177 25.177 0 0 1 1.965-1.625l.6.805a23.551 23.551 0 0 0-1.883 1.557m29.358-1.88c-.66-.465-1.355-.9-2.068-1.307l.487-.87a24.161 24.161 0 0 1 2.16 1.369zM20.75 23.576l-.507-.86a24.293 24.293 0 0 1 2.26-1.182l.415.91a23.85 23.85 0 0 0-2.167 1.132m21.18-1.357c-.75-.32-1.52-.605-2.295-.848l.3-.952a24.538 24.538 0 0 1 2.392.882zm-16.735-.678-.322-.947a24.393 24.393 0 0 1 2.455-.688l.22.978a22.839 22.839 0 0 0-2.353.658m12.07-.77a22.973 22.973 0 0 0-2.423-.35l.092-1a24.958 24.958 0 0 1 2.525.365zm-7.308-.295-.112-.993a23.53 23.53 0 0 1 2.542-.16l.01 1a22.91 22.91 0 0 0-2.44.153" transform="translate(-8.25 7.801)"/>
            <path id="패스_334" data-name="패스 334" class="cls-2" d="M44.731 68.169v-1a23.447 23.447 0 0 0 2.442-.135l.107.995a24.042 24.042 0 0 1-2.545.14m-2.545-.12a25 25 0 0 1-2.518-.382l.2-.982a22.482 22.482 0 0 0 2.415.37zm7.607-.43-.21-.975A23.257 23.257 0 0 0 51.946 66l.313.952a24.131 24.131 0 0 1-2.465.662m-12.6-.6a24.027 24.027 0 0 1-2.388-.9l.4-.918a22.336 22.336 0 0 0 2.29.865zm17.44-.98-.41-.915A22.267 22.267 0 0 0 56.4 64l.5.865a25.162 25.162 0 0 1-2.268 1.165m-22.1-1.07a25.647 25.647 0 0 1-2.143-1.378l.58-.815c.672.48 1.365.925 2.06 1.322zm26.505-1.49-.593-.81a22.564 22.564 0 0 0 1.9-1.543l.67.743a24.507 24.507 0 0 1-1.977 1.61M28.4 61.989a25.02 25.02 0 0 1-1.815-1.79l.738-.675a24.026 24.026 0 0 0 1.74 1.72zm34.418-1.932-.74-.67a24.385 24.385 0 0 0 1.535-1.9l.81.585a24 24 0 0 1-1.605 1.985m-37.85-1.827a25.462 25.462 0 0 1-1.405-2.13l.865-.507a22.619 22.619 0 0 0 1.345 2.04zM65.8 55.937l-.865-.505a22.836 22.836 0 0 0 1.11-2.177l.915.4a23.759 23.759 0 0 1-1.16 2.278m-43.417-2.1a24.739 24.739 0 0 1-.93-2.377l.947-.312a23.314 23.314 0 0 0 .9 2.275zm45.49-2.56-.952-.307a23.11 23.11 0 0 0 .632-2.363l.975.205a24.107 24.107 0 0 1-.655 2.465M20.779 49a24.679 24.679 0 0 1-.415-2.518l1-.113a23.034 23.034 0 0 0 .4 2.415zm48.15-2.71-1-.1a23.435 23.435 0 0 0 .127-2.443v-.37l1-.02v.38a24.729 24.729 0 0 1-.13 2.555m-47.714-2.358h-1v-.187c0-.793.04-1.585.112-2.355l1 .1c-.072.738-.107 1.5-.107 2.257zm46.68-3a23.772 23.772 0 0 0-.417-2.41l.975-.22a23.633 23.633 0 0 1 .433 2.512zm-46.213-1.865-.98-.2a24.062 24.062 0 0 1 .64-2.47l.95.3a23.214 23.214 0 0 0-.61 2.37m45.13-2.9a22.5 22.5 0 0 0-.91-2.27l.907-.42a23.61 23.61 0 0 1 .95 2.368zm-43.665-1.762-.917-.4a24.539 24.539 0 0 1 1.14-2.28l.87.49a23.824 23.824 0 0 0-1.093 2.19m41.608-2.665a24.2 24.2 0 0 0-1.363-2.033l.8-.6c.5.672.983 1.385 1.423 2.115zm-39.2-1.585-.815-.583a23.556 23.556 0 0 1 1.59-1.995l.745.66a24.573 24.573 0 0 0-1.52 1.917m36.268-2.325a23.529 23.529 0 0 0-1.75-1.7l.658-.752a24.171 24.171 0 0 1 1.83 1.78zm-33.031-1.337-.677-.737a24.625 24.625 0 0 1 1.965-1.625l.595.8a23.061 23.061 0 0 0-1.882 1.56m29.36-1.883a24.048 24.048 0 0 0-2.069-1.309l.487-.873a24.766 24.766 0 0 1 2.159 1.373zm-25.443-1.03-.508-.86a23.708 23.708 0 0 1 2.26-1.182l.415.908a23.876 23.876 0 0 0-2.167 1.135m21.182-1.36c-.75-.32-1.52-.605-2.295-.848l.3-.952a24.539 24.539 0 0 1 2.393.882zm-16.738-.678-.322-.947a24.393 24.393 0 0 1 2.455-.688l.22.978a22.839 22.839 0 0 0-2.353.658m12.073-.77a22.973 22.973 0 0 0-2.422-.35l.092-1a24.958 24.958 0 0 1 2.525.365zm-7.307-.295-.113-.993a23.53 23.53 0 0 1 2.543-.16l.01 1a22.91 22.91 0 0 0-2.44.153" transform="translate(9.688 7.801)"/>
            <path id="패스_335" data-name="패스 335" class="cls-2" d="M32.675 57.322A24.424 24.424 0 1 1 57.1 32.9a24.453 24.453 0 0 1-24.425 24.422m0-47.848A23.424 23.424 0 1 0 56.1 32.9 23.45 23.45 0 0 0 32.675 9.474" transform="translate(-8.25 -8.474)"/>
        </g>
        <path id="사각형_632" data-name="사각형 632" style="fill:none" d="M0 0h120v120H0z"/>
    </g>
</svg>
