<svg id="ico_field_04_120" xmlns="http://www.w3.org/2000/svg" width="120" height="120" viewBox="0 0 120 120">
    <defs>
        <style>
            .cls-2{fill:#231815}
        </style>
    </defs>
    <g id="그룹_837" data-name="그룹 837" transform="translate(19.072 17.328)">
        <path id="패스_345" data-name="패스 345" class="cls-2" d="m23.568 19.351.846.524.23-.372.232.374.849-.529-1.081-1.748z" transform="translate(16.181 8.993)"/>
        <path id="패스_346" data-name="패스 346" class="cls-2" d="m14.363 58.374-.849-.522 1.255-2.039.849.522zm2.51-4.074-.849-.522 1.253-2.037.849.522zm2.508-4.076-.849-.522 1.255-2.039.849.522zm2.511-4.078-.849-.522 1.257-2.043.849.522zm2.508-4.082-.849-.522 1.255-2.037.849.522zm2.508-4.078-.849-.522 1.255-2.037.846.522zm2.508-4.078-.846-.522 1.253-2.037.849.522zm2.508-4.076-.849-.522 1.255-2.039.849.522zm2.511-4.078-.849-.522 1.255-2.039.849.522zm2.508-4.078-.849-.522 1.255-2.037.849.522z" transform="translate(1.142 11.268)"/>
        <path id="패스_347" data-name="패스 347" class="cls-2" d="M12.561 37.277h2.144v-1h-.357l.187-.3-.849-.527z" transform="translate(-.284 35.703)"/>
        <path id="패스_348" data-name="패스 348" class="cls-2" d="M14.427 36.782h2.516v-1h-2.516zm5.032 0h2.516v-1h-2.516zm5.027 0H27v-1h-2.515zm5.032 0h2.516v-1h-2.517zm5.032 0h2.513v-1h-2.515zm5.027 0h2.516v-1h-2.518zm5.032 0h2.511v-1h-2.514zm5.032 0h2.516v-1h-2.519zm5.029 0h2.516v-1h-2.519zm5.029 0h2.516v-1H59.7z" transform="translate(2.507 36.2)"/>
        <path id="패스_349" data-name="패스 349" class="cls-2" d="m34.75 35.979.185.3h-.355v1h2.144L35.6 35.453z" transform="translate(32.653 35.703)"/>
        <path id="패스_350" data-name="패스 350" class="cls-2" d="m48.434 58.374-1.255-2.037.849-.522 1.255 2.037zM45.923 54.3l-1.253-2.041.849-.522 1.253 2.037zm-2.508-4.08-1.255-2.039.849-.522 1.255 2.041zM40.9 46.142 39.651 44.1l.849-.522 1.253 2.039zm-2.5-4.078-1.26-2.037.849-.522 1.255 2.037zm-2.513-4.076-1.25-2.039.851-.522 1.253 2.039zm-2.5-4.078-1.255-2.039.846-.522 1.255 2.039zm-2.513-4.076-1.253-2.042.854-.522 1.253 2.042zm-2.514-4.078-1.26-2.042.849-.522 1.255 2.042zm-2.513-4.078-1.253-2.039.854-.522 1.252 2.039z" transform="translate(17.715 11.268)"/>
        <path id="패스_351" data-name="패스 351" class="cls-2" d="m23.4 31.086.849.522.23-.372.232.374.846-.529-1.077-1.752z" transform="translate(15.932 26.543)"/>
        <path id="패스_352" data-name="패스 352" class="cls-2" d="m19.429 48.939-.849-.522 1.2-1.959.849.522zm2.406-3.913-.846-.522 1.2-1.954.849.522zm2.406-3.911-.849-.522 1.208-1.954.849.522zm2.408-3.915-.849-.522 1.205-1.954.849.522zm2.406-3.911-.849-.522 1.205-1.954.846.522z" transform="translate(8.719 28.77)"/>
        <path id="패스_353" data-name="패스 353" class="cls-2" d="M17.649 40.477h2.141v-1h-.357l.187-.307-.854-.522z" transform="translate(7.327 40.487)"/>
        <path id="패스_354" data-name="패스 354" class="cls-2" d="M19.475 39.98h2.416v-1h-2.416zm4.837 0h2.416v-1h-2.416zm4.834 0h2.416v-1h-2.416zm4.834 0h2.42v-1h-2.419zm4.834 0h2.416v-1h-2.415z" transform="translate(10.058 40.983)"/>
        <path id="패스_355" data-name="패스 355" class="cls-2" d="m29.331 39.172.185.3h-.354v1h2.144l-1.128-1.827z" transform="translate(24.547 40.487)"/>
        <path id="패스_356" data-name="패스 356" class="cls-2" d="m35.237 48.937-1.2-1.957.849-.522 1.2 1.957zm-2.406-3.913-1.2-1.954.849-.522 1.2 1.954zm-2.406-3.908-1.205-1.955.849-.522 1.205 1.954zM28.017 37.2l-1.2-1.954.849-.522 1.2 1.954zm-2.406-3.908-1.2-1.954.846-.522 1.205 1.954z" transform="translate(17.437 28.77)"/>
        <path id="패스_357" data-name="패스 357" class="cls-2" d="M89.293 73.287H7.642L48.469 6.943l.424.694zm-79.864-1h78.077L48.469 8.85z" transform="translate(-7.642 -6.943)"/>
    </g>
</svg>
