<svg id="ico_field_01_120" xmlns="http://www.w3.org/2000/svg" width="120" height="120" viewBox="0 0 120 120">
    <defs>
        <style>
            .cls-2{fill:#231815}
        </style>
    </defs>
    <g id="그룹_849" data-name="그룹 849" transform="translate(-2.755 -2)">
        <path id="패스_329" data-name="패스 329" class="cls-2" d="M37.1 72.919a30 30 0 1 1 30-30 30.032 30.032 0 0 1-30 30m0-58.914a28.916 28.916 0 1 0 28.919 28.914A28.947 28.947 0 0 0 37.1 14.005" transform="translate(5.653 19.078)"/>
        <path id="패스_330" data-name="패스 330" class="cls-2" d="m43.234 73.073-.005-1.086c.9 0 1.8-.046 2.677-.125l.1 1.08c-.907.084-1.838.128-2.769.13m-2.78-.2c-.907-.1-1.824-.233-2.737-.4l.2-1.064c.88.157 1.778.288 2.658.383zm8.3-.315-.2-1.067c.866-.16 1.74-.369 2.606-.611l.3 1.042c-.9.255-1.8.467-2.7.635m-13.737-.695a33.005 33.005 0 0 1-2.644-.839l.372-1.018c.833.3 1.691.576 2.549.806zm19.072-.828-.398-1.011a28.5 28.5 0 0 0 2.446-1.08l.486.969c-.823.413-1.68.79-2.538 1.124m-24.281-1.08c-.847-.4-1.675-.842-2.451-1.306l.557-.931a26.649 26.649 0 0 0 2.365 1.254zm29.241-1.4-.567-.923c.763-.475 1.5-.983 2.2-1.512l.66.863c-.728.551-1.5 1.078-2.291 1.572M25.042 67.12a27.6 27.6 0 0 1-2.153-1.759l.728-.806a26.651 26.651 0 0 0 2.066 1.691zm38.428-1.909-.728-.8a28.82 28.82 0 0 0 1.887-1.895l.809.73a30.165 30.165 0 0 1-1.968 1.966M20.921 63.4a26.806 26.806 0 0 1-1.765-2.15l.874-.649a26.428 26.428 0 0 0 1.691 2.066zm46.29-2.294-.866-.652a29.822 29.822 0 0 0 1.512-2.21l.92.573a30.04 30.04 0 0 1-1.566 2.289m-49.6-2.166a32.068 32.068 0 0 1-1.314-2.446l.983-.467c.383.806.812 1.6 1.268 2.356zm52.523-2.549-.969-.483c.4-.8.76-1.623 1.08-2.446l1.01.391a28.629 28.629 0 0 1-1.121 2.538m-54.917-2.454c-.315-.855-.6-1.746-.847-2.644L15.421 51c.236.871.508 1.732.814 2.557zm56.921-2.72-1.042-.3c.242-.85.445-1.724.608-2.6l1.067.2a28.905 28.905 0 0 1-.633 2.7M13.77 48.586c-.16-.9-.282-1.824-.367-2.753l1.078-.1c.084.9.2 1.789.358 2.655zm59.381-2.821-1.08-.1c.081-.9.119-1.794.119-2.674l1.089-.128v.128c0 .912-.043 1.843-.128 2.772m-59.872-2.705v-.065c0-.9.038-1.808.114-2.707l1.083.092a31.26 31.26 0 0 0-.109 2.614zm58.778-2.867a30.315 30.315 0 0 0-.377-2.647l1.061-.2a26.928 26.928 0 0 1 .394 2.75zm-57.241-2.473-1.07-.182c.157-.912.356-1.824.589-2.712l1.053.277a30.318 30.318 0 0 0-.573 2.617m56.24-2.78a27.864 27.864 0 0 0-.861-2.53l1.015-.4c.339.874.641 1.759.888 2.631zm-54.866-2.391-1.018-.369c.315-.874.673-1.735 1.07-2.565l.98.467a30.59 30.59 0 0 0-1.032 2.468M69.1 29.965c-.4-.787-.833-1.569-1.311-2.332l.915-.578c.5.79.958 1.607 1.368 2.422zm-50.622-2.251-.937-.554c.481-.8 1-1.583 1.537-2.316l.871.641a29.711 29.711 0 0 0-1.471 2.229m47.791-2.283a29.335 29.335 0 0 0-1.724-2.052l.8-.733a31.135 31.135 0 0 1 1.786 2.126zm-44.631-2.017-.806-.728a27.379 27.379 0 0 1 1.96-1.971l.73.8a27.667 27.667 0 0 0-1.884 1.9m41.015-1.919a27.686 27.686 0 0 0-2.066-1.7l.649-.871a30.93 30.93 0 0 1 2.145 1.767zm-37.07-1.679-.646-.871a29.483 29.483 0 0 1 2.31-1.545l.557.931a28.05 28.05 0 0 0-2.221 1.485m32.789-1.531a32.172 32.172 0 0 0-2.343-1.3l.483-.972c.812.4 1.629.855 2.424 1.344zM30.16 17.07l-.467-.983a29.99 29.99 0 0 1 2.552-1.075l.377 1.018c-.836.309-1.664.66-2.462 1.04m23.415-1.154c-.825-.318-1.68-.6-2.538-.842l.293-1.042c.888.247 1.778.54 2.631.871zm-18.4-.706-.285-1.048a34.852 34.852 0 0 1 2.7-.619l.2 1.067c-.888.168-1.765.369-2.612.6m13.254-.736a29.65 29.65 0 0 0-2.65-.358l.1-1.08c.923.081 1.846.206 2.753.372zm-7.984-.261-.122-1.078c.89-.1 1.819-.171 2.753-.212l.046 1.086c-.915.038-1.813.106-2.677.2" transform="translate(19.919 19.076)"/>
        <path id="패스_331" data-name="패스 331" class="cls-2" d="m48.752 73.076-.005-1.086c.9 0 1.8-.046 2.677-.125l.1 1.081c-.909.084-1.841.128-2.772.13m-2.777-.2c-.907-.1-1.827-.233-2.737-.4l.2-1.064c.882.157 1.778.288 2.658.383zm8.3-.318-.2-1.067a28.85 28.85 0 0 0 2.6-.611l.3 1.043c-.9.255-1.808.47-2.7.635m-13.738-.692a33.394 33.394 0 0 1-2.644-.839l.372-1.018c.836.3 1.694.576 2.552.806zm19.072-.828-.391-1.013a28.01 28.01 0 0 0 2.443-1.081l.489.969c-.825.413-1.681.79-2.541 1.124m-24.277-1.078c-.85-.4-1.675-.842-2.452-1.306l.557-.934a26.284 26.284 0 0 0 2.363 1.258zm29.24-1.4L64 67.635c.763-.475 1.5-.983 2.2-1.512l.657.863a30.9 30.9 0 0 1-2.289 1.572m-34.003-1.436a27.151 27.151 0 0 1-2.156-1.759l.728-.806a26.994 26.994 0 0 0 2.069 1.691zm38.43-1.909-.73-.8a27.31 27.31 0 0 0 1.89-1.9l.806.73a30.638 30.638 0 0 1-1.966 1.966M26.443 63.4a27.439 27.439 0 0 1-1.767-2.15l.874-.649c.529.717 1.1 1.412 1.691 2.066zm46.287-2.291-.863-.652a29.519 29.519 0 0 0 1.512-2.21l.923.573a30.408 30.408 0 0 1-1.572 2.289m-49.6-2.169a31.072 31.072 0 0 1-1.317-2.446l.983-.467c.386.806.812 1.6 1.268 2.357zm52.526-2.547-.972-.483c.4-.8.76-1.624 1.081-2.446l1.013.391a30.493 30.493 0 0 1-1.121 2.538m-54.92-2.454c-.315-.855-.6-1.746-.847-2.644l1.051-.288c.236.871.51 1.732.814 2.557zm56.924-2.72-1.045-.3c.242-.85.445-1.724.611-2.6l1.064.2c-.168.915-.38 1.824-.63 2.7m-58.374-2.634a31.563 31.563 0 0 1-.364-2.753l1.081-.1c.079.888.2 1.781.353 2.655zm59.386-2.818-1.083-.1c.081-.9.119-1.795.119-2.674l1.089-.128v.128c0 .912-.043 1.843-.125 2.772M18.8 43.06v-.065c0-.9.041-1.811.114-2.707l1.083.09a31.278 31.278 0 0 0-.109 2.617zm58.779-2.86a29.213 29.213 0 0 0-.377-2.647l1.064-.2c.176.915.31 1.843.394 2.75zm-57.242-2.481-1.072-.182c.157-.912.356-1.824.592-2.712l1.051.277a29.298 29.298 0 0 0-.57 2.617m56.24-2.777a26.763 26.763 0 0 0-.858-2.53l1.013-.4c.334.85.633 1.735.89 2.631zm-54.87-2.394-1.018-.372c.318-.874.676-1.735 1.07-2.563l.98.467a31.33 31.33 0 0 0-1.032 2.468m52.919-2.579a28.51 28.51 0 0 0-1.314-2.332l.923-.576c.5.8.956 1.613 1.36 2.419zM24 27.715l-.934-.557c.478-.8 1-1.58 1.534-2.313l.874.641A28.002 28.002 0 0 0 24 27.715m47.794-2.281a30.148 30.148 0 0 0-1.721-2.052l.8-.733a32.002 32.002 0 0 1 1.784 2.126zm-44.634-2.02-.806-.728a28.684 28.684 0 0 1 1.96-1.971l.733.8c-.662.605-1.3 1.241-1.887 1.9M68.174 21.5a27.134 27.134 0 0 0-2.069-1.7l.652-.869a30.716 30.716 0 0 1 2.142 1.765zM31.1 19.817l-.646-.871a29.35 29.35 0 0 1 2.313-1.545l.557.931c-.763.459-1.51.958-2.224 1.485m32.788-1.531c-.768-.47-1.556-.9-2.343-1.3l.483-.972c.817.4 1.634.855 2.427 1.344zM35.679 17.07l-.467-.983a30.467 30.467 0 0 1 2.555-1.075l.377 1.018c-.839.31-1.667.66-2.465 1.04M59.1 15.916c-.828-.318-1.683-.6-2.541-.842l.293-1.043c.89.247 1.778.54 2.633.871zm-18.4-.706-.288-1.048a34.854 34.854 0 0 1 2.7-.622l.2 1.067c-.888.168-1.767.372-2.612.6m13.249-.736a30.299 30.299 0 0 0-2.647-.358l.1-1.081a29.46 29.46 0 0 1 2.75.372zm-7.982-.261-.122-1.078a40.8 40.8 0 0 1 2.756-.212l.046 1.086a40.37 40.37 0 0 0-2.68.2" transform="translate(33.197 19.077)"/>
    </g>
</svg>
