<svg id="ico_field_03_240" xmlns="http://www.w3.org/2000/svg" width="240" height="240" viewBox="0 0 240 240">
    <defs>
        <clipPath id="clip-path">
            <path id="사각형_634" data-name="사각형 634" style="fill:none" d="M0 0h240v240H0z"/>
        </clipPath>
        <style>
            .cls-4{fill:#111}
        </style>
    </defs>
    <g id="그룹_833" data-name="그룹 833">
        <g id="그룹_832" data-name="그룹 832" style="clip-path:url(#clip-path)">
            <path id="패스_336" data-name="패스 336" class="cls-4" d="M46.331 73.913a27.692 27.692 0 1 1 27.7-27.695 27.728 27.728 0 0 1-27.7 27.695m0-53.385a25.692 25.692 0 1 0 25.695 25.69 25.721 25.721 0 0 0-25.695-25.69" transform="translate(74.544 74.112)"/>
            <path id="패스_337" data-name="패스 337" class="cls-4" d="M35.468 37.022A14.332 14.332 0 1 1 49.8 22.692a14.349 14.349 0 0 1-14.33 14.33m0-26.665A12.332 12.332 0 1 0 47.8 22.692a12.348 12.348 0 0 0-12.33-12.335" transform="translate(84.532 33.428)"/>
            <path id="패스_338" data-name="패스 338" class="cls-4" d="M44.806 41.026a14.512 14.512 0 0 1-3.295-.38l.46-1.95a12.455 12.455 0 0 0 4.59.205l.285 1.98a14.514 14.514 0 0 1-2.04.145m7.094-1.875-.99-1.74a12.3 12.3 0 0 0 3.505-2.98l1.55 1.255a14.245 14.245 0 0 1-4.065 3.465m-15.27-.68a14.288 14.288 0 0 1-3.74-3.815l1.66-1.11a12.4 12.4 0 0 0 3.22 3.28zm21.855-7.5-1.905-.6a12.3 12.3 0 0 0 .555-3.685c0-.29-.005-.585-.025-.87l1.99-.16c.03.345.04.685.04 1.03a14.178 14.178 0 0 1-.655 4.285M30.8 29.746a14.4 14.4 0 0 1-.33-3.055 14.059 14.059 0 0 1 .19-2.29l1.97.32a12.973 12.973 0 0 0-.155 1.97 12 12 0 0 0 .28 2.625zm25.135-8.38a12.26 12.26 0 0 0-2.725-3.7l1.37-1.465a14.5 14.5 0 0 1 3.165 4.31zM34.2 20.4l-1.72-1.02a14.249 14.249 0 0 1 3.535-4l1.23 1.58A12.3 12.3 0 0 0 34.2 20.4m15.125-5.185a12.481 12.481 0 0 0-7.995-.355l-.565-1.925a14.43 14.43 0 0 1 9.29.42z" transform="translate(121.864 49.429)"/>
            <path id="패스_339" data-name="패스 339" class="cls-4" d="M48.357 49.911a14.333 14.333 0 1 1 14.335-14.335 14.35 14.35 0 0 1-14.335 14.335m0-26.665a12.333 12.333 0 1 0 12.335 12.33 12.347 12.347 0 0 0-12.335-12.33" transform="translate(136.088 84.984)"/>
            <path id="패스_340" data-name="패스 340" class="cls-4" d="M44.371 58.8a14.321 14.321 0 0 1-3.3-.38l.45-1.945a12.623 12.623 0 0 0 4.6.2l.285 1.985a16.032 16.032 0 0 1-2.03.145m7.08-1.88-.99-1.74a12.444 12.444 0 0 0 3.5-2.975l1.55 1.26a14.3 14.3 0 0 1-4.065 3.455m-15.27-.685a14.326 14.326 0 0 1-3.74-3.8l1.66-1.115a12.256 12.256 0 0 0 3.22 3.28zm21.855-7.485-1.9-.6a12.507 12.507 0 0 0 .56-3.69c0-.3 0-.585-.025-.875l1.99-.155c.03.335.04.685.04 1.03a14.17 14.17 0 0 1-.66 4.285m-27.69-1.239a14.322 14.322 0 0 1-.33-3.05 14.028 14.028 0 0 1 .19-2.3l1.97.32a12.94 12.94 0 0 0-.155 1.975 11.95 11.95 0 0 0 .28 2.62zm25.135-8.375a12.26 12.26 0 0 0-2.725-3.7l1.37-1.465a14.434 14.434 0 0 1 3.165 4.31zm-21.735-.97-1.72-1.015a14.159 14.159 0 0 1 3.54-4.01l1.22 1.585a12.28 12.28 0 0 0-3.04 3.44m15.125-5.18a12.51 12.51 0 0 0-8-.355l-.555-1.925a14.524 14.524 0 0 1 9.285.415z" transform="translate(120.084 120.544)"/>
            <path id="패스_341" data-name="패스 341" class="cls-4" d="M35.468 62.356A14.332 14.332 0 1 1 49.8 48.021a14.35 14.35 0 0 1-14.33 14.335m0-26.665a12.332 12.332 0 1 0 12.33 12.33 12.347 12.347 0 0 0-12.33-12.33" transform="translate(84.532 134.764)"/>
            <path id="패스_342" data-name="패스 342" class="cls-4" d="M26.589 58.8a14.321 14.321 0 0 1-3.305-.38l.46-1.945a12.555 12.555 0 0 0 4.59.2l.285 1.985a16.032 16.032 0 0 1-2.03.145m7.09-1.88-.99-1.74a12.306 12.306 0 0 0 3.5-2.975l1.55 1.26a14.315 14.315 0 0 1-4.06 3.455M18.4 56.231a14.326 14.326 0 0 1-3.74-3.8l1.66-1.115a12.256 12.256 0 0 0 3.22 3.28zm21.855-7.485-1.9-.6a12.38 12.38 0 0 0 .555-3.69c0-.295 0-.58-.025-.87l1.99-.155c.03.335.04.685.04 1.025a14.226 14.226 0 0 1-.655 4.285M12.574 47.5a14.927 14.927 0 0 1-.33-3.035 14.044 14.044 0 0 1 .19-2.3l1.97.32a12.939 12.939 0 0 0-.155 1.975 12.664 12.664 0 0 0 .28 2.62zm25.135-8.36a12.258 12.258 0 0 0-2.73-3.705l1.37-1.465a14.514 14.514 0 0 1 3.17 4.305zm-21.735-.975-1.72-1.015a14.159 14.159 0 0 1 3.54-4.01l1.22 1.585a12.28 12.28 0 0 0-3.04 3.44m15.12-5.18a12.458 12.458 0 0 0-8-.355l-.555-1.925a14.51 14.51 0 0 1 9.28.415z" transform="translate(48.976 120.544)"/>
            <path id="패스_343" data-name="패스 343" class="cls-4" d="M23.024 49.911a14.333 14.333 0 1 1 14.33-14.335 14.35 14.35 0 0 1-14.33 14.335m0-26.665a12.333 12.333 0 1 0 12.33 12.33 12.347 12.347 0 0 0-12.33-12.33" transform="translate(34.756 84.984)"/>
            <path id="패스_344" data-name="패스 344" class="cls-4" d="M26.579 40.58a14.512 14.512 0 0 1-3.3-.38l.46-1.95a12.459 12.459 0 0 0 4.59.205l.285 1.98a14.515 14.515 0 0 1-2.04.145m7.1-1.875-1-1.735a12.561 12.561 0 0 0 3.505-2.985l1.55 1.255a14.364 14.364 0 0 1-4.055 3.465m-15.28-.68a14.288 14.288 0 0 1-3.74-3.815l1.66-1.11a12.4 12.4 0 0 0 3.22 3.28zm21.855-7.5-1.9-.6a12.3 12.3 0 0 0 .555-3.685c0-.3 0-.585-.025-.875l1.99-.155c.03.34.04.685.04 1.03a14.178 14.178 0 0 1-.655 4.285M12.574 29.3a14.321 14.321 0 0 1-.33-3.05 14.06 14.06 0 0 1 .19-2.29l1.97.32a12.974 12.974 0 0 0-.155 1.97 11.95 11.95 0 0 0 .28 2.62zm25.135-8.38a12.237 12.237 0 0 0-2.73-3.7l1.37-1.465a14.451 14.451 0 0 1 3.17 4.305zm-21.735-.97-1.72-1.02a14.31 14.31 0 0 1 3.53-4.005l1.23 1.58a12.36 12.36 0 0 0-3.04 3.445m15.12-5.185a12.466 12.466 0 0 0-7.99-.355l-.565-1.92a14.383 14.383 0 0 1 9.285.415z" transform="translate(48.976 47.65)"/>
        </g>
    </g>
</svg>
