<svg id="ico_field_04_240" xmlns="http://www.w3.org/2000/svg" width="240" height="240" viewBox="0 0 240 240">
    <defs>
        <style>
            .cls-2{fill:#111}
        </style>
    </defs>
    <g id="그룹_837" data-name="그룹 837" transform="translate(38.145 34.656)">
        <path id="패스_345" data-name="패스 345" class="cls-2" d="m23.568 21.105 1.692 1.048.459-.744.464.749 1.7-1.058-2.163-3.5z" transform="translate(55.931 35.581)"/>
        <path id="패스_346" data-name="패스 346" class="cls-2" d="m15.211 97.631-1.7-1.043 2.511-4.078 1.7 1.043zm5.022-8.156-1.7-1.043 2.506-4.073 1.7 1.043zm5.017-8.151-1.7-1.043 2.513-4.081 1.7 1.043zm5.022-8.156-1.7-1.043 2.506-4.078 1.7 1.043zm5.017-8.156-1.7-1.043 2.511-4.075 1.7 1.043zm5.011-8.158-1.7-1.043 2.511-4.073 1.692 1.043zm5.021-8.154-1.692-1.043 2.506-4.073 1.7 1.043zm5.017-8.151L48.64 39.5l2.511-4.078 1.7 1.043zm5.022-8.156-1.7-1.043 2.511-4.078 1.7 1.043zm5.017-8.156-1.7-1.043 2.511-4.073 1.7 1.043z" transform="translate(15.798 41.653)"/>
        <path id="패스_347" data-name="패스 347" class="cls-2" d="M12.561 39.1h4.288v-2h-.714l.374-.6-1.7-1.053z" transform="translate(11.994 106.86)"/>
        <path id="패스_348" data-name="패스 348" class="cls-2" d="M14.427 37.781h5.032v-2h-5.032zm10.063 0h5.032v-2H24.49zm10.053 0h5.032v-2h-5.032zm10.063 0h5.032v-2h-5.032zm10.063 0H59.7v-2h-5.03zm10.053 0h5.032v-2h-5.031zm10.063 0h5.027v-2h-5.026zm10.063 0h5.032v-2h-5.031zm10.058 0h5.032v-2h-5.031zm10.058 0H110v-2h-5.032z" transform="translate(19.442 108.183)"/>
        <path id="패스_349" data-name="패스 349" class="cls-2" d="m34.92 36.506.369.6h-.709v2h4.288l-2.256-3.649z" transform="translate(99.886 106.86)"/>
        <path id="패스_350" data-name="패스 350" class="cls-2" d="m72.274 97.631-2.511-4.073 1.7-1.043 2.511 4.073zm-5.022-8.156L64.747 85.4l1.7-1.043 2.506 4.073zm-5.017-8.151-2.511-4.078 1.7-1.043 2.511 4.078zm-5.022-8.156-2.506-4.078 1.7-1.043 2.506 4.078zM52.2 65.01l-2.511-4.073 1.7-1.043 2.511 4.073zm-5.027-8.151-2.5-4.078 1.7-1.043 2.506 4.078zM42.165 48.7l-2.511-4.078 1.692-1.043 2.511 4.078zm-5.027-8.151-2.506-4.083 1.707-1.043 2.506 4.083zm-5.012-8.156-2.511-4.083 1.7-1.043 2.511 4.083zM27.1 24.238l-2.506-4.078 1.706-1.043 2.507 4.083z" transform="translate(60.025 41.653)"/>
        <path id="패스_351" data-name="패스 351" class="cls-2" d="m23.4 32.843 1.7 1.043.459-.744.464.749 1.692-1.058-2.156-3.5z" transform="translate(55.266 82.416)"/>
        <path id="패스_352" data-name="패스 352" class="cls-2" d="m20.277 67.061-1.7-1.043 2.409-3.918 1.7 1.043zm4.812-7.827L23.4 58.191l2.4-3.908 1.7 1.043zm4.811-7.821-1.7-1.043 2.411-3.908 1.7 1.043zm4.817-7.822-1.7-1.043 2.411-3.908 1.7 1.043zm4.812-7.822-1.7-1.043 2.411-3.908 1.692 1.043z" transform="translate(36.019 88.357)"/>
        <path id="패스_353" data-name="패스 353" class="cls-2" d="M17.649 42.3h4.283v-2h-.714l.374-.614-1.707-1.036z" transform="translate(32.303 119.624)"/>
        <path id="패스_354" data-name="패스 354" class="cls-2" d="M19.475 40.979h4.832v-2h-4.832zm9.674 0h4.832v-2h-4.832zm9.669 0h4.832v-2h-4.832zm9.669 0h4.832v-2h-4.833zm9.669 0h4.832v-2h-4.833z" transform="translate(39.591 120.948)"/>
        <path id="패스_355" data-name="패스 355" class="cls-2" d="m29.5 39.694.369.609h-.709v2h4.288l-2.256-3.654z" transform="translate(78.256 119.624)"/>
        <path id="패스_356" data-name="패스 356" class="cls-2" d="m46.067 67.056-2.406-3.913 1.7-1.043 2.406 3.913zm-4.812-7.827-2.406-3.908 1.7-1.043 2.4 3.908zm-4.812-7.817L34.032 47.5l1.7-1.043 2.411 3.908zm-4.817-7.827-2.406-3.908 1.7-1.043 2.406 3.908zm-4.812-7.817-2.406-3.908 1.692-1.043 2.411 3.908z" transform="translate(59.282 88.357)"/>
        <path id="패스_357" data-name="패스 357" class="cls-2" d="M170.944 139.631H7.642L89.3 6.943l.849 1.388zm-159.728-2H167.37L89.3 10.757z" transform="translate(-7.642 -6.943)"/>
    </g>
</svg>
