<svg id="ico_field_05_240" xmlns="http://www.w3.org/2000/svg" width="240" height="240" viewBox="0 0 240 240">
    <defs>
        <style>
            .cls-2{fill:#111}
        </style>
    </defs>
    <g id="그룹_838" data-name="그룹 838" transform="translate(12.003 50.013)">
        <path id="패스_358" data-name="패스 358" class="cls-2" d="M76.083 150.567 6.074 80.547l70.009-70.015L146.1 80.547zM9.316 80.547l66.767 66.773 66.773-66.773L76.083 13.78z" transform="translate(-6.074 -10.532)"/>
        <path id="패스_359" data-name="패스 359" class="cls-2" d="m86.685 148.662-4.049-4.049 1.621-1.627 4.049 4.049zm3.843-2.222-1.628-1.621 4.055-4.049 1.621 1.621zm-11.942-5.877-4.049-4.049 1.621-1.627 4.049 4.049zm20.041-2.222-1.621-1.621 4.049-4.049 1.621 1.621zm-28.14-5.882-4.055-4.049 1.621-1.621 4.055 4.049zm36.239-2.217-1.621-1.621 4.049-4.049 1.621 1.621zm-44.343-5.882-4.049-4.049 1.621-1.621L64 122.739zm52.442-2.217-1.621-1.621 4.049-4.049 1.621 1.621zm-60.541-5.882-4.049-4.049 1.621-1.621 4.044 4.049zm68.64-2.217-1.621-1.627 4.055-4.055 1.621 1.627zm-76.739-5.882-4.055-4.055 1.627-1.621 4.049 4.055zm84.844-2.222-1.621-1.627 4.049-4.049 1.621 1.627zm-92.949-5.883-4.049-4.049 1.627-1.621 4.049 4.049zm101.047-2.217-1.621-1.627 4.049-4.049 1.621 1.627zM29.981 91.958l-4.055-4.049 1.627-1.621 4.055 4.049zm117.245-2.217-1.621-1.627 4.049-4.049 1.621 1.621zM21.877 83.859l-4.4-4.4 1.266-1.272.813.813.355-.355 3.589 3.593zm133.449-2.222-1.626-1.621.561-.556-1.873-1.873 1.627-1.621 3.488 3.494zM24.42 75.76l-1.627-1.62 4.055-4.049 1.621 1.621zm123.923-2.222-4.049-4.049 1.627-1.621 4.049 4.049zM32.519 67.662 30.9 66.041l4.049-4.049 1.621 1.621zm107.726-2.222-4.045-4.056 1.627-1.621 4.049 4.055zm-99.627-5.877L39 57.942l4.049-4.049 1.621 1.621zm91.528-2.228-4.046-4.05 1.621-1.621 4.049 4.049zm-83.429-5.871L47.1 49.843l4.049-4.049 1.621 1.621zm75.33-2.228L120 45.186l1.621-1.621 4.049 4.049zm-67.226-5.877L55.2 41.738l4.049-4.049 1.621 1.621zm59.121-2.222-4.049-4.049 1.621-1.621 4.049 4.049zM64.92 35.26l-1.62-1.621 4.049-4.049 1.621 1.621zm42.923-2.222-4.049-4.049 1.621-1.621 4.049 4.049zm-34.824-5.877L71.4 25.54l4.049-4.055 1.621 1.627zm26.725-2.228-4.049-4.049 1.621-1.621 4.049 4.049zm-18.626-5.871L79.5 17.436l4.049-4.049 1.621 1.627zm10.527-2.228L87.6 12.785l1.621-1.621 4.049 4.049z" transform="translate(60.334 -7.719)"/>
    </g>
</svg>
