<svg width="80" height="80" viewBox="0 0 80 80" fill="none" xmlns="http://www.w3.org/2000/svg">
<path d="M79.2467 28C78.5713 20.9424 75.697 14.2754 71.0297 8.94C65.6934 4.29127 59.0396 1.42465 51.9967 0.74C48.5107 0.269064 44.9981 0.0218918 41.4805 0L38.5016 0C34.9906 0.0220338 31.4847 0.269207 28.0054 0.74C20.9555 1.42676 14.2985 4.30874 8.97235 8.98C4.31387 14.3053 1.44028 20.9568 0.755352 28C0.186529 31.9736 -0.0608504 35.9866 0.0156216 40C-0.0663445 44.0128 0.174343 48.0257 0.735359 52C1.42136 59.0548 4.29428 65.7188 8.95236 71.06C14.2941 75.7125 20.9554 78.5794 28.0054 79.26C31.4848 79.73 34.9907 79.9772 38.5016 80H41.4605C44.9848 79.9789 48.504 79.7318 51.9967 79.26C59.0536 78.5773 65.7181 75.695 71.0497 71.02C75.701 65.6921 78.5674 59.0409 79.2467 52C79.8155 48.0264 80.0629 44.0134 79.9865 40C80.0618 35.9866 79.8144 31.9737 79.2467 28Z" fill="#EEF0F2"/>
<mask id="mask0_4696_97990" style="mask-type:alpha" maskUnits="userSpaceOnUse" x="0" y="0" width="80" height="80">
<path d="M79.2467 28C78.5713 20.9424 75.697 14.2754 71.0297 8.94C65.6934 4.29127 59.0396 1.42465 51.9967 0.74C48.5107 0.269064 44.9981 0.0218918 41.4805 0L38.5016 0C34.9906 0.0220338 31.4847 0.269207 28.0054 0.74C20.9555 1.42676 14.2985 4.30874 8.97235 8.98C4.31387 14.3053 1.44028 20.9568 0.755352 28C0.186529 31.9736 -0.0608504 35.9866 0.0156216 40C-0.0663445 44.0128 0.174343 48.0257 0.735359 52C1.42136 59.0548 4.29428 65.7188 8.95236 71.06C14.2941 75.7125 20.9554 78.5794 28.0054 79.26C31.4848 79.73 34.9907 79.9772 38.5016 80H41.4605C44.9848 79.9789 48.504 79.7318 51.9967 79.26C59.0536 78.5773 65.7181 75.695 71.0497 71.02C75.701 65.6921 78.5674 59.0409 79.2467 52C79.8155 48.0264 80.0629 44.0134 79.9865 40C80.0618 35.9866 79.8144 31.9737 79.2467 28Z" fill="#EEF0F2"/>
</mask>
<g mask="url(#mask0_4696_97990)">
<path fill-rule="evenodd" clip-rule="evenodd" d="M53.2211 65.3606L34.4375 69.1543L38.1268 87.4209L38.1384 87.4186C38.1638 87.5827 38.1931 87.7471 38.2264 87.9116C39.3437 93.444 44.4994 97.0706 49.7419 96.0118C54.9844 94.953 58.3284 89.6097 57.2111 84.0773C57.0682 83.37 56.8594 82.6939 56.5927 82.0546L53.2211 65.3606Z" fill="#EDD670"/>
<path fill-rule="evenodd" clip-rule="evenodd" d="M39.5015 80.3897L40.8105 86.871L40.8999 86.8529C40.9254 87.0179 40.9548 87.1831 40.9882 87.3484C42.0068 92.3918 46.3814 95.8514 51.1183 95.6215C50.6768 95.7844 50.2179 95.9154 49.7435 96.0112C44.501 97.07 39.3453 93.4434 38.228 87.911C37.6799 85.1973 38.2052 82.5291 39.5015 80.3897Z" fill="#DEC76E"/>
<path d="M13.0912 37.2085C10.4153 23.9593 18.9867 11.0495 32.2359 8.37362C45.4851 5.69772 58.3949 14.2691 61.0708 27.5183L64.1002 42.5177C66.5356 54.5762 58.7345 66.3259 46.6759 68.7614L42.3643 69.6322C30.3057 72.0676 18.556 64.2665 16.1206 52.2079L13.0912 37.2085Z" fill="#3BAFF5"/>
</g>
<path d="M46.3887 40.0949C46.416 41.7463 45.3295 43.2708 43.6634 43.7291C41.9974 44.1874 40.284 43.433 39.4629 42" stroke="#161616" stroke-width="1.48334" stroke-linecap="round"/>
<circle cx="49.2056" cy="35.47" r="2.41042" transform="rotate(-15.3799 49.2056 35.47)" fill="#161616"/>
<circle cx="34.5454" cy="39.5032" r="2.41042" transform="rotate(-15.3799 34.5454 39.5032)" fill="#161616"/>
</svg>
