<svg width="28" height="28" viewBox="0 0 28 28" fill="none" xmlns="http://www.w3.org/2000/svg">
<path d="M12.1475 14.9124C12.547 15.4465 13.0567 15.8884 13.642 16.2083C14.2274 16.5281 14.8746 16.7182 15.5399 16.7659C16.2052 16.8135 16.873 16.7175 17.4979 16.4844C18.1229 16.2513 18.6904 15.8865 19.1619 15.4147L21.9528 12.6238C22.8002 11.7465 23.269 10.5715 23.2584 9.35188C23.2478 8.13225 22.7586 6.96558 21.8962 6.10314C21.0338 5.2407 19.8671 4.7515 18.6475 4.7409C17.4279 4.7303 16.2529 5.19915 15.3756 6.04648L13.7755 7.63731" stroke="#161616" stroke-width="2" stroke-linecap="round" stroke-linejoin="round"/>
<path d="M15.8513 13.0876C15.4518 12.5534 14.9421 12.1115 14.3568 11.7917C13.7714 11.4719 13.1242 11.2817 12.4589 11.2341C11.7936 11.1864 11.1258 11.2824 10.5009 11.5155C9.87592 11.7486 9.30843 12.1134 8.83687 12.5852L6.04597 15.3761C5.19866 16.2534 4.72981 17.4284 4.74041 18.6481C4.75101 19.8677 5.2402 21.0344 6.10263 21.8968C6.96506 22.7592 8.13171 23.2484 9.35132 23.259C10.5709 23.2696 11.7459 22.8008 12.6232 21.9535L14.214 20.3626" stroke="#161616" stroke-width="2" stroke-linecap="round" stroke-linejoin="round"/>
</svg>
