<svg width="20" height="21" viewBox="0 0 20 21" fill="none" xmlns="http://www.w3.org/2000/svg">
<g clip-path="url(#clip0_4408_9023)">
<g clip-path="url(#clip1_4408_9023)">
<path d="M15.0275 10.287C15.0534 13.0748 17.4732 14.0025 17.5 14.0143C17.4795 14.0798 17.1134 15.3364 16.2252 16.6345C15.4573 17.7567 14.6604 18.8748 13.4051 18.8979C12.1716 18.9207 11.775 18.1665 10.3647 18.1665C8.95492 18.1665 8.51423 18.8748 7.34659 18.9207C6.13487 18.9665 5.21215 17.7071 4.43795 16.589C2.85597 14.3019 1.64701 10.1262 3.27034 7.30745C4.07678 5.90767 5.51794 5.02127 7.08218 4.99854C8.27207 4.97584 9.39517 5.79905 10.1226 5.79905C10.8495 5.79905 12.2143 4.80907 13.6491 4.95446C14.2497 4.97946 15.9358 5.19709 17.0184 6.7818C16.9312 6.83588 15.0066 7.95625 15.0275 10.287V10.287ZM12.7093 3.44133C13.3526 2.66263 13.7856 1.5786 13.6675 0.5C12.7402 0.537269 11.6189 1.11792 10.9538 1.89619C10.3577 2.58539 9.83569 3.6885 9.97654 4.74575C11.0101 4.82572 12.066 4.22053 12.7093 3.44133" fill="white"/>
</g>
</g>
<defs>
<clipPath id="clip0_4408_9023">
<rect width="20" height="20" fill="white" transform="translate(0 0.5)"/>
</clipPath>
<clipPath id="clip1_4408_9023">
<rect width="20" height="19.9025" fill="white" transform="translate(0 0.5)"/>
</clipPath>
</defs>
</svg>
