<svg width="13" height="10" viewBox="0 0 13 10" fill="none" xmlns="http://www.w3.org/2000/svg">
<path d="M12.4609 0.25L8.13092 7.75C7.9994 7.97848 7.81001 8.16827 7.58179 8.30023C7.35356 8.43219 7.09456 8.50168 6.83093 8.50168C6.5673 8.50168 6.30831 8.43219 6.08008 8.30023C5.85185 8.16827 5.66247 7.97848 5.53094 7.75L1.20093 0.25" fill="white"/>
<path d="M12.4609 0.25L8.13092 7.75C7.9994 7.97848 7.81001 8.16827 7.58179 8.30023C7.35356 8.43219 7.09456 8.50168 6.83093 8.50168C6.5673 8.50168 6.30831 8.43219 6.08008 8.30023C5.85185 8.16827 5.66247 7.97848 5.53094 7.75L1.20093 0.25" stroke="black"/>
</svg>
