<svg width="48" height="48" viewBox="0 0 48 48" fill="none" xmlns="http://www.w3.org/2000/svg">
<circle cx="24" cy="24" r="24" fill="#FBE44D"/>
<path d="M23.9975 14.771C17.6185 14.771 12.4453 18.5779 12.4453 23.2761C12.4453 26.3 14.587 28.9419 17.8047 30.4538L16.7167 34.2416C16.6984 34.2968 16.6965 34.3555 16.7112 34.4116C16.726 34.4677 16.7568 34.519 16.8004 34.56C16.8311 34.5891 16.8678 34.6122 16.9083 34.6278C16.9488 34.6434 16.9923 34.6512 17.0361 34.6507C17.1099 34.6532 17.1823 34.6318 17.2411 34.5902L21.9224 31.6443C22.6114 31.7366 23.3065 31.7839 24.0026 31.7859C30.3832 31.7859 35.5564 27.979 35.5564 23.2824C35.5564 18.5859 30.3781 14.771 23.9975 14.771Z" fill="#3B1E1D"/>
</svg>
