<svg width="24" height="24" viewBox="0 0 24 24" fill="none" xmlns="http://www.w3.org/2000/svg">
<path d="M2.30762 2.76923H21.6922V17.8935H6.66916L2.30762 22.1538V2.76923Z" stroke="#AAAAAA" stroke-width="1.5" stroke-linejoin="round"/>
<path d="M12.4752 12.2801H12.5252V12.2301V12.1207C12.5316 11.6762 12.6071 11.3577 12.7638 11.0998C12.9207 10.8416 13.1623 10.6387 13.5119 10.4316C13.9101 10.1967 14.2373 9.91731 14.4648 9.57124C14.6927 9.22462 14.8189 8.81368 14.8189 8.31887C14.8189 7.5948 14.5297 7.00076 14.0299 6.58866C13.5311 6.17732 12.8261 5.95 11.9975 5.95C11.238 5.95 10.546 6.15718 10.037 6.57102C9.52689 6.98574 9.20456 7.60479 9.18049 8.41876L9.17897 8.47024H9.23047H10.7539H10.8012L10.8038 8.42295C10.8246 8.0386 10.9761 7.75817 11.1925 7.57338C11.4097 7.38791 11.6956 7.29602 11.9889 7.29602C12.6299 7.29602 13.131 7.70577 13.131 8.34421C13.131 8.91287 12.7546 9.30106 12.234 9.61938L12.2338 9.61946C11.8506 9.85533 11.5418 10.0941 11.3295 10.4706C11.1175 10.8465 11.0051 11.3535 11.0008 12.12V12.1203V12.2301V12.2801H11.0508H12.4752ZM11.7996 14.9115C12.3341 14.9115 12.7875 14.4762 12.792 13.9369L12.792 13.9361C12.7875 13.4006 12.3336 12.97 11.7996 12.97C11.2537 12.97 10.7985 13.3997 10.8071 13.9365C10.7985 14.4771 11.2532 14.9115 11.7996 14.9115Z" fill="#AAAAAA" stroke="#AAAAAA" stroke-width="0.1"/>
</svg>
