<svg width="40" height="40" viewBox="0 0 40 40" fill="none" xmlns="http://www.w3.org/2000/svg">
<path d="M35 16.7273C35 28.1818 20 38 20 38C20 38 5 28.1818 5 16.7273C5 12.8214 6.58035 9.07542 9.3934 6.31352C12.2064 3.55162 16.0218 2 20 2C23.9782 2 27.7936 3.55162 30.6066 6.31352C33.4196 9.07542 35 12.8214 35 16.7273Z" stroke="#161616" stroke-width="2" stroke-linecap="round" stroke-linejoin="round"/>
<path d="M20 21.5C22.6234 21.5 24.75 19.3734 24.75 16.75C24.75 14.1266 22.6234 12 20 12C17.3766 12 15.25 14.1266 15.25 16.75C15.25 19.3734 17.3766 21.5 20 21.5Z" stroke="#161616" stroke-width="2" stroke-linecap="round" stroke-linejoin="round"/>
</svg>
