<svg width="16" height="16" viewBox="0 0 16 16" fill="none" xmlns="http://www.w3.org/2000/svg">
<g clip-path="url(#clip0_3427_72222)">
<path d="M6.62549 1.696C6.97503 0.255182 9.02467 0.255182 9.37421 1.696C9.42665 1.91245 9.52947 2.11346 9.67428 2.28267C9.81909 2.45188 10.0018 2.5845 10.2076 2.66974C10.4133 2.75499 10.6363 2.79044 10.8583 2.77323C11.0804 2.75601 11.2952 2.68661 11.4854 2.57067C12.7514 1.79939 14.2013 3.24841 13.43 4.51528C13.3142 4.70536 13.2449 4.92007 13.2278 5.14197C13.2106 5.36387 13.246 5.58668 13.3312 5.79231C13.4163 5.99794 13.5488 6.18058 13.7178 6.32538C13.8868 6.47018 14.0876 6.57305 14.3039 6.62564C15.7447 6.97518 15.7447 9.02482 14.3039 9.37436C14.0874 9.42681 13.8864 9.52962 13.7172 9.67443C13.548 9.81924 13.4154 10.002 13.3301 10.2077C13.2449 10.4135 13.2094 10.6364 13.2266 10.8585C13.2438 11.0805 13.3132 11.2954 13.4292 11.4855C14.2005 12.7516 12.7514 14.2014 11.4846 13.4302C11.2945 13.3144 11.0798 13.2451 10.8579 13.2279C10.636 13.2107 10.4132 13.2462 10.2075 13.3313C10.0019 13.4165 9.81927 13.5489 9.67447 13.7179C9.52967 13.8869 9.4268 14.0877 9.37421 14.304C9.02467 15.7448 6.97503 15.7448 6.62549 14.304C6.57305 14.0876 6.47023 13.8865 6.32542 13.7173C6.18061 13.5481 5.99789 13.4155 5.79214 13.3303C5.58638 13.245 5.36341 13.2096 5.14136 13.2268C4.91931 13.244 4.70447 13.3134 4.51431 13.4293C3.24826 14.2006 1.79841 12.7516 2.5697 11.4847C2.68547 11.2946 2.75476 11.0799 2.77194 10.858C2.78912 10.6361 2.75369 10.4133 2.66854 10.2077C2.5834 10.0021 2.45094 9.81943 2.28192 9.67463C2.1129 9.52983 1.91211 9.42695 1.69585 9.37436C0.255029 9.02482 0.255029 6.97518 1.69585 6.62564C1.9123 6.5732 2.11331 6.47039 2.28252 6.32557C2.45172 6.18076 2.58435 5.99804 2.66959 5.79229C2.75483 5.58653 2.79029 5.36356 2.77308 5.14151C2.75586 4.91946 2.68646 4.70462 2.57052 4.51446C1.79923 3.24841 3.24826 1.79857 4.51513 2.56985C5.33236 3.06872 6.39903 2.62728 6.62549 1.696Z" stroke="#161616" stroke-width="1.5" stroke-linecap="round" stroke-linejoin="round"/>
<path d="M10.1197 7.96575C10.1197 8.53699 9.89278 9.08483 9.48886 9.48875C9.08493 9.89268 8.53709 10.1196 7.96586 10.1196C7.39462 10.1196 6.84678 9.89268 6.44286 9.48875C6.03893 9.08483 5.81201 8.53699 5.81201 7.96575C5.81201 7.39452 6.03893 6.84668 6.44286 6.44275C6.84678 6.03883 7.39462 5.8119 7.96586 5.8119C8.53709 5.8119 9.08493 6.03883 9.48886 6.44275C9.89278 6.84668 10.1197 7.39452 10.1197 7.96575V7.96575Z" stroke="#161616" stroke-width="1.5" stroke-linecap="round" stroke-linejoin="round"/>
</g>
<defs>
<clipPath id="clip0_3427_72222">
<rect width="16" height="16" fill="white"/>
</clipPath>
</defs>
</svg>
