<svg width="92" height="92" viewBox="0 0 92 92" fill="none" xmlns="http://www.w3.org/2000/svg">
<g clip-path="url(#clip0_4235_24255)">
<path d="M35.1602 18.1992L40.5802 23.6192" stroke="#C4C4C4" stroke-width="4" stroke-linecap="round" stroke-linejoin="round"/>
<path d="M51.4199 34.4609L56.8399 39.8809" stroke="#C4C4C4" stroke-width="4" stroke-linecap="round" stroke-linejoin="round"/>
<path d="M67.6802 50.7305L73.1102 56.1505" stroke="#C4C4C4" stroke-width="4" stroke-linecap="round" stroke-linejoin="round"/>
<path d="M8.04981 45.2994C7.33617 46.0121 6.77012 46.8585 6.38403 47.7903C5.99795 48.7221 5.79941 49.7208 5.79981 50.7294C5.80167 52.7629 6.61097 54.7124 8.04981 56.1494L16.1798 64.2794C16.8889 63.5615 17.7325 62.9906 18.6626 62.5994C19.5927 62.2081 20.5908 62.0042 21.5998 61.9994C23.6333 62.0012 25.5828 62.8106 27.0198 64.2494C28.4586 65.6864 29.2679 67.6359 29.2698 69.6694C29.2679 71.7029 28.4586 73.6524 27.0198 75.0894L35.1498 83.2194C35.8625 83.933 36.7089 84.4991 37.6407 84.8852C38.5724 85.2712 39.5712 85.4698 40.5798 85.4694C42.6133 85.4675 44.5628 84.6582 45.9998 83.2194L83.9398 45.2694C84.654 44.5592 85.2205 43.7146 85.6067 42.7844C85.9929 41.8541 86.1911 40.8566 86.1898 39.8494C86.1879 37.8159 85.3786 35.8664 83.9398 34.4294L75.8098 26.2994C75.096 27.022 74.2458 27.5957 73.3085 27.9871C72.3712 28.3785 71.3655 28.5798 70.3498 28.5794C68.3163 28.5775 66.3667 27.7682 64.9298 26.3294C63.4909 24.8924 62.6816 22.9429 62.6798 20.9094C62.6816 18.8759 63.4909 16.9263 64.9298 15.4894L56.7998 7.35938C55.3628 5.92055 53.4133 5.11124 51.3798 5.10938C50.3726 5.10812 49.3751 5.30628 48.4448 5.69246C47.5146 6.07863 46.67 6.64516 45.9598 7.35938L8.04981 45.2994Z" stroke="#E5E5E5" stroke-width="4" stroke-linecap="round" stroke-linejoin="round"/>
</g>
<defs>
<clipPath id="clip0_4235_24255">
<rect width="92" height="92" fill="white"/>
</clipPath>
</defs>
</svg>
