<svg width="20" height="20" viewBox="0 0 20 20" fill="none" xmlns="http://www.w3.org/2000/svg">
<g clip-path="url(#clip0_6140_141687)">
<path fill-rule="evenodd" clip-rule="evenodd" d="M18.3139 6.796V2.892L9.36795 11.826L8.17395 10.634L17.12 1.699H13.21V0.130005H20.2999V6.796H18.3139ZM1.68595 3.971V17.462C1.68595 17.928 2.63995 18.306 2.52995 18.306H16.3899C16.5049 18.306 16.884 17.928 16.884 17.462V10.7H18.572V17.462C18.572 18.857 17.4359 19.993 16.3899 19.993H2.52995C1.13295 19.993 0.199951 18.857 0.199951 17.462V3.971C0.199951 2.576 1.13295 1.441 2.52995 1.441H9.93195V3.12701H2.52995C2.63995 3.12701 1.68595 3.50601 1.68595 3.971Z" fill="white"/>
</g>
<defs>
<clipPath id="clip0_6140_141687">
<rect width="20" height="20" fill="white"/>
</clipPath>
</defs>
</svg>
