<svg width="32" height="32" viewBox="0 0 32 32" fill="none" xmlns="http://www.w3.org/2000/svg">
<circle cx="16" cy="16" r="13" fill="#FFDE70"/>
<path d="M29 16.522C28.8707 19.7482 27.5464 22.9315 25.0394 25.3514C19.8727 30.3388 11.6395 30.1952 6.65006 25.0305C1.66062 19.8659 1.80433 11.636 6.97105 6.64859C12.1378 1.66116 20.371 1.80481 25.3604 6.96945C26.9276 8.59164 27.9883 10.5162 28.5461 12.5478" stroke="#161616" stroke-width="1.5" stroke-linecap="round"/>
<path d="M10.9748 19.9935C10.6723 19.9935 10.4482 19.9503 10.3025 19.8638C10.1681 19.7773 10.084 19.6584 10.0504 19.5071C10.0168 19.3558 10 19.1936 10 19.0207V12.9566C10 12.7837 10.0168 12.6269 10.0504 12.4864C10.084 12.3459 10.1737 12.2324 10.3193 12.1459C10.465 12.0595 10.6947 12.0162 11.0084 12.0162C11.3333 12.0162 11.5686 12.0811 11.7143 12.2108C11.8711 12.3405 11.9496 12.5459 11.9496 12.8269L11.7983 13.2809C11.8543 13.162 11.9496 13.0323 12.084 12.8918C12.2185 12.7513 12.381 12.6107 12.5714 12.4702C12.7731 12.3297 12.9972 12.2162 13.2437 12.1297C13.4902 12.0432 13.7479 12 14.0168 12C14.3866 12 14.7227 12.0595 15.0252 12.1784C15.3389 12.2973 15.6134 12.4702 15.8487 12.6972C16.0952 12.9242 16.3081 13.1998 16.4874 13.5241C16.6779 13.2431 16.8908 12.9891 17.1261 12.7621C17.3613 12.5243 17.6359 12.3405 17.9496 12.2108C18.2633 12.0703 18.6162 12 19.0084 12C19.6583 12 20.2017 12.1567 20.6387 12.4702C21.0868 12.7837 21.423 13.2323 21.6471 13.816C21.8824 14.3889 22 15.0753 22 15.8752V19.0207C22 19.2044 21.9776 19.372 21.9328 19.5233C21.8992 19.6638 21.8095 19.7773 21.6639 19.8638C21.5294 19.9503 21.3053 19.9935 20.9916 19.9935C20.6779 19.9935 20.4482 19.9449 20.3025 19.8476C20.1569 19.7611 20.0672 19.6476 20.0336 19.5071C20 19.3558 19.9832 19.1882 19.9832 19.0045V15.8589C19.9832 15.459 19.9328 15.1131 19.8319 14.8212C19.7311 14.5294 19.5798 14.3024 19.3782 14.1403C19.1877 13.9781 18.9356 13.897 18.6218 13.897C18.2857 13.897 17.9944 13.9781 17.7479 14.1403C17.5126 14.2916 17.3277 14.5132 17.1933 14.805C17.0588 15.0969 16.9916 15.4536 16.9916 15.8752V19.0369C16.9916 19.2206 16.9636 19.3936 16.9076 19.5557C16.8515 19.7071 16.7395 19.8206 16.5714 19.8962C16.4146 19.9827 16.1849 20.0151 15.8824 19.9935C15.6022 19.9827 15.395 19.9287 15.2605 19.8314C15.1373 19.7341 15.0588 19.6152 15.0252 19.4747C15.0028 19.3233 14.9916 19.1666 14.9916 19.0045V15.8589C14.9916 15.459 14.9412 15.1131 14.8403 14.8212C14.7395 14.5186 14.5882 14.2916 14.3866 14.1403C14.1961 13.9781 13.9384 13.897 13.6134 13.897C13.2661 13.897 12.9692 13.9835 12.7227 14.1565C12.4874 14.3294 12.3081 14.5618 12.1849 14.8537C12.0616 15.1455 12 15.4806 12 15.8589V19.0369C12 19.2098 11.9776 19.372 11.9328 19.5233C11.8992 19.6746 11.8095 19.7881 11.6639 19.8638C11.5294 19.9503 11.2997 19.9935 10.9748 19.9935Z" fill="#161616"/>
</svg>
