<svg width="31" height="30" viewBox="0 0 31 30" fill="none" xmlns="http://www.w3.org/2000/svg">
<path d="M30.3715 8.10882C30.119 7.69431 29.5781 7.56294 29.1636 7.81562C28.7398 8.0738 28.2953 8.28918 27.8366 8.4613L22.0388 2.66325C22.2109 2.2048 22.426 1.76008 22.6844 1.33619C22.9369 0.921686 22.8057 0.381066 22.391 0.12838C21.9767 -0.124077 21.4359 0.00730152 21.1832 0.421578C20.7614 1.11395 20.4334 1.85164 20.2002 2.61496C20.1937 2.6335 20.1878 2.65204 20.183 2.67081C19.6836 4.34073 19.6408 6.13128 20.0807 7.84126C16.7848 6.99165 13.2788 7.94174 10.8602 10.3601C8.44178 12.7785 7.49192 16.2845 8.3413 19.5804C6.63109 19.1405 4.84009 19.1833 3.1697 19.6829C3.15185 19.6877 3.13446 19.6935 3.11683 19.6992C2.35305 19.9327 1.61468 20.2609 0.921851 20.6832C0.507117 20.9356 0.375967 21.4765 0.628424 21.891C0.88111 22.3055 1.42196 22.4369 1.83624 22.1842C2.26013 21.926 2.70484 21.7106 3.16352 21.5385L8.96134 27.3365C8.78945 27.7952 8.57407 28.2397 8.31567 28.6636C8.06321 29.0781 8.19436 29.619 8.60909 29.8714C8.75192 29.9584 8.90962 29.9998 9.06549 29.9998C9.36189 29.9998 9.65142 29.8499 9.81691 29.5782C10.2387 28.8858 10.5667 28.1482 10.8 27.3848C10.8064 27.3663 10.8121 27.348 10.8171 27.329C11.3165 25.6588 11.3593 23.8683 10.9194 22.1581C11.7153 22.3634 12.523 22.4639 13.325 22.4639C15.8448 22.4639 18.3052 21.4742 20.14 19.6397C22.5583 17.2213 23.5082 13.7155 22.6588 10.4198C23.4475 10.6226 24.2537 10.7231 25.057 10.7231C25.9895 10.7231 26.9181 10.5869 27.8128 10.321C27.8389 10.3146 27.865 10.307 27.8906 10.2981C28.6519 10.0648 29.3877 9.73755 30.0783 9.31663C30.4928 9.06418 30.6241 8.52333 30.3715 8.10882ZM19.9003 9.61464L20.6614 9.83848L20.8852 10.5995C21.1745 11.583 21.2638 12.594 21.1686 13.5807L16.9191 9.33105C17.9056 9.23607 18.9168 9.32533 19.9003 9.61464ZM19.4831 17.7402L12.7599 11.0168C13.4124 10.4956 14.1359 10.0873 14.9015 9.79935L20.7005 15.5983C20.4126 16.3639 20.0045 17.0876 19.4831 17.7402ZM16.0986 20.2004L10.2994 14.4015C10.5876 13.6359 10.9956 12.9121 11.5168 12.2596L18.2402 18.983C17.5877 19.5042 16.8642 19.9125 16.0986 20.2004ZM5.18227 21.0713C6.17516 20.9757 7.18728 21.0668 8.16186 21.3533L8.92266 21.5772L9.14651 22.338C9.43307 23.3128 9.52439 24.3249 9.42849 25.3178L5.18227 21.0713ZM11.0996 20.3852L10.3388 20.1613L10.1149 19.4003C9.8256 18.4168 9.73611 17.4058 9.83133 16.4191L14.0808 20.6685C13.0943 20.7637 12.0831 20.6745 11.0996 20.3852ZM22.8383 8.64647L22.0772 8.42262L21.8536 7.66181C21.5668 6.687 21.4757 5.67489 21.5714 4.68199L25.8181 8.92845C24.8249 9.02435 23.8128 8.93326 22.8383 8.64647Z" fill="black"/>
</svg>
