<svg width="24" height="24" viewBox="0 0 24 24" fill="none" xmlns="http://www.w3.org/2000/svg">
<path d="M10.333 12.8211C10.6926 13.3018 11.1513 13.6996 11.6781 13.9874C12.2049 14.2752 12.7875 14.4464 13.3862 14.4893C13.985 14.5321 14.586 14.4458 15.1484 14.2359C15.7109 14.0261 16.2216 13.6978 16.646 13.2732L19.1579 10.7614C19.9204 9.97183 20.3424 8.91433 20.3329 7.81667C20.3233 6.719 19.883 5.669 19.1069 4.8928C18.3307 4.1166 17.2807 3.67632 16.183 3.66678C15.0854 3.65725 14.0279 4.07921 13.2383 4.8418L11.7982 6.27356" stroke="#444444" stroke-width="2" stroke-linecap="round" stroke-linejoin="round"/>
<path d="M13.667 11.1788C13.3074 10.6981 12.8487 10.3004 12.3219 10.0126C11.7951 9.72474 11.2125 9.55358 10.6138 9.5107C10.015 9.46781 9.414 9.55421 8.85156 9.76402C8.28911 9.97383 7.77837 10.3021 7.35397 10.7267L4.84215 13.2386C4.07957 14.0281 3.65761 15.0856 3.66715 16.1833C3.67669 17.281 4.11696 18.331 4.89315 19.1072C5.66933 19.8834 6.71932 20.3236 7.81697 20.3332C8.91462 20.3427 9.9721 19.9207 10.7617 19.1582L12.1934 17.7264" stroke="#444444" stroke-width="2" stroke-linecap="round" stroke-linejoin="round"/>
</svg>
