<svg width="48" height="48" viewBox="0 0 48 48" fill="none" xmlns="http://www.w3.org/2000/svg">
<circle cx="23.999" cy="23.999" r="23.499" fill="white" stroke="#E5E5E5"/>
<path d="M22.333 24.821C22.6926 25.3017 23.1513 25.6995 23.6781 25.9873C24.2049 26.2751 24.7875 26.4463 25.3862 26.4891C25.985 26.532 26.586 26.4456 27.1484 26.2358C27.7109 26.026 28.2216 25.6977 28.646 25.2731L31.1579 22.7613C31.9204 21.9717 32.3424 20.9142 32.3329 19.8165C32.3233 18.7189 31.883 17.6689 31.1069 16.8927C30.3307 16.1165 29.2807 15.6762 28.183 15.6667C27.0854 15.6571 26.0279 16.0791 25.2383 16.8417L23.7982 18.2734" stroke="#444444" stroke-width="2" stroke-linecap="round" stroke-linejoin="round"/>
<path d="M25.667 23.1788C25.3074 22.6981 24.8487 22.3004 24.3219 22.0126C23.7951 21.7247 23.2125 21.5536 22.6138 21.5107C22.015 21.4678 21.414 21.5542 20.8516 21.764C20.2891 21.9738 19.7784 22.3021 19.354 22.7267L16.8422 25.2386C16.0796 26.0281 15.6576 27.0856 15.6672 28.1833C15.6767 29.281 16.117 30.331 16.8931 31.1072C17.6693 31.8834 18.7193 32.3236 19.817 32.3332C20.9146 32.3427 21.9721 31.9207 22.7617 31.1582L24.1934 29.7264" stroke="#444444" stroke-width="2" stroke-linecap="round" stroke-linejoin="round"/>
</svg>
