<svg width="20" height="20" viewBox="0 0 20 20" fill="none" xmlns="http://www.w3.org/2000/svg">
<path d="M18.0466 18.1657L13.4565 13.5755M15.2637 9.05755C15.2637 9.88819 15.1001 10.7107 14.7822 11.4781C14.4643 12.2455 13.9984 12.9428 13.4111 13.5301C12.8237 14.1175 12.1264 14.5834 11.359 14.9013C10.5916 15.2191 9.76911 15.3827 8.93847 15.3827C8.10784 15.3827 7.28534 15.2191 6.51793 14.9013C5.75052 14.5834 5.05324 14.1175 4.46589 13.5301C3.87854 12.9428 3.41263 12.2455 3.09476 11.4781C2.77689 10.7107 2.61328 9.88819 2.61328 9.05755C2.61328 7.38001 3.27968 5.77117 4.46589 4.58497C5.65209 3.39876 7.26093 2.73236 8.93847 2.73236C10.616 2.73236 12.2249 3.39876 13.4111 4.58497C14.5973 5.77117 15.2637 7.38001 15.2637 9.05755Z" stroke="#161616" stroke-width="2" stroke-linecap="round" stroke-linejoin="round"/>
</svg>
