<svg width="40" height="40" viewBox="0 0 40 40" fill="none" xmlns="http://www.w3.org/2000/svg">
<circle cx="20" cy="20" r="20" fill="#161616" fill-opacity="0.6"/>
<path d="M26.79 21.23L17.13 26.81C16.9135 26.9327 16.6689 26.9972 16.42 26.9972C16.1711 26.9972 15.9265 26.9327 15.71 26.81C15.4934 26.6861 15.3136 26.507 15.1888 26.2909C15.0641 26.0748 14.9989 25.8295 15 25.58V14.42C14.9989 14.1705 15.0641 13.9252 15.1888 13.7091C15.3136 13.493 15.4934 13.3139 15.71 13.19C15.9269 13.068 16.1711 13.0026 16.42 13C16.6682 13.0074 16.9113 13.0724 17.13 13.19L26.79 18.77C26.9516 18.8632 27.0932 18.9873 27.2067 19.1353C27.3203 19.2833 27.4036 19.4521 27.4519 19.6323C27.5002 19.8124 27.5125 20.0003 27.4882 20.1853C27.4638 20.3702 27.4033 20.5485 27.31 20.71C27.1903 20.9298 27.0098 21.1103 26.79 21.23V21.23Z" stroke="white" stroke-width="1.5" stroke-miterlimit="10"/>
</svg>
