<svg width="92" height="92" viewBox="0 0 92 92" fill="none" xmlns="http://www.w3.org/2000/svg">
<path d="M37.3424 86C37.1143 86 36.8832 85.9544 36.6624 85.8592C35.8901 85.5261 35.4723 84.683 35.6751 83.8667L43.937 50.6105H21.3789C20.812 50.6105 20.2817 50.331 19.9612 49.8635C19.6408 49.396 19.5714 48.8004 19.7759 48.2718L35.7018 7.09875C35.9579 6.43656 36.5948 6 37.3048 6H59.2191C59.7999 6 60.3415 6.29328 60.6588 6.77984C60.976 7.26625 61.0263 7.88015 60.7921 8.41171L50.951 30.749H70.6204C71.2489 30.749 71.8275 31.0921 72.1286 31.6439C72.43 32.1954 72.4061 32.8678 72.0666 33.3965L38.7893 85.2098C38.4648 85.7155 37.9128 86 37.3424 86ZM23.8865 47.173H46.1349C46.6637 47.173 47.1632 47.4165 47.489 47.833C47.8146 48.2496 47.9305 48.793 47.8031 49.3062L41.5199 74.5972L67.4736 34.1865H48.3157C47.7349 34.1865 47.1934 33.8932 46.876 33.4067C46.5588 32.9203 46.5087 32.3064 46.7427 31.7748L56.5838 9.43749H38.4828L23.8865 47.173Z" fill="#C4C4C4"/>
</svg>
