<svg width="20" height="20" viewBox="0 0 20 20" fill="none" xmlns="http://www.w3.org/2000/svg">
<path d="M16.6659 13.3159V15.3231C16.6667 15.5094 16.6284 15.6939 16.5536 15.8646C16.4788 16.0353 16.3691 16.1886 16.2316 16.3145C16.094 16.4405 15.9316 16.5364 15.7547 16.5961C15.5778 16.6558 15.3904 16.678 15.2045 16.6612C13.1415 16.4375 11.16 15.734 9.41894 14.6072C7.79915 13.5799 6.42585 12.2093 5.39657 10.5928C4.26358 8.8473 3.5585 6.86003 3.33845 4.79195C3.3217 4.60693 3.34373 4.42045 3.40314 4.2444C3.46256 4.06834 3.55805 3.90656 3.68355 3.76936C3.80904 3.63215 3.96179 3.52253 4.13206 3.44747C4.30233 3.37241 4.4864 3.33355 4.67254 3.33338H6.68373C7.00907 3.33018 7.32449 3.44516 7.57117 3.65689C7.81786 3.86862 7.97898 4.16265 8.02452 4.48417C8.10941 5.12652 8.26683 5.75723 8.4938 6.36426C8.58399 6.60373 8.60352 6.86399 8.55005 7.1142C8.49658 7.36441 8.37236 7.59408 8.19212 7.77599L7.34072 8.62571C8.29506 10.3007 9.68473 11.6877 11.3631 12.6401L12.2145 11.7904C12.3968 11.6105 12.6269 11.4865 12.8776 11.4332C13.1283 11.3798 13.3891 11.3993 13.629 11.4893C14.2373 11.7158 14.8692 11.8729 15.5128 11.9577C15.8385 12.0035 16.1359 12.1672 16.3485 12.4176C16.5611 12.6681 16.6741 12.9877 16.6659 13.3159Z" stroke="#444444" stroke-width="1.5" stroke-linecap="round" stroke-linejoin="round"/>
</svg>
