<svg width="20" height="20" viewBox="0 0 20 20" fill="none" xmlns="http://www.w3.org/2000/svg">
<path d="M12.6425 5.83333L7.15412 11.3217C6.99494 11.4754 6.86797 11.6593 6.78062 11.8627C6.69327 12.066 6.64729 12.2847 6.64537 12.506C6.64345 12.7273 6.68562 12.9468 6.76942 13.1516C6.85322 13.3564 6.97697 13.5425 7.13346 13.699C7.28995 13.8555 7.47604 13.9792 7.68086 14.063C7.88569 14.1468 8.10516 14.189 8.32646 14.1871C8.54776 14.1852 8.76645 14.1392 8.96979 14.0518C9.17313 13.9645 9.35704 13.8375 9.51079 13.6783L14.8558 8.18999C15.463 7.56132 15.799 6.71931 15.7914 5.84532C15.7838 4.97133 15.4332 4.13529 14.8152 3.51727C14.1972 2.89924 13.3611 2.54868 12.4871 2.54108C11.6131 2.53349 10.7711 2.86947 10.1425 3.47666L4.79662 8.96416C3.85886 9.90192 3.33203 11.1738 3.33203 12.5C3.33203 13.8262 3.85886 15.0981 4.79662 16.0358C5.73438 16.9736 7.00626 17.5004 8.33245 17.5004C9.65865 17.5004 10.9305 16.9736 11.8683 16.0358L17.0825 10.8333" stroke="#AAAAAA" stroke-width="1.5" stroke-linecap="round" stroke-linejoin="round"/>
</svg>
