<svg width="32" height="32" viewBox="0 0 32 32" fill="none" xmlns="http://www.w3.org/2000/svg">
<g clip-path="url(#clip0_1929_33135)">
<path d="M26.59 13.82C26.59 21.97 15.92 28.95 15.92 28.95C15.92 28.95 5.25 21.95 5.25 13.82C5.25267 12.4403 5.53091 11.0749 6.06841 9.8042C6.6059 8.53346 7.39181 7.3829 8.38 6.42001C10.3958 4.4508 13.102 3.34833 15.92 3.34833C18.738 3.34833 21.4442 4.4508 23.46 6.42001C24.4482 7.3829 25.2341 8.53346 25.7716 9.8042C26.3091 11.0749 26.5873 12.4403 26.59 13.82V13.82Z" stroke="#AAAAAA" stroke-width="1.5" stroke-linecap="round" stroke-linejoin="round"/>
<path d="M15.9204 17.25C16.6606 17.252 17.3846 17.0343 18.001 16.6246C18.6173 16.2148 19.0983 15.6314 19.3829 14.9482C19.6675 14.265 19.743 13.5126 19.5998 12.7865C19.4566 12.0604 19.1012 11.393 18.5785 10.869C18.0559 10.3449 17.3895 9.98774 16.6637 9.84262C15.938 9.6975 15.1855 9.77097 14.5015 10.0537C13.8175 10.3365 13.2328 10.8159 12.8214 11.4311C12.41 12.0464 12.1904 12.7699 12.1904 13.51C12.1904 14.5002 12.5831 15.45 13.2823 16.1511C13.9815 16.8522 14.9302 17.2474 15.9204 17.25V17.25Z" stroke="#AAAAAA" stroke-width="1.5" stroke-linecap="round" stroke-linejoin="round"/>
</g>
<defs>
<clipPath id="clip0_1929_33135">
<rect width="22.83" height="27.1" fill="white" transform="translate(4.5 2.59998)"/>
</clipPath>
</defs>
</svg>
