<svg width="36" height="36" viewBox="0 0 36 36" fill="none" xmlns="http://www.w3.org/2000/svg">
<path d="M6.64844 4.00806C6.64844 3.86999 6.76037 3.75806 6.89844 3.75806H28.101C28.239 3.75806 28.351 3.86999 28.351 4.00806V23.934L27.93 24.1127C21.1151 27.005 13.4101 26.9417 6.64844 23.9462V4.00806Z" stroke="#161616" stroke-width="1.5"/>
<mask id="path-2-inside-1_1519_27094" fill="white">
<path d="M8.0127 35.1275C8.0127 31.7211 10.7741 28.9597 14.1805 28.9597H20.8199C24.2263 28.9597 26.9877 31.7211 26.9877 35.1275C26.9877 35.2978 26.8496 35.4359 26.6793 35.4359H8.32109C8.15077 35.4359 8.0127 35.2978 8.0127 35.1275Z"/>
</mask>
<path d="M8.0127 35.1275C8.0127 31.7211 10.7741 28.9597 14.1805 28.9597H20.8199C24.2263 28.9597 26.9877 31.7211 26.9877 35.1275C26.9877 35.2978 26.8496 35.4359 26.6793 35.4359H8.32109C8.15077 35.4359 8.0127 35.2978 8.0127 35.1275Z" stroke="#161616" stroke-width="3" mask="url(#path-2-inside-1_1519_27094)"/>
<mask id="path-3-inside-2_1519_27094" fill="white">
<path d="M6.85017 17.3528C3.37866 17.3528 0.564453 14.5386 0.564453 11.0671L0.564453 6.82897L6.16445 6.82897C6.71674 6.82897 7.16445 7.27669 7.16445 7.82897L7.16445 17.0385C7.16445 17.2121 7.02374 17.3528 6.85017 17.3528Z"/>
</mask>
<path d="M6.85017 17.3528C3.37866 17.3528 0.564453 14.5386 0.564453 11.0671L0.564453 6.82897L6.16445 6.82897C6.71674 6.82897 7.16445 7.27669 7.16445 7.82897L7.16445 17.0385C7.16445 17.2121 7.02374 17.3528 6.85017 17.3528Z" stroke="#161616" stroke-width="3" mask="url(#path-3-inside-2_1519_27094)"/>
<mask id="path-4-inside-3_1519_27094" fill="white">
<path d="M28.0883 17.3528C31.5598 17.3528 34.374 14.5386 34.374 11.0671L34.374 6.82897L28.774 6.82897C28.2217 6.82897 27.774 7.27669 27.774 7.82897L27.774 17.0385C27.774 17.2121 27.9147 17.3528 28.0883 17.3528Z"/>
</mask>
<path d="M28.0883 17.3528C31.5598 17.3528 34.374 14.5386 34.374 11.0671L34.374 6.82897L28.774 6.82897C28.2217 6.82897 27.774 7.27669 27.774 7.82897L27.774 17.0385C27.774 17.2121 27.9147 17.3528 28.0883 17.3528Z" stroke="#161616" stroke-width="3" mask="url(#path-4-inside-3_1519_27094)"/>
<path d="M17.5 29.5238L17.5 25.7119" stroke="black" stroke-width="1.5"/>
</svg>
