<svg width="24" height="24" viewBox="0 0 24 24" fill="none" xmlns="http://www.w3.org/2000/svg">
<path d="M10.5996 12.6901C10.9017 13.0939 11.287 13.428 11.7296 13.6698C12.1721 13.9116 12.6614 14.0553 13.1644 14.0914C13.6674 14.1274 14.1723 14.0548 14.6447 13.8786C15.1172 13.7023 15.5462 13.4265 15.9028 13.0699L18.0128 10.9598C18.6534 10.2966 19.0078 9.40824 18.9998 8.48617C18.9918 7.56409 18.6219 6.68206 17.9699 6.03003C17.3179 5.378 16.4359 5.00815 15.5138 5.00013C14.5918 4.99212 13.7034 5.34659 13.0402 5.98719L11.8304 7.18991" stroke="#C4C4C4" stroke-width="1.5" stroke-linecap="round" stroke-linejoin="round"/>
<path d="M13.4003 11.3102C13.0983 10.9064 12.7129 10.5723 12.2704 10.3305C11.8278 10.0887 11.3385 9.94497 10.8355 9.90895C10.3325 9.87292 9.82767 9.9455 9.3552 10.1217C8.88273 10.298 8.45369 10.5738 8.09718 10.9304L5.98717 13.0405C5.34658 13.7037 4.99212 14.5921 5.00013 15.5141C5.00815 16.4362 5.37799 17.3183 6.03001 17.9703C6.68203 18.6223 7.56406 18.9922 8.48612 19.0002C9.40818 19.0082 10.2965 18.6537 10.9598 18.0131L12.1625 16.8104" stroke="#C4C4C4" stroke-width="1.5" stroke-linecap="round" stroke-linejoin="round"/>
</svg>
