<svg width="7" height="37" viewBox="0 0 7 37" fill="none" xmlns="http://www.w3.org/2000/svg">
<path d="M5.81348 0.453125L5.49609 25.9658H1.41895L1.07715 0.453125H5.81348ZM0.930664 33.7295C0.930664 32.9971 1.15039 32.3786 1.58984 31.874C2.04557 31.3695 2.71289 31.1172 3.5918 31.1172C4.45443 31.1172 5.11361 31.3695 5.56934 31.874C6.04134 32.3786 6.27734 32.9971 6.27734 33.7295C6.27734 34.4294 6.04134 35.0316 5.56934 35.5361C5.11361 36.0407 4.45443 36.293 3.5918 36.293C2.71289 36.293 2.04557 36.0407 1.58984 35.5361C1.15039 35.0316 0.930664 34.4294 0.930664 33.7295Z" fill="#555555"/>
</svg>
