<svg width="32" height="32" viewBox="0 0 32 32" fill="none" xmlns="http://www.w3.org/2000/svg">
<path d="M16 21.332C18.2091 21.332 20 19.5412 20 17.332C20 15.1229 18.2091 13.332 16 13.332C13.7909 13.332 12 15.1229 12 17.332C12 19.5412 13.7909 21.332 16 21.332Z" stroke="#999999" stroke-width="1.5" stroke-linecap="round" stroke-linejoin="round"/>
<path d="M6.66667 9.33203H9.33333C10.0406 9.33203 10.7189 9.05108 11.219 8.55098C11.719 8.05089 12 7.37261 12 6.66536C12 6.31174 12.1405 5.9726 12.3905 5.72256C12.6406 5.47251 12.9797 5.33203 13.3333 5.33203H16M28 14.6654V23.9987C28 24.7059 27.719 25.3842 27.219 25.8843C26.7189 26.3844 26.0406 26.6654 25.3333 26.6654H6.66667C5.95942 26.6654 5.28115 26.3844 4.78105 25.8843C4.28095 25.3842 4 24.7059 4 23.9987V11.9987C4 11.2915 4.28095 10.6132 4.78105 10.1131C5.28115 9.61298 5.95942 9.33203 6.66667 9.33203" stroke="#999999" stroke-width="1.5" stroke-linecap="round" stroke-linejoin="round"/>
<path d="M20 8H28" stroke="#999999" stroke-width="1.5" stroke-linecap="round" stroke-linejoin="round"/>
<path d="M24 4V12" stroke="#999999" stroke-width="1.5" stroke-linecap="round" stroke-linejoin="round"/>
</svg>
