<svg width="146" height="36" viewBox="0 0 146 36" fill="none" xmlns="http://www.w3.org/2000/svg">
<g clip-path="url(#clip0_7389_5582)">
<path d="M25.3113 7.28C22.0825 7.28 19.4575 9.905 19.4575 13.1337V18.9875H31.165V13.1337C31.165 9.905 28.54 7.28 25.3113 7.28ZM28.7763 16.5987H21.855V13.1337C21.855 11.2262 23.4038 9.66875 25.32 9.66875C27.2363 9.66875 28.785 11.2175 28.785 13.1337V16.5987H28.7763Z" fill="url(#paint0_linear_7389_5582)"/>
<path d="M16.2549 18.9963H17.8737V7.41125H15.4762V11.8825C14.5049 11.165 13.3062 10.7363 12.0112 10.7363C10.7162 10.7363 9.51743 11.165 8.54618 11.8825V7.41125H6.14868V18.9875H16.2374L16.2549 18.9963ZM8.55493 16.5988C8.55493 14.6913 10.1037 13.1338 12.0199 13.1338C13.9362 13.1338 15.4849 14.6825 15.4849 16.5988H8.56368H8.55493Z" fill="url(#paint1_linear_7389_5582)"/>
<path d="M18.6699 26.3988L13.4199 21.1575L11.5999 22.9775L18.6699 30.0388L25.7311 22.9775L23.9111 21.1575L18.6699 26.3988Z" fill="url(#paint2_linear_7389_5582)"/>
</g>
<g clip-path="url(#clip1_7389_5582)">
<path d="M58.0524 21.9738H50.9046V26.18H48.1336V21.9738H41V19.7001H58.0524V21.9738ZM56.5603 18.2222H42.4495V9.82394H45.2063V11.8986H53.8177V9.82394H56.5603V18.2222ZM53.8177 16.0054V14.1012H45.2063V16.0054H53.8177Z" fill="white"/>
<path d="M75.6305 25.3274H58.5923V23.0537H65.669V20.2543H68.5111V23.0537H75.6447V25.3274H75.6305ZM74.1384 19.4585H60.0417V10.165H74.1526V19.4585H74.1384ZM71.3958 17.2133V12.4386H62.7843V17.2133H71.3958Z" fill="white"/>
<path d="M88.4339 17.9522H77.3357V10.0655H80.0783V15.7496H88.4339V17.938V17.9522ZM92.1713 25.91H78.6004V19.3306H92.1713V25.91ZM89.4287 23.6932V21.519H81.3572V23.6932H89.4287ZM92.1713 18.6486H89.4145V9.71027H92.1713V18.6628V18.6486Z" fill="white"/>
<path d="M109.764 21.3059H107.007V17.6396H103.994C103.568 18.1512 103 18.5491 102.303 18.8333C101.593 19.1175 100.754 19.2738 99.788 19.2738C98.9354 19.2738 98.1681 19.1601 97.5286 18.9186C96.8749 18.677 96.3349 18.3644 95.8802 17.9807C95.4397 17.5828 95.1128 17.1281 94.8855 16.6165C94.6581 16.0907 94.5444 15.5507 94.5444 14.9681V13.9307C94.5444 13.3481 94.6581 12.7939 94.8855 12.2823C95.1128 11.7566 95.4397 11.3018 95.8802 10.9181C96.3207 10.5203 96.8749 10.2076 97.5286 9.98027C98.1823 9.7529 98.9354 9.63922 99.788 9.63922C100.726 9.63922 101.55 9.78132 102.246 10.0655C102.943 10.3497 103.511 10.7334 103.937 11.2024H107.007V9.71027H109.764V21.3059ZM109.948 25.7821H96.2923V20.2543H99.0491V23.5369H109.948V25.7821ZM102.246 14.1013C102.246 13.7886 102.204 13.4902 102.104 13.2202C102.005 12.9502 101.863 12.7086 101.65 12.5097C101.451 12.3108 101.181 12.1402 100.882 12.0266C100.57 11.8987 100.214 11.8418 99.8023 11.8418C99.3902 11.8418 99.0065 11.8987 98.6938 12.0266C98.3812 12.1544 98.1254 12.3108 97.9265 12.5097C97.7275 12.7086 97.5854 12.9502 97.486 13.2202C97.3865 13.4902 97.3439 13.7886 97.3439 14.1013V14.7691C97.3439 15.0818 97.3865 15.3802 97.486 15.6644C97.5854 15.9486 97.7275 16.1902 97.9265 16.3891C98.1254 16.5881 98.3812 16.7586 98.6938 16.8723C99.0065 17.0002 99.3759 17.057 99.8023 17.057C100.229 17.057 100.57 17.0002 100.882 16.8723C101.195 16.7586 101.451 16.5881 101.65 16.3891C101.849 16.1902 102.005 15.9486 102.104 15.6644C102.204 15.3802 102.246 15.096 102.246 14.7691V14.1013ZM107.021 15.437V13.3907H104.975C104.975 13.4902 104.989 13.5755 105.003 13.6607C105.003 13.746 105.003 13.8313 105.003 13.9307V14.9681C105.003 15.0534 105.003 15.1386 105.003 15.2097C105.003 15.2949 104.989 15.366 104.975 15.4512H107.021V15.437Z" fill="white"/>
<path d="M128.408 20.8369H121.075V26.18H118.318V20.8369H111.355V18.5633H128.408V20.8369ZM126.916 17.7675H124.173V12.2539H112.535V9.99448H126.916V17.7675Z" fill="white"/>
<path d="M146 25.3274H128.948V23.0538H136.024V19.5154H138.866V23.0538H146V25.3274ZM144.266 20.2259C143.556 20.027 142.859 19.757 142.177 19.4443C141.495 19.1317 140.87 18.7764 140.273 18.3786C139.676 17.9807 139.151 17.5686 138.667 17.1138C138.184 16.6591 137.801 16.1902 137.474 15.707C137.147 16.1902 136.749 16.6591 136.266 17.1138C135.783 17.5686 135.257 17.9949 134.674 18.3786C134.092 18.7622 133.452 19.1317 132.784 19.4443C132.102 19.757 131.406 20.0127 130.681 20.2259L129.232 18.1938C130.269 17.9096 131.207 17.5402 132.045 17.0854C132.884 16.6449 133.608 16.1475 134.205 15.6076C134.802 15.0676 135.257 14.4991 135.584 13.9023C135.911 13.3055 136.067 12.7086 136.067 12.1402V9.99448H138.881V12.1402C138.881 12.7229 139.037 13.3055 139.364 13.9023C139.691 14.4991 140.145 15.0676 140.742 15.6076C141.339 16.1475 142.064 16.6449 142.902 17.0854C143.74 17.5259 144.693 17.8954 145.744 18.1938L144.28 20.2259H144.266Z" fill="white"/>
</g>
<defs>
<linearGradient id="paint0_linear_7389_5582" x1="32.04" y1="8.12875" x2="6.87502" y2="33.2938" gradientUnits="userSpaceOnUse">
<stop offset="0.09" stop-color="#DF2126"/>
<stop offset="0.89" stop-color="#FF0098"/>
</linearGradient>
<linearGradient id="paint1_linear_7389_5582" x1="24.9349" y1="0.288756" x2="-0.238813" y2="25.4625" gradientUnits="userSpaceOnUse">
<stop offset="0.09" stop-color="#DF2126"/>
<stop offset="0.89" stop-color="#FF0098"/>
</linearGradient>
<linearGradient id="paint2_linear_7389_5582" x1="31.9699" y1="9.6775" x2="8.0911" y2="33.5475" gradientUnits="userSpaceOnUse">
<stop offset="0.09" stop-color="#DF2126"/>
<stop offset="0.89" stop-color="#FF0098"/>
</linearGradient>
<clipPath id="clip0_7389_5582">
<rect width="35.8313" height="35.8312" fill="white" transform="translate(0.75)"/>
</clipPath>
<clipPath id="clip1_7389_5582">
<rect width="105" height="16.555" fill="white" transform="translate(41 9.625)"/>
</clipPath>
</defs>
</svg>
