<svg width="80" height="80" viewBox="0 0 80 80" fill="none" xmlns="http://www.w3.org/2000/svg">
<path d="M79.2467 28C78.5713 20.9424 75.697 14.2754 71.0297 8.94C65.6934 4.29127 59.0396 1.42465 51.9967 0.74C48.5107 0.269064 44.9981 0.0218919 41.4805 0L38.5016 0C34.9906 0.0220338 31.4847 0.269207 28.0054 0.74C20.9555 1.42676 14.2985 4.30875 8.97235 8.98C4.31387 14.3053 1.44028 20.9568 0.755352 28C0.186529 31.9736 -0.0608504 35.9866 0.0156216 40C-0.0663445 44.0128 0.174343 48.0257 0.735359 52C1.42136 59.0548 4.29428 65.7188 8.95236 71.06C14.2941 75.7125 20.9554 78.5794 28.0054 79.26C31.4848 79.7301 34.9907 79.9772 38.5016 80H41.4605C44.9848 79.9789 48.504 79.7318 51.9967 79.26C59.0536 78.5773 65.7181 75.695 71.0497 71.02C75.701 65.6921 78.5674 59.0409 79.2467 52C79.8155 48.0264 80.0629 44.0134 79.9865 40C80.0618 35.9866 79.8144 31.9737 79.2467 28Z" fill="#EEF0F2"/>
<mask id="mask0_4696_97991" style="mask-type:alpha" maskUnits="userSpaceOnUse" x="0" y="0" width="80" height="80">
<path d="M79.2467 28C78.5713 20.9424 75.697 14.2754 71.0297 8.94C65.6934 4.29127 59.0396 1.42465 51.9967 0.74C48.5107 0.269064 44.9981 0.0218919 41.4805 0L38.5016 0C34.9906 0.0220338 31.4847 0.269207 28.0054 0.74C20.9555 1.42676 14.2985 4.30875 8.97235 8.98C4.31387 14.3053 1.44028 20.9568 0.755352 28C0.186529 31.9736 -0.0608504 35.9866 0.0156216 40C-0.0663445 44.0128 0.174343 48.0257 0.735359 52C1.42136 59.0548 4.29428 65.7188 8.95236 71.06C14.2941 75.7125 20.9554 78.5794 28.0054 79.26C31.4848 79.7301 34.9907 79.9772 38.5016 80H41.4605C44.9848 79.9789 48.504 79.7318 51.9967 79.26C59.0536 78.5773 65.7181 75.695 71.0497 71.02C75.701 65.6921 78.5674 59.0409 79.2467 52C79.8155 48.0264 80.0629 44.0134 79.9865 40C80.0618 35.9866 79.8144 31.9737 79.2467 28Z" fill="#EEF0F2"/>
</mask>
<g mask="url(#mask0_4696_97991)">
<path fill-rule="evenodd" clip-rule="evenodd" d="M53.4899 24.6958C51.6912 23.3102 50.2217 21.6127 48.8192 19.9924C46.2233 16.9936 43.8568 14.2598 40.0571 14.2598C36.0892 14.2598 32.7841 17.7473 29.4695 21.2449C27.8789 22.9234 26.286 24.6041 24.6167 25.9029C16.9959 30.9268 11.9668 39.5626 11.9668 49.3731C11.9668 59.1905 17.003 67.8317 24.6329 72.854C26.0384 73.9256 27.3897 75.1545 28.7314 76.3745C32.2974 79.6173 35.7948 82.7977 40.0571 82.7977C44.1111 82.7977 46.5337 80.4489 49.3441 77.7241C50.5877 76.5184 51.9071 75.2392 53.4775 74.0572C62.2177 69.2954 68.1485 60.0269 68.1485 49.3731C68.1485 38.7244 62.2233 29.4595 53.4899 24.6958Z" fill="#35D287"/>
<path fill-rule="evenodd" clip-rule="evenodd" d="M36.4462 42.8264C36.2213 42.7817 35.9883 42.8434 35.8152 42.9937C35.642 43.144 35.5481 43.366 35.5608 43.5949C35.6706 45.5736 37.1013 47.3051 39.1359 47.7102C41.1705 48.1152 43.1553 47.0636 44.0145 45.2778C44.1139 45.0712 44.1121 44.8302 44.0097 44.6251C43.9073 44.4199 43.7158 44.2736 43.4909 44.2289L36.4462 42.8264Z" fill="#161616"/>
<mask id="mask1_4696_97991" style="mask-type:alpha" maskUnits="userSpaceOnUse" x="35" y="42" width="10" height="6">
<path fill-rule="evenodd" clip-rule="evenodd" d="M36.4422 42.8245C36.2174 42.7797 35.9844 42.8415 35.8113 42.9918C35.6381 43.1421 35.5442 43.364 35.5569 43.593C35.6667 45.5716 37.0974 47.3032 39.132 47.7082C41.1666 48.1133 43.1514 47.0616 44.0106 45.2759C44.11 45.0692 44.1082 44.8283 44.0058 44.6231C43.9034 44.4179 43.7119 44.2717 43.487 44.2269L36.4422 42.8245Z" fill="#161616"/>
</mask>
<g mask="url(#mask1_4696_97991)">
<ellipse cx="39.0663" cy="47.6943" rx="2.225" ry="1.85417" transform="rotate(11.2589 39.0663 47.6943)" fill="#FF8888"/>
</g>
<circle cx="47.9403" cy="42.0983" r="2.41042" transform="rotate(11.2589 47.9403 42.0983)" fill="#161616"/>
<circle cx="33.0282" cy="39.1296" r="2.41042" transform="rotate(11.2589 33.0282 39.1296)" fill="#161616"/>
</g>
</svg>
