<svg width="48" height="48" viewBox="0 0 48 48" fill="none" xmlns="http://www.w3.org/2000/svg">
<path d="M47.548 16.8C47.1427 12.5655 45.4182 8.56522 42.6178 5.364C39.416 2.57476 35.4238 0.854788 31.198 0.444C29.1064 0.161438 26.9988 0.0131351 24.8883 0L23.101 0C20.9944 0.0132203 18.8908 0.161524 16.8032 0.444C12.5733 0.856054 8.57913 2.58525 5.38341 5.388C2.58832 8.58317 0.864167 12.5741 0.453211 16.8C0.111917 19.1841 -0.0365103 21.592 0.00937296 24C-0.0398067 26.4077 0.104606 28.8154 0.441215 31.2C0.852815 35.4329 2.57657 39.4313 5.37142 42.636C8.57649 45.4275 12.5733 47.1476 16.8032 47.556C18.8909 47.838 20.9944 47.9863 23.101 48H24.8763C26.9909 47.9874 29.1024 47.8391 31.198 47.556C35.4322 47.1464 39.4309 45.417 42.6298 42.612C45.4206 39.4153 47.1405 35.4245 47.548 31.2C47.8893 28.8158 48.0378 26.408 47.9919 24C48.0371 21.592 47.8887 19.1842 47.548 16.8Z" fill="#EEF0F2"/>
<mask id="mask0_4294_61535" style="mask-type:alpha" maskUnits="userSpaceOnUse" x="0" y="0" width="48" height="48">
<path d="M47.548 16.8C47.1427 12.5655 45.4182 8.56522 42.6178 5.364C39.416 2.57476 35.4238 0.854788 31.198 0.444C29.1064 0.161438 26.9988 0.0131351 24.8883 0L23.101 0C20.9944 0.0132203 18.8908 0.161524 16.8032 0.444C12.5733 0.856054 8.57913 2.58525 5.38341 5.388C2.58832 8.58317 0.864167 12.5741 0.453211 16.8C0.111917 19.1841 -0.0365103 21.592 0.00937296 24C-0.0398067 26.4077 0.104606 28.8154 0.441215 31.2C0.852815 35.4329 2.57657 39.4313 5.37142 42.636C8.57649 45.4275 12.5733 47.1476 16.8032 47.556C18.8909 47.838 20.9944 47.9863 23.101 48H24.8763C26.9909 47.9874 29.1024 47.8391 31.198 47.556C35.4322 47.1464 39.4309 45.417 42.6298 42.612C45.4206 39.4153 47.1405 35.4245 47.548 31.2C47.8893 28.8158 48.0378 26.408 47.9919 24C48.0371 21.592 47.8887 19.1842 47.548 16.8Z" fill="#EEF0F2"/>
</mask>
<g mask="url(#mask0_4294_61535)">
<path d="M46.1096 56.3324C47.8475 54.0767 49.206 51.4461 50.1118 48.5828L31.1014 13.7838C30.2963 12.1875 29.1444 10.8785 27.7668 9.99452C26.3892 9.11053 24.8368 8.68416 23.2727 8.76025C21.7086 8.83633 20.1906 9.41205 18.8783 10.4269C17.566 11.4417 16.5079 12.8582 15.8152 14.5274L-0.666016 49.6734C0.23186 52.1008 1.46219 54.3343 2.97487 56.2829C6.67518 60.1535 11.3009 62.5512 16.2043 63.1402C18.6228 63.5286 21.0596 63.7328 23.5 63.7516H25.5567C28.0063 63.7342 30.4525 63.53 32.8801 63.1402C37.7804 62.5728 42.4075 60.1918 46.1096 56.3324Z" fill="#E1312F"/>
<path fill-rule="evenodd" clip-rule="evenodd" d="M25.5856 28.6446C25.5856 27.8046 24.8634 27.1237 23.9725 27.1237C23.0816 27.1237 22.3594 27.8046 22.3594 28.6446C22.3594 28.677 22.3604 28.7091 22.3626 28.741C22.3605 28.7626 22.3594 28.7844 22.3594 28.8066V29.4995C22.3594 29.8682 22.6582 30.167 23.0269 30.167H24.9181C25.2868 30.167 25.5856 29.8682 25.5856 29.4995V28.8066C25.5856 28.7844 25.5846 28.7626 25.5824 28.741C25.5846 28.7091 25.5856 28.677 25.5856 28.6446Z" fill="#161616"/>
<circle cx="28.038" cy="25.0287" r="1.44625" fill="#161616"/>
<circle cx="20.0283" cy="25.0287" r="1.44625" fill="#161616"/>
</g>
</svg>
