<svg width="140" height="45" viewBox="0 0 140 45" fill="none" xmlns="http://www.w3.org/2000/svg">
<g clip-path="url(#clip0_614_498)">
<path d="M122.91 29.7109L122.969 30.4842C121.996 30.1754 120.82 30.0447 119.901 30.3562C118.498 30.8374 118.149 32.3477 118.149 33.324C118.149 34.3447 118.643 35.9023 120.739 35.9023C121.269 35.9329 121.8 35.8377 122.289 35.6242V33.4714H121.075C121.075 33.2211 121.075 32.9151 121.075 32.726H123.281V36.2917C122.502 36.4794 121.705 36.5727 120.905 36.5698C118.004 36.5698 117.074 34.9539 117.074 33.2489C117.074 31.6468 117.773 30.0475 119.645 29.5969C120.72 29.3188 122.235 29.5329 122.91 29.7054" fill="#161519"/>
<path d="M93.3369 33.4878C93.1127 33.2298 92.9019 32.9596 92.7055 32.6784C92.5336 32.4364 92.3992 32.2111 92.2918 32.0303C92.0983 31.7049 91.9237 31.0652 92.187 30.6869C92.4503 30.3087 92.8694 30.2113 93.3396 30.2363C93.5993 30.2463 93.8555 30.3018 94.0973 30.4004L94.0596 29.7357C93.6587 29.6313 93.2478 29.5734 92.8345 29.5633C92.3879 29.5561 91.9503 29.6932 91.5825 29.9554C91.3713 30.1583 91.2244 30.4225 91.1611 30.7135C91.0978 31.0044 91.1211 31.3083 91.2278 31.5853C91.3534 31.9067 91.5177 32.2105 91.7168 32.4893C91.2745 32.7101 90.8677 33 90.5105 33.3487C90.2184 33.662 90.0374 34.0683 89.9969 34.5017C89.9564 34.935 90.0588 35.3697 90.2875 35.7351C90.6905 36.3109 91.3971 36.6697 92.3321 36.6641C92.7071 36.6743 93.0803 36.6057 93.429 36.4622C93.7776 36.3188 94.0946 36.1036 94.3606 35.8297L95.0161 36.5445H96.0156L95.0806 35.4959C95.4003 35.0843 95.618 34.1219 95.618 33.4544H94.8281C94.8331 33.9278 94.7416 34.397 94.5594 34.8312C94.2692 34.553 93.6916 33.88 93.3557 33.4933L93.3369 33.4878ZM93.9683 35.279C93.7255 35.57 93.4199 35.7977 93.0763 35.9437C92.539 36.1412 91.5502 36.0578 91.1419 35.4153C91.0138 35.1944 90.9448 34.9422 90.942 34.6846C90.9391 34.4271 91.0026 34.1733 91.1257 33.9495C91.3966 33.6037 91.7273 33.3132 92.101 33.0928C92.2515 33.2903 92.4127 33.5184 92.7109 33.8521C92.8963 34.0635 93.6835 34.9647 93.9683 35.279Z" fill="#161519"/>
<path d="M100.185 33.638L102.569 29.605H101.448L99.7287 32.8258L98.1355 29.605H96.9963L99.1296 33.549V36.4416H100.185V33.638Z" fill="#161519"/>
<path d="M104.817 29.605L102.029 36.4361H103.122L103.928 34.4363H107.311L108.071 36.4333H109.122L106.483 29.5967L104.817 29.605ZM104.21 33.7103L105.629 30.0945L107.02 33.7103H104.21Z" fill="#161519"/>
<path d="M110.87 30.4227L114.562 36.4444H115.999L116.008 29.605H115.121L115.142 35.724L111.456 29.605H110.013L110.011 36.4444H110.876L110.87 30.4227Z" fill="#161519"/>
<path d="M76.3702 29.4824C74.2209 29.4824 72.7754 30.7535 72.7754 33.0287C72.7754 35.3039 74.2155 36.5749 76.3702 36.5749C78.525 36.5749 79.9651 35.3011 79.9651 33.0287C79.9651 30.7563 78.5277 29.4824 76.3702 29.4824ZM76.3702 35.8796C74.9409 35.8796 73.8447 34.8588 73.8447 33.0287C73.8447 31.1985 74.9409 30.175 76.3702 30.175C77.7996 30.175 78.8984 31.1985 78.8984 33.0287C78.8984 34.8588 77.7996 35.8796 76.3702 35.8796Z" fill="#161519"/>
<path d="M68.3505 29.4824C66.2011 29.4824 64.7529 30.7535 64.7529 33.0287C64.7529 35.3039 66.193 36.5749 68.3505 36.5749C70.5079 36.5749 71.9426 35.3011 71.9426 33.0287C71.9426 30.7563 70.5052 29.4824 68.3505 29.4824ZM68.3505 35.8796C66.9157 35.8796 65.8196 34.8588 65.8196 33.0287C65.8196 31.1985 66.9157 30.175 68.3505 30.175C69.7852 30.175 70.876 31.1985 70.876 33.0287C70.876 34.8588 69.7798 35.8796 68.3505 35.8796Z" fill="#161519"/>
<path d="M62.0661 33.638L64.4492 29.605H63.3289L61.6094 32.8258L60.0161 29.605H58.8743L61.0102 33.549V36.4416H62.0688L62.0661 33.638Z" fill="#161519"/>
<path d="M81.8754 30.4227L85.5696 36.4444H87.0097V29.605H86.1446V35.724L82.4638 29.605H81.021L81.0156 36.4444H81.8834L81.8754 30.4227Z" fill="#161519"/>
<path d="M115.097 10.9561C113.063 10.9561 111.585 12.4663 111.585 14.5413C111.585 16.6162 113.063 18.1292 115.097 18.1292C117.131 18.1292 118.608 16.6189 118.608 14.5413C118.608 12.4636 117.141 10.9561 115.097 10.9561ZM115.097 12.0964C116.3 12.0964 117.074 13.0365 117.074 14.4884C117.074 15.9403 116.3 16.8776 115.097 16.8776C113.893 16.8776 113.111 15.9403 113.111 14.4884C113.111 13.0365 113.888 12.0964 115.089 12.0964" fill="#161519"/>
<path d="M133.106 16.7494C135.301 16.7494 136.897 15.0806 136.897 12.7943C136.897 10.508 135.301 8.84473 133.106 8.84473C130.911 8.84473 129.312 10.5136 129.312 12.7943C129.312 15.075 130.905 16.7494 133.106 16.7494ZM133.106 10.113C134.465 10.113 135.341 11.1644 135.341 12.7943C135.341 14.4242 134.465 15.4783 133.106 15.4783C131.746 15.4783 130.871 14.4242 130.871 12.7943C130.871 11.1644 131.746 10.113 133.106 10.113Z" fill="#161519"/>
<path d="M119.363 10.2718H116.015V8.33594L114.355 8.3415L114.358 10.2718H110.833L110.83 11.6792H119.363V10.2718Z" fill="#161519"/>
<path d="M122.692 8.84766H121.12V19.3474C120.669 19.5966 120.196 19.7997 119.707 19.9537C119.132 20.0929 118.543 20.1657 117.953 20.1707H115.94V17.4727H114.369V20.1707H110.693V21.5335H117.727C118.329 21.5264 118.929 21.4518 119.516 21.311C120.078 21.1538 120.619 20.9269 121.128 20.6352V24.3817H122.7V15.9597H125.118V14.6246H122.7L122.692 8.84766Z" fill="#161519"/>
<path d="M126.365 17.8926V19.2666H132.364V24.4177H134V19.2666H140V17.8926H126.365Z" fill="#161519"/>
<path d="M81.5449 16.6493C81.9527 16.6647 82.3592 16.5933 82.7393 16.4394C83.1193 16.2854 83.4648 16.0524 83.7542 15.7546C84.0436 15.4567 84.2709 15.1006 84.4219 14.7081C84.5729 14.3156 84.6444 13.8952 84.632 13.4729C84.5855 12.6572 84.2397 11.8907 83.6654 11.3302C83.091 10.7697 82.3315 10.4575 81.5422 10.4575C80.7529 10.4575 79.9934 10.7697 79.4191 11.3302C78.8447 11.8907 78.499 12.6572 78.4525 13.4729C78.4404 13.8958 78.5124 14.3168 78.664 14.7096C78.8156 15.1025 79.0436 15.4589 79.3339 15.7568C79.6241 16.0546 79.9704 16.2875 80.3512 16.4411C80.732 16.5946 81.1392 16.6655 81.5476 16.6493H81.5449ZM81.5476 11.3174C82.6599 11.3174 83.3799 12.1657 83.3799 13.4729C83.3799 14.7802 82.6599 15.6313 81.5476 15.6313C80.4353 15.6313 79.7126 14.783 79.7126 13.4729C79.7126 12.1629 80.4353 11.3174 81.5476 11.3174Z" fill="#161519"/>
<path d="M76.0828 16.5467H74.8227V13.4899H72.6304V12.3802H74.8227V9.88525H76.0828V16.5467Z" fill="#161519"/>
<path d="M53.7964 17.1221V18.2207H58.5949V22.3427H59.906V18.2207H64.7045V17.1221H53.7964Z" fill="#161519"/>
<path d="M76.0828 22.3123V17.1528H74.8254V18.6186H69.3983V17.1528H68.1436V22.3123H76.0828ZM74.8254 21.1997H69.3983V19.6895H74.8254V21.1997Z" fill="#161519"/>
<path d="M72.1654 16.21V10.4971H70.9053V12.2382H67.6168V10.4971H66.3621V16.21H72.1654ZM70.9053 15.0975H67.6168V13.3118H70.9053V15.0975Z" fill="#161519"/>
<path d="M51.8807 16.5467H50.6233V13.4899H48.4309V12.3802H50.6233V9.88525H51.8807V16.5467Z" fill="#161519"/>
<path d="M51.8807 22.3123V17.1528H50.6233V18.6186H45.1961V17.1528H43.9414V22.3123H51.8807ZM50.6233 21.1997H45.1961V19.6895H50.6233V21.1997Z" fill="#161519"/>
<path d="M47.9635 16.21V10.4971H46.7061V12.2382H43.4149V10.4971H42.1575V16.21H47.9635ZM46.7061 15.0975H43.4149V13.3118H46.7061V15.0975Z" fill="#161519"/>
<path d="M63.3073 10.4385H55.196V15.6564H63.3073V10.4385ZM56.4507 11.5343H62.0472V14.5605H56.4507V11.5343Z" fill="#161519"/>
<path d="M88.3021 9.88525H87.042V18.705H88.3021V9.88525Z" fill="#161519"/>
<path d="M81.6551 17.8452H80.3574V22.2342H88.6782V21.1356H81.6551V17.8452Z" fill="#161519"/>
<path d="M97.9689 16.1906C98.312 16.2019 98.6536 16.14 98.9725 16.0088C99.2915 15.8775 99.5809 15.6798 99.8228 15.4277C100.065 15.1757 100.254 14.8748 100.379 14.5438C100.504 14.2128 100.561 13.8588 100.548 13.5037C100.559 13.1457 100.501 12.7889 100.376 12.4547C100.252 12.1205 100.063 11.8156 99.8225 11.5582C99.5817 11.3008 99.2935 11.0962 98.9748 10.9564C98.6562 10.8167 98.3136 10.7446 97.9676 10.7446C97.6215 10.7446 97.2789 10.8167 96.9603 10.9564C96.6416 11.0962 96.3534 11.3008 96.1126 11.5582C95.8719 11.8156 95.6836 12.1205 95.559 12.4547C95.4343 12.7889 95.3758 13.1457 95.387 13.5037C95.3743 13.8589 95.4323 14.213 95.5573 14.544C95.6824 14.875 95.8719 15.1759 96.1141 15.4279C96.3562 15.6798 96.6458 15.8776 96.9649 16.0088C97.284 16.14 97.6257 16.2019 97.9689 16.1906ZM97.9689 11.6792C98.8931 11.6792 99.4896 12.3912 99.4896 13.5037C99.4896 14.6163 98.8931 15.3256 97.9689 15.3256C97.0447 15.3256 96.4536 14.608 96.4536 13.5037C96.4536 12.3995 97.0447 11.6819 97.9662 11.6819" fill="#161519"/>
<path d="M102.657 16.9692H93.3879V17.901H95.5481V21.3777H96.6147V17.901H99.425V21.3777H100.494V17.901H102.657V16.9692Z" fill="#161519"/>
<path d="M91.6175 16.0874C91.593 14.2029 92.1326 12.3569 93.1623 10.8027H92.5041C91.27 12.2644 90.6003 14.1462 90.6234 16.0874C90.6035 18.031 91.2791 19.9134 92.5202 21.372H93.1704C92.1324 19.8211 91.5868 17.974 91.6094 16.0874" fill="#161519"/>
<path d="M104.433 16.0874C104.456 14.2024 103.914 12.3563 102.883 10.8027H103.538C104.772 12.265 105.441 14.1463 105.419 16.0874C105.444 18.0288 104.774 19.9111 103.538 21.372H102.886C103.924 19.8213 104.471 17.9743 104.449 16.0874" fill="#161519"/>
<path d="M97.9687 10.9334C97.6406 10.9225 97.3138 10.9816 97.0087 11.1071C96.7036 11.2326 96.4267 11.4218 96.1954 11.6629C95.964 11.904 95.783 12.1918 95.6638 12.5085C95.5446 12.8251 95.4896 13.1638 95.5023 13.5034C95.4914 13.8456 95.5471 14.1866 95.666 14.5061C95.785 14.8256 95.9648 15.117 96.1948 15.3631C96.4248 15.6092 96.7002 15.8048 97.0047 15.9385C97.3092 16.0721 97.6366 16.141 97.9674 16.141C98.2981 16.141 98.6255 16.0721 98.93 15.9385C99.2345 15.8048 99.5099 15.6092 99.7399 15.3631C99.9699 15.117 100.15 14.8256 100.269 14.5061C100.388 14.1866 100.443 13.8456 100.432 13.5034C100.445 13.164 100.39 12.8256 100.271 12.5091C100.152 12.1927 99.9714 11.905 99.7403 11.6639C99.5092 11.4229 99.2327 11.2336 98.9279 11.1079C98.6231 10.9823 98.2966 10.9229 97.9687 10.9334ZM97.9687 15.442C96.9773 15.442 96.3352 14.6799 96.3352 13.4951C96.3352 12.3102 96.9773 11.5481 97.9687 11.5481C98.9601 11.5481 99.6049 12.3102 99.6049 13.4951C99.6049 14.6799 98.9628 15.442 97.9687 15.442Z" fill="#161519"/>
<path d="M99.5378 21.2636H100.381V17.7841H102.547V17.0859H93.498V17.7841H95.6609V21.2636H96.5018V17.7841H99.5378V21.2636Z" fill="#161519"/>
<path d="M92.5577 21.2969H93.0091C92.0227 19.753 91.5061 17.9383 91.526 16.0874C91.5074 14.2438 92.019 12.4362 92.9956 10.8945H92.5416C91.3366 12.3344 90.6845 14.1824 90.7092 16.0874C90.6835 18.0005 91.3418 19.8559 92.5577 21.2969Z" fill="#161519"/>
<path d="M103.036 21.2969H103.482C104.695 19.855 105.35 17.9993 105.32 16.0874C105.346 14.1831 104.696 12.335 103.493 10.8945H103.039C104.017 12.4356 104.531 14.2433 104.514 16.0874C104.533 17.9379 104.017 19.7521 103.033 21.2969" fill="#161519"/>
<path d="M26.6415 0.150391H0.14502V44.8472H26.6415V0.150391Z" fill="#78726B"/>
<path d="M5.64492 0.150391H5.3252V7.65735H5.64492V0.150391Z" fill="white"/>
<path d="M5.79251 7.81012H5.17725V0H5.79251V7.81012ZM5.47279 7.50974H5.49697V0.303171H5.47279V7.50974Z" fill="white"/>
<path d="M12.1789 29.8555H11.8565V7.82415H0.147705V7.49316H12.1789V29.8555Z" fill="white"/>
<path d="M12.3267 30.0081H11.7114V7.974H0V7.33984H12.3267V30.0081ZM12.0043 29.7022H12.0312V7.64301H0.292853V7.67083H12.0043V29.7022Z" fill="white"/>
<path d="M16.6173 23.4302H0.147705V23.7639H16.6173V23.4302Z" fill="white"/>
<path d="M16.7625 23.9198H0V23.2773H16.7625V23.9198ZM0.292853 23.6111H16.4696V23.5833H0.292853V23.6111Z" fill="white"/>
<path d="M26.6443 29.8306H9.44922V30.1643H26.6443V29.8306Z" fill="white"/>
<path d="M26.7921 30.3171H9.30151V29.6802H26.7921V30.3171ZM9.59705 30.0139H26.4966V29.9833H9.59437L9.59705 30.0139Z" fill="white"/>
<path d="M19.7931 30H19.4734V44.847H19.7931V30Z" fill="white"/>
<path d="M19.9383 45.0001H19.3257V29.8472H19.9383V45.0001ZM19.6132 44.697H19.6373V30.1503H19.6132V44.697Z" fill="white"/>
<path d="M5.6716 18.0455C4.16972 18.0455 2.95532 16.3211 2.95532 14.1989C2.95532 12.0767 4.16972 10.3467 5.6716 10.3467C7.17348 10.3467 8.40669 12.0739 8.40669 14.1989C8.40669 16.3239 7.17886 18.0455 5.6716 18.0455ZM5.6716 10.6832C4.34705 10.6832 3.25355 12.2575 3.25355 14.1989C3.25355 16.1403 4.32824 17.7146 5.6716 17.7146C7.01497 17.7146 8.08966 16.1375 8.08966 14.1989C8.08966 12.2603 7.01497 10.6832 5.6716 10.6832Z" fill="white"/>
<path d="M5.67167 18.1988C4.0865 18.1988 2.79688 16.4048 2.79688 14.1992C2.79688 11.9936 4.0865 10.1968 5.67167 10.1968C7.25684 10.1968 8.55185 11.9908 8.55185 14.1992C8.55185 16.4076 7.25416 18.1988 5.67167 18.1988ZM5.67167 10.4999C4.24771 10.4999 3.08973 12.1688 3.08973 14.1992C3.08973 16.2296 4.24771 17.8956 5.67167 17.8956C7.09564 17.8956 8.25899 16.2268 8.25899 14.1992C8.25899 12.1716 7.09833 10.4999 5.67167 10.4999ZM5.67167 17.8678C4.26114 17.8678 3.1166 16.2213 3.1166 14.1992C3.1166 12.1771 4.26114 10.5305 5.67167 10.5305C7.08221 10.5305 8.23213 12.1743 8.23213 14.1992C8.23213 16.224 7.08489 17.8678 5.67167 17.8678ZM5.67167 10.8337C4.42503 10.8337 3.40945 12.344 3.40945 14.1992C3.40945 16.0544 4.42503 17.5647 5.67167 17.5647C6.91832 17.5647 7.93927 16.0544 7.93927 14.1992C7.93927 12.344 6.92369 10.8476 5.67167 10.8476" fill="white"/>
<path d="M4.83601 23.7389L4.6748 23.4607C6.4776 22.3815 5.4647 19.3081 5.45664 19.2886L5.75756 19.1802C5.80054 19.3137 6.86449 22.5457 4.83601 23.7583" fill="white"/>
<path d="M4.79042 23.9475L4.48413 23.3912L4.61041 23.3161C6.22244 22.3565 5.41642 19.6252 5.32508 19.3165L5.28209 19.1774L5.41374 19.119L5.85436 18.9604L5.90272 19.1051C5.95108 19.2442 7.05264 22.5902 4.91669 23.864L4.79042 23.9475ZM4.88177 23.5052V23.5275C6.44275 22.4539 5.84361 19.984 5.65823 19.3554H5.63136C5.81675 20.0146 6.37021 22.4567 4.86833 23.4969" fill="white"/>
<path d="M19.6347 26.4872C17.9366 26.4872 16.553 25.1354 16.553 23.4749C16.553 21.8145 17.9366 20.4683 19.6347 20.4683C21.3327 20.4683 22.7136 21.8145 22.7136 23.4749C22.7136 25.1354 21.3327 26.4872 19.6347 26.4872ZM19.6347 20.802C18.114 20.802 16.8754 22.0008 16.8754 23.4749C16.8754 24.9491 18.114 26.1451 19.6347 26.1451C21.1553 26.1451 22.3912 24.9491 22.3912 23.4749C22.3912 22.0008 21.1553 20.802 19.6347 20.802Z" fill="white"/>
<path d="M19.6347 26.6374C17.8561 26.6374 16.4106 25.2189 16.4106 23.475C16.4106 21.731 17.8561 20.3042 19.6347 20.3042C21.4133 20.3042 22.8588 21.7227 22.8588 23.4639C22.8588 25.205 21.4133 26.6263 19.6347 26.6263V26.6374ZM19.6347 20.6102C18.0227 20.6102 16.7008 21.8896 16.7008 23.4639C16.7008 25.0381 18.0173 26.3231 19.6347 26.3231C21.2521 26.3231 22.5686 25.052 22.5686 23.475C22.5686 21.8979 21.2521 20.6213 19.6347 20.6213V20.6102ZM19.6347 26.3009C18.0227 26.3009 16.7304 25.0326 16.7304 23.475C16.7304 21.9174 18.0334 20.6491 19.6347 20.6491C21.236 20.6491 22.5391 21.9174 22.5391 23.475C22.5391 25.0326 21.2253 26.3009 19.6347 26.3009ZM19.6347 20.955C18.1946 20.955 17.0232 22.0843 17.0232 23.475C17.0232 24.8657 18.1946 25.9949 19.6347 25.9949C21.0748 25.9949 22.2462 24.8629 22.2462 23.475C22.2462 22.0871 21.0748 20.955 19.6347 20.955Z" fill="white"/>
</g>
<defs>
<clipPath id="clip0_614_498">
<rect width="140" height="45" fill="white"/>
</clipPath>
</defs>
</svg>
