<svg xmlns="http://www.w3.org/2000/svg" width="1336" height="1031" viewBox="0 0 1336 1031">
    <defs>
        <clipPath id="clip-path">
            <path id="패스_7226" data-name="패스 7226" d="M0 0h1336v1031H0z" transform="translate(292 910)" style="stroke:#707070;fill:none"/>
        </clipPath>
        <style>
            .cls-15,.cls-16,.cls-5,.cls-7{fill:none}.cls-4{fill:#999}.cls-5,.cls-7,.cls-8{stroke:#999}.cls-15,.cls-16,.cls-5,.cls-7,.cls-8{stroke-linecap:round}.cls-15,.cls-5,.cls-8{stroke-linejoin:round}.cls-5,.cls-7,.cls-8{stroke-width:2px}.cls-13,.cls-8{fill:#fff}.cls-11{fill:#4d936b}.cls-12{fill:#324e6f}.cls-14{fill:#333}.cls-15,.cls-16{stroke:#333;stroke-width:2.4px}.cls-19{fill:#111}
        </style>
    </defs>
    <g id="map_pc" transform="translate(-292 -910)" style="clip-path:url(#clip-path)">
        <g id="map" transform="translate(0 -748)">
            <path id="사각형_1215" data-name="사각형 1215" transform="translate(292 1658)" style="fill:#f8f8f8" d="M0 0h1336v1031H0z"/>
            <g id="주변_건물" data-name="주변 건물" transform="translate(-6 534)">
                <path id="패스_7245" data-name="패스 7245" class="cls-4" d="M-35.922-9.109V-11.5h-1.5v2.391a7.181 7.181 0 0 1-3.625 6.328l.937 1.2a7.484 7.484 0 0 0 3.453-4.555 7.144 7.144 0 0 0 3.407 4.292l.906-1.187a6.733 6.733 0 0 1-3.578-6.078zm2.031 2.3h3.125v8.168h1.466v-14.031h-1.469v4.656h-3.125zm13.125-5.7c-3.156-.008-5.008.859-5 2.406-.008 1.57 1.844 2.422 5 2.422s4.992-.852 5-2.422c-.007-1.553-1.843-2.42-5-2.413zm-6.375 6.828h5.625v1.2h-4.094v1.109h8.156v1.094h-8.141v3.465h10V.047h-8.547V-1.2h8.156v-3.284h-4.047v-1.2h5.656v-1.175h-12.764zm2.922-4.422c-.008-.82 1.227-1.289 3.453-1.3 2.242.008 3.477.477 3.469 1.3.008.867-1.227 1.3-3.469 1.312-2.226-.009-3.461-.451-3.453-1.318zm23.672 4.8h-12.8v1.172h12.8zm-11.344 3.569h8.2v3.062h1.516v-4.25h-9.719zm.219-4.766h9.656v-1.141h-8.156v-1.234h7.7V-10h-7.7v-1.141h8.062v-1.172h-9.562zm23.844-6.172H10.7v1.922H7.641v-1.281H6.172v1.891h-3.5v-1.891H1.187v6.125h6.454v-1.156H10.7v1.672h1.469zm-9.5 5.578V-9h3.5v1.906zm.344 3.484H10.7v1.172H3.047v3.594h9.625V-.031H4.531v-1.3h7.641v-3.435H3.016zM7.641-8.2v-1.409H10.7V-8.2zm11.844-.906V-11.5h-1.5v2.391a7.047 7.047 0 0 1-3.75 6.328l.906 1.25a7.458 7.458 0 0 0 3.617-4.562A7.215 7.215 0 0 0 22.3-1.844l.891-1.172a6.787 6.787 0 0 1-3.707-6.093zm4.968 10.465h1.484v-14.031h-1.484zm8.625-11.046v-.172h3.047v-1.187h-3.031v-1.687h-1.485v1.687h-3.047v1.187h3.047v.172a4.545 4.545 0 0 1-3.437 4.156l.7 1.141a5.506 5.506 0 0 0 3.5-3.117 5.426 5.426 0 0 0 3.487 2.757l.7-1.156c-2.129-.594-3.481-2.133-3.481-3.781zM30.422-1.3c-.008 1.648 1.8 2.6 4.734 2.594 2.93.008 4.727-.945 4.734-2.594-.008-1.641-1.8-2.57-4.734-2.578-2.937.011-4.742.941-4.734 2.578zm1.469 0c-.008-.9 1.209-1.419 3.265-1.419s3.258.519 3.266 1.419c-.008.909-1.211 1.448-3.266 1.456C33.1.148 31.883-.391 31.891-1.3zm3.8-6.234h2.672v3.344h1.484v-8.484h-1.488v3.924h-2.672zm-69.457 20.425V10.5h-1.5v2.391a7.181 7.181 0 0 1-3.625 6.328l.937 1.2a7.484 7.484 0 0 0 3.454-4.552 7.144 7.144 0 0 0 3.406 4.289l.906-1.187a6.733 6.733 0 0 1-3.578-6.078zm2.031 2.3h3.125v8.172h1.469V9.328h-1.469v4.656h-3.125zm19.562 5.141h-5.734V17h-1.469v3.328h-5.609v1.219h12.812zm-12.375-4.3.656 1.219a7.428 7.428 0 0 0 5.242-3.766 7.433 7.433 0 0 0 5.273 3.766l.641-1.219c-2.7-.453-5.141-2.531-5.141-4.75v-1.063h-1.562v1.062c-.006 2.219-2.413 4.297-5.108 4.75zm26.187.375h-12.811v1.2h5.781v2.719h1.469v-2.717h5.563zm-11.217 6.624h9.8v-1.2h-8.316V19h-1.484zm.047-8.078h9.515V9.984h-9.515zm1.453-1.172v-2.625h6.594v2.625zM3.156 22h7.609v-1.469H5.547v-.094l2.3-2.328c2.125-2.086 2.719-3.094 2.734-4.359-.016-1.836-1.523-3.219-3.7-3.219a3.415 3.415 0 0 0-3.719 3.437h1.619a1.912 1.912 0 0 1 2.062-2A1.889 1.889 0 0 1 8.937 13.8c0 .992-.617 1.711-1.859 3l-3.922 3.95zm13.937-9.687v-.172h3.047v-1.188h-3.031V9.266h-1.484v1.687h-3.047v1.187h3.047v.172a4.545 4.545 0 0 1-3.437 4.156l.7 1.141a5.506 5.506 0 0 0 3.5-3.117 5.426 5.426 0 0 0 3.484 2.758l.7-1.156c-2.127-.594-3.478-2.133-3.478-3.781zM14.437 20.7c-.008 1.648 1.8 2.6 4.734 2.594 2.93.008 4.727-.945 4.734-2.594-.008-1.641-1.8-2.57-4.734-2.578-2.937.011-4.741.941-4.734 2.578zm1.469 0c-.008-.906 1.211-1.422 3.266-1.422s3.258.516 3.266 1.422c-.008.906-1.211 1.445-3.266 1.453-2.055-.005-3.272-.544-3.266-1.453zm3.8-6.234h2.672v3.344h1.484V9.328h-1.487v3.922H19.7zm11.172-1.578V10.5h-1.487v2.391a7.167 7.167 0 0 1-3.609 6.281l.922 1.2a7.519 7.519 0 0 0 3.445-4.492 7.257 7.257 0 0 0 3.32 4.227l.922-1.187a6.843 6.843 0 0 1-3.516-6.029zm4.562 10.437h1.484v-7.153h2.25v-1.266h-2.25V9.328h-1.487z" transform="translate(1093 1821)"/>
                <path id="패스_7246" data-name="패스 7246" class="cls-4" d="M-36.109-10.656v-1.3h-1.469v1.328a5 5 0 0 1-3.484 4.719l.8 1.172a5.83 5.83 0 0 0 3.484-3.437 5.708 5.708 0 0 0 3.266 3.047L-32.7-6.3a4.708 4.708 0 0 1-3.409-4.356zm-2.8 11.812h8.937v-5.047h-8.937zm1.453-1.2V-2.7h6.016v2.653zm6-4.469h1.484v-3.549h2.031v-1.219h-2.031v-3.391h-1.484zm9.281-6.062v-1.312h-1.469v1.375a5.006 5.006 0 0 1-3.547 4.734l.8 1.187a5.79 5.79 0 0 0 3.516-3.469 5.576 5.576 0 0 0 3.281 3.047l.812-1.156a4.641 4.641 0 0 1-3.39-4.409zm-2.719 9.234C-24.9.344-23.1 1.3-20.156 1.3c2.93.008 4.727-.953 4.734-2.641-.008-1.7-1.8-2.68-4.734-2.672-2.944-.01-4.744.974-4.735 2.669zm1.469 0c-.008-.961 1.211-1.516 3.266-1.516 2.039 0 3.258.555 3.266 1.516-.007.927-1.224 1.474-3.263 1.466-2.055.008-3.274-.539-3.266-1.469zm3.516-7.266h2.953v4.2h1.484v-8.266h-1.484v2.844h-2.953zm9.734-3.531h-1.469v5.656h3.969v1.375h-5.641v1.219H-.547v-1.221H-6.2v-1.375h4v-5.656h-1.488v1.656h-6.484zM-11.7 1.031h9.719v-1.2H-10.2v-2.722h-1.5zm1.531-8.719v-1.64h6.484v1.641zm18.481-3.921H1.25v1.219h5.6a19.118 19.118 0 0 1-.367 3.562l1.469.141a22.363 22.363 0 0 0 .359-4.141zM.406-5.484l.141 1.2a53.567 53.567 0 0 0 8.734-.578l-.094-1.075c-1.406.2-2.953.312-4.453.375v-2.907H3.266v2.953c-1.024.024-2 .032-2.86.032zm2.125 6.515h9.516v-1.2H4.016v-2.94H2.531zm7.547-3.187h1.516v-4.813h1.922v-1.25h-1.922v-4.453h-1.516zm15.859-10.516h-1.468v7.281h1.469zM15.078-5.953h6.656v-6.141h-1.468v1.906h-3.735v-1.906h-1.453zm1.453-1.187v-1.907h3.734v1.906zm.219 3.578h7.734v1.2H16.8v3.549h9.625V.031h-8.191v-1.312h7.719v-3.438h-9.2zm23.031-9.109H38.3v8.531h1.484zM29.016-5.344h1.172a34.894 34.894 0 0 0 6.937-.469l-.141-1.219a32.076 32.076 0 0 1-6.5.484v-3.844h5.187v-1.2h-6.655zm1.3 3.969c0 1.7 1.8 2.7 4.766 2.7C38 1.32 39.82.32 39.828-1.375c-.008-1.711-1.828-2.711-4.75-2.7-2.961-.011-4.766.989-4.766 2.7zm1.5 0c0-.992 1.2-1.531 3.266-1.531 2.055 0 3.289.539 3.281 1.531.008.961-1.227 1.516-3.281 1.516-2.074 0-3.27-.555-3.27-1.516z" transform="translate(1217 1915)"/>
                <path id="패스_7238" data-name="패스 7238" class="cls-4" d="M-20.031-10.687v-1.063h-1.562v1.062c-.008 2.281-2.422 4.422-5.078 4.922l.656 1.234A7.609 7.609 0 0 0-20.8-8.453a7.483 7.483 0 0 0 5.2 3.922l.687-1.234c-2.687-.485-5.118-2.641-5.118-4.922zm-7.11 10.171h12.812V-1.75h-12.812zm21.016-10.921h-6.594v9.453h1.125a38.616 38.616 0 0 0 6.609-.437l-.141-1.2a36.412 36.412 0 0 1-6.094.437v-3.144h4.812v-1.188h-4.812v-2.7h5.094zm2.234 12.765h1.484v-7.234h2.25v-1.25h-2.25v-5.516h-1.484zm6.563-13.172H1.187v6.75h6.454v-2.781H10.7v3.531h1.484v-8.328H10.7v3.578H7.641v-2.75H6.172v2.2h-3.5zm0 5.547v-2.172h3.5V-6.3zM2.7-2.453h8v3.781h1.484v-4.969H2.7zm18.75-8.234v-1.063h-1.559v1.062c-.008 2.281-2.422 4.422-5.078 4.922l.656 1.234a7.609 7.609 0 0 0 5.219-3.922 7.483 7.483 0 0 0 5.2 3.922l.687-1.234c-2.692-.484-5.122-2.64-5.122-4.921zM14.344-.516h12.812V-1.75H14.344z" transform="translate(714 1727)"/>
                <path id="패스_7236" data-name="패스 7236" class="cls-4" d="M-15.547-12.672h-1.484V1.359h1.484zm-11.109 5.953c0 3.023 1.508 4.93 3.625 4.922 2.078.008 3.609-1.9 3.609-4.922 0-2.992-1.531-4.9-3.609-4.906-2.117.008-3.625 1.914-3.625 4.906zm1.437 0c-.008-2.2.883-3.57 2.187-3.578 1.281.008 2.172 1.383 2.172 3.578 0 2.227-.891 3.594-2.172 3.594-1.304 0-2.195-1.367-2.187-3.594zm22.875-5.953h-1.484v14h1.484v-6.89h2.11v-1.25h-2.11zm-11.14 10.188.234 1.234a50.223 50.223 0 0 0 8.719-.562l-.094-1.094a41.383 41.383 0 0 1-3.656.328v-1.367c1.581-.227 2.633-1.188 2.64-2.539-.007-1.578-1.39-2.616-3.375-2.625-1.992.008-3.359 1.047-3.344 2.625-.016 1.352 1.016 2.3 2.594 2.539v1.422c-1.334.039-2.617.039-3.718.039zm.266-7.344h8.391v-1.187h-3.454v-1.625h-1.485v1.625h-3.453zm2.25 3.344c0-.9.781-1.469 1.953-1.469s1.945.57 1.953 1.469c-.008.891-.781 1.445-1.953 1.437-1.173.008-1.954-.547-1.954-1.437zm15.28-5.141C2.227-11.617.75-9.711.766-6.719.75-3.7 2.227-1.789 4.312-1.8a3.281 3.281 0 0 0 3.047-2.216h3.359v5.375h1.469v-14.031h-1.468v3.047H7.258a3.251 3.251 0 0 0-2.946-2zm-2.14 4.906c.008-2.2.875-3.57 2.141-3.578 1.266.008 2.133 1.383 2.141 3.578-.008 2.227-.875 3.594-2.141 3.594S2.18-4.492 2.172-6.719zM7.68-8.406h3.039v3.172h-3a7.425 7.425 0 0 0 .141-1.484 8.1 8.1 0 0 0-.18-1.688zm11.539-.141v-1.484h3.047v-1.234h-7.672v1.234h3.156v1.484a7.1 7.1 0 0 1-3.672 6.031l.875 1.172A7.651 7.651 0 0 0 18.5-5.859 7.16 7.16 0 0 0 21.953-1.7l.847-1.159a6.611 6.611 0 0 1-3.581-5.688zm4.547 9.875h1.484v-7.2h2.25v-1.25h-2.25v-5.547h-1.484zm-39.578 9.344H-25.8v1.2h8.5v.172a30.529 30.529 0 0 1-.547 6.375l1.5.156a33.425 33.425 0 0 0 .531-6.531zm-11.329 10.766h12.766V20.2h-6.437v-4.934h-1.469V20.2h-4.859zm26.61-5.532h-12.782v1.219H-.531zm-11.269 4.86c0 1.625 1.82 2.539 4.859 2.531 3.016.008 4.82-.906 4.828-2.531-.008-1.625-1.812-2.547-4.828-2.547-3.036 0-4.859.922-4.859 2.547zm.078-6.078h9.7v-1.2h-8.228v-2.441h8.141V9.828h-9.609zm1.422 6.078c-.008-.891 1.219-1.391 3.359-1.406 2.109.016 3.344.516 3.344 1.406s-1.234 1.383-3.344 1.391c-2.137-.009-3.359-.493-3.359-1.391zM8.875 10.75H5.453V9.266H3.969v1.484H.531v1.187h8.344zM1.3 15.109c-.011 1.539 1.38 2.547 3.4 2.547s3.391-1.008 3.391-2.547-1.372-2.531-3.391-2.546c-2.02.015-3.411 1.015-3.4 2.546zM2.266 20h7.766v3.328h1.484V18.8h-9.25zm.469-4.891c-.016-.859.781-1.4 1.969-1.406 1.187.008 1.984.547 2 1.406-.016.867-.812 1.391-2 1.391s-1.985-.523-1.97-1.391zm7.3 2.969h1.484v-3.719h2.031v-1.234h-2.034v-3.8h-1.485zm15.687-7.406H15.656v1.2h8.578v.3a28.74 28.74 0 0 1-.484 6.128l1.453.156a32.16 32.16 0 0 0 .516-6.281zM14.344 21.438h12.765V20.2h-4.8v-4.528h-1.45V20.2h-2.015v-4.528h-1.485V20.2h-3.015z" transform="translate(595 1475)"/>
                <path id="패스_7235" data-name="패스 7235" class="cls-4" d="M-15.094-12.672h-1.422v14h1.422zm-11.89 6.047c0 3.039 1.187 4.945 3.016 4.937a2.84 2.84 0 0 0 2.625-2.187h2.031V.641h1.406v-13.047h-1.406v3.031h-2.039a2.818 2.818 0 0 0-2.617-2.172c-1.832-.008-3.016 1.891-3.016 4.922zm1.359 0c-.008-2.234.617-3.539 1.656-3.531 1.031-.008 1.687 1.3 1.687 3.531s-.656 3.539-1.687 3.531c-1.039.008-1.664-1.306-1.656-3.531zm4.586-1.547h1.727v3.078h-1.727a9.379 9.379 0 0 0 .117-1.531 9.577 9.577 0 0 0-.117-1.547zm19.367-4.484h-1.484v8.219h-2.813v1.047h2.812v1.344h1.484zm-11.7 6.391.188 1.187c1.133 0 2.437 0 3.8-.055v2.648H-7.9v-2.726c1.234-.086 2.492-.211 3.687-.414l-.094-1.062a82.441 82.441 0 0 1-9.068.421zm1.094-3.391c-.008 1.492 1.414 2.437 3.484 2.437 2.047 0 3.469-.945 3.469-2.437S-6.75-12.125-8.8-12.125c-2.075 0-3.489.984-3.481 2.469zm.844 10.687h10.106v-1.2h-8.641v-2.909h-1.469zm.562-10.687c-.008-.836.836-1.375 2.078-1.359 1.2-.016 2.055.523 2.062 1.359-.01.828-.868 1.344-2.068 1.344-1.239 0-2.083-.516-2.075-1.344zM8.875-11.25H5.453v-1.484H3.969v1.484H.531v1.187h8.344zM1.3-6.891c-.011 1.539 1.38 2.547 3.4 2.547s3.394-1.008 3.394-2.547S6.719-9.422 4.7-9.437c-2.02.015-3.411 1.015-3.4 2.546zM2.266-2h7.766v3.328h1.484V-3.2h-9.25zm.469-4.891C2.719-7.75 3.516-8.289 4.7-8.3c1.187.008 1.984.547 2 1.406-.016.867-.812 1.391-2 1.391s-1.981-.52-1.966-1.388zm7.3 2.969h1.484v-3.719h2.031v-1.234h-2.034v-3.8h-1.485zm15.687-7.406H15.656v1.2h8.578v.3A28.74 28.74 0 0 1 23.75-3.7l1.453.156a32.16 32.16 0 0 0 .516-6.281zM14.344-.562h12.765V-1.8h-4.8v-4.528h-1.45V-1.8h-2.015v-4.528h-1.485V-1.8h-3.015z" transform="translate(687 1364)"/>
                <path id="패스_7237" data-name="패스 7237" class="cls-4" d="M-21.289-4.781h-12.766v1.2h5.625v4.893h1.453v-4.89h5.687zm-12.047-2.235.563 1.172a6.946 6.946 0 0 0 5.1-3.086 6.937 6.937 0 0 0 5.133 3.086l.547-1.172c-2.648-.359-4.8-1.914-4.828-3.641h4.328v-1.187h-10.374v1.187h4.359c-.047 1.727-2.219 3.282-4.828 3.641zm24.109-5.641h-1.484v10.47h1.484v-4.735H-7.2v-1.234h-2.027zm-10.984 2.829h8.344v-1.2h-3.422v-1.641h-1.484v1.641h-3.437zm.766 3.312c-.008 1.586 1.375 2.616 3.406 2.625 2.008-.008 3.391-1.039 3.391-2.625 0-1.6-1.383-2.648-3.391-2.641-2.031-.007-3.414 1.04-3.406 2.641zm1.345 7.547h9.469v-1.2h-7.984v-2.847H-18.1zm.094-7.547c-.016-.922.781-1.492 1.969-1.5 1.187.008 1.984.578 2 1.5-.016.914-.812 1.477-2 1.469-1.19.008-1.986-.553-1.971-1.469zm23.264-6.156H3.789v5.266H1.227v1.234h2.562v7.531h1.469zM-5.914-10.2h4.875v2.594h-4.844v5.641h1.109a36.4 36.4 0 0 0 6.406-.469l-.124-1.222a32.893 32.893 0 0 1-5.908.437v-3.187H.4v-5h-6.314zM12.57-9.109V-11.5h-1.5v2.391a7.047 7.047 0 0 1-3.75 6.328l.906 1.25a7.458 7.458 0 0 0 3.617-4.562 7.215 7.215 0 0 0 3.539 4.25l.891-1.172a6.787 6.787 0 0 1-3.703-6.094zm4.969 10.468h1.484v-14.031h-1.484zm7.469-12.984c-2.094.008-3.586 1.914-3.578 4.906-.008 3.019 1.484 4.93 3.578 4.919 2.094.008 3.586-1.9 3.594-4.922-.008-2.989-1.502-4.895-3.594-4.903zm-2.156 4.906c-.008-2.2.883-3.57 2.156-3.578 1.3.008 2.172 1.383 2.172 3.578 0 2.227-.875 3.594-2.172 3.594-1.274 0-2.164-1.367-2.156-3.594zm7.828 8.047h1.484v-7.265h2.25v-1.25h-2.25v-5.484H30.68zm-38.891 8h-1.422v5.547h-1.812V9.609H-12.8v13h1.359v-6.515h1.812v7.234h1.422zm-11.547 10.641h.937a24.667 24.667 0 0 0 5.172-.422l-.109-1.219a22.968 22.968 0 0 1-4.516.375v-6.484h3.766v-1.2h-5.25zm18.219-7.078V10.5h-1.484v2.391a7.167 7.167 0 0 1-3.609 6.281l.922 1.2a7.519 7.519 0 0 0 3.445-4.492 7.257 7.257 0 0 0 3.32 4.227l.922-1.187a6.843 6.843 0 0 1-3.516-6.029zm4.562 10.437h1.485v-7.156h2.25v-1.266h-2.25V9.328H3.023zm12.2-12.937H8.164v1.219h5.6a19.118 19.118 0 0 1-.367 3.562l1.469.141a22.363 22.363 0 0 0 .359-4.141zM7.32 16.516l.141 1.2a53.567 53.567 0 0 0 8.734-.578l-.095-1.075c-1.406.2-2.953.313-4.453.375v-2.907H10.18v2.953c-1.024.024-2 .032-2.86.032zm2.125 6.516h9.516v-1.2H10.93v-2.941H9.445zm7.547-3.187h1.516v-4.814h1.922v-1.25h-1.922V9.328h-1.516z" transform="translate(728 1584)"/>
                <path id="패스_7241" data-name="패스 7241" class="cls-4" d="M-13.086-11.25h-6.391v1.2h4.914a10.245 10.245 0 0 1-.406 2.281l-5.227.328.234 1.281 4.539-.43a10.044 10.044 0 0 1-4.82 4.539l.828 1.125c4.977-2.527 6.321-6.199 6.329-10.324zm-.031 5.344h3.078v7.234h1.469v-14h-1.469v5.547h-3.078zm18.359-6.766h-1.5v14h1.5zM-6.43-3.3l.172 1.234a58.626 58.626 0 0 0 8.938-.543L2.6-3.7c-.7.078-1.414.148-2.141.2v-6.516h1.455v-1.219h-7.969v1.219h1.469v6.7c-.648.016-1.266.016-1.844.016zm3.281-.039v-6.68h2.157v6.6c-.727.036-1.453.067-2.156.083zm12.766-8.333H8.164V-4.7h6.656v-6.969h-1.468v2.234H9.617zm0 5.781v-2.39h3.734v2.391zM9.8 1.031h9.578v-1.2H11.3v-3.222H9.8zm7.75-3.375h1.484v-10.312h-1.479z" transform="translate(394 1854)"/>
                <path id="패스_7247" data-name="패스 7247" class="cls-4" d="M-37.023-1.672h-5.734V-5h-1.469v3.328h-5.609v1.219h12.812zM-49.4-5.969l.656 1.219A7.428 7.428 0 0 0-43.5-8.516a7.433 7.433 0 0 0 5.273 3.766l.641-1.219c-2.7-.453-5.141-2.531-5.141-4.75v-1.062h-1.562v1.062C-44.3-8.5-46.7-6.422-49.4-5.969zm19.7 2.094c-3 0-4.922.961-4.922 2.594S-32.7 1.3-29.7 1.3c3.031.008 4.945-.953 4.953-2.578-.003-1.636-1.917-2.597-4.953-2.597zM-36-5.031h12.734v-1.2h-6.164v-2.628h-1.453v2.625h-5.109zm1.484-5.766h8.187A12.574 12.574 0 0 1-26.7-7.25l1.453.156a12.606 12.606 0 0 0 .391-3.719v-1.172h-9.656zm1.375 9.516c-.016-.922 1.32-1.461 3.437-1.469 2.141.008 3.469.547 3.484 1.469-.007.906-1.335 1.429-3.48 1.437-2.113-.008-3.448-.531-3.433-1.437zM-9.4-5.859h-5.67v-1.485h4.187v-1.187h-8.234v-2.328h8.141v-1.172h-9.609v4.687h4.078v1.484h-5.673v1.187H-9.4zm-11.264 4.64c0 1.625 1.82 2.539 4.859 2.547 3.016-.008 4.82-.922 4.828-2.547-.008-1.625-1.812-2.539-4.828-2.547-3.039.008-4.859.922-4.859 2.547zm1.5 0c-.008-.883 1.219-1.391 3.359-1.391 2.109 0 3.344.508 3.344 1.391 0 .9-1.234 1.391-3.344 1.375-2.14.016-3.367-.476-3.359-1.375zM8.32-4.781H-4.445v1.2H1.18v4.893h1.453v-4.89H8.32zM-3.727-7.016l.562 1.172a6.946 6.946 0 0 0 5.1-3.086A6.937 6.937 0 0 0 7.07-5.844l.547-1.172c-2.648-.359-4.8-1.914-4.828-3.641h4.328v-1.187H-3.258v1.187H1.1C1.055-8.93-1.117-7.375-3.727-7.016zm20.5-4.469h-6.656v6.578h6.656zm-5.2 5.391v-4.187H15.3v4.187zm.266 7h9.578V-.312h-8.081v-3.282h-1.5zm7.672-3.531h1.484v-10.031h-1.487zm15.637-10.047h-1.406v10.5h1.406zM23.18-5.266l.828 1.141a5.573 5.573 0 0 0 2.742-3.141 4.955 4.955 0 0 0 2.57 2.781l.828-1.141a4.421 4.421 0 0 1-2.7-4.078v-2h-1.44v2a5.021 5.021 0 0 1-2.828 4.438zm2.687 6.3h9.687v-1.2h-8.218v-3.287h-1.469zm3.033-9.05h2.047v5.437h1.422v-9.844h-1.424v3.187H28.9zm19.812-4.656h-1.47V-7.5h-2.781v1.219h2.781v7.64h1.469zM37.68-1.953h1.094a38.308 38.308 0 0 0 6.391-.422l-.156-1.2a32.264 32.264 0 0 1-5.828.391v-3.128h4.453V-7.5H39.18v-2.719h5.047v-1.2H37.68z" transform="translate(1464 1911)"/>
                <path id="패스_7248" data-name="패스 7248" class="cls-4" d="M6.891-12.516c-3.156-.008-5.008.859-5 2.406-.008 1.446 1.554 2.282 4.25 2.41v.984H.516v1.187h12.765v-1.19H7.594V-7.7c2.727-.117 4.289-.953 4.3-2.406-.011-1.55-1.847-2.417-5.003-2.41zM2.047-3.359H10.2v1.094H2.062v3.452h10V.047H3.516V-1.2h8.156v-3.284H2.047zm1.391-6.75c-.008-.82 1.227-1.289 3.453-1.3 2.242.008 3.477.477 3.469 1.3.008.867-1.227 1.3-3.469 1.312-2.227-.003-3.461-.445-3.454-1.312zm22.531-2.562h-1.485v14.03h1.484zM15.125-10.2h5.047v2.719h-5.031V-2h1.187a41.329 41.329 0 0 0 7.062-.516l-.14-1.218a39.607 39.607 0 0 1-6.594.5V-6.3h5.031v-5.109h-6.562zm25.859 8.5H28.172v1.216h12.812zM29.641-4.359h9.828V-11.7H38v2.516h-6.875V-11.7h-1.484zm1.484-1.172v-2.485H38v2.484zm14.75-6.328A3.394 3.394 0 0 0 42.2-8.5a3.4 3.4 0 0 0 3.672 3.344A3.7 3.7 0 0 0 48.68-6.3h3.508v1.891h1.484v-8.266h-1.485v1.975h-3.5a3.69 3.69 0 0 0-2.812-1.159zM43.625-8.5a2.05 2.05 0 0 1 2.25-2.078A2.049 2.049 0 0 1 48.094-8.5a2.066 2.066 0 0 1-2.219 2.078 2.067 2.067 0 0 1-2.25-2.078zm.625 7.109c-.008 1.7 1.8 2.7 4.734 2.687 2.916.004 4.727-.984 4.735-2.687C53.711-3.1 51.9-4.1 48.984-4.094c-2.929-.006-4.742.994-4.734 2.703zm1.453 0c-.008-1 1.227-1.555 3.281-1.562 2.055.008 3.281.562 3.281 1.562 0 .961-1.227 1.523-3.281 1.516C46.93.133 45.7-.43 45.7-1.391zm3.664-8.125h2.82v2h-2.82a3.37 3.37 0 0 0 .148-.984 3.545 3.545 0 0 0-.148-1.016z" transform="translate(1414 1826)"/>
                <path id="패스_7242" data-name="패스 7242" class="cls-4" d="M-29.008-9.109V-11.5h-1.5v2.391a7.181 7.181 0 0 1-3.625 6.328l.937 1.2a7.484 7.484 0 0 0 3.453-4.555 7.144 7.144 0 0 0 3.406 4.289l.906-1.187a6.733 6.733 0 0 1-3.577-6.075zm2.031 2.3h3.125v8.168h1.469v-14.031h-1.469v4.656h-3.125zm19.563 5.137h-5.734V-5h-1.469v3.328h-5.609v1.219h12.812zm-12.375-4.3.656 1.219a7.428 7.428 0 0 0 5.242-3.766A7.433 7.433 0 0 0-8.617-4.75l.641-1.219c-2.7-.453-5.141-2.531-5.141-4.75v-1.062h-1.563v1.062c-.008 2.219-2.414 4.297-5.109 4.75zM6.4-5.594H-6.414v1.2h5.781v2.719H.836v-2.716H6.4zM-4.82 1.031h9.8v-1.2h-8.316V-3H-4.82zm.047-8.078h9.515v-4.969h-9.515zm1.453-1.172v-2.625h6.593v2.625zm22.344-4.453h-1.469v7.281h1.469zM8.164-5.953h6.656v-6.141h-1.468v1.906H9.617v-1.906H8.164zm1.453-1.188v-1.906h3.734v1.906zm.219 3.578h7.734v1.2H9.883v3.55h9.625V.031H11.32v-1.312h7.719v-3.438h-9.2zm23.031-9.109h-1.484v8.531h1.484zM22.1-5.344h1.172a34.894 34.894 0 0 0 6.937-.469l-.139-1.218a32.076 32.076 0 0 1-6.5.484v-3.844h5.187v-1.2H22.1zm1.3 3.969c0 1.7 1.8 2.7 4.766 2.7 2.922-.008 4.742-1.008 4.75-2.7-.008-1.711-1.828-2.711-4.75-2.7-2.966-.011-4.766.989-4.766 2.7zm1.5 0c0-.992 1.2-1.531 3.266-1.531 2.055 0 3.289.539 3.281 1.531.008.961-1.227 1.516-3.281 1.516-2.072 0-3.266-.555-3.266-1.516z" transform="translate(446 1975)"/>
                <path id="패스_3802" data-name="패스 3802" class="cls-4" d="M0 0h14v14H0z" transform="translate(1322 1874)"/>
                <path id="패스_7249" data-name="패스 7249" class="cls-4" d="M-35.813-11.375h-6.422v9.3h1.109a31.614 31.614 0 0 0 6.359-.469l-.172-1.219a30.049 30.049 0 0 1-5.8.453v-6.828h4.922zm-.8 4.937h3.891v7.8h1.484v-14.034h-1.484v5h-3.891zm19.078-5.812h-10.387v1.125h2.047V-8.7h-1.984v1.141h10.266V-8.7h-1.969v-2.422h2.031zm-11.559 6.891h12.766v-1.172h-12.766zm1.531 2.2h8.156v1.047h-8.141v3.3h10V.062h-8.547v-1.124h8.156v-3.2h-9.625zm3.157-5.541v-2.422h3.359V-8.7zm20.047-3.969h-1.469V1.359h1.469v-7.312h2.25V-7.2h-2.25zm-10.36 2.469h4.937v2.734h-4.906v5.484h1.141a35.621 35.621 0 0 0 6.7-.516l-.141-1.2a33.218 33.218 0 0 1-6.234.469v-3.037h4.906v-5.141h-6.406zM3.437-8.547v-1.484h3.047v-1.234h-7.672v1.234h3.157v1.484A7.1 7.1 0 0 1-1.7-2.516l.875 1.172a7.651 7.651 0 0 0 3.544-4.515A7.16 7.16 0 0 0 6.172-1.7l.844-1.156a6.611 6.611 0 0 1-3.579-5.691zm4.547 9.875h1.485v-7.2h2.25v-1.25h-2.25v-5.547H7.984zM28.422-10.7h-5.016v-1.766h-1.469v1.766h-5.031v1.2h11.516zM16.3-.25h12.809v-1.2h-5.7V-3.3c2.422-.156 3.93-1.125 3.922-2.68.008-1.687-1.8-2.68-4.656-2.672-2.891-.008-4.68.984-4.672 2.672-.008 1.555 1.484 2.523 3.937 2.68v1.852H16.3zm3.219-5.734c-.016-.969 1.156-1.5 3.156-1.5 1.969 0 3.148.531 3.141 1.5.008.977-1.172 1.508-3.141 1.516-2.003-.009-3.175-.54-3.159-1.516zm16.562-5.859H30.75v6.219h.906A28.657 28.657 0 0 0 36.812-6l-.141-1.156a23.257 23.257 0 0 1-4.531.344v-1.422h3.391v-1.141h-3.39v-1.3h3.937zm-3.409 8.452h7.937v1.109H32.7v3.469h9.891V.031h-8.419v-1.218h7.891v-3.375h-9.391zm3.5-5h1.734v3.125h1.406v-7.156h-1.406v2.844h-1.734zm4.484 3.25h1.406v-7.516h-1.406z" transform="translate(1454 1728)"/>
                <path id="패스_7243" data-name="패스 7243" class="cls-4" d="M-36.586 0h1.719v-3.516l1.328-1.531L-29.9 0h2.078L-32.4-6.219l4.562-5.094h-2.156l-4.734 5.391h-.141v-5.391h-1.719zm10.172 0h4.328c2.641 0 3.828-1.312 3.828-3.047a2.623 2.623 0 0 0-2.344-2.8v-.109A2.32 2.32 0 0 0-18.7-8.344c0-1.68-1.164-2.969-3.578-2.969h-4.141zm1.714-1.469v-3.609h2.516a2.014 2.014 0 0 1 2.219 1.953c0 .937-.656 1.648-2.281 1.656zm0-4.953v-3.422h2.312c1.352 0 2 .7 2 1.641a1.848 1.848 0 0 1-2.031 1.781zm18.828-5.594h-9.578v1.2h8.109a16.889 16.889 0 0 1-.339 3.738h-9.375v1.2h5.641v2.391h-4.328V-2.3h8.453v3.628H-5.8v-4.812h-4.13v-2.391h5.687v-1.2h-1.945a17.56 17.56 0 0 0 .32-3.891zm10.031.531h-6.651v6.578h6.656zm-5.2 5.391v-4.187H2.7v4.187zm.266 7H8.8V-.312H.727v-3.282h-1.5zM6.9-2.625h1.483v-10.031H6.9zm16.467-2.734H10.6v1.187h12.767zm-11.39-4.047c-.008 1.766 1.953 2.836 5 2.844 3.031-.008 4.992-1.078 5-2.844-.008-1.758-1.969-2.8-5-2.8-3.047-.005-5.008 1.042-5 2.8zm.234 10.437h9.719v-1.2h-8.219v-2.862h-1.5zm1.3-10.437c-.008-1 1.32-1.609 3.469-1.609s3.477.609 3.469 1.609c.008 1.039-1.328 1.625-3.469 1.625s-3.48-.586-3.472-1.625zm22.859-3.266h-1.409v3.7h-1.625v-3.437h-1.391v8.078h1.391V-7.75h1.625v3.906h1.406zM24.352-9.906h7.078v-1.172h-2.782v-1.484H27.18v1.484h-2.828zm.548 3.062c0 1.453 1.25 2.406 3 2.406 1.789 0 3.031-.953 3.031-2.406S29.687-9.25 27.9-9.25c-1.752 0-3 .95-3 2.406zm1.328 0c0-.8.68-1.32 1.672-1.312 1.008-.008 1.7.516 1.687 1.312.008.8-.68 1.32-1.687 1.328-.994-.007-1.673-.531-1.673-1.328zm.719 5.687C26.93.414 28.711 1.3 31.68 1.3c2.977.008 4.758-.883 4.766-2.453-.008-1.586-1.789-2.484-4.766-2.484s-4.75.895-4.735 2.481zm1.469 0C28.4-2.039 29.6-2.508 31.68-2.5c2.086-.008 3.273.461 3.281 1.344-.008.844-1.2 1.328-3.281 1.312-2.08.016-3.28-.468-3.266-1.312z" transform="translate(708 1918)"/>
                <path id="패스_7244" data-name="패스 7244" class="cls-4" d="M-15.531-12.656h-1.484v10.25h1.484zm-11.532 7.094.8 1.172A6.036 6.036 0 0 0-22.8-7.945a5.88 5.88 0 0 0 3.437 3.3l.766-1.187a4.937 4.937 0 0 1-3.45-4.668v-1.391h-1.516v1.391a5.29 5.29 0 0 1-3.5 4.938zm2.375 6.594h9.578v-1.2h-8.078v-3.2h-1.5zm22.375-13.688H-3.8v10.469h1.484v-4.735h2.035v-1.234h-2.032zM-13.3-9.828h8.344v-1.2h-3.419v-1.641h-1.484v1.641H-13.3zm.766 3.312c-.005 1.586 1.378 2.616 3.409 2.625C-7.117-3.9-5.734-4.93-5.734-6.516c0-1.6-1.383-2.648-3.391-2.641-2.031-.007-3.414 1.04-3.406 2.641zm1.344 7.547h9.469v-1.2H-9.7v-2.847h-1.484zm.094-7.547c-.016-.922.781-1.492 1.969-1.5 1.187.008 1.984.578 2 1.5-.016.914-.812 1.477-2 1.469-1.186.008-1.982-.553-1.967-1.469zm24.377 1.157H.516v1.187h12.765zM1.891-9.406c-.008 1.766 1.953 2.836 5 2.844 3.031-.008 4.992-1.078 5-2.844-.008-1.758-1.969-2.8-5-2.8-3.047-.005-5.008 1.042-5 2.8zm.234 10.437h9.719v-1.2H3.625v-2.862h-1.5zm1.3-10.437c-.008-1 1.32-1.609 3.469-1.609s3.477.609 3.469 1.609c.008 1.039-1.328 1.625-3.469 1.625s-3.48-.586-3.472-1.625zm22.859-3.266h-1.409v3.7H23.25v-3.437h-1.391v8.078h1.391V-7.75h1.625v3.906h1.406zM14.266-9.906h7.078v-1.172h-2.782v-1.484h-1.468v1.484h-2.828zm.547 3.062c0 1.453 1.25 2.406 3 2.406 1.789 0 3.031-.953 3.031-2.406S19.6-9.25 17.812-9.25c-1.75 0-3 .95-3 2.406zm1.328 0c0-.8.68-1.32 1.672-1.312 1.008-.008 1.7.516 1.687 1.312.008.8-.68 1.32-1.687 1.328-.993-.007-1.672-.531-1.672-1.328zm.719 5.687C16.844.414 18.625 1.3 21.594 1.3c2.977.008 4.758-.883 4.766-2.453-.008-1.586-1.789-2.484-4.766-2.484s-4.75.895-4.735 2.481zm1.469 0c-.016-.883 1.187-1.352 3.266-1.344 2.086-.008 3.273.461 3.281 1.344-.008.844-1.2 1.328-3.281 1.312-2.079.017-3.283-.467-3.267-1.311z" transform="translate(966 1855)"/>
                <circle id="타원_413" data-name="타원 413" class="cls-4" cx="6" cy="6" r="6" transform="translate(1087 1782)"/>
                <circle id="타원_425" data-name="타원 425" class="cls-4" cx="6" cy="6" r="6" transform="translate(1211 1876)"/>
                <circle id="타원_414" data-name="타원 414" class="cls-4" cx="6" cy="6" r="6" transform="translate(960 1816)"/>
                <circle id="타원_415" data-name="타원 415" class="cls-4" cx="6" cy="6" r="6" transform="translate(702 1879)"/>
                <circle id="타원_416" data-name="타원 416" class="cls-4" cx="6" cy="6" r="6" transform="translate(388 1963)"/>
                <circle id="타원_417" data-name="타원 417" class="cls-4" cx="6" cy="6" r="6" transform="translate(350 1842)"/>
                <circle id="타원_418" data-name="타원 418" class="cls-4" cx="6" cy="6" r="6" transform="translate(722 1545)"/>
                <circle id="타원_419" data-name="타원 419" class="cls-4" cx="6" cy="6" r="6" transform="translate(589 1436)"/>
                <circle id="타원_420" data-name="타원 420" class="cls-4" cx="6" cy="6" r="6" transform="translate(681 1325)"/>
                <circle id="타원_421" data-name="타원 421" class="cls-4" cx="6" cy="6" r="6" transform="translate(1448 1689)"/>
                <circle id="타원_422" data-name="타원 422" class="cls-4" cx="6" cy="6" r="6" transform="translate(1391 1899)"/>
                <circle id="타원_424" data-name="타원 424" class="cls-4" cx="6" cy="6" r="6" transform="translate(1391 1814)"/>
                <circle id="타원_423" data-name="타원 423" class="cls-4" cx="6" cy="6" r="6" transform="translate(753 1715)"/>
            </g>
            <g id="서울시립미술관" transform="translate(51.921 482)">
                <path id="패스_7239" data-name="패스 7239" class="cls-4" d="M-48.19-10.248v-2.689h-1.687v2.689a8.079 8.079 0 0 1-4.078 7.119l1.055 1.354A8.419 8.419 0 0 0-49.017-6.9a8.037 8.037 0 0 0 3.832 4.825l1.02-1.336a7.575 7.575 0 0 1-4.025-6.837zm2.285 2.584h3.516v9.193h1.652v-15.785h-1.653v5.238h-3.516zm14.765-6.416c-3.551-.009-5.634.967-5.625 2.707-.009 1.767 2.074 2.725 5.625 2.725s5.616-.958 5.625-2.725c-.008-1.74-2.074-2.716-5.625-2.707zm-7.172 7.68h6.328v1.354h-4.605V-3.8h9.176v1.23h-9.158v3.9h11.25V.053h-9.615v-1.407h9.176v-3.691h-4.553V-6.4h6.363v-1.317h-14.362zm3.287-4.975c-.009-.923 1.38-1.45 3.885-1.459 2.522.009 3.911.536 3.9 1.459.009.976-1.38 1.468-3.9 1.477-2.505-.007-3.893-.502-3.884-1.475zm18.053 1.125v-2.689h-1.687v2.689a7.927 7.927 0 0 1-4.219 7.119l1.02 1.406a8.391 8.391 0 0 0 4.069-5.133 8.117 8.117 0 0 0 3.981 4.781l1-1.318a7.635 7.635 0 0 1-4.164-6.853zm5.59 11.777h1.67v-15.783h-1.67zM5.862-14.238h-1.67v8.684h1.67zm-12.27 2.092h5.59v1.74h-5.554v4.553h1.318a46.159 46.159 0 0 0 7.7-.51l-.211-1.354a42.061 42.061 0 0 1-7.172.475v-1.863H.835V-13.5h-7.242zM-4.474 1.3H5.862v-6.116H4.21v1.705H-2.8v-1.705h-1.67zM-2.8-.053v-1.74h7.01v1.74zm19.42-12.691H9.237v10.353h7.383zm-5.73 9v-7.682H15v7.682zm8.842 5.273H21.4v-15.785h-1.67zm12.216-15.187v-.527h-1.705v.527c-.009 1.811-2.5 3.331-5.572 3.674l.58 1.266c2.558-.316 4.816-1.406 5.836-3.015 1.011 1.608 3.27 2.7 5.854 3.015l.58-1.266c-3.068-.343-5.564-1.864-5.573-3.674zm-8.033 7.189h6.328v1.406h-4.605v1.283h9.176v1.23h-9.159v3.886h11.25V.053H27.29v-1.389h9.176v-3.726h-4.553v-1.407h6.363V-7.8H23.915zm24.328-6.592H40.3v1.371h6.3a21.507 21.507 0 0 1-.413 4.008l1.652.158a25.159 25.159 0 0 0 .4-4.658zM39.349-6.17l.158 1.354a60.263 60.263 0 0 0 9.826-.65l-.105-1.214c-1.582.229-3.322.352-5.01.422v-3.27h-1.653v3.322c-1.151.027-2.25.036-3.216.036zm2.391 7.33h10.704V-.193h-9.035V-3.5h-1.67zm8.49-3.586h1.705V-7.84H54.1v-1.406h-2.165v-5.01h-1.706z" transform="translate(923.078 1651)"/>
                <g id="icon_03" transform="translate(5 16.707)">
                    <path id="패스_3804" data-name="패스 3804" class="cls-5" d="M0 0h24v50H0z" transform="rotate(-90 1250.791 357.501)"/>
                    <g id="그룹_1855" data-name="그룹 1855" transform="translate(900.63 1589.601)">
                        <path id="사각형_835" data-name="사각형 835" class="cls-5" d="M0 0h8v8a4 4 0 0 1-4 4h0a4 4 0 0 1-4-4V0h0z" transform="rotate(-180 4.08 6.346)"/>
                        <path id="사각형_8096" data-name="사각형 8096" class="cls-5" d="M0 0h8v8a4 4 0 0 1-4 4h0a4 4 0 0 1-4-4V0h0z" transform="rotate(-180 10.83 6.345)"/>
                        <path id="사각형_8097" data-name="사각형 8097" class="cls-5" d="M0 0h8v8a4 4 0 0 1-4 4h0a4 4 0 0 1-4-4V0h0z" transform="rotate(-180 17.579 6.345)"/>
                    </g>
                    <path id="사각형_836" data-name="사각형 836" class="cls-5" transform="rotate(-90 1239.29 369.001)" d="M0 0h6v96H0z"/>
                    <path id="사각형_838" data-name="사각형 838" class="cls-5" transform="rotate(-90 1239.791 344.502)" d="M0 0h16v8H0z"/>
                    <path id="사각형_8098" data-name="사각형 8098" class="cls-5" transform="rotate(-90 1258.791 325.502)" d="M0 0h16v8H0z"/>
                    <g id="그룹_1857" data-name="그룹 1857" transform="translate(903.542 1565.732)">
                        <path id="사각형_839" data-name="사각형 839" class="cls-5" transform="rotate(-180 14.874 9.28)" d="M0 0h30v18H0z"/>
                        <g id="그룹_1856" data-name="그룹 1856" transform="translate(7.247 6.561)">
                            <path id="패스_3805" data-name="패스 3805" class="cls-5" d="M341.84 4043.475v6" transform="translate(-334.34 -4043.475)"/>
                            <path id="패스_3806" data-name="패스 3806" class="cls-5" d="M341.84 4043.475v6" transform="translate(-341.84 -4043.475)"/>
                            <path id="패스_3807" data-name="패스 3807" class="cls-5" d="M341.84 4043.475v6" transform="translate(-326.84 -4043.475)"/>
                        </g>
                    </g>
                    <path id="합치기_1" data-name="합치기 1" class="cls-5" d="M14.043 6H4.5L0 0h39l-4.5 6z" transform="translate(898.79 1560.292)"/>
                    <path id="패스_3810" data-name="패스 3810" class="cls-5" d="M-14081.469-5794h-25v36" transform="translate(14976.758 7366.293)"/>
                    <path id="패스_7227" data-name="패스 7227" class="cls-5" d="M-14106.469-5794h25v36" transform="translate(15047.758 7366.293)"/>
                </g>
            </g>
            <g id="서울시립미술관-2" data-name="서울시립미술관" transform="translate(-70.29 598.962)">
                <path id="패스_7240" data-name="패스 7240" class="cls-4" d="M-49.21-10.248v-2.689h-1.69v2.689a8.079 8.079 0 0 1-4.078 7.119l1.055 1.354A8.419 8.419 0 0 0-50.036-6.9 8.037 8.037 0 0 0-46.2-2.074l1.02-1.336a7.575 7.575 0 0 1-4.03-6.838zm2.285 2.584h3.516v9.193h1.652v-15.785h-1.652v5.238h-3.516zm22.008 5.783h-6.451v-3.744h-1.652v3.744h-6.311V-.51h14.414zm-13.922-4.834.738 1.371A8.356 8.356 0 0 0-32.2-9.58a8.362 8.362 0 0 0 5.933 4.236l.721-1.371c-3.041-.51-5.783-2.848-5.783-5.344v-1.2h-1.758v1.2c-.013 2.497-2.72 4.834-5.752 5.344zm29.461.422h-14.414v1.354h6.5v3.059h1.652v-3.059h6.258zM-22 1.16h11.021V-.193h-9.352v-3.182H-22zm.053-9.088h10.705v-5.59h-10.704zm1.635-1.318V-12.2h7.418v2.953zM-7.5 0h1.934v-3.955l1.494-1.723L.026 0h2.338l-5.15-7 5.133-5.73H-.079l-5.326 6.068h-.158v-6.064H-7.5zM5.036 0 6.2-3.357h4.957L12.313 0h2.057L9.782-12.727H7.55L2.979 0zM6.75-4.975l1.872-5.432h.088l1.881 5.432zM15.987 0h7.682v-1.67h-5.748v-11.057h-1.934zm21.99-14.256h-1.652v8.191h1.652zM25.761-6.7h7.488v-6.908H31.6v2.145h-4.2v-2.145h-1.639zM27.4-8.033v-2.145h4.2v2.145zm.246 4.025h8.7v1.354h-8.652v3.99h10.828V.035h-9.21v-1.476H38v-3.868H27.642zm25.91-10.248h-1.67v9.6h1.67zM41.44-6.012h1.318a39.256 39.256 0 0 0 7.8-.527l-.153-1.371a36.085 36.085 0 0 1-7.312.545v-4.324h5.836v-1.354H41.44zm1.46 4.465c0 1.907 2.03 3.032 5.361 3.041C51.548 1.485 53.6.36 53.6-1.547c0-1.925-2.052-3.053-5.339-3.041C44.93-4.6 42.9-3.472 42.9-1.547zm1.688 0c0-1.116 1.345-1.723 3.674-1.723 2.312 0 3.7.606 3.691 1.723.008 1.081-1.381 1.705-3.692 1.705-2.329 0-3.674-.624-3.674-1.705z" transform="translate(927.289 1645.038)"/>
                <g id="icon_03-2" data-name="icon_03" transform="translate(0 -.562)">
                    <path id="패스_3804-2" data-name="패스 3804" class="cls-5" d="M0 0h66v55H0z" transform="rotate(-90 1259.446 360.156)"/>
                    <g id="그룹_11124" data-name="그룹 11124" transform="translate(911.289 1564.6)">
                        <path id="패스_7228" data-name="패스 7228" class="cls-5" d="M341.84 4043.475v31" transform="translate(-341.34 -4043.475)"/>
                        <path id="패스_7229" data-name="패스 7229" class="cls-5" d="M341.84 4043.475v31" transform="translate(-311.34 -4043.475)"/>
                        <path id="패스_7231" data-name="패스 7231" class="cls-5" d="M341.84 4043.475v31" transform="translate(-321.34 -4043.475)"/>
                        <path id="패스_7232" data-name="패스 7232" class="cls-5" d="M341.84 4043.475v31" transform="translate(-331.34 -4043.475)"/>
                    </g>
                    <path id="사각형_8101" data-name="사각형 8101" class="cls-5" transform="rotate(-90 1266.696 352.906)" d="M0 0h9v26H0z"/>
                    <path id="사각형_8104" data-name="사각형 8104" class="cls-5" transform="rotate(-90 1259.446 351.156)" d="M0 0h6v37H0z"/>
                </g>
            </g>
            <g id="서울특별시청" transform="translate(-19 631)">
                <path id="패스_7234" data-name="패스 7234" d="M-40.412-10.248v-2.689H-42.1v2.689a8.079 8.079 0 0 1-4.078 7.119l1.055 1.354A8.419 8.419 0 0 0-41.238-6.9a8.037 8.037 0 0 0 3.832 4.825l1.02-1.336a7.575 7.575 0 0 1-4.026-6.837zm2.285 2.584h3.516v9.193h1.652v-15.785h-1.652v5.238h-3.516zm14.766-6.416c-3.551-.009-5.634.967-5.625 2.707-.014 1.767 2.074 2.725 5.625 2.725s5.616-.958 5.625-2.725c-.009-1.74-2.075-2.716-5.625-2.707zm-7.172 7.68h6.328v1.354h-4.605V-3.8h9.176v1.23h-9.158v3.9h11.25V.053h-9.615v-1.407h9.176v-3.691h-4.553V-6.4h6.363v-1.317h-14.362zm3.287-4.975c-.009-.923 1.38-1.45 3.885-1.459 2.522.009 3.911.536 3.9 1.459.009.976-1.38 1.468-3.9 1.477-2.505-.007-3.894-.502-3.885-1.475zm26.631 5.4h-14.4v1.318h14.4zm-12.762 4.024h9.228v3.445h1.705v-4.781h-10.933zm.246-5.361h10.863V-8.6h-9.176v-1.384h8.666v-1.266h-8.666v-1.283h9.07v-1.318h-10.757zm26.824-6.943h-1.652v2.162H8.6v-1.441H6.943v2.127H3.006v-2.127h-1.67v6.891H8.6v-1.3h3.445v1.881h1.652zM3.006-7.98v-2.145h3.937v2.145zm.387 3.92h8.648v1.318H3.428V1.3h10.828V-.035H5.1v-1.459h8.6v-3.867H3.393zM8.6-9.228v-1.582h3.445v1.582zm13.324-1.02v-2.689h-1.692v2.689a7.927 7.927 0 0 1-4.219 7.119l1.02 1.406A8.391 8.391 0 0 0 21.1-6.855a8.117 8.117 0 0 0 3.981 4.781l1-1.318a7.635 7.635 0 0 1-4.161-6.856zM27.51 1.529h1.67v-15.785h-1.67zm9.7-12.428v-.193h3.428v-1.336H37.23v-1.9h-1.67v1.9h-3.427v1.336h3.428v.193a5.113 5.113 0 0 1-3.867 4.676l.791 1.283a6.2 6.2 0 0 0 3.937-3.507 6.1 6.1 0 0 0 3.92 3.1l.791-1.3c-2.4-.665-3.92-2.397-3.92-4.253zm-2.985 9.44C34.216.4 36.246 1.468 39.551 1.459c3.3.009 5.317-1.063 5.326-2.918-.009-1.846-2.03-2.892-5.326-2.9-3.305.008-5.335 1.059-5.326 2.9zm1.652 0c-.009-1.02 1.362-1.6 3.674-1.6s3.665.58 3.674 1.6C43.216-.439 41.862.167 39.551.176c-2.312-.009-3.683-.615-3.674-1.635zm4.271-7.014h3.006v3.762h1.67v-9.545h-1.67v4.412h-3.006z" transform="translate(1486.332 1298)" style="opacity:.9;fill:#999"/>
                <g id="icon_02" transform="translate(14.332 8)">
                    <path id="사각형_840" data-name="사각형 840" class="cls-5" transform="rotate(-90 1358.834 -94.834)" d="M0 0h32v36H0z"/>
                    <path id="사각형_841" data-name="사각형 841" class="cls-5" transform="rotate(-90 1345.334 -113.334)" d="M0 0h12v26H0z"/>
                    <path id="사각형_842" data-name="사각형 842" class="cls-5" transform="rotate(-90 1347.834 -105.834)" d="M0 0h10v36H0z"/>
                    <path id="사각형_843" data-name="사각형 843" class="cls-5" transform="rotate(-180 740.834 624.5)" d="M0 0h20v7H0z"/>
                    <path id="사각형_844" data-name="사각형 844" class="cls-5" transform="rotate(-180 740.834 632)" d="M0 0h20v15H0z"/>
                    <path id="사각형_845" data-name="사각형 845" class="cls-5" transform="rotate(-90 1348.084 -116.084)" d="M0 0h12v15H0z"/>
                    <g id="그룹_1858" data-name="그룹 1858" transform="translate(1458.668 1207)">
                        <path id="패스_3812" data-name="패스 3812" class="cls-5" d="M235.585 3995.332v-4.54l13-3.282v-2.466" transform="translate(-235.585 -3982.332)"/>
                        <path id="패스_3813" data-name="패스 3813" class="cls-5" d="M248.586 3994.417v-4.539l-13-3.283v-5.177" transform="translate(-222.586 -3981.417)"/>
                    </g>
                    <circle id="타원_68" data-name="타원 68" class="cls-4" cx="2.5" cy="2.5" r="2.5" transform="translate(1469.168 1223.5)"/>
                    <g id="그룹_1861" data-name="그룹 1861" transform="translate(1429.668 1229)">
                        <path id="사각형_848" data-name="사각형 848" class="cls-5" d="M0 0h24v35H0z"/>
                        <path id="사각형_849" data-name="사각형 849" class="cls-5" transform="rotate(-90 17.5 17.5)" d="M0 0h8v24H0z"/>
                    </g>
                    <g id="그룹_11122" data-name="그룹 11122" transform="translate(1489.668 1229)">
                        <path id="사각형_848-2" data-name="사각형 848" class="cls-5" d="M0 0h24v35H0z"/>
                        <path id="사각형_849-2" data-name="사각형 849" class="cls-5" transform="rotate(-90 17.5 17.5)" d="M0 0h8v24H0z"/>
                    </g>
                    <g id="그룹_1862" data-name="그룹 1862" transform="translate(1420.668 1229)">
                        <path id="패스_3816" data-name="패스 3816" class="cls-5" d="m10.024 0-9 8.325v23.669l9 3.006z" transform="translate(-1.024)"/>
                        <path id="패스_3817" data-name="패스 3817" class="cls-7" d="m1540.509 1268.988 9 1.571" transform="translate(-1540.509 -1243.543)"/>
                    </g>
                    <g id="그룹_11123" data-name="그룹 11123" transform="translate(1513.668 1229)">
                        <path id="패스_3816-2" data-name="패스 3816" class="cls-5" d="m1.024 0 9 8.325v23.669l-9 3.006z" transform="translate(-1.024)"/>
                        <path id="패스_3817-2" data-name="패스 3817" class="cls-7" d="m1549.509 1268.988-9 1.571" transform="translate(-1540.509 -1243.543)"/>
                    </g>
                    <path id="사각형_8099" data-name="사각형 8099" class="cls-8" transform="translate(1453.668 1223)" d="M0 0h5v9H0z"/>
                    <path id="사각형_8100" data-name="사각형 8100" class="cls-8" transform="translate(1484.668 1223)" d="M0 0h5v9H0z"/>
                </g>
            </g>
            <g id="덕수궁" transform="translate(-25.942 550)">
                <path id="패스_7233" data-name="패스 7233" class="cls-4" d="M-14.687-13.184h-7.207v7.7h1.2a30.032 30.032 0 0 0 7-.51l-.166-1.336a30.735 30.735 0 0 1-6.381.492v-4.975h5.555zm-5.607 10.477h9v4.2h1.67v-5.536h-10.67zm4.729-6.17h4.271v4.061h1.67v-9.439h-1.67v4.025h-4.271zM.87-12.867v-.861H-.87v.861C-.879-10.749-3.428-8.815-6.513-8.4l.668 1.371A8.1 8.1 0 0 0 0-10.635a8.1 8.1 0 0 0 5.862 3.6L6.513-8.4C3.419-8.815.861-10.775.87-12.867zM-7.2-4.113h6.33v5.607H.765v-5.607h6.4v-1.371H-7.2zm28.143-9.492H10.169v1.336h9.123a18.643 18.643 0 0 1-.4 4.236H8.358V-6.7H14.7v2.3c-2.953.167-4.711 1.2-4.711 2.909 0 1.907 2.083 2.962 5.537 2.953 3.428.009 5.511-1.046 5.52-2.953-.009-1.7-1.758-2.742-4.693-2.909v-2.3h6.416v-1.333h-2.2a19.569 19.569 0 0 0 .369-4.43zM11.681-1.494c-.018-1.02 1.406-1.582 3.85-1.582 2.408 0 3.832.562 3.85 1.582C19.362-.439 17.938.132 15.53.123c-2.443.009-3.867-.562-3.849-1.617z" transform="translate(1116.518 1417.834)"/>
                <g id="icon_01" transform="translate(13.942 10)">
                    <g id="그룹_1865" data-name="그룹 1865" transform="translate(1056.288 1340.419)">
                        <g id="그룹_1863" data-name="그룹 1863">
                            <path id="패스_3818" data-name="패스 3818" class="cls-5" d="M1089.963 1543.253v27.125" transform="translate(-1089.963 -1542.355)"/>
                            <path id="패스_3819" data-name="패스 3819" class="cls-5" d="M1089.963 1543.2v25.481" transform="translate(-1074.675 -1540.657)"/>
                            <path id="패스_3820" data-name="패스 3820" class="cls-5" d="M1089.963 1543.2v25.481" transform="translate(-1059.387 -1539.808)"/>
                        </g>
                        <path id="사각형_851" data-name="사각형 851" class="cls-5" transform="translate(40.767 13.587)" d="M0 0h11.89v15.285H0z"/>
                        <path id="사각형_852" data-name="사각형 852" class="cls-5" transform="translate(40.767 8.492)" d="M0 0h11.89v5.095H0z"/>
                        <g id="그룹_1864" data-name="그룹 1864" transform="translate(62.849)">
                            <path id="패스_3821" data-name="패스 3821" class="cls-5" d="M1089.963 1543.253v27.125" transform="translate(-1059.387 -1542.355)"/>
                            <path id="패스_3822" data-name="패스 3822" class="cls-5" d="M1089.963 1543.2v25.481" transform="translate(-1074.675 -1540.657)"/>
                            <path id="패스_3823" data-name="패스 3823" class="cls-5" d="M1089.963 1543.2v25.481" transform="translate(-1089.963 -1539.807)"/>
                        </g>
                        <g id="가운데_계단_선" data-name="가운데 계단 선" transform="translate(35.671 25.475)">
                            <path id="패스_3824" data-name="패스 3824" class="cls-7" d="M1219.216 1530.5v15.285" transform="translate(-1197.134 -1530.497)"/>
                            <path id="패스_3825" data-name="패스 3825" class="cls-7" d="M1219.216 1530.5v15.285" transform="translate(-1219.216 -1530.497)"/>
                        </g>
                    </g>
                    <path id="합치기_3" data-name="합치기 3" class="cls-5" d="M62 33.965h-.994v-.005C31.037 33.754 0 28.991 0 28.991L20.87 24.6l4.723-19.435h72.812l4.723 19.435L124 28.991s-31.038 4.763-61.006 4.969v.007z" transform="translate(1041 1309)"/>
                    <path id="패스_3830" data-name="패스 3830" class="cls-5" d="M0 0h113.808v8.492H0z" transform="translate(1046.095 1369.29)"/>
                    <path id="패스_3831" data-name="패스 3831" class="cls-7" d="M3154.451 1569.513v7.642" transform="translate(-2051.451 -254.569)"/>
                </g>
            </g>
            <path id="길" d="m11466.517 5462.034-77.5 19.323-14.512-58.218 76.482-19.069-82.837-309.154h-414v-10l411.326.026-3.4-12.676 9.657-2.586 4.093 15.265 177.792.01v.154l73.7 275 281.628-70.218v-276.8l-595.169-357.612 5.15-8.574 351.017 210.913V4410h10v453.824L11911.58 5003h79.37v-456h10v237h434v-181h60v165h202v-200h10v393h56v8h-56.538l-35.073 130.8 133.164-33.2 14.516 58.221-140.281 34.976 104.873 391.39-9.658 2.59-81.988-306-197.016 49.121V5721h-60v-259h-246.491l59.659 222.643-9.661 2.59-60.106-224.329-170.563 42.524 54.512 203.433-9.661 2.586-76.424-285.213-74.956 18.688 76.883 286.938-9.66 2.59-76.929-287.1-225.757 56.287 64.848 241.975-9.658 2.587-57.825-215.8-156.945 39.13 46.7 174.3-9.661 2.59zm37.1 99.833 156.949-39.13-27.4-102.253-156.947 39.131zm501.573-66.1 170.563-42.524-42.206-157.518-170.564 42.526zm-341.992-1.8 225.76-56.291-20.338-75.9-225.765 56.289zm522.576-41.967h249.171v-231.422l-291.693 72.727zm-287.111-16.739 74.96-18.688-20.34-75.9-74.959 18.689zm-437.973-33.611 156.946-39.131-71.705-267.6H11378.5zm458.26-114.257 516-128.652V5013h-516zm576-81.775v80.976l194.426-48.473-20.337-75.908zm0-61.837 165.291-41.213 35.782-133.568h-201.078zm-494-140.779h434V4794h-434zm696-42V4778h-202v183z" transform="translate(-11128.949 -2980)" style="fill:#eee"/>
            <g id="_2호선_시청역" data-name="2호선 시청역" transform="translate(-6 534)">
                <g id="_2호선" data-name="2호선" transform="translate(1024.539 1672.048)">
                    <path id="패스_3832" data-name="패스 3832" class="cls-11" d="M0 0h12v1547.774H0z" transform="rotate(76 392.72 374.532)"/>
                </g>
            </g>
            <g id="_1호선_시청역" data-name="1호선 시청역" transform="translate(-6 532)">
                <path id="패스_3833" data-name="패스 3833" class="cls-12" d="M0 0h12v1100H0z" transform="translate(1337 1103)"/>
                <g id="그룹_1867" data-name="그룹 1867" transform="translate(1321.584 1647.649)">
                    <circle id="타원_70" data-name="타원 70" class="cls-11" cx="20" cy="20" r="20" transform="translate(2.416 .351)"/>
                    <path id="패스_7254" data-name="패스 7254" class="cls-13" d="M-4.99 0H5.127v-2.422H-.908V-2.5L1.24-4.59c2.91-2.637 3.691-3.955 3.691-5.566 0-2.451-2.012-4.18-5.039-4.18-2.979 0-5.029 1.768-5.02 4.531h2.793a2.026 2.026 0 0 1 2.189-2.187A2.025 2.025 0 0 1 2.1-9.961c0 1.123-.713 1.9-2.031 3.164L-5.01-2.129z" transform="translate(22.416 27.351)"/>
                </g>
                <g id="_1호선" data-name="1호선" transform="translate(1319.584 1582.027)">
                    <g id="그룹_1868" data-name="그룹 1868" transform="translate(4.416 100.973)">
                        <circle id="타원_71" data-name="타원 71" class="cls-12" cx="20" cy="20" r="20"/>
                        <path id="패스_7255" data-name="패스 7255" class="cls-13" d="M2.52-14.141H-.254l-3.5 2.227v2.6l3.242-2.031h.082V0h2.95z" transform="translate(19.416 27.351)"/>
                    </g>
                </g>
            </g>
            <g id="NAM_NAM" data-name="NAM &amp; NAM" transform="translate(25 473)">
                <path id="패스_7250" data-name="패스 7250" class="cls-14" d="M-58.608-15.977h-2.48v4.336h-2.773v2.012h2.773v4.2h2.48zm-15.1 8.594 1.289 1.973A7.089 7.089 0 0 0-68.1-9.395a6.738 6.738 0 0 0 4.082 3.516l1.23-1.953a5.484 5.484 0 0 1-4.082-5.078h3.535v-1.99h-9.648v1.992h3.574a5.949 5.949 0 0 1-4.297 5.525zM-70.8-1.6c0 2.158 2.324 3.418 6.113 3.418S-58.56.557-58.55-1.6c-.01-2.158-2.334-3.428-6.133-3.437C-68.472-5.029-70.8-3.76-70.8-1.6zm2.48 0c0-1.025 1.279-1.533 3.633-1.523 2.363-.01 3.643.5 3.652 1.523-.01 1.016-1.289 1.523-3.652 1.523s-3.628-.509-3.628-1.523zm26.12-14.377h-2.5v12.95h2.5v-5.782h2.4v-2.07h-2.4zm-13.984 5.664A4.606 4.606 0 0 0-51.3-5.8a4.584 4.584 0 0 0 4.844-4.512 4.554 4.554 0 0 0-4.844-4.512 4.577 4.577 0 0 0-4.887 4.512zm2.461 11.8h12.168V-.508h-9.687v-3.887h-2.48zm0-11.8a2.245 2.245 0 0 1 2.423-2.343 2.255 2.255 0 0 1 2.422 2.344A2.281 2.281 0 0 1-51.3-7.969a2.271 2.271 0 0 1-2.426-2.343zm29.57-5.664h-2.48v9.141h2.48zM-38.12-7.383h8.672v-7.852h-2.48v2.051h-3.73v-2.051h-2.462zm2.051 3.2h9.453v1.035h-9.414V1.68h12.383V-.234h-9.941v-1.133h9.453v-4.707h-11.934zm.41-5.176v-1.911h3.73v1.914zM-6.85-15.98h-2.5v10.628h2.5zm-13.868 9.535h1.543a40.546 40.546 0 0 0 8.633-.566L-10.757-9a37.341 37.341 0 0 1-7.5.566v-4.219h6.035v-1.992h-8.5zm1.7 4.766c-.01 2.2 2.314 3.5 6.113 3.5 3.74 0 6.094-1.3 6.113-3.5-.02-2.207-2.373-3.506-6.113-3.5-3.795-.007-6.123 1.292-6.114 3.499zm2.5 0c0-1.064 1.24-1.543 3.613-1.543 2.354 0 3.643.479 3.652 1.543-.01 1.035-1.3 1.562-3.652 1.562-2.373 0-3.614-.528-3.614-1.563zM5.981.2c3.193 0 5.488-1.738 5.469-4.16.02-1.768-1.123-3.027-3.2-3.281v-.117a3 3 0 0 0 2.676-2.988c.01-2.236-1.953-3.984-4.9-3.984-2.9 0-5.088 1.689-5.137 4.121H3.7a2.078 2.078 0 0 1 2.32-1.783 1.836 1.836 0 0 1 2.07 1.816C8.1-9.062 7.124-8.3 5.728-8.3H4.419v2.168h1.309c1.66.01 2.686.82 2.676 1.973.01 1.143-1 1.924-2.4 1.934-1.367-.01-2.393-.7-2.441-1.758H.591C.649-1.514 2.876.2 5.981.2zm10.293-1.645H13.5l-.977 5.566h2.07zM22.593-2.5h6.875V0h2.793v-2.5h1.8v-2.363h-1.8v-9.277h-3.692l-5.976 9.316zm2.969-2.363v-.117l3.809-5.937h.137v6.055zm13.291 3.418h-2.774L35.1 4.121h2.07zM50.6.2c3.184 0 5.352-2.041 5.352-4.9a4.439 4.439 0 0 0-4.531-4.648 3.535 3.535 0 0 0-2.832 1.191h-.117l.391-3.574h6.289v-2.4H46.44L45.679-6h2.656a2.3 2.3 0 0 1 2.227-1.191A2.446 2.446 0 0 1 53.1-4.629a2.384 2.384 0 0 1-2.5 2.5 2.124 2.124 0 0 1-2.3-1.855h-2.856C45.493-1.543 47.651.2 50.6.2zm22.969-7.427H57.358v2.012h16.211zm-15.527-2.6L58.8-7.93c3.252-.234 5.518-1.182 6.641-2.617 1.113 1.436 3.379 2.383 6.66 2.617l.742-1.895c-3.8-.225-5.615-1.367-5.957-2.6h5.117v-1.973h-5.328v-1.523h-2.461v1.523h-5.293v1.973h5.068c-.351 1.234-2.158 2.376-5.947 2.601zm1.172 8.597c0 1.963 2.314 3.037 6.23 3.027 3.9.01 6.172-1.064 6.191-3.027-.02-1.943-2.295-3.018-6.191-3.008-3.916-.01-6.23 1.064-6.23 3.008zm2.539 0c-.01-.8 1.2-1.172 3.691-1.172 2.432 0 3.682.371 3.691 1.172-.01.82-1.26 1.191-3.691 1.191-2.49 0-3.701-.371-3.691-1.191zM-83.8 18.316a13.808 13.808 0 0 0 2.773 8.75h2.773c-1.445-1.826-2.549-5.479-2.539-8.75-.01-3.271 1.094-6.914 2.539-8.75h-2.773a13.846 13.846 0 0 0-2.773 8.75zm20.646-10.273h-2.5v10.02h2.5v-4.239h2.4v-2.031h-2.4zm-13.379 9.062h1.523a41.466 41.466 0 0 0 8.2-.742l-.293-2.031a40.987 40.987 0 0 1-6.934.732V8.883h-2.5zm1.738 8.477h11.641v-6.719h-11.641zm2.441-1.953V20.8h6.754v2.832zm16.543-14.3c-2.373 0-4.092 1.846-4.082 4.473-.01 2.617 1.709 4.473 4.082 4.473a4.171 4.171 0 0 0 4.122-4.475 4.166 4.166 0 0 0-4.122-4.468zm-1.855 4.471c-.01-1.475.762-2.363 1.855-2.363s1.846.889 1.855 2.363c-.01 1.475-.771 2.354-1.855 2.363-1.089-.005-1.865-.884-1.855-2.363zm.918 11.68h12.5v-1.988h-10v-3.945h-2.5zm5.918-4.8h2.3v-5.625h1.465v6.211h2.365V8.043h-2.363v4.98h-1.465V8.355h-2.3zm22.637-4.434h-10.118V11.52h9.98V9.508h-12.44v8.73h12.578zm-14.492 7.383h16.269v-2.051h-16.27zM-11.3 8.043h-2.5v10.02h2.5v-4.239h2.4v-2.031h-2.4zm-13.379 9.062h1.523a41.466 41.466 0 0 0 8.2-.742l-.293-2.031a40.987 40.987 0 0 1-6.934.732V8.883h-2.5zm1.738 8.477H-11.3v-6.719h-11.639zm2.441-1.953V20.8h6.758v2.832zM6.768 8.043h-2.5v12.773h2.5zm-14.61 5.605a4.571 4.571 0 0 0 4.863 4.512 4.583 4.583 0 0 0 4.863-4.512 4.57 4.57 0 0 0-4.863-4.472 4.559 4.559 0 0 0-4.863 4.472zm2.441 0a2.216 2.216 0 0 1 2.422-2.3 2.24 2.24 0 0 1 2.4 2.3 2.254 2.254 0 0 1-2.4 2.344A2.23 2.23 0 0 1-5.4 13.648zm.254 11.836H7.236v-1.992h-9.863v-3.965h-2.52zM24.17 8.023h-2.461v6.27h-3.125V16.3h3.125v9.531h2.461zM9.99 21.813h1.41a52.117 52.117 0 0 0 7.969-.488l-.254-1.992a43.462 43.462 0 0 1-6.641.449v-3.36h5.176v-1.953h-5.179V11.52h5.82V9.508H9.99zm31.8-13.789h-2.4V14.9h-1.66V8.316h-2.349v16.621h2.344V16.91h1.66v8.89h2.4zM27.178 21.461h1.211a35.109 35.109 0 0 0 6.25-.527l-.254-2.148a28.533 28.533 0 0 1-4.707.5V10h-2.5zM58.74 8.023h-2.5V11.6h-3.3v2.012h3.3v2.266h-3.3v2.07h3.3v7.891h2.5zM43.486 20.191l1.562 1.992a8.6 8.6 0 0 0 4.141-5.2 8.166 8.166 0 0 0 4.062 5.039l1.523-1.992c-2.959-1.328-4.307-4.619-4.316-7.988V9.391h-2.52v2.656c-.018 3.34-1.405 6.767-4.452 8.144zm21-11.426h-2.465V16.6h1.465a44.961 44.961 0 0 0 8.2-.664l-.332-2.012a41.5 41.5 0 0 1-6.875.615zm-.293 10.879h9.316v1h-9.3V25.6h12.227v-1.991h-9.727v-1.074h9.3v-4.844h-11.82zm4.941-7.129h4.395v4.512h2.48v-9h-2.48v2.5h-4.398zm14.668 5.8a13.808 13.808 0 0 0-2.773-8.75h-2.777c1.445 1.826 2.549 5.479 2.539 8.75.01 3.271-1.094 6.914-2.539 8.75h2.773a13.846 13.846 0 0 0 2.775-8.749z" transform="translate(555.001 1824)"/>
                <g id="icon_nam_nam" transform="translate(-40 -39)">
                    <path id="합치기_6" data-name="합치기 6" class="cls-15" d="M14281 8075h-78v-61h78z" transform="translate(-13647 -6270)"/>
                    <path id="패스_3834" data-name="패스 3834" class="cls-16" d="M0 0h78" transform="rotate(180 317 867.5)"/>
                    <path id="패스_3835" data-name="패스 3835" class="cls-16" d="M-11690.447-6931v70" transform="translate(12311.447 8666)"/>
                    <path id="패스_3836" data-name="패스 3836" class="cls-16" d="M-11690.447-6931v70" transform="translate(12285.447 8666)"/>
                    <path id="패스_3837" data-name="패스 3837" class="cls-16" d="M-11690.447-6931v70" transform="translate(12298.447 8666)"/>
                    <path id="패스_3838" data-name="패스 3838" class="cls-16" d="M-11690.447-6931v96" transform="translate(12272.447 8666)"/>
                    <path id="패스_3839" data-name="패스 3839" class="cls-16" d="M-11690.447-6931v70" transform="translate(12259.447 8666)"/>
                    <path id="패스_3840" data-name="패스 3840" class="cls-16" d="M-11690.447-6931v10" transform="translate(12250.447 8646)"/>
                    <path id="사각형_875" data-name="사각형 875" class="cls-15" transform="translate(556 1725)" d="M0 0h26v19H0z"/>
                    <path id="사각형_876" data-name="사각형 876" class="cls-15" transform="translate(556 1805)" d="M0 0h78v26H0z"/>
                </g>
            </g>
            <g id="오시는_길_상세" data-name="오시는 길 상세" transform="translate(-20 520)">
                <rect id="사각형_877" data-name="사각형 877" class="cls-12" width="18" height="18" rx="9" transform="translate(1300 1593)"/>
                <path id="패스_3841" data-name="패스 3841" d="M6906.511 1875.632v27.722l-305.538 77.323h0" transform="translate(-5597.257 -259.357)" style="stroke-dasharray:4 6;stroke:#324e6f;stroke-width:2px;stroke-linecap:round;fill:none"/>
                <path id="패스_7252" data-name="패스 7252" class="cls-14" d="M-23.607-12.727h-1.9l-3.164 2.074v1.846l3.041-1.986h.07V0h1.951zm15.82-1.512h-1.67V-9.9H-12.9v-3.3h-1.652v2.672h-3.937V-13.2h-1.67v7.98h7.26v-3.323h3.445V-2.6h1.67zm-10.705 7.665v-2.672h3.937v2.672zm.422 7.734h10.634V-.193h-8.947v-3.551h-1.687zm31.447-8.508H-.949V-6.1h6.328v1.318H.756v1.213h9.176v1.178H.773v3.727h11.25V.07H2.408v-1.3h9.176v-3.551H7.031V-6.1h6.346zM-.246-9.228l.475 1.265c2.76-.2 4.992-1 5.977-2.382.984 1.38 3.217 2.18 5.959 2.382l.51-1.266C9.624-9.4 7.5-10.318 7.163-11.654h4.79v-1.283H7.031v-1.389H5.379v1.389H.475v1.283h4.763C4.9-10.318 2.769-9.4-.246-9.228zm27.369-4.043H16.348v1.371h9.123v.018A24.747 24.747 0 0 1 25-6.521H14.59v1.371h6.293v6.662h1.687V-5.15h6.381v-1.371h-2.267a25.358 25.358 0 0 0 .439-5.361z" transform="translate(1260 1608)"/>
                <rect id="사각형_879" data-name="사각형 879" class="cls-11" width="18" height="18" rx="9" transform="translate(983 1715)"/>
                <path id="패스_7251" data-name="패스 7251" class="cls-14" d="M-29.162-12.727h-1.9l-3.164 2.074v1.846l3.041-1.986h.07V0h1.951zM-21.5.176c2.944 0 4.667-2.373 4.676-6.539C-16.831-10.5-18.58-12.9-21.5-12.9s-4.676 2.4-4.676 6.539C-26.174-2.2-24.442.176-21.5.176zm-2.74-6.539c0-3.164 1.028-4.9 2.742-4.9 1.705.009 2.742 1.74 2.742 4.9s-1.028 4.869-2.744 4.869-2.749-1.696-2.74-4.869zm22.008-7.875H-3.9V-9.9h-3.448v-3.3H-9v2.672h-3.937V-13.2h-1.67v7.98h7.26v-3.323H-3.9V-2.6h1.67zm-10.706 7.664v-2.672H-9v2.672zm.422 7.734h10.635V-.193h-8.947v-3.551h-1.687zm31.448-8.508H4.605V-6.1h6.328v1.318H6.311v1.213h9.176v1.178H6.328v3.727h11.25V.07H7.963v-1.3h9.176v-3.551h-4.553V-6.1h6.346zM5.309-9.228l.475 1.266c2.76-.2 4.992-1 5.977-2.382.984 1.38 3.217 2.18 5.959 2.382l.51-1.266c-3.05-.167-5.177-1.09-5.511-2.426h4.79v-1.283h-4.923v-1.389h-1.652v1.389h-4.9v1.283h4.764C10.45-10.318 8.323-9.4 5.309-9.228zm27.369-4.043H21.9v1.371h9.123v.018a24.747 24.747 0 0 1-.475 5.361H20.145v1.371h6.293v6.662h1.687V-5.15h6.381v-1.371h-2.268a25.358 25.358 0 0 0 .439-5.361z" transform="translate(991.715 1702)"/>
                <path id="패스_3842" data-name="패스 3842" d="m6910.878 1907.889-268.678 66.457" transform="translate(-5929.839 -180.422)" style="stroke:#4d936b;stroke-dasharray:4 6;stroke-width:2px;stroke-linecap:round;fill:none"/>
                <rect id="사각형_878" data-name="사각형 878" class="cls-19" width="18" height="18" rx="9" transform="translate(703.355 1784.924)"/>
            </g>
            <path id="패스_7253" data-name="패스 7253" class="cls-19" d="M-22.184-14.344v-3.187h-3.023v3.187c-.012 4.137-1.828 8.227-5.555 9.8l1.8 2.484a10.227 10.227 0 0 0 5.309-6.387 9.932 9.932 0 0 0 5.1 5.871l1.758-2.391c-3.619-1.533-5.405-5.463-5.389-9.377zM-15.645 2.2h3.023v-21.372h-3.023zM2.426-16.945H-1.84v-2.32h-3.023v2.32h-4.289v2.345h4.289c-.023 2.414-1.605 4.852-5.016 5.836l1.406 2.32A7.9 7.9 0 0 0-3.316-10.7a7.788 7.788 0 0 0 5.109 3.692L3.176-9.3c-3.434-.879-5.027-3.105-5.062-5.3h4.312zM-6.387-1.922c0 2.59 2.812 4.09 7.336 4.078C5.5 2.168 8.3.668 8.309-1.922 8.3-4.477 5.5-5.918.949-5.93c-4.523.012-7.336 1.453-7.336 4.008zm2.977 0c0-1.137 1.535-1.711 4.359-1.711 2.883 0 4.371.574 4.383 1.711C5.32-.75 3.832-.117.949-.117c-2.824 0-4.359-.633-4.359-1.805zm5.2-9.141h3.472v4.781h2.976v-12.89H5.262v5.719H1.793zM28.98-5.6H14.332v2.344H26v5.412h2.98zm-17.7-7.219c-.023 3.105 2.437 5.309 5.672 5.32a5.767 5.767 0 0 0 4.254-1.758H26v2.7h2.98v-12.615H26v2.859h-4.789a5.733 5.733 0 0 0-4.254-1.711c-3.234-.023-5.695 2.18-5.672 5.204zm2.836 0a2.6 2.6 0 0 1 2.836-2.7 2.627 2.627 0 0 1 2.789 2.7 2.638 2.638 0 0 1-2.789 2.766 2.615 2.615 0 0 1-2.831-2.767zm8.332 1.172a5.441 5.441 0 0 0 .129-1.172 4.608 4.608 0 0 0-.117-1.078H26v2.25z" transform="translate(1396 2146)"/>
        </g>
    </g>
</svg>
