<svg xmlns="http://www.w3.org/2000/svg" width="360" height="360" viewBox="0 0 360 360">
    <defs>
        <clipPath id="clip-path">
            <path id="사각형_1215" data-name="사각형 1215" style="stroke:#707070;fill:none" d="M0 0h360v359.994H0z"/>
        </clipPath>
        <style>
            .cls-14,.cls-15,.cls-23,.cls-7,.cls-9{fill:none}.cls-5{fill:#999}.cls-7,.cls-9{stroke:#999}.cls-14,.cls-15,.cls-7,.cls-9{stroke-linecap:round}.cls-14,.cls-7{stroke-linejoin:round}.cls-10{fill:#4d936b}.cls-11{fill:#324e6f}.cls-12{fill:#fff}.cls-13{fill:#333}.cls-14,.cls-15{stroke:#333}.cls-22{stroke:none}
        </style>
    </defs>
    <g id="map_mo" transform="translate(-1 -1223.994)">
        <path id="사각형_1215-2" data-name="사각형 1215" transform="translate(1 1223.994)" style="fill:#f8f8f8" d="M0 0h360v360H0z"/>
        <g id="마스크_그룹_22" data-name="마스크 그룹 22" transform="translate(1 1224)" style="clip-path:url(#clip-path)">
            <g id="그룹_1869" data-name="그룹 1869" transform="translate(-303.152 -154.157)">
                <path id="길" d="M546.566 626.957v-57.408l-31.379-117.106-60.217 15.014 33.9 126.508-4.67 1.251-40.438-150.906-33.093 8.251L451.3 604.21l-4.671 1.251-40.652-151.73-64.642 16.116 34.552 128.922-4.671 1.252-34.567-129-56.146 14-1.17-4.692 56.067-13.984-7.215-26.927-105.326 26.26 10.661 39.787 45.241-11.279 1.17 4.693-45.16 11.259 23.778 88.738-4.671 1.252-23.8-88.82-20.716 5.165-1.17-4.692 20.634-5.145-10.661-39.787-177.382 44.224-7.019-28.152 176.888-44.1L169.2 284.115H0v-4.835l167.907.011-1.643-6.128 4.67-1.251 1.977 7.379 116.977.008v.1l.377-.1 35.09 130.921 91.1-22.714v-97.074L96.7 98.309l2.49-4.144 221.126 132.861V0h4.836v229.931l93.779 56.348h30.438V39.085h4.831v177.661h92.362V86.327h29.014v122.682h72.365V74.239h4.836v134.77h22.9v4.836h-22.9V271.5h52.4v3.868h-52.646l-15.31 57.093 88.052-21.953 7.019 28.153-85.2 21.242 50.625 188.937-4.671 1.252-26.329-98.259h-91.136v175.124zm0-76.089v-99.036H520.03zm-206.483-85.692 64.642-16.116-7.215-26.928-64.643 16.117zm113.635-2.39 60.217-15.014-13.735-51.244-60.217 15.014zm-44.3-14.9 33.093-8.251-7.211-26.924-33.1 8.251zm256-.894-11.933-44.542-77.9 19.423V447zm-146.687 0h27.833v-62.023L504.9 395.358zm-303.389-9.348 105.326-26.26-34.1-127.273H174.2zm360.236-59.914v39.155l76.652-19.111-9.835-36.7zm-154.287 8.57 125.276-31.234v-63.951H421.291zm154.29-38.469 56.274-14.03 15.657-58.431h-71.931zM454.2 286.279h92.362v-64.7H454.2zM647.946 271.5v-57.655h-72.365V271.5z" style="fill:#eee"/>
                <g id="주변_건물" data-name="주변 건물" transform="translate(354.152 212.163)">
                    <path id="패스_7258" data-name="패스 7258" class="cls-5" d="M-22.451-5.693v-1.494h-.937v1.494a4.488 4.488 0 0 1-2.266 3.955l.586.752a4.677 4.677 0 0 0 2.158-2.847 4.465 4.465 0 0 0 2.129 2.681l.566-.742a4.208 4.208 0 0 1-2.236-3.799zm1.27 1.436h1.953V.85h.918v-8.77h-.918v2.91h-1.953zm8.2-3.564c-1.973 0-3.13.537-3.125 1.5S-14.951-4.8-12.979-4.8s3.12-.532 3.125-1.514-1.152-1.513-3.125-1.508zm-3.984 4.268h3.516v.753h-2.559v.693h5.1v.684H-16V.742h6.25V.029h-5.342v-.781h5.1V-2.8h-2.528v-.752h3.535v-.732h-7.978zm1.826-2.764c0-.513.767-.806 2.158-.811s2.173.3 2.168.811c0 .542-.767.815-2.168.82s-2.161-.279-2.156-.821zm14.795 3h-8v.732h8zm-7.09 2.236H-2.3V.83h.947v-2.656h-6.079zm.137-2.979h6.037v-.713h-5.1v-.771h4.814v-.7h-4.811v-.713h5.039V-7.7h-5.977zM7.607-7.92h-.918v1.2H4.775v-.8h-.918v1.182H1.67V-7.52H.742v3.828h4.033v-.723h1.914v1.045h.918zM1.67-4.434v-1.191h2.187v1.191zm.215 2.178h4.8v.732H1.9V.723h6.02V-.02H2.832v-.81h4.775v-2.149H1.885zm2.89-2.871v-.879h1.914v.879zm7.4-.566v-1.494h-.935v1.494A4.4 4.4 0 0 1 8.9-1.738l.566.781a4.662 4.662 0 0 0 2.261-2.852 4.509 4.509 0 0 0 2.212 2.656l.557-.732a4.242 4.242 0 0 1-2.318-3.808zM15.283.85h.928v-8.77h-.928zm5.391-6.9v-.107h1.9V-6.9h-1.89v-1.059h-.928V-6.9h-1.9v.742h1.9v.107a2.84 2.84 0 0 1-2.148 2.6l.439.713a3.441 3.441 0 0 0 2.187-1.948 3.391 3.391 0 0 0 2.178 1.724l.439-.723a2.662 2.662 0 0 1-2.177-2.37zm-1.66 5.239c0 1.03 1.123 1.626 2.959 1.621s2.954-.59 2.959-1.621-1.132-1.606-2.959-1.611-2.964.586-2.959 1.611zm.918 0c0-.566.757-.889 2.041-.889s2.036.322 2.041.889-.757.9-2.041.908-2.046-.341-2.041-.908zm2.373-3.9h1.67v2.09h.925v-5.3h-.928v2.451H22.3zM-21.1 7.307V5.813h-.937v1.494a4.488 4.488 0 0 1-2.266 3.955l.586.752a4.677 4.677 0 0 0 2.158-2.847 4.465 4.465 0 0 0 2.129 2.681l.566-.742A4.208 4.208 0 0 1-21.1 7.307zm1.27 1.436h1.953v5.107h.918V5.08h-.918v2.91h-1.953zm12.227 3.213h-3.584V9.875h-.918v2.08h-3.506v.762h8.008zm-7.739-2.686.41.762a4.642 4.642 0 0 0 3.276-2.354 4.645 4.645 0 0 0 3.3 2.354l.4-.762c-1.689-.283-3.213-1.582-3.213-2.969v-.664h-.977V6.3c-.007 1.388-1.511 2.686-3.196 2.97zm16.367.23h-8.007v.752h3.613v1.7h.918v-1.7h3.476zm-7.012 4.141H.137v-.752h-5.2v-1.764h-.928zm.03-5.041H-.01V5.49h-5.947zm.908-.732V6.223h4.121v1.64zM1.973 13h4.756v-.918H3.467v-.059L4.9 10.568c1.328-1.3 1.7-1.934 1.709-2.725A2.111 2.111 0 0 0 4.3 5.832 2.134 2.134 0 0 0 1.973 7.98h1.015a1.2 1.2 0 0 1 1.289-1.25 1.181 1.181 0 0 1 1.309 1.143c0 .62-.386 1.069-1.162 1.875l-2.451 2.471zm8.711-6.055v-.107h1.9V6.1h-1.891V5.041h-.927V6.1h-1.9v.742h1.9v.107a2.84 2.84 0 0 1-2.148 2.6l.439.713a3.441 3.441 0 0 0 2.187-1.948 3.391 3.391 0 0 0 2.178 1.724l.439-.723a2.662 2.662 0 0 1-2.177-2.37zm-1.66 5.244c0 1.03 1.123 1.626 2.959 1.621s2.954-.591 2.959-1.621-1.128-1.606-2.959-1.611-2.964.586-2.96 1.611zm.918 0c0-.566.757-.889 2.041-.889s2.036.322 2.041.889-.757.9-2.041.908-2.046-.341-2.042-.908zm2.373-3.9h1.67v2.09h.928V5.08h-.928v2.451h-1.67zm6.985-.982V5.813h-.928v1.494a4.479 4.479 0 0 1-2.256 3.926l.576.752a4.7 4.7 0 0 0 2.153-2.808 4.535 4.535 0 0 0 2.075 2.642l.576-.742a4.277 4.277 0 0 1-2.196-3.77zm2.852 6.523h.928V9.357h1.406v-.791h-1.41V5.08h-.928z" transform="translate(128 216.99)"/>
                    <path id="패스_7260" data-name="패스 7260" class="cls-5" d="M-9.434-7.92h-.889V.83h.889zm-7.432 3.779c0 1.9.742 3.091 1.885 3.086a1.775 1.775 0 0 0 1.641-1.367h1.27V.4h.879v-8.154h-.879v1.895h-1.274a1.761 1.761 0 0 0-1.636-1.358c-1.143-.005-1.885 1.182-1.885 3.076zm.85 0c0-1.4.386-2.212 1.035-2.207s1.055.811 1.055 2.207-.41 2.212-1.055 2.207-1.04-.815-1.035-2.207zm2.866-.967h1.079v1.924h-1.079a5.862 5.862 0 0 0 .073-.957 5.985 5.985 0 0 0-.072-.966zm12.1-2.8h-.928v5.137H-3.73v.654h1.758v.84h.928zm-7.309 3.992.117.742c.708 0 1.523 0 2.373-.034v1.655h.928v-1.7a23.575 23.575 0 0 0 2.3-.259L-2.7-4.18a51.525 51.525 0 0 1-5.659.264zm.684-2.119c0 .933.884 1.523 2.178 1.523S-3.33-5.1-3.33-6.035s-.889-1.543-2.17-1.543c-1.3 0-2.181.615-2.176 1.543zm.527 6.68H-.83v-.752h-5.4v-1.817h-.918zm.352-6.68c0-.522.522-.859 1.3-.85.747-.01 1.284.327 1.289.85s-.542.84-1.289.84C-6.274-5.2-6.8-5.518-6.8-6.035zm12.344-1h-2.14v-.928H2.48v.928H.332v.742h5.215zM.811-4.307c0 .962.864 1.592 2.129 1.592s2.119-.63 2.119-1.592S4.2-5.889 2.939-5.9C1.675-5.889.806-5.264.811-4.307zm.605 3.057H6.27V.83h.93V-2H1.416zm.293-3.057c-.01-.537.488-.874 1.23-.879s1.24.342 1.25.879c-.01.542-.508.869-1.25.869s-1.239-.327-1.23-.869zM6.27-2.451h.93v-2.324h1.27v-.771H7.2V-7.92h-.93zm9.8-4.629H9.785v.752h5.361v.186a17.962 17.962 0 0 1-.3 3.828l.908.1a20.1 20.1 0 0 0 .322-3.926zM8.965-.352h7.979v-.771h-3v-2.832h-.908v2.832h-1.26v-2.832h-.926v2.832H8.965z" transform="translate(17 20)"/>
                    <path id="패스_7257" data-name="패스 7257" class="cls-5" d="M4.307-7.822c-1.973 0-3.13.537-3.125 1.5 0 .9.972 1.426 2.656 1.5v.622H.322v.742H8.3V-4.2H4.746v-.615c1.7-.073 2.681-.6 2.686-1.5-.005-.97-1.153-1.512-3.125-1.507zM1.279-2.1h5.1v.684h-5.09V.742h6.25V.029H2.2v-.781h5.1V-2.8H1.279zm.869-4.219c0-.513.767-.806 2.158-.811s2.173.3 2.168.811c0 .542-.767.815-2.168.82s-2.162-.277-2.158-.819zM16.23-7.92h-.93V.85h.928zM9.453-6.377h3.154v1.7H9.463v3.427h.742a25.831 25.831 0 0 0 4.414-.322l-.088-.762a24.754 24.754 0 0 1-4.121.312v-1.914h3.145v-3.193h-4.1zm16.162 5.313h-8.008V-.3h8.008zm-7.09-1.66h6.143v-4.59h-.918v1.572h-4.3v-1.572h-.928zm.928-.732V-5.01h4.3v1.553zm9.219-3.955a2.121 2.121 0 0 0-2.295 2.1 2.122 2.122 0 0 0 2.295 2.09 2.314 2.314 0 0 0 1.753-.713h2.192v1.182h.928V-7.92h-.928v1.23H30.43a2.306 2.306 0 0 0-1.758-.722zm-1.406 2.1a1.281 1.281 0 0 1 1.406-1.3 1.28 1.28 0 0 1 1.387 1.3 1.291 1.291 0 0 1-1.387 1.3 1.292 1.292 0 0 1-1.406-1.301zm.391 4.443C27.651.2 28.784.815 30.615.811S33.569.2 33.574-.869s-1.138-1.694-2.959-1.689-2.964.62-2.959 1.689zm.908 0c0-.625.767-.972 2.051-.977s2.051.352 2.051.977c0 .6-.767.952-2.051.947s-2.056-.348-2.052-.948zm2.29-5.078h1.763V-4.7h-1.764a2.106 2.106 0 0 0 .093-.615 2.215 2.215 0 0 0-.093-.632z" transform="translate(242 226.99)"/>
                    <path id="패스_7256" data-name="패스 7256" class="cls-5" d="M-12.52-7.109h-4.014V-1.3h.693a19.759 19.759 0 0 0 3.975-.293l-.107-.762a18.78 18.78 0 0 1-3.627.285v-4.268h3.076zm-.5 3.086h2.432V.85h.928v-8.77h-.928v3.125h-2.432zm11.926-3.633h-6.494v.7h1.279v1.514h-1.24v.713h6.416v-.713h-1.23v-1.511h1.27zM-8.32-3.35h7.978v-.732H-8.32zm.957 1.377h5.1v.654h-5.091V.742H-1.1v-.7h-5.345v-.7h5.1v-2h-6.018zM-5.39-5.44v-1.513h2.1v1.514zM7.139-7.92h-.918V.85h.918v-4.57h1.406v-.78H7.139zM.664-6.377H3.75v1.709H.684v3.428H1.4a22.263 22.263 0 0 0 4.189-.322L5.5-2.314a20.761 20.761 0 0 1-3.9.293v-1.895h3.068v-3.213h-4zm11.348 1.035v-.928h1.9v-.771H9.121v.771h1.973v.928A4.437 4.437 0 0 1 8.8-1.572l.547.732a4.782 4.782 0 0 0 2.217-2.822 4.475 4.475 0 0 0 2.158 2.6l.527-.723a4.132 4.132 0 0 1-2.237-3.557zM14.854.83h.928v-4.5h1.406v-.781h-1.407V-7.92h-.928zm-15.6 5.48h-3.131v-1.1h-.918v1.1h-3.144v.752h7.2zm-7.574 6.534h8.007v-.752h-3.564v-1.157c1.514-.1 2.456-.7 2.451-1.675 0-1.055-1.128-1.675-2.91-1.67-1.807 0-2.925.615-2.92 1.67 0 .972.928 1.577 2.461 1.675v1.157H-8.32zm2.011-3.584c-.01-.605.723-.937 1.973-.937 1.23 0 1.968.332 1.963.937s-.732.942-1.963.947c-1.25-.007-1.982-.337-1.973-.947zM4.043 5.6H.713v3.884h.566A17.911 17.911 0 0 0 4.5 9.25l-.088-.723a14.535 14.535 0 0 1-2.832.215v-.888H3.7v-.713H1.582V6.33h2.461zm-2.129 5.281h4.961v.693H1.934v2.168h6.181v-.722H2.852v-.762h4.931v-2.11H1.914zM4.1 7.756h1.086v1.953h.879V5.236h-.879v1.778H4.1zm2.8 2.031h.879V5.09H6.9z" transform="translate(254 185.99)"/>
                    <path id="패스_7259" data-name="패스 7259" class="cls-5" d="M-22.866 0h1.074v-2.2l.83-.957L-18.687 0h1.3l-2.861-3.887L-17.4-7.07h-1.348L-21.7-3.7h-.088v-3.37h-1.074zm6.357 0h2.709c1.65 0 2.393-.82 2.393-1.9a1.639 1.639 0 0 0-1.465-1.748v-.068a1.45 1.45 0 0 0 1.191-1.494c0-1.05-.728-1.855-2.236-1.855h-2.588zm1.074-.918v-2.256h1.572a1.259 1.259 0 0 1 1.387 1.221c0 .586-.41 1.03-1.426 1.035zm0-3.1v-2.134h1.445c.845 0 1.25.439 1.25 1.025a1.155 1.155 0 0 1-1.27 1.113zm11.768-3.5h-5.986v.752h5.068A10.555 10.555 0 0 1-4.8-4.424h-5.859v.752h3.525v1.494h-2.705v.742h5.283V.83h.928v-3.008h-2.578v-1.494h3.555v-.752h-1.216a10.975 10.975 0 0 0 .2-2.432zm6.27.332h-4.16v4.111H2.6zM-.649-3.809v-2.617h2.334v2.617zM-.483.566H5.5V-.2H.454v-2.046h-.937zm4.795-2.207h.928V-7.91h-.928zM14.6-3.35H6.626v.742H14.6zM7.485-5.879c0 1.1 1.221 1.772 3.125 1.777s3.12-.674 3.125-1.777S12.5-7.632 10.61-7.627s-3.13.649-3.125 1.748zM7.632.645h6.074v-.752H8.569v-1.788h-.937zm.811-6.523c0-.625.825-1.006 2.168-1.006s2.173.381 2.168 1.006c0 .649-.83 1.016-2.168 1.016s-2.174-.367-2.169-1.017zM22.729-7.92h-.879v2.314h-1.015v-2.148h-.869v5.049h.869v-2.139h1.016V-2.4h.879zM15.22-6.191h4.424v-.732h-1.739v-.928h-.918v.928H15.22zm.342 1.914c0 .908.781 1.5 1.875 1.5 1.118 0 1.895-.6 1.895-1.5s-.776-1.5-1.895-1.5c-1.094-.004-1.875.591-1.875 1.5zm.83 0c0-.5.425-.825 1.045-.82s1.06.322 1.055.82-.425.825-1.055.83-1.045-.332-1.045-.83zm.449 3.555C16.831.259 17.944.815 19.8.811s2.973-.552 2.978-1.534S21.66-2.275 19.8-2.275s-2.969.561-2.959 1.552zm.918 0c-.01-.552.742-.845 2.041-.84s2.046.288 2.051.84c0 .527-.747.83-2.051.82-1.3.009-2.051-.298-2.041-.821z" transform="translate(24 241.99)"/>
                    <circle id="타원_413" data-name="타원 413" class="cls-5" cx="3.5" cy="3.5" r="3.5" transform="translate(124.5 196.99)"/>
                    <circle id="타원_415" data-name="타원 415" class="cls-5" cx="3.5" cy="3.5" r="3.5" transform="translate(20.5 221.99)"/>
                    <circle id="타원_420" data-name="타원 420" class="cls-5" cx="3.5" cy="3.5" r="3.5" transform="translate(13.5)"/>
                    <circle id="타원_421" data-name="타원 421" class="cls-5" cx="3.5" cy="3.5" r="3.5" transform="translate(250.5 165.99)"/>
                    <circle id="타원_424" data-name="타원 424" class="cls-5" cx="3.5" cy="3.5" r="3.5" transform="translate(230 219.49)"/>
                </g>
                <g id="서울특별시청" transform="translate(587.852 223.156)">
                    <path id="패스_7261" data-name="패스 7261" d="M-20.206-5.124v-1.345h-.844v1.345a4.039 4.039 0 0 1-2.039 3.56l.527.677a4.21 4.21 0 0 0 1.943-2.563A4.018 4.018 0 0 0-18.7-1.037l.51-.668a3.788 3.788 0 0 1-2.016-3.419zm1.143 1.292h1.758v4.6h.826v-7.896h-.826v2.619h-1.758zm7.383-3.208c-1.775 0-2.817.483-2.812 1.354s1.037 1.362 2.812 1.362 2.807-.476 2.812-1.363-1.037-1.357-2.813-1.353zm-3.587 3.84h3.167v.677h-2.3v.623h4.588v.615H-14.4V.668h5.625V.026h-4.808v-.7h4.588v-1.848h-2.276V-3.2h3.182v-.659h-7.181zm1.644-2.487c0-.461.69-.725 1.942-.729s1.956.268 1.951.729c0 .488-.69.734-1.951.738s-1.946-.251-1.942-.738zm13.315 2.7h-7.2v.659h7.2zm-6.38 2.011h4.614V.747h.853v-2.391h-5.467zm.123-2.681h5.432V-4.3h-4.589v-.694h4.333v-.633h-4.333v-.642h4.535v-.659h-5.378zM6.847-7.128H6.02v1.081H4.3v-.721h-.828V-5.7H1.5v-1.068H.668v3.445H4.3v-.65h1.72v.94h.826zM1.5-3.99v-1.072h1.972v1.072zm.2 1.96h4.32v.659H1.714V.65h5.414v-.668H2.549v-.729h4.3v-1.934H1.7zm2.6-2.584v-.791h1.72v.791zm6.662-.51v-1.345h-.844v1.345a3.964 3.964 0 0 1-2.109 3.56l.51.7a4.2 4.2 0 0 0 2.035-2.566 4.058 4.058 0 0 0 1.991 2.391l.5-.659a3.818 3.818 0 0 1-2.085-3.426zM13.755.765h.835v-7.893h-.835zm4.852-6.214v-.1h1.713v-.668h-1.705v-.949h-.835v.949h-1.714v.668h1.714v.1a2.556 2.556 0 0 1-1.934 2.338l.4.642a3.1 3.1 0 0 0 1.969-1.753 3.052 3.052 0 0 0 1.96 1.551l.4-.65a2.4 2.4 0 0 1-1.969-2.128zm-1.495 4.72C17.108.2 18.123.734 19.775.729S22.434.2 22.438-.729s-1.015-1.446-2.663-1.45-2.667.527-2.663 1.45zm.826 0c0-.51.681-.8 1.837-.8s1.833.29 1.837.8-.681.813-1.837.817-1.841-.308-1.837-.817zm2.136-3.507h1.5v1.881h.835v-4.773h-.835v2.206h-1.5z" transform="translate(23.967 36.499)" style="opacity:.9;fill:#999"/>
                    <g id="icon_02">
                        <path id="사각형_840" data-name="사각형 840" class="cls-7" transform="rotate(-90 19.687 5.163)" d="M0 0h17.231v18.954H0z"/>
                        <path id="패스_7224" data-name="패스 7224" d="M0 0h5.169v12.062H0z" transform="rotate(-90 14.502 -3.477)" style="stroke-linecap:round;stroke:#999;fill:#f8f8f8"/>
                        <path id="사각형_842" data-name="사각형 842" class="cls-7" transform="rotate(-90 15.366 .843)" d="M0 0h5.169v18.954H0z"/>
                        <path id="사각형_844" data-name="사각형 844" class="cls-7" transform="rotate(-180 15.037 12.424)" d="M0 0h12.062v5.169H0z"/>
                        <path id="사각형_2073" data-name="사각형 2073" class="cls-7" transform="rotate(-180 15.037 9.84)" d="M0 0h12.062v3.446H0z"/>
                        <g id="그룹_1858" data-name="그룹 1858" transform="translate(18.004)">
                            <path id="패스_3812" data-name="패스 3812" class="cls-7" d="M235.585 3989.646v-2.031l6.023-1.468v-1.1" transform="translate(-235.585 -3983.831)"/>
                            <path id="패스_3813" data-name="패스 3813" class="cls-7" d="M241.609 3987.233v-2.033l-6.023-1.469v-2.315" transform="translate(-229.562 -3981.418)"/>
                        </g>
                        <circle id="타원_68" data-name="타원 68" class="cls-5" cx=".864" cy=".864" r=".864" transform="translate(23.145 7.569)"/>
                        <g id="그룹_1861" data-name="그룹 1861" transform="translate(4.154 9.296)">
                            <path id="사각형_848" data-name="사각형 848" class="cls-7" d="M0 0h10.368v15.553H0z"/>
                            <path id="사각형_849" data-name="사각형 849" class="cls-7" transform="rotate(-90 7.777 7.777)" d="M0 0h3.587v10.368H0z"/>
                        </g>
                        <g id="그룹_1862" data-name="그룹 1862" transform="translate(0 9.307)">
                            <path id="패스_3816" data-name="패스 3816" class="cls-7" d="M5.178.141 1.024 3.653v10.675l4.154 1.356z" transform="translate(-1.024 -.141)"/>
                            <path id="패스_3817" data-name="패스 3817" class="cls-9" d="m1540.508 1268.988 4.154.709" transform="translate(-1540.508 -1257.754)"/>
                        </g>
                        <g id="그룹_1997" data-name="그룹 1997" transform="translate(33.477 9.297)">
                            <path id="사각형_848-2" data-name="사각형 848" class="cls-7" d="M0 0h10.368v15.553H0z"/>
                            <path id="사각형_849-2" data-name="사각형 849" class="cls-7" transform="rotate(-90 7.777 7.777)" d="M0 0h3.588v10.368H0z"/>
                        </g>
                        <g id="그룹_1998" data-name="그룹 1998" transform="translate(43.845 9.307)">
                            <path id="패스_3816-2" data-name="패스 3816" class="cls-7" d="m1.024.141 4.154 3.512v10.675l-4.154 1.356z" transform="translate(-1.024 -.141)"/>
                            <path id="패스_3817-2" data-name="패스 3817" class="cls-9" d="m1544.662 1268.988-4.154.709" transform="translate(-1540.508 -1257.754)"/>
                        </g>
                    </g>
                </g>
                <g id="덕수궁" transform="translate(473.472 232.903)">
                    <path id="패스_7262" data-name="패스 7262" class="cls-5" d="M-7.343-6.592h-3.6v3.85h.6A15.016 15.016 0 0 0-6.851-3l-.079-.668a15.367 15.367 0 0 1-3.19.246v-2.484h2.777zm-2.8 5.238h4.5v2.1h.835v-2.767h-5.335zm2.364-3.085h2.136v2.03h.835v-4.72h-.835v2.013h-2.14zm8.218-2v-.431h-.87v.431c0 1.059-1.279 2.026-2.821 2.232l.334.686A4.049 4.049 0 0 0 0-5.317a4.05 4.05 0 0 0 2.931 1.8l.325-.683C1.709-4.408.431-5.388.435-6.434zM-3.6-2.057h3.165v2.8h.817v-2.8h3.2v-.686H-3.6zM10.472-6.8H5.084v.668h4.562a9.322 9.322 0 0 1-.2 2.118H4.179v.668h3.173V-2.2C5.875-2.118 5-1.6 5-.747 5 .207 6.038.734 7.765.729s2.755-.522 2.76-1.476c0-.848-.879-1.371-2.347-1.455v-1.147h3.208v-.668h-1.1a9.784 9.784 0 0 0 .185-2.215zM5.84-.747c-.009-.51.7-.791 1.925-.791 1.2 0 1.916.281 1.925.791-.009.527-.721.813-1.925.809C6.543.066 5.832-.22 5.84-.747z" transform="translate(26.572 42.589)"/>
                    <g id="icon_01">
                        <g id="그룹_1865" data-name="그룹 1865" transform="translate(6.657 13.682)">
                            <g id="그룹_1863" data-name="그룹 1863">
                                <path id="패스_3818" data-name="패스 3818" class="cls-7" d="M1089.963 1542.746v11.813" transform="translate(-1089.963 -1542.355)"/>
                                <path id="패스_3819" data-name="패스 3819" class="cls-7" d="M1089.963 1542.722v11.1" transform="translate(-1083.306 -1541.615)"/>
                                <path id="패스_3820" data-name="패스 3820" class="cls-7" d="M1089.963 1542.722v11.1" transform="translate(-1076.648 -1541.245)"/>
                            </g>
                            <path id="사각형_851" data-name="사각형 851" class="cls-7" transform="translate(17.753 5.917)" d="M0 0h5.178v6.656H0z"/>
                            <path id="사각형_852" data-name="사각형 852" class="cls-7" transform="translate(17.753 3.698)" d="M0 0h5.178v2.219H0z"/>
                            <g id="그룹_1864" data-name="그룹 1864" transform="translate(27.369)">
                                <path id="패스_3821" data-name="패스 3821" class="cls-7" d="M1089.963 1542.746v11.813" transform="translate(-1076.648 -1542.355)"/>
                                <path id="패스_3822" data-name="패스 3822" class="cls-7" d="M1089.963 1542.722v11.1" transform="translate(-1083.306 -1541.615)"/>
                                <path id="패스_3823" data-name="패스 3823" class="cls-7" d="M1089.963 1542.722v11.1" transform="translate(-1089.963 -1541.245)"/>
                            </g>
                        </g>
                        <path id="합치기_3" data-name="합치기 3" class="cls-7" d="M27 14.791h-.433v0A211.723 211.723 0 0 1 0 12.625l9.088-1.91 2.057-8.466h31.709l2.056 8.466 9.09 1.91a211.728 211.728 0 0 1-26.567 2.163v0z"/>
                        <path id="패스_3830" data-name="패스 3830" class="cls-7" d="M0 0h49.561v3.7H0z" transform="translate(2.219 26.255)"/>
                    </g>
                </g>
                <g id="_2호선_시청역" data-name="2호선 시청역" transform="translate(8.477 319.303)">
                    <g id="_2호선" data-name="2호선">
                        <path id="패스_3832" data-name="패스 3832" class="cls-10" d="M0 0h6v748H0z" transform="rotate(76 362.89 464.479)"/>
                    </g>
                </g>
                <g id="_1호선_시청역" data-name="1호선 시청역" transform="translate(549.152 92.131)">
                    <path id="패스_3833" data-name="패스 3833" class="cls-11" d="M0 0h6v531.991H0z" transform="translate(9)"/>
                    <g id="그룹_1867" data-name="그룹 1867" transform="translate(0 261.024)">
                        <circle id="타원_70" data-name="타원 70" class="cls-10" cx="12" cy="12" r="12"/>
                        <path id="패스_7268" data-name="패스 7268" class="cls-12" d="M-3.493 0h7.082v-1.7H-.636v-.05l1.5-1.463c2.037-1.846 2.584-2.769 2.584-3.9 0-1.716-1.408-2.926-3.527-2.926-2.081.004-3.521 1.239-3.51 3.176h1.955A1.418 1.418 0 0 1-.1-8.395a1.418 1.418 0 0 1 1.57 1.422c0 .786-.5 1.333-1.422 2.215L-3.507-1.49z" transform="translate(12 17)"/>
                    </g>
                    <g id="그룹_2001" data-name="그룹 2001" transform="translate(.049 281.576)">
                        <circle id="타원_70-2" data-name="타원 70" class="cls-11" cx="12" cy="12" r="12"/>
                        <path id="패스_7269" data-name="패스 7269" class="cls-12" d="M1.764-9.9H-.178l-2.447 1.56v1.818l2.27-1.422H-.3V0h2.064z" transform="translate(11.555 16.777)"/>
                    </g>
                </g>
                <g id="NAM_NAM" data-name="NAM &amp; NAM" transform="translate(314.152 274.156)">
                    <path id="패스_7264" data-name="패스 7264" class="cls-13" d="M-35.165-9.586h-1.488v2.6h-1.664v1.207h1.664v2.52h1.488zm-9.059 5.156.773 1.184a4.253 4.253 0 0 0 2.59-2.391 4.043 4.043 0 0 0 2.449 2.109l.738-1.172a3.29 3.29 0 0 1-2.449-3.047H-38v-1.2h-5.79v1.2h2.145a3.57 3.57 0 0 1-2.579 3.317zm1.746 3.469c0 1.295 1.395 2.051 3.668 2.051s3.674-.756 3.68-2.051-1.4-2.057-3.68-2.062-3.668.767-3.668 2.062zm1.488 0c0-.615.768-.92 2.18-.914s2.186.3 2.191.914-.773.914-2.191.914-2.179-.305-2.179-.914zm15.668-8.625h-1.5v7.77h1.5v-3.469h1.441v-1.242h-1.441zm-8.391 3.4a2.764 2.764 0 0 0 2.93 2.707 2.75 2.75 0 0 0 2.906-2.707 2.733 2.733 0 0 0-2.906-2.707 2.746 2.746 0 0 0-2.929 2.706zm1.478 7.077h7.3V-.3h-5.812v-2.337h-1.488zm0-7.078a1.347 1.347 0 0 1 1.453-1.406 1.353 1.353 0 0 1 1.453 1.406 1.369 1.369 0 0 1-1.453 1.406 1.363 1.363 0 0 1-1.453-1.406zm17.742-3.4h-1.488V-4.1h1.488zm-8.379 5.157h5.2v-4.711h-1.488v1.23h-2.24v-1.23h-1.477zm1.23 1.922h5.672v.621h-5.648v2.895h7.43V-.141h-5.965V-.82h5.672v-2.825h-7.16zm.246-3.105v-1.149h2.238v1.148zM-4.11-9.586h-1.5v6.375h1.5zm-8.32 5.719h.926a24.328 24.328 0 0 0 5.18-.34l-.129-1.2a22.4 22.4 0 0 1-4.5.34v-2.527h3.621v-1.2h-5.1zm1.02 2.859c-.006 1.318 1.389 2.1 3.668 2.1 2.244 0 3.656-.779 3.668-2.1-.012-1.324-1.424-2.1-3.668-2.1-2.28-.003-3.675.776-3.669 2.1zm1.5 0c0-.639.744-.926 2.168-.926s2.186.287 2.191.926c-.006.621-.779.937-2.191.937s-2.169-.316-2.169-.937zM3.589.117C5.5.117 6.882-.926 6.87-2.379a1.926 1.926 0 0 0-1.922-1.969v-.07a1.8 1.8 0 0 0 1.606-1.793C6.56-7.553 5.382-8.6 3.612-8.6 1.872-8.6.56-7.588.53-6.129h1.688A1.247 1.247 0 0 1 3.612-7.2a1.1 1.1 0 0 1 1.242 1.09c.006.668-.58 1.125-1.418 1.125h-.785v1.3h.785c1 .006 1.611.492 1.605 1.184s-.6 1.154-1.441 1.16c-.82-.006-1.436-.422-1.465-1.055H.354C.39-.908 1.726.117 3.589.117zm6.176-.984H8.1l-.586 3.34h1.243zm3.791-.633h4.125V0h1.676v-1.5h1.078v-1.418h-1.079v-5.566h-2.214l-3.586 5.59zm1.781-1.418v-.07l2.285-3.562h.078v3.633zm7.975 2.051h-1.665l-.586 3.34H22.3zm7.048.984a2.949 2.949 0 0 0 3.211-2.941 2.663 2.663 0 0 0-2.719-2.789 2.121 2.121 0 0 0-1.7.715h-.07l.234-2.145h3.773v-1.441h-5.225L27.407-3.6H29a1.383 1.383 0 0 1 1.336-.715 1.468 1.468 0 0 1 1.524 1.538 1.43 1.43 0 0 1-1.5 1.5 1.274 1.274 0 0 1-1.383-1.113h-1.71C27.3-.926 28.591.117 30.36.117zm13.782-4.453h-9.727v1.207h9.727zm-9.317-1.559.457 1.137c1.951-.141 3.311-.709 3.984-1.57.668.861 2.027 1.43 4 1.57l.445-1.137c-2.279-.135-3.369-.82-3.574-1.559H43.2v-1.183H40v-.914h-1.472v.914h-3.175v1.184h3.041c-.211.738-1.294 1.424-3.569 1.558zm.7 5.156c0 1.178 1.389 1.822 3.738 1.816s3.7-.639 3.715-1.816C42.97-1.9 41.6-2.549 39.267-2.543s-3.739.643-3.739 1.805zm1.523 0c-.006-.48.721-.7 2.215-.7 1.459 0 2.209.223 2.215.7s-.756.715-2.215.715c-1.491.001-2.217-.222-2.211-.714zM-50.279 11.59a8.285 8.285 0 0 0 1.664 5.25h1.664a9.367 9.367 0 0 1-1.523-5.25 9.382 9.382 0 0 1 1.523-5.25h-1.664a8.307 8.307 0 0 0-1.664 5.25zm12.387-6.164h-1.5v6.012h1.5V8.895h1.441V7.676h-1.441zm-8.027 5.437h.914a24.879 24.879 0 0 0 4.922-.445L-40.26 9.2a24.592 24.592 0 0 1-4.16.439V5.93h-1.5zm1.043 5.086h6.984v-4.031h-6.984zm1.465-1.172v-1.7h4.055v1.7zm9.925-8.577a2.472 2.472 0 0 0-2.449 2.684 2.475 2.475 0 0 0 2.449 2.684 2.5 2.5 0 0 0 2.473-2.684A2.5 2.5 0 0 0-33.486 6.2zM-34.6 8.883c-.006-.885.457-1.418 1.113-1.418s1.107.533 1.113 1.418-.463 1.412-1.113 1.418-1.118-.533-1.113-1.418zm.551 7.008h7.5V14.7h-6v-2.372h-1.5zm3.551-2.883h1.383V9.633h.879v3.727h1.418V5.426h-1.418v2.988h-.879v-2.8H-30.5zm13.582-2.66h-6.07V7.512H-17V6.3h-7.465v5.238h7.547zm-8.7 4.43h9.762v-1.23h-9.762zm18.837-9.352h-1.5v6.012h1.5V8.895h1.441V7.676h-1.441zm-8.027 5.437h.914a24.879 24.879 0 0 0 4.922-.445L-9.146 9.2a24.592 24.592 0 0 1-4.16.439V5.93h-1.5zm1.043 5.086h6.984v-4.031h-6.984zm1.465-1.172v-1.7h4.055v1.7zM4.061 5.426h-1.5v7.664h1.5zm-8.766 3.363A2.743 2.743 0 0 0-1.787 11.5a2.75 2.75 0 0 0 2.918-2.711 2.742 2.742 0 0 0-2.918-2.684 2.735 2.735 0 0 0-2.918 2.684zm1.465 0a1.329 1.329 0 0 1 1.453-1.383A1.344 1.344 0 0 1-.346 8.789 1.353 1.353 0 0 1-1.787 10.2 1.338 1.338 0 0 1-3.24 8.789zm.152 7.1h7.43V14.7h-5.918v-2.384h-1.512zM14.5 5.414h-1.475v3.762H11.15v1.207h1.875V16.1H14.5zm-8.506 8.274h.844a31.27 31.27 0 0 0 4.781-.293l-.152-1.2a26.077 26.077 0 0 1-3.984.27v-2.012h3.105V9.281H7.482V7.512h3.492V6.3h-4.98zm19.078-8.274h-1.441v4.125h-1V5.59h-1.402v9.973h1.406v-4.817h1v5.332h1.441zm-8.766 8.062h.727a21.066 21.066 0 0 0 3.75-.316l-.152-1.289a17.12 17.12 0 0 1-2.824.3V6.6h-1.5zm18.938-8.062h-1.5v2.145h-1.98v1.207h1.98v1.359h-1.98v1.242h1.98V16.1h1.5zm-9.152 7.3.937 1.2a5.161 5.161 0 0 0 2.484-3.117 4.9 4.9 0 0 0 2.437 3.023l.914-1.2c-1.775-.8-2.584-2.771-2.59-4.793V6.234h-1.51v1.594a5.192 5.192 0 0 1-2.672 4.887zm12.6-6.855h-1.479v4.7h.879a26.977 26.977 0 0 0 4.922-.4l-.2-1.207a24.9 24.9 0 0 1-4.125.369zm-.176 6.527H44.1v.6h-5.575v2.977h7.336v-1.2h-5.836v-.645H45.6v-2.903h-7.09zm2.965-4.277h2.637v2.707H45.6v-5.4h-1.485v1.5h-2.636zm8.8 3.48a8.285 8.285 0 0 0-1.664-5.25h-1.666a9.367 9.367 0 0 1 1.523 5.25 9.382 9.382 0 0 1-1.523 5.25h1.664a8.307 8.307 0 0 0 1.664-5.249z" transform="translate(51 79.999)"/>
                    <g id="icon_nam_nam" transform="translate(31)">
                        <path id="합치기_6" data-name="합치기 6" class="cls-14" d="M40.057 28.323H0V0h40.057z" transform="translate(0 17.195)"/>
                        <path id="패스_3834" data-name="패스 3834" class="cls-15" d="M0 0h40.057" transform="rotate(180 20.029 5.564)"/>
                        <path id="패스_3835" data-name="패스 3835" class="cls-15" d="M-11690.447-6931v33.849" transform="translate(11723.774 6942.424)"/>
                        <path id="패스_3836" data-name="패스 3836" class="cls-15" d="M-11690.447-6931v33.849" transform="translate(11710.424 6942.424)"/>
                        <path id="패스_3837" data-name="패스 3837" class="cls-15" d="M-11690.447-6931v33.849" transform="translate(11717.1 6942.424)"/>
                        <path id="패스_3838" data-name="패스 3838" class="cls-15" d="M-11690.447-6931v46.231" transform="translate(11703.748 6942.424)"/>
                        <path id="패스_3839" data-name="패스 3839" class="cls-15" d="M-11690.447-6931v33.849" transform="translate(11697.071 6942.424)"/>
                        <path id="패스_3840" data-name="패스 3840" class="cls-15" d="M-11690.447-6931v5.057" transform="translate(11693.454 6930.999)"/>
                        <path id="사각형_875" data-name="사각형 875" class="cls-14" transform="translate(0 5.058)" d="M0 0h13.299v12.138H0z"/>
                        <path id="사각형_876" data-name="사각형 876" class="cls-14" transform="translate(0 45.519)" d="M0 0h40.057v12.138H0z"/>
                    </g>
                </g>
                <g id="오시는_길_상세" data-name="오시는 길 상세" transform="translate(363.504 300.155)">
                    <rect id="사각형_877" data-name="사각형 877" class="cls-11" width="10" height="10" rx="5" transform="translate(167.848 20)"/>
                    <path id="패스_3841" data-name="패스 3841" d="M6750.785 1878.4v11.365l-76.363 19.972" transform="translate(-6577.774 -1844.739)" style="stroke-dasharray:1 3;stroke:#4d936b;stroke-linecap:round;fill:none"/>
                    <path id="패스_7266" data-name="패스 7266" class="cls-13" d="M-15.738-8.484H-17L-19.113-7.1v1.23l2.027-1.33h.047V0h1.3zm10.547-1.008H-6.3V-6.6h-2.3v-2.2h-1.1v1.78h-2.625V-8.8h-1.113v5.32H-8.6V-5.7h2.3v3.961h1.113zm-7.137 5.109v-1.781H-9.7v1.781zm.281 5.156h7.09v-.9h-5.965V-2.5h-1.125zM8.918-4.9H-.633v.832h4.219v.879H.5v.809h6.121v.785H.516V.891h7.5V.047H1.605V-.82h6.118v-2.367H4.687v-.879h4.23zM-.164-6.152l.316.844c1.84-.135 3.328-.669 3.985-1.592.656.92 2.145 1.453 3.973 1.588l.34-.844C6.416-6.264 5-6.879 4.775-7.77h3.194v-.855H4.687v-.926h-1.1v.926H.316v.855h3.176c-.228.891-1.646 1.506-3.656 1.618zm18.246-2.7H10.9v.914h6.08v.012a16.5 16.5 0 0 1-.316 3.574H9.727v.914h4.2v4.446h1.125v-4.442H19.3v-.914h-1.511a16.905 16.905 0 0 0 .293-3.574z" transform="translate(167.648 12)"/>
                    <path id="패스_7265" data-name="패스 7265" class="cls-13" d="M-19.441-8.484h-1.266L-22.816-7.1v1.23l2.027-1.33h.047V0h1.3zm5.109 8.6c1.963 0 3.111-1.582 3.117-4.359C-11.221-7-12.387-8.6-14.332-8.6s-3.117 1.6-3.117 4.358c0 2.777 1.154 4.359 3.117 4.359zm-1.828-4.358c0-2.109.686-3.264 1.828-3.27s1.828 1.16 1.828 3.27S-13.189-1-14.332-1s-1.834-1.127-1.828-3.242zm14.672-5.25H-2.6V-6.6h-2.3v-2.2H-6v1.78h-2.625V-8.8h-1.113v5.32H-4.9V-5.7h2.3v3.961h1.113zm-7.137 5.109v-1.781H-6v1.781zm.281 5.156h7.09v-.9h-5.965V-2.5h-1.125zM12.621-4.9H3.07v.832h4.219v.879H4.207v.809h6.117v.785H4.219V.891h7.5V.047h-6.41V-.82h6.117v-2.367H8.391v-.879h4.23zM3.539-6.152l.316.844C5.7-5.443 7.184-5.977 7.84-6.9c.656.92 2.145 1.453 3.973 1.588l.34-.844C10.119-6.264 8.7-6.879 8.479-7.77h3.193v-.855H8.391v-.926h-1.1v.926H4.02v.855H7.2c-.233.891-1.651 1.506-3.661 1.618zm18.246-2.7H14.6v.914h6.082v.012a16.5 16.5 0 0 1-.316 3.574H13.43v.914h4.2v4.446h1.12v-4.442H23v-.914h-1.508a16.905 16.905 0 0 0 .293-3.574z" transform="translate(138.648 68.997)"/>
                    <path id="패스_7225" data-name="패스 7225" d="m6688.705 1917.148-87.732 21.94h0" transform="translate(-6595.972 -1851.088)" style="stroke:#324e6f;stroke-dasharray:1 3;stroke-linecap:round;fill:none"/>
                    <g id="사각형_878" data-name="사각형 878" transform="translate(2 83)" style="stroke:#f8f8f8;fill:#111">
                        <rect class="cls-22" width="10" height="10" rx="5"/>
                        <rect class="cls-23" x="-.5" y="-.5" width="11" height="11" rx="5.5"/>
                    </g>
                    <g id="사각형_879" data-name="사각형 879" transform="translate(92.648 59.993)" style="stroke-width:2px;stroke:#f8f8f8;fill:#4d936b">
                        <rect class="cls-22" width="10" height="10" rx="5"/>
                        <rect class="cls-23" x="-1" y="-1" width="12" height="12" rx="6"/>
                    </g>
                </g>
                <path id="패스_7267" data-name="패스 7267" d="M-11.092-7.172v-1.594H-12.6v1.594a5.119 5.119 0 0 1-2.777 4.9l.9 1.242a5.114 5.114 0 0 0 2.654-3.193 4.966 4.966 0 0 0 2.548 2.934l.879-1.2a4.9 4.9 0 0 1-2.696-4.683zm3.27 8.272h1.512V-9.586h-1.512zm9.035-9.573H-.92v-1.16h-1.512v1.16h-2.144V-7.3h2.145a3.121 3.121 0 0 1-2.508 2.917l.7 1.16A3.952 3.952 0 0 0-1.658-5.35 3.894 3.894 0 0 0 .9-3.5l.691-1.148A2.933 2.933 0 0 1-.943-7.3h2.156zM-3.193-.961c0 1.295 1.406 2.045 3.668 2.039S4.148.334 4.154-.961c-.006-1.277-1.406-2-3.68-2s-3.667.723-3.667 2zm1.488 0c0-.568.768-.855 2.18-.855 1.441 0 2.186.287 2.191.855-.006.586-.75.9-2.191.9-1.413.002-2.18-.314-2.18-.9zM.9-5.531h1.731v2.391h1.488v-6.446H2.631v2.859H.9zM14.49-2.8H7.166v1.172H13v2.706h1.49zM5.643-6.41a2.667 2.667 0 0 0 2.836 2.66 2.884 2.884 0 0 0 2.127-.879H13v1.348h1.49v-6.3H13v1.43h-2.4a2.867 2.867 0 0 0-2.127-.855 2.635 2.635 0 0 0-2.83 2.596zm1.418 0a1.3 1.3 0 0 1 1.418-1.348A1.314 1.314 0 0 1 9.873-6.41a1.319 1.319 0 0 1-1.394 1.383A1.308 1.308 0 0 1 7.061-6.41zm4.166.586a2.72 2.72 0 0 0 .064-.586 2.3 2.3 0 0 0-.059-.539H13v1.125z" transform="translate(587.152 344.418)" style="fill:#111"/>
                <g id="그룹_11131" data-name="그룹 11131" transform="translate(431.32 302.413)">
                    <g id="icon_03" transform="translate(14.833)">
                        <path id="패스_3804" data-name="패스 3804" class="cls-7" d="M0 0h32v27H0z" transform="rotate(-90 16 16)"/>
                        <g id="그룹_11124" data-name="그룹 11124" transform="translate(5.999 5)">
                            <path id="패스_7228" data-name="패스 7228" class="cls-7" d="M341.84 4043.475v15" transform="translate(-341.84 -4043.475)"/>
                            <path id="패스_7229" data-name="패스 7229" class="cls-7" d="M341.84 4043.475v15" transform="translate(-326.84 -4043.475)"/>
                            <path id="패스_7231" data-name="패스 7231" class="cls-7" d="M341.84 4043.475v15" transform="translate(-331.84 -4043.475)"/>
                            <path id="패스_7232" data-name="패스 7232" class="cls-7" d="M341.84 4043.475v15" transform="translate(-336.84 -4043.475)"/>
                        </g>
                        <path id="사각형_8101" data-name="사각형 8101" class="cls-7" transform="rotate(-90 19.499 12.5)" d="M0 0h6v13H0z"/>
                        <path id="사각형_8104" data-name="사각형 8104" transform="rotate(-90 16.249 11.751)" style="stroke-linejoin:round;stroke-linecap:round;stroke:#999;fill:#f8f8f8" d="M0 0h4v18H0z"/>
                    </g>
                    <path id="패스_7263" data-name="패스 7263" class="cls-5" d="M-24.6-5.124v-1.345h-.844v1.345a4.039 4.039 0 0 1-2.039 3.56l.527.677a4.21 4.21 0 0 0 1.938-2.563A4.018 4.018 0 0 0-23.1-1.037l.51-.668a3.788 3.788 0 0 1-2.01-3.419zm1.143 1.292h1.757v4.6h.826v-7.896h-.826v2.619h-1.758zm11 2.892h-3.226v-1.872h-.826V-.94h-3.155v.686h7.207zm-6.961-2.417.369.686A4.178 4.178 0 0 0-16.1-4.79a4.181 4.181 0 0 0 2.966 2.118l.36-.686c-1.521-.255-2.892-1.424-2.892-2.672v-.6h-.879v.6c-.005 1.249-1.355 2.418-2.874 2.673zm14.73.211H-11.9v.677h3.252V-.94h.826v-1.53h3.129zM-11 .58h5.511V-.1h-4.676v-1.587H-11zm.026-4.544h5.353v-2.795h-5.353zm.817-.659V-6.1h3.709v1.477zM-3.749 0h.967v-1.978l.747-.861L.013 0h1.169l-2.575-3.5 2.566-2.863H-.04L-2.7-3.331h-.079v-3.032h-.967zm6.267 0L3.1-1.679h2.477L6.157 0h1.028L4.891-6.363H3.775L1.49 0zm.857-2.487L4.311-5.2h.044L5.3-2.487zM7.994 0h3.841v-.835H8.96v-5.528h-.966zm11-7.128h-.826v4.1h.826zM12.88-3.349h3.744V-6.8H15.8v1.07h-2.1V-6.8h-.82zm.817-.668v-1.072h2.1v1.072zM13.821-2h4.351v.677h-4.325v2h5.414V.018h-4.605v-.739H19v-1.933h-5.179zm12.955-5.128h-.835v4.8h.835zM20.72-3.006h.659a19.628 19.628 0 0 0 3.9-.264l-.079-.685a18.043 18.043 0 0 1-3.656.272v-2.162h2.918v-.677H20.72zm.73 2.233c0 .953 1.015 1.516 2.68 1.52C25.774.743 26.8.18 26.8-.773S25.774-2.3 24.13-2.294c-1.665-.006-2.68.558-2.68 1.521zm.844 0c0-.558.672-.861 1.837-.861s1.85.3 1.846.861c0 .541-.69.853-1.846.853s-1.838-.313-1.838-.853z" transform="translate(28 44.005)"/>
                </g>
            </g>
        </g>
    </g>
</svg>
