<svg width="16" height="16" viewBox="0 0 16 16" fill="none" xmlns="http://www.w3.org/2000/svg">
<path d="M10.1252 4.86112L5.33554 9.63057C5.19662 9.76417 5.08581 9.92399 5.00958 10.1007C4.93336 10.2774 4.89323 10.4675 4.89155 10.6598C4.88987 10.8521 4.92668 11.0428 4.99981 11.2208C5.07294 11.3988 5.18094 11.5605 5.31751 11.6965C5.45408 11.8325 5.61648 11.94 5.79523 12.0129C5.97398 12.0857 6.16551 12.1223 6.35864 12.1207C6.55176 12.119 6.74262 12.079 6.92008 12.0031C7.09753 11.9272 7.25803 11.8169 7.3922 11.6785L12.0568 6.9091C12.5867 6.36277 12.8799 5.63106 12.8733 4.87155C12.8666 4.11204 12.5607 3.3855 12.0214 2.84843C11.482 2.31135 10.7524 2.00671 9.98965 2.00011C9.22692 1.99351 8.4921 2.28548 7.94346 2.81314L3.27815 7.58186C2.45976 8.39679 2 9.50207 2 10.6546C2 11.807 2.45976 12.9123 3.27815 13.7272C4.09653 14.5422 5.2065 15 6.36387 15C7.52124 15 8.63121 14.5422 9.44959 13.7272L14 9.2062" stroke="#161616" stroke-width="1.5" stroke-linecap="round" stroke-linejoin="round"/>
</svg>
