<svg width="16" height="16" viewBox="0 0 16 16" fill="none" xmlns="http://www.w3.org/2000/svg">
<path d="M6.66602 3.33336H3.99935C3.64573 3.33336 3.30659 3.47384 3.05654 3.72388C2.80649 3.97393 2.66602 4.31307 2.66602 4.66669V12C2.66602 12.3536 2.80649 12.6928 3.05654 12.9428C3.30659 13.1929 3.64573 13.3334 3.99935 13.3334H11.3327C11.6863 13.3334 12.0254 13.1929 12.2755 12.9428C12.5255 12.6928 12.666 12.3536 12.666 12V9.33336M11.7233 2.39069C11.8463 2.26335 11.9935 2.16177 12.1561 2.09189C12.3188 2.02201 12.4938 1.98523 12.6708 1.98369C12.8479 1.98215 13.0234 2.01589 13.1873 2.08293C13.3511 2.14997 13.5 2.24898 13.6252 2.37417C13.7504 2.49936 13.8494 2.64823 13.9164 2.81209C13.9835 2.97595 14.0172 3.15152 14.0157 3.32856C14.0141 3.5056 13.9774 3.68056 13.9075 3.84323C13.8376 4.0059 13.736 4.15303 13.6087 4.27603L7.88468 10H5.99935V8.11469L11.7233 2.39069Z" stroke="#161616" stroke-width="1.5" stroke-linecap="round" stroke-linejoin="round"/>
</svg>
