<svg width="24" height="24" viewBox="0 0 24 24" fill="none" xmlns="http://www.w3.org/2000/svg">
<path d="M12.4703 18C15.3419 18 16.8584 16.5083 16.8584 14.4945C16.8584 12.5988 15.5035 11.4613 14.0615 11.393V11.2686C15.3791 10.9765 16.3612 10.0442 16.3612 8.54005C16.3612 6.62569 14.9441 5.27072 12.1409 5.27072H7.07528V18H12.4703ZM9.71685 7.41505H11.799C13.0048 7.41505 13.6885 8.04282 13.6885 8.96892C13.6885 9.98826 12.8619 10.6036 11.7493 10.6036H9.71685V7.41505ZM9.71685 12.4123H12.0041C13.3156 12.4123 14.1298 13.1644 14.1298 14.2334C14.1298 15.1968 13.4648 15.8308 11.9482 15.8308H9.71685V12.4123Z" fill="#C4C4C4"/>
</svg>
