<svg width="96" height="96" viewBox="0 0 96 96" fill="none" xmlns="http://www.w3.org/2000/svg">
<path d="M47.8028 88.696C47.1836 88.696 46.6101 88.3682 46.2959 87.8346L24.5088 50.832C24.5088 50.832 24.5088 50.832 24.5087 50.832C13.1646 32.0184 25.537 7.40849 48.0074 7.30469C63.3167 7.30469 75.772 19.7598 75.772 35.0695C75.772 40.6451 74.2591 46.1217 71.397 50.9072L49.3036 87.8449C48.9877 88.3728 48.4178 88.696 47.8028 88.696ZM27.5224 49.0576L47.8146 83.521L68.3956 49.112C70.9333 44.869 72.2747 40.0132 72.2747 35.0695C72.2749 21.6882 61.3885 10.802 48.0072 10.802C28.2247 10.9177 17.5548 32.553 27.5224 49.0576Z" fill="#E5E5E5"/>
<path d="M39.2761 50.0793C38.2301 50.1061 37.3474 49.0691 37.5524 48.0352L39.0644 39.2201L32.6601 32.9773C32.1833 32.5127 32.0118 31.8178 32.2175 31.1848C32.4232 30.5519 32.9704 30.0905 33.6291 29.9948L42.4799 28.7087L46.4381 20.6887C46.7328 20.0917 47.3407 19.7139 48.0061 19.7139C48.6719 19.7139 49.2796 20.0917 49.5742 20.6887L53.5321 28.7087L62.383 29.9948C63.0417 30.0906 63.5889 30.5519 63.7946 31.1848C64.0003 31.8178 63.8288 32.5128 63.352 32.9773L56.9477 39.2201L58.4597 48.0352C58.5722 48.6912 58.3026 49.3543 57.764 49.7455C57.2254 50.1366 56.5118 50.1884 55.9224 49.8786L48.0061 45.7166L40.0897 49.8786C39.8339 50.0129 39.5545 50.0793 39.2761 50.0793ZM37.6384 32.946L42.1639 37.3573C42.5761 37.7591 42.7642 38.3379 42.6669 38.9051L41.5985 45.134L47.1924 42.1931C47.702 41.925 48.3105 41.9251 48.8199 42.1931L54.4136 45.134L53.3452 38.9051C53.2479 38.3379 53.436 37.7591 53.8482 37.3573L58.3737 32.946L52.1194 32.0372C51.5498 31.9544 51.0575 31.5967 50.8028 31.0805L48.006 25.4135L45.2089 31.0805C44.9541 31.5967 44.4619 31.9544 43.8924 32.0372L37.6384 32.946Z" fill="#C4C4C4"/>
</svg>
