<svg width="96" height="96" viewBox="0 0 96 96" fill="none" xmlns="http://www.w3.org/2000/svg">
<g clip-path="url(#clip0_3718_8385)">
<path d="M84.2629 17.6875H66.0773C66.0773 17.7297 66.0773 17.7703 66.0773 17.8109C66.0805 18.9402 65.8861 20.0614 65.5025 21.125H82.5258V65.3438H64.2075C63.7468 65.3438 63.305 65.5248 62.9792 65.8472C62.6535 66.1695 62.4705 66.6067 62.4705 67.0625V84.5625H12.4742V21.125H46.8289C46.4421 20.062 46.2444 18.9407 46.2446 17.8109C46.2446 17.7703 46.2446 17.7297 46.2446 17.6875H10.7371C10.2764 17.6875 9.83454 17.8686 9.50878 18.1909C9.18301 18.5132 9 18.9504 9 19.4062V86.2812C9 86.7371 9.18301 87.1743 9.50878 87.4966C9.83454 87.8189 10.2764 88 10.7371 88H64.2012C64.6529 87.9973 65.0864 87.8234 65.4124 87.5141L85.1251 68.5516C85.3905 68.4015 85.6111 68.1847 85.7647 67.9233C85.9183 67.6618 85.9995 67.3649 86 67.0625V19.4062C86 18.9504 85.817 18.5132 85.4912 18.1909C85.1655 17.8686 84.7236 17.6875 84.2629 17.6875ZM65.9446 82.2188V68.7812H79.9044L65.9446 82.2188Z" fill="#E5E5E5"/>
<path d="M56.1699 11.4376C59.7025 11.3985 62.5576 14.3376 62.624 17.6876H66.0776C66.058 16.1032 65.6508 14.5471 64.8906 13.1525C64.1304 11.7579 63.0401 10.5663 61.7128 9.67975C61.5849 9.59381 61.4538 9.51256 61.3212 9.43131H61.3101C61.1759 9.35006 61.0401 9.27506 60.9011 9.1985C59.4005 8.39131 57.7147 7.98126 56.0069 8.00807C54.2992 8.03489 52.6273 8.49766 51.1534 9.35156C49.6795 10.2055 48.4534 11.4215 47.594 12.882C46.7346 14.3424 46.271 15.9977 46.248 17.6876H49.7222C49.7585 16.0188 50.4536 14.4304 51.6586 13.2623C52.8637 12.0942 54.483 11.4392 56.1699 11.4376Z" fill="#C4C4C4"/>
<path d="M56.1694 24.2016C55.0611 24.2001 53.9719 23.9163 53.0066 23.3775C52.0413 22.8386 51.2325 22.0629 50.6582 21.125H46.8287C46.8445 21.1703 46.8603 21.2172 46.8776 21.2609L46.8919 21.3016C46.9266 21.3906 46.9613 21.4781 46.9992 21.5656V21.5844C47.0387 21.6781 47.0782 21.7687 47.1208 21.8609C47.2524 22.1453 47.3961 22.4219 47.5519 22.6906C47.6988 22.9437 47.8567 23.1922 48.0257 23.4297L41.3758 30.0312C39.8093 31.7063 42.1417 34.0109 43.8314 32.4625L50.5002 25.8672C50.8373 26.1085 51.1902 26.3272 51.5567 26.5219L51.5709 26.5063C52.9892 27.2432 54.5675 27.6272 56.1694 27.625C56.4726 27.625 56.7711 27.6094 57.068 27.5828C58.6339 27.4263 60.1429 26.9181 61.4802 26.0969C63.3406 24.9263 64.7554 23.1775 65.5023 21.125H61.6823C61.108 22.0633 60.299 22.8393 59.3334 23.3782C58.3678 23.9171 57.2781 24.2007 56.1694 24.2016Z" fill="#C4C4C4"/>
<path d="M62.5022 19.0609C62.354 19.7913 62.0765 20.4901 61.6826 21.125H65.5026C65.8884 20.0618 66.085 18.9405 66.0837 17.8109C66.0837 17.7703 66.0837 17.7297 66.0837 17.6875H62.6238C62.6365 18.1484 62.5957 18.6092 62.5022 19.0609Z" fill="#C4C4C4"/>
<path d="M46.8286 21.125H50.658C50.0448 20.1291 49.7213 18.985 49.7232 17.8188C49.7232 17.775 49.7232 17.7312 49.7232 17.6875H46.249C46.249 17.7297 46.249 17.7703 46.249 17.8109C46.2473 18.9405 46.4434 20.0617 46.8286 21.125Z" fill="#C4C4C4"/>
</g>
<defs>
<clipPath id="clip0_3718_8385">
<rect width="77" height="80" fill="white" transform="translate(9 8)"/>
</clipPath>
</defs>
</svg>
