<svg width="36" height="36" viewBox="0 0 36 36" fill="none" xmlns="http://www.w3.org/2000/svg">
<path d="M34.4845 16.875C34.8864 17.5712 34.8864 18.4288 34.4845 19.125L27.2165 31.7135C26.8146 32.4096 26.0718 32.8385 25.2679 32.8385L10.732 32.8385C9.9282 32.8385 9.18542 32.4096 8.78349 31.7135L1.51554 19.125C1.11362 18.4288 1.11362 17.5712 1.51554 16.875L8.78349 4.28654C9.18542 3.59039 9.9282 3.16154 10.732 3.16154L25.2679 3.16154C26.0718 3.16154 26.8146 3.59039 27.2165 4.28654L34.4845 16.875Z" stroke="#161616" stroke-width="1.5"/>
<path d="M14.5898 11.9779V24H17.0846V20.0846H19.2448C22.0096 20.0846 23.6005 18.4292 23.6005 16.0401C23.6005 13.6626 22.0331 11.9779 19.2976 11.9779H14.5898ZM17.0846 18.0711V14.0266H18.8339C20.319 14.0266 21.0352 14.8308 21.0352 16.0401C21.0352 17.2434 20.319 18.0711 18.8398 18.0711H17.0846Z" fill="black"/>
</svg>
