<svg width="20" height="20" viewBox="0 0 20 20" fill="none" xmlns="http://www.w3.org/2000/svg">
<path d="M16.25 8.61127C16.25 13.4724 10 17.639 10 17.639C10 17.639 3.75 13.4724 3.75 8.61127C3.75 6.95366 4.40848 5.36395 5.58058 4.19185C6.75268 3.01975 8.3424 2.36127 10 2.36127C11.6576 2.36127 13.2473 3.01975 14.4194 4.19185C15.5915 5.36395 16.25 6.95366 16.25 8.61127Z" stroke="#444444" stroke-width="1.5" stroke-linecap="round" stroke-linejoin="round"/>
<path d="M10.0003 10.6946C11.1509 10.6946 12.0837 9.76182 12.0837 8.61123C12.0837 7.46063 11.1509 6.52789 10.0003 6.52789C8.84973 6.52789 7.91699 7.46063 7.91699 8.61123C7.91699 9.76182 8.84973 10.6946 10.0003 10.6946Z" stroke="#444444" stroke-width="1.5" stroke-linecap="round" stroke-linejoin="round"/>
</svg>
