<svg width="24" height="24" viewBox="0 0 24 24" fill="none" xmlns="http://www.w3.org/2000/svg">
<path d="M10.5996 12.6901C10.9017 13.0939 11.287 13.428 11.7296 13.6698C12.1721 13.9116 12.6614 14.0553 13.1644 14.0914C13.6674 14.1274 14.1723 14.0548 14.6447 13.8786C15.1172 13.7023 15.5462 13.4265 15.9028 13.0699L18.0128 10.9598C18.6534 10.2966 19.0078 9.40824 18.9998 8.48617C18.9918 7.56409 18.6219 6.68206 17.9699 6.03003C17.3179 5.378 16.4359 5.00815 15.5138 5.00013C14.5918 4.99212 13.7034 5.34659 13.0402 5.98719L11.8304 7.18991" stroke="#161616" stroke-width="1.5" stroke-linecap="round" stroke-linejoin="round"/>
<path d="M13.4006 11.3103C13.0985 10.9065 12.7132 10.5724 12.2706 10.3306C11.8281 10.0888 11.3387 9.94503 10.8358 9.90901C10.3328 9.87299 9.82792 9.94556 9.35544 10.1218C8.88297 10.2981 8.45393 10.5739 8.09742 10.9305L5.98742 13.0405C5.34683 13.7038 4.99236 14.5921 5.00038 15.5142C5.00839 16.4363 5.37823 17.3183 6.03025 17.9704C6.68227 18.6224 7.5643 18.9922 8.48636 19.0002C9.40842 19.0083 10.2967 18.6538 10.96 18.0132L12.1627 16.8105" stroke="#161616" stroke-width="1.5" stroke-linecap="round" stroke-linejoin="round"/>
</svg>
