<svg width="92" height="92" viewBox="0 0 92 92" fill="none" xmlns="http://www.w3.org/2000/svg">
<g clip-path="url(#clip0_3718_53525)">
<path d="M73.9488 46.033H66.4265V36.136C66.4265 35.0444 65.5416 34.1594 64.45 34.1594H10.9277C9.83613 34.1594 8.95117 35.0444 8.95117 36.136V77.0535C8.95117 85.2951 15.6762 92.0001 23.9421 92.0001H51.4354C59.7014 92.0001 66.4264 85.2951 66.4264 77.0535V76.4733H73.9486C78.9668 76.4733 83.0493 72.3908 83.0493 67.3727V55.1336C83.0494 50.1155 78.9668 46.033 73.9488 46.033ZM62.4732 77.0535C62.4732 83.1153 57.5216 88.047 51.4354 88.047H23.9421C17.8558 88.047 12.9043 83.1153 12.9043 77.0535V38.1125H62.4734V77.0535H62.4732ZM79.0963 67.3727C79.0963 70.211 76.7871 72.5202 73.9488 72.5202H66.4265V49.9861H73.9488C76.7871 49.9861 79.0963 52.2953 79.0963 55.1336V67.3727Z" fill="#C4C4C4"/>
<path d="M42.9023 27.1522C42.4154 27.1522 41.9275 26.9734 41.5455 26.6126C40.7518 25.8632 40.7161 24.6122 41.4657 23.8185C42.8263 22.3776 43.5824 21.0157 43.7767 19.6546C43.9415 18.5019 43.6347 17.1203 43.0313 16.2952C42.7668 15.9334 42.2623 15.5606 41.7282 15.1658C41.0138 14.6379 40.2043 14.0394 39.5833 13.1907C37.6912 10.6034 37.5482 6.73829 39.2274 3.5731C39.2444 3.54093 39.2624 3.50913 39.2813 3.47786C39.8866 2.47521 40.6214 1.51352 41.4655 0.619572C42.2148 -0.174107 43.4658 -0.210045 44.2597 0.539432C45.0534 1.28891 45.0893 2.53989 44.3398 3.33357C43.7027 4.0083 43.1494 4.72777 42.6948 5.47239C41.7502 7.29155 41.7807 9.49865 42.774 10.8569C43.0387 11.2188 43.5433 11.5917 44.0775 11.9864C44.7917 12.5143 45.6014 13.1127 46.222 13.9616C47.4403 15.6274 48.0028 18.023 47.6899 20.2134C47.376 22.4108 46.2801 24.4778 44.3395 26.5327C43.9508 26.9445 43.427 27.1522 42.9023 27.1522Z" fill="#E5E5E5"/>
<path d="M31.2107 26.7869C30.7769 26.7869 30.3403 26.6447 29.9755 26.3524C29.1238 25.6696 28.9871 24.4256 29.6699 23.5739C30.0275 23.1279 30.332 22.6594 30.5759 22.1802C30.8693 21.4678 30.9374 20.5454 30.7399 19.9185C30.5746 19.3936 30.4271 19.2535 29.9894 18.8371C29.7378 18.598 29.4246 18.3002 29.0922 17.8997C28.0764 16.6757 27.5109 14.8819 27.6166 13.2181C27.7208 11.5776 28.3925 10.0057 29.6702 8.4122C30.353 7.56048 31.5972 7.42392 32.4487 8.10673C33.3005 8.78955 33.4372 10.0337 32.7542 10.8852C32.0028 11.8225 31.6127 12.6676 31.5618 13.4686C31.5203 14.1236 31.7609 14.9253 32.1343 15.3751C32.3176 15.5959 32.501 15.7702 32.7132 15.972C33.3037 16.5334 34.0386 17.232 34.5107 18.7306C34.9949 20.2676 34.8704 22.2079 34.1858 23.794C34.1714 23.8274 34.156 23.8605 34.1398 23.8932C33.7666 24.6412 33.3005 25.3657 32.7546 26.0466C32.3636 26.5337 31.7898 26.7869 31.2107 26.7869Z" fill="#E5E5E5"/>
</g>
<defs>
<clipPath id="clip0_3718_53525">
<rect width="92" height="92" fill="white"/>
</clipPath>
</defs>
</svg>
