<svg width="24" height="24" viewBox="0 0 24 24" fill="none" xmlns="http://www.w3.org/2000/svg">
<path d="M15.8758 10.7099L12.2958 14.2899C12.2028 14.3836 12.0922 14.458 11.9704 14.5088C11.8485 14.5596 11.7178 14.5857 11.5858 14.5857C11.4538 14.5857 11.3231 14.5596 11.2012 14.5088C11.0794 14.458 10.9688 14.3836 10.8758 14.2899L7.29581 10.7099C7.15539 10.5706 7.05942 10.3928 7.02003 10.199C6.98064 10.0052 6.99961 9.80408 7.07454 9.62104C7.14947 9.43801 7.27698 9.2813 7.44097 9.17074C7.60495 9.06018 7.79803 9.00072 7.99581 8.9999H15.1758C15.3736 9.00072 15.5667 9.06018 15.7306 9.17074C15.8946 9.2813 16.0222 9.43801 16.0971 9.62104C16.172 9.80408 16.191 10.0052 16.1516 10.199C16.1122 10.3928 16.0162 10.5706 15.8758 10.7099Z" fill="#AAAAAA"/>
</svg>
