<svg width="32" height="32" viewBox="0 0 32 32" fill="none" xmlns="http://www.w3.org/2000/svg">
<path d="M26.46 9.50989C25.8856 8.14801 25.046 6.91404 23.99 5.87988C21.8353 3.77088 18.9401 2.58984 15.925 2.58984C12.9099 2.58984 10.0148 3.77088 7.86002 5.87988C6.7996 6.91304 5.95616 8.14757 5.37918 9.51102C4.8022 10.8745 4.5033 12.3394 4.5 13.8199C4.5 22.2499 15.06 29.2799 15.5 29.5699C15.6199 29.6547 15.7631 29.7002 15.91 29.7002C16.0569 29.7002 16.2001 29.6547 16.32 29.5699C16.77 29.2799 27.32 22.2699 27.32 13.8199C27.3262 12.34 27.0337 10.8741 26.46 9.50989ZM19.4 14.9499C19.1114 15.6367 18.6282 16.2242 18.01 16.6399C17.3927 17.0465 16.6692 17.2622 15.93 17.2599C15.2505 17.2592 14.584 17.074 14.0017 16.724C13.4193 16.3739 12.943 15.8723 12.6237 15.2726C12.3043 14.6728 12.1539 13.9976 12.1884 13.319C12.223 12.6405 12.4413 11.984 12.82 11.4199C13.2335 10.7997 13.8216 10.316 14.51 10.0299C15.1977 9.75117 15.9516 9.67819 16.68 9.81989C17.4048 9.95608 18.0729 10.3041 18.6 10.8199C19.1142 11.3521 19.4617 12.0229 19.6 12.7499C19.7557 13.4867 19.686 14.2533 19.4 14.9499Z" fill="#161616"/>
</svg>
