<svg width="10" height="8" viewBox="0 0 10 8" fill="none" xmlns="http://www.w3.org/2000/svg">
<path d="M1.96312 3.68785C1.63731 3.43207 1.16584 3.48885 0.910067 3.81466C0.654294 4.14047 0.71107 4.61194 1.03688 4.86771L1.96312 3.68785ZM4.33072 6.5L3.8676 7.08993C4.18664 7.34039 4.64698 7.29183 4.90674 6.98032L4.33072 6.5ZM9.07602 1.98032C9.34129 1.66219 9.29844 1.18925 8.98032 0.923982C8.66219 0.658711 8.18925 0.701558 7.92398 1.01968L9.07602 1.98032ZM1.03688 4.86771L3.8676 7.08993L4.79384 5.91007L1.96312 3.68785L1.03688 4.86771ZM4.90674 6.98032L9.07602 1.98032L7.92398 1.01968L3.7547 6.01968L4.90674 6.98032Z" fill="#161616"/>
</svg>
