<svg width="12" height="11" viewBox="0 0 12 11" fill="none" xmlns="http://www.w3.org/2000/svg">
<path d="M1.48733 5.25089C1.17247 4.98175 0.699048 5.0188 0.429903 5.33366C0.160759 5.64851 0.197815 6.12194 0.512671 6.39108L1.48733 5.25089ZM5.04389 9.27778L4.55656 9.84787C4.71307 9.98167 4.91771 10.0452 5.12249 10.0236C5.32726 10.0021 5.51416 9.89725 5.63935 9.73377L5.04389 9.27778ZM11.5955 1.95599C11.8473 1.62713 11.7849 1.15638 11.456 0.904542C11.1271 0.652704 10.6564 0.715144 10.4045 1.04401L11.5955 1.95599ZM0.512671 6.39108L4.55656 9.84787L5.53122 8.70768L1.48733 5.25089L0.512671 6.39108ZM5.63935 9.73377L11.5955 1.95599L10.4045 1.04401L4.44843 8.82178L5.63935 9.73377Z" fill="#161616"/>
</svg>
