<svg width="48" height="48" viewBox="0 0 48 48" fill="none" xmlns="http://www.w3.org/2000/svg">
<circle cx="24" cy="24" r="24" fill="#3ACE01"/>
<path fill-rule="evenodd" clip-rule="evenodd" d="M24.0993 13.9019C30.4998 13.9019 35.6878 17.9333 35.6878 22.9092C35.6878 24.6466 35.054 26.2687 33.9579 27.645C33.8928 27.7364 33.821 27.8232 33.743 27.9046L33.7363 27.9119C33.3539 28.3528 32.9323 28.7601 32.4763 29.1291C29.2715 32.0034 23.9973 35.4262 23.3009 34.8979C22.6955 34.4394 24.2975 32.1941 22.4497 31.8208C22.3209 31.8062 22.1922 31.7908 22.0643 31.7737C16.6337 31.0255 12.5117 27.3407 12.5117 22.9068C12.5117 17.9333 17.7023 13.9019 24.0993 13.9019Z" fill="white"/>
<path fill-rule="evenodd" clip-rule="evenodd" d="M17.4256 25.7236H19.7803C19.9414 25.7231 20.0958 25.6603 20.2098 25.5488C20.3237 25.4372 20.3879 25.2861 20.3883 25.1284V25.079C20.3879 24.9213 20.3237 24.7701 20.2098 24.6586C20.0958 24.5471 19.9414 24.4842 19.7803 24.4838H18.0841V20.7111C18.0836 20.5536 18.0195 20.4026 17.9057 20.2913C17.7919 20.1799 17.6378 20.1171 17.4769 20.1167H17.4256C17.2647 20.1171 17.1105 20.1799 16.9967 20.2913C16.8829 20.4026 16.8188 20.5536 16.8184 20.7111V25.1243C16.8179 25.2027 16.8333 25.2804 16.8636 25.353C16.8939 25.4256 16.9385 25.4916 16.9949 25.5473C17.0513 25.6029 17.1184 25.6472 17.1923 25.6774C17.2662 25.7077 17.3455 25.7233 17.4256 25.7236ZM31.9923 22.9576V22.9082C31.9918 22.7505 31.9276 22.5993 31.8137 22.4878C31.6997 22.3763 31.5453 22.3135 31.3842 22.313H29.6955V21.3672H31.3876C31.5487 21.3667 31.7031 21.3039 31.817 21.1923C31.931 21.0808 31.9952 20.9297 31.9956 20.772V20.7218C31.9952 20.5641 31.9309 20.4131 31.817 20.3017C31.703 20.1903 31.5486 20.1276 31.3876 20.1274H29.0337C28.8726 20.1276 28.7182 20.1903 28.6043 20.3017C28.4903 20.4131 28.4261 20.5641 28.4256 20.7218V25.135C28.4261 25.2927 28.4903 25.4438 28.6042 25.5553C28.7181 25.6669 28.8725 25.7297 29.0337 25.7301H31.3842C31.5453 25.7297 31.6997 25.6669 31.8137 25.5553C31.9276 25.4438 31.9918 25.2927 31.9923 25.135V25.0856C31.9918 24.9279 31.9276 24.7767 31.8137 24.6652C31.6997 24.5537 31.5453 24.4908 31.3842 24.4904H29.6955V23.5486H31.3876C31.5487 23.5482 31.7031 23.4854 31.817 23.3738C31.931 23.2623 31.9952 23.1112 31.9956 22.9535L31.9923 22.9576ZM27.4711 25.5425C27.5836 25.4314 27.6467 25.2814 27.6469 25.1251V20.7119C27.6467 20.5542 27.5826 20.4031 27.4688 20.2916C27.3551 20.18 27.2007 20.1171 27.0397 20.1167H26.9884C26.8273 20.1171 26.6729 20.18 26.5589 20.2915C26.445 20.403 26.3808 20.5542 26.3804 20.7119V23.3025L24.1837 20.4172C24.1305 20.326 24.0537 20.2502 23.9609 20.1974C23.8682 20.1446 23.7628 20.1168 23.6556 20.1167H23.6051C23.444 20.1171 23.2896 20.18 23.1757 20.2915C23.0617 20.403 22.9975 20.5542 22.9971 20.7119V25.1251C22.9975 25.2827 23.0618 25.4338 23.1757 25.5452C23.2897 25.6566 23.4441 25.7192 23.6051 25.7194H23.6556C23.8166 25.7192 23.971 25.6566 24.085 25.5452C24.1989 25.4338 24.2632 25.2827 24.2636 25.1251V22.4859L26.4762 25.4445C26.4905 25.4651 26.5048 25.4848 26.5208 25.5038C26.5805 25.5825 26.6627 25.6421 26.7571 25.675C26.8302 25.7045 26.9085 25.7196 26.9876 25.7194H27.038C27.1371 25.7197 27.2348 25.696 27.3223 25.6503C27.379 25.6253 27.4295 25.5885 27.4703 25.5425H27.4711ZM21.4833 25.7236H21.5338C21.6949 25.7231 21.8493 25.6603 21.9632 25.5488C22.0772 25.4372 22.1414 25.2861 22.1418 25.1284V20.716C22.1414 20.5583 22.0772 20.4071 21.9632 20.2956C21.8493 20.1841 21.6949 20.1212 21.5338 20.1208H21.4833C21.3222 20.1212 21.1678 20.1841 21.0539 20.2956C20.9399 20.4071 20.8757 20.5583 20.8753 20.716V25.1292C20.8757 25.2868 20.94 25.4379 21.0539 25.5493C21.1679 25.6607 21.3223 25.7233 21.4833 25.7236Z" fill="#3ACE01"/>
</svg>
