<svg width="16" height="16" viewBox="0 0 16 16" fill="none" xmlns="http://www.w3.org/2000/svg">
<rect x="1.6001" y="1.6001" width="12.8" height="12.8" stroke="#161616" stroke-width="1.5" stroke-linejoin="round"/>
<path d="M10.4001 6.40005C10.8419 6.40005 11.2001 6.04188 11.2001 5.60005C11.2001 5.15822 10.8419 4.80005 10.4001 4.80005C9.95827 4.80005 9.6001 5.15822 9.6001 5.60005C9.6001 6.04188 9.95827 6.40005 10.4001 6.40005Z" fill="#161616"/>
<path d="M3.50612 9.83566C3.19439 10.1084 3.16281 10.5822 3.43557 10.894C3.70833 11.2057 4.18215 11.2373 4.49388 10.9645L3.50612 9.83566ZM7.2 7.6001L7.69388 7.03567C7.41111 6.78824 6.98889 6.78824 6.70612 7.03567L7.2 7.6001ZM10.4 10.4001L9.90612 10.9645C10.2033 11.2245 10.6511 11.2096 10.9303 10.9304L10.4 10.4001ZM12.5303 9.33043C12.8232 9.03753 12.8232 8.56266 12.5303 8.26977C12.2374 7.97687 11.7626 7.97687 11.4697 8.26977L12.5303 9.33043ZM4.49388 10.9645L7.69388 8.16453L6.70612 7.03567L3.50612 9.83566L4.49388 10.9645ZM6.70612 8.16453L9.90612 10.9645L10.8939 9.83566L7.69388 7.03567L6.70612 8.16453ZM10.9303 10.9304L12.5303 9.33043L11.4697 8.26977L9.86967 9.86977L10.9303 10.9304Z" fill="#161616"/>
</svg>
