<svg width="24" height="24" viewBox="0 0 24 24" fill="none" xmlns="http://www.w3.org/2000/svg">
<path d="M11 4.75C10.5858 4.75 10.25 5.08579 10.25 5.5C10.25 5.91421 10.5858 6.25 11 6.25V4.75ZM16 6.25C16.4142 6.25 16.75 5.91421 16.75 5.5C16.75 5.08579 16.4142 4.75 16 4.75V6.25ZM11 6.25H16V4.75H11V6.25Z" fill="#161616"/>
<path d="M8 17.25C7.58579 17.25 7.25 17.5858 7.25 18C7.25 18.4142 7.58579 18.75 8 18.75V17.25ZM13 18.75C13.4142 18.75 13.75 18.4142 13.75 18C13.75 17.5858 13.4142 17.25 13 17.25V18.75ZM8 18.75H13V17.25H8V18.75Z" fill="#161616"/>
<path d="M13.7002 5.5L10.2002 18" stroke="#161616" stroke-width="1.5"/>
</svg>
