<svg width="166" height="41" viewBox="0 0 166 41" fill="none" xmlns="http://www.w3.org/2000/svg">
<g clip-path="url(#clip0_8226_225676)">
<path d="M28.07 8.32007C24.38 8.32007 21.38 11.3201 21.38 15.0101V21.7001H34.76V15.0101C34.76 11.3201 31.76 8.32007 28.07 8.32007ZM32.03 18.9701H24.12V15.0101C24.12 12.8301 25.89 11.0501 28.08 11.0501C30.27 11.0501 32.04 12.8201 32.04 15.0101V18.9701H32.03Z" fill="url(#paint0_linear_8226_225676)"/>
<path d="M17.72 21.71H19.57V8.46997H16.83V13.58C15.72 12.76 14.35 12.27 12.87 12.27C11.39 12.27 10.02 12.76 8.91001 13.58V8.46997H6.17001V21.7H17.7L17.72 21.71ZM8.92001 18.97C8.92001 16.79 10.69 15.01 12.88 15.01C15.07 15.01 16.84 16.78 16.84 18.97H8.93001H8.92001Z" fill="url(#paint1_linear_8226_225676)"/>
<path d="M20.48 30.1702L14.48 24.1802L12.4 26.2602L20.48 34.3302L28.55 26.2602L26.47 24.1802L20.48 30.1702Z" fill="url(#paint2_linear_8226_225676)"/>
</g>
<g clip-path="url(#clip1_8226_225676)">
<path d="M65.4884 25.1128H57.3195V29.9199H54.1527V25.1128H46V22.5143H65.4884V25.1128ZM63.7832 20.8253H47.6565V11.2273H50.8071V13.5984H60.6488V11.2273H63.7832V20.8253ZM60.6488 18.2919V16.1156H50.8071V18.2919H60.6488Z" fill="#717171"/>
<path d="M85.5778 28.9456H66.1056V26.3472H74.1933V23.1478H77.4413V26.3472H85.594V28.9456H85.5778ZM83.8725 22.2384H67.7621V11.6172H83.8888V22.2384H83.8725ZM80.7381 19.6724V14.2156H70.8965V19.6724H80.7381Z" fill="#717171"/>
<path d="M100.21 20.5168H87.5266V11.5034H90.661V17.9996H100.21V20.5006V20.5168ZM104.482 29.6114H88.972V22.0921H104.482V29.6114ZM101.347 27.0779V24.5931H92.1226V27.0779H101.347ZM104.482 21.3126H101.331V11.0974H104.482V21.3288V21.3126Z" fill="#717171"/>
<path d="M124.587 24.3497H121.436V20.1597H117.994C117.506 20.7443 116.857 21.1991 116.061 21.5239C115.249 21.8487 114.291 22.0273 113.186 22.0273C112.212 22.0273 111.335 21.8974 110.604 21.6213C109.857 21.3452 109.24 20.9879 108.72 20.5494C108.217 20.0947 107.843 19.575 107.583 18.9904C107.324 18.3895 107.194 17.7723 107.194 17.1065V15.9209C107.194 15.2551 107.324 14.6217 107.583 14.0371C107.843 13.4362 108.217 12.9165 108.72 12.478C109.224 12.0233 109.857 11.666 110.604 11.4061C111.351 11.1463 112.212 11.0164 113.186 11.0164C114.258 11.0164 115.2 11.1788 115.996 11.5036C116.792 11.8284 117.441 12.2669 117.929 12.8028H121.436V11.0976H124.587V24.3497ZM124.798 29.4654H109.191V23.1479H112.342V26.8994H124.798V29.4654ZM115.996 16.1158C115.996 15.7585 115.947 15.4175 115.834 15.1089C115.72 14.8004 115.557 14.5243 115.314 14.2969C115.086 14.0695 114.778 13.8747 114.437 13.7447C114.08 13.5986 113.674 13.5336 113.203 13.5336C112.732 13.5336 112.293 13.5986 111.936 13.7447C111.579 13.8909 111.286 14.0695 111.059 14.2969C110.832 14.5243 110.669 14.8004 110.555 15.1089C110.442 15.4175 110.393 15.7585 110.393 16.1158V16.8791C110.393 17.2364 110.442 17.5775 110.555 17.9023C110.669 18.2271 110.832 18.5032 111.059 18.7305C111.286 18.9579 111.579 19.1528 111.936 19.2827C112.293 19.4289 112.715 19.4938 113.203 19.4938C113.69 19.4938 114.08 19.4289 114.437 19.2827C114.794 19.1528 115.086 18.9579 115.314 18.7305C115.541 18.5032 115.72 18.2271 115.834 17.9023C115.947 17.5775 115.996 17.2527 115.996 16.8791V16.1158ZM121.453 17.6424V15.3038H119.114C119.114 15.4175 119.13 15.5149 119.147 15.6124C119.147 15.7098 119.147 15.8073 119.147 15.9209V17.1065C119.147 17.2039 119.147 17.3014 119.147 17.3826C119.147 17.48 119.13 17.5612 119.114 17.6587H121.453V17.6424Z" fill="#717171"/>
<path d="M145.894 23.8138H137.514V29.9201H134.364V23.8138H126.406V21.2153H145.894V23.8138ZM144.189 20.3058H141.055V14.0046H127.754V11.4224H144.189V20.3058Z" fill="#717171"/>
<path d="M166 28.9457H146.512V26.3473H154.599V22.3034H157.847V26.3473H166V28.9457ZM164.019 23.1154C163.207 22.8881 162.411 22.5795 161.631 22.2222C160.852 21.8649 160.137 21.4589 159.455 21.0042C158.773 20.5494 158.172 20.0785 157.62 19.5588C157.068 19.0391 156.629 18.5032 156.256 17.951C155.882 18.5032 155.428 19.0391 154.875 19.5588C154.323 20.0785 153.722 20.5657 153.056 21.0042C152.391 21.4427 151.66 21.8649 150.896 22.2222C150.117 22.5795 149.321 22.8718 148.493 23.1154L146.836 20.793C148.022 20.4682 149.094 20.046 150.052 19.5263C151.01 19.0229 151.838 18.4544 152.521 17.8373C153.203 17.2202 153.722 16.5706 154.096 15.8885C154.469 15.2064 154.648 14.5243 154.648 13.8747V11.4224H157.864V13.8747C157.864 14.5405 158.042 15.2064 158.416 15.8885C158.789 16.5706 159.309 17.2202 159.991 17.8373C160.673 18.4544 161.501 19.0229 162.46 19.5263C163.418 20.0298 164.506 20.452 165.708 20.793L164.035 23.1154H164.019Z" fill="#717171"/>
</g>
<defs>
<linearGradient id="paint0_linear_8226_225676" x1="35.76" y1="9.29007" x2="7" y2="38.0501" gradientUnits="userSpaceOnUse">
<stop offset="0.09" stop-color="#DF2126"/>
<stop offset="0.89" stop-color="#FF0098"/>
</linearGradient>
<linearGradient id="paint1_linear_8226_225676" x1="27.64" y1="0.329972" x2="-1.12998" y2="29.1" gradientUnits="userSpaceOnUse">
<stop offset="0.09" stop-color="#DF2126"/>
<stop offset="0.89" stop-color="#FF0098"/>
</linearGradient>
<linearGradient id="paint2_linear_8226_225676" x1="35.68" y1="11.0602" x2="8.39002" y2="38.3402" gradientUnits="userSpaceOnUse">
<stop offset="0.09" stop-color="#DF2126"/>
<stop offset="0.89" stop-color="#FF0098"/>
</linearGradient>
<clipPath id="clip0_8226_225676">
<rect width="40.95" height="40.95" fill="white"/>
</clipPath>
<clipPath id="clip1_8226_225676">
<rect width="120" height="18.92" fill="white" transform="translate(46 11)"/>
</clipPath>
</defs>
</svg>
