<svg width="80" height="80" viewBox="0 0 80 80" fill="none" xmlns="http://www.w3.org/2000/svg">
<path d="M79.2467 28C78.5713 20.9424 75.697 14.2754 71.0297 8.94C65.6934 4.29127 59.0396 1.42465 51.9967 0.74C48.5107 0.269064 44.9981 0.0218918 41.4805 0L38.5016 0C34.9906 0.0220338 31.4847 0.269207 28.0054 0.74C20.9555 1.42676 14.2985 4.30874 8.97235 8.98C4.31387 14.3053 1.44028 20.9568 0.755352 28C0.186529 31.9736 -0.0608504 35.9866 0.0156216 40C-0.0663445 44.0128 0.174343 48.0257 0.735359 52C1.42136 59.0548 4.29428 65.7188 8.95236 71.06C14.2941 75.7125 20.9554 78.5794 28.0054 79.26C31.4848 79.73 34.9907 79.9772 38.5016 80H41.4605C44.9848 79.9789 48.504 79.7318 51.9967 79.26C59.0536 78.5773 65.7181 75.695 71.0497 71.02C75.701 65.6921 78.5674 59.0409 79.2467 52C79.8155 48.0264 80.0629 44.0134 79.9865 40C80.0618 35.9866 79.8144 31.9737 79.2467 28Z" fill="#EEF0F2"/>
<mask id="mask0_4696_97989" style="mask-type:alpha" maskUnits="userSpaceOnUse" x="0" y="0" width="80" height="80">
<path d="M79.2467 28C78.5713 20.9424 75.697 14.2754 71.0297 8.94C65.6934 4.29127 59.0396 1.42465 51.9967 0.74C48.5107 0.269064 44.9981 0.0218918 41.4805 0L38.5016 0C34.9906 0.0220338 31.4847 0.269207 28.0054 0.74C20.9555 1.42676 14.2985 4.30874 8.97235 8.98C4.31387 14.3053 1.44028 20.9568 0.755352 28C0.186529 31.9736 -0.0608504 35.9866 0.0156216 40C-0.0663445 44.0128 0.174343 48.0257 0.735359 52C1.42136 59.0548 4.29428 65.7188 8.95236 71.06C14.2941 75.7125 20.9554 78.5794 28.0054 79.26C31.4848 79.73 34.9907 79.9772 38.5016 80H41.4605C44.9848 79.9789 48.504 79.7318 51.9967 79.26C59.0536 78.5773 65.7181 75.695 71.0497 71.02C75.701 65.6921 78.5674 59.0409 79.2467 52C79.8155 48.0264 80.0629 44.0134 79.9865 40C80.0618 35.9866 79.8144 31.9737 79.2467 28Z" fill="#EEF0F2"/>
</mask>
<g mask="url(#mask0_4696_97989)">
<path d="M76.848 93.8873C79.7445 90.1278 82.0087 85.7435 83.5183 80.9713L51.8343 22.973C50.4925 20.3124 48.5727 18.1308 46.2767 16.6575C43.9807 15.1842 41.3933 14.4736 38.7865 14.6004C36.1796 14.7272 33.6497 15.6867 31.4626 17.3781C29.2754 19.0695 27.5119 21.4303 26.3574 24.2123L-1.11133 82.7889C0.385131 86.8346 2.43568 90.5571 4.95681 93.8047C11.124 100.256 18.8335 104.252 27.0059 105.234C31.0367 105.881 35.0981 106.221 39.1653 106.253H42.5931C46.6759 106.224 50.7528 105.883 54.7989 105.234C62.966 104.288 70.6778 100.32 76.848 93.8873Z" fill="#E1312F"/>
<path fill-rule="evenodd" clip-rule="evenodd" d="M42.6447 47.7419C42.6447 46.342 41.441 45.207 39.9561 45.207C38.4713 45.207 37.2676 46.342 37.2676 47.7419C37.2676 47.7958 37.2694 47.8494 37.2729 47.9024C37.2694 47.9384 37.2676 47.9748 37.2676 48.0117V49.1666C37.2676 49.781 37.7657 50.2791 38.3801 50.2791H41.5322C42.1466 50.2791 42.6447 49.781 42.6447 49.1666V48.0117C42.6447 47.9748 42.6429 47.9384 42.6394 47.9024C42.6429 47.8494 42.6447 47.7958 42.6447 47.7419Z" fill="#161616"/>
<circle cx="46.7307" cy="41.7171" r="2.41042" fill="#161616"/>
<circle cx="33.3811" cy="41.7171" r="2.41042" fill="#161616"/>
</g>
</svg>
