<svg width="24" height="24" viewBox="0 0 24 24" fill="none" xmlns="http://www.w3.org/2000/svg">
<path d="M21.6558 21.7988L16.1476 16.2906M18.3162 10.869C18.3162 11.8658 18.1199 12.8528 17.7384 13.7737C17.357 14.6946 16.7979 15.5313 16.0931 16.2361C15.3883 16.941 14.5515 17.5 13.6306 17.8815C12.7097 18.2629 11.7227 18.4593 10.726 18.4593C9.72921 18.4593 8.74221 18.2629 7.82132 17.8815C6.90043 17.5 6.06369 16.941 5.35887 16.2361C4.65405 15.5313 4.09496 14.6946 3.71351 13.7737C3.33207 12.8528 3.13574 11.8658 3.13574 10.869C3.13574 8.85598 3.93542 6.92538 5.35887 5.50193C6.78231 4.07849 8.71292 3.27881 10.726 3.27881C12.739 3.27881 14.6696 4.07849 16.0931 5.50193C17.5165 6.92538 18.3162 8.85598 18.3162 10.869Z" stroke="#999999" stroke-width="2" stroke-linecap="round" stroke-linejoin="round"/>
</svg>
