<svg width="32" height="32" viewBox="0 0 32 32" fill="none" xmlns="http://www.w3.org/2000/svg">
<g clip-path="url(#clip0_195_949)">
<path d="M21.4505 4.75H5.73047C5.46525 4.75 5.2109 4.85536 5.02336 5.04289C4.83583 5.23043 4.73047 5.48478 4.73047 5.75V17.5C4.73047 17.7652 4.83583 18.0196 5.02336 18.2071C5.2109 18.3946 5.46525 18.5 5.73047 18.5H21.4305C21.6957 18.5 21.95 18.3946 22.1376 18.2071C22.3251 18.0196 22.4305 17.7652 22.4305 17.5V5.75C22.4305 5.48821 22.3279 5.23684 22.1447 5.04987C21.9614 4.8629 21.7122 4.75524 21.4505 4.75Z" stroke="#AAAAAA" stroke-width="1.5" stroke-linejoin="round"/>
<path d="M25.6696 9.02009H10.0696C9.92618 9.013 9.78294 9.03688 9.64959 9.09009C9.52243 9.13947 9.40673 9.21434 9.30959 9.31009C9.20907 9.40922 9.13069 9.5285 9.07959 9.66009C9.03118 9.79107 9.01074 9.93073 9.01959 10.0701V21.7501C9.01013 21.885 9.03779 22.0198 9.09959 22.1401C9.15213 22.2658 9.22979 22.3794 9.32781 22.4739C9.42583 22.5685 9.54213 22.6421 9.66959 22.6901C9.79655 22.7405 9.93342 22.7611 10.0696 22.7501H17.3296V26.1501L20.7296 22.7501H25.5996C25.738 22.7798 25.8812 22.7798 26.0196 22.7501C26.1587 22.7126 26.286 22.6403 26.3896 22.5401C26.4976 22.4472 26.5831 22.3309 26.6396 22.2001C26.7041 22.0591 26.7349 21.905 26.7296 21.7501V10.0701C26.7537 9.93113 26.7537 9.78906 26.7296 9.65009C26.678 9.51632 26.5958 9.39646 26.4896 9.30009C26.3903 9.19733 26.2663 9.1216 26.1296 9.08009C25.9831 9.02431 25.8255 9.00376 25.6696 9.02009Z" fill="white" stroke="#AAAAAA" stroke-width="1.5" stroke-linejoin="round"/>
<path d="M13.9199 16.9004C14.1177 16.9004 14.311 16.8417 14.4755 16.7319C14.6399 16.622 14.7681 16.4658 14.8438 16.2831C14.9195 16.1003 14.9393 15.8993 14.9007 15.7053C14.8621 15.5113 14.7669 15.3331 14.627 15.1933C14.4872 15.0534 14.309 14.9582 14.115 14.9196C13.921 14.881 13.72 14.9008 13.5372 14.9765C13.3545 15.0522 13.1983 15.1804 13.0885 15.3448C12.9786 15.5093 12.9199 15.7026 12.9199 15.9004C12.9199 16.1656 13.0253 16.42 13.2128 16.6075C13.4004 16.795 13.6547 16.9004 13.9199 16.9004Z" fill="#AAAAAA"/>
<path d="M17.8691 16.9004C18.0669 16.9004 18.2603 16.8417 18.4247 16.7319C18.5892 16.622 18.7173 16.4658 18.793 16.2831C18.8687 16.1003 18.8885 15.8993 18.8499 15.7053C18.8113 15.5113 18.7161 15.3331 18.5762 15.1933C18.4364 15.0534 18.2582 14.9582 18.0642 14.9196C17.8703 14.881 17.6692 14.9008 17.4865 14.9765C17.3037 15.0522 17.1476 15.1804 17.0377 15.3448C16.9278 15.5093 16.8691 15.7026 16.8691 15.9004C16.8691 16.1656 16.9745 16.42 17.162 16.6075C17.3496 16.795 17.6039 16.9004 17.8691 16.9004Z" fill="#AAAAAA"/>
<path d="M21.8301 16.9004C22.0279 16.9004 22.2212 16.8417 22.3856 16.7319C22.5501 16.622 22.6783 16.4658 22.754 16.2831C22.8296 16.1003 22.8494 15.8993 22.8109 15.7053C22.7723 15.5113 22.677 15.3331 22.5372 15.1933C22.3973 15.0534 22.2191 14.9582 22.0252 14.9196C21.8312 14.881 21.6301 14.9008 21.4474 14.9765C21.2647 15.0522 21.1085 15.1804 20.9986 15.3448C20.8887 15.5093 20.8301 15.7026 20.8301 15.9004C20.8301 16.1656 20.9354 16.42 21.123 16.6075C21.3105 16.795 21.5649 16.9004 21.8301 16.9004Z" fill="#AAAAAA"/>
</g>
<defs>
<clipPath id="clip0_195_949">
<rect width="23.5" height="22.9" fill="white" transform="translate(4 4)"/>
</clipPath>
</defs>
</svg>
