<svg width="48" height="49" viewBox="0 0 48 49" fill="none" xmlns="http://www.w3.org/2000/svg">
<path d="M23.9995 48.002C37.2543 48.002 47.9997 37.2568 48 24.002C48.0004 10.7471 37.2556 0.00195312 24.0008 0.00195312C10.7461 0.00195312 0.000690346 10.7471 0.000337279 24.002C-1.57874e-05 37.2568 10.7448 48.002 23.9995 48.002Z" fill="#295396"/>
<path fill-rule="evenodd" clip-rule="evenodd" d="M21.2679 28.5263C21.2679 27.0517 21.2628 25.5781 21.2739 24.1035C21.2739 23.8538 21.204 23.778 20.9494 23.788C20.48 23.8063 20.0082 23.788 19.538 23.7963C19.3472 23.8013 19.2774 23.7497 19.2825 23.5524C19.2921 22.6321 19.2921 21.7121 19.2825 20.7923C19.2825 20.6158 19.3353 20.5575 19.5184 20.5617C19.9997 20.5725 20.4817 20.5484 20.9621 20.5717C21.2407 20.585 21.2977 20.4884 21.2926 20.2386C21.2756 19.5393 21.2756 18.8391 21.2926 18.138C21.3122 17.2829 21.5481 16.4845 22.0677 15.7893C22.7269 14.9092 23.6647 14.5063 24.7456 14.4571C25.8529 14.4088 26.9695 14.4355 28.0819 14.4238C28.2369 14.4238 28.2829 14.4763 28.282 14.6236C28.2769 15.5534 28.2769 16.4837 28.282 17.4145C28.282 17.581 28.2284 17.631 28.0623 17.6285C27.5274 17.6201 26.9925 17.6285 26.4576 17.6285C25.7464 17.6285 25.3197 17.989 25.2754 18.6775C25.2396 19.2295 25.266 19.7849 25.2524 20.3427C25.2524 20.54 25.3682 20.5259 25.5011 20.5259C26.3136 20.5259 27.1271 20.5342 27.9396 20.5201C28.1781 20.5201 28.2573 20.57 28.2292 20.8156C28.127 21.7398 28.0393 22.6656 27.9584 23.5923C27.9396 23.8013 27.8425 23.8421 27.65 23.8379C27.0087 23.8288 26.3673 23.8313 25.7259 23.8379C25.2652 23.8379 25.3094 23.7722 25.3094 24.2318C25.3094 27.1167 25.3035 30.0024 25.3163 32.8907C25.3163 33.1954 25.2379 33.2712 24.9296 33.2654C23.8283 33.2462 22.7261 33.2446 21.6248 33.2654C21.3148 33.2712 21.2636 33.1688 21.2662 32.8982C21.2739 31.432 21.2679 29.9791 21.2679 28.5263Z" fill="white"/>
</svg>
