<svg width="28" height="28" viewBox="0 0 28 28" fill="none" xmlns="http://www.w3.org/2000/svg">
<path d="M3.5 4H24.5V20.3846H8.225L3.5 25V4Z" stroke="#161616" stroke-width="1.5" stroke-linejoin="round"/>
<path d="M14.5152 14.2993H14.5652V14.2493V14.1307C14.5721 13.6487 14.6539 13.3028 14.8242 13.0226C14.9947 12.7421 15.2571 12.5219 15.6361 12.2973C16.0672 12.043 16.421 11.7408 16.6671 11.3666C16.9135 10.9918 17.05 10.5474 17.05 10.0121C17.05 9.22891 16.7372 8.58656 16.1967 8.14093C15.6572 7.69606 14.8945 7.45 13.9977 7.45C13.1755 7.45 12.4269 7.67425 11.8764 8.12183C11.3247 8.5703 10.9761 9.23978 10.95 10.1204L10.9485 10.1719H11H12.6503H12.6977L12.7003 10.1246C12.7229 9.7072 12.8874 9.40231 13.1228 9.20132C13.359 8.99967 13.6698 8.89986 13.9883 8.89986C14.6846 8.89986 15.2297 9.34515 15.2297 10.0396C15.2297 10.6579 14.8203 11.0795 14.256 11.4245L14.2558 11.4246C13.8409 11.68 13.507 11.9383 13.2775 12.3452C13.0484 12.7515 12.9267 13.3 12.922 14.13V14.1303V14.2493V14.2993H12.972H14.5152ZM13.7832 17.15C14.36 17.15 14.8493 16.6802 14.8542 16.0983L14.8542 16.0975C14.8493 15.5197 14.3596 15.055 13.7832 15.055C13.1939 15.055 12.7029 15.5188 12.7122 16.0979C12.7029 16.6811 13.1935 17.15 13.7832 17.15Z" fill="#161616" stroke="#161616" stroke-width="0.1"/>
</svg>
