<svg width="24" height="24" viewBox="0 0 24 24" fill="none" xmlns="http://www.w3.org/2000/svg">
<path d="M6.918 6H4.92603V18H6.918V6Z" fill="#161616"/>
<path d="M13.8898 6H10.9019V18H13.8898V6Z" fill="#161616"/>
<path d="M19.6037 6H17.877V18H19.6037V6Z" fill="#161616"/>
<path d="M9.37562 6H8.37964V18H9.37562V6Z" fill="#161616"/>
<path d="M16.1501 6H15.2867V18H16.1501V6Z" fill="#161616"/>
<path fill-rule="evenodd" clip-rule="evenodd" d="M21.9805 0C23.085 0 23.9805 0.89543 23.9805 2V5C23.9805 5.55228 23.5328 6 22.9805 6C22.4282 6 21.9805 5.55228 21.9805 5V2H20.9985H5.14278H3.16084H2.84625H2.17891V5C2.17891 5.55228 1.73119 6 1.17891 6C0.626621 6 0.178905 5.55228 0.178905 5V2C0.178905 0.89543 1.07434 0 2.17891 0H2.84625H3.16084H5.14278H20.9985H21.9805Z" fill="#161616"/>
<path fill-rule="evenodd" clip-rule="evenodd" d="M21.9805 24C23.085 24 23.9805 23.1046 23.9805 22V19C23.9805 18.4477 23.5328 18 22.9805 18C22.4282 18 21.9805 18.4477 21.9805 19V22H20.9985H5.14278H3.16084H2.84625H2.17891V19C2.17891 18.4477 1.73119 18 1.17891 18C0.626621 18 0.178905 18.4477 0.178905 19V22C0.178905 23.1046 1.07434 24 2.17891 24H2.84625H3.16084H5.14278H20.9985H21.9805Z" fill="#161616"/>
</svg>
