<svg width="24" height="25" viewBox="0 0 24 25" fill="none" xmlns="http://www.w3.org/2000/svg">
<path fill-rule="evenodd" clip-rule="evenodd" d="M11.2149 1.33887C11.7671 1.33887 12.2149 1.78658 12.2149 2.33887V3.91165C16.5387 4.41786 19.9237 8.01075 19.9237 12.4129C19.9237 12.5019 19.9121 12.5882 19.8902 12.6704C19.912 12.7525 19.9237 12.8387 19.9237 12.9277V17.0441L21.2168 20.0359C21.3504 20.345 21.3195 20.7005 21.1346 20.9819C20.9496 21.2633 20.6356 21.4327 20.2989 21.4327H15.0105C14.7451 23.2748 13.1269 24.6606 11.2148 24.6606C9.30256 24.6606 7.68438 23.2748 7.41897 21.4327H2.13086C1.79891 21.4327 1.4886 21.268 1.3026 20.993C1.11659 20.7181 1.07915 20.3688 1.20265 20.0606L2.40617 17.0581V12.9277C2.40617 12.8387 2.4178 12.7525 2.43961 12.6703C2.4178 12.5882 2.40617 12.5019 2.40617 12.4129C2.40617 7.97691 5.84339 4.36268 10.2149 3.90052V2.33887C10.2149 1.78658 10.6626 1.33887 11.2149 1.33887ZM9.46746 21.4327C9.70042 22.1335 10.3797 22.6606 11.2148 22.6606C12.0499 22.6606 12.7291 22.1335 12.962 21.4327H9.46746ZM4.40617 12.4129C4.40617 8.81267 7.40785 5.85059 11.1649 5.85059C14.922 5.85059 17.9237 8.81267 17.9237 12.4129C17.9237 12.5019 17.9353 12.5882 17.9571 12.6703C17.9353 12.7525 17.9237 12.8387 17.9237 12.9277V17.251C17.9237 17.3875 17.9516 17.5225 18.0057 17.6478L18.7772 19.4327H3.60903L4.33438 17.6231C4.3818 17.5048 4.40617 17.3785 4.40617 17.251V12.9277C4.40617 12.8387 4.39455 12.7525 4.37273 12.6703C4.39455 12.5882 4.40617 12.5019 4.40617 12.4129Z" fill="#161616"/>
<ellipse cx="19.8577" cy="2.82743" rx="2.14286" ry="2.14286" fill="#FA5252"/>
</svg>
