<svg width="20" height="20" viewBox="0 0 20 20" fill="none" xmlns="http://www.w3.org/2000/svg">
<path d="M14.5756 11.4375V10.6875H14.5755L14.5756 11.4375ZM13.9128 11.7122L14.4431 12.2425L14.4432 12.2424L13.9128 11.7122ZM11.6497 13.9753L11.1194 13.445L11.1193 13.4451L11.6497 13.9753ZM10.9869 14.25V15H10.987L10.9869 14.25ZM8.01312 14.25L8.01296 15H8.01312V14.25ZM7.35031 13.9753L7.88072 13.4451L7.88064 13.445L7.35031 13.9753ZM5.08719 11.7122L4.55678 12.2424L4.55686 12.2425L5.08719 11.7122ZM4.42438 11.4375L4.42454 10.6875H4.42438V11.4375ZM17.75 11.4375V4H16.25V11.4375H17.75ZM16 2.25H3V3.75H16V2.25ZM1.25 4V11.4375H2.75V4H1.25ZM16.25 11.4375V17H17.75V11.4375H16.25ZM16 17.25H3V18.75H16V17.25ZM2.75 17V11.4375H1.25V17H2.75ZM17 10.6875H14.5756V12.1875H17V10.6875ZM14.5755 10.6875C14.1279 10.6876 13.6988 10.8654 13.3824 11.1819L14.4432 12.2424C14.4784 12.2073 14.5261 12.1875 14.5758 12.1875L14.5755 10.6875ZM13.3825 11.1819L11.1194 13.445L12.18 14.5056L14.4431 12.2425L13.3825 11.1819ZM11.1193 13.4451C11.0841 13.4802 11.0364 13.5 10.9867 13.5L10.987 15C11.4346 14.9999 11.8637 14.8221 12.1801 14.5056L11.1193 13.4451ZM10.9869 13.5H8.01312V15H10.9869V13.5ZM8.01329 13.5C7.96356 13.5 7.91588 13.4802 7.88072 13.4451L6.8199 14.5056C7.13629 14.8221 7.56545 14.9999 8.01296 15L8.01329 13.5ZM7.88064 13.445L5.61752 11.1819L4.55686 12.2425L6.81998 14.5056L7.88064 13.445ZM5.6176 11.1819C5.3012 10.8654 4.87205 10.6876 4.42454 10.6875L4.42422 12.1875C4.47394 12.1875 4.52162 12.2073 4.55678 12.2424L5.6176 11.1819ZM4.42438 10.6875H2V12.1875H4.42438V10.6875ZM3 17.25C2.86193 17.25 2.75 17.1381 2.75 17H1.25C1.25 17.9665 2.0335 18.75 3 18.75V17.25ZM16.25 17C16.25 17.1381 16.1381 17.25 16 17.25V18.75C16.9665 18.75 17.75 17.9665 17.75 17H16.25ZM3 2.25C2.0335 2.25 1.25 3.0335 1.25 4H2.75C2.75 3.86193 2.86193 3.75 3 3.75V2.25ZM17.75 4C17.75 3.0335 16.9665 2.25 16 2.25V3.75C16.1381 3.75 16.25 3.86193 16.25 4H17.75Z" fill="#161616"/>
</svg>
