<svg width="44" height="44" viewBox="0 0 44 44" fill="none" xmlns="http://www.w3.org/2000/svg">
<path d="M24.2722 12.4171C23.7378 12.5757 22.9823 12.6982 22.0163 12.785C22.0597 10.6303 22.6216 8.77185 23.7103 7.21209C24.7789 5.66237 26.5841 4.59159 29.129 4C29.1448 4.04142 29.1652 4.12435 29.1848 4.23951C29.2046 4.35466 29.2243 4.43364 29.2402 4.47712C29.2402 4.53436 29.2441 4.60749 29.252 4.69429C29.2561 4.78186 29.2599 4.85293 29.2599 4.91274C29.2599 5.79463 29.05 6.77655 28.6309 7.86109C28.1992 8.94562 27.526 9.94327 26.6157 10.8541C25.8358 11.6333 25.052 12.1558 24.2722 12.4171ZM33.9897 27.6213C32.9926 26.1919 32.4938 24.5769 32.4938 22.7842C32.4938 21.1495 32.9612 19.6529 33.9029 18.2954C34.4096 17.555 35.2329 16.704 36.3766 15.7347C35.6245 14.8081 34.8729 14.0881 34.1207 13.5655C32.759 12.6271 31.2191 12.1559 29.4975 12.1559C28.4721 12.1559 27.2211 12.4013 25.7489 12.8923C24.3321 13.3872 23.2947 13.6301 22.6454 13.6301C22.1544 13.6301 21.1573 13.4149 19.6529 12.9799C18.1333 12.5455 16.8547 12.3303 15.8135 12.3303C13.3238 12.3303 11.2733 13.3707 9.65036 15.453C8.01566 17.5629 7.2002 20.2704 7.2002 23.5635C7.2002 27.0673 8.26505 30.7006 10.3907 34.4768C12.5441 38.2214 14.7211 40.0937 16.9178 40.0937C17.6542 40.0937 18.6118 39.8482 19.78 39.3573C20.9514 38.8789 21.9806 38.6406 22.8631 38.6406C23.8017 38.6406 24.894 38.8722 26.1366 39.3335C27.4509 39.7969 28.4643 40.0279 29.1731 40.0279C31.0257 40.0279 32.8815 38.6117 34.7499 35.7772C35.9614 33.97 36.8518 32.1635 37.4178 30.3563C36.1272 29.9642 34.9875 29.054 33.9897 27.6213Z" fill="#AAAAAA"/>
</svg>
