<svg width="16" height="16" viewBox="0 0 16 16" fill="none" xmlns="http://www.w3.org/2000/svg">
<path d="M3.48733 8.25089C3.17247 7.98175 2.69905 8.0188 2.4299 8.33366C2.16076 8.64851 2.19782 9.12194 2.51267 9.39108L3.48733 8.25089ZM7.04389 12.2778L6.55656 12.8479C6.71307 12.9817 6.91771 13.0452 7.12249 13.0236C7.32726 13.0021 7.51416 12.8972 7.63935 12.7338L7.04389 12.2778ZM13.5955 4.95599C13.8473 4.62713 13.7849 4.15638 13.456 3.90454C13.1271 3.6527 12.6564 3.71514 12.4045 4.04401L13.5955 4.95599ZM2.51267 9.39108L6.55656 12.8479L7.53122 11.7077L3.48733 8.25089L2.51267 9.39108ZM7.63935 12.7338L13.5955 4.95599L12.4045 4.04401L6.44843 11.8218L7.63935 12.7338Z" fill="white"/>
</svg>
