<svg width="19" height="24" viewBox="0 0 19 24" fill="none" xmlns="http://www.w3.org/2000/svg">
<path d="M14.4993 6.16667C14.4993 7.40434 14.0077 8.59133 13.1325 9.4665C12.2573 10.3417 11.0704 10.8333 9.83268 10.8333C8.59501 10.8333 7.40802 10.3417 6.53285 9.4665C5.65768 8.59133 5.16602 7.40434 5.16602 6.16667C5.16602 4.92899 5.65768 3.742 6.53285 2.86683C7.40802 1.99167 8.59501 1.5 9.83268 1.5C11.0704 1.5 12.2573 1.99167 13.1325 2.86683C14.0077 3.742 14.4993 4.92899 14.4993 6.16667V6.16667ZM9.83268 14.3333C7.66675 14.3333 5.58952 15.1937 4.05798 16.7253C2.52643 18.2568 1.66602 20.3341 1.66602 22.5H17.9993C17.9993 20.3341 17.1389 18.2568 15.6074 16.7253C14.0758 15.1937 11.9986 14.3333 9.83268 14.3333V14.3333Z" stroke="#444444" stroke-width="2" stroke-linecap="round" stroke-linejoin="round"/>
</svg>
