<svg width="24" height="24" viewBox="0 0 24 24" fill="none" xmlns="http://www.w3.org/2000/svg">
<path fill-rule="evenodd" clip-rule="evenodd" d="M12.2475 1.88086C11.5582 1.88086 10.9995 2.43961 10.9995 3.12886V6.45686C10.9995 7.14383 11.5545 7.70116 12.2406 7.70484C12.243 7.70482 12.2454 7.70482 12.2478 7.70482H15.7838C16.3582 7.70482 16.8238 8.17044 16.8238 8.74482V13.7368H16.8234V16.3304C16.1622 15.4282 15.0961 14.7769 13.3916 14.7769C12.8041 14.7769 12.249 14.9161 11.7576 15.1634C11.0552 13.1229 9.11861 11.6569 6.83965 11.6569C3.96777 11.6569 1.63965 13.985 1.63965 16.8569C1.63965 19.5888 3.74631 21.8286 6.42372 22.0405V22.0569H6.82774L6.83965 22.0569L6.85156 22.0569H12.8717V22.056C13.0366 22.0628 13.2098 22.0632 13.3916 22.0569C13.675 22.0471 13.9674 22.0449 14.2606 22.0427C15.18 22.0358 16.1077 22.0289 16.7915 21.7881C16.9487 21.7625 17.1269 21.7326 17.2703 21.7059C18.6867 21.4426 20.5847 20.7775 21.5721 20.4118C21.9721 20.2636 22.2314 19.8809 22.2314 19.4544V12.0861L22.2315 12.0729V7.31971C22.2315 6.95583 22.1361 6.59833 21.9547 6.28289L20.0234 2.92404C19.6523 2.27869 18.9646 1.88086 18.2202 1.88086H16.1995H15.7835H12.2475Z" fill="#FFC5B4"/>
<mask id="mask0_3837_43529" style="mask-type:alpha" maskUnits="userSpaceOnUse" x="1" y="1" width="22" height="22">
<path fill-rule="evenodd" clip-rule="evenodd" d="M12.8719 1.88086C12.1827 1.88086 11.6239 2.43961 11.6239 3.12886V6.45686C11.6239 7.14264 12.1771 7.69923 12.8615 7.70482H15.7838C16.3582 7.70482 16.8238 8.17044 16.8238 8.74482V13.7368H16.8234V16.3304C16.1622 15.4282 15.0961 14.7769 13.3916 14.7769C12.8041 14.7769 12.249 14.9161 11.7576 15.1634C11.0552 13.1229 9.11861 11.6569 6.83965 11.6569C3.96777 11.6569 1.63965 13.985 1.63965 16.8569C1.63965 19.5888 3.74631 21.8286 6.42372 22.0405V22.0569H6.82774L6.83965 22.0569L6.85156 22.0569H12.8717V22.056C13.0366 22.0628 13.2098 22.0632 13.3916 22.0569C13.675 22.0471 13.9674 22.0449 14.2606 22.0427C15.18 22.0358 16.1077 22.0289 16.7915 21.7881C16.9487 21.7625 17.1269 21.7326 17.2703 21.7059C18.6867 21.4426 20.5847 20.7775 21.5721 20.4118C21.9721 20.2636 22.2314 19.8809 22.2314 19.4544V12.0861L22.2315 12.0729V7.31971C22.2315 6.95583 22.1361 6.59833 21.9547 6.28289L20.0234 2.92404C19.6523 2.27869 18.9646 1.88086 18.2202 1.88086H16.1999H15.7835H12.8719Z" fill="#C4C4C4"/>
</mask>
<g mask="url(#mask0_3837_43529)">
<rect x="1.22406" y="9.57617" width="10.608" height="17.264" fill="#FFC5B4"/>
<path fill-rule="evenodd" clip-rule="evenodd" d="M12.0512 14.4819L9.85269 16.7778C9.6019 17.0396 9.18628 17.0486 8.92439 16.7979C8.6625 16.5471 8.6535 16.1314 8.9043 15.8696L11.1029 13.5737L12.0512 14.4819Z" fill="#F8AB95"/>
</g>
<path fill-rule="evenodd" clip-rule="evenodd" d="M13.4959 6.248H14.3279L14.3279 7.704H15.5759V5.624C15.5759 5.27938 15.2965 5 14.9519 5C14.9519 5 14.9519 5 14.9519 5H13.4959C13.1513 5 12.8719 5.27937 12.8719 5.624C12.8719 5.96863 13.1513 6.248 13.4959 6.248Z" fill="#F8AB95"/>
<path d="M5.07612 9.27058L4.70686 10.4143L4.33759 9.27058C4.18149 8.78713 3.80113 8.40689 3.31758 8.25084L2.17352 7.88031L3.31758 7.51114C3.80116 7.35508 4.1815 6.97483 4.33759 6.4914L4.70686 5.34766L5.07612 6.4914C5.23223 6.97485 5.61258 7.35509 6.09614 7.51114L7.24019 7.88031L6.09614 8.24947C5.61256 8.40689 5.23358 8.78578 5.07612 9.27058Z" fill="#87BED7"/>
<path d="M9.06698 10.2452L8.84023 10.948L8.61349 10.2452C8.51062 9.9269 8.26138 9.67766 7.94307 9.5748L7.24023 9.34805L7.94307 9.1213C8.26138 9.01844 8.51062 8.76919 8.61349 8.45088L8.84023 7.74805L9.06698 8.45088C9.16984 8.76919 9.41909 9.01843 9.7374 9.1213L10.4402 9.34805L9.7374 9.5748C9.41909 9.67903 9.16985 9.92829 9.06698 10.2452Z" fill="#4B5473"/>
</svg>
