<svg width="36" height="36" viewBox="0 0 36 36" fill="none" xmlns="http://www.w3.org/2000/svg">
<circle cx="18" cy="18" r="14.625" fill="#FFD249"/>
<path d="M32.625 18.5873C32.4796 22.2167 30.9897 25.7979 28.1694 28.5203C22.3568 34.1312 13.0944 33.9696 7.48132 28.1594C1.86819 22.3491 2.02987 13.0905 7.84243 7.47967C13.655 1.8688 22.9173 2.03041 28.5305 7.84063C30.2935 9.66559 31.4869 11.8308 32.1143 14.1162" stroke="#161616" stroke-width="1.5" stroke-linecap="round"/>
<path d="M12.3466 22.4927C12.0063 22.4927 11.7542 22.4441 11.5903 22.3468C11.4391 22.2495 11.3445 22.1157 11.3067 21.9455C11.2689 21.7752 11.25 21.5928 11.25 21.3983V14.5762C11.25 14.3816 11.2689 14.2053 11.3067 14.0472C11.3445 13.8891 11.4454 13.7615 11.6092 13.6642C11.7731 13.5669 12.0315 13.5182 12.3845 13.5182C12.75 13.5182 13.0147 13.5912 13.1786 13.7371C13.355 13.8831 13.4433 14.1141 13.4433 14.4303L13.2731 14.941C13.3361 14.8073 13.4433 14.6613 13.5945 14.5032C13.7458 14.3452 13.9286 14.1871 14.1429 14.029C14.3697 13.8709 14.6218 13.7432 14.8992 13.6459C15.1765 13.5486 15.4664 13.5 15.7689 13.5C16.1849 13.5 16.563 13.5669 16.9034 13.7006C17.2563 13.8344 17.5651 14.029 17.8298 14.2844C18.1071 14.5397 18.3466 14.8498 18.5483 15.2146C18.7626 14.8985 19.0021 14.6127 19.2668 14.3573C19.5315 14.0898 19.8403 13.8831 20.1933 13.7371C20.5462 13.579 20.9433 13.5 21.3845 13.5C22.1155 13.5 22.7269 13.6763 23.2185 14.029C23.7227 14.3816 24.1008 14.8863 24.3529 15.543C24.6176 16.1875 24.75 16.9597 24.75 17.8595V21.3983C24.75 21.605 24.7248 21.7935 24.6744 21.9637C24.6366 22.1218 24.5357 22.2495 24.3718 22.3468C24.2206 22.4441 23.9685 22.4927 23.6155 22.4927C23.2626 22.4927 23.0042 22.438 22.8403 22.3285C22.6765 22.2313 22.5756 22.1036 22.5378 21.9455C22.5 21.7752 22.4811 21.5867 22.4811 21.38V17.8413C22.4811 17.3914 22.4244 17.0022 22.3109 16.6739C22.1975 16.3456 22.0273 16.0902 21.8004 15.9078C21.5861 15.7254 21.3025 15.6342 20.9496 15.6342C20.5714 15.6342 20.2437 15.7254 19.9664 15.9078C19.7017 16.078 19.4937 16.3273 19.3424 16.6557C19.1912 16.984 19.1155 17.3853 19.1155 17.8595V21.4165C19.1155 21.6232 19.084 21.8178 19.021 22.0002C18.958 22.1705 18.8319 22.2981 18.6429 22.3833C18.4664 22.4805 18.208 22.517 17.8676 22.4927C17.5525 22.4805 17.3193 22.4197 17.1681 22.3103C17.0294 22.2009 16.9412 22.0671 16.9034 21.909C16.8782 21.7388 16.8655 21.5624 16.8655 21.38V17.8413C16.8655 17.3914 16.8088 17.0022 16.6954 16.6739C16.5819 16.3334 16.4118 16.078 16.1849 15.9078C15.9706 15.7254 15.6807 15.6342 15.3151 15.6342C14.9244 15.6342 14.5903 15.7315 14.313 15.926C14.0483 16.1206 13.8466 16.382 13.708 16.7104C13.5693 17.0387 13.5 17.4157 13.5 17.8413V21.4165C13.5 21.6111 13.4748 21.7935 13.4244 21.9637C13.3866 22.134 13.2857 22.2617 13.1218 22.3468C12.9706 22.4441 12.7122 22.4927 12.3466 22.4927Z" fill="#161616"/>
</svg>
