<svg width="32" height="32" viewBox="0 0 32 32" fill="none" xmlns="http://www.w3.org/2000/svg">
<g clip-path="url(#clip0_195_1598)">
<path d="M17.7095 12.8204H24.8795L17.5195 5.44043V12.6304L17.5895 12.7704L17.7095 12.8204Z" fill="#161616"/>
<path d="M17.71 14.3199C17.4967 14.3194 17.2858 14.2757 17.0899 14.1915C16.894 14.1073 16.7171 13.9843 16.57 13.8299C16.4103 13.6777 16.2843 13.4938 16.2 13.2899C16.1185 13.0858 16.0712 12.8695 16.06 12.6499V4.99994H7.72C7.49395 4.99224 7.26887 5.03316 7.06 5.11994C6.85312 5.20405 6.66587 5.33002 6.51 5.48994C6.35115 5.64671 6.22534 5.83372 6.14 6.03994C6.05238 6.24922 6.00489 6.47311 6 6.69994V24.4999C6.01042 24.7239 6.06124 24.9441 6.15 25.1499C6.24288 25.3515 6.37164 25.5345 6.53 25.6899C6.68898 25.8484 6.87988 25.9711 7.09 26.0499C7.26903 26.1183 7.45843 26.1555 7.65 26.1599H23.65C23.8759 26.1656 24.1005 26.1247 24.31 26.0399C24.5171 25.9609 24.7047 25.8381 24.86 25.6799C25.0202 25.5204 25.1461 25.3299 25.23 25.1199C25.3185 24.9144 25.3661 24.6936 25.37 24.4699V14.3199H17.71Z" fill="#161616"/>
</g>
<defs>
<clipPath id="clip0_195_1598">
<rect width="19.32" height="21.15" fill="white" transform="translate(6 5)"/>
</clipPath>
</defs>
</svg>
