<svg width="20" height="21" viewBox="0 0 20 21" fill="none" xmlns="http://www.w3.org/2000/svg">
<path d="M9.99734 2.625C5.02912 2.625 1 5.59 1 9.24915C1 11.6043 2.66805 13.6619 5.17411 14.8395L4.32678 17.7896C4.3125 17.8326 4.31102 17.8783 4.3225 17.922C4.33398 17.9657 4.35799 18.0056 4.39196 18.0376C4.41585 18.0603 4.44443 18.0782 4.47598 18.0904C4.50753 18.1025 4.54139 18.1086 4.57553 18.1082C4.63297 18.1102 4.68938 18.0935 4.73515 18.0611L8.38117 15.7667C8.91781 15.8386 9.45918 15.8754 10.0013 15.877C14.9709 15.877 19 12.912 19 9.25411C19 5.5962 14.9669 2.625 9.99734 2.625Z" fill="#3B1E1D"/>
</svg>
