<svg width="32" height="32" viewBox="0 0 32 32" fill="none" xmlns="http://www.w3.org/2000/svg">
<g clip-path="url(#clip0_195_1627)">
<path d="M6.74 10.1095C6.72017 9.68266 6.79177 9.25649 6.95 8.85953C7.12944 8.42486 7.39865 8.03298 7.74 7.70953C8.06395 7.39294 8.44822 7.14469 8.87 6.97953C9.23795 6.84227 9.62728 6.77117 10.02 6.76953H23.2V5.76953C23.2 5.3054 23.0156 4.86028 22.6874 4.53209C22.3592 4.20391 21.9141 4.01953 21.45 4.01953H5.74C5.28184 4.02467 4.84375 4.20828 4.51883 4.53133C4.19391 4.85438 4.00778 5.29141 4 5.74953V17.4995C4.00259 17.9611 4.18643 18.4032 4.5119 18.7306C4.83737 19.0579 5.27842 19.2443 5.74 19.2495H6.74V10.1095Z" fill="#161616"/>
<path d="M27.5009 10.1097C27.5191 9.86118 27.4815 9.61176 27.3909 9.37968C27.2942 9.14921 27.1551 8.93891 26.9809 8.75968C26.8049 8.59077 26.5959 8.46006 26.3671 8.37573C26.1382 8.29141 25.8944 8.25531 25.6509 8.26968H10.1109C9.86495 8.25576 9.619 8.29675 9.39088 8.38968C9.16519 8.47508 8.96055 8.6081 8.79088 8.77968C8.61618 8.95266 8.47988 9.1605 8.39088 9.38968C8.30266 9.60494 8.26502 9.83758 8.28088 10.0697V21.7497C8.27704 21.9871 8.32481 22.2225 8.42088 22.4397C8.514 22.6579 8.65002 22.8551 8.82088 23.0197C8.99246 23.1841 9.19696 23.3102 9.42088 23.3897C9.63033 23.4736 9.85551 23.5112 10.0809 23.4997H16.5809V26.1497C16.582 26.2983 16.6273 26.4433 16.711 26.5661C16.7947 26.689 16.913 26.7842 17.0509 26.8397C17.1863 26.8979 17.3361 26.9138 17.4807 26.8852C17.6252 26.8566 17.7578 26.785 17.8609 26.6797L21.0609 23.4997H25.5509C25.7964 23.5215 26.0439 23.4978 26.2809 23.4297C26.5176 23.3522 26.7356 23.2262 26.9209 23.0597C27.1083 22.8993 27.2556 22.6972 27.3509 22.4697C27.4595 22.2457 27.511 21.9984 27.5009 21.7497V10.1097ZM13.9309 16.8997C13.7331 16.8997 13.5398 16.841 13.3753 16.7311C13.2109 16.6213 13.0827 16.4651 13.007 16.2824C12.9313 16.0996 12.9115 15.8986 12.9501 15.7046C12.9887 15.5106 13.0839 15.3324 13.2238 15.1926C13.3636 15.0527 13.5418 14.9575 13.7358 14.9189C13.9298 14.8803 14.1308 14.9001 14.3136 14.9758C14.4963 15.0515 14.6525 15.1797 14.7623 15.3441C14.8722 15.5086 14.9309 15.7019 14.9309 15.8997C14.9309 16.1649 14.8255 16.4192 14.638 16.6068C14.4504 16.7943 14.1961 16.8997 13.9309 16.8997ZM17.9309 16.8997C17.7331 16.8997 17.5398 16.841 17.3753 16.7311C17.2109 16.6213 17.0827 16.4651 17.007 16.2824C16.9313 16.0996 16.9115 15.8986 16.9501 15.7046C16.9887 15.5106 17.0839 15.3324 17.2238 15.1926C17.3636 15.0527 17.5418 14.9575 17.7358 14.9189C17.9298 14.8803 18.1308 14.9001 18.3136 14.9758C18.4963 15.0515 18.6525 15.1797 18.7623 15.3441C18.8722 15.5086 18.9309 15.7019 18.9309 15.8997C18.931 16.0353 18.9036 16.1696 18.8503 16.2943C18.7969 16.419 18.7188 16.5315 18.6205 16.6251C18.5223 16.7186 18.4061 16.7912 18.2789 16.8384C18.1518 16.8856 18.0163 16.9065 17.8809 16.8997H17.9309ZM21.8809 16.8997C21.6831 16.8997 21.4898 16.841 21.3253 16.7311C21.1609 16.6213 21.0327 16.4651 20.957 16.2824C20.8813 16.0996 20.8615 15.8986 20.9001 15.7046C20.9387 15.5106 21.0339 15.3324 21.1738 15.1926C21.3136 15.0527 21.4918 14.9575 21.6858 14.9189C21.8798 14.8803 22.0808 14.9001 22.2636 14.9758C22.4463 15.0515 22.6025 15.1797 22.7123 15.3441C22.8222 15.5086 22.8809 15.7019 22.8809 15.8997C22.881 16.0353 22.8536 16.1696 22.8003 16.2943C22.7469 16.419 22.6688 16.5315 22.5705 16.6251C22.4723 16.7186 22.3561 16.7912 22.2289 16.8384C22.1018 16.8856 21.9663 16.9065 21.8309 16.8997H21.8809Z" fill="#161616"/>
</g>
<defs>
<clipPath id="clip0_195_1627">
<rect width="23.5" height="22.9" fill="white" transform="translate(4 4)"/>
</clipPath>
</defs>
</svg>
