<svg width="60" height="60" viewBox="0 0 60 60" fill="none" xmlns="http://www.w3.org/2000/svg">
<path d="M31.5 49.5C31.5 50.3284 30.8284 51 30 51C29.1716 51 28.5 50.3284 28.5 49.5L31.5 49.5ZM28.9393 5.93934C29.5251 5.35355 30.4749 5.35355 31.0607 5.93934L40.6066 15.4853C41.1924 16.0711 41.1924 17.0208 40.6066 17.6066C40.0208 18.1924 39.0711 18.1924 38.4853 17.6066L30 9.12132L21.5147 17.6066C20.9289 18.1924 19.9792 18.1924 19.3934 17.6066C18.8076 17.0208 18.8076 16.0711 19.3934 15.4853L28.9393 5.93934ZM28.5 49.5L28.5 7L31.5 7L31.5 49.5L28.5 49.5Z" fill="#161616"/>
</svg>
