<svg width="26" height="26" viewBox="0 0 26 26" fill="none" xmlns="http://www.w3.org/2000/svg">
<path d="M9.80663 14.2924C10.0011 13.9033 10.1109 13.4642 10.1109 13.0001C10.1109 12.5359 10.0011 12.0968 9.80663 11.7078V14.2924ZM9.80663 14.2924C9.51553 14.8744 9.03645 15.3411 8.44701 15.6168C7.85757 15.8925 7.1923 15.9612 6.55897 15.8116C5.92564 15.6621 5.36135 15.3031 4.95752 14.7928C4.55369 14.2825 4.33398 13.6508 4.33398 13.0001C4.33398 12.3493 4.55369 11.7176 4.95752 11.2073C5.36135 10.697 5.92564 10.338 6.55897 10.1885C7.1923 10.0389 7.85757 10.1076 8.44701 10.3833C9.03645 10.6591 9.51553 11.1258 9.80663 11.7078V14.2924ZM9.80663 14.2924L16.193 17.4856L9.80663 14.2924ZM9.80663 11.7078L16.193 8.51456L9.80663 11.7078ZM16.193 8.51456C16.3627 8.85391 16.5976 9.15651 16.8843 9.40509C17.1709 9.65367 17.5037 9.84335 17.8637 9.9633C18.2237 10.0833 18.6037 10.1311 18.9822 10.1042C19.3607 10.0773 19.7301 9.97609 20.0695 9.80638C20.4088 9.63667 20.7114 9.40179 20.96 9.11513C21.2086 8.82848 21.3982 8.49567 21.5182 8.13571C21.6382 7.77575 21.686 7.39569 21.6591 7.01723C21.6322 6.63876 21.531 6.26931 21.3613 5.92995C21.0185 5.2446 20.4176 4.72347 19.6906 4.48121C18.9636 4.23895 18.1702 4.29539 17.4849 4.63813C16.7995 4.98087 16.2784 5.58183 16.0361 6.3088C15.7938 7.03577 15.8503 7.82921 16.193 8.51456V8.51456ZM16.193 17.4856C15.8503 18.171 15.7939 18.9646 16.0363 19.6917C16.2786 20.4187 16.7999 21.0197 17.4853 21.3625C18.1708 21.7052 18.9644 21.7616 19.6914 21.5193C20.4185 21.2769 21.0195 20.7557 21.3622 20.0702C21.705 19.3847 21.7614 18.5911 21.519 17.8641C21.2767 17.137 20.7554 16.536 20.0699 16.1933C19.7305 16.0236 19.361 15.9224 18.9825 15.8955C18.604 15.8686 18.2238 15.9165 17.8638 16.0365C17.1368 16.2788 16.5358 16.8001 16.193 17.4856V17.4856Z" stroke="#AAAAAA" stroke-width="1.5" stroke-linecap="round" stroke-linejoin="round"/>
</svg>
