<svg width="167" height="40" viewBox="0 0 167 40" fill="none" xmlns="http://www.w3.org/2000/svg">
<path d="M166.249 13.473L166.372 14.9973C164.407 14.3901 162.01 14.1327 160.176 14.7449C157.344 15.6896 156.637 18.6683 156.637 20.5926C156.637 22.5168 157.636 25.6755 161.869 25.6755C163.403 25.6755 164.453 25.4181 165 25.1207V20.8774H162.544C162.557 20.3876 162.557 19.7679 162.544 19.4155L167.001 19.4205V26.4427C165.947 26.7226 164.083 27 162.206 27C156.348 27 154.471 23.8113 154.471 20.4526C154.471 17.2989 155.883 14.1452 159.659 13.2555C161.85 12.7333 164.891 13.1331 166.249 13.473Z" fill="white"/>
<path d="M106.56 20.7345C106.124 20.2472 105.699 19.71 105.289 19.1402C104.942 18.6654 104.67 18.2206 104.45 17.8632C104.06 17.221 103.709 15.959 104.24 15.2168C104.821 14.4071 105.618 14.2797 106.57 14.3246C106.931 14.3321 107.462 14.4096 108.098 14.6495L108.024 13.3375C107.109 13.1126 106.275 13.0127 105.548 13.0002C104.841 12.9927 103.676 13.2126 103.019 13.7724C102.217 14.4546 101.859 15.7316 102.304 16.9836C102.514 17.5833 103.056 18.4505 103.291 18.7628C102.739 19.0452 101.631 19.66 100.86 20.4572C99.7965 21.5592 99.3242 23.6384 100.41 25.1577C101.223 26.2923 102.648 27.002 104.534 26.9895C106.409 26.9745 107.771 26.2398 108.632 25.3302L109.955 26.7371L111.973 26.7421L110.083 24.6804C110.726 23.8708 111.176 21.974 111.147 20.6546H109.549C109.544 21.3043 109.413 22.6338 108.993 23.371C108.407 22.8337 107.245 21.4942 106.565 20.7295M107.804 24.2481C107.433 24.6879 106.748 25.2802 106.001 25.5601C104.938 25.9474 102.922 25.7875 102.099 24.518C101.631 23.8083 101.5 22.4463 102.067 21.6317C102.564 20.917 103.409 20.3372 104.035 19.9424C104.334 20.3297 104.663 20.7795 105.261 21.4393C105.637 21.8541 107.225 23.6534 107.804 24.2481Z" fill="white"/>
<path d="M120.382 21.2124L125.194 13.2656H122.932L119.462 19.6155L116.245 13.2656H113.945L118.253 21.0375V26.7352H120.382V21.2124Z" fill="white"/>
<path d="M129.734 13.2617L124.104 26.7287L126.312 26.7412L127.922 22.7978H134.749L136.282 26.7362H138.401L133.08 13.2642H129.732L129.734 13.2617ZM128.508 21.3484L131.374 14.2263L134.178 21.3484H128.508Z" fill="white"/>
<path d="M141.954 14.8711L149.402 26.7387H152.3L152.32 13.2617H150.532L150.574 25.3193L143.133 13.2617H140.22L140.213 26.7387H141.961L141.954 14.8711Z" fill="white"/>
<path d="M72.3144 13.0117C67.9622 13.0117 65.0566 15.5182 65.0566 19.9989C65.0566 24.4796 67.9622 26.986 72.3144 26.986C76.6665 26.986 79.5721 24.4796 79.5721 19.9989C79.5721 15.5182 76.6665 13.0117 72.3144 13.0117ZM72.3144 25.6191C69.4286 25.6191 67.2154 23.6049 67.2154 19.9989C67.2154 16.3928 69.4286 14.3762 72.3144 14.3762C75.2002 14.3762 77.4133 16.3953 77.4133 19.9989C77.4133 23.6024 75.2002 25.6191 72.3144 25.6191Z" fill="white"/>
<path d="M56.121 13.0117C51.7688 13.0117 48.8633 15.5182 48.8633 19.9989C48.8633 24.4796 51.7688 26.986 56.121 26.986C60.4732 26.986 63.3738 24.4796 63.3738 19.9989C63.3738 15.5182 60.4732 13.0117 56.121 13.0117ZM56.121 25.6191C53.2303 25.6191 51.0146 23.6049 51.0146 19.9989C51.0146 16.3928 53.2278 14.3762 56.121 14.3762C59.0142 14.3762 61.22 16.3953 61.22 19.9989C61.22 23.6024 59.0068 25.6191 56.121 25.6191Z" fill="white"/>
<path d="M43.4368 21.2124L48.2513 13.2656H45.9862L42.5144 19.6155L39.2997 13.2656H37L41.3077 21.0375V26.7352H43.4417L43.4368 21.2124Z" fill="white"/>
<path d="M83.4229 14.8711L90.8785 26.7387H93.7865V13.2617H92.0407V25.3193L84.6099 13.2617H81.6944L81.6895 26.7387H83.4377L83.4229 14.8711Z" fill="white"/>
<path d="M25.0008 0.132812H0.134766V40.0004H25.0008V0.132812Z" fill="#7A716F"/>
<path d="M5.23814 0.132812H4.94141V6.78358H5.23814V0.132812Z" fill="white"/>
<path d="M5.37713 6.91936H4.80859V0H5.37713V6.91936ZM5.08039 6.6483H5.10533V0.268593H5.08039V6.65077V6.6483Z" fill="white"/>
<path d="M11.305 26.4486H11.0057V6.92995H0.138672V6.63672H11.305V26.4486Z" fill="white"/>
<path d="M11.4406 26.5829H10.8695V7.06183H0V6.5H11.4406V26.5829ZM11.1413 26.3143H11.1688V6.76859H0.271801V6.79324H11.1413V26.3118V26.3143Z" fill="white"/>
<path d="M15.4244 20.7578H0.138672V21.0545H15.4244V20.7578Z" fill="white"/>
<path d="M15.5575 21.1854H0V20.6211H15.5575V21.1854ZM0.271801 20.9168H15.2857V20.8922H0.271801V20.9168Z" fill="white"/>
<path d="M24.7285 26.4297H8.76953V26.7264H24.7285V26.4297Z" fill="white"/>
<path d="M24.8641 26.8612H8.63086V26.2969H24.8641V26.8612ZM8.90266 26.5926H24.5898V26.5655H8.90266V26.5926Z" fill="white"/>
<path d="M18.371 26.5781H18.0742V39.7318H18.371V26.5781Z" fill="white"/>
<path d="M18.506 39.87H17.9375V26.4453H18.506V39.87ZM18.2093 39.6015H18.2317V26.7164H18.2093V39.6015Z" fill="white"/>
<path d="M5.262 15.9849C3.86559 15.9849 2.72852 14.4571 2.72852 12.5769C2.72852 10.6968 3.86559 9.16406 5.262 9.16406C6.65841 9.16406 7.79798 10.6943 7.79798 12.5769C7.79798 14.4595 6.65841 15.9849 5.262 15.9849ZM5.262 9.45976C4.03266 9.45976 3.02525 10.8569 3.02525 12.5745C3.02525 14.292 4.03266 15.6892 5.262 15.6892C6.49134 15.6892 7.50124 14.2895 7.50124 12.5745C7.50124 10.8594 6.49633 9.45976 5.262 9.45976Z" fill="white"/>
<path d="M5.26384 16.1206C3.79262 16.1206 2.5957 14.5313 2.5957 12.5772C2.5957 10.6231 3.79262 9.03125 5.26384 9.03125C6.73506 9.03125 7.93697 10.6206 7.93697 12.5772C7.93697 14.5337 6.73755 16.1206 5.26384 16.1206ZM5.26384 9.29984C3.94224 9.29984 2.8675 10.7709 2.8675 12.5772C2.8675 14.3834 3.94224 15.852 5.26384 15.852C6.58544 15.852 7.66516 14.3834 7.66516 12.5772C7.66516 10.7709 6.58794 9.29984 5.26384 9.29984ZM5.26384 15.8274C3.95471 15.8274 2.88995 14.3686 2.88995 12.5772C2.88995 10.7857 3.95471 9.32695 5.26384 9.32695C6.57297 9.32695 7.64023 10.7833 7.64023 12.5772C7.64023 14.3711 6.57547 15.8274 5.26384 15.8274ZM5.26384 9.59554C4.10432 9.59554 3.16175 10.9336 3.16175 12.5772C3.16175 14.2208 4.10432 15.5588 5.26384 15.5588C6.42336 15.5588 7.36843 14.2208 7.36843 12.5772C7.36843 10.9336 6.42336 9.59554 5.26384 9.59554Z" fill="white"/>
<path d="M4.49532 21.035L4.3457 20.7812C6.0189 19.8251 5.07882 17.1047 5.06884 17.0727L5.34812 16.9766C5.39052 17.0948 6.37798 19.9582 4.49282 21.035" fill="white"/>
<path d="M4.44833 21.218L4.16406 20.7326L4.28126 20.666C5.77492 19.8134 5.03432 17.3961 4.94455 17.1226L4.90466 16.9969L5.02684 16.9451L5.43579 16.8047L5.48068 16.9304C5.52556 17.056 6.54793 20.018 4.56553 21.149L4.44833 21.218ZM4.53311 20.8262L4.54558 20.8459C5.99435 19.8947 5.43829 17.7066 5.26623 17.1497L5.24129 17.1595C5.41335 17.7435 5.92703 19.9071 4.53311 20.8287" fill="white"/>
<path d="M18.2234 23.4692C16.6475 23.4692 15.3633 22.2716 15.3633 20.8005C15.3633 19.3294 16.645 18.1367 18.2234 18.1367C19.8019 18.1367 21.0811 19.3269 21.0811 20.8005C21.0811 22.274 19.7994 23.4692 18.2234 23.4692ZM18.2234 18.4324C16.8121 18.4324 15.6625 19.4945 15.6625 20.8005C15.6625 22.1065 16.8121 23.1685 18.2234 23.1685C19.6348 23.1685 20.7818 22.1065 20.7818 20.8005C20.7818 19.4945 19.6348 18.4324 18.2234 18.4324Z" fill="white"/>
<path d="M18.2214 23.601C16.5706 23.601 15.2266 22.3443 15.2266 20.7993C15.2266 19.2543 16.5706 18 18.2214 18C19.8721 18 21.2162 19.2543 21.2162 20.7993C21.2162 22.3443 19.8746 23.601 18.2214 23.601ZM18.2214 18.2711C16.7202 18.2711 15.4984 19.4046 15.4984 20.7993C15.4984 22.194 16.7202 23.3324 18.2214 23.3324C19.7225 23.3324 20.9419 22.1965 20.9419 20.7993C20.9419 19.4021 19.7225 18.2711 18.2214 18.2711ZM18.2214 23.3029C16.7352 23.3029 15.5233 22.1792 15.5233 20.7993C15.5233 19.4194 16.7327 18.2957 18.2214 18.2957C19.71 18.2957 20.9169 19.4169 20.9169 20.7993C20.9169 22.1817 19.71 23.3029 18.2214 23.3029ZM18.2214 18.5668C16.8848 18.5668 15.7976 19.5697 15.7976 20.7993C15.7976 22.0289 16.8848 23.0318 18.2214 23.0318C19.5579 23.0318 20.6426 22.0289 20.6426 20.7993C20.6426 19.5697 19.5554 18.5668 18.2214 18.5668Z" fill="white"/>
</svg>
