<svg width="183" height="40" viewBox="0 0 183 40" fill="none" xmlns="http://www.w3.org/2000/svg">
<path d="M118.848 14.7461H106.445V15.8905H118.848V14.7461Z" fill="#1C1C1C"/>
<path d="M156.86 14.3046H159.422V25.3884H156.86V14.3046ZM161.412 12.625H154.879V29.0799H156.869V27.068H159.431V28.1847H161.421V12.6342L161.412 12.625Z" fill="#1C1C1C"/>
<path d="M116.682 20.0352H110.85V21.0503H116.682V20.0352Z" fill="#1C1C1C"/>
<path d="M116.682 22.3945H110.85V23.4097H116.682V22.3945Z" fill="#1C1C1C"/>
<path d="M153.873 15.75H143.193V17.4296H153.873V15.75Z" fill="#1C1C1C"/>
<path d="M149.608 12.4453H147.617V29.9984H149.608V12.4453Z" fill="#1C1C1C"/>
<path d="M111.405 12.5156C111.368 15.8103 109.028 19.5849 106.457 20.9046V22.0489C108.927 21.3568 112.658 17.4622 113.009 12.5156H111.405Z" fill="#1C1C1C"/>
<path d="M183.001 13.1562H164.756V14.9559H183.001V13.1562Z" fill="#1C1C1C"/>
<path d="M171.735 10C171.551 17.7522 169.238 23.7601 164.465 27.6177V29.5373C169.395 26.7502 173.891 20.0224 174.214 10H171.735Z" fill="#1C1C1C"/>
<path d="M180.351 17.5117H171.552V19.3113H178.158L178.039 18.8499C177.946 23.8334 172.971 26.9343 167.939 28.1709V29.8506C174.251 28.697 179.909 25.0332 180.351 18.6469V17.5117Z" fill="#1C1C1C"/>
<path d="M172.86 18.9062C173.598 23.0407 178.739 26.5108 182.996 27.8582V29.9162C179.578 29.5285 172.731 25.7632 171.211 19.1185L172.86 18.9062Z" fill="#1C1C1C"/>
<path d="M103.928 19.3158C103.928 16.7041 104.702 14.323 105.982 12.5234H105.116C103.577 14.2308 102.619 16.6395 102.619 19.3158C102.619 21.9921 103.587 24.4285 105.135 26.1358H106.001C104.711 24.3362 103.928 21.946 103.928 19.3158Z" fill="#1C1C1C"/>
<path d="M135.173 19.3158C135.173 16.7041 134.39 14.323 133.109 12.5234H133.984C135.523 14.2308 136.481 16.6395 136.481 19.3158C136.481 21.9921 135.514 24.4285 133.966 26.1358H133.1C134.39 24.3362 135.182 21.946 135.182 19.3158" fill="#1C1C1C"/>
<path d="M83.7505 13.9258H75.3008V15.2732H83.7505V13.9258Z" fill="#1C1C1C"/>
<path d="M73.3639 12.8184V14.2304L70.6641 13.2245V11.7109L73.3639 12.8184Z" fill="#1C1C1C"/>
<path d="M73.3639 15.9629V17.3749L70.6641 16.3598V14.8555L73.3639 15.9629Z" fill="#1C1C1C"/>
<path d="M85.2052 18.457H74.332V19.7952H85.2052V18.457Z" fill="#1C1C1C"/>
<path d="M80.9281 11.5352H79.334V19.6196H80.9281V11.5352Z" fill="#1C1C1C"/>
<path d="M78.5591 20.3633C77.4718 22.4305 75.5183 24.4885 73.832 25.2453V26.3435C76.8636 25.2176 79.3055 22.7258 80.3559 20.3633H78.5591Z" fill="#1C1C1C"/>
<path d="M70.4062 24.8568C71.8621 23.7309 72.1846 20.8423 72.2123 18.4336H73.318C73.2628 21.1653 73.2904 25.7705 70.4062 27.4132V24.8568Z" fill="#1C1C1C"/>
<path d="M81.806 25.015C81.2808 25.1258 80.4238 25.1904 79.8802 25.1904H73.4023V26.5932H79.6314C80.1566 26.5932 81.0412 26.5101 81.5941 26.4178C82.1562 26.3255 82.921 26.1225 83.3541 25.8641V24.5352C82.8565 24.7843 82.2391 24.9135 81.806 25.015Z" fill="#1C1C1C"/>
<path d="M80.1186 22.2656C81.4824 23.3546 82.8185 25.3849 83.4358 26.8892H85.1221C84.4034 25.0804 82.6065 22.9762 81.7035 22.2656H80.1094H80.1186Z" fill="#1C1C1C"/>
<path d="M50.6607 13.9258H42.2109V15.2732H50.6607V13.9258Z" fill="#1C1C1C"/>
<path d="M40.2766 12.8184V14.2304L37.5859 13.2245V11.7109L40.2766 12.8184Z" fill="#1C1C1C"/>
<path d="M40.2766 15.9629V17.3749L37.5859 16.3598V14.8555L40.2766 15.9629Z" fill="#1C1C1C"/>
<path d="M52.1173 18.457H41.2441V19.7952H52.1173V18.457Z" fill="#1C1C1C"/>
<path d="M47.1787 11.3047H45.5938V19.3891H47.1787V11.3047Z" fill="#1C1C1C"/>
<path d="M45.1528 20.1797C44.0655 22.2469 42.112 24.3049 40.4258 25.0617V26.1599C43.4574 25.034 45.8992 22.5423 46.9497 20.1797H45.1528Z" fill="#1C1C1C"/>
<path d="M37 24.6732C38.4559 23.5473 38.7784 20.6587 38.8061 18.25H39.9118C39.8565 20.9817 39.8842 25.5869 37.0092 27.2296V24.6732H37Z" fill="#1C1C1C"/>
<path d="M48.3997 24.8314C47.8745 24.9422 47.0176 25.0068 46.4739 25.0068H39.9961V26.4096H46.2251C46.7504 26.4096 47.635 26.3265 48.1878 26.2342C48.7407 26.142 49.5147 25.9389 49.9478 25.6805V24.3516C49.4502 24.6007 48.842 24.7299 48.3997 24.8314Z" fill="#1C1C1C"/>
<path d="M46.7123 22.082C48.0761 23.171 49.4214 25.2013 50.0296 26.7056H51.7158C50.9971 24.8968 49.2003 22.7926 48.2973 22.082H46.7031H46.7123Z" fill="#1C1C1C"/>
<path d="M143.188 11.986V13.638C145.242 13.5457 151.748 13.2965 153.112 10.168H150.393C148.025 11.9676 144.183 11.8568 143.188 11.986Z" fill="#1C1C1C"/>
<path d="M142.865 24.5V26.2719C144.883 25.589 148.311 22.2205 148.523 18.6859L147.454 16.7109C147.242 20.0425 144.469 23.6325 142.865 24.5092" fill="#1C1C1C"/>
<path d="M148.856 17.56L148.479 19.1843C149.483 20.7347 151.694 23.3741 153.547 24.3985V21.9806C151.482 20.6886 149.529 18.6767 148.856 17.5508" fill="#1C1C1C"/>
<path d="M93.7421 15.6758L93.0879 17.0416C93.9633 19.4596 97.3727 25.1999 100.874 27.3409V25.1445C97.1515 22.1728 94.424 17.5123 93.7513 15.6758" fill="#1C1C1C"/>
<path d="M94.2226 13.152V11.6016H92.2876V13.4842C92.177 18.5693 89.1731 23.6082 86.123 25.6293V27.0413C89.3666 26.0077 94.2319 19.9905 94.2319 13.1428" fill="#1C1C1C"/>
<path d="M117.113 25.2469C117.113 25.6437 116.791 25.9759 116.385 25.9759H114.469V24.9608H115.759V18.556H111.078V25.9944H109.732V17.5039H117.113V25.2561V25.2469Z" fill="#1C1C1C"/>
<path d="M68.0214 14.6085H57.3418L58.0237 13.418H68.0214V14.6085Z" fill="#1C1C1C"/>
<path d="M60.9647 19.3086C60.9187 22.9909 59.2324 25.3626 54.0723 26.0733V27.3468C59.5918 26.7193 62.4851 24.2921 62.7523 19.3086H60.9647Z" fill="#1C1C1C"/>
<path d="M58.4324 11.3008C57.9901 13.2204 55.9813 14.9646 54.4609 15.6383V16.8842C56.8291 16.1828 59.8146 13.5341 60.22 11.3008H58.4324Z" fill="#1C1C1C"/>
<path d="M64.5775 14.1445C62.7715 17.0331 58.6065 18.8327 53.8887 19.6818V20.983C62.8728 19.2573 65.0475 16.3133 66.5679 14.1445H64.5775Z" fill="#1C1C1C"/>
<path d="M58.6354 13.543L57.7969 14.272C59.3173 16.5977 63.8969 19.4217 68.5042 20.4092V18.628C64.7999 18.185 59.9807 15.7671 58.6354 13.543Z" fill="#1C1C1C"/>
<path d="M65.5563 25.9265C65.9618 25.2897 66.2566 23.8869 66.3119 22.5119H55.623V21.2383H67.8507V22.0689C67.7586 23.8869 67.4453 25.465 66.9385 26.4525C66.7081 26.9232 66.2935 27.3016 65.8235 27.3016H63.7318V26.1757H65.1509C65.3444 26.1757 65.4458 26.1387 65.5655 25.9265" fill="#1C1C1C"/>
<path d="M131.123 15.7227H127.031V16.7378H131.123V15.7227Z" fill="#1C1C1C"/>
<path d="M128.651 18.1914C129.075 21.4584 131.139 23.9686 133.046 24.8823V26.285C131.517 26.0266 128.255 22.8612 127.748 18.1914H128.651Z" fill="#1C1C1C"/>
<path d="M124.488 24.8071V26.0714C126.119 25.8684 129.344 24.844 130.561 23.5612L129.952 23.0352C129.059 23.7735 127.013 24.5025 124.488 24.7979" fill="#1C1C1C"/>
<path d="M131.906 18.4802C131.906 18.8862 131.575 19.2092 131.178 19.2092H128.082V18.1941H130.552V14.198H127.317V24.6819L125.963 25.1157V13.1367H131.897V18.4709L131.906 18.4802Z" fill="#1C1C1C"/>
<path d="M132.641 19.7969H131.194C130.964 20.812 130.227 21.4211 129.352 21.7903L129.895 22.584C131.351 21.8826 132.346 20.9505 132.641 19.7969Z" fill="#1C1C1C"/>
<path d="M125.188 13.1342H120.719V26.1099H122.064V14.214H123.704C123.704 14.8046 123.391 16.2443 122.672 16.918L122.488 17.0564C122.488 17.0564 123.732 18.1454 123.787 19.9174C123.833 21.3201 123.4 21.6985 122.534 21.7446V22.6768C123.511 22.6122 123.999 22.4368 124.349 22.1692C125.05 21.6339 125.252 20.5726 124.985 19.4282C124.736 18.3669 124.239 17.5733 123.833 17.0657C124.847 16.0044 125.197 14.3617 125.179 13.5403V13.125L125.188 13.1342Z" fill="#1C1C1C"/>
<path d="M7.35577 12.572C7.35577 10.912 6.39429 9.5625 5.21989 9.5625C4.04549 9.5625 3.08398 10.912 3.08398 12.572C3.08398 14.2319 4.03862 15.5814 5.21989 15.5814C6.40116 15.5814 7.35577 14.2319 7.35577 12.572Z" fill="#81746E"/>
<path d="M11.4895 6.4305V20.695H15.3492C15.4454 19.2173 16.7709 18.0432 18.3848 18.0432C19.9987 18.0432 21.4273 19.3117 21.4273 20.8704C21.4273 22.4291 20.0606 23.7045 18.3848 23.7045C16.8533 23.7045 15.5828 22.6451 15.3767 21.2686H11.4964V26.4238H24.9985V0H5.33594V6.4305H11.4964H11.4895Z" fill="#7A716F"/>
<path d="M8.63872 26.9983V26.4247H10.912V21.2695H4.4356L4.38754 21.2965L4.36693 21.2695H0.00585938V40.001H18.0957V26.9983H8.63872Z" fill="#7A716F"/>
<path d="M2.50675 12.5696C2.50675 10.5926 3.72237 8.98664 5.21955 8.98664C6.71674 8.98664 7.93921 10.5926 7.93921 12.5696C7.93921 14.5467 6.72361 16.1459 5.21955 16.1459C3.7155 16.1459 2.50675 14.5399 2.50675 12.5696ZM4.88989 17.158L4.84868 17.0298L4.9723 16.9758L5.38437 16.8341L5.43245 16.9623C5.47366 17.0703 6.26347 19.351 5.13714 20.6938H10.9061V6.99609H0V20.6938H4.26491C5.70029 19.8031 4.97232 17.4279 4.88304 17.1513" fill="#7A716F"/>
<path d="M24.9971 26.9961H18.6719V39.9988H24.9971V26.9961Z" fill="#7A716F"/>
<path d="M18.3855 23.1324C19.7453 23.1324 20.8442 22.1203 20.8442 20.8787C20.8442 19.6371 19.7384 18.625 18.3855 18.625C17.0325 18.625 15.9199 19.6371 15.9199 20.8787C15.9199 22.1203 17.0256 23.1324 18.3855 23.1324Z" fill="#81746E"/>
<path d="M18.3852 18.6167C19.745 18.6167 20.8439 19.6289 20.8439 20.8704C20.8439 22.112 19.7381 23.1242 18.3852 23.1242C17.0322 23.1242 15.9196 22.112 15.9196 20.8704C15.9196 19.6289 17.0253 18.6167 18.3852 18.6167ZM11.4899 26.4238V21.2686H15.3702C15.5762 22.6451 16.8468 23.7045 18.3783 23.7045C20.0541 23.7045 21.4208 22.4359 21.4208 20.8704C21.4208 19.305 20.0541 18.0432 18.3783 18.0432C16.7026 18.0432 15.4457 19.2173 15.3427 20.695H11.483V6.4305H5.32257V0H4.74567V6.4305H0V6.99731H10.9061V20.695H5.13714C6.26347 19.3522 5.47366 17.0715 5.43245 16.9636L5.38437 16.8354L4.9723 16.9771L4.84868 17.031L4.88989 17.1592C4.97917 17.4292 5.70717 19.8111 4.27179 20.7018H0.00687453V21.2686H4.36795L4.38168 21.2956L4.42976 21.2686H10.9061V26.4238H8.63286V26.9973H18.083V40H18.6599V26.9973H24.9852V26.4238H11.483H11.4899Z" fill="white"/>
<path d="M3.08375 12.5713C3.08375 10.9114 4.03839 9.56182 5.21965 9.56182C6.40092 9.56182 7.35554 10.9114 7.35554 12.5713C7.35554 14.2312 6.39405 15.5807 5.21965 15.5807C4.04526 15.5807 3.08375 14.2312 3.08375 12.5713ZM7.93243 12.5713C7.93243 10.5942 6.71683 8.98828 5.21278 8.98828C3.70873 8.98828 2.5 10.5942 2.5 12.5713C2.5 14.5483 3.71559 16.1543 5.21278 16.1543C6.70997 16.1543 7.93243 14.5483 7.93243 12.5713Z" fill="white"/>
<path d="M4.75153 0H0.00585938V6.4305H4.75153V0Z" fill="#7A716F"/>
</svg>
