<svg width="200" height="40" viewBox="0 0 200 40" fill="none" xmlns="http://www.w3.org/2000/svg">
<path d="M158.516 11.0859C155.128 11.0859 152.666 13.5678 152.666 16.9796C152.666 20.3915 155.128 22.8734 158.516 22.8734C161.905 22.8734 164.366 20.394 164.366 16.9796C164.366 13.5653 161.902 11.0859 158.516 11.0859ZM158.509 12.9611C160.514 12.9611 161.803 14.5041 161.803 16.8894C161.803 19.2747 160.514 20.8152 158.509 20.8152C156.504 20.8152 155.212 19.2747 155.212 16.8894C155.212 14.5041 156.506 12.9611 158.509 12.9611Z" fill="white"/>
<path d="M188.515 20.6039C192.173 20.6039 194.831 17.8701 194.831 14.1085C194.831 10.3469 192.173 7.61816 188.515 7.61816C184.856 7.61816 182.195 10.3457 182.195 14.1085C182.195 17.8714 184.851 20.6039 188.515 20.6039ZM188.507 9.70014C190.772 9.70014 192.232 11.4286 192.232 14.1073C192.232 16.7859 190.772 18.5144 188.507 18.5144C186.242 18.5144 184.782 16.7846 184.782 14.1073C184.782 11.4299 186.244 9.70014 188.507 9.70014Z" fill="white"/>
<path d="M165.625 9.96195H160.046V6.7832L157.281 6.79323L157.284 9.96195H151.414L151.41 12.2746H165.625V9.96195Z" fill="white"/>
<path d="M171.168 7.62305H168.552V24.8705C167.792 25.2628 166.981 25.6501 166.199 25.8657C165.41 26.0851 164.1 26.2229 163.275 26.2229H159.922V21.7908H157.305V26.2229H151.178V28.4603H162.895C163.685 28.4603 165 28.33 165.876 28.0981C166.708 27.8825 167.609 27.5027 168.552 26.9875V33.1432H171.168V19.3077H175.212V17.1129H171.168V7.62305Z" fill="white"/>
<path d="M177.285 22.4844V24.7406H187.28V33.2026H190.007V24.7406H200V22.4844H177.285Z" fill="white"/>
<path d="M102.625 20.4421C105.614 20.4421 107.779 18.2485 107.779 15.224C107.779 12.1994 105.614 10.0059 102.625 10.0059C99.637 10.0059 97.4688 12.1981 97.4688 15.224C97.4688 18.2498 99.6394 20.4421 102.625 20.4421ZM102.62 11.6805C104.475 11.6805 105.675 13.073 105.675 15.2215C105.675 17.3699 104.475 18.7675 102.62 18.7675C100.765 18.7675 99.5657 17.3736 99.5657 15.2215C99.5657 13.0693 100.768 11.6805 102.62 11.6805Z" fill="white"/>
<path d="M93.5293 20.2707H91.4299V15.2482H87.7773V13.4244H91.4299V9.32812H93.5293V20.2707Z" fill="white"/>
<path d="M56.4023 21.2188V23.0212H64.3974V29.7923H66.5828V23.0212H74.5718V21.2188H56.4023Z" fill="white"/>
<path d="M93.5307 29.7434V21.2676H91.4337V23.6755H82.3963V21.2676H80.3066V29.7434H93.5307ZM91.4337 27.9397H82.3963V25.4328H91.4337V27.9397Z" fill="white"/>
<path d="M87.0008 19.717V10.335H84.9038V13.1991H79.428V10.335H77.3359V19.717H87.0008ZM84.9038 17.9146H79.428V14.9552H84.9038V17.9146Z" fill="white"/>
<path d="M53.2119 20.2707H51.1186V15.2482H47.4648V13.4244H51.1186V9.32812H53.2119V20.2707Z" fill="white"/>
<path d="M53.2123 29.7434V21.2676H51.1203V23.6755H42.0779V21.2676H39.9883V29.7434H53.2123ZM51.1203 27.9397H42.0779V25.4328H51.1203V27.9397Z" fill="white"/>
<path d="M46.6873 19.717V10.335H44.5903V13.1991H39.1121V10.335H37.0176V19.717H46.6885H46.6873ZM44.5903 17.9146H39.1109V14.9552H44.5903V17.9146Z" fill="white"/>
<path d="M72.245 10.2383H58.7324V18.8094H72.245V10.2383ZM60.8257 12.0382H70.1468V17.0081H60.8257V12.0382Z" fill="white"/>
<path d="M113.878 9.32812H111.781V23.8192H113.878V9.32812Z" fill="white"/>
<path d="M102.811 22.4043H100.65V29.6129H114.513V27.8104H102.811V22.4043Z" fill="white"/>
<path d="M129.988 19.6877C132.476 19.6877 134.282 17.8301 134.282 15.273C134.282 12.716 132.476 10.8584 129.988 10.8584C127.501 10.8584 125.688 12.7122 125.688 15.273C125.688 17.8338 127.497 19.6877 129.988 19.6877ZM129.983 12.2735C131.521 12.2735 132.516 13.4468 132.516 15.273C132.516 17.0993 131.521 18.265 129.983 18.265C128.446 18.265 127.453 17.0868 127.453 15.273C127.453 13.4593 128.445 12.2735 129.983 12.2735Z" fill="white"/>
<path d="M137.796 20.9639H122.355V22.4981H125.953V28.2075H127.729V22.4981H132.414V28.2075H134.191V22.4981H137.796V20.9639Z" fill="white"/>
<path d="M119.395 19.5173C119.395 16.1794 120.37 13.141 121.97 10.8447H120.883C118.956 13.022 117.752 16.1042 117.752 19.5173C117.752 22.9305 118.972 26.0353 120.911 28.2162H121.994C120.378 25.9199 119.395 22.8653 119.395 19.5173Z" fill="white"/>
<path d="M140.752 19.5173C140.752 16.1794 139.776 13.141 138.171 10.8447H139.264C141.185 13.022 142.39 16.1042 142.39 19.5173C142.39 22.9305 141.179 26.0353 139.238 28.2162H138.15C139.769 25.9199 140.752 22.8653 140.752 19.5173Z" fill="white"/>
<path d="M24.0154 0.133789H0.130859V39.8643H24.0154V0.133789Z" fill="#78726B"/>
<path d="M5.08735 0.133789H4.79883V6.80714H5.08735V0.133789Z" fill="white"/>
<path d="M5.21973 6.94284H4.66602V0H5.21973V6.94284ZM4.93121 6.6721H4.95576V0.269491H4.93121V6.6721Z" fill="white"/>
<path d="M10.9775 26.5383H10.6878V6.95569H0.132812V6.66113H10.9775V26.5383Z" fill="white"/>
<path d="M11.1099 26.6733H10.5549V7.08944H0V6.52539H11.1099V26.6733ZM10.8189 26.4038H10.8447V6.79488H0.265193V6.81995H10.8189V26.4038Z" fill="white"/>
<path d="M14.9787 20.8271H0.132812V21.123H14.9787V20.8271Z" fill="white"/>
<path d="M15.1099 21.2589H0V20.6924H15.1099V21.2589ZM0.263966 20.9894H14.8459V20.9644H0.265193V20.9894H0.263966Z" fill="white"/>
<path d="M24.0159 26.5166H8.51562V26.8137H24.0159V26.5166Z" fill="white"/>
<path d="M24.1483 26.9474H8.38281V26.3809H24.1483V26.9474ZM8.64801 26.6779H23.8843V26.6503H8.64801V26.6779Z" fill="white"/>
<path d="M17.84 26.667H17.5527V39.8658H17.84V26.667Z" fill="white"/>
<path d="M17.9724 39.9998H17.4199V26.5303H17.9724V39.9998ZM17.6851 39.7303H17.7072V26.801H17.6851V39.7303Z" fill="white"/>
<path d="M5.11347 16.0421C3.75804 16.0421 2.6543 14.5091 2.6543 12.6214C2.6543 10.7337 3.75927 9.19824 5.11347 9.19824C6.46768 9.19824 7.57756 10.7337 7.57756 12.6214C7.57756 14.5091 6.47136 16.0421 5.11347 16.0421ZM5.11347 9.49531C3.91888 9.49531 2.94036 10.8954 2.94036 12.6214C2.94036 14.3474 3.91765 15.7475 5.11347 15.7475C6.3093 15.7475 7.28904 14.3436 7.28904 12.6214C7.28904 10.8992 6.31176 9.49531 5.11347 9.49531Z" fill="white"/>
<path d="M5.11326 16.1768C3.68416 16.1768 2.52148 14.5812 2.52148 12.622C2.52148 10.6629 3.68416 9.06348 5.11326 9.06348C6.54236 9.06348 7.70872 10.6591 7.70872 12.622C7.70872 14.5849 6.54481 16.1768 5.11326 16.1768ZM5.11326 9.33297C3.83026 9.33297 2.78545 10.8083 2.78545 12.6208C2.78545 14.4332 3.83026 15.906 5.11326 15.906C6.39625 15.906 7.44475 14.432 7.44475 12.6208C7.44475 10.8095 6.39871 9.33297 5.11326 9.33297ZM5.11326 15.8822C3.84131 15.8822 2.80878 14.4195 2.80878 12.622C2.80878 10.8246 3.84254 9.36054 5.11326 9.36054C6.38398 9.36054 7.4202 10.8233 7.4202 12.622C7.4202 14.4207 6.3852 15.8822 5.11326 15.8822ZM5.11326 9.63004C3.98741 9.63004 3.07274 10.9712 3.07274 12.6208C3.07274 14.2703 3.98864 15.6115 5.11326 15.6115C6.23787 15.6115 7.15623 14.2703 7.15623 12.6208C7.15623 10.9712 6.2391 9.63004 5.11326 9.63004Z" fill="white"/>
<path d="M4.36558 21.1034L4.2207 20.849C5.84624 19.8901 4.93157 17.1588 4.92297 17.1287L5.19431 17.0322C5.23482 17.1513 6.19369 20.0242 4.36435 21.1034" fill="white"/>
<path d="M4.31726 21.2872L4.04102 20.7997L4.1552 20.7332C5.60517 19.8784 4.88693 17.4517 4.79976 17.1785L4.76048 17.0531L4.87957 17.0017L5.27736 16.8613L5.32156 16.9879C5.36453 17.1133 6.35655 20.0864 4.43144 21.2196L4.31726 21.2872ZM4.40075 20.8949L4.4118 20.915C5.81879 19.9611 5.27736 17.7651 5.11161 17.2048L5.08706 17.2135C5.2528 17.8002 5.75372 19.9686 4.39952 20.8949" fill="white"/>
<path d="M17.6971 23.5431C16.1661 23.5431 14.9199 22.341 14.9199 20.8657C14.9199 19.3904 16.1661 18.1934 17.6971 18.1934C19.2281 18.1934 20.473 19.3879 20.473 20.8657C20.473 22.3435 19.2281 23.5431 17.6971 23.5431ZM17.6971 18.4904C16.3269 18.4904 15.2109 19.5559 15.2109 20.8657C15.2109 22.1756 16.3269 23.2422 17.6971 23.2422C19.0673 23.2422 20.182 22.1768 20.182 20.8657C20.182 19.5546 19.0685 18.4904 17.6971 18.4904Z" fill="white"/>
<path d="M17.6988 23.6788C16.0954 23.6788 14.7891 22.4166 14.7891 20.8673C14.7891 19.318 16.0942 18.0596 17.6988 18.0596C19.3035 18.0596 20.6074 19.3193 20.6074 20.8673C20.6074 22.4153 19.3035 23.6788 17.6988 23.6788ZM17.6988 18.3303C16.2415 18.3303 15.0543 19.4672 15.0543 20.8673C15.0543 22.2674 16.2415 23.4093 17.6988 23.4093C19.1562 23.4093 20.3422 22.2686 20.3422 20.8673C20.3422 19.4659 19.1574 18.3303 17.6988 18.3303ZM17.6988 23.3792C16.255 23.3792 15.0788 22.2523 15.0788 20.8673C15.0788 19.4822 16.255 18.3566 17.6988 18.3566C19.1427 18.3566 20.3152 19.4822 20.3152 20.8673C20.3152 22.2523 19.1414 23.3792 17.6988 23.3792ZM17.6988 18.6261C16.4011 18.6261 15.3452 19.6314 15.3452 20.8673C15.3452 22.1032 16.4011 23.1072 17.6988 23.1072C18.9966 23.1072 20.0512 22.1019 20.0512 20.8673C20.0512 19.6326 18.9966 18.6261 17.6988 18.6261Z" fill="white"/>
</svg>
