<svg width="80" height="80" viewBox="0 0 80 80" fill="none" xmlns="http://www.w3.org/2000/svg">
<path d="M79.2467 28C78.5713 20.9424 75.697 14.2754 71.0297 8.94C65.6934 4.29127 59.0396 1.42465 51.9967 0.74C48.5107 0.269064 44.9981 0.0218919 41.4805 0L38.5016 0C34.9906 0.0220338 31.4847 0.269207 28.0054 0.74C20.9555 1.42676 14.2985 4.30875 8.97235 8.98C4.31387 14.3053 1.44028 20.9568 0.755352 28C0.186529 31.9736 -0.0608504 35.9866 0.0156216 40C-0.0663445 44.0128 0.174343 48.0257 0.735359 52C1.42136 59.0548 4.29428 65.7188 8.95236 71.06C14.2941 75.7125 20.9554 78.5794 28.0054 79.26C31.4848 79.7301 34.9907 79.9772 38.5016 80H41.4605C44.9848 79.9789 48.504 79.7318 51.9967 79.26C59.0536 78.5773 65.7181 75.695 71.0497 71.02C75.701 65.6921 78.5674 59.0409 79.2467 52C79.8155 48.0264 80.0629 44.0134 79.9865 40C80.0618 35.9866 79.8144 31.9737 79.2467 28Z" fill="#EEF0F2"/>
<path d="M79.2467 28C78.5713 20.9424 75.697 14.2754 71.0297 8.94C65.6934 4.29127 59.0396 1.42465 51.9967 0.74C48.5107 0.269064 44.9981 0.0218918 41.4805 0L38.5016 0C34.9906 0.0220338 31.4847 0.269207 28.0054 0.74C20.9555 1.42676 14.2985 4.30874 8.97235 8.98C4.31387 14.3053 1.44028 20.9568 0.755352 28C0.186529 31.9736 -0.0608504 35.9866 0.0156216 40C-0.0663445 44.0128 0.174343 48.0257 0.735359 52C1.42136 59.0548 4.29428 65.7188 8.95236 71.06C14.2941 75.7125 20.9554 78.5794 28.0054 79.26C31.4848 79.73 34.9907 79.9772 38.5016 80H41.4605C44.9848 79.9789 48.504 79.7318 51.9967 79.26C59.0536 78.5773 65.7181 75.695 71.0497 71.02C75.701 65.6921 78.5674 59.0409 79.2467 52C79.8155 48.0264 80.0629 44.0134 79.9865 40C80.0618 35.9866 79.8144 31.9737 79.2467 28Z" fill="#EEF0F2"/>
<mask id="mask0_4696_97993" style="mask-type:alpha" maskUnits="userSpaceOnUse" x="0" y="0" width="80" height="80">
<path d="M79.2467 28C78.5713 20.9424 75.697 14.2754 71.0297 8.94C65.6934 4.29127 59.0396 1.42465 51.9967 0.74C48.5107 0.269064 44.9981 0.0218918 41.4805 0L38.5016 0C34.9906 0.0220338 31.4847 0.269207 28.0054 0.74C20.9555 1.42676 14.2985 4.30874 8.97235 8.98C4.31387 14.3053 1.44028 20.9568 0.755352 28C0.186529 31.9736 -0.0608504 35.9866 0.0156216 40C-0.0663445 44.0128 0.174343 48.0257 0.735359 52C1.42136 59.0548 4.29428 65.7188 8.95236 71.06C14.2941 75.7125 20.9554 78.5794 28.0054 79.26C31.4848 79.73 34.9907 79.9772 38.5016 80H41.4605C44.9848 79.9789 48.504 79.7318 51.9967 79.26C59.0536 78.5773 65.7181 75.695 71.0497 71.02C75.701 65.6921 78.5674 59.0409 79.2467 52C79.8155 48.0264 80.0629 44.0134 79.9865 40C80.0618 35.9866 79.8144 31.9737 79.2467 28Z" fill="#EEF0F2"/>
</mask>
<g mask="url(#mask0_4696_97993)">
<path fill-rule="evenodd" clip-rule="evenodd" d="M8.13389 35.8144C6.38056 38.2445 4.20181 40.2531 2.12234 42.1701L2.12231 42.1701C-1.72576 45.7176 -5.23387 48.9517 -5.07708 53.9632C-4.91336 59.1966 -0.1772 63.4118 4.57264 67.6392C6.84783 69.6641 9.12615 71.6919 10.9066 73.8356C17.846 83.6873 29.4482 89.9698 42.3934 89.5648C55.3541 89.1594 66.5523 82.1475 72.8582 71.8611C74.2092 69.9727 75.7668 68.1483 77.3134 66.3369C81.4432 61.4998 85.4936 56.7557 85.3177 51.1341C85.1504 45.7871 81.9526 42.6888 78.2429 39.0946C76.6009 37.5037 74.8587 35.8157 73.2345 33.7925C66.5928 22.4638 54.125 15.0258 40.0752 15.4653C26.0314 15.9047 14.0571 24.1007 8.13389 35.8144Z" fill="#F7C40F"/>
</g>
<circle cx="47.6507" cy="37.4534" r="2.41042" fill="#161616"/>
<circle cx="32.4475" cy="37.4534" r="2.41042" fill="#161616"/>
<ellipse cx="40.0505" cy="41.6253" rx="3.15209" ry="1.01979" fill="#161616"/>
</svg>
