<svg width="80" height="80" viewBox="0 0 80 80" fill="none" xmlns="http://www.w3.org/2000/svg">
<path d="M79.2467 28C78.5713 20.9424 75.697 14.2754 71.0297 8.94C65.6934 4.29127 59.0396 1.42465 51.9967 0.74C48.5107 0.269064 44.9981 0.0218918 41.4805 0L38.5016 0C34.9906 0.0220338 31.4847 0.269207 28.0054 0.74C20.9555 1.42676 14.2985 4.30874 8.97235 8.98C4.31387 14.3053 1.44028 20.9568 0.755352 28C0.186529 31.9736 -0.0608504 35.9866 0.0156216 40C-0.0663445 44.0128 0.174343 48.0257 0.735359 52C1.42136 59.0548 4.29428 65.7188 8.95236 71.06C14.2941 75.7125 20.9554 78.5794 28.0054 79.26C31.4848 79.73 34.9907 79.9772 38.5016 80H41.4605C44.9848 79.9789 48.504 79.7318 51.9967 79.26C59.0536 78.5773 65.7181 75.695 71.0497 71.02C75.701 65.6921 78.5674 59.0409 79.2467 52C79.8155 48.0264 80.0629 44.0134 79.9865 40C80.0618 35.9866 79.8144 31.9737 79.2467 28Z" fill="#EEF0F2"/>
<mask id="mask0_4696_98013" style="mask-type:alpha" maskUnits="userSpaceOnUse" x="0" y="0" width="80" height="80">
<path d="M79.2467 28C78.5713 20.9424 75.697 14.2754 71.0297 8.94C65.6934 4.29127 59.0396 1.42465 51.9967 0.74C48.5107 0.269064 44.9981 0.0218918 41.4805 0L38.5016 0C34.9906 0.0220338 31.4847 0.269207 28.0054 0.74C20.9555 1.42676 14.2985 4.30874 8.97235 8.98C4.31387 14.3053 1.44028 20.9568 0.755352 28C0.186529 31.9736 -0.0608504 35.9866 0.0156216 40C-0.0663445 44.0128 0.174343 48.0257 0.735359 52C1.42136 59.0548 4.29428 65.7188 8.95236 71.06C14.2941 75.7125 20.9554 78.5794 28.0054 79.26C31.4848 79.73 34.9907 79.9772 38.5016 80H41.4605C44.9848 79.9789 48.504 79.7318 51.9967 79.26C59.0536 78.5773 65.7181 75.695 71.0497 71.02C75.701 65.6921 78.5674 59.0409 79.2467 52C79.8155 48.0264 80.0629 44.0134 79.9865 40C80.0618 35.9866 79.8144 31.9737 79.2467 28Z" fill="#EEF0F2"/>
</mask>
<g mask="url(#mask0_4696_98013)">
<ellipse cx="40.0003" cy="61.8613" rx="26.8519" ry="40" fill="#A86AF5"/>
</g>
<circle cx="47.6507" cy="49.135" r="2.41042" fill="#161616"/>
<circle cx="32.4475" cy="49.135" r="2.41042" fill="#161616"/>
<path d="M37.8691 55.0391C38.4917 55.5107 39.2677 55.7903 40.109 55.7898C40.9485 55.7892 41.7226 55.5098 42.3439 55.0391" stroke="#161616" stroke-width="1.48334" stroke-linecap="round"/>
<path fill-rule="evenodd" clip-rule="evenodd" d="M49.7377 21.529C49.7377 21.5873 49.737 21.6455 49.7356 21.7035C54.3127 22.4989 57.7574 25.9592 57.7574 30.1075C57.7574 30.453 57.7621 30.7862 57.7667 31.1062C57.8242 35.1424 57.8517 37.077 47.9453 35.2527C46.1334 37.4782 43.1194 38.9347 39.7076 38.9347C36.275 38.9347 33.2452 37.4604 31.437 35.2121C31.375 35.2122 31.313 35.2122 31.2508 35.2122C21.1259 37.1051 21.1535 35.1718 21.2114 31.1062C21.2159 30.7862 21.2207 30.453 21.2207 30.1075C21.2207 25.8286 24.8858 22.2816 29.6782 21.6364C29.6777 21.6006 29.6774 21.5649 29.6774 21.529C29.6774 16.7927 34.1681 12.9531 39.7076 12.9531C45.247 12.9531 49.7377 16.7927 49.7377 21.529Z" fill="#3C2F53"/>
</svg>
