<svg width="81" height="80" viewBox="0 0 81 80" fill="none" xmlns="http://www.w3.org/2000/svg">
<path d="M78.7513 28.0953L78.7535 28.1184L78.7568 28.1414C79.3169 32.0621 79.561 36.0214 79.4866 39.9812L79.4863 40.0001L79.4866 40.019C79.5621 43.9787 79.318 47.9379 78.7568 51.8583L78.7535 51.8811L78.7513 51.9039C78.0942 58.7148 75.3282 65.15 70.8402 70.312C65.6745 74.8231 59.2266 77.6043 52.4004 78.2646L52.3815 78.2664L52.3628 78.269C48.9134 78.7349 45.4377 78.9791 41.9571 79H39.0045C35.5374 78.9774 32.0753 78.7332 28.6393 78.269L28.6204 78.2664L28.6015 78.2646C21.7818 77.6062 15.3368 74.84 10.161 70.3509C5.66642 65.1756 2.89428 58.7278 2.23066 51.9032L2.22857 51.8816L2.22554 51.8602C1.67202 47.939 1.43454 43.9797 1.51541 40.0204L1.51582 40.0007L1.51544 39.9809C1.43999 36.0213 1.68406 32.062 2.24526 28.1417L2.24847 28.1193L2.25066 28.0968C2.91323 21.2835 5.68622 14.8479 10.1815 9.68825C15.342 5.18064 21.7827 2.39961 28.6024 1.73529L28.621 1.73348L28.6395 1.73097C32.0754 1.26605 35.5376 1.02189 39.0047 1H41.9774C45.4512 1.02175 48.9201 1.26592 52.3628 1.731L52.3813 1.7335L52.3999 1.73531C59.213 2.39761 65.651 5.16376 70.8217 9.6495C75.3247 14.8186 78.0979 21.2687 78.7513 28.0953Z" stroke="#161616" stroke-width="2"/>
</svg>
