<svg id="CHN_fc_box_smaller_color_05" xmlns="http://www.w3.org/2000/svg" width="166" height="135" viewBox="0 0 166 135">
    <defs>
        <clipPath id="clip-path">
            <path id="사각형_664" data-name="사각형 664" style="stroke:#527773;stroke-width:2px;fill:none" d="M0 0h20v20H0z"/>
        </clipPath>
        <style>
            .cls-6{fill:none;stroke:#527773;stroke-width:2px}.cls-3{fill:#527773}.cls-6{stroke-miterlimit:10}
        </style>
    </defs>
    <g id="fc_box_small_link_color" transform="translate(0 5)">
        <g id="box" style="fill:#f5faf8;stroke:#6c918e;stroke-width:2px">
            <path style="stroke:none" d="M0 0h166v130H0z"/>
            <path style="fill:none" d="M1 1h164v128H1z"/>
        </g>
        <path id="line" class="cls-3" transform="translate(50 78)" d="M0 0h66v1H0z"/>
        <g id="text" transform="translate(-117 -1)">
            <g id="ic_info" transform="translate(205.74 53)">
                <g id="그룹_883" data-name="그룹 883" transform="translate(2 2)">
                    <g id="그룹_882" data-name="그룹 882" style="clip-path:url(#clip-path)">
                        <circle id="타원_113" data-name="타원 113" class="cls-6" cx="9" cy="9" r="9" transform="translate(1 1)"/>
                        <path id="선_136" data-name="선 136" class="cls-6" transform="translate(10 9)" d="M0 0v6"/>
                        <path id="선_137" data-name="선 137" class="cls-6" transform="translate(10 5)" d="M0 0v2"/>
                    </g>
                </g>
            </g>
            <path id="패스_10679" data-name="패스 10679" class="cls-3" d="M9.58 22.34v-4.92h3.72v1.06h2.06V7.5H9.58V4.96H7.5V7.5H1.94v11.08H4v-1.16h3.5v4.92zm0-9.04h3.72v2.34H9.58zM4 13.3h3.5v2.34H4zm9.3-4.04v2.2H9.58v-2.2zm-9.3 0h3.5v2.2H4zm21.12 3.04c-.68.36-1.38.68-2.06 1v-3.28h2.02V8.04h-2.02v-3.4H21v3.4h-2.66v1.98H21v4.08a26.6 26.6 0 0 1-3.06.84l.52 2.06c.84-.26 1.7-.54 2.54-.86v4.3c0 .48-.24.72-.68.72a12.107 12.107 0 0 1-1.64-.14l.48 2h1.9a1.806 1.806 0 0 0 2-2.06v-5.64c.68-.3 1.38-.62 2.06-.94zm2.7 1.96h.76a10.927 10.927 0 0 0 2.32 5.04 9.6 9.6 0 0 1-2.82 2.02l1 1.84a11.464 11.464 0 0 0 3.24-2.3 18.9 18.9 0 0 0 2.96 2.28l1.4-1.62a17.678 17.678 0 0 1-3.18-2.16 12.865 12.865 0 0 0 1.86-5.2v-1.8h-7.54V7.1h5.42a6.146 6.146 0 0 1-.26 1.88.852.852 0 0 1-.5.38 6.718 6.718 0 0 1-1.04.06c-.46 0-.84-.02-1.14-.02l.56 1.78h1.52q2.04 0 2.46-1.14a18.818 18.818 0 0 0 .4-4.82h-9.4V23.1h1.98zm2.6 0h2.98a11.544 11.544 0 0 1-1.36 3.54 8.638 8.638 0 0 1-1.62-3.54z" transform="translate(165.06 53)"/>
        </g>
    </g>
    <path id="다각형_138" data-name="다각형 138" d="M7.5 0 15 11H0z" transform="rotate(180 45.5 5.5)" style="fill:#999"/>
</svg>
