<svg id="CHN_fc_box_smaller_color_12" xmlns="http://www.w3.org/2000/svg" width="538" height="135" viewBox="0 0 538 135">
    <defs>
        <clipPath id="clip-path">
            <path id="사각형_664" data-name="사각형 664" style="stroke:#527773;stroke-width:2px;fill:none" d="M0 0h20v20H0z"/>
        </clipPath>
        <style>
            .cls-6{fill:none;stroke:#527773;stroke-width:2px}.cls-3{fill:#527773}.cls-6{stroke-miterlimit:10}.cls-7{fill:#999}
        </style>
    </defs>
    <g id="fc_box_medium_color" transform="translate(0 5)">
        <g id="box" style="fill:#d7eae1;stroke:#527773;stroke-width:2px">
            <path style="stroke:none" d="M0 0h538v130H0z"/>
            <path style="fill:none" d="M1 1h536v128H1z"/>
        </g>
        <g id="그룹_1834" data-name="그룹 1834" transform="translate(-94 -810)">
            <path id="line" class="cls-3" transform="translate(301 889)" d="M0 0h124v1H0z"/>
            <g id="그룹_1835" data-name="그룹 1835">
                <g id="ico_flowchart_info" transform="translate(398.216 862)">
                    <g id="그룹_883" data-name="그룹 883" transform="translate(2 2)">
                        <g id="그룹_882" data-name="그룹 882" style="clip-path:url(#clip-path)">
                            <circle id="타원_113" data-name="타원 113" class="cls-6" cx="9" cy="9" r="9" transform="translate(1 1)"/>
                            <path id="선_136" data-name="선 136" class="cls-6" transform="translate(10 9)" d="M0 0v6"/>
                            <path id="선_137" data-name="선 137" class="cls-6" transform="translate(10 5)" d="M0 0v2"/>
                        </g>
                    </g>
                </g>
                <path id="패스_10807" data-name="패스 10807" class="cls-3" d="M-42.264-11.04v5.256h12.672v-5.256zM-31.9-7.632h-8.06v-1.536h8.06zm4.536 2.976h-17.06V2.52h2.448v-.888h12.192v.888h2.424zM-41.976-.48v-2.112h12.192V-.48zm-4.44-17.808v2.188h5.116v1.152h2.5V-16.1h5.616v1.152h2.5V-16.1h5.112v-2.184H-30.7v-1.396h-2.5v1.392h-5.616v-1.392h-2.5v1.392zm20.424 3.96h-20.016v5.04h2.4v-2.928h15.216v2.808h2.4zm10.128-5.232V-.768h-6.864V1.68h21.456V-.768h-6.912V-19.56H-10.7V-.768h-2.64V-19.56zm11.928 4.536A52.688 52.688 0 0 1-7.44-4.416l2.256.792A55.255 55.255 0 0 0-1.728-14.4zM-20.16-15.1l-2.136.72a86.617 86.617 0 0 1 3.072 10.828l2.28-.552A84.549 84.549 0 0 0-20.16-15.1zM20.784 2.352c.528 0 .984-.384 1.416-1.128a14.3 14.3 0 0 0 1.128-4.464L21.24-4.248q-.144 1.3-.288 2.3c-.144.82-.288 1.248-.432 1.248-.264 0-.456-.432-.552-1.3a49.22 49.22 0 0 1-.216-6v-7.92h-5.088v-3.76h-2.52v3.768H9.36v2.448h2.784v2.256c0 .672-.048 1.344-.1 2.016-.576-.336-1.152-.672-1.752-.984L8.9-8.16a27.663 27.663 0 0 1 2.76 1.632A12.625 12.625 0 0 1 7.512.888l1.9 1.656a14.163 14.163 0 0 0 4.464-7.416c.672.528 1.344 1.1 2.064 1.776l1.392-2.088a17.381 17.381 0 0 0 .812 5.472 2.884 2.884 0 0 0 2.64 2.064zm-6.12-15.816h2.616v5.472c0 .96 0 1.848.048 2.688a34.242 34.242 0 0 0-2.9-2.328 32.678 32.678 0 0 0 .24-3.576zM4.032 2.28A2.164 2.164 0 0 0 6.48-.168V-6.7c.7-.288 1.392-.6 2.112-.936v-2.5c-.672.344-1.392.68-2.112 1.016v-3.84h1.992v-2.424H6.48v-4.248H3.96v4.248H1.176v2.424H3.96v4.8a35.755 35.755 0 0 1-3.24.888l.624 2.4c.864-.264 1.752-.552 2.616-.84v4.9A.734.734 0 0 1 3.144 0 15.45 15.45 0 0 1 1.08-.144l.552 2.424zm21.984-21.24v14.928H33.5V-18.96zm5.112 12.7h-2.664v-4.128h2.664zm-2.664-6.384V-16.7h2.664v4.056zm6.5 1.824v6.792h10.468v-6.792zm8.016 4.608h-5.564v-2.4h5.568zm-5.3-10.392c-.432 1.584-1.7 2.712-3.864 3.408l1.32 2.064q4.32-1.728 4.968-5.472h3.408a6.371 6.371 0 0 1-.264 2.04c-.12.576-.384.888-.816.912-.624 0-1.392-.048-2.256-.12l.72 2.16a17.369 17.369 0 0 0 1.8.12 2.6 2.6 0 0 0 2.64-1.656c.384-.768.624-2.712.72-5.808H34.68v2.352zM27.24-3.312a23.184 23.184 0 0 1-1.9 5.136l2.28.84a26.06 26.06 0 0 0 1.848-5.376zm6.528.432-2.3.5A44.765 44.765 0 0 1 32.5 2.544l2.424-.6q-.508-2.592-1.156-4.824zm5.088-.24-2.328.5a30.655 30.655 0 0 1 1.584 5.12l2.424-.6a42.33 42.33 0 0 0-1.68-5.02zm4.944-.5L41.856-2.4a39.4 39.4 0 0 1 2.952 4.992L46.8 1.176a39.684 39.684 0 0 0-3-4.8z" transform="translate(347.416 883)"/>
            </g>
        </g>
    </g>
    <path id="다각형_115" data-name="다각형 115" class="cls-7" d="M7.5 0 15 11H0z" transform="rotate(180 163 5.5)"/>
    <path id="다각형_116" data-name="다각형 116" class="cls-7" d="M7.5 0 15 11H0z" transform="rotate(180 238.5 5.5)"/>
    <path id="다각형_117" data-name="다각형 117" class="cls-7" d="M7.5 0 15 11H0z" transform="rotate(180 45 5.5)"/>
</svg>
