<svg id="CHN_fc_box_smaller_color_09" xmlns="http://www.w3.org/2000/svg" width="166" height="135" viewBox="0 0 166 135">
    <defs>
        <clipPath id="clip-path">
            <path id="사각형_664" data-name="사각형 664" style="stroke:#527773;stroke-width:2px;fill:none" d="M0 0h20v20H0z"/>
        </clipPath>
        <style>
            .cls-5{fill:none;stroke:#527773;stroke-width:2px;stroke-miterlimit:10}.cls-6{fill:#326f5e}
        </style>
    </defs>
    <g id="fc_box_smaller_long_color" transform="translate(0 5)">
        <g id="box" style="fill:#f5faf8;stroke:#6c918e;stroke-width:2px">
            <path style="stroke:none" d="M0 0h166v130H0z"/>
            <path style="fill:none" d="M1 1h164v128H1z"/>
        </g>
        <g id="그룹_1841" data-name="그룹 1841" transform="translate(-80 -1269)">
            <g id="그룹_1846" data-name="그룹 1846" transform="translate(53)">
                <g id="ico_flowchart_info" transform="translate(134.8 1336)">
                    <g id="그룹_883" data-name="그룹 883" transform="translate(2 2)">
                        <g id="그룹_882" data-name="그룹 882" style="clip-path:url(#clip-path)">
                            <circle id="타원_113" data-name="타원 113" class="cls-5" cx="9" cy="9" r="9" transform="translate(1 1)"/>
                            <path id="선_136" data-name="선 136" class="cls-5" transform="translate(10 9)" d="M0 0v6"/>
                            <path id="선_137" data-name="선 137" class="cls-5" transform="translate(10 5)" d="M0 0v2"/>
                        </g>
                    </g>
                </g>
                <path id="패스_10804" data-name="패스 10804" class="cls-6" d="M-33.38 1.3V.02h9.48v1.04h2.06v-7.88h-2.06v4.94h-3.78v-6.16h5.26v-6.44h-2.08v4.56h-3.18v-6.12h-2.1v6.12h-3v-4.56h-2.1v6.44h5.1v6.16h-3.6v-4.94h-2.08V1.3zM-5.12-.64v-12.84H-17.6V-.46h1.98v-1.5h8.54v1.32zm-10.5-10.96h8.54v7.76h-8.54zM7.46-12h2.4v4.22H4.14v2.02h5.72V2.1h2.1v-7.86h4.72v-2.02h-4.72V-12h3.96v-2H8.3a16.757 16.757 0 0 0 .6-2.2l-2.04-.36a12.221 12.221 0 0 1-3.24 6.36l1.34 1.64A12 12 0 0 0 7.46-12zm-6.7-4.3-1.48 1.44a18.309 18.309 0 0 1 3.28 2.94L4-13.38A25.048 25.048 0 0 0 .76-16.3zm-2.66 5.78v2H.72v7.1A1.4 1.4 0 0 1 .2-.34L1 1.54a30.57 30.57 0 0 0 4.16-3.28l-.58-2.18c-.64.64-1.26 1.2-1.84 1.72v-8.32zm20.22-4.84v2.02h13.44V-.82c0 .56-.26.86-.74.86-1 0-2.06-.04-3.14-.12l.48 2.02h3.38c1.4 0 2.12-.76 2.12-2.24v-13.04h2.48v-2.02zm10.4 4.42h-8.26v9.44h2v-1.6h6.26zm-6.26 5.96v-4.1h4.28v4.1z" transform="translate(94.46 1355)"/>
            </g>
            <path id="line" class="cls-6" transform="translate(112 1362)" d="M0 0h102v1H0z"/>
        </g>
        <g id="그룹_1840" data-name="그룹 1840" transform="translate(-80 -1269)">
            <path id="패스_10803" data-name="패스 10803" class="cls-6" d="m-40.073-16.26-1.44 1.36a19.566 19.566 0 0 1 3.3 3.24l1.5-1.48a25.74 25.74 0 0 0-3.36-3.12zm11.38 18.02h4.58l.5-2.06q-.81.06-2.34.12c-1.04 0-2.04.02-3.04.02-1.52 0-2.86-.02-4-.04a6.337 6.337 0 0 1-2.6-.5 5.177 5.177 0 0 1-1.36-1.18l-.2-.2V-9.7h-4.58v1.92h2.64v5.48a8.8 8.8 0 0 0-2.68 3.06l1.54 1.42c1-1.8 1.68-2.68 2.06-2.68.24 0 .48.16.74.5a4.29 4.29 0 0 0 2.06 1.38 14.794 14.794 0 0 0 3.16.34c1.26.02 2.44.04 3.52.04zm-6.92-15.24v1.94h2.12v1.36a16.136 16.136 0 0 1-.12 2.02h-2.7v1.96h2.3a6.159 6.159 0 0 1-2.22 3.38l1.26 1.66a8.63 8.63 0 0 0 3.02-5.04h3v5.32h2.04V-6.2h2.94v-1.96h-2.94v-3.38h2.3v-1.94h-2.3v-2.94h-2.04v2.94h-2.52v-2.98h-2.02v2.98zm4.14 1.94h2.52v3.38h-2.66a24.449 24.449 0 0 0 .14-2.5zm26.16-2.7h-15.1v16h2.1V.68h10.88v1.08h2.12zm-13 12.88V-12.2h10.88v10.84zM7.287-12h2.4v4.22h-5.72v2.02h5.72V2.1h2.1v-7.86h4.72v-2.02h-4.72V-12h3.96v-2h-7.62a16.757 16.757 0 0 0 .6-2.2l-2.04-.36a12.221 12.221 0 0 1-3.24 6.36l1.34 1.64a12 12 0 0 0 2.5-3.44zm-6.7-4.3-1.48 1.44a18.309 18.309 0 0 1 3.28 2.94l1.44-1.46a25.048 25.048 0 0 0-3.24-2.92zm-2.66 5.78v2h2.62v7.1a1.4 1.4 0 0 1-.52 1.08l.8 1.88a30.57 30.57 0 0 0 4.16-3.28l-.58-2.18c-.64.64-1.26 1.2-1.84 1.72v-8.32zm20.22-4.84v2.02h13.44V-.82c0 .56-.26.86-.74.86-1 0-2.06-.04-3.14-.12l.48 2.02h3.38c1.4 0 2.12-.76 2.12-2.24v-13.04h2.48v-2.02zm10.4 4.42h-8.26v9.44h2v-1.6h6.26zm-6.26 5.96v-4.1h4.28v4.1zm16.325 3.53-.967 5.559h2.065L41.4-1.45z" transform="translate(163 1325)"/>
            <path id="line-2" data-name="line" class="cls-6" transform="translate(120 1332)" d="M0 0h86v1H0z"/>
        </g>
    </g>
    <path id="다각형_114" data-name="다각형 114" d="M7.5 0 15 11H0z" transform="rotate(180 45.5 5.5)" style="fill:#999"/>
</svg>
