<svg id="CHN_fc_box_smaller_color_13" xmlns="http://www.w3.org/2000/svg" width="1108" height="135" viewBox="0 0 1108 135">
    <defs>
        <clipPath id="clip-path">
            <path id="사각형_664" data-name="사각형 664" style="stroke:#527773;stroke-width:2px;fill:none" d="M0 0h20v20H0z"/>
        </clipPath>
        <style>
            .cls-6{fill:none;stroke:#527773;stroke-width:2px}.cls-3{fill:#527773}.cls-6{stroke-miterlimit:10}.cls-7{fill:#999}
        </style>
    </defs>
    <g id="fc_start_end_color" transform="translate(0 5)">
        <g id="fc_start_end_color-2" data-name="fc_start_end_color">
            <g id="fc_start_end">
                <g id="area" style="fill:#d7eae1;stroke:#527773;stroke-width:2px">
                    <rect width="1108" height="130" rx="65" style="stroke:none"/>
                    <rect x="1" y="1" width="1106" height="128" rx="64" style="fill:none"/>
                </g>
                <g id="그룹_1862" data-name="그룹 1862" transform="translate(191 -810)">
                    <path id="line" class="cls-3" transform="translate(207 889)" d="M0 0h312v1H0z"/>
                    <g id="그룹_1835" data-name="그룹 1835">
                        <g id="ico_flowchart_info" transform="translate(493.888 862)">
                            <g id="그룹_883" data-name="그룹 883" transform="translate(2 2)">
                                <g id="그룹_882" data-name="그룹 882" style="clip-path:url(#clip-path)">
                                    <circle id="타원_113" data-name="타원 113" class="cls-6" cx="9" cy="9" r="9" transform="translate(1 1)"/>
                                    <path id="선_136" data-name="선 136" class="cls-6" transform="translate(10 9)" d="M0 0v6"/>
                                    <path id="선_137" data-name="선 137" class="cls-6" transform="translate(10 5)" d="M0 0v2"/>
                                </g>
                            </g>
                        </g>
                        <path id="패스_10808" data-name="패스 10808" class="cls-3" d="M-140.484-17.568a39.038 39.038 0 0 1-1.056 7.536l2.016 1.056a27.65 27.65 0 0 0 .744-3.672h1.008v4.488c-1.248.48-2.472.912-3.576 1.32l.648 2.472c.96-.384 1.968-.84 2.928-1.248v7.224h2.352V-6.72c.768-.36 1.488-.744 2.088-1.032l-.1-2.3.264.192a20.834 20.834 0 0 0 1.872-3.528h.648a17.777 17.777 0 0 1-4.632 9.072l1.56 1.608a22.293 22.293 0 0 0 5.328-10.68h1.032c-.648 4.536-2.688 9.648-6.528 13.008l1.584 1.7c4.272-4.008 6.264-9.12 7.152-14.712h.384c-.12 4.9-.408 9.84-.96 11.664-.12.48-.288.7-.96.7h-.24A12.78 12.78 0 0 1-129.2-1.3l.48 2.472a14.474 14.474 0 0 0 2.184.168c1.824.024 2.664-.576 3-2.232.624-2.736.984-7.752 1.056-14.784h-7.992a29.078 29.078 0 0 0 .888-3.192l-2.256-.48a26.483 26.483 0 0 1-1.776 5.736v-1.268h-1.8v-4.392h-2.352v4.392h-.744c.072-.84.1-1.656.144-2.4zm5.52 6.312 1.488 1.176-1.944.888v-3.456h1.3c-.244.456-.532.912-.844 1.392zm18.936-.984h6.936l-.36 1.56h-4.968v8.448h2.42v-6.144h8.712v6.144h2.424v-8.448h-6.048l.36-1.56h7.656v-2.3h-7.272c.072-.48.144-.984.192-1.464l-2.5-.312-.216 1.776h-7.344v-1.56a105.932 105.932 0 0 0 16.088-1.4l-1.224-2.232a98.979 98.979 0 0 1-17.28 1.536v7.68q-.18 7.096-2.448 11.092l1.752 1.824q2.952-4.824 3.12-12.912zm9.984 9.216-1.248 1.872a32.323 32.323 0 0 1 7.032 3.672l1.392-2.184a36.606 36.606 0 0 0-7.176-3.36zm-2.3-4.656a8.064 8.064 0 0 1-2.356 5.16 13.971 13.971 0 0 1-6.144 2.784l1.344 2.3a15.531 15.531 0 0 0 6.936-3.576 10.389 10.389 0 0 0 2.64-6.5zM-92.2-19.7a23.509 23.509 0 0 1-4.6 11.2l1.7 2.16a19.5 19.5 0 0 0 1.8-2.5 29.074 29.074 0 0 0 1.776 4.584 15.882 15.882 0 0 1-4.968 4.2l1.344 2.4a18.52 18.52 0 0 0 5.136-4.2A7.8 7.8 0 0 0-88.62-.432c2.208 1.68 5.856 2.544 10.92 2.544h2.688l.5-2.616c-1.512.12-2.976.192-4.392.192-3.792-.048-6.576-.72-8.3-1.992A5.852 5.852 0 0 1-88.6-3.768a25.329 25.329 0 0 0 3.46-10.272v-2.232h-5.232c.24-.96.432-1.944.624-3zm.336 7.992c.288-.7.552-1.416.816-2.184h3.456a23.807 23.807 0 0 1-2.472 7.44 38.875 38.875 0 0 1-1.796-5.26zm9.192-7.9v17.76h2.52v-9.024a66.693 66.693 0 0 1 4.344 4.224l1.492-2.252a67.817 67.817 0 0 0-5.832-4.608v-6.1zm18.744.648v11.64H-59v2.208h-5.184v2.328H-59v2.232h-6.1v2.424h14.568V-.552h-5.976v-2.232h5.16v-2.328h-5.16V-7.32h4.872v-11.64zm9.888 9.432h-2.472v-2.544h2.472zm-4.968 0h-2.52v-2.544H-59zm-2.52-4.68v-2.544H-59v2.544zm5.016-2.544h2.472v2.544h-2.472zm-15.648 5.664v2.4h2.28v5.28c-.936.24-1.9.432-2.88.6l.624 2.4a53.949 53.949 0 0 0 7.056-2.184v-2.424c-.744.312-1.488.6-2.256.864v-4.536H-65v-2.4h-2.328v-4.9h2.616v-2.372h-7.8v2.376h2.64v4.9zm24.36-7.056v2.088h3.96v7.344h-4.32v2.16h4.392a12.555 12.555 0 0 1-4.68 2.616l1.272 2.112a19.078 19.078 0 0 0 3.7-2.328v1.92h4.632v1.656h-8.112v2.3h18.5v-2.3H-36.4v-1.656h4.584v-1.944a16.143 16.143 0 0 0 4.032 2.4l1.032-2.16A11.453 11.453 0 0 1-31.5-6.552h4.392v-2.16h-4.32v-7.344h3.96v-2.088h-3.96v-1.584h-2.448v1.584h-7.512v-1.584h-2.448v1.584zm4.632 13.7a12.889 12.889 0 0 0 1.9-2.112H-34a10.761 10.761 0 0 0 1.876 2.116H-36.4v-1.584h-2.448v1.584zm1.776-4.272V-9.84h7.512v1.128zm0-3.048v-1.152h7.512v1.152zm0-3.072v-1.224h7.512v1.224zm18.936-4.3-2.16 1.344a43.855 43.855 0 0 1 3.576 5.76l2.088-1.44a45.578 45.578 0 0 0-3.5-5.656zm1.276 10.592a99.946 99.946 0 0 1-3.384 9.888l2.376 1.056c1.2-3.12 2.3-6.48 3.288-10.032zm6.72-.1h4.2v2.5h-4.2zm0 4.776h4.2V-1.1h-4.2zm0 5.088h11.808V-1.1h-5.184v-2.76h4.224v-2.28h-4.224v-2.5h4.176v-2.3h-4.176v-2.568h4.68v-2.352h-4.368a55.49 55.49 0 0 0-1.224-4.056l-2.424.672a35.254 35.254 0 0 1 1.272 3.38h-4.2a32.9 32.9 0 0 0 1.128-3.384l-2.376-.48a26.245 26.245 0 0 1-4.176 9.028l.816 2.592q.936-1.188 1.8-2.448V2.52h2.448zm4.2-14.736v2.568h-4.2v-2.568zM6.828-15.36v8.64h8.9v.864H5.772v1.92h2.784l-.864.84a16.346 16.346 0 0 1 2.832 2.088L11.94-2.4a16.508 16.508 0 0 0-2.184-1.536h5.976v.528c0 .456-.264.7-.792.7a15.727 15.727 0 0 1-2.064-.144l.456 2.012h2.328c1.632 0 2.448-.7 2.448-2.04v-1.056H20.8v-1.92h-2.692v-.864h1.68v-8.64H16v-.912h4.56v-1.968H17.1a8.763 8.763 0 0 0 .6-1.272l-2.424-.336a8.248 8.248 0 0 1-.624 1.608h-2.76a17.355 17.355 0 0 0-.624-1.608l-2.328.384a9.664 9.664 0 0 1 .672 1.224H5.844v1.968h4.776v.912zm7.1 0h-1.3v-.912h1.3zm3.7 6.96H8.964v-.768h8.664zm-8.664-2.3v-1.18l1.176 1.056a3.773 3.773 0 0 0 2.448-2.88h1.344v.792c0 1.008.648 1.512 1.992 1.512h1.7v.7zm7.036-3h1.632v.912h-1.1c-.36 0-.528-.12-.528-.36zm-7.036 1.532V-13.7h1.584a2.569 2.569 0 0 1-1.584 1.532zm-7.272-7.344L-.012-17.9a25.136 25.136 0 0 1 3.84 3.912l1.728-1.732a32.307 32.307 0 0 0-3.864-3.792zM15.4 2.112h5.52l.576-2.4c-.648.048-1.584.1-2.808.12-1.248 0-2.448.024-3.648.024-1.872 0-3.528-.024-4.92-.048a8.481 8.481 0 0 1-3.22-.6 7.121 7.121 0 0 1-1.7-1.464l-.268-.264v-9.12H-.444v2.3H2.6v6.6A10.417 10.417 0 0 0-.564.96l1.752 1.656C2.388.456 3.252-.6 3.732-.6a1.329 1.329 0 0 1 .912.6 5.394 5.394 0 0 0 2.52 1.656 18.375 18.375 0 0 0 3.888.408c1.56.024 3 .048 4.348.048zm8.736-12.624v2.424H37.4v6.864C37.4-.408 36.948 0 36.084 0s-1.776-.048-2.736-.144L33.9 2.28h3.048c1.968 0 2.976-.984 2.976-2.9v-7.468H44.6v-2.424h-4.68v-3.12H37.4v3.12zm5.04 3.264-1.732 1.632a26.17 26.17 0 0 1 4.344 4.2l1.848-1.872a31.034 31.034 0 0 0-4.464-3.96zm15.12-10.3h-8.548q-.5-1.3-1.008-2.376l-2.74.436a18.62 18.62 0 0 1 1.08 1.944h-8.64v5.52h2.52v-3.1h14.812V-12h2.52zm14.28 15.36A49.231 49.231 0 0 1 67.6 2.664L68.988.48a55.754 55.754 0 0 0-9.048-4.488l.216-.384h8.472v-2.352h-7.464a19.63 19.63 0 0 0 .792-4.728v-2.976h-2.424v2.976a14.387 14.387 0 0 1-1.008 4.728H48.156v2.352H57.2a4.1 4.1 0 0 0-.264.336C55.4-2.28 52.38-.792 47.916.408l1.368 2.112c4.224-1.104 7.316-2.664 9.288-4.704zm-6.888-9.1-1.252 1.856A19.954 19.954 0 0 1 55.02-6.84l1.3-1.992a23.574 23.574 0 0 0-4.636-2.448zm2.448-3.336-1.248 1.848a18.793 18.793 0 0 1 4.488 2.544l1.3-1.992a22.694 22.694 0 0 0-4.544-2.392zm14.376-3.1h-8.788c-.24-.768-.48-1.488-.744-2.136l-2.568.432c.264.528.5 1.08.744 1.7H48.2v5.064h2.448v-2.76H66.06v2.76h2.448zM79.6-2.76A42.979 42.979 0 0 1 71.676-.7l.312 2.448A42.8 42.8 0 0 0 79.6-.408zm-4.44-17.064a46.547 46.547 0 0 1-2.736 7.1 2.645 2.645 0 0 1-1.008.888l.576 2.184c1.176-.144 2.3-.312 3.384-.456A22.15 22.15 0 0 1 72.8-6.144a4.19 4.19 0 0 1-1.056.672l.6 2.16a39.07 39.07 0 0 0 7.1-1.656V-7.2a37.71 37.71 0 0 1-4.224 1.224 59.671 59.671 0 0 0 4.78-8.04l-2.232-.84c-.432.888-.864 1.728-1.248 2.544l-2.28.288a40.88 40.88 0 0 0 3.264-6.912zm5.228 1.224v2.016h4.944v.984h-4.344v1.872h4.344v.984h-5.52v2.112h13.44v-2.112H87.78v-.984h4.3V-15.6h-4.3v-.984h4.872V-18.6H87.78v-1.08h-2.448v1.08zm11.664 9.024H81.06v8.016h2.4v-5.856h6.216v5.784h2.376zm-6.576 2.952a8.019 8.019 0 0 1-1.032 4.176C83.6-1.2 81.8-.12 79.02.768l1.56 1.872c3.264-1.152 5.352-2.592 6.22-4.32a10.817 10.817 0 0 0 1.056-4.944zm2.592 4.584L86.82-.168a23.82 23.82 0 0 1 5.424 2.808L93.588.6a28.639 28.639 0 0 0-5.52-2.64zm15.7-8.4c-.816.432-1.656.816-2.472 1.2v-3.936h2.424v-2.376h-2.424v-4.08H98.82v4.08h-3.192v2.376h3.192v4.9a31.917 31.917 0 0 1-3.672 1.008l.624 2.468a50.626 50.626 0 0 0 3.048-1.032v5.16c0 .576-.288.864-.816.864a14.529 14.529 0 0 1-1.968-.168l.576 2.4h2.28a2.167 2.167 0 0 0 2.4-2.472v-6.768c.816-.36 1.656-.744 2.472-1.128zM107-8.088h.912A13.112 13.112 0 0 0 110.7-2.04a11.517 11.517 0 0 1-3.384 2.424l1.2 2.208a13.757 13.757 0 0 0 3.884-2.76 22.681 22.681 0 0 0 3.552 2.736l1.68-1.944a21.214 21.214 0 0 1-3.816-2.592 15.438 15.438 0 0 0 2.232-6.24v-2.16H107v-6.312h6.5a7.375 7.375 0 0 1-.312 2.256 1.022 1.022 0 0 1-.6.456 8.062 8.062 0 0 1-1.248.072c-.552 0-1.008-.024-1.368-.024l.672 2.136h1.824q2.448 0 2.952-1.368a22.581 22.581 0 0 0 .48-5.784h-11.28V2.52H107zm3.12 0h3.58a13.852 13.852 0 0 1-1.632 4.248 10.365 10.365 0 0 1-1.944-4.248zm28.468 1.368h-16.272V2.5h2.544V1.368h11.184V2.5h2.544zM124.86-.984v-3.384h11.184v3.384zm-.648-13.224h5.208v3.1h-10.008v2.448h21.936v-2.448h-9.408v-3.1h7.56v-2.4h-7.56v-3.12h-2.52v3.12h-3.744a17.243 17.243 0 0 0 .984-2.568l-2.5-.288a12.593 12.593 0 0 1-4.272 6.24l1.488 1.968a18.28 18.28 0 0 0 2.836-2.952z" transform="translate(348.54 883)"/>
                    </g>
                </g>
            </g>
        </g>
    </g>
    <path id="다각형_118" data-name="다각형 118" class="cls-7" d="M7.5 0 15 11H0z" transform="rotate(180 163.5 5.5)"/>
    <path id="다각형_119" data-name="다각형 119" class="cls-7" d="M7.5 0 15 11H0z" transform="rotate(180 399 5.5)"/>
    <path id="다각형_120" data-name="다각형 120" class="cls-7" d="M7.5 0 15 11H0z" transform="rotate(180 516.5 5.5)"/>
</svg>
