<svg id="CHN_fc_box_smaller_color_03" xmlns="http://www.w3.org/2000/svg" width="348" height="135" viewBox="0 0 348 135">
    <defs>
        <clipPath id="clip-path">
            <path id="사각형_664" data-name="사각형 664" style="stroke:#527773;stroke-width:2px;fill:none" d="M0 0h20v20H0z"/>
        </clipPath>
        <style>
            .cls-5{fill:none;stroke:#527773;stroke-width:2px;stroke-miterlimit:10}.cls-6{fill:#326f5e}
        </style>
    </defs>
    <g id="fc_box_small_color" transform="translate(0 5)">
        <g id="box" style="fill:#f5faf8;stroke:#6c918e;stroke-width:2px">
            <path style="stroke:none" d="M0 0h348v130H0z"/>
            <path style="fill:none" d="M1 1h346v128H1z"/>
        </g>
        <g id="그룹_1838" data-name="그룹 1838" transform="translate(-605 -2798)">
            <g id="그룹_1843" data-name="그룹 1843">
                <g id="ico_flowchart_info" transform="translate(807.46 2850)">
                    <g id="그룹_883" data-name="그룹 883" transform="translate(2 2)">
                        <g id="그룹_882" data-name="그룹 882" style="clip-path:url(#clip-path)">
                            <circle id="타원_113" data-name="타원 113" class="cls-5" cx="9" cy="9" r="9" transform="translate(1 1)"/>
                            <path id="선_136" data-name="선 136" class="cls-5" transform="translate(10 9)" d="M0 0v6"/>
                            <path id="선_137" data-name="선 137" class="cls-5" transform="translate(10 5)" d="M0 0v2"/>
                        </g>
                    </g>
                </g>
                <path id="패스_10673" data-name="패스 10673" class="cls-6" d="M-37.18-13.46v8.7h6.14v1.48h-7.92v1.96h7.92v3.5h2.08v-3.5h7.92v-1.96h-7.92v-1.48h6.14v-8.7h-3.56a16.747 16.747 0 0 0 1.46-2.44l-2.02-.72a21.359 21.359 0 0 1-1.62 3.16h-3.88l1.18-.6a20.121 20.121 0 0 0-1.92-2.46l-1.74.84a20.381 20.381 0 0 1 1.74 2.22zm12.34 6.86h-4.12v-1.66h4.12zm-6.2 0h-4.12v-1.66h4.12zm-4.12-3.42v-1.62h4.12v1.62zm6.2-1.62h4.12v1.62h-4.12zm17.26-1.62v8.58h3.84V-.7c-1.36.14-2.88.26-4.56.34l.32 2.1A72.865 72.865 0 0 0-3.16.54c.12.52.24 1.08.36 1.66l1.9-.5a44.347 44.347 0 0 0-1.78-5.84l-1.68.58c.24.72.48 1.46.7 2.22-.64.12-1.36.26-2.12.38v-3.72h3.9v-8.58H-5.8v-3.08h-2.1v3.08zm7.8 6.66h-1.92v-4.74h1.92zm-3.92 0h-1.84v-4.74h1.84zm-5.48-9.64a20.1 20.1 0 0 1-1.76 2.32 16.593 16.593 0 0 0-1.86-2.18l-1.64 1.26a11.283 11.283 0 0 1 2.04 2.34 13.064 13.064 0 0 1-2.56 1.62l1.1 1.82c.9-.56 1.7-1.12 2.42-1.64a.155.155 0 0 0 .02.06 12.366 12.366 0 0 1 .5 1.9 13.791 13.791 0 0 1-4.08 4.04l1.18 1.76a14.686 14.686 0 0 0 3.18-3.12c.02.42.04.88.04 1.38 0 2.44-.2 3.9-.58 4.38a1.17 1.17 0 0 1-1 .34 16.366 16.366 0 0 1-1.9-.14l.62 1.94c.42.02 1 .04 1.74.04a3.1 3.1 0 0 0 1.9-.54c.8-.68 1.2-2.64 1.2-5.92a22.029 22.029 0 0 0-.98-6.9c-.08-.2-.18-.42-.26-.62a18.759 18.759 0 0 0 2.4-3.08zM4.26-8.06v5.2h11.56v-5.2zm9.46 3.36H6.36v-1.54h7.36zM6.5-2.74 4.54-2A10.934 10.934 0 0 1 6.02-.42h-4.7v1.98h17.32V-.42h-4.36a17.621 17.621 0 0 0 1.14-1.68l-1.94-.7a17.271 17.271 0 0 1-1.46 2.38H8.24A12.329 12.329 0 0 0 6.5-2.74zM3.36-13.76l-1.4 1.32a23.186 23.186 0 0 1 2.36 1.86A16.638 16.638 0 0 1 .74-8.72l1.28 1.64a17.039 17.039 0 0 0 4.74-2.84v.64h7.34v-.74a22.116 22.116 0 0 0 4.08 2.9l1.38-1.6a20.6 20.6 0 0 1-2.92-1.78 12.3 12.3 0 0 0 2.12-2.08l-1.46-1.28a11.409 11.409 0 0 1-2.14 2.14 9.468 9.468 0 0 1-1.08-1.12 12.061 12.061 0 0 0 2.14-2l-1.46-1.3a10.94 10.94 0 0 1-1.8 1.8 13.277 13.277 0 0 1-1.14-2.1l-1.74.96a16.287 16.287 0 0 0 2.86 4.3H7.98a11.131 11.131 0 0 0 1.86-3.12v-1.56h-6.9v1.92h4.54a9.964 9.964 0 0 1-1.7 2.16 26.883 26.883 0 0 0-2.42-1.98zM39.5-3.54l-2.08-.68a14.231 14.231 0 0 1-.36 2.9 1.189 1.189 0 0 1-1.28.8h-3.96a.8.8 0 0 1-.84-.9v-6.24h6.98v-8h-9.84v2h7.84v4h-7.02v9.08a1.757 1.757 0 0 0 1.96 2.02h5.22A2.752 2.752 0 0 0 38.6.52a10.9 10.9 0 0 0 .9-4.06zM23.56-16.3l-1.48 1.44a18.309 18.309 0 0 1 3.28 2.94l1.44-1.46a28.017 28.017 0 0 0-3.24-2.92zm-2.78 5.78v2h2.74v7.1a1.363 1.363 0 0 1-.54 1.08l.8 1.88a30.9 30.9 0 0 0 4.36-3.2l-.56-2.18c-.72.66-1.4 1.24-2.04 1.76v-8.44z" transform="translate(763.96 2869)"/>
            </g>
            <path id="line" class="cls-6" transform="translate(725 2876)" d="M0 0h108v1H0z"/>
        </g>
    </g>
    <path id="다각형_136" data-name="다각형 136" d="M7.5 0 15 11H0z" transform="rotate(180 91 5.5)" style="fill:#999"/>
</svg>
