<svg id="CHN_fc_box_smaller_color_02" xmlns="http://www.w3.org/2000/svg" width="348" height="135" viewBox="0 0 348 135">
    <defs>
        <clipPath id="clip-path">
            <path id="사각형_664" data-name="사각형 664" style="stroke:#527773;stroke-width:2px;fill:none" d="M0 0h20v20H0z"/>
        </clipPath>
        <style>
            .cls-5{fill:none;stroke:#527773;stroke-width:2px;stroke-miterlimit:10}.cls-6{fill:#326f5e}
        </style>
    </defs>
    <g id="fc_box_small_color" transform="translate(0 5)">
        <g id="box" style="fill:#d7eae1;stroke:#527773;stroke-width:2px">
            <path style="stroke:none" d="M0 0h348v130H0z"/>
            <path style="fill:none" d="M1 1h346v128H1z"/>
        </g>
        <g id="그룹_1838" data-name="그룹 1838" transform="translate(-605 -2798)">
            <g id="그룹_1843" data-name="그룹 1843">
                <g id="ico_flowchart_info" transform="translate(845.96 2850)">
                    <g id="그룹_883" data-name="그룹 883" transform="translate(2 2)">
                        <g id="그룹_882" data-name="그룹 882" style="clip-path:url(#clip-path)">
                            <circle id="타원_113" data-name="타원 113" class="cls-5" cx="9" cy="9" r="9" transform="translate(1 1)"/>
                            <path id="선_136" data-name="선 136" class="cls-5" transform="translate(10 9)" d="M0 0v6"/>
                            <path id="선_137" data-name="선 137" class="cls-5" transform="translate(10 5)" d="M0 0v2"/>
                        </g>
                    </g>
                </g>
                <path id="패스_10672" data-name="패스 10672" class="cls-6" d="M-63.93-3.8a7.088 7.088 0 0 1-.28 2.2c-.2.5-.82.58-1.76.58-1.26 0-1.94-.04-1.94-.66v-5.88a28.841 28.841 0 0 0 5.54-3.76l-1.28-1.72a20.822 20.822 0 0 1-4.26 3.3v-6.2h-2.12v15c0 1.62.92 1.9 4.12 1.9 2.36 0 3.06-.36 3.4-1.08a4.919 4.919 0 0 0 .42-1.4c.08-.5.12-1 .2-1.48zm-9.48 5.1v-12.32a24.88 24.88 0 0 0 1.82-4.4l-2-.7a17.506 17.506 0 0 1-4.52 8.04l1.02 2.1a17.722 17.722 0 0 0 1.7-2c-.04.68-.1 1.36-.1 1.98v7.3zm30.8-13.86h-3.62a21.187 21.187 0 0 0 1.94-3.16l-2.16-.8a24.739 24.739 0 0 1-2.06 3.96h-3.06l1.66-.84a34.646 34.646 0 0 0-1.88-3.24l-1.9.92a22.323 22.323 0 0 1 1.86 3.16h-3.96l1.2-.6a31.093 31.093 0 0 0-1.96-3.06l-1.9.92a21.169 21.169 0 0 1 1.88 2.74h-3.52v4.98h2.06v-2.98h13.34v2.98h2.08zm-14.16 3.08v1.84h7.8c-.8.4-1.86.86-3.18 1.42v1.48h-7.82v1.96h7.82v2.22c0 .48-.2.74-.58.74-.86 0-1.66-.02-2.38-.06l.52 1.9h2.56c1.32 0 1.98-.64 1.98-1.88v-2.92h7.38v-1.96h-7.38v-.56a43.654 43.654 0 0 0 4.14-2.34v-1.84zm25.16-7a15.035 15.035 0 0 1-2.64 6.74l1.52 1.3a12.064 12.064 0 0 0 1.74-2.98h.84c-.74 3.54-2.08 6.12-4 7.76l1.34 1.56c2.18-1.96 3.68-5.08 4.52-9.32h1a27.972 27.972 0 0 1-1.62 6.74A14.719 14.719 0 0 1-32.59.28l1.3 1.66a17.17 17.17 0 0 0 4.1-5.72 32.328 32.328 0 0 0 1.76-7.64h.72c-.04 5.66-.1 8.96-.22 9.9A1.708 1.708 0 0 1-26.77.14c-.48 0-1.02-.04-1.66-.1l.48 1.86c.72.06 1.24.1 1.52.1q3.06 0 3.42-2.58.3-2.4.3-12.84h-7.56c.22-.8.42-1.64.62-2.54zm-6.72 6.02h1.1v4.78a27.1 27.1 0 0 1-3.26.88l.5 2.02c.94-.28 1.86-.6 2.76-.92v5.78h2.04v-6.6c.42-.2.84-.38 1.28-.58v-1.96c-.44.2-.86.4-1.28.6v-4h1.36v-2h-1.36v-3.94h-2.04v3.94h-.86c.06-.76.1-1.52.14-2.28l-1.86-.14a30.912 30.912 0 0 1-.92 6.64l1.84.52c.22-.88.4-1.8.56-2.74zm21.64.26h5.78l-.3 1.3h-4.14v7.04h2.02v-5.12h7.26v5.12h2.02V-8.9h-5.04l.3-1.3h6.38v-1.92h-6.06c.06-.4.12-.82.16-1.22l-2.08-.26-.18 1.48h-6.12v-1.3a88.276 88.276 0 0 0 13.4-1.16l-1.02-1.86a82.483 82.483 0 0 1-14.4 1.28v6.4q-.15 5.91-2.04 9.24L-19.29 2q2.46-4.02 2.6-10.76zm8.32 7.68L-9.41-.96A26.936 26.936 0 0 1-3.55 2.1L-2.39.28a30.505 30.505 0 0 0-5.98-2.8zm-1.92-3.88a6.72 6.72 0 0 1-1.96 4.3A11.642 11.642 0 0 1-17.37.22l1.12 1.92a12.942 12.942 0 0 0 5.78-2.98 8.658 8.658 0 0 0 2.2-5.42zM1.83-9.82v5.28h4.7c-.06.12-.12.26-.2.42C5.29-2.3 3.07-.74-.37.54L.97 2.16C4.89.64 7.35-1.28 8.37-3.56c.14-.32.28-.64.4-.98h.56v3.9c0 1.62.7 2.44 2.14 2.44h4a2.119 2.119 0 0 0 1.6-.54c.36-.4.62-1.6.78-3.62l-1.98-.62a8.809 8.809 0 0 1-.26 2.38.6.6 0 0 1-.54.38h-2.96c-.48 0-.7-.3-.7-.86v-3.46h4.52v-6.58h-4.44a24.482 24.482 0 0 0 1.96-2.2v-1.56H6.87c.26-.36.52-.76.8-1.18l-2.1-.48a19.185 19.185 0 0 1-6 5.74L.91-9.2c.3-.2.6-.42.92-.62zm7.04-1.3h-5.4c.64-.58 1.28-1.2 1.9-1.88h5.38c-.64.7-1.26 1.32-1.88 1.88zm5.04 4.62H9.33a18.215 18.215 0 0 0 .32-2.68h4.26zm-6.72 0H3.87v-2.68h3.68a17.722 17.722 0 0 1-.36 2.68zm12.58-6.24v2.02h2.2a17.836 17.836 0 0 1-2.7 6.04l.9 2.32a26.24 26.24 0 0 0 1.86-4.16V2h2.06v-9.76c.34.6.74 1.34 1.18 2.18l1.18-1.78c-.78-.94-1.56-1.8-2.36-2.6v-.76h1.82v-2.02h-1.82v-3.68h-2.06v3.68zm8.92 2.78v1.04h6.24v-1a15.421 15.421 0 0 0 2.02 1.66l1.16-1.76a15.256 15.256 0 0 1-5.4-6.36h-1.92a16.1 16.1 0 0 1-5.28 6.36l1.14 1.76a15.847 15.847 0 0 0 2.04-1.7zm5.36-.88h-4.56a19.706 19.706 0 0 0 2.26-3.48 14.386 14.386 0 0 0 2.3 3.48zM25.97-.46v2.02h11.64V-.46h-2.74a53.133 53.133 0 0 0 1.86-7.08l-1.98-.5a51.086 51.086 0 0 1-1.94 7.58zm2.72-7.04-1.8.6c.52 1.82.98 3.72 1.34 5.7l1.82-.48a50.493 50.493 0 0 0-1.36-5.82zm2.96-.72-1.78.6a55.492 55.492 0 0 1 1.2 5.5l1.9-.5c-.4-2.1-.84-3.96-1.32-5.6zm15.98-8.12v2.76h-6.42v11.72h2.06v-1.16h4.36v5h2.12v-5h4.28V-2h2.06v-11.58h-6.34v-2.76zM43.27-4.98V-7.4h4.36v2.42zm6.48 0V-7.4h4.28v2.42zm-6.48-4.28v-2.38h4.36v2.38zm6.48 0v-2.38h4.28v2.38zm20.86-7.16v1.1h-4.6v1.68h4.6v.84h-3.76v1.64h3.76v.86h-5.16v1.72h12.4v-1.72h-5.22v-.86h4.04v-1.64h-4.04v-.84h4.74v-1.68h-4.74v-1.1zM68.79-3.54h5.72v.98h-5.72zm5.72-1.56h-5.72v-1h5.72zM68.79-.98h5.72v.56c0 .42-.18.64-.54.64L72.39.14l.5 1.82h1.66A1.732 1.732 0 0 0 76.51.02v-7.8h-9.68v9.86h1.96zm-6.58-15.3-1.48 1.42a18.3 18.3 0 0 1 3.28 2.92l1.44-1.44a26.24 26.24 0 0 0-3.24-2.9zm-2.84 5.76v2h2.66v7.06a1.452 1.452 0 0 1-.52 1.12l.78 1.88a31.22 31.22 0 0 0 3.78-3.18l-.56-2.2c-.5.52-.98 1.02-1.46 1.48v-8.16z" transform="translate(764.11 2869)"/>
            </g>
            <path id="line" class="cls-6" transform="translate(686 2876)" d="M0 0h186v1H0z"/>
        </g>
    </g>
    <path id="다각형_135" data-name="다각형 135" d="M7.5 0 15 11H0z" transform="rotate(180 91 5.5)" style="fill:#999"/>
</svg>
