<svg id="CHN_fc_box_smaller_color_06" xmlns="http://www.w3.org/2000/svg" width="166" height="135" viewBox="0 0 166 135">
    <defs>
        <clipPath id="clip-path">
            <path id="사각형_664" data-name="사각형 664" style="stroke:#527773;stroke-width:2px;fill:none" d="M0 0h20v20H0z"/>
        </clipPath>
        <style>
            .cls-5{fill:none;stroke:#527773;stroke-width:2px;stroke-miterlimit:10}.cls-6{fill:#527773}
        </style>
    </defs>
    <g id="fc_box_small_link_hover" transform="translate(0 5)">
        <g id="box" style="fill:#d7eae1;stroke:#527773;stroke-width:2px">
            <path style="stroke:none" d="M0 0h166v130H0z"/>
            <path style="fill:none" d="M1 1h164v128H1z"/>
        </g>
        <g id="text" transform="translate(-116)">
            <g id="ic_info" transform="translate(207.44 53)">
                <g id="그룹_883" data-name="그룹 883" transform="translate(2 2)">
                    <g id="그룹_882" data-name="그룹 882" style="clip-path:url(#clip-path)">
                        <circle id="타원_113" data-name="타원 113" class="cls-5" cx="9" cy="9" r="9" transform="translate(1 1)"/>
                        <path id="선_136" data-name="선 136" class="cls-5" transform="translate(10 9)" d="M0 0v6"/>
                        <path id="선_137" data-name="선 137" class="cls-5" transform="translate(10 5)" d="M0 0v2"/>
                    </g>
                </g>
            </g>
            <path id="패스_10680" data-name="패스 10680" class="cls-6" d="M12.72-15.64a8.142 8.142 0 0 1-1.56 1.82 21.538 21.538 0 0 1-1.2-2.02l-1.56.98a22 22 0 0 0 2.66 4.08H6.32a16.354 16.354 0 0 0 2.24-3.68l-1.22-1.02H1.66v1.82H6a8.778 8.778 0 0 1-1.32 1.94c-.76-.62-1.54-1.26-2.26-1.8l-1.26 1.36c.72.6 1.48 1.18 2.2 1.84a12.277 12.277 0 0 1-3 2.06l1.06 1.68A17.833 17.833 0 0 0 3.2-7.7v4.54h1.36c.26.7.48 1.38.66 1.98H.8v1.9h15.56v-1.9h-4.42c.2-.6.36-1.24.54-1.98h1.56V-7.9a13.121 13.121 0 0 0 1.66 1.08l1.24-1.72a13.487 13.487 0 0 1-2.62-1.72 19.21 19.21 0 0 0 2.22-2.36l-1.52-1.22A23.338 23.338 0 0 1 13-11.52a6.152 6.152 0 0 1-.7-.78c.66-.64 1.3-1.36 1.96-2.12zM5.44-9.72v.76h6.32v-.98A16.487 16.487 0 0 0 14-7.92H3.44a15.638 15.638 0 0 0 2-1.8zM5.2-6.2H12v1.32H5.2zm4.66 5.02H7.32c-.18-.62-.4-1.28-.6-1.98h3.68c-.16.68-.34 1.36-.54 1.98zM36.8-3.54l-2.08-.68a14.232 14.232 0 0 1-.36 2.9 1.189 1.189 0 0 1-1.28.8h-3.96a.8.8 0 0 1-.84-.9v-6.24h6.98v-8h-9.84v2h7.84v4h-7.02v9.08a1.757 1.757 0 0 0 1.96 2.02h5.22A2.752 2.752 0 0 0 35.9.52a10.9 10.9 0 0 0 .9-4.06zM20.86-16.3l-1.48 1.44a18.309 18.309 0 0 1 3.28 2.94l1.44-1.46a28.017 28.017 0 0 0-3.24-2.92zm-2.78 5.78v2h2.74v7.1a1.363 1.363 0 0 1-.54 1.08l.8 1.88a30.9 30.9 0 0 0 4.36-3.2l-.56-2.18c-.72.66-1.4 1.24-2.04 1.76v-8.44z" transform="translate(166.64 72)"/>
        </g>
        <path id="사각형_782" data-name="사각형 782" class="cls-6" transform="translate(51 79)" d="M0 0h65v1H0z"/>
    </g>
    <path id="다각형_139" data-name="다각형 139" d="M7.5 0 15 11H0z" transform="rotate(180 45.5 5.5)" style="fill:#999"/>
</svg>
