<svg id="CHN_fc_box_smaller_color_08" xmlns="http://www.w3.org/2000/svg" width="166" height="135" viewBox="0 0 166 135">
    <defs>
        <clipPath id="clip-path">
            <path id="사각형_664" data-name="사각형 664" style="stroke:#527773;stroke-width:2px;fill:none" d="M0 0h20v20H0z"/>
        </clipPath>
        <style>
            .cls-5{fill:none;stroke:#527773;stroke-width:2px;stroke-miterlimit:10}.cls-6{fill:#326f5e}
        </style>
    </defs>
    <g id="fc_box_smaller_long_color" transform="translate(0 5)">
        <g id="box" style="fill:#d7eae1;stroke:#527773;stroke-width:2px">
            <path style="stroke:none" d="M0 0h166v130H0z"/>
            <path style="fill:none" d="M1 1h164v128H1z"/>
        </g>
        <g id="그룹_1841" data-name="그룹 1841" transform="translate(-80 -1269)">
            <g id="그룹_1846" data-name="그룹 1846" transform="translate(53)">
                <g id="ico_flowchart_info" transform="translate(138.56 1336)">
                    <g id="그룹_883" data-name="그룹 883" transform="translate(2 2)">
                        <g id="그룹_882" data-name="그룹 882" style="clip-path:url(#clip-path)">
                            <circle id="타원_113" data-name="타원 113" class="cls-5" cx="9" cy="9" r="9" transform="translate(1 1)"/>
                            <path id="선_136" data-name="선 136" class="cls-5" transform="translate(10 9)" d="M0 0v6"/>
                            <path id="선_137" data-name="선 137" class="cls-5" transform="translate(10 5)" d="M0 0v2"/>
                        </g>
                    </g>
                </g>
                <path id="패스_10806" data-name="패스 10806" class="cls-6" d="m-24.4-12.26-1.4 1.32a20.139 20.139 0 0 1 3.5 3.04l1.46-1.44a23.982 23.982 0 0 0-3.56-2.92zm-5.02-4.36-2.26.36a14.945 14.945 0 0 1 .62 1.38h-7.64v2h5.32v5.1h2.08v-5.1h2.62v5.1h2.08v-5.1h5.3v-2h-7.62c-.16-.64-.34-1.22-.5-1.74zm-6.2 4.44a14.2 14.2 0 0 1-3.56 2.54l1.28 1.68a15.492 15.492 0 0 0 3.82-2.9zM-37.34-7v1.84h1.56a15.458 15.458 0 0 0 3.8 3.46A29.952 29.952 0 0 1-39.02.06l.98 1.98a30.671 30.671 0 0 0 8.24-2.5 29.883 29.883 0 0 0 8.18 2.48l.96-1.92a30.6 30.6 0 0 1-7.1-1.68 17.593 17.593 0 0 0 4.38-3.84V-7zm3.92 1.84h7.1A17.478 17.478 0 0 1-30-2.6a13.656 13.656 0 0 1-3.42-2.56zM-18.7-15.8v1.96h7.66v1.22h-6.02v8.36h5.66a5.656 5.656 0 0 1-.76 1.84 16.934 16.934 0 0 1-2.68-1.68l-1.6 1.1a17.492 17.492 0 0 0 2.82 1.92 12.723 12.723 0 0 1-5.64 1.3l.92 1.92c3.08-.34 5.36-1.06 6.8-2.18a29.206 29.206 0 0 0 10.38 2.2L-.62.14a29.467 29.467 0 0 1-9.58-1.72 8.423 8.423 0 0 0 .94-2.68h6.36v-8.36h-6.06v-1.22h7.68v-1.96zm13.74 9.72h-4.06l.06-1.14v-.38h4zm-6.14 0h-3.88V-7.6h3.94v.38a10.883 10.883 0 0 1-.06 1.14zm-3.88-3.22v-1.52h3.94v1.52zm6.02-1.52h4v1.52h-4zm17.94-5.52v2.76H2.56v11.72h2.06v-1.16h4.36v5h2.12v-5h4.28V-2h2.06v-11.58H11.1v-2.76zM4.62-4.98V-7.4h4.36v2.42zm6.48 0V-7.4h4.28v2.42zM4.62-9.26v-2.38h4.36v2.38zm6.48 0v-2.38h4.28v2.38zm16.72.56c-.68.36-1.38.68-2.06 1v-3.28h2.02v-1.98h-2.02v-3.4H23.7v3.4h-2.66v1.98h2.66v4.08a26.6 26.6 0 0 1-3.06.84L21.16-4c.84-.26 1.7-.54 2.54-.86v4.3c0 .48-.24.72-.68.72a12.107 12.107 0 0 1-1.64-.14l.48 2h1.9a1.806 1.806 0 0 0 2-2.06v-5.64c.68-.3 1.38-.62 2.06-.94zm2.7 1.96h.76A10.927 10.927 0 0 0 33.6-1.7 9.6 9.6 0 0 1 30.78.32l1 1.84a11.464 11.464 0 0 0 3.24-2.3 18.9 18.9 0 0 0 2.96 2.28l1.4-1.62a17.678 17.678 0 0 1-3.18-2.16 12.865 12.865 0 0 0 1.86-5.2v-1.8h-7.54v-5.26h5.42a6.146 6.146 0 0 1-.26 1.88.852.852 0 0 1-.5.38 6.718 6.718 0 0 1-1.04.06c-.46 0-.84-.02-1.14-.02l.56 1.78h1.52q2.04 0 2.46-1.14a18.818 18.818 0 0 0 .4-4.82h-9.4V2.1h1.98zm2.6 0h2.98a11.543 11.543 0 0 1-1.36 3.54 8.638 8.638 0 0 1-1.62-3.54z" transform="translate(95.18 1355)"/>
            </g>
            <path id="line" class="cls-6" transform="translate(109 1362)" d="M0 0h108v1H0z"/>
        </g>
        <g id="그룹_1840" data-name="그룹 1840" transform="translate(-73 -1269)">
            <path id="패스_10805" data-name="패스 10805" class="cls-6" d="m-40.073-16.26-1.44 1.36a19.566 19.566 0 0 1 3.3 3.24l1.5-1.48a25.74 25.74 0 0 0-3.36-3.12zm11.38 18.02h4.58l.5-2.06q-.81.06-2.34.12c-1.04 0-2.04.02-3.04.02-1.52 0-2.86-.02-4-.04a6.337 6.337 0 0 1-2.6-.5 5.177 5.177 0 0 1-1.36-1.18l-.2-.2V-9.7h-4.58v1.92h2.64v5.48a8.8 8.8 0 0 0-2.68 3.06l1.54 1.42c1-1.8 1.68-2.68 2.06-2.68.24 0 .48.16.74.5a4.29 4.29 0 0 0 2.06 1.38 14.794 14.794 0 0 0 3.16.34c1.26.02 2.44.04 3.52.04zm-6.92-15.24v1.94h2.12v1.36a16.136 16.136 0 0 1-.12 2.02h-2.7v1.96h2.3a6.159 6.159 0 0 1-2.22 3.38l1.26 1.66a8.63 8.63 0 0 0 3.02-5.04h3v5.32h2.04V-6.2h2.94v-1.96h-2.94v-3.38h2.3v-1.94h-2.3v-2.94h-2.04v2.94h-2.52v-2.98h-2.02v2.98zm4.14 1.94h2.52v3.38h-2.66a24.449 24.449 0 0 0 .14-2.5zm26.16-2.7h-15.1v16h2.1V.68h10.88v1.08h2.12zm-13 12.88V-12.2h10.88v10.84zm24.42-14.98v2.76h-6.42v11.72h2.06v-1.16h4.36v5h2.12v-5h4.28V-2h2.06v-11.58h-6.34v-2.76zM1.747-4.98V-7.4h4.36v2.42zm6.48 0V-7.4h4.28v2.42zm-6.48-4.28v-2.38h4.36v2.38zm6.48 0v-2.38h4.28v2.38zm16.72.56c-.68.36-1.38.68-2.06 1v-3.28h2.02v-1.98h-2.02v-3.4h-2.06v3.4h-2.66v1.98h2.66v4.08a26.6 26.6 0 0 1-3.06.84l.52 2.06c.84-.26 1.7-.54 2.54-.86v4.3c0 .48-.24.72-.68.72a12.107 12.107 0 0 1-1.64-.14l.48 2h1.9a1.806 1.806 0 0 0 2-2.06v-5.64c.68-.3 1.38-.62 2.06-.94zm2.7 1.96h.76a10.927 10.927 0 0 0 2.32 5.04 9.6 9.6 0 0 1-2.82 2.02l1 1.84a11.464 11.464 0 0 0 3.24-2.3 18.9 18.9 0 0 0 2.96 2.28l1.4-1.62a17.678 17.678 0 0 1-3.18-2.16 12.865 12.865 0 0 0 1.86-5.2v-1.8h-7.54v-5.26h5.42a6.146 6.146 0 0 1-.26 1.88.852.852 0 0 1-.5.38 6.718 6.718 0 0 1-1.04.06c-.46 0-.84-.02-1.14-.02l.56 1.78h1.52q2.04 0 2.46-1.14a18.818 18.818 0 0 0 .4-4.82h-9.4V2.1h1.98zm2.6 0h2.98a11.544 11.544 0 0 1-1.36 3.54 8.638 8.638 0 0 1-1.62-3.54zm8.365 5.29-.967 5.559h2.065L41.4-1.45z" transform="translate(156 1325)"/>
            <path id="line-2" data-name="line" class="cls-6" transform="translate(113 1332)" d="M0 0h86v1H0z"/>
        </g>
    </g>
    <path id="다각형_113" data-name="다각형 113" d="M7.5 0 15 11H0z" transform="rotate(180 45.5 5.5)" style="fill:#999"/>
</svg>
