<svg id="CHN_fc_box_smaller_color_07" xmlns="http://www.w3.org/2000/svg" width="258" height="135" viewBox="0 0 258 135">
    <defs>
        <clipPath id="clip-path">
            <path id="사각형_664" data-name="사각형 664" style="stroke:#527773;stroke-width:2px;fill:none" d="M0 0h20v20H0z"/>
        </clipPath>
        <style>
            .cls-6{fill:none;stroke:#527773;stroke-width:2px}.cls-3{fill:#326f5e}.cls-6{stroke-miterlimit:10}
        </style>
    </defs>
    <g id="fc_box_small2__long_color" data-name="fc_box_small2_ long_color" transform="translate(0 5)">
        <g id="fc_box_smaller_small_long_link_color">
            <g id="fc_box_smaller_small_long_link_color-2" data-name="fc_box_smaller_small_long_link_color">
                <g id="box" style="fill:#f5faf8;stroke:#6c918e;stroke-width:2px">
                    <path style="stroke:none" d="M0 0h258v130H0z"/>
                    <path style="fill:none" d="M1 1h256v128H1z"/>
                </g>
                <path id="패스_10790" data-name="패스 10790" class="cls-3" d="M-23.93-3.8a7.088 7.088 0 0 1-.28 2.2c-.2.5-.82.58-1.76.58-1.26 0-1.94-.04-1.94-.66v-5.88a28.841 28.841 0 0 0 5.54-3.76l-1.28-1.72a20.822 20.822 0 0 1-4.26 3.3v-6.2h-2.12v15c0 1.62.92 1.9 4.12 1.9 2.36 0 3.06-.36 3.4-1.08a4.919 4.919 0 0 0 .42-1.4c.08-.5.12-1 .2-1.48zm-9.48 5.1v-12.32a24.88 24.88 0 0 0 1.82-4.4l-2-.7a17.506 17.506 0 0 1-4.52 8.04l1.02 2.1a17.722 17.722 0 0 0 1.7-2c-.04.68-.1 1.36-.1 1.98v7.3zm30.8-13.86h-3.62a21.187 21.187 0 0 0 1.94-3.16l-2.16-.8a24.739 24.739 0 0 1-2.06 3.96h-3.06l1.66-.84a34.647 34.647 0 0 0-1.88-3.24l-1.9.92a22.322 22.322 0 0 1 1.86 3.16h-3.96l1.2-.6a31.093 31.093 0 0 0-1.96-3.06l-1.9.92a21.169 21.169 0 0 1 1.88 2.74h-3.52v4.98h2.06v-2.98h13.34v2.98h2.08zm-14.16 3.08v1.84h7.8c-.8.4-1.86.86-3.18 1.42v1.48h-7.82v1.96h7.82v2.22c0 .48-.2.74-.58.74-.86 0-1.66-.02-2.38-.06l.52 1.9h2.56c1.32 0 1.98-.64 1.98-1.88v-2.92h7.38v-1.96h-7.38v-.56a43.654 43.654 0 0 0 4.14-2.34v-1.84zm25.16-7a15.035 15.035 0 0 1-2.64 6.74l1.52 1.3a12.064 12.064 0 0 0 1.74-2.98h.84c-.74 3.54-2.08 6.12-4 7.76L7.19-2.1c2.18-1.96 3.68-5.08 4.52-9.32h1a27.972 27.972 0 0 1-1.62 6.74A14.719 14.719 0 0 1 7.41.28l1.3 1.66a17.17 17.17 0 0 0 4.1-5.72 32.328 32.328 0 0 0 1.76-7.64h.72c-.04 5.66-.1 8.96-.22 9.9A1.708 1.708 0 0 1 13.23.14c-.48 0-1.02-.04-1.66-.1l.48 1.86c.72.06 1.24.1 1.52.1q3.06 0 3.42-2.58.3-2.4.3-12.84H9.73c.22-.8.42-1.64.62-2.54zm-6.72 6.02h1.1v4.78a27.1 27.1 0 0 1-3.26.88l.5 2.02c.94-.28 1.86-.6 2.76-.92v5.78h2.04v-6.6c.42-.2.84-.38 1.28-.58v-1.96c-.44.2-.86.4-1.28.6v-4h1.36v-2H4.81v-3.94H2.77v3.94h-.86c.06-.76.1-1.52.14-2.28l-1.86-.14a30.912 30.912 0 0 1-.92 6.64l1.84.52c.22-.88.4-1.8.56-2.74zm21.64.26h5.78l-.3 1.3h-4.14v7.04h2.02v-5.12h7.26v5.12h2.02V-8.9h-5.04l.3-1.3h6.38v-1.92h-6.06c.06-.4.12-.82.16-1.22l-2.08-.26-.18 1.48h-6.12v-1.3a88.276 88.276 0 0 0 13.4-1.16l-1.02-1.86a82.483 82.483 0 0 1-14.4 1.28v6.4q-.15 5.91-2.04 9.24L20.71 2q2.46-4.02 2.6-10.76zm8.32 7.68L30.59-.96a26.936 26.936 0 0 1 5.86 3.06L37.61.28a30.505 30.505 0 0 0-5.98-2.8zM29.71-6.4a6.72 6.72 0 0 1-1.96 4.3A11.642 11.642 0 0 1 22.63.22l1.12 1.92a12.942 12.942 0 0 0 5.78-2.98 8.658 8.658 0 0 0 2.2-5.42z" transform="translate(129 57)"/>
                <g id="그룹_1861" data-name="그룹 1861" transform="translate(-45 -13)">
                    <g id="ico_flowchart_info" transform="translate(212.3 81)">
                        <g id="그룹_883" data-name="그룹 883" transform="translate(2 2)">
                            <g id="그룹_882" data-name="그룹 882" style="clip-path:url(#clip-path)">
                                <circle id="타원_113" data-name="타원 113" class="cls-6" cx="9" cy="9" r="9" transform="translate(1 1)"/>
                                <path id="선_136" data-name="선 136" class="cls-6" transform="translate(10 9)" d="M0 0v6"/>
                                <path id="선_137" data-name="선 137" class="cls-6" transform="translate(10 5)" d="M0 0v2"/>
                            </g>
                        </g>
                    </g>
                    <path id="패스_10791" data-name="패스 10791" class="cls-3" d="M-39.14-6.34h1.9v2.04h-1.9zm-.14 3.82h2.04v4.24h1.9v-4.24h2.02v2.16a.386.386 0 0 1-.42.44A9.4 9.4 0 0 1-35-.02l.5 1.88h1.34c1.18 0 1.78-.52 1.78-1.54v-12.18h-3a17.859 17.859 0 0 0 1.5-1.8v-1.46h-4.62c.16-.28.3-.56.46-.88l-2.02-.46a14.844 14.844 0 0 1-3.78 4.92l1.28 1.54c.16-.14.34-.28.5-.44v6.08a9.084 9.084 0 0 1-1.4 5.04l1.52 1.36a10.262 10.262 0 0 0 1.66-4.56zm2.66-9.34h-3.06c.38-.48.76-.98 1.14-1.52h3.22a17.092 17.092 0 0 1-1.3 1.52zm3.3 7.56h-2.02v-2.04h2.02zm0-3.84h-2.02v-1.9h2.02zm-3.92-1.9v1.9h-1.9v-1.9zm-11.52-5.48v2h1.98a20.167 20.167 0 0 1-2.64 7.12l1.2 1.94c.24-.36.46-.72.7-1.1v6.98h1.96V.12h3.28v-9.7h-3.42a28.377 28.377 0 0 0 .96-3.94h2.84v-2zm3.2 13.74v-5.88h1.4v5.88zm27.78-14.5a44.881 44.881 0 0 1-.84 9.34 13.419 13.419 0 0 1-4.44 7.2L-21.64 2a14.724 14.724 0 0 0 5.08-8.52c.04-.16.06-.34.1-.52A28.381 28.381 0 0 0-12 1.94L-10.48.2a24.789 24.789 0 0 1-5.36-11.64c.12-1.48.18-3.1.18-4.84zm-8.66-.02-1.48 1.44a18.309 18.309 0 0 1 3.28 2.94l1.44-1.46a28.017 28.017 0 0 0-3.24-2.92zm-2.78 5.78v2h2.74v6.9a1.345 1.345 0 0 1-.54 1.1l.8 1.86a30.809 30.809 0 0 0 4.16-3.22l-.56-2.14c-.64.62-1.26 1.18-1.84 1.66v-8.16zm27.12-5h-6.48V.32h2.08v-1.46h4.4zM-6.5-3.18v-4.3h2.38v4.3zm0-6.32v-3.98h2.38v3.98zm8.26.36h4.46v2.84H1.76zm4.46-1.94H1.76v-2.84h4.46zm-4.6 6.74h4.6V-1c0 .64-.26.96-.74.96-.72 0-1.54-.04-2.42-.1l.58 2.04h2.52A1.923 1.923 0 0 0 8.34-.26v-15.68h-8.7v9.76A11.012 11.012 0 0 1-2.56.74L-.9 2.26a12.462 12.462 0 0 0 2.52-6.6zm15.52 1.96a32.254 32.254 0 0 1-6.26 1.74l.28 2a30.588 30.588 0 0 0 5.98-1.78zM13.62-16.5a45.079 45.079 0 0 1-2.08 6.02 1.988 1.988 0 0 1-.82.72l.5 1.78c.9-.16 1.76-.3 2.6-.46a17.649 17.649 0 0 1-1.94 3.32 3.492 3.492 0 0 1-.88.56l.5 1.8a30.724 30.724 0 0 0 5.62-1.28v-1.84a30.805 30.805 0 0 1-3.28.88 53.348 53.348 0 0 0 3.6-6.74l-1.82-.68c-.34.78-.66 1.52-.98 2.22-.52.1-1.06.18-1.58.26a35.274 35.274 0 0 0 2.46-5.8zm8.68 3.42v4.98h-2.58v-4.98zm0 6.86v5.18h-2.58v-5.18zm1.88 5.18v-5.18h2.5v5.18zm0-7.06v-4.98h2.5v4.98zm2.5 8.96v1.12h1.96V-15H17.82V1.98h1.9V.86zm11.18-17.38v3.3H32.2v2h5.66v3.36h-6.82v2.02h6.82v7.96h2.1v-7.96h6.22a10.453 10.453 0 0 1-.36 3.52 1.419 1.419 0 0 1-1 .44c-.68 0-1.42-.02-2.2-.02l.56 1.96h1.28a9.593 9.593 0 0 0 1.5-.18 2.338 2.338 0 0 0 1.24-.62c.68-.68 1.02-3.06 1.04-7.12h-2.78l.38-4.36v-1h-5.88v-3.3zm2.1 8.66v-3.36h3.78l-.3 3.36zm4.94-8.62-1.06 1.58a18.006 18.006 0 0 1 3.92 2.56l1.12-1.74a21.912 21.912 0 0 0-3.98-2.4z" transform="translate(159.42 100)"/>
                </g>
                <path id="line" class="cls-3" transform="translate(65 93)" d="M0 0h128v1H0z"/>
                <path id="line-2" data-name="line" class="cls-3" transform="translate(90 63)" d="M0 0h78v1H0z"/>
            </g>
        </g>
    </g>
    <path id="다각형_112" data-name="다각형 112" d="M7.5 0 15 11H0z" transform="rotate(180 68.5 5.5)" style="fill:#999"/>
</svg>
