<svg id="CHN_fc_box_smaller_color_04" xmlns="http://www.w3.org/2000/svg" width="348" height="135" viewBox="0 0 348 135">
    <defs>
        <clipPath id="clip-path">
            <path id="사각형_664" data-name="사각형 664" style="stroke:#527773;stroke-width:2px;fill:none" d="M0 0h20v20H0z"/>
        </clipPath>
        <style>
            .cls-5{fill:none;stroke:#527773;stroke-width:2px;stroke-miterlimit:10}.cls-6{fill:#326f5e}
        </style>
    </defs>
    <g id="fc_box_small_color" transform="translate(0 5)">
        <g id="box" style="fill:#d7eae1;stroke:#527773;stroke-width:2px">
            <path style="stroke:none" d="M0 0h348v130H0z"/>
            <path style="fill:none" d="M1 1h346v128H1z"/>
        </g>
        <g id="그룹_1838" data-name="그룹 1838" transform="translate(-605 -2798)">
            <g id="그룹_1843" data-name="그룹 1843">
                <g id="ico_flowchart_info" transform="translate(803.34 2850)">
                    <g id="그룹_883" data-name="그룹 883" transform="translate(2 2)">
                        <g id="그룹_882" data-name="그룹 882" style="clip-path:url(#clip-path)">
                            <circle id="타원_113" data-name="타원 113" class="cls-5" cx="9" cy="9" r="9" transform="translate(1 1)"/>
                            <path id="선_136" data-name="선 136" class="cls-5" transform="translate(10 9)" d="M0 0v6"/>
                            <path id="선_137" data-name="선 137" class="cls-5" transform="translate(10 5)" d="M0 0v2"/>
                        </g>
                    </g>
                </g>
                <path id="패스_10674" data-name="패스 10674" class="cls-6" d="M-19.39-4.84v-1.82h-4.26v-3.84h3.5v-1.82h-3.5V-16h-2.12v3.68h-3.44V-16h-2.1v3.68h-3.1v1.82h3.1v3.84h-3.92v1.82zm-.18 4.34a14.364 14.364 0 0 1-5.02-3.68l-1.58 1.12a18.39 18.39 0 0 0 5.4 4.34zm-9.64-10h3.44v3.84h-3.44zm-.94 6.46a15.318 15.318 0 0 1-5 3.82l1.28 1.6a18.826 18.826 0 0 0 5.36-4.32zm27.24-11.14h-14.2V1.34h2.06v-14.62h10.04v12.06c0 .34-.12.42-.64.42a11.681 11.681 0 0 1-1.88-.16l.46 2.02c.6.06 1.26.1 1.82.1 1.48 0 2.34-.32 2.34-2.1zm-3.6 12.34v-5.98h-7.1v7.26h2v-1.28zm.66-7.36v-1.66h-8.42v1.66zm-5.76 3.12h3.12v2.5h-3.12zM15.41.74v-1.82h-4.78v-4.28h3.72v-1.8h-3.72v-3.36h4.26v-1.86h-4.22l1.08-.98a17.484 17.484 0 0 0-3.52-2.78l-1.42 1.36a19.451 19.451 0 0 1 2.96 2.4H4.51v1.86h4.06v3.36h-3.5v1.8h3.5v4.28h-4.7V.74zM1.99-6.04A22.205 22.205 0 0 1-.65.02L1.03 1.4a29.933 29.933 0 0 0 2.62-6.18zm1.7-2.62a20.285 20.285 0 0 0-3.24-2.56l-1.28 1.4a18.512 18.512 0 0 1 3.18 2.68zm.78-4.74a17.963 17.963 0 0 0-3.1-2.62l-1.38 1.36a16.3 16.3 0 0 1 3.06 2.72zm12.32 4.72v2.02h2.2v.48a13.64 13.64 0 0 1-1.66 6.9l1.54 1.42a15.739 15.739 0 0 0 2.16-8.48v-.32h2.18V-.9c0 .58-.18.88-.54.88-.52 0-1.1-.04-1.72-.08l.56 1.96h1.78c1.26 0 1.9-.7 1.9-2.06v-6.46h1.72v.5a15.943 15.943 0 0 1-1.4 6.9l1.52 1.38a17.671 17.671 0 0 0 1.86-8.42v-.36h2.2v5.74c0 .6-.28.9-.8.9-.5 0-1.04-.04-1.62-.08l.54 1.96h1.72c1.46 0 2.2-.68 2.2-2.04v-6.48h1.98v-2.02h-1.98v-7.12h-6.22v7.12h-1.72v-7.12h-6.2v7.12zm14.3 0h-2.2v-5.24h2.2zm-7.88 0h-2.18v-5.24h2.18z" transform="translate(764.23 2869)"/>
            </g>
            <path id="line" class="cls-6" transform="translate(729 2876)" d="M0 0h100v1H0z"/>
        </g>
    </g>
    <path id="다각형_137" data-name="다각형 137" d="M7.5 0 15 11H0z" transform="rotate(180 91 5.5)" style="fill:#999"/>
</svg>
