<svg id="CHN_fc_box_smaller_color_01" xmlns="http://www.w3.org/2000/svg" width="166" height="135" viewBox="0 0 166 135">
    <defs>
        <clipPath id="clip-path">
            <path id="사각형_664" data-name="사각형 664" style="stroke:#527773;stroke-width:2px;fill:none" d="M0 0h20v20H0z"/>
        </clipPath>
        <style>
            .cls-5{fill:none;stroke:#527773;stroke-width:2px;stroke-miterlimit:10}.cls-6{fill:#326f5e}
        </style>
    </defs>
    <g id="fc_box_smaller_color" transform="translate(0 5)">
        <g id="box" style="fill:#f5faf8;stroke:#6c918e;stroke-width:2px">
            <path style="stroke:none" d="M0 0h166v130H0z"/>
            <path style="fill:none" d="M1 1h164v128H1z"/>
        </g>
        <g id="그룹_1839" data-name="그룹 1839" transform="translate(-80 -1271)">
            <g id="그룹_1846" data-name="그룹 1846">
                <g id="ico_flowchart_info" transform="translate(187.66 1323)">
                    <g id="그룹_883" data-name="그룹 883" transform="translate(2 2)">
                        <g id="그룹_882" data-name="그룹 882" style="clip-path:url(#clip-path)">
                            <circle id="타원_113" data-name="타원 113" class="cls-5" cx="9" cy="9" r="9" transform="translate(1 1)"/>
                            <path id="선_136" data-name="선 136" class="cls-5" transform="translate(10 9)" d="M0 0v6"/>
                            <path id="선_137" data-name="선 137" class="cls-5" transform="translate(10 5)" d="M0 0v2"/>
                        </g>
                    </g>
                </g>
                <path id="패스_10667" data-name="패스 10667" class="cls-6" d="M-26.17-16.08h-2.14v1.24h-6.54v1.64h6.54v.8h-5.14v3.54h5.14v.76h-5.64v1.5h5.64v.78h-7.02v1.52h7.02v.76h-5.7V-2h5.7v.76c0 .34-.12.46-.8.46a10.724 10.724 0 0 1-2-.18l.48 1.9a20.01 20.01 0 0 0 2.04.12c1.68 0 2.42-.46 2.42-2.06v-1h5.32v-2.3h1.58v-1.52h-1.58V-8.1h-5.32v-.76h5.1v-3.54h-5.1v-.8h6.38v-1.64h-6.38zm-5.28 4.92h3.14v.92h-3.14zm8.4 0v.92h-3.12v-.92zm.18 4.56v.78h-3.3v-.78zm-3.3 3.06v-.76h3.3v.76zm16.12-6.98h-6.88V1.32h1.98v-3.9h2.92v1.4c0 .34-.24.38-.54.38a7.727 7.727 0 0 1-1.48-.2l.46 2a12.035 12.035 0 0 0 1.76.1c1.56 0 1.78-.58 1.78-1.94zm7.88-1.26v-1.76h-4.28a21.461 21.461 0 0 0 1.12-2l-2.12-.56a15.4 15.4 0 0 1-1.3 2.56h-2.46a19.43 19.43 0 0 0-1.5-2.52l-1.88.6c.38.56.74 1.26 1.1 1.92h-4.38v1.76zm-.98.92h-2v9.42c0 .48-.08.54-.46.56a2.057 2.057 0 0 1-.36.02 7.9 7.9 0 0 1-1.62-.22L-7.13 1c.86.08 1.48.1 1.96.1 1.5 0 2.02-.62 2.02-1.98zm-3.62 8.54v-7.86h-1.98v7.86zm-8.18-3.36h2.92v1.32h-2.92zm0-3h2.92v1.28h-2.92zM8.23 1.34v-4.92h3.72v1.06h2.06V-13.5H8.23v-2.54H6.15v2.54H.59v11.08h2.06v-1.16h3.5v4.92zm0-9.04h3.72v2.34H8.23zm-5.58 0h3.5v2.34h-3.5zm9.3-4.04v2.2H8.23v-2.2zm-9.3 0h3.5v2.2h-3.5zM23.77-8.7c-.68.36-1.38.68-2.06 1v-3.28h2.02v-1.98h-2.02v-3.4h-2.06v3.4h-2.66v1.98h2.66v4.08a26.6 26.6 0 0 1-3.06.84L17.11-4c.84-.26 1.7-.54 2.54-.86v4.3c0 .48-.24.72-.68.72a12.107 12.107 0 0 1-1.64-.14l.48 2h1.9a1.806 1.806 0 0 0 2-2.06v-5.64c.68-.3 1.38-.62 2.06-.94zm2.7 1.96h.76a10.927 10.927 0 0 0 2.32 5.04A9.6 9.6 0 0 1 26.73.32l1 1.84a11.464 11.464 0 0 0 3.24-2.3 18.9 18.9 0 0 0 2.96 2.28l1.4-1.62a17.678 17.678 0 0 1-3.18-2.16 12.865 12.865 0 0 0 1.86-5.2v-1.8h-7.54v-5.26h5.42a6.146 6.146 0 0 1-.26 1.88.852.852 0 0 1-.5.38 6.718 6.718 0 0 1-1.04.06c-.46 0-.84-.02-1.14-.02l.56 1.78h1.52q2.04 0 2.46-1.14a18.818 18.818 0 0 0 .4-4.82h-9.4V2.1h1.98zm2.6 0h2.98a11.544 11.544 0 0 1-1.36 3.54 8.638 8.638 0 0 1-1.62-3.54z" transform="translate(148.33 1342)"/>
            </g>
            <path id="line" class="cls-6" transform="translate(114 1349)" d="M0 0h98v1H0z"/>
        </g>
    </g>
    <path id="다각형_134" data-name="다각형 134" d="M7.5 0 15 11H0z" transform="rotate(180 45.5 5.5)" style="fill:#999"/>
</svg>
