<svg id="CHN_fc_box_smaller_color_11" xmlns="http://www.w3.org/2000/svg" width="166" height="135" viewBox="0 0 166 135">
    <defs>
        <clipPath id="clip-path">
            <path id="사각형_664" data-name="사각형 664" style="stroke:#527773;stroke-width:2px;fill:none" d="M0 0h20v20H0z"/>
        </clipPath>
        <style>
            .cls-5{fill:none;stroke:#527773;stroke-width:2px;stroke-miterlimit:10}.cls-6{fill:#326f5e}
        </style>
    </defs>
    <g id="fc_box_smaller_long_color" transform="translate(0 5)">
        <g id="box" style="fill:#f5faf8;stroke:#6c918e;stroke-width:2px">
            <path style="stroke:none" d="M0 0h166v130H0z"/>
            <path style="fill:none" d="M1 1h164v128H1z"/>
        </g>
        <g id="그룹_1841" data-name="그룹 1841" transform="translate(-80 -1269)">
            <g id="그룹_1846" data-name="그룹 1846" transform="translate(53)">
                <g id="ico_flowchart_info" transform="translate(139.884 1336)">
                    <g id="그룹_883" data-name="그룹 883" transform="translate(2 2)">
                        <g id="그룹_882" data-name="그룹 882" style="clip-path:url(#clip-path)">
                            <circle id="타원_113" data-name="타원 113" class="cls-5" cx="9" cy="9" r="9" transform="translate(1 1)"/>
                            <path id="선_136" data-name="선 136" class="cls-5" transform="translate(10 9)" d="M0 0v6"/>
                            <path id="선_137" data-name="선 137" class="cls-5" transform="translate(10 5)" d="M0 0v2"/>
                        </g>
                    </g>
                </g>
                <path id="패스_10799" data-name="패스 10799" class="cls-6" d="m-36.271-14.807-4.558 16.934h2.5l4.558-16.934zM-21.7-16.04h-2.1v2.06h-4.36c.16-.56.32-1.12.46-1.7l-2.1-.48a23.731 23.731 0 0 1-3.4 8.22l.96 2.34c.38-.54.72-1.06 1.08-1.62l-.04 1.18v7.38h2.06v-12.56c.3-.78.56-1.56.84-2.34v1.46h4.5l.02 1.26h-4.06v5.44h1l-1.24 1.08a16.781 16.781 0 0 0 2.22 2.08 9.034 9.034 0 0 1-3.02 1.92l1.12 1.66a11.055 11.055 0 0 0 3.54-2.48 18.486 18.486 0 0 0 6.64 2.4l.92-1.94a19.119 19.119 0 0 1-6.38-2 5.925 5.925 0 0 0 .64-1.22 7.428 7.428 0 0 0 .4-1.5h4.42v-5.44h-4.14v-1.26h4.76v-1.88h-4.76zm2.06 7.02v1.84h-2.14c.04-.58.04-1.22.06-1.84zm-6.12 0h1.98c-.02.64-.02 1.28-.06 1.84h-1.92zm1.7 3.62a4.408 4.408 0 0 1-.24.82 5.334 5.334 0 0 1-.4.84 13.748 13.748 0 0 1-1.76-1.66zM-5.945.86V-4.5h3.7v3.06c0 .46-.3.54-.82.54A8.068 8.068 0 0 1-4.7-1.06l.48 2c.58.06 1.52.1 1.98.1C-.785 1.04-.2.52-.2-.94v-13.94h-13.18v5.8a33.957 33.957 0 0 1-.24 5.42A8.946 8.946 0 0 1-15.085.1l1.68 1.24a10.761 10.761 0 0 0 1.78-4.66c.06-.36.1-.78.16-1.18h3.48V.86zm0-9.6h3.7v2.44h-3.7zm3.7-4.28v2.44h-3.7v-2.44zm-9.1 4.28h3.36v2.44h-3.4c.02-.78.04-1.6.04-2.44zm0-4.28h3.36v2.44h-3.36zM11.175-12h2.4v4.22h-5.72v2.02h5.72V2.1h2.1v-7.86H20.4v-2.02h-4.72V-12h3.96v-2h-7.62a16.757 16.757 0 0 0 .6-2.2l-2.04-.36a12.221 12.221 0 0 1-3.24 6.36l1.34 1.64A12 12 0 0 0 11.175-12zm-6.7-4.3L3-14.86a18.309 18.309 0 0 1 3.28 2.94l1.44-1.46a25.048 25.048 0 0 0-3.245-2.92zm-2.66 5.78v2h2.62v7.1a1.4 1.4 0 0 1-.52 1.08l.8 1.88a30.57 30.57 0 0 0 4.16-3.28L8.3-3.92c-.64.64-1.26 1.2-1.84 1.72v-8.32zm20.22-4.84v2.02h13.44V-.82c0 .56-.26.86-.74.86-1 0-2.06-.04-3.14-.12l.48 2.02h3.38c1.4 0 2.12-.76 2.12-2.24v-13.04h2.48v-2.02zm10.4 4.42h-8.26v9.44h2v-1.6h6.26zm-6.26 5.96v-4.1h4.28v4.1z" transform="translate(96 1355)"/>
            </g>
            <path id="line" class="cls-6" transform="translate(108 1362)" d="M0 0h110v1H0z"/>
        </g>
        <g id="그룹_1840" data-name="그룹 1840" transform="translate(-80 -1269)">
            <path id="패스_10798" data-name="패스 10798" class="cls-6" d="M-38.655-15.78a14.406 14.406 0 0 1-1.52 4.44l1.7.9a8.768 8.768 0 0 0 .74-1.58h1.7v1.62h-3.94v1.82h3.94v1.34h-3.24V.1h1.96v-5.5h1.28v6.7h2v-6.7h1.36v2.82c0 .28-.18.34-.52.34a2.316 2.316 0 0 1-.66-.12l.36 2.12a5.476 5.476 0 0 0 1.1.08 1.471 1.471 0 0 0 1.66-1.6v-5.48h-3.3v-1.34h3.76v-1.82h-3.76v-1.62h3.14v-1.84h-3.14v-2.16h-2v2.16h-1.1l.32-1.42zm14.08-.24h-1.98v14.3c0 .56-.28.72-.68.74h-.46c-.52-.04-1.04-.14-1.58-.22l.52 2.1a12.728 12.728 0 0 0 1.52.16c2.08 0 2.66-.58 2.66-1.84zM-27.755-3v-11.14h-1.76V-3zm20.18-5.44v-1.84h-4.48v-1.9h3.42v-1.86h-3.42V-16h-2.08v1.96h-1.38c.12-.42.24-.86.34-1.28L-17-15.74a11.4 11.4 0 0 1-1.96 4.18l1.64 1a18.314 18.314 0 0 0 .98-1.62h2.2v1.88h-.02v.02h-4.48v1.84zm-1.04 6.54v-5.5h-8.9v5.5zm1.72.82c-1.84.1-3.66.22-5.3.24h-.66a16.619 16.619 0 0 1-4.44-.44 2.263 2.263 0 0 1-1.36-.96 2.672 2.672 0 0 1-.42-.6V-7.1h-4.04v1.86h2.06v2.78a14 14 0 0 1-2.2 1.46l.92 2.04a22.97 22.97 0 0 0 2.48-2.06A3.532 3.532 0 0 0-17.735.6a22.014 22.014 0 0 0 5.42.48h.7c1.64 0 2.56-.04 4.18-.1zm-8.54-4.46h4.72v1.78h-4.72zm-3.54-4.04a16.571 16.571 0 0 0-3.06-2.36l-1.16 1.46a16.225 16.225 0 0 1 2.98 2.46zm.34-4.08a18.527 18.527 0 0 0-2.9-2.26l-1.2 1.38a15.989 15.989 0 0 1 2.78 2.38zm16.964-1.147L-6.229 2.127h2.5L.829-14.807zm5.486-1.453-1.44 1.36a19.566 19.566 0 0 1 3.3 3.24l1.5-1.48a25.74 25.74 0 0 0-3.36-3.12zM15.2 1.76h4.58l.5-2.06q-.81.06-2.34.12c-1.04 0-2.04.02-3.04.02-1.52 0-2.86-.02-4-.04a6.337 6.337 0 0 1-2.6-.5 5.177 5.177 0 0 1-1.36-1.18l-.2-.2V-9.7H2.155v1.92H4.8v5.48A8.8 8.8 0 0 0 2.115.76l1.54 1.42c1-1.8 1.68-2.68 2.06-2.68.24 0 .48.16.74.5a4.29 4.29 0 0 0 2.06 1.38 14.794 14.794 0 0 0 3.16.34c1.26.02 2.44.04 3.525.04zM8.275-13.48v1.94H10.4v1.36a16.137 16.137 0 0 1-.12 2.02h-2.7v1.96h2.3a6.159 6.159 0 0 1-2.22 3.38l1.26 1.66a8.63 8.63 0 0 0 3.02-5.04h3v5.32h2.04V-6.2h2.94v-1.96h-2.94v-3.38h2.3v-1.94h-2.3v-2.94h-2.04v2.94h-2.52v-2.98H10.4v2.98zm4.14 1.94h2.52v3.38h-2.66a24.449 24.449 0 0 0 .14-2.5zm26.16-2.7h-15.1v16h2.1V.68h10.88v1.08h2.12zm-13 12.88V-12.2h10.88v10.84z" transform="translate(163 1325)"/>
            <path id="line-2" data-name="line" class="cls-6" transform="translate(122 1332)" d="M0 0h82v1H0z"/>
        </g>
    </g>
    <path id="다각형_121" data-name="다각형 121" d="M7.5 0 15 11H0z" transform="rotate(180 45.5 5.5)" style="fill:#999"/>
</svg>
