<svg id="CHN_flow_chart_2_7_1" xmlns="http://www.w3.org/2000/svg" width="1336" height="1230" viewBox="0 0 1336 1230">
    <defs>
        <filter id="box" x="105" y="814" width="1126" height="148" filterUnits="userSpaceOnUse">
            <feOffset dy="3"/>
            <feGaussianBlur stdDeviation="3" result="blur"/>
            <feFlood flood-color="#111" flood-opacity=".102"/>
            <feComposite operator="in" in2="blur"/>
            <feComposite in="SourceGraphic"/>
        </filter>
        <filter id="area" x="105" y="94" width="1126" height="148" filterUnits="userSpaceOnUse">
            <feOffset dy="3"/>
            <feGaussianBlur stdDeviation="3" result="blur-2"/>
            <feFlood flood-color="#111" flood-opacity=".102"/>
            <feComposite operator="in" in2="blur-2"/>
            <feComposite in="SourceGraphic"/>
        </filter>
        <filter id="box-2" x="675" y="634" width="556" height="148" filterUnits="userSpaceOnUse">
            <feOffset dy="3"/>
            <feGaussianBlur stdDeviation="3" result="blur-3"/>
            <feFlood flood-color="#111" flood-opacity=".102"/>
            <feComposite operator="in" in2="blur-3"/>
            <feComposite in="SourceGraphic"/>
        </filter>
        <filter id="box-3" x="105" y="274" width="1126" height="148" filterUnits="userSpaceOnUse">
            <feOffset dy="3"/>
            <feGaussianBlur stdDeviation="3" result="blur-4"/>
            <feFlood flood-color="#111" flood-opacity=".102"/>
            <feComposite operator="in" in2="blur-4"/>
            <feComposite in="SourceGraphic"/>
        </filter>
        <filter id="box-4" x="105" y="454" width="1126" height="148" filterUnits="userSpaceOnUse">
            <feOffset dy="3"/>
            <feGaussianBlur stdDeviation="3" result="blur-5"/>
            <feFlood flood-color="#111" flood-opacity=".102"/>
            <feComposite operator="in" in2="blur-5"/>
            <feComposite in="SourceGraphic"/>
        </filter>
        <filter id="area-2" x="105" y="994" width="1126" height="148" filterUnits="userSpaceOnUse">
            <feOffset dy="3"/>
            <feGaussianBlur stdDeviation="3" result="blur-6"/>
            <feFlood flood-color="#111" flood-opacity=".102"/>
            <feComposite operator="in" in2="blur-6"/>
            <feComposite in="SourceGraphic"/>
        </filter>
        <style>
            .cls-1{fill:#f8f8f8}.cls-2,.cls-5{fill:#fff}.cls-2{stroke:#999;stroke-width:2px}.cls-3{fill:#333}.cls-4{fill:red;opacity:0}.cls-5,.cls-6{stroke:#326f5e;stroke-width:1.5px}.cls-11,.cls-6{fill:none}.cls-7{fill:#326f5e}.cls-9{fill:#999}.cls-10{stroke:none}
        </style>
    </defs>
    <path id="bg" class="cls-1" d="M0 0h1336v1230H0z"/>
    <g id="fc_boxes" transform="translate(-293 -944)">
        <g id="fc_box_big_no_btn" transform="translate(407 1764)">
            <g transform="translate(-114 -820)" style="filter:url(#box)">
                <g id="box-5" data-name="box" class="cls-2">
                    <path class="cls-10" d="M0 0h1108v130H0z" transform="translate(114 820)"/>
                    <path class="cls-11" d="M1 1h1106v128H1z" transform="translate(114 820)"/>
                </g>
            </g>
            <path id="패스_10753" data-name="패스 10753" class="cls-3" d="M211.089 9.352c.96-.12 1.9-.24 2.808-.384v2.616h-3.264v2.424h3.12a17.426 17.426 0 0 1-3.888 6.336l1.056 2.64a24.865 24.865 0 0 0 2.976-5.376V27.4h2.352V17.224a77.509 77.509 0 0 1 1.872 3.264l1.416-2.136a45.535 45.535 0 0 0-3.288-3.432v-.912h2.616v-2.424h-2.616V8.512a53.53 53.53 0 0 0 2.616-.7l-.888-2.352a30.283 30.283 0 0 1-7.392 1.512zm8.808-2.88v11.9h11.112v-11.9zm8.64 9.552h-6.144V8.848h6.144zm-6.552 3.36a26.077 26.077 0 0 1-3.768 6.72l2.16 1.536a30.778 30.778 0 0 0 3.792-7.2zm6.624-.12-1.992 1.272a59.77 59.77 0 0 1 3.792 7.008l2.136-1.488a58.523 58.523 0 0 0-3.936-6.792zm11.52-3.192c.48.744 1.032 1.656 1.656 2.712l1.464-2.208a54.27 54.27 0 0 0-3.12-3.408v-1.032h2.592V9.712h-2.592V5.3h-2.52v4.412h-3.216v2.424h3.024a20.822 20.822 0 0 1-3.48 7.224l1.1 2.784a29.391 29.391 0 0 0 2.568-5.544v10.824h2.52zm4.344-7.656v1.944q-.072 10.512-4.032 15.312l1.944 1.7c2.04-2.472 3.408-5.9 4.08-10.32a19.9 19.9 0 0 0 2.592 4.9 17.465 17.465 0 0 1-4.68 3.264l1.392 2.28a16.859 16.859 0 0 0 4.992-3.456 21.111 21.111 0 0 0 4.08 3.384l1.608-2.16a22.061 22.061 0 0 1-4.1-3.144 19.246 19.246 0 0 0 3.024-8.064v-1.392h-2.808q.576-2.16 1.152-5.04V6.016h-11.668v2.4zm6.12 11.712a19.358 19.358 0 0 1-3.672-8.52c0-.432.024-.84.024-1.248V8.416h4.155c-.552 2.784-1.056 4.944-1.488 6.432h3.264a15.084 15.084 0 0 1-2.283 5.28zm14.76-12.648v2.376h5.9v1.728h-5.28v7.3h5.16a11.027 11.027 0 0 1-.744 3.12 15.365 15.365 0 0 1-2.952-2.784l-1.92 1.32a19.488 19.488 0 0 0 3.432 3.312 9.213 9.213 0 0 1-4.872 1.512l1.08 2.28a11 11 0 0 0 6.024-2.328 20.265 20.265 0 0 0 8.5 2.352l.6-2.4a18.973 18.973 0 0 1-7.68-1.92 13.852 13.852 0 0 0 1.056-4.464h5.616v-7.3h-5.5V9.856h6.384V7.48h-6.384V5.3h-2.52v2.18zm11.568 9.168h-3.144v-2.832h3.144zm-5.664 0h-2.928v-2.832h2.928zm-10.728-1.488v12.384h2.52V11.416a27.99 27.99 0 0 0 2.251-5.232l-2.376-1.1a26.486 26.486 0 0 1-5.112 9.624l.816 2.664a34.062 34.062 0 0 0 1.901-2.212zm26.16-1.008h5.28v3.456h-5.28zm-.12 5.76h5.4v6.768h2.544v-6.768h5.712v3.336c0 .912-.384 1.392-1.1 1.392-.816 0-1.68-.048-2.64-.144l.672 2.448h2.76c1.9 0 2.856-.936 2.856-2.784V6.04h-18.6v11.88a13.467 13.467 0 0 1-2.184 7.7l1.92 1.728a14.842 14.842 0 0 0 2.66-7.436zm13.656-2.3h-5.712v-3.46h5.712zm0-5.76h-5.712V8.488h5.712zm-8.256-3.36v3.36h-5.28V8.488zm15.72 5.4v1.944h2.976v1.224h-3.72v1.968h3.72v1.128h2.28v-1.132h3.864V17.44l.816 1.248.624-.48V27.5h2.376v-.82h3.6v.864h2.352V18.3c.144.12.288.264.48.408l1.32-2.016a15.4 15.4 0 0 1-4.8-6.624h-2.112a16.82 16.82 0 0 1-5.136 6.624l.24.36h-3.624v-1.22h3.12v-1.944h-3.12v-1.08h3.12V11.3h.864V9.76l1.56 1.464a25.857 25.857 0 0 0 3.432-4.392l-1.8-1.416a24.059 24.059 0 0 1-3.192 3.96V7.024h-4.176c-.12-.672-.24-1.272-.336-1.8l-2.4.384c.144.432.264.912.384 1.416h-3.744v4.3h.816v1.488h3.192v1.08zm6.984-3.048h-1.728v-1.18h-2.28v1.176h-1.776V9.088h5.784zm1.368 9.768h-8.448v6.908h2.232v-.82h3.96v.864h2.256zm-6.216 4.128v-2.16h3.96v2.16zm15.888-7.272h-6.648a17.1 17.1 0 0 0 3.456-4.944 15.22 15.22 0 0 0 3.192 4.94zm-5.088 6.96v-4.7h3.6v4.7zm3.792-18.936-1.632 1.536a24.918 24.918 0 0 1 3.648 4.32l1.7-1.7a28.99 28.99 0 0 0-3.716-4.16zm8.544 7.728v6.336h5.64c-.072.144-.144.312-.24.5-1.248 2.184-3.912 4.056-8.04 5.592l1.608 1.944c4.7-1.824 7.656-4.128 8.88-6.864.168-.384.336-.768.48-1.176h.672v4.68c0 1.944.84 2.928 2.568 2.928h4.8a2.543 2.543 0 0 0 1.92-.648c.432-.48.744-1.92.936-4.344l-2.376-.744a10.571 10.571 0 0 1-.312 2.856.716.716 0 0 1-.648.456H345.3c-.576 0-.84-.36-.84-1.032v-4.152h5.424v-7.9h-5.328a29.381 29.381 0 0 0 2.352-2.64V7.144h-7.9c.312-.432.624-.912.96-1.416l-2.52-.576a23.022 23.022 0 0 1-7.2 6.888l1.608 1.92c.361-.24.721-.504 1.105-.744zm8.448-1.56h-6.48c.768-.7 1.536-1.44 2.28-2.256h6.456a33.445 33.445 0 0 1-2.256 2.252zm6.048 5.544h-5.5a21.861 21.861 0 0 0 .384-3.216h5.112zm-8.064 0h-3.984v-3.22h4.416a21.265 21.265 0 0 1-.432 3.216zm17.4-7.608v5.04h7.1v1.1h-7.584v1.92h7.591v1.2h-9.768v1.992h9.768v1.176h-7.608v1.968h7.608v.5c0 .48-.288.72-.84.72a25.572 25.572 0 0 1-2.64-.168l.528 2.352h2.952c1.656 0 2.5-.768 2.5-2.3v-1.1h7.416v-3.148h2.352v-1.992h-2.352v-3.12H366.4v-1.1h7.1V9.592h-7.1v-1.08h9.12V6.4h-9.12V5.224h-2.5V6.4h-9.12v2.112h9.12v1.08zM371 12.808h-4.608V11.44H371zm-7.1 0h-4.608V11.44h4.608zm2.5 4.848h5.04v1.2h-5.04zm5.04 3.192v1.176h-5.04v-1.176zM398.457 8.9h-8.04V5.344h-2.544V8.9h-8.04v18.5h2.5v-1.392h13.632V27.4h2.5zm-16.128 14.684v-5.328h5.544v5.328zm8.088 0v-5.328h5.544v5.328zm-8.088-7.632v-4.68h5.544v4.68zm8.088-4.68h5.544v4.68h-5.544zm20.16-6.1v3.96h-6.792v2.4h6.792v4.032h-8.184v2.424h8.184v9.552h2.52v-9.548h7.464c-.048 2.5-.192 3.912-.432 4.224a1.7 1.7 0 0 1-1.2.528c-.816 0-1.7-.024-2.64-.024l.672 2.352h1.539a11.512 11.512 0 0 0 1.8-.216 2.8 2.8 0 0 0 1.488-.744c.816-.816 1.224-3.672 1.248-8.544H419.7l.456-5.232v-1.2H413.1v-3.96zm2.52 10.392v-4.028h4.536l-.36 4.032zm5.928-10.344-1.272 1.9a21.608 21.608 0 0 1 4.7 3.072L423.8 8.1a26.3 26.3 0 0 0-4.775-2.876zm25.92-.072a19.178 19.178 0 0 0-2.64 4.92 18.011 18.011 0 0 0-1.1 6.312 18.072 18.072 0 0 0 1.1 6.288 20.3 20.3 0 0 0 2.64 4.9h2.28a24.123 24.123 0 0 1-2.3-4.968 19.04 19.04 0 0 1-1.056-6.24 18.833 18.833 0 0 1 1.056-6.24 23.02 23.02 0 0 1 2.3-4.968zM469.449 25l-3.613-6.6a4.885 4.885 0 0 0 3-4.84c0-3.348-2.213-5.528-6.075-5.528h-6.646V25h3.522v-6.033h2.685L465.545 25zm-7.343-14.08c2.1 0 3.108.936 3.108 2.635s-1.011 2.561-3.1 2.561h-2.478v-5.2zm20.486 7.641c0-4.343-2.635-6.456-5.975-6.456-3.729 0-6.157 2.66-6.157 6.588 0 4.036 2.4 6.555 6.3 6.555 3.141 0 5.246-1.525 5.743-3.87h-3.3a2.468 2.468 0 0 1-2.387 1.268 2.813 2.813 0 0 1-2.925-3.116h8.7zm-8.7-1.2a2.753 2.753 0 0 1 2.793-2.66 2.558 2.558 0 0 1 2.635 2.66zm16.234-5.261c-3.381 0-5.3 1.74-5.5 3.953h3.29a1.925 1.925 0 0 1 2.13-1.409c1.285 0 2.014.613 2.022 1.691v1.028c-.53.017-2.254.091-3.157.149-2.445.157-4.732 1.077-4.732 3.928 0 2.511 1.807 3.8 4.235 3.8a3.906 3.906 0 0 0 3.721-2.006h.1V25h3.29v-8.577c-.004-3.067-2.625-4.323-5.399-4.323zm-.726 10.729c-1.111 0-1.9-.506-1.9-1.492s.762-1.55 1.972-1.649c.6-.058 2.1-.141 2.611-.166v.928a2.463 2.463 0 0 1-2.683 2.379zm13.459 2.378a3.785 3.785 0 0 0 3.622-2.238h.149V25h3.414V8.028h-3.464v6.381h-.1a3.757 3.757 0 0 0-3.63-2.3c-2.809 0-5.171 2.188-5.171 6.547-.004 4.244 2.259 6.551 5.176 6.551zm1.086-2.768c-1.765 0-2.718-1.558-2.718-3.8 0-2.229.936-3.754 2.718-3.754 1.732 0 2.71 1.459 2.71 3.754s-.999 3.8-2.715 3.8zM513 16.646V19.4h7.732v-2.754zm15.951-4.546c-3.381 0-5.3 1.74-5.5 3.953h3.29a1.925 1.925 0 0 1 2.13-1.409c1.285 0 2.014.613 2.022 1.691v1.028c-.53.017-2.254.091-3.157.149-2.445.157-4.732 1.077-4.732 3.928 0 2.511 1.807 3.8 4.235 3.8a3.906 3.906 0 0 0 3.721-2.006h.1V25h3.29v-8.577c-.004-3.067-2.622-4.323-5.399-4.323zm-.729 10.724c-1.111 0-1.9-.506-1.9-1.492s.762-1.55 1.972-1.649c.6-.058 2.1-.141 2.61-.166v.928a2.463 2.463 0 0 1-2.682 2.384zm14.494 2.42c3.365 0 5.486-1.981 5.652-4.873H545.1a2.284 2.284 0 0 1-2.345 2.113c-1.674 0-2.76-1.4-2.76-3.854 0-2.428 1.094-3.82 2.76-3.82a2.3 2.3 0 0 1 2.345 2.13h3.273c-.157-2.925-2.378-4.84-5.669-4.84-3.845 0-6.24 2.677-6.24 6.58-.004 3.875 2.341 6.569 6.253 6.569zM553.979 25v-7.235A2.592 2.592 0 0 1 556.7 15.1a6.212 6.212 0 0 1 1.483.191V12.2a6.641 6.641 0 0 0-1.11-.108 3.1 3.1 0 0 0-3.066 2.4h-.133v-2.221h-3.365V25zm11.229.249c3.845 0 6.24-2.644 6.24-6.564 0-3.945-2.4-6.58-6.24-6.58s-6.257 2.635-6.257 6.58c.001 3.915 2.404 6.564 6.257 6.564zm.017-2.693c-1.815 0-2.743-1.657-2.743-3.9s.928-3.9 2.743-3.9c1.773 0 2.7 1.674 2.7 3.9s-.925 3.899-2.7 3.899zm18.936-6.5c-.182-2.428-2.171-3.953-5.4-3.953-3.273 0-5.37 1.525-5.362 3.97-.008 1.881 1.235 3.133 3.671 3.613l2.1.414c1.193.249 1.724.655 1.732 1.318-.008.82-.845 1.318-2.1 1.318-1.285 0-2.088-.514-2.262-1.508h-3.481c.282 2.486 2.3 4.019 5.743 4.019 3.381 0 5.627-1.674 5.635-4.177-.008-1.84-1.2-2.942-3.663-3.448l-2.3-.464c-1.193-.257-1.641-.7-1.633-1.285-.008-.762.845-1.293 1.972-1.293a1.887 1.887 0 0 1 2.088 1.475zm12.936 0c-.182-2.428-2.171-3.953-5.4-3.953-3.273 0-5.37 1.525-5.362 3.97-.008 1.881 1.235 3.133 3.671 3.613l2.1.414c1.193.249 1.724.655 1.732 1.318-.008.82-.845 1.318-2.1 1.318-1.285 0-2.088-.514-2.262-1.508H586c.282 2.486 2.3 4.019 5.743 4.019 3.381 0 5.627-1.674 5.635-4.177-.008-1.84-1.2-2.942-3.663-3.448l-2.3-.464c-1.193-.257-1.641-.7-1.633-1.285-.008-.762.845-1.293 1.972-1.293a1.887 1.887 0 0 1 2.088 1.475zM608.518 25v-7.235a2.592 2.592 0 0 1 2.718-2.66 6.212 6.212 0 0 1 1.483.191V12.2a6.641 6.641 0 0 0-1.11-.108 3.1 3.1 0 0 0-3.066 2.4h-.133v-2.221h-3.365V25zm17.1-6.439c0-4.343-2.635-6.456-5.975-6.456-3.729 0-6.157 2.66-6.157 6.588 0 4.036 2.4 6.555 6.3 6.555 3.141 0 5.246-1.525 5.743-3.87h-3.3a2.468 2.468 0 0 1-2.387 1.268 2.813 2.813 0 0 1-2.925-3.116h8.7zm-8.7-1.2a2.753 2.753 0 0 1 2.793-2.66 2.558 2.558 0 0 1 2.635 2.66zm14.354 12.414v-6.8h.108a3.777 3.777 0 0 0 3.62 2.232c2.909 0 5.171-2.3 5.171-6.555 0-4.359-2.354-6.547-5.171-6.547a3.753 3.753 0 0 0-3.622 2.3h-.157v-2.134H627.8v17.5zm-.072-11.14c0-2.3.97-3.754 2.718-3.754 1.773 0 2.71 1.525 2.71 3.754 0 2.246-.953 3.8-2.71 3.8-1.732.004-2.718-1.512-2.718-3.8zm16.931 6.613c3.845 0 6.24-2.644 6.24-6.564 0-3.945-2.4-6.58-6.24-6.58s-6.257 2.635-6.257 6.58c0 3.916 2.403 6.565 6.257 6.565zm.017-2.693c-1.815 0-2.743-1.657-2.743-3.9s.928-3.9 2.743-3.9c1.773 0 2.7 1.674 2.7 3.9s-.927 3.9-2.7 3.9zM660.032 25v-7.235a2.592 2.592 0 0 1 2.718-2.66 6.212 6.212 0 0 1 1.483.191V12.2a6.641 6.641 0 0 0-1.11-.108 3.1 3.1 0 0 0-3.066 2.4h-.133v-2.221h-3.365V25zm12.058-2.627c-.713-.025-1.21-.265-1.21-1.276v-6.216h2.4v-2.61h-2.4v-3.05h-3.472v3.05h-1.749v2.61h1.749v6.688c-.017 2.478 1.691 3.6 4.21 3.6a11.971 11.971 0 0 0 1.831-.124v-2.73c-.415.025-1.02.066-1.359.058zm10.41 4.883h2.256l1.7-4.848h-3.024zM695.959 12.3v2.4h6.024a82.471 82.471 0 0 1-1.608 4.776h11.544a21.677 21.677 0 0 1-4.656 3.648 72.713 72.713 0 0 0-4.68-1.32l-1.32 1.968a60.444 60.444 0 0 1 10.92 3.888l1.392-2.16a50.037 50.037 0 0 0-3.576-1.416 20.051 20.051 0 0 0 4.944-4.752v-2.16h-10.992c.264-.768.528-1.608.792-2.472h13.008v-2.4h-12.36c.168-.72.336-1.44.5-2.208h10.416V7.768H706.4c.144-.816.312-1.632.456-2.5l-2.568-.216c-.192.912-.36 1.8-.552 2.712h-6.12V10.1h5.592c-.192.72-.36 1.464-.552 2.208zm38.52 6.1a18.1 18.1 0 0 0 5.5 7.992l1.776-2.088a14.527 14.527 0 0 1-5.28-6.6 24.2 24.2 0 0 0 3.936-1.992l-1.68-1.68a22.336 22.336 0 0 1-5.931 2.688 10.737 10.737 0 0 0-1.656-2.3 28.526 28.526 0 0 0 1.56-1.008h5.256V11.1h-14.209v2.3h4.992c-.432.192-.888.384-1.344.576a33.723 33.723 0 0 1-6.192 1.848l1.272 2.088a47.155 47.155 0 0 0 6.648-2.424c0-.024.048-.048.1-.048.192.24.408.48.6.768a28.449 28.449 0 0 1-9.072 3.72L722 22.072a28.178 28.178 0 0 0 8.856-4.056 12.437 12.437 0 0 1 .456 1.248 31.476 31.476 0 0 1-10.872 4.992l1.248 2.136a32.8 32.8 0 0 0 10.032-4.752c0 .144.024.312.024.5a4.172 4.172 0 0 1-.6 2.592 3.786 3.786 0 0 1-2.448.528h-1.248l.84 2.208h.744c2.208 0 3.648-.456 4.3-1.32a7.127 7.127 0 0 0 .816-4.008 12.743 12.743 0 0 0-.528-3.5c.28-.072.571-.14.859-.24zM731.5 5.128l-2.568.432a16.322 16.322 0 0 1 .744 1.584h-9.168V11.7h2.472V9.448h15.72V11.7h2.5V7.144h-8.976q-.361-1.116-.724-2.016zm17.64 3.528.5 1.248h-5.3v2.16h21.024V9.9h-5.5l.624-1.248h3.744V6.544H756c-.192-.528-.36-1.008-.552-1.44l-2.712.432q.252.468.5 1.008h-7.776v2.112zm3.12 1.248-.5-1.248h6.12l-.625 1.244zm-5.52 3v7.632h8.784l-2.088 1.3a21.919 21.919 0 0 1 2.16 2.592l2.088-1.464a18.144 18.144 0 0 0-2.088-2.424h7.368V12.9zm13.776 5.76h-11.325v-1.056h11.328zm-11.328-2.832V14.8h11.328v1.032zm-3.36 5.568a11.688 11.688 0 0 1-2.016 4.056l2.16 1.368a16.353 16.353 0 0 0 2.3-4.92zm12.408 5.712a4.1 4.1 0 0 0 2.136-.456q.792-.5 1.08-3.024l-2.376-.792c-.072.984-.216 1.584-.456 1.776a1.1 1.1 0 0 1-.864.288H753.1c-.72 0-1.08-.312-1.08-.888v-2.5h-2.544v3.048c0 1.68.96 2.544 2.9 2.544zm4.776-6.12L761 22.264a35.124 35.124 0 0 1 2.928 4.248l2.088-1.464a35.058 35.058 0 0 0-3.001-4.056zm23.04-14.856h-14.829v13.512h2.52V8.584h9.768v11.064h2.544zm-8.832 3.72v4.488a13.628 13.628 0 0 1-2.04 6.96c-1.224 1.656-3.624 3.048-7.176 4.152l1.32 2.136c3.576-1.1 6.144-2.64 7.7-4.632a12.69 12.69 0 0 0 1.8-3.5v4.32c0 2.16.888 3.264 2.712 3.264h4.728a3.578 3.578 0 0 0 1.992-.648c.384-.384.72-1.776 1.008-4.152l-2.4-.768c-.1 1.7-.264 2.664-.5 2.9a1.164 1.164 0 0 1-.768.336h-3.384c-.6 0-.888-.456-.888-1.368v-5.472h-2.064a20.269 20.269 0 0 0 .432-3.528V9.856zm23.064-4.68v3.96H793.5v2.4h6.792v4.032H792.1v2.424h8.184v9.552h2.52v-9.552h7.464c-.048 2.5-.192 3.912-.432 4.224a1.7 1.7 0 0 1-1.2.528c-.816 0-1.7-.024-2.64-.024l.672 2.352h1.536a11.511 11.511 0 0 0 1.8-.216 2.805 2.805 0 0 0 1.488-.744c.816-.816 1.224-3.672 1.248-8.544h-3.336l.456-5.232v-1.2h-7.056v-3.96zm2.52 10.392v-4.032h4.536l-.36 4.032zm5.928-10.344-1.272 1.9a21.607 21.607 0 0 1 4.7 3.072l1.351-2.096a26.3 26.3 0 0 0-4.776-2.876zm8.04-.072a25.565 25.565 0 0 1 2.3 4.968 19.47 19.47 0 0 1 1.056 6.24 19.692 19.692 0 0 1-1.056 6.24 26.937 26.937 0 0 1-2.3 4.968h2.28a21.167 21.167 0 0 0 2.64-4.9 18.528 18.528 0 0 0 0-12.6 19.946 19.946 0 0 0-2.64-4.92z" transform="translate(30 49)"/>
        </g>
        <g id="fc_start_end_link" transform="translate(407 1044)">
            <g transform="translate(-114 -100)" style="filter:url(#area)">
                <g id="area-3" data-name="area" class="cls-2" transform="translate(114 100)">
                    <rect class="cls-10" width="1108" height="130" rx="65"/>
                    <rect class="cls-11" x="1" y="1" width="1106" height="128" rx="64"/>
                </g>
            </g>
            <g id="fc_textlink" transform="translate(671 76)">
                <g id="stack" transform="translate(-2524.094 20210)">
                    <g id="ico_fc_pop_up" transform="translate(2431.094 -20209)">
                        <g id="그룹_1025" data-name="그룹 1025" transform="translate(-1101.074 -1125)">
                            <g id="그룹_1026" data-name="그룹 1026" transform="translate(1108.074 1129)">
                                <path id="사각형_878" data-name="사각형 878" class="cls-5" d="M0 0h9v9H0z"/>
                            </g>
                            <path id="패스_6896" data-name="패스 6896" class="cls-6" d="M1104.574 1132.941v9h9" transform="translate(.5 -.941)"/>
                        </g>
                    </g>
                    <path id="패스_10746" data-name="패스 10746" class="cls-7" d="M-28.864-7.184v6.048h9.792v-6.048zm8.32 4.7h-6.848v-1.004h6.848zm-6.848-2.288V-5.84h6.848v1.072zm-3.2-7.04v1.412h4.56a15.673 15.673 0 0 1-5.344 2.352l.816 1.348a13.56 13.56 0 0 0 5.86-3.668v2.7h1.472v-2.72a12.6 12.6 0 0 0 5.92 3.68l.656-1.376a13.57 13.57 0 0 1-5.216-2.32h4.528v-1.408h-5.888v-1.344H-24.7v1.344zm-.32 11.632v1.396h13.84V-.176zm16.8-10.128v1.3h4.336c-.16.256-.352.528-.544.8h-4.656v1.344h3.568a22.321 22.321 0 0 1-3.984 3.376l.816 1.3A26.871 26.871 0 0 0-12.224-4v5.664h1.44v-.608h6.928v.608h1.44v-7.728h-7.76c.208-.256.416-.528.64-.8H-.9v-1.344h-7.74c.16-.256.3-.528.464-.8h6.352v-1.3h-5.744q.168-.432.336-.912a42.4 42.4 0 0 0 5.312-.72l-.7-1.2a61.528 61.528 0 0 1-11.392.9l.432 1.248c1.728 0 3.36-.048 4.864-.128-.112.272-.224.544-.352.816zm3.328 7.408h6.928v.752h-6.928zm6.928-1.152h-6.928v-.784h6.928zm-6.928 3.06h6.928v.816h-6.928zM1.072-12.576v1.424h6.176v1.1H2.4v6.576h4.592A5.555 5.555 0 0 1 6.3-1.824a14 14 0 0 1-2.24-1.424l-1.168.8A14.869 14.869 0 0 0 5.248-.832 10.3 10.3 0 0 1 .64.288L1.3 1.68A11 11 0 0 0 6.736-.1a22.944 22.944 0 0 0 8.352 1.8l.384-1.476A23.3 23.3 0 0 1 7.712-1.2a6.617 6.617 0 0 0 .816-2.272h5.12v-6.576h-4.9v-1.1h6.192v-1.424zM12.144-4.8H8.7a9.269 9.269 0 0 0 .048-.976v-.384h3.392zM7.2-4.8H3.9v-1.36h3.348v.384c0 .32-.016.656-.048.976zM3.9-7.408v-1.344h3.348v1.344zm4.852-1.344h3.392v1.344H8.752zM23.776-13.2a11.209 11.209 0 0 1-6.336 2.976l.9 1.392a14.792 14.792 0 0 0 4.38-1.648h4.3a8.266 8.266 0 0 1-3.488 2.64 21.069 21.069 0 0 0-1.52-1.632l-1.312.624a15.69 15.69 0 0 1 1.412 1.488 17.766 17.766 0 0 1-3.6.544l.64 1.376c4.688-.384 7.888-2.128 9.616-5.2v-1.184H24.5c.208-.208.416-.432.64-.672zm-.256 10-1.344.64a16.586 16.586 0 0 1 1.536 1.744 21.082 21.082 0 0 1-6.24.816l.608 1.456q9.36-.24 12.784-5.856v-1.184h-4.08a9.249 9.249 0 0 0 .928-.848l-1.3-.7c-1.632 1.728-4.208 2.752-7.7 3.088l.912 1.36a21.8 21.8 0 0 0 4.9-1.52h4.384a9.622 9.622 0 0 1-3.76 2.848A19.989 19.989 0 0 0 23.52-3.2zM-32 3h64v1h-64z" transform="translate(2395.094 -20194)"/>
                </g>
            </g>
            <path id="패스_10745" data-name="패스 10745" class="cls-3" d="m213.913 5.824-1.9 1.368a34.2 34.2 0 0 1 3.144 3.7l1.968-1.344a29.837 29.837 0 0 0-3.212-3.724zM222.6 15.9l-2.016 1.272a42.772 42.772 0 0 1 3.576 4.968l2.208-1.536A40.592 40.592 0 0 0 222.6 15.9zm-3.96-10.632V8.9c-.024.7-.072 1.392-.12 2.088h-7.44v2.448h7.176a23.215 23.215 0 0 1-1.488 5.64c-1.128 2.448-3.288 4.488-6.5 6.12l1.416 2.232a14.27 14.27 0 0 0 6.984-6.456 24.234 24.234 0 0 0 2.112-7.536h7.44c0 2.832-.072 5.472-.216 7.872s-.72 3.648-1.7 3.744a35.639 35.639 0 0 1-3.72-.24l.672 2.424a29.362 29.362 0 0 0 3.168.144c1.632 0 2.784-.984 3.432-2.9.624-1.92.936-6.432.936-13.488h-9.768c.048-.672.072-1.368.1-2.088V5.272zm25.3.12V8.7h-7.7v14.068h2.472v-1.392h5.232v6h2.544v-6h5.136V22.6h2.472V8.7h-7.608V5.392zm-5.232 13.632v-2.9h5.232v2.9zm7.776 0v-2.9h5.136v2.9zm-7.776-5.136v-2.852h5.232v2.856zm7.776 0v-2.852h5.136v2.856zM271.513 5.3v1.32h-5.52v2.012h5.52V9.64H267v1.968h4.512v1.032h-6.192v2.06h14.88v-2.06h-6.264v-1.032h4.848V9.64h-4.848V8.632h5.688V6.616h-5.688V5.3zm-2.184 15.456h6.864v1.176h-6.864zm6.864-1.872h-6.864v-1.2h6.864zm-6.864 4.944h6.864v.672c0 .5-.216.768-.648.768l-1.9-.1.6 2.184h1.992a2.078 2.078 0 0 0 2.352-2.328v-9.36h-11.612V27.5h2.352zm-7.9-18.36-1.776 1.7a21.958 21.958 0 0 1 3.936 3.5l1.728-1.728a31.489 31.489 0 0 0-3.884-3.476zm-3.408 6.912v2.4h3.192v8.472a1.743 1.743 0 0 1-.624 1.344l.936 2.256a37.466 37.466 0 0 0 4.536-3.816l-.672-2.64c-.6.624-1.176 1.224-1.752 1.776v-9.796zm24.5 2.088v1.968h2.016v7.776l-2.016.1.312 2.112c3.216-.24 5.9-.48 8.016-.744v1.92h2.4v-2.264c.432-.1.84-.168 1.224-.24V23.2c-.384.048-.792.12-1.224.192v-6.96h10.584v-1.968zm4.3 9.6v-1.492h4.032V23.7q-1.796.22-4.028.364zm0-3.264V19.48h4.032v1.32zm0-3.1v-1.272h4.032V17.7zm-1.532-11.712v7.416H301.2V5.992zM298.8 11.68h-11.135v-1.128H298.8zm-11.135-2.808v-1.08H298.8v1.08zm7.248 10.656a10.19 10.19 0 0 0 2.376 4.3 14.123 14.123 0 0 1-3.384 1.872l1.272 1.92a15.649 15.649 0 0 0 3.792-2.232 18.837 18.837 0 0 0 3.72 2.232l1.272-2.064a16.983 16.983 0 0 1-3.432-1.776 10.564 10.564 0 0 0 2.088-4.368v-1.9h-8.448v2.016zm3.888 2.808a7.564 7.564 0 0 1-1.752-2.808h3.312a9.014 9.014 0 0 1-1.561 2.808zm7.728-11.016v2.448h8.664a16.64 16.64 0 0 1-9.216 11.784l1.608 2.112a19.052 19.052 0 0 0 9.648-11.808 22.413 22.413 0 0 0 9.528 11.592l1.584-2.064a21 21 0 0 1-9.6-11.616h9.048V11.32h-9.624a37.122 37.122 0 0 0 .264-4.44V5.3h-2.544v2.16a39.612 39.612 0 0 1-.264 3.864zm27.744 4.008v6.24h13.872v-6.24zm11.352 4.032h-8.832v-1.848h8.832zm-8.664 2.352-2.352.888a13.12 13.12 0 0 1 1.776 1.9h-5.64v2.376h20.784V24.5H346.3a21.145 21.145 0 0 0 1.368-2.016l-2.328-.84a20.725 20.725 0 0 1-1.752 2.856h-4.536a14.8 14.8 0 0 0-2.091-2.788zm-3.768-13.224-1.68 1.584a27.821 27.821 0 0 1 2.832 2.232 19.965 19.965 0 0 1-4.3 2.232l1.536 1.968a20.447 20.447 0 0 0 5.688-3.408v.768h8.808v-.888a26.539 26.539 0 0 0 4.9 3.48l1.656-1.92a24.714 24.714 0 0 1-3.5-2.136 14.753 14.753 0 0 0 2.544-2.5l-1.752-1.536a13.691 13.691 0 0 1-2.568 2.568 11.362 11.362 0 0 1-1.3-1.344 14.474 14.474 0 0 0 2.568-2.4l-1.752-1.56a13.128 13.128 0 0 1-2.16 2.16 15.932 15.932 0 0 1-1.368-2.52l-2.088 1.152a19.544 19.544 0 0 0 3.432 5.16h-5.952a13.357 13.357 0 0 0 2.232-3.744V5.968h-8.28v2.3h5.448a11.958 11.958 0 0 1-2.04 2.592 32.265 32.265 0 0 0-2.904-2.372zm43.368 12.264-2.5-.816a17.077 17.077 0 0 1-.432 3.48 1.426 1.426 0 0 1-1.536.96h-4.752a.965.965 0 0 1-1.008-1.08v-7.488h8.376v-9.6h-11.804v2.4h9.408v4.8h-8.424V24.3a2.108 2.108 0 0 0 2.352 2.424h6.264c1.536 0 2.52-.384 2.976-1.1a13.084 13.084 0 0 0 1.08-4.872zM357.433 5.44l-1.776 1.728a21.972 21.972 0 0 1 3.936 3.528l1.728-1.752a33.623 33.623 0 0 0-3.888-3.504zm-3.333 6.936v2.4h3.288V23.3a1.635 1.635 0 0 1-.648 1.3l.96 2.256a37.085 37.085 0 0 0 5.232-3.84l-.672-2.616a53.944 53.944 0 0 1-2.448 2.112V12.376zm31.608-5.448h-6.84v17.448h2.4V22.72h2.064v1.128h2.376zm-4.44 13.488V9.232h2.064v11.184zM386.5 7.768v2.28h5.184v8.04h-2.088v-5.952h-2.4v8.256h4.488v4.224a2.2 2.2 0 0 0 2.448 2.52h3.144a3.433 3.433 0 0 0 1.968-.648c.408-.384.744-1.728 1.008-4.008l-2.28-.744c-.12 1.68-.288 2.64-.528 2.88a1.379 1.379 0 0 1-.768.312h-1.9c-.456 0-.672-.264-.672-.744v-3.792h4.512v-8.256h-2.4v5.952h-2.112v-8.04h5.376v-2.28h-5.376V5.344h-2.424v2.424zm30.741 3.332h2.928a25.255 25.255 0 0 1-1.224 7.248 33.833 33.833 0 0 1-1.968-6.264c.096-.332.168-.644.264-.984zm.552 9.816a12.853 12.853 0 0 1-4.152 4.488l1.3 2.112a16.83 16.83 0 0 0 4.152-4.3 15.959 15.959 0 0 0 3.936 4.32l1.392-2.04a14.158 14.158 0 0 1-4.1-4.512 25.6 25.6 0 0 0 2.112-9.888h1.32V8.68h-6c.168-.936.312-1.92.456-2.976l-2.448-.432a31.139 31.139 0 0 1-2.664 10.584l1.56 1.944c.384-.672.768-1.416 1.128-2.208a34.3 34.3 0 0 0 2.008 5.328zm-11.352-4.512c-.144.432-.312.864-.48 1.344h-3.336v2.136H405a36.276 36.276 0 0 1-1.512 2.784c1.056.408 2.088.816 3.048 1.224a22.912 22.912 0 0 1-4.488 1.464l1.152 2.088a20.893 20.893 0 0 0 5.928-2.424 34.279 34.279 0 0 1 3.312 1.728l1.344-1.968c-.888-.48-1.8-.912-2.736-1.32a8.565 8.565 0 0 0 2.184-3.7v-2.008h-4.824c.12-.336.24-.7.384-1.056zm2.352 6.12c-.768-.312-1.536-.6-2.3-.84.336-.576.672-1.176.984-1.8h3.552a7.961 7.961 0 0 1-2.236 2.644zm-3.816-16.9-1.944.624a24.049 24.049 0 0 1 1.512 3.052l1.776-.792a19.873 19.873 0 0 0-1.344-2.876zm6.744-.024a14.448 14.448 0 0 1-1.824 2.9l1.752.888a16.108 16.108 0 0 0 1.824-2.952zm-9.048 4.056v2.184h2.856a10.092 10.092 0 0 1-3.432 2.9l1.248 2.016a11.827 11.827 0 0 0 3.792-4.3v3.784h2.3v-2.52q1.008.684 2.52 1.872l1.3-1.968q-1.944-.972-3.816-1.728v-.048h4.08V9.664h-4.08V5.32h-2.3v4.344zm27.144 11.712a1.939 1.939 0 0 0-1.44.528 1.725 1.725 0 0 0-.576 1.368 1.827 1.827 0 0 0 .528 1.344 1.793 1.793 0 0 0 1.32.552 1.833 1.833 0 0 0 .6-.1 2.772 2.772 0 0 1-.624 1.7 3.985 3.985 0 0 1-1.656 1.152v1.584a5.763 5.763 0 0 0 3-1.944 5.412 5.412 0 0 0 1.1-3.336 3.3 3.3 0 0 0-.624-2.064 2.033 2.033 0 0 0-1.628-.776zm20.712-6.912v1.968h2.016V24.2l-2.016.1.312 2.112c3.216-.24 5.9-.48 8.016-.744v1.92h2.4v-2.252c.432-.1.84-.168 1.224-.24V23.2c-.384.048-.792.12-1.224.192v-6.96h10.584v-1.968zm4.3 9.6v-1.48h4.032V23.7q-1.804.22-4.036.364zm0-3.264V19.48h4.032v1.32zm0-3.1v-1.26h4.032V17.7zm-1.54-11.7v7.416H469.2V5.992zM466.8 11.68h-11.135v-1.128H466.8zm-11.135-2.808v-1.08H466.8v1.08zm7.248 10.656a10.19 10.19 0 0 0 2.376 4.3 14.123 14.123 0 0 1-3.384 1.872l1.272 1.92a15.649 15.649 0 0 0 3.792-2.232 18.837 18.837 0 0 0 3.72 2.232l1.272-2.064a16.983 16.983 0 0 1-3.432-1.776 10.564 10.564 0 0 0 2.088-4.368v-1.9h-8.448v2.016zm3.888 2.808a7.564 7.564 0 0 1-1.752-2.808h3.312a9.014 9.014 0 0 1-1.561 2.808zm16.968 4.9c2.04 0 3.072-1.08 3.072-3.192V5.656h-2.616v17.712a1.265 1.265 0 0 1-1.416 1.44 28.914 28.914 0 0 1-3.1-.192l.6 2.616zm-6.024-16.008a25.243 25.243 0 0 1-3.96 9.864l2.208 1.944c1.776-2.5 3.192-6.12 4.272-10.824zm14.808-.624-2.3 1.44q2.448 6.12 3.888 11.136l2.28-1.584q-1.372-4.684-3.868-10.996zm5.9-4.56V8.3h6.816v1.58h-5.4v6.48h5.976c-.288.48-.6.984-.888 1.512h-6.816v2.3h5.376c-.48.744-.984 1.488-1.512 2.256 1.776.408 3.552.864 5.352 1.392a47.259 47.259 0 0 1-8.616 1.56l.936 2.256c5.136-.7 8.808-1.608 11.064-2.76 2.52.816 5.04 1.776 7.56 2.832l1.56-2.064a101.34 101.34 0 0 0-6.888-2.328 8.085 8.085 0 0 0 2.208-3.144h4.968v-2.3h-12.332l.864-1.512h9.768V9.88h-5.4V8.3h6.816V6.04zm11.832 16.512a78.743 78.743 0 0 0-4.728-1.128c.24-.384.528-.792.84-1.248h6.192a6.381 6.381 0 0 1-2.3 2.372zm.384-12.672h-3.024V8.3h3.024zm5.376 4.368h-3v-2.26h3zm-5.376 0h-3.024v-2.26h3.024zm-5.4 0h-3v-2.26h3zm17.5-4.824v2.424h9.288V16a33.614 33.614 0 0 1-9.576 7.656l1.368 2.28a35.3 35.3 0 0 0 8.208-7.008v5.28c0 .6-.264.912-.768.912-.96 0-1.944-.072-3-.168l.552 2.4h3.336a2.181 2.181 0 0 0 2.424-2.5v-7.9a26.81 26.81 0 0 0 8.04 8.76l1.752-2.064a28.311 28.311 0 0 1-6.408-5.4 21.066 21.066 0 0 0 4.536-4.2l-1.872-1.632a20.365 20.365 0 0 1-4.008 4.128A25.108 25.108 0 0 1 534.6 13.1v-1.252h8.9V9.424h-3.7l1.176-1.176a25.783 25.783 0 0 0-3.336-2.88L536.017 6.9a20.8 20.8 0 0 1 2.76 2.52H534.6V5.272h-2.544v4.152zm2.808 3.5-1.752 1.68a25.1 25.1 0 0 1 3.984 4.224l1.7-1.68a35.02 35.02 0 0 0-3.932-4.224zm29.592-3.744h-3.648a22.117 22.117 0 0 0 1.056-3.624l-2.52-.336a21.637 21.637 0 0 1-.936 3.96h-2.3V26.7h2.4v-1.9h3.552V26h2.4zM549.217 22.5v-4.532h3.552V22.5zm0-6.768v-4.2h3.552v4.2zm10.32-.72-2.04 1.272a43.7 43.7 0 0 1 3.576 5.256l2.016-1.392a41.219 41.219 0 0 0-3.552-5.132zm7.992-5.832h-7.3a31.58 31.58 0 0 0 .912-3.672l-2.468-.308a20.444 20.444 0 0 1-3.216 8.328l1.512 1.992a19.329 19.329 0 0 0 2.3-3.888h5.808c-.048 6.792-.12 10.752-.264 11.9a1.436 1.436 0 0 1-1.512 1.416c-.792 0-1.728-.048-2.784-.12l.6 2.28q1.872.144 2.592.144 3.1 0 3.456-2.52.364-2.948.364-15.548zm13.824 13.632a49.233 49.233 0 0 1 9.024 4.848l1.392-2.184a55.752 55.752 0 0 0-9.048-4.488l.216-.384h8.472v-2.348h-7.464a19.63 19.63 0 0 0 .792-4.728v-2.976h-2.424v2.976a14.386 14.386 0 0 1-1.008 4.728h-10.368v2.352h9.048a4.117 4.117 0 0 0-.264.336c-1.536 1.776-4.56 3.264-9.024 4.464l1.368 2.112c4.224-1.104 7.32-2.664 9.288-4.704zm-6.888-9.1-1.248 1.848a19.954 19.954 0 0 1 4.583 2.6l1.3-1.992a23.573 23.573 0 0 0-4.635-2.448zm2.448-3.336-1.248 1.848a18.793 18.793 0 0 1 4.488 2.544l1.3-1.992a22.7 22.7 0 0 0-4.54-2.392zm14.376-3.1h-8.784c-.24-.768-.48-1.488-.744-2.136l-2.568.432c.264.528.5 1.08.744 1.7h-8.952v5.064h2.448V9.592h15.408v2.76h2.448zm14.568 5.688v1.3h6.888V12.88a22.078 22.078 0 0 0 2.448 2.208L616.561 13a18.352 18.352 0 0 1-6.1-7.7h-2.208a19.364 19.364 0 0 1-6.072 7.776l1.32 2.016a19.269 19.269 0 0 0 2.356-2.116zm6.144-.96h-5.3a23.95 23.95 0 0 0 2.664-4.272A17.565 17.565 0 0 0 612 12.016zm-9.12 12.336v2.4h13.344v-2.4h-3.288a59.544 59.544 0 0 0 2.256-8.4l-2.4-.624a70.091 70.091 0 0 1-2.208 9.024zm2.784-8.328-2.136.744a53.066 53.066 0 0 1 1.944 6.528l2.136-.5a55.465 55.465 0 0 0-1.944-6.76zm3.7-.744-2.136.7a56.417 56.417 0 0 1 1.56 6.312l2.136-.5a59.239 59.239 0 0 0-1.564-6.5zm-9.408-6.864-1.008 7.632h-2.136l.912-6.24-2.28-.12-1.128 8.568h6.024a28.34 28.34 0 0 1-.341 5.868c-.216.648-.84.984-1.872.984a15.326 15.326 0 0 1-1.752-.192l.672 2.208c.552.048 1.08.1 1.608.1 1.632 0 2.712-.456 3.216-1.32s.768-4.152.768-9.84h-1.34l1.128-9.888h-8.016v2.252zm-.528 11.3a36.13 36.13 0 0 1-5.616 1.3l.312 2.352a31.992 31.992 0 0 0 5.3-1.416zm20.76-14.16-1.248 1.848a17.248 17.248 0 0 1 3.859 1.864l1.344-2.016a21.125 21.125 0 0 0-3.959-1.68zm7.152-.384a8.071 8.071 0 0 1-3 4.08l1.488 1.944a12.94 12.94 0 0 0 2.208-2.232h2.4a5.431 5.431 0 0 1-1.56 2.52 11.2 11.2 0 0 1-4.824 1.92l.936 2.232c2.76-.648 4.7-1.536 5.808-2.688.216-.24.432-.5.672-.792 1.512 1.728 3.936 2.928 7.3 3.624l.888-2.184c-3.5-.624-5.88-1.776-7.152-3.408.12-.384.24-.792.336-1.224h3.24a10.889 10.889 0 0 1-.864 2.064l2.4.72a27.29 27.29 0 0 0 1.032-3.48V6.784h-9.336a10.378 10.378 0 0 0 .5-1.3zm9.72 10.728h-15.84v7.464h2.5v-5.12h10.824v4.848h2.52zm-9 2.88c-.168 2.256-.768 3.864-1.824 4.8q-1.8 1.4-7.416 1.656l1.008 2.28c4.536-.384 7.392-1.2 8.568-2.472 1.1-.96 1.848-3 2.184-6.072zm-4.944-8.592a23.1 23.1 0 0 1-4.656 3.12l1.632 1.944a22.581 22.581 0 0 0 4.464-3.36zm7.872 12.7-1.272 1.9a46.494 46.494 0 0 1 8.4 2.928l1.344-2.088a54.011 54.011 0 0 0-8.476-2.728zm13.46-15.612-2.064.672a34.334 34.334 0 0 1 1.392 4.848l1.92-.528a39.815 39.815 0 0 0-1.248-4.992zm5.88-.24a21.154 21.154 0 0 1-.864 4.992l1.848.6a19.014 19.014 0 0 0 1.1-5.3zm-7.992 6.456v2.42h3.84a17.886 17.886 0 0 1-4.224 5.5l1.056 2.616a24.974 24.974 0 0 0 3.36-5.136v8.568h2.52v-8.76c.552.816 1.2 1.848 1.92 3.048L652.3 19.5a45.994 45.994 0 0 0-3.408-3.168V15.9h3.308v-2.42h-3.312V5.368h-2.52v8.112zm16.944-8.088v13.656l-6.864 1.032.36 2.5 6.5-.984v5.856h2.472v-6.24l2.616-.384-.432-2.5-2.184.336V5.392zm-4.2 1.56-1.656 1.608a23.107 23.107 0 0 1 3.792 3.528l1.7-1.7a27.775 27.775 0 0 0-3.836-3.436zm-.576 5.64-1.68 1.584a23.689 23.689 0 0 1 3.744 3.624l1.7-1.728a28.336 28.336 0 0 0-3.764-3.48zm14.448-2.784v10.584c-.912.24-1.872.5-2.88.744l.744 2.472a62.332 62.332 0 0 0 7.248-2.424v-2.5c-.816.312-1.656.624-2.568.936V9.808h2.52V7.36h-7.632v2.448zm5.736-3.768v2.448h5.52c-.1.624-.216 1.224-.36 1.824h-4.32v11.736h2.424v-9.432h6.936v9.432h2.448V10.312h-5.016c.144-.576.264-1.2.36-1.824h5.544V6.04zm9.072 15.792-1.68 1.608a27.262 27.262 0 0 1 4.608 4.2l1.8-1.8a36.118 36.118 0 0 0-4.728-4.008zm-3.648-8.132v4.22a8.359 8.359 0 0 1-1.584 4.728c-.984 1.1-2.88 2.04-5.664 2.808l1.368 2.136a12.555 12.555 0 0 0 6.216-3.36 10.639 10.639 0 0 0 2.16-6.312V13.7zm29.544-7.488h-16.968v21.332h2.544V26.1h11.9v1.4h2.52zM695.233 23.68v-3.744h11.9v3.744zm0-6.024v-3.48h11.9v3.48zm0-5.784V8.608h11.9v3.264zm30.96 5.52h2.28v2.448h-2.28zm-.168 4.584h2.448v5.088h2.28v-5.088h2.424v2.592a.463.463 0 0 1-.5.528 11.286 11.286 0 0 1-1.512-.12l.6 2.256h1.608c1.416 0 2.136-.624 2.136-1.848V10.768h-3.6a21.429 21.429 0 0 0 1.8-2.16V6.856h-5.544c.192-.336.36-.672.552-1.056l-2.424-.552a17.813 17.813 0 0 1-4.536 5.9L723.289 13c.192-.168.408-.336.6-.528v7.3a10.9 10.9 0 0 1-1.68 6.048l1.824 1.632a12.314 12.314 0 0 0 1.992-5.476zm3.192-11.208h-3.672c.456-.576.912-1.176 1.368-1.824h3.864a20.51 20.51 0 0 1-1.56 1.824zm3.96 9.072h-2.424v-2.448h2.424zm0-4.608h-2.424v-2.28h2.424zm-4.7-2.28v2.28h-2.28v-2.28zm-13.828-6.576v2.4h2.376a24.2 24.2 0 0 1-3.168 8.544l1.44 2.328c.288-.432.552-.864.84-1.32V26.7h2.352v-1.56h3.936V13.5h-4.1a34.05 34.05 0 0 0 1.152-4.728h3.408v-2.4zm3.84 16.488v-7.056h1.68v7.056zm33.336-17.4a53.855 53.855 0 0 1-1.008 11.208 16.1 16.1 0 0 1-5.328 8.64l1.7 2.088a17.668 17.668 0 0 0 6.1-10.224c.048-.192.072-.408.12-.624a34.058 34.058 0 0 0 5.352 10.776l1.824-2.088c-3.072-3.48-5.232-8.136-6.432-13.968.144-1.776.216-3.72.216-5.808zm-10.392-.024-1.776 1.728a21.97 21.97 0 0 1 3.936 3.528l1.728-1.752a33.615 33.615 0 0 0-3.888-3.504zm-3.333 6.936v2.4h3.288v8.28a1.614 1.614 0 0 1-.648 1.32l.96 2.232a36.97 36.97 0 0 0 4.992-3.864l-.672-2.568a38.475 38.475 0 0 1-2.208 1.992v-9.792zm28.757-5.144-5.47 20.32h3l5.47-20.32zm20.96 19.04V7.024H773.1v19.56h2.544v-1.416h9.624v1.1zm-12.168-6.408h9.624v3h-9.624zm0-5.28h9.624v2.952h-9.624zm0-5.232h9.624v2.88h-9.624zm19.224-3.36v2.256h11.76v1.68h-10.946v2.16h10.944v1.656h-14.16v2.28h8.976v2.64a39.013 39.013 0 0 1-9.336 5.808l1.008 2.328a41.6 41.6 0 0 0 8.328-5.568v3.144c0 .624-.192.96-.552.96a22.974 22.974 0 0 1-2.52-.168l.552 2.352h2.808c1.464 0 2.208-.864 2.208-2.544v-3.84a26.006 26.006 0 0 0 8.136 5.712l1.272-2.208a31.507 31.507 0 0 1-6.192-3.432 14.379 14.379 0 0 0 4.248-3.624l-1.9-1.56h3.72v-2.28h-4.056V5.992zm.6 10.392-1.656 1.584a21.142 21.142 0 0 1 3.552 2.928L799 19.264a25.282 25.282 0 0 0-3.529-2.88zm13.992-.36a12.859 12.859 0 0 1-4.008 3.816 17.581 17.581 0 0 1-1.512-1.464v-2.352zm13.27-10.968a25.474 25.474 0 0 1-7.1 9.7l.816 2.616a47.256 47.256 0 0 0 3-2.736v12.908h2.5V11.7a25.494 25.494 0 0 0 3.144-5.544zm11.544 22.056a3.144 3.144 0 0 0 2.52-.84c.456-.576.768-2.256.936-5.016l-2.3-.792a10.656 10.656 0 0 1-.435 3.744 1.332 1.332 0 0 1-1.152.528h-3.456c-.744 0-1.1-.336-1.1-.984v-7.584a41.306 41.306 0 0 0 7.8-6.216l-1.757-1.992a33.409 33.409 0 0 1-6.048 5.184v-7.68h-2.5v9.216a56.637 56.637 0 0 1-3.624 1.8l1.128 2.376c.84-.408 1.68-.816 2.5-1.248v6.5c0 1.992 1.008 3 3.024 3z" transform="translate(30 33)"/>
        </g>
        <g id="fc_box_medium_no_btn" transform="translate(977 1584)">
            <g transform="translate(-684 -640)" style="filter:url(#box-2)">
                <g id="box-6" data-name="box" style="fill:#eee;stroke:#999;stroke-width:2px">
                    <path class="cls-10" d="M0 0h538v130H0z" transform="translate(684 640)"/>
                    <path class="cls-11" d="M1 1h536v128H1z" transform="translate(684 640)"/>
                </g>
            </g>
            <path id="패스_10751" data-name="패스 10751" class="cls-3" d="M158.348 6.028h-6.041V23h5.983c5.171 0 8.3-3.2 8.3-8.5-.004-5.29-3.129-8.472-8.242-8.472zm-2.519 13.948V9.052h2.329c3.207 0 4.906 1.666 4.906 5.445 0 3.8-1.7 5.478-4.923 5.478zm18.564-9.87c-3.381 0-5.3 1.74-5.5 3.953h3.29a1.925 1.925 0 0 1 2.13-1.409c1.285 0 2.014.613 2.022 1.691v1.028c-.53.017-2.254.091-3.157.149-2.445.157-4.732 1.077-4.732 3.928 0 2.511 1.807 3.8 4.235 3.8a3.906 3.906 0 0 0 3.721-2.006h.1V23h3.29v-8.577c-.005-3.067-2.624-4.323-5.4-4.323zm-.729 10.724c-1.11 0-1.9-.506-1.9-1.492s.762-1.55 1.972-1.649c.6-.058 2.1-.141 2.611-.166v.928a2.463 2.463 0 0 1-2.684 2.378zm14.287-.456c-.713-.025-1.21-.265-1.21-1.276v-6.217h2.4v-2.61h-2.4v-3.05h-3.472v3.05h-1.749v2.61h1.749v6.688c-.017 2.478 1.691 3.6 4.21 3.6a11.971 11.971 0 0 0 1.831-.124v-2.73c-.41.025-1.02.066-1.36.058zM196.66 10.1c-3.381 0-5.3 1.74-5.5 3.953h3.29a1.925 1.925 0 0 1 2.13-1.409c1.285 0 2.014.613 2.022 1.691v1.028c-.53.017-2.254.091-3.157.149-2.445.157-4.732 1.077-4.732 3.928 0 2.511 1.807 3.8 4.235 3.8a3.906 3.906 0 0 0 3.721-2.006h.1V23h3.29v-8.577c-.004-3.067-2.623-4.323-5.399-4.323zm-.729 10.724c-1.11 0-1.9-.506-1.9-1.492s.762-1.55 1.972-1.649c.6-.058 2.1-.141 2.611-.166v.928a2.463 2.463 0 0 1-2.683 2.384zm22.3-4.218h3.669c-.05 2.138-1.5 3.5-3.9 3.5-2.71 0-4.442-2.022-4.442-5.61 0-3.564 1.782-5.577 4.4-5.577a3.488 3.488 0 0 1 3.6 2.577h3.588c-.472-3.348-3.423-5.7-7.251-5.7-4.475 0-7.914 3.232-7.914 8.735 0 5.37 3.224 8.7 7.989 8.7 4.276 0 7.334-2.71 7.334-7.169v-2.12h-7.077zm14.935-6.506c-3.381 0-5.3 1.74-5.5 3.953h3.29a1.925 1.925 0 0 1 2.13-1.409c1.285 0 2.014.613 2.022 1.691v1.028c-.53.017-2.254.091-3.157.149-2.445.157-4.732 1.077-4.732 3.928 0 2.511 1.807 3.8 4.235 3.8a3.906 3.906 0 0 0 3.721-2.006h.1V23h3.29v-8.577c-.004-3.067-2.623-4.323-5.399-4.323zm-.729 10.724c-1.11 0-1.9-.506-1.9-1.492s.762-1.55 1.972-1.649c.6-.058 2.1-.141 2.611-.166v.928a2.463 2.463 0 0 1-2.684 2.384zm12.232 6.945v-6.8h.108a3.776 3.776 0 0 0 3.622 2.238c2.909 0 5.171-2.3 5.171-6.555 0-4.359-2.354-6.547-5.171-6.547a3.753 3.753 0 0 0-3.622 2.3h-.157v-2.134h-3.42v17.5zm-.075-11.138c0-2.3.97-3.754 2.718-3.754 1.773 0 2.71 1.525 2.71 3.754 0 2.246-.953 3.8-2.71 3.8-1.732.008-2.718-1.508-2.718-3.796zM264.931 23v-7.036h6.92v-2.909h-6.92v-4.11h7.669V6.028h-11.191V23zm11.644-14.4a1.833 1.833 0 0 0 1.889-1.765 1.894 1.894 0 0 0-3.779 0 1.833 1.833 0 0 0 1.89 1.765zm1.732 14.4V10.271h-3.472V23zm2.7-16.972V23h3.472V6.028zm6.174 0V23h3.472V6.028zM295.1 8.6a1.833 1.833 0 0 0 1.889-1.765 1.894 1.894 0 0 0-3.779 0A1.833 1.833 0 0 0 295.1 8.6zm1.729 14.4V10.271h-3.472V23zM303 15.633a2.373 2.373 0 0 1 2.445-2.644 2.2 2.2 0 0 1 2.279 2.511V23h3.476v-8.1c0-2.975-1.732-4.79-4.384-4.79a3.843 3.843 0 0 0-3.829 2.4h-.149v-2.239h-3.308V23H303zm16.583 12.406c3.622 0 6.182-1.649 6.182-4.906V10.271h-3.431v2.138h-.134a3.77 3.77 0 0 0-3.638-2.3c-2.809 0-5.171 2.146-5.171 6.456 0 4.235 2.3 6.257 5.18 6.257a3.718 3.718 0 0 0 3.638-2.08h.149v2.345c0 1.765-1.077 2.445-2.693 2.445-1.376 0-2.337-.456-2.528-1.483h-3.427c.207 2.415 2.37 3.99 5.876 3.99zm.066-7.831c-1.765 0-2.718-1.4-2.718-3.613 0-2.188.936-3.713 2.718-3.713 1.732 0 2.71 1.459 2.71 3.713s-.992 3.612-2.707 3.612z" transform="translate(30 51)"/>
        </g>
        <g id="fc_box_big_no_btn-2" data-name="fc_box_big_no_btn" transform="translate(407 1224)">
            <g transform="translate(-114 -280)" style="filter:url(#box-3)">
                <g id="box-7" data-name="box" class="cls-2">
                    <path class="cls-10" d="M0 0h1108v130H0z" transform="translate(114 280)"/>
                    <path class="cls-11" d="M1 1h1106v128H1z" transform="translate(114 280)"/>
                </g>
            </g>
            <path id="패스_10747" data-name="패스 10747" class="cls-3" d="M207.445 6.856h-15.984v2.28h13.2a32.712 32.712 0 0 1-4.272 2.9h-1.44v11.236c0 .384-.144.576-1.08.576a11.547 11.547 0 0 1-2.376-.264l.528 2.544a16.356 16.356 0 0 0 2.232.144c2.448 0 3.24-.5 3.24-2.448v-9.6a81.258 81.258 0 0 0 7.848-5.76zm13.728 4.344h-2.04c.408-.864.7-1.728 1.224-2.856l-1.584-1.1h-2.5c.12-.36.216-.72.336-1.128l-2.4-.432c-.672 2.664-1.272 4.368-2.9 6.192l1.584 1.608v2.3a28.136 28.136 0 0 1-.432 6.1 8.242 8.242 0 0 1-.408 1.608 10.435 10.435 0 0 1-.648 1.392l1.872 1.776a13.288 13.288 0 0 0 1.584-5.52h4.1v2.328c0 .552-.216.672-.7.672a10.886 10.886 0 0 1-1.992-.216l.456 2.328a11.937 11.937 0 0 0 1.728.144c2.016 0 2.712-.576 2.712-2.376v-5.212l1.56 1.08a12.506 12.506 0 0 0 1.008-1.968h1.632v2.112h-3.96v2.184h3.96v4.344h2.4v-4.344h3.24v-2.184h-3.24V17.92h2.64v-2.184h-2.64v-1.752h-2.4v1.752h-.888l.384-1.488-1.848-.408a6.6 6.6 0 0 0 2.856-5.064h2.28a7.884 7.884 0 0 1-.192 1.92c-.1.528-.216.624-.84.624a8.813 8.813 0 0 1-1.56-.144l.552 2.424a11.624 11.624 0 0 0 1.728.12 2.2 2.2 0 0 0 2.5-2.16 36.537 36.537 0 0 0 .264-4.92h-9.168v2.136h1.968a3.988 3.988 0 0 1-2.232 3.408zm0 6.5v-5.04l1.344 1.32a12.6 12.6 0 0 1-1.344 3.72zM217.5 9.352a15.854 15.854 0 0 1-.888 1.848h-1.9a11.691 11.691 0 0 0 .864-1.848zm.456 7.824h1.008v1.944h-1.008zm-2.9 0h.984v1.944h-1.032c.021-.6.045-1.248.045-1.944zm3.912-3.864v1.9h-1.008v-1.9zm-3.888 0h.96v1.9h-.96zm31.728-7.08a9.77 9.77 0 0 1-1.872 2.184 25.848 25.848 0 0 1-1.44-2.424l-1.872 1.176a26.4 26.4 0 0 0 3.192 4.9h-5.688a19.625 19.625 0 0 0 2.688-4.416l-1.464-1.224h-6.816v2.18h5.208a10.533 10.533 0 0 1-1.584 2.328c-.912-.744-1.848-1.512-2.712-2.16l-1.512 1.632c.864.72 1.776 1.416 2.64 2.208a14.732 14.732 0 0 1-3.6 2.472l1.272 2.016a21.4 21.4 0 0 0 2.136-1.344v5.448h1.632c.312.84.576 1.656.792 2.376h-5.3v2.28h18.672v-2.28h-5.3c.24-.72.432-1.488.648-2.376h1.872V15.52a15.745 15.745 0 0 0 1.992 1.3l1.488-2.064a16.184 16.184 0 0 1-3.144-2.064A23.052 23.052 0 0 0 251.4 9.86l-1.824-1.464a28.007 28.007 0 0 1-2.424 2.784 7.381 7.381 0 0 1-.84-.936c.792-.768 1.56-1.632 2.352-2.544zm-8.736 7.1v.912h7.584v-1.172a19.783 19.783 0 0 0 2.688 2.424h-12.675a18.766 18.766 0 0 0 2.4-2.16zm-.288 4.224h8.16v1.584h-8.16zm5.592 6.024h-3.048c-.216-.744-.48-1.536-.72-2.376h4.416c-.195.82-.411 1.636-.651 2.38zm32.324-2.828-2.5-.816a17.078 17.078 0 0 1-.432 3.48 1.426 1.426 0 0 1-1.536.96h-4.752a.965.965 0 0 1-1.008-1.08v-7.488h8.376v-9.6h-11.803v2.4h9.408v4.8h-8.424V24.3a2.108 2.108 0 0 0 2.352 2.424h6.264c1.536 0 2.52-.384 2.976-1.1a13.084 13.084 0 0 0 1.079-4.872zM256.573 5.44 254.8 7.168a21.972 21.972 0 0 1 3.936 3.528l1.728-1.752a33.623 33.623 0 0 0-3.891-3.504zm-3.336 6.936v2.4h3.288V23.3a1.635 1.635 0 0 1-.648 1.3l.96 2.256a37.085 37.085 0 0 0 5.232-3.84l-.672-2.616a53.944 53.944 0 0 1-2.448 2.112V12.376zm33.84-6.984V8.7h-7.7v14.068h2.472v-1.392h5.232v6h2.544v-6h5.136V22.6h2.472V8.7h-7.608V5.392zm-5.232 13.632v-2.9h5.232v2.9zm7.776 0v-2.9h5.136v2.9zm-7.776-5.136v-2.856h5.232v2.856zm7.776 0v-2.856h5.136v2.856zM314.653 5.3v1.32h-5.52v2.012h5.52V9.64h-4.512v1.968h4.512v1.032h-6.192v2.06h14.88v-2.06h-6.264v-1.032h4.848V9.64h-4.848V8.632h5.688V6.616h-5.688V5.3zm-2.184 15.456h6.864v1.176h-6.864zm6.864-1.872h-6.864v-1.2h6.864zm-6.864 4.944h6.864v.672c0 .5-.216.768-.648.768l-1.9-.1.6 2.184h1.992a2.078 2.078 0 0 0 2.352-2.328v-9.36h-11.612V27.5h2.352zm-7.9-18.36-1.776 1.7a21.958 21.958 0 0 1 3.936 3.5l1.728-1.728a31.489 31.489 0 0 0-3.884-3.476zm-3.408 6.912v2.4h3.192v8.472a1.743 1.743 0 0 1-.624 1.344l.936 2.256a37.466 37.466 0 0 0 4.536-3.816l-.672-2.64c-.6.624-1.176 1.224-1.752 1.776v-9.796zm34.824-7.152a18.042 18.042 0 0 1-3.168 8.088l1.824 1.56a14.477 14.477 0 0 0 2.088-3.576h1.008c-.888 4.248-2.5 7.344-4.8 9.312l1.608 1.872c2.616-2.352 4.416-6.1 5.424-11.184h1.2a33.567 33.567 0 0 1-1.944 8.088 17.663 17.663 0 0 1-4.416 5.952l1.56 1.992a20.6 20.6 0 0 0 4.92-6.864 38.794 38.794 0 0 0 2.112-9.168h.864c-.048 6.792-.12 10.752-.264 11.88a2.049 2.049 0 0 1-2.208 1.992c-.576 0-1.224-.048-1.992-.12l.576 2.232c.864.072 1.488.12 1.824.12q3.672 0 4.1-3.1.36-2.88.36-15.408H337.6c.264-.96.5-1.968.744-3.048zm-8.064 7.224h1.32v5.736a32.522 32.522 0 0 1-3.912 1.056l.6 2.424a71.374 71.374 0 0 0 3.312-1.1V27.5h2.448v-7.92c.5-.24 1.008-.456 1.536-.7v-2.352c-.528.24-1.032.48-1.536.72v-4.8h1.632v-2.4h-1.632V5.32h-2.448v4.728h-1.032c.072-.912.12-1.824.168-2.736l-2.232-.168a37.093 37.093 0 0 1-1.1 7.968l2.208.624c.264-1.056.48-2.16.672-3.288zm25.968.312h6.936l-.36 1.56H355.5v8.448h2.424v-6.148h8.712v6.144h2.424V14.32h-6.048l.36-1.56h7.656v-2.3h-7.272c.072-.48.144-.984.192-1.464l-2.5-.312-.216 1.776h-7.344V8.9a105.931 105.931 0 0 0 16.085-1.4l-1.224-2.232a98.979 98.979 0 0 1-17.28 1.536v7.68q-.18 7.092-2.448 11.088l1.752 1.824q2.952-4.824 3.12-12.912zm9.984 9.216-1.248 1.872a32.324 32.324 0 0 1 7.032 3.672l1.392-2.184a36.606 36.606 0 0 0-7.172-3.364zm-2.3-4.656a8.064 8.064 0 0 1-2.352 5.16 13.971 13.971 0 0 1-6.144 2.784l1.344 2.3a15.531 15.531 0 0 0 6.936-3.576 10.389 10.389 0 0 0 2.64-6.5zm20.736-8.136h-3.648a22.111 22.111 0 0 0 1.056-3.624l-2.52-.336a21.634 21.634 0 0 1-.936 3.96h-2.3V26.7h2.4v-1.9h3.552V26h2.4zM376.357 22.5v-4.532h3.552V22.5zm0-6.768v-4.2h3.552v4.2zm10.32-.72-2.04 1.272a43.7 43.7 0 0 1 3.576 5.256l2.016-1.392a41.226 41.226 0 0 0-3.552-5.132zm7.992-5.832h-7.3a31.579 31.579 0 0 0 .912-3.672l-2.468-.308a20.443 20.443 0 0 1-3.216 8.328l1.512 1.992a19.329 19.329 0 0 0 2.3-3.888h5.808c-.048 6.792-.12 10.752-.264 11.9a1.436 1.436 0 0 1-1.512 1.416c-.792 0-1.728-.048-2.784-.12l.6 2.28q1.872.144 2.592.144 3.1 0 3.456-2.52.364-2.948.364-15.548zm16.92-3.936V7.6h-3.912v2.28h3.912v2.088h-5.232v2.352h12.96v-2.352h-5.208V9.88h4.152V7.6h-4.152V5.248zm-4.7 11.184v2.352h7.248v5.424q0 .936-.72.936a26.941 26.941 0 0 1-2.712-.168l.5 2.352h3.048c1.536 0 2.328-.84 2.328-2.52v-6.02h2.5v-2.352h-2.5v-1.3h-2.448v1.3zm2.136 2.928-1.944 1.224a27.372 27.372 0 0 1 2.736 3.72l1.992-1.392a34.763 34.763 0 0 0-2.788-3.548zm-9-6.912h1.536v5.736a38.5 38.5 0 0 1-4.368 1.032l.6 2.424c1.272-.336 2.52-.72 3.768-1.128V27.5h2.424v-7.852c.624-.24 1.272-.5 1.92-.768v-2.352c-.624.288-1.248.552-1.92.816v-4.9h1.8v-2.4h-1.8V5.32h-2.424v4.728h-1.2c.1-.864.144-1.776.192-2.688l-2.256-.168a33.1 33.1 0 0 1-1.224 7.968l2.184.624a29.373 29.373 0 0 0 .764-3.336zm21.792-2.424a32.018 32.018 0 0 1-.84 6.408l2.016.576a38.763 38.763 0 0 0 .744-6.84zm6.72-.6-1.728.552V5.344h-2.52v22.08h2.52V10.216a37.826 37.826 0 0 1 1.176 4.032l.936-.24c-.144.288-.288.576-.432.888l1.872 1.656a19.874 19.874 0 0 0 1.8-4.536h3.072v5.112h-5.3v2.448h5.3v4.872h-6.576v2.424h14.712v-2.424h-5.592v-4.872h4.723v-2.448h-4.728v-5.112h4.944V9.592h-4.944v-4.2h-2.544v4.2h-2.592c.1-.768.144-1.536.192-2.352l-2.28-.312a21.243 21.243 0 0 1-.984 5.448 28.23 28.23 0 0 0-1.031-2.952zm21.6 4.9H467.1v-2.448h-16.967V9.184a100.1 100.1 0 0 0 15.7-1.512l-1.224-2.256a93.345 93.345 0 0 1-16.944 1.512v7.56c-.12 4.7-.984 8.376-2.568 11.016l1.872 1.968c1.968-3.216 3.024-7.56 3.168-12.984zm15.216 2.616h-13.56V27.52h2.52v-.912h8.52v.912h2.52zm-11.04 7.224v-4.824h8.52v4.824zm18.648-2.784a1.939 1.939 0 0 0-1.44.528 1.725 1.725 0 0 0-.576 1.368 1.827 1.827 0 0 0 .528 1.344 1.793 1.793 0 0 0 1.32.552 1.833 1.833 0 0 0 .6-.1 2.772 2.772 0 0 1-.624 1.7 3.985 3.985 0 0 1-1.656 1.152v1.584a5.763 5.763 0 0 0 3-1.944 5.412 5.412 0 0 0 1.1-3.336 3.3 3.3 0 0 0-.624-2.064 2.033 2.033 0 0 0-1.632-.784zm20.564-14.808v2.424h16.128v15.024c0 .672-.312 1.032-.888 1.032-1.2 0-2.472-.048-3.768-.144l.576 2.424h4.056c1.68 0 2.544-.912 2.544-2.688V8.992h2.976V6.568zm12.48 5.3h-9.912V23.2h2.4v-1.92h7.512zm-7.512 7.152V14.1h5.136v4.92zm19.032-12.98v2.4h9.624a14.957 14.957 0 0 1-.672 2.3h-7.824v16.828h2.424v-.936H535.6v.936h2.424V10.744H529a18.273 18.273 0 0 0 .7-2.3h9.4V6.04zm3.552 18.288v-11.3h2.52v11.3zm4.848 0v-2.4h4.752v2.4zm7.08 0v-11.3h2.595v11.3zm-7.08-4.536v-2.3h4.752v2.3zm0-4.464v-2.3h4.752v2.3zm16.656-6.072v4.224h8.76V9.256zm6.5 2.64h-4.272v-1.1h4.272zm2.52 4.968c-.912.144-1.968.288-3.168.408v-.312l2.4-1.248v-1.56h-8.472v1.872h5.28l-1.584.744v.72c-1.44.1-3.048.192-4.8.264l.312 1.9c1.656-.1 3.144-.216 4.488-.312v.624c0 .384-.312.576-.888.576a11.241 11.241 0 0 1-1.656-.192l.6 2.064h1.824c1.656 0 2.5-.624 2.5-1.872v-1.42c1.3-.144 2.352-.264 3.168-.408zm9.84 4.728a1.68 1.68 0 0 0 1.248-.744 10.132 10.132 0 0 0 .936-3.528l-1.9-.864a10.535 10.535 0 0 1-.192 1.7c-.048.384-.168.624-.312.7-.12-.048-.24-.432-.336-1.152-.072-.72-.1-1.752-.1-3.12a55.389 55.389 0 0 1 .36-6.072h-3.768V5.3h-2.4v3.212h-2.3v2.376h2.232a21.031 21.031 0 0 1-.384 2.856 18.532 18.532 0 0 0-1.32-1.08L551.8 14.3a24.752 24.752 0 0 1 1.992 1.92 10.635 10.635 0 0 1-3.168 4.488l1.872 1.656a12.772 12.772 0 0 0 3.048-4.008q.648.936 1.3 2.016l1.8-1.752a30.576 30.576 0 0 0-2.112-2.808 23.136 23.136 0 0 0 .816-4.92h1.344c-.1 1.416-.144 2.64-.144 3.7a20.629 20.629 0 0 0 .36 4.128 4.529 4.529 0 0 0 1.032 2.16 2.134 2.134 0 0 0 1.505.712zm-14.06-16.344-2.544.432a10.378 10.378 0 0 1 .5.912h-4.056V8.56h11.232V6.592h-4.608c-.188-.48-.356-.936-.524-1.344zm-3.072 17.28a15.034 15.034 0 0 1-3.192 3.432l2.064 1.512a17.182 17.182 0 0 0 3.219-3.912zm5.9.1-2.376.48a35.065 35.065 0 0 1 .912 4.488l2.5-.6c-.312-1.564-.645-3.028-1.032-4.372zm5.088-.24-2.376.48a26.151 26.151 0 0 1 1.3 4.68l2.52-.576a48.637 48.637 0 0 0-1.441-4.588zm4.464-.7-2.112 1.32a33.332 33.332 0 0 1 3.168 4.608l2.088-1.464a40.761 40.761 0 0 0-3.14-4.464zm15.432-4.56v6.12l-2.088.288.624 2.4a70.343 70.343 0 0 0 6.672-1.488V22.12c-.912.24-1.824.48-2.76.672v-5.664h1.992V14.8h-6.408v2.328zm9.48 10.224c1.152 0 2.184-1.776 3.048-5.28l-1.968-1.584c-.384 2.688-.744 4.056-1.08 4.128-.6-.144-1.128-1.584-1.608-4.32a77.051 77.051 0 0 1-.624-8.52h4.44V9.328H582.4c-.048-1.3-.048-2.664-.048-4.128H579.9c0 1.416 0 2.784.048 4.128h-7.272v2.448h7.344a75.055 75.055 0 0 0 .576 7.68 18.67 18.67 0 0 0 1.7 5.976c.677 1.268 1.469 1.92 2.381 1.92zm-.336-22.176-1.7 1.08a24.861 24.861 0 0 1 2.28 3l1.728-1.2a28.541 28.541 0 0 0-2.304-2.88zm-15.768.264L566.8 7.168a22.565 22.565 0 0 1 3.744 3.528l1.7-1.752a30.553 30.553 0 0 0-3.671-3.504zm-3.408 6.936v2.4h3.144v8.568a1.548 1.548 0 0 1-.648 1.248l.96 2.256a32.185 32.185 0 0 0 4.3-3.84l-.648-2.64a88.436 88.436 0 0 0-1.56 1.656v-9.648zm35.832.6v1.3h6.888V12.88a22.078 22.078 0 0 0 2.448 2.208L611.7 13a18.352 18.352 0 0 1-6.1-7.7h-2.2a19.364 19.364 0 0 1-6.072 7.776l1.32 2.016A19.269 19.269 0 0 0 601 12.976zm6.144-.96h-5.3a23.95 23.95 0 0 0 2.663-4.272 17.565 17.565 0 0 0 2.641 4.272zm-9.12 12.336v2.4h13.344v-2.4h-3.288a59.544 59.544 0 0 0 2.256-8.4l-2.4-.624a70.091 70.091 0 0 1-2.208 9.024zm2.784-8.328-2.136.744a53.066 53.066 0 0 1 1.944 6.528l2.136-.5a55.465 55.465 0 0 0-1.94-6.772zm3.7-.744-2.136.7a56.417 56.417 0 0 1 1.56 6.312l2.136-.5a59.239 59.239 0 0 0-1.561-6.512zm-9.408-6.864-1.008 7.632h-2.136l.912-6.24-2.28-.12-1.128 8.568h6.024a28.335 28.335 0 0 1-.336 5.856c-.216.648-.84.984-1.872.984a15.327 15.327 0 0 1-1.752-.192l.672 2.208c.552.048 1.08.1 1.608.1 1.632 0 2.712-.456 3.216-1.32s.768-4.152.768-9.84h-1.344l1.128-9.888h-8.016v2.252zm-.528 11.3a36.13 36.13 0 0 1-5.616 1.3l.312 2.352a31.992 31.992 0 0 0 5.3-1.416zm27.744-10.532h-3.648a22.117 22.117 0 0 0 1.056-3.624l-2.52-.336a21.637 21.637 0 0 1-.936 3.96h-2.3V26.7h2.4v-1.9h3.552V26h2.4zM616.357 22.5v-4.532h3.552V22.5zm0-6.768v-4.2h3.552v4.2zm10.32-.72-2.04 1.272a43.7 43.7 0 0 1 3.576 5.256l2.016-1.392a41.219 41.219 0 0 0-3.552-5.132zm7.992-5.832h-7.3a31.58 31.58 0 0 0 .912-3.672l-2.468-.308a20.444 20.444 0 0 1-3.216 8.328l1.512 1.992a19.329 19.329 0 0 0 2.3-3.888h5.808c-.048 6.792-.12 10.752-.264 11.9a1.436 1.436 0 0 1-1.512 1.416c-.792 0-1.728-.048-2.784-.12l.6 2.28q1.872.144 2.592.144 3.1 0 3.456-2.52.364-2.948.364-15.548zm12.531 7.948v6.12l-2.088.288.624 2.4a70.343 70.343 0 0 0 6.672-1.488V22.12c-.912.24-1.824.48-2.76.672v-5.664h1.992V14.8h-6.408v2.328zm9.48 10.224c1.152 0 2.184-1.776 3.048-5.28l-1.968-1.584c-.384 2.688-.744 4.056-1.08 4.128-.6-.144-1.128-1.584-1.608-4.32a77.051 77.051 0 0 1-.624-8.52h4.44V9.328H654.4c-.048-1.3-.048-2.664-.048-4.128H651.9c0 1.416 0 2.784.048 4.128h-7.272v2.448h7.344a75.055 75.055 0 0 0 .576 7.68 18.67 18.67 0 0 0 1.7 5.976c.677 1.268 1.469 1.92 2.381 1.92zm-.336-22.176-1.7 1.08a24.861 24.861 0 0 1 2.28 3l1.728-1.2a28.541 28.541 0 0 0-2.311-2.88zm-15.768.264L638.8 7.168a22.565 22.565 0 0 1 3.744 3.528l1.7-1.752a30.553 30.553 0 0 0-3.671-3.504zm-3.408 6.936v2.4h3.144v8.568a1.548 1.548 0 0 1-.648 1.248l.96 2.256a32.185 32.185 0 0 0 4.3-3.84l-.648-2.64a88.436 88.436 0 0 0-1.56 1.656v-9.648zm35.832.6v1.3h6.888V12.88a22.078 22.078 0 0 0 2.448 2.208L683.7 13a18.352 18.352 0 0 1-6.1-7.7h-2.2a19.364 19.364 0 0 1-6.072 7.776l1.32 2.016A19.269 19.269 0 0 0 673 12.976zm6.144-.96h-5.3a23.95 23.95 0 0 0 2.656-4.272 17.565 17.565 0 0 0 2.641 4.272zm-9.12 12.336v2.4h13.344v-2.4h-3.288a59.544 59.544 0 0 0 2.256-8.4l-2.4-.624a70.091 70.091 0 0 1-2.208 9.024zm2.784-8.328-2.136.744a53.066 53.066 0 0 1 1.944 6.528l2.136-.5a55.465 55.465 0 0 0-1.947-6.772zm3.7-.744-2.136.7a56.417 56.417 0 0 1 1.56 6.312l2.136-.5a59.239 59.239 0 0 0-1.568-6.512zM667.1 8.416l-1.008 7.632h-2.136l.912-6.24-2.28-.12-1.128 8.568h6.024a28.335 28.335 0 0 1-.336 5.856c-.216.648-.84.984-1.872.984a15.327 15.327 0 0 1-1.752-.192l.672 2.208c.552.048 1.08.1 1.608.1 1.632 0 2.712-.456 3.216-1.32s.768-4.152.768-9.84h-1.344l1.128-9.888h-8.016v2.252zm-.528 11.3a36.13 36.13 0 0 1-5.616 1.3l.312 2.352a31.992 31.992 0 0 0 5.3-1.416zM688.1 9.804v10.588c-.912.24-1.872.5-2.88.744l.744 2.472a62.332 62.332 0 0 0 7.248-2.424v-2.5c-.816.312-1.656.624-2.568.936V9.808h2.52V7.36h-7.632v2.448zm5.736-3.768v2.452h5.52c-.1.624-.216 1.224-.36 1.824h-4.32v11.736h2.424v-9.432h6.936v9.432h2.448V10.312h-5.016c.144-.576.264-1.2.36-1.824h5.544V6.04zm9.064 15.796-1.68 1.608a27.262 27.262 0 0 1 4.608 4.2l1.8-1.8a36.118 36.118 0 0 0-4.728-4.008zm-3.647-8.132v4.22a8.359 8.359 0 0 1-1.584 4.728c-.984 1.1-2.88 2.04-5.664 2.808l1.368 2.136a12.555 12.555 0 0 0 6.216-3.36 10.639 10.639 0 0 0 2.16-6.312V13.7zM728.8 6.208h-16.971v21.336h2.544V26.1h11.9v1.4h2.52zM714.373 23.68v-3.744h11.9v3.744zm0-6.024v-3.48h11.9v3.48zm0-5.784V8.608h11.9v3.264zm30.96 5.52h2.28v2.448h-2.28zm-.168 4.584h2.448v5.088h2.28v-5.088h2.424v2.592a.463.463 0 0 1-.5.528 11.286 11.286 0 0 1-1.512-.12l.6 2.256h1.608c1.416 0 2.136-.624 2.136-1.848V10.768h-3.6a21.429 21.429 0 0 0 1.8-2.16V6.856H747.3c.192-.336.36-.672.552-1.056l-2.424-.552a17.813 17.813 0 0 1-4.536 5.9L742.429 13c.192-.168.408-.336.6-.528v7.3a10.9 10.9 0 0 1-1.68 6.048l1.824 1.632a12.314 12.314 0 0 0 1.992-5.476zm3.192-11.208h-3.672c.456-.576.912-1.176 1.368-1.824h3.864a20.51 20.51 0 0 1-1.56 1.824zm3.96 9.072h-2.424v-2.448h2.424zm0-4.608h-2.424v-2.28h2.424zm-4.7-2.28v2.28h-2.28v-2.28zm-13.828-6.576v2.4h2.376A24.2 24.2 0 0 1 733 17.32l1.44 2.328c.288-.432.552-.864.84-1.32V26.7h2.352v-1.56h3.936V13.5h-4.1a34.05 34.05 0 0 0 1.152-4.728h3.408v-2.4zm3.84 16.488v-7.056h1.68v7.056zm33.336-17.4a53.855 53.855 0 0 1-1.008 11.208 16.1 16.1 0 0 1-5.328 8.64l1.7 2.088a17.668 17.668 0 0 0 6.1-10.224c.048-.192.072-.408.12-.624a34.058 34.058 0 0 0 5.351 10.776l1.824-2.088c-3.072-3.48-5.232-8.136-6.432-13.968.144-1.776.216-3.72.216-5.808zm-10.392-.024L758.8 7.168a21.97 21.97 0 0 1 3.936 3.528l1.728-1.752a33.615 33.615 0 0 0-3.891-3.504zm-3.336 6.936v2.4h3.288v8.28a1.614 1.614 0 0 1-.648 1.32l.96 2.232a36.97 36.97 0 0 0 4.992-3.864l-.672-2.568a38.475 38.475 0 0 1-2.208 1.992v-9.792zm28.757-5.144-5.47 20.32h3l5.47-20.32zm20.96 19.04V7.024h-14.711v19.56h2.544v-1.416h9.624v1.1zm-12.168-6.408h9.624v3h-9.624zm0-5.28h9.624v2.952h-9.624zm0-5.232h9.624v2.88h-9.624zm19.224-3.36v2.256h11.76v1.68h-10.943v2.16h10.944v1.656h-14.16v2.28h8.976v2.64a39.013 39.013 0 0 1-9.336 5.808l1.008 2.328a41.6 41.6 0 0 0 8.328-5.568v3.144c0 .624-.192.96-.552.96a22.974 22.974 0 0 1-2.52-.168l.552 2.352h2.808c1.464 0 2.208-.864 2.208-2.544v-3.84a26.006 26.006 0 0 0 8.136 5.712l1.272-2.208a31.507 31.507 0 0 1-6.192-3.432 14.379 14.379 0 0 0 4.248-3.624l-1.9-1.56h3.72v-2.28h-4.056V5.992zm.6 10.392-1.656 1.584a21.142 21.142 0 0 1 3.552 2.928l1.632-1.632a25.282 25.282 0 0 0-3.527-2.88zm13.992-.36a12.859 12.859 0 0 1-4.008 3.816 17.581 17.581 0 0 1-1.512-1.464v-2.352zm13.273-10.968a25.474 25.474 0 0 1-7.1 9.7l.816 2.616a47.256 47.256 0 0 0 3-2.736v12.908h2.5V11.7a25.494 25.494 0 0 0 3.144-5.544zm11.544 22.056a3.144 3.144 0 0 0 2.52-.84c.456-.576.768-2.256.936-5.016l-2.3-.792a10.656 10.656 0 0 1-.432 3.744 1.332 1.332 0 0 1-1.152.528h-3.456c-.744 0-1.1-.336-1.1-.984v-7.584a41.306 41.306 0 0 0 7.8-6.216l-1.76-1.992a33.409 33.409 0 0 1-6.048 5.184v-7.68h-2.5v9.216a56.637 56.637 0 0 1-3.624 1.8l1.128 2.376c.84-.408 1.68-.816 2.5-1.248v6.5c0 1.992 1.008 3 3.024 3z" transform="translate(30 33)"/>
            <g id="fc_textlink-2" data-name="fc_textlink" transform="translate(667 76)">
                <g id="stack-2" data-name="stack" transform="translate(-2524.094 20210)">
                    <g id="ico_fc_pop_up-2" data-name="ico_fc_pop_up" transform="translate(2431.094 -20209)">
                        <g id="그룹_1025-2" data-name="그룹 1025" transform="translate(-1101.074 -1125)">
                            <g id="그룹_1026-2" data-name="그룹 1026" transform="translate(1108.074 1129)">
                                <path id="사각형_878-2" data-name="사각형 878" class="cls-5" d="M0 0h9v9H0z"/>
                            </g>
                            <path id="패스_6896-2" data-name="패스 6896" class="cls-6" d="M1104.574 1132.941v9h9" transform="translate(.5 -.941)"/>
                        </g>
                    </g>
                    <path id="패스_10748" data-name="패스 10748" class="cls-7" d="M-28.864-7.184v6.048h9.792v-6.048zm8.32 4.7h-6.848v-1.004h6.848zm-6.848-2.288V-5.84h6.848v1.072zm-3.2-7.04v1.412h4.56a15.673 15.673 0 0 1-5.344 2.352l.816 1.348a13.56 13.56 0 0 0 5.86-3.668v2.7h1.472v-2.72a12.6 12.6 0 0 0 5.92 3.68l.656-1.376a13.57 13.57 0 0 1-5.216-2.32h4.528v-1.408h-5.888v-1.344H-24.7v1.344zm-.32 11.632v1.396h13.84V-.176zm16.8-10.128v1.3h4.336c-.16.256-.352.528-.544.8h-4.656v1.344h3.568a22.321 22.321 0 0 1-3.984 3.376l.816 1.3A26.871 26.871 0 0 0-12.224-4v5.664h1.44v-.608h6.928v.608h1.44v-7.728h-7.76c.208-.256.416-.528.64-.8H-.9v-1.344h-7.74c.16-.256.3-.528.464-.8h6.352v-1.3h-5.744q.168-.432.336-.912a42.4 42.4 0 0 0 5.312-.72l-.7-1.2a61.528 61.528 0 0 1-11.392.9l.432 1.248c1.728 0 3.36-.048 4.864-.128-.112.272-.224.544-.352.816zm3.328 7.408h6.928v.752h-6.928zm6.928-1.152h-6.928v-.784h6.928zm-6.928 3.06h6.928v.816h-6.928zM1.072-12.576v1.424h6.176v1.1H2.4v6.576h4.592A5.555 5.555 0 0 1 6.3-1.824a14 14 0 0 1-2.24-1.424l-1.168.8A14.869 14.869 0 0 0 5.248-.832 10.3 10.3 0 0 1 .64.288L1.3 1.68A11 11 0 0 0 6.736-.1a22.944 22.944 0 0 0 8.352 1.8l.384-1.476A23.3 23.3 0 0 1 7.712-1.2a6.617 6.617 0 0 0 .816-2.272h5.12v-6.576h-4.9v-1.1h6.192v-1.424zM12.144-4.8H8.7a9.269 9.269 0 0 0 .048-.976v-.384h3.392zM7.2-4.8H3.9v-1.36h3.348v.384c0 .32-.016.656-.048.976zM3.9-7.408v-1.344h3.348v1.344zm4.852-1.344h3.392v1.344H8.752zM23.776-13.2a11.209 11.209 0 0 1-6.336 2.976l.9 1.392a14.792 14.792 0 0 0 4.38-1.648h4.3a8.266 8.266 0 0 1-3.488 2.64 21.069 21.069 0 0 0-1.52-1.632l-1.312.624a15.69 15.69 0 0 1 1.412 1.488 17.766 17.766 0 0 1-3.6.544l.64 1.376c4.688-.384 7.888-2.128 9.616-5.2v-1.184H24.5c.208-.208.416-.432.64-.672zm-.256 10-1.344.64a16.586 16.586 0 0 1 1.536 1.744 21.082 21.082 0 0 1-6.24.816l.608 1.456q9.36-.24 12.784-5.856v-1.184h-4.08a9.249 9.249 0 0 0 .928-.848l-1.3-.7c-1.632 1.728-4.208 2.752-7.7 3.088l.912 1.36a21.8 21.8 0 0 0 4.9-1.52h4.384a9.622 9.622 0 0 1-3.76 2.848A19.989 19.989 0 0 0 23.52-3.2zM-32 3h64v1h-64z" transform="translate(2395.094 -20194)"/>
                </g>
            </g>
        </g>
        <g id="fc_box_big_no_btn-3" data-name="fc_box_big_no_btn" transform="translate(407 1404)">
            <g transform="translate(-114 -460)" style="filter:url(#box-4)">
                <g id="box-8" data-name="box" class="cls-2">
                    <path class="cls-10" d="M0 0h1108v130H0z" transform="translate(114 460)"/>
                    <path class="cls-11" d="M1 1h1106v128H1z" transform="translate(114 460)"/>
                </g>
            </g>
            <path id="패스_10749" data-name="패스 10749" class="cls-3" d="M282.729 14.632a45.48 45.48 0 0 1-8.136 1.488 40.7 40.7 0 0 0 3.576-2.208h7.176V11.8h-4.44a29.1 29.1 0 0 0 4.032-4.2l-1.872-1.368a37.647 37.647 0 0 1-3.144 3.48V7.7h-3.7v-2h-2.5v2h-5.352v2.04h5.352v2.06h-7.536v2.112h7.992a45.488 45.488 0 0 1-8.328 3.528l1.08 2.112c1.44-.552 2.832-1.1 4.176-1.728l-1.632 3.936 2.712.384.36-1.1h7.992a10.713 10.713 0 0 1-.456 2.376c-.264.624-.432.744-1.368.744a18.99 18.99 0 0 1-2.808-.288l.48 2.4a26.256 26.256 0 0 0 2.688.144c2.3 0 2.952-.816 3.312-1.9a33.261 33.261 0 0 0 .984-5.448H273.3l.288-.888a79.825 79.825 0 0 0 10.608-1.608zm-5.28-2.832h-1.224V9.736h3.624a26.228 26.228 0 0 1-2.4 2.064zm17.88-6.576v4.3h-6.672v7.44a21.7 21.7 0 0 1-1.752 8.928l1.824 1.632a23.028 23.028 0 0 0 2.232-10.56v-5.332h14.52a14.016 14.016 0 0 1-.84 2.088l2.352.648a21.986 21.986 0 0 0 1.08-3.744V9.52H297.8v-1.2h8.328V6.256H297.8V5.224zm8.544 7.392-6.1.744v-1.344H295.4v1.632l-3.912.456.288 2.016 3.624-.432v.624c0 1.32.888 1.992 2.664 1.992h5.88a3.608 3.608 0 0 0 1.992-.432c.456-.288.792-1.2.984-2.736l-2.328-.72q-.072 1.368-.36 1.584a1 1 0 0 1-.744.264h-4.776c-.624 0-.936-.144-.936-.408V15.4l6.432-.768zm-11.9 7.656a21.033 21.033 0 0 1-1.68 5.3l2.04 1.3a26.115 26.115 0 0 0 1.9-6.144zm8.136-1.752-2.016.672a26.035 26.035 0 0 1 2.328 4.08l2.064-.936a24.123 24.123 0 0 0-2.38-3.816zm6.408 1.128-2.184.72a39.707 39.707 0 0 1 2.5 5.928l2.208-.984a40.481 40.481 0 0 0-2.528-5.664zm-4.032 7.7a3 3 0 0 0 1.872-.528c.408-.384.7-1.584.888-3.6l-2.28-.72a6.5 6.5 0 0 1-.312 2.184.718.718 0 0 1-.6.312h-3.768c-.576 0-.84-.312-.84-.912v-4.148h-2.448v4.656c0 1.824.84 2.76 2.52 2.76zm26.592-9.216h-14.068v9.432h2.472v-.984h9.1v.984h2.5zm-11.592 6.048v-3.7h9.1v3.7zm.936-19.056a21.4 21.4 0 0 1-6.1 6.6l1.632 1.944a23.26 23.26 0 0 0 2.976-2.592 21.133 21.133 0 0 0 2.832 2.592 30.044 30.044 0 0 1-8.832 2.712l1.1 2.28a31.484 31.484 0 0 0 9.96-3.528 29.5 29.5 0 0 0 9.96 3.432l1.1-2.3A31.582 31.582 0 0 1 324.2 13.7a20.93 20.93 0 0 0 4.68-4.752V6.952h-8.688c.24-.384.48-.816.744-1.248zm.024 4.272a.636.636 0 0 1 .12-.144h7.08a20.477 20.477 0 0 1-3.72 3.144 16.254 16.254 0 0 1-3.484-2.996zm26.448 7.728v6.12l-2.088.288.624 2.4a70.343 70.343 0 0 0 6.672-1.488V22.12c-.912.24-1.824.48-2.76.672v-5.664h1.992V14.8h-6.408v2.328zm9.48 10.224c1.152 0 2.184-1.776 3.048-5.28l-1.968-1.584c-.384 2.688-.744 4.056-1.08 4.128-.6-.144-1.128-1.584-1.608-4.32a77.044 77.044 0 0 1-.624-8.52h4.44V9.328h-4.488c-.048-1.3-.048-2.664-.048-4.128h-2.448c0 1.416 0 2.784.048 4.128h-7.272v2.448h7.344a75.066 75.066 0 0 0 .576 7.68 18.67 18.67 0 0 0 1.7 5.976c.672 1.268 1.464 1.92 2.376 1.92zm-.336-22.176-1.7 1.08a24.857 24.857 0 0 1 2.28 3l1.728-1.2a28.545 28.545 0 0 0-2.312-2.876zm-15.768.264-1.776 1.728a22.566 22.566 0 0 1 3.744 3.528l1.7-1.752a30.553 30.553 0 0 0-3.672-3.5zm-3.408 6.936v2.4H338v8.568a1.548 1.548 0 0 1-.648 1.248l.96 2.256a32.179 32.179 0 0 0 4.3-3.84l-.648-2.64a88.436 88.436 0 0 0-1.56 1.656v-9.644zm35.832.6v1.3h6.888V12.88a22.076 22.076 0 0 0 2.448 2.208L381.393 13a18.352 18.352 0 0 1-6.1-7.7h-2.208a19.364 19.364 0 0 1-6.072 7.776l1.32 2.016a19.269 19.269 0 0 0 2.356-2.116zm6.144-.96h-5.3a23.954 23.954 0 0 0 2.664-4.272 17.565 17.565 0 0 0 2.632 4.276zm-9.12 12.336v2.4h13.344v-2.4h-3.288a59.552 59.552 0 0 0 2.256-8.4l-2.4-.624a70.086 70.086 0 0 1-2.208 9.024zm2.784-8.328-2.136.744a53.071 53.071 0 0 1 1.944 6.528l2.136-.5a55.46 55.46 0 0 0-1.945-6.768zm3.7-.744-2.136.7a56.4 56.4 0 0 1 1.56 6.312l2.136-.5a59.239 59.239 0 0 0-1.568-6.508zm-9.408-6.864-1.008 7.632h-2.136l.912-6.24-2.28-.12-1.128 8.568h6.024a28.335 28.335 0 0 1-.336 5.856c-.216.648-.84.984-1.872.984a15.326 15.326 0 0 1-1.752-.192l.672 2.208c.552.048 1.08.1 1.608.1 1.632 0 2.712-.456 3.216-1.32s.768-4.152.768-9.84h-1.344l1.128-9.888h-8.016v2.256zm-.528 11.3a36.131 36.131 0 0 1-5.616 1.3l.312 2.352a31.991 31.991 0 0 0 5.3-1.416zM385.793 9.8v10.592c-.912.24-1.872.5-2.88.744l.744 2.472a62.334 62.334 0 0 0 7.248-2.424v-2.5c-.816.312-1.656.624-2.568.936V9.808h2.52V7.36h-7.632v2.448zm5.736-3.768v2.456h5.52c-.1.624-.216 1.224-.36 1.824h-4.32v11.736h2.424v-9.432h6.936v9.432h2.448V10.312h-5.016c.144-.576.264-1.2.36-1.824h5.544V6.04zm9.072 15.792-1.68 1.608a27.263 27.263 0 0 1 4.608 4.2l1.8-1.8a36.117 36.117 0 0 0-4.736-4zm-3.656-8.124v4.22a8.359 8.359 0 0 1-1.584 4.728c-.984 1.1-2.88 2.04-5.664 2.808l1.368 2.136a12.555 12.555 0 0 0 6.216-3.36 10.639 10.639 0 0 0 2.16-6.312V13.7zm29.544-7.488h-16.968v21.332h2.544V26.1h11.9v1.4h2.52zM412.065 23.68v-3.744h11.9v3.744zm0-6.024v-3.48h11.9v3.48zm0-5.784V8.608h11.9v3.264zM440 9.184h-3.648a22.111 22.111 0 0 0 1.056-3.624l-2.52-.336a21.634 21.634 0 0 1-.936 3.96h-2.3V26.7h2.4v-1.9h3.548V26h2.4zM434.049 22.5v-4.532h3.551V22.5zm0-6.768v-4.2h3.551v4.2zm10.32-.72-2.04 1.272a43.7 43.7 0 0 1 3.576 5.256l2.016-1.392a41.226 41.226 0 0 0-3.552-5.132zm7.992-5.832h-7.3a31.579 31.579 0 0 0 .912-3.672l-2.468-.308a20.443 20.443 0 0 1-3.216 8.328l1.511 1.992a19.331 19.331 0 0 0 2.3-3.888h5.808c-.048 6.792-.12 10.752-.264 11.9a1.436 1.436 0 0 1-1.512 1.416c-.792 0-1.728-.048-2.784-.12l.6 2.28q1.872.144 2.592.144 3.1 0 3.456-2.52.365-2.948.365-15.548zm12.528 7.944v6.12l-2.088.288.624 2.4a70.343 70.343 0 0 0 6.672-1.488V22.12c-.912.24-1.824.48-2.76.672v-5.664h1.992V14.8h-6.408v2.328zm9.48 10.224c1.152 0 2.184-1.776 3.048-5.28l-1.968-1.584c-.384 2.688-.744 4.056-1.08 4.128-.6-.144-1.128-1.584-1.608-4.32a77.044 77.044 0 0 1-.624-8.52h4.44V9.328h-4.488c-.048-1.3-.048-2.664-.048-4.128h-2.448c0 1.416 0 2.784.048 4.128h-7.272v2.448h7.344a75.066 75.066 0 0 0 .576 7.68 18.67 18.67 0 0 0 1.7 5.976c.676 1.268 1.468 1.92 2.38 1.92zm-.336-22.176-1.7 1.08a24.857 24.857 0 0 1 2.28 3l1.728-1.2a28.545 28.545 0 0 0-2.308-2.876zm-15.768.264-1.776 1.728a22.566 22.566 0 0 1 3.744 3.528l1.7-1.752a30.553 30.553 0 0 0-3.668-3.5zm-3.408 6.936v2.4H458v8.568a1.548 1.548 0 0 1-.648 1.248l.96 2.256a32.179 32.179 0 0 0 4.3-3.84l-.648-2.64a88.436 88.436 0 0 0-1.56 1.656v-9.644zm35.832.6v1.3h6.888V12.88a22.076 22.076 0 0 0 2.448 2.208L501.393 13a18.352 18.352 0 0 1-6.1-7.7h-2.208a19.364 19.364 0 0 1-6.072 7.776l1.32 2.016a19.269 19.269 0 0 0 2.356-2.116zm6.144-.96h-5.3a23.954 23.954 0 0 0 2.664-4.272 17.565 17.565 0 0 0 2.636 4.276zm-9.12 12.336v2.4h13.344v-2.4h-3.288a59.552 59.552 0 0 0 2.256-8.4l-2.4-.624a70.086 70.086 0 0 1-2.208 9.024zm2.784-8.328-2.136.744a53.071 53.071 0 0 1 1.944 6.528l2.136-.5a55.46 55.46 0 0 0-1.941-6.768zm3.7-.744-2.136.7a56.4 56.4 0 0 1 1.56 6.312l2.136-.5a59.239 59.239 0 0 0-1.564-6.508zm-9.408-6.864-1.008 7.632h-2.136l.912-6.24-2.28-.12-1.128 8.568h6.024a28.335 28.335 0 0 1-.336 5.856c-.216.648-.84.984-1.872.984a15.326 15.326 0 0 1-1.752-.192l.672 2.208c.552.048 1.08.1 1.608.1 1.632 0 2.712-.456 3.216-1.32s.768-4.152.768-9.84h-1.344l1.128-9.888h-8.016v2.256zm-.528 11.3a36.131 36.131 0 0 1-5.616 1.3l.312 2.352a31.991 31.991 0 0 0 5.3-1.416zm34.632-7.536a23.247 23.247 0 0 1-7.68 10.176l1.368 2.256a26.216 26.216 0 0 0 7.176-9.864v9.296c0 .624-.264.936-.768.936a21.061 21.061 0 0 1-2.4-.144l.576 2.424h2.712c1.584 0 2.376-.864 2.376-2.568v-12.5h2.472V9.76h-2.472V5.3h-2.5v4.46h-6.624v2.424zm-15.6-2.472v2.424h3.432a20.776 20.776 0 0 1-3.96 7.176l1.128 2.88a28.367 28.367 0 0 0 2.976-6.048v11.28h2.5V15.88c.6.816 1.3 1.8 2.088 2.976l1.44-2.184a48.4 48.4 0 0 0-3.528-3.5v-1.036h2.928V9.712h-2.928V5.3h-2.5v4.412zm25.992-2.448-2.064.672a34.334 34.334 0 0 1 1.392 4.848l1.92-.528a39.815 39.815 0 0 0-1.252-4.984zm5.88-.24a21.154 21.154 0 0 1-.864 4.992l1.848.6a19.014 19.014 0 0 0 1.1-5.3zm-7.992 6.456V15.9h3.84a17.886 17.886 0 0 1-4.224 5.5l1.056 2.616a24.974 24.974 0 0 0 3.36-5.136v8.568h2.52v-8.76c.552.816 1.2 1.848 1.92 3.048l1.488-2.232a45.994 45.994 0 0 0-3.408-3.168V15.9h3.312v-2.42h-3.312V5.368H531.2v8.112zm16.944-8.088v13.664l-6.864 1.032.36 2.5 6.5-.984v5.856h2.472v-6.24l2.616-.384-.432-2.5-2.184.336V5.392zm-4.2 1.56-1.66 1.616a23.11 23.11 0 0 1 3.792 3.528l1.7-1.7a27.775 27.775 0 0 0-3.836-3.436zm-.576 5.64-1.68 1.584A23.689 23.689 0 0 1 541.4 17.8l1.7-1.728a28.336 28.336 0 0 0-3.763-3.48zm32.534 1.353c-.481-3.9-3.431-6.149-7.343-6.149-4.483 0-7.89 3.182-7.89 8.718s3.348 8.718 7.89 8.718c4.309 0 6.945-2.859 7.343-5.992l-3.564-.017a3.521 3.521 0 0 1-3.721 2.884c-2.6 0-4.376-1.931-4.376-5.594 0-3.572 1.749-5.594 4.392-5.594a3.5 3.5 0 0 1 3.7 3.025zm8.113 11.3c3.845 0 6.24-2.644 6.24-6.564 0-3.945-2.4-6.58-6.24-6.58s-6.257 2.635-6.257 6.58c-.003 3.927 2.4 6.576 6.254 6.576zm.012-2.682c-1.815 0-2.743-1.657-2.743-3.9s.928-3.9 2.743-3.9c1.773 0 2.7 1.674 2.7 3.9s-.925 3.9-2.7 3.9zm8.412-14.528V25h3.472V8.028zm6.174 0V25h3.472V8.028zm17.785 10.533c0-4.343-2.635-6.456-5.975-6.456-3.729 0-6.157 2.66-6.157 6.588 0 4.036 2.4 6.555 6.3 6.555 3.141 0 5.246-1.525 5.743-3.87h-3.3a2.468 2.468 0 0 1-2.387 1.268 2.813 2.813 0 0 1-2.925-3.116h8.7zm-8.7-1.2a2.753 2.753 0 0 1 2.793-2.66 2.558 2.558 0 0 1 2.635 2.66zm16.616 7.889c3.365 0 5.486-1.981 5.652-4.873h-3.273a2.284 2.284 0 0 1-2.345 2.113c-1.674 0-2.76-1.4-2.76-3.854 0-2.428 1.094-3.82 2.76-3.82a2.3 2.3 0 0 1 2.345 2.13h3.273c-.157-2.925-2.378-4.84-5.669-4.84-3.845 0-6.24 2.677-6.24 6.58-.001 3.87 2.344 6.564 6.256 6.564zm13.313-2.876c-.713-.025-1.21-.265-1.21-1.276v-6.216h2.4v-2.61h-2.4v-3.05h-3.472v3.05h-1.749v2.61h1.749v6.688c-.017 2.478 1.691 3.6 4.21 3.6a11.971 11.971 0 0 0 1.831-.124v-2.73c-.41.025-1.015.066-1.359.058zm5.1-11.773a1.833 1.833 0 0 0 1.89-1.76 1.894 1.894 0 0 0-3.779 0 1.833 1.833 0 0 0 1.889 1.76zm1.732 14.4V12.271h-3.472V25zm8.437.249c3.845 0 6.24-2.644 6.24-6.564 0-3.945-2.4-6.58-6.24-6.58s-6.257 2.635-6.257 6.58c0 3.915 2.403 6.564 6.257 6.564zm.017-2.693c-1.815 0-2.743-1.657-2.743-3.9s.928-3.9 2.743-3.9c1.773 0 2.7 1.674 2.7 3.9s-.927 3.899-2.7 3.899zm11.884-4.923a2.373 2.373 0 0 1 2.445-2.644 2.2 2.2 0 0 1 2.279 2.511V25h3.472v-8.1c0-2.975-1.732-4.79-4.384-4.79a3.843 3.843 0 0 0-3.829 2.4h-.153v-2.239h-3.3V25h3.472zm15.207-10.4-5.47 20.32h3l5.47-20.32zm10.7.8h-6.041V25h5.983c5.171 0 8.3-3.2 8.3-8.5-.006-5.29-3.13-8.472-8.243-8.472zm-2.519 13.948V11.052h2.329c3.207 0 4.906 1.666 4.906 5.445 0 3.8-1.7 5.478-4.923 5.478zM702.72 12.1c-3.381 0-5.3 1.74-5.5 3.953h3.29a1.925 1.925 0 0 1 2.13-1.409c1.285 0 2.014.613 2.022 1.691v1.028c-.53.017-2.254.091-3.157.149-2.445.157-4.732 1.077-4.732 3.928 0 2.511 1.807 3.8 4.235 3.8a3.906 3.906 0 0 0 3.721-2.006h.1V25h3.29v-8.577c-.004-3.067-2.619-4.323-5.399-4.323zm-.729 10.724c-1.111 0-1.9-.506-1.9-1.492s.762-1.55 1.972-1.649c.6-.058 2.1-.141 2.61-.166v.928a2.463 2.463 0 0 1-2.682 2.384zm14.287-.456c-.713-.025-1.21-.265-1.21-1.276v-6.211h2.4v-2.61h-2.4v-3.05H711.6v3.05h-1.749v2.61h1.749v6.688c-.017 2.478 1.691 3.6 4.21 3.6a11.971 11.971 0 0 0 1.831-.124v-2.73c-.418.025-1.023.066-1.363.058zm8.71-10.268c-3.381 0-5.3 1.74-5.5 3.953h3.29a1.925 1.925 0 0 1 2.13-1.409c1.285 0 2.014.613 2.022 1.691v1.028c-.53.017-2.254.091-3.157.149-2.445.157-4.732 1.077-4.732 3.928 0 2.511 1.807 3.8 4.235 3.8a3.906 3.906 0 0 0 3.721-2.006h.1V25h3.29v-8.577c-.004-3.067-2.623-4.323-5.399-4.323zm-.729 10.724c-1.111 0-1.9-.506-1.9-1.492s.762-1.55 1.972-1.649c.6-.058 2.1-.141 2.61-.166v.928a2.463 2.463 0 0 1-2.683 2.384zm22.3-4.218h3.671c-.05 2.138-1.5 3.5-3.9 3.5-2.71 0-4.442-2.022-4.442-5.61 0-3.564 1.782-5.577 4.4-5.577a3.488 3.488 0 0 1 3.6 2.577h3.588c-.472-3.348-3.423-5.7-7.251-5.7-4.475 0-7.914 3.232-7.914 8.735 0 5.37 3.224 8.7 7.989 8.7 4.276 0 7.334-2.71 7.334-7.169v-2.12h-7.074zm14.934-6.506c-3.381 0-5.3 1.74-5.5 3.953h3.29a1.925 1.925 0 0 1 2.13-1.409c1.285 0 2.014.613 2.022 1.691v1.028c-.53.017-2.254.091-3.157.149-2.445.157-4.732 1.077-4.732 3.928 0 2.511 1.807 3.8 4.235 3.8a3.906 3.906 0 0 0 3.721-2.006h.1V25h3.29v-8.577c-.004-3.067-2.623-4.323-5.399-4.323zm-.729 10.724c-1.111 0-1.9-.506-1.9-1.492s.762-1.55 1.972-1.649c.6-.058 2.1-.141 2.61-.166v.928a2.463 2.463 0 0 1-2.682 2.384zM773 29.773v-6.8h.108a3.777 3.777 0 0 0 3.622 2.238c2.909 0 5.171-2.3 5.171-6.555 0-4.359-2.354-6.547-5.171-6.547a3.753 3.753 0 0 0-3.622 2.3h-.157v-2.138h-3.423v17.5zm-.075-11.138c0-2.3.97-3.754 2.718-3.754 1.773 0 2.71 1.525 2.71 3.754 0 2.246-.953 3.8-2.71 3.8-1.735.004-2.722-1.512-2.722-3.8z" transform="translate(30 33)"/>
            <g id="fc_textlink-3" data-name="fc_textlink" transform="translate(667 76)">
                <g id="stack-3" data-name="stack" transform="translate(-2524.094 20210)">
                    <g id="ico_fc_pop_up-3" data-name="ico_fc_pop_up" transform="translate(2431.094 -20209)">
                        <g id="그룹_1025-3" data-name="그룹 1025" transform="translate(-1101.074 -1125)">
                            <g id="그룹_1026-3" data-name="그룹 1026" transform="translate(1108.074 1129)">
                                <path id="사각형_878-3" data-name="사각형 878" class="cls-5" d="M0 0h9v9H0z"/>
                            </g>
                            <path id="패스_6896-3" data-name="패스 6896" class="cls-6" d="M1104.574 1132.941v9h9" transform="translate(.5 -.941)"/>
                        </g>
                    </g>
                    <path id="패스_10750" data-name="패스 10750" class="cls-7" d="M-28.864-7.184v6.048h9.792v-6.048zm8.32 4.7h-6.848v-1.004h6.848zm-6.848-2.288V-5.84h6.848v1.072zm-3.2-7.04v1.412h4.56a15.673 15.673 0 0 1-5.344 2.352l.816 1.348a13.56 13.56 0 0 0 5.86-3.668v2.7h1.472v-2.72a12.6 12.6 0 0 0 5.92 3.68l.656-1.376a13.57 13.57 0 0 1-5.216-2.32h4.528v-1.408h-5.888v-1.344H-24.7v1.344zm-.32 11.632v1.396h13.84V-.176zm16.8-10.128v1.3h4.336c-.16.256-.352.528-.544.8h-4.656v1.344h3.568a22.321 22.321 0 0 1-3.984 3.376l.816 1.3A26.871 26.871 0 0 0-12.224-4v5.664h1.44v-.608h6.928v.608h1.44v-7.728h-7.76c.208-.256.416-.528.64-.8H-.9v-1.344h-7.74c.16-.256.3-.528.464-.8h6.352v-1.3h-5.744q.168-.432.336-.912a42.4 42.4 0 0 0 5.312-.72l-.7-1.2a61.528 61.528 0 0 1-11.392.9l.432 1.248c1.728 0 3.36-.048 4.864-.128-.112.272-.224.544-.352.816zm3.328 7.408h6.928v.752h-6.928zm6.928-1.152h-6.928v-.784h6.928zm-6.928 3.06h6.928v.816h-6.928zM1.072-12.576v1.424h6.176v1.1H2.4v6.576h4.592A5.555 5.555 0 0 1 6.3-1.824a14 14 0 0 1-2.24-1.424l-1.168.8A14.869 14.869 0 0 0 5.248-.832 10.3 10.3 0 0 1 .64.288L1.3 1.68A11 11 0 0 0 6.736-.1a22.944 22.944 0 0 0 8.352 1.8l.384-1.476A23.3 23.3 0 0 1 7.712-1.2a6.617 6.617 0 0 0 .816-2.272h5.12v-6.576h-4.9v-1.1h6.192v-1.424zM12.144-4.8H8.7a9.269 9.269 0 0 0 .048-.976v-.384h3.392zM7.2-4.8H3.9v-1.36h3.348v.384c0 .32-.016.656-.048.976zM3.9-7.408v-1.344h3.348v1.344zm4.852-1.344h3.392v1.344H8.752zM23.776-13.2a11.209 11.209 0 0 1-6.336 2.976l.9 1.392a14.792 14.792 0 0 0 4.38-1.648h4.3a8.266 8.266 0 0 1-3.488 2.64 21.069 21.069 0 0 0-1.52-1.632l-1.312.624a15.69 15.69 0 0 1 1.412 1.488 17.766 17.766 0 0 1-3.6.544l.64 1.376c4.688-.384 7.888-2.128 9.616-5.2v-1.184H24.5c.208-.208.416-.432.64-.672zm-.256 10-1.344.64a16.586 16.586 0 0 1 1.536 1.744 21.082 21.082 0 0 1-6.24.816l.608 1.456q9.36-.24 12.784-5.856v-1.184h-4.08a9.249 9.249 0 0 0 .928-.848l-1.3-.7c-1.632 1.728-4.208 2.752-7.7 3.088l.912 1.36a21.8 21.8 0 0 0 4.9-1.52h4.384a9.622 9.622 0 0 1-3.76 2.848A19.989 19.989 0 0 0 23.52-3.2zM-32 3h64v1h-64z" transform="translate(2395.094 -20194)"/>
                </g>
            </g>
        </g>
        <g id="fc_box_big_no_btn-4" data-name="fc_box_big_no_btn" transform="translate(407 1944)">
            <g id="fc_start_end">
                <g transform="translate(-114 -1000)" style="filter:url(#area-2)">
                    <g id="area-4" data-name="area" class="cls-2" transform="translate(114 1000)">
                        <rect class="cls-10" width="1108" height="130" rx="65"/>
                        <rect class="cls-11" x="1" y="1" width="1106" height="128" rx="64"/>
                    </g>
                </g>
                <path id="패스_10754" data-name="패스 10754" class="cls-3" d="M464.385 8.028h-6.041V25h5.983c5.171 0 8.3-3.2 8.3-8.5-.004-5.29-3.127-8.472-8.242-8.472zm-2.519 13.948V11.052h2.329c3.207 0 4.906 1.666 4.906 5.445 0 3.8-1.7 5.478-4.923 5.478zm18.945 3.273c3.845 0 6.24-2.644 6.24-6.564 0-3.945-2.4-6.58-6.24-6.58s-6.257 2.635-6.257 6.58c0 3.915 2.403 6.564 6.257 6.564zm.017-2.693c-1.815 0-2.743-1.657-2.743-3.9s.928-3.9 2.743-3.9c1.773 0 2.7 1.674 2.7 3.9s-.928 3.899-2.701 3.899zm18.936-6.5c-.182-2.428-2.171-3.953-5.4-3.953-3.273 0-5.37 1.525-5.362 3.97-.008 1.881 1.235 3.133 3.671 3.613l2.1.414c1.193.249 1.724.655 1.732 1.318-.008.82-.845 1.318-2.1 1.318-1.285 0-2.088-.514-2.262-1.508h-3.481c.282 2.486 2.3 4.019 5.743 4.019 3.381 0 5.627-1.674 5.635-4.177-.008-1.84-1.2-2.942-3.663-3.448l-2.3-.464c-1.193-.257-1.641-.7-1.633-1.285-.008-.762.845-1.293 1.972-1.293a1.887 1.887 0 0 1 2.088 1.475zm12.936 0c-.182-2.428-2.171-3.953-5.4-3.953-3.273 0-5.37 1.525-5.362 3.97-.008 1.881 1.235 3.133 3.671 3.613l2.1.414c1.193.249 1.724.655 1.732 1.318-.008.82-.845 1.318-2.1 1.318-1.285 0-2.088-.514-2.262-1.508H501.6c.282 2.486 2.3 4.019 5.743 4.019 3.381 0 5.627-1.674 5.635-4.177-.008-1.84-1.2-2.942-3.663-3.448l-2.3-.464c-1.193-.257-1.641-.7-1.633-1.285-.008-.762.845-1.293 1.972-1.293a1.887 1.887 0 0 1 2.088 1.475zm4.152-5.453a1.833 1.833 0 0 0 1.889-1.765 1.894 1.894 0 0 0-3.779 0 1.833 1.833 0 0 0 1.89 1.762zM518.584 25V12.271h-3.472V25zm14.316-6.439c0-4.343-2.635-6.456-5.975-6.456-3.729 0-6.157 2.66-6.157 6.588 0 4.036 2.4 6.555 6.3 6.555 3.141 0 5.246-1.525 5.743-3.87h-3.3a2.468 2.468 0 0 1-2.387 1.268 2.813 2.813 0 0 1-2.925-3.116h8.7zm-8.7-1.2a2.753 2.753 0 0 1 2.793-2.66 2.558 2.558 0 0 1 2.635 2.66zM538.548 25v-7.235a2.592 2.592 0 0 1 2.718-2.66 6.212 6.212 0 0 1 1.483.191V12.2a6.641 6.641 0 0 0-1.11-.108 3.1 3.1 0 0 0-3.066 2.4h-.133v-2.221h-3.365V25zm11.693-3.048a26.415 26.415 0 0 1-5.928 1.968l.312 2.4a25.749 25.749 0 0 0 5.616-2.064zM547.434 5.2a48.721 48.721 0 0 1-2.52 6.864 2.171 2.171 0 0 1-1.032.912l.624 2.232c1.1-.168 2.184-.336 3.192-.48a21.525 21.525 0 0 1-2.4 3.648 3.214 3.214 0 0 1-1.1.7l.648 2.208a32.625 32.625 0 0 0 6.312-1.488v-2.212a34.626 34.626 0 0 1-3.456 1.008 60.244 60.244 0 0 0 4.488-7.656l-2.16-.816c-.408.84-.792 1.632-1.176 2.4-.72.12-1.44.216-2.16.312a39.087 39.087 0 0 0 3.072-6.72zm16.152 22.2a1.689 1.689 0 0 0 1.9-1.9v-9.812h-10.972l.072-1.464h10.8v-6.7h-5.376c-.264-.888-.528-1.7-.792-2.424l-2.592.432a17.1 17.1 0 0 1 .912 1.992h-5.232v6.12q-.036 7.488-2.76 12.24l1.8 1.608a26.016 26.016 0 0 0 2.808-8.424v8.452h2.04v-5.16h1.272v4.632h1.752V22.36h1.176v4.632h1.728V25.84l.432 1.56zm-1.464-5.04h1.3v2.688c0 .36-.168.552-.456.552l-.84-.1zm-5.928-2.016V17.8h1.272v2.544zm3.024-2.544h1.176v2.544h-1.176zm2.9 0h1.3v2.544h-1.3zm.96-8.088v2.4h-8.5v-2.4zm12.58 3.788h9.984v-2.348h-9.432c.144-.6.264-1.224.408-1.9l-2.472-.24a91.992 91.992 0 0 1-2.352 9.24h13.392c-.072 3.7-.288 5.784-.624 6.216a2.993 2.993 0 0 1-2.208.624c-.864 0-1.824-.024-2.832-.072l.72 2.328h2.016c2.184 0 3.624-.408 4.3-1.176s1.052-4.172 1.148-10.22h-12.768q.362-1.152.72-2.452zm-6.936 6.84v2.4h14.5v-2.4zM589 6.088h-19.822V11.7h2.472V8.44h14.88v3.288H589z" transform="translate(30 50)"/>
            </g>
        </g>
    </g>
    <g id="fc_line" transform="translate(-293 -944)">
        <path id="세로" class="cls-9" transform="translate(1246 1534)" d="M0 0h1v50H0z"/>
        <path id="세로-2" data-name="세로" class="cls-9" transform="translate(961 1174)" d="M0 0h1v50H0z"/>
        <path id="세로-3" data-name="세로" class="cls-9" transform="translate(961 1354)" d="M0 0h1v50H0z"/>
        <path id="세로-4" data-name="세로" class="cls-9" transform="translate(675 1534)" d="M0 0h1v229H0z"/>
        <path id="세로-5" data-name="세로" class="cls-9" transform="translate(961 1894)" d="M0 0h1v50H0z"/>
        <path id="다각형_177" data-name="다각형 177" class="cls-9" d="M7.5 0 15 11H0z" transform="rotate(180 484.5 615)"/>
        <path id="다각형_178" data-name="다각형 178" class="cls-9" d="M7.5 0 15 11H0z" transform="rotate(180 484.5 705)"/>
        <path id="다각형_179" data-name="다각형 179" class="cls-9" d="M7.5 0 15 11H0z" transform="rotate(180 627 795)"/>
        <path id="다각형_180" data-name="다각형 180" class="cls-9" d="M7.5 0 15 11H0z" transform="rotate(180 341.5 885)"/>
        <path id="다각형_181" data-name="다각형 181" class="cls-9" d="M7.5 0 15 11H0z" transform="rotate(180 484.5 975)"/>
    </g>
    <g id="fc_yes" transform="translate(-142 298)">
        <g id="fc_yes-2" data-name="fc_yes" transform="translate(482.528 398.816)">
            <path id="사각형_515" data-name="사각형 515" class="cls-1" d="M0 0h82.832v22.88H0z"/>
            <path id="패스_10752" data-name="패스 10752" class="cls-3" d="M-29.488-6.768v8.432h1.664V-9.2a17.171 17.171 0 0 0 1.44-3.232l-1.52-.72a17.358 17.358 0 0 1-3.568 6.384l.512 1.648a35.04 35.04 0 0 0 1.472-1.648zm2.48-2.64v1.6h3.04C-24.32-4.08-25.52-1.3-27.536.56l1.248 1.088q3.36-3.168 3.936-9.456h.528v7.664c0 1.024.48 1.552 1.472 1.552h2.052a1.553 1.553 0 0 0 1.1-.5 8.77 8.77 0 0 0 .56-3.04l-1.488-.5a9.13 9.13 0 0 1-.224 2.256c-.128.16-.24.256-.368.256h-1.18a.3.3 0 0 1-.336-.336v-7.36h3.168v-1.6h-5.184c0-.224.016-.464.016-.72v-2.96h-1.616v2.96c0 .24-.016.48-.016.72zm6.8-3.52L-21.28-11.9a15.424 15.424 0 0 1 2.48 2.172l1.136-1.136a15.8 15.8 0 0 0-2.544-2.064zm8.224 3.664H-8.7v2.512h-6.384v1.616h4.184a6.525 6.525 0 0 1-1.04 3.12A7.955 7.955 0 0 1-15.3.192l1.184 1.5a8.945 8.945 0 0 0 3.76-2.848A8.806 8.806 0 0 0-9.2-5.136h2.5V-.8c0 1.488.624 2.24 1.888 2.24h2.24A1.787 1.787 0 0 0-1.328.928a8.283 8.283 0 0 0 .64-3.248l-1.6-.512A8.235 8.235 0 0 1-2.56-.448a.657.657 0 0 1-.448.272h-1.344c-.448 0-.656-.32-.656-.928v-4.032h4.176v-1.616h-6.192v-2.512h5.088v-1.616h-5.088v-2.208H-8.7v2.208h-2.58c.192-.512.368-1.056.528-1.616l-1.68-.352A14.32 14.32 0 0 1-14.88-8.1l1.616 1.008a16.914 16.914 0 0 0 1.28-2.172zm14.352-2.448v1.536H6.48v1.248h-5.3v1.584h5.78A29.428 29.428 0 0 1 .528-4.656l.688 1.5a34.637 34.637 0 0 0 3.36-1.216L3.9-2h7.94a4.179 4.179 0 0 1-.368 1.648c-.192.224-.688.336-1.456.336-.64 0-1.376-.048-2.176-.128l.528 1.456a15.084 15.084 0 0 0 2.016.128A3.182 3.182 0 0 0 12.72.784c.4-.448.656-1.856.784-4.24H5.888l.4-1.184h7.952v-1.488H8.048c.64-.384 1.248-.8 1.84-1.216H15.1v-1.584h-3.28a20.877 20.877 0 0 0 2.688-3.008l-1.232-.912a19.493 19.493 0 0 1-1.632 1.9v-.768h-3.5v-1.456H6.48v1.456zm6.976 2.784h-1.2v-1.248h2.7c-.46.416-.956.832-1.5 1.248zm12.88-4.256v2.864h-4.448v4.96A14.47 14.47 0 0 1 16.608.592l1.216 1.088a15.352 15.352 0 0 0 1.488-7.04v-3.552h9.68a9.341 9.341 0 0 1-.56 1.392L30-7.088a14.659 14.659 0 0 0 .72-2.5v-.736h-6.848v-.8h5.552V-12.5h-5.552v-.688zm5.7 4.928-4.064.5v-.9h-1.588v1.088l-2.608.3.192 1.344 2.416-.288v.416c0 .88.592 1.328 1.776 1.328h3.92a2.4 2.4 0 0 0 1.332-.284c.3-.192.528-.8.656-1.824l-1.556-.48q-.048.912-.24 1.056a.667.667 0 0 1-.5.176h-3.18c-.416 0-.624-.1-.624-.272v-.3l4.288-.512zm-7.936 5.1a14.023 14.023 0 0 1-1.124 3.54l1.36.864a17.41 17.41 0 0 0 1.264-4.1zm5.42-1.164-1.344.448a17.356 17.356 0 0 1 1.552 2.72l1.376-.624a16.081 16.081 0 0 0-1.584-2.544zm4.272.752-1.456.48A26.47 26.47 0 0 1 29.888.864L31.36.208a26.989 26.989 0 0 0-1.68-3.776zm-2.688 5.136a2 2 0 0 0 1.248-.352 4.689 4.689 0 0 0 .592-2.4l-1.52-.48A4.333 4.333 0 0 1 27.1-.208a.478.478 0 0 1-.4.208h-2.508c-.384 0-.56-.208-.56-.608v-2.768H22v3.1c0 1.216.56 1.84 1.68 1.84z" transform="translate(41.472 17.184)"/>
        </g>
    </g>
</svg>
