<svg id="CHN_flow_chart_2_7_2" xmlns="http://www.w3.org/2000/svg" width="1336" height="824" viewBox="0 0 1336 824">
    <defs>
        <filter id="area" x="105" y="94" width="1126" height="148" filterUnits="userSpaceOnUse">
            <feOffset dy="3"/>
            <feGaussianBlur stdDeviation="3" result="blur"/>
            <feFlood flood-color="#111" flood-opacity=".102"/>
            <feComposite operator="in" in2="blur"/>
            <feComposite in="SourceGraphic"/>
        </filter>
        <filter id="box" x="105" y="588" width="556" height="148" filterUnits="userSpaceOnUse">
            <feOffset dy="3"/>
            <feGaussianBlur stdDeviation="3" result="blur-2"/>
            <feFlood flood-color="#111" flood-opacity=".102"/>
            <feComposite operator="in" in2="blur-2"/>
            <feComposite in="SourceGraphic"/>
        </filter>
        <filter id="box-2" x="675" y="588" width="556" height="148" filterUnits="userSpaceOnUse">
            <feOffset dy="3"/>
            <feGaussianBlur stdDeviation="3" result="blur-3"/>
            <feFlood flood-color="#111" flood-opacity=".102"/>
            <feComposite operator="in" in2="blur-3"/>
            <feComposite in="SourceGraphic"/>
        </filter>
        <filter id="box-3" x="675" y="324" width="556" height="182" filterUnits="userSpaceOnUse">
            <feOffset dy="3"/>
            <feGaussianBlur stdDeviation="3" result="blur-4"/>
            <feFlood flood-color="#111" flood-opacity=".102"/>
            <feComposite operator="in" in2="blur-4"/>
            <feComposite in="SourceGraphic"/>
        </filter>
        <style>
            .cls-1{fill:#f8f8f8}.cls-2,.cls-4{fill:#fff}.cls-2{stroke:#999;stroke-width:2px}.cls-3{fill:red;opacity:0}.cls-4,.cls-5{stroke:#326f5e;stroke-width:1.5px}.cls-11,.cls-5{fill:none}.cls-6{fill:#326f5e}.cls-7{fill:#333}.cls-9{fill:#999}.cls-10{stroke:none}
        </style>
    </defs>
    <path id="bg" class="cls-1" d="M0 0h1336v824H0z"/>
    <g id="fc_start_end_link" transform="translate(114 100)">
        <g transform="translate(-114 -100)" style="filter:url(#area)">
            <g id="area-2" data-name="area" class="cls-2" transform="translate(114 100)">
                <rect class="cls-10" width="1108" height="130" rx="65"/>
                <rect class="cls-11" x="1" y="1" width="1106" height="128" rx="64"/>
            </g>
        </g>
        <g id="fc_textlink" transform="translate(671 76)">
            <g id="stack" transform="translate(-2524.094 20210)">
                <g id="ico_fc_pop_up" transform="translate(2431.094 -20209)">
                    <g id="그룹_1025" data-name="그룹 1025" transform="translate(-1101.074 -1125)">
                        <g id="그룹_1026" data-name="그룹 1026" transform="translate(1108.074 1129)">
                            <path id="사각형_878" data-name="사각형 878" class="cls-4" d="M0 0h9v9H0z"/>
                        </g>
                        <path id="패스_6896" data-name="패스 6896" class="cls-5" d="M1104.574 1132.941v9h9" transform="translate(.5 -.941)"/>
                    </g>
                </g>
                <path id="패스_10756" data-name="패스 10756" class="cls-6" d="M-28.864-7.184v6.048h9.792v-6.048zm8.32 4.7h-6.848v-1.004h6.848zm-6.848-2.288V-5.84h6.848v1.072zm-3.2-7.04v1.412h4.56a15.673 15.673 0 0 1-5.344 2.352l.816 1.348a13.56 13.56 0 0 0 5.86-3.668v2.7h1.472v-2.72a12.6 12.6 0 0 0 5.92 3.68l.656-1.376a13.57 13.57 0 0 1-5.216-2.32h4.528v-1.408h-5.888v-1.344H-24.7v1.344zm-.32 11.632v1.396h13.84V-.176zm16.8-10.128v1.3h4.336c-.16.256-.352.528-.544.8h-4.656v1.344h3.568a22.321 22.321 0 0 1-3.984 3.376l.816 1.3A26.871 26.871 0 0 0-12.224-4v5.664h1.44v-.608h6.928v.608h1.44v-7.728h-7.76c.208-.256.416-.528.64-.8H-.9v-1.344h-7.74c.16-.256.3-.528.464-.8h6.352v-1.3h-5.744q.168-.432.336-.912a42.4 42.4 0 0 0 5.312-.72l-.7-1.2a61.528 61.528 0 0 1-11.392.9l.432 1.248c1.728 0 3.36-.048 4.864-.128-.112.272-.224.544-.352.816zm3.328 7.408h6.928v.752h-6.928zm6.928-1.152h-6.928v-.784h6.928zm-6.928 3.06h6.928v.816h-6.928zM1.072-12.576v1.424h6.176v1.1H2.4v6.576h4.592A5.555 5.555 0 0 1 6.3-1.824a14 14 0 0 1-2.24-1.424l-1.168.8A14.869 14.869 0 0 0 5.248-.832 10.3 10.3 0 0 1 .64.288L1.3 1.68A11 11 0 0 0 6.736-.1a22.944 22.944 0 0 0 8.352 1.8l.384-1.476A23.3 23.3 0 0 1 7.712-1.2a6.617 6.617 0 0 0 .816-2.272h5.12v-6.576h-4.9v-1.1h6.192v-1.424zM12.144-4.8H8.7a9.269 9.269 0 0 0 .048-.976v-.384h3.392zM7.2-4.8H3.9v-1.36h3.348v.384c0 .32-.016.656-.048.976zM3.9-7.408v-1.344h3.348v1.344zm4.852-1.344h3.392v1.344H8.752zM23.776-13.2a11.209 11.209 0 0 1-6.336 2.976l.9 1.392a14.792 14.792 0 0 0 4.38-1.648h4.3a8.266 8.266 0 0 1-3.488 2.64 21.069 21.069 0 0 0-1.52-1.632l-1.312.624a15.69 15.69 0 0 1 1.412 1.488 17.766 17.766 0 0 1-3.6.544l.64 1.376c4.688-.384 7.888-2.128 9.616-5.2v-1.184H24.5c.208-.208.416-.432.64-.672zm-.256 10-1.344.64a16.586 16.586 0 0 1 1.536 1.744 21.082 21.082 0 0 1-6.24.816l.608 1.456q9.36-.24 12.784-5.856v-1.184h-4.08a9.249 9.249 0 0 0 .928-.848l-1.3-.7c-1.632 1.728-4.208 2.752-7.7 3.088l.912 1.36a21.8 21.8 0 0 0 4.9-1.52h4.384a9.622 9.622 0 0 1-3.76 2.848A19.989 19.989 0 0 0 23.52-3.2zM-32 3h64v1h-64z" transform="translate(2395.094 -20194)"/>
            </g>
        </g>
        <path id="패스_13675" data-name="패스 13675" class="cls-7" d="M344 10.5v1.968h2.376V14.1h-2.688v2.064h7.776V14.1h-2.712v-1.628h2.4V10.5h-2.4V8.9h-2.376v1.6zm.312 6.84v6.56h6.5v-6.556zm4.388 4.54h-2.256v-2.52h2.256zm5.688-15.864h-13.58v13.632a11.528 11.528 0 0 1-1.656 6.168L341 27.52a14.468 14.468 0 0 0 2.16-8.04V8.272h8.856v15.744c0 .792-.312 1.2-.936 1.2s-1.32-.048-2.04-.12l.576 2.28h2.184c1.728 0 2.592-.84 2.592-2.5zm-18.12-.552-1.752 1.7a23.263 23.263 0 0 1 3.72 3.5l1.7-1.728a28.7 28.7 0 0 0-3.664-3.472zm-3.408 6.912v2.4h3.12v8.112a1.516 1.516 0 0 1-.648 1.248l.96 2.232a32.82 32.82 0 0 0 3.96-3.384l-.624-2.472c-.432.432-.864.84-1.248 1.224v-9.36zm27.768 1.776v9.192h14.832v-9.192zm12.384 6.984h-9.932v-1.3h9.936zm-9.936-3.408V16.36h9.936v1.368zm-4.988-10.536V9.5h6.6a24.258 24.258 0 0 1-7.8 3.288l1.368 2.208a21.007 21.007 0 0 0 8.568-5.328v3.792h2.448V9.664q2.7 3.276 8.712 5.328l1.08-2.256a20.915 20.915 0 0 1-7.608-3.24h6.552v-2.3h-8.736V5.248h-2.448v1.944zm-.48 17.4v2.28h20.808v-2.28zm33.48-19.368A33.769 33.769 0 0 1 380.624 13l1.344 2.448a45.125 45.125 0 0 0 4.08-2.52v1.824h11.976v-1.728a33.376 33.376 0 0 0 3.912 2.4l1.368-2.448a33.379 33.379 0 0 1-10.392-7.752zm-4.32 7.176A30.18 30.18 0 0 0 392 7.48a29.869 29.869 0 0 0 5.208 4.92zm-4.488 4.8v2.448h5.42a26.572 26.572 0 0 1-3.048 4.44 2.533 2.533 0 0 1-1.3.672l.672 2.184q8.352-.5 13.92-1.368c.456.624.888 1.272 1.3 1.9l2.088-1.464a57.739 57.739 0 0 0-5.064-6.144l-1.944 1.224q1.188 1.368 2.232 2.664c-3.072.36-6.24.624-9.48.816a22.193 22.193 0 0 0 3.528-4.92h11.16V17.2zm42.072-3.36h-16.68v9.528h2.5V16.12h11.688v6.864h2.5zm-15.264-7.9v6.56h13.848V5.944zm11.424 4.392h-9v-2.18h9zm-5.568 6.912c-.168 2.832-.792 4.848-1.872 6q-1.872 1.8-7.632 2.088l.984 2.28c4.7-.432 7.632-1.416 8.832-2.9 1.152-1.176 1.9-3.576 2.232-7.224zm3.024 5.376-1.248 1.848a45.886 45.886 0 0 1 8.424 3.168l1.344-2.088a56.219 56.219 0 0 0-8.52-2.924zM435.3 5.488a24.1 24.1 0 0 1-6.336 10.7l1.992 1.728q4.14-4 6.672-11.472zm9.36 12.72-2.256.768a44.183 44.183 0 0 1 2.3 4.152c-3.072.48-6.24.816-9.456 1.032a67.3 67.3 0 0 0 5.76-9.912l-2.472-.864q-4.68 10.332-7.1 10.872l.432 2.448c5.112-.336 9.744-.792 13.872-1.416q.468 1.08.936 2.232l2.352-1.056a51 51 0 0 0-4.372-8.256zM444.248 5.3l-2.16 1.2a23.313 23.313 0 0 0 7.2 11.472l1.8-2.088a21.534 21.534 0 0 1-6.84-10.584zm11.04 10.056v7.964h11.136v-7.968zm8.736 5.76h-6.36V17.56h6.36zm6.336 6.216q2.736 0 2.736-2.88V6.04h-18.48v2.4H470.6v15.312c0 .816-.264 1.248-.792 1.248l-3.408-.072.648 2.4zm-17.088-16.56v2.28h15.336v-2.28zm34.776 5.28a40.18 40.18 0 0 1 4.8 5.88l1.944-1.944a51.917 51.917 0 0 0-5.976-6.432c.168-.72.312-1.464.432-2.256h6v12.524q0 1.008-.864 1.008l-3.624-.12.672 2.5h3.768c1.7 0 2.568-.96 2.568-2.832V8.872h-8.256c.1-1.128.144-2.352.144-3.648h-2.568c0 1.3-.048 2.5-.144 3.648h-8.712V27.5h2.52V11.3h5.88a29.904 29.904 0 0 1-.5 2.328 12.154 12.154 0 0 1-5.016 6.48l1.68 2.04a13.93 13.93 0 0 0 5.252-6.1zm16.968-5.832-2.256.816a22.328 22.328 0 0 1 1.2 2.9h-2.86v2.4h12.1v-2.4h-2.448a21.605 21.605 0 0 0 1.272-3.048l-2.28-.792a28.949 28.949 0 0 1-1.44 3.84h-1.968a25.339 25.339 0 0 0-1.32-3.72zm9.072-4.176v21.404h2.424V8.344h3.312A58.136 58.136 0 0 1 517.5 14.7c1.872 2.184 2.832 3.96 2.856 5.328a5.966 5.966 0 0 1-.168 1.584.89.89 0 0 1-.792.432c-.648 0-1.44-.072-2.376-.168l.792 2.64c2.04 0 3.408-.336 4.08-.984a5.057 5.057 0 0 0 .96-3.5c-.024-1.392-.912-3.168-2.688-5.328a71.558 71.558 0 0 0 2.424-6.792V6.04zm-12.528 1.34v2.4h11.424v-2.4H508.3a50.633 50.633 0 0 0-.576-2.256l-2.568.432c.24.552.456 1.152.672 1.824zm10.752 10.536h-9.96v9.528h2.448v-1.176h5.016v1.176h2.5zM504.8 23.9v-3.6h5.016v3.6zm29.952-3.936v-8.836H528.7V9.016a19.74 19.74 0 0 0 6.24-1.824l-1.656-1.9a18.681 18.681 0 0 1-6.816 1.9v10.224a19.638 19.638 0 0 1-1.752 8.232l1.752 1.824a22.005 22.005 0 0 0 2.088-7.512zm-6.052-6.388h3.768v4.1H528.7zm9.816 1.272h3.6V27.5h2.472V14.848h2.472v-2.424h-8.54L538.5 8.9a27.642 27.642 0 0 0 7.8-1.464l-1.272-2.184a26.848 26.848 0 0 1-8.784 1.584V18.04a19.605 19.605 0 0 1-1.608 8.4l2.28 1.128c1.032-2.136 1.56-5.3 1.608-9.528zm18.288-.48h8.736v1.92h-8.736zm8.736 4.08v1.872h-8.736v-1.872zm0 4.032v1.944q0 .792-.864.792c-.768 0-1.608-.048-2.5-.12l.6 2.256h2.688c1.608-.048 2.424-.744 2.424-2.136V12.208h-10.84c.408-.7.792-1.392 1.176-2.112h12.5V7.672H559.28c.264-.72.5-1.464.744-2.232l-2.568-.312a24.912 24.912 0 0 1-.936 2.544h-6.984V10.1h5.784a25.676 25.676 0 0 1-6.432 7.32l1.632 2.136a32.788 32.788 0 0 0 3.936-3.792v11.708h2.352V22.48zm9.48-16.92-1.248 1.848a17.248 17.248 0 0 1 3.864 1.848l1.344-2.016a21.125 21.125 0 0 0-3.956-1.68zm7.152-.384a8.071 8.071 0 0 1-3 4.08l1.488 1.944a12.94 12.94 0 0 0 2.208-2.232h2.4a5.431 5.431 0 0 1-1.56 2.52 11.2 11.2 0 0 1-4.824 1.92l.936 2.232c2.76-.648 4.7-1.536 5.808-2.688.216-.24.432-.5.672-.792 1.512 1.728 3.936 2.928 7.3 3.624l.888-2.184c-3.5-.624-5.88-1.776-7.152-3.408.12-.384.24-.792.336-1.224h3.24a10.889 10.889 0 0 1-.864 2.064l2.4.72a27.29 27.29 0 0 0 1.032-3.48V6.784h-9.336a10.378 10.378 0 0 0 .5-1.3zM591.9 15.9h-15.84v7.464h2.5v-5.132h10.824v4.848h2.52zm-9 2.88c-.168 2.256-.768 3.864-1.824 4.8q-1.8 1.4-7.416 1.656l1.008 2.28c4.536-.384 7.392-1.2 8.568-2.472 1.1-.96 1.848-3 2.184-6.072zm-4.944-8.592a23.1 23.1 0 0 1-4.656 3.12l1.632 1.944a22.581 22.581 0 0 0 4.464-3.36zm7.872 12.7-1.272 1.9a46.494 46.494 0 0 1 8.4 2.928l1.344-2.088a54.011 54.011 0 0 0-8.476-2.74zm13.46-15.624-2.064.672a34.334 34.334 0 0 1 1.392 4.848l1.92-.528a39.815 39.815 0 0 0-1.248-4.992zm5.88-.24a21.154 21.154 0 0 1-.864 4.992l1.848.6a19.014 19.014 0 0 0 1.1-5.3zm-7.992 6.456v2.42h3.84a17.886 17.886 0 0 1-4.224 5.5l1.056 2.616a24.974 24.974 0 0 0 3.36-5.136v8.568h2.52v-8.76c.552.816 1.2 1.848 1.92 3.048l1.488-2.232a45.994 45.994 0 0 0-3.408-3.168V15.9h3.312v-2.42h-3.312V5.368h-2.52v8.112zm16.944-8.088v13.656l-6.864 1.032.36 2.5 6.5-.984v5.856h2.472v-6.24l2.616-.384-.432-2.5-2.184.336V5.392zm-4.2 1.56-1.656 1.608a23.11 23.11 0 0 1 3.792 3.528l1.7-1.7a27.775 27.775 0 0 0-3.836-3.436zm-.576 5.64-1.68 1.584a23.689 23.689 0 0 1 3.744 3.624l1.7-1.728a28.336 28.336 0 0 0-3.764-3.48zm18.864-5.112v2.376h5.9v1.728h-5.28v7.3h5.16a11.027 11.027 0 0 1-.744 3.12 15.366 15.366 0 0 1-2.952-2.784l-1.92 1.32a19.489 19.489 0 0 0 3.432 3.312 9.213 9.213 0 0 1-4.872 1.512l1.08 2.28a11 11 0 0 0 6.024-2.328 20.265 20.265 0 0 0 8.5 2.352l.6-2.4a18.973 18.973 0 0 1-7.68-1.92 13.853 13.853 0 0 0 1.056-4.464h5.616v-7.3h-5.5V9.856h6.384V7.48h-6.384V5.3h-2.52v2.18zm11.568 9.168h-3.144v-2.832h3.144zm-5.664 0h-2.928v-2.832h2.928zm-10.728-1.488v12.384h2.52V11.416a27.988 27.988 0 0 0 2.256-5.232l-2.376-1.1a26.486 26.486 0 0 1-5.112 9.624l.816 2.664a33.98 33.98 0 0 0 1.896-2.212zm26.16-1.008h5.28v3.456h-5.28zm-.12 5.76h5.4v6.768h2.544v-6.768h5.712v3.336c0 .912-.384 1.392-1.1 1.392-.816 0-1.68-.048-2.64-.144l.672 2.448h2.76c1.9 0 2.856-.936 2.856-2.784V6.04h-18.6v11.88a13.467 13.467 0 0 1-2.184 7.7l1.92 1.728a14.842 14.842 0 0 0 2.66-7.436zm13.656-2.3h-5.712v-3.46h5.712zm0-5.76h-5.712V8.488h5.712zm-8.256-3.36v3.36h-5.28V8.488zM673.16 5.2l-1.176 10.992h13.488c0 4.152-.264 6.672-.792 7.536-.48.816-1.992 1.224-4.488 1.224-.48 0-1.368-.072-2.616-.192l.7 2.28c.84.072 1.656.12 2.448.12 3 0 4.968-.528 5.88-1.536.912-1.08 1.392-4.992 1.392-11.76h-13.228l.336-3.192h14.184v-2.4h-13.944l.288-2.88zm-4.032 14.112v2.4h13.512v-2.4zm25.1-13.176v2.448h9.1q-3.276 3.456-10.3 5.976l1.584 2.064a33.941 33.941 0 0 0 8.136-4.488v5.448h2.5V9.832c.36-.408.7-.816 1.032-1.248h7.608V6.136zm18 12.024h-16.412v9.264h2.544v-1.08h11.328v1.08h2.544zm-13.868 5.784V20.56h11.328v3.384zm9.456-13.8-1.68 1.632a39.688 39.688 0 0 1 6.84 4.944l1.824-1.82a48.833 48.833 0 0 0-6.984-4.756z" transform="translate(30 33)"/>
    </g>
    <g id="fc_box_medium_no_btn" transform="translate(114 594)">
        <g transform="translate(-114 -594)" style="filter:url(#box)">
            <g id="box-4" data-name="box" style="fill:#eee;stroke:#999;stroke-width:2px">
                <path class="cls-10" d="M0 0h538v130H0z" transform="translate(114 594)"/>
                <path class="cls-11" d="M1 1h536v128H1z" transform="translate(114 594)"/>
            </g>
        </g>
        <path id="패스_10765" data-name="패스 10765" class="cls-7" d="M176.617 8.028h-6.041V25h5.983c5.171 0 8.3-3.2 8.3-8.5-.004-5.29-3.128-8.472-8.242-8.472zM174.1 21.975V11.052h2.329c3.207 0 4.906 1.666 4.906 5.445 0 3.8-1.7 5.478-4.923 5.478zm18.945 3.273c3.845 0 6.24-2.644 6.24-6.564 0-3.945-2.4-6.58-6.24-6.58s-6.257 2.635-6.257 6.58c-.002 3.916 2.401 6.565 6.255 6.565zm.017-2.693c-1.815 0-2.743-1.657-2.743-3.9s.928-3.9 2.743-3.9c1.773 0 2.7 1.674 2.7 3.9s-.929 3.9-2.703 3.9zM212 16.058c-.182-2.428-2.171-3.953-5.4-3.953-3.273 0-5.37 1.525-5.362 3.97-.008 1.881 1.235 3.133 3.671 3.613l2.1.414c1.193.249 1.724.655 1.732 1.318-.008.82-.845 1.318-2.1 1.318-1.285 0-2.088-.514-2.262-1.508H200.9c.282 2.486 2.3 4.019 5.743 4.019 3.381 0 5.627-1.674 5.635-4.177-.008-1.84-1.2-2.942-3.663-3.448l-2.3-.464c-1.193-.257-1.641-.7-1.633-1.285-.008-.762.845-1.293 1.972-1.293a1.887 1.887 0 0 1 2.088 1.475zm12.936 0c-.182-2.428-2.171-3.953-5.4-3.953-3.273 0-5.37 1.525-5.362 3.97-.008 1.881 1.235 3.133 3.671 3.613l2.1.414c1.193.249 1.724.655 1.732 1.318-.008.82-.845 1.318-2.1 1.318-1.285 0-2.088-.514-2.262-1.508h-3.481c.282 2.486 2.3 4.019 5.743 4.019 3.381 0 5.627-1.674 5.635-4.177-.008-1.84-1.2-2.942-3.663-3.448l-2.3-.464c-1.193-.257-1.641-.7-1.633-1.285-.008-.762.845-1.293 1.972-1.293a1.887 1.887 0 0 1 2.088 1.475zm4.152-5.453a1.833 1.833 0 0 0 1.89-1.765 1.894 1.894 0 0 0-3.779 0 1.833 1.833 0 0 0 1.885 1.76zM230.816 25V12.271h-3.472V25zm14.312-6.439c0-4.343-2.635-6.456-5.975-6.456-3.729 0-6.157 2.66-6.157 6.588 0 4.036 2.4 6.555 6.3 6.555 3.141 0 5.246-1.525 5.743-3.87h-3.3a2.468 2.468 0 0 1-2.387 1.268 2.813 2.813 0 0 1-2.925-3.116h8.7zm-8.7-1.2a2.753 2.753 0 0 1 2.793-2.66 2.558 2.558 0 0 1 2.635 2.66zM250.78 25v-7.235a2.592 2.592 0 0 1 2.72-2.665 6.213 6.213 0 0 1 1.483.191V12.2a6.64 6.64 0 0 0-1.11-.108 3.1 3.1 0 0 0-3.066 2.4h-.133v-2.221h-3.365V25zm17.229-3.048a26.415 26.415 0 0 1-5.928 1.968l.312 2.4a25.75 25.75 0 0 0 5.616-2.064zM265.2 5.2a48.729 48.729 0 0 1-2.52 6.864 2.171 2.171 0 0 1-1.032.912l.624 2.232c1.1-.168 2.184-.336 3.192-.48a21.525 21.525 0 0 1-2.4 3.648 3.214 3.214 0 0 1-1.1.7l.648 2.208a32.623 32.623 0 0 0 6.312-1.488v-2.212a34.628 34.628 0 0 1-3.456 1.008 60.244 60.244 0 0 0 4.488-7.656l-2.16-.816c-.408.84-.792 1.632-1.176 2.4-.72.12-1.44.216-2.16.312a39.09 39.09 0 0 0 3.072-6.72zm16.152 22.2a1.689 1.689 0 0 0 1.9-1.9v-9.812h-10.97l.072-1.464h10.8v-6.7h-5.376c-.264-.888-.528-1.7-.792-2.424l-2.592.432a17.1 17.1 0 0 1 .912 1.992h-5.232v6.12q-.036 7.488-2.76 12.24l1.8 1.608a26.016 26.016 0 0 0 2.808-8.424v8.452h2.04v-5.16h1.272v4.632h1.752V22.36h1.176v4.632h1.728V25.84l.432 1.56zm-1.464-5.04h1.3v2.688c0 .36-.168.552-.456.552l-.84-.1zm-5.928-2.016V17.8h1.272v2.544zm3.024-2.544h1.176v2.544h-1.176zm2.9 0h1.3v2.544h-1.3zm.96-8.088v2.4h-8.5v-2.4zm12.582 3.788h9.984v-2.348h-9.432c.144-.6.264-1.224.408-1.9l-2.472-.24a92.008 92.008 0 0 1-2.352 9.24h13.392c-.072 3.7-.288 5.784-.624 6.216a2.993 2.993 0 0 1-2.208.624c-.864 0-1.824-.024-2.832-.072l.72 2.328h2.016c2.184 0 3.624-.408 4.3-1.176s1.056-4.176 1.152-10.224h-12.772q.36-1.148.72-2.448zm-6.936 6.84v2.4h14.5v-2.4zm20.28-14.252h-19.824V11.7h2.472V8.44H304.3v3.288h2.472z" transform="translate(30 51)"/>
    </g>
    <g id="fc_box_medium_link" transform="translate(684 594)">
        <g transform="translate(-684 -594)" style="filter:url(#box-2)">
            <g id="box-5" data-name="box" class="cls-2">
                <path class="cls-10" d="M0 0h538v130H0z" transform="translate(684 594)"/>
                <path class="cls-11" d="M1 1h536v128H1z" transform="translate(684 594)"/>
            </g>
        </g>
        <g id="fc_textlink-2" data-name="fc_textlink" transform="translate(386 76)">
            <g id="stack-2" data-name="stack" transform="translate(-2524.094 20210)">
                <g id="ico_fc_pop_up-2" data-name="ico_fc_pop_up" transform="translate(2431.094 -20209)">
                    <g id="그룹_1025-2" data-name="그룹 1025" transform="translate(-1101.074 -1125)">
                        <g id="그룹_1026-2" data-name="그룹 1026" transform="translate(1108.074 1129)">
                            <path id="사각형_878-2" data-name="사각형 878" class="cls-4" d="M0 0h9v9H0z"/>
                        </g>
                        <path id="패스_6896-2" data-name="패스 6896" class="cls-5" d="M1104.574 1132.941v9h9" transform="translate(.5 -.941)"/>
                    </g>
                </g>
                <path id="패스_10766" data-name="패스 10766" class="cls-6" d="M-28.864-7.184v6.048h9.792v-6.048zm8.32 4.7h-6.848v-1.004h6.848zm-6.848-2.288V-5.84h6.848v1.072zm-3.2-7.04v1.412h4.56a15.673 15.673 0 0 1-5.344 2.352l.816 1.348a13.56 13.56 0 0 0 5.86-3.668v2.7h1.472v-2.72a12.6 12.6 0 0 0 5.92 3.68l.656-1.376a13.57 13.57 0 0 1-5.216-2.32h4.528v-1.408h-5.888v-1.344H-24.7v1.344zm-.32 11.632v1.396h13.84V-.176zm16.8-10.128v1.3h4.336c-.16.256-.352.528-.544.8h-4.656v1.344h3.568a22.321 22.321 0 0 1-3.984 3.376l.816 1.3A26.871 26.871 0 0 0-12.224-4v5.664h1.44v-.608h6.928v.608h1.44v-7.728h-7.76c.208-.256.416-.528.64-.8H-.9v-1.344h-7.74c.16-.256.3-.528.464-.8h6.352v-1.3h-5.744q.168-.432.336-.912a42.4 42.4 0 0 0 5.312-.72l-.7-1.2a61.528 61.528 0 0 1-11.392.9l.432 1.248c1.728 0 3.36-.048 4.864-.128-.112.272-.224.544-.352.816zm3.328 7.408h6.928v.752h-6.928zm6.928-1.152h-6.928v-.784h6.928zm-6.928 3.06h6.928v.816h-6.928zM1.072-12.576v1.424h6.176v1.1H2.4v6.576h4.592A5.555 5.555 0 0 1 6.3-1.824a14 14 0 0 1-2.24-1.424l-1.168.8A14.869 14.869 0 0 0 5.248-.832 10.3 10.3 0 0 1 .64.288L1.3 1.68A11 11 0 0 0 6.736-.1a22.944 22.944 0 0 0 8.352 1.8l.384-1.476A23.3 23.3 0 0 1 7.712-1.2a6.617 6.617 0 0 0 .816-2.272h5.12v-6.576h-4.9v-1.1h6.192v-1.424zM12.144-4.8H8.7a9.269 9.269 0 0 0 .048-.976v-.384h3.392zM7.2-4.8H3.9v-1.36h3.348v.384c0 .32-.016.656-.048.976zM3.9-7.408v-1.344h3.348v1.344zm4.852-1.344h3.392v1.344H8.752zM23.776-13.2a11.209 11.209 0 0 1-6.336 2.976l.9 1.392a14.792 14.792 0 0 0 4.38-1.648h4.3a8.266 8.266 0 0 1-3.488 2.64 21.069 21.069 0 0 0-1.52-1.632l-1.312.624a15.69 15.69 0 0 1 1.412 1.488 17.766 17.766 0 0 1-3.6.544l.64 1.376c4.688-.384 7.888-2.128 9.616-5.2v-1.184H24.5c.208-.208.416-.432.64-.672zm-.256 10-1.344.64a16.586 16.586 0 0 1 1.536 1.744 21.082 21.082 0 0 1-6.24.816l.608 1.456q9.36-.24 12.784-5.856v-1.184h-4.08a9.249 9.249 0 0 0 .928-.848l-1.3-.7c-1.632 1.728-4.208 2.752-7.7 3.088l.912 1.36a21.8 21.8 0 0 0 4.9-1.52h4.384a9.622 9.622 0 0 1-3.76 2.848A19.989 19.989 0 0 0 23.52-3.2zM-32 3h64v1h-64z" transform="translate(2395.094 -20194)"/>
            </g>
        </g>
        <path id="패스_10764" data-name="패스 10764" class="cls-7" d="M48.361 24.664c-1.944-.768-3.768-1.416-5.544-1.944a13.3 13.3 0 0 0 2.544-2.928h3.216v-2.016h-9.768c.24-.336.5-.72.744-1.128h1.08v-2.52l-.192-.984a20.709 20.709 0 0 0 7.488 3.96l.984-2.136a21.355 21.355 0 0 1-7.32-3.192v-.024l2.448.24h4.368V9.928h-7.776V8.464c2.352-.216 4.632-.48 6.6-.864l-1.464-1.8a80.313 80.313 0 0 1-14.232 1.128l.7 2.04c1.8-.048 3.816-.144 5.9-.312v1.272h-7.68v2.064H34.9l2.28-.24v.072a21.1 21.1 0 0 1-7.248 3.36l.984 2.112a23.4 23.4 0 0 0 7.344-3.96l-.12.912v1.584l-.864-.168a16.23 16.23 0 0 1-1.3 2.112h-5.663v2.016h4.176a32.422 32.422 0 0 1-2.016 2.256c1.824.408 3.528.816 5.208 1.224a26.774 26.774 0 0 1-7.608 1.152L31.1 26.56c3.336-.312 6.72-.744 9.648-2.4a46.12 46.12 0 0 1 6.072 2.4zm-12.072-3.648a13.2 13.2 0 0 0 1.032-1.224h5.256A9.108 9.108 0 0 1 40.273 22c-1.32-.336-2.664-.672-3.984-.984zm21.168-6.48-1.992.744v-3.24H57.5V9.784h-2.04V5.8h-2.443v3.984h-2.352v2.256h2.352v4.1a31.53 31.53 0 0 1-2.616.768l.6 2.5c.672-.24 1.32-.5 2.016-.744v4.608c0 .456-.1.624-.7.624h-.24a11.273 11.273 0 0 1-1.584-.144l.48 2.424a15.1 15.1 0 0 0 1.752.1c2.112 0 2.736-.912 2.736-2.448v-6.172a34.84 34.84 0 0 0 1.632-.672l.072.96 3.672-.7v7.036c0 1.584 1.488 1.848 4.32 1.848 2.616 0 3.5-.288 4.008-1.08a11.537 11.537 0 0 0 .744-3.888l-2.324-.86a8.008 8.008 0 0 1-.336 3.048c-.168.336-.6.48-1.968.48-1.44 0-1.968-.1-1.968-.672v-6.388l6.456-1.268-.312-2.328-6.144 1.224V9.544A38.829 38.829 0 0 0 68.5 7.792l-1.536-1.92a36.393 36.393 0 0 1-9.864 2.52l.864 2.28c.96-.168 1.9-.336 2.88-.552v4.78l-3.384.624zm22.46 4.075h3.671c-.05 2.138-1.5 3.5-3.9 3.5-2.71 0-4.442-2.022-4.442-5.61 0-3.564 1.782-5.577 4.4-5.577a3.488 3.488 0 0 1 3.6 2.577h3.588c-.472-3.348-3.423-5.7-7.251-5.7-4.475 0-7.914 3.232-7.914 8.735 0 5.37 3.224 8.7 7.989 8.7 4.276 0 7.334-2.71 7.334-7.169v-2.125h-7.075zM100.4 25v-2.917h-7.3V8.028h-3.52V25zm2.271-16.972V25h3.529v-5.528h3.05c3.9 0 6.149-2.337 6.149-5.71 0-3.356-2.213-5.735-6.075-5.735zm3.522 8.6V10.92h2.47c2.1 0 3.108 1.135 3.108 2.843s-1.011 2.867-3.1 2.867zm28.075 3.426v.456a23.134 23.134 0 0 1-.192 2.544c-.072.552-.1.648-.672.648-.5 0-.6-.216-.6-.84V6.544h-7.416v5.4c0 7.152-.144 9.672-2.448 12.84l1.824 1.8c2.568-3.552 3-6.744 3-14.592v-3.24h2.664v15.192c0 1.584.456 2.088 2.976 2.088 1.512 0 2.16-.24 2.472-1.224a15.5 15.5 0 0 0 .5-3.84zm-12.024 6.528V19c0-.768-.048-2.088-.12-3.072a11.442 11.442 0 0 0 1.656 3.048l1.224-2.112a15.146 15.146 0 0 1-2.616-4.752h2.16V9.88h-2.3V5.752H119.9V9.88h-2.544v2.232h2.232a22.562 22.562 0 0 1-2.832 6.84l1.272 2.208a16.555 16.555 0 0 0 1.944-4.344A38.748 38.748 0 0 0 119.9 19v7.584zM149.175 5.32a21.278 21.278 0 0 1-2.88 8.208l1.632 2.112a21.692 21.692 0 0 0 2.4-4.776h6.648q-.072 10.692-.288 12.456c-.168 1.176-.768 1.776-1.824 1.776-.792 0-1.728-.048-2.808-.12l.576 2.232c1.248.072 2.112.12 2.64.12 2.184 0 3.408-1.008 3.7-2.976.24-2.016.36-7.272.36-15.816h-8.28c.24-.936.432-1.9.6-2.9zm-1.7 17.232c2.28-.48 4.32-.96 6.1-1.488.192.624.36 1.3.552 1.992l2.184-1.008a43.66 43.66 0 0 0-2.112-5.9l-2.064.72c.288.72.576 1.512.864 2.352-.888.192-1.848.408-2.9.648q1.008-2.016 2.592-6.12l-2.208-.816c-1.656 4.656-2.808 7.176-3.456 7.536zM143.9 16.1c.5.744 1.08 1.632 1.728 2.688l1.44-2.136a55.833 55.833 0 0 0-3.168-3.432v-1.08h2.664V9.712H143.9V5.3h-2.472v4.412h-3.192v2.424h3.024a20.451 20.451 0 0 1-3.5 7.224l1.08 2.784a31.922 31.922 0 0 0 2.592-5.472v10.752h2.468zm28.464-6.384v2.424h6.648v11.78q0 1.224-1.368 1.224c-1.032 0-2.112-.072-3.264-.168l.552 2.448h3.568q3.024 0 3.024-2.88V12.136h2.4V9.712h-2.4V5.248h-2.52v4.464zm-8.184 1.752-1.7 1.608c1.632 1.824 3.1 3.576 4.392 5.3a18.727 18.727 0 0 1-5.016 5.52l1.44 2.16a25.006 25.006 0 0 0 5.016-5.64 39.67 39.67 0 0 1 1.92 3.048l1.872-1.872a52.329 52.329 0 0 0-2.5-3.576 21.406 21.406 0 0 0 1.848-8.736V7.456h-8.52V9.88h6.336a19.951 19.951 0 0 1-1.248 6.072 94.057 94.057 0 0 0-3.845-4.488zm9.936 2.928-1.92 1.392a37.612 37.612 0 0 1 3.5 5.088l1.968-1.392a38.68 38.68 0 0 0-3.553-5.092zm12.48-8.064v2.444h10.176c-2.112 4.128-5.76 7.632-10.944 10.56l1.656 2.184a35.253 35.253 0 0 0 8.184-6.624v12.648h2.592V11.368a26.705 26.705 0 0 0 1.368-2.592h7.7V6.328zm14.683 6.568-1.8 1.728a41.16 41.16 0 0 1 6.576 6.528l1.968-1.992a49.382 49.382 0 0 0-6.744-6.264zm12.192-6.86v8.712h6.744v9.384c-.288-.1-.552-.168-.792-.264a7.689 7.689 0 0 1-3.528-3.744 37.736 37.736 0 0 0 .936-3.7L214.383 16a19.8 19.8 0 0 1-4.3 9.672l1.584 2.016a18.713 18.713 0 0 0 3.36-5.208 7.976 7.976 0 0 0 3.312 3.456c1.56.744 4.464 1.128 8.736 1.152 1.2.024 2.568.048 4.08.048l.72-2.472q-2.016.144-4.968.144a35.486 35.486 0 0 1-4.176-.216V20.44h7.752v-2.448h-7.752v-3.24h6.336V6.04zm13.056 6.36h-10.536V8.44h10.536zm16.44-3.216h-3.648a22.114 22.114 0 0 0 1.056-3.624l-2.52-.336a21.637 21.637 0 0 1-.936 3.96h-2.3V26.7h2.4v-1.9h3.552V26h2.4zM237.015 22.5v-4.532h3.552V22.5zm0-6.768v-4.2h3.552v4.2zm10.32-.72-2.04 1.272a43.7 43.7 0 0 1 3.576 5.256l2.016-1.392a41.222 41.222 0 0 0-3.552-5.132zm7.992-5.832h-7.3a31.576 31.576 0 0 0 .912-3.672l-2.468-.308a20.443 20.443 0 0 1-3.216 8.328l1.512 1.992a19.329 19.329 0 0 0 2.3-3.888h5.808c-.048 6.792-.12 10.752-.264 11.9a1.436 1.436 0 0 1-1.512 1.416c-.792 0-1.728-.048-2.784-.12l.6 2.28q1.872.144 2.592.144 3.1 0 3.456-2.52.364-2.948.364-15.548zm12.528 7.944v6.12l-2.088.288.624 2.4a70.343 70.343 0 0 0 6.672-1.488V22.12c-.912.24-1.824.48-2.76.672v-5.664h1.997V14.8h-6.408v2.328zm9.48 10.224c1.152 0 2.184-1.776 3.048-5.28l-1.968-1.584c-.384 2.688-.744 4.056-1.08 4.128-.6-.144-1.128-1.584-1.608-4.32a77.044 77.044 0 0 1-.624-8.52h4.44V9.328h-4.488c-.048-1.3-.048-2.664-.048-4.128h-2.448c0 1.416 0 2.784.048 4.128h-7.272v2.448h7.344a75.066 75.066 0 0 0 .576 7.68 18.67 18.67 0 0 0 1.7 5.976c.676 1.268 1.468 1.92 2.38 1.92zM277 5.176l-1.7 1.08a24.857 24.857 0 0 1 2.28 3l1.728-1.2A28.545 28.545 0 0 0 277 5.176zm-15.768.264-1.776 1.728A22.566 22.566 0 0 1 263.2 10.7l1.7-1.752a30.553 30.553 0 0 0-3.669-3.508zm-3.408 6.936v2.4h3.144v8.568a1.548 1.548 0 0 1-.648 1.248l.96 2.256a32.179 32.179 0 0 0 4.3-3.84l-.648-2.64a88.436 88.436 0 0 0-1.56 1.656v-9.648zm35.832.6v1.3h6.888V12.88a22.076 22.076 0 0 0 2.448 2.208L304.359 13a18.352 18.352 0 0 1-6.1-7.7h-2.208a19.364 19.364 0 0 1-6.072 7.776l1.32 2.016a19.269 19.269 0 0 0 2.356-2.116zm6.144-.96h-5.3a23.954 23.954 0 0 0 2.664-4.272 17.565 17.565 0 0 0 2.636 4.272zm-9.12 12.336v2.4h13.344v-2.4h-3.288a59.552 59.552 0 0 0 2.256-8.4l-2.4-.624a70.086 70.086 0 0 1-2.208 9.024zm2.784-8.328-2.136.744a53.071 53.071 0 0 1 1.944 6.528l2.136-.5a55.46 55.46 0 0 0-1.945-6.772zm3.7-.744-2.136.7a56.4 56.4 0 0 1 1.56 6.312l2.136-.5a59.239 59.239 0 0 0-1.565-6.512zm-9.408-6.864-1.008 7.632h-2.136l.912-6.24-2.28-.12-1.128 8.568h6.024a28.335 28.335 0 0 1-.336 5.856c-.216.648-.84.984-1.872.984a15.326 15.326 0 0 1-1.752-.192l.672 2.208c.552.048 1.08.1 1.608.1 1.632 0 2.712-.456 3.216-1.32s.768-4.152.768-9.84H289.1l1.128-9.888h-8.016v2.252zm-.528 11.3a36.131 36.131 0 0 1-5.616 1.3l.312 2.352a31.991 31.991 0 0 0 5.3-1.416zm34.632-7.536a23.246 23.246 0 0 1-7.68 10.176l1.368 2.256a26.216 26.216 0 0 0 7.176-9.864v9.292c0 .624-.264.936-.768.936a21.06 21.06 0 0 1-2.4-.144l.576 2.424h2.712c1.584 0 2.376-.864 2.376-2.568v-12.5h2.472V9.76h-2.472V5.3h-2.5v4.46h-6.62v2.424zm-15.6-2.472v2.424h3.432a20.776 20.776 0 0 1-3.96 7.176l1.128 2.88a28.367 28.367 0 0 0 2.976-6.048v11.28h2.5V15.88c.6.816 1.3 1.8 2.088 2.976l1.44-2.184a48.4 48.4 0 0 0-3.528-3.5v-1.036h2.928V9.712h-2.928V5.3h-2.5v4.412zm25.992-2.448-2.064.672a34.325 34.325 0 0 1 1.392 4.848l1.92-.528a39.815 39.815 0 0 0-1.253-4.988zm5.88-.24a21.15 21.15 0 0 1-.864 4.992l1.848.6a19.017 19.017 0 0 0 1.1-5.3zm-7.992 6.456V15.9h3.84a17.885 17.885 0 0 1-4.224 5.5l1.056 2.616a24.972 24.972 0 0 0 3.36-5.136v8.568h2.52v-8.76c.552.816 1.2 1.848 1.92 3.048L340.1 19.5a45.988 45.988 0 0 0-3.408-3.168V15.9H340v-2.42h-3.312V5.368h-2.52v8.112zm16.944-8.088v13.66l-6.864 1.032.36 2.5 6.5-.984v5.856h2.472v-6.24l2.616-.384-.432-2.5-2.184.336V5.392zm-4.2 1.56-1.661 1.612a23.108 23.108 0 0 1 3.792 3.528l1.7-1.7a27.778 27.778 0 0 0-3.836-3.436zm-.576 5.64-1.68 1.584a23.688 23.688 0 0 1 3.744 3.624l1.7-1.728a28.336 28.336 0 0 0-3.772-3.476zm14.016-7.1-1.733 1.632a23.48 23.48 0 0 1 3.96 3.888l1.8-1.776a30.887 30.887 0 0 0-4.032-3.744zm13.656 21.624h5.5l.6-2.472q-.972.072-2.808.144c-1.248 0-2.448.024-3.648.024-1.824 0-3.432-.024-4.8-.048a7.6 7.6 0 0 1-3.12-.6 6.212 6.212 0 0 1-1.632-1.416l-.24-.24V13.36h-5.5v2.3h3.168v6.58a10.56 10.56 0 0 0-3.216 3.672l1.848 1.7c1.2-2.16 2.016-3.216 2.472-3.216.288 0 .576.192.888.6a5.147 5.147 0 0 0 2.472 1.656 17.753 17.753 0 0 0 3.792.408c1.507.028 2.923.052 4.219.052zm-8.3-18.288v2.328h2.544v1.632a19.362 19.362 0 0 1-.144 2.424h-3.24v2.352h2.76a7.39 7.39 0 0 1-2.664 4.056l1.512 1.992a10.356 10.356 0 0 0 3.624-6.048h3.6v6.384h2.448V17.56h3.528v-2.352h-3.528v-4.056h2.76V8.824h-2.76V5.3h-2.448v3.524h-3.024V5.248h-2.424v3.576zm4.968 2.328h3.024v4.056h-3.192a29.336 29.336 0 0 0 .168-3zM387 6.544v2.472h11.8V6.544zm-.576 5.952v2.472h7.176V24.4c0 .48-.336.72-.984.72-1.008 0-2.064-.072-3.168-.168L390 27.4h3.48q2.664 0 2.664-2.376V14.968h3.7V12.5zm-3.6-7.08a15.69 15.69 0 0 1-5.04 5.688l.768 2.52A18.964 18.964 0 0 0 385.1 6.5zm1.128 5.52a18.2 18.2 0 0 1-5.976 6.648l.768 2.472c.912-.648 1.8-1.32 2.616-1.992V27.5h2.472V15.6a18.663 18.663 0 0 0 2.376-3.6zm27.912 6.192v6.12l-2.088.288.624 2.4a70.343 70.343 0 0 0 6.672-1.488V22.12c-.912.24-1.824.48-2.76.672v-5.664h1.988V14.8h-6.408v2.328zm9.48 10.224c1.152 0 2.184-1.776 3.048-5.28l-1.968-1.584c-.384 2.688-.744 4.056-1.08 4.128-.6-.144-1.128-1.584-1.608-4.32a77.044 77.044 0 0 1-.624-8.52h4.44V9.328h-4.488c-.048-1.3-.048-2.664-.048-4.128h-2.448c0 1.416 0 2.784.048 4.128h-7.272v2.448h7.344a75.066 75.066 0 0 0 .576 7.68 18.67 18.67 0 0 0 1.7 5.976c.667 1.268 1.459 1.92 2.371 1.92zM421 5.176l-1.7 1.08a24.857 24.857 0 0 1 2.28 3l1.728-1.2A28.545 28.545 0 0 0 421 5.176zm-15.768.264-1.776 1.728A22.566 22.566 0 0 1 407.2 10.7l1.7-1.752a30.553 30.553 0 0 0-3.669-3.508zm-3.408 6.936v2.4h3.144v8.568a1.548 1.548 0 0 1-.648 1.248l.96 2.256a32.179 32.179 0 0 0 4.3-3.84l-.648-2.64a88.436 88.436 0 0 0-1.56 1.656v-9.648zm35.832.6v1.3h6.888V12.88a22.076 22.076 0 0 0 2.448 2.208L448.359 13a18.352 18.352 0 0 1-6.1-7.7h-2.208a19.364 19.364 0 0 1-6.072 7.776l1.32 2.016a19.269 19.269 0 0 0 2.356-2.116zm6.144-.96h-5.3a23.954 23.954 0 0 0 2.664-4.272 17.565 17.565 0 0 0 2.636 4.272zm-9.12 12.336v2.4h13.344v-2.4h-3.288a59.552 59.552 0 0 0 2.256-8.4l-2.4-.624a70.086 70.086 0 0 1-2.208 9.024zm2.784-8.328-2.136.744a53.071 53.071 0 0 1 1.944 6.528l2.136-.5a55.46 55.46 0 0 0-1.945-6.772zm3.7-.744-2.136.7a56.4 56.4 0 0 1 1.56 6.312l2.136-.5a59.239 59.239 0 0 0-1.565-6.512zm-9.408-6.864-1.008 7.632h-2.136l.912-6.24-2.28-.12-1.128 8.568h6.024a28.335 28.335 0 0 1-.336 5.856c-.216.648-.84.984-1.872.984a15.326 15.326 0 0 1-1.752-.192l.672 2.208c.552.048 1.08.1 1.608.1 1.632 0 2.712-.456 3.216-1.32s.768-4.152.768-9.84H433.1l1.128-9.888h-8.016v2.252zm-.528 11.3a36.131 36.131 0 0 1-5.616 1.3l.312 2.352a31.991 31.991 0 0 0 5.3-1.416z" transform="translate(30 33)"/>
    </g>
    <g id="fc_box_medium_long_link" transform="translate(684 330)">
        <g transform="translate(-684 -330)" style="filter:url(#box-3)">
            <g id="box-6" data-name="box" class="cls-2">
                <path class="cls-10" d="M0 0h538v164H0z" transform="translate(684 330)"/>
                <path class="cls-11" d="M1 1h536v162H1z" transform="translate(684 330)"/>
            </g>
        </g>
        <path id="패스_10761" data-name="패스 10761" class="cls-7" d="M96.032 17.392h2.28v2.448h-2.28zm-.168 4.584h2.448v5.088h2.28v-5.088h2.424v2.592a.463.463 0 0 1-.5.528 11.286 11.286 0 0 1-1.512-.12l.6 2.256h1.608c1.416 0 2.136-.624 2.136-1.848V10.768h-3.6a21.429 21.429 0 0 0 1.8-2.16V6.856H98c.192-.336.36-.672.552-1.056l-2.424-.552a17.813 17.813 0 0 1-4.536 5.9L93.128 13c.192-.168.408-.336.6-.528v7.3a10.9 10.9 0 0 1-1.68 6.048l1.824 1.632a12.314 12.314 0 0 0 1.992-5.476zm3.192-11.208h-3.672c.456-.576.912-1.176 1.368-1.824h3.864a20.509 20.509 0 0 1-1.56 1.824zm3.96 9.072h-2.424v-2.448h2.424zm0-4.608h-2.424v-2.28h2.424zm-4.7-2.28v2.28h-2.28v-2.28zM84.488 6.376v2.4h2.376A24.2 24.2 0 0 1 83.7 17.32l1.44 2.328c.288-.432.552-.864.84-1.32V26.7h2.352v-1.56h3.936V13.5h-4.1a34.053 34.053 0 0 0 1.152-4.728h3.4v-2.4zm3.84 16.488v-7.056h1.68v7.056zm33.336-17.4a53.857 53.857 0 0 1-1.008 11.208 16.1 16.1 0 0 1-5.328 8.64l1.7 2.088a17.668 17.668 0 0 0 6.1-10.224c.048-.192.072-.408.12-.624a34.057 34.057 0 0 0 5.352 10.776l1.824-2.088c-3.072-3.48-5.232-8.136-6.432-13.968.144-1.776.216-3.72.216-5.808zm-10.392-.024L109.5 7.168a21.972 21.972 0 0 1 3.936 3.528l1.728-1.752a33.621 33.621 0 0 0-3.892-3.504zm-3.336 6.936v2.4h3.288v8.28a1.614 1.614 0 0 1-.648 1.32l.96 2.232a36.971 36.971 0 0 0 4.992-3.864l-.672-2.568a38.475 38.475 0 0 1-2.208 1.992v-9.792zm39.984 8.712a19.675 19.675 0 0 0 4.728 6.36l1.68-1.992a16.3 16.3 0 0 1-5.712-8.04c.144-1.44.24-3.048.24-4.776h-2.328a32.177 32.177 0 0 1-.768 7.392 10.548 10.548 0 0 1-3.432 5.256v-1.824h-7.512v-2.208l1.3 1.608a20.6 20.6 0 0 0 3.072-4.2 54.29 54.29 0 0 1 1.968 3.912l1.7-1.728a72.955 72.955 0 0 0-2.472-4.68 33.3 33.3 0 0 0 1.8-6l-2.28-.36a31.359 31.359 0 0 1-1.008 3.864c-.72-1.1-1.44-2.232-2.208-3.336l-1.68 1.608a78.644 78.644 0 0 1 2.832 4.368 17.815 17.815 0 0 1-3.024 4.536V9.016h7.632v-2.3h-9.96v19.1h9.36l1.512 1.824a11.971 11.971 0 0 0 4.56-6.552zM144.68 5.44a19.381 19.381 0 0 1-2.9 8.952l2.016 1.44a13.774 13.774 0 0 0 2.232-4.728h4.92a27.277 27.277 0 0 1-1.3 4.32l2.4.7a50.51 50.51 0 0 0 1.44-5.76V8.776H146.6c.192-.912.336-1.9.48-2.952zm12.888.528v11.064h7.608V5.968zm5.3 8.928h-3v-2.448h3zm-3-4.512V8.128h3v2.256zm9.216.816h4.7v1.464h-4.7zm4.7-2.016h-4.7V7.768h4.7zm-4.872 5.5h4.872v.984c0 .576-.336.864-.984.864-.432 0-.912-.048-1.44-.1l.6 2.184h1.54c1.8 0 2.712-.72 2.712-2.112V5.656h-9.432v7.272a6.324 6.324 0 0 1-1.9 4.536l1.8 1.608a8.367 8.367 0 0 0 2.24-4.392zm6.6 4.488H158.48v5.688h-2.448v2.232h21.912v-2.236h-2.424zM160.9 24.856v-3.432h2.4v3.432zm4.824 0v-3.432h2.448v3.432zm4.872 0v-3.432h2.5v3.432zm29.88-10.368-1.44.48c0-1.68.024-3.552.024-5.64h-4.8v-3.84h-2.448v3.84h-3.792v2.448h3.792v.024c-.048 6.48-1.776 11.16-5.16 14.088l1.9 1.68q5.58-4.968 5.712-15.768v-.024h2.3c-.048 6.552-.12 10.368-.24 11.448-.164 1.176-.716 1.776-1.652 1.776a23.87 23.87 0 0 1-2.064-.12l.624 2.28c.888.1 1.512.144 1.9.144 2.136 0 3.336-.984 3.576-2.9.144-1.3.264-4.008.312-8.16a65.26 65.26 0 0 1 1.416 4.656l1.872-.864a53.617 53.617 0 0 0-1.828-5.548zm-12.264-.072a13.851 13.851 0 0 1-2.616 5.52l1.7 1.584a16.251 16.251 0 0 0 2.88-6.6zm-8.328-3.72v2.328h2.52V27.5h2.376V13.024h2.424V10.7h-2.424V5.44h-2.376v5.26zm37.224-5.568-1.9 1.368a46.233 46.233 0 0 1 3.264 5.112l1.968-1.368a41.029 41.029 0 0 0-3.328-5.112zm5.472 1.344a30.118 30.118 0 0 1-3.98 11.952 33.1 33.1 0 0 1-4.632-10.632l-2.136 1.224a38.437 38.437 0 0 0 5.28 11.472 18.4 18.4 0 0 1-6.5 4.944l1.368 2.16a20.484 20.484 0 0 0 6.768-5.04 22.785 22.785 0 0 0 6.216 5.04l1.488-2.184a20.307 20.307 0 0 1-6.192-4.848 31.829 31.829 0 0 0 4.7-13.584zm-15.24-1.008-1.748 1.656a21.8 21.8 0 0 1 3.84 3.576l1.728-1.752a32.5 32.5 0 0 0-3.816-3.48zm-3.408 6.912v2.4h3.312v8.3a1.551 1.551 0 0 1-.672 1.272l.96 2.28a37.16 37.16 0 0 0 4.68-3.792l-.7-2.64-1.9 1.824v-9.644zm26.544 3.216V27.52h2.472V11.7a31.475 31.475 0 0 0 2.256-5.5l-2.256-1.056a29.115 29.115 0 0 1-5.136 10.272l.768 2.5c.676-.764 1.3-1.532 1.9-2.324zm4.056-6.552v2.4h4.056a24.092 24.092 0 0 1-5.28 9.984l1.3 2.16a27.822 27.822 0 0 0 5.856-11.684v8.54h-3.216v2.4h3.216v4.68h2.472v-4.68h3.312v-2.4h-3.312v-8.568a31.154 31.154 0 0 0 5.592 11.428l1.632-2.064a25.474 25.474 0 0 1-5.376-9.792h4.416V9.04h-6.264V5.248h-2.472V9.04zm20.352 3.144v2.16h6.864v1.632h-9.528v2.16h14.688v1.7H253.64v2.184h13.272v2.5c0 .528-.336.792-.984.792-.96 0-1.968-.072-3.048-.168l.552 2.352h3.336c1.752 0 2.64-.792 2.64-2.376v-3.1h3.312v-2.18h-3.312v-1.7h4.344v-2.16h-9.5v-1.636h6.768v-2.16h-6.768v-1.128h-2.5v1.128zm3.24 10.08-2.016 1.272a24.349 24.349 0 0 1 2.832 3.288l1.968-1.368a28.417 28.417 0 0 0-2.78-3.192zM256.208 8.92h.264a20.231 20.231 0 0 1 1.584 2.688l2.256-.84a20.37 20.37 0 0 0-1.224-1.848h3.576V6.832H257.1c.144-.384.264-.768.408-1.2l-2.38-.532a15.493 15.493 0 0 1-2.928 5.352l2.184 1.368a17.532 17.532 0 0 0 1.824-2.9zm9.72-.072h.96a19.6 19.6 0 0 1 1.632 2.736l2.184-.84a16.2 16.2 0 0 0-1.2-1.9h3.648V6.76h-6.384c.12-.384.24-.768.36-1.176l-2.352-.5a13.461 13.461 0 0 1-2.16 4.56l2.088 1.272a18.739 18.739 0 0 0 1.224-2.068zM289.88 5.32V27.5h2.544V15.208c1.2 1.056 2.64 2.448 4.32 4.2l1.56-2.352a78.922 78.922 0 0 0-5.88-4.656V5.32zm-9 9.408-1.32 1.944a18.34 18.34 0 0 1 3.456 2.184 19.7 19.7 0 0 1-6.744 6.072L278 27.064a20.867 20.867 0 0 0 10.512-16.416V8.416h-5.64c.264-.864.5-1.752.72-2.688l-2.52-.432a18.813 18.813 0 0 1-5.4 10.008l1.728 2.16a19 19 0 0 0 4.584-6.624h4.08a21.059 21.059 0 0 1-1.9 6.024 18.845 18.845 0 0 0-3.284-2.136zm23.136-4.512-2.256.816a22.328 22.328 0 0 1 1.2 2.9h-2.86v2.4h12.1v-2.4h-2.448a21.605 21.605 0 0 0 1.272-3.048l-2.28-.792a28.949 28.949 0 0 1-1.44 3.84h-1.968a25.339 25.339 0 0 0-1.32-3.716zm9.072-4.176v21.408h2.424V8.344h3.312A58.162 58.162 0 0 1 316.5 14.7c1.872 2.184 2.832 3.96 2.856 5.328a5.965 5.965 0 0 1-.168 1.584.89.89 0 0 1-.792.432c-.648 0-1.44-.072-2.376-.168l.792 2.64c2.04 0 3.408-.336 4.08-.984a5.057 5.057 0 0 0 .96-3.5c-.024-1.392-.912-3.168-2.688-5.328a71.575 71.575 0 0 0 2.424-6.792V6.04zM300.56 7.384v2.4h11.424v-2.4H307.3a50.633 50.633 0 0 0-.576-2.256l-2.568.432c.24.552.456 1.152.672 1.824zm10.752 10.536h-9.96v9.528h2.448v-1.176h5.016v1.176h2.5zM303.8 23.9v-3.6h5.016v3.6zm29.952-3.936v-8.836H327.7V9.016a19.74 19.74 0 0 0 6.24-1.824l-1.656-1.9a18.681 18.681 0 0 1-6.816 1.9v10.224a19.638 19.638 0 0 1-1.752 8.232l1.752 1.824a22.005 22.005 0 0 0 2.088-7.512zm-6.052-6.388h3.768v4.1H327.7zm9.816 1.272h3.6V27.5h2.472V14.848h2.472v-2.424h-8.54L337.5 8.9a27.641 27.641 0 0 0 7.8-1.464l-1.272-2.184a26.848 26.848 0 0 1-8.784 1.584V18.04a19.605 19.605 0 0 1-1.608 8.4l2.28 1.128c1.032-2.136 1.56-5.3 1.608-9.528zm18.288-.48h8.736v1.92h-8.736zm8.736 4.08v1.872h-8.736v-1.872zm0 4.032v1.944q0 .792-.864.792c-.768 0-1.608-.048-2.5-.12l.6 2.256h2.688c1.608-.048 2.424-.744 2.424-2.136V12.208h-10.84c.408-.7.792-1.392 1.176-2.112h12.5V7.672H358.28c.264-.72.5-1.464.744-2.232l-2.568-.312a24.913 24.913 0 0 1-.936 2.544h-6.984V10.1h5.784a25.676 25.676 0 0 1-6.432 7.32l1.632 2.136a32.791 32.791 0 0 0 3.936-3.792v11.708h2.352V22.48zm9.48-16.92-1.248 1.848a17.248 17.248 0 0 1 3.864 1.848l1.344-2.016a21.125 21.125 0 0 0-3.956-1.68zm7.152-.384a8.07 8.07 0 0 1-3 4.08l1.488 1.944a12.941 12.941 0 0 0 2.208-2.232h2.4a5.432 5.432 0 0 1-1.56 2.52 11.2 11.2 0 0 1-4.824 1.92l.936 2.232c2.76-.648 4.7-1.536 5.808-2.688.216-.24.432-.5.672-.792 1.512 1.728 3.936 2.928 7.3 3.624l.888-2.184c-3.5-.624-5.88-1.776-7.152-3.408.12-.384.24-.792.336-1.224h3.24a10.889 10.889 0 0 1-.864 2.064l2.4.72a27.3 27.3 0 0 0 1.032-3.48V6.784h-9.336a10.387 10.387 0 0 0 .5-1.3zM390.9 15.9h-15.84v7.464h2.5v-5.132h10.824v4.848h2.52zm-9 2.88c-.168 2.256-.768 3.864-1.824 4.8q-1.8 1.4-7.416 1.656l1.008 2.28c4.536-.384 7.392-1.2 8.568-2.472 1.1-.96 1.848-3 2.184-6.072zm-4.944-8.592a23.1 23.1 0 0 1-4.656 3.12l1.632 1.944a22.581 22.581 0 0 0 4.464-3.36zm7.872 12.7-1.272 1.9a46.493 46.493 0 0 1 8.4 2.928l1.344-2.088a54.009 54.009 0 0 0-8.476-2.74zm-232.576 39.72v-5.616c0-.888-.1-1.776-.144-2.592a8.624 8.624 0 0 0 1.8 2.616l1.248-2.208a12.365 12.365 0 0 1-2.52-3.384h2.448v-2.232h-2.832v-1.1l1.776.888a30.235 30.235 0 0 0 1.772-5.14l-2.016-.648a21.91 21.91 0 0 1-1.536 4.8v-6.216h-2.376v7.416h-3.264v2.232h2.9a19.5 19.5 0 0 1-3.328 5.976l1.248 2.328A19.068 19.068 0 0 0 150 55.216a17.6 17.6 0 0 0-.12 2.16v5.232zm11.16 0v-6.1l2.3-.624-.384-2.3-1.92.5V41.776h-2.5v12.96l-6.5 1.656.5 2.352 6-1.584v5.448zm-13.728-14.424a28.816 28.816 0 0 0-1.368-4.9l-1.92.792a32.855 32.855 0 0 1 1.272 4.872zm10.248 3.96a21.126 21.126 0 0 0-3.264-3.072l-1.56 1.656a19.7 19.7 0 0 1 3.192 3.264zm.6-5.52a21.063 21.063 0 0 0-3.264-3.072l-1.56 1.584a22.829 22.829 0 0 1 3.216 3.24zm25.32 7.128V51.64H167.18v2.112h8.232v5.76a5.942 5.942 0 0 1-3.144-1.8 20.072 20.072 0 0 0 1.032-3l-2.472-.672a12.248 12.248 0 0 1-3.84 6.816l1.7 1.776a13.755 13.755 0 0 0 2.544-2.928 7.233 7.233 0 0 0 4.656 2.256 41.486 41.486 0 0 0 4.512.216c1.728 0 3.6-.1 5.28-.192l.768-2.472c-2.136.192-4.512.336-6.624.336-.672 0-1.272-.024-1.872-.048v-2.256h6.168v-2.112h-6.168v-1.68zm-2.616-3.288v-7.872h-13.464v7.872zm-10.848-5.976h8.256v1.176h-8.256zm0 2.9h8.256v1.176h-8.256zm32.688 15V53.32h-15.048v9.288h2.5v-1.2h10.1v.984zm-6.408-9.576V48.3a51.568 51.568 0 0 1 6.72 4.056l1.512-1.992a69.65 69.65 0 0 0-6.984-3.984l-1.248 1.776v-1.8c.432-.456.84-.96 1.224-1.44h6.432v-2.252h-17.472v2.256h7.948a22.232 22.232 0 0 1-8.76 5.64l1.2 2.208a28.217 28.217 0 0 0 6.96-4.056v4.1zm-6.144 2.788h10.1v3.48h-10.1zm27.72 2.928a31.208 31.208 0 0 0-3.624-2.208h6.048v3.216c0 .408-.12.528-.816.528a9.642 9.642 0 0 1-2.088-.216l.552 2.376a16.545 16.545 0 0 0 2.016.12c2.184 0 2.784-.552 2.784-2.016V56.32h2.856v-1.992h-2.856v-.984h2.064v-1.968h-12.048v1.968h7.536v.984H214.1v1.992h2.376l-1.276 1.752a30.782 30.782 0 0 1 3.7 2.448zm6.144-8.112v-7.872h-10.344v7.872zm-13.224 12.24v-10.92c.84-1.2 1.608-2.544 2.448-4.032l-2.16-1.224a19.88 19.88 0 0 1-4.992 6.768l1.224 2.256c.408-.336.792-.7 1.176-1.056l-.168 2.04v6.168zm.048-21.144a17.511 17.511 0 0 1-4.728 4.968l1.32 2.16a29.982 29.982 0 0 0 5.5-5.856zm5.208 5.712h5.568v1.248h-5.568zm0-2.784h5.568v1.2h-5.568zm23.568 6.552a48.053 48.053 0 0 0-3.216-5.544l-2.04 1.032c.48.72.936 1.416 1.368 2.16-1.3.144-2.664.312-4.032.432a41.616 41.616 0 0 0 1.608-4.3h5.472V42.64h-11.112v2.136h3.24a35.013 35.013 0 0 1-1.824 4.536c-.6.048-1.2.1-1.752.12l.456 2.3c3.024-.384 6.216-.72 9-1.176l.816 1.632zm-.48 7.56c-1.392.24-2.976.408-4.608.6V56.1h3.792v-2.084H236.9V51.5h-2.448v2.52h-3.888v2.08h3.888v3.312c-1.656.192-3.288.312-4.728.432l.456 2.3c3.912-.456 8.328-1.056 11.448-1.632zm6.792-16.8h-2.352v17.472c0 .528-.24.792-.936.792a20.021 20.021 0 0 1-2.3-.216l.624 2.4c.7.048 1.224.1 1.968.1 2.184 0 3-.816 3-2.592zM244.364 57.4V43.24h-2.28V57.4zm12.552-15.84c-.216.888-.48 1.776-.768 2.664h-4.992v2.256h4.128a23.939 23.939 0 0 1-4.824 7.152l1.54 2.136c.768-.792 1.416-1.56 2.088-2.376v9.24h2.5V57.64h7.608v1.56c0 .6-.336.7-.888.7a7.911 7.911 0 0 1-2.04-.192l.672 2.544a20.835 20.835 0 0 0 2.232.1c1.656 0 2.52-.648 2.52-2.328V48.28h-9.456c.264-.6.528-1.2.768-1.8h11.056v-2.256h-10.248l.648-2.184zm-.336 12.456h7.608v1.536h-7.608zm0-3.5h7.608v1.464h-7.608zm25.728-8.952a28.137 28.137 0 0 1-2.064 8.712 18.479 18.479 0 0 1-2.016-3.432l-1.9.864a23.261 23.261 0 0 0 1.632 3.144l-1.176-.48a21.174 21.174 0 0 1-.84 3.192c-.576-.672-1.2-1.416-1.872-2.136l-1.536 1.488a40.237 40.237 0 0 1 2.4 2.832 16.447 16.447 0 0 1-4.32 5.184l1.464 1.728a18.631 18.631 0 0 0 4.32-4.992 47.852 47.852 0 0 1 1.7 2.5l1.68-1.608-2.28-3.048a32.383 32.383 0 0 0 1.248-3.432l.48.7.6-.72 1.2 1.752c.312-.528.6-1.032.888-1.632a19.847 19.847 0 0 0 1.776 4.3 15.1 15.1 0 0 1-5.424 4.32l1.464 1.9a16.139 16.139 0 0 0 5.3-4.1 18.71 18.71 0 0 0 4.08 3.912l1.32-2.16a15.133 15.133 0 0 1-4.032-3.72 20.37 20.37 0 0 0 2.2-9.072h1.392v-2.184h-5.9c.288-1.272.456-2.472.576-3.408zm-1.464 4.936v-2.108h-3.864V41.7h-2.328v2.688h-3.864V46.5zm2.76 1.056h2.76a19.72 19.72 0 0 1-1.368 6.7 21.153 21.153 0 0 1-1.8-5.328c.168-.456.288-.936.404-1.368zm-10.584-.72a14.569 14.569 0 0 1-2.448 4.968l1.416 1.752a22.476 22.476 0 0 0 3.1-5.832zm25.824 15.768V55.5c0-.936-.024-1.848-.12-2.976a14.438 14.438 0 0 0 2.856 3.864l1.056-2.448a15.346 15.346 0 0 1-3.528-4.224h3.576v-2.228h-3.84v-2.64a35.88 35.88 0 0 0 3.648-1.248l-1.416-1.848a32.935 32.935 0 0 1-8.688 2.088l.864 2.136c1.008-.168 2.064-.312 3.144-.552v2.064h-3.984v2.232h3.552a22.38 22.38 0 0 1-4.008 6.7l1.224 2.52a24.915 24.915 0 0 0 3.264-5.664c-.044 1.024-.044 1.824-.044 2.684v6.648zM310.6 41.752h-2.4v17.52c0 .552-.192.72-.816.72a18.244 18.244 0 0 1-2.352-.192l.528 2.448c.744.048 1.392.1 2.064.1 2.064 0 2.976-.792 2.976-2.544zm-4.848 15.984V43.288h-2.328v14.448zm18.312 4.3V55.6h4.44v3.672c0 .552-.36.648-.984.648a9.682 9.682 0 0 1-1.968-.192l.576 2.4c.7.072 1.824.12 2.376.12 1.752 0 2.448-.624 2.448-2.376V43.144H315.14V50.1a40.745 40.745 0 0 1-.288 6.5 10.735 10.735 0 0 1-1.752 4.52l2.016 1.488a12.913 12.913 0 0 0 2.136-5.592c.072-.432.12-.936.192-1.416h4.176v6.432zm0-11.52h4.44v2.924h-4.44zm4.44-5.136v2.92h-4.44v-2.924zm-10.92 5.136h4.032v2.924h-4.08c.028-.94.052-1.92.052-2.928zm0-5.136h4.032v2.92h-4.032z" transform="translate(30 32)"/>
        <g id="fc_textlink-3" data-name="fc_textlink" transform="translate(386 111)">
            <g id="stack-3" data-name="stack" transform="translate(-2524.094 20210)">
                <g id="ico_fc_pop_up-3" data-name="ico_fc_pop_up" transform="translate(2424.094 -20210)">
                    <g id="그룹_1025-3" data-name="그룹 1025" transform="translate(-1101.074 -1125)">
                        <g id="그룹_1026-3" data-name="그룹 1026" transform="translate(1108.074 1129)">
                            <path id="사각형_878-3" data-name="사각형 878" class="cls-4" d="M0 0h9v9H0z"/>
                        </g>
                        <path id="패스_6896-3" data-name="패스 6896" class="cls-5" d="M1104.574 1132.941v9h9" transform="translate(.5 -.941)"/>
                    </g>
                </g>
                <path id="패스_10762" data-name="패스 10762" class="cls-6" d="M-28.864-7.184v6.048h9.792v-6.048zm8.32 4.7h-6.848v-1.004h6.848zm-6.848-2.288V-5.84h6.848v1.072zm-3.2-7.04v1.412h4.56a15.673 15.673 0 0 1-5.344 2.352l.816 1.348a13.56 13.56 0 0 0 5.86-3.668v2.7h1.472v-2.72a12.6 12.6 0 0 0 5.92 3.68l.656-1.376a13.57 13.57 0 0 1-5.216-2.32h4.528v-1.408h-5.888v-1.344H-24.7v1.344zm-.32 11.632v1.396h13.84V-.176zm16.8-10.128v1.3h4.336c-.16.256-.352.528-.544.8h-4.656v1.344h3.568a22.321 22.321 0 0 1-3.984 3.376l.816 1.3A26.871 26.871 0 0 0-12.224-4v5.664h1.44v-.608h6.928v.608h1.44v-7.728h-7.76c.208-.256.416-.528.64-.8H-.9v-1.344h-7.74c.16-.256.3-.528.464-.8h6.352v-1.3h-5.744q.168-.432.336-.912a42.4 42.4 0 0 0 5.312-.72l-.7-1.2a61.528 61.528 0 0 1-11.392.9l.432 1.248c1.728 0 3.36-.048 4.864-.128-.112.272-.224.544-.352.816zm3.328 7.408h6.928v.752h-6.928zm6.928-1.152h-6.928v-.784h6.928zm-6.928 3.06h6.928v.816h-6.928zM1.072-12.576v1.424h6.176v1.1H2.4v6.576h4.592A5.555 5.555 0 0 1 6.3-1.824a14 14 0 0 1-2.24-1.424l-1.168.8A14.869 14.869 0 0 0 5.248-.832 10.3 10.3 0 0 1 .64.288L1.3 1.68A11 11 0 0 0 6.736-.1a22.944 22.944 0 0 0 8.352 1.8l.384-1.476A23.3 23.3 0 0 1 7.712-1.2a6.617 6.617 0 0 0 .816-2.272h5.12v-6.576h-4.9v-1.1h6.192v-1.424zM12.144-4.8H8.7a9.269 9.269 0 0 0 .048-.976v-.384h3.392zM7.2-4.8H3.9v-1.36h3.348v.384c0 .32-.016.656-.048.976zM3.9-7.408v-1.344h3.348v1.344zm4.852-1.344h3.392v1.344H8.752zM23.776-13.2a11.209 11.209 0 0 1-6.336 2.976l.9 1.392a14.792 14.792 0 0 0 4.38-1.648h4.3a8.266 8.266 0 0 1-3.488 2.64 21.069 21.069 0 0 0-1.52-1.632l-1.312.624a15.69 15.69 0 0 1 1.412 1.488 17.766 17.766 0 0 1-3.6.544l.64 1.376c4.688-.384 7.888-2.128 9.616-5.2v-1.184H24.5c.208-.208.416-.432.64-.672zm-.256 10-1.344.64a16.586 16.586 0 0 1 1.536 1.744 21.082 21.082 0 0 1-6.24.816l.608 1.456q9.36-.24 12.784-5.856v-1.184h-4.08a9.249 9.249 0 0 0 .928-.848l-1.3-.7c-1.632 1.728-4.208 2.752-7.7 3.088l.912 1.36a21.8 21.8 0 0 0 4.9-1.52h4.384a9.622 9.622 0 0 1-3.76 2.848A19.989 19.989 0 0 0 23.52-3.2zM-32 3h64v1h-64z" transform="translate(2388.094 -20194)"/>
            </g>
        </g>
    </g>
    <path id="세로" class="cls-9" transform="translate(668 230)" d="M0 0h1v50H0z"/>
    <path id="사각형_1195" data-name="사각형 1195" class="cls-9" transform="translate(383 280)" d="M0 0h571v1H0z"/>
    <path id="세로-2" data-name="세로" class="cls-9" transform="translate(953 281)" d="M0 0h1v49H0z"/>
    <path id="세로-3" data-name="세로" class="cls-9" transform="translate(953 493)" d="M0 0h1v102H0z"/>
    <path id="세로-4" data-name="세로" class="cls-9" d="M0 0h1v312.5H0z" transform="translate(383 281)"/>
    <path id="사각형_1196" data-name="사각형 1196" class="cls-9" transform="translate(384 410)" d="M0 0h300v1H0z"/>
    <g id="fc_yes" transform="translate(904.864 532.784)">
        <path id="사각형_515" data-name="사각형 515" class="cls-1" d="M0 0h98.464v23.024H0z"/>
        <path id="패스_10763" data-name="패스 10763" class="cls-7" d="m-37.984-12.96-.832 1.232A11.5 11.5 0 0 1-36.24-10.5l.9-1.344a14.083 14.083 0 0 0-2.644-1.116zm4.768-.256a5.38 5.38 0 0 1-2 2.72l.992 1.3a8.627 8.627 0 0 0 1.472-1.488h1.6a3.621 3.621 0 0 1-1.04 1.68 7.464 7.464 0 0 1-3.216 1.28l.624 1.488a7.865 7.865 0 0 0 3.872-1.792c.144-.16.288-.336.448-.528A8.566 8.566 0 0 0-25.6-6.144l.592-1.456c-2.336-.416-3.92-1.184-4.768-2.272.08-.256.16-.528.224-.816h2.16a7.259 7.259 0 0 1-.576 1.376l1.6.48a18.2 18.2 0 0 0 .688-2.32v-.992h-6.22a6.922 6.922 0 0 0 .336-.864zm6.48 7.152H-37.3v4.976h1.664v-3.424h7.216v3.232h1.68zm-6 1.92a4.6 4.6 0 0 1-1.216 3.2q-1.2.936-4.944 1.1l.672 1.52C-35.2 1.424-33.3.88-32.512.032c.736-.64 1.232-2 1.456-4.048zm-3.3-5.728a15.4 15.4 0 0 1-3.1 2.08l1.088 1.3a15.054 15.054 0 0 0 2.976-2.24zm5.248 8.464-.848 1.264a31 31 0 0 1 5.6 1.952l.9-1.392a36.007 36.007 0 0 0-5.648-1.824zm8.976-10.416-1.376.448a22.884 22.884 0 0 1 .928 3.232l1.28-.352a26.542 26.542 0 0 0-.828-3.328zm3.92-.16a14.1 14.1 0 0 1-.576 3.328l1.232.4a12.678 12.678 0 0 0 .736-3.536zm-5.328 4.3v1.616h2.56A11.924 11.924 0 0 1-23.472-2.4l.7 1.744a16.648 16.648 0 0 0 2.24-3.424v5.712h1.68v-5.84c.368.544.8 1.232 1.28 2.032l.992-1.488a30.661 30.661 0 0 0-2.272-2.112v-.288h2.208V-7.68h-2.208v-5.408h-1.68v5.408zm11.3-5.392v9.1l-4.58.696.24 1.664 4.336-.656v3.9h1.648v-4.16l1.744-.256-.288-1.664-1.456.224v-8.848zm-2.8 1.04-1.1 1.072a15.406 15.406 0 0 1 2.52 2.356l1.136-1.136a18.517 18.517 0 0 0-2.556-2.288zm-.384 3.76-1.12 1.056a15.792 15.792 0 0 1 2.5 2.416l1.136-1.152A18.89 18.89 0 0 0-15.1-8.272zm8.192-4.176v1.632h6.784a17.45 17.45 0 0 1-7.3 7.04l1.1 1.456A23.5 23.5 0 0 0-.864-6.736V1.7H.864V-9.088a17.8 17.8 0 0 0 .912-1.728h5.136v-1.632zM2.88-8.064l-1.2 1.152A27.44 27.44 0 0 1 6.064-2.56l1.312-1.328A32.922 32.922 0 0 0 2.88-8.064zm8.128-4.576v5.808h4.5v6.256c-.192-.064-.368-.112-.528-.176a5.126 5.126 0 0 1-2.352-2.5 25.159 25.159 0 0 0 .624-2.464L11.616-6A13.2 13.2 0 0 1 8.752.448l1.056 1.344a12.475 12.475 0 0 0 2.24-3.472 5.317 5.317 0 0 0 2.208 2.3c1.04.5 2.976.752 5.824.768.8.016 1.712.032 2.72.032l.48-1.648q-1.344.1-3.312.1a23.658 23.658 0 0 1-2.784-.144V-3.04h5.168v-1.632h-5.168v-2.16h4.224v-5.808zm8.7 4.24h-7.02v-2.64h7.024zm10.352-3.68h-4.972V.368h1.632V-.976h1.744v.96h1.6zm-3.34 9.552V-5.84h1.744v3.312zm0-4.864v-3.168h1.744v3.168zm5.792.16-1.376.864a35.177 35.177 0 0 1 2.208 4l1.392-.96a34.9 34.9 0 0 0-2.224-3.904zm3.44 8.732A1.475 1.475 0 0 0 37.6-.176v-8.592h1.728v-1.616H37.6v-2.624h-1.7v2.624h-5.244v1.616H35.9v8.176c0 .384-.192.576-.544.576q-1.248 0-2.64-.1l.372 1.616z" transform="translate(49.136 17.216)"/>
    </g>
    <g id="fc_yes-2" data-name="fc_yes" transform="translate(460.576 268.752)">
        <path id="사각형_515-2" data-name="사각형 515" class="cls-1" d="M0 0h130.752v23.008H0z"/>
        <path id="패스_10758" data-name="패스 10758" class="cls-7" d="M-48.736-5.248v4.08l-1.392.192.416 1.6a46.895 46.895 0 0 0 4.448-.992V-1.92c-.608.16-1.216.32-1.84.448v-3.776h1.328V-6.8h-4.272v1.552zm6.32 6.816c.768 0 1.456-1.184 2.032-3.52L-41.7-3.008c-.256 1.792-.5 2.7-.72 2.752-.4-.1-.752-1.056-1.072-2.88a51.368 51.368 0 0 1-.416-5.68h2.96v-1.632h-2.992c-.032-.864-.032-1.776-.032-2.752H-45.6c0 .944 0 1.856.032 2.752h-4.848v1.632h4.9a50.042 50.042 0 0 0 .384 5.12A12.447 12.447 0 0 0-44 .288c.448.848.976 1.28 1.584 1.28zm-.224-14.784-1.136.72a16.572 16.572 0 0 1 1.52 2l1.152-.8a19.028 19.028 0 0 0-1.536-1.92zm-10.512.176-1.184 1.152a15.044 15.044 0 0 1 2.5 2.352L-50.7-10.7a20.369 20.369 0 0 0-2.452-2.34zm-2.272 4.624v1.6h2.1V-1.1a1.032 1.032 0 0 1-.432.832l.64 1.5a21.452 21.452 0 0 0 2.864-2.56l-.432-1.76c-.368.384-.72.752-1.04 1.1v-6.428zm23.888.4v.864h4.592v-.928a14.716 14.716 0 0 0 1.632 1.472L-24.4-8a12.235 12.235 0 0 1-4.064-5.136h-1.472a12.909 12.909 0 0 1-4.048 5.184l.88 1.344a12.847 12.847 0 0 0 1.568-1.408zm4.1-.64h-3.536A15.968 15.968 0 0 0-29.2-11.5a11.71 11.71 0 0 0 1.76 2.844zM-33.52-.432v1.6h8.9v-1.6h-2.192a39.7 39.7 0 0 0 1.5-5.6l-1.6-.416a46.724 46.724 0 0 1-1.472 6.016zm1.856-5.552-1.424.5a35.376 35.376 0 0 1 1.3 4.352l1.424-.336a36.974 36.974 0 0 0-1.3-4.516zm2.464-.5-1.424.464a37.6 37.6 0 0 1 1.04 4.208l1.424-.336A39.492 39.492 0 0 0-29.2-6.48zm-6.272-4.576-.672 5.088h-1.424l.608-4.16-1.52-.08-.752 5.712h4.016a18.89 18.89 0 0 1-.224 3.9c-.144.432-.56.656-1.248.656a10.218 10.218 0 0 1-1.168-.128l.448 1.472c.368.032.72.064 1.072.064a2.3 2.3 0 0 0 2.144-.88c.336-.576.512-2.768.512-6.56h-.9l.752-6.592h-5.344v1.5zm-.352 7.536a24.087 24.087 0 0 1-3.744.864l.208 1.568a21.327 21.327 0 0 0 3.536-.944zm14.352-6.608v7.056c-.608.16-1.248.336-1.92.5l.5 1.648a41.556 41.556 0 0 0 4.832-1.616v-1.664a47.5 47.5 0 0 1-1.712.624v-6.544h1.68v-1.632h-5.088v1.632zm3.824-2.512v1.632h3.68c-.064.416-.144.816-.24 1.216h-2.88v7.824h1.616v-6.284h4.624v6.288h1.632v-7.824h-3.344c.1-.384.176-.8.24-1.216h3.7v-1.632zM-11.6-2.112l-1.12 1.072a18.174 18.174 0 0 1 3.072 2.8l1.2-1.2A24.078 24.078 0 0 0-11.6-2.112zm-2.432-5.424v2.816a5.573 5.573 0 0 1-1.056 3.152A7.973 7.973 0 0 1-18.864.3l.912 1.424a8.37 8.37 0 0 0 4.144-2.24 7.093 7.093 0 0 0 1.44-4.208v-2.812zm19.7-4.992H-5.648V1.7h1.7V.736h7.932v.928h1.68zM-3.952-.88v-2.5h7.936v2.5zm0-4.016v-2.32h7.936V-4.9zm0-3.856v-2.176h7.936v2.176zm17.824 1.664H19.7v1.28h-5.828zm5.828 2.72v1.248h-5.828v-1.248zm0 2.688v1.3q0 .528-.576.528c-.512 0-1.072-.032-1.664-.08l.4 1.5h1.792c1.072-.032 1.616-.5 1.616-1.424v-8.672h-7.236c.272-.464.528-.928.784-1.408h8.336v-1.616H15.52c.176-.48.336-.976.5-1.488l-1.72-.208a16.61 16.61 0 0 1-.624 1.7H9.024v1.616h3.856a17.117 17.117 0 0 1-4.288 4.88l1.088 1.42A21.861 21.861 0 0 0 12.3-6.16v7.808h1.568V-1.68zm7.02-7.952a13.843 13.843 0 0 1-2.32 3.584l1.344.96a16.89 16.89 0 0 0 2.416-3.84zm4.224 3.2 1.1-1.088a18.148 18.148 0 0 0-2.176-2.224l-1.008.992a23.26 23.26 0 0 1 2.084 2.32zm-3.872.656-1.04 1.184c.608.5 1.2 1.04 1.808 1.632A9.719 9.719 0 0 1 24.432.08l1.04 1.52a11.133 11.133 0 0 0 3.6-3.312c.48.512.976 1.056 1.456 1.632L31.7-1.392a26.973 26.973 0 0 0-1.744-1.84 17.494 17.494 0 0 0 1.004-2.592l-1.46-.64a13.657 13.657 0 0 1-.816 2.048 32.407 32.407 0 0 0-1.612-1.36zm1.712-7.456-1.728.288a14.528 14.528 0 0 1 .7 1.312h-2.972v1.616h7.552v-1.616h-2.928a13.934 13.934 0 0 0-.624-1.6zM34.592-9.1h1.936A12.8 12.8 0 0 1 35.5-4.576a21.191 21.191 0 0 1-1.216-3.648c.1-.288.216-.592.308-.876zm.016 6.128a9.93 9.93 0 0 1-3.856 3.2L31.7 1.76a12.571 12.571 0 0 0 3.792-3.184 10.2 10.2 0 0 0 3.024 3.1L39.52.208a9.583 9.583 0 0 1-3.088-3.072A14.492 14.492 0 0 0 38.064-9.1h1.184v-1.632h-4.224c.16-.688.288-1.408.416-2.176l-1.648-.292a17.059 17.059 0 0 1-2.224 6.928l1.04 1.3c.256-.368.512-.768.752-1.184a21.276 21.276 0 0 0 1.248 3.18zm11.456-9.1h-4.976V.368h1.632V-.976h1.744v.96h1.6zM42.72-2.528V-5.84h1.744v3.312zm0-4.864v-3.168h1.744v3.168zm5.792.16-1.376.864a35.177 35.177 0 0 1 2.208 4l1.392-.96a34.9 34.9 0 0 0-2.224-3.904zm3.44 8.732A1.475 1.475 0 0 0 53.6-.176v-8.592h1.728v-1.616H53.6v-2.624h-1.7v2.624h-5.244v1.616H51.9v8.176c0 .384-.192.576-.544.576q-1.248 0-2.64-.1l.372 1.616z" transform="translate(65.424 17.248)"/>
    </g>
    <g id="fc_yes-3" data-name="fc_yes" transform="translate(764.864 268.784)">
        <path id="사각형_515-3" data-name="사각형 515" class="cls-1" d="M0 0h98.464v23.024H0z"/>
        <path id="패스_10760" data-name="패스 10760" class="cls-7" d="m-37.984-12.96-.832 1.232A11.5 11.5 0 0 1-36.24-10.5l.9-1.344a14.083 14.083 0 0 0-2.644-1.116zm4.768-.256a5.38 5.38 0 0 1-2 2.72l.992 1.3a8.627 8.627 0 0 0 1.472-1.488h1.6a3.621 3.621 0 0 1-1.04 1.68 7.464 7.464 0 0 1-3.216 1.28l.624 1.488a7.865 7.865 0 0 0 3.872-1.792c.144-.16.288-.336.448-.528A8.566 8.566 0 0 0-25.6-6.144l.592-1.456c-2.336-.416-3.92-1.184-4.768-2.272.08-.256.16-.528.224-.816h2.16a7.259 7.259 0 0 1-.576 1.376l1.6.48a18.2 18.2 0 0 0 .688-2.32v-.992h-6.22a6.922 6.922 0 0 0 .336-.864zm6.48 7.152H-37.3v4.976h1.664v-3.424h7.216v3.232h1.68zm-6 1.92a4.6 4.6 0 0 1-1.216 3.2q-1.2.936-4.944 1.1l.672 1.52C-35.2 1.424-33.3.88-32.512.032c.736-.64 1.232-2 1.456-4.048zm-3.3-5.728a15.4 15.4 0 0 1-3.1 2.08l1.088 1.3a15.054 15.054 0 0 0 2.976-2.24zm5.248 8.464-.848 1.264a31 31 0 0 1 5.6 1.952l.9-1.392a36.007 36.007 0 0 0-5.648-1.824zm8.976-10.416-1.376.448a22.884 22.884 0 0 1 .928 3.232l1.28-.352a26.542 26.542 0 0 0-.828-3.328zm3.92-.16a14.1 14.1 0 0 1-.576 3.328l1.232.4a12.678 12.678 0 0 0 .736-3.536zm-5.328 4.3v1.616h2.56A11.924 11.924 0 0 1-23.472-2.4l.7 1.744a16.648 16.648 0 0 0 2.24-3.424v5.712h1.68v-5.84c.368.544.8 1.232 1.28 2.032l.992-1.488a30.661 30.661 0 0 0-2.272-2.112v-.288h2.208V-7.68h-2.208v-5.408h-1.68v5.408zm11.3-5.392v9.1l-4.58.696.24 1.664 4.336-.656v3.9h1.648v-4.16l1.744-.256-.288-1.664-1.456.224v-8.848zm-2.8 1.04-1.1 1.072a15.406 15.406 0 0 1 2.52 2.356l1.136-1.136a18.517 18.517 0 0 0-2.556-2.288zm-.384 3.76-1.12 1.056a15.792 15.792 0 0 1 2.5 2.416l1.136-1.152A18.89 18.89 0 0 0-15.1-8.272zm8.192-4.176v1.632h6.784a17.45 17.45 0 0 1-7.3 7.04l1.1 1.456A23.5 23.5 0 0 0-.864-6.736V1.7H.864V-9.088a17.8 17.8 0 0 0 .912-1.728h5.136v-1.632zM2.88-8.064l-1.2 1.152A27.44 27.44 0 0 1 6.064-2.56l1.312-1.328A32.922 32.922 0 0 0 2.88-8.064zm8.128-4.576v5.808h4.5v6.256c-.192-.064-.368-.112-.528-.176a5.126 5.126 0 0 1-2.352-2.5 25.159 25.159 0 0 0 .624-2.464L11.616-6A13.2 13.2 0 0 1 8.752.448l1.056 1.344a12.475 12.475 0 0 0 2.24-3.472 5.317 5.317 0 0 0 2.208 2.3c1.04.5 2.976.752 5.824.768.8.016 1.712.032 2.72.032l.48-1.648q-1.344.1-3.312.1a23.658 23.658 0 0 1-2.784-.144V-3.04h5.168v-1.632h-5.168v-2.16h4.224v-5.808zm8.7 4.24h-7.02v-2.64h7.024zm10.352-3.68h-4.972V.368h1.632V-.976h1.744v.96h1.6zm-3.34 9.552V-5.84h1.744v3.312zm0-4.864v-3.168h1.744v3.168zm5.792.16-1.376.864a35.177 35.177 0 0 1 2.208 4l1.392-.96a34.9 34.9 0 0 0-2.224-3.904zm3.44 8.732A1.475 1.475 0 0 0 37.6-.176v-8.592h1.728v-1.616H37.6v-2.624h-1.7v2.624h-5.244v1.616H35.9v8.176c0 .384-.192.576-.544.576q-1.248 0-2.64-.1l.372 1.616z" transform="translate(49.136 17.216)"/>
    </g>
    <g id="fc_yes-4" data-name="fc_yes" transform="translate(461.024 398.752)">
        <path id="사각형_515-4" data-name="사각형 515" class="cls-1" d="M0 0h130.304v23.024H0z"/>
        <path id="패스_10759" data-name="패스 10759" class="cls-7" d="M-47.872-1.456a32.821 32.821 0 0 1 6.016 3.232l.928-1.456a37.169 37.169 0 0 0-6.032-2.992l.144-.256h5.648V-4.5h-4.976a13.086 13.086 0 0 0 .528-3.152v-1.98h-1.616v1.984A9.591 9.591 0 0 1-47.9-4.5h-6.912v1.568h6.032a2.735 2.735 0 0 0-.176.224C-49.984-1.52-52-.528-54.976.272l.912 1.408a13.058 13.058 0 0 0 6.192-3.136zm-4.592-6.064-.836 1.232a13.3 13.3 0 0 1 3.06 1.728l.864-1.328a15.716 15.716 0 0 0-3.088-1.632zm1.632-2.224-.832 1.232a12.528 12.528 0 0 1 2.992 1.7l.864-1.328a15.13 15.13 0 0 0-3.024-1.604zm9.584-2.064H-47.1c-.16-.512-.32-.992-.5-1.424l-1.712.288c.176.352.336.72.5 1.136h-5.968v3.376h1.632v-1.84h10.268v1.84h1.632zm9.712 3.792v.864h4.592v-.928a14.716 14.716 0 0 0 1.632 1.472L-24.4-8a12.235 12.235 0 0 1-4.064-5.136h-1.472a12.909 12.909 0 0 1-4.048 5.184l.88 1.344a12.847 12.847 0 0 0 1.568-1.408zm4.1-.64h-3.536A15.968 15.968 0 0 0-29.2-11.5a11.71 11.71 0 0 0 1.76 2.844zM-33.52-.432v1.6h8.9v-1.6h-2.192a39.7 39.7 0 0 0 1.5-5.6l-1.6-.416a46.724 46.724 0 0 1-1.472 6.016zm1.856-5.552-1.424.5a35.376 35.376 0 0 1 1.3 4.352l1.424-.336a36.974 36.974 0 0 0-1.3-4.516zm2.464-.5-1.424.464a37.6 37.6 0 0 1 1.04 4.208l1.424-.336A39.492 39.492 0 0 0-29.2-6.48zm-6.272-4.576-.672 5.088h-1.424l.608-4.16-1.52-.08-.752 5.712h4.016a18.89 18.89 0 0 1-.224 3.9c-.144.432-.56.656-1.248.656a10.218 10.218 0 0 1-1.168-.128l.448 1.472c.368.032.72.064 1.072.064a2.3 2.3 0 0 0 2.144-.88c.336-.576.512-2.768.512-6.56h-.9l.752-6.592h-5.344v1.5zm-.352 7.536a24.087 24.087 0 0 1-3.744.864l.208 1.568a21.327 21.327 0 0 0 3.536-.944zm14.352-6.608v7.056c-.608.16-1.248.336-1.92.5l.5 1.648a41.556 41.556 0 0 0 4.832-1.616v-1.664a47.5 47.5 0 0 1-1.712.624v-6.544h1.68v-1.632h-5.088v1.632zm3.824-2.512v1.632h3.68c-.064.416-.144.816-.24 1.216h-2.88v7.824h1.616v-6.284h4.624v6.288h1.632v-7.824h-3.344c.1-.384.176-.8.24-1.216h3.7v-1.632zM-11.6-2.112l-1.12 1.072a18.174 18.174 0 0 1 3.072 2.8l1.2-1.2A24.078 24.078 0 0 0-11.6-2.112zm-2.432-5.424v2.816a5.573 5.573 0 0 1-1.056 3.152A7.973 7.973 0 0 1-18.864.3l.912 1.424a8.37 8.37 0 0 0 4.144-2.24 7.093 7.093 0 0 0 1.44-4.208v-2.812zm19.7-4.992H-5.648V1.7h1.7V.736h7.932v.928h1.68zM-3.952-.88v-2.5h7.936v2.5zm0-4.016v-2.32h7.936V-4.9zm0-3.856v-2.176h7.936v2.176zm17.824 1.664H19.7v1.28h-5.828zm5.828 2.72v1.248h-5.828v-1.248zm0 2.688v1.3q0 .528-.576.528c-.512 0-1.072-.032-1.664-.08l.4 1.5h1.792c1.072-.032 1.616-.5 1.616-1.424v-8.672h-7.236c.272-.464.528-.928.784-1.408h8.336v-1.616H15.52c.176-.48.336-.976.5-1.488l-1.72-.208a16.61 16.61 0 0 1-.624 1.7H9.024v1.616h3.856a17.117 17.117 0 0 1-4.288 4.88l1.088 1.42A21.861 21.861 0 0 0 12.3-6.16v7.808h1.568V-1.68zm7.02-7.952a13.843 13.843 0 0 1-2.32 3.584l1.344.96a16.89 16.89 0 0 0 2.416-3.84zm4.224 3.2 1.1-1.088a18.148 18.148 0 0 0-2.176-2.224l-1.008.992a23.26 23.26 0 0 1 2.084 2.32zm-3.872.656-1.04 1.184c.608.5 1.2 1.04 1.808 1.632A9.719 9.719 0 0 1 24.432.08l1.04 1.52a11.133 11.133 0 0 0 3.6-3.312c.48.512.976 1.056 1.456 1.632L31.7-1.392a26.973 26.973 0 0 0-1.744-1.84 17.494 17.494 0 0 0 1.004-2.592l-1.46-.64a13.657 13.657 0 0 1-.816 2.048 32.407 32.407 0 0 0-1.612-1.36zm1.712-7.456-1.728.288a14.528 14.528 0 0 1 .7 1.312h-2.972v1.616h7.552v-1.616h-2.928a13.934 13.934 0 0 0-.624-1.6zM34.592-9.1h1.936A12.8 12.8 0 0 1 35.5-4.576a21.191 21.191 0 0 1-1.216-3.648c.1-.288.216-.592.308-.876zm.016 6.128a9.93 9.93 0 0 1-3.856 3.2L31.7 1.76a12.571 12.571 0 0 0 3.792-3.184 10.2 10.2 0 0 0 3.024 3.1L39.52.208a9.583 9.583 0 0 1-3.088-3.072A14.492 14.492 0 0 0 38.064-9.1h1.184v-1.632h-4.224c.16-.688.288-1.408.416-2.176l-1.648-.292a17.059 17.059 0 0 1-2.224 6.928l1.04 1.3c.256-.368.512-.768.752-1.184a21.276 21.276 0 0 0 1.248 3.18zm11.456-9.1h-4.976V.368h1.632V-.976h1.744v.96h1.6zM42.72-2.528V-5.84h1.744v3.312zm0-4.864v-3.168h1.744v3.168zm5.792.16-1.376.864a35.177 35.177 0 0 1 2.208 4l1.392-.96a34.9 34.9 0 0 0-2.224-3.904zm3.44 8.732A1.475 1.475 0 0 0 53.6-.176v-8.592h1.728v-1.616H53.6v-2.624h-1.7v2.624h-5.244v1.616H51.9v8.176c0 .384-.192.576-.544.576q-1.248 0-2.64-.1l.372 1.616z" transform="translate(64.976 17.248)"/>
    </g>
    <path id="다각형_179" data-name="다각형 179" class="cls-9" d="M7.5 0 15 11H0z" transform="rotate(180 480.5 168)"/>
    <path id="다각형_182" data-name="다각형 182" class="cls-9" d="M7.5 0 15 11H0z" transform="rotate(180 480.5 300)"/>
    <path id="다각형_183" data-name="다각형 183" class="cls-9" d="M7.5 0 15 11H0z" transform="rotate(180 195.5 300)"/>
</svg>
