<svg id="CHN_flow_chart_2_4" xmlns="http://www.w3.org/2000/svg" width="1336" height="1950" viewBox="0 0 1336 1950">
    <defs>
        <filter id="다각형_3" x="390" y="274" width="556" height="278" filterUnits="userSpaceOnUse">
            <feOffset dy="3"/>
            <feGaussianBlur stdDeviation="3" result="blur"/>
            <feFlood flood-color="#111" flood-opacity=".102"/>
            <feComposite operator="in" in2="blur"/>
            <feComposite in="SourceGraphic"/>
        </filter>
        <filter id="box" x="105" y="1174" width="1126" height="148" filterUnits="userSpaceOnUse">
            <feOffset dy="3"/>
            <feGaussianBlur stdDeviation="3" result="blur-2"/>
            <feFlood flood-color="#111" flood-opacity=".102"/>
            <feComposite operator="in" in2="blur-2"/>
            <feComposite in="SourceGraphic"/>
        </filter>
        <filter id="box-2" x="105" y="1354" width="1126" height="148" filterUnits="userSpaceOnUse">
            <feOffset dy="3"/>
            <feGaussianBlur stdDeviation="3" result="blur-3"/>
            <feFlood flood-color="#111" flood-opacity=".102"/>
            <feComposite operator="in" in2="blur-3"/>
            <feComposite in="SourceGraphic"/>
        </filter>
        <filter id="box-3" x="105" y="1534" width="1126" height="148" filterUnits="userSpaceOnUse">
            <feOffset dy="3"/>
            <feGaussianBlur stdDeviation="3" result="blur-4"/>
            <feFlood flood-color="#111" flood-opacity=".102"/>
            <feComposite operator="in" in2="blur-4"/>
            <feComposite in="SourceGraphic"/>
        </filter>
        <filter id="area" x="105" y="1714" width="1126" height="148" filterUnits="userSpaceOnUse">
            <feOffset dy="3"/>
            <feGaussianBlur stdDeviation="3" result="blur-5"/>
            <feFlood flood-color="#111" flood-opacity=".102"/>
            <feComposite operator="in" in2="blur-5"/>
            <feComposite in="SourceGraphic"/>
        </filter>
        <filter id="area-2" x="105" y="94" width="1126" height="148" filterUnits="userSpaceOnUse">
            <feOffset dy="3"/>
            <feGaussianBlur stdDeviation="3" result="blur-6"/>
            <feFlood flood-color="#111" flood-opacity=".102"/>
            <feComposite operator="in" in2="blur-6"/>
            <feComposite in="SourceGraphic"/>
        </filter>
        <filter id="box-4" x="675" y="994" width="556" height="148" filterUnits="userSpaceOnUse">
            <feOffset dy="3"/>
            <feGaussianBlur stdDeviation="3" result="blur-7"/>
            <feFlood flood-color="#111" flood-opacity=".102"/>
            <feComposite operator="in" in2="blur-7"/>
            <feComposite in="SourceGraphic"/>
        </filter>
        <filter id="box-5" x="675" y="814" width="556" height="148" filterUnits="userSpaceOnUse">
            <feOffset dy="3"/>
            <feGaussianBlur stdDeviation="3" result="blur-8"/>
            <feFlood flood-color="#111" flood-opacity=".102"/>
            <feComposite operator="in" in2="blur-8"/>
            <feComposite in="SourceGraphic"/>
        </filter>
        <filter id="box-6" x="675" y="634" width="556" height="148" filterUnits="userSpaceOnUse">
            <feOffset dy="3"/>
            <feGaussianBlur stdDeviation="3" result="blur-9"/>
            <feFlood flood-color="#111" flood-opacity=".102"/>
            <feComposite operator="in" in2="blur-9"/>
            <feComposite in="SourceGraphic"/>
        </filter>
        <filter id="box-7" x="105" y="994" width="556" height="148" filterUnits="userSpaceOnUse">
            <feOffset dy="3"/>
            <feGaussianBlur stdDeviation="3" result="blur-10"/>
            <feFlood flood-color="#111" flood-opacity=".102"/>
            <feComposite operator="in" in2="blur-10"/>
            <feComposite in="SourceGraphic"/>
        </filter>
        <style>
            .cls-1{fill:#f8f8f8}.cls-4{fill:#fff}.cls-3{fill:#333}.cls-4{stroke:#999;stroke-width:2px}.cls-5{fill:red;opacity:0}.cls-7{stroke:#326f5e;stroke-width:1.5px}.cls-13,.cls-7{fill:none}.cls-8{fill:#326f5e}.cls-9{fill:#999}.cls-11{stroke:none}
        </style>
    </defs>
    <path id="bg" class="cls-1" d="M0 0h1336v1950H0z"/>
    <g id="fc_boxes" transform="translate(-293 -947)">
        <g id="fc_diamond" transform="translate(692 1227)">
            <g transform="translate(-399 -280)" style="filter:url(#다각형_3)">
                <g id="다각형_3-2" data-name="다각형 3" style="fill:#fff">
                    <path class="cls-11" d="M269 258.89 2.298 130 269 1.11 535.702 130 269 258.89z" transform="translate(399 280)"/>
                    <path d="M269 2.221 4.596 130 269 257.779 533.404 130 269 2.221M269 0l269 130-269 130L0 130 269 0z" style="fill:#999;stroke:none" transform="translate(399 280)"/>
                </g>
            </g>
            <path id="패스_10709" data-name="패스 10709" class="cls-3" d="M93.884 6.232a9.77 9.77 0 0 1-1.872 2.184 25.848 25.848 0 0 1-1.44-2.424L88.7 7.168a26.4 26.4 0 0 0 3.192 4.9H86.2a19.625 19.625 0 0 0 2.688-4.416l-1.46-1.228h-6.816v2.184h5.208a10.533 10.533 0 0 1-1.584 2.328c-.912-.744-1.848-1.512-2.712-2.16l-1.512 1.632c.864.72 1.776 1.416 2.64 2.208a14.732 14.732 0 0 1-3.6 2.472l1.272 2.012a21.4 21.4 0 0 0 2.136-1.34v5.448h1.632c.312.84.576 1.656.792 2.376h-5.3v2.28h18.668v-2.28h-5.3c.24-.72.432-1.488.648-2.376h1.872V15.52a15.745 15.745 0 0 0 1.992 1.3l1.488-2.064a16.184 16.184 0 0 1-3.152-2.068 23.052 23.052 0 0 0 2.664-2.832l-1.82-1.464a28.006 28.006 0 0 1-2.424 2.784 7.382 7.382 0 0 1-.84-.936c.792-.768 1.56-1.632 2.352-2.544zm-8.736 7.1v.912h7.584v-1.172A19.784 19.784 0 0 0 95.42 15.5H82.748a18.766 18.766 0 0 0 2.4-2.164zm-.288 4.228h8.16v1.584h-8.16zm5.592 6.024H87.4c-.216-.744-.48-1.536-.72-2.376h4.42a30.986 30.986 0 0 1-.648 2.376zm32.328-2.832-2.5-.816a17.078 17.078 0 0 1-.432 3.48 1.426 1.426 0 0 1-1.536.96h-4.752a.965.965 0 0 1-1.008-1.08v-7.488h8.376v-9.6h-11.804v2.4h9.408v4.8h-8.424V24.3a2.108 2.108 0 0 0 2.352 2.424h6.264c1.536 0 2.52-.384 2.976-1.1a13.084 13.084 0 0 0 1.08-4.872zM103.652 5.44l-1.776 1.728a21.972 21.972 0 0 1 3.936 3.528l1.728-1.752a33.621 33.621 0 0 0-3.888-3.504zm-3.336 6.936v2.4h3.284V23.3a1.635 1.635 0 0 1-.648 1.3l.96 2.256a37.083 37.083 0 0 0 5.232-3.84l-.672-2.616a53.944 53.944 0 0 1-2.448 2.112V12.376zM128.54 5.2l-1.176 10.992h13.488c0 4.152-.264 6.672-.792 7.536-.48.816-1.992 1.224-4.488 1.224-.48 0-1.368-.072-2.616-.192l.7 2.28c.84.072 1.656.12 2.448.12 3 0 4.968-.528 5.88-1.536.912-1.08 1.392-4.992 1.392-11.76h-13.228l.336-3.192h14.184v-2.4h-13.944l.288-2.88zm-4.032 14.112v2.4h13.512v-2.4zm25.1-13.176v2.448h9.1q-3.276 3.456-10.3 5.976L150 16.624a33.94 33.94 0 0 0 8.136-4.488v5.448h2.5V9.832c.36-.408.7-.816 1.032-1.248h7.608V6.136zm18 12.024H151.2v9.264h2.544v-1.08h11.328v1.08h2.544zm-13.868 5.784V20.56h11.328v3.384zm9.456-13.8-1.68 1.632a39.687 39.687 0 0 1 6.84 4.944l1.824-1.82a48.834 48.834 0 0 0-6.98-4.756zm21.216 7.248h2.28v2.448h-2.28zm-.168 4.584h2.448v5.088h2.28v-5.088h2.428v2.592a.463.463 0 0 1-.5.528 11.286 11.286 0 0 1-1.512-.12l.6 2.256h1.608c1.416 0 2.136-.624 2.136-1.848V10.768h-3.6a21.431 21.431 0 0 0 1.8-2.16V6.856h-5.552c.192-.336.36-.672.552-1.056l-2.424-.552a17.813 17.813 0 0 1-4.536 5.9L181.508 13c.192-.168.408-.336.6-.528v7.3a10.9 10.9 0 0 1-1.68 6.048l1.824 1.632a12.314 12.314 0 0 0 1.992-5.476zm3.192-11.208h-3.672c.456-.576.912-1.176 1.368-1.824H189a20.509 20.509 0 0 1-1.564 1.824zm3.96 9.072h-2.424v-2.448h2.428zm0-4.608h-2.424v-2.28h2.428zm-4.7-2.28v2.28h-2.28v-2.28zm-13.828-6.576v2.4h2.376a24.2 24.2 0 0 1-3.168 8.544l1.44 2.328c.288-.432.552-.864.84-1.32V26.7h2.352v-1.56h3.936V13.5h-4.1a34.053 34.053 0 0 0 1.152-4.728h3.404v-2.4zm3.84 16.488v-7.056h1.68v7.056zm33.336-17.4a53.857 53.857 0 0 1-1.008 11.208 16.1 16.1 0 0 1-5.328 8.64l1.7 2.088a17.668 17.668 0 0 0 6.1-10.224c.048-.192.072-.408.12-.624a34.057 34.057 0 0 0 5.352 10.776l1.82-2.088c-3.072-3.48-5.232-8.136-6.432-13.968.144-1.776.216-3.72.216-5.808zm-10.392-.024-1.776 1.728a21.972 21.972 0 0 1 3.936 3.528l1.728-1.752a33.621 33.621 0 0 0-3.888-3.504zm-3.336 6.936v2.4h3.284v8.28a1.614 1.614 0 0 1-.648 1.32l.96 2.232a36.97 36.97 0 0 0 4.992-3.864l-.672-2.568a38.475 38.475 0 0 1-2.208 1.992v-9.792z" transform="translate(120 114)"/>
        </g>
        <g id="fc_box_big_no_btn" transform="translate(407 2127)">
            <g transform="translate(-114 -1180)" style="filter:url(#box)">
                <g id="box-8" data-name="box" class="cls-4">
                    <path class="cls-11" d="M0 0h1108v130H0z" transform="translate(114 1180)"/>
                    <path class="cls-13" d="M1 1h1106v128H1z" transform="translate(114 1180)"/>
                </g>
            </g>
            <path id="패스_10719" data-name="패스 10719" class="cls-3" d="M419.665 6.232a9.77 9.77 0 0 1-1.872 2.184 25.845 25.845 0 0 1-1.44-2.424l-1.872 1.176a26.4 26.4 0 0 0 3.192 4.9h-5.688a19.626 19.626 0 0 0 2.688-4.416l-1.464-1.224h-6.816v2.18h5.207a10.535 10.535 0 0 1-1.584 2.328c-.912-.744-1.848-1.512-2.712-2.16l-1.512 1.632c.864.72 1.776 1.416 2.64 2.208a14.733 14.733 0 0 1-3.6 2.472l1.272 2.016a21.4 21.4 0 0 0 2.136-1.344v5.448h1.632c.312.84.576 1.656.792 2.376h-5.3v2.28h18.672v-2.28h-5.3c.24-.72.432-1.488.648-2.376h1.872V15.52a15.746 15.746 0 0 0 1.992 1.3l1.488-2.064a16.185 16.185 0 0 1-3.144-2.064 23.052 23.052 0 0 0 2.664-2.832l-1.824-1.464a28 28 0 0 1-2.432 2.78 7.381 7.381 0 0 1-.84-.936c.792-.768 1.56-1.632 2.352-2.544zm-8.736 7.1v.912h7.584v-1.172A19.785 19.785 0 0 0 421.2 15.5h-12.671a18.767 18.767 0 0 0 2.4-2.164zm-.288 4.224h8.16v1.584h-8.16zm5.592 6.024h-3.048c-.216-.744-.48-1.536-.72-2.376h4.416c-.192.82-.408 1.636-.648 2.38zm32.328-2.832-2.5-.816a17.077 17.077 0 0 1-.432 3.48 1.426 1.426 0 0 1-1.536.96h-4.752a.965.965 0 0 1-1.008-1.08v-7.484h8.376v-9.6h-11.804v2.4h9.408v4.8h-8.424V24.3a2.108 2.108 0 0 0 2.352 2.424h6.264c1.536 0 2.52-.384 2.976-1.1a13.084 13.084 0 0 0 1.08-4.872zM429.433 5.44l-1.776 1.728a21.972 21.972 0 0 1 3.936 3.528l1.728-1.752a33.623 33.623 0 0 0-3.888-3.504zm-3.333 6.936v2.4h3.288V23.3a1.635 1.635 0 0 1-.648 1.3l.96 2.256a37.085 37.085 0 0 0 5.232-3.84l-.672-2.616a53.944 53.944 0 0 1-2.448 2.112V12.376zm33.84-6.984V8.7h-7.7v14.068h2.472v-1.392h5.232v6h2.544v-6h5.136V22.6h2.472V8.7h-7.608V5.392zm-5.232 13.632v-2.9h5.232v2.9zm7.776 0v-2.9h5.136v2.9zm-7.776-5.136v-2.856h5.232v2.856zm7.776 0v-2.856h5.136v2.856zM487.513 5.3v1.32h-5.52v2.012h5.52V9.64H483v1.968h4.512v1.032h-6.192v2.06h14.88v-2.06h-6.264v-1.032h4.848V9.64h-4.848V8.632h5.688V6.616h-5.688V5.3zm-2.184 15.456h6.864v1.176h-6.864zm6.864-1.872h-6.864v-1.2h6.864zm-6.864 4.944h6.864v.672c0 .5-.216.768-.648.768l-1.9-.1.6 2.184h1.992a2.078 2.078 0 0 0 2.352-2.328v-9.36h-11.612V27.5h2.352zm-7.9-18.36-1.776 1.7a21.958 21.958 0 0 1 3.936 3.5l1.728-1.728a31.489 31.489 0 0 0-3.884-3.476zm-3.408 6.912v2.4h3.192v8.472a1.743 1.743 0 0 1-.624 1.344l.936 2.256a37.466 37.466 0 0 0 4.536-3.816l-.672-2.64c-.6.624-1.176 1.224-1.752 1.776v-9.796zm40.032-.192a23.246 23.246 0 0 1-7.68 10.176l1.368 2.256a26.216 26.216 0 0 0 7.176-9.864v9.284c0 .624-.264.936-.768.936a21.06 21.06 0 0 1-2.4-.144l.576 2.424h2.712c1.584 0 2.376-.864 2.376-2.568v-12.5h2.472V9.76h-2.472V5.3h-2.5v4.46H508.3v2.424zm-15.6-2.472v2.424h3.432a20.776 20.776 0 0 1-3.96 7.176l1.128 2.88a28.367 28.367 0 0 0 2.976-6.048v11.28h2.5V15.88c.6.816 1.3 1.8 2.088 2.976l1.44-2.184a48.4 48.4 0 0 0-3.528-3.5v-1.036h2.928V9.712h-2.928V5.3h-2.5v4.412zm25.992-2.448-2.064.672a34.334 34.334 0 0 1 1.392 4.848l1.92-.528a39.815 39.815 0 0 0-1.244-4.996zm5.88-.24a21.154 21.154 0 0 1-.864 4.992l1.848.6a19.014 19.014 0 0 0 1.1-5.3zm-7.992 6.456V15.9h3.84a17.886 17.886 0 0 1-4.224 5.5l1.056 2.616a24.974 24.974 0 0 0 3.36-5.136v8.568h2.52v-8.76c.552.816 1.2 1.848 1.92 3.048L532.3 19.5a45.994 45.994 0 0 0-3.408-3.168V15.9h3.308v-2.42h-3.312V5.368h-2.52v8.112zm16.944-8.088v13.652l-6.864 1.032.36 2.5 6.5-.984v5.856h2.472v-6.24l2.616-.384-.432-2.5-2.184.336V5.392zm-4.2 1.56-1.652 1.604a23.107 23.107 0 0 1 3.792 3.528l1.7-1.7a27.775 27.775 0 0 0-3.836-3.436zm-.576 5.64-1.68 1.584a23.689 23.689 0 0 1 3.744 3.624l1.7-1.728a28.336 28.336 0 0 0-3.76-3.484zm19.32-5.784v2.132h5.616c-.048.336-.12.672-.168 1.056h-4.224v10.944h-1.872v-2.016c-.672.288-1.368.576-2.088.84v-6.5h2.184v-2.356h-2.184v-5.52h-2.424v5.52h-2.4v2.352h2.4v7.224a26.406 26.406 0 0 1-2.664.576l.624 2.424a50.5 50.5 0 0 0 6.36-2.016v1.68h4.488a20.62 20.62 0 0 1-4.68 2.664l1.464 1.872a21.05 21.05 0 0 0 5.136-3.312l-1.416-1.224h5.4l-1.32 1.224a27.838 27.838 0 0 1 4.56 3.288l1.512-1.728a24.468 24.468 0 0 0-4.248-2.784h4.488v-2.208h-2.04V10h-4.68c.048-.336.12-.7.168-1.056h5.712V6.808h-5.424l.144-1.32-2.424-.336-.144 1.656zm3.579 14.132v-1.032h6.576v1.032zm0-2.736v-.984h6.576v.984zm0-2.664v-.96h6.576v.96zm0-2.664v-.96h6.576v.96zm20.328.624h9.984v-2.352h-9.432c.144-.6.264-1.224.408-1.9l-2.472-.24a91.992 91.992 0 0 1-2.352 9.24h13.392c-.072 3.7-.288 5.784-.624 6.216a2.993 2.993 0 0 1-2.208.624c-.864 0-1.824-.024-2.832-.072l.72 2.328h2.016c2.184 0 3.624-.408 4.3-1.176s1.056-4.176 1.152-10.224h-12.771q.36-1.148.72-2.448zm-6.936 6.84v2.4h14.5v-2.4zm20.28-14.256h-19.823V11.7h2.472V8.44H588.6v3.288h2.472zm7.781 1.144-5.47 20.32h3l5.47-20.32zm11.984 10.88a9.585 9.585 0 0 1-3.264 6.456l1.584 1.9a15.405 15.405 0 0 0 2.424-2.9 7.54 7.54 0 0 0 4.608 2.448 18.818 18.818 0 0 0 3.624.336c.408 0 .864 0 1.464-.024l.816-2.448c-.7 0-1.368-.024-1.944-.024a21.866 21.866 0 0 1-3.384-.24v-2h4.32v-2.208h-4.32V17.7h5.208v-2.2h-12.24v2.2h4.728v5.14a6.892 6.892 0 0 1-1.8-1.68 12.074 12.074 0 0 0 .528-2.712zm10.152-3.6V6.3h-10.582v8.208zM607.6 5.8h-2.328v4.176h-2.3v2.28h2.3v4.584c-.816.288-1.656.552-2.448.792l.6 2.448c.624-.216 1.224-.48 1.848-.744v3.936c0 .6-.312.672-.984.672h-.312a5.154 5.154 0 0 1-1.08-.144l.5 2.448c.552.048.912.072 1.512.072 2.232 0 2.688-.936 2.688-2.616V18.28c.648-.288 1.272-.648 1.872-.936l-.024-2.352-1.848.864v-3.6h2.016v-2.28H607.6zm5.184 2.712h5.76V9.64h-5.76zm0 2.784h5.76v1.032h-5.76zm23.5 3.6a19.976 19.976 0 0 1-3.168 4.512 23.609 23.609 0 0 1-3.48-4.32l-1.944 1.2a28.127 28.127 0 0 0 3.744 4.656 18.722 18.722 0 0 1-7.584 3.408l1.056 2.256a21.593 21.593 0 0 0 8.256-4.152 21.059 21.059 0 0 0 8.376 3.96l1.032-2.28a19.276 19.276 0 0 1-7.728-3.264 25.323 25.323 0 0 0 3.528-4.9zm5.544-4.488V8.176h-7.536V5.8h-2.52v2.376h-7.1v2.232zm-12.768.36a15.412 15.412 0 0 1-4.848 5.064l1.728 1.752a20.3 20.3 0 0 0 5.376-5.9zm13.2 4.728a19.166 19.166 0 0 1-5.232-4.728l-2.112.936a21.555 21.555 0 0 0 5.64 5.592z" transform="translate(30 49)"/>
        </g>
        <g id="fc_box_big_no_btn-2" data-name="fc_box_big_no_btn" transform="translate(407 2307)">
            <g transform="translate(-114 -1360)" style="filter:url(#box-2)">
                <g id="box-9" data-name="box" class="cls-4">
                    <path class="cls-11" d="M0 0h1108v130H0z" transform="translate(114 1360)"/>
                    <path class="cls-13" d="M1 1h1106v128H1z" transform="translate(114 1360)"/>
                </g>
            </g>
            <path id="패스_10720" data-name="패스 10720" class="cls-3" d="M451.825 8.028V18.8h-.149l-7.4-10.773h-3.1V25h3.524V14.218h.124L452.281 25h3.05V8.028zm6.373 0V25h3.522V8.028zM476.008 25v-2.917h-7.9v-4.119h7.276v-2.909h-7.274v-4.11h7.865V8.028h-11.387V25zm16.044 0-3.613-6.6a4.885 4.885 0 0 0 3-4.84c0-3.348-2.213-5.528-6.075-5.528h-6.646V25h3.522v-6.033h2.685L488.149 25zm-7.343-14.08c2.1 0 3.108.936 3.108 2.635s-1.011 2.561-3.1 2.561h-2.477v-5.2zm32.348 7.192V15.9h-17.232v2.208h4.344c-.192 3.36-1.488 5.28-5.52 6.288l1.224 2.208c4.272-1.344 6.5-3.36 6.768-8.5h2.664V23.8c0 1.728.816 2.28 3.96 2.28 2.784 0 3.7-.336 4.152-1.368a10.793 10.793 0 0 0 .648-3.1l-2.424-.72v.264a7.386 7.386 0 0 1-.264 2.04c-.24.552-.624.624-1.848.624h-.552c-.792 0-1.272-.072-1.272-.624v-5.084zm.24-4.92V7.816h-7.632V5.8h-2.5v2.016h-7.512v5.376h2.424v-3.168h12.744v3.168zm-3.5.888V11.9h-10.68v2.18zm6.936 3.768v1.944h7.416v4.176h-2.28V20.7h-2.4v3.264H519.7v2.04h18.744v-2.04h-7.776V22.72h5.328v-1.9h-5.328v-1.028h6.72v-1.944h-6.792a11.4 11.4 0 0 0 3.888-2.208 13.621 13.621 0 0 0 3.5 1.9l.984-2.112a10.174 10.174 0 0 1-3.1-1.464 11.775 11.775 0 0 0 1.7-4.3h1.08V7.648H533.2c.192-.552.36-1.1.5-1.68l-2.16-.48a17.844 17.844 0 0 1-2.52 6.072V9.472h-3.456v-.84h3.912V6.856h-3.912v-1.08l-2.208-.024v1.1h-3.912v1.78h3.912v.84l-3.384-.024v4.488h2.688a14.765 14.765 0 0 1-3.408 2.112l1.152 1.9a13.848 13.848 0 0 0 2.976-2.256 7.046 7.046 0 0 0-.024.816v1.008h2.208V16.5a8.832 8.832 0 0 0-.072-.984 14.882 14.882 0 0 0 2.88 2.112l1.152-1.9a11.548 11.548 0 0 1-3.144-1.8h2.64v-1.744l1.38 1.176a10.093 10.093 0 0 0 .936-1.392 11.651 11.651 0 0 0 1.584 2.208 9.182 9.182 0 0 1-3.432 1.8l1.1 1.872zm11.712-8.064a.216.216 0 0 0 .024-.12h2.976a10.959 10.959 0 0 1-1.152 2.928 8.057 8.057 0 0 1-1.852-2.808zm-5.472 1.272v1.32h-1.392v-1.32zm-4.944 0h1.344v1.32h-1.344zm27.048-4.224a25.691 25.691 0 0 1-.84 5.544 29.213 29.213 0 0 0-1.128-3.168l-1.416.7v-4.18h-2.424v20.856h2.424V10.408a22.78 22.78 0 0 1 .984 3.6l1.176-.576a13.774 13.774 0 0 1-.792 1.7l2.136 1.176a19.578 19.578 0 0 0 1.416-3.84h1.92v4.252h-3.96v2.256h3.96v4.7h-5.208v2.232h12.312V23.68H555v-4.7h3.912v-2.26H555v-4.248h4.056v-2.256H555V5.728h-2.472v4.488h-1.44c.168-.984.288-1.992.408-3.048zm-8.256 3.24a23.419 23.419 0 0 1-.744 6.1l1.92.888a28.529 28.529 0 0 0 .816-6.552zM578.4 8.584v5.9h-2.976v-5.9zm0 8.328v10.536h2.424V16.912h2.592v-2.424h-2.592v-5.9h1.92V6.232h-11.591v2.352h1.824v5.9h-2.352v2.424h2.328c-.192 4.08-1.416 7.056-3.648 8.976l1.9 1.68c2.544-2.3 3.96-5.856 4.2-10.656zm-14.063-8.184a22.059 22.059 0 0 1-3.408 8.376l1.32 2.16c.336-.48.7-.984 1.032-1.512v8.9h2.3v-1.7h4.08v-11.5h-4.248a28.43 28.43 0 0 0 1.3-4.728h3.6v-2.4h-8.544v2.4zm1.248 14.04v-7.1h1.776v7.1zm33.216-12.5-1.248 1.9a30.959 30.959 0 0 1 6.744 4.464l1.368-2.088a33.327 33.327 0 0 0-6.865-4.28zm-5.3-.1a20.521 20.521 0 0 1-6.96 4.128l1.056 2.256a25.461 25.461 0 0 0 7.416-4.632zm3.24-4.944-2.784.432c.312.528.6 1.08.888 1.656h-8.616V12.5h2.5V9.616h15.072v2.9h2.5V7.312h-8.736a22.383 22.383 0 0 0-.828-2.088zm-3.436 8.976v2.16l-.048.624h-6.048v2.352h5.616a9.262 9.262 0 0 1-1.248 2.592c-1.056 1.32-3.1 2.424-6.072 3.336l1.344 2.136c3.072-.912 5.3-2.184 6.672-3.864a10.752 10.752 0 0 0 1.92-4.2h4.032v5.52c0 1.608.864 2.424 2.64 2.424h1.9q2.3 0 2.736-1.3a28.567 28.567 0 0 0 .5-3.888l-2.3-.7c0 1.056-.048 2.064-.12 3.024-.1.336-.36.5-.84.5h-1.512c-.36 0-.528-.168-.528-.48v-7.452h-6.168c0-.192.024-.384.048-.624V14.2z" transform="translate(30 49)"/>
        </g>
        <g id="fc_box_big_no_btn-3" data-name="fc_box_big_no_btn" transform="translate(407 2487)">
            <g transform="translate(-114 -1540)" style="filter:url(#box-3)">
                <g id="box-10" data-name="box" class="cls-4">
                    <path class="cls-11" d="M0 0h1108v130H0z" transform="translate(114 1540)"/>
                    <path class="cls-13" d="M1 1h1106v128H1z" transform="translate(114 1540)"/>
                </g>
            </g>
            <path id="패스_10721" data-name="패스 10721" class="cls-3" d="M451.184 6.04v2.352h4.56c-.1.648-.192 1.3-.312 1.92H452v11.976h2.448v-9.672h5.4v9.432h2.452V10.312h-4.42c.12-.624.216-1.248.312-1.92h4.56V6.04zm8.04 15.84-1.68 1.608a24.747 24.747 0 0 1 3.864 4.152l1.8-1.8a34.536 34.536 0 0 0-3.984-3.96zm-3.288-8.136v4.176a10.822 10.822 0 0 1-1.128 4.752A7.677 7.677 0 0 1 450.9 25.5l1.32 2.088a8.85 8.85 0 0 0 4.488-3.36 13.06 13.06 0 0 0 1.584-6.312v-4.172zM445.4 5.368a35.52 35.52 0 0 1-4.752 6.72l1.44 2.016a38.735 38.735 0 0 0 4.512-6.336 52.977 52.977 0 0 1 3.648 5.28l1.656-1.776c-1.464-2.04-3-4.008-4.632-5.9zm-3.336 10.368v2.328h6.216a42.737 42.737 0 0 1-2.232 3.7c-.648-.552-1.32-1.1-1.992-1.632l-1.656 1.604a36.511 36.511 0 0 1 5.808 5.712l1.776-1.8q-1.044-1.188-2.3-2.376a31.27 31.27 0 0 0 3.288-5.448v-2.088zm4.512-5.016-1.776 1.1a26.557 26.557 0 0 1 2.256 3.72l1.776-1.272a28.606 28.606 0 0 0-2.256-3.548zm30.7 9.672c-.624.144-1.272.312-1.944.48V8.368h1.3V9.76h.96a29.187 29.187 0 0 0 2.952 10.632 18.582 18.582 0 0 1-4.56 5.112l1.7 1.968a20.1 20.1 0 0 0 4.248-4.632 28.805 28.805 0 0 0 3.672 4.632l1.68-1.968a23.071 23.071 0 0 1-4.008-4.944 32.84 32.84 0 0 0 3.072-10.92V7.36h-9.456V6.016h-11.62v2.352h1.656v14.04c-.648.1-1.3.168-1.968.24l.624 2.472c2.5-.384 4.944-.792 7.3-1.272v3.576h2.448v-4.08c.624-.144 1.272-.312 1.944-.456zm2.612-10.632h4.1a29.608 29.608 0 0 1-2.136 8.064 25.489 25.489 0 0 1-1.964-8.064zM472.88 21.4c-1.152.24-2.3.456-3.5.648v-3.264h3.5zm-3.5-4.872v-2.952h3.5v2.952zm0-5.208V8.368h3.5v2.952zm23.736 4.008v6.24h13.872v-6.24zm11.352 4.032h-8.832v-1.848h8.832zm-8.668 2.352-2.352.888a13.12 13.12 0 0 1 1.776 1.9h-5.64v2.376h20.784V24.5h-5.232a21.145 21.145 0 0 0 1.364-2.02l-2.328-.84a20.725 20.725 0 0 1-1.752 2.856h-4.536a14.8 14.8 0 0 0-2.084-2.784zm-3.768-13.224-1.68 1.584a27.821 27.821 0 0 1 2.832 2.232 19.965 19.965 0 0 1-4.3 2.232l1.536 1.968a20.447 20.447 0 0 0 5.688-3.408v.768h8.808v-.888a26.539 26.539 0 0 0 4.9 3.48l1.656-1.92a24.714 24.714 0 0 1-3.5-2.136 14.753 14.753 0 0 0 2.544-2.5l-1.756-1.532a13.691 13.691 0 0 1-2.568 2.568 11.362 11.362 0 0 1-1.3-1.344 14.474 14.474 0 0 0 2.568-2.4l-1.752-1.56a13.128 13.128 0 0 1-2.16 2.16 15.932 15.932 0 0 1-1.368-2.52l-2.08 1.152a19.544 19.544 0 0 0 3.432 5.16h-5.952a13.357 13.357 0 0 0 2.232-3.744V5.968h-8.28v2.3h5.448a11.958 11.958 0 0 1-2.04 2.592 32.265 32.265 0 0 0-2.908-2.372zM535.4 20.752l-2.5-.816a17.077 17.077 0 0 1-.432 3.48 1.426 1.426 0 0 1-1.536.96h-4.752a.965.965 0 0 1-1.008-1.08v-7.488h8.376v-9.6h-11.804v2.4h9.408v4.8h-8.424V24.3a2.108 2.108 0 0 0 2.352 2.424h6.264c1.536 0 2.52-.384 2.976-1.1a13.085 13.085 0 0 0 1.08-4.872zM516.272 5.44 514.5 7.168a21.97 21.97 0 0 1 3.936 3.528l1.728-1.752a33.615 33.615 0 0 0-3.892-3.504zm-3.336 6.936v2.4h3.288V23.3a1.635 1.635 0 0 1-.648 1.3l.96 2.256a37.087 37.087 0 0 0 5.232-3.84l-.672-2.616a53.944 53.944 0 0 1-2.448 2.112V12.376zm26.4-6.888-1.7 1.608a25.007 25.007 0 0 1 4.008 3.912l1.752-1.728a33.1 33.1 0 0 0-4.06-3.792zm13.68 21.624h5.5l.6-2.472q-.972.072-2.808.144c-1.248 0-2.448.024-3.648.024-1.872 0-3.48-.024-4.872-.048a7.773 7.773 0 0 1-3.168-.6 6.357 6.357 0 0 1-1.68-1.416l-.264-.264v-9.12h-5.5v2.3h3.168v6.58a10.56 10.56 0 0 0-3.216 3.672l1.848 1.7c1.2-2.16 2.016-3.216 2.5-3.216.264 0 .552.192.888.6a5.394 5.394 0 0 0 2.52 1.656 18.062 18.062 0 0 0 3.84.408c1.532.028 2.976.052 4.292.052zm-4.248-19.08L547.5 9.28c.912.5 1.728 1.008 2.472 1.488h-5.332V23.8h2.352v-3.912h3.12v3.888h2.3v-3.888h3.216V20.9a.693.693 0 0 1-.792.768l-1.656-.072.552 2.064h1.8c1.632 0 2.448-.768 2.448-2.256V10.768h-4.848l-.048-.048a25.11 25.11 0 0 0 4.416-3V5.968h-13.268v2.064zm2.808 1.536c-.672-.5-1.44-1.008-2.256-1.536h4.8a23.822 23.822 0 0 1-2.544 1.536zm-4.584 6.792h3.12v1.512h-3.12zm5.424 0h3.216v1.512h-3.216zm3.216-2.016h-3.216v-1.512h3.216zm-5.52 0h-3.12v-1.512h3.12zM582.3 7.576h-8.86V26.44h2.424v-1.32h3.984v1.32h2.452zm-6.432 15.216V9.9h3.984v12.892zm-10.852-12.168h1.608a61.17 61.17 0 0 1-.24 3.912h-4.992v2.376H566l-.288 1.272a12.737 12.737 0 0 1-4.848 6.72l1.636 2.016a14.451 14.451 0 0 0 5.136-6.24c.96 1.152 2.136 2.76 3.552 4.848l1.532-2.328c-1.488-1.776-2.952-3.408-4.392-4.848l.288-1.44h3.984v-2.376h-3.648c.12-1.224.192-2.52.216-3.912h3.192V8.248H566c.264-.768.5-1.584.744-2.424l-2.472-.552a22.1 22.1 0 0 1-3.264 7.152l2.208 1.392a21.561 21.561 0 0 0 1.8-3.192zm28.416-5.448v3.96h-6.792v2.4h6.792v4.032h-8.184v2.424h8.184v9.552h2.52v-9.552h7.464c-.048 2.5-.192 3.912-.432 4.224a1.7 1.7 0 0 1-1.2.528c-.816 0-1.7-.024-2.64-.024l.672 2.352h1.536a11.511 11.511 0 0 0 1.8-.216 2.805 2.805 0 0 0 1.488-.744c.816-.816 1.224-3.672 1.248-8.544h-3.336l.456-5.232v-1.2h-7.056v-3.96zm2.52 10.392v-4.032h4.536l-.36 4.032zm5.928-10.344-1.272 1.9a21.607 21.607 0 0 1 4.7 3.072l1.348-2.096a26.3 26.3 0 0 0-4.776-2.876z" transform="translate(30 49)"/>
        </g>
        <g id="fc_start_end_link" transform="translate(407 2667)">
            <g transform="translate(-114 -1720)" style="filter:url(#area)">
                <g id="area-3" data-name="area" class="cls-4" transform="translate(114 1720)">
                    <rect class="cls-11" width="1108" height="130" rx="65"/>
                    <rect class="cls-13" x="1" y="1" width="1106" height="128" rx="64"/>
                </g>
            </g>
            <g id="fc_textlink" transform="translate(671 76)">
                <g id="stack" transform="translate(-2524.094 20210)">
                    <g id="ico_fc_pop_up" transform="translate(2431.094 -20209)">
                        <g id="그룹_1025" data-name="그룹 1025" transform="translate(-1101.074 -1125)">
                            <g id="그룹_1026" data-name="그룹 1026" transform="translate(1108.074 1129)">
                                <path id="사각형_878" data-name="사각형 878" style="stroke:#326f5e;stroke-width:1.5px;fill:#fff" d="M0 0h9v9H0z"/>
                            </g>
                            <path id="패스_6896" data-name="패스 6896" class="cls-7" d="M1104.574 1132.941v9h9" transform="translate(.5 -.941)"/>
                        </g>
                    </g>
                    <path id="패스_10723" data-name="패스 10723" class="cls-8" d="M-28.864-7.184v6.048h9.792v-6.048zm8.32 4.7h-6.848v-1.004h6.848zm-6.848-2.288V-5.84h6.848v1.072zm-3.2-7.04v1.412h4.56a15.673 15.673 0 0 1-5.344 2.352l.816 1.348a13.56 13.56 0 0 0 5.86-3.668v2.7h1.472v-2.72a12.6 12.6 0 0 0 5.92 3.68l.656-1.376a13.57 13.57 0 0 1-5.216-2.32h4.528v-1.408h-5.888v-1.344H-24.7v1.344zm-.32 11.632v1.396h13.84V-.176zm16.8-10.128v1.3h4.336c-.16.256-.352.528-.544.8h-4.656v1.344h3.568a22.321 22.321 0 0 1-3.984 3.376l.816 1.3A26.871 26.871 0 0 0-12.224-4v5.664h1.44v-.608h6.928v.608h1.44v-7.728h-7.76c.208-.256.416-.528.64-.8H-.9v-1.344h-7.74c.16-.256.3-.528.464-.8h6.352v-1.3h-5.744q.168-.432.336-.912a42.4 42.4 0 0 0 5.312-.72l-.7-1.2a61.528 61.528 0 0 1-11.392.9l.432 1.248c1.728 0 3.36-.048 4.864-.128-.112.272-.224.544-.352.816zm3.328 7.408h6.928v.752h-6.928zm6.928-1.152h-6.928v-.784h6.928zm-6.928 3.06h6.928v.816h-6.928zM1.072-12.576v1.424h6.176v1.1H2.4v6.576h4.592A5.555 5.555 0 0 1 6.3-1.824a14 14 0 0 1-2.24-1.424l-1.168.8A14.869 14.869 0 0 0 5.248-.832 10.3 10.3 0 0 1 .64.288L1.3 1.68A11 11 0 0 0 6.736-.1a22.944 22.944 0 0 0 8.352 1.8l.384-1.476A23.3 23.3 0 0 1 7.712-1.2a6.617 6.617 0 0 0 .816-2.272h5.12v-6.576h-4.9v-1.1h6.192v-1.424zM12.144-4.8H8.7a9.269 9.269 0 0 0 .048-.976v-.384h3.392zM7.2-4.8H3.9v-1.36h3.348v.384c0 .32-.016.656-.048.976zM3.9-7.408v-1.344h3.348v1.344zm4.852-1.344h3.392v1.344H8.752zM23.776-13.2a11.209 11.209 0 0 1-6.336 2.976l.9 1.392a14.792 14.792 0 0 0 4.38-1.648h4.3a8.266 8.266 0 0 1-3.488 2.64 21.069 21.069 0 0 0-1.52-1.632l-1.312.624a15.69 15.69 0 0 1 1.412 1.488 17.766 17.766 0 0 1-3.6.544l.64 1.376c4.688-.384 7.888-2.128 9.616-5.2v-1.184H24.5c.208-.208.416-.432.64-.672zm-.256 10-1.344.64a16.586 16.586 0 0 1 1.536 1.744 21.082 21.082 0 0 1-6.24.816l.608 1.456q9.36-.24 12.784-5.856v-1.184h-4.08a9.249 9.249 0 0 0 .928-.848l-1.3-.7c-1.632 1.728-4.208 2.752-7.7 3.088l.912 1.36a21.8 21.8 0 0 0 4.9-1.52h4.384a9.622 9.622 0 0 1-3.76 2.848A19.989 19.989 0 0 0 23.52-3.2zM-32 3h64v1h-64z" transform="translate(2395.094 -20194)"/>
                </g>
            </g>
            <path id="패스_10722" data-name="패스 10722" class="cls-3" d="M494.216 2.7h-2.568v1.492H483.8V6.16h7.848v.96h-6.168v4.248h6.168v.912h-6.768v1.8h6.768v.936h-8.424v1.824h8.424v.912h-6.84V19.6h6.84v.912c0 .408-.144.552-.96.552a12.869 12.869 0 0 1-2.4-.216l.576 2.28a24.012 24.012 0 0 0 2.448.144c2.016 0 2.9-.552 2.9-2.472v-1.2h6.388v-2.76h1.9v-1.824h-1.9V12.28h-6.384v-.912h6.12V7.12h-6.12v-.96h7.656V4.192h-7.656zm-6.336 5.9h3.768v1.1h-3.768zm10.08 0v1.1h-3.744V8.6zm.216 5.472v.936h-3.96v-.928zm-3.96 3.672v-.904h3.96v.912zM520.424 2.9a47.955 47.955 0 0 1-14.184 1.748v6.072c0 4.848-.432 7.776-2.28 10.752l1.632 2.28c2.5-3.816 3.12-7.272 3.168-12.5h14.52v-2.26h-14.52V6.808a75.417 75.417 0 0 0 13.392-1.776zm1.152 20.352v-9.676h-11.688v9.816h2.544v-1.536h6.6v1.392zm-9.144-7.368h6.6v3.672h-6.6zm29.28 7.536v-5.692h-10.824v-.96h9.336V12.04h-11.832v11.568h2.5v-.816h8.376v.624zm-5.064-20.74a13.072 13.072 0 0 1-1.872 3.336v-1.7h-5.112l.5-1.2-2.5-.408A12.927 12.927 0 0 1 524.6 7.48l2.136 1.32a13.945 13.945 0 0 0 1.848-2.448h1.1a14.5 14.5 0 0 1 .624 2.256l2.4-.312c-.192-.648-.384-1.3-.648-1.944h2.448a7.6 7.6 0 0 1-.96 1.008l1.08.672h-1.584V9.28h-7.68v4.392h2.472v-2.544h13.3V13.7h2.472V9.28h-8.04v-.672l.168.072a15.2 15.2 0 0 0 1.776-2.328h1.128a12.536 12.536 0 0 1 .672 2.232l2.52-.312a13.143 13.143 0 0 0-.72-1.92h3v-2.04h-5.544a9.8 9.8 0 0 0 .528-1.3zm2.616 16.872v1.416h-8.376v-1.416zm-8.376-5.664h6.864v1.056h-6.864zm33.984 8.976v-2.256H559.5v-2.4h4.632V16H559.5v-1.9h4.248V3.64H552.9V14.1h4.176V16h-4.488v2.208h4.488v2.4H551.7v2.256zm-12.6-6.312c-.624.288-1.32.552-2.112.84v-4.7h2.04V10.5h-2.04V5.944h2.208V3.712H545.6v2.232h2.256V10.5h-2.064v2.184h2.064v5.424c-.864.288-1.728.528-2.472.7l.432 2.448c2.328-.864 4.656-1.512 6.576-2.376zm7.228-6.744h1.92v2.112h-1.92zm-4.272 0h1.848v2.112h-1.848zm6.192-4.032v1.992h-1.92V5.776zm-6.192 0h1.848v1.992h-1.848z" transform="translate(30 33)"/>
        </g>
        <g id="fc_start_end_link-2" data-name="fc_start_end_link" transform="translate(407 1047)">
            <g transform="translate(-114 -100)" style="filter:url(#area-2)">
                <g id="area-4" data-name="area" class="cls-4" transform="translate(114 100)">
                    <rect class="cls-11" width="1108" height="130" rx="65"/>
                    <rect class="cls-13" x="1" y="1" width="1106" height="128" rx="64"/>
                </g>
            </g>
            <g id="fc_textlink-2" data-name="fc_textlink" transform="translate(572 76)">
                <g id="stack-2" data-name="stack" transform="translate(-2524.094 20210)">
                    <g id="ico_fc_pdf" transform="translate(2562.094 -20209)">
                        <g id="그룹_1025-2" data-name="그룹 1025" transform="translate(-1101.5 -1126.5)">
                            <path id="패스_6892" data-name="패스 6892" class="cls-7" d="M1108.592 1130.5h7.714l4.286 4.286v7.714h-12z" transform="translate(-3.092)"/>
                            <path id="패스_6891" data-name="패스 6891" class="cls-7" d="M1052.728 2115.047v5h5" transform="translate(59.772 -984.547)"/>
                        </g>
                    </g>
                    <path id="패스_10708" data-name="패스 10708" class="cls-8" d="M-56.384-10.128v1.472h4.48v8.032c0 .544-.3.832-.9.832-.7 0-1.456-.032-2.224-.1L-54.7 1.6h2.432a1.662 1.662 0 0 0 1.9-1.84v-8.416h1.648v-1.472h-1.648v-3.024H-51.9v3.024zm-5.536 1.136-1.024.96A53.988 53.988 0 0 1-60-4.464a12.45 12.45 0 0 1-3.376 3.808l.864 1.328A16.111 16.111 0 0 0-59.088-3.2c.5.72.944 1.424 1.344 2.128l1.12-1.12a49.74 49.74 0 0 0-1.7-2.464 14.382 14.382 0 0 0 1.264-5.856v-1.12h-5.616v1.472h4.256a13.512 13.512 0 0 1-.88 4.224 61.336 61.336 0 0 0-2.62-3.056zm6.608 1.952-1.152.848a27.524 27.524 0 0 1 2.352 3.408l1.2-.832a25.417 25.417 0 0 0-2.4-3.424zm9.84-2.128v2.96h3.072a12.478 12.478 0 0 1-4.352 1.344l.592 1.264a12.4 12.4 0 0 0 5.152-1.888c.224.192.448.416.672.64a20.825 20.825 0 0 1-6.32 2.384l.752 1.28a19.271 19.271 0 0 0 6.272-2.736 6.649 6.649 0 0 1 .384.752 22.909 22.909 0 0 1-7.568 3.136l.768 1.312a23.411 23.411 0 0 0 7.136-3.088 3.117 3.117 0 0 1 .032.4 1.811 1.811 0 0 1-.4 1.36 2.278 2.278 0 0 1-1.136.368c-.384 0-.88.016-1.456.016l.48 1.392c.416 0 .784-.016 1.136-.048a4.2 4.2 0 0 0 2.224-.7 3.263 3.263 0 0 0 .7-2.384 6.459 6.459 0 0 0-.288-1.568l.512-.16a11.748 11.748 0 0 0 3.616 4.144l1.04-1.28A9.087 9.087 0 0 1-35.824-3.6a16.058 16.058 0 0 0 2.464-1.216l-.992-1.136a14.36 14.36 0 0 1-3.824 1.744 8.123 8.123 0 0 0-1.7-2h6.144v-3.808H-37.6a13.821 13.821 0 0 0 1.264-1.168v-.976h-4.88c.224-.24.464-.48.7-.736l-1.6-.352a15.068 15.068 0 0 1-5.148 3.328l.96 1.152c.272-.132.544-.272.832-.4zm5.92-.848h-4.416a15.232 15.232 0 0 0 1.376-.96h4.3c-.408.336-.844.656-1.26.96zm4.3 2.544H-39.2a5.833 5.833 0 0 0 .544-1.3h3.408zm-5.648 0h-3.056v-1.3h3.76a4.268 4.268 0 0 1-.704 1.3zm18.752-1.456v2h-3.088V-5.5h3.088v2.08h-3.968v1.44h3.968v3.644h1.52v-3.648h3.984v-1.44h-3.984V-5.5h3.088v-1.428h-3.088v-2h3.568v-1.424h-2.1A15.133 15.133 0 0 0-18-12.688l-1.44-.5a25.132 25.132 0 0 1-1.216 2.832h-2.4l.912-.464a26.248 26.248 0 0 0-1.44-2.32l-1.264.608a18.258 18.258 0 0 1 1.392 2.176h-2.256v1.424zm-7.088-4.032-1.056.992a16.617 16.617 0 0 1 2.624 2.384l1.024-1.04a17.948 17.948 0 0 0-2.588-2.336zm-2.16 4.608V-6.9h2.144v5.872a1.159 1.159 0 0 1-.4.864l.56 1.328a23.439 23.439 0 0 0 2.72-2.64l-.384-1.52c-.352.416-.7.8-1.024 1.152v-6.508zm21.1 6.528A24.807 24.807 0 0 1-15.28-.416l.192 1.456a23.566 23.566 0 0 0 4.8-1.44zm-2.736-11.344a34.843 34.843 0 0 1-1.776 4.9 1.363 1.363 0 0 1-.592.544l.368 1.3 2.192-.384a16.254 16.254 0 0 1-1.68 2.832 2.3 2.3 0 0 1-.64.4l.368 1.312A24.137 24.137 0 0 0-10.3-3.3v-1.34a27.082 27.082 0 0 1-2.752.736 40.828 40.828 0 0 0 2.96-5.52l-1.328-.48c-.272.624-.544 1.216-.8 1.776-.48.1-.976.192-1.456.256a28.952 28.952 0 0 0 2.048-4.752zm6.932 2.624v4.128h-2.22v-4.128zm0 5.5v4.292h-2.22V-5.04zm1.38 4.292V-5.04h2.16v4.288zm0-5.664v-4.128h2.16v4.128zm2.16 7.04v.944h1.44v-13.5h-8.592v13.5h1.392V.624zm4.848-7.408V1.68h1.488V-9.168a20.712 20.712 0 0 0 1.408-3.44L3.76-13.28a18.872 18.872 0 0 1-3.3 6.5l.5 1.632c.48-.552.912-1.092 1.328-1.636zm2.608-4.4v1.424h10.512v-1.424h-4.32a13.845 13.845 0 0 0-.768-1.984l-1.456.4a14.126 14.126 0 0 1 .72 1.584zm1.456 2.4v1.36h7.7v-1.36zm0 2.256v1.376h7.7v-1.376zm8.032 2.384H6v5.792h1.472V.816h5.44v.832h1.472zM7.472-.608v-2.128h5.44v2.128zm11.472-11.424v8.08h10.24v-8.08h-5.072a5.512 5.512 0 0 0 .4-1.008l-1.584-.208a6.96 6.96 0 0 1-.448 1.216zm8.768 6.784h-7.3v-1.04h7.3zM20.416-7.5v-1.012h7.3V-7.5zm0-2.208v-1.024h7.3v1.024zM18.08-3.024A10.186 10.186 0 0 1 16.672.3l1.28.816a13.883 13.883 0 0 0 1.568-3.852zm7.968 4.432a2.331 2.331 0 0 0 1.424-.368 4.176 4.176 0 0 0 .7-2.464l-1.452-.464a3.378 3.378 0 0 1-.336 1.7.712.712 0 0 1-.624.24h-3.344a.436.436 0 0 1-.48-.5v-2.608H20.4v2.928a1.379 1.379 0 0 0 1.584 1.536zM24.08-3.68l-1.12.688a17.275 17.275 0 0 1 1.792 2.208l1.136-.8A16.514 16.514 0 0 0 24.08-3.68zm5.12.336-1.184.736A28.561 28.561 0 0 1 30.192.784l1.2-.848a26.43 26.43 0 0 0-2.192-3.28zm5.936-3.84v6.048h9.792v-6.048zm8.32 4.7h-6.848v-1.004h6.848zm-6.848-2.284V-5.84h6.848v1.072zm-3.2-7.04v1.408h4.56a15.673 15.673 0 0 1-5.344 2.352L33.44-6.7a13.561 13.561 0 0 0 5.86-3.668v2.7h1.472v-2.72a12.6 12.6 0 0 0 5.92 3.68l.656-1.376a13.57 13.57 0 0 1-5.216-2.32h4.528v-1.408h-5.892v-1.344H39.3v1.344zm-.32 11.632v1.392h13.84V-.176zm16.8-10.124V-9h4.336c-.16.256-.352.528-.544.8h-4.656v1.344h3.568a22.321 22.321 0 0 1-3.984 3.376l.816 1.3A26.871 26.871 0 0 0 51.776-4v5.664h1.44v-.608h6.928v.608h1.44v-7.728h-7.76c.208-.256.416-.528.64-.8H63.1v-1.344h-7.74c.16-.256.3-.528.464-.8h6.352v-1.3h-5.744q.168-.432.336-.912a42.4 42.4 0 0 0 5.312-.72l-.7-1.2a61.528 61.528 0 0 1-11.392.9l.432 1.248c1.728 0 3.36-.048 4.864-.128-.112.272-.224.544-.352.816zm3.328 7.4h6.928v.752h-6.928zm6.928-1.152h-6.928v-.784h6.928zm-6.928 3.06h6.928v.816h-6.928zM-64 3H64v1H-64z" transform="translate(2494.094 -20194)"/>
                </g>
            </g>
            <path id="패스_10707" data-name="패스 10707" class="cls-3" d="M372.884 6.232a9.77 9.77 0 0 1-1.872 2.184 25.845 25.845 0 0 1-1.44-2.424L367.7 7.168a26.4 26.4 0 0 0 3.192 4.9H365.2a19.626 19.626 0 0 0 2.688-4.416l-1.464-1.224h-6.816v2.18h5.208a10.535 10.535 0 0 1-1.584 2.328c-.912-.744-1.848-1.512-2.712-2.16l-1.512 1.632c.864.72 1.776 1.416 2.64 2.208a14.733 14.733 0 0 1-3.6 2.472l1.272 2.016a21.4 21.4 0 0 0 2.136-1.344v5.448h1.632c.312.84.576 1.656.792 2.376h-5.3v2.28h18.672v-2.28h-5.3c.24-.72.432-1.488.648-2.376h1.872V15.52a15.746 15.746 0 0 0 1.992 1.3l1.488-2.064a16.185 16.185 0 0 1-3.144-2.064 23.052 23.052 0 0 0 2.664-2.832l-1.824-1.464a28 28 0 0 1-2.424 2.784 7.381 7.381 0 0 1-.84-.936c.792-.768 1.56-1.632 2.352-2.544zm-8.736 7.1v.912h7.584v-1.172a19.785 19.785 0 0 0 2.688 2.428h-12.672a18.767 18.767 0 0 0 2.4-2.164zm-.288 4.224h8.16v1.584h-8.16zm5.592 6.024H366.4c-.216-.744-.48-1.536-.72-2.376h4.42c-.192.82-.408 1.636-.648 2.38zm32.328-2.832-2.5-.816a17.077 17.077 0 0 1-.432 3.48 1.426 1.426 0 0 1-1.536.96h-4.752a.965.965 0 0 1-1.008-1.08v-7.484h8.376v-9.6h-11.804v2.4h9.408v4.8h-8.424V24.3a2.108 2.108 0 0 0 2.352 2.424h6.264c1.536 0 2.52-.384 2.976-1.1a13.084 13.084 0 0 0 1.08-4.872zM382.652 5.44l-1.776 1.728a21.972 21.972 0 0 1 3.936 3.528l1.728-1.752a33.623 33.623 0 0 0-3.888-3.504zm-3.336 6.936v2.4h3.284V23.3a1.635 1.635 0 0 1-.648 1.3l.96 2.256a37.085 37.085 0 0 0 5.232-3.84l-.672-2.616a53.944 53.944 0 0 1-2.448 2.112V12.376zm34.464-2.664v2.424h6.648V23.92q0 1.224-1.368 1.224c-1.032 0-2.112-.072-3.264-.168l.552 2.448h3.576q3.024 0 3.024-2.88V12.136h2.4V9.712h-2.4V5.248h-2.52v4.464zm-8.18 1.752-1.7 1.608c1.632 1.824 3.1 3.576 4.392 5.3a18.727 18.727 0 0 1-5.016 5.52l1.44 2.16a25.005 25.005 0 0 0 5.016-5.64 39.67 39.67 0 0 1 1.92 3.048l1.872-1.872a52.329 52.329 0 0 0-2.5-3.576 21.407 21.407 0 0 0 1.848-8.736v-1.82h-8.52V9.88h6.336a19.951 19.951 0 0 1-1.248 6.072 95.663 95.663 0 0 0-3.84-4.488zm9.936 2.928-1.92 1.392a37.609 37.609 0 0 1 3.5 5.088l1.968-1.392a38.685 38.685 0 0 0-3.552-5.088zm14.592-3.024v4.392h4.368a19.169 19.169 0 0 1-6.312 1.848l.96 2.088a18.942 18.942 0 0 0 7.728-2.76c.288.24.576.528.864.816a31.429 31.429 0 0 1-9.384 3.432l1.224 2.112a30.384 30.384 0 0 0 9.312-4.032 5.4 5.4 0 0 1 .5.984 34.594 34.594 0 0 1-11.28 4.584l1.272 2.136a35.651 35.651 0 0 0 10.536-4.488c0 .1.024.24.024.384a2.476 2.476 0 0 1-.576 1.92 3.066 3.066 0 0 1-1.632.528c-.576.024-1.32.048-2.208.048l.768 2.28q.936 0 1.728-.072a6.192 6.192 0 0 0 3.384-1.08c.72-.672 1.08-1.9 1.08-3.624a9.5 9.5 0 0 0-.408-2.28 3.834 3.834 0 0 1 .624-.192 17.635 17.635 0 0 0 5.376 6.192l1.7-2.16a12.577 12.577 0 0 1-4.92-4.776 24.994 24.994 0 0 0 3.6-1.728l-1.656-1.9a21.573 21.573 0 0 1-5.64 2.544 12 12 0 0 0-2.352-2.808h9.024V9.9h-5.612a26.104 26.104 0 0 0 1.752-1.608V6.688h-7.224c.336-.336.672-.7 1.008-1.032l-2.64-.6a22.314 22.314 0 0 1-7.68 4.92L429 11.9c.38-.2.74-.364 1.124-.532zm8.948-1.468h-6.384c.624-.408 1.224-.84 1.824-1.3h6.264c-.58.488-1.152.92-1.704 1.3zm6.288 3.792h-5.544a9.279 9.279 0 0 0 .7-1.728h4.848zm-8.328 0H432.6v-1.724h5.376a6.75 6.75 0 0 1-.94 1.732zm34.728-7.652h-11.256v13.608h2.472V8.44h6.24v11.208h2.544zm-.816 21.072a2.855 2.855 0 0 0 1.872-.552c.408-.384.7-1.632.864-3.7l-2.328-.744a7.8 7.8 0 0 1-.288 2.352.6.6 0 0 1-.576.36h-1.3q-.576 0-.576-.72v-4.532H466.7a19.855 19.855 0 0 0 .5-4.008V9.88h-2.376v5.688a13.647 13.647 0 0 1-1.536 6.24c-.912 1.464-2.688 2.712-5.3 3.72l1.344 2.112a11.331 11.331 0 0 0 5.832-4.2 12.22 12.22 0 0 0 .96-1.944v3.168c0 1.632.768 2.448 2.352 2.448zm-19.148-13.2v2.4h2.472v5.232c-.96.24-1.968.456-2.976.648l.6 2.4a57.938 57.938 0 0 0 7.7-2.448v-2.4c-.912.384-1.848.72-2.784 1.056v-4.488h2.424v-2.4h-2.424v-4.9h2.76V6.64h-8.112v2.376h2.808v4.9zm31.392.456h8.736v1.92h-8.736zm8.736 4.08v1.872h-8.736v-1.872zm0 4.032v1.944q0 .792-.864.792c-.768 0-1.608-.048-2.5-.12l.6 2.256h2.688c1.608-.048 2.424-.744 2.424-2.136V12.208h-10.848c.408-.7.792-1.392 1.176-2.112h12.5V7.672H485.66c.264-.72.5-1.464.744-2.232l-2.568-.312a24.913 24.913 0 0 1-.936 2.544h-6.984V10.1h5.784a25.676 25.676 0 0 1-6.432 7.32l1.632 2.136a32.791 32.791 0 0 0 3.936-3.792v11.708h2.352V22.48zm14.348-17.424a25.474 25.474 0 0 1-7.1 9.7l.816 2.616a47.256 47.256 0 0 0 3-2.736v12.908h2.5V11.7a25.5 25.5 0 0 0 3.144-5.544zm11.544 22.056a3.144 3.144 0 0 0 2.52-.84c.456-.576.768-2.256.936-5.016l-2.3-.792a10.656 10.656 0 0 1-.432 3.744 1.332 1.332 0 0 1-1.152.528h-3.456c-.744 0-1.1-.336-1.1-.984v-7.584a41.308 41.308 0 0 0 7.8-6.216l-1.76-1.992a33.409 33.409 0 0 1-6.048 5.184v-7.68h-2.5v9.216a56.637 56.637 0 0 1-3.624 1.8l1.128 2.376c.84-.408 1.68-.816 2.5-1.248v6.5c0 1.992 1.008 3 3.024 3zm27.048-17.184h-4.344a25.426 25.426 0 0 0 2.328-3.792l-2.592-.96a29.688 29.688 0 0 1-2.472 4.752h-3.672l1.992-1.008a41.582 41.582 0 0 0-2.256-3.888l-2.28 1.1a26.786 26.786 0 0 1 2.228 3.796h-4.752l1.44-.72a37.317 37.317 0 0 0-2.352-3.672l-2.28 1.1a25.407 25.407 0 0 1 2.256 3.288h-4.224V15.9h2.472v-3.572h16.008V15.9h2.5zm-16.992 3.7v2.208h9.36c-.96.48-2.232 1.032-3.816 1.7v1.776h-9.384v2.352h9.384v2.664c0 .576-.24.888-.7.888a52.01 52.01 0 0 1-2.856-.072l.624 2.28h3.072c1.584 0 2.376-.768 2.376-2.256v-3.5h8.864v-2.356h-8.86v-.672a52.392 52.392 0 0 0 4.968-2.808v-2.208zm30.192-8.4a18.042 18.042 0 0 1-3.168 8.088l1.824 1.56a14.478 14.478 0 0 0 2.088-3.576h1.008c-.888 4.248-2.5 7.344-4.8 9.312l1.608 1.872c2.616-2.352 4.416-6.1 5.424-11.184h1.2a33.564 33.564 0 0 1-1.944 8.088 17.663 17.663 0 0 1-4.416 5.952l1.56 1.992a20.6 20.6 0 0 0 4.92-6.864 38.8 38.8 0 0 0 2.112-9.168h.864c-.048 6.792-.12 10.752-.264 11.88a2.049 2.049 0 0 1-2.208 1.992c-.576 0-1.224-.048-1.992-.12l.576 2.232c.864.072 1.488.12 1.824.12q3.672 0 4.1-3.1.36-2.88.36-15.408h-9.072c.264-.96.5-1.968.744-3.048zM550 12.448h1.32v5.736a32.519 32.519 0 0 1-3.912 1.056l.6 2.424a71.374 71.374 0 0 0 3.312-1.1V27.5h2.448v-7.92c.5-.24 1.008-.456 1.536-.7v-2.352c-.528.24-1.032.48-1.536.72v-4.8h1.632v-2.4h-1.632V5.32h-2.448v4.728h-1.032c.072-.912.12-1.824.168-2.736l-2.232-.168a37.1 37.1 0 0 1-1.1 7.968l2.208.624c.268-1.056.48-2.16.668-3.288zm25.968.312h6.936l-.36 1.56h-4.964v8.448H580v-6.144h8.712v6.144h2.424V14.32h-6.048l.36-1.56h7.656v-2.3h-7.272c.072-.48.144-.984.192-1.464l-2.5-.312-.216 1.776h-7.344V8.9a105.932 105.932 0 0 0 16.088-1.4l-1.224-2.232a98.979 98.979 0 0 1-17.28 1.536v7.68q-.18 7.092-2.448 11.088l1.752 1.824q2.952-4.824 3.12-12.912zm9.984 9.216-1.248 1.872a32.321 32.321 0 0 1 7.032 3.672l1.392-2.184a36.607 36.607 0 0 0-7.172-3.36zm-2.3-4.656a8.063 8.063 0 0 1-2.352 5.16 13.971 13.971 0 0 1-6.144 2.784l1.344 2.3a15.531 15.531 0 0 0 6.936-3.576 10.389 10.389 0 0 0 2.64-6.5zm22.128-7.608v2.424h6.648V23.92q0 1.224-1.368 1.224c-1.032 0-2.112-.072-3.264-.168l.552 2.448h3.576q3.024 0 3.024-2.88V12.136h2.4V9.712h-2.4V5.248h-2.52v4.464zm-8.18 1.752-1.7 1.608c1.632 1.824 3.1 3.576 4.392 5.3a18.727 18.727 0 0 1-5.016 5.52l1.44 2.16a25.007 25.007 0 0 0 5.016-5.64 39.67 39.67 0 0 1 1.92 3.048l1.872-1.872a52.329 52.329 0 0 0-2.5-3.576 21.406 21.406 0 0 0 1.848-8.736v-1.82h-8.52V9.88h6.336a19.952 19.952 0 0 1-1.248 6.072 95.663 95.663 0 0 0-3.84-4.488zm9.936 2.928-1.92 1.392a37.616 37.616 0 0 1 3.5 5.088l1.968-1.392a38.679 38.679 0 0 0-3.552-5.088zm14.592-3.024v4.392h4.368a19.169 19.169 0 0 1-6.312 1.848l.96 2.088a18.942 18.942 0 0 0 7.728-2.76c.288.24.576.528.864.816a31.429 31.429 0 0 1-9.384 3.432l1.224 2.112a30.384 30.384 0 0 0 9.312-4.032 5.4 5.4 0 0 1 .5.984 34.594 34.594 0 0 1-11.28 4.584l1.272 2.136a35.652 35.652 0 0 0 10.536-4.488c0 .1.024.24.024.384a2.476 2.476 0 0 1-.576 1.92 3.066 3.066 0 0 1-1.632.528c-.576.024-1.32.048-2.208.048l.768 2.28q.936 0 1.728-.072a6.192 6.192 0 0 0 3.384-1.08c.72-.672 1.08-1.9 1.08-3.624a9.5 9.5 0 0 0-.408-2.28 3.835 3.835 0 0 1 .624-.192 17.635 17.635 0 0 0 5.376 6.192l1.7-2.16a12.577 12.577 0 0 1-4.92-4.776 24.994 24.994 0 0 0 3.6-1.728l-1.656-1.9a21.573 21.573 0 0 1-5.64 2.544 12 12 0 0 0-2.352-2.808h9.024V9.9h-5.612a26.104 26.104 0 0 0 1.752-1.608V6.688h-7.224c.336-.336.672-.7 1.008-1.032l-2.64-.6a22.315 22.315 0 0 1-7.68 4.92L621 11.9c.38-.2.74-.364 1.124-.532zm8.948-1.468h-6.384c.624-.408 1.224-.84 1.824-1.3h6.264c-.58.488-1.152.92-1.704 1.3zm6.288 3.792h-5.544a9.279 9.279 0 0 0 .7-1.728h4.848zm-8.328 0H624.6v-1.724h5.376a6.749 6.749 0 0 1-.94 1.732zm26.376 3.7h2.28v2.448h-2.28zm-.168 4.584h2.448v5.088h2.28v-5.088h2.428v2.592a.463.463 0 0 1-.5.528 11.286 11.286 0 0 1-1.512-.12l.6 2.256h1.608c1.416 0 2.136-.624 2.136-1.848V10.768h-3.6a21.437 21.437 0 0 0 1.8-2.16V6.856h-5.552c.192-.336.36-.672.552-1.056l-2.424-.552a17.813 17.813 0 0 1-4.536 5.9L652.508 13c.192-.168.408-.336.6-.528v7.3a10.9 10.9 0 0 1-1.68 6.048l1.824 1.632a12.314 12.314 0 0 0 1.992-5.476zm3.192-11.208h-3.672c.456-.576.912-1.176 1.368-1.824H660a20.519 20.519 0 0 1-1.564 1.824zm3.96 9.072h-2.424v-2.448h2.428zm0-4.608h-2.424v-2.28h2.428zm-4.7-2.28v2.28h-2.28v-2.28zm-13.828-6.576v2.4h2.376a24.2 24.2 0 0 1-3.168 8.544l1.44 2.328c.288-.432.552-.864.84-1.32V26.7h2.352v-1.56h3.936V13.5h-4.1a34.05 34.05 0 0 0 1.152-4.728h3.404v-2.4zm3.84 16.488v-7.056h1.68v7.056zm33.336-17.4a53.855 53.855 0 0 1-1.008 11.208 16.1 16.1 0 0 1-5.328 8.64l1.7 2.088a17.668 17.668 0 0 0 6.1-10.224c.048-.192.072-.408.12-.624a34.058 34.058 0 0 0 5.352 10.776l1.82-2.088c-3.072-3.48-5.232-8.136-6.432-13.968.144-1.776.216-3.72.216-5.808zm-10.392-.024-1.776 1.728a21.97 21.97 0 0 1 3.936 3.528l1.728-1.752a33.615 33.615 0 0 0-3.888-3.504zm-3.336 6.936v2.4h3.284v8.28a1.614 1.614 0 0 1-.648 1.32l.96 2.232a36.97 36.97 0 0 0 4.992-3.864l-.672-2.568a38.475 38.475 0 0 1-2.208 1.992v-9.792z" transform="translate(30 33)"/>
        </g>
        <g id="fc_box_medium_link" transform="translate(977 1947)">
            <g transform="translate(-684 -1000)" style="filter:url(#box-4)">
                <g id="box-11" data-name="box" class="cls-4">
                    <path class="cls-11" d="M0 0h538v130H0z" transform="translate(684 1000)"/>
                    <path class="cls-13" d="M1 1h536v128H1z" transform="translate(684 1000)"/>
                </g>
            </g>
            <g id="fc_textlink-3" data-name="fc_textlink" transform="translate(386 76)">
                <g id="stack-3" data-name="stack" transform="translate(-2524.094 20210)">
                    <g id="ico_fc_go_tab" transform="translate(2431.094 -20209)">
                        <path id="패스_7163" data-name="패스 7163" class="cls-7" d="m8.62 5.071 5 5-5 5" transform="translate(-2.62 -.072)"/>
                    </g>
                    <path id="패스_10717" data-name="패스 10717" class="cls-8" d="M-28.864-7.184v6.048h9.792v-6.048zm8.32 4.7h-6.848v-1.004h6.848zm-6.848-2.288V-5.84h6.848v1.072zm-3.2-7.04v1.412h4.56a15.673 15.673 0 0 1-5.344 2.352l.816 1.348a13.56 13.56 0 0 0 5.86-3.668v2.7h1.472v-2.72a12.6 12.6 0 0 0 5.92 3.68l.656-1.376a13.57 13.57 0 0 1-5.216-2.32h4.528v-1.408h-5.888v-1.344H-24.7v1.344zm-.32 11.632v1.396h13.84V-.176zm16.8-10.128v1.3h4.336c-.16.256-.352.528-.544.8h-4.656v1.344h3.568a22.321 22.321 0 0 1-3.984 3.376l.816 1.3A26.871 26.871 0 0 0-12.224-4v5.664h1.44v-.608h6.928v.608h1.44v-7.728h-7.76c.208-.256.416-.528.64-.8H-.9v-1.344h-7.74c.16-.256.3-.528.464-.8h6.352v-1.3h-5.744q.168-.432.336-.912a42.4 42.4 0 0 0 5.312-.72l-.7-1.2a61.528 61.528 0 0 1-11.392.9l.432 1.248c1.728 0 3.36-.048 4.864-.128-.112.272-.224.544-.352.816zm3.328 7.408h6.928v.752h-6.928zm6.928-1.152h-6.928v-.784h6.928zm-6.928 3.06h6.928v.816h-6.928zM1.072-12.576v1.424h6.176v1.1H2.4v6.576h4.592A5.555 5.555 0 0 1 6.3-1.824a14 14 0 0 1-2.24-1.424l-1.168.8A14.869 14.869 0 0 0 5.248-.832 10.3 10.3 0 0 1 .64.288L1.3 1.68A11 11 0 0 0 6.736-.1a22.944 22.944 0 0 0 8.352 1.8l.384-1.476A23.3 23.3 0 0 1 7.712-1.2a6.617 6.617 0 0 0 .816-2.272h5.12v-6.576h-4.9v-1.1h6.192v-1.424zM12.144-4.8H8.7a9.269 9.269 0 0 0 .048-.976v-.384h3.392zM7.2-4.8H3.9v-1.36h3.348v.384c0 .32-.016.656-.048.976zM3.9-7.408v-1.344h3.348v1.344zm4.852-1.344h3.392v1.344H8.752zM23.776-13.2a11.209 11.209 0 0 1-6.336 2.976l.9 1.392a14.792 14.792 0 0 0 4.38-1.648h4.3a8.266 8.266 0 0 1-3.488 2.64 21.069 21.069 0 0 0-1.52-1.632l-1.312.624a15.69 15.69 0 0 1 1.412 1.488 17.766 17.766 0 0 1-3.6.544l.64 1.376c4.688-.384 7.888-2.128 9.616-5.2v-1.184H24.5c.208-.208.416-.432.64-.672zm-.256 10-1.344.64a16.586 16.586 0 0 1 1.536 1.744 21.082 21.082 0 0 1-6.24.816l.608 1.456q9.36-.24 12.784-5.856v-1.184h-4.08a9.249 9.249 0 0 0 .928-.848l-1.3-.7c-1.632 1.728-4.208 2.752-7.7 3.088l.912 1.36a21.8 21.8 0 0 0 4.9-1.52h4.384a9.622 9.622 0 0 1-3.76 2.848A19.989 19.989 0 0 0 23.52-3.2zM-32 3h64v1h-64z" transform="translate(2395.094 -20194)"/>
                </g>
            </g>
            <path id="패스_10716" data-name="패스 10716" class="cls-3" d="m126.848 5.392-2.3 1.1a28.836 28.836 0 0 1 2.4 3.5h-4.992v2.448h7.776v.576a20.619 20.619 0 0 1-.36 3.12h-8.784v2.448h8.064a11.472 11.472 0 0 1-1.056 2.016c-1.3 1.8-3.768 3.312-7.464 4.512L121.5 27.3q5.544-1.728 7.992-4.968A15.14 15.14 0 0 0 131 19.576q2.124 4.932 9.528 7.968l1.488-2.376c-4.752-1.632-7.728-3.816-8.88-6.576h8.28v-2.448h-9.48a24.366 24.366 0 0 0 .336-3.12v-.576h7.752V10h-4.44a21.541 21.541 0 0 0 1.9-4.1l-2.448-.672a23.252 23.252 0 0 1-2.26 4.772h-4.728l1.392-.7a46.077 46.077 0 0 0-2.592-3.908zm18.936.648v2.448h8.16v5.568H144.3v2.5h9.648v7.416c0 .648-.36.984-1.08.984-1.1 0-2.28-.048-3.5-.144l.528 2.424h3.84c1.824 0 2.736-.888 2.736-2.616v-8.068h9.24v-2.5h-9.24V8.488h7.584V6.04zm29.016-.984a22.126 22.126 0 0 1-6.936 6.84l1.7 2.04c.456-.312.912-.648 1.392-1.008v4.128c-.1 3.744-1.08 6.672-2.976 8.76l2.016 1.8c2.208-2.64 3.384-6.168 3.48-10.56v-3.528h15.936V11.08h-6.332a21.751 21.751 0 0 0 2.28-2.38V6.928h-8.808c.288-.432.552-.864.84-1.3zm5.112 6.024H173.1c.648-.624 1.272-1.32 1.9-2.04h7.1a43.42 43.42 0 0 1-2.188 2.04zm3.888 6.7v1.58c0 .624-.288.96-.816.96q-1.116 0-2.664-.144l.6 2.328c.984.048 2.016.1 3.1.1a2.18 2.18 0 0 0 2.328-2.376v-4.66h-10.636V24.9c0 1.512.84 2.28 2.544 2.28h8.064a4.39 4.39 0 0 0 2.736-.624c.48-.432.816-1.776 1.056-3.984l-2.376-.768a9.108 9.108 0 0 1-.5 2.472c-.192.384-.768.6-1.68.6h-6.144c-.768 0-1.152-.312-1.152-.912v-6.188zm11.928-3.888v1.9h6v1.1h-9.216V19h9.216v.792h2.544V19h9.24v-2.112h-9.24v-1.1h6.028v-1.9h-6.024v-1.032h7.344v-1.464h1.48V6.88h-8.688q-.324-1.008-.648-1.8l-2.688.432q.36.648.72 1.368h-8.856v4.968h1.44v1.008h7.344v1.032zm14.928-3.024h-6.384V9.88h-2.544v.984h-6.336v-1.68h15.264zm.384 9.432h-16.056v7.2h2.448v-.82h11.16v.82h2.448zm-13.608 4.272v-2.16h11.16v2.16zm19.08-14.544a32.019 32.019 0 0 1-.84 6.408l2.016.576a38.764 38.764 0 0 0 .744-6.84zm6.72-.6-1.728.552V5.344h-2.52v22.08h2.52V10.216a37.822 37.822 0 0 1 1.176 4.032l.936-.24c-.144.288-.288.576-.432.888l1.872 1.656a19.876 19.876 0 0 0 1.8-4.536h3.072v5.112h-5.3v2.448h5.3v4.872h-6.576v2.424h14.712v-2.424h-5.592v-4.872h4.728v-2.448h-4.728v-5.112h4.944V9.592h-4.944v-4.2h-2.544v4.2h-2.592c.1-.768.144-1.536.192-2.352l-2.28-.312a21.244 21.244 0 0 1-.984 5.448 28.23 28.23 0 0 0-1.032-2.952zm25.776-.24h-3.648a22.114 22.114 0 0 0 1.056-3.624l-2.52-.336a21.637 21.637 0 0 1-.936 3.96h-2.3V26.7h2.4v-1.9h3.552V26h2.4zM243.056 22.5v-4.532h3.552V22.5zm0-6.768v-4.2h3.552v4.2zm10.32-.72-2.04 1.272a43.7 43.7 0 0 1 3.576 5.256l2.016-1.392a41.224 41.224 0 0 0-3.552-5.132zm7.992-5.832h-7.3a31.576 31.576 0 0 0 .912-3.672l-2.468-.308a20.443 20.443 0 0 1-3.216 8.328l1.512 1.992a19.329 19.329 0 0 0 2.3-3.888h5.808c-.048 6.792-.12 10.752-.264 11.9a1.436 1.436 0 0 1-1.512 1.416c-.792 0-1.728-.048-2.784-.12l.6 2.28q1.872.144 2.592.144 3.1 0 3.456-2.52.364-2.948.364-15.548zm4.656-3.624-1.248 1.848a17.248 17.248 0 0 1 3.864 1.848l1.344-2.016a21.125 21.125 0 0 0-3.96-1.676zm7.152-.384a8.07 8.07 0 0 1-3 4.08l1.488 1.944a12.941 12.941 0 0 0 2.208-2.232h2.4a5.432 5.432 0 0 1-1.56 2.52 11.2 11.2 0 0 1-4.824 1.92l.936 2.232c2.76-.648 4.7-1.536 5.808-2.688.216-.24.432-.5.672-.792 1.512 1.728 3.936 2.928 7.3 3.624l.888-2.184c-3.5-.624-5.88-1.776-7.152-3.408.12-.384.24-.792.336-1.224h3.24a10.889 10.889 0 0 1-.864 2.064l2.4.72a27.3 27.3 0 0 0 1.032-3.48V6.784h-9.336a10.387 10.387 0 0 0 .5-1.3zM282.9 15.9h-15.84v7.464h2.5v-5.132h10.824v4.848h2.52zm-9 2.88c-.168 2.256-.768 3.864-1.824 4.8q-1.8 1.4-7.416 1.656l1.008 2.28c4.536-.384 7.392-1.2 8.568-2.472 1.1-.96 1.848-3 2.184-6.072zm-4.944-8.592a23.1 23.1 0 0 1-4.656 3.12l1.632 1.944a22.581 22.581 0 0 0 4.464-3.36zm7.872 12.7-1.272 1.9a46.493 46.493 0 0 1 8.4 2.928l1.344-2.088a54.009 54.009 0 0 0-8.476-2.74zm13.46-15.624-2.064.672a34.325 34.325 0 0 1 1.392 4.848l1.92-.528a39.815 39.815 0 0 0-1.248-4.992zm5.88-.24a21.15 21.15 0 0 1-.864 4.992l1.848.6a19.017 19.017 0 0 0 1.1-5.3zm-7.992 6.456v2.42h3.84a17.885 17.885 0 0 1-4.224 5.5l1.056 2.616a24.972 24.972 0 0 0 3.36-5.136v8.568h2.52v-8.76c.552.816 1.2 1.848 1.92 3.048l1.488-2.232a45.988 45.988 0 0 0-3.408-3.168V15.9h3.312v-2.42h-3.312V5.368h-2.52v8.112zm16.944-8.088v13.656l-6.864 1.032.36 2.5 6.5-.984v5.856h2.472v-6.24l2.616-.384-.432-2.5-2.184.336V5.392zm-4.2 1.56-1.656 1.608a23.108 23.108 0 0 1 3.792 3.528l1.7-1.7a27.778 27.778 0 0 0-3.836-3.436zm-.576 5.64-1.68 1.584a23.688 23.688 0 0 1 3.744 3.624l1.7-1.728a28.336 28.336 0 0 0-3.764-3.48zm19.32-5.784v2.136h5.616c-.048.336-.12.672-.168 1.056h-4.224v10.944h-1.872v-2.016c-.672.288-1.368.576-2.088.84v-6.5h2.184v-2.356h-2.184v-5.52H314.5v5.52h-2.4v2.352h2.4v7.224a26.406 26.406 0 0 1-2.664.576l.624 2.424a50.5 50.5 0 0 0 6.36-2.016v1.68h4.488a20.619 20.619 0 0 1-4.68 2.664l1.464 1.872a21.05 21.05 0 0 0 5.136-3.312l-1.416-1.224h5.4l-1.32 1.224a27.837 27.837 0 0 1 4.56 3.288l1.512-1.728a24.467 24.467 0 0 0-4.248-2.784h4.488v-2.208h-2.04V10h-4.68c.048-.336.12-.7.168-1.056h5.712V6.808h-5.424l.144-1.32-2.424-.336-.144 1.656zm3.576 14.136v-1.032h6.576v1.032zm0-2.736v-.984h6.576v.984zm0-2.664v-.96h6.576v.96zm0-2.664v-.96h6.576v.96zm20.328.624h9.984v-2.352h-9.432c.144-.6.264-1.224.408-1.9l-2.472-.24a92.008 92.008 0 0 1-2.352 9.24H353.1c-.072 3.7-.288 5.784-.624 6.216a2.993 2.993 0 0 1-2.208.624c-.864 0-1.824-.024-2.832-.072l.72 2.328h2.016c2.184 0 3.624-.408 4.3-1.176s1.048-4.172 1.144-10.22h-12.768q.36-1.152.72-2.452zm-6.936 6.84v2.4h14.5v-2.4zm20.28-14.256h-19.824V11.7h2.472V8.44h14.88v3.288h2.472z" transform="translate(30 33)"/>
        </g>
        <g id="fc_box_medium_link-2" data-name="fc_box_medium_link" transform="translate(977 1767)">
            <g transform="translate(-684 -820)" style="filter:url(#box-5)">
                <g id="box-12" data-name="box" class="cls-4">
                    <path class="cls-11" d="M0 0h538v130H0z" transform="translate(684 820)"/>
                    <path class="cls-13" d="M1 1h536v128H1z" transform="translate(684 820)"/>
                </g>
            </g>
            <g id="fc_textlink-4" data-name="fc_textlink" transform="translate(386 76)">
                <g id="stack-4" data-name="stack" transform="translate(-2524.094 20210)">
                    <g id="ico_fc_go_tab-2" data-name="ico_fc_go_tab" transform="translate(2431.094 -20209)">
                        <path id="패스_7163-2" data-name="패스 7163" class="cls-7" d="m8.62 5.071 5 5-5 5" transform="translate(-2.62 -.072)"/>
                    </g>
                    <path id="패스_10715" data-name="패스 10715" class="cls-8" d="M-28.864-7.184v6.048h9.792v-6.048zm8.32 4.7h-6.848v-1.004h6.848zm-6.848-2.288V-5.84h6.848v1.072zm-3.2-7.04v1.412h4.56a15.673 15.673 0 0 1-5.344 2.352l.816 1.348a13.56 13.56 0 0 0 5.86-3.668v2.7h1.472v-2.72a12.6 12.6 0 0 0 5.92 3.68l.656-1.376a13.57 13.57 0 0 1-5.216-2.32h4.528v-1.408h-5.888v-1.344H-24.7v1.344zm-.32 11.632v1.396h13.84V-.176zm16.8-10.128v1.3h4.336c-.16.256-.352.528-.544.8h-4.656v1.344h3.568a22.321 22.321 0 0 1-3.984 3.376l.816 1.3A26.871 26.871 0 0 0-12.224-4v5.664h1.44v-.608h6.928v.608h1.44v-7.728h-7.76c.208-.256.416-.528.64-.8H-.9v-1.344h-7.74c.16-.256.3-.528.464-.8h6.352v-1.3h-5.744q.168-.432.336-.912a42.4 42.4 0 0 0 5.312-.72l-.7-1.2a61.528 61.528 0 0 1-11.392.9l.432 1.248c1.728 0 3.36-.048 4.864-.128-.112.272-.224.544-.352.816zm3.328 7.408h6.928v.752h-6.928zm6.928-1.152h-6.928v-.784h6.928zm-6.928 3.06h6.928v.816h-6.928zM1.072-12.576v1.424h6.176v1.1H2.4v6.576h4.592A5.555 5.555 0 0 1 6.3-1.824a14 14 0 0 1-2.24-1.424l-1.168.8A14.869 14.869 0 0 0 5.248-.832 10.3 10.3 0 0 1 .64.288L1.3 1.68A11 11 0 0 0 6.736-.1a22.944 22.944 0 0 0 8.352 1.8l.384-1.476A23.3 23.3 0 0 1 7.712-1.2a6.617 6.617 0 0 0 .816-2.272h5.12v-6.576h-4.9v-1.1h6.192v-1.424zM12.144-4.8H8.7a9.269 9.269 0 0 0 .048-.976v-.384h3.392zM7.2-4.8H3.9v-1.36h3.348v.384c0 .32-.016.656-.048.976zM3.9-7.408v-1.344h3.348v1.344zm4.852-1.344h3.392v1.344H8.752zM23.776-13.2a11.209 11.209 0 0 1-6.336 2.976l.9 1.392a14.792 14.792 0 0 0 4.38-1.648h4.3a8.266 8.266 0 0 1-3.488 2.64 21.069 21.069 0 0 0-1.52-1.632l-1.312.624a15.69 15.69 0 0 1 1.412 1.488 17.766 17.766 0 0 1-3.6.544l.64 1.376c4.688-.384 7.888-2.128 9.616-5.2v-1.184H24.5c.208-.208.416-.432.64-.672zm-.256 10-1.344.64a16.586 16.586 0 0 1 1.536 1.744 21.082 21.082 0 0 1-6.24.816l.608 1.456q9.36-.24 12.784-5.856v-1.184h-4.08a9.249 9.249 0 0 0 .928-.848l-1.3-.7c-1.632 1.728-4.208 2.752-7.7 3.088l.912 1.36a21.8 21.8 0 0 0 4.9-1.52h4.384a9.622 9.622 0 0 1-3.76 2.848A19.989 19.989 0 0 0 23.52-3.2zM-32 3h64v1h-64z" transform="translate(2395.094 -20194)"/>
                </g>
            </g>
            <path id="패스_10714" data-name="패스 10714" class="cls-3" d="M158.348 6.028h-6.041V23h5.983c5.171 0 8.3-3.2 8.3-8.5-.004-5.29-3.129-8.472-8.242-8.472zm-2.519 13.948V9.052h2.329c3.207 0 4.906 1.666 4.906 5.445 0 3.8-1.7 5.478-4.923 5.478zm18.564-9.87c-3.381 0-5.3 1.74-5.5 3.953h3.29a1.925 1.925 0 0 1 2.13-1.409c1.285 0 2.014.613 2.022 1.691v1.028c-.53.017-2.254.091-3.157.149-2.445.157-4.732 1.077-4.732 3.928 0 2.511 1.807 3.8 4.235 3.8a3.906 3.906 0 0 0 3.721-2.006h.1V23h3.29v-8.577c-.005-3.067-2.624-4.323-5.4-4.323zm-.729 10.724c-1.11 0-1.9-.506-1.9-1.492s.762-1.55 1.972-1.649c.6-.058 2.1-.141 2.611-.166v.928a2.463 2.463 0 0 1-2.684 2.378zm14.287-.456c-.713-.025-1.21-.265-1.21-1.276v-6.217h2.4v-2.61h-2.4v-3.05h-3.472v3.05h-1.749v2.61h1.749v6.688c-.017 2.478 1.691 3.6 4.21 3.6a11.971 11.971 0 0 0 1.831-.124v-2.73c-.41.025-1.02.066-1.36.058zM196.66 10.1c-3.381 0-5.3 1.74-5.5 3.953h3.29a1.925 1.925 0 0 1 2.13-1.409c1.285 0 2.014.613 2.022 1.691v1.028c-.53.017-2.254.091-3.157.149-2.445.157-4.732 1.077-4.732 3.928 0 2.511 1.807 3.8 4.235 3.8a3.906 3.906 0 0 0 3.721-2.006h.1V23h3.29v-8.577c-.004-3.067-2.623-4.323-5.399-4.323zm-.729 10.724c-1.11 0-1.9-.506-1.9-1.492s.762-1.55 1.972-1.649c.6-.058 2.1-.141 2.611-.166v.928a2.463 2.463 0 0 1-2.683 2.384zm22.3-4.218h3.669c-.05 2.138-1.5 3.5-3.9 3.5-2.71 0-4.442-2.022-4.442-5.61 0-3.564 1.782-5.577 4.4-5.577a3.488 3.488 0 0 1 3.6 2.577h3.588c-.472-3.348-3.423-5.7-7.251-5.7-4.475 0-7.914 3.232-7.914 8.735 0 5.37 3.224 8.7 7.989 8.7 4.276 0 7.334-2.71 7.334-7.169v-2.12h-7.077zm14.935-6.506c-3.381 0-5.3 1.74-5.5 3.953h3.29a1.925 1.925 0 0 1 2.13-1.409c1.285 0 2.014.613 2.022 1.691v1.028c-.53.017-2.254.091-3.157.149-2.445.157-4.732 1.077-4.732 3.928 0 2.511 1.807 3.8 4.235 3.8a3.906 3.906 0 0 0 3.721-2.006h.1V23h3.29v-8.577c-.004-3.067-2.623-4.323-5.399-4.323zm-.729 10.724c-1.11 0-1.9-.506-1.9-1.492s.762-1.55 1.972-1.649c.6-.058 2.1-.141 2.611-.166v.928a2.463 2.463 0 0 1-2.684 2.384zm12.232 6.945v-6.8h.108a3.776 3.776 0 0 0 3.622 2.238c2.909 0 5.171-2.3 5.171-6.555 0-4.359-2.354-6.547-5.171-6.547a3.753 3.753 0 0 0-3.622 2.3h-.157v-2.134h-3.42v17.5zm-.075-11.138c0-2.3.97-3.754 2.718-3.754 1.773 0 2.71 1.525 2.71 3.754 0 2.246-.953 3.8-2.71 3.8-1.732.008-2.718-1.508-2.718-3.796zM264.931 23v-7.036h6.92v-2.909h-6.92v-4.11h7.669V6.028h-11.191V23zm11.644-14.4a1.833 1.833 0 0 0 1.889-1.765 1.894 1.894 0 0 0-3.779 0 1.833 1.833 0 0 0 1.89 1.765zm1.732 14.4V10.271h-3.472V23zm2.7-16.972V23h3.472V6.028zm6.174 0V23h3.472V6.028zM295.1 8.6a1.833 1.833 0 0 0 1.889-1.765 1.894 1.894 0 0 0-3.779 0A1.833 1.833 0 0 0 295.1 8.6zm1.729 14.4V10.271h-3.472V23zM303 15.633a2.373 2.373 0 0 1 2.445-2.644 2.2 2.2 0 0 1 2.279 2.511V23h3.476v-8.1c0-2.975-1.732-4.79-4.384-4.79a3.843 3.843 0 0 0-3.829 2.4h-.149v-2.239h-3.308V23H303zm16.583 12.406c3.622 0 6.182-1.649 6.182-4.906V10.271h-3.431v2.138h-.134a3.77 3.77 0 0 0-3.638-2.3c-2.809 0-5.171 2.146-5.171 6.456 0 4.235 2.3 6.257 5.18 6.257a3.718 3.718 0 0 0 3.638-2.08h.149v2.345c0 1.765-1.077 2.445-2.693 2.445-1.376 0-2.337-.456-2.528-1.483h-3.427c.207 2.415 2.37 3.99 5.876 3.99zm.066-7.831c-1.765 0-2.718-1.4-2.718-3.613 0-2.188.936-3.713 2.718-3.713 1.732 0 2.71 1.459 2.71 3.713s-.992 3.612-2.707 3.612z" transform="translate(30 33)"/>
        </g>
        <g id="fc_box_medium_link-3" data-name="fc_box_medium_link" transform="translate(977 1587)">
            <g transform="translate(-684 -640)" style="filter:url(#box-6)">
                <g id="box-13" data-name="box" class="cls-4">
                    <path class="cls-11" d="M0 0h538v130H0z" transform="translate(684 640)"/>
                    <path class="cls-13" d="M1 1h536v128H1z" transform="translate(684 640)"/>
                </g>
            </g>
            <g id="fc_textlink-5" data-name="fc_textlink" transform="translate(386 76)">
                <g id="stack-5" data-name="stack" transform="translate(-2524.094 20210)">
                    <g id="ico_fc_go_tab-3" data-name="ico_fc_go_tab" transform="translate(2431.094 -20209)">
                        <path id="패스_7163-3" data-name="패스 7163" class="cls-7" d="m8.62 5.071 5 5-5 5" transform="translate(-2.62 -.072)"/>
                    </g>
                    <path id="패스_10713" data-name="패스 10713" class="cls-8" d="M-28.864-7.184v6.048h9.792v-6.048zm8.32 4.7h-6.848v-1.004h6.848zm-6.848-2.288V-5.84h6.848v1.072zm-3.2-7.04v1.412h4.56a15.673 15.673 0 0 1-5.344 2.352l.816 1.348a13.56 13.56 0 0 0 5.86-3.668v2.7h1.472v-2.72a12.6 12.6 0 0 0 5.92 3.68l.656-1.376a13.57 13.57 0 0 1-5.216-2.32h4.528v-1.408h-5.888v-1.344H-24.7v1.344zm-.32 11.632v1.396h13.84V-.176zm16.8-10.128v1.3h4.336c-.16.256-.352.528-.544.8h-4.656v1.344h3.568a22.321 22.321 0 0 1-3.984 3.376l.816 1.3A26.871 26.871 0 0 0-12.224-4v5.664h1.44v-.608h6.928v.608h1.44v-7.728h-7.76c.208-.256.416-.528.64-.8H-.9v-1.344h-7.74c.16-.256.3-.528.464-.8h6.352v-1.3h-5.744q.168-.432.336-.912a42.4 42.4 0 0 0 5.312-.72l-.7-1.2a61.528 61.528 0 0 1-11.392.9l.432 1.248c1.728 0 3.36-.048 4.864-.128-.112.272-.224.544-.352.816zm3.328 7.408h6.928v.752h-6.928zm6.928-1.152h-6.928v-.784h6.928zm-6.928 3.06h6.928v.816h-6.928zM1.072-12.576v1.424h6.176v1.1H2.4v6.576h4.592A5.555 5.555 0 0 1 6.3-1.824a14 14 0 0 1-2.24-1.424l-1.168.8A14.869 14.869 0 0 0 5.248-.832 10.3 10.3 0 0 1 .64.288L1.3 1.68A11 11 0 0 0 6.736-.1a22.944 22.944 0 0 0 8.352 1.8l.384-1.476A23.3 23.3 0 0 1 7.712-1.2a6.617 6.617 0 0 0 .816-2.272h5.12v-6.576h-4.9v-1.1h6.192v-1.424zM12.144-4.8H8.7a9.269 9.269 0 0 0 .048-.976v-.384h3.392zM7.2-4.8H3.9v-1.36h3.348v.384c0 .32-.016.656-.048.976zM3.9-7.408v-1.344h3.348v1.344zm4.852-1.344h3.392v1.344H8.752zM23.776-13.2a11.209 11.209 0 0 1-6.336 2.976l.9 1.392a14.792 14.792 0 0 0 4.38-1.648h4.3a8.266 8.266 0 0 1-3.488 2.64 21.069 21.069 0 0 0-1.52-1.632l-1.312.624a15.69 15.69 0 0 1 1.412 1.488 17.766 17.766 0 0 1-3.6.544l.64 1.376c4.688-.384 7.888-2.128 9.616-5.2v-1.184H24.5c.208-.208.416-.432.64-.672zm-.256 10-1.344.64a16.586 16.586 0 0 1 1.536 1.744 21.082 21.082 0 0 1-6.24.816l.608 1.456q9.36-.24 12.784-5.856v-1.184h-4.08a9.249 9.249 0 0 0 .928-.848l-1.3-.7c-1.632 1.728-4.208 2.752-7.7 3.088l.912 1.36a21.8 21.8 0 0 0 4.9-1.52h4.384a9.622 9.622 0 0 1-3.76 2.848A19.989 19.989 0 0 0 23.52-3.2zM-32 3h64v1h-64z" transform="translate(2395.094 -20194)"/>
                </g>
            </g>
            <path id="패스_10712" data-name="패스 10712" class="cls-3" d="M143.588 6.028h-6.041V23h5.983c5.171 0 8.3-3.2 8.3-8.5-.004-5.29-3.13-8.472-8.242-8.472zm-2.519 13.948V9.052h2.331c3.207 0 4.906 1.666 4.906 5.445 0 3.8-1.7 5.478-4.923 5.478zm18.564-9.87c-3.381 0-5.3 1.74-5.5 3.953h3.29a1.925 1.925 0 0 1 2.13-1.409c1.285 0 2.014.613 2.022 1.691v1.028c-.53.017-2.254.091-3.157.149-2.445.157-4.732 1.077-4.732 3.928 0 2.511 1.807 3.8 4.235 3.8a3.906 3.906 0 0 0 3.721-2.006h.1V23h3.29v-8.577c-.004-3.067-2.623-4.323-5.399-4.323zm-.733 10.723c-1.11 0-1.9-.506-1.9-1.492s.762-1.55 1.972-1.649c.6-.058 2.1-.141 2.611-.166v.928a2.463 2.463 0 0 1-2.683 2.379zm14.287-.456c-.713-.025-1.21-.265-1.21-1.276v-6.216h2.4v-2.61h-2.4v-3.05h-3.472v3.05h-1.745v2.61h1.749v6.688c-.017 2.478 1.691 3.6 4.21 3.6a11.971 11.971 0 0 0 1.831-.124v-2.73c-.415.025-1.02.066-1.359.058zM181.9 10.1c-3.381 0-5.3 1.74-5.5 3.953h3.29a1.925 1.925 0 0 1 2.13-1.409c1.285 0 2.014.613 2.022 1.691v1.028c-.53.017-2.254.091-3.157.149-2.445.157-4.732 1.077-4.732 3.928 0 2.511 1.807 3.8 4.235 3.8a3.906 3.906 0 0 0 3.721-2.006h.1V23h3.29v-8.577c.001-3.067-2.622-4.323-5.399-4.323zm-.729 10.724c-1.11 0-1.9-.506-1.9-1.492s.762-1.55 1.972-1.649c.6-.058 2.1-.141 2.611-.166v.928a2.463 2.463 0 0 1-2.683 2.384zm22.3-4.218h3.671c-.05 2.138-1.5 3.5-3.9 3.5-2.71 0-4.442-2.022-4.442-5.61 0-3.564 1.782-5.577 4.4-5.577a3.488 3.488 0 0 1 3.6 2.577h3.588c-.472-3.348-3.423-5.7-7.251-5.7-4.475 0-7.914 3.232-7.914 8.735 0 5.37 3.224 8.7 7.989 8.7 4.276 0 7.334-2.71 7.334-7.169v-2.12h-7.077zm14.935-6.506c-3.381 0-5.3 1.74-5.5 3.953h3.29a1.925 1.925 0 0 1 2.13-1.409c1.285 0 2.014.613 2.022 1.691v1.028c-.53.017-2.254.091-3.157.149-2.445.157-4.732 1.077-4.732 3.928 0 2.511 1.807 3.8 4.235 3.8a3.906 3.906 0 0 0 3.721-2.006h.1V23h3.29v-8.577c-.005-3.067-2.623-4.323-5.399-4.323zm-.729 10.724c-1.11 0-1.9-.506-1.9-1.492s.762-1.55 1.972-1.649c.6-.058 2.1-.141 2.611-.166v.928a2.463 2.463 0 0 1-2.683 2.384zm12.232 6.945v-6.8h.108a3.776 3.776 0 0 0 3.622 2.238c2.909 0 5.171-2.3 5.171-6.555 0-4.359-2.354-6.547-5.171-6.547a3.753 3.753 0 0 0-3.622 2.3h-.157v-2.134h-3.423v17.5zm-.075-11.138c0-2.3.97-3.754 2.718-3.754 1.773 0 2.71 1.525 2.71 3.754 0 2.246-.953 3.8-2.71 3.8-1.732.008-2.718-1.508-2.718-3.796zM261.964 23 256.1 6.028h-4.533L245.7 23h3.779l1.276-3.912h6.157L258.185 23zm-8.2-13.144h.133l2.113 6.472h-4.359zm13.508 5.776a2.373 2.373 0 0 1 2.445-2.644 2.2 2.2 0 0 1 2.279 2.511V23h3.472v-8.1c0-2.975-1.732-4.79-4.384-4.79a3.843 3.843 0 0 0-3.829 2.4h-.155v-2.239h-3.3V23h3.472zm16.214-5.532c-3.381 0-5.3 1.74-5.5 3.953h3.29a1.925 1.925 0 0 1 2.13-1.409c1.285 0 2.014.613 2.022 1.691v1.028c-.53.017-2.254.091-3.157.149-2.445.157-4.732 1.077-4.732 3.928 0 2.511 1.807 3.8 4.235 3.8a3.906 3.906 0 0 0 3.721-2.006h.1V23h3.29v-8.577c-.004-3.067-2.623-4.323-5.399-4.323zm-.729 10.724c-1.111 0-1.9-.506-1.9-1.492s.762-1.55 1.972-1.649c.6-.058 2.1-.141 2.611-.166v.928a2.463 2.463 0 0 1-2.683 2.384zm8.76-14.8V23h3.472V6.028zm8.221 21.746a4.6 4.6 0 0 0 4.8-3.373l4.964-14.13h-3.671l-2.693 9.381H303l-2.669-9.381h-3.651l4.575 13.086-.2.539a1.481 1.481 0 0 1-1.674 1.16c-.431 0-.961-.008-1.4-.041l-.008 2.7a19.25 19.25 0 0 0 1.765.062zm21.978-13.715c-.182-2.428-2.171-3.953-5.4-3.953-3.273 0-5.37 1.525-5.362 3.97-.008 1.881 1.235 3.133 3.671 3.613l2.1.414c1.193.249 1.724.655 1.732 1.318-.008.82-.845 1.318-2.1 1.318-1.285 0-2.088-.514-2.262-1.508h-3.481c.282 2.486 2.3 4.019 5.743 4.019 3.381 0 5.627-1.674 5.635-4.177-.008-1.84-1.2-2.942-3.663-3.448l-2.3-.464c-1.193-.257-1.641-.7-1.633-1.285-.008-.762.845-1.293 1.972-1.293a1.887 1.887 0 0 1 2.088 1.475zm4.151-5.455a1.833 1.833 0 0 0 1.889-1.765 1.894 1.894 0 0 0-3.779 0 1.833 1.833 0 0 0 1.89 1.765zM327.6 23V10.271h-3.472V23zm13.226-8.942c-.182-2.428-2.171-3.953-5.4-3.953-3.273 0-5.37 1.525-5.362 3.97-.008 1.881 1.235 3.133 3.671 3.613l2.1.414c1.193.249 1.724.655 1.732 1.318-.008.82-.845 1.318-2.1 1.318-1.285 0-2.088-.514-2.262-1.508h-3.481c.282 2.486 2.3 4.019 5.743 4.019 3.381 0 5.627-1.674 5.635-4.177-.008-1.84-1.2-2.942-3.663-3.448l-2.3-.464c-1.193-.257-1.641-.7-1.633-1.285-.008-.762.845-1.293 1.972-1.293a1.887 1.887 0 0 1 2.088 1.475z" transform="translate(30 33)"/>
        </g>
        <g id="fc_box_medium" transform="translate(407 1947)">
            <g transform="translate(-114 -1000)" style="filter:url(#box-7)">
                <g id="box-14" data-name="box" class="cls-4">
                    <path class="cls-11" d="M0 0h538v130H0z" transform="translate(114 1000)"/>
                    <path class="cls-13" d="M1 1h536v128H1z" transform="translate(114 1000)"/>
                </g>
            </g>
            <path id="패스_10718" data-name="패스 10718" class="cls-3" d="M180.344 12.256v2.256h5.64a19.623 19.623 0 0 1-6.12 2.712l1.128 2.232a21.67 21.67 0 0 0 8.3-4.944h4.2c1.56 1.992 4.08 3.624 7.536 4.872l1.08-2.28a16.109 16.109 0 0 1-5.832-2.592h5.3v-2.256h-10.56a11.05 11.05 0 0 0 .744-1.512c1.68-.1 3.336-.168 4.92-.264.5.48.96.96 1.392 1.44l2.088-1.44a46.44 46.44 0 0 0-5.368-4.58l-1.92 1.224c.576.456 1.1.912 1.632 1.368-2.376.144-4.8.264-7.248.36a32.856 32.856 0 0 0 3.528-2.952l-2.472-.84c-2.544 2.4-4.488 3.672-5.808 3.816l.36 2.16c2.184-.048 4.3-.12 6.312-.192a9.546 9.546 0 0 1-.84 1.416zm10.44 2.592a14.491 14.491 0 0 1-6.7 4.032l1.1 1.944a16.387 16.387 0 0 0 7.536-4.8zM197 18.592q-2.952 5.076-13.7 7.3l1.44 1.968q11.124-2.34 14.448-8.256zm-3.168-1.728q-3.6 4.284-10.248 5.352l1.392 1.9a18.822 18.822 0 0 0 10.8-5.952zm12.72-9.432v2.3h6.168v1.872h-7.944v2.376h8.664a44.142 44.142 0 0 1-9.648 4.032l1.032 2.256a51.956 51.956 0 0 0 5.04-1.824L208.856 22h11.9a6.269 6.269 0 0 1-.552 2.472c-.288.336-1.032.5-2.184.5-.96 0-2.064-.072-3.264-.192l.792 2.184a22.627 22.627 0 0 0 3.024.192c1.728 0 2.9-.336 3.5-.984.6-.672.984-2.784 1.176-6.36h-11.416l.6-1.776h11.928v-2.228h-9.288c.96-.576 1.872-1.2 2.76-1.824h7.824v-2.376h-4.92a31.316 31.316 0 0 0 4.032-4.508l-1.848-1.372a29.24 29.24 0 0 1-2.448 2.856V7.432h-5.256V5.248h-2.5v2.184zm10.464 4.176h-1.8V9.736h4.056a37.377 37.377 0 0 1-2.256 1.872zm17.256 4.248c.576.792 1.248 1.8 2.016 3l1.44-2.184a48.914 48.914 0 0 0-3.456-3.552v-.984h2.9V9.712h-2.9V5.3h-2.5v4.412H228.3v2.424h3.384a19.914 19.914 0 0 1-3.912 7.176l1.128 2.88a28.1 28.1 0 0 0 2.88-5.9v11.132h2.5zm11.9-6.96a25.906 25.906 0 0 1-2.856 8.688 22.3 22.3 0 0 1-2.54-8.684zm-4.3 10.944a22.918 22.918 0 0 1-5.952 5.592l1.632 2.04a23.381 23.381 0 0 0 5.808-5.376 29.369 29.369 0 0 0 5.256 5.424l1.7-2.016a25.176 25.176 0 0 1-5.52-5.544 30.713 30.713 0 0 0 3.816-11.112V6.472h-11.1V8.9h.888a26.322 26.322 0 0 0 3.48 10.94zm19.464-13.8h-8.712v15.384h2.256V8.344h4.248v13.08h2.208v-8.112l1.08 1.416a18.983 18.983 0 0 0 2.376-3.816h6.12c-.024 7.1-.1 11.232-.216 12.408-.144 1.152-.576 1.752-1.344 1.752-1.056 0-2.3-.048-3.744-.12l.6 2.232c1.68.072 2.832.12 3.5.12a3.015 3.015 0 0 0 3.312-2.976q.324-3.024.336-15.84h-7.632a26.525 26.525 0 0 0 .744-2.952l-2.424-.312a18.49 18.49 0 0 1-2.712 6.936zm7.2 9.864-1.9.912c.288.816.6 1.7.888 2.64a28.654 28.654 0 0 1-2.928.5 54.064 54.064 0 0 0 2.664-6.624l-2.28-.792c-1.368 4.848-2.4 7.368-3.12 7.608l.408 2.184a53.5 53.5 0 0 0 5.832-.888c.144.528.288 1.056.432 1.632l2.04-1.032a96.446 96.446 0 0 0-2.028-6.144zm-12.6-6.144v7.872a14.317 14.317 0 0 1-.888 4.92 6.542 6.542 0 0 1-3.12 2.928l1.32 2.088a7.415 7.415 0 0 0 3.528-3.48A16.682 16.682 0 0 0 258 17.632V9.76zm3.12 12.216-1.608 1.56a21.262 21.262 0 0 1 3.1 3.84l1.8-1.8a31.53 31.53 0 0 0-3.284-3.6zm19.824-9.24-1.176 1.728a20.323 20.323 0 0 1 4.848 2.808l1.3-1.968a25.483 25.483 0 0 0-4.964-2.568zm2.16-3.264-1.176 1.752a22.133 22.133 0 0 1 5.016 2.688l1.3-1.968a29.075 29.075 0 0 0-5.132-2.472zm6.1.384v5.064a13.26 13.26 0 0 1-.528 3.024h-10.004v2.448h8.9c-.216.336-.456.672-.7.984-1.392 1.536-4.1 2.832-8.112 3.84l1.416 2.208c3.936-1.008 6.792-2.472 8.544-4.344l.048-.048a76.171 76.171 0 0 1 8.88 4.632l1.752-1.92a77.226 77.226 0 0 0-9.36-4.56c.144-.264.264-.528.408-.792h9.384v-2.448H289.2a16.73 16.73 0 0 0 .408-3.024V9.856zm-9.7-3.384v2.3h16.06a14.025 14.025 0 0 1-1.1 2.784l2.328.672a35.659 35.659 0 0 0 1.368-4.2V6.472z" transform="translate(30 50)"/>
        </g>
    </g>
    <g id="fc_line" transform="translate(-293 -947)">
        <path id="세로" class="cls-9" transform="translate(1246 1717)" d="M0 0h1v50H0z"/>
        <path id="세로-2" data-name="세로" class="cls-9" transform="translate(961 1487)" d="M0 0h1v50H0z"/>
        <path id="사각형_514" data-name="사각형 514" class="cls-9" transform="translate(675 1537)" d="M0 0h572v1H0z"/>
        <path id="세로-3" data-name="세로" class="cls-9" transform="translate(675 1538)" d="M0 0h1v50H0z"/>
        <path id="세로-4" data-name="세로" class="cls-9" transform="translate(1246 1538)" d="M0 0h1v49H0z"/>
        <path id="세로-5" data-name="세로" class="cls-9" transform="translate(961 1177)" d="M0 0h1v50H0z"/>
        <path id="세로-6" data-name="세로" class="cls-9" transform="translate(1246 1897)" d="M0 0h1v50H0z"/>
        <path id="세로-7" data-name="세로" class="cls-9" transform="translate(675 1588)" d="M0 0h1v359H0z"/>
        <path id="세로-8" data-name="세로" class="cls-9" transform="translate(961 2256)" d="M0 0h1v50H0z"/>
        <path id="세로-9" data-name="세로" class="cls-9" transform="translate(961 2436)" d="M0 0h1v50H0z"/>
        <path id="세로-10" data-name="세로" class="cls-9" transform="translate(1246 2076)" d="M0 0h1v50H0z"/>
        <path id="세로-11" data-name="세로" class="cls-9" transform="translate(961 2616)" d="M0 0h1v50H0z"/>
        <path id="세로-12" data-name="세로" class="cls-9" transform="translate(675 2076)" d="M0 0h1v50H0z"/>
        <path id="패스_7154" data-name="패스 7154" d="M1527.279 2910.74h57v-180h-57" transform="translate(-12.279 -538.74)" style="fill:none;stroke:#999"/>
        <path id="다각형_140" data-name="다각형 140" class="cls-9" d="M7.5 0 15 11H0z" transform="rotate(180 484.5 1156.5)"/>
        <path id="다각형_153" data-name="다각형 153" class="cls-9" d="M7.5 0 15 11H0z" transform="rotate(180 484.5 1246.5)"/>
        <path id="다각형_154" data-name="다각형 154" class="cls-9" d="M7.5 0 15 11H0z" transform="rotate(180 484.5 1336.5)"/>
        <path id="다각형_155" data-name="다각형 155" class="cls-9" d="M7.5 0 15 11H0z" transform="rotate(180 627 1066.5)"/>
        <path id="다각형_156" data-name="다각형 156" class="cls-9" d="M7.5 0 15 11H0z" transform="rotate(180 627 976.5)"/>
        <path id="다각형_159" data-name="다각형 159" class="cls-9" d="M7.5 0 15 11H0z" transform="rotate(180 341.5 976.5)"/>
        <path id="다각형_163" data-name="다각형 163" class="cls-9" d="M7.5 0 15 11H0z" transform="rotate(180 341.5 1066.5)"/>
        <path id="다각형_157" data-name="다각형 157" class="cls-9" d="M7.5 0 15 11H0z" transform="rotate(180 627 886.5)"/>
        <path id="다각형_158" data-name="다각형 158" class="cls-9" d="M7.5 0 15 11H0z" transform="rotate(180 627 796.5)"/>
        <path id="다각형_160" data-name="다각형 160" class="cls-9" d="M7.5 0 15 11H0z" transform="rotate(180 484.5 617)"/>
        <path id="다각형_161" data-name="다각형 161" class="cls-9" d="M7.5 0 15 11H0z" transform="rotate(-90 1854.5 345.5)"/>
    </g>
    <g id="fc_yes" transform="translate(755 918)">
        <g id="fc_yes-2" data-name="fc_yes" transform="translate(479.544 405.752)">
            <path id="사각형_515" data-name="사각형 515" class="cls-1" d="M0 0h88.923v22.928H0z"/>
            <path id="패스_10724" data-name="패스 10724" class="cls-3" d="M-27.356-11.315v7.182h-.1l-4.934-7.182h-2.066V0h2.348v-7.188h.083L-27.052 0h2.033v-11.315zm4.249 0V0h2.348v-11.315zM-11.235 0v-1.945H-16.5v-2.746h4.851V-6.63H-16.5v-2.74h5.243v-1.945h-7.591V0zm10.7 0-2.413-4.4a3.257 3.257 0 0 0 2-3.227c0-2.232-1.475-3.685-4.05-3.685h-4.43V0h2.348v-4.022h1.79L-3.141 0zm-4.9-9.387c1.4 0 2.072.624 2.072 1.757s-.674 1.707-2.066 1.707H-7.08v-3.464zM6.516-4.432V1.68h1.632v-6.272A18.192 18.192 0 0 1 10.164-2.4l.912-1.44q-.576-.552-1.2-1.06a6.339 6.339 0 0 0 1.248-1.28l-.944-.94a6.378 6.378 0 0 1-1.36 1.408l-.672-.448v-.064a11.893 11.893 0 0 0 1.888-3.248v-1.36h-1.68c-.224-.7-.512-1.488-.88-2.352l-1.616.432c.3.624.576 1.264.832 1.92H4.4v1.52h3.972a14.987 14.987 0 0 1-4.4 4.96l.512 1.7a24.834 24.834 0 0 0 2.032-1.78zm6.352-8.688V1.664h1.648V-6.16c.912.672 2.032 1.616 3.36 2.8l.992-1.472a51.814 51.814 0 0 0-4.352-3.056v-5.232zm14.768-.128-1.792.288a15.637 15.637 0 0 1 .816 1.552h-5.9v1.552H25a10.159 10.159 0 0 1-2.816 3.04 1.09 1.09 0 0 1-.352.128l.384 1.5q4.92-.264 9.1-.72c.368.544.7 1.088 1.008 1.616l1.376-.972a35.742 35.742 0 0 0-3.04-4.128l-1.3.816c.336.432.672.88 1.008 1.328-2.016.24-4.016.416-6.032.544a18.908 18.908 0 0 0 2.384-3.152h7.344v-1.552h-5.708a17.009 17.009 0 0 0-.72-1.84zM24.34-4.72a5.686 5.686 0 0 1-.992 3.28A7.12 7.12 0 0 1 20.372.32l1.056 1.344a8.235 8.235 0 0 0 3.424-2.352 8 8 0 0 0 1.1-4.032zm8.08 6.128a2.2 2.2 0 0 0 1.36-.464c.288-.272.512-1.244.688-2.944l-1.536-.48a4.632 4.632 0 0 1-.384 2.1.861.861 0 0 1-.548.236h-1.708a.573.573 0 0 1-.64-.656v-4.112h-1.664v4.4c0 1.28.608 1.92 1.84 1.92z" transform="translate(44.456 17.248)"/>
        </g>
    </g>
    <g id="fc_yes-3" data-name="fc_yes" transform="translate(287 180)">
        <g id="fc_yes-4" data-name="fc_yes" transform="translate(492.592 398.96)">
            <path id="사각형_515-2" data-name="사각형 515" class="cls-1" d="M0 0h62.848v22.272H0z"/>
            <path id="패스_10711" data-name="패스 10711" class="cls-3" d="M-14.112 1.088v-3.744c0-.512-.08-1.248-.1-1.808A15.411 15.411 0 0 0-9.5-.288l1.056-1.424a16.118 16.118 0 0 1-5.1-4.272h4.784v-1.5h-5.344v-2h4.048v-1.488h-4.048v-1.888h-1.664v1.888h-3.808v1.488h3.808v2h-5.312v1.5h4.816A16.479 16.479 0 0 1-21.4-1.408l1.024 1.376a17.29 17.29 0 0 0 4.688-4.3c-.032.576-.08 1.2-.08 1.68v3.74zm16.288-13.6a6.513 6.513 0 0 1-1.248 1.456 17.23 17.23 0 0 1-.96-1.616l-1.248.784A17.6 17.6 0 0 0 .848-8.624h-3.792a13.083 13.083 0 0 0 1.792-2.944l-.976-.816h-4.544v1.456H-3.2a7.022 7.022 0 0 1-1.056 1.552 53.532 53.532 0 0 0-1.808-1.44l-1.008 1.088c.576.48 1.184.944 1.76 1.472a9.821 9.821 0 0 1-2.4 1.648l.848 1.344a14.267 14.267 0 0 0 1.424-.9v3.632h1.088c.208.56.384 1.1.528 1.584H-7.36V.576H5.088v-1.52H1.552c.16-.48.288-.992.432-1.584h1.248V-6.32a10.5 10.5 0 0 0 1.328.864l.992-1.376a10.789 10.789 0 0 1-2.1-1.376 15.368 15.368 0 0 0 1.78-1.892l-1.216-.976A18.67 18.67 0 0 1 2.4-9.216a4.921 4.921 0 0 1-.56-.624 26.294 26.294 0 0 0 1.568-1.7zm-5.824 4.736v.608h5.056v-.784A13.189 13.189 0 0 0 3.2-6.336h-8.448a12.51 12.51 0 0 0 1.6-1.44zM-3.84-4.96H1.6v1.06h-5.44zM-.112-.944h-2.032c-.144-.5-.32-1.024-.48-1.584H.32A20.658 20.658 0 0 1-.112-.944zM21.44-2.832l-1.664-.544a11.385 11.385 0 0 1-.288 2.32.951.951 0 0 1-1.024.64H15.3a.643.643 0 0 1-.672-.72v-4.992h5.584v-6.4h-7.876v1.6h6.272v3.2h-5.616v7.264a1.405 1.405 0 0 0 1.568 1.616h4.176A2.2 2.2 0 0 0 20.72.416a8.722 8.722 0 0 0 .72-3.248zM8.688-13.04 7.5-11.888a14.648 14.648 0 0 1 2.624 2.352L11.28-10.7a22.414 22.414 0 0 0-2.592-2.34zM6.464-8.416v1.6h2.192v5.68a1.09 1.09 0 0 1-.432.864l.64 1.5a24.722 24.722 0 0 0 3.488-2.56l-.452-1.74c-.576.528-1.12.992-1.632 1.408v-6.752z" transform="translate(31.408 17.04)"/>
        </g>
    </g>
    <g id="fc_yes-5" data-name="fc_yes" transform="translate(1 180)">
        <g id="fc_yes-6" data-name="fc_yes" transform="translate(493.184 398.96)">
            <path id="사각형_515-3" data-name="사각형 515" class="cls-1" d="M0 0h62.256v22.272H0z"/>
            <path id="패스_10710" data-name="패스 10710" class="cls-3" d="M-10.72-3.168a3.945 3.945 0 0 1-.432 1.808c-.176.272-.432.416-4.208.416-3.472 0-3.632-.16-3.632-.928V-6.16h8.368v-5.984h-10.192v1.472h8.544v3.04h-6.72v-1.392h-1.68v7.376c0 1.744.416 2.256 5.232 2.256s5.152-.08 5.76-.976a6.222 6.222 0 0 0 .656-2.208zm12.9-9.344a6.513 6.513 0 0 1-1.252 1.456 17.23 17.23 0 0 1-.96-1.616l-1.248.784A17.6 17.6 0 0 0 .848-8.624h-3.792a13.083 13.083 0 0 0 1.792-2.944l-.976-.816h-4.544v1.456H-3.2a7.022 7.022 0 0 1-1.056 1.552 53.532 53.532 0 0 0-1.808-1.44l-1.008 1.088c.576.48 1.184.944 1.76 1.472a9.821 9.821 0 0 1-2.4 1.648l.848 1.344a14.267 14.267 0 0 0 1.424-.9v3.632h1.088c.208.56.384 1.1.528 1.584H-7.36V.576H5.088v-1.52H1.552c.16-.48.288-.992.432-1.584h1.248V-6.32a10.5 10.5 0 0 0 1.328.864l.992-1.376a10.789 10.789 0 0 1-2.1-1.376 15.368 15.368 0 0 0 1.78-1.892l-1.216-.976A18.67 18.67 0 0 1 2.4-9.216a4.921 4.921 0 0 1-.56-.624 26.294 26.294 0 0 0 1.568-1.7zm-5.828 4.736v.608h5.056v-.784A13.189 13.189 0 0 0 3.2-6.336h-8.448a12.51 12.51 0 0 0 1.6-1.44zM-3.84-4.96H1.6v1.06h-5.44zM-.112-.944h-2.032c-.144-.5-.32-1.024-.48-1.584H.32A20.658 20.658 0 0 1-.112-.944zM21.44-2.832l-1.664-.544a11.385 11.385 0 0 1-.288 2.32.951.951 0 0 1-1.024.64H15.3a.643.643 0 0 1-.672-.72v-4.992h5.584v-6.4h-7.876v1.6h6.272v3.2h-5.616v7.264a1.405 1.405 0 0 0 1.568 1.616h4.176A2.2 2.2 0 0 0 20.72.416a8.722 8.722 0 0 0 .72-3.248zM8.688-13.04 7.5-11.888a14.648 14.648 0 0 1 2.624 2.352L11.28-10.7a22.414 22.414 0 0 0-2.592-2.34zM6.464-8.416v1.6h2.192v5.68a1.09 1.09 0 0 1-.432.864l.64 1.5a24.722 24.722 0 0 0 3.488-2.56l-.452-1.74c-.576.528-1.12.992-1.632 1.408v-6.752z" transform="translate(30.816 17.04)"/>
        </g>
    </g>
</svg>
