<svg id="CHN_flow_chart_2_3" xmlns="http://www.w3.org/2000/svg" width="1336" height="2669" viewBox="0 0 1336 2669">
    <defs>
        <filter id="area" x="105" y="94" width="1126" height="148" filterUnits="userSpaceOnUse">
            <feOffset dy="3"/>
            <feGaussianBlur stdDeviation="3" result="blur"/>
            <feFlood flood-color="#111" flood-opacity=".102"/>
            <feComposite operator="in" in2="blur"/>
            <feComposite in="SourceGraphic"/>
        </filter>
        <filter id="box" x="105" y="274" width="1126" height="148" filterUnits="userSpaceOnUse">
            <feOffset dy="3"/>
            <feGaussianBlur stdDeviation="3" result="blur-2"/>
            <feFlood flood-color="#111" flood-opacity=".102"/>
            <feComposite operator="in" in2="blur-2"/>
            <feComposite in="SourceGraphic"/>
        </filter>
        <filter id="다각형_3" x="390" y="453" width="556" height="278" filterUnits="userSpaceOnUse">
            <feOffset dy="3"/>
            <feGaussianBlur stdDeviation="3" result="blur-3"/>
            <feFlood flood-color="#111" flood-opacity=".102"/>
            <feComposite operator="in" in2="blur-3"/>
            <feComposite in="SourceGraphic"/>
        </filter>
        <filter id="box-2" x="675" y="813" width="556" height="148" filterUnits="userSpaceOnUse">
            <feOffset dy="3"/>
            <feGaussianBlur stdDeviation="3" result="blur-4"/>
            <feFlood flood-color="#111" flood-opacity=".102"/>
            <feComposite operator="in" in2="blur-4"/>
            <feComposite in="SourceGraphic"/>
        </filter>
        <filter id="box-3" x="675" y="993" width="556" height="148" filterUnits="userSpaceOnUse">
            <feOffset dy="3"/>
            <feGaussianBlur stdDeviation="3" result="blur-5"/>
            <feFlood flood-color="#111" flood-opacity=".102"/>
            <feComposite operator="in" in2="blur-5"/>
            <feComposite in="SourceGraphic"/>
        </filter>
        <filter id="box-4" x="105" y="1353" width="1126" height="148" filterUnits="userSpaceOnUse">
            <feOffset dy="3"/>
            <feGaussianBlur stdDeviation="3" result="blur-6"/>
            <feFlood flood-color="#111" flood-opacity=".102"/>
            <feComposite operator="in" in2="blur-6"/>
            <feComposite in="SourceGraphic"/>
        </filter>
        <filter id="box-5" x="105" y="1533" width="1126" height="148" filterUnits="userSpaceOnUse">
            <feOffset dy="3"/>
            <feGaussianBlur stdDeviation="3" result="blur-7"/>
            <feFlood flood-color="#111" flood-opacity=".102"/>
            <feComposite operator="in" in2="blur-7"/>
            <feComposite in="SourceGraphic"/>
        </filter>
        <filter id="box-6" x="105" y="1713" width="1126" height="148" filterUnits="userSpaceOnUse">
            <feOffset dy="3"/>
            <feGaussianBlur stdDeviation="3" result="blur-8"/>
            <feFlood flood-color="#111" flood-opacity=".102"/>
            <feComposite operator="in" in2="blur-8"/>
            <feComposite in="SourceGraphic"/>
        </filter>
        <filter id="box-7" x="105" y="1893" width="1126" height="148" filterUnits="userSpaceOnUse">
            <feOffset dy="3"/>
            <feGaussianBlur stdDeviation="3" result="blur-9"/>
            <feFlood flood-color="#111" flood-opacity=".102"/>
            <feComposite operator="in" in2="blur-9"/>
            <feComposite in="SourceGraphic"/>
        </filter>
        <filter id="box-8" x="105" y="2073" width="1126" height="148" filterUnits="userSpaceOnUse">
            <feOffset dy="3"/>
            <feGaussianBlur stdDeviation="3" result="blur-10"/>
            <feFlood flood-color="#111" flood-opacity=".102"/>
            <feComposite operator="in" in2="blur-10"/>
            <feComposite in="SourceGraphic"/>
        </filter>
        <filter id="box-9" x="105" y="2253" width="1126" height="148" filterUnits="userSpaceOnUse">
            <feOffset dy="3"/>
            <feGaussianBlur stdDeviation="3" result="blur-11"/>
            <feFlood flood-color="#111" flood-opacity=".102"/>
            <feComposite operator="in" in2="blur-11"/>
            <feComposite in="SourceGraphic"/>
        </filter>
        <filter id="area-2" x="105" y="2433" width="1126" height="148" filterUnits="userSpaceOnUse">
            <feOffset dy="3"/>
            <feGaussianBlur stdDeviation="3" result="blur-12"/>
            <feFlood flood-color="#111" flood-opacity=".102"/>
            <feComposite operator="in" in2="blur-12"/>
            <feComposite in="SourceGraphic"/>
        </filter>
        <filter id="box-10" x="105" y="1173" width="1126" height="148" filterUnits="userSpaceOnUse">
            <feOffset dy="3"/>
            <feGaussianBlur stdDeviation="3" result="blur-13"/>
            <feFlood flood-color="#111" flood-opacity=".102"/>
            <feComposite operator="in" in2="blur-13"/>
            <feComposite in="SourceGraphic"/>
        </filter>
        <style>
            .cls-1{fill:#f8f8f8}.cls-2{fill:#fff;stroke:#999;stroke-width:2px}.cls-3{fill:#333}.cls-5{fill:red;opacity:0}.cls-12,.cls-6{fill:none}.cls-6{stroke:#326f5e;stroke-width:1.5px}.cls-7{fill:#326f5e}.cls-9{fill:#999}.cls-11{stroke:none}
        </style>
    </defs>
    <path id="bg" class="cls-1" d="M0 0h1336v2669H0z"/>
    <g id="fc_boxes" transform="translate(-293 -947)">
        <g id="fc_start_end" transform="translate(407 1047)">
            <g transform="translate(-114 -100)" style="filter:url(#area)">
                <g id="area-3" data-name="area" class="cls-2" transform="translate(114 100)">
                    <rect class="cls-11" width="1108" height="130" rx="65"/>
                    <rect class="cls-12" x="1" y="1" width="1106" height="128" rx="64"/>
                </g>
            </g>
            <path id="패스_10687" data-name="패스 10687" class="cls-3" d="M393.032 17.392h2.28v2.448h-2.28zm-.168 4.584h2.448v5.088h2.28v-5.088h2.424v2.592a.463.463 0 0 1-.5.528 11.286 11.286 0 0 1-1.512-.12l.6 2.256h1.608c1.416 0 2.136-.624 2.136-1.848V10.768h-3.6a21.429 21.429 0 0 0 1.8-2.16V6.856H395c.192-.336.36-.672.552-1.056l-2.424-.552a17.813 17.813 0 0 1-4.536 5.9L390.128 13c.192-.168.408-.336.6-.528v7.3a10.9 10.9 0 0 1-1.68 6.048l1.824 1.632a12.314 12.314 0 0 0 1.992-5.476zm3.192-11.208h-3.672c.456-.576.912-1.176 1.368-1.824h3.864a20.509 20.509 0 0 1-1.56 1.824zm3.96 9.072h-2.424v-2.448h2.424zm0-4.608h-2.424v-2.28h2.424zm-4.7-2.28v2.28h-2.28v-2.28zm-13.828-6.576v2.4h2.376a24.2 24.2 0 0 1-3.164 8.544l1.44 2.328c.288-.432.552-.864.84-1.32V26.7h2.352v-1.56h3.936V13.5h-4.1a34.055 34.055 0 0 0 1.152-4.728h3.408v-2.4zm3.84 16.488v-7.056h1.68v7.056zm33.336-17.4a53.855 53.855 0 0 1-1.008 11.208 16.1 16.1 0 0 1-5.328 8.64l1.7 2.088a17.668 17.668 0 0 0 6.1-10.224c.048-.192.072-.408.12-.624a34.057 34.057 0 0 0 5.352 10.776l1.824-2.088c-3.072-3.48-5.232-8.136-6.432-13.968.144-1.776.216-3.72.216-5.808zm-10.392-.024L406.5 7.168a21.972 21.972 0 0 1 3.936 3.528l1.728-1.752a33.623 33.623 0 0 0-3.892-3.504zm-3.336 6.936v2.4h3.288v8.28a1.614 1.614 0 0 1-.648 1.32l.96 2.232a36.972 36.972 0 0 0 4.992-3.864l-.672-2.568a38.475 38.475 0 0 1-2.208 1.992v-9.792zm44.448-6.336h-11.256v13.608h2.472V8.44h6.24v11.208h2.544zm-.816 21.072a2.855 2.855 0 0 0 1.872-.552c.408-.384.7-1.632.864-3.7l-2.328-.744a7.8 7.8 0 0 1-.288 2.352.6.6 0 0 1-.576.36h-1.3q-.576 0-.576-.72v-4.532h-1.92a19.855 19.855 0 0 0 .5-4.008V9.88h-2.376v5.688a13.647 13.647 0 0 1-1.536 6.24c-.912 1.464-2.688 2.712-5.3 3.72l1.344 2.112a11.331 11.331 0 0 0 5.832-4.2 12.22 12.22 0 0 0 .96-1.944v3.168c0 1.632.768 2.448 2.352 2.448zm-19.152-13.2v2.4h2.472v5.232c-.96.24-1.968.456-2.976.648l.6 2.4a57.938 57.938 0 0 0 7.7-2.448v-2.4c-.912.384-1.848.72-2.784 1.056v-4.488h2.424v-2.4h-2.424v-4.9h2.76V6.64h-8.108v2.376h2.808v4.9zm31.392.456h8.736v1.92h-8.736zm8.736 4.08v1.872h-8.736v-1.872zm0 4.032v1.944q0 .792-.864.792c-.768 0-1.608-.048-2.5-.12l.6 2.256h2.688c1.608-.048 2.424-.744 2.424-2.136V12.208h-10.844c.408-.7.792-1.392 1.176-2.112h12.5V7.672H463.28c.264-.72.5-1.464.744-2.232l-2.568-.312a24.913 24.913 0 0 1-.936 2.544h-6.984V10.1h5.784a25.676 25.676 0 0 1-6.432 7.32l1.632 2.136a32.791 32.791 0 0 0 3.936-3.792v11.708h2.352V22.48zM483.9 5.056a25.474 25.474 0 0 1-7.1 9.7l.816 2.616a47.256 47.256 0 0 0 3-2.736v12.908h2.5V11.7a25.5 25.5 0 0 0 3.144-5.544zm11.54 22.056a3.144 3.144 0 0 0 2.52-.84c.456-.576.768-2.256.936-5.016l-2.3-.792a10.659 10.659 0 0 1-.432 3.744 1.332 1.332 0 0 1-1.152.528h-3.456c-.744 0-1.1-.336-1.1-.984v-7.584a41.307 41.307 0 0 0 7.8-6.216L496.5 7.96a33.412 33.412 0 0 1-6.048 5.184v-7.68h-2.5v9.216a56.637 56.637 0 0 1-3.624 1.8l1.128 2.376c.84-.408 1.68-.816 2.5-1.248v6.5c0 1.992 1.008 3 3.024 3zm27.048-17.184h-4.344a25.426 25.426 0 0 0 2.328-3.792l-2.592-.96a29.688 29.688 0 0 1-2.472 4.752h-3.672l1.992-1.008a41.582 41.582 0 0 0-2.256-3.888l-2.28 1.1a26.786 26.786 0 0 1 2.232 3.792h-4.752l1.44-.72a37.317 37.317 0 0 0-2.352-3.672l-2.28 1.1a25.4 25.4 0 0 1 2.256 3.288h-4.224v5.98h2.472v-3.572h16.008V15.9h2.5zm-16.992 3.7v2.208h9.36c-.96.48-2.232 1.032-3.816 1.7v1.776h-9.384v2.352h9.384v2.664c0 .576-.24.888-.7.888a52.01 52.01 0 0 1-2.856-.072l.624 2.28h3.072c1.584 0 2.376-.768 2.376-2.256v-3.5h8.856v-2.356h-8.852v-.672a52.392 52.392 0 0 0 4.968-2.808v-2.208zm30.192-8.4a18.042 18.042 0 0 1-3.168 8.088l1.824 1.56a14.478 14.478 0 0 0 2.088-3.576h1.008c-.888 4.248-2.5 7.344-4.8 9.312l1.608 1.872c2.616-2.352 4.416-6.1 5.424-11.184h1.2a33.564 33.564 0 0 1-1.944 8.088 17.663 17.663 0 0 1-4.416 5.952l1.56 1.992a20.6 20.6 0 0 0 4.92-6.864A38.8 38.8 0 0 0 543.1 11.3h.864c-.048 6.792-.12 10.752-.264 11.88a2.049 2.049 0 0 1-2.208 1.992c-.576 0-1.224-.048-1.992-.12l.576 2.232c.864.072 1.488.12 1.824.12q3.672 0 4.1-3.1.36-2.88.36-15.408h-9.06c.264-.96.5-1.968.744-3.048zm-8.064 7.224h1.32v5.736a32.519 32.519 0 0 1-3.912 1.056l.6 2.424a71.374 71.374 0 0 0 3.312-1.1V27.5h2.448v-7.92c.5-.24 1.008-.456 1.536-.7v-2.352c-.528.24-1.032.48-1.536.72v-4.8h1.632v-2.4h-1.632V5.32h-2.448v4.728h-1.032c.072-.912.12-1.824.168-2.736l-2.232-.168a37.1 37.1 0 0 1-1.1 7.968l2.208.624c.26-1.056.476-2.16.668-3.288zm25.968.312h6.936l-.36 1.56H555.2v8.448h2.424v-6.148h8.712v6.144h2.424V14.32h-6.048l.36-1.56h7.656v-2.3h-7.272c.072-.48.144-.984.192-1.464l-2.5-.312-.216 1.776h-7.344V8.9a105.932 105.932 0 0 0 16.084-1.4l-1.224-2.232a98.979 98.979 0 0 1-17.28 1.536v7.68q-.18 7.092-2.448 11.088l1.752 1.824q2.952-4.824 3.12-12.912zm9.984 9.216-1.248 1.872a32.321 32.321 0 0 1 7.032 3.672l1.392-2.184a36.607 36.607 0 0 0-7.176-3.364zm-2.3-4.656a8.063 8.063 0 0 1-2.352 5.16 13.971 13.971 0 0 1-6.144 2.784l1.344 2.3a15.531 15.531 0 0 0 6.936-3.576 10.389 10.389 0 0 0 2.64-6.5zm20.736-8.136h-3.652a22.117 22.117 0 0 0 1.056-3.624l-2.52-.336a21.637 21.637 0 0 1-.936 3.96h-2.3V26.7h2.4v-1.9h3.552V26h2.4zM576.056 22.5v-4.532h3.552V22.5zm0-6.768v-4.2h3.552v4.2zm10.32-.72-2.04 1.272a43.7 43.7 0 0 1 3.576 5.256l2.016-1.392a41.219 41.219 0 0 0-3.552-5.132zm7.992-5.832h-7.3a31.58 31.58 0 0 0 .912-3.672l-2.468-.308a20.444 20.444 0 0 1-3.216 8.328l1.512 1.992a19.329 19.329 0 0 0 2.3-3.888h5.808c-.048 6.792-.12 10.752-.264 11.9a1.436 1.436 0 0 1-1.512 1.416c-.792 0-1.728-.048-2.784-.12l.6 2.28q1.872.144 2.592.144 3.1 0 3.456-2.52.364-2.948.364-15.548zm21.12 18.24c1.632 0 2.448-.96 2.448-2.832V6.016h-19.872V27.5h2.52V8.464h14.832v15.552c0 .672-.264 1.008-.744 1.008l-3-.12.7 2.52zM601.9 10.528v2.328h12.2v-2.328zm1.2 4.32v8.184h9.816v-8.184zm7.4 5.952h-4.968v-3.72h4.968zm15.1-8.04h6.936l-.36 1.56H627.2v8.448h2.424v-6.144h8.712v6.144h2.424V14.32h-6.048l.36-1.56h7.656v-2.3h-7.272c.072-.48.144-.984.192-1.464l-2.5-.312-.216 1.776h-7.344V8.9a105.932 105.932 0 0 0 16.084-1.4l-1.224-2.232a98.979 98.979 0 0 1-17.28 1.536v7.68q-.18 7.092-2.448 11.088l1.752 1.824q2.952-4.824 3.12-12.912zm9.984 9.216-1.248 1.872a32.321 32.321 0 0 1 7.032 3.672l1.392-2.184a36.607 36.607 0 0 0-7.184-3.36zm-2.3-4.656a8.063 8.063 0 0 1-2.352 5.16 13.971 13.971 0 0 1-6.144 2.784l1.344 2.3a15.531 15.531 0 0 0 6.936-3.576 10.389 10.389 0 0 0 2.64-6.5zm12.24-7.3a32.022 32.022 0 0 1-.84 6.408l2.016.576a38.765 38.765 0 0 0 .744-6.84zm6.72-.6-1.728.552V5.344h-2.52v22.08h2.52V10.216a37.826 37.826 0 0 1 1.176 4.032l.936-.24c-.144.288-.288.576-.432.888l1.872 1.656a19.878 19.878 0 0 0 1.8-4.536h3.072v5.112h-5.3v2.448h5.3v4.872h-6.576v2.424h14.712v-2.424h-5.592v-4.872h4.716v-2.448h-4.728v-5.112h4.944V9.592h-4.944v-4.2h-2.544v4.2h-2.592c.1-.768.144-1.536.192-2.352l-2.28-.312a21.244 21.244 0 0 1-.984 5.448 28.209 28.209 0 0 0-1.032-2.952z" transform="translate(30 50)"/>
        </g>
        <g id="fc_box_big_no_btn" transform="translate(407 1227)">
            <g transform="translate(-114 -280)" style="filter:url(#box)">
                <g id="box-11" data-name="box" class="cls-2">
                    <path class="cls-11" d="M0 0h1108v130H0z" transform="translate(114 280)"/>
                    <path class="cls-12" d="M1 1h1106v128H1z" transform="translate(114 280)"/>
                </g>
            </g>
            <path id="패스_10688" data-name="패스 10688" class="cls-3" d="m449.48 14.488-1.44.48c0-1.68.024-3.552.024-5.64h-4.8v-3.84h-2.448v3.84h-3.792v2.448h3.792v.024c-.048 6.48-1.776 11.16-5.16 14.088l1.9 1.68q5.58-4.968 5.712-15.768v-.024h2.3c-.048 6.552-.12 10.368-.24 11.448-.168 1.176-.72 1.776-1.656 1.776a23.87 23.87 0 0 1-2.064-.12l.624 2.28c.888.1 1.512.144 1.9.144 2.136 0 3.336-.984 3.576-2.9.144-1.3.264-4.008.312-8.16a65.26 65.26 0 0 1 1.416 4.656l1.872-.864a53.625 53.625 0 0 0-1.828-5.548zm-12.264-.072a13.851 13.851 0 0 1-2.616 5.52l1.7 1.584a16.25 16.25 0 0 0 2.88-6.6zm-8.328-3.72v2.328h2.52V27.5h2.376V13.024h2.424V10.7h-2.424V5.44h-2.376v5.26zm37.224-5.568-1.9 1.368a46.236 46.236 0 0 1 3.264 5.112l1.968-1.368a41.029 41.029 0 0 0-3.332-5.112zm5.472 1.344a30.118 30.118 0 0 1-3.984 11.952 33.1 33.1 0 0 1-4.632-10.632l-2.136 1.224a38.437 38.437 0 0 0 5.28 11.472 18.4 18.4 0 0 1-6.5 4.944l1.368 2.16a20.483 20.483 0 0 0 6.768-5.04 22.785 22.785 0 0 0 6.216 5.04l1.488-2.184a20.307 20.307 0 0 1-6.192-4.848 31.829 31.829 0 0 0 4.7-13.584zm-15.24-1.008-1.752 1.656a21.8 21.8 0 0 1 3.84 3.576l1.728-1.752a32.5 32.5 0 0 0-3.816-3.48zm-3.408 6.912v2.4h3.312v8.3a1.551 1.551 0 0 1-.672 1.272l.96 2.28a37.161 37.161 0 0 0 4.68-3.792l-.7-2.64-1.9 1.824v-9.644zm26.544 3.216V27.52h2.472V11.7a31.475 31.475 0 0 0 2.256-5.5l-2.256-1.056a29.116 29.116 0 0 1-5.136 10.272l.768 2.5a40.816 40.816 0 0 0 1.896-2.324zm4.056-6.552v2.4h4.056a24.093 24.093 0 0 1-5.28 9.984l1.3 2.16a27.822 27.822 0 0 0 5.852-11.684v8.54h-3.216v2.4h3.216v4.68h2.472v-4.68h3.312v-2.4h-3.312v-8.568a31.154 31.154 0 0 0 5.592 11.428l1.632-2.064a25.474 25.474 0 0 1-5.376-9.792h4.416V9.04h-6.264V5.248h-2.472V9.04zm28.68-3.72a21.277 21.277 0 0 1-2.88 8.208l1.632 2.112a21.691 21.691 0 0 0 2.4-4.776h6.648q-.072 10.692-.288 12.456c-.168 1.18-.768 1.78-1.828 1.78-.792 0-1.728-.048-2.808-.12l.576 2.232c1.248.072 2.112.12 2.64.12 2.184 0 3.408-1.008 3.7-2.976.24-2.016.36-7.272.36-15.816h-8.28c.24-.936.432-1.9.6-2.9zm-1.7 17.232c2.28-.48 4.32-.96 6.1-1.488.192.624.36 1.3.552 1.992l2.184-1.008a43.662 43.662 0 0 0-2.112-5.9l-2.064.72c.288.72.576 1.512.864 2.352-.888.192-1.848.408-2.9.648q1.008-2.016 2.592-6.12l-2.208-.816c-1.656 4.656-2.808 7.176-3.456 7.536zm-3.58-6.452c.5.744 1.08 1.632 1.728 2.688l1.44-2.136a55.833 55.833 0 0 0-3.168-3.432v-1.08h2.664V9.712h-2.664V5.3h-2.472v4.412h-3.192v2.424h3.028a20.451 20.451 0 0 1-3.5 7.224l1.08 2.784a31.923 31.923 0 0 0 2.592-5.472v10.752h2.472zm35.28-11.02-1.584 1.512a16.949 16.949 0 0 1 2.3 2.112h-3.384a79.838 79.838 0 0 1-.072-3.48h-2.544c0 1.2 0 2.376.048 3.48h-9.88V16.7c-.072 3.888-.84 6.936-2.328 9.12l1.9 1.7c1.848-2.712 2.832-6.288 2.952-10.752H533a29.776 29.776 0 0 1-.264 4.512c-.12.48-.384.72-.768.744-.672 0-1.464-.048-2.424-.12l.768 2.28c.72.072 1.368.12 1.944.12a2.446 2.446 0 0 0 2.52-1.536q.612-1.656.72-8.352h-5.88V11.08h7.484a37.468 37.468 0 0 0 1.06 7.22 24.429 24.429 0 0 0 .888 2.736 15.653 15.653 0 0 1-5.76 4.392l1.44 2.112a16.312 16.312 0 0 0 5.472-3.96 10.722 10.722 0 0 0 .96 1.44c1.176 1.416 2.28 2.136 3.336 2.136 1.2 0 2.088-1.7 2.712-5.088l-2.256-1.224c-.312 2.3-.6 3.456-.84 3.456-.36 0-.888-.528-1.56-1.56a8.9 8.9 0 0 1-.7-1.272 28.466 28.466 0 0 0 3.6-7.776l-2.28-.984A26.482 26.482 0 0 1 540.8 18.5c-.1-.336-.192-.648-.264-.984a37.943 37.943 0 0 1-.864-6.432h7.056V8.7h-2.856l1.1-1.128a20.332 20.332 0 0 0-2.756-2.492zm12.528 3.456v1.824q-.108 10.584-5.832 15.408l1.944 1.7q4.536-3.924 5.88-11.136a19.881 19.881 0 0 0 4.152 5.736 27.425 27.425 0 0 1-6.936 3.288l1.464 2.328a24.822 24.822 0 0 0 7.56-3.816 31.485 31.485 0 0 0 6.192 3.672l1.68-2.232a32.658 32.658 0 0 1-5.9-3.192 16.329 16.329 0 0 0 4.248-8.04v-1.46h-4.756a67.883 67.883 0 0 0 1.32-4.9V6.088h-14.88v2.448zm8.112 11.976a17.078 17.078 0 0 1-5.616-8.76c.024-.456.048-.912.048-1.392V8.536H563a52.791 52.791 0 0 1-1.68 6.36h5.208a13.3 13.3 0 0 1-3.672 5.616zM594.1 8.608h-8.328v18.528h2.4v-1.464h3.48v1.464h2.448zm-5.928 14.664V10.984h3.48v12.288zM576.8 5.344v4.584h-3.552v2.448h3.552q-.18 9.36-4.1 13.632l1.9 1.68c2.976-3.264 4.56-8.352 4.7-15.312h2.328c-.048 6.336-.12 10.056-.24 11.136a1.577 1.577 0 0 1-1.632 1.536 18.323 18.323 0 0 1-2.112-.144l.624 2.28c.864.1 1.512.144 1.9.144 2.112 0 3.312-.888 3.552-2.64q.36-2.808.36-14.76h-4.78V5.344zm29.784 5.76a23.032 23.032 0 0 1-9.84 13.944l1.536 2.16a22.656 22.656 0 0 0 9.62-13.224l.072.216c2.568 6.432 5.712 10.776 9.432 12.984l1.56-1.992q-5.4-3.456-8.808-11.808c-1.584-4.008-3.36-6.72-5.328-8.112l-2.088 1.344a13.238 13.238 0 0 1 3.844 4.484z" transform="translate(30 49)"/>
        </g>
        <g id="fc_diamond" transform="translate(692 1406)">
            <g transform="translate(-399 -459)" style="filter:url(#다각형_3)">
                <g id="다각형_3-2" data-name="다각형 3" style="fill:#fff">
                    <path class="cls-11" d="M269 258.89 2.298 130 269 1.11 535.702 130 269 258.89z" transform="translate(399 459)"/>
                    <path d="M269 2.221 4.596 130 269 257.779 533.404 130 269 2.221M269 0l269 130-269 130L0 130 269 0z" style="fill:#999;stroke:none" transform="translate(399 459)"/>
                </g>
            </g>
            <path id="패스_10689" data-name="패스 10689" class="cls-3" d="M90.032 17.392h2.28v2.448h-2.28zm-.168 4.584h2.448v5.088h2.28v-5.088h2.424v2.592a.463.463 0 0 1-.5.528 11.286 11.286 0 0 1-1.516-.12l.6 2.256h1.608c1.416 0 2.136-.624 2.136-1.848V10.768h-3.6a21.429 21.429 0 0 0 1.8-2.16V6.856H92c.192-.336.36-.672.552-1.056l-2.424-.552a17.813 17.813 0 0 1-4.536 5.9L87.128 13c.192-.168.408-.336.6-.528v7.3a10.9 10.9 0 0 1-1.68 6.048l1.824 1.632a12.314 12.314 0 0 0 1.992-5.476zm3.192-11.208h-3.672c.456-.576.912-1.176 1.368-1.824h3.864a20.509 20.509 0 0 1-1.56 1.824zm3.96 9.072h-2.424v-2.448h2.424zm0-4.608h-2.424v-2.28h2.424zm-4.7-2.28v2.28h-2.28v-2.28zM78.488 6.376v2.4h2.376A24.2 24.2 0 0 1 77.7 17.32l1.44 2.328c.288-.432.552-.864.84-1.32V26.7h2.352v-1.56h3.936V13.5h-4.1a34.053 34.053 0 0 0 1.152-4.728h3.4v-2.4zm3.84 16.488v-7.056h1.68v7.056zm33.336-17.4a53.857 53.857 0 0 1-1.008 11.208 16.1 16.1 0 0 1-5.328 8.64l1.7 2.088a17.668 17.668 0 0 0 6.1-10.224c.048-.192.072-.408.12-.624a34.057 34.057 0 0 0 5.352 10.776l1.824-2.088c-3.072-3.48-5.232-8.136-6.432-13.968.144-1.776.216-3.72.216-5.808zm-10.392-.024L103.5 7.168a21.972 21.972 0 0 1 3.936 3.528l1.728-1.752a33.621 33.621 0 0 0-3.892-3.504zm-3.336 6.936v2.4h3.288v8.28a1.614 1.614 0 0 1-.648 1.32l.96 2.232a36.971 36.971 0 0 0 4.992-3.864l-.672-2.568a38.475 38.475 0 0 1-2.208 1.992v-9.792zm28.176 2.952v6.24h13.872v-6.24zm11.352 4.032h-8.832v-1.848h8.832zm-8.664 2.352-2.352.888a13.12 13.12 0 0 1 1.776 1.9h-5.64v2.376h20.784V24.5h-5.232a21.144 21.144 0 0 0 1.364-2.02l-2.328-.84a20.723 20.723 0 0 1-1.752 2.856h-4.536a14.8 14.8 0 0 0-2.084-2.784zm-3.768-13.224-1.68 1.584a27.824 27.824 0 0 1 2.832 2.232 19.966 19.966 0 0 1-4.3 2.232l1.536 1.968a20.447 20.447 0 0 0 5.688-3.408v.768h8.808v-.888a26.539 26.539 0 0 0 4.9 3.48l1.656-1.92a24.713 24.713 0 0 1-3.5-2.136 14.754 14.754 0 0 0 2.544-2.5l-1.756-1.532a13.691 13.691 0 0 1-2.568 2.568 11.363 11.363 0 0 1-1.3-1.344 14.474 14.474 0 0 0 2.568-2.4l-1.752-1.56a13.128 13.128 0 0 1-2.16 2.16 15.932 15.932 0 0 1-1.368-2.52l-2.08 1.152a19.544 19.544 0 0 0 3.432 5.16h-5.952a13.357 13.357 0 0 0 2.232-3.744V5.968h-8.28v2.3h5.448a11.957 11.957 0 0 1-2.04 2.592 32.261 32.261 0 0 0-2.908-2.372zM172.4 20.752l-2.5-.816a17.078 17.078 0 0 1-.432 3.48 1.426 1.426 0 0 1-1.536.96h-4.752a.965.965 0 0 1-1.008-1.08v-7.488h8.376v-9.6h-11.804v2.4h9.408v4.8h-8.424V24.3a2.108 2.108 0 0 0 2.352 2.424h6.264c1.536 0 2.52-.384 2.976-1.1a13.083 13.083 0 0 0 1.08-4.872zM153.272 5.44 151.5 7.168a21.972 21.972 0 0 1 3.936 3.528l1.728-1.752a33.621 33.621 0 0 0-3.892-3.504zm-3.336 6.936v2.4h3.288V23.3a1.635 1.635 0 0 1-.648 1.3l.96 2.256a37.083 37.083 0 0 0 5.232-3.84l-.672-2.616a53.944 53.944 0 0 1-2.448 2.112V12.376zm38.3-7.008v3.984h-4.512V20.68h2.4v-1.008h2.112v7.848h2.52v-7.848h2.184v1.008h2.448V9.352h-4.628V5.368zm-2.112 12V11.7h2.112v5.664zm4.632 0V11.7h2.184v5.664zm-16.008-8.3c.96-.1 1.9-.216 2.808-.336v2.856h-3.432v2.424h3.144a17.85 17.85 0 0 1-3.624 6.264l1.056 2.64a24.793 24.793 0 0 0 2.856-5.28V27.5h2.448V17.176c.552.816 1.2 1.824 1.968 3.048l1.416-2.136a58.793 58.793 0 0 0-3.384-3.216v-.864h2.832v-2.424h-2.832V8.32a42.517 42.517 0 0 0 2.88-.672L182 5.344a35.716 35.716 0 0 1-7.752 1.416zm35.52 4.9a42.108 42.108 0 0 1 7.368 3.36l1.368-2.088a58.211 58.211 0 0 0-8.736-2.928v-.168h8.952V9.808h-8.952v-4.56h-2.544v4.56h-8.952v2.328h6.7a19.646 19.646 0 0 1-6.84 3.288l1.32 2.16q5.58-2.268 7.776-5.328v3.912h2.544zm-1.44 7.776a18.315 18.315 0 0 0 9.7 5.856l1.272-2.256a18.278 18.278 0 0 1-8.592-4.176h8.208v-2.336h-9.432q.216-.936.36-1.944H207.8a12.714 12.714 0 0 1-.432 1.944h-8.784v2.328h7.656a8.966 8.966 0 0 1-1.032 1.128c-1.44 1.248-3.744 2.208-6.96 2.9l1.008 2.328c3.816-.912 6.48-2.136 8.016-3.672a11.738 11.738 0 0 0 1.56-2.108zm-5.4-16.128-2.16.72a17.906 17.906 0 0 1 1.8 3.24l2.112-.552a19.638 19.638 0 0 0-1.748-3.416zm11.112-.048A12.212 12.212 0 0 1 212.7 8.8l2.088.744a12.746 12.746 0 0 0 1.944-3.408z" transform="translate(120 114)"/>
        </g>
        <g id="fc_box_medium" transform="translate(977 1766)">
            <g transform="translate(-684 -819)" style="filter:url(#box-2)">
                <g id="box-12" data-name="box" class="cls-2">
                    <path class="cls-11" d="M0 0h538v130H0z" transform="translate(684 819)"/>
                    <path class="cls-12" d="M1 1h536v128H1z" transform="translate(684 819)"/>
                </g>
            </g>
            <path id="패스_10692" data-name="패스 10692" class="cls-3" d="m121.83 5.488-1.7 1.608a24.637 24.637 0 0 1 3.888 3.912l1.752-1.728a33.273 33.273 0 0 0-3.94-3.792zm13.68 21.624h5.5l.624-2.472c-.672.048-1.608.1-2.832.144-1.248 0-2.448.024-3.648.024-1.872 0-3.48-.024-4.872-.048a8 8 0 0 1-3.192-.6 6.686 6.686 0 0 1-1.656-1.416l-.264-.264v-9.12h-5.5v2.3h3.168v6.58a10.56 10.56 0 0 0-3.216 3.672l1.848 1.728c1.2-2.16 2.016-3.24 2.5-3.24.264 0 .552.192.888.6a5.394 5.394 0 0 0 2.52 1.656 18.062 18.062 0 0 0 3.84.408c1.532.024 2.972.048 4.292.048zm-2.424-21.888v2.784h-2.256c.192-.6.408-1.224.6-1.9l-2.4-.5a16.826 16.826 0 0 1-2.736 5.688l2.16 1.368a22.4 22.4 0 0 0 1.344-2.256h3.288v2.808h-6.144v2.4h3.552a11.162 11.162 0 0 1-.648 3.168 7.112 7.112 0 0 1-3.648 3.36l1.608 1.968a8.236 8.236 0 0 0 4.32-4.512 15.3 15.3 0 0 0 .744-3.984h1.848v6.168a2.3 2.3 0 0 0 .576 1.584 2.264 2.264 0 0 0 1.68.576h1.7a2.448 2.448 0 0 0 1.776-.528c.336-.384.6-1.608.792-3.7l-2.184-.744q-.072 2.376-.36 2.592a.781.781 0 0 1-.552.24h-.408c-.456 0-.672-.192-.672-.552v-5.64h3.816v-2.4h-5.352v-2.804h4.536v-2.4h-4.536V5.224zm14.28 6.936v2.352h6V23.9h-.024a7.553 7.553 0 0 1-4.176-3.48 28.845 28.845 0 0 0 1.056-3.84l-2.424-.432a18.013 18.013 0 0 1-4.512 9.288l1.608 2.016a16.793 16.793 0 0 0 3.336-4.776 9.609 9.609 0 0 0 3.72 3.072c2.208.912 5.856 1.368 10.992 1.368h2.088l.5-2.472c-1.272.12-2.5.192-3.7.192a45.366 45.366 0 0 1-5.976-.384v-4.228h6.816v-2.352h-6.816v-3.36h5.808V12.16zm17.28-4.68h-8.76c-.312-.888-.624-1.7-.96-2.424l-2.688.432a17.187 17.187 0 0 1 1.056 1.992h-8.952v5.688h2.448V9.784h15.41v3.264h2.448zm23.736 3.192-7.44 1.032q-.216-2.808-.216-6.48h-2.544c.048 2.544.144 4.824.288 6.816l-5.112.72.384 2.376 4.944-.7a28.277 28.277 0 0 0 .672 4.08 16.4 16.4 0 0 0 3.168 6.624c1.3 1.536 2.544 2.328 3.744 2.328a2.266 2.266 0 0 0 1.92-1.176 13.718 13.718 0 0 0 1.32-4.368l-2.184-1.272c-.264 2.808-.672 4.224-1.2 4.272q-1.116-.072-2.376-1.944a15.782 15.782 0 0 1-2.16-5.712 30.306 30.306 0 0 1-.456-3.168l7.656-1.056zm-18.24 4.344v12.528h2.544V11.3a26.463 26.463 0 0 0 2.256-5.04l-2.352-1.1a25.662 25.662 0 0 1-5.376 9.6l.816 2.616a51.987 51.987 0 0 0 2.112-2.36zm13.1-9.7-1.584 1.536a21.991 21.991 0 0 1 3.5 3.672l1.7-1.68a29.957 29.957 0 0 0-3.612-3.524zm9.6 1.8v2.3h8.376v1.56h-6.984v2.3h6.984v1.56h-9.216v2.28h7.128a19.063 19.063 0 0 1-7.8 4.416l1.344 2.184a33.982 33.982 0 0 0 3.744-1.848v2.28c0 .552-.336.96-1.008 1.248l.816 2.136a63.259 63.259 0 0 0 7.944-2.472l-.5-2.3a69.226 69.226 0 0 1-4.8 1.7V20.2a16.122 16.122 0 0 0 2.952-3.072h.5q3.06 7.6 9.576 10.3l1.368-2.208a14.944 14.944 0 0 1-5.208-3.192 14.049 14.049 0 0 0 3.72-2.64l-1.728-1.68a12.41 12.41 0 0 1-3.432 2.76 16.027 16.027 0 0 1-2.016-3.336h8.376v-2.28h-9.216v-1.56h6.984v-2.3h-6.984V9.424h8.376V7.12h-8.376V5.344h-2.544V7.12zm26.76 8.208v6.24h13.872v-6.24zm11.352 4.032h-8.832v-1.844h8.832zm-8.664 2.352-2.352.888a13.12 13.12 0 0 1 1.776 1.9h-5.64v2.376h20.784V24.5h-5.228a21.144 21.144 0 0 0 1.37-2.02l-2.328-.84a20.725 20.725 0 0 1-1.752 2.856h-4.536a14.8 14.8 0 0 0-2.09-2.784zm-3.764-13.22-1.68 1.584a27.825 27.825 0 0 1 2.832 2.232 19.966 19.966 0 0 1-4.3 2.232l1.536 1.968a20.447 20.447 0 0 0 5.688-3.408v.768h8.808v-.888a26.539 26.539 0 0 0 4.9 3.48l1.656-1.92a24.713 24.713 0 0 1-3.5-2.136 14.754 14.754 0 0 0 2.544-2.5l-1.752-1.536a13.691 13.691 0 0 1-2.568 2.568 11.363 11.363 0 0 1-1.3-1.344 14.474 14.474 0 0 0 2.568-2.4l-1.752-1.56a13.128 13.128 0 0 1-2.16 2.16 15.932 15.932 0 0 1-1.368-2.52l-2.088 1.156a19.544 19.544 0 0 0 3.432 5.16h-5.952a13.357 13.357 0 0 0 2.23-3.744V5.968h-8.28v2.3h5.448a11.957 11.957 0 0 1-2.04 2.592 32.261 32.261 0 0 0-2.902-2.372zm43.368 12.264-2.5-.816a17.079 17.079 0 0 1-.432 3.48 1.426 1.426 0 0 1-1.536.96h-4.752a.965.965 0 0 1-1.008-1.08v-7.488h8.376v-9.6h-11.804v2.4h9.408v4.8h-8.424V24.3a2.108 2.108 0 0 0 2.352 2.424h6.264c1.536 0 2.52-.384 2.976-1.1a13.084 13.084 0 0 0 1.08-4.872zM242.766 5.44l-1.776 1.728a21.972 21.972 0 0 1 3.936 3.528l1.728-1.752a33.621 33.621 0 0 0-3.888-3.504zm-3.336 6.936v2.4h3.288V23.3a1.635 1.635 0 0 1-.648 1.3l.96 2.256a37.083 37.083 0 0 0 5.232-3.84l-.672-2.616a53.944 53.944 0 0 1-2.448 2.112V12.376zm26.256-4.848v2.328h6.5v2.136h-8.424v2.352h9.888a41.369 41.369 0 0 1-10.272 3.864l1.056 2.328c1.248-.456 2.448-.888 3.6-1.32v8.352h2.544V26.7h9.36v.864h2.52V16.336h-7.748c1.008-.528 1.92-1.008 2.736-1.488l.792-.5h7.1v-2.356h-4.008a33.062 33.062 0 0 0 3.7-3.84l-1.9-1.392a28.982 28.982 0 0 1-5.664 5.232h-2.736V9.856h5.16V7.528h-5.16v-2.28h-2.54v2.28zm4.9 15h9.36V24.5h-9.36zm9.36-2.16h-9.36V18.5h9.36zm26.348-15.216a19.178 19.178 0 0 0-2.64 4.92 18.012 18.012 0 0 0-1.1 6.312 18.073 18.073 0 0 0 1.1 6.288 20.3 20.3 0 0 0 2.64 4.9h2.28a24.125 24.125 0 0 1-2.3-4.968 19.04 19.04 0 0 1-1.056-6.24 18.833 18.833 0 0 1 1.056-6.24 23.022 23.022 0 0 1 2.3-4.968zM322.751 25v-2.917h-7.3V8.028h-3.522V25zm15.6 0-3.613-6.6a4.885 4.885 0 0 0 3-4.84c0-3.348-2.213-5.528-6.075-5.528h-6.646V25h3.522v-6.033h2.685L334.453 25zm-7.343-14.08c2.1 0 3.108.936 3.108 2.635s-1.011 2.561-3.1 2.561h-2.478v-5.2zM345.7 26.512h2.376a13.74 13.74 0 0 0 4.416-9.984V16.1a13.77 13.77 0 0 0-4.416-9.96H345.7a15.575 15.575 0 0 1 3.984 9.936v.7a14.806 14.806 0 0 1-3.978 9.736z" transform="translate(30 50)"/>
        </g>
        <g id="fc_box_medium-2" data-name="fc_box_medium" transform="translate(977 1946)">
            <g transform="translate(-684 -999)" style="filter:url(#box-3)">
                <g id="box-13" data-name="box" class="cls-2">
                    <path class="cls-11" d="M0 0h538v130H0z" transform="translate(684 999)"/>
                    <path class="cls-12" d="M1 1h536v128H1z" transform="translate(684 999)"/>
                </g>
            </g>
            <path id="패스_10693" data-name="패스 10693" class="cls-3" d="M208.184 19.1a29.894 29.894 0 0 1-2.208 5.424H192.8v2.328h20.448V24.52h-4.584a27.438 27.438 0 0 0 1.992-4.728zm-10.68.192-2.28.744a24.743 24.743 0 0 1 1.824 4.176l2.256-.552a27.522 27.522 0 0 0-1.804-4.372zm5.544-.48-2.3.744a29.979 29.979 0 0 1 1.536 4.416l2.232-.552a33.739 33.739 0 0 0-1.468-4.612zm-6.36-1.992v1.728h12.648v-1.68c1.08.48 2.232.936 3.48 1.368l1.224-2.16a36.425 36.425 0 0 1-10.272-4.944h-1.536a37.2 37.2 0 0 1-10.272 4.9l1.224 2.184c1.248-.44 2.4-.916 3.504-1.4zm11.616-.432h-10.656A29.013 29.013 0 0 0 203 13.144a30.9 30.9 0 0 0 5.3 3.24zm-12.1-7.056h1.496c.36.864.672 1.776.96 2.712l2.256-.84c-.192-.576-.456-1.2-.744-1.872h2.808V7.12h-5.832c.144-.432.312-.888.456-1.368l-2.424-.528a16.832 16.832 0 0 1-3.12 5.88l2.184 1.368a20.514 20.514 0 0 0 1.964-3.144zm10.056 0h1.776c.48.96.936 1.944 1.32 2.952l2.28-.888a23.605 23.605 0 0 0-1.032-2.064h3.196V7.12h-6.6q.216-.648.432-1.368l-2.376-.528a15.062 15.062 0 0 1-2.376 4.876l2.112 1.368a18.582 18.582 0 0 0 1.272-2.14zm17.832-2.9v2.416h6.816v15.36a.781.781 0 0 1-.864.888c-.936 0-1.9-.072-2.9-.168l.552 2.448h3.216a2.261 2.261 0 0 0 2.544-2.544V8.848h4.776V6.424zm-4.824-.984-1.768 1.72a21.972 21.972 0 0 1 3.936 3.528l1.728-1.752a33.621 33.621 0 0 0-3.892-3.504zm-3.336 6.936v2.4h3.288V23.3a1.635 1.635 0 0 1-.648 1.3l.96 2.256a37.083 37.083 0 0 0 5.232-3.84l-.672-2.616a53.944 53.944 0 0 1-2.448 2.112V12.376zm44.544 2.112-1.44.48c0-1.68.024-3.552.024-5.64h-4.8V5.488h-2.448v3.84h-3.792v2.448h3.792v.024c-.048 6.48-1.776 11.16-5.16 14.088l1.9 1.68q5.58-4.968 5.712-15.768v-.024h2.3c-.048 6.552-.12 10.368-.24 11.448-.164 1.176-.716 1.776-1.652 1.776a23.87 23.87 0 0 1-2.064-.12l.624 2.28c.888.1 1.512.144 1.9.144 2.136 0 3.336-.984 3.576-2.9.144-1.3.264-4.008.312-8.16a65.26 65.26 0 0 1 1.416 4.656l1.872-.864a53.625 53.625 0 0 0-1.828-5.548zm-12.264-.072a13.851 13.851 0 0 1-2.616 5.52l1.7 1.584a16.251 16.251 0 0 0 2.88-6.6zm-8.328-3.72v2.328h2.52V27.5h2.376V13.024h2.424V10.7h-2.424V5.44h-2.376v5.26zm37.224-5.568-1.9 1.368a46.236 46.236 0 0 1 3.264 5.112l1.968-1.368a41.029 41.029 0 0 0-3.328-5.12zm5.472 1.344a30.118 30.118 0 0 1-3.98 11.944 33.1 33.1 0 0 1-4.632-10.632l-2.136 1.224a38.437 38.437 0 0 0 5.28 11.472 18.4 18.4 0 0 1-6.5 4.944l1.368 2.16a20.483 20.483 0 0 0 6.768-5.04 22.785 22.785 0 0 0 6.216 5.04l1.488-2.184a20.307 20.307 0 0 1-6.192-4.848 31.829 31.829 0 0 0 4.7-13.584zm-15.24-1.008-1.748 1.648a21.8 21.8 0 0 1 3.84 3.576l1.728-1.752a32.5 32.5 0 0 0-3.816-3.48zm-3.408 6.912v2.4h3.312v8.3a1.551 1.551 0 0 1-.672 1.272l.96 2.28a37.161 37.161 0 0 0 4.68-3.792l-.7-2.64-1.9 1.824v-9.652z" transform="translate(30 50)"/>
        </g>
        <g id="fc_box_big_no_btn-2" data-name="fc_box_big_no_btn" transform="translate(407 2306)">
            <g transform="translate(-114 -1359)" style="filter:url(#box-4)">
                <g id="box-14" data-name="box" class="cls-2">
                    <path class="cls-11" d="M0 0h1108v130H0z" transform="translate(114 1359)"/>
                    <path class="cls-12" d="M1 1h1106v128H1z" transform="translate(114 1359)"/>
                </g>
            </g>
            <path id="패스_10696" data-name="패스 10696" class="cls-3" d="M443.348 6.028h-6.041V23h5.983c5.171 0 8.3-3.2 8.3-8.5-.004-5.29-3.129-8.472-8.242-8.472zm-2.519 13.948V9.052h2.329c3.207 0 4.906 1.666 4.906 5.445 0 3.8-1.7 5.478-4.923 5.478zm18.564-9.87c-3.381 0-5.3 1.74-5.5 3.953h3.29a1.925 1.925 0 0 1 2.13-1.409c1.285 0 2.014.613 2.022 1.691v1.028c-.53.017-2.254.091-3.157.149-2.445.157-4.732 1.077-4.732 3.928 0 2.511 1.807 3.8 4.235 3.8a3.906 3.906 0 0 0 3.721-2.006h.1V23h3.29v-8.577c-.005-3.067-2.624-4.323-5.4-4.323zm-.729 10.724c-1.111 0-1.9-.506-1.9-1.492s.762-1.55 1.972-1.649c.6-.058 2.1-.141 2.611-.166v.928a2.463 2.463 0 0 1-2.684 2.378zm14.287-.456c-.713-.025-1.21-.265-1.21-1.276v-6.217h2.4v-2.61h-2.4v-3.05h-3.472v3.05h-1.749v2.61h1.749v6.688c-.017 2.478 1.691 3.6 4.21 3.6a11.972 11.972 0 0 0 1.832-.124v-2.73c-.411.025-1.021.066-1.361.058zM481.66 10.1c-3.381 0-5.3 1.74-5.5 3.953h3.29a1.925 1.925 0 0 1 2.13-1.409c1.285 0 2.014.613 2.022 1.691v1.028c-.53.017-2.254.091-3.157.149-2.445.157-4.732 1.077-4.732 3.928 0 2.511 1.807 3.8 4.235 3.8a3.906 3.906 0 0 0 3.721-2.006h.1V23h3.29v-8.577c-.004-3.067-2.623-4.323-5.399-4.323zm-.729 10.724c-1.111 0-1.9-.506-1.9-1.492s.762-1.55 1.972-1.649c.6-.058 2.1-.141 2.611-.166v.928a2.463 2.463 0 0 1-2.683 2.384zm22.3-4.218h3.669c-.05 2.138-1.5 3.5-3.9 3.5-2.71 0-4.442-2.022-4.442-5.61 0-3.564 1.782-5.577 4.4-5.577a3.488 3.488 0 0 1 3.6 2.577h3.588c-.472-3.348-3.423-5.7-7.251-5.7-4.475 0-7.914 3.232-7.914 8.735 0 5.37 3.224 8.7 7.989 8.7 4.276 0 7.334-2.71 7.334-7.169v-2.12h-7.077zm14.935-6.506c-3.381 0-5.3 1.74-5.5 3.953h3.29a1.925 1.925 0 0 1 2.13-1.409c1.285 0 2.014.613 2.022 1.691v1.028c-.53.017-2.254.091-3.157.149-2.445.157-4.732 1.077-4.732 3.928 0 2.511 1.807 3.8 4.235 3.8a3.906 3.906 0 0 0 3.721-2.006h.1V23h3.29v-8.577c-.004-3.067-2.623-4.323-5.399-4.323zm-.729 10.724c-1.111 0-1.9-.506-1.9-1.492s.762-1.55 1.972-1.649c.6-.058 2.1-.141 2.61-.166v.928a2.463 2.463 0 0 1-2.683 2.384zm12.232 6.945v-6.8h.108a3.777 3.777 0 0 0 3.622 2.238c2.909 0 5.171-2.3 5.171-6.555 0-4.359-2.354-6.547-5.171-6.547a3.753 3.753 0 0 0-3.622 2.3h-.157v-2.134h-3.42v17.5zm-.075-11.138c0-2.3.97-3.754 2.718-3.754 1.773 0 2.71 1.525 2.71 3.754 0 2.246-.953 3.8-2.71 3.8-1.732.008-2.718-1.508-2.718-3.796zM549.931 23v-7.036h6.92v-2.909h-6.92v-4.11h7.669V6.028h-11.191V23zm11.644-14.4a1.833 1.833 0 0 0 1.889-1.765 1.894 1.894 0 0 0-3.779 0 1.833 1.833 0 0 0 1.89 1.765zm1.732 14.4V10.271h-3.472V23zm2.7-16.972V23h3.472V6.028zm6.174 0V23h3.472V6.028zM580.1 8.6a1.833 1.833 0 0 0 1.889-1.765 1.894 1.894 0 0 0-3.779 0A1.833 1.833 0 0 0 580.1 8.6zm1.729 14.4V10.271h-3.472V23zM588 15.633a2.373 2.373 0 0 1 2.445-2.644 2.2 2.2 0 0 1 2.279 2.511V23h3.476v-8.1c0-2.975-1.732-4.79-4.384-4.79a3.843 3.843 0 0 0-3.829 2.4h-.149v-2.239h-3.308V23H588zm16.583 12.406c3.622 0 6.182-1.649 6.182-4.906V10.271h-3.431v2.138h-.134a3.77 3.77 0 0 0-3.638-2.3c-2.809 0-5.171 2.146-5.171 6.456 0 4.235 2.3 6.257 5.18 6.257a3.718 3.718 0 0 0 3.638-2.08h.149v2.345c0 1.765-1.077 2.445-2.693 2.445-1.376 0-2.337-.456-2.528-1.483h-3.427c.207 2.415 2.37 3.99 5.876 3.99zm.066-7.831c-1.765 0-2.718-1.4-2.718-3.613 0-2.188.936-3.713 2.718-3.713 1.732 0 2.71 1.459 2.71 3.713s-.992 3.612-2.707 3.612z" transform="translate(30 33)"/>
            <g id="fc_textlink" transform="translate(671 76)">
                <g id="stack" transform="translate(-2524.094 20210)">
                    <g id="ico_fc_go_tab" transform="translate(2431.094 -20209)">
                        <path id="패스_7163" data-name="패스 7163" class="cls-6" d="m8.62 5.071 5 5-5 5" transform="translate(-2.62 -.072)"/>
                    </g>
                    <path id="패스_10697" data-name="패스 10697" class="cls-7" d="M-28.864-7.184v6.048h9.792v-6.048zm8.32 4.7h-6.848v-1.004h6.848zm-6.848-2.288V-5.84h6.848v1.072zm-3.2-7.04v1.412h4.56a15.673 15.673 0 0 1-5.344 2.352l.816 1.348a13.56 13.56 0 0 0 5.86-3.668v2.7h1.472v-2.72a12.6 12.6 0 0 0 5.92 3.68l.656-1.376a13.57 13.57 0 0 1-5.216-2.32h4.528v-1.408h-5.888v-1.344H-24.7v1.344zm-.32 11.632v1.396h13.84V-.176zm16.8-10.128v1.3h4.336c-.16.256-.352.528-.544.8h-4.656v1.344h3.568a22.321 22.321 0 0 1-3.984 3.376l.816 1.3A26.871 26.871 0 0 0-12.224-4v5.664h1.44v-.608h6.928v.608h1.44v-7.728h-7.76c.208-.256.416-.528.64-.8H-.9v-1.344h-7.74c.16-.256.3-.528.464-.8h6.352v-1.3h-5.744q.168-.432.336-.912a42.4 42.4 0 0 0 5.312-.72l-.7-1.2a61.528 61.528 0 0 1-11.392.9l.432 1.248c1.728 0 3.36-.048 4.864-.128-.112.272-.224.544-.352.816zm3.328 7.408h6.928v.752h-6.928zm6.928-1.152h-6.928v-.784h6.928zm-6.928 3.06h6.928v.816h-6.928zM1.072-12.576v1.424h6.176v1.1H2.4v6.576h4.592A5.555 5.555 0 0 1 6.3-1.824a14 14 0 0 1-2.24-1.424l-1.168.8A14.869 14.869 0 0 0 5.248-.832 10.3 10.3 0 0 1 .64.288L1.3 1.68A11 11 0 0 0 6.736-.1a22.944 22.944 0 0 0 8.352 1.8l.384-1.476A23.3 23.3 0 0 1 7.712-1.2a6.617 6.617 0 0 0 .816-2.272h5.12v-6.576h-4.9v-1.1h6.192v-1.424zM12.144-4.8H8.7a9.269 9.269 0 0 0 .048-.976v-.384h3.392zM7.2-4.8H3.9v-1.36h3.348v.384c0 .32-.016.656-.048.976zM3.9-7.408v-1.344h3.348v1.344zm4.852-1.344h3.392v1.344H8.752zM23.776-13.2a11.209 11.209 0 0 1-6.336 2.976l.9 1.392a14.792 14.792 0 0 0 4.38-1.648h4.3a8.266 8.266 0 0 1-3.488 2.64 21.069 21.069 0 0 0-1.52-1.632l-1.312.624a15.69 15.69 0 0 1 1.412 1.488 17.766 17.766 0 0 1-3.6.544l.64 1.376c4.688-.384 7.888-2.128 9.616-5.2v-1.184H24.5c.208-.208.416-.432.64-.672zm-.256 10-1.344.64a16.586 16.586 0 0 1 1.536 1.744 21.082 21.082 0 0 1-6.24.816l.608 1.456q9.36-.24 12.784-5.856v-1.184h-4.08a9.249 9.249 0 0 0 .928-.848l-1.3-.7c-1.632 1.728-4.208 2.752-7.7 3.088l.912 1.36a21.8 21.8 0 0 0 4.9-1.52h4.384a9.622 9.622 0 0 1-3.76 2.848A19.989 19.989 0 0 0 23.52-3.2zM-32 3h64v1h-64z" transform="translate(2395.094 -20194)"/>
                </g>
            </g>
        </g>
        <g id="fc_box_big_no_btn-3" data-name="fc_box_big_no_btn" transform="translate(407 2486)">
            <g transform="translate(-114 -1539)" style="filter:url(#box-5)">
                <g id="box-15" data-name="box" class="cls-2">
                    <path class="cls-11" d="M0 0h1108v130H0z" transform="translate(114 1539)"/>
                    <path class="cls-12" d="M1 1h1106v128H1z" transform="translate(114 1539)"/>
                </g>
            </g>
            <path id="패스_10698" data-name="패스 10698" class="cls-3" d="M397.269 5.632a16.859 16.859 0 0 1-5.208 6.792l1.416 2.16c.288-.264.6-.5.864-.744v2.136c0 2.76-.1 6.048-2.616 9.048l1.776 1.728c2.712-3.24 3.264-6.744 3.264-10.656V13.48h13.848v-2.208h-5.928a29.648 29.648 0 0 0 1.464-2.688L404.565 7.5h-5.4c.192-.36.36-.72.528-1.1zm11.112 15.432a6.115 6.115 0 0 1-.381 2.184c-.288.456-.744.672-4.032.672-2.784 0-3.528-.024-3.528-.672v-6.216h5.016v2.136c0 .384-.216.576-.744.576a12.146 12.146 0 0 1-1.92-.216l.528 2.232c.888.024 1.32.048 2.016.048 1.752 0 2.568-.576 2.568-2.112v-4.752h-9.936v9.072c0 1.872 1.32 2.04 5.952 2.04 4.56 0 5.592-.384 6.264-1.464a7.848 7.848 0 0 0 .672-2.664zm-5.616-11.5a13.2 13.2 0 0 1-.984 1.7h-5.04a14.285 14.285 0 0 0 1.272-1.7zm28.728 8.808v-1.988h-8.256v-1.032h6.408v-1.968h-6.408v-.936h5.5V10.5h-5.5V9.28h5.832v2.808h2.4v-4.9h-8.232V5.752h-2.5v1.44h-8.112v4.872h2.424V9.28h5.712v1.22h-5.352v1.944h5.352v.936H414.5v1.968h6.264v1.032h-8.16v1.992zm-1.728 8.016V19.36h-15.312v7.272h2.4v-1.008h10.488v.768zm-12.912-5.016h10.488v2.232h-10.488zm25.152-14.54a25.689 25.689 0 0 1-.84 5.544 29.206 29.206 0 0 0-1.128-3.168l-1.416.7v-4.18H436.2v20.856h2.424V10.408a22.774 22.774 0 0 1 .984 3.6l1.176-.576a13.774 13.774 0 0 1-.792 1.7l2.136 1.176a19.584 19.584 0 0 0 1.416-3.84h1.92v4.252H441.5v2.256h3.96v4.7h-5.208v2.232h12.312V23.68h-4.632v-4.7h3.912v-2.26h-3.912v-4.248h4.056v-2.256h-4.056V5.728h-2.472v4.488h-1.44c.168-.984.288-1.992.408-3.048zm-8.256 3.24a23.421 23.421 0 0 1-.744 6.1l1.92.888a28.53 28.53 0 0 0 .816-6.552zm29.64 2.016V9.64h-2.736V5.728h-2.592V9.64h-3.216v2.448h2.88a21.4 21.4 0 0 1-3.5 7.68l1.44 2.376a14.878 14.878 0 0 0 2.472-4.68 34.282 34.282 0 0 0-.072 2.064v7.08h2.592v-7.656c0-.7-.048-1.776-.1-2.664a16.52 16.52 0 0 0 1.92 3.408l1.392-2.064v8.976h2.688V25h3.648v1.32h2.712V6.52h-9.048v10.728a17.674 17.674 0 0 1-2.9-5.16zm3.168 7.416h3.648v3.12h-3.648zm0-5.3h3.648v3h-3.648zm0-5.256h3.648v2.9h-3.648zM481.8 5.392l-2.3 1.1a28.838 28.838 0 0 1 2.4 3.5h-5v2.448h7.776v.576a20.621 20.621 0 0 1-.36 3.12h-8.784v2.448h8.068a11.475 11.475 0 0 1-1.056 2.016c-1.3 1.8-3.768 3.312-7.464 4.512l1.368 2.184q5.544-1.728 7.992-4.968a15.14 15.14 0 0 0 1.512-2.76q2.124 4.932 9.528 7.968l1.488-2.376c-4.752-1.632-7.728-3.816-8.88-6.576h8.28v-2.44h-9.48a24.366 24.366 0 0 0 .336-3.12v-.576h7.752V10h-4.44a21.541 21.541 0 0 0 1.9-4.1l-2.448-.672A23.252 23.252 0 0 1 487.725 10H483l1.392-.7a46.077 46.077 0 0 0-2.592-3.908zm19.176.168-1.248 1.848a17.248 17.248 0 0 1 3.864 1.848l1.344-2.016a21.125 21.125 0 0 0-3.963-1.68zm7.152-.384a8.07 8.07 0 0 1-3 4.08l1.488 1.944a12.941 12.941 0 0 0 2.208-2.232h2.4a5.432 5.432 0 0 1-1.56 2.52 11.2 11.2 0 0 1-4.824 1.92l.936 2.232c2.76-.648 4.7-1.536 5.808-2.688.216-.24.432-.5.672-.792 1.512 1.728 3.936 2.928 7.3 3.624l.888-2.184c-3.5-.624-5.88-1.776-7.152-3.408.12-.384.24-.792.336-1.224h3.24a10.889 10.889 0 0 1-.868 2.064l2.4.72a27.29 27.29 0 0 0 1.032-3.48V6.784h-9.336a10.387 10.387 0 0 0 .5-1.3zm9.72 10.728h-15.84v7.464h2.5v-5.136h10.824v4.848h2.52zm-9 2.88c-.168 2.256-.768 3.864-1.824 4.8q-1.8 1.4-7.416 1.656l1.008 2.28c4.536-.384 7.392-1.2 8.568-2.472 1.1-.96 1.848-3 2.184-6.072zm-4.948-8.592a23.1 23.1 0 0 1-4.656 3.12l1.632 1.944a22.581 22.581 0 0 0 4.464-3.36zm7.872 12.7-1.272 1.9a46.494 46.494 0 0 1 8.4 2.928l1.344-2.088a54.012 54.012 0 0 0-8.471-2.744zm13.465-15.628-2.064.672a34.334 34.334 0 0 1 1.392 4.848l1.92-.528a39.815 39.815 0 0 0-1.248-4.992zm5.88-.24a21.154 21.154 0 0 1-.864 4.992l1.848.6a19.014 19.014 0 0 0 1.1-5.3zm-7.992 6.456v2.42h3.84a17.886 17.886 0 0 1-4.224 5.5l1.056 2.616a24.974 24.974 0 0 0 3.36-5.136v8.568h2.52v-8.76c.552.816 1.2 1.848 1.92 3.048l1.488-2.232a45.994 45.994 0 0 0-3.408-3.168V15.9h3.312v-2.42h-3.312V5.368h-2.52v8.112zm16.944-8.088v13.656l-6.864 1.032.36 2.5 6.5-.984v5.856h2.472v-6.24l2.616-.384-.432-2.5-2.184.336V5.392zm-4.2 1.56-1.656 1.608a23.107 23.107 0 0 1 3.792 3.528l1.7-1.7a27.775 27.775 0 0 0-3.836-3.436zm-.576 5.64-1.68 1.584a23.689 23.689 0 0 1 3.744 3.624l1.7-1.728a28.336 28.336 0 0 0-3.764-3.48zm12.778 5.6a16.61 16.61 0 0 0 3.348 10.492h3.307c-1.715-2.188-3.041-6.572-3.041-10.492s1.326-8.312 3.041-10.5h-3.307a16.618 16.618 0 0 0-3.348 10.496zm23.586-4.243c-.481-3.9-3.431-6.149-7.343-6.149-4.483 0-7.89 3.182-7.89 8.718s3.348 8.718 7.89 8.718c4.309 0 6.945-2.859 7.343-5.992l-3.564-.017a3.521 3.521 0 0 1-3.721 2.884c-2.6 0-4.376-1.931-4.376-5.594 0-3.572 1.749-5.594 4.392-5.594a3.5 3.5 0 0 1 3.7 3.025zm15.05-1.061c-.05-3.008-2.528-5.088-6.29-5.088-3.7 0-6.431 2.047-6.414 5.122-.008 2.5 1.757 3.928 4.616 4.624l1.856.456c1.848.456 2.892.994 2.9 2.146-.008 1.276-1.2 2.13-3.05 2.13-1.873 0-3.232-.854-3.348-2.561h-3.423c.1 3.63 2.718 5.528 6.812 5.528 4.135 0 6.555-1.981 6.572-5.08-.017-2.834-2.18-4.318-5.08-4.972l-1.533-.373c-1.467-.34-2.735-.887-2.71-2.13 0-1.119.995-1.939 2.776-1.939 1.724 0 2.793.787 2.925 2.138zM602.576 25l-3.613-6.6a4.885 4.885 0 0 0 3-4.84c0-3.348-2.213-5.528-6.075-5.528h-6.646V25h3.522v-6.033h2.685L598.673 25zm-7.343-14.08c2.1 0 3.108.936 3.108 2.635s-1.011 2.561-3.1 2.561h-2.478v-5.2zm14.967 7.268a16.612 16.612 0 0 0-3.34-10.5h-3.315c1.724 2.188 3.05 6.572 3.05 10.5s-1.326 8.3-3.05 10.492h3.315a16.6 16.6 0 0 0 3.34-10.492zm11.13-12.6c-.888 3.7-2.064 6.936-4.416 9.648l1.728 2.112c.408-.528.792-1.128 1.2-1.68v10.94h2.472v-1.344h10.152v-2.232h-4.7v-2.376h3.934v-2.208h-3.936v-2.16h3.936V14.1h-3.936v-2.3h4.32V9.544H628c.384-1.008.744-1.992 1.128-3.1l-2.472-.6c-.36 1.272-.768 2.5-1.224 3.7h-2.64a28.642 28.642 0 0 0 1.008-3.432zM616.387 16.7a26.825 26.825 0 0 1-3.48 7.3l1.944 1.8a46.236 46.236 0 0 0 3.432-7.344zm2.113-5.62a31.3 31.3 0 0 0-3.36-4.224l-1.969 1.584a29.336 29.336 0 0 1 3.312 4.3zm3.816 9.576h2.976v2.376h-2.976zm0-8.856h2.976v2.3h-2.976zm0 4.488h2.976v2.16h-2.976zm30.1.384h-14.021a35.258 35.258 0 0 0 6.792-2.4 31.49 31.49 0 0 0 7.224 2.4zm-4.829-3.772a21.2 21.2 0 0 0 4.848-4.248V6.76h-9.288c.264-.384.528-.768.816-1.2l-2.472-.552a20.351 20.351 0 0 1-6.456 5.928l1.608 1.944a23.613 23.613 0 0 0 3.12-2.352 18.19 18.19 0 0 0 3.048 2.4 35.61 35.61 0 0 1-8.784 2.208l1.08 2.208c.72-.144 1.416-.264 2.136-.408V27.5h2.376v-.84h10.992v.84h2.376V16.8c.672.12 1.392.24 2.112.36l1.08-2.208a38.292 38.292 0 0 1-8.592-2.052zm-6.336-3.84.12-.12h7.872a21.39 21.39 0 0 1-4.08 2.88 16.806 16.806 0 0 1-3.912-2.756zm-1.632 15.48V22.6h4.3v1.944zm6.648 0V22.6h4.344v1.944zm-6.648-3.912v-1.9h4.3v1.9zm6.648-1.9h4.344v1.9h-4.344z" transform="translate(30 33)"/>
            <g id="fc_textlink-2" data-name="fc_textlink" transform="translate(671 76)">
                <g id="stack-2" data-name="stack" transform="translate(-2524.094 20210)">
                    <g id="ico_fc_go_tab-2" data-name="ico_fc_go_tab" transform="translate(2431.094 -20209)">
                        <path id="패스_7163-2" data-name="패스 7163" class="cls-6" d="m8.62 5.071 5 5-5 5" transform="translate(-2.62 -.072)"/>
                    </g>
                    <path id="패스_10699" data-name="패스 10699" class="cls-7" d="M-28.864-7.184v6.048h9.792v-6.048zm8.32 4.7h-6.848v-1.004h6.848zm-6.848-2.288V-5.84h6.848v1.072zm-3.2-7.04v1.412h4.56a15.673 15.673 0 0 1-5.344 2.352l.816 1.348a13.56 13.56 0 0 0 5.86-3.668v2.7h1.472v-2.72a12.6 12.6 0 0 0 5.92 3.68l.656-1.376a13.57 13.57 0 0 1-5.216-2.32h4.528v-1.408h-5.888v-1.344H-24.7v1.344zm-.32 11.632v1.396h13.84V-.176zm16.8-10.128v1.3h4.336c-.16.256-.352.528-.544.8h-4.656v1.344h3.568a22.321 22.321 0 0 1-3.984 3.376l.816 1.3A26.871 26.871 0 0 0-12.224-4v5.664h1.44v-.608h6.928v.608h1.44v-7.728h-7.76c.208-.256.416-.528.64-.8H-.9v-1.344h-7.74c.16-.256.3-.528.464-.8h6.352v-1.3h-5.744q.168-.432.336-.912a42.4 42.4 0 0 0 5.312-.72l-.7-1.2a61.528 61.528 0 0 1-11.392.9l.432 1.248c1.728 0 3.36-.048 4.864-.128-.112.272-.224.544-.352.816zm3.328 7.408h6.928v.752h-6.928zm6.928-1.152h-6.928v-.784h6.928zm-6.928 3.06h6.928v.816h-6.928zM1.072-12.576v1.424h6.176v1.1H2.4v6.576h4.592A5.555 5.555 0 0 1 6.3-1.824a14 14 0 0 1-2.24-1.424l-1.168.8A14.869 14.869 0 0 0 5.248-.832 10.3 10.3 0 0 1 .64.288L1.3 1.68A11 11 0 0 0 6.736-.1a22.944 22.944 0 0 0 8.352 1.8l.384-1.476A23.3 23.3 0 0 1 7.712-1.2a6.617 6.617 0 0 0 .816-2.272h5.12v-6.576h-4.9v-1.1h6.192v-1.424zM12.144-4.8H8.7a9.269 9.269 0 0 0 .048-.976v-.384h3.392zM7.2-4.8H3.9v-1.36h3.348v.384c0 .32-.016.656-.048.976zM3.9-7.408v-1.344h3.348v1.344zm4.852-1.344h3.392v1.344H8.752zM23.776-13.2a11.209 11.209 0 0 1-6.336 2.976l.9 1.392a14.792 14.792 0 0 0 4.38-1.648h4.3a8.266 8.266 0 0 1-3.488 2.64 21.069 21.069 0 0 0-1.52-1.632l-1.312.624a15.69 15.69 0 0 1 1.412 1.488 17.766 17.766 0 0 1-3.6.544l.64 1.376c4.688-.384 7.888-2.128 9.616-5.2v-1.184H24.5c.208-.208.416-.432.64-.672zm-.256 10-1.344.64a16.586 16.586 0 0 1 1.536 1.744 21.082 21.082 0 0 1-6.24.816l.608 1.456q9.36-.24 12.784-5.856v-1.184h-4.08a9.249 9.249 0 0 0 .928-.848l-1.3-.7c-1.632 1.728-4.208 2.752-7.7 3.088l.912 1.36a21.8 21.8 0 0 0 4.9-1.52h4.384a9.622 9.622 0 0 1-3.76 2.848A19.989 19.989 0 0 0 23.52-3.2zM-32 3h64v1h-64z" transform="translate(2395.094 -20194)"/>
                </g>
            </g>
        </g>
        <g id="fc_box_big_no_btn-4" data-name="fc_box_big_no_btn" transform="translate(407 2666)">
            <g transform="translate(-114 -1719)" style="filter:url(#box-6)">
                <g id="box-16" data-name="box" class="cls-2">
                    <path class="cls-11" d="M0 0h1108v130H0z" transform="translate(114 1719)"/>
                    <path class="cls-12" d="M1 1h1106v128H1z" transform="translate(114 1719)"/>
                </g>
            </g>
            <path id="패스_10700" data-name="패스 10700" class="cls-3" d="M402.533 25v-2.917h-7.3V8.028h-3.522V25zm15.6 0-3.613-6.6a4.885 4.885 0 0 0 3-4.84c0-3.348-2.213-5.528-6.075-5.528H404.8V25h3.522v-6.033h2.685L414.234 25zM410.8 10.92c2.1 0 3.108.936 3.108 2.635s-1.011 2.561-3.1 2.561h-2.478v-5.2zm23-4.688a9.77 9.77 0 0 1-1.872 2.184 25.845 25.845 0 0 1-1.44-2.424l-1.872 1.176a26.4 26.4 0 0 0 3.192 4.9h-5.688a19.626 19.626 0 0 0 2.68-4.42l-1.464-1.224h-6.816v2.184h5.208a10.535 10.535 0 0 1-1.584 2.328c-.912-.744-1.848-1.512-2.712-2.16l-1.512 1.632c.864.72 1.776 1.416 2.64 2.208a14.733 14.733 0 0 1-3.6 2.472l1.272 2.016a21.4 21.4 0 0 0 2.136-1.344v5.448H424c.312.84.576 1.656.792 2.376h-5.3v2.28h18.672v-2.28h-5.3c.24-.72.432-1.488.648-2.376h1.872V15.52a15.748 15.748 0 0 0 1.992 1.3l1.488-2.064a16.185 16.185 0 0 1-3.144-2.064 23.052 23.052 0 0 0 2.664-2.832l-1.824-1.464a28 28 0 0 1-2.424 2.784 7.381 7.381 0 0 1-.84-.936c.792-.768 1.56-1.632 2.352-2.544zm-8.736 7.1v.912h7.584v-1.172a19.785 19.785 0 0 0 2.688 2.424h-12.681a18.767 18.767 0 0 0 2.4-2.16zm-.288 4.224h8.16v1.584h-8.16zm5.592 6.024h-3.048c-.216-.744-.48-1.536-.72-2.376h4.416c-.201.82-.416 1.636-.657 2.38zm32.328-2.832-2.5-.816a17.078 17.078 0 0 1-.432 3.48 1.426 1.426 0 0 1-1.536.96h-4.752a.965.965 0 0 1-1.008-1.08v-7.484h8.376v-9.6h-11.813v2.4h9.408v4.8h-8.424V24.3a2.108 2.108 0 0 0 2.352 2.424h6.264c1.536 0 2.52-.384 2.976-1.1a13.084 13.084 0 0 0 1.08-4.872zM443.559 5.44l-1.776 1.728a21.972 21.972 0 0 1 3.936 3.528l1.728-1.752a33.623 33.623 0 0 0-3.888-3.504zm-3.336 6.936v2.4h3.288V23.3a1.635 1.635 0 0 1-.648 1.3l.96 2.256a37.085 37.085 0 0 0 5.232-3.84l-.672-2.616a53.944 53.944 0 0 1-2.448 2.112V12.376zm33.84-6.984V8.7h-7.7v14.068h2.472v-1.392h5.232v6h2.544v-6h5.136V22.6h2.472V8.7h-7.608V5.392zm-5.232 13.632v-2.9h5.232v2.9zm7.776 0v-2.9h5.136v2.9zm-7.776-5.136v-2.856h5.232v2.856zm7.776 0v-2.856h5.136v2.856zM501.639 5.3v1.32h-5.52v2.012h5.52V9.64h-4.512v1.968h4.512v1.032h-6.192v2.06h14.88v-2.06h-6.264v-1.032h4.848V9.64h-4.848V8.632h5.688V6.616h-5.688V5.3zm-2.184 15.456h6.864v1.176h-6.864zm6.864-1.872h-6.864v-1.2h6.864zm-6.864 4.944h6.864v.672c0 .5-.216.768-.648.768l-1.9-.1.6 2.184h1.992a2.078 2.078 0 0 0 2.352-2.328v-9.36H497.1V27.5h2.352zm-7.9-18.36-1.776 1.7a21.958 21.958 0 0 1 3.936 3.5l1.728-1.728a31.489 31.489 0 0 0-3.884-3.476zm-3.408 6.912v2.4h3.192v8.472a1.743 1.743 0 0 1-.624 1.344l.936 2.256a37.466 37.466 0 0 0 4.536-3.816l-.672-2.64c-.6.624-1.176 1.224-1.752 1.776v-9.796zm26.16-6.816-1.248 1.848a17.248 17.248 0 0 1 3.864 1.848l1.344-2.016a21.123 21.123 0 0 0-3.956-1.684zm7.152-.384a8.071 8.071 0 0 1-3 4.08l1.488 1.944a12.937 12.937 0 0 0 2.208-2.232h2.4a5.432 5.432 0 0 1-1.56 2.52 11.2 11.2 0 0 1-4.824 1.92l.936 2.232c2.76-.648 4.7-1.536 5.808-2.688.216-.24.432-.5.672-.792 1.512 1.728 3.936 2.928 7.3 3.624l.888-2.184c-3.5-.624-5.88-1.776-7.152-3.408.12-.384.24-.792.336-1.224h3.24a10.889 10.889 0 0 1-.864 2.064l2.4.72a27.309 27.309 0 0 0 1.032-3.48V6.784h-9.336a10.377 10.377 0 0 0 .5-1.3zm9.72 10.728h-15.84v7.464h2.5v-5.14h10.824v4.848h2.52zm-9 2.88c-.168 2.256-.768 3.864-1.824 4.8q-1.8 1.4-7.416 1.656l1.008 2.28c4.536-.384 7.392-1.2 8.568-2.472 1.1-.96 1.848-3 2.184-6.072zm-4.944-8.592a23.1 23.1 0 0 1-4.656 3.12l1.632 1.944a22.581 22.581 0 0 0 4.464-3.36zm7.872 12.7-1.272 1.9a46.494 46.494 0 0 1 8.4 2.928l1.344-2.088a54.011 54.011 0 0 0-8.468-2.748zm13.468-15.632-2.064.672a34.334 34.334 0 0 1 1.392 4.848l1.92-.528a39.815 39.815 0 0 0-1.248-4.992zm5.88-.24a21.154 21.154 0 0 1-.864 4.992l1.848.6a19.014 19.014 0 0 0 1.1-5.3zm-7.992 6.456v2.42h3.84a17.886 17.886 0 0 1-4.224 5.5l1.056 2.616a24.974 24.974 0 0 0 3.36-5.136v8.568h2.52v-8.76c.552.816 1.2 1.848 1.92 3.048l1.488-2.232a45.994 45.994 0 0 0-3.408-3.168V15.9h3.312v-2.42h-3.312V5.368H540.5v8.112zm16.944-8.088v13.656l-6.864 1.032.36 2.5 6.5-.984v5.856h2.472v-6.24l2.616-.384-.432-2.5-2.184.336V5.392zm-4.2 1.56-1.656 1.608a23.11 23.11 0 0 1 3.792 3.528l1.7-1.7a27.775 27.775 0 0 0-3.836-3.436zm-.576 5.64-1.68 1.584A23.689 23.689 0 0 1 550.7 17.8l1.7-1.728a28.336 28.336 0 0 0-3.769-3.48zm19.32-5.784v2.136h5.616c-.048.336-.12.672-.168 1.056h-4.224v10.944H567.3v-2.016c-.672.288-1.368.576-2.088.84v-6.5h2.188v-2.356h-2.184v-5.52h-2.424v5.52h-2.4v2.352h2.4v7.224a26.406 26.406 0 0 1-2.664.576l.624 2.424a50.5 50.5 0 0 0 6.36-2.016v1.68h4.488a20.62 20.62 0 0 1-4.68 2.664l1.464 1.872a21.05 21.05 0 0 0 5.136-3.312l-1.42-1.224h5.4l-1.32 1.224a27.838 27.838 0 0 1 4.56 3.288l1.512-1.728a24.468 24.468 0 0 0-4.248-2.784h4.496v-2.208h-2.04V10h-4.68c.048-.336.12-.7.168-1.056h5.712V6.808h-5.424l.144-1.32-2.424-.336-.144 1.656zm3.576 14.136v-1.032h6.573v1.032zm0-2.736v-.984h6.573v.984zm0-2.664v-.96h6.573v.96zm0-2.664v-.96h6.573v.96zm20.328.624h9.984v-2.352h-9.432c.144-.6.264-1.224.408-1.9l-2.472-.24a92.01 92.01 0 0 1-2.352 9.24h13.392c-.072 3.7-.288 5.784-.624 6.216a2.993 2.993 0 0 1-2.208.624c-.864 0-1.824-.024-2.832-.072l.72 2.328h2.016c2.184 0 3.624-.408 4.3-1.176s1.052-4.172 1.145-10.22h-12.765q.365-1.152.72-2.452zm-6.936 6.84v2.4h14.5v-2.4zM605.2 6.088h-19.825V11.7h2.472V8.44h14.88v3.288h2.473zm7.781 1.144-5.47 20.32h3l5.47-20.32zm11.984 10.88a9.585 9.585 0 0 1-3.264 6.456l1.584 1.9a15.405 15.405 0 0 0 2.424-2.9 7.54 7.54 0 0 0 4.608 2.448 18.818 18.818 0 0 0 3.624.336c.408 0 .864 0 1.464-.024l.816-2.448c-.7 0-1.368-.024-1.944-.024a21.866 21.866 0 0 1-3.384-.24v-2h4.32v-2.208h-4.32V17.7h5.207v-2.2h-12.24v2.2h4.728v5.14a6.892 6.892 0 0 1-1.8-1.68 12.074 12.074 0 0 0 .528-2.712zm10.152-3.6V6.3h-10.585v8.208zM621.724 5.8H619.4v4.176h-2.3v2.28h2.3v4.584c-.816.288-1.656.552-2.448.792l.6 2.448c.624-.216 1.224-.48 1.848-.744v3.936c0 .6-.312.672-.984.672h-.316a5.154 5.154 0 0 1-1.08-.144l.5 2.448c.552.048.912.072 1.512.072 2.232 0 2.688-.936 2.688-2.616V18.28c.648-.288 1.272-.648 1.872-.936l-.024-2.352-1.848.864v-3.6h2.016v-2.28h-2.016zm5.184 2.712h5.76V9.64h-5.76zm0 2.784h5.76v1.032h-5.76zm23.5 3.6a19.976 19.976 0 0 1-3.168 4.512 23.609 23.609 0 0 1-3.48-4.32l-1.944 1.2a28.127 28.127 0 0 0 3.744 4.656 18.722 18.722 0 0 1-7.584 3.408l1.056 2.256a21.593 21.593 0 0 0 8.256-4.152 21.059 21.059 0 0 0 8.376 3.96l1.032-2.28a19.276 19.276 0 0 1-7.728-3.264 25.323 25.323 0 0 0 3.528-4.9zm5.544-4.488V8.176h-7.536V5.8h-2.52v2.376h-7.1v2.232zm-12.768.36a15.412 15.412 0 0 1-4.848 5.064l1.728 1.752a20.3 20.3 0 0 0 5.376-5.9zm13.2 4.728a19.166 19.166 0 0 1-5.232-4.728l-2.112.936a21.555 21.555 0 0 0 5.64 5.592z" transform="translate(30 49)"/>
        </g>
        <g id="fc_box_big_no_btn-5" data-name="fc_box_big_no_btn" transform="translate(407 2846)">
            <g transform="translate(-114 -1899)" style="filter:url(#box-7)">
                <g id="box-17" data-name="box" class="cls-2">
                    <path class="cls-11" d="M0 0h1108v130H0z" transform="translate(114 1899)"/>
                    <path class="cls-12" d="M1 1h1106v128H1z" transform="translate(114 1899)"/>
                </g>
            </g>
            <path id="패스_10701" data-name="패스 10701" class="cls-3" d="M487.94 18.112V15.9h-17.232v2.208h4.344c-.192 3.36-1.488 5.28-5.52 6.288l1.224 2.208c4.272-1.344 6.5-3.36 6.768-8.5h2.664V23.8c0 1.728.816 2.28 3.96 2.28 2.784 0 3.7-.336 4.152-1.368a10.792 10.792 0 0 0 .648-3.1l-2.424-.72v.264a7.384 7.384 0 0 1-.264 2.04c-.24.552-.624.624-1.848.624h-.552c-.792 0-1.272-.072-1.272-.624v-5.084zm.24-4.92V7.816h-7.632V5.8h-2.5v2.016h-7.508v5.376h2.424v-3.168h12.744v3.168zm-3.5.888V11.9H474v2.18zm6.936 3.768v1.944h7.416v4.176h-2.28V20.7h-2.4v3.264h-3.772v2.04h18.744v-2.04h-7.776V22.72h5.328v-1.9h-5.328v-1.028h6.72v-1.944h-6.792a11.4 11.4 0 0 0 3.888-2.208 13.622 13.622 0 0 0 3.5 1.9l.984-2.112a10.174 10.174 0 0 1-3.1-1.464 11.775 11.775 0 0 0 1.7-4.3h1.08V7.648h-5.448c.192-.552.36-1.1.5-1.68l-2.16-.48a17.844 17.844 0 0 1-2.52 6.072V9.472h-3.44v-.84h3.912V6.856h-3.912v-1.08l-2.208-.024v1.1h-3.912v1.78h3.912v.84l-3.384-.024v4.488h2.688a14.766 14.766 0 0 1-3.408 2.112l1.152 1.9a13.848 13.848 0 0 0 2.976-2.256 7.037 7.037 0 0 0-.024.816v1.008h2.208V16.5a8.833 8.833 0 0 0-.072-.984 14.883 14.883 0 0 0 2.88 2.112l1.152-1.9a11.548 11.548 0 0 1-3.144-1.8h2.64v-1.744l1.368 1.176a10.1 10.1 0 0 0 .936-1.392 11.652 11.652 0 0 0 1.584 2.208 9.182 9.182 0 0 1-3.432 1.8l1.1 1.872zm11.712-8.064a.216.216 0 0 0 .024-.12h2.976a10.959 10.959 0 0 1-1.152 2.928 8.056 8.056 0 0 1-1.852-2.808zm-5.472 1.272v1.32h-1.396v-1.32zm-4.944 0h1.344v1.32h-1.344zm27.048-4.224a25.694 25.694 0 0 1-.84 5.544 29.213 29.213 0 0 0-1.128-3.168l-1.416.7v-4.18h-2.424v20.856h2.424V10.408a22.774 22.774 0 0 1 .984 3.6l1.176-.576a13.792 13.792 0 0 1-.792 1.7l2.136 1.176a19.582 19.582 0 0 0 1.416-3.84h1.92v4.252h-3.96v2.256h3.96v4.7H518.2v2.232h12.312V23.68h-4.632v-4.7h3.92v-2.26h-3.912v-4.248h4.056v-2.256h-4.056V5.728h-2.472v4.488h-1.44c.168-.984.288-1.992.408-3.048zm-8.256 3.24a23.421 23.421 0 0 1-.744 6.1l1.92.888a28.53 28.53 0 0 0 .816-6.552zm37.584-1.488v5.9h-2.976v-5.9zm0 8.328v10.536h2.424V16.912h2.588v-2.424h-2.592v-5.9h1.92V6.232h-11.592v2.352h1.824v5.9h-2.352v2.424h2.328c-.192 4.08-1.416 7.056-3.648 8.976l1.9 1.68c2.544-2.3 3.96-5.856 4.2-10.656zM535.22 8.728a22.059 22.059 0 0 1-3.408 8.376l1.32 2.16c.336-.48.7-.984 1.032-1.512v8.9h2.3v-1.7h4.08v-11.5H536.3a28.43 28.43 0 0 0 1.3-4.728h3.6v-2.4h-8.544v2.4zm1.248 14.04v-7.1h1.776v7.1zm33.216-12.5-1.248 1.9a30.959 30.959 0 0 1 6.744 4.464l1.368-2.088a33.327 33.327 0 0 0-6.864-4.28zm-5.3-.1a20.521 20.521 0 0 1-6.96 4.128l1.056 2.256a25.461 25.461 0 0 0 7.416-4.632zm3.24-4.944-2.784.432c.312.528.6 1.08.888 1.656h-8.616V12.5h2.5V9.616h15.072v2.9h2.5V7.312h-8.736a22.383 22.383 0 0 0-.828-2.088zm-3.436 8.976v2.16l-.048.624h-6.048v2.352h5.616a9.262 9.262 0 0 1-1.248 2.592c-1.056 1.32-3.1 2.424-6.072 3.336l1.344 2.136c3.072-.912 5.3-2.184 6.672-3.864a10.752 10.752 0 0 0 1.92-4.2h4.032v5.52c0 1.608.864 2.424 2.64 2.424h1.9q2.3 0 2.736-1.3a28.567 28.567 0 0 0 .5-3.888l-2.3-.7c0 1.056-.048 2.064-.12 3.024-.1.336-.36.5-.84.5h-1.512c-.36 0-.528-.168-.528-.48v-7.452h-6.172c0-.192.024-.384.048-.624V14.2z" transform="translate(30 49)"/>
        </g>
        <g id="fc_box_big_no_btn-6" data-name="fc_box_big_no_btn" transform="translate(407 3026)">
            <g transform="translate(-114 -2079)" style="filter:url(#box-8)">
                <g id="box-18" data-name="box" class="cls-2">
                    <path class="cls-11" d="M0 0h1108v130H0z" transform="translate(114 2079)"/>
                    <path class="cls-12" d="M1 1h1106v128H1z" transform="translate(114 2079)"/>
                </g>
            </g>
            <path id="패스_10702" data-name="패스 10702" class="cls-3" d="M365.869 5.224A33.769 33.769 0 0 1 355.405 13l1.344 2.448a45.125 45.125 0 0 0 4.08-2.52v1.824h11.976v-1.728a33.376 33.376 0 0 0 3.912 2.4l1.368-2.448a33.379 33.379 0 0 1-10.392-7.752zm-4.32 7.176a30.18 30.18 0 0 0 5.232-4.92 29.869 29.869 0 0 0 5.208 4.92zm-4.488 4.8v2.448h5.424a26.572 26.572 0 0 1-3.048 4.44 2.533 2.533 0 0 1-1.3.672l.672 2.184q8.352-.5 13.92-1.368c.456.624.888 1.272 1.3 1.9l2.088-1.464a57.739 57.739 0 0 0-5.064-6.144l-1.944 1.224q1.188 1.368 2.232 2.664c-3.072.36-6.24.624-9.48.816a22.193 22.193 0 0 0 3.528-4.92h11.16V17.2zm42.072-3.36h-16.68v9.528h2.5V16.12h11.688v6.864h2.5zm-15.264-7.9v6.56h13.848V5.944zm11.424 4.392h-9v-2.18h9zm-5.568 6.912c-.168 2.832-.792 4.848-1.872 6q-1.872 1.8-7.632 2.088l.984 2.28c4.7-.432 7.632-1.416 8.832-2.9 1.152-1.176 1.9-3.576 2.232-7.224zm3.024 5.376-1.249 1.852a45.886 45.886 0 0 1 8.424 3.168l1.344-2.088a56.219 56.219 0 0 0-8.519-2.928zm17.328-17.132a24.1 24.1 0 0 1-6.336 10.7l1.992 1.728q4.14-4 6.672-11.472zm9.36 12.72-2.256.768a44.183 44.183 0 0 1 2.3 4.152c-3.072.48-6.24.816-9.456 1.032a67.3 67.3 0 0 0 5.76-9.912l-2.472-.864q-4.68 10.332-7.1 10.872l.432 2.448c5.112-.336 9.744-.792 13.872-1.416q.468 1.08.936 2.232l2.352-1.056a51 51 0 0 0-4.368-8.256zM419.029 5.3l-2.16 1.2a23.313 23.313 0 0 0 7.2 11.472l1.8-2.088a21.534 21.534 0 0 1-6.84-10.584zm11.04 10.056v7.964h11.136v-7.968zm8.736 5.76h-6.36V17.56h6.36zm6.336 6.216q2.736 0 2.736-2.88V6.04H429.4v2.4h15.984v15.312c0 .816-.264 1.248-.792 1.248l-3.408-.072.648 2.4zm-17.088-16.56v2.28h15.336v-2.28zm31.2-2.232v2.42h9.528a18.068 18.068 0 0 1-2.136 4.776c-1.488-1.248-3.1-2.472-4.8-3.72l-1.7 1.656a85.297 85.297 0 0 1 5.016 4.008 14.555 14.555 0 0 1-6.361 3.82l1.416 2.28a16.169 16.169 0 0 0 6.792-4.464 47.932 47.932 0 0 1 4.248 4.44l1.968-1.968a66.026 66.026 0 0 0-4.7-4.464 22.417 22.417 0 0 0 2.76-6.36h1.92V8.536h-5.808a53.742 53.742 0 0 0-.936-3.288l-2.568.432c.336.864.648 1.824.936 2.856zm-5.112-3.048-1.728 1.628a23.48 23.48 0 0 1 3.96 3.888l1.8-1.776a30.887 30.887 0 0 0-4.032-3.744zm13.659 21.62h5.5l.6-2.472q-.972.072-2.808.144c-1.248 0-2.448.024-3.648.024-1.824 0-3.432-.024-4.8-.048a7.6 7.6 0 0 1-3.12-.6 6.212 6.212 0 0 1-1.632-1.416l-.24-.24V13.36h-5.5v2.3h3.168v6.58a10.56 10.56 0 0 0-3.216 3.672l1.848 1.728c1.2-2.16 2.016-3.24 2.472-3.24.288 0 .576.192.888.6a5.147 5.147 0 0 0 2.472 1.656 17.753 17.753 0 0 0 3.792.408c1.509.024 2.924.048 4.224.048zm18.84-16.032h7.9a23.57 23.57 0 0 1-1.728 4.536l2.472.7a43.781 43.781 0 0 0 1.968-6v-1.66h-9.936c.216-.96.408-2.016.576-3.12l-2.5-.408c-.552 4.2-1.776 7.464-3.672 9.816l2.088 1.464a15.021 15.021 0 0 0 2.829-5.328zm1.824 1.344a22.621 22.621 0 0 1-1.152 7.44c-.984 2.256-3.048 4.152-6.192 5.736l1.656 2.016c3.648-1.872 5.952-4.248 6.912-7.08l.288-.864a21.781 21.781 0 0 0 6.456 7.9l1.656-1.92a18.337 18.337 0 0 1-7.368-9.7 32.6 32.6 0 0 0 .192-3.528zM477.781 6.16l-2.016 1.272a41.845 41.845 0 0 1 4.152 5.088l1.968-1.368a40.5 40.5 0 0 0-4.104-4.992zm2.019 10.368a76.089 76.089 0 0 1-4.272 9.216l2.328 1.056a80.934 80.934 0 0 0 4.152-9.432zm29.76-11.136V8.7h-7.7v14.068h2.472v-1.392h5.232v6h2.536v-6h5.136V22.6h2.472V8.7H512.1V5.392zm-5.232 13.632v-2.9h5.232v2.9zm7.776 0v-2.9h5.136v2.9zm-7.776-5.136v-2.856h5.232v2.856zm7.776 0v-2.856h5.136v2.856zM537.133 5.3v1.32h-5.52v2.012h5.52V9.64h-4.512v1.968h4.512v1.032h-6.192v2.06h14.88v-2.06h-6.264v-1.032h4.848V9.64h-4.848V8.632h5.688V6.616h-5.688V5.3zm-2.184 15.456h6.864v1.176h-6.864zm6.864-1.872h-6.864v-1.2h6.864zm-6.864 4.944h6.864v.672c0 .5-.216.768-.648.768l-1.9-.1.6 2.184h1.992a2.078 2.078 0 0 0 2.352-2.328v-9.36H532.6V27.5h2.352zm-7.9-18.36-1.776 1.7a21.956 21.956 0 0 1 3.936 3.5l1.728-1.728a31.482 31.482 0 0 0-3.884-3.476zm-3.408 6.912v2.4h3.192v8.472a1.743 1.743 0 0 1-.624 1.344l.936 2.256a37.461 37.461 0 0 0 4.536-3.816l-.672-2.64c-.6.624-1.176 1.224-1.752 1.776v-9.796zm40.032-.192A23.247 23.247 0 0 1 556 22.36l1.368 2.256a26.216 26.216 0 0 0 7.176-9.864v9.288c0 .624-.264.936-.768.936a21.061 21.061 0 0 1-2.4-.144l.576 2.424h2.712c1.584 0 2.376-.864 2.376-2.568v-12.5h2.472V9.76h-2.472V5.3h-2.5v4.46h-6.624v2.424zm-15.6-2.472v2.424h3.432a20.777 20.777 0 0 1-3.96 7.176l1.128 2.88a28.366 28.366 0 0 0 2.976-6.048v11.28h2.5V15.88c.6.816 1.3 1.8 2.088 2.976l1.44-2.184a48.4 48.4 0 0 0-3.528-3.5v-1.036h2.928V9.712h-2.928V5.3h-2.5v4.412zm25.992-2.448-2.064.672a34.334 34.334 0 0 1 1.392 4.848l1.92-.528a39.815 39.815 0 0 0-1.244-4.996zm5.88-.24a21.154 21.154 0 0 1-.864 4.992l1.848.6a19.014 19.014 0 0 0 1.1-5.3zm-7.992 6.456V15.9h3.84a17.886 17.886 0 0 1-4.224 5.5l1.056 2.616a24.974 24.974 0 0 0 3.36-5.136v8.568h2.52v-8.76c.552.816 1.2 1.848 1.92 3.048l1.488-2.232a45.994 45.994 0 0 0-3.408-3.168V15.9h3.312v-2.42h-3.312V5.368h-2.52v8.112zM588.9 5.392v13.656l-6.864 1.032.36 2.5 6.5-.984v5.856h2.472v-6.24l2.616-.384-.432-2.5-2.184.336V5.392zm-4.2 1.56-1.655 1.608a23.107 23.107 0 0 1 3.792 3.528l1.7-1.7a27.775 27.775 0 0 0-3.837-3.436zm-.576 5.64-1.68 1.584a23.689 23.689 0 0 1 3.744 3.624l1.7-1.728a28.336 28.336 0 0 0-3.763-3.48zm19.32-5.784v2.136h5.616c-.048.336-.12.672-.168 1.056h-4.224v10.944H602.8v-2.016c-.672.288-1.368.576-2.088.84v-6.5h2.184v-2.356h-2.184v-5.52h-2.424v5.52h-2.4v2.352h2.4v7.224a26.406 26.406 0 0 1-2.664.576l.624 2.424a50.5 50.5 0 0 0 6.36-2.016v1.68h4.488a20.62 20.62 0 0 1-4.68 2.664l1.464 1.872a21.05 21.05 0 0 0 5.136-3.312l-1.416-1.224h5.4l-1.32 1.224a27.838 27.838 0 0 1 4.56 3.288l1.512-1.728a24.468 24.468 0 0 0-4.248-2.784h4.488v-2.208h-2.04V10h-4.68c.048-.336.12-.7.168-1.056h5.712V6.808h-5.424l.144-1.32-2.424-.336-.148 1.656zm3.576 14.136v-1.032h6.58v1.032zm0-2.736v-.984h6.58v.984zm0-2.664v-.96h6.58v.96zm0-2.664v-.96h6.58v.96zm20.328.624h9.984v-2.352H627.9c.144-.6.264-1.224.408-1.9l-2.472-.24a91.992 91.992 0 0 1-2.352 9.24h13.392c-.072 3.7-.288 5.784-.624 6.216a2.993 2.993 0 0 1-2.208.624c-.864 0-1.824-.024-2.832-.072l.72 2.328h2.016c2.184 0 3.624-.408 4.3-1.176S639.3 22 639.4 15.952h-12.771q.36-1.152.72-2.452zm-6.936 6.84v2.4h14.5v-2.4zm20.28-14.256h-19.823V11.7h2.472V8.44h14.88v3.288h2.472zm7.781 1.144-5.47 20.32h3l5.47-20.32zm11.984 10.88a9.585 9.585 0 0 1-3.264 6.456l1.584 1.9a15.405 15.405 0 0 0 2.424-2.9 7.54 7.54 0 0 0 4.608 2.448 18.818 18.818 0 0 0 3.624.336c.408 0 .864 0 1.464-.024l.816-2.448c-.7 0-1.368-.024-1.944-.024a21.866 21.866 0 0 1-3.384-.24v-2h4.32v-2.208h-4.32V17.7h5.208v-2.2h-12.24v2.2h4.728v5.14a6.892 6.892 0 0 1-1.8-1.68 12.074 12.074 0 0 0 .528-2.712zm10.152-3.6V6.3h-10.582v8.208zM657.219 5.8h-2.328v4.176h-2.3v2.28h2.3v4.584c-.816.288-1.656.552-2.448.792l.6 2.448c.624-.216 1.224-.48 1.848-.744v3.936c0 .6-.312.672-.984.672h-.312a5.154 5.154 0 0 1-1.08-.144l.5 2.448c.552.048.912.072 1.512.072 2.232 0 2.688-.936 2.688-2.616V18.28c.648-.288 1.272-.648 1.872-.936l-.024-2.352-1.848.864v-3.6h2.016v-2.28h-2.016zm5.181 2.712h5.76V9.64h-5.76zm0 2.784h5.76v1.032h-5.76zm23.5 3.6a19.976 19.976 0 0 1-3.168 4.512 23.609 23.609 0 0 1-3.48-4.32l-1.944 1.2a28.127 28.127 0 0 0 3.744 4.656 18.722 18.722 0 0 1-7.584 3.408l1.056 2.256a21.593 21.593 0 0 0 8.256-4.152 21.059 21.059 0 0 0 8.376 3.96l1.032-2.28a19.276 19.276 0 0 1-7.728-3.264 25.323 25.323 0 0 0 3.528-4.9zm5.544-4.488V8.176h-7.536V5.8h-2.52v2.376h-7.1v2.232zm-12.768.36a15.412 15.412 0 0 1-4.848 5.064l1.728 1.752a20.3 20.3 0 0 0 5.376-5.9zm13.2 4.728a19.166 19.166 0 0 1-5.232-4.728l-2.112.936a21.555 21.555 0 0 0 5.64 5.592z" transform="translate(30 49)"/>
        </g>
        <g id="fc_box_big_no_btn-7" data-name="fc_box_big_no_btn" transform="translate(407 3206)">
            <g transform="translate(-114 -2259)" style="filter:url(#box-9)">
                <g id="box-19" data-name="box" class="cls-2">
                    <path class="cls-11" d="M0 0h1108v130H0z" transform="translate(114 2259)"/>
                    <path class="cls-12" d="M1 1h1106v128H1z" transform="translate(114 2259)"/>
                </g>
            </g>
            <path id="패스_10703" data-name="패스 10703" class="cls-3" d="M451.184 6.04v2.352h4.56c-.1.648-.192 1.3-.312 1.92H452v11.976h2.448v-9.672h5.4v9.432h2.452V10.312h-4.42c.12-.624.216-1.248.312-1.92h4.56V6.04zm8.04 15.84-1.68 1.608a24.747 24.747 0 0 1 3.864 4.152l1.8-1.8a34.536 34.536 0 0 0-3.984-3.96zm-3.288-8.136v4.176a10.822 10.822 0 0 1-1.128 4.752A7.677 7.677 0 0 1 450.9 25.5l1.32 2.088a8.85 8.85 0 0 0 4.488-3.36 13.06 13.06 0 0 0 1.584-6.312v-4.172zM445.4 5.368a35.52 35.52 0 0 1-4.752 6.72l1.44 2.016a38.735 38.735 0 0 0 4.512-6.336 52.977 52.977 0 0 1 3.648 5.28l1.656-1.776c-1.464-2.04-3-4.008-4.632-5.9zm-3.336 10.368v2.328h6.216a42.737 42.737 0 0 1-2.232 3.7c-.648-.552-1.32-1.1-1.992-1.632l-1.656 1.604a36.511 36.511 0 0 1 5.808 5.712l1.776-1.8q-1.044-1.188-2.3-2.376a31.27 31.27 0 0 0 3.288-5.448v-2.088zm4.512-5.016-1.776 1.1a26.557 26.557 0 0 1 2.256 3.72l1.776-1.272a28.606 28.606 0 0 0-2.256-3.548zm30.7 9.672c-.624.144-1.272.312-1.944.48V8.368h1.3V9.76h.96a29.187 29.187 0 0 0 2.952 10.632 18.582 18.582 0 0 1-4.56 5.112l1.7 1.968a20.1 20.1 0 0 0 4.248-4.632 28.805 28.805 0 0 0 3.672 4.632l1.68-1.968a23.071 23.071 0 0 1-4.008-4.944 32.84 32.84 0 0 0 3.072-10.92V7.36h-9.456V6.016h-11.62v2.352h1.656v14.04c-.648.1-1.3.168-1.968.24l.624 2.472c2.5-.384 4.944-.792 7.3-1.272v3.576h2.448v-4.08c.624-.144 1.272-.312 1.944-.456zm2.612-10.632h4.1a29.608 29.608 0 0 1-2.136 8.064 25.489 25.489 0 0 1-1.964-8.064zM472.88 21.4c-1.152.24-2.3.456-3.5.648v-3.264h3.5zm-3.5-4.872v-2.952h3.5v2.952zm0-5.208V8.368h3.5v2.952zm23.736 4.008v6.24h13.872v-6.24zm11.352 4.032h-8.832v-1.848h8.832zm-8.668 2.352-2.352.888a13.12 13.12 0 0 1 1.776 1.9h-5.64v2.376h20.784V24.5h-5.232a21.145 21.145 0 0 0 1.364-2.02l-2.328-.84a20.725 20.725 0 0 1-1.752 2.856h-4.536a14.8 14.8 0 0 0-2.084-2.784zm-3.768-13.224-1.68 1.584a27.821 27.821 0 0 1 2.832 2.232 19.965 19.965 0 0 1-4.3 2.232l1.536 1.968a20.447 20.447 0 0 0 5.688-3.408v.768h8.808v-.888a26.539 26.539 0 0 0 4.9 3.48l1.656-1.92a24.714 24.714 0 0 1-3.5-2.136 14.753 14.753 0 0 0 2.544-2.5l-1.756-1.532a13.691 13.691 0 0 1-2.568 2.568 11.362 11.362 0 0 1-1.3-1.344 14.474 14.474 0 0 0 2.568-2.4l-1.752-1.56a13.128 13.128 0 0 1-2.16 2.16 15.932 15.932 0 0 1-1.368-2.52l-2.08 1.152a19.544 19.544 0 0 0 3.432 5.16h-5.952a13.357 13.357 0 0 0 2.232-3.744V5.968h-8.28v2.3h5.448a11.958 11.958 0 0 1-2.04 2.592 32.265 32.265 0 0 0-2.908-2.372zM535.4 20.752l-2.5-.816a17.077 17.077 0 0 1-.432 3.48 1.426 1.426 0 0 1-1.536.96h-4.752a.965.965 0 0 1-1.008-1.08v-7.488h8.376v-9.6h-11.804v2.4h9.408v4.8h-8.424V24.3a2.108 2.108 0 0 0 2.352 2.424h6.264c1.536 0 2.52-.384 2.976-1.1a13.085 13.085 0 0 0 1.08-4.872zM516.272 5.44 514.5 7.168a21.97 21.97 0 0 1 3.936 3.528l1.728-1.752a33.615 33.615 0 0 0-3.892-3.504zm-3.336 6.936v2.4h3.288V23.3a1.635 1.635 0 0 1-.648 1.3l.96 2.256a37.087 37.087 0 0 0 5.232-3.84l-.672-2.616a53.944 53.944 0 0 1-2.448 2.112V12.376zm26.4-6.888-1.7 1.608a25.007 25.007 0 0 1 4.008 3.912l1.752-1.728a33.1 33.1 0 0 0-4.06-3.792zm13.68 21.624h5.5l.6-2.472q-.972.072-2.808.144c-1.248 0-2.448.024-3.648.024-1.872 0-3.48-.024-4.872-.048a7.773 7.773 0 0 1-3.168-.6 6.357 6.357 0 0 1-1.68-1.416l-.264-.264v-9.12h-5.5v2.3h3.168v6.58a10.56 10.56 0 0 0-3.216 3.672l1.848 1.7c1.2-2.16 2.016-3.216 2.5-3.216.264 0 .552.192.888.6a5.394 5.394 0 0 0 2.52 1.656 18.062 18.062 0 0 0 3.84.408c1.532.028 2.976.052 4.292.052zm-4.248-19.08L547.5 9.28c.912.5 1.728 1.008 2.472 1.488h-5.332V23.8h2.352v-3.912h3.12v3.888h2.3v-3.888h3.216V20.9a.693.693 0 0 1-.792.768l-1.656-.072.552 2.064h1.8c1.632 0 2.448-.768 2.448-2.256V10.768h-4.848l-.048-.048a25.11 25.11 0 0 0 4.416-3V5.968h-13.268v2.064zm2.808 1.536c-.672-.5-1.44-1.008-2.256-1.536h4.8a23.822 23.822 0 0 1-2.544 1.536zm-4.584 6.792h3.12v1.512h-3.12zm5.424 0h3.216v1.512h-3.216zm3.216-2.016h-3.216v-1.512h3.216zm-5.52 0h-3.12v-1.512h3.12zM582.3 7.576h-8.86V26.44h2.424v-1.32h3.984v1.32h2.452zm-6.432 15.216V9.9h3.984v12.892zm-10.852-12.168h1.608a61.17 61.17 0 0 1-.24 3.912h-4.992v2.376H566l-.288 1.272a12.737 12.737 0 0 1-4.848 6.72l1.636 2.016a14.451 14.451 0 0 0 5.136-6.24c.96 1.152 2.136 2.76 3.552 4.848l1.532-2.328c-1.488-1.776-2.952-3.408-4.392-4.848l.288-1.44h3.984v-2.376h-3.648c.12-1.224.192-2.52.216-3.912h3.192V8.248H566c.264-.768.5-1.584.744-2.424l-2.472-.552a22.1 22.1 0 0 1-3.264 7.152l2.208 1.392a21.561 21.561 0 0 0 1.8-3.192zm28.416-5.448v3.96h-6.792v2.4h6.792v4.032h-8.184v2.424h8.184v9.552h2.52v-9.552h7.464c-.048 2.5-.192 3.912-.432 4.224a1.7 1.7 0 0 1-1.2.528c-.816 0-1.7-.024-2.64-.024l.672 2.352h1.536a11.511 11.511 0 0 0 1.8-.216 2.805 2.805 0 0 0 1.488-.744c.816-.816 1.224-3.672 1.248-8.544h-3.336l.456-5.232v-1.2h-7.056v-3.96zm2.52 10.392v-4.032h4.536l-.36 4.032zm5.928-10.344-1.272 1.9a21.607 21.607 0 0 1 4.7 3.072l1.348-2.096a26.3 26.3 0 0 0-4.776-2.876z" transform="translate(30 49)"/>
        </g>
        <g id="fc_start_end_link" transform="translate(407 3386)">
            <g transform="translate(-114 -2439)" style="filter:url(#area-2)">
                <g id="area-4" data-name="area" class="cls-2" transform="translate(114 2439)">
                    <rect class="cls-11" width="1108" height="130" rx="65"/>
                    <rect class="cls-12" x="1" y="1" width="1106" height="128" rx="64"/>
                </g>
            </g>
            <g id="fc_textlink-3" data-name="fc_textlink" transform="translate(671 76)">
                <g id="stack-3" data-name="stack" transform="translate(-2524.094 20210)">
                    <g id="ico_fc_pop_up" transform="translate(2431.094 -20209)">
                        <g id="그룹_1025" data-name="그룹 1025" transform="translate(-1101.074 -1125)">
                            <g id="그룹_1026" data-name="그룹 1026" transform="translate(1108.074 1129)">
                                <path id="사각형_878" data-name="사각형 878" style="stroke:#326f5e;stroke-width:1.5px;fill:#fff" d="M0 0h9v9H0z"/>
                            </g>
                            <path id="패스_6896" data-name="패스 6896" class="cls-6" d="M1104.574 1132.941v9h9" transform="translate(.5 -.941)"/>
                        </g>
                    </g>
                    <path id="패스_10705" data-name="패스 10705" class="cls-7" d="M-28.864-7.184v6.048h9.792v-6.048zm8.32 4.7h-6.848v-1.004h6.848zm-6.848-2.288V-5.84h6.848v1.072zm-3.2-7.04v1.412h4.56a15.673 15.673 0 0 1-5.344 2.352l.816 1.348a13.56 13.56 0 0 0 5.86-3.668v2.7h1.472v-2.72a12.6 12.6 0 0 0 5.92 3.68l.656-1.376a13.57 13.57 0 0 1-5.216-2.32h4.528v-1.408h-5.888v-1.344H-24.7v1.344zm-.32 11.632v1.396h13.84V-.176zm16.8-10.128v1.3h4.336c-.16.256-.352.528-.544.8h-4.656v1.344h3.568a22.321 22.321 0 0 1-3.984 3.376l.816 1.3A26.871 26.871 0 0 0-12.224-4v5.664h1.44v-.608h6.928v.608h1.44v-7.728h-7.76c.208-.256.416-.528.64-.8H-.9v-1.344h-7.74c.16-.256.3-.528.464-.8h6.352v-1.3h-5.744q.168-.432.336-.912a42.4 42.4 0 0 0 5.312-.72l-.7-1.2a61.528 61.528 0 0 1-11.392.9l.432 1.248c1.728 0 3.36-.048 4.864-.128-.112.272-.224.544-.352.816zm3.328 7.408h6.928v.752h-6.928zm6.928-1.152h-6.928v-.784h6.928zm-6.928 3.06h6.928v.816h-6.928zM1.072-12.576v1.424h6.176v1.1H2.4v6.576h4.592A5.555 5.555 0 0 1 6.3-1.824a14 14 0 0 1-2.24-1.424l-1.168.8A14.869 14.869 0 0 0 5.248-.832 10.3 10.3 0 0 1 .64.288L1.3 1.68A11 11 0 0 0 6.736-.1a22.944 22.944 0 0 0 8.352 1.8l.384-1.476A23.3 23.3 0 0 1 7.712-1.2a6.617 6.617 0 0 0 .816-2.272h5.12v-6.576h-4.9v-1.1h6.192v-1.424zM12.144-4.8H8.7a9.269 9.269 0 0 0 .048-.976v-.384h3.392zM7.2-4.8H3.9v-1.36h3.348v.384c0 .32-.016.656-.048.976zM3.9-7.408v-1.344h3.348v1.344zm4.852-1.344h3.392v1.344H8.752zM23.776-13.2a11.209 11.209 0 0 1-6.336 2.976l.9 1.392a14.792 14.792 0 0 0 4.38-1.648h4.3a8.266 8.266 0 0 1-3.488 2.64 21.069 21.069 0 0 0-1.52-1.632l-1.312.624a15.69 15.69 0 0 1 1.412 1.488 17.766 17.766 0 0 1-3.6.544l.64 1.376c4.688-.384 7.888-2.128 9.616-5.2v-1.184H24.5c.208-.208.416-.432.64-.672zm-.256 10-1.344.64a16.586 16.586 0 0 1 1.536 1.744 21.082 21.082 0 0 1-6.24.816l.608 1.456q9.36-.24 12.784-5.856v-1.184h-4.08a9.249 9.249 0 0 0 .928-.848l-1.3-.7c-1.632 1.728-4.208 2.752-7.7 3.088l.912 1.36a21.8 21.8 0 0 0 4.9-1.52h4.384a9.622 9.622 0 0 1-3.76 2.848A19.989 19.989 0 0 0 23.52-3.2zM-32 3h64v1h-64z" transform="translate(2395.094 -20194)"/>
                </g>
            </g>
            <path id="패스_10704" data-name="패스 10704" class="cls-3" d="M494.216 2.7h-2.568v1.492H483.8V6.16h7.848v.96h-6.168v4.248h6.168v.912h-6.768v1.8h6.768v.936h-8.424v1.824h8.424v.912h-6.84V19.6h6.84v.912c0 .408-.144.552-.96.552a12.869 12.869 0 0 1-2.4-.216l.576 2.28a24.012 24.012 0 0 0 2.448.144c2.016 0 2.9-.552 2.9-2.472v-1.2h6.388v-2.76h1.9v-1.824h-1.9V12.28h-6.384v-.912h6.12V7.12h-6.12v-.96h7.656V4.192h-7.656zm-6.336 5.9h3.768v1.1h-3.768zm10.08 0v1.1h-3.744V8.6zm.216 5.472v.936h-3.96v-.928zm-3.96 3.672v-.904h3.96v.912zM520.424 2.9a47.955 47.955 0 0 1-14.184 1.748v6.072c0 4.848-.432 7.776-2.28 10.752l1.632 2.28c2.5-3.816 3.12-7.272 3.168-12.5h14.52v-2.26h-14.52V6.808a75.417 75.417 0 0 0 13.392-1.776zm1.152 20.352v-9.676h-11.688v9.816h2.544v-1.536h6.6v1.392zm-9.144-7.368h6.6v3.672h-6.6zm29.28 7.536v-5.692h-10.824v-.96h9.336V12.04h-11.832v11.568h2.5v-.816h8.376v.624zm-5.064-20.74a13.072 13.072 0 0 1-1.872 3.336v-1.7h-5.112l.5-1.2-2.5-.408A12.927 12.927 0 0 1 524.6 7.48l2.136 1.32a13.945 13.945 0 0 0 1.848-2.448h1.1a14.5 14.5 0 0 1 .624 2.256l2.4-.312c-.192-.648-.384-1.3-.648-1.944h2.448a7.6 7.6 0 0 1-.96 1.008l1.08.672h-1.584V9.28h-7.68v4.392h2.472v-2.544h13.3V13.7h2.472V9.28h-8.04v-.672l.168.072a15.2 15.2 0 0 0 1.776-2.328h1.128a12.536 12.536 0 0 1 .672 2.232l2.52-.312a13.143 13.143 0 0 0-.72-1.92h3v-2.04h-5.544a9.8 9.8 0 0 0 .528-1.3zm2.616 16.872v1.416h-8.376v-1.416zm-8.376-5.664h6.864v1.056h-6.864zm33.984 8.976v-2.256H559.5v-2.4h4.632V16H559.5v-1.9h4.248V3.64H552.9V14.1h4.176V16h-4.488v2.208h4.488v2.4H551.7v2.256zm-12.6-6.312c-.624.288-1.32.552-2.112.84v-4.7h2.04V10.5h-2.04V5.944h2.208V3.712H545.6v2.232h2.256V10.5h-2.064v2.184h2.064v5.424c-.864.288-1.728.528-2.472.7l.432 2.448c2.328-.864 4.656-1.512 6.576-2.376zm7.228-6.744h1.92v2.112h-1.92zm-4.272 0h1.848v2.112h-1.848zm6.192-4.032v1.992h-1.92V5.776zm-6.192 0h1.848v1.992h-1.848z" transform="translate(30 33)"/>
        </g>
        <g id="fc_box_big_no_btn-8" data-name="fc_box_big_no_btn" transform="translate(407 2126)">
            <g transform="translate(-114 -1179)" style="filter:url(#box-10)">
                <g id="box-20" data-name="box" class="cls-2">
                    <path class="cls-11" d="M0 0h1108v130H0z" transform="translate(114 1179)"/>
                    <path class="cls-12" d="M1 1h1106v128H1z" transform="translate(114 1179)"/>
                </g>
            </g>
            <path id="패스_10694" data-name="패스 10694" class="cls-3" d="M428.588 6.028h-6.041V23h5.983c5.171 0 8.3-3.2 8.3-8.5-.004-5.29-3.13-8.472-8.242-8.472zm-2.519 13.948V9.052h2.331c3.207 0 4.906 1.666 4.906 5.445 0 3.8-1.7 5.478-4.923 5.478zm18.564-9.87c-3.381 0-5.3 1.74-5.5 3.953h3.29a1.925 1.925 0 0 1 2.13-1.409c1.285 0 2.014.613 2.022 1.691v1.028c-.53.017-2.254.091-3.157.149-2.445.157-4.732 1.077-4.732 3.928 0 2.511 1.807 3.8 4.235 3.8a3.906 3.906 0 0 0 3.721-2.006h.1V23h3.29v-8.577c-.004-3.067-2.623-4.323-5.399-4.323zm-.733 10.723c-1.111 0-1.9-.506-1.9-1.492s.762-1.55 1.972-1.649c.6-.058 2.1-.141 2.611-.166v.928a2.463 2.463 0 0 1-2.683 2.379zm14.287-.456c-.713-.025-1.21-.265-1.21-1.276v-6.216h2.4v-2.61h-2.4v-3.05h-3.472v3.05h-1.745v2.61h1.749v6.688c-.017 2.478 1.691 3.6 4.21 3.6a11.971 11.971 0 0 0 1.831-.124v-2.73c-.415.025-1.02.066-1.359.058zM466.9 10.1c-3.381 0-5.3 1.74-5.5 3.953h3.29a1.925 1.925 0 0 1 2.13-1.409c1.285 0 2.014.613 2.022 1.691v1.028c-.53.017-2.254.091-3.157.149-2.445.157-4.732 1.077-4.732 3.928 0 2.511 1.807 3.8 4.235 3.8a3.906 3.906 0 0 0 3.721-2.006h.1V23h3.29v-8.577c.001-3.067-2.622-4.323-5.399-4.323zm-.729 10.724c-1.111 0-1.9-.506-1.9-1.492s.762-1.55 1.972-1.649c.6-.058 2.1-.141 2.611-.166v.928a2.463 2.463 0 0 1-2.683 2.384zm22.3-4.218h3.671c-.05 2.138-1.5 3.5-3.9 3.5-2.71 0-4.442-2.022-4.442-5.61 0-3.564 1.782-5.577 4.4-5.577a3.488 3.488 0 0 1 3.6 2.577h3.588c-.472-3.348-3.423-5.7-7.251-5.7-4.475 0-7.914 3.232-7.914 8.735 0 5.37 3.224 8.7 7.989 8.7 4.276 0 7.334-2.71 7.334-7.169v-2.12h-7.077zm14.935-6.506c-3.381 0-5.3 1.74-5.5 3.953h3.29a1.925 1.925 0 0 1 2.13-1.409c1.285 0 2.014.613 2.022 1.691v1.028c-.53.017-2.254.091-3.157.149-2.445.157-4.732 1.077-4.732 3.928 0 2.511 1.807 3.8 4.235 3.8a3.906 3.906 0 0 0 3.721-2.006h.1V23h3.29v-8.577c-.005-3.067-2.623-4.323-5.399-4.323zm-.729 10.724c-1.111 0-1.9-.506-1.9-1.492s.762-1.55 1.972-1.649c.6-.058 2.1-.141 2.611-.166v.928a2.463 2.463 0 0 1-2.683 2.384zm12.232 6.945v-6.8h.108a3.777 3.777 0 0 0 3.622 2.238c2.909 0 5.171-2.3 5.171-6.555 0-4.359-2.354-6.547-5.171-6.547a3.753 3.753 0 0 0-3.622 2.3h-.157v-2.134h-3.423v17.5zm-.075-11.138c0-2.3.97-3.754 2.718-3.754 1.773 0 2.71 1.525 2.71 3.754 0 2.246-.953 3.8-2.71 3.8-1.732.008-2.718-1.508-2.718-3.796zM546.964 23 541.1 6.028h-4.533L530.7 23h3.779l1.276-3.912h6.157L543.185 23zm-8.2-13.144h.133l2.113 6.472h-4.359zm13.508 5.776a2.373 2.373 0 0 1 2.445-2.644 2.2 2.2 0 0 1 2.279 2.511V23h3.472v-8.1c0-2.975-1.732-4.79-4.384-4.79a3.843 3.843 0 0 0-3.829 2.4h-.155v-2.239h-3.3V23h3.472zm16.214-5.532c-3.381 0-5.3 1.74-5.5 3.953h3.29a1.925 1.925 0 0 1 2.13-1.409c1.285 0 2.014.613 2.022 1.691v1.028c-.53.017-2.254.091-3.157.149-2.445.157-4.732 1.077-4.732 3.928 0 2.511 1.807 3.8 4.235 3.8a3.906 3.906 0 0 0 3.721-2.006h.1V23h3.29v-8.577c-.004-3.067-2.623-4.323-5.399-4.323zm-.729 10.724c-1.111 0-1.9-.506-1.9-1.492s.762-1.55 1.972-1.649c.6-.058 2.1-.141 2.61-.166v.928a2.463 2.463 0 0 1-2.682 2.384zm8.76-14.8V23h3.472V6.028zm8.221 21.746a4.6 4.6 0 0 0 4.8-3.373l4.964-14.13h-3.671l-2.693 9.381H588l-2.669-9.381h-3.651l4.575 13.086-.2.539a1.481 1.481 0 0 1-1.674 1.16c-.431 0-.961-.008-1.4-.041l-.008 2.7a19.25 19.25 0 0 0 1.765.062zm21.978-13.715c-.182-2.428-2.171-3.953-5.4-3.953-3.273 0-5.37 1.525-5.362 3.97-.008 1.881 1.235 3.133 3.671 3.613l2.1.414c1.193.249 1.724.655 1.732 1.318-.008.82-.845 1.318-2.1 1.318-1.285 0-2.088-.514-2.262-1.508h-3.481c.282 2.486 2.3 4.019 5.743 4.019 3.381 0 5.627-1.674 5.635-4.177-.008-1.84-1.2-2.942-3.663-3.448l-2.3-.464c-1.193-.257-1.641-.7-1.633-1.285-.008-.762.845-1.293 1.972-1.293a1.887 1.887 0 0 1 2.088 1.475zm4.151-5.455a1.833 1.833 0 0 0 1.889-1.765 1.894 1.894 0 0 0-3.779 0 1.833 1.833 0 0 0 1.89 1.765zM612.6 23V10.271h-3.472V23zm13.227-8.942c-.182-2.428-2.171-3.953-5.4-3.953-3.273 0-5.37 1.525-5.362 3.97-.008 1.881 1.235 3.133 3.671 3.613l2.1.414c1.193.249 1.724.655 1.732 1.318-.008.82-.845 1.318-2.1 1.318-1.285 0-2.088-.514-2.262-1.508h-3.481c.282 2.486 2.3 4.019 5.743 4.019 3.381 0 5.627-1.674 5.635-4.177-.008-1.84-1.2-2.942-3.663-3.448l-2.3-.464c-1.193-.257-1.641-.7-1.633-1.285-.008-.762.845-1.293 1.972-1.293a1.887 1.887 0 0 1 2.088 1.475z" transform="translate(30 33)"/>
            <g id="fc_textlink-4" data-name="fc_textlink" transform="translate(671 76)">
                <g id="stack-4" data-name="stack" transform="translate(-2524.094 20210)">
                    <g id="ico_fc_go_tab-3" data-name="ico_fc_go_tab" transform="translate(2431.094 -20209)">
                        <path id="패스_7163-3" data-name="패스 7163" class="cls-6" d="m8.62 5.071 5 5-5 5" transform="translate(-2.62 -.072)"/>
                    </g>
                    <path id="패스_10695" data-name="패스 10695" class="cls-7" d="M-28.864-7.184v6.048h9.792v-6.048zm8.32 4.7h-6.848v-1.004h6.848zm-6.848-2.288V-5.84h6.848v1.072zm-3.2-7.04v1.412h4.56a15.673 15.673 0 0 1-5.344 2.352l.816 1.348a13.56 13.56 0 0 0 5.86-3.668v2.7h1.472v-2.72a12.6 12.6 0 0 0 5.92 3.68l.656-1.376a13.57 13.57 0 0 1-5.216-2.32h4.528v-1.408h-5.888v-1.344H-24.7v1.344zm-.32 11.632v1.396h13.84V-.176zm16.8-10.128v1.3h4.336c-.16.256-.352.528-.544.8h-4.656v1.344h3.568a22.321 22.321 0 0 1-3.984 3.376l.816 1.3A26.871 26.871 0 0 0-12.224-4v5.664h1.44v-.608h6.928v.608h1.44v-7.728h-7.76c.208-.256.416-.528.64-.8H-.9v-1.344h-7.74c.16-.256.3-.528.464-.8h6.352v-1.3h-5.744q.168-.432.336-.912a42.4 42.4 0 0 0 5.312-.72l-.7-1.2a61.528 61.528 0 0 1-11.392.9l.432 1.248c1.728 0 3.36-.048 4.864-.128-.112.272-.224.544-.352.816zm3.328 7.408h6.928v.752h-6.928zm6.928-1.152h-6.928v-.784h6.928zm-6.928 3.06h6.928v.816h-6.928zM1.072-12.576v1.424h6.176v1.1H2.4v6.576h4.592A5.555 5.555 0 0 1 6.3-1.824a14 14 0 0 1-2.24-1.424l-1.168.8A14.869 14.869 0 0 0 5.248-.832 10.3 10.3 0 0 1 .64.288L1.3 1.68A11 11 0 0 0 6.736-.1a22.944 22.944 0 0 0 8.352 1.8l.384-1.476A23.3 23.3 0 0 1 7.712-1.2a6.617 6.617 0 0 0 .816-2.272h5.12v-6.576h-4.9v-1.1h6.192v-1.424zM12.144-4.8H8.7a9.269 9.269 0 0 0 .048-.976v-.384h3.392zM7.2-4.8H3.9v-1.36h3.348v.384c0 .32-.016.656-.048.976zM3.9-7.408v-1.344h3.348v1.344zm4.852-1.344h3.392v1.344H8.752zM23.776-13.2a11.209 11.209 0 0 1-6.336 2.976l.9 1.392a14.792 14.792 0 0 0 4.38-1.648h4.3a8.266 8.266 0 0 1-3.488 2.64 21.069 21.069 0 0 0-1.52-1.632l-1.312.624a15.69 15.69 0 0 1 1.412 1.488 17.766 17.766 0 0 1-3.6.544l.64 1.376c4.688-.384 7.888-2.128 9.616-5.2v-1.184H24.5c.208-.208.416-.432.64-.672zm-.256 10-1.344.64a16.586 16.586 0 0 1 1.536 1.744 21.082 21.082 0 0 1-6.24.816l.608 1.456q9.36-.24 12.784-5.856v-1.184h-4.08a9.249 9.249 0 0 0 .928-.848l-1.3-.7c-1.632 1.728-4.208 2.752-7.7 3.088l.912 1.36a21.8 21.8 0 0 0 4.9-1.52h4.384a9.622 9.622 0 0 1-3.76 2.848A19.989 19.989 0 0 0 23.52-3.2zM-32 3h64v1h-64z" transform="translate(2395.094 -20194)"/>
                </g>
            </g>
        </g>
    </g>
    <g id="fc_line" transform="translate(-293 -947)">
        <path id="세로" class="cls-9" transform="translate(1246 1896)" d="M0 0h1v50H0z"/>
        <path id="세로-2" data-name="세로" class="cls-9" transform="translate(961 1666)" d="M0 0h1v50H0z"/>
        <path id="사각형_514" data-name="사각형 514" class="cls-9" transform="translate(676 1716)" d="M0 0h571v1H0z"/>
        <path id="세로-3" data-name="세로" class="cls-9" transform="translate(1246 1717)" d="M0 0h1v49H0z"/>
        <path id="세로-4" data-name="세로" class="cls-9" transform="translate(961 1356)" d="M0 0h1v50H0z"/>
        <path id="세로-5" data-name="세로" class="cls-9" transform="translate(961 1177)" d="M0 0h1v50H0z"/>
        <path id="세로-6" data-name="세로" class="cls-9" transform="translate(1246 2076)" d="M0 0h1v50H0z"/>
        <path id="세로-7" data-name="세로" class="cls-9" transform="translate(676 1717)" d="M0 0h1v409H0z"/>
        <path id="세로-8" data-name="세로" class="cls-9" transform="translate(961 2256)" d="M0 0h1v50H0z"/>
        <path id="세로-9" data-name="세로" class="cls-9" transform="translate(961 2436)" d="M0 0h1v50H0z"/>
        <path id="세로-10" data-name="세로" class="cls-9" transform="translate(961 2616)" d="M0 0h1v50H0z"/>
        <path id="세로-11" data-name="세로" class="cls-9" transform="translate(961 2796)" d="M0 0h1v50H0z"/>
        <path id="세로-12" data-name="세로" class="cls-9" transform="translate(961 2976)" d="M0 0h1v50H0z"/>
        <path id="세로-13" data-name="세로" class="cls-9" transform="translate(961 3156)" d="M0 0h1v50H0z"/>
        <path id="세로-14" data-name="세로" class="cls-9" transform="translate(961 3336)" d="M0 0h1v50H0z"/>
        <path id="패스_7154" data-name="패스 7154" d="M1527.279 2910.74h57v-180h-57" transform="translate(-12.279 .26)" style="fill:none;stroke:#999"/>
        <path id="다각형_140" data-name="다각형 140" class="cls-9" d="M7.5 0 15 11H0z" transform="rotate(180 484.5 616.5)"/>
        <path id="다각형_141" data-name="다각형 141" class="cls-9" d="M7.5 0 15 11H0z" transform="rotate(180 484.5 706.5)"/>
        <path id="다각형_142" data-name="다각형 142" class="cls-9" d="M7.5 0 15 11H0z" transform="rotate(180 484.5 1156)"/>
        <path id="다각형_143" data-name="다각형 143" class="cls-9" d="M7.5 0 15 11H0z" transform="rotate(180 484.5 1246)"/>
        <path id="다각형_144" data-name="다각형 144" class="cls-9" d="M7.5 0 15 11H0z" transform="rotate(180 484.5 1336)"/>
        <path id="다각형_145" data-name="다각형 145" class="cls-9" d="M7.5 0 15 11H0z" transform="rotate(180 484.5 1426)"/>
        <path id="다각형_146" data-name="다각형 146" class="cls-9" d="M7.5 0 15 11H0z" transform="rotate(180 484.5 1516)"/>
        <path id="다각형_147" data-name="다각형 147" class="cls-9" d="M7.5 0 15 11H0z" transform="rotate(180 484.5 1606)"/>
        <path id="다각형_148" data-name="다각형 148" class="cls-9" d="M7.5 0 15 11H0z" transform="rotate(180 484.5 1696)"/>
        <path id="다각형_149" data-name="다각형 149" class="cls-9" d="M7.5 0 15 11H0z" transform="rotate(-90 2124 615)"/>
        <path id="다각형_150" data-name="다각형 150" class="cls-9" d="M7.5 0 15 11H0z" transform="rotate(180 627 1066)"/>
        <path id="다각형_193" data-name="다각형 193" class="cls-9" d="M7.5 0 15 11H0z" transform="rotate(180 342 1066)"/>
        <path id="다각형_151" data-name="다각형 151" class="cls-9" d="M7.5 0 15 11H0z" transform="rotate(180 627 976)"/>
        <path id="다각형_152" data-name="다각형 152" class="cls-9" d="M7.5 0 15 11H0z" transform="rotate(180 627 886)"/>
    </g>
    <g id="fc_yes" transform="translate(288 360)">
        <g id="fc_yes-2" data-name="fc_yes" transform="translate(482.592 398.768)">
            <path id="사각형_515" data-name="사각형 515" class="cls-1" d="M0 0h82.736v23.008H0z"/>
            <path id="패스_10691" data-name="패스 10691" class="cls-3" d="M-24.7-9.824v1.568h2.944v.592a14.1 14.1 0 0 1-.1 1.664h-3.1v1.6h2.856A7.189 7.189 0 0 1-25.264.416l1.008 1.36a8.559 8.559 0 0 0 3.472-4.928 12.813 12.813 0 0 0 3.12 4.852l1.152-1.252a10.707 10.707 0 0 1-3.3-4.848h3.04V-6h-3.468c.064-.64.1-1.328.1-2.048v-.208h3.088v-1.568h-2.032a22.706 22.706 0 0 0 1.344-2.72l-1.552-.592a20.684 20.684 0 0 1-1.44 3.312h-1.856l1.136-.8a20.506 20.506 0 0 0-1.376-2.448l-1.28.816a21.239 21.239 0 0 1 1.388 2.432zm-6.624-2.816v1.54h.8v9.34l-.88.128.4 1.584A93.09 93.09 0 0 0-27.3-.864V1.68h1.616v-2.992c.288-.08.592-.16.88-.256v-1.616c-.288.1-.576.192-.88.288V-11.1h.848v-1.54zm2.384 10.592v-2.336h1.64v1.952c-.54.132-1.084.256-1.644.384zm0-3.84v-1.824h1.64v1.824zm0-3.328V-11.1h1.64v1.888zm20.336-3.968a23.088 23.088 0 0 1-6.976 5.312l.9 1.632c.864-.48 1.68-.992 2.448-1.52v1.12h8.48v-1.1a20.638 20.638 0 0 0 2.376 1.468l.912-1.616a22.416 22.416 0 0 1-6.928-5.3zm-2.944 4.928A20 20 0 0 0-8-11.664a21.618 21.618 0 0 0 3.536 3.408zm8.828 3.184h-10.56v6.72h1.616V.832h7.328v.816h1.616zm-8.944 4.32V-3.5h7.328v2.748zM2.272-13.008l-1.2 1.152a16.111 16.111 0 0 1 2.8 2.416l1.184-1.2a22.793 22.793 0 0 0-2.784-2.368zm-.384 3.744L.7-8.112A17.692 17.692 0 0 1 3.344-5.68l1.184-1.184a19.7 19.7 0 0 0-2.64-2.4zm1.6 4.528A48.087 48.087 0 0 1 .928.8l1.68.736a49.068 49.068 0 0 0 2.384-5.648zm1.936-5.888v1.632h3.984v3.248H5.872v1.6h3.536V-.5H5.04v1.636h10.288V-.5h-4.24v-3.644h3.472v-1.6h-3.472v-3.248h3.9v-1.632H11.1a20.467 20.467 0 0 0-1.04-2.608l-1.552.448a18.739 18.739 0 0 1 .944 2.16zm11.248 3.68v1.616h1.76v.384A10.912 10.912 0 0 1 17.1.576l1.232 1.136a12.592 12.592 0 0 0 1.728-6.784v-.256h1.744V-.72c0 .464-.144.7-.432.7C20.96-.016 20.5-.048 20-.08l.448 1.568h1.424c1.008 0 1.52-.56 1.52-1.648v-5.168h1.376v.4a12.754 12.754 0 0 1-1.12 5.52l1.216 1.1a14.137 14.137 0 0 0 1.488-6.732v-.288h1.76v4.592c0 .48-.224.72-.64.72-.4 0-.832-.032-1.3-.064l.432 1.568h1.376c1.168 0 1.76-.544 1.76-1.632v-5.184h1.584v-1.616h-1.58v-5.7h-4.976v5.7h-1.376v-5.7h-4.96v5.7zm11.44 0h-1.76v-4.192h1.76zm-6.3 0h-1.748v-4.192h1.744z" transform="translate(41.408 17.232)"/>
        </g>
    </g>
    <g id="fc_yes-3" data-name="fc_yes" transform="translate(1 359)">
        <g id="fc_yes-4" data-name="fc_yes" transform="translate(482.48 398.848)">
            <path id="사각형_515-2" data-name="사각형 515" class="cls-1" d="M0 0h83.12v22.816H0z"/>
            <path id="패스_10690" data-name="패스 10690" class="cls-3" d="M-24.848-8.352V1.664h1.7V-8.352zm.112-4.8A17.157 17.157 0 0 1-31.52-7.52L-30.512-6A17.4 17.4 0 0 0-24-11.584 16.421 16.421 0 0 0-17.488-6l1.008-1.52a16.237 16.237 0 0 1-6.784-5.632zm12.56 6c-.032.528-.08 1.04-.112 1.52h-2.832v1.552h2.592a8.1 8.1 0 0 1-.448 1.44A6.756 6.756 0 0 1-15.488.3l1.072 1.344a8.792 8.792 0 0 0 2.944-3.584 11.854 11.854 0 0 0 .592-2.14h1.968a21.562 21.562 0 0 1-.16 3.024A1.084 1.084 0 0 1-10.224 0c-.352 0-.784-.032-1.264-.064l.4 1.456c.528.048.912.08 1.136.08C-8.5 1.472-7.68.864-7.52-.32a33.029 33.029 0 0 0 .24-5.312h-3.392c.048-.48.1-.976.128-1.52H-7.5v-5.488h-7.088v5.488zm6.112-4.576v9.84h1.632v-9.84zM-2.848 1.52C-1.7 1.52-1.1.9-1.1-.32v-12.768h-1.668V-.752c0 .512-.224.784-.656.784-.656 0-1.36-.032-2.1-.1l.368 1.584zm-6.24-10.176h-3.92v-2.48h3.92zm12.5 2.208v4.16h9.248v-4.16zm7.564 2.688H5.088v-1.232h5.888zM5.2-2.192 3.632-1.6A8.747 8.747 0 0 1 4.816-.336h-3.76v1.584h13.856V-.336h-3.488a14.1 14.1 0 0 0 .912-1.344l-1.552-.56a13.817 13.817 0 0 1-1.168 1.9H6.592A9.863 9.863 0 0 0 5.2-2.192zm-2.512-8.816-1.12 1.056a18.548 18.548 0 0 1 1.888 1.488A13.31 13.31 0 0 1 .592-6.976l1.024 1.312a13.631 13.631 0 0 0 3.792-2.272v.512h5.872v-.592A17.693 17.693 0 0 0 14.544-5.7l1.1-1.28a16.476 16.476 0 0 1-2.332-1.42 9.836 9.836 0 0 0 1.7-1.664l-1.172-1.024a9.127 9.127 0 0 1-1.712 1.712 7.575 7.575 0 0 1-.864-.9 9.649 9.649 0 0 0 1.712-1.6l-1.168-1.04a8.752 8.752 0 0 1-1.44 1.44 10.622 10.622 0 0 1-.912-1.68l-1.392.768a13.029 13.029 0 0 0 2.288 3.44H6.384a8.9 8.9 0 0 0 1.488-2.5v-1.248h-5.52v1.536h3.632a7.971 7.971 0 0 1-1.36 1.728 21.506 21.506 0 0 0-1.936-1.576zM31.6-2.832l-1.664-.544a11.385 11.385 0 0 1-.288 2.32.951.951 0 0 1-1.024.64h-3.168a.643.643 0 0 1-.672-.72v-4.992h5.584v-6.4H22.5v1.6h6.272v3.2h-5.62v7.264a1.405 1.405 0 0 0 1.568 1.616h4.18a2.2 2.2 0 0 0 1.98-.736 8.722 8.722 0 0 0 .72-3.248zM18.848-13.04l-1.184 1.152a14.648 14.648 0 0 1 2.624 2.352L21.44-10.7a22.414 22.414 0 0 0-2.592-2.34zm-2.224 4.624v1.6h2.192v5.68a1.09 1.09 0 0 1-.432.864l.64 1.5a24.722 24.722 0 0 0 3.488-2.56l-.448-1.744c-.576.528-1.12.992-1.632 1.408v-6.748z" transform="translate(41.52 17.152)"/>
        </g>
    </g>
    <g id="fc_yes-5" data-name="fc_yes" transform="translate(755 1451)">
        <g id="fc_yes-6" data-name="fc_yes" transform="translate(482.56 400.685)">
            <path id="사각형_515-3" data-name="사각형 515" class="cls-1" d="M0 0h82.928v44.995H0z"/>
            <path id="패스_10706" data-name="패스 10706" class="cls-3" d="M-9.511-11.315v7.182h-.1l-4.934-7.182h-2.065V0h2.348v-7.188h.083L-9.207 0h2.033v-11.315zm4.249 0V0h2.348v-11.315zM6.61 0v-1.945H1.345v-2.746H6.2V-6.63H1.345v-2.74h5.243v-1.945H-1V0zm10.7 0L14.9-4.4a3.257 3.257 0 0 0 2-3.227c0-2.232-1.475-3.685-4.05-3.685H8.417V0h2.348v-4.022h1.79L14.7 0zm-4.9-9.387c1.4 0 2.072.624 2.072 1.757s-.674 1.707-2.066 1.707h-1.651v-3.464zM-28.9 19.568v6.112h1.632v-6.272a18.191 18.191 0 0 1 2.02 2.192l.912-1.44q-.576-.552-1.2-1.056a6.34 6.34 0 0 0 1.248-1.28l-.944-.944a6.378 6.378 0 0 1-1.36 1.408l-.672-.448v-.064a11.893 11.893 0 0 0 1.888-3.248v-1.36h-1.68c-.224-.7-.512-1.488-.88-2.352l-1.616.432c.3.624.576 1.264.832 1.92h-2.288v1.52h3.968a14.987 14.987 0 0 1-4.4 4.96l.512 1.7a24.834 24.834 0 0 0 2.028-1.78zm6.352-8.688v14.784h1.648V17.84c.912.672 2.032 1.616 3.36 2.8l.992-1.472a51.814 51.814 0 0 0-4.352-3.056V10.88zm14.768-.128-1.792.288a15.637 15.637 0 0 1 .816 1.552h-5.9v1.552h4.24a10.159 10.159 0 0 1-2.816 3.04 1.09 1.09 0 0 1-.352.128l.384 1.5q4.92-.264 9.1-.72c.368.544.7 1.088 1.008 1.616l1.376-.976a35.742 35.742 0 0 0-3.04-4.128l-1.3.816c.336.432.672.88 1.008 1.328-2.016.24-4.016.416-6.032.544a18.908 18.908 0 0 0 2.384-3.152h7.344v-1.548h-5.704a17.01 17.01 0 0 0-.72-1.84zm-3.3 8.528a5.686 5.686 0 0 1-.992 3.28 7.12 7.12 0 0 1-2.976 1.76l1.056 1.344a8.235 8.235 0 0 0 3.424-2.352 8 8 0 0 0 1.1-4.032zM-3 25.408a2.2 2.2 0 0 0 1.36-.464c.288-.272.512-1.248.688-2.944l-1.536-.48a4.632 4.632 0 0 1-.384 2.1.861.861 0 0 1-.544.24H-5.12a.573.573 0 0 1-.64-.656v-4.116h-1.664v4.4c0 1.28.608 1.92 1.84 1.92zM9.568 10.864v.88h-3.68v1.344h3.68v.672H6.56v1.312h3.008v.688H5.44v1.376h9.92V15.76h-4.176v-.688h3.232V13.76h-3.232v-.672h3.792v-1.344h-3.792v-.88zm-1.456 10.3h4.576v.784H8.112zm4.576-1.248H8.112v-.8h4.576zm-4.576 3.3h4.576v.448c0 .336-.144.512-.432.512l-1.264-.064.4 1.456h1.328a1.385 1.385 0 0 0 1.568-1.552v-6.24H6.544v7.888h1.568zm-5.264-12.24-1.184 1.136a14.638 14.638 0 0 1 2.624 2.336L5.44 13.3a20.991 20.991 0 0 0-2.592-2.324zM.576 15.584v1.6H2.7v5.648a1.162 1.162 0 0 1-.416.9l.624 1.5a24.977 24.977 0 0 0 3.024-2.544l-.448-1.76c-.4.416-.784.816-1.168 1.184v-6.528zm16.5-1.968v1.616h6.192V18a22.409 22.409 0 0 1-6.384 5.1l.912 1.52a23.535 23.535 0 0 0 5.472-4.672v3.52c0 .4-.176.608-.512.608-.64 0-1.3-.048-2-.112l.368 1.6h2.224A1.454 1.454 0 0 0 24.96 23.9v-5.26a17.874 17.874 0 0 0 5.36 5.84l1.168-1.38a18.873 18.873 0 0 1-4.272-3.6 14.045 14.045 0 0 0 3.024-2.8l-1.248-1.088a13.577 13.577 0 0 1-2.672 2.752 16.74 16.74 0 0 1-1.36-2.3v-.832h5.94v-1.616h-2.468l.784-.784a17.19 17.19 0 0 0-2.224-1.92L25.9 11.936a13.862 13.862 0 0 1 1.84 1.68h-2.78v-2.768h-1.7v2.768zm1.872 2.336-1.168 1.12a16.733 16.733 0 0 1 2.656 2.816l1.136-1.12a23.347 23.347 0 0 0-2.628-2.816z" transform="translate(41.44 15.315)"/>
        </g>
    </g>
</svg>
