<svg id="CHN_flow_chart_4_2" xmlns="http://www.w3.org/2000/svg" width="1336" height="2410" viewBox="0 0 1336 2410">
    <defs>
        <filter id="box" x="865" y="734" width="366" height="148" filterUnits="userSpaceOnUse">
            <feOffset dy="3"/>
            <feGaussianBlur stdDeviation="3" result="blur"/>
            <feFlood flood-color="#111" flood-opacity=".102"/>
            <feComposite operator="in" in2="blur"/>
            <feComposite in="SourceGraphic"/>
        </filter>
        <filter id="box-2" x="105" y="734" width="366" height="148" filterUnits="userSpaceOnUse">
            <feOffset dy="3"/>
            <feGaussianBlur stdDeviation="3" result="blur-2"/>
            <feFlood flood-color="#111" flood-opacity=".102"/>
            <feComposite operator="in" in2="blur-2"/>
            <feComposite in="SourceGraphic"/>
        </filter>
        <filter id="box-3" x="485" y="914" width="366" height="148" filterUnits="userSpaceOnUse">
            <feOffset dy="3"/>
            <feGaussianBlur stdDeviation="3" result="blur-3"/>
            <feFlood flood-color="#111" flood-opacity=".102"/>
            <feComposite operator="in" in2="blur-3"/>
            <feComposite in="SourceGraphic"/>
        </filter>
        <filter id="box-4" x="485" y="1094" width="366" height="148" filterUnits="userSpaceOnUse">
            <feOffset dy="3"/>
            <feGaussianBlur stdDeviation="3" result="blur-4"/>
            <feFlood flood-color="#111" flood-opacity=".102"/>
            <feComposite operator="in" in2="blur-4"/>
            <feComposite in="SourceGraphic"/>
        </filter>
        <filter id="다각형_3" x="390" y="274" width="556" height="278" filterUnits="userSpaceOnUse">
            <feOffset dy="3"/>
            <feGaussianBlur stdDeviation="3" result="blur-5"/>
            <feFlood flood-color="#111" flood-opacity=".102"/>
            <feComposite operator="in" in2="blur-5"/>
            <feComposite in="SourceGraphic"/>
        </filter>
        <filter id="area" x="105" y="2174" width="1126" height="148" filterUnits="userSpaceOnUse">
            <feOffset dy="3"/>
            <feGaussianBlur stdDeviation="3" result="blur-6"/>
            <feFlood flood-color="#111" flood-opacity=".102"/>
            <feComposite operator="in" in2="blur-6"/>
            <feComposite in="SourceGraphic"/>
        </filter>
        <filter id="area-2" x="105" y="94" width="1126" height="148" filterUnits="userSpaceOnUse">
            <feOffset dy="3"/>
            <feGaussianBlur stdDeviation="3" result="blur-7"/>
            <feFlood flood-color="#111" flood-opacity=".102"/>
            <feComposite operator="in" in2="blur-7"/>
            <feComposite in="SourceGraphic"/>
        </filter>
        <filter id="box-5" x="105" y="1274" width="1126" height="148" filterUnits="userSpaceOnUse">
            <feOffset dy="3"/>
            <feGaussianBlur stdDeviation="3" result="blur-8"/>
            <feFlood flood-color="#111" flood-opacity=".102"/>
            <feComposite operator="in" in2="blur-8"/>
            <feComposite in="SourceGraphic"/>
        </filter>
        <filter id="box-6" x="105" y="1454" width="1126" height="148" filterUnits="userSpaceOnUse">
            <feOffset dy="3"/>
            <feGaussianBlur stdDeviation="3" result="blur-9"/>
            <feFlood flood-color="#111" flood-opacity=".102"/>
            <feComposite operator="in" in2="blur-9"/>
            <feComposite in="SourceGraphic"/>
        </filter>
        <filter id="box-7" x="105" y="1814" width="1126" height="148" filterUnits="userSpaceOnUse">
            <feOffset dy="3"/>
            <feGaussianBlur stdDeviation="3" result="blur-10"/>
            <feFlood flood-color="#111" flood-opacity=".102"/>
            <feComposite operator="in" in2="blur-10"/>
            <feComposite in="SourceGraphic"/>
        </filter>
        <filter id="box-8" x="105" y="1994" width="1126" height="148" filterUnits="userSpaceOnUse">
            <feOffset dy="3"/>
            <feGaussianBlur stdDeviation="3" result="blur-11"/>
            <feFlood flood-color="#111" flood-opacity=".102"/>
            <feComposite operator="in" in2="blur-11"/>
            <feComposite in="SourceGraphic"/>
        </filter>
        <filter id="box-9" x="105" y="1634" width="1126" height="148" filterUnits="userSpaceOnUse">
            <feOffset dy="3"/>
            <feGaussianBlur stdDeviation="3" result="blur-12"/>
            <feFlood flood-color="#111" flood-opacity=".102"/>
            <feComposite operator="in" in2="blur-12"/>
            <feComposite in="SourceGraphic"/>
        </filter>
        <filter id="box-10" x="485" y="734" width="366" height="148" filterUnits="userSpaceOnUse">
            <feOffset dy="3"/>
            <feGaussianBlur stdDeviation="3" result="blur-13"/>
            <feFlood flood-color="#111" flood-opacity=".102"/>
            <feComposite operator="in" in2="blur-13"/>
            <feComposite in="SourceGraphic"/>
        </filter>
        <style>
            .cls-1{fill:#f8f8f8}.cls-4{stroke:#999;stroke-width:2px}.cls-3{fill:#333}.cls-4{fill:#fff}.cls-6{fill:red;opacity:0}.cls-12,.cls-7{fill:none}.cls-7{stroke:#326f5e;stroke-width:1.5px}.cls-8{fill:#326f5e}.cls-10{fill:#999}.cls-11{stroke:none}
        </style>
    </defs>
    <path id="bg" class="cls-1" d="M0 0h1336v2410H0z"/>
    <g id="fc_box_small_no_btn" transform="translate(874 740)">
        <g transform="translate(-874 -740)" style="filter:url(#box)">
            <g id="box-11" data-name="box" style="stroke:#999;stroke-width:2px;fill:#eee">
                <path class="cls-11" d="M0 0h348v130H0z" transform="translate(874 740)"/>
                <path class="cls-12" d="M1 1h346v128H1z" transform="translate(874 740)"/>
            </g>
        </g>
        <path id="패스_10832" data-name="패스 10832" class="cls-3" d="M116.34 16.94v.26a10.178 10.178 0 0 1-.2 2.2c-.1.26-.16.48-.88.48-.64 0-.86-.1-.86-.46V13.6a28.7 28.7 0 0 0 3.82-4l-1.4-1.56a23.115 23.115 0 0 1-2.42 3.06V4.98h-1.94v15.24c0 1.2.66 1.6 2.74 1.6 1.72 0 2.26-.22 2.6-1.14a10.668 10.668 0 0 0 .44-2.92zM105.86 4.96h-1.96v3.38h-1.8v1.92h1.8v3.54c-.74.28-1.42.54-2.04.76l.52 2c.52-.2 1.02-.4 1.52-.62v3.68c0 .38-.12.52-.62.52h-.18a7.219 7.219 0 0 1-1.08-.12l.42 2c.48.04.72.08 1.18.08 1.86 0 2.24-.74 2.24-2.12v-4.94c.6-.28 1.2-.58 1.8-.88l-.16-2c-.5.28-1.06.54-1.64.82v-2.72h1.68V8.34h-1.68zm6.24 13.3c-.64.28-1.38.56-2.14.84v-6.8h2.16v-1.96h-2.16V4.96h-1.98v14.76c-.54.16-1.1.32-1.66.46l.58 2.06a47.151 47.151 0 0 0 5.26-2.02zm14.1-13.44a18.231 18.231 0 0 1-3.68 8.04l1.44 1.76c.34-.44.66-.94 1-1.4v9.12h2.06v-1.12h8.46v-1.86h-3.92v-1.98h3.28v-1.84h-3.28v-1.8h3.28v-1.82h-3.28V10h3.6V8.12h-3.4c.32-.84.62-1.66.94-2.58l-2.06-.5c-.3 1.06-.64 2.08-1.02 3.08h-2.2a23.878 23.878 0 0 0 .84-2.86zm-4.12 9.26a22.356 22.356 0 0 1-2.9 6.08l1.62 1.5a38.523 38.523 0 0 0 2.86-6.12zm1.76-4.68a26.08 26.08 0 0 0-2.8-3.52L119.4 7.2a24.447 24.447 0 0 1 2.76 3.58zm3.18 7.98h2.48v1.98h-2.48zm0-7.38h2.48v1.92h-2.48zm0 3.74h2.48v1.8h-2.48zm14.7-8.06h-5.16V22.3h1.94V11.96l-.02-.28V7.56h1.9a34.791 34.791 0 0 1-1.78 4.3 6.432 6.432 0 0 1 1.94 3.94.79.79 0 0 1-.74.8 3.783 3.783 0 0 1-1.12-.2l.32 1.86.32.08a1.62 1.62 0 0 0 .72.24c1.5 0 2.3-.8 2.3-2.46a6.8 6.8 0 0 0-1.74-4.4c.22-.4.4-.84.6-1.26l1.18 1.58a11.4 11.4 0 0 0 1.1-.84v1.08h2.4v1.48h-3.34v1.84h3.34v4.04c0 .46-.14.54-.66.54a8.448 8.448 0 0 1-1.3-.14l.42 1.98a4.626 4.626 0 0 1 .64.08c.22.02.38.04.56.04 2.12 0 2.32-.56 2.32-2.2V15.6h3.74v-1.84h-3.74v-1.48h2.56v-1.12a6.345 6.345 0 0 0 .9.7l1.4-1.54a13.771 13.771 0 0 1-4.82-5.3h-2.36a12.041 12.041 0 0 1-4.32 5.36 39.859 39.859 0 0 0 1.62-3.96zm1.52 10.46a14.265 14.265 0 0 1-2.26 4.22l1.62.78a22.932 22.932 0 0 0 2.32-4.4zm3.58-9.38a13.29 13.29 0 0 0 2.74 3.66h-5.24a13.542 13.542 0 0 0 2.5-3.66zm5.62 13.3c-.44-.66-.9-1.32-1.28-1.98a17.875 17.875 0 0 1-1-1.94l-1.56.76a28.949 28.949 0 0 0 2.18 4.12zm9.22-12.4h-2.88c.22-.76.38-1.56.56-2.34l-2.16-.42a21.136 21.136 0 0 1-3.32 8.42l1.6 1.28a19.542 19.542 0 0 0 2.68-5.02h2.68a17.566 17.566 0 0 1-.98 3.64 18.072 18.072 0 0 0-2.06-1.32l-1.1 1.6a20.456 20.456 0 0 1 2.24 1.62 15.335 15.335 0 0 1-5.06 5.38l1.26 1.8a16.835 16.835 0 0 0 7.38-10.42 13.869 13.869 0 0 0 1.88 2.04v8.36h2.12v-6.52c.74.54 1.52 1.04 2.36 1.58l1.18-2a17.8 17.8 0 0 1-3.54-2.2V5h-2.12v6.18a8.589 8.589 0 0 1-.96-1.12l-.66.72c.14-.74.3-1.52.42-2.28zm18.44.6v2.02h5.54v9.82q0 1.02-1.14 1.02c-.86 0-1.76-.06-2.72-.14l.46 2.04h2.98q2.52 0 2.52-2.4V10.28h2V8.26h-2V4.54h-2.1v3.72zm-6.82 1.46-1.42 1.34c1.36 1.52 2.58 2.98 3.66 4.42a15.606 15.606 0 0 1-4.18 4.6l1.2 1.8a20.838 20.838 0 0 0 4.18-4.7c.6.86 1.12 1.7 1.6 2.54l1.56-1.56c-.64-1-1.32-1.98-2.08-2.98a17.839 17.839 0 0 0 1.54-7.28V6.38h-7.1V8.4h5.28a16.626 16.626 0 0 1-1.04 5.06c-1-1.24-2.06-2.5-3.2-3.74zm8.28 2.44-1.6 1.16a31.343 31.343 0 0 1 2.92 4.24l1.64-1.16a32.233 32.233 0 0 0-2.96-4.24zm12.16-2.52v3.66h3.64a15.974 15.974 0 0 1-5.26 1.54l.8 1.74a15.785 15.785 0 0 0 6.44-2.3c.24.2.48.44.72.68a26.191 26.191 0 0 1-7.82 2.86l1.02 1.76a25.32 25.32 0 0 0 7.76-3.36 4.5 4.5 0 0 1 .42.82 28.828 28.828 0 0 1-9.4 3.82l1.06 1.78a29.709 29.709 0 0 0 8.78-3.74c0 .08.02.2.02.32a2.063 2.063 0 0 1-.48 1.6 2.555 2.555 0 0 1-1.36.44c-.48.02-1.1.04-1.84.04l.64 1.9q.78 0 1.44-.06a5.16 5.16 0 0 0 2.82-.9 4.066 4.066 0 0 0 .9-3.02 7.913 7.913 0 0 0-.34-1.9 3.2 3.2 0 0 1 .52-.16 14.7 14.7 0 0 0 4.48 5.16l1.42-1.8a10.481 10.481 0 0 1-4.1-3.98 20.829 20.829 0 0 0 3-1.44l-1.38-1.58a17.977 17.977 0 0 1-4.7 2.12 10 10 0 0 0-1.96-2.34h7.52V8.42h-4.68c.48-.4.96-.84 1.46-1.34V5.74h-6.02c.28-.28.56-.58.84-.86l-2.2-.5a18.6 18.6 0 0 1-6.4 4.1l1.3 1.6c.32-.16.62-.3.94-.44zm7.46-1.22h-5.32c.52-.34 1.02-.7 1.52-1.08h5.22c-.48.4-.96.76-1.42 1.08zm5.24 3.16h-4.62a7.733 7.733 0 0 0 .58-1.44h4.04zm-6.94 0h-3.7v-1.44h4.48a5.625 5.625 0 0 1-.78 1.44z" transform="translate(18 53)"/>
    </g>
    <g id="fc_box_small" transform="translate(114 740)">
        <g transform="translate(-114 -740)" style="filter:url(#box-2)">
            <g id="box-12" data-name="box" class="cls-4">
                <path class="cls-11" d="M0 0h348v130H0z" transform="translate(114 740)"/>
                <path class="cls-12" d="M1 1h346v128H1z" transform="translate(114 740)"/>
            </g>
        </g>
        <path id="패스_10830" data-name="패스 10830" class="cls-3" d="M113.06 21.12a13.248 13.248 0 0 0 2.28-3.06c-.04.46-.06.94-.06 1.2v3.1h2.04v-3.22c0-.36-.06-.9-.1-1.4a12.48 12.48 0 0 0 1.72 2.32L120 18.2a11.343 11.343 0 0 1-2.28-2.48h2.3v-1.84h-2.7v-1.3h3v-1.82h-1.6l.32-2.28h1v-1.8h-2.84V4.94h-1.96v1.74h-2.78v1.8h.98l.32 2.28h-1.64v1.82h3.16v1.3h-2.94v1.84h2.36a15.059 15.059 0 0 1-2.8 3.62zM126.6 4.94a16.928 16.928 0 0 1-5.96 1.7v5.5c0 4.8-.1 6.6-1.98 9.02l1.66 1.32c1.88-2.52 2.3-4.94 2.34-9.56h1.7v9.44h2v-9.44h1.8v-1.84h-5.5V8.2a20.264 20.264 0 0 0 5.02-1.64zm-11.32 3.54h1.92l-.32 2.28h-1.3zm29.36 13.62v-7.68h-4.1V12h5v-1.84h-5V7.5a40.01 40.01 0 0 0 4.58-.94l-1.14-1.62a44.623 44.623 0 0 1-10.08 1.28l.64 1.88c1.26-.06 2.62-.16 3.98-.32v2.38h-4.84V12h4.84v2.42h-3.9v7.94h1.98v-.98h6.04v.72zm-8.04-5.86h6.04v3.32h-6.04zm-4.68-1.46a29.183 29.183 0 0 1-2.58 6.18l1.7 1.42a55.747 55.747 0 0 0 2.56-6.52zm1.64-2.8a26.509 26.509 0 0 0-3.16-2.36l-1.24 1.46a28.024 28.024 0 0 1 3.04 2.54zm.62-4.64a18.692 18.692 0 0 0-3.06-2.36L129.8 6.4a16.371 16.371 0 0 1 2.96 2.5zm19.8-1.48a21.409 21.409 0 0 1-.7 4.62 24.342 24.342 0 0 0-.94-2.64l-1.18.58V4.94h-2.02v17.38h2.02V8.84a18.979 18.979 0 0 1 .82 3l.98-.48a11.484 11.484 0 0 1-.66 1.42l1.78.98a16.318 16.318 0 0 0 1.18-3.2h1.6v3.54h-3.3v1.88h3.3v3.92h-4.34v1.86h10.26V19.9h-3.86v-3.92h3.26V14.1h-3.26v-3.54h3.38V8.68h-3.38V4.94h-2.06v3.74h-1.2c.14-.82.24-1.66.34-2.54zm-6.88 2.7a19.517 19.517 0 0 1-.62 5.08l1.6.74a23.775 23.775 0 0 0 .68-5.46zm17.78-2.2a32.532 32.532 0 0 1-.88 6.28l1.68.88a23.041 23.041 0 0 0 .62-3.06h.84v3.74c-1.04.4-2.06.76-2.98 1.1l.54 2.06c.8-.32 1.64-.7 2.44-1.04v6.02h1.96V15.4c.64-.3 1.24-.62 1.74-.86l-.08-1.92.22.16a17.362 17.362 0 0 0 1.56-2.94h.54a14.814 14.814 0 0 1-3.86 7.56l1.3 1.34a18.577 18.577 0 0 0 4.44-8.9h.86a17.928 17.928 0 0 1-5.44 10.84l1.32 1.42c3.56-3.34 5.22-7.6 5.96-12.26h.32c-.1 4.08-.34 8.2-.8 9.72-.1.4-.24.58-.8.58h-.2a10.65 10.65 0 0 1-1.9-.22l.4 2.06a12.061 12.061 0 0 0 1.82.14c1.52.02 2.22-.48 2.5-1.86a68.09 68.09 0 0 0 .88-12.32h-6.66a24.238 24.238 0 0 0 .74-2.66l-1.88-.4a22.071 22.071 0 0 1-1.48 4.78V8.6h-1.5V4.94h-1.96V8.6h-.62c.06-.7.08-1.38.12-2zm4.6 5.26 1.24.98-1.62.74v-2.88h1.08c-.2.38-.44.76-.7 1.16zm15.78-.82h5.78l-.3 1.3h-4.14v7.04h2.02v-5.12h7.26v5.12h2.02V12.1h-5.04l.3-1.3h6.38V8.88h-6.06c.06-.4.12-.82.16-1.22l-2.08-.26-.18 1.48h-6.12v-1.3a88.276 88.276 0 0 0 13.4-1.16l-1.02-1.86a82.483 82.483 0 0 1-14.4 1.28v6.4q-.15 5.91-2.04 9.24l1.46 1.52q2.46-4.02 2.6-10.76zm8.32 7.68-1.04 1.56a26.936 26.936 0 0 1 5.86 3.06l1.16-1.82a30.506 30.506 0 0 0-5.98-2.8zm-1.92-3.88a6.72 6.72 0 0 1-1.96 4.3 11.642 11.642 0 0 1-5.12 2.32l1.12 1.92a12.942 12.942 0 0 0 5.78-2.98 8.658 8.658 0 0 0 2.2-5.42z" transform="translate(18 53)"/>
    </g>
    <g id="fc_box_small-2" data-name="fc_box_small" transform="translate(494 920)">
        <g transform="translate(-494 -920)" style="filter:url(#box-3)">
            <g id="box-13" data-name="box" class="cls-4">
                <path class="cls-11" d="M0 0h348v130H0z" transform="translate(494 920)"/>
                <path class="cls-12" d="M1 1h346v128H1z" transform="translate(494 920)"/>
            </g>
        </g>
        <path id="패스_10835" data-name="패스 10835" class="cls-3" d="M68.93 6.36a32.532 32.532 0 0 1-.88 6.28l1.68.88a23.04 23.04 0 0 0 .62-3.06h.84v3.74c-1.04.4-2.06.76-2.98 1.1l.54 2.06c.8-.32 1.64-.7 2.44-1.04v6.02h1.96V15.4c.64-.3 1.24-.62 1.74-.86l-.08-1.92.22.16a17.362 17.362 0 0 0 1.56-2.94h.54a14.814 14.814 0 0 1-3.86 7.56l1.3 1.34a18.577 18.577 0 0 0 4.44-8.9h.86a17.928 17.928 0 0 1-5.44 10.84l1.32 1.42c3.56-3.34 5.22-7.6 5.96-12.26h.32c-.1 4.08-.34 8.2-.8 9.72-.1.4-.24.58-.8.58h-.2a10.65 10.65 0 0 1-1.9-.22l.4 2.06a12.062 12.062 0 0 0 1.82.14c1.52.02 2.22-.48 2.5-1.86a68.092 68.092 0 0 0 .88-12.32h-6.66a24.235 24.235 0 0 0 .74-2.66l-1.88-.4a22.071 22.071 0 0 1-1.48 4.78V8.6h-1.5V4.94h-1.96V8.6h-.62c.06-.7.08-1.38.12-2zm4.6 5.26 1.24.98-1.62.74v-2.88h1.08c-.2.38-.44.76-.7 1.16zm15.78-.82h5.78l-.3 1.3h-4.14v7.04h2.02v-5.12h7.26v5.12h2.02V12.1h-5.04l.3-1.3h6.38V8.88h-6.06c.06-.4.12-.82.16-1.22l-2.08-.26-.18 1.48h-6.12v-1.3a88.276 88.276 0 0 0 13.4-1.16l-1.02-1.86a82.483 82.483 0 0 1-14.4 1.28v6.4q-.15 5.91-2.04 9.24L86.71 23q2.46-4.02 2.6-10.76zm8.32 7.68-1.04 1.56a26.936 26.936 0 0 1 5.86 3.06l1.16-1.82a30.505 30.505 0 0 0-5.98-2.8zm-1.92-3.88a6.72 6.72 0 0 1-1.96 4.3 11.642 11.642 0 0 1-5.12 2.32l1.12 1.92a12.942 12.942 0 0 0 5.78-2.98 8.658 8.658 0 0 0 2.2-5.42zm14.12 1.04h3.84v1.68h-3.84zm3.84 3.58v3.94h2.08v-3.94h3.9v.98h2.04V10.18h-5.94V8.54h-2.08v1.64h-5.88v10.08h2.04v-1.04zm2.08-1.9v-1.68h3.9v1.68zm3.9-3.5h-3.9V12.1h3.9zm-5.98-1.72v1.72h-3.84V12.1zm9.54-6.22h-7.6q-.24-.84-.48-1.5l-2.22.36c.18.36.36.74.52 1.14h-7.42v3.98h2.04V7.78h13.12v1.98h2.04zm8.24 7.22c-.54.22-1.08.44-1.62.64v-3.68h1.76V8.04h-1.76V4.58h-2.04v3.46h-2.02v2.02h2.02v4.32c-.76.2-1.52.36-2.28.5l.5 2c.6-.16 1.18-.32 1.78-.5v3.96c0 .48-.24.72-.68.72a8.753 8.753 0 0 1-1.42-.14l.44 2.04h1.7a1.812 1.812 0 0 0 2-2.08V15.7c.54-.2 1.08-.42 1.62-.64zm2.76-.76h2.46V10.3h-2.46V4.68h-2.06v15.08a1.15 1.15 0 0 1-.88 1.2l.52 1.94a34.272 34.272 0 0 0 5.04-1.54l-.38-1.92a16.311 16.311 0 0 1-2.24.84zm6.96 10.54a2.143 2.143 0 0 0 1.7-.64c.4-.44.68-1.84.84-4.18l-1.9-.6a10.56 10.56 0 0 1-.34 2.98.747.747 0 0 1-.68.46h-.78q-.6 0-.6-.66v-8a28.109 28.109 0 0 0 4.2-1.82l-1.2-1.72a17.409 17.409 0 0 1-3 1.48V4.64h-2.06V20.7c0 1.44.66 2.18 2.02 2.18zm12.46-18.22v2.76h-6.42v11.72h2.06v-1.16h4.36v5h2.12v-5h4.28V19h2.06V7.42h-6.34V4.66zm-4.36 11.36V13.6h4.36v2.42zm6.48 0V13.6h4.28v2.42zm-6.48-4.28V9.36h4.36v2.38zm6.48 0V9.36h4.28v2.38zm20.86-7.16v1.1h-4.6v1.68h4.6v.84h-3.76v1.64h3.76v.86h-5.16v1.72h12.4V10.7h-5.22v-.86h4.04V8.2h-4.04v-.84h4.74V5.68h-4.74v-1.1zm-1.82 12.88h5.72v.98h-5.72zm5.72-1.56h-5.72v-1h5.72zm-5.72 4.12h5.72v.56c0 .42-.18.64-.54.64l-1.58-.08.5 1.82h1.66a1.732 1.732 0 0 0 1.96-1.94v-7.8h-9.68v9.86h1.96zm-6.58-15.3-1.48 1.42a18.3 18.3 0 0 1 3.28 2.92l1.44-1.44a26.239 26.239 0 0 0-3.24-2.9zm-2.84 5.76v2h2.66v7.06a1.452 1.452 0 0 1-.52 1.12l.78 1.88a31.22 31.22 0 0 0 3.78-3.18l-.56-2.2c-.5.52-.98 1.02-1.46 1.48v-8.16zm26.36-.14v2.08h5.16v10.72h2.16V12.42h4.9v-2.08h-4.9v-5.8h-2.16v5.8zm-3.52-5.64-1.48 1.44a18.309 18.309 0 0 1 3.28 2.94l1.44-1.46a28.017 28.017 0 0 0-3.24-2.92zm-2.78 5.78v2h2.74v7.1a1.363 1.363 0 0 1-.54 1.08l.8 1.88a30.954 30.954 0 0 0 4.16-3.24l-.54-2.14q-.99.93-1.86 1.68v-8.36zm31.76-4.16v12.3h2.02V6.32zm3.9 16.58a1.9 1.9 0 0 0 2.18-2.1V4.64h-2.08v15.62c0 .52-.28.78-.82.78q-1.23 0-2.64-.12l.48 1.98zm-5.56-14.08-5.42.82c-.12-1.5-.16-3.18-.16-5.02h-2.12c0 1.96.08 3.74.22 5.34l-2.46.38.3 2 2.38-.36a26.342 26.342 0 0 0 .62 3.34c.2.78.44 1.5.68 2.18a14.362 14.362 0 0 1-4.22 2.56l1.24 1.9a16.3 16.3 0 0 0 3.88-2.34 8.712 8.712 0 0 0 .86 1.4c.94 1.28 1.9 1.94 2.86 1.94q.87 0 1.56-1.26a16.618 16.618 0 0 0 1-2.58l-1.76-1.16c-.32 1.8-.62 2.72-.92 2.78q-.81-.03-1.8-1.74c-.12-.22-.24-.46-.36-.74a20.5 20.5 0 0 0 3.58-5.54l-1.82-.94a18.242 18.242 0 0 1-2.56 4.16c-.18-.6-.34-1.28-.48-2a21.7 21.7 0 0 1-.34-2.26l5.58-.86zm-2.92-4.32-1.7.84a21.858 21.858 0 0 1 2 2.96l1.76-.9a27.556 27.556 0 0 0-2.06-2.9zm19.9-.02v3.3h-5.66v2h5.66v3.36h-6.82v2.02h6.82v7.96h2.1v-7.96h6.22a10.453 10.453 0 0 1-.36 3.52 1.419 1.419 0 0 1-1 .44c-.68 0-1.42-.02-2.2-.02l.56 1.96h1.28a9.592 9.592 0 0 0 1.5-.18 2.338 2.338 0 0 0 1.24-.62c.68-.68 1.02-3.06 1.04-7.12h-2.78l.38-4.36v-1h-5.88v-3.3zm2.1 8.66V9.78h3.78l-.3 3.36zm4.94-8.62-1.06 1.58a18.006 18.006 0 0 1 3.92 2.56l1.12-1.74a21.913 21.913 0 0 0-3.98-2.4z" transform="translate(18 53)"/>
    </g>
    <g id="fc_box_small-3" data-name="fc_box_small" transform="translate(494 1100)">
        <g transform="translate(-494 -1100)" style="filter:url(#box-4)">
            <g id="box-14" data-name="box" class="cls-4">
                <path class="cls-11" d="M0 0h348v130H0z" transform="translate(494 1100)"/>
                <path class="cls-12" d="M1 1h346v128H1z" transform="translate(494 1100)"/>
            </g>
        </g>
        <path id="패스_10836" data-name="패스 10836" class="cls-3" d="m123.9 12.24-1.2.4c0-1.4.02-2.96.02-4.7h-4v-3.2h-2.04v3.2h-3.16v2.04h3.16V10c-.04 5.4-1.48 9.3-4.3 11.74l1.58 1.4Q118.61 19 118.72 10v-.02h1.92c-.04 5.46-.1 8.64-.2 9.54-.14.98-.6 1.48-1.38 1.48-.48 0-1.06-.04-1.72-.1l.52 1.9c.74.08 1.26.12 1.58.12 1.78 0 2.78-.82 2.98-2.42.12-1.08.22-3.34.26-6.8.4 1.16.8 2.44 1.18 3.88l1.56-.72a44.685 44.685 0 0 0-1.52-4.62zm-10.22-.06a11.543 11.543 0 0 1-2.18 4.6l1.42 1.32a13.542 13.542 0 0 0 2.4-5.5zm-6.94-3.1v1.94h2.1v12.06h1.98V11.02h2.02V9.08h-2.02V4.7h-1.98v4.38zm31.02-4.64-1.58 1.14a38.525 38.525 0 0 1 2.72 4.26l1.64-1.14a34.189 34.189 0 0 0-2.78-4.26zm4.56 1.12a25.1 25.1 0 0 1-3.32 9.96 27.582 27.582 0 0 1-3.86-8.86l-1.78 1.02a32.031 32.031 0 0 0 4.4 9.56 15.333 15.333 0 0 1-5.42 4.12l1.14 1.8a17.069 17.069 0 0 0 5.64-4.2 18.987 18.987 0 0 0 5.18 4.2l1.24-1.82a16.922 16.922 0 0 1-5.16-4.04 26.524 26.524 0 0 0 3.92-11.32zm-12.7-.84-1.46 1.38a18.164 18.164 0 0 1 3.2 2.98l1.44-1.46a27.082 27.082 0 0 0-3.18-2.9zm-2.84 5.76v2h2.76v6.92a1.292 1.292 0 0 1-.56 1.06l.8 1.9a30.965 30.965 0 0 0 3.9-3.16l-.58-2.2-1.58 1.52v-8.04zm22.12 2.68v9.94h2.06V9.92a26.229 26.229 0 0 0 1.88-4.58l-1.88-.88a24.263 24.263 0 0 1-4.28 8.56l.64 2.08c.56-.64 1.08-1.28 1.58-1.94zm3.38-5.46v2h3.38a20.077 20.077 0 0 1-4.4 8.32l1.08 1.8a23.185 23.185 0 0 0 4.88-9.74v7.12h-2.68v2h2.68v3.9h2.06v-3.9h2.76v-2h-2.76v-7.14a25.962 25.962 0 0 0 4.66 9.52l1.36-1.72a21.228 21.228 0 0 1-4.48-8.16h3.68v-2h-5.22V4.54h-2.06V7.7zm23.9-3.1a17.731 17.731 0 0 1-2.4 6.84l1.36 1.76a18.076 18.076 0 0 0 2-3.98h5.54q-.06 8.91-.24 10.38c-.14.98-.64 1.48-1.52 1.48-.66 0-1.44-.04-2.34-.1l.48 1.86c1.04.06 1.76.1 2.2.1 1.82 0 2.84-.84 3.08-2.48.2-1.68.3-6.06.3-13.18h-6.9c.2-.78.36-1.58.5-2.42zm-1.42 14.36c1.9-.4 3.6-.8 5.08-1.24.16.52.3 1.08.46 1.66l1.82-.84a36.386 36.386 0 0 0-1.76-4.92l-1.72.6c.24.6.48 1.26.72 1.96-.74.16-1.54.34-2.42.54q.84-1.68 2.16-5.1l-1.84-.68c-1.38 3.88-2.34 5.98-2.88 6.28zm-2.98-5.38c.42.62.9 1.36 1.44 2.24l1.2-1.78c-.88-1.04-1.76-1.98-2.64-2.86v-.9H174V8.26h-2.22V4.58h-2.06v3.68h-2.66v2.02h2.52a17.043 17.043 0 0 1-2.92 6.02l.9 2.32a26.6 26.6 0 0 0 2.16-4.56v8.96h2.06zm29.4-9.18-1.32 1.26a14.125 14.125 0 0 1 1.92 1.76h-2.82c-.04-.92-.06-1.88-.06-2.9h-2.12c0 1 0 1.98.04 2.9h-8.24v6.66a13.86 13.86 0 0 1-1.94 7.6l1.58 1.42a16.437 16.437 0 0 0 2.46-8.96h2.82a24.813 24.813 0 0 1-.22 3.76c-.1.4-.32.6-.64.62-.56 0-1.22-.04-2.02-.1l.64 1.9c.6.06 1.14.1 1.62.1a2.039 2.039 0 0 0 2.1-1.28q.51-1.38.6-6.96h-4.9V9.4h6.24a31.219 31.219 0 0 0 .88 6.02 20.351 20.351 0 0 0 .74 2.28 13.044 13.044 0 0 1-4.8 3.66l1.2 1.76a13.593 13.593 0 0 0 4.56-3.3 8.939 8.939 0 0 0 .8 1.2c.98 1.18 1.9 1.78 2.78 1.78 1 0 1.74-1.42 2.26-4.24l-1.88-1.02c-.26 1.92-.5 2.88-.7 2.88-.3 0-.74-.44-1.3-1.3a7.418 7.418 0 0 1-.58-1.06 23.722 23.722 0 0 0 3-6.48l-1.9-.82a22.067 22.067 0 0 1-1.98 4.82c-.08-.28-.16-.54-.22-.82a31.62 31.62 0 0 1-.72-5.36h5.88V7.42h-2.38l.92-.94a16.943 16.943 0 0 0-2.3-2.08z" transform="translate(18 53)"/>
    </g>
    <g id="fc_diamond_link" transform="translate(399 280)">
        <g transform="translate(-399 -280)" style="filter:url(#다각형_3)">
            <g id="다각형_3-2" data-name="다각형 3" style="fill:#fff">
                <path class="cls-11" d="M269 258.89 2.298 130 269 1.11 535.702 130 269 258.89z" transform="translate(399 280)"/>
                <path d="M269 2.221 4.596 130 269 257.779 533.404 130 269 2.221M269 0l269 130-269 130L0 130 269 0z" style="fill:#999;stroke:none" transform="translate(399 280)"/>
            </g>
        </g>
        <g id="fc_textlink" transform="translate(386 141)">
            <g id="stack" transform="translate(-2524.094 20210)">
                <g id="ico_fc_pdf" transform="translate(2457.294 -20210)">
                    <g id="그룹_1025" data-name="그룹 1025" transform="translate(-1101.5 -1126.5)">
                        <path id="패스_6892" data-name="패스 6892" class="cls-7" d="M1108.592 1130.5h7.714l4.286 4.286v7.714h-12z" transform="translate(-3.092)"/>
                        <path id="패스_6891" data-name="패스 6891" class="cls-7" d="M1052.728 2115.047v5h5" transform="translate(59.772 -984.547)"/>
                    </g>
                </g>
                <path id="패스_10827" data-name="패스 10827" class="cls-8" d="M-46.552-3.056a9.07 9.07 0 0 1-.176 2.064c-.1.224-.176.384-.88.384-.624 0-.88-.064-.88-.432v-4.736a20.586 20.586 0 0 0 3.072-3.264l-.9-.944A18.587 18.587 0 0 1-48.488-7.3v-5.248h-1.232V-.576c0 .928.48 1.184 2.064 1.184 1.392 0 1.728-.16 1.968-.768a9.175 9.175 0 0 0 .32-2.4zm-8.544-9.5h-1.232v2.72h-1.488v1.184h1.488v3.072l-1.7.672.352 1.248c.464-.208.912-.384 1.344-.576v3.372c0 .288-.1.416-.464.432h-.176a5.521 5.521 0 0 1-.912-.1L-57.592.7a5.822 5.822 0 0 0 .9.08c1.328 0 1.6-.448 1.6-1.44v-4.16c.512-.256 1.008-.5 1.5-.768l-.1-1.216c-.448.24-.928.464-1.408.688v-2.54h1.456V-9.84H-55.1zm5.04 10.64c-.592.272-1.232.512-1.92.768v-5.828h1.92v-1.2h-1.92v-4.384h-1.248V-.736l-1.264.352L-54.12.9c1.6-.544 2.88-1.04 4.112-1.584zm11.392-10.7a14.979 14.979 0 0 1-2.864 6.112l.9 1.1q.5-.672.96-1.392V.976h1.3V.08h6.768v-1.168h-3.248v-1.92h2.736v-1.136h-2.736V-5.92h2.736v-1.136h-2.736V-8.9h3.008v-1.136h-2.92c.256-.7.464-1.392.7-2.144l-1.28-.3a23.518 23.518 0 0 1-.752 2.448h-2.028a23.6 23.6 0 0 0 .736-2.272zm-3.2 7.184a18.06 18.06 0 0 1-2.288 4.856l1.024.96a30.09 30.09 0 0 0 2.256-4.928zm1.04-3.664a23.045 23.045 0 0 0-2.128-2.768l-1.008.832a18 18 0 0 1 2.1 2.832zm2.448 6.1h2.256v1.92h-2.256zm0-5.888h2.256v1.84h-2.256zm0 2.976h2.256v1.776h-2.256zM-18.3-4.48v-1.152h-3.072v-1.44h2.032v-.864a11.043 11.043 0 0 0 .96.752l.864-1.024a10.576 10.576 0 0 1-3.84-4.3H-22.9a9.575 9.575 0 0 1-3.472 4.5l.752 1.04a10.72 10.72 0 0 0 1.088-.864v.768h1.9v1.44h-2.8v1.144h2.8V-.9c0 .352-.08.448-.5.448a6.224 6.224 0 0 1-1.052-.108l.3 1.232a5.374 5.374 0 0 0 .984.112c1.376 0 1.536-.416 1.536-1.456V-4.48zm-7.84-7.536h-3.792V.96h1.232v-8.1l-.016-.256v-3.484h1.792a27.217 27.217 0 0 1-1.44 3.632 5.233 5.233 0 0 1 1.568 3.312.714.714 0 0 1-.752.752 2.885 2.885 0 0 1-.912-.16l.208 1.184a2.274 2.274 0 0 0 .88.208 1.624 1.624 0 0 0 1.76-1.856A5.444 5.444 0 0 0-27.08-7.36c.592-1.3 1.1-2.544 1.68-4.1zm4.1.592a10.772 10.772 0 0 0 2.4 3.216h-4.528a11.953 11.953 0 0 0 2.128-3.216zm-2.56 7.632a10.5 10.5 0 0 1-1.872 3.2l1.008.592a14.845 14.845 0 0 0 1.936-3.376zm6.832 3.008c-.32-.464-.688-.976-.992-1.52a9.813 9.813 0 0 1-.816-1.5l-1.008.5A20.957 20.957 0 0 0-18.76-.128zm7.3-9.488-2.464.016c.208-.672.352-1.376.5-2.08l-1.344-.24a16.081 16.081 0 0 1-2.608 6.7l.992.816a14.811 14.811 0 0 0 2.1-4.032h2.352a14.9 14.9 0 0 1-.848 3.3c-.624-.48-1.232-.88-1.872-1.28l-.672.992a17.773 17.773 0 0 1 1.972 1.488 12.249 12.249 0 0 1-3.92 4.448l.816 1.1A13.636 13.636 0 0 0-9.88-7.632a11.966 11.966 0 0 0 1.648 2.064V.944h1.312v-5.3A18.493 18.493 0 0 0-4.6-2.768l.688-1.216A14.267 14.267 0 0 1-6.92-6.032v-6.5h-1.312v5.136A10.686 10.686 0 0 1-9.24-8.752l-.512.48.24-1.456zm8.588-1.168a18.435 18.435 0 0 1-.784 4.88l1.088.608A17.033 17.033 0 0 0-1.032-8.4h.848v3.232c-.832.336-1.648.64-2.368.88l.368 1.28c.64-.24 1.328-.528 2-.832V.992h1.232V-4.4a22.208 22.208 0 0 0 1.6-.752L2.616-6.3A16.213 16.213 0 0 0 3.88-8.992h.7A11.521 11.521 0 0 1 1.544-2.8l.848.88A14.242 14.242 0 0 0 5.8-8.992h.912C6.328-5.856 5.048-2.256 2.488-.1l.848.928c2.88-2.64 4.08-6.368 4.576-9.824h.5a41.48 41.48 0 0 1-.64 8.016c-.128.416-.288.512-.848.512h-.132A7.454 7.454 0 0 1 5.368-.64l.24 1.3A8.769 8.769 0 0 0 7.032.8c1.136 0 1.68-.336 1.9-1.344a55.331 55.331 0 0 0 .7-9.632H4.264c.224-.72.4-1.456.56-2.16l-1.184-.24a17.844 17.844 0 0 1-1.1 3.824v-.8H1.048v-3.024H-.184v3.024h-.688c.064-.624.112-1.2.144-1.744zm3.52 4.384.9.7-1.488.688V-8.4h1.324a11.775 11.775 0 0 1-.736 1.344zM-58.6 3h69.2v1h-69.2zM14.248-8.224h4.784c-.08.384-.16.768-.256 1.168h-3.3v5.6h1.456v-4.192H22.9v4.176h1.46v-5.584h-4.048c.1-.384.176-.768.272-1.168h5.136v-1.408h-4.9c.048-.352.1-.7.128-1.072l-1.52-.192c-.048.416-.1.832-.16 1.264h-5.02v-1.184a71.475 71.475 0 0 0 10.768-.928l-.752-1.36A67.4 67.4 0 0 1 12.792-12.1v5.088a16.153 16.153 0 0 1-1.68 7.46l1.056 1.12a17.035 17.035 0 0 0 2.08-8.576zm6.7 6.272-.764 1.136A22.572 22.572 0 0 1 24.9 1.648l.836-1.312a24.5 24.5 0 0 0-4.784-2.288zm-1.44-3.184a5.525 5.525 0 0 1-1.584 3.52A9.208 9.208 0 0 1 13.816.272l.816 1.408A10.218 10.218 0 0 0 19.224-.7a6.926 6.926 0 0 0 1.76-4.336zm16.948-3.792v2h-3.088V-5.5h3.088v2.08h-3.968v1.44h3.968v3.644h1.52v-3.648h3.984v-1.44h-3.984V-5.5h3.088v-1.428h-3.088v-2h3.568v-1.424h-2.1a15.133 15.133 0 0 0 1.156-2.336l-1.44-.5a25.132 25.132 0 0 1-1.216 2.832h-2.4l.912-.464a26.248 26.248 0 0 0-1.44-2.32l-1.264.608a18.258 18.258 0 0 1 1.392 2.176h-2.256v1.424zm-7.088-4.032-1.056.992a16.617 16.617 0 0 1 2.624 2.384l1.024-1.04a17.948 17.948 0 0 0-2.592-2.336zm-2.16 4.608V-6.9h2.144v5.872a1.159 1.159 0 0 1-.4.864l.56 1.328a23.439 23.439 0 0 0 2.72-2.64l-.384-1.52c-.352.416-.7.8-1.024 1.152v-6.508zM50.792-2.88h4.736v.848h-4.736zm4.736-1.152h-4.736v-.912h4.736zM50.792-.88h4.736v.624A.478.478 0 0 1 55 .288l-1.136-.08.368 1.328h1.2c1.024 0 1.536-.5 1.536-1.472v-6.24h-7.6v7.792h1.424zm1.648-12.24v.928h-3.632v1.232h3.632v.816h-3.088v1.216h3.088v.784h-4a19.031 19.031 0 0 0-.8-2.24l-.992.336v-3.024h-1.472V1.584h1.472V-9.872a21.411 21.411 0 0 1 .864 2.7l.816-.192v.464h9.664v-1.244h-4.048v-.784h3.04v-1.216h-3.04v-.816h3.584v-1.232h-3.584v-.928zm-8.848 3.136a22.168 22.168 0 0 1-.512 4.32l1.136.32a23.116 23.116 0 0 0 .528-4.56zM10.6 3h48v1h-48z" transform="translate(2394.694 -20194)"/>
            </g>
        </g>
        <path id="패스_10826" data-name="패스 10826" d="M40.988 26.32V17.1h-4.92v-2.9h6v-2.208h-6V8.8a48.012 48.012 0 0 0 5.5-1.128L40.2 5.728a53.547 53.547 0 0 1-12.1 1.536l.768 2.256a69.563 69.563 0 0 0 4.776-.384v2.856h-5.808V14.2h5.808v2.9h-4.68v9.528h2.376v-1.172h7.248v.864zm-9.648-7.032h7.248v3.984H31.34zm-5.616-1.752a35.02 35.02 0 0 1-3.1 7.416l2.04 1.7a66.9 66.9 0 0 0 3.072-7.824zm1.968-3.36a31.813 31.813 0 0 0-3.792-2.832L22.412 13.1a33.627 33.627 0 0 1 3.648 3.048zm.744-5.568a22.43 22.43 0 0 0-3.672-2.832L23.18 7.48a19.645 19.645 0 0 1 3.552 3zM52.2 6.832a25.691 25.691 0 0 1-.84 5.544 29.212 29.212 0 0 0-1.128-3.168l-1.416.7v-4.18h-2.428v20.856h2.424V10.408a22.776 22.776 0 0 1 .984 3.6l1.176-.576a13.777 13.777 0 0 1-.792 1.7l2.136 1.176a19.583 19.583 0 0 0 1.416-3.84h1.92v4.252h-3.96v2.256h3.96v4.7h-5.208v2.232h12.312V23.68h-4.632v-4.7h3.912v-2.26h-3.912v-4.248h4.056v-2.256h-4.056V5.728h-2.472v4.488h-1.44c.168-.984.288-1.992.408-3.048zm-8.256 3.24a23.421 23.421 0 0 1-.744 6.1l1.92.888a28.53 28.53 0 0 0 .816-6.552zm21.336-2.64a39.039 39.039 0 0 1-1.056 7.536l2.016 1.056a27.65 27.65 0 0 0 .744-3.672h1.008v4.488c-1.248.48-2.472.912-3.576 1.32l.648 2.472c.96-.384 1.968-.84 2.928-1.248v7.224h2.348V18.28c.768-.36 1.488-.744 2.088-1.032l-.1-2.3.264.192a20.834 20.834 0 0 0 1.872-3.528h.648a17.777 17.777 0 0 1-4.632 9.072l1.56 1.608a22.293 22.293 0 0 0 5.328-10.68H78.4c-.648 4.536-2.688 9.648-6.528 13.008l1.584 1.7c4.272-4.008 6.264-9.12 7.152-14.712H81c-.12 4.9-.408 9.84-.96 11.664-.12.48-.288.7-.96.7h-.24a12.78 12.78 0 0 1-2.28-.264l.48 2.472a14.474 14.474 0 0 0 2.184.168c1.824.024 2.664-.576 3-2.232.624-2.736.984-7.752 1.056-14.784h-7.996a29.083 29.083 0 0 0 .888-3.192l-2.256-.48a26.485 26.485 0 0 1-1.776 5.736V10.12h-1.8V5.728h-2.352v4.392h-.744c.072-.84.1-1.656.144-2.4zm5.52 6.312 1.488 1.176-1.944.888v-3.456h1.3c-.244.456-.536.912-.844 1.392zm18.936-.984h6.936l-.36 1.56H91.34v8.448h2.424v-6.144h8.712v6.144h2.424V14.32h-6.048l.36-1.56h7.656v-2.3H99.6c.072-.48.144-.984.192-1.464l-2.5-.312-.216 1.776h-7.344V8.9a105.932 105.932 0 0 0 16.08-1.4l-1.224-2.232a98.979 98.979 0 0 1-17.28 1.536v7.68q-.18 7.092-2.448 11.088l1.752 1.828q2.952-4.824 3.12-12.912zm9.984 9.216-1.248 1.872a32.323 32.323 0 0 1 7.028 3.672l1.392-2.184a36.606 36.606 0 0 0-7.176-3.36zm-2.3-4.656a8.064 8.064 0 0 1-2.352 5.16 13.971 13.971 0 0 1-6.144 2.784l1.344 2.3a15.531 15.531 0 0 0 6.932-3.572 10.389 10.389 0 0 0 2.64-6.5zm15.256-11.328v8.76H127.7v-8.76zm12.552 6.648h-10.056v-1.3h10.056zm-10.056-3.264V8.1h10.056v1.276zm3.984 8.9v6.168q-.432-.108-.792-.216a6.1 6.1 0 0 1-3.144-2.688 21.21 21.21 0 0 0 .768-2.376l-2.376-.408a12.31 12.31 0 0 1-4.368 6.672l1.632 2.088a13.68 13.68 0 0 0 3.432-4.032 7.194 7.194 0 0 0 3.072 2.76c1.488.576 4.2.888 8.184.912 1.344.024 2.856.048 4.536.048l.7-2.352c-1.464.048-3.264.1-5.4.1-1.392 0-2.64-.048-3.72-.144V22.5h6.62v-2.2h-6.624v-2.02h9.192v-2.256h-21.432v2.256zm15.216-12.14v2.448h9.1q-3.276 3.456-10.3 5.976l1.584 2.064a33.94 33.94 0 0 0 8.136-4.488v5.448h2.5V9.832c.36-.408.7-.816 1.032-1.248h7.608V6.136zm18 12.024h-16.416v9.264h2.544v-1.08h11.328v1.08h2.544zM138.5 23.944V20.56h11.328v3.384zm9.456-13.8-1.68 1.632a39.687 39.687 0 0 1 6.84 4.944l1.824-1.82a48.833 48.833 0 0 0-6.984-4.756zm12.936-4.32L159 7.192a34.2 34.2 0 0 1 3.144 3.7l1.968-1.344a29.837 29.837 0 0 0-3.22-3.724zM169.58 15.9l-2.016 1.272a42.772 42.772 0 0 1 3.576 4.968l2.208-1.536a40.592 40.592 0 0 0-3.768-4.704zm-3.96-10.628V8.9c-.024.7-.072 1.392-.12 2.088h-7.44v2.448h7.176a23.215 23.215 0 0 1-1.488 5.64c-1.128 2.448-3.288 4.488-6.5 6.12l1.416 2.232a14.27 14.27 0 0 0 6.984-6.456 24.235 24.235 0 0 0 2.112-7.536h7.44c0 2.832-.072 5.472-.216 7.872s-.72 3.648-1.7 3.744a35.639 35.639 0 0 1-3.72-.24l.672 2.424a29.362 29.362 0 0 0 3.168.144c1.632 0 2.784-.984 3.432-2.9.624-1.92.936-6.432.936-13.488H168c.048-.672.072-1.368.1-2.088V5.272zM188.3 15.52c-.648.264-1.3.528-1.944.768v-4.416h2.112V9.448h-2.112V5.3h-2.448v4.148h-2.424v2.424h2.424v5.184c-.912.24-1.824.432-2.736.6l.6 2.4c.72-.192 1.416-.384 2.136-.6v4.752c0 .576-.288.864-.816.864a10.5 10.5 0 0 1-1.7-.168l.528 2.448h2.04a2.174 2.174 0 0 0 2.4-2.5V18.64c.648-.24 1.3-.5 1.944-.768zm3.312-.912h2.952V12.16h-2.952V5.416h-2.472v18.1a1.381 1.381 0 0 1-1.056 1.44l.624 2.328a41.127 41.127 0 0 0 6.048-1.848l-.456-2.3a19.572 19.572 0 0 1-2.688 1.008zm8.352 12.648a2.572 2.572 0 0 0 2.04-.768c.48-.528.816-2.208 1.008-5.016l-2.28-.72a12.672 12.672 0 0 1-.408 3.576.9.9 0 0 1-.816.552h-.936q-.72 0-.72-.792v-9.6a33.73 33.73 0 0 0 5.04-2.184l-1.44-2.064a20.891 20.891 0 0 1-3.6 1.776V5.368h-2.472V24.64c0 1.728.792 2.616 2.424 2.616zm7.344-21.384-2.16 1.344a43.854 43.854 0 0 1 3.576 5.76l2.088-1.44a45.578 45.578 0 0 0-3.504-5.664zm1.272 10.584a99.946 99.946 0 0 1-3.384 9.888l2.376 1.056c1.2-3.12 2.3-6.48 3.288-10.032zm6.72-.1h4.2v2.5h-4.2zm0 4.776h4.2V23.9h-4.2zm0 5.088h11.808V23.9h-5.184v-2.76h4.224v-2.28h-4.224v-2.5h4.176v-2.3h-4.176v-2.572h4.68V9.136h-4.368a55.49 55.49 0 0 0-1.224-4.056l-2.424.672a35.256 35.256 0 0 1 1.272 3.384h-4.2a32.9 32.9 0 0 0 1.128-3.384l-2.376-.48a26.245 26.245 0 0 1-4.176 9.024l.816 2.592q.936-1.188 1.8-2.448v13.08h2.448zm4.2-14.736v2.568h-4.2v-2.564zm20.04-1.776v2.424h6.648V23.92q0 1.224-1.368 1.224c-1.032 0-2.112-.072-3.264-.168l.552 2.448h3.576q3.024 0 3.024-2.88V12.136h2.4V9.712h-2.4V5.248h-2.52v4.464zm-8.184 1.752-1.7 1.608c1.632 1.824 3.1 3.576 4.392 5.3a18.727 18.727 0 0 1-5.016 5.52l1.44 2.16a25.006 25.006 0 0 0 5.016-5.64 39.67 39.67 0 0 1 1.92 3.048l1.872-1.872a52.329 52.329 0 0 0-2.5-3.576 21.406 21.406 0 0 0 1.848-8.736V7.456h-8.52V9.88h6.336a19.951 19.951 0 0 1-1.248 6.072 88.99 88.99 0 0 0-3.84-4.488zm9.936 2.928-1.92 1.392a37.612 37.612 0 0 1 3.5 5.088l1.968-1.392a38.68 38.68 0 0 0-3.548-5.084zm14.592-3.024v4.396h4.368a19.17 19.17 0 0 1-6.312 1.848l.96 2.088a18.942 18.942 0 0 0 7.728-2.76c.288.24.576.528.864.816a31.429 31.429 0 0 1-9.384 3.432l1.224 2.112a30.384 30.384 0 0 0 9.312-4.032 5.4 5.4 0 0 1 .5.984 34.594 34.594 0 0 1-11.28 4.584l1.272 2.136a35.652 35.652 0 0 0 10.536-4.488c0 .1.024.24.024.384a2.476 2.476 0 0 1-.576 1.92 3.066 3.066 0 0 1-1.632.528c-.576.024-1.32.048-2.208.048l.768 2.28q.936 0 1.728-.072a6.192 6.192 0 0 0 3.384-1.08c.72-.672 1.08-1.9 1.08-3.624a9.5 9.5 0 0 0-.408-2.28 3.835 3.835 0 0 1 .624-.192 17.635 17.635 0 0 0 5.376 6.192l1.7-2.16a12.577 12.577 0 0 1-4.92-4.776 24.994 24.994 0 0 0 3.6-1.728l-1.656-1.9a21.572 21.572 0 0 1-5.64 2.544 12 12 0 0 0-2.352-2.808h9.036V9.9h-5.62a26.104 26.104 0 0 0 1.752-1.608V6.688h-7.224c.336-.336.672-.7 1.008-1.032l-2.64-.6a22.314 22.314 0 0 1-7.68 4.92l1.56 1.92c.384-.196.744-.36 1.128-.528zm8.952-1.464h-6.384c.624-.408 1.224-.84 1.824-1.3h6.264c-.576.488-1.152.92-1.704 1.3zm6.288 3.792h-5.544a9.279 9.279 0 0 0 .7-1.728h4.848zm-8.328 0h-4.44v-1.724h5.376a6.749 6.749 0 0 1-.932 1.732z" transform="translate(120 98)" style="fill:#111"/>
    </g>
    <g id="fc_start_end" transform="translate(114 2180)">
        <g transform="translate(-114 -2180)" style="filter:url(#area)">
            <g id="area-3" data-name="area" class="cls-4" transform="translate(114 2180)">
                <rect class="cls-11" width="1108" height="130" rx="65"/>
                <rect class="cls-12" x="1" y="1" width="1106" height="128" rx="64"/>
            </g>
        </g>
        <path id="패스_10842" data-name="패스 10842" class="cls-3" d="M452.408 20.128v.312a12.212 12.212 0 0 1-.24 2.64c-.12.312-.192.576-1.056.576-.768 0-1.032-.12-1.032-.552V16.12a34.443 34.443 0 0 0 4.584-4.8l-1.68-1.872a27.739 27.739 0 0 1-2.9 3.672V5.776h-2.328v18.288c0 1.44.792 1.92 3.288 1.92 2.064 0 2.712-.264 3.12-1.368a12.8 12.8 0 0 0 .528-3.5zM439.832 5.752h-2.352v4.056h-2.16v2.3h2.16v4.252c-.888.336-1.7.648-2.448.912l.624 2.4c.624-.24 1.224-.48 1.824-.744v4.416c0 .456-.144.624-.744.624h-.216a8.663 8.663 0 0 1-1.3-.144l.5 2.4c.576.048.864.1 1.416.1 2.232 0 2.688-.888 2.688-2.544v-5.932c.72-.336 1.44-.7 2.16-1.056l-.192-2.4c-.6.336-1.272.648-1.968.984v-3.264h2.016v-2.3h-2.016zm7.488 15.96c-.768.336-1.656.672-2.568 1.008v-8.16h2.592v-2.352h-2.592V5.752h-2.376v17.712c-.648.192-1.32.384-1.992.552l.7 2.472a56.58 56.58 0 0 0 6.312-2.424zm16.92-16.128c-.888 3.7-2.064 6.936-4.416 9.648l1.728 2.112c.408-.528.792-1.128 1.2-1.68v10.944h2.472v-1.344h10.152v-2.232h-4.7v-2.376h3.936v-2.208h-3.936v-2.16h3.936V14.1h-3.936v-2.3h4.32V9.544h-4.08c.384-1.008.744-1.992 1.128-3.1l-2.472-.6c-.36 1.272-.768 2.5-1.224 3.7H465.7a28.653 28.653 0 0 0 1.008-3.432zM459.3 16.7a26.827 26.827 0 0 1-3.48 7.3l1.944 1.8a46.226 46.226 0 0 0 3.432-7.344zm2.112-5.616a31.3 31.3 0 0 0-3.36-4.224l-1.972 1.58a29.336 29.336 0 0 1 3.312 4.3zm3.816 9.576h2.972v2.376h-2.976zm0-8.856h2.972v2.3h-2.976zm0 4.488h2.972v2.16h-2.976zM487.736 5.7h-2.568v1.492h-7.848V9.16h7.848v.96H479v4.248h6.168v.912H478.4v1.8h6.768v.936h-8.424v1.824h8.424v.912h-6.84V22.6h6.84v.912c0 .408-.144.552-.96.552a12.869 12.869 0 0 1-2.4-.216l.576 2.28a24.012 24.012 0 0 0 2.448.144c2.016 0 2.9-.552 2.9-2.472v-1.2h6.384v-2.76h1.9v-1.824h-1.9V15.28h-6.384v-.912h6.12V10.12h-6.12v-.96h7.656V7.192h-7.656zm-6.336 5.9h3.768v1.1H481.4zm10.08 0v1.1h-3.744v-1.1zm.216 5.472v.936h-3.96v-.928zm-3.96 3.672v-.904h3.96v.912zM513.944 5.9a47.955 47.955 0 0 1-14.184 1.748v6.072c0 4.848-.432 7.776-2.28 10.752l1.632 2.28c2.5-3.816 3.12-7.272 3.168-12.5h14.52v-2.26h-14.52V9.808a75.417 75.417 0 0 0 13.392-1.776zm1.156 20.348v-9.672h-11.692v9.816h2.544v-1.536h6.6v1.392zm-9.144-7.368h6.6v3.672h-6.6zm19.412-13.488-2.3 1.1a28.834 28.834 0 0 1 2.4 3.5h-4.992v2.448h7.776v.576a20.62 20.62 0 0 1-.36 3.12H519.1v2.448h8.064a11.473 11.473 0 0 1-1.056 2.016c-1.3 1.8-3.768 3.312-7.464 4.512l1.368 2.184q5.544-1.728 7.992-4.968a15.136 15.136 0 0 0 1.512-2.76q2.124 4.932 9.528 7.968l1.488-2.376c-4.752-1.632-7.728-3.816-8.88-6.576h8.28v-2.44h-9.48a24.355 24.355 0 0 0 .336-3.12v-.576h7.752V10h-4.44a21.538 21.538 0 0 0 1.9-4.1l-2.448-.672A23.252 23.252 0 0 1 531.3 10h-4.728l1.392-.7a46.084 46.084 0 0 0-2.596-3.908zM552.7 27.424A2.118 2.118 0 0 0 555.056 25v-5.9c1.824-.144 3.5-.288 5.04-.456.528.792 1.032 1.56 1.464 2.328l1.992-1.368a47.848 47.848 0 0 0-4.584-6.12l-1.848 1.152c.528.672 1.056 1.344 1.56 2.016-2.352.288-5.112.528-8.232.744a67.916 67.916 0 0 0 9.7-7.176l-2.3-1.128a89.43 89.43 0 0 1-3.048 2.664c-1.584.12-3.192.24-4.776.336a20.947 20.947 0 0 0 3.648-3.408 69.182 69.182 0 0 0 9.1-1.152l-1.236-2.092a97.849 97.849 0 0 1-17.5 1.344l.72 2.16c2.016 0 3.936-.048 5.808-.1a11.538 11.538 0 0 1-3.12 2.688 5.613 5.613 0 0 1-1.68.456l.5 2.184c2.064-.12 4.056-.24 5.928-.384a29.875 29.875 0 0 1-5.52 3.264 8.394 8.394 0 0 1-2.16.456l.7 2.184c2.64-.12 5.064-.264 7.32-.408v5.088c0 .5-.24.768-.7.768a21.71 21.71 0 0 1-2.448-.168l.576 2.448zm5.568-7.32-1.656 1.608a35.494 35.494 0 0 1 5.832 5.3l1.776-1.776a43.984 43.984 0 0 0-5.948-5.136zm-9.768.168a23.44 23.44 0 0 1-5.8 4.608l1.56 2.04a23.161 23.161 0 0 0 6-5.088zm21.72-6.336h3.144v3.312h-3.144zm3.144-2.232h-3.144v-3.36h3.144zm-3.192 7.8h3.192v4.56c0 .84-.24 1.272-.72 1.272-.576 0-1.176-.048-1.824-.1l.6 2.184h1.92c1.536 0 2.3-.864 2.3-2.544V6.088h-7.656v11.9a19 19 0 0 1-1.464 7.848l1.9 1.728a22.549 22.549 0 0 0 1.756-8.064zm9.288-2.376h.192a15.222 15.222 0 0 0 2.784 5.9 12.21 12.21 0 0 1-2.976 2.4zm0 8.5 1.2 1.872a12.724 12.724 0 0 0 3.408-2.64 19.157 19.157 0 0 0 3.456 2.616l1.224-2.136a17.836 17.836 0 0 1-3.264-2.448 17.693 17.693 0 0 0 2.064-5.88V14.92h-8.088V8.344h5.472a14 14 0 0 1-.264 2.832.924.924 0 0 1-.552.6 5.156 5.156 0 0 1-1.08.1c-.648 0-1.176-.024-1.56-.024l.672 2.136h2.016c1.536 0 2.472-.528 2.76-1.536a29.154 29.154 0 0 0 .456-6.36h-10.268V27.52h2.352zm2.328-8.5h3.552a15.618 15.618 0 0 1-1.512 3.936 12.547 12.547 0 0 1-2.036-3.936zm15.556-11.952a12.336 12.336 0 0 1-5.616 5.832L593.24 13a25.821 25.821 0 0 0 2.568-1.824 27.006 27.006 0 0 0 2.952 2.088 39.661 39.661 0 0 1-8.352 1.9l1.152 2.352a38.726 38.726 0 0 0 9.96-2.784 32.29 32.29 0 0 0 10.032 2.712l1.128-2.328a33.987 33.987 0 0 1-8.4-1.8 20.034 20.034 0 0 0 5.064-4.176V7.12h-10.2c.264-.48.5-1.008.744-1.56zm4.152 6.936a22.2 22.2 0 0 1-4.032-2.592l.048-.048h8.112a21.674 21.674 0 0 1-4.124 2.64zm-1.824 3.988a14.416 14.416 0 0 1-.24 2.328h-7.344v2.252h6.576c-.144.24-.288.5-.456.768-1.176 1.608-3.72 2.976-7.608 4.1l1.656 2.04c4.464-1.44 7.272-3.216 8.424-5.352a8.407 8.407 0 0 0 .72-1.56h6.288a8.9 8.9 0 0 1-.552 3.7c-.288.456-.984.7-2.112.72-.816-.024-1.848-.072-3.12-.144l.624 2.256c1.2.1 2.208.144 3.048.144a4.288 4.288 0 0 0 3.524-1.272c.672-.84 1.032-3.384 1.08-7.656h-8.208a17.692 17.692 0 0 0 .168-2.328z" transform="translate(30 50)"/>
    </g>
    <path id="세로" class="cls-10" transform="translate(668 539)" d="M0 0h1v50H0z"/>
    <path id="세로-2" data-name="세로" class="cls-10" transform="translate(289 690)" d="M0 0h1v50H0z"/>
    <path id="세로-3" data-name="세로" class="cls-10" transform="translate(289 870)" d="M0 0h1v410H0z"/>
    <path id="세로-4" data-name="세로" class="cls-10" transform="translate(668 690)" d="M0 0h1v50H0z"/>
    <path id="세로-5" data-name="세로" class="cls-10" transform="translate(668 870)" d="M0 0h1v50H0z"/>
    <path id="세로-6" data-name="세로" class="cls-10" transform="translate(668 1050)" d="M0 0h1v50H0z"/>
    <path id="세로-7" data-name="세로" class="cls-10" transform="translate(668 1230)" d="M0 0h1v50H0z"/>
    <path id="세로-8" data-name="세로" class="cls-10" transform="translate(668 229)" d="M0 0h1v50H0z"/>
    <g id="fc_start_end-2" data-name="fc_start_end" transform="translate(114 100)">
        <g transform="translate(-114 -100)" style="filter:url(#area-2)">
            <g id="area-4" data-name="area" class="cls-4" transform="translate(114 100)">
                <rect class="cls-11" width="1108" height="130" rx="65"/>
                <rect class="cls-12" x="1" y="1" width="1106" height="128" rx="64"/>
            </g>
        </g>
        <path id="패스_10825" data-name="패스 10825" class="cls-3" d="m309.363 5.824-1.9 1.368a34.191 34.191 0 0 1 3.144 3.7l1.968-1.344a29.834 29.834 0 0 0-3.212-3.724zm8.688 10.08-2.016 1.272a42.775 42.775 0 0 1 3.576 4.968l2.208-1.536a40.594 40.594 0 0 0-3.768-4.708zm-3.96-10.632V8.9c-.024.7-.072 1.392-.12 2.088h-7.44v2.448h7.176a23.215 23.215 0 0 1-1.488 5.64c-1.128 2.448-3.288 4.488-6.5 6.12l1.416 2.232a14.27 14.27 0 0 0 6.984-6.456 24.234 24.234 0 0 0 2.112-7.536h7.44c0 2.832-.072 5.472-.216 7.872s-.72 3.648-1.7 3.744a35.639 35.639 0 0 1-3.72-.24l.672 2.424a29.362 29.362 0 0 0 3.168.144c1.632 0 2.784-.984 3.432-2.9.624-1.92.936-6.432.936-13.488h-9.768c.048-.672.072-1.368.1-2.088V5.272zm20.064 8.88h5.28v3.456h-5.28zm-.12 5.76h5.4v6.768h2.544v-6.768h5.712v3.336c0 .912-.384 1.392-1.1 1.392-.816 0-1.68-.048-2.64-.144l.672 2.448h2.76c1.9 0 2.856-.936 2.856-2.784V6.04h-18.6v11.88a13.467 13.467 0 0 1-2.184 7.7l1.92 1.728a14.842 14.842 0 0 0 2.66-7.436zm13.656-2.3h-5.712v-3.46h5.712zm0-5.76h-5.712V8.488h5.712zm-8.256-3.36v3.36h-5.28V8.488zm15.96-2.448v2.444h8.16v5.568h-9.648v2.5h9.648v7.416c0 .648-.36.984-1.08.984-1.1 0-2.28-.048-3.5-.144l.528 2.424h3.84c1.824 0 2.736-.888 2.736-2.616v-8.068h9.24v-2.5h-9.24V8.488h7.584V6.04zm27.288 5.808h5.088v4.7H381v2.424h6.768v5.232H378.1v2.5h21.36v-2.5h-9.17v-5.232h7.152v-2.424h-7.152v-4.7h7.61V9.424h-7.61V5.488h-2.52v3.936h-4.176c.288-.912.528-1.9.744-2.928l-2.568-.48a17.676 17.676 0 0 1-4.344 9.1l1.656 2.088a17.191 17.191 0 0 0 3.6-5.356zM412.3 5.224a18.042 18.042 0 0 1-3.168 8.088l1.824 1.56a14.477 14.477 0 0 0 2.088-3.576h1.008c-.888 4.248-2.5 7.344-4.8 9.312l1.608 1.872c2.616-2.352 4.416-6.1 5.424-11.184h1.2a33.567 33.567 0 0 1-1.944 8.088 17.663 17.663 0 0 1-4.416 5.952l1.56 1.992a20.6 20.6 0 0 0 4.92-6.864 38.794 38.794 0 0 0 2.112-9.168h.864c-.048 6.792-.12 10.752-.264 11.88a2.049 2.049 0 0 1-2.208 1.992c-.576 0-1.224-.048-1.992-.12l.576 2.232c.864.072 1.488.12 1.824.12q3.672 0 4.1-3.1.36-2.88.36-15.408h-9.072c.264-.96.5-1.968.744-3.048zm-8.064 7.224h1.32v5.736a32.522 32.522 0 0 1-3.912 1.056l.6 2.424a71.374 71.374 0 0 0 3.312-1.1V27.5H408v-7.92c.5-.24 1.008-.456 1.536-.7v-2.352c-.528.24-1.032.48-1.536.72v-4.8h1.632v-2.4H408V5.32h-2.448v4.728h-1.032c.072-.912.12-1.824.168-2.736l-2.232-.168a37.093 37.093 0 0 1-1.1 7.968l2.208.624c.263-1.056.479-2.16.67-3.288zm21.744 3.792v2.448h9.408v5.52a.711.711 0 0 1-.816.768 26.256 26.256 0 0 1-2.688-.144l.552 2.424h3a2.174 2.174 0 0 0 2.5-2.4v-6.168h9.288V16.24h-9.288v-2.28h-2.544v2.28zm16.416-10.9a39.429 39.429 0 0 1-5.016 3.432 109.936 109.936 0 0 0-8.064-2.976l-1.32 1.968c2.232.7 4.464 1.488 6.7 2.4a42.368 42.368 0 0 1-8.208 2.784l1.3 2.136a81.2 81.2 0 0 0 9.6-3.768 91.542 91.542 0 0 1 7.656 3.864l1.344-2.088a94.366 94.366 0 0 0-6.432-3.192 40.447 40.447 0 0 0 4.56-3.264zm-11.4 13.92a23.258 23.258 0 0 1-5.112 5.52l1.488 1.968a26.278 26.278 0 0 0 5.4-5.9zm10.8.072-1.656 1.56a32.42 32.42 0 0 1 5.4 5.832l1.7-1.728a44.012 44.012 0 0 0-5.446-5.66zm8.88-12.672v2.428h19.848V6.664zm3.552 5.064a23.481 23.481 0 0 1-3.336 5.832l2.04 1.44a26.9 26.9 0 0 0 3.48-6.216zm13.7-.1a24.629 24.629 0 0 1-2.976 5.664l2.04 1.44a26.433 26.433 0 0 0 3.1-6.048zm-8.47-1.524v4.056q-.54 6.408-10.08 11.064l1.7 2.208q7.7-4.032 9.72-9.5c1.632 3.984 4.728 7.152 9.336 9.5l1.7-2.208c-5.808-2.832-9.1-6.5-9.84-11.064V10.1zm25.56-5.088-2.64.432a16.935 16.935 0 0 1 1.008 2.088h-8.328V9.9h4.224l.792 2.928h-4.824v5.544a13.181 13.181 0 0 1-1.92 7.368l1.9 1.7c1.632-2.28 2.472-5.3 2.568-9.072v-3.12h16.944v-2.416h-5.424a20.779 20.779 0 0 0 .932-2.932h3.984V7.528h-8.28a21.512 21.512 0 0 0-.936-2.52zm-2.472 7.824-.791-2.936h6.1a18.16 18.16 0 0 1-.96 2.928zm19.177-6.796v8.568h13.8V6.04zM513 12.256h-8.76V8.392H513zm-5.472 3.936h-9.048v10.944h2.448v-1.128h4.176v1.128h2.424zm-6.6 7.488v-5.136h4.176v5.136zm17.808-7.488H509.4v10.944h2.448v-1.128h4.392v1.128h2.5zm-6.886 7.488v-5.136h4.392v5.136zm9.936-17.064V9.04h9.024a13.579 13.579 0 0 1-.864 2.64h-6.672v15.648h2.544V14.1h2.88v12.48h2.424V14.1h2.978v12.48h2.424V14.1h3.168v9.8c0 .672-.264 1.008-.744 1.008l-1.992-.1.672 2.544h2.16c1.608 0 2.424-.96 2.424-2.88V11.68h-9.264a22.652 22.652 0 0 0 .864-2.64h9.624V6.616zm26.88 3.816h2.664v2.352h-5.52v2.328h5.52v1.824h-4.63v9.072h2.424V19.24h2.208v8.26h2.5v-8.26h2.232v3.6c0 .528-.336.792-.96.792l-1.008-.12.624 2.328h1.152a2.238 2.238 0 0 0 2.568-2.472v-6.432h-4.608v-1.824h4.9v-2.328h-4.9v-2.352h4.2v-2.3h-4.2V5.344h-2.5v2.784h-1.92a15.585 15.585 0 0 0 .36-1.728l-2.352-.384a9.446 9.446 0 0 1-2.136 5.112l2.04 1.44a8.352 8.352 0 0 0 1.343-2.136zm11.088-2.9v14.64h2.424V7.528zm4.7 19.752a2.22 2.22 0 0 0 2.5-2.52V5.368h-2.5v18.744q0 .936-.864.936a39.25 39.25 0 0 1-3.264-.144l.552 2.376zm7.488-21.912-1.7 1.608a25.142 25.142 0 0 1 4.008 4.032L576 9.28a31.763 31.763 0 0 0-4.054-3.912zm13.68 21.744h5.5l.624-2.472c-.672.048-1.608.1-2.832.144-1.248 0-2.448.024-3.648.024-1.872 0-3.48-.024-4.872-.048a8 8 0 0 1-3.192-.6 6.686 6.686 0 0 1-1.656-1.416l-.264-.264V13.36h-5.5v2.3h3.168v6.58a10.56 10.56 0 0 0-3.216 3.672l1.848 1.728c1.2-2.16 2.016-3.24 2.5-3.24.264 0 .552.192.888.6a5.394 5.394 0 0 0 2.52 1.656 18.062 18.062 0 0 0 3.84.408c1.536.024 2.976.048 4.296.048zm-5.588-16.876h3.072v2.352h-6.6v2.28h14.88v-2.28h-5.9V10.24h4.656v-2.3h-4.656V5.32h-2.376v2.616h-2.16c.168-.5.336-1.032.48-1.56l-2.28-.5a16.4 16.4 0 0 1-2.4 5.28l2.04 1.3c.428-.704.86-1.448 1.244-2.216zm-1.634 5.976v7.248h11.28v-7.248zm8.88 4.92h-6.48V18.52h6.48zM596 19.53a1.956 1.956 0 1 0 0-3.912 1.956 1.956 0 1 0 0 3.912zm6.75-14.042-1.728 1.632a23.48 23.48 0 0 1 3.96 3.888l1.8-1.776a30.89 30.89 0 0 0-4.032-3.744zm13.656 21.624h5.5l.6-2.472q-.972.072-2.808.144c-1.248 0-2.448.024-3.648.024-1.824 0-3.432-.024-4.8-.048a7.6 7.6 0 0 1-3.12-.6 6.212 6.212 0 0 1-1.632-1.416l-.24-.24V13.36h-5.5v2.3h3.168v6.58a10.56 10.56 0 0 0-3.216 3.672l1.848 1.7c1.2-2.16 2.016-3.216 2.472-3.216.288 0 .576.192.888.6a5.147 5.147 0 0 0 2.472 1.656 17.753 17.753 0 0 0 3.792.408c1.512.028 2.927.052 4.224.052zM608.1 8.824v2.328h2.544v1.632a19.363 19.363 0 0 1-.144 2.424h-3.24v2.352h2.76a7.391 7.391 0 0 1-2.664 4.056l1.512 1.992a10.356 10.356 0 0 0 3.624-6.048h3.6v6.384h2.448V17.56h3.528v-2.352h-3.528v-4.056h2.76V8.824h-2.76V5.3h-2.448v3.524h-3.022V5.248h-2.424v3.576zm4.968 2.328h3.024v4.056H612.9a29.354 29.354 0 0 0 .168-3zm31.392-3.24h-18.12v19.2h2.52v-1.3h13.056v1.3h2.544zm-15.6 15.456V10.36h13.056v13.008zm25.778-11.328v2.4h6.576v2.86h-5.04v10.2h2.472v-1.132h7.872V27.5h2.472V17.3h-5.232v-2.86h6.624v-2.4h-6.624V8.752a30.066 30.066 0 0 0 5.688-1.344L668.2 5.3A44.022 44.022 0 0 1 655.07 7l.768 2.256c1.9 0 3.7-.072 5.376-.216v3zm4.008 11.976v-4.368h7.872v4.368zM650.7 5.488 649 7.1a23.9 23.9 0 0 1 4.08 3.216l1.7-1.68a29.727 29.727 0 0 0-4.08-3.148zm-.55 5.712-1.75 1.7a25.529 25.529 0 0 1 4.152 3.552l1.728-1.728a28.628 28.628 0 0 0-4.13-3.524zm2.136 6.48a71.645 71.645 0 0 1-3.5 8.424l2.52 1.1a85.892 85.892 0 0 0 3.264-8.616zm20.614-7.656a32.022 32.022 0 0 1-.84 6.408l2.016.576a38.765 38.765 0 0 0 .744-6.84zm6.72-.6-1.728.552V5.344h-2.52v22.08h2.52V10.216a37.826 37.826 0 0 1 1.176 4.032l.936-.24c-.144.288-.288.576-.432.888l1.872 1.656a19.878 19.878 0 0 0 1.8-4.536h3.072v5.112h-5.3v2.448h5.3v4.872h-6.576v2.424h14.712v-2.424h-5.592v-4.872h4.728v-2.448h-4.728v-5.112h4.944V9.592h-4.944v-4.2h-2.544v4.2h-2.592c.1-.768.144-1.536.192-2.352l-2.28-.312a21.244 21.244 0 0 1-.984 5.448 28.209 28.209 0 0 0-1.03-2.952zm27.456-4.2a18.042 18.042 0 0 1-3.168 8.088l1.824 1.56a14.478 14.478 0 0 0 2.088-3.576h1.008c-.888 4.248-2.5 7.344-4.8 9.312l1.608 1.872c2.616-2.352 4.416-6.1 5.424-11.184h1.2a33.564 33.564 0 0 1-1.944 8.088 17.663 17.663 0 0 1-4.416 5.952l1.56 1.992a20.6 20.6 0 0 0 4.92-6.864 38.8 38.8 0 0 0 2.112-9.168h.864c-.048 6.792-.12 10.752-.264 11.88a2.049 2.049 0 0 1-2.208 1.992c-.576 0-1.224-.048-1.992-.12l.576 2.232c.864.072 1.488.12 1.824.12q3.672 0 4.1-3.1.36-2.88.36-15.408h-9.072c.264-.96.5-1.968.744-3.048zm-8.064 7.224h1.32v5.736a32.519 32.519 0 0 1-3.912 1.056l.6 2.424a71.374 71.374 0 0 0 3.312-1.1V27.5h2.448v-7.92c.5-.24 1.008-.456 1.536-.7v-2.352c-.528.24-1.032.48-1.536.72v-4.8h1.632v-2.4h-1.632V5.32h-2.448v4.728H699.3c.072-.912.12-1.824.168-2.736l-2.232-.168a37.1 37.1 0 0 1-1.1 7.968l2.208.624c.262-1.056.478-2.16.67-3.288zm25.968.312h6.936l-.36 1.56h-4.966v8.448h2.424v-6.144h8.712v6.144h2.424V14.32h-6.05l.36-1.56h7.656v-2.3h-7.272c.072-.48.144-.984.192-1.464l-2.5-.312-.216 1.776h-7.344V8.9a105.932 105.932 0 0 0 16.086-1.4l-1.224-2.232a98.979 98.979 0 0 1-17.28 1.536v7.68q-.18 7.092-2.448 11.088l1.752 1.824q2.952-4.824 3.12-12.912zm9.984 9.216-1.248 1.872a32.321 32.321 0 0 1 7.032 3.672l1.392-2.184a36.607 36.607 0 0 0-7.174-3.36zm-2.3-4.656a8.063 8.063 0 0 1-2.352 5.16 13.971 13.971 0 0 1-6.144 2.784l1.344 2.3a15.531 15.531 0 0 0 6.936-3.576 10.389 10.389 0 0 0 2.64-6.5z" transform="translate(30 50)"/>
    </g>
    <path id="사각형_514" data-name="사각형 514" class="cls-10" transform="translate(479 589)" d="M0 0h570v1H0z"/>
    <path id="사각형_915" data-name="사각형 915" class="cls-10" transform="translate(289 689)" d="M0 0h380v1H0z"/>
    <path id="세로-9" data-name="세로" class="cls-10" transform="translate(1048 589)" d="M0 0h1v151H0z"/>
    <path id="세로-10" data-name="세로" class="cls-10" transform="translate(479 589)" d="M0 0h1v100H0z"/>
    <g id="fc_yes" transform="translate(1015.576 627.704)">
        <g id="그룹_1842" data-name="그룹 1842" transform="translate(-491.576 -398.704)">
            <g id="fc_yes-2" data-name="fc_yes" transform="translate(491.576 398.704)">
                <path id="사각형_515" data-name="사각형 515" class="cls-1" d="M0 0h64.944v23.056H0z"/>
                <path id="패스_10829" data-name="패스 10829" class="cls-3" d="M-16.776-12.848h-1.648v2.176H-22.2v1.52h3.776v1.728H-21.7v1.5h3.264c-.032.56-.064 1.024-.128 1.488-1.392.272-2.688.512-3.856.672l.384 1.616c1.088-.208 2.016-.448 2.992-.688a6.456 6.456 0 0 1-2.8 2.7l1.144 1.32c2.688-1.728 3.92-3.456 3.92-7.856zm3.008 13.92v-3.616h4.176v-1.5h-4.176V-5.92h3.44v-1.5h-3.44V-9.1h3.952v-1.52h-3.952v-2.224h-1.648V1.072zM-1.48-10.192v1.616h4.432V-.72q0 .82-.912.82C1.352.1.632.048-.136-.016l.368 1.632h2.384q2.016 0 2.016-1.92v-8.272h1.6v-1.616h-1.6v-2.976h-1.68v2.976zm-5.456 1.168-1.136 1.072a53.313 53.313 0 0 1 2.928 3.536 12.484 12.484 0 0 1-3.344 3.68L-7.528.7a16.671 16.671 0 0 0 3.344-3.76c.48.688.9 1.36 1.28 2.032l1.248-1.248A35.798 35.798 0 0 0-3.32-4.66a14.271 14.271 0 0 0 1.232-5.82v-1.22h-5.68v1.616h4.224a13.3 13.3 0 0 1-.832 4.048 62.593 62.593 0 0 0-2.56-2.988zm6.624 1.952-1.28.928A25.074 25.074 0 0 1 .744-2.752l1.312-.928A25.788 25.788 0 0 0-.312-7.072zm9.728-2.016v2.928h2.912A12.78 12.78 0 0 1 8.12-4.928l.64 1.392a12.628 12.628 0 0 0 5.152-1.84c.192.16.384.352.576.544a20.953 20.953 0 0 1-6.256 2.288l.816 1.408a20.256 20.256 0 0 0 6.208-2.688 3.6 3.6 0 0 1 .336.656 23.063 23.063 0 0 1-7.52 3.056l.848 1.424a23.768 23.768 0 0 0 7.024-2.992c0 .064.016.16.016.256a1.651 1.651 0 0 1-.384 1.28 2.044 2.044 0 0 1-1.088.352c-.384.016-.88.032-1.472.032l.512 1.52q.624 0 1.152-.048a4.128 4.128 0 0 0 2.256-.72 3.253 3.253 0 0 0 .72-2.416 6.331 6.331 0 0 0-.272-1.52 2.556 2.556 0 0 1 .416-.128 11.757 11.757 0 0 0 3.584 4.128l1.136-1.44a8.385 8.385 0 0 1-3.28-3.184 16.663 16.663 0 0 0 2.4-1.152l-1.1-1.264a14.381 14.381 0 0 1-3.76 1.7 8 8 0 0 0-1.572-1.876h6.016v-3.9H17.48c.384-.32.768-.672 1.168-1.072v-1.072h-4.816c.224-.224.448-.464.672-.688l-1.76-.4a14.876 14.876 0 0 1-5.12 3.28l1.04 1.28c.256-.132.496-.244.752-.356zm5.968-.976h-4.256c.416-.272.816-.56 1.216-.864h4.176c-.384.32-.768.608-1.136.864zm4.192 2.528h-3.7a6.187 6.187 0 0 0 .464-1.152h3.232zm-5.552 0h-2.96v-1.152h3.584a4.5 4.5 0 0 1-.624 1.152z" transform="translate(32.424 17.296)"/>
            </g>
        </g>
    </g>
    <g id="fc_yes-3" data-name="fc_yes" transform="translate(453.592 627.704)">
        <g id="그룹_1842-2" data-name="그룹 1842" transform="translate(-498.592 -398.704)">
            <g id="fc_yes-4" data-name="fc_yes" transform="translate(498.592 398.704)">
                <path id="사각형_515-2" data-name="사각형 515" class="cls-1" d="M0 0h51.008v23.056H0z"/>
                <path id="패스_10828" data-name="패스 10828" class="cls-3" d="M-8.4-10.192v1.616h4.432V-.72q0 .82-.912.82c-.688 0-1.408-.052-2.176-.116l.368 1.632H-4.3q2.016 0 2.016-1.92v-8.272h1.6v-1.616h-1.6v-2.976h-1.68v2.976zm-5.456 1.168-1.136 1.072a53.313 53.313 0 0 1 2.928 3.536 12.484 12.484 0 0 1-3.344 3.68l.96 1.44a16.671 16.671 0 0 0 3.348-3.76c.48.688.9 1.36 1.28 2.032l1.248-1.248a35.798 35.798 0 0 0-1.664-2.384 14.271 14.271 0 0 0 1.228-5.824v-1.22h-5.68v1.616h4.224a13.3 13.3 0 0 1-.836 4.052c-.8-.992-1.644-2-2.556-2.992zm6.624 1.952-1.28.928a25.074 25.074 0 0 1 2.336 3.392l1.312-.928a25.788 25.788 0 0 0-2.368-3.392zM2.5-9.088v2.928h2.908A12.78 12.78 0 0 1 1.2-4.928l.64 1.392a12.628 12.628 0 0 0 5.152-1.84c.192.16.384.352.576.544a20.953 20.953 0 0 1-6.256 2.288l.816 1.408a20.256 20.256 0 0 0 6.208-2.688 3.6 3.6 0 0 1 .336.656 23.063 23.063 0 0 1-7.52 3.056L2 1.312A23.768 23.768 0 0 0 9.024-1.68c0 .064.016.16.016.256a1.651 1.651 0 0 1-.384 1.28 2.044 2.044 0 0 1-1.088.352C7.184.224 6.688.24 6.1.24l.512 1.52q.624 0 1.152-.048a4.128 4.128 0 0 0 2.256-.72 3.253 3.253 0 0 0 .72-2.416 6.331 6.331 0 0 0-.272-1.52 2.556 2.556 0 0 1 .416-.128 11.757 11.757 0 0 0 3.584 4.128L15.6-.384a8.385 8.385 0 0 1-3.28-3.184 16.663 16.663 0 0 0 2.4-1.152l-1.1-1.264a14.381 14.381 0 0 1-3.76 1.7A8 8 0 0 0 8.288-6.16H14.3v-3.9h-3.74c.384-.32.768-.672 1.168-1.072v-1.072H6.912c.224-.224.448-.464.672-.688l-1.76-.4A14.876 14.876 0 0 1 .7-10.016l1.04 1.28c.26-.128.5-.24.76-.352zm5.968-.976h-4.26c.416-.272.816-.56 1.216-.864H9.6c-.384.32-.768.608-1.136.864zm4.192 2.528h-3.7a6.187 6.187 0 0 0 .464-1.152h3.232zm-5.552 0H4.144v-1.152h3.584A4.5 4.5 0 0 1 7.1-7.536z" transform="translate(25.408 17.296)"/>
            </g>
        </g>
    </g>
    <g id="fc_yes-5" data-name="fc_yes" transform="translate(232.48 1063.704)">
        <g id="그룹_1842-3" data-name="그룹 1842" transform="translate(-466.48 -398.704)">
            <g id="fc_yes-6" data-name="fc_yes" transform="translate(466.48 398.704)">
                <path id="사각형_515-3" data-name="사각형 515" class="cls-1" d="M0 0h114.64v23.024H0z"/>
                <path id="패스_10834" data-name="패스 10834" class="cls-3" d="M-40.848-8.352V1.664h1.7V-8.352zm.112-4.8A17.157 17.157 0 0 1-47.52-7.52L-46.512-6A17.4 17.4 0 0 0-40-11.584 16.421 16.421 0 0 0-33.488-6l1.008-1.52a16.237 16.237 0 0 1-6.784-5.632zm17.52.032h-1.7c0 .608-.016 1.44-.016 2.512-.128 4.592-2.32 8.176-6.608 10.736l1.024 1.5a15.156 15.156 0 0 0 6.58-8.108A16.218 16.218 0 0 0-17.6 1.6l1.12-1.472a14.543 14.543 0 0 1-6.848-9.648c.064-.992.112-2.192.112-3.6zm11.36 8.832h3.072v1.344h-3.072zm3.072 2.864v3.152h1.664v-3.152H-4v.784h1.632v-8.016H-7.12v-1.312h-1.664v1.312h-4.7v8.064h1.632v-.832zm1.664-1.52v-1.344H-4v1.344zm3.12-2.8h-3.12V-7.12H-4zM-8.784-7.12v1.376h-3.072V-7.12zm7.632-4.98h-6.08q-.192-.672-.384-1.2l-1.776.288c.144.288.288.592.416.912h-5.936v3.184h1.632v-1.664h10.5v1.584h1.632zM5.44-6.32c-.432.176-.864.352-1.3.512v-2.944h1.412v-1.616H4.144v-2.768H2.512v2.768H.9v1.616h1.612V-5.3c-.608.16-1.216.288-1.824.4l.4 1.6c.48-.128.944-.256 1.424-.4v3.172c0 .384-.192.576-.544.576A7 7 0 0 1 .832-.064l.352 1.632h1.36A1.45 1.45 0 0 0 4.144-.1v-4.14c.432-.16.864-.336 1.3-.512zm2.208-.608h1.968V-8.56H7.648v-4.5H6V-.992a.92.92 0 0 1-.7.96l.412 1.552A27.418 27.418 0 0 0 9.744.288l-.3-1.536a13.048 13.048 0 0 1-1.792.672zM13.216 1.5a1.715 1.715 0 0 0 1.36-.512c.32-.352.544-1.472.672-3.344l-1.52-.48a8.448 8.448 0 0 1-.272 2.384.6.6 0 0 1-.544.368h-.624q-.48 0-.48-.528v-6.4a22.487 22.487 0 0 0 3.36-1.456l-.96-1.376a13.927 13.927 0 0 1-2.4 1.184v-4.432H10.16V-.24c0 1.152.528 1.744 1.616 1.744zM23.28-12.64v4.928h7.184v-4.928zm5.568 3.456h-3.936v-1.984h3.936zm-6 2.624v1.5h3.088v1.5h-2.72v1.488h2.72v1.64h-3.7v1.568h9.072V-.432h-3.68v-1.632h2.8v-1.488h-2.8v-1.5h3.3v-1.5zm-5.984-2.368v1.584h1.968a11.865 11.865 0 0 1-2.384 4.128l.736 1.872a17.07 17.07 0 0 0 1.84-3.52V1.6h1.584v-6.72q.5.768 1.2 1.92l.944-1.424a38.785 38.785 0 0 0-2.144-2.1v-.624h1.744v-1.58h-1.744v-2.048a22.07 22.07 0 0 0 2.144-.48l-.592-1.568a24.715 24.715 0 0 1-5.28.944l.336 1.568c.608-.064 1.216-.128 1.808-.208v1.792zm24.048-4.32-1.7.288a8.117 8.117 0 0 1 .544.976H33.84v5.12a18.262 18.262 0 0 1-1.3 7.408l1.268 1.136a20.061 20.061 0 0 0 1.7-8.544v-3.584H47.12v-1.536h-5.648a22.13 22.13 0 0 0-.56-1.264zm-1.6 5.472-.992.96a27.02 27.02 0 0 1 2.64 1.472h-5.04v1.536h4.512v3.424c0 .416-.192.624-.56.624A26.27 26.27 0 0 1 37.7.128l.348 1.572h2.384A1.48 1.48 0 0 0 42.1.016v-3.824h2.992a9.759 9.759 0 0 1-1.616 1.856l1.244.992a13.624 13.624 0 0 0 2.18-3.088v-1.3h-4.1l.192-.192c-.144-.112-.288-.224-.432-.32a17.253 17.253 0 0 0 3.04-2.508v-1.184h-8.752v1.408h6.64a16.746 16.746 0 0 1-2.176 1.472 29.004 29.004 0 0 0-2-1.104z" transform="translate(57.52 17.296)"/>
            </g>
        </g>
    </g>
    <g id="fc_box_big_no_btn" transform="translate(114 1280)">
        <g transform="translate(-114 -1280)" style="filter:url(#box-5)">
            <g id="box-15" data-name="box" class="cls-4">
                <path class="cls-11" d="M0 0h1108v130H0z" transform="translate(114 1280)"/>
                <path class="cls-12" d="M1 1h1106v128H1z" transform="translate(114 1280)"/>
            </g>
        </g>
        <path id="패스_10837" data-name="패스 10837" class="cls-3" d="m479.024 5.56-1.248 1.848a17.248 17.248 0 0 1 3.864 1.848l1.344-2.016a21.125 21.125 0 0 0-3.96-1.68zm7.152-.384a8.07 8.07 0 0 1-3 4.08l1.488 1.944a12.941 12.941 0 0 0 2.208-2.232h2.4a5.432 5.432 0 0 1-1.56 2.52 11.2 11.2 0 0 1-4.824 1.92l.936 2.232c2.76-.648 4.7-1.536 5.808-2.688.216-.24.432-.5.672-.792 1.512 1.728 3.936 2.928 7.3 3.624l.888-2.184c-3.5-.624-5.88-1.776-7.152-3.408.12-.384.24-.792.336-1.224h3.24a10.889 10.889 0 0 1-.864 2.064l2.4.72a27.3 27.3 0 0 0 1.032-3.48V6.784h-9.336a10.387 10.387 0 0 0 .5-1.3zM495.9 15.9h-15.84v7.464h2.5v-5.132h10.824v4.848h2.52zm-9 2.88c-.168 2.256-.768 3.864-1.824 4.8q-1.8 1.4-7.416 1.656l1.008 2.28c4.536-.384 7.392-1.2 8.568-2.472 1.1-.96 1.848-3 2.184-6.072zm-4.944-8.592a23.1 23.1 0 0 1-4.656 3.12l1.632 1.944a22.581 22.581 0 0 0 4.464-3.36zm7.872 12.7-1.272 1.9a46.493 46.493 0 0 1 8.4 2.928l1.344-2.088a54.009 54.009 0 0 0-8.476-2.74zm13.46-15.624-2.064.672a34.325 34.325 0 0 1 1.392 4.848l1.92-.528a39.815 39.815 0 0 0-1.248-4.992zm5.88-.24a21.15 21.15 0 0 1-.864 4.992l1.848.6a19.017 19.017 0 0 0 1.1-5.3zm-7.992 6.456v2.42h3.84a17.885 17.885 0 0 1-4.224 5.5l1.056 2.616a24.972 24.972 0 0 0 3.36-5.136v8.568h2.52v-8.76c.552.816 1.2 1.848 1.92 3.048l1.488-2.232a45.988 45.988 0 0 0-3.408-3.168V15.9h3.312v-2.42h-3.312V5.368h-2.52v8.112zm16.944-8.088v13.656l-6.864 1.032.36 2.5 6.5-.984v5.856h2.472v-6.24l2.616-.384-.432-2.5-2.184.336V5.392zm-4.2 1.56-1.656 1.608a23.11 23.11 0 0 1 3.792 3.528l1.7-1.7a27.775 27.775 0 0 0-3.836-3.436zm-.576 5.64-1.68 1.584a23.689 23.689 0 0 1 3.744 3.624l1.7-1.728a28.336 28.336 0 0 0-3.764-3.48zm13.824-6.72-2.16 1.344a43.854 43.854 0 0 1 3.576 5.76l2.088-1.44a45.581 45.581 0 0 0-3.504-5.664zm1.272 10.584a99.962 99.962 0 0 1-3.384 9.888l2.376 1.056c1.2-3.12 2.3-6.48 3.288-10.032zm6.72-.1h4.2v2.5h-4.2zm0 4.776h4.2V23.9h-4.2zm0 5.088h11.808V23.9h-5.184v-2.76h4.224v-2.28h-4.224v-2.5h4.176v-2.3h-4.176v-2.572h4.68V9.136H542.1a55.49 55.49 0 0 0-1.224-4.056l-2.424.672a35.252 35.252 0 0 1 1.272 3.384h-4.2a32.9 32.9 0 0 0 1.128-3.384l-2.376-.48A26.244 26.244 0 0 1 530.1 14.3l.816 2.592q.936-1.188 1.8-2.448V27.52h2.448zm4.2-14.736v2.568h-4.2v-2.564zm27.96 5.184H553.3a35.258 35.258 0 0 0 6.792-2.4 31.49 31.49 0 0 0 7.228 2.404zM562.5 12.9a21.2 21.2 0 0 0 4.848-4.248V6.76h-9.288c.264-.384.528-.768.816-1.2l-2.476-.552a20.351 20.351 0 0 1-6.456 5.928l1.608 1.944a23.613 23.613 0 0 0 3.12-2.352 18.19 18.19 0 0 0 3.048 2.4 35.61 35.61 0 0 1-8.784 2.208l1.08 2.208c.72-.144 1.416-.264 2.136-.408V27.5h2.376v-.84h10.992v.84h2.38V16.8c.672.12 1.392.24 2.112.36l1.08-2.208A38.292 38.292 0 0 1 562.5 12.9zm-6.336-3.84.12-.12h7.872a21.39 21.39 0 0 1-4.08 2.88 16.806 16.806 0 0 1-3.916-2.756zm-1.632 15.48V22.6h4.3v1.944zm6.648 0V22.6h4.344v1.944zm-6.648-3.912v-1.9h4.3v1.9zm6.648-1.9h4.344v1.9h-4.344z" transform="translate(30 51)"/>
    </g>
    <g id="fc_box_big_no_btn-2" data-name="fc_box_big_no_btn" transform="translate(114 1460)">
        <g transform="translate(-114 -1460)" style="filter:url(#box-6)">
            <g id="box-16" data-name="box" class="cls-4">
                <path class="cls-11" d="M0 0h1108v130H0z" transform="translate(114 1460)"/>
                <path class="cls-12" d="M1 1h1106v128H1z" transform="translate(114 1460)"/>
            </g>
        </g>
        <path id="패스_10838" data-name="패스 10838" class="cls-3" d="M455.516 7.432a39.037 39.037 0 0 1-1.056 7.536l2.016 1.056a27.65 27.65 0 0 0 .744-3.672h1.008v4.488c-1.248.48-2.472.912-3.576 1.32l.648 2.472c.96-.384 1.968-.84 2.928-1.248v7.224h2.352V18.28c.768-.36 1.488-.744 2.088-1.032l-.1-2.3.264.192a20.835 20.835 0 0 0 1.872-3.528h.648a17.777 17.777 0 0 1-4.632 9.072l1.56 1.608a22.293 22.293 0 0 0 5.328-10.68h1.032c-.648 4.536-2.688 9.648-6.528 13.008l1.584 1.7c4.272-4.008 6.264-9.12 7.152-14.712h.384c-.12 4.9-.408 9.84-.96 11.664-.12.48-.288.7-.96.7h-.24a12.78 12.78 0 0 1-2.28-.264l.48 2.472a14.474 14.474 0 0 0 2.184.168c1.824.024 2.664-.576 3-2.232.624-2.736.984-7.752 1.056-14.784h-7.992a29.082 29.082 0 0 0 .888-3.192l-2.256-.48a26.486 26.486 0 0 1-1.776 5.736V10.12h-1.8V5.728h-2.352v4.392h-.744c.072-.84.1-1.656.144-2.4zm5.52 6.312 1.488 1.176-1.944.888v-3.456h1.3c-.244.456-.532.912-.844 1.392zm18.936-.984h6.936l-.36 1.56h-4.968v8.448H484v-6.144h8.712v6.144h2.424V14.32h-6.048l.36-1.56h7.656v-2.3h-7.272c.072-.48.144-.984.192-1.464l-2.5-.312-.216 1.776h-7.344V8.9a105.931 105.931 0 0 0 16.088-1.4l-1.224-2.232a98.979 98.979 0 0 1-17.28 1.536v7.68q-.18 7.092-2.448 11.088l1.752 1.824q2.952-4.824 3.12-12.912zm9.984 9.216-1.248 1.872a32.323 32.323 0 0 1 7.032 3.672l1.392-2.184a36.606 36.606 0 0 0-7.176-3.36zm-2.3-4.656a8.064 8.064 0 0 1-2.352 5.16 13.971 13.971 0 0 1-6.144 2.784l1.344 2.3a15.531 15.531 0 0 0 6.936-3.576 10.389 10.389 0 0 0 2.64-6.5zm16.944 1.248h4.6v2.016h-4.6zm4.608 4.3v4.728h2.5v-4.732h4.68v1.176h2.448V12.016H511.7v-1.968h-2.5v1.968h-7.056v12.1h2.456v-1.252zm2.5-2.28v-2.02h4.68v2.016zm4.68-4.2H511.7V14.32h4.68zM509.2 14.32v2.064h-4.6V14.32zm11.448-7.464h-9.12q-.288-1.008-.576-1.8l-2.664.432c.216.432.432.888.624 1.368h-8.9v4.776h2.448v-2.5h15.74v2.376h2.448zm9.888 8.664c-.648.264-1.3.528-1.944.768v-4.416h2.112V9.448H528.6V5.3h-2.448v4.148h-2.424v2.424h2.424v5.184c-.912.24-1.824.432-2.736.6l.6 2.4c.72-.192 1.416-.384 2.136-.6v4.752c0 .576-.288.864-.816.864a10.5 10.5 0 0 1-1.7-.168l.528 2.448h2.04a2.174 2.174 0 0 0 2.4-2.5V18.64c.648-.24 1.3-.5 1.944-.768zm3.312-.912h2.952V12.16h-2.952V5.416h-2.468v18.1a1.381 1.381 0 0 1-1.056 1.44l.624 2.328A41.128 41.128 0 0 0 537 25.432l-.456-2.3a19.57 19.57 0 0 1-2.688 1.008zm8.352 12.648a2.572 2.572 0 0 0 2.04-.768c.48-.528.816-2.208 1.008-5.016l-2.28-.72a12.673 12.673 0 0 1-.408 3.576.9.9 0 0 1-.816.552h-.936q-.72 0-.72-.792v-9.6a33.729 33.729 0 0 0 5.04-2.184l-1.44-2.064a20.891 20.891 0 0 1-3.6 1.776V5.368h-2.468V24.64c0 1.728.792 2.616 2.424 2.616zm14.956-21.864V8.7h-7.7v14.068h2.472v-1.392h5.232v6h2.54v-6h5.136V22.6h2.472V8.7H559.7V5.392zm-5.232 13.632v-2.9h5.232v2.9zm7.776 0v-2.9h5.136v2.9zm-7.776-5.136v-2.856h5.232v2.856zm7.776 0v-2.856h5.136v2.856zM584.732 5.3v1.32h-5.52v2.012h5.52V9.64h-4.512v1.968h4.512v1.032h-6.192v2.06h14.88v-2.06h-6.264v-1.032H592V9.64h-4.848V8.632h5.688V6.616h-5.688V5.3zm-2.184 15.456h6.864v1.176h-6.864zm6.864-1.872h-6.864v-1.2h6.864zm-6.864 4.944h6.864v.672c0 .5-.216.768-.648.768l-1.9-.1.6 2.184h1.992a2.078 2.078 0 0 0 2.352-2.328v-9.36H580.2V27.5h2.352zm-7.9-18.36-1.776 1.7a21.956 21.956 0 0 1 3.936 3.5l1.728-1.728a31.482 31.482 0 0 0-3.884-3.476zm-3.408 6.912v2.4h3.192v8.472a1.743 1.743 0 0 1-.624 1.344l.936 2.256a37.461 37.461 0 0 0 4.536-3.816l-.672-2.64c-.6.624-1.176 1.224-1.752 1.776v-9.796z" transform="translate(30 51)"/>
    </g>
    <g id="fc_box_big_no_btn-3" data-name="fc_box_big_no_btn" transform="translate(114 1820)">
        <g transform="translate(-114 -1820)" style="filter:url(#box-7)">
            <g id="box-17" data-name="box" class="cls-4">
                <path class="cls-11" d="M0 0h1108v130H0z" transform="translate(114 1820)"/>
                <path class="cls-12" d="M1 1h1106v128H1z" transform="translate(114 1820)"/>
            </g>
        </g>
        <path id="패스_10840" data-name="패스 10840" class="cls-3" d="M419.516 7.432a39.037 39.037 0 0 1-1.056 7.536l2.016 1.056a27.65 27.65 0 0 0 .744-3.672h1.008v4.488c-1.248.48-2.472.912-3.576 1.32l.648 2.472c.96-.384 1.968-.84 2.928-1.248v7.224h2.352V18.28c.768-.36 1.488-.744 2.088-1.032l-.1-2.3.264.192a20.835 20.835 0 0 0 1.872-3.528h.648a17.777 17.777 0 0 1-4.632 9.072l1.56 1.608a22.293 22.293 0 0 0 5.328-10.68h1.032c-.648 4.536-2.688 9.648-6.528 13.008l1.584 1.7c4.272-4.008 6.264-9.12 7.152-14.712h.384c-.12 4.9-.408 9.84-.96 11.664-.12.48-.288.7-.96.7h-.24a12.78 12.78 0 0 1-2.28-.264l.48 2.472a14.474 14.474 0 0 0 2.184.168c1.824.024 2.664-.576 3-2.232.624-2.736.984-7.752 1.056-14.784h-7.992a29.082 29.082 0 0 0 .888-3.192l-2.256-.48a26.486 26.486 0 0 1-1.776 5.736V10.12h-1.8V5.728h-2.352v4.392h-.744c.072-.84.1-1.656.144-2.4zm5.52 6.312 1.488 1.176-1.944.888v-3.456h1.3c-.244.456-.532.912-.844 1.392zm18.936-.984h6.936l-.36 1.56h-4.968v8.448H448v-6.144h8.712v6.144h2.424V14.32h-6.048l.36-1.56h7.656v-2.3h-7.272c.072-.48.144-.984.192-1.464l-2.5-.312-.216 1.776h-7.344V8.9a105.931 105.931 0 0 0 16.088-1.4l-1.224-2.232a98.979 98.979 0 0 1-17.28 1.536v7.68q-.18 7.092-2.448 11.088l1.752 1.824q2.952-4.824 3.12-12.912zm9.984 9.216-1.248 1.872a32.323 32.323 0 0 1 7.032 3.672l1.392-2.184a36.606 36.606 0 0 0-7.176-3.36zm-2.3-4.656a8.064 8.064 0 0 1-2.352 5.16 13.971 13.971 0 0 1-6.144 2.784l1.344 2.3a15.531 15.531 0 0 0 6.936-3.576 10.389 10.389 0 0 0 2.64-6.5zm30.216 10.1c1.632 0 2.448-.96 2.448-2.832V6.016h-19.876V27.5h2.52V8.464H481.8v15.552c0 .672-.264 1.008-.744 1.008l-3-.12.7 2.52zm-13.584-16.9v2.328h12.192v-2.32zm1.2 4.32v8.184h9.812v-8.176zm7.392 5.952h-4.968V17.08h4.968zm13.392-8.616v2.16h6.864v1.632H487.6v2.16h14.688v1.7H489.02v2.184h13.272v2.5c0 .528-.336.792-.984.792-.96 0-1.968-.072-3.048-.168l.552 2.352h3.336c1.752 0 2.64-.792 2.64-2.376v-3.1h3.312V19.84h-3.312v-1.7h4.344v-2.16h-9.5v-1.636h6.768v-2.16h-6.768v-1.128h-2.5v1.128zm3.24 10.08-2.016 1.272a24.349 24.349 0 0 1 2.832 3.288l1.968-1.368a28.417 28.417 0 0 0-2.788-3.184zM491.588 8.92h.264a20.231 20.231 0 0 1 1.584 2.688l2.256-.84a20.37 20.37 0 0 0-1.224-1.848h3.576V6.832h-5.568c.144-.384.264-.768.408-1.2l-2.376-.532a15.493 15.493 0 0 1-2.928 5.352l2.184 1.368a17.532 17.532 0 0 0 1.824-2.9zm9.72-.072h.96a19.6 19.6 0 0 1 1.632 2.736l2.184-.84a16.2 16.2 0 0 0-1.2-1.9h3.648V6.76h-6.384c.12-.384.24-.768.36-1.176l-2.352-.5A13.461 13.461 0 0 1 498 9.64l2.088 1.272a18.739 18.739 0 0 0 1.22-2.064zm10.584 1.176a32.018 32.018 0 0 1-.84 6.408l2.016.576a38.765 38.765 0 0 0 .744-6.84zm6.72-.6-1.728.552V5.344h-2.52v22.08h2.52V10.216a37.826 37.826 0 0 1 1.176 4.032l.936-.24c-.144.288-.288.576-.432.888l1.872 1.656a19.878 19.878 0 0 0 1.8-4.536h3.072v5.112H520v2.448h5.3v4.872h-6.576v2.424h14.712v-2.424h-5.592v-4.872h4.728v-2.448h-4.728v-5.112h4.956V9.592h-4.944v-4.2h-2.544v4.2h-2.592c.1-.768.144-1.536.192-2.352l-2.28-.312a21.244 21.244 0 0 1-.984 5.448 28.209 28.209 0 0 0-1.036-2.952zm28.8 7.968h2.28v2.448h-2.28zm-.168 4.584h2.448v5.088h2.28v-5.088h2.428v2.592a.463.463 0 0 1-.5.528 11.286 11.286 0 0 1-1.512-.12l.6 2.256h1.608c1.416 0 2.136-.624 2.136-1.848V10.768h-3.6a21.437 21.437 0 0 0 1.8-2.16V6.856h-5.552c.192-.336.36-.672.552-1.056l-2.424-.552a17.813 17.813 0 0 1-4.536 5.9L544.508 13c.192-.168.408-.336.6-.528v7.3a10.9 10.9 0 0 1-1.68 6.048l1.824 1.632a12.314 12.314 0 0 0 1.992-5.476zm3.192-11.208h-3.672c.456-.576.912-1.176 1.368-1.824H552a20.519 20.519 0 0 1-1.564 1.824zm3.96 9.072h-2.424v-2.448h2.428zm0-4.608h-2.424v-2.28h2.428zm-4.7-2.28v2.28h-2.28v-2.28zm-13.828-6.576v2.4h2.376a24.2 24.2 0 0 1-3.168 8.544l1.44 2.328c.288-.432.552-.864.84-1.32V26.7h2.352v-1.56h3.936V13.5h-4.1a34.05 34.05 0 0 0 1.152-4.728h3.404v-2.4zm3.84 16.488v-7.056h1.68v7.056zm33.336-17.4a53.855 53.855 0 0 1-1.008 11.208 16.1 16.1 0 0 1-5.328 8.64l1.7 2.088a17.668 17.668 0 0 0 6.1-10.224c.048-.192.072-.408.12-.624a34.058 34.058 0 0 0 5.352 10.776l1.82-2.088c-3.072-3.48-5.232-8.136-6.432-13.968.144-1.776.216-3.72.216-5.808zm-10.392-.024-1.776 1.728a21.97 21.97 0 0 1 3.936 3.528l1.728-1.752a33.615 33.615 0 0 0-3.888-3.504zm-3.336 6.936v2.4h3.284v8.28a1.614 1.614 0 0 1-.648 1.32l.96 2.232a36.97 36.97 0 0 0 4.992-3.864l-.672-2.568a38.475 38.475 0 0 1-2.208 1.992v-9.792zm33.84-6.984V8.7h-7.7v14.068h2.472v-1.392h5.232v6h2.54v-6h5.136V22.6h2.472V8.7H595.7V5.392zm-5.232 13.632v-2.9h5.232v2.9zm7.776 0v-2.9h5.136v2.9zm-7.776-5.136v-2.856h5.232v2.856zm7.776 0v-2.856h5.136v2.856zM620.732 5.3v1.32h-5.52v2.012h5.52V9.64h-4.512v1.968h4.512v1.032h-6.192v2.06h14.88v-2.06h-6.264v-1.032H628V9.64h-4.848V8.632h5.688V6.616h-5.688V5.3zm-2.184 15.456h6.864v1.176h-6.864zm6.864-1.872h-6.864v-1.2h6.864zm-6.864 4.944h6.864v.672c0 .5-.216.768-.648.768l-1.9-.1.6 2.184h1.992a2.078 2.078 0 0 0 2.352-2.328v-9.36H616.2V27.5h2.352zm-7.9-18.36-1.776 1.7a21.956 21.956 0 0 1 3.936 3.5l1.728-1.728a31.482 31.482 0 0 0-3.884-3.476zm-3.408 6.912v2.4h3.192v8.472a1.743 1.743 0 0 1-.624 1.344l.936 2.256a37.461 37.461 0 0 0 4.536-3.816l-.672-2.64c-.6.624-1.176 1.224-1.752 1.776v-9.796z" transform="translate(30 51)"/>
    </g>
    <g id="fc_box_big_no_btn-4" data-name="fc_box_big_no_btn" transform="translate(114 2000)">
        <g transform="translate(-114 -2000)" style="filter:url(#box-8)">
            <g id="box-18" data-name="box" class="cls-4">
                <path class="cls-11" d="M0 0h1108v130H0z" transform="translate(114 2000)"/>
                <path class="cls-12" d="M1 1h1106v128H1z" transform="translate(114 2000)"/>
            </g>
        </g>
        <path id="패스_10841" data-name="패스 10841" class="cls-3" d="M455.516 7.432a39.037 39.037 0 0 1-1.056 7.536l2.016 1.056a27.65 27.65 0 0 0 .744-3.672h1.008v4.488c-1.248.48-2.472.912-3.576 1.32l.648 2.472c.96-.384 1.968-.84 2.928-1.248v7.224h2.352V18.28c.768-.36 1.488-.744 2.088-1.032l-.1-2.3.264.192a20.835 20.835 0 0 0 1.872-3.528h.648a17.777 17.777 0 0 1-4.632 9.072l1.56 1.608a22.293 22.293 0 0 0 5.328-10.68h1.032c-.648 4.536-2.688 9.648-6.528 13.008l1.584 1.7c4.272-4.008 6.264-9.12 7.152-14.712h.384c-.12 4.9-.408 9.84-.96 11.664-.12.48-.288.7-.96.7h-.24a12.78 12.78 0 0 1-2.28-.264l.48 2.472a14.474 14.474 0 0 0 2.184.168c1.824.024 2.664-.576 3-2.232.624-2.736.984-7.752 1.056-14.784h-7.992a29.082 29.082 0 0 0 .888-3.192l-2.256-.48a26.486 26.486 0 0 1-1.776 5.736V10.12h-1.8V5.728h-2.352v4.392h-.744c.072-.84.1-1.656.144-2.4zm5.52 6.312 1.488 1.176-1.944.888v-3.456h1.3c-.244.456-.532.912-.844 1.392zm18.936-.984h6.936l-.36 1.56h-4.968v8.448H484v-6.144h8.712v6.144h2.424V14.32h-6.048l.36-1.56h7.656v-2.3h-7.272c.072-.48.144-.984.192-1.464l-2.5-.312-.216 1.776h-7.344V8.9a105.931 105.931 0 0 0 16.088-1.4l-1.224-2.232a98.979 98.979 0 0 1-17.28 1.536v7.68q-.18 7.092-2.448 11.088l1.752 1.824q2.952-4.824 3.12-12.912zm9.984 9.216-1.248 1.872a32.323 32.323 0 0 1 7.032 3.672l1.392-2.184a36.606 36.606 0 0 0-7.176-3.36zm-2.3-4.656a8.064 8.064 0 0 1-2.352 5.16 13.971 13.971 0 0 1-6.144 2.784l1.344 2.3a15.531 15.531 0 0 0 6.936-3.576 10.389 10.389 0 0 0 2.64-6.5zm16.944 1.248h4.6v2.016h-4.6zm4.608 4.3v4.728h2.5v-4.732h4.68v1.176h2.448V12.016H511.7v-1.968h-2.5v1.968h-7.056v12.1h2.456v-1.252zm2.5-2.28v-2.02h4.68v2.016zm4.68-4.2H511.7V14.32h4.68zM509.2 14.32v2.064h-4.6V14.32zm11.448-7.464h-9.12q-.288-1.008-.576-1.8l-2.664.432c.216.432.432.888.624 1.368h-8.9v4.776h2.448v-2.5h15.74v2.376h2.448zm9.888 8.664c-.648.264-1.3.528-1.944.768v-4.416h2.112V9.448H528.6V5.3h-2.448v4.148h-2.424v2.424h2.424v5.184c-.912.24-1.824.432-2.736.6l.6 2.4c.72-.192 1.416-.384 2.136-.6v4.752c0 .576-.288.864-.816.864a10.5 10.5 0 0 1-1.7-.168l.528 2.448h2.04a2.174 2.174 0 0 0 2.4-2.5V18.64c.648-.24 1.3-.5 1.944-.768zm3.312-.912h2.952V12.16h-2.952V5.416h-2.468v18.1a1.381 1.381 0 0 1-1.056 1.44l.624 2.328A41.128 41.128 0 0 0 537 25.432l-.456-2.3a19.57 19.57 0 0 1-2.688 1.008zm8.352 12.648a2.572 2.572 0 0 0 2.04-.768c.48-.528.816-2.208 1.008-5.016l-2.28-.72a12.673 12.673 0 0 1-.408 3.576.9.9 0 0 1-.816.552h-.936q-.72 0-.72-.792v-9.6a33.729 33.729 0 0 0 5.04-2.184l-1.44-2.064a20.891 20.891 0 0 1-3.6 1.776V5.368h-2.468V24.64c0 1.728.792 2.616 2.424 2.616zm7.512-21.768-1.7 1.608a25.007 25.007 0 0 1 4.008 3.912l1.752-1.728a33.1 33.1 0 0 0-4.056-3.792zM563.4 27.112h5.5l.6-2.472q-.972.072-2.808.144c-1.248 0-2.448.024-3.648.024-1.872 0-3.48-.024-4.872-.048a7.773 7.773 0 0 1-3.168-.6 6.357 6.357 0 0 1-1.68-1.416l-.264-.264v-9.12h-5.5v2.3h3.168v6.58a10.56 10.56 0 0 0-3.216 3.672l1.848 1.7c1.2-2.16 2.016-3.216 2.5-3.216.264 0 .552.192.888.6a5.394 5.394 0 0 0 2.52 1.656 18.062 18.062 0 0 0 3.84.408c1.528.028 2.968.052 4.292.052zm-4.248-19.08-1.276 1.248c.912.5 1.728 1.008 2.472 1.488h-5.328V23.8h2.352v-3.912h3.12v3.888h2.3v-3.888h3.216V20.9a.693.693 0 0 1-.792.768l-1.656-.072.552 2.064h1.8c1.632 0 2.448-.768 2.448-2.256V10.768h-4.848l-.048-.048a25.11 25.11 0 0 0 4.416-3V5.968h-13.268v2.064zm2.808 1.536c-.672-.5-1.44-1.008-2.256-1.536h4.8a23.822 23.822 0 0 1-2.548 1.536zm-4.584 6.792h3.12v1.512h-3.12zm5.424 0h3.216v1.512H562.8zm3.216-2.016H562.8v-1.512h3.216zm-5.52 0h-3.12v-1.512h3.12zm32.184-6.768h-8.86V26.44h2.424v-1.32h3.984v1.32h2.448zm-6.432 15.216V9.9h3.984v12.892zM575.4 10.624h1.6a61.17 61.17 0 0 1-.24 3.912h-4.992v2.376h4.608l-.288 1.272a12.737 12.737 0 0 1-4.848 6.72l1.632 2.016a14.451 14.451 0 0 0 5.136-6.24c.96 1.152 2.136 2.76 3.552 4.848l1.54-2.328c-1.488-1.776-2.952-3.408-4.392-4.848l.288-1.44h3.984v-2.376h-3.648c.12-1.224.192-2.52.216-3.912h3.192V8.248h-6.36c.264-.768.5-1.584.744-2.424l-2.472-.552a22.1 22.1 0 0 1-3.264 7.152l2.208 1.392a21.561 21.561 0 0 0 1.804-3.192z" transform="translate(30 51)"/>
    </g>
    <g id="fc_box_big_no_btn-5" data-name="fc_box_big_no_btn" transform="translate(114 1640)">
        <g transform="translate(-114 -1640)" style="filter:url(#box-9)">
            <g id="box-19" data-name="box" class="cls-4">
                <path class="cls-11" d="M0 0h1108v130H0z" transform="translate(114 1640)"/>
                <path class="cls-12" d="M1 1h1106v128H1z" transform="translate(114 1640)"/>
            </g>
        </g>
        <path id="패스_10839" data-name="패스 10839" class="cls-3" d="M455.516 7.432a39.037 39.037 0 0 1-1.056 7.536l2.016 1.056a27.65 27.65 0 0 0 .744-3.672h1.008v4.488c-1.248.48-2.472.912-3.576 1.32l.648 2.472c.96-.384 1.968-.84 2.928-1.248v7.224h2.352V18.28c.768-.36 1.488-.744 2.088-1.032l-.1-2.3.264.192a20.835 20.835 0 0 0 1.872-3.528h.648a17.777 17.777 0 0 1-4.632 9.072l1.56 1.608a22.293 22.293 0 0 0 5.328-10.68h1.032c-.648 4.536-2.688 9.648-6.528 13.008l1.584 1.7c4.272-4.008 6.264-9.12 7.152-14.712h.384c-.12 4.9-.408 9.84-.96 11.664-.12.48-.288.7-.96.7h-.24a12.78 12.78 0 0 1-2.28-.264l.48 2.472a14.474 14.474 0 0 0 2.184.168c1.824.024 2.664-.576 3-2.232.624-2.736.984-7.752 1.056-14.784h-7.992a29.082 29.082 0 0 0 .888-3.192l-2.256-.48a26.486 26.486 0 0 1-1.776 5.736V10.12h-1.8V5.728h-2.352v4.392h-.744c.072-.84.1-1.656.144-2.4zm5.52 6.312 1.488 1.176-1.944.888v-3.456h1.3c-.244.456-.532.912-.844 1.392zm18.936-.984h6.936l-.36 1.56h-4.968v8.448H484v-6.144h8.712v6.144h2.424V14.32h-6.048l.36-1.56h7.656v-2.3h-7.272c.072-.48.144-.984.192-1.464l-2.5-.312-.216 1.776h-7.344V8.9a105.931 105.931 0 0 0 16.088-1.4l-1.224-2.232a98.979 98.979 0 0 1-17.28 1.536v7.68q-.18 7.092-2.448 11.088l1.752 1.824q2.952-4.824 3.12-12.912zm9.984 9.216-1.248 1.872a32.323 32.323 0 0 1 7.032 3.672l1.392-2.184a36.606 36.606 0 0 0-7.176-3.36zm-2.3-4.656a8.064 8.064 0 0 1-2.352 5.16 13.971 13.971 0 0 1-6.144 2.784l1.344 2.3a15.531 15.531 0 0 0 6.936-3.576 10.389 10.389 0 0 0 2.64-6.5zM507.62 6.184v2.352h5.352v8.328h-6.048v2.376h6.048v8.28h2.448v-8.28h6.144v-2.376h-6.144V8.536h5.4V6.184zm10.58 3.168a31.36 31.36 0 0 1-1.752 5.856l2.088.744a31.389 31.389 0 0 0 1.848-6.024zm-8.232.072-2.136.72A41.321 41.321 0 0 1 509.54 16l2.136-.528a50.76 50.76 0 0 0-1.704-6.048zm-7.32-3.984-1.776 1.728a21.972 21.972 0 0 1 3.936 3.528l1.728-1.752a33.623 33.623 0 0 0-3.884-3.504zm-3.408 6.936v2.4h3.288V23.3a1.683 1.683 0 0 1-.624 1.3l.936 2.256a35.76 35.76 0 0 0 4.728-3.816l-.7-2.64c-.672.672-1.32 1.3-1.92 1.848v-9.872zm28.992-7.3a26.622 26.622 0 0 1-5.184 9.624l.84 2.664a38.355 38.355 0 0 0 1.824-2.112v12.292h2.52V11.56a29.256 29.256 0 0 0 2.376-5.376zm1.8 4.7V12.2h6.288v4.32h-5.088V27.5h2.5v-.94h7.9v.94h2.468V16.528h-5.232v-4.32h6.576V9.784h-6.576V5.32h-2.544v4.464zm3.7 14.376V18.9h7.9v5.26zM557.3 6.04v7.392h10.776V6.04zm8.352 5.184h-5.9V8.248h5.9zm-9 3.936v2.256h4.632v2.256H557.2V21.9h4.08v2.448h-5.54V26.7h13.608v-2.348h-5.52V21.9h4.2v-2.228h-4.2v-2.256h4.944V15.16zm-8.976-3.552v2.376h2.952a17.8 17.8 0 0 1-3.576 6.192l1.1 2.808a25.606 25.606 0 0 0 2.76-5.28v9.7h2.376V17.32q.756 1.152 1.8 2.88l1.416-2.136a55.934 55.934 0 0 0-3.216-3.144v-.936h2.616v-2.376h-2.616V8.536c1.1-.192 2.184-.432 3.216-.72l-.888-2.352A37.073 37.073 0 0 1 547.7 6.88l.5 2.352c.912-.1 1.824-.192 2.712-.312v2.688zm36.072-6.48-2.548.432a12.17 12.17 0 0 1 .816 1.464h-8.88V14.7c-.048 4.752-.7 8.448-1.944 11.112l1.9 1.7Q575.5 22.7 575.636 14.7V9.328h17.424v-2.3h-8.472c-.288-.7-.552-1.328-.84-1.9zm-2.4 8.208-1.488 1.44a40.53 40.53 0 0 1 3.96 2.208h-7.56v2.3h6.768v5.136c0 .624-.288.936-.84.936-1.032 0-2.112-.072-3.264-.168l.528 2.352h3.576a2.22 2.22 0 0 0 2.5-2.52v-5.732h4.488a14.639 14.639 0 0 1-2.424 2.784l1.872 1.488a20.436 20.436 0 0 0 3.264-4.632v-1.944h-6.148l.288-.288c-.216-.168-.432-.336-.648-.48a25.882 25.882 0 0 0 4.56-3.768v-1.776h-13.128v2.112h9.96a25.119 25.119 0 0 1-3.264 2.208 42.144 42.144 0 0 0-3-1.656z" transform="translate(30 51)"/>
    </g>
    <path id="세로-11" data-name="세로" class="cls-10" transform="translate(668 1590)" d="M0 0h1v50H0z"/>
    <path id="세로-12" data-name="세로" class="cls-10" transform="translate(668 2130)" d="M0 0h1v50H0z"/>
    <path id="세로-13" data-name="세로" class="cls-10" transform="translate(668 1410)" d="M0 0h1v50H0z"/>
    <path id="세로-14" data-name="세로" class="cls-10" transform="translate(668 1770)" d="M0 0h1v50H0z"/>
    <path id="세로-15" data-name="세로" class="cls-10" transform="translate(668 1950)" d="M0 0h1v50H0z"/>
    <g id="fc_box_small_link" transform="translate(494 740)">
        <g transform="translate(-494 -740)" style="filter:url(#box-10)">
            <g id="box-20" data-name="box" class="cls-4">
                <path class="cls-11" d="M0 0h348v130H0z" transform="translate(494 740)"/>
                <path class="cls-12" d="M1 1h346v128H1z" transform="translate(494 740)"/>
            </g>
        </g>
        <g id="btn" transform="translate(103 73)">
            <g id="그룹_668" data-name="그룹 668" transform="translate(-545.845)">
                <g id="ico_fc_pdf-2" data-name="ico_fc_pdf" transform="translate(648.845 2)">
                    <g id="그룹_1025-2" data-name="그룹 1025" transform="translate(-1101.5 -1126.5)">
                        <path id="패스_6892-2" data-name="패스 6892" class="cls-7" d="M1108.592 1130.5h7.714l4.286 4.286v7.714h-12z" transform="translate(-3.092)"/>
                        <path id="패스_6891-2" data-name="패스 6891" class="cls-7" d="M1052.728 2115.047v5h5" transform="translate(59.772 -984.547)"/>
                    </g>
                </g>
                <path id="패스_10833" data-name="패스 10833" class="cls-8" d="M-37.3-8.928v1.056h2.3v1.088h1.424v-1.088h3.176v1.088h1.424v-1.088h2.352v-.976h1.216v-3.168h-5.824a12.55 12.55 0 0 0-.656-1.232l-1.7.288a8.514 8.514 0 0 1 .7.944h-5.744v3.088zm10.416-.32h-2.1v-.912H-30.4v.912h-3.168v-.9h-1.424v.9h-2.16v-1.328h10.272zm-.288 2.928h-9.664v5.152h1.5v-3.744h6.656v3.744h1.5zm-5.772 2.02v1.136A2.959 2.959 0 0 1-34.368-.96 14.542 14.542 0 0 1-39.344.368l.832 1.28a14.042 14.042 0 0 0 5.248-1.68 4.169 4.169 0 0 0 1.584-2.1V0a1.315 1.315 0 0 0 1.5 1.472h3.312a2.132 2.132 0 0 0 1.328-.336c.32-.256.528-1.008.656-2.272l-1.376-.448a2.865 2.865 0 0 1-.3 1.472.787.787 0 0 1-.576.212h-2.592c-.32 0-.48-.144-.48-.4v-2.388h-1.328l.048-.48V-4.3zm10.128-8.272V1.664h1.488v-12.816h2.192a43.229 43.229 0 0 1-1.7 4.336A6.029 6.029 0 0 1-19.2-3.184a.69.69 0 0 1-.224.576 2.193 2.193 0 0 1-.9.192 5.793 5.793 0 0 1-.816-.08l.5 1.536a4 4 0 0 0 2.48-.624 2.225 2.225 0 0 0 .48-1.6A8.013 8.013 0 0 0-19.3-7.04c.64-1.52 1.2-2.96 1.68-4.336v-1.2zm7.232 4.288h4.24v1.456h-4.24zm4.24-1.376h-4.24v-1.488h4.24zm-2.736 4.22a10.149 10.149 0 0 0 4.72 6.976l.848-1.344A8.979 8.979 0 0 1-11.184-2.1 7.657 7.657 0 0 0-8.9-3.968l-.976-.976a7.889 7.889 0 0 1-2.016 1.776 7.888 7.888 0 0 1-.828-2.272h2.864v-7.152h-7.216V-.368c0 .208-.144.352-.4.448l.368 1.328a35.29 35.29 0 0 0 4.416-1.424l-.352-1.408a18.829 18.829 0 0 1-2.544.96V-5.44zm7.9-7.6v1.648h-.86v1.408h.864v6.416h-1.04v1.408H.448v-1.408h-.912v-6.416h.832v-1.408h-.832v-1.616h-1.472v1.616H-4.7v-1.648zm1.48 9.472v-1.248h2.768v1.248zm2.768-6.416v1.264H-4.7v-1.264zM-4.7-6.144v-1.248h2.768v1.248zm2.848 4.176-1.168.752a20.14 20.14 0 0 1 1.612 2.608L-.5.752.592 1.76a10.4 10.4 0 0 0 1.92-5.248h2.72v2.912c0 .432-.176.656-.528.656C4.208.08 3.68.048 3.1.016L3.52 1.5h1.664A1.374 1.374 0 0 0 6.752-.032v-12.576H1.088v7.648A9.648 9.648 0 0 1-.288.256a21.959 21.959 0 0 0-1.568-2.224zm-3.472.032A11.583 11.583 0 0 1-7.344.752l1.2.864a13.058 13.058 0 0 0 2.032-2.96zm7.932-5.408h2.624v2.464H2.608zM5.232-8.72H2.608v-2.448h2.624zm12.624-.208v2h-3.088V-5.5h3.088v2.08h-3.968v1.44h3.968v3.644h1.52v-3.648h3.984v-1.44h-3.984V-5.5h3.088v-1.428h-3.088v-2h3.568v-1.424h-2.1A15.133 15.133 0 0 0 22-12.688l-1.44-.5a25.132 25.132 0 0 1-1.216 2.832h-2.4l.912-.464a26.248 26.248 0 0 0-1.44-2.32l-1.264.608a18.258 18.258 0 0 1 1.392 2.176h-2.256v1.424zm-7.088-4.032-1.056.992a16.617 16.617 0 0 1 2.624 2.384l1.024-1.04a17.948 17.948 0 0 0-2.592-2.336zm-2.16 4.608V-6.9h2.144v5.872a1.159 1.159 0 0 1-.4.864l.56 1.328a23.439 23.439 0 0 0 2.72-2.64l-.384-1.52c-.352.416-.7.8-1.024 1.152v-6.508zM32.192-2.88h4.736v.848h-4.736zm4.736-1.152h-4.736v-.912h4.736zM32.192-.88h4.736v.624a.478.478 0 0 1-.528.544l-1.136-.08.368 1.328h1.2c1.024 0 1.536-.5 1.536-1.472v-6.24h-7.6v7.792h1.424zm1.648-12.24v.928h-3.632v1.232h3.632v.816h-3.088v1.216h3.088v.784h-4a19.03 19.03 0 0 0-.8-2.24l-.992.336v-3.024h-1.472V1.584h1.472V-9.872a21.412 21.412 0 0 1 .864 2.7l.816-.192v.464h9.664v-1.244h-4.048v-.784h3.04v-1.216h-3.04v-.816h3.584v-1.232h-3.584v-.928zm-8.848 3.136a22.168 22.168 0 0 1-.512 4.32l1.136.32a23.116 23.116 0 0 0 .528-4.56zM-40 3h80v1h-80z" transform="translate(604.845 18)"/>
            </g>
        </g>
        <path id="패스_10831" data-name="패스 10831" class="cls-3" d="M83.82 5.2h-9.38v11.34h2.06V7.2h5.2v9.34h2.12zm-.68 17.56a2.379 2.379 0 0 0 1.56-.46c.34-.32.58-1.36.72-3.08l-1.94-.62a6.5 6.5 0 0 1-.24 1.96.5.5 0 0 1-.48.3h-1.08q-.48 0-.48-.6v-3.78h-1.6a16.546 16.546 0 0 0 .42-3.34V8.4h-1.98v4.74a11.373 11.373 0 0 1-1.28 5.2 8.7 8.7 0 0 1-4.42 3.1l1.12 1.76a9.443 9.443 0 0 0 4.86-3.5 10.185 10.185 0 0 0 .8-1.62v2.64c0 1.36.64 2.04 1.96 2.04zm-15.96-11v2h2.06v4.36c-.8.2-1.64.38-2.48.54l.5 2a48.281 48.281 0 0 0 6.42-2.04v-2c-.76.32-1.54.6-2.32.88v-3.74h2.02v-2h-2.02V7.68h2.3V5.7H66.9v1.98h2.34v4.08zm26.16.38h7.28v1.6h-7.28zm7.28 3.4v1.56h-7.28v-1.56zm0 3.36v1.62q0 .66-.72.66c-.64 0-1.34-.04-2.08-.1l.5 1.88h2.24c1.34-.04 2.02-.62 2.02-1.78V10.34h-9.04c.34-.58.66-1.16.98-1.76h10.42V6.56H95.4c.22-.6.42-1.22.62-1.86l-2.14-.26a20.76 20.76 0 0 1-.78 2.12h-5.82v2.02h4.82a21.4 21.4 0 0 1-5.36 6.1l1.36 1.78a27.325 27.325 0 0 0 3.28-3.16v9.76h1.96V18.9zm10.44-8.86h4.24v3.92h-5.64v2.02h5.64v4.36h-8.06v2.08h17.8v-2.08h-7.64v-4.36h5.96v-2.02h-5.96v-3.92h6.34V8.02h-6.34V4.74h-2.1v3.28h-3.48c.24-.76.44-1.58.62-2.44l-2.14-.4a14.73 14.73 0 0 1-3.62 7.58l1.38 1.74a14.326 14.326 0 0 0 3-4.46zm24.68-5.52a15.035 15.035 0 0 1-2.64 6.74l1.52 1.3a12.064 12.064 0 0 0 1.74-2.98h.84c-.74 3.54-2.08 6.12-4 7.76l1.34 1.56c2.18-1.96 3.68-5.08 4.52-9.32h1a27.972 27.972 0 0 1-1.62 6.74 14.719 14.719 0 0 1-3.68 4.96l1.3 1.66a17.17 17.17 0 0 0 4.1-5.72 32.328 32.328 0 0 0 1.76-7.64h.72c-.04 5.66-.1 8.96-.22 9.9a1.708 1.708 0 0 1-1.84 1.66c-.48 0-1.02-.04-1.66-.1l.48 1.86c.72.06 1.24.1 1.52.1q3.06 0 3.42-2.58.3-2.4.3-12.84h-7.56c.22-.8.42-1.64.62-2.54zm-6.72 6.02h1.1v4.78a27.1 27.1 0 0 1-3.26.88l.5 2.02c.94-.28 1.86-.6 2.76-.92v5.78h2.04v-6.6c.42-.2.84-.38 1.28-.58v-1.96c-.44.2-.86.4-1.28.6v-4h1.36v-2h-1.36V4.6h-2.04v3.94h-.86c.06-.76.1-1.52.14-2.28l-1.86-.14a30.912 30.912 0 0 1-.92 6.64l1.84.52c.22-.88.4-1.8.56-2.74zm18.7-4.82v2.02h16.54V5.72zm2.96 4.22a19.567 19.567 0 0 1-2.78 4.86l1.7 1.2a22.414 22.414 0 0 0 2.9-5.18zm11.42-.08a20.525 20.525 0 0 1-2.48 4.72l1.7 1.2a22.027 22.027 0 0 0 2.58-5.04zm-7.06-1.28v3.38q-.45 5.34-8.4 9.22l1.42 1.84q6.42-3.36 8.1-7.92a15.565 15.565 0 0 0 7.78 7.92l1.42-1.84c-4.84-2.36-7.58-5.42-8.2-9.22V8.58zm12.1 5.12v2.04h7.84v4.6a.592.592 0 0 1-.68.64 21.88 21.88 0 0 1-2.24-.12l.46 2.02h2.5a1.812 1.812 0 0 0 2.08-2v-5.14h7.74V13.7h-7.74v-1.9h-2.12v1.9zm13.68-9.08a32.857 32.857 0 0 1-4.18 2.86c-2.16-.9-4.4-1.72-6.72-2.48l-1.1 1.64c1.86.58 3.72 1.24 5.58 2a35.307 35.307 0 0 1-6.84 2.32l1.08 1.78a67.664 67.664 0 0 0 8-3.14c2.14.96 4.26 2.02 6.38 3.22l1.12-1.74c-1.72-.94-3.5-1.82-5.36-2.66a33.706 33.706 0 0 0 3.8-2.72zm-9.5 11.6a19.382 19.382 0 0 1-4.26 4.6l1.24 1.64a21.9 21.9 0 0 0 4.5-4.92zm9 .06-1.38 1.3a27.017 27.017 0 0 1 4.5 4.86l1.42-1.44a36.68 36.68 0 0 0-4.54-4.72zm8.7-7.58L188 10.24c1 .34 1.98.72 2.96 1.16a15.764 15.764 0 0 1-4.2 1.18l.84 1.8a14.225 14.225 0 0 0 5.46-2 40.571 40.571 0 0 1 3.68 2.08l1.14-1.76a45.42 45.42 0 0 0-3.26-1.72 7.423 7.423 0 0 0 1.48-2.74h1.76V6.28h-4.36q-.27-.99-.54-1.8l-2.24.36a12.006 12.006 0 0 1 .66 1.44h-4.04v1.96h6.76a5.118 5.118 0 0 1-1.3 1.92 46.45 46.45 0 0 0-3.78-1.46zm5.18 5.76v8.6h2.04v-8.6zm-5.2 0v1.22a13.231 13.231 0 0 1-.52 3.6 4.36 4.36 0 0 1-1.86 2.16l1.06 1.66a5.438 5.438 0 0 0 2.48-2.58 13.589 13.589 0 0 0 .88-4.84v-1.22zm9.88-8.12v12.3h2.02V6.34zm3.56 16.68c1.44 0 2.18-.76 2.18-2.28V4.64h-2.08V20.2c0 .6-.28.92-.82.92-.82 0-1.68-.06-2.6-.14l.48 2.04zm12.54-18.36v2.76h-6.42v11.72h2.06v-1.16h4.36v5h2.12v-5h4.28V19h2.06V7.42h-6.34V4.66zm-4.36 11.36V13.6h4.36v2.42zm6.48 0V13.6h4.28v2.42zm-6.48-4.28V9.36h4.36v2.38zm6.48 0V9.36h4.28v2.38zm16.72.56c-.68.36-1.38.68-2.06 1v-3.28h2.02V8.04h-2.02v-3.4h-2.06v3.4h-2.66v1.98h2.66v4.08a26.6 26.6 0 0 1-3.06.84l.52 2.06c.84-.26 1.7-.54 2.54-.86v4.3c0 .48-.24.72-.68.72a12.107 12.107 0 0 1-1.64-.14l.48 2h1.9a1.806 1.806 0 0 0 2-2.06v-5.64c.68-.3 1.38-.62 2.06-.94zm2.7 1.96h.76a10.927 10.927 0 0 0 2.32 5.04 9.6 9.6 0 0 1-2.82 2.02l1 1.84a11.464 11.464 0 0 0 3.24-2.3 18.9 18.9 0 0 0 2.96 2.28l1.4-1.62a17.678 17.678 0 0 1-3.18-2.16 12.865 12.865 0 0 0 1.86-5.2v-1.8h-7.54V7.1h5.42a6.146 6.146 0 0 1-.26 1.88.852.852 0 0 1-.5.38 6.718 6.718 0 0 1-1.04.06c-.46 0-.84-.02-1.14-.02l.56 1.78h1.52q2.04 0 2.46-1.14a18.817 18.817 0 0 0 .4-4.82h-9.4V23.1h1.98zm2.6 0h2.98a11.544 11.544 0 0 1-1.36 3.54 8.638 8.638 0 0 1-1.62-3.54z" transform="translate(18 35)"/>
    </g>
    <path id="다각형_14" data-name="다각형 14" class="cls-10" d="M7.5 0 15 11H0z" transform="rotate(180 338 143.5)"/>
    <path id="다각형_77" data-name="다각형 77" class="cls-10" d="M7.5 0 15 11H0z" transform="rotate(180 338 373)"/>
    <path id="다각형_80" data-name="다각형 80" class="cls-10" d="M7.5 0 15 11H0z" transform="rotate(180 338 463)"/>
    <path id="다각형_81" data-name="다각형 81" class="cls-10" d="M7.5 0 15 11H0z" transform="rotate(180 338 553)"/>
    <path id="다각형_82" data-name="다각형 82" class="cls-10" d="M7.5 0 15 11H0z" transform="rotate(180 338 643)"/>
    <path id="다각형_83" data-name="다각형 83" class="cls-10" d="M7.5 0 15 11H0z" transform="rotate(180 148.5 643)"/>
    <path id="다각형_84" data-name="다각형 84" class="cls-10" d="M7.5 0 15 11H0z" transform="rotate(180 338 733)"/>
    <path id="다각형_85" data-name="다각형 85" class="cls-10" d="M7.5 0 15 11H0z" transform="rotate(180 338 823)"/>
    <path id="다각형_86" data-name="다각형 86" class="cls-10" d="M7.5 0 15 11H0z" transform="rotate(180 338 913)"/>
    <path id="다각형_87" data-name="다각형 87" class="cls-10" d="M7.5 0 15 11H0z" transform="rotate(180 338 1003)"/>
    <path id="다각형_88" data-name="다각형 88" class="cls-10" d="M7.5 0 15 11H0z" transform="rotate(180 338 1093)"/>
    <path id="다각형_79" data-name="다각형 79" class="cls-10" d="M7.5 0 15 11H0z" transform="rotate(180 528 373)"/>
    <path id="다각형_78" data-name="다각형 78" class="cls-10" d="M7.5 0 15 11H0z" transform="rotate(180 148.5 373)"/>
</svg>
