<svg id="CHN_flow_chart_4_3" xmlns="http://www.w3.org/2000/svg" width="1336" height="2280" viewBox="0 0 1336 2280">
    <defs>
        <filter id="다각형_3" x="390" y="274" width="556" height="278" filterUnits="userSpaceOnUse">
            <feOffset dy="3"/>
            <feGaussianBlur stdDeviation="3" result="blur"/>
            <feFlood flood-color="#111" flood-opacity=".102"/>
            <feComposite operator="in" in2="blur"/>
            <feComposite in="SourceGraphic"/>
        </filter>
        <filter id="box" x="105" y="634" width="556" height="148" filterUnits="userSpaceOnUse">
            <feOffset dy="3"/>
            <feGaussianBlur stdDeviation="3" result="blur-2"/>
            <feFlood flood-color="#111" flood-opacity=".102"/>
            <feComposite operator="in" in2="blur-2"/>
            <feComposite in="SourceGraphic"/>
        </filter>
        <filter id="box-2" x="675" y="634" width="556" height="148" filterUnits="userSpaceOnUse">
            <feOffset dy="3"/>
            <feGaussianBlur stdDeviation="3" result="blur-3"/>
            <feFlood flood-color="#111" flood-opacity=".102"/>
            <feComposite operator="in" in2="blur-3"/>
            <feComposite in="SourceGraphic"/>
        </filter>
        <filter id="area" x="105" y="2044" width="1126" height="148" filterUnits="userSpaceOnUse">
            <feOffset dy="3"/>
            <feGaussianBlur stdDeviation="3" result="blur-4"/>
            <feFlood flood-color="#111" flood-opacity=".102"/>
            <feComposite operator="in" in2="blur-4"/>
            <feComposite in="SourceGraphic"/>
        </filter>
        <filter id="area-2" x="105" y="94" width="1126" height="148" filterUnits="userSpaceOnUse">
            <feOffset dy="3"/>
            <feGaussianBlur stdDeviation="3" result="blur-5"/>
            <feFlood flood-color="#111" flood-opacity=".102"/>
            <feComposite operator="in" in2="blur-5"/>
            <feComposite in="SourceGraphic"/>
        </filter>
        <filter id="box-3" x="105" y="864" width="556" height="148" filterUnits="userSpaceOnUse">
            <feOffset dy="3"/>
            <feGaussianBlur stdDeviation="3" result="blur-6"/>
            <feFlood flood-color="#111" flood-opacity=".102"/>
            <feComposite operator="in" in2="blur-6"/>
            <feComposite in="SourceGraphic"/>
        </filter>
        <filter id="box-4" x="675" y="864" width="556" height="148" filterUnits="userSpaceOnUse">
            <feOffset dy="3"/>
            <feGaussianBlur stdDeviation="3" result="blur-7"/>
            <feFlood flood-color="#111" flood-opacity=".102"/>
            <feComposite operator="in" in2="blur-7"/>
            <feComposite in="SourceGraphic"/>
        </filter>
        <filter id="box-5" x="105" y="1324" width="1126" height="148" filterUnits="userSpaceOnUse">
            <feOffset dy="3"/>
            <feGaussianBlur stdDeviation="3" result="blur-8"/>
            <feFlood flood-color="#111" flood-opacity=".102"/>
            <feComposite operator="in" in2="blur-8"/>
            <feComposite in="SourceGraphic"/>
        </filter>
        <filter id="box-6" x="105" y="1504" width="1126" height="148" filterUnits="userSpaceOnUse">
            <feOffset dy="3"/>
            <feGaussianBlur stdDeviation="3" result="blur-9"/>
            <feFlood flood-color="#111" flood-opacity=".102"/>
            <feComposite operator="in" in2="blur-9"/>
            <feComposite in="SourceGraphic"/>
        </filter>
        <filter id="box-7" x="105" y="1864" width="1126" height="148" filterUnits="userSpaceOnUse">
            <feOffset dy="3"/>
            <feGaussianBlur stdDeviation="3" result="blur-10"/>
            <feFlood flood-color="#111" flood-opacity=".102"/>
            <feComposite operator="in" in2="blur-10"/>
            <feComposite in="SourceGraphic"/>
        </filter>
        <filter id="box-8" x="105" y="1684" width="1126" height="148" filterUnits="userSpaceOnUse">
            <feOffset dy="3"/>
            <feGaussianBlur stdDeviation="3" result="blur-11"/>
            <feFlood flood-color="#111" flood-opacity=".102"/>
            <feComposite operator="in" in2="blur-11"/>
            <feComposite in="SourceGraphic"/>
        </filter>
        <filter id="box-9" x="952" y="1094" width="184" height="148" filterUnits="userSpaceOnUse">
            <feOffset dy="3"/>
            <feGaussianBlur stdDeviation="3" result="blur-12"/>
            <feFlood flood-color="#111" flood-opacity=".102"/>
            <feComposite operator="in" in2="blur-12"/>
            <feComposite in="SourceGraphic"/>
        </filter>
        <filter id="box-10" x="770" y="1094" width="184" height="148" filterUnits="userSpaceOnUse">
            <feOffset dy="3"/>
            <feGaussianBlur stdDeviation="3" result="blur-13"/>
            <feFlood flood-color="#111" flood-opacity=".102"/>
            <feComposite operator="in" in2="blur-13"/>
            <feComposite in="SourceGraphic"/>
        </filter>
        <style>
            .cls-1{fill:#f8f8f8}.cls-7{fill:#fff}.cls-3{fill:red;opacity:0}.cls-13,.cls-4{fill:none}.cls-4{stroke:#326f5e;stroke-width:1.5px}.cls-5{fill:#326f5e}.cls-7{stroke:#999;stroke-width:2px}.cls-8{fill:#333}.cls-10{fill:#999}.cls-11{stroke:none}
        </style>
    </defs>
    <path id="bg" class="cls-1" d="M0 0h1336v2280H0z"/>
    <g id="fc_diamond_link" transform="translate(399 280)">
        <g transform="translate(-399 -280)" style="filter:url(#다각형_3)">
            <g id="다각형_3-2" data-name="다각형 3" style="fill:#fff">
                <path class="cls-11" d="M269 258.89 2.298 130 269 1.11 535.702 130 269 258.89z" transform="translate(399 280)"/>
                <path d="M269 2.221 4.596 130 269 257.779 533.404 130 269 2.221M269 0l269 130-269 130L0 130 269 0z" style="fill:#999;stroke:none" transform="translate(399 280)"/>
            </g>
        </g>
        <g id="fc_textlink" transform="translate(386 141)">
            <g id="stack" transform="translate(-2524.094 20210)">
                <g id="ico_fc_pdf" transform="translate(2458.454 -20210)">
                    <g id="그룹_1025" data-name="그룹 1025" transform="translate(-1101.5 -1126.5)">
                        <path id="패스_6892" data-name="패스 6892" class="cls-4" d="M1108.592 1130.5h7.714l4.286 4.286v7.714h-12z" transform="translate(-3.092)"/>
                        <path id="패스_6891" data-name="패스 6891" class="cls-4" d="M1052.728 2115.047v5h5" transform="translate(59.772 -984.547)"/>
                    </g>
                </g>
                <path id="패스_10845" data-name="패스 10845" class="cls-5" d="M-47.632-3.056a9.07 9.07 0 0 1-.176 2.064c-.1.224-.176.384-.88.384-.624 0-.88-.064-.88-.432v-4.736A20.586 20.586 0 0 0-46.5-9.04l-.9-.944A18.587 18.587 0 0 1-49.568-7.3v-5.248H-50.8V-.576c0 .928.48 1.184 2.064 1.184 1.392 0 1.728-.16 1.968-.768a9.175 9.175 0 0 0 .32-2.4zm-8.544-9.5h-1.232v2.72H-58.9v1.184h1.488v3.072l-1.7.672.352 1.248c.464-.208.912-.384 1.344-.576v3.372c0 .288-.1.416-.464.432h-.176a5.521 5.521 0 0 1-.912-.1L-58.672.7a5.822 5.822 0 0 0 .9.08c1.328 0 1.6-.448 1.6-1.44v-4.16c.512-.256 1.008-.5 1.5-.768l-.1-1.216c-.448.24-.928.464-1.408.688v-2.54h1.456V-9.84h-1.456zm5.04 10.64c-.592.272-1.232.512-1.92.768v-5.828h1.92v-1.2h-1.92v-4.384H-54.3V-.736l-1.264.352L-55.2.9c1.6-.544 2.88-1.04 4.112-1.584zm11.392-10.7a14.979 14.979 0 0 1-2.864 6.112l.9 1.1q.5-.672.96-1.392V.976h1.3V.08h6.768v-1.168h-3.248v-1.92h2.728v-1.136h-2.736V-5.92h2.736v-1.136h-2.736V-8.9h3.008v-1.136h-2.912c.256-.7.464-1.392.7-2.144l-1.28-.3a23.518 23.518 0 0 1-.752 2.448H-39.2a23.6 23.6 0 0 0 .736-2.272zm-3.2 7.184a18.06 18.06 0 0 1-2.288 4.856l1.024.96a30.09 30.09 0 0 0 2.256-4.928zM-41.9-9.1a23.045 23.045 0 0 0-2.128-2.768l-1.008.832a18 18 0 0 1 2.1 2.832zm2.448 6.1h2.252v1.92h-2.256zm0-5.888h2.252v1.84h-2.256zm0 2.976h2.252v1.776h-2.256zm20.08 1.44v-1.16h-3.072v-1.44h2.032v-.864a11.043 11.043 0 0 0 .96.752l.864-1.024a10.576 10.576 0 0 1-3.84-4.3h-1.552a9.575 9.575 0 0 1-3.472 4.5l.752 1.04a10.72 10.72 0 0 0 1.088-.864v.768h1.9v1.44h-2.8v1.144h2.8V-.9c0 .352-.08.448-.5.448a6.224 6.224 0 0 1-1.052-.108l.3 1.232a5.374 5.374 0 0 0 .976.112c1.376 0 1.536-.416 1.536-1.456V-4.48zm-7.84-7.536h-3.792V.96h1.232v-8.1l-.016-.256v-3.484H-28a27.217 27.217 0 0 1-1.44 3.632 5.233 5.233 0 0 1 1.568 3.312.714.714 0 0 1-.752.752 2.885 2.885 0 0 1-.912-.16l.208 1.184a2.274 2.274 0 0 0 .88.208 1.624 1.624 0 0 0 1.76-1.856A5.444 5.444 0 0 0-28.16-7.36c.592-1.3 1.1-2.544 1.68-4.1zm4.1.592a10.772 10.772 0 0 0 2.4 3.216h-4.528a11.953 11.953 0 0 0 2.12-3.224zm-2.56 7.632a10.5 10.5 0 0 1-1.872 3.2l1 .584a14.845 14.845 0 0 0 1.936-3.376zm6.832 3.008c-.32-.464-.688-.976-.992-1.52a9.813 9.813 0 0 1-.816-1.5l-1.008.5A20.957 20.957 0 0 0-19.84-.128zm7.3-9.488-2.464.016c.208-.672.352-1.376.5-2.08l-1.344-.24a16.081 16.081 0 0 1-2.608 6.7l.992.816a14.811 14.811 0 0 0 2.1-4.032h2.352a14.9 14.9 0 0 1-.848 3.3c-.624-.48-1.232-.88-1.872-1.28l-.672.992a17.773 17.773 0 0 1 1.964 1.48 12.249 12.249 0 0 1-3.92 4.448l.816 1.1a13.636 13.636 0 0 0 5.584-8.588 11.966 11.966 0 0 0 1.648 2.064V.944H-8v-5.3a18.493 18.493 0 0 0 2.32 1.588l.688-1.216A14.267 14.267 0 0 1-8-6.032v-6.5h-1.312v5.136a10.686 10.686 0 0 1-1.008-1.36l-.512.48.24-1.456zM-59.68 3h55.36v1h-55.36zM3.3-10.128v1.472h4.48v8.032c0 .544-.3.832-.9.832-.7 0-1.456-.032-2.224-.1l.32 1.492h2.432a1.662 1.662 0 0 0 1.9-1.84v-8.416h1.652v-1.472H9.312v-3.024H7.776v3.024zm-5.54 1.136-1.024.96A53.988 53.988 0 0 1-.32-4.464 12.45 12.45 0 0 1-3.7-.656l.868 1.328A16.112 16.112 0 0 0 .592-3.2c.5.72.944 1.424 1.344 2.128l1.12-1.12a49.74 49.74 0 0 0-1.7-2.464 14.382 14.382 0 0 0 1.264-5.856v-1.12h-5.612v1.472h4.256a13.512 13.512 0 0 1-.88 4.224A63.65 63.65 0 0 0-2.24-8.992zM4.368-7.04l-1.152.848a27.524 27.524 0 0 1 2.352 3.408l1.2-.832a25.417 25.417 0 0 0-2.4-3.424zm9.84-2.128v2.96h3.072a12.478 12.478 0 0 1-4.352 1.344L13.52-3.6a12.4 12.4 0 0 0 5.152-1.888c.224.192.448.416.672.64a20.825 20.825 0 0 1-6.32 2.384l.752 1.28a19.271 19.271 0 0 0 6.272-2.736 6.649 6.649 0 0 1 .384.752 22.909 22.909 0 0 1-7.568 3.136l.768 1.312a23.411 23.411 0 0 0 7.136-3.088 3.117 3.117 0 0 1 .032.4 1.811 1.811 0 0 1-.4 1.36 2.278 2.278 0 0 1-1.136.368c-.384 0-.88.016-1.456.016l.48 1.392c.416 0 .784-.016 1.136-.048a4.2 4.2 0 0 0 2.224-.7 3.263 3.263 0 0 0 .7-2.384 6.459 6.459 0 0 0-.288-1.568l.512-.16a11.748 11.748 0 0 0 3.616 4.144l1.04-1.28A9.087 9.087 0 0 1 23.856-3.6a16.058 16.058 0 0 0 2.464-1.216l-.992-1.136A14.36 14.36 0 0 1 21.5-4.208a8.124 8.124 0 0 0-1.7-2h6.144v-3.808H22.08a13.821 13.821 0 0 0 1.264-1.168v-.976h-4.88c.224-.24.464-.48.7-.736l-1.6-.352a15.068 15.068 0 0 1-5.148 3.328l.96 1.152c.272-.132.544-.272.832-.4zm5.92-.848h-4.416a15.232 15.232 0 0 0 1.376-.96h4.3c-.412.336-.844.656-1.26.96zm4.3 2.544H20.48a5.833 5.833 0 0 0 .544-1.3h3.408zm-5.648 0h-3.052v-1.3h3.76a4.268 4.268 0 0 1-.704 1.3zm18.756-1.456v2h-3.088V-5.5h3.088v2.08h-3.968v1.44h3.968v3.644h1.52v-3.648h3.984v-1.44h-3.984V-5.5h3.088v-1.428h-3.088v-2h3.568v-1.424h-2.1a15.133 15.133 0 0 0 1.152-2.336l-1.44-.5a25.132 25.132 0 0 1-1.216 2.832h-2.4l.912-.464a26.248 26.248 0 0 0-1.44-2.32l-1.264.608a18.258 18.258 0 0 1 1.392 2.176h-2.252v1.424zm-7.088-4.032-1.056.992a16.617 16.617 0 0 1 2.624 2.384l1.024-1.04a17.948 17.948 0 0 0-2.592-2.336zm-2.16 4.608V-6.9h2.144v5.872a1.159 1.159 0 0 1-.4.864l.56 1.328a23.438 23.438 0 0 0 2.72-2.64l-.384-1.52c-.352.416-.7.8-1.024 1.152v-6.508zM51.872-2.88h4.736v.848h-4.736zm4.736-1.152h-4.736v-.912h4.736zM51.872-.88h4.736v.624a.478.478 0 0 1-.528.544l-1.136-.08.368 1.328h1.2c1.024 0 1.536-.5 1.536-1.472v-6.24h-7.6v7.792h1.424zm1.648-12.24v.928h-3.632v1.232h3.632v.816h-3.088v1.216h3.088v.784h-4a19.031 19.031 0 0 0-.8-2.24l-.992.336v-3.024h-1.472V1.584h1.472V-9.872a21.411 21.411 0 0 1 .864 2.7l.816-.192v.464h9.664v-1.244h-4.048v-.784h3.04v-1.216h-3.04v-.816h3.584v-1.232h-3.584v-.928zm-8.848 3.136a22.168 22.168 0 0 1-.512 4.32l1.136.32a23.116 23.116 0 0 0 .528-4.56zM-4.32 3h64v1h-64z" transform="translate(2394.774 -20194)"/>
            </g>
        </g>
        <path id="패스_10844" data-name="패스 10844" d="M5.884 6.712a23.665 23.665 0 0 1-3.24 8.712l2.184 1.416A27.462 27.462 0 0 0 7.06 12.4h4.176v3.912H5.644v2.28h5.592v4.776H3.1V25.7h18.552v-2.332h-7.944v-4.776h5.856v-2.28h-5.856V12.4h6.96v-2.28h-6.96V5.752h-2.472v4.368h-3.48c.264-.96.48-1.944.648-2.928zm18.552.72a39.038 39.038 0 0 1-1.056 7.536l2.02 1.056a27.65 27.65 0 0 0 .744-3.672h1.008v4.488c-1.248.48-2.472.912-3.576 1.32l.648 2.472c.96-.384 1.968-.84 2.928-1.248v7.224H29.5V18.28c.768-.36 1.488-.744 2.088-1.032l-.1-2.3.264.192a20.834 20.834 0 0 0 1.872-3.528h.648a17.777 17.777 0 0 1-4.632 9.072l1.56 1.608a22.293 22.293 0 0 0 5.328-10.68h1.032c-.648 4.536-2.688 9.648-6.528 13.008l1.584 1.7c4.272-4.008 6.264-9.12 7.152-14.712h.384c-.12 4.9-.408 9.84-.96 11.664-.12.48-.288.7-.96.7H38a12.78 12.78 0 0 1-2.28-.264l.48 2.472a14.474 14.474 0 0 0 2.184.168c1.824.024 2.664-.576 3-2.232.624-2.736.984-7.752 1.056-14.784h-7.996a29.085 29.085 0 0 0 .888-3.192l-2.256-.48a26.485 26.485 0 0 1-1.776 5.732V10.12h-1.8V5.728h-2.352v4.392H26.4c.072-.84.1-1.656.144-2.4zm5.52 6.312 1.488 1.176-1.944.888v-3.456h1.3c-.244.456-.532.912-.844 1.392zm15.408-7.08v2.424h19.848V6.664zm3.552 5.064a23.481 23.481 0 0 1-3.336 5.832L47.62 19a26.9 26.9 0 0 0 3.48-6.216zm13.7-.1a24.629 24.629 0 0 1-2.972 5.672l2.04 1.44a26.433 26.433 0 0 0 3.1-6.048zM54.148 10.1v4.056q-.54 6.408-10.08 11.064l1.7 2.208q7.7-4.032 9.72-9.5c1.632 3.984 4.728 7.152 9.336 9.5l1.7-2.208c-5.808-2.832-9.1-6.5-9.84-11.064V10.1zm14.52 6.144v2.448h9.408v5.52a.711.711 0 0 1-.816.768 26.256 26.256 0 0 1-2.688-.144l.552 2.424h3a2.174 2.174 0 0 0 2.5-2.4v-6.172h9.288V16.24H80.62v-2.28h-2.544v2.28zm16.416-10.9a39.429 39.429 0 0 1-5.016 3.432A111.215 111.215 0 0 0 72 5.8l-1.32 1.968c2.232.7 4.464 1.488 6.7 2.4a42.369 42.369 0 0 1-8.208 2.784l1.3 2.136a81.2 81.2 0 0 0 9.6-3.768 91.542 91.542 0 0 1 7.656 3.864l1.34-2.084a95.341 95.341 0 0 0-6.432-3.2A40.449 40.449 0 0 0 87.2 6.64zm-11.4 13.92a23.258 23.258 0 0 1-5.112 5.52l1.488 1.968a26.278 26.278 0 0 0 5.4-5.9zm10.8.072L82.828 20.9a32.42 32.42 0 0 1 5.4 5.832L89.932 25a44.014 44.014 0 0 0-5.448-5.664zm19.224-14.328-2.64.432a16.932 16.932 0 0 1 1.008 2.088h-8.328V9.9h4.224l.792 2.928H93.94v5.544a13.181 13.181 0 0 1-1.92 7.368l1.9 1.7c1.632-2.28 2.472-5.3 2.568-9.072v-3.12h16.944v-2.416H108a20.78 20.78 0 0 0 .94-2.932h3.984V7.528h-8.28a21.512 21.512 0 0 0-.936-2.52zm-2.472 7.824-.792-2.932h6.1a18.16 18.16 0 0 1-.96 2.928zm19.176-6.792v8.568h13.8V6.04zm11.28 6.216h-8.76V8.392h8.76zm-5.472 3.936h-9.048v10.944h2.448v-1.128h4.18v1.128h2.424zm-6.6 7.488v-5.136h4.18v5.136zm17.808-7.488h-9.336v10.944h2.448v-1.128h4.392v1.128h2.5zm-6.888 7.488v-5.136h4.392v5.136zm15.792-9.24v4.584h5.616v.888h-6.768V27.5h2.3v-5.62h4.464v1.56c-1.152.1-2.328.168-3.5.24l.5 2.04c2.736-.264 5.328-.576 7.776-.96a5.517 5.517 0 0 0 .192.6l-.552-.024.552 2.088h2.448c1.512 0 2.28-.792 2.28-2.376v-5.136h-7.34v-.888h5.712V14.44H154.3v-.864c2.5-.12 4.68-.288 6.552-.48l-1.032-1.752c-3.984.384-8.808.576-14.52.576l.6 1.8q3.2 0 6.048-.072v.792zm7.824 7.44h1.44q.252.54.5 1.152l-1.944.216zm3.624-4.608h-3.48v-1.056h3.48zm-5.832 0h-3.36v-1.056h3.36zm5.544 8.112 1.2-.528a40.524 40.524 0 0 0-1.2-2.976h1.9v2.688c0 .576-.24.864-.7.864zm1.3-17.4V9.16H144.8V7.984zm-13.992 3h16.368V6.04h-18.796v7.3a29.24 29.24 0 0 1-2.208 12.072l1.872 1.7a32.185 32.185 0 0 0 2.76-13.776zm21.284-4.944v2.448h8.16v5.568H164.6v2.5h9.648v7.416c0 .648-.36.984-1.08.984-1.1 0-2.28-.048-3.5-.144l.528 2.424h3.84c1.824 0 2.736-.888 2.736-2.616v-8.068H186v-2.5h-9.24V8.488h7.584V6.04zm29.376 9.48c-.648.264-1.3.528-1.944.768v-4.416h2.112V9.448h-2.112V5.3h-2.448v4.148h-2.424v2.424h2.424v5.184c-.912.24-1.824.432-2.736.6l.6 2.4c.72-.192 1.416-.384 2.136-.6v4.752c0 .576-.288.864-.816.864a10.5 10.5 0 0 1-1.7-.168l.528 2.448h2.04a2.174 2.174 0 0 0 2.4-2.5V18.64c.648-.24 1.3-.5 1.944-.768zm3.312-.912h2.952V12.16h-2.952V5.416H196.3v18.1a1.381 1.381 0 0 1-1.056 1.44l.624 2.328a41.127 41.127 0 0 0 6.048-1.848l-.456-2.3a19.572 19.572 0 0 1-2.688 1.008zm8.352 12.648a2.572 2.572 0 0 0 2.04-.768c.48-.528.816-2.208 1.008-5.016l-2.28-.72a12.672 12.672 0 0 1-.408 3.576.9.9 0 0 1-.816.552h-.936q-.72 0-.72-.792v-9.6a33.73 33.73 0 0 0 5.04-2.184l-1.44-2.064a20.891 20.891 0 0 1-3.6 1.776V5.368h-2.472V24.64c0 1.728.792 2.616 2.424 2.616zm7.344-21.384-2.16 1.344a43.854 43.854 0 0 1 3.576 5.76l2.088-1.44a45.578 45.578 0 0 0-3.504-5.664zm1.272 10.584a99.946 99.946 0 0 1-3.384 9.888l2.376 1.056c1.2-3.12 2.3-6.48 3.288-10.032zm6.72-.1h4.2v2.5h-4.2zm0 4.776h4.2V23.9h-4.2zm0 5.088h11.808V23.9h-5.184v-2.76h4.224v-2.28h-4.224v-2.5h4.176v-2.3h-4.176v-2.572h4.68V9.136H229.4a55.49 55.49 0 0 0-1.224-4.056l-2.424.672a35.256 35.256 0 0 1 1.272 3.384h-4.2a32.9 32.9 0 0 0 1.128-3.384l-2.376-.48A26.245 26.245 0 0 1 217.4 14.3l.816 2.592q.936-1.188 1.8-2.448V27.52h2.448zm4.2-14.736v2.568h-4.2v-2.564zm20.04-1.772v2.424h6.648V23.92q0 1.224-1.368 1.224c-1.032 0-2.112-.072-3.264-.168l.552 2.448h3.576q3.024 0 3.024-2.88V12.136h2.4V9.712h-2.4V5.248h-2.52v4.464zm-8.184 1.752-1.7 1.608c1.632 1.824 3.1 3.576 4.392 5.3a18.727 18.727 0 0 1-5.016 5.52l1.44 2.16a25.006 25.006 0 0 0 5.016-5.64 39.67 39.67 0 0 1 1.92 3.048l1.872-1.872a52.329 52.329 0 0 0-2.5-3.576 21.406 21.406 0 0 0 1.848-8.736v-1.82h-8.52V9.88h6.332a19.951 19.951 0 0 1-1.248 6.072 88.872 88.872 0 0 0-3.836-4.488zm9.936 2.928-1.92 1.392a37.612 37.612 0 0 1 3.5 5.088L252 19.48a38.68 38.68 0 0 0-3.548-5.088zm14.592-3.024v4.392h4.368a19.169 19.169 0 0 1-6.312 1.848l.96 2.088a18.942 18.942 0 0 0 7.728-2.76c.288.24.576.528.864.816a31.429 31.429 0 0 1-9.384 3.432l1.224 2.112a30.384 30.384 0 0 0 9.312-4.032 5.4 5.4 0 0 1 .5.984 34.594 34.594 0 0 1-11.28 4.584l1.272 2.136a35.651 35.651 0 0 0 10.536-4.488c0 .1.024.24.024.384a2.476 2.476 0 0 1-.576 1.92 3.066 3.066 0 0 1-1.632.528c-.576.024-1.32.048-2.208.048l.768 2.28q.936 0 1.728-.072a6.192 6.192 0 0 0 3.384-1.08c.72-.672 1.08-1.9 1.08-3.624a9.5 9.5 0 0 0-.408-2.28 3.834 3.834 0 0 1 .624-.192A17.635 17.635 0 0 0 281 26.584l1.7-2.16a12.577 12.577 0 0 1-4.92-4.776 24.994 24.994 0 0 0 3.6-1.728l-1.656-1.9a21.573 21.573 0 0 1-5.64 2.544 12 12 0 0 0-2.352-2.808h9.024V9.9h-5.616a26.104 26.104 0 0 0 1.752-1.608V6.688h-7.224c.336-.336.672-.7 1.008-1.032l-2.64-.6a22.314 22.314 0 0 1-7.68 4.92l1.56 1.92c.384-.196.744-.36 1.128-.528zM272 9.9h-6.384c.624-.408 1.224-.84 1.824-1.3h6.26c-.576.488-1.152.92-1.7 1.3zm6.288 3.792h-5.548a9.279 9.279 0 0 0 .7-1.728h4.848zm-8.328 0h-4.44v-1.724h5.376a6.75 6.75 0 0 1-.94 1.732zm22.032-6.648h-7.056v18.172h2.352v-1.584h2.376v1.08h2.328zm-4.7 14.232V9.352h2.376V21.28zm7.824-11.568-1.424 8.192h9.648c0 3.264-.216 5.232-.6 5.9s-1.56 1.008-3.528 1.008a16.968 16.968 0 0 1-2.212-.264l.792 2.616a19.765 19.765 0 0 0 2.04.12c2.448 0 4.056-.48 4.824-1.392.744-.912 1.128-4.368 1.128-10.368H303.2l1.416-9.456h-11.28v2.4h8.448l-1.1 7.056H296.4l1.152-5.688zm-2.544 10.416v2.356h9.48v-2.352zm22.195-.208v-.265a3.249 3.249 0 0 1 1.906-3.182 4.53 4.53 0 0 0 2.544-4.086c0-2.892-2.312-4.591-5.586-4.591-2.992 0-5.445 1.583-5.511 4.873h3.331a2.09 2.09 0 0 1 2.155-2.1 1.926 1.926 0 0 1 2.055 1.923c0 1.094-.779 1.823-1.8 2.47-1.392.878-2.18 1.773-2.2 4.691v.265zm-1.483 5.287a1.96 1.96 0 1 0 0-3.92 1.96 1.96 0 1 0 0 3.92z" transform="translate(108 98)" style="fill:#111"/>
    </g>
    <g id="fc_box_medium_link" transform="translate(114 640)">
        <g transform="translate(-114 -640)" style="filter:url(#box)">
            <g id="box-11" data-name="box" class="cls-7">
                <path class="cls-11" d="M0 0h538v130H0z" transform="translate(114 640)"/>
                <path class="cls-13" d="M1 1h536v128H1z" transform="translate(114 640)"/>
            </g>
        </g>
        <g id="fc_textlink-2" data-name="fc_textlink" transform="translate(386 76)">
            <g id="stack-2" data-name="stack" transform="translate(-2524.094 20210)">
                <g id="ico_fc_pdf-2" data-name="ico_fc_pdf" transform="translate(2444.774 -20209)">
                    <g id="그룹_1025-2" data-name="그룹 1025" transform="translate(-1101.5 -1126.5)">
                        <path id="패스_6892-2" data-name="패스 6892" class="cls-4" d="M1108.592 1130.5h7.714l4.286 4.286v7.714h-12z" transform="translate(-3.092)"/>
                        <path id="패스_6891-2" data-name="패스 6891" class="cls-4" d="M1052.728 2115.047v5h5" transform="translate(59.772 -984.547)"/>
                    </g>
                </g>
                <path id="패스_10849" data-name="패스 10849" class="cls-5" d="M-40.208-6.32c-.432.192-.88.4-1.312.576v-2.608h1.392V-9.52h-1.392v-3.024h-1.264v3.024h-.768c.08-.608.1-1.184.144-1.76l-1.152-.144a14.254 14.254 0 0 1-.864 4.784l1.1.56a14 14 0 0 0 .608-2.272h.928v3.1c-.832.32-1.648.592-2.416.848l.352 1.3 2.064-.8V.96h1.264v-5.408c.384-.192.768-.352 1.136-.512v.624h4.88v3.472c0 .32-.128.448-.608.448a6.559 6.559 0 0 1-1.44-.144l.276 1.28a8.6 8.6 0 0 0 1.44.128c1.376 0 1.616-.48 1.616-1.376v-3.808h1.536v-1.152h-1.536v-1.456h1.536v-1.168H-36V-9.76h2.768v-1.168H-36v-1.632h-1.28v1.632h-2.656v1.168h2.656v1.648h-3.168v1.168h4.948v1.456h-4.688zm3.152 4.448c-.288-.336-.576-.72-.864-1.072a10.661 10.661 0 0 0-.928-1.072l-.976.72a13.619 13.619 0 0 1 1.712 2.224zm13.728-8.828v-1.14H-28v1.14h1.056a10.45 10.45 0 0 1-1.744 5.2l.8.992a10.233 10.233 0 0 0 1.616-3.36h1.488a19.534 19.534 0 0 1-.432 2.816q-.528-.528-1.152-1.056l-.576.944a12.327 12.327 0 0 1 1.328 1.404A9.17 9.17 0 0 1-28.288.08l.88.96c2.784-2.416 3.76-5.84 3.888-9.984h-2.464c.128-.624.224-1.232.288-1.76zm-5.6 11.66v-9.92a27 27 0 0 0 .928-3.3l-1.168-.32A16.833 16.833 0 0 1-31.5-6.448l.624 1.216q.408-.576.768-1.2V.96zm9.536-13.488h-1.232V-.912c0 .368-.128.512-.672.512a10.566 10.566 0 0 1-1.44-.128l.3 1.216a11.616 11.616 0 0 0 1.488.1c1.2 0 1.552-.352 1.552-1.456zm-2.24 10.176v-9.072h-1.136v9.072zM-45.84 3h27.68v1h-27.68zm35.3-13.128v1.472h4.48v8.032c0 .544-.3.832-.9.832-.7 0-1.456-.032-2.224-.1l.32 1.488h2.432a1.662 1.662 0 0 0 1.9-1.84v-8.412h1.652v-1.472h-1.648v-3.024h-1.536v3.024zm-5.54 1.136-1.024.96a53.988 53.988 0 0 1 2.944 3.568 12.45 12.45 0 0 1-3.376 3.808l.864 1.328A16.112 16.112 0 0 0-13.248-3.2c.5.72.944 1.424 1.344 2.128l1.12-1.12a49.74 49.74 0 0 0-1.7-2.464 14.382 14.382 0 0 0 1.264-5.856v-1.12h-5.616v1.472h4.256a13.512 13.512 0 0 1-.88 4.224 61.336 61.336 0 0 0-2.62-3.056zm6.608 1.952-1.152.848a27.524 27.524 0 0 1 2.352 3.408l1.2-.832a25.417 25.417 0 0 0-2.4-3.424zm9.84-2.128v2.96H3.44A12.478 12.478 0 0 1-.912-4.864L-.32-3.6a12.4 12.4 0 0 0 5.152-1.888c.224.192.448.416.672.64a20.825 20.825 0 0 1-6.32 2.384l.752 1.28A19.271 19.271 0 0 0 6.208-3.92a6.649 6.649 0 0 1 .384.752A22.909 22.909 0 0 1-.976-.032l.768 1.312a23.411 23.411 0 0 0 7.136-3.088 3.117 3.117 0 0 1 .032.4 1.811 1.811 0 0 1-.4 1.36A2.278 2.278 0 0 1 5.424.32c-.384 0-.88.016-1.456.016l.48 1.392c.416 0 .784-.016 1.136-.048a4.2 4.2 0 0 0 2.224-.7 3.263 3.263 0 0 0 .7-2.384 6.459 6.459 0 0 0-.288-1.568l.512-.16a11.748 11.748 0 0 0 3.616 4.144l1.04-1.28A9.087 9.087 0 0 1 10.016-3.6a16.058 16.058 0 0 0 2.464-1.216l-.992-1.136a14.36 14.36 0 0 1-3.824 1.744 8.124 8.124 0 0 0-1.7-2h6.144v-3.808H8.24a13.821 13.821 0 0 0 1.26-1.168v-.976H4.624c.224-.24.464-.48.7-.736l-1.6-.352A15.068 15.068 0 0 1-1.424-9.92l.96 1.152c.272-.132.544-.272.832-.4zm5.92-.848H1.872a15.232 15.232 0 0 0 1.376-.96h4.3c-.412.336-.848.656-1.26.96zm4.3 2.544H6.64a5.833 5.833 0 0 0 .544-1.3h3.408zm-5.648 0H1.888v-1.3h3.76a4.268 4.268 0 0 1-.704 1.3zM23.7-8.928v2h-3.092V-5.5H23.7v2.08h-3.972v1.44H23.7v3.644h1.52v-3.648h3.98v-1.44h-3.984V-5.5H28.3v-1.428h-3.084v-2h3.568v-1.424h-2.1a15.133 15.133 0 0 0 1.152-2.336l-1.44-.5a25.132 25.132 0 0 1-1.216 2.832h-2.4l.912-.464a26.248 26.248 0 0 0-1.44-2.32l-1.264.608a18.258 18.258 0 0 1 1.392 2.176h-2.252v1.424zm-7.092-4.032-1.056.992a16.617 16.617 0 0 1 2.624 2.384l1.024-1.04a17.948 17.948 0 0 0-2.592-2.336zm-2.16 4.608V-6.9h2.144v5.872a1.159 1.159 0 0 1-.4.864l.56 1.328a23.439 23.439 0 0 0 2.72-2.64l-.384-1.52c-.352.416-.7.8-1.024 1.152v-6.508zM38.032-2.88h4.736v.848h-4.736zm4.736-1.152h-4.736v-.912h4.736zM38.032-.88h4.736v.624a.478.478 0 0 1-.528.544L41.1.208l.368 1.328h1.2c1.024 0 1.536-.5 1.536-1.472v-6.24h-7.6v7.792h1.424zm1.648-12.24v.928h-3.632v1.232h3.632v.816h-3.088v1.216h3.088v.784h-4a19.031 19.031 0 0 0-.8-2.24l-.992.336v-3.024h-1.472V1.584h1.472V-9.872a21.411 21.411 0 0 1 .864 2.7l.816-.192v.464h9.664v-1.244h-4.048v-.784h3.04v-1.216h-3.04v-.816h3.584v-1.232h-3.584v-.928zm-8.848 3.136a22.168 22.168 0 0 1-.512 4.32l1.136.32a23.116 23.116 0 0 0 .528-4.56zM-18.16 3h64v1h-64z" transform="translate(2395.094 -20194)"/>
            </g>
        </g>
        <path id="패스_10848" data-name="패스 10848" class="cls-8" d="M83.884 6.712a23.665 23.665 0 0 1-3.24 8.712l2.184 1.416a27.461 27.461 0 0 0 2.232-4.44h4.176v3.912h-5.592v2.28h5.592v4.776H81.1V25.7h18.552v-2.332h-7.944v-4.776h5.856v-2.28h-5.856V12.4h6.96v-2.28h-6.96V5.752h-2.472v4.368h-3.48c.264-.96.48-1.944.648-2.928zm32.88 7.92a24.494 24.494 0 0 1-1.776 3.24c-.24-1.152-.36-2.352-.5-3.6h5.472v-2.28h-5.62a171.52 171.52 0 0 1-.1-6.264h-2.472c0 1.224 0 2.376.024 3.456q0 1.476.072 2.808h-3.72v-2.88a27.8 27.8 0 0 0 3.12-1.152l-1.584-1.872a27.306 27.306 0 0 1-8.08 2.064l1.128 2.208c1.008-.192 1.992-.36 2.952-.6v2.232h-4.32v2.28h4.32v3.336c-1.368.48-2.808.912-4.392 1.368l.936 2.424c1.248-.456 2.376-.84 3.456-1.272v3.192c0 .432-.12.6-.672.6a13.424 13.424 0 0 1-2.016-.288l.48 2.544a14.413 14.413 0 0 0 2.136.192c1.512 0 2.328-.5 2.5-1.9l1.488 1.824a32.241 32.241 0 0 0 4.272-3.336c.144.384.336.792.528 1.2a3.2 3.2 0 0 0 2.9 2.04 1.982 1.982 0 0 0 1.224-.456c.936-.672 1.56-2.136 2.04-4.1l-2.28-1.176a6.208 6.208 0 0 1-.792 2.52.429.429 0 0 1-.288.216c-.48 0-.7-.528-.888-.936-.192-.456-.384-.888-.552-1.392a29.189 29.189 0 0 0 3.168-5.04zm-5.88.984q-1.44.612-2.736 1.08v-2.424h3.864a30.813 30.813 0 0 0 .96 6.144 22.251 22.251 0 0 1-4.848 3.816 1.584 1.584 0 0 0 .024-.336v-4.752a65.757 65.757 0 0 0 3.1-1.344zm7.968-5.3a22.975 22.975 0 0 0-2.112-3.576l-2.064.96a21.611 21.611 0 0 1 2.016 3.744zm4.512-3.648v2.42h19.848V6.664zm3.552 5.064a23.48 23.48 0 0 1-3.336 5.832L125.62 19a26.9 26.9 0 0 0 3.48-6.216zm13.7-.1a24.629 24.629 0 0 1-2.976 5.664l2.04 1.44a26.433 26.433 0 0 0 3.1-6.048zm-8.468-1.532v4.056q-.54 6.408-10.08 11.064l1.7 2.208q7.7-4.032 9.72-9.5c1.632 3.984 4.728 7.152 9.336 9.5l1.7-2.208c-5.808-2.832-9.1-6.5-9.84-11.064V10.1zm14.52 6.144v2.448h9.408v5.52a.711.711 0 0 1-.816.768 26.256 26.256 0 0 1-2.688-.144l.552 2.424h3a2.174 2.174 0 0 0 2.5-2.4v-6.172h9.288V16.24h-9.292v-2.28h-2.544v2.28zm16.416-10.9a39.429 39.429 0 0 1-5.016 3.432A111.215 111.215 0 0 0 150 5.8l-1.32 1.968c2.232.7 4.464 1.488 6.7 2.4a42.368 42.368 0 0 1-8.208 2.784l1.3 2.136a81.2 81.2 0 0 0 9.6-3.768 91.542 91.542 0 0 1 7.656 3.864l1.344-2.088a94.366 94.366 0 0 0-6.432-3.192 40.449 40.449 0 0 0 4.56-3.264zm-11.4 13.92a23.258 23.258 0 0 1-5.112 5.52l1.488 1.968a26.278 26.278 0 0 0 5.4-5.9zm10.8.072-1.656 1.56a32.42 32.42 0 0 1 5.4 5.832l1.7-1.728a44.015 44.015 0 0 0-5.444-5.664zm19.224-14.328-2.64.432a16.931 16.931 0 0 1 1.008 2.088h-8.328V9.9h4.224l.792 2.928h-4.824v5.544a13.181 13.181 0 0 1-1.92 7.368l1.9 1.7c1.632-2.28 2.472-5.3 2.568-9.072v-3.12h16.944v-2.416H186a20.781 20.781 0 0 0 .94-2.932h3.984V7.528h-8.28a21.512 21.512 0 0 0-.936-2.52zm-2.472 7.824-.792-2.932h6.1a18.16 18.16 0 0 1-.96 2.928zm19.176-6.792v8.568h13.8V6.04zm11.28 6.216h-8.76V8.392h8.76zm-5.472 3.936h-9.048v10.944h2.448v-1.128h4.18v1.128h2.424zm-6.6 7.488v-5.136h4.18v5.136zm17.808-7.488h-9.336v10.944h2.448v-1.128h4.392v1.128h2.5zm-6.888 7.488v-5.136h4.392v5.136zm15.792-9.24v4.584h5.616v.888h-6.768V27.5h2.3v-5.62h4.464v1.56c-1.152.1-2.328.168-3.5.24l.5 2.04c2.736-.264 5.328-.576 7.776-.96a5.517 5.517 0 0 0 .192.6l-.552-.024.552 2.088h2.448c1.512 0 2.28-.792 2.28-2.376v-5.136h-7.34v-.888h5.712V14.44H232.3v-.864c2.5-.12 4.68-.288 6.552-.48l-1.032-1.752c-3.984.384-8.808.576-14.52.576l.6 1.8q3.2 0 6.048-.072v.792zm7.824 7.44h1.44q.252.54.5 1.152l-1.944.216zm3.624-4.608h-3.48v-1.056h3.48zm-5.832 0h-3.36v-1.056h3.36zm5.544 8.112 1.2-.528a40.524 40.524 0 0 0-1.2-2.976h1.9v2.688c0 .576-.24.864-.7.864zm1.3-17.4V9.16H222.8V7.984zm-13.992 3h16.368V6.04h-18.796v7.3a29.24 29.24 0 0 1-2.208 12.072l1.872 1.7a32.185 32.185 0 0 0 2.76-13.776zm21.284-4.944v2.448h8.16v5.568H242.6v2.5h9.648v7.416c0 .648-.36.984-1.08.984-1.1 0-2.28-.048-3.5-.144l.528 2.424h3.84c1.824 0 2.736-.888 2.736-2.616v-8.068H264v-2.5h-9.24V8.488h7.584V6.04zm36.5-.792V7.6h-3.912v2.28h3.912v2.088h-5.232v2.352h12.96v-2.352h-5.208V9.88h4.152V7.6h-4.152V5.248zm-4.7 11.184v2.352h7.248v5.424q0 .936-.72.936a26.941 26.941 0 0 1-2.712-.168l.5 2.352h3.048c1.536 0 2.328-.84 2.328-2.52v-6.024h2.5v-2.352h-2.5v-1.3h-2.448v1.3zm2.136 2.928-1.944 1.224a27.372 27.372 0 0 1 2.736 3.72l1.992-1.392a34.763 34.763 0 0 0-2.784-3.552zm-9-6.912h1.536v5.736a38.5 38.5 0 0 1-4.368 1.032l.6 2.424c1.272-.336 2.52-.72 3.768-1.128V27.5h2.424v-7.852c.624-.24 1.272-.5 1.92-.768v-2.352c-.624.288-1.248.552-1.92.816v-4.9h1.8v-2.4h-1.8V5.32h-2.424v4.728h-1.2c.1-.864.144-1.776.192-2.688l-2.256-.168a33.1 33.1 0 0 1-1.224 7.968l2.184.624a29.366 29.366 0 0 0 .768-3.336zM296.836 6.5v2.372h1.56a17.917 17.917 0 0 1-3.192 9.192l1.272 2.448a17.693 17.693 0 0 0 1.44-2.088 21.488 21.488 0 0 1 2.4 1.992 12.329 12.329 0 0 1-4.248 4.848l1.248 2.256q6.12-3.888 7.224-13.776v-2.16h-4.2c.168-.864.312-1.776.408-2.712h4.1V6.5zm2.088 9.912a22.516 22.516 0 0 0 .888-2.544h2.448a26.3 26.3 0 0 1-.984 4.248 20.2 20.2 0 0 0-2.352-1.708zm10.224 10.92a2.188 2.188 0 0 0 2.5-2.448V5.368h-2.5V24.28c0 .528-.288.816-.864.816a20.455 20.455 0 0 1-2.352-.168l.576 2.4zM292.2 15.544v12h2.5V11.392a33.288 33.288 0 0 0 1.992-5.208l-2.376-1.1a28.632 28.632 0 0 1-4.344 9.6l.84 2.688c.48-.604.96-1.204 1.388-1.828zm13.32-8.04v14.808h2.28V7.5zm19.18 2.208v2.424h6.648V23.92q0 1.224-1.368 1.224c-1.032 0-2.112-.072-3.264-.168l.552 2.448h3.576q3.024 0 3.024-2.88V12.136h2.4V9.712h-2.4V5.248h-2.52v4.464zm-8.184 1.752-1.7 1.608c1.632 1.824 3.1 3.576 4.392 5.3a18.727 18.727 0 0 1-5.016 5.52l1.44 2.16a25.005 25.005 0 0 0 5.016-5.64 39.67 39.67 0 0 1 1.92 3.048l1.872-1.872a52.329 52.329 0 0 0-2.5-3.576 21.407 21.407 0 0 0 1.848-8.736v-1.82h-8.52V9.88h6.332a19.951 19.951 0 0 1-1.248 6.072 88.872 88.872 0 0 0-3.836-4.488zm9.936 2.928-1.92 1.392a37.609 37.609 0 0 1 3.5 5.088L330 19.48a38.685 38.685 0 0 0-3.548-5.088zm14.592-3.024v4.392h4.368a19.169 19.169 0 0 1-6.312 1.848l.96 2.088a18.942 18.942 0 0 0 7.728-2.76c.288.24.576.528.864.816a31.429 31.429 0 0 1-9.384 3.432l1.224 2.112a30.384 30.384 0 0 0 9.312-4.032 5.4 5.4 0 0 1 .5.984 34.594 34.594 0 0 1-11.28 4.584l1.272 2.136a35.651 35.651 0 0 0 10.536-4.488c0 .1.024.24.024.384a2.476 2.476 0 0 1-.576 1.92 3.066 3.066 0 0 1-1.632.528c-.576.024-1.32.048-2.208.048l.768 2.28q.936 0 1.728-.072a6.192 6.192 0 0 0 3.384-1.08c.72-.672 1.08-1.9 1.08-3.624a9.5 9.5 0 0 0-.408-2.28 3.834 3.834 0 0 1 .624-.192A17.635 17.635 0 0 0 359 26.584l1.7-2.16a12.577 12.577 0 0 1-4.92-4.776 24.994 24.994 0 0 0 3.6-1.728l-1.656-1.9a21.573 21.573 0 0 1-5.64 2.544 12 12 0 0 0-2.352-2.808h9.024V9.9h-5.616a26.104 26.104 0 0 0 1.752-1.608V6.688h-7.224c.336-.336.672-.7 1.008-1.032l-2.64-.6a22.314 22.314 0 0 1-7.68 4.92l1.56 1.92c.384-.196.744-.36 1.128-.528zM350 9.9h-6.384c.624-.408 1.224-.84 1.824-1.3h6.26c-.576.488-1.152.92-1.7 1.3zm6.288 3.792h-5.548a9.279 9.279 0 0 0 .7-1.728h4.848zm-8.328 0h-4.44v-1.724h5.376a6.75 6.75 0 0 1-.94 1.732zm22.032-6.648h-7.056v18.172h2.352v-1.584h2.376v1.08h2.328zm-4.7 14.232V9.352h2.376V21.28zm7.824-11.568-1.424 8.192h9.648c0 3.264-.216 5.232-.6 5.9s-1.56 1.008-3.528 1.008a16.968 16.968 0 0 1-2.212-.264l.792 2.616a19.765 19.765 0 0 0 2.04.12c2.448 0 4.056-.48 4.824-1.392.744-.912 1.128-4.368 1.128-10.368H381.2l1.416-9.456h-11.28v2.4h8.448l-1.1 7.056H374.4l1.152-5.688zm-2.544 10.416v2.356h9.48v-2.352zm22.195-.208v-.265a3.249 3.249 0 0 1 1.906-3.182 4.53 4.53 0 0 0 2.544-4.086c0-2.892-2.312-4.591-5.586-4.591-2.992 0-5.445 1.583-5.511 4.873h3.331a2.09 2.09 0 0 1 2.155-2.1 1.926 1.926 0 0 1 2.055 1.923c0 1.094-.779 1.823-1.8 2.47-1.392.878-2.18 1.773-2.2 4.691v.265zm-1.483 5.287a1.96 1.96 0 1 0 0-3.92 1.96 1.96 0 1 0 0 3.92z" transform="translate(30 33)"/>
    </g>
    <g id="fc_box_medium_no_btn" transform="translate(684 640)">
        <g transform="translate(-684 -640)" style="filter:url(#box-2)">
            <g id="box-12" data-name="box" style="fill:#eee;stroke:#999;stroke-width:2px">
                <path class="cls-11" d="M0 0h538v130H0z" transform="translate(684 640)"/>
                <path class="cls-13" d="M1 1h536v128H1z" transform="translate(684 640)"/>
            </g>
        </g>
        <path id="패스_10850" data-name="패스 10850" class="cls-8" d="M215.408 17.128v.312a12.214 12.214 0 0 1-.24 2.64c-.12.312-.192.576-1.056.576-.768 0-1.032-.12-1.032-.552V13.12a34.445 34.445 0 0 0 4.584-4.8l-1.68-1.872a27.739 27.739 0 0 1-2.9 3.672V2.776h-2.328v18.288c0 1.44.792 1.92 3.288 1.92 2.064 0 2.712-.264 3.12-1.368a12.8 12.8 0 0 0 .528-3.5zM202.832 2.752h-2.352v4.056h-2.16v2.3h2.16v4.252c-.888.336-1.7.648-2.448.912l.624 2.4c.624-.24 1.224-.48 1.824-.744v4.416c0 .456-.144.624-.744.624h-.216a8.663 8.663 0 0 1-1.3-.144l.5 2.4c.576.048.864.1 1.416.1 2.232 0 2.688-.888 2.688-2.544v-5.932c.72-.336 1.44-.7 2.16-1.056l-.192-2.4c-.6.336-1.272.648-1.968.984V9.112h2.016v-2.3h-2.016zm7.488 15.96c-.768.336-1.656.672-2.568 1.008v-8.16h2.592V9.208h-2.592V2.752h-2.376v17.712c-.648.192-1.32.384-1.992.552l.7 2.472a56.581 56.581 0 0 0 6.312-2.424zm16.92-16.128c-.888 3.7-2.064 6.936-4.416 9.648l1.728 2.112c.408-.528.792-1.128 1.2-1.68v10.944h2.472v-1.344h10.152v-2.232h-4.7v-2.376h3.936v-2.208h-3.936v-2.16h3.936V11.1h-3.936V8.8h4.32V6.544h-4.08c.384-1.008.744-1.992 1.128-3.1l-2.472-.6c-.36 1.272-.768 2.5-1.224 3.7H228.7a28.653 28.653 0 0 0 1.008-3.432zM222.3 13.7a26.828 26.828 0 0 1-3.48 7.3l1.944 1.8a46.227 46.227 0 0 0 3.432-7.344zm2.112-5.616a31.3 31.3 0 0 0-3.36-4.224l-1.972 1.58a29.337 29.337 0 0 1 3.312 4.3zm3.816 9.576h2.972v2.376h-2.976zm0-8.856h2.972v2.3h-2.976zm0 4.488h2.972v2.16h-2.976zm17.64-9.672h-6.192v19.94H242V11.152l-.024-.336V5.872h2.28a41.748 41.748 0 0 1-2.136 5.16c1.2 1.392 2.328 2.976 2.328 4.728a.948.948 0 0 1-.888.96 4.54 4.54 0 0 1-1.344-.24l.384 2.232.384.1a1.944 1.944 0 0 0 .864.288c1.8 0 2.76-.96 2.76-2.952a8.161 8.161 0 0 0-2.088-5.28c.264-.48.48-1.008.72-1.512l1.416 1.9a13.68 13.68 0 0 0 1.32-1.008v1.3h2.88v1.776h-4.008v2.196h4.008v4.848c0 .552-.168.648-.792.648a10.137 10.137 0 0 1-1.56-.168l.5 2.376a5.552 5.552 0 0 1 .768.1c.264.024.456.048.672.048 2.544 0 2.784-.672 2.784-2.64V15.52h4.488v-2.208h-4.488v-1.776h3.072v-1.344a7.615 7.615 0 0 0 1.08.84l1.68-1.848a16.525 16.525 0 0 1-5.784-6.36h-2.832a14.449 14.449 0 0 1-5.184 6.432 47.834 47.834 0 0 0 1.948-4.756zm1.824 12.552a17.118 17.118 0 0 1-2.712 5.064l1.944.936a27.518 27.518 0 0 0 2.784-5.28zm4.3-11.256a15.948 15.948 0 0 0 3.28 4.384h-6.288a16.249 16.249 0 0 0 3-4.388zm6.744 15.96c-.528-.792-1.08-1.584-1.536-2.376a21.447 21.447 0 0 1-1.2-2.328l-1.872.912a34.74 34.74 0 0 0 2.616 4.944zM269.8 5.996h-3.456c.264-.912.456-1.872.672-2.808l-2.592-.5a25.363 25.363 0 0 1-3.984 10.1l1.92 1.536a23.452 23.452 0 0 0 3.208-6.024h3.216a21.077 21.077 0 0 1-1.176 4.368 21.688 21.688 0 0 0-2.472-1.584L263.816 13a24.546 24.546 0 0 1 2.688 1.944 18.4 18.4 0 0 1-6.072 6.456l1.512 2.16a20.2 20.2 0 0 0 8.856-12.5 16.641 16.641 0 0 0 2.256 2.448v10.028h2.544v-7.824c.888.648 1.824 1.248 2.832 1.9l1.416-2.4a21.361 21.361 0 0 1-4.248-2.64V2.8h-2.544v7.416a10.307 10.307 0 0 1-1.156-1.344l-.792.864c.168-.888.36-1.824.5-2.736z" transform="translate(30 51)"/>
    </g>
    <g id="fc_start_end" transform="translate(114 2050)">
        <g transform="translate(-114 -2050)" style="filter:url(#area)">
            <g id="area-3" data-name="area" class="cls-7" transform="translate(114 2050)">
                <rect class="cls-11" width="1108" height="130" rx="65"/>
                <rect class="cls-13" x="1" y="1" width="1106" height="128" rx="64"/>
            </g>
        </g>
        <path id="패스_10861" data-name="패스 10861" class="cls-8" d="M433.064 21.064a20.134 20.134 0 0 0 2.112-4.728c-.048 1.1-.1 2.424-.1 3.144v7.1h2.256v-7.172c0-.936-.072-3.1-.168-4.44a17.666 17.666 0 0 0 2.16 3.792l1.008-2.28a11.879 11.879 0 0 1-2.9-4.752h2.184v-1.392h4.056a12.913 12.913 0 0 1-1.776 2.5l-.984-.96-1.464 1.392a50.485 50.485 0 0 1 3.48 3.888 18.7 18.7 0 0 1-3.984 2.832l1.392 1.872a26.2 26.2 0 0 0 9.048-9.36l-1.92-1.128a20.574 20.574 0 0 1-3 4.248l-1.056-1.224a21.1 21.1 0 0 0 2.736-4.056h4.9V8.248h-4.608v-2.52h-2.448v2.52h-4.8v1.464h-1.848V5.776h-2.26v3.936h-2.88v2.016h2.664a18.591 18.591 0 0 1-3.048 7.224zM449.12 15.3a23.835 23.835 0 0 1-10.68 9.36l1.224 1.968a29.541 29.541 0 0 0 5.976-3.928 35.921 35.921 0 0 0 4.3 3.84l1.464-1.968a22 22 0 0 1-4.224-3.288 28 28 0 0 0 3.792-4.728zM461 5.584c-.888 3.7-2.064 6.936-4.416 9.648l1.728 2.112c.408-.528.792-1.128 1.2-1.68v10.944h2.472v-1.344h10.152v-2.232h-4.7v-2.376h3.936v-2.208h-3.936v-2.16h3.936V14.1h-3.936v-2.3h4.32V9.544h-4.08c.384-1.008.744-1.992 1.128-3.1l-2.472-.6c-.36 1.272-.768 2.5-1.224 3.7h-2.64a28.647 28.647 0 0 0 1.008-3.432zM456.056 16.7a26.827 26.827 0 0 1-3.48 7.3l1.944 1.8a46.226 46.226 0 0 0 3.432-7.344zm2.112-5.616a31.3 31.3 0 0 0-3.36-4.224l-1.968 1.58a29.336 29.336 0 0 1 3.312 4.3zm3.816 9.576h2.976v2.376h-2.976zm0-8.856h2.976v2.3h-2.976zm0 4.488h2.976v2.16h-2.976zm19.872-9.412h-7.464v18.672h2.448v-2.016h2.616v1.44h2.4zm-5.016 14.328V16.24h2.616v4.968zm0-7.3V9.16h2.616v4.752zm8.688.24-2.064 1.3a52.761 52.761 0 0 1 3.312 6l2.088-1.44a52.35 52.35 0 0 0-3.336-5.856zm5.16 13.1a2.213 2.213 0 0 0 2.472-2.52v-12.88h2.592V9.424h-2.592V5.488h-2.544v3.936h-7.872v2.424h7.872v12.264c0 .576-.288.864-.816.864q-1.872 0-3.96-.144l.552 2.424zm11.448-22.08a27.428 27.428 0 0 1-4.608 9.552l.816 2.64c.624-.72 1.2-1.488 1.776-2.28v12.464h2.328v-16.32a29.641 29.641 0 0 0 1.944-4.968zm1.656 4.488v14.16h2.3V9.664zm2.928.768v2.216h12.432v-2.208h-2.4V6.16h-9v2.208h6.548v2.064zm2.928 6.216h2.088a10.939 10.939 0 0 1-.216 2.208h-4.9v2.192h4.18a9.443 9.443 0 0 1-5.448 4.608l1.56 2.04a11.647 11.647 0 0 0 5.952-5.448 18.558 18.558 0 0 0 5.376 5.3l1.632-2.064a14.767 14.767 0 0 1-5.352-4.44h5.04v-2.18h-5.616c.1-.7.168-1.44.216-2.208h4.392V14.44h-7.776c.144-.36.288-.744.456-1.152l-2.088-.456a12.476 12.476 0 0 1-2.616 4.152l1.512 1.824a14.039 14.039 0 0 0 1.608-2.16zm30.168-1.94h-14.088v12.8h2.52v-.8h10.224v.816h2.472v-6.524h-12.7v-1.128h11.568zm-11.568 9.8v-1.54h10.224v1.54zm0-6.6v-1.2h9.144v1.2zm14.88-6.24H534.1c-.144-.432-.312-.84-.456-1.224l1.1.7a19.311 19.311 0 0 0 1.344-2.16h1.08A17.58 17.58 0 0 1 538.5 11.2l2.208-.84a15.885 15.885 0 0 0-.864-1.392h3.792V6.784h-6.6c.12-.336.24-.7.36-1.056l-2.38-.528a14.059 14.059 0 0 1-2.376 4.608l.48.312-2.112.36c.192.36.384.744.576 1.176h-9.192v4.7h2.448v-2.588h15.84v2.592h2.448zm-17.352-2.692h.888a16.567 16.567 0 0 1 1.368 2.472l2.28-.888a15.11 15.11 0 0 0-.984-1.584h3.408V6.784h-5.9c.144-.36.264-.72.408-1.08l-2.424-.528a12.876 12.876 0 0 1-2.9 4.776l2.184 1.392a15.612 15.612 0 0 0 1.672-2.376zm28.68-2.928v11.64h4.92v2.208h-5.184v2.328h5.184v2.232h-6.1v2.424h14.568v-2.424h-5.976v-2.232h5.16v-2.328h-5.16V17.68h4.872V6.04zm9.888 9.432h-2.472v-2.544h2.472zm-4.968 0h-2.52v-2.544h2.52zm-2.52-4.68V8.248h2.52v2.544zm5.016-2.544h2.472v2.544h-2.472zm-15.648 5.664v2.4h2.28v5.28c-.936.24-1.9.432-2.88.6l.624 2.4a53.948 53.948 0 0 0 7.056-2.184v-2.424c-.744.312-1.488.6-2.256.864v-4.536h2.328v-2.4h-2.328v-4.9h2.616V6.64h-7.8v2.376h2.64v4.9zm27.24.024h3.144v3.312h-3.144zm3.144-2.232h-3.144v-3.36h3.144zm-3.192 7.8h3.192v4.56c0 .84-.24 1.272-.72 1.272-.576 0-1.176-.048-1.824-.1l.6 2.184h1.92c1.536 0 2.3-.864 2.3-2.544V6.088h-7.656v11.9a19 19 0 0 1-1.464 7.848l1.9 1.728a22.549 22.549 0 0 0 1.752-8.064zm9.288-2.376h.192a15.222 15.222 0 0 0 2.784 5.9 12.21 12.21 0 0 1-2.976 2.4zm0 8.5 1.2 1.872a12.724 12.724 0 0 0 3.408-2.64 19.157 19.157 0 0 0 3.456 2.616l1.224-2.136a17.836 17.836 0 0 1-3.264-2.448 17.693 17.693 0 0 0 2.064-5.88V14.92H582.7V8.344h5.472a14 14 0 0 1-.264 2.832.924.924 0 0 1-.552.6 5.156 5.156 0 0 1-1.08.1c-.648 0-1.176-.024-1.56-.024l.672 2.136h2.016c1.536 0 2.472-.528 2.76-1.536a29.154 29.154 0 0 0 .456-6.36h-10.268V27.52h2.348zm2.328-8.5h3.552a15.618 15.618 0 0 1-1.512 3.936 12.547 12.547 0 0 1-2.04-3.936zm15.552-11.952a12.336 12.336 0 0 1-5.616 5.832L596.48 13a25.821 25.821 0 0 0 2.568-1.824A27.006 27.006 0 0 0 602 13.264a39.661 39.661 0 0 1-8.352 1.9l1.152 2.352a38.726 38.726 0 0 0 9.96-2.784 32.29 32.29 0 0 0 10.032 2.712l1.128-2.328a33.987 33.987 0 0 1-8.4-1.8 20.034 20.034 0 0 0 5.064-4.176V7.12h-10.2c.264-.48.5-1.008.744-1.56zm4.152 6.936A22.2 22.2 0 0 1 600.7 9.52l.048-.048h8.112a21.674 21.674 0 0 1-4.124 2.64zm-1.824 3.988a14.416 14.416 0 0 1-.24 2.328h-7.344v2.252h6.572c-.144.24-.288.5-.456.768-1.176 1.608-3.72 2.976-7.608 4.1l1.656 2.04c4.464-1.44 7.272-3.216 8.424-5.352a8.407 8.407 0 0 0 .72-1.56h6.288a8.9 8.9 0 0 1-.552 3.7c-.288.456-.984.7-2.112.72-.816-.024-1.848-.072-3.12-.144l.624 2.256c1.2.1 2.208.144 3.048.144a4.288 4.288 0 0 0 3.528-1.272c.672-.84 1.032-3.384 1.08-7.656h-8.208a17.692 17.692 0 0 0 .168-2.328z" transform="translate(30 50)"/>
    </g>
    <path id="세로" class="cls-10" transform="translate(668 539)" d="M0 0h1v50H0z"/>
    <path id="세로-2" data-name="세로" class="cls-10" transform="translate(581 770)" d="M0 0h1v50H0z"/>
    <path id="세로-3" data-name="세로" class="cls-10" transform="translate(668 229)" d="M0 0h1v50H0z"/>
    <g id="fc_start_end-2" data-name="fc_start_end" transform="translate(114 100)">
        <g transform="translate(-114 -100)" style="filter:url(#area-2)">
            <g id="area-4" data-name="area" class="cls-7" transform="translate(114 100)">
                <rect class="cls-11" width="1108" height="130" rx="65"/>
                <rect class="cls-13" x="1" y="1" width="1106" height="128" rx="64"/>
            </g>
        </g>
        <path id="패스_10843" data-name="패스 10843" class="cls-8" d="m302.073 5.824-1.9 1.368a34.191 34.191 0 0 1 3.144 3.7l1.968-1.344a29.834 29.834 0 0 0-3.212-3.724zm8.688 10.08-2.016 1.272a42.775 42.775 0 0 1 3.576 4.968l2.208-1.536a40.594 40.594 0 0 0-3.768-4.708zM306.8 5.272V8.9c-.024.7-.072 1.392-.12 2.088h-7.44v2.448h7.176a23.215 23.215 0 0 1-1.488 5.64c-1.128 2.448-3.288 4.488-6.5 6.12l1.416 2.232a14.27 14.27 0 0 0 6.984-6.456 24.234 24.234 0 0 0 2.112-7.536h7.44c0 2.832-.072 5.472-.216 7.872s-.72 3.648-1.7 3.744a35.638 35.638 0 0 1-3.72-.24l.672 2.424a29.362 29.362 0 0 0 3.168.144c1.632 0 2.784-.984 3.432-2.9.624-1.92.936-6.432.936-13.488h-9.768c.048-.672.072-1.368.1-2.088V5.272zm23.04 10.92v2.448H335v5.616h-6.024V26.7h15.1v-2.444h-6.528V18.64h5.5v-2.448h-5.5v-4.128H335v4.128zm-4.2 2.4v8.976h2.472V15.832a29.693 29.693 0 0 0 3.24-5.112h12.72V8.272h-11.615c.36-.96.7-1.92.984-2.928l-2.592-.312a30.683 30.683 0 0 1-1.176 3.24h-6.792v2.448h5.592a27.608 27.608 0 0 1-6.456 7.608l1.608 2.088c.696-.6 1.368-1.2 2.016-1.824zm25.728-8.64v2.256h4.68v2.736h-3.912v2.208h3.912V20.3h-5.328v2.256h13.224V20.3h-2.256l1.176-.528a13.5 13.5 0 0 0-1.392-2.448l-1.992.648a12.54 12.54 0 0 1 1.3 2.328h-2.184v-3.148h3.904v-2.208h-3.912v-2.736h4.656V9.952zM367.5 6.136h-20.355v21.336h2.544v-.888h15.264v.888h2.547zm-17.808 18.1V8.488h15.264v15.744zm31.68-8.184a40.18 40.18 0 0 1 4.8 5.88l1.944-1.944a51.917 51.917 0 0 0-5.976-6.432c.168-.72.312-1.464.432-2.256h6v12.524q0 1.008-.864 1.008l-3.624-.12.672 2.5h3.768c1.7 0 2.568-.96 2.568-2.832V8.872h-8.256c.1-1.128.144-2.352.144-3.648h-2.568c0 1.3-.048 2.5-.144 3.648h-8.712V27.5h2.52V11.3h5.88a29.904 29.904 0 0 1-.5 2.328 12.154 12.154 0 0 1-5.016 6.48l1.68 2.04a13.93 13.93 0 0 0 5.249-6.1zm27.288-10.68v6.384h-4.44V27.4h2.5v-5.064h6.336V23.9c0 .792-.264 1.2-.792 1.2l-2.136-.12.648 2.376h2.28c1.656 0 2.5-.984 2.5-2.9v-12.7h-4.416V5.368zm-1.944 12.864h6.336v1.992h-6.336zm6.336-2.112h-6.336v-1.996h6.336zm-7.368-9.84-2.088 1.008a29.822 29.822 0 0 1 2.16 3.912l2.016-1.008a39.31 39.31 0 0 0-2.091-3.916zm8.424-.264a22.022 22.022 0 0 1-2.16 4.128l2.016 1.056a21.816 21.816 0 0 0 2.208-4.176zm-16.992-.672a24.93 24.93 0 0 1-3.12 7.752l2.04 1.3q.36-.576.72-1.224v1.68h1.144V17.1h-3.024v2.3h3.024v4.464c0 .432-.312.768-.912.984l1.032 2.16a28.1 28.1 0 0 0 5.688-2.16l-.432-2.184a19.268 19.268 0 0 1-2.928 1.416V19.4h3.024v-2.3h-3.024v-2.252h2.208v-2.232h-5.52c.384-.768.768-1.608 1.128-2.5h4.8V7.744h-3.984c.192-.6.36-1.224.528-1.9zM438.18 20.18h-16.851v7.44h2.471v-.984h11.9v.984h2.472zm-14.376 4.3v-2.192h11.9v2.184zM421.4 12.52v6.408h18.1V16.84h-7.368v-1.2h5.9v-1.92h-5.9v-1.128h5.856v-1.92h-5.856V9.5h6.912V7.432h-6.672a40.064 40.064 0 0 0-.936-2.352l-2.592.432a16.029 16.029 0 0 1 1.056 1.92h-4.968c.288-.576.528-1.152.768-1.776l-2.448-.48a18.621 18.621 0 0 1-5.04 7.2l.788 2.472a37.16 37.16 0 0 0 2.4-2.328zm8.256 4.32h-5.9v-1.2h5.9zm0-3.12h-5.9v-1.128h5.9zm0-3.048h-5.9V9.5h5.9zm15.054 8.858a1.956 1.956 0 1 0 0-3.912 1.956 1.956 0 1 0 0 3.912zm22.829-4.394c-1.272-1.68-2.712-3.552-3.816-4.728l-1.8 1.2a19.193 19.193 0 0 1 1.32 1.584c-1.416.144-3.24.24-5.016.312a34.033 34.033 0 0 0 1.536-3.216h7.656V8.032h-5.808v-2.28h-2.471l-.024 2.28h-5.3v.528a28.658 28.658 0 0 0-2.856-2.76l-1.66 1.512a37.739 37.739 0 0 1 3.168 3.384l1.344-1.3v.888h3.388a26.782 26.782 0 0 1-1.68 3.312c-.768.024-1.464.048-1.992.048l.288 2.3a417.52 417.52 0 0 0 10.824-.84c.336.552.672 1.032 1.008 1.536zm-1.44 5.88a15.631 15.631 0 0 1-.24 2.736c-.072.24-.336.264-.648.264s-.672-.024-.672-.264v-7.608h-2.28v8.424c0 1.248.768 1.68 2.664 1.68 2.04 0 2.448-.24 2.832-1.2a10.945 10.945 0 0 0 .48-3.216zm-8.352-4.752h-2.28v2.112c0 3.528-.792 4.968-3.408 6.576l1.584 1.752c2.9-1.848 4.1-4.056 4.1-8.208zm3.312 9.576v-9.384h-2.232v9.384zm-9.336-8.016a36.043 36.043 0 0 1-2.784 7.032l1.9 1.776a59.441 59.441 0 0 0 2.76-7.392zm1.872-3.408a41.614 41.614 0 0 0-3.5-2.808l-1.416 1.776a26.885 26.885 0 0 1 3.408 3.1zm29.5 8.28V19.24h2.805v1.1c0 .264-.072.384-.192.456a.741.741 0 0 1-.264.048h-.216a5.387 5.387 0 0 1-.576-.072c-.192-.024-.48-.1-.864-.144l.456 2.232a5.016 5.016 0 0 0 .912.12c.264.024.48.024.744.024 1.7 0 2.28-.768 2.28-2.376v-9.74h-3.38a32.237 32.237 0 0 0 3.432-3.1L486.62 6.64h-10.968v1.968h8.616c-.72.6-1.488 1.176-2.232 1.752-.864-.624-1.56-1.1-2.256-1.632l-1.92 1.008c.624.48 1.152.816 1.632 1.152h-3.6V22.84h2.376v-3.6h2.52v3.46zm-8.28-6.5h-5.064v2.232h2.616V21.4a19.888 19.888 0 0 1-2.952 2.568l1.128 2.424a30.638 30.638 0 0 0 2.928-2.928 5.325 5.325 0 0 0 2.856 2.064 24.982 24.982 0 0 0 6.264.6c2.424 0 3.648-.048 5.88-.1l.576-2.448c-2.184.12-4.32.24-6.288.264h-.72a19.247 19.247 0 0 1-5.16-.528 3.72 3.72 0 0 1-2.064-1.344zm0-3.12a18.752 18.752 0 0 0-1.776-1.368c-.624-.384-1.248-.768-1.944-1.224l-1.368 1.9a27.4 27.4 0 0 1 3.624 2.712zm.24-4.776c-.6-.456-1.1-.864-1.632-1.224-.552-.384-1.152-.768-1.824-1.2L470.132 7.6a21.968 21.968 0 0 1 3.384 2.736zm8.04 7.752h2.805v1.344h-2.808zm2.808-3.12V14.2h-2.808v-1.272zm-7.632 3.12h2.52v1.344h-2.52zm0-3.12h2.52V14.2h-2.52zm20.5 12.192v-10.9h2.208v10.9h2.376v-10.9h2.445v9.048c0 .432-.12.576-.624.576a4.949 4.949 0 0 1-1.632-.24l.528 2.448a9.617 9.617 0 0 0 1.728.144c1.68 0 2.424-.576 2.424-2.328V11.92h-8.3c.216-.816.456-1.824.672-2.808h8.688V6.88H490.7v2.232h7.344c-.216 1.056-.456 1.848-.72 2.808h-5.472v14.64h2.424V14.224h2.112v10.9zm14.441-19.06a17.288 17.288 0 0 1-1.824 5.328l2.04 1.08a10.518 10.518 0 0 0 .888-1.9h2.04v1.948h-4.728v2.18h4.728v1.608h-3.888v8.812h2.352v-6.6h1.536v8.04h2.4v-8.04h1.632v3.38c0 .336-.216.408-.624.408a2.78 2.78 0 0 1-.792-.144l.432 2.544a6.571 6.571 0 0 0 1.32.1 1.765 1.765 0 0 0 1.992-1.92v-6.576h-3.96V14.7h4.512v-2.18h-4.512v-1.944h3.768V8.368h-3.768V5.776h-2.4v2.592h-1.32l.384-1.7zm16.9-.288h-2.376v17.16c0 .672-.336.864-.816.888h-.552c-.624-.048-1.248-.168-1.9-.264l.624 2.52a15.274 15.274 0 0 0 1.824.192c2.5 0 3.192-.7 3.192-2.208zm-3.82 15.624V8.032h-2.112V21.4zm24.216-6.528v-2.208h-5.376v-2.28h4.1V8.152h-4.1V5.8h-2.5v2.352h-1.652c.144-.5.288-1.032.408-1.536l-2.184-.5a13.685 13.685 0 0 1-2.352 5.016l1.968 1.2a21.983 21.983 0 0 0 1.18-1.948h2.64v2.256h-.024v.024h-5.376v2.208zm-1.248 7.848v-6.6h-10.68v6.6zm2.064.984c-2.208.12-4.392.264-6.36.288h-.792a19.943 19.943 0 0 1-5.328-.528 2.715 2.715 0 0 1-1.632-1.152 3.206 3.206 0 0 1-.5-.72V16.48h-4.852v2.232h2.472v3.336a16.805 16.805 0 0 1-2.64 1.752l1.1 2.448a27.567 27.567 0 0 0 2.976-2.472 4.239 4.239 0 0 0 2.544 1.944 26.417 26.417 0 0 0 6.5.576h.84c1.968 0 3.072-.048 5.016-.12zm-10.248-5.352h5.664v2.136h-5.664zm-4.248-4.852a19.884 19.884 0 0 0-3.672-2.832l-1.392 1.752a19.471 19.471 0 0 1 3.576 2.952zm.408-4.9a22.233 22.233 0 0 0-3.48-2.712l-1.44 1.656a19.188 19.188 0 0 1 3.336 2.856zm18.054 10.93a1.956 1.956 0 1 0 0-3.912 1.956 1.956 0 1 0 0 3.912zm6.749-14.042-1.728 1.632a23.48 23.48 0 0 1 3.96 3.888l1.8-1.776a30.89 30.89 0 0 0-4.032-3.744zm13.656 21.624h5.5l.6-2.472q-.972.072-2.808.144c-1.248 0-2.448.024-3.648.024-1.824 0-3.432-.024-4.8-.048a7.6 7.6 0 0 1-3.12-.6 6.212 6.212 0 0 1-1.632-1.416l-.24-.24V13.36h-5.5v2.3h3.168v6.58A10.56 10.56 0 0 0 560 25.912l1.848 1.7c1.2-2.16 2.016-3.216 2.472-3.216.288 0 .576.192.888.6a5.147 5.147 0 0 0 2.472 1.656 17.753 17.753 0 0 0 3.792.408c1.511.028 2.928.052 4.223.052zm-8.3-18.288v2.328h2.544v1.632a19.363 19.363 0 0 1-.144 2.424h-3.24v2.352h2.76a7.391 7.391 0 0 1-2.664 4.056l1.512 1.992a10.356 10.356 0 0 0 3.624-6.048h3.6v6.384h2.448V17.56h3.528v-2.352h-3.528v-4.056h2.76V8.824h-2.76V5.3h-2.448v3.524h-3.024V5.248h-2.424v3.576zm4.968 2.328h3.024v4.056h-3.192a29.354 29.354 0 0 0 .168-3zm31.392-3.24h-18.12v19.2h2.52v-1.3h13.056v1.3h2.544zm-15.6 15.456V10.36h13.056v13.008zm24.6-11.52h5.088v4.7h-6.768v2.424h6.768v5.232h-9.672v2.5h21.36v-2.5h-9.168v-5.228h7.152v-2.424h-7.152v-4.7h7.608V9.424h-7.608V5.488h-2.52v3.936h-4.176c.288-.912.528-1.9.744-2.928l-2.568-.48a17.675 17.675 0 0 1-4.344 9.1l1.656 2.088a17.192 17.192 0 0 0 3.596-5.356zm29.616-6.624a18.042 18.042 0 0 1-3.168 8.088l1.824 1.56a14.478 14.478 0 0 0 2.088-3.576h1.008c-.888 4.248-2.5 7.344-4.8 9.312l1.608 1.872c2.616-2.352 4.416-6.1 5.424-11.184h1.2a33.564 33.564 0 0 1-1.944 8.088 17.663 17.663 0 0 1-4.416 5.952l1.56 1.992a20.6 20.6 0 0 0 4.92-6.864 38.8 38.8 0 0 0 2.112-9.168h.864c-.048 6.792-.12 10.752-.264 11.88a2.049 2.049 0 0 1-2.208 1.992c-.576 0-1.224-.048-1.992-.12l.576 2.232c.864.072 1.488.12 1.824.12q3.672 0 4.1-3.1.36-2.88.36-15.408h-9.072c.264-.96.5-1.968.744-3.048zm-8.071 7.224h1.32v5.736a32.519 32.519 0 0 1-3.912 1.056l.6 2.424a71.374 71.374 0 0 0 3.312-1.1V27.5h2.448v-7.92c.5-.24 1.008-.456 1.536-.7v-2.352c-.528.24-1.032.48-1.536.72v-4.8h1.632v-2.4h-1.632V5.32h-2.448v4.728h-1.032c.072-.912.12-1.824.168-2.736l-2.232-.168a37.1 37.1 0 0 1-1.1 7.968l2.208.624c.263-1.056.479-2.16.668-3.288zm22.44-5.784v2.424h19.848V6.664zm3.552 5.064a23.484 23.484 0 0 1-3.336 5.832L659 19a26.9 26.9 0 0 0 3.48-6.216zm13.7-.1a24.631 24.631 0 0 1-2.976 5.664l2.04 1.44a26.43 26.43 0 0 0 3.1-6.048zm-8.465-1.528v4.056q-.54 6.408-10.08 11.064l1.7 2.208q7.7-4.032 9.72-9.5c1.632 3.984 4.728 7.152 9.336 9.5l1.7-2.208c-5.808-2.832-9.1-6.5-9.84-11.064V10.1zm14.52 6.144v2.448h9.408v5.52a.711.711 0 0 1-.816.768 26.258 26.258 0 0 1-2.688-.144l.552 2.424h3a2.174 2.174 0 0 0 2.5-2.4v-6.172h9.288V16.24H692v-2.28h-2.544v2.28zm16.416-10.9a39.427 39.427 0 0 1-5.016 3.432 109.936 109.936 0 0 0-8.064-2.976l-1.32 1.968c2.232.7 4.464 1.488 6.7 2.4a42.369 42.369 0 0 1-8.208 2.784l1.3 2.136a81.2 81.2 0 0 0 9.6-3.768 91.542 91.542 0 0 1 7.656 3.864l1.344-2.088a94.366 94.366 0 0 0-6.432-3.192 40.447 40.447 0 0 0 4.56-3.264zm-11.4 13.92a23.256 23.256 0 0 1-5.112 5.52l1.488 1.968a26.277 26.277 0 0 0 5.4-5.9zm10.8.072-1.656 1.56a32.42 32.42 0 0 1 5.4 5.832l1.7-1.728a44.018 44.018 0 0 0-5.444-5.664zm19.224-14.328-2.64.432a16.935 16.935 0 0 1 1.008 2.088h-8.328V9.9h4.224l.792 2.928h-4.824v5.544a13.182 13.182 0 0 1-1.92 7.368l1.9 1.7c1.632-2.28 2.472-5.3 2.568-9.072v-3.12h16.944v-2.416h-5.424a20.775 20.775 0 0 0 .936-2.928h3.977V7.528h-8.28a21.507 21.507 0 0 0-.933-2.52zm-2.472 7.824-.792-2.932h6.1a18.163 18.163 0 0 1-.96 2.928zm19.176-6.792v8.568h13.8V6.04zm11.28 6.216h-8.76V8.392h8.76zm-5.471 3.936h-9.048v10.944H731v-1.128h4.176v1.128h2.424zM731 23.68v-5.136h4.176v5.136zm17.808-7.488h-9.336v10.944h2.448v-1.128h4.392v1.128h2.5zm-6.888 7.488v-5.136h4.392v5.136z" transform="translate(30 50)"/>
    </g>
    <g id="fc_box_medium" transform="translate(114 870)">
        <g transform="translate(-114 -870)" style="filter:url(#box-3)">
            <g id="box-13" data-name="box" class="cls-7">
                <path class="cls-11" d="M0 0h538v130H0z" transform="translate(114 870)"/>
                <path class="cls-13" d="M1 1h536v128H1z" transform="translate(114 870)"/>
            </g>
        </g>
        <path id="패스_10854" data-name="패스 10854" class="cls-8" d="m179.408 5.008-2.64.432a16.931 16.931 0 0 1 1.008 2.088h-8.328V9.9h4.224l.792 2.928h-4.824v5.544a13.181 13.181 0 0 1-1.92 7.368l1.9 1.7c1.632-2.28 2.472-5.3 2.568-9.072v-3.12h16.944v-2.416H183.7a20.781 20.781 0 0 0 .94-2.932h3.984V7.528h-8.28a21.512 21.512 0 0 0-.936-2.52zm-2.472 7.824-.792-2.932h6.1a18.16 18.16 0 0 1-.96 2.928zm19.176-6.792v8.568h13.8V6.04zm11.28 6.216h-8.76V8.392h8.76zm-5.472 3.936h-9.048v10.944h2.448v-1.128h4.18v1.128h2.424zm-6.6 7.488v-5.136h4.18v5.136zm17.808-7.488h-9.336v10.944h2.448v-1.128h4.392v1.128h2.5zm-6.888 7.488v-5.136h4.392v5.136zm14.976-5.112h4.608v2.016h-4.608zm4.608 4.3v4.728h2.5v-4.732H233v1.176h2.448V12.016h-7.128v-1.968h-2.5v1.968h-7.056v12.1h2.448v-1.252zm2.5-2.28v-2.02H233v2.016zm4.68-4.2h-4.68V14.32H233zm-7.176-2.064v2.064h-4.608V14.32zm11.448-7.464h-9.12q-.288-1.008-.576-1.8l-2.664.432c.216.432.432.888.624 1.368h-8.9v4.776h2.448v-2.5h15.744v2.376h2.448zm9.888 8.664c-.648.264-1.3.528-1.944.768v-4.42h2.112V9.448h-2.112V5.3h-2.448v4.148h-2.424v2.424h2.424v5.184c-.912.24-1.824.432-2.736.6l.6 2.4c.72-.192 1.416-.384 2.136-.6v4.752c0 .576-.288.864-.816.864a10.5 10.5 0 0 1-1.7-.168l.528 2.448h2.04a2.174 2.174 0 0 0 2.4-2.5V18.64c.648-.24 1.3-.5 1.944-.768zm3.312-.912h2.952V12.16h-2.952V5.416H248v18.1a1.381 1.381 0 0 1-1.056 1.44l.624 2.328a41.127 41.127 0 0 0 6.048-1.848l-.456-2.3a19.572 19.572 0 0 1-2.688 1.008zm8.352 12.648a2.572 2.572 0 0 0 2.04-.768c.48-.528.816-2.208 1.008-5.016l-2.28-.72a12.671 12.671 0 0 1-.408 3.576.9.9 0 0 1-.816.552h-.936q-.72 0-.72-.792v-9.6a33.731 33.731 0 0 0 5.04-2.184l-1.44-2.064a20.892 20.892 0 0 1-3.6 1.776V5.368h-2.476V24.64c0 1.728.792 2.616 2.424 2.616zm19.46-22.012V7.6h-3.912v2.28h3.912v2.088h-5.232v2.352h12.96v-2.352h-5.208V9.88h4.152V7.6h-4.152V5.248zm-4.7 11.184v2.352h7.248v5.424q0 .936-.72.936a26.941 26.941 0 0 1-2.712-.168l.5 2.352h3.048c1.536 0 2.328-.84 2.328-2.52v-6.024h2.5v-2.352h-2.5v-1.3h-2.448v1.3zm2.136 2.928-1.944 1.224a27.372 27.372 0 0 1 2.736 3.72l1.992-1.392a34.763 34.763 0 0 0-2.788-3.552zm-9-6.912h1.536v5.736a38.5 38.5 0 0 1-4.368 1.032l.6 2.424c1.272-.336 2.52-.72 3.768-1.128V27.5h2.424v-7.852c.624-.24 1.272-.5 1.92-.768v-2.352c-.624.288-1.248.552-1.92.816v-4.9h1.8v-2.4h-1.8V5.32h-2.424v4.728h-1.2c.1-.864.144-1.776.192-2.688l-2.256-.168a33.1 33.1 0 0 1-1.224 7.968l2.184.624a29.366 29.366 0 0 0 .764-3.336zM294.536 6.5v2.372h1.56a17.917 17.917 0 0 1-3.192 9.192l1.272 2.448a17.693 17.693 0 0 0 1.44-2.088 21.488 21.488 0 0 1 2.4 1.992 12.329 12.329 0 0 1-4.248 4.848l1.248 2.256q6.12-3.888 7.224-13.776v-2.16h-4.2c.168-.864.312-1.776.408-2.712h4.1V6.5zm2.088 9.912a22.516 22.516 0 0 0 .888-2.544h2.448a26.3 26.3 0 0 1-.984 4.248 20.2 20.2 0 0 0-2.352-1.708zm10.224 10.92a2.188 2.188 0 0 0 2.5-2.448V5.368h-2.5V24.28c0 .528-.288.816-.864.816a20.455 20.455 0 0 1-2.352-.168l.576 2.4zM289.9 15.544v12h2.5V11.392a33.288 33.288 0 0 0 1.992-5.208l-2.376-1.1a28.632 28.632 0 0 1-4.344 9.6l.84 2.688c.48-.604.96-1.204 1.388-1.828zm13.32-8.04v14.808h2.28V7.5z" transform="translate(30 50)"/>
    </g>
    <g id="fc_box_medium-2" data-name="fc_box_medium" transform="translate(684 870)">
        <g transform="translate(-684 -870)" style="filter:url(#box-4)">
            <g id="box-14" data-name="box" class="cls-7">
                <path class="cls-11" d="M0 0h538v130H0z" transform="translate(684 870)"/>
                <path class="cls-13" d="M1 1h536v128H1z" transform="translate(684 870)"/>
            </g>
        </g>
        <path id="패스_10852" data-name="패스 10852" class="cls-8" d="m194.024 5.56-1.248 1.848a17.248 17.248 0 0 1 3.864 1.848l1.344-2.016a21.124 21.124 0 0 0-3.96-1.68zm7.152-.384a8.071 8.071 0 0 1-3 4.08l1.488 1.944a12.94 12.94 0 0 0 2.208-2.232h2.4a5.432 5.432 0 0 1-1.56 2.52 11.2 11.2 0 0 1-4.824 1.92l.936 2.232c2.76-.648 4.7-1.536 5.808-2.688.216-.24.432-.5.672-.792 1.512 1.728 3.936 2.928 7.3 3.624l.888-2.184c-3.5-.624-5.88-1.776-7.152-3.408.12-.384.24-.792.336-1.224h3.24a10.89 10.89 0 0 1-.864 2.064l2.4.72a27.292 27.292 0 0 0 1.032-3.48V6.784h-9.336a10.382 10.382 0 0 0 .5-1.3zM210.9 15.9h-15.84v7.464h2.5v-5.132h10.824v4.848h2.52zm-9 2.88c-.168 2.256-.768 3.864-1.824 4.8q-1.8 1.4-7.416 1.656l1.008 2.28c4.536-.384 7.392-1.2 8.568-2.472 1.1-.96 1.848-3 2.184-6.072zm-4.944-8.592a23.1 23.1 0 0 1-4.656 3.12l1.632 1.944a22.58 22.58 0 0 0 4.464-3.36zm7.872 12.7-1.272 1.9a46.493 46.493 0 0 1 8.4 2.928l1.344-2.088a54.011 54.011 0 0 0-8.476-2.74zm13.46-15.624-2.064.672a34.325 34.325 0 0 1 1.392 4.848l1.92-.528a39.812 39.812 0 0 0-1.248-4.992zm5.88-.24a21.151 21.151 0 0 1-.864 4.992l1.848.6a19.017 19.017 0 0 0 1.1-5.3zm-7.992 6.456v2.42h3.84a17.886 17.886 0 0 1-4.224 5.5l1.056 2.616a24.972 24.972 0 0 0 3.36-5.136v8.568h2.52v-8.76c.552.816 1.2 1.848 1.92 3.048l1.488-2.232a45.991 45.991 0 0 0-3.408-3.168V15.9h3.312v-2.42h-3.312V5.368h-2.52v8.112zm16.944-8.088v13.656l-6.864 1.032.36 2.5 6.5-.984v5.856h2.472v-6.24l2.616-.384-.432-2.5-2.184.336V5.392zm-4.2 1.56-1.656 1.608a23.109 23.109 0 0 1 3.792 3.528l1.7-1.7a27.776 27.776 0 0 0-3.836-3.436zm-.576 5.64-1.68 1.584a23.688 23.688 0 0 1 3.744 3.624l1.7-1.728a28.335 28.335 0 0 0-3.764-3.48zm13.824-6.72-2.16 1.344a43.854 43.854 0 0 1 3.576 5.76l2.088-1.44a45.578 45.578 0 0 0-3.504-5.664zm1.272 10.584a99.946 99.946 0 0 1-3.384 9.888l2.376 1.056c1.2-3.12 2.3-6.48 3.288-10.032zm6.72-.1h4.2v2.5h-4.2zm0 4.776h4.2V23.9h-4.2zm0 5.088h11.808V23.9h-5.184v-2.76h4.224v-2.28h-4.224v-2.5h4.176v-2.3h-4.176v-2.572h4.68V9.136H257.1a55.49 55.49 0 0 0-1.224-4.056l-2.424.672a35.256 35.256 0 0 1 1.272 3.384h-4.2a32.9 32.9 0 0 0 1.128-3.384l-2.376-.48A26.245 26.245 0 0 1 245.1 14.3l.816 2.592q.936-1.188 1.8-2.448V27.52h2.448zm4.2-14.736v2.568h-4.2v-2.564zm27.96 5.184H268.3a35.259 35.259 0 0 0 6.792-2.4 31.49 31.49 0 0 0 7.228 2.404zM277.5 12.9a21.2 21.2 0 0 0 4.848-4.248V6.76h-9.288c.264-.384.528-.768.816-1.2l-2.476-.552a20.351 20.351 0 0 1-6.456 5.928l1.608 1.944a23.615 23.615 0 0 0 3.12-2.352 18.189 18.189 0 0 0 3.048 2.4 35.611 35.611 0 0 1-8.784 2.208l1.08 2.208c.72-.144 1.416-.264 2.136-.408V27.5h2.376v-.84h10.992v.84h2.38V16.8c.672.12 1.392.24 2.112.36l1.08-2.208A38.292 38.292 0 0 1 277.5 12.9zm-6.336-3.84.12-.12h7.872a21.39 21.39 0 0 1-4.08 2.88 16.807 16.807 0 0 1-3.916-2.756zm-1.632 15.48V22.6h4.3v1.944zm6.648 0V22.6h4.344v1.944zm-6.648-3.912v-1.9h4.3v1.9zm6.648-1.9h4.344v1.9h-4.344z" transform="translate(30 50)"/>
    </g>
    <path id="사각형_514" data-name="사각형 514" class="cls-10" transform="translate(383 589)" d="M0 0h570v1H0z"/>
    <path id="사각형_904" data-name="사각형 904" class="cls-10" transform="translate(383 820)" d="M0 0h570v1H0z"/>
    <path id="세로-4" data-name="세로" class="cls-10" transform="translate(383 590)" d="M0 0h1v50H0z"/>
    <path id="세로-5" data-name="세로" class="cls-10" transform="translate(383 821)" d="M0 0h1v50H0z"/>
    <path id="세로-6" data-name="세로" class="cls-10" transform="translate(383 1000)" d="M0 0h1v330H0z"/>
    <path id="세로-7" data-name="세로" class="cls-10" transform="translate(953 589)" d="M0 0h1v50H0z"/>
    <path id="세로-8" data-name="세로" class="cls-10" transform="translate(953 820)" d="M0 0h1v50H0z"/>
    <g id="fc_yes" transform="translate(500.592 577.704)">
        <g id="그룹_1842" data-name="그룹 1842" transform="translate(-498.592 -398.704)">
            <g id="fc_yes-2" data-name="fc_yes" transform="translate(498.592 398.704)">
                <path id="사각형_515" data-name="사각형 515" class="cls-1" d="M0 0h51.008v23.056H0z"/>
                <path id="패스_10846" data-name="패스 10846" class="cls-8" d="M-8.4-10.192v1.616h4.432V-.72q0 .82-.912.82c-.688 0-1.408-.052-2.176-.116l.368 1.632H-4.3q2.016 0 2.016-1.92v-8.272h1.6v-1.616h-1.6v-2.976h-1.68v2.976zm-5.456 1.168-1.136 1.072a53.313 53.313 0 0 1 2.928 3.536 12.484 12.484 0 0 1-3.344 3.68l.96 1.44a16.671 16.671 0 0 0 3.348-3.76c.48.688.9 1.36 1.28 2.032l1.248-1.248a35.798 35.798 0 0 0-1.664-2.384 14.271 14.271 0 0 0 1.228-5.824v-1.22h-5.68v1.616h4.224a13.3 13.3 0 0 1-.836 4.052c-.8-.992-1.644-2-2.556-2.992zm6.624 1.952-1.28.928a25.074 25.074 0 0 1 2.336 3.392l1.312-.928a25.788 25.788 0 0 0-2.368-3.392zM2.5-9.088v2.928h2.908A12.78 12.78 0 0 1 1.2-4.928l.64 1.392a12.628 12.628 0 0 0 5.152-1.84c.192.16.384.352.576.544a20.953 20.953 0 0 1-6.256 2.288l.816 1.408a20.256 20.256 0 0 0 6.208-2.688 3.6 3.6 0 0 1 .336.656 23.063 23.063 0 0 1-7.52 3.056L2 1.312A23.768 23.768 0 0 0 9.024-1.68c0 .064.016.16.016.256a1.651 1.651 0 0 1-.384 1.28 2.044 2.044 0 0 1-1.088.352C7.184.224 6.688.24 6.1.24l.512 1.52q.624 0 1.152-.048a4.128 4.128 0 0 0 2.256-.72 3.253 3.253 0 0 0 .72-2.416 6.331 6.331 0 0 0-.272-1.52 2.556 2.556 0 0 1 .416-.128 11.757 11.757 0 0 0 3.584 4.128L15.6-.384a8.385 8.385 0 0 1-3.28-3.184 16.663 16.663 0 0 0 2.4-1.152l-1.1-1.264a14.381 14.381 0 0 1-3.76 1.7A8 8 0 0 0 8.288-6.16H14.3v-3.9h-3.74c.384-.32.768-.672 1.168-1.072v-1.072H6.912c.224-.224.448-.464.672-.688l-1.76-.4A14.876 14.876 0 0 1 .7-10.016l1.04 1.28c.26-.128.5-.24.76-.352zm5.968-.976h-4.26c.416-.272.816-.56 1.216-.864H9.6c-.384.32-.768.608-1.136.864zm4.192 2.528h-3.7a6.187 6.187 0 0 0 .464-1.152h3.232zm-5.552 0H4.144v-1.152h3.584A4.5 4.5 0 0 1 7.1-7.536z" transform="translate(25.408 17.296)"/>
            </g>
        </g>
    </g>
    <g id="fc_yes-3" data-name="fc_yes" transform="translate(500.592 808.704)">
        <g id="그룹_1842-2" data-name="그룹 1842" transform="translate(-498.592 -398.704)">
            <g id="fc_yes-4" data-name="fc_yes" transform="translate(498.592 398.704)">
                <path id="사각형_515-2" data-name="사각형 515" class="cls-1" d="M0 0h51.008v23.056H0z"/>
                <path id="패스_10853" data-name="패스 10853" class="cls-8" d="M-8.4-10.192v1.616h4.432V-.72q0 .82-.912.82c-.688 0-1.408-.052-2.176-.116l.368 1.632H-4.3q2.016 0 2.016-1.92v-8.272h1.6v-1.616h-1.6v-2.976h-1.68v2.976zm-5.456 1.168-1.136 1.072a53.313 53.313 0 0 1 2.928 3.536 12.484 12.484 0 0 1-3.344 3.68l.96 1.44a16.671 16.671 0 0 0 3.348-3.76c.48.688.9 1.36 1.28 2.032l1.248-1.248a35.798 35.798 0 0 0-1.664-2.384 14.271 14.271 0 0 0 1.228-5.824v-1.22h-5.68v1.616h4.224a13.3 13.3 0 0 1-.836 4.052c-.8-.992-1.644-2-2.556-2.992zm6.624 1.952-1.28.928a25.074 25.074 0 0 1 2.336 3.392l1.312-.928a25.788 25.788 0 0 0-2.368-3.392zM2.5-9.088v2.928h2.908A12.78 12.78 0 0 1 1.2-4.928l.64 1.392a12.628 12.628 0 0 0 5.152-1.84c.192.16.384.352.576.544a20.953 20.953 0 0 1-6.256 2.288l.816 1.408a20.256 20.256 0 0 0 6.208-2.688 3.6 3.6 0 0 1 .336.656 23.063 23.063 0 0 1-7.52 3.056L2 1.312A23.768 23.768 0 0 0 9.024-1.68c0 .064.016.16.016.256a1.651 1.651 0 0 1-.384 1.28 2.044 2.044 0 0 1-1.088.352C7.184.224 6.688.24 6.1.24l.512 1.52q.624 0 1.152-.048a4.128 4.128 0 0 0 2.256-.72 3.253 3.253 0 0 0 .72-2.416 6.331 6.331 0 0 0-.272-1.52 2.556 2.556 0 0 1 .416-.128 11.757 11.757 0 0 0 3.584 4.128L15.6-.384a8.385 8.385 0 0 1-3.28-3.184 16.663 16.663 0 0 0 2.4-1.152l-1.1-1.264a14.381 14.381 0 0 1-3.76 1.7A8 8 0 0 0 8.288-6.16H14.3v-3.9h-3.74c.384-.32.768-.672 1.168-1.072v-1.072H6.912c.224-.224.448-.464.672-.688l-1.76-.4A14.876 14.876 0 0 1 .7-10.016l1.04 1.28c.26-.128.5-.24.76-.352zm5.968-.976h-4.26c.416-.272.816-.56 1.216-.864H9.6c-.384.32-.768.608-1.136.864zm4.192 2.528h-3.7a6.187 6.187 0 0 0 .464-1.152h3.232zm-5.552 0H4.144v-1.152h3.584A4.5 4.5 0 0 1 7.1-7.536z" transform="translate(25.408 17.296)"/>
            </g>
        </g>
    </g>
    <g id="fc_yes-5" data-name="fc_yes" transform="translate(779.576 577.704)">
        <g id="그룹_1842-3" data-name="그룹 1842" transform="translate(-491.576 -398.704)">
            <g id="fc_yes-6" data-name="fc_yes" transform="translate(491.576 398.704)">
                <path id="사각형_515-3" data-name="사각형 515" class="cls-1" d="M0 0h64.944v23.056H0z"/>
                <path id="패스_10847" data-name="패스 10847" class="cls-8" d="M-16.776-12.848h-1.648v2.176H-22.2v1.52h3.776v1.728H-21.7v1.5h3.264c-.032.56-.064 1.024-.128 1.488-1.392.272-2.688.512-3.856.672l.384 1.616c1.088-.208 2.016-.448 2.992-.688a6.456 6.456 0 0 1-2.8 2.7l1.144 1.32c2.688-1.728 3.92-3.456 3.92-7.856zm3.008 13.92v-3.616h4.176v-1.5h-4.176V-5.92h3.44v-1.5h-3.44V-9.1h3.952v-1.52h-3.952v-2.224h-1.648V1.072zM-1.48-10.192v1.616h4.432V-.72q0 .82-.912.82C1.352.1.632.048-.136-.016l.368 1.632h2.384q2.016 0 2.016-1.92v-8.272h1.6v-1.616h-1.6v-2.976h-1.68v2.976zm-5.456 1.168-1.136 1.072a53.313 53.313 0 0 1 2.928 3.536 12.484 12.484 0 0 1-3.344 3.68L-7.528.7a16.671 16.671 0 0 0 3.344-3.76c.48.688.9 1.36 1.28 2.032l1.248-1.248A35.798 35.798 0 0 0-3.32-4.66a14.271 14.271 0 0 0 1.232-5.82v-1.22h-5.68v1.616h4.224a13.3 13.3 0 0 1-.832 4.048 62.593 62.593 0 0 0-2.56-2.988zm6.624 1.952-1.28.928A25.074 25.074 0 0 1 .744-2.752l1.312-.928A25.788 25.788 0 0 0-.312-7.072zm9.728-2.016v2.928h2.912A12.78 12.78 0 0 1 8.12-4.928l.64 1.392a12.628 12.628 0 0 0 5.152-1.84c.192.16.384.352.576.544a20.953 20.953 0 0 1-6.256 2.288l.816 1.408a20.256 20.256 0 0 0 6.208-2.688 3.6 3.6 0 0 1 .336.656 23.063 23.063 0 0 1-7.52 3.056l.848 1.424a23.768 23.768 0 0 0 7.024-2.992c0 .064.016.16.016.256a1.651 1.651 0 0 1-.384 1.28 2.044 2.044 0 0 1-1.088.352c-.384.016-.88.032-1.472.032l.512 1.52q.624 0 1.152-.048a4.128 4.128 0 0 0 2.256-.72 3.253 3.253 0 0 0 .72-2.416 6.331 6.331 0 0 0-.272-1.52 2.556 2.556 0 0 1 .416-.128 11.757 11.757 0 0 0 3.584 4.128l1.136-1.44a8.385 8.385 0 0 1-3.28-3.184 16.663 16.663 0 0 0 2.4-1.152l-1.1-1.264a14.381 14.381 0 0 1-3.76 1.7 8 8 0 0 0-1.572-1.876h6.016v-3.9H17.48c.384-.32.768-.672 1.168-1.072v-1.072h-4.816c.224-.224.448-.464.672-.688l-1.76-.4a14.876 14.876 0 0 1-5.12 3.28l1.04 1.28c.256-.132.496-.244.752-.356zm5.968-.976h-4.256c.416-.272.816-.56 1.216-.864h4.176c-.384.32-.768.608-1.136.864zm4.192 2.528h-3.7a6.187 6.187 0 0 0 .464-1.152h3.232zm-5.552 0h-2.96v-1.152h3.584a4.5 4.5 0 0 1-.624 1.152z" transform="translate(32.424 17.296)"/>
            </g>
        </g>
    </g>
    <g id="fc_yes-7" data-name="fc_yes" transform="translate(779.576 808.704)">
        <g id="그룹_1842-4" data-name="그룹 1842" transform="translate(-491.576 -398.704)">
            <g id="fc_yes-8" data-name="fc_yes" transform="translate(491.576 398.704)">
                <path id="사각형_515-4" data-name="사각형 515" class="cls-1" d="M0 0h64.944v23.056H0z"/>
                <path id="패스_10851" data-name="패스 10851" class="cls-8" d="M-16.776-12.848h-1.648v2.176H-22.2v1.52h3.776v1.728H-21.7v1.5h3.264c-.032.56-.064 1.024-.128 1.488-1.392.272-2.688.512-3.856.672l.384 1.616c1.088-.208 2.016-.448 2.992-.688a6.456 6.456 0 0 1-2.8 2.7l1.144 1.32c2.688-1.728 3.92-3.456 3.92-7.856zm3.008 13.92v-3.616h4.176v-1.5h-4.176V-5.92h3.44v-1.5h-3.44V-9.1h3.952v-1.52h-3.952v-2.224h-1.648V1.072zM-1.48-10.192v1.616h4.432V-.72q0 .82-.912.82C1.352.1.632.048-.136-.016l.368 1.632h2.384q2.016 0 2.016-1.92v-8.272h1.6v-1.616h-1.6v-2.976h-1.68v2.976zm-5.456 1.168-1.136 1.072a53.313 53.313 0 0 1 2.928 3.536 12.484 12.484 0 0 1-3.344 3.68L-7.528.7a16.671 16.671 0 0 0 3.344-3.76c.48.688.9 1.36 1.28 2.032l1.248-1.248A35.798 35.798 0 0 0-3.32-4.66a14.271 14.271 0 0 0 1.232-5.82v-1.22h-5.68v1.616h4.224a13.3 13.3 0 0 1-.832 4.048 62.593 62.593 0 0 0-2.56-2.988zm6.624 1.952-1.28.928A25.074 25.074 0 0 1 .744-2.752l1.312-.928A25.788 25.788 0 0 0-.312-7.072zm9.728-2.016v2.928h2.912A12.78 12.78 0 0 1 8.12-4.928l.64 1.392a12.628 12.628 0 0 0 5.152-1.84c.192.16.384.352.576.544a20.953 20.953 0 0 1-6.256 2.288l.816 1.408a20.256 20.256 0 0 0 6.208-2.688 3.6 3.6 0 0 1 .336.656 23.063 23.063 0 0 1-7.52 3.056l.848 1.424a23.768 23.768 0 0 0 7.024-2.992c0 .064.016.16.016.256a1.651 1.651 0 0 1-.384 1.28 2.044 2.044 0 0 1-1.088.352c-.384.016-.88.032-1.472.032l.512 1.52q.624 0 1.152-.048a4.128 4.128 0 0 0 2.256-.72 3.253 3.253 0 0 0 .72-2.416 6.331 6.331 0 0 0-.272-1.52 2.556 2.556 0 0 1 .416-.128 11.757 11.757 0 0 0 3.584 4.128l1.136-1.44a8.385 8.385 0 0 1-3.28-3.184 16.663 16.663 0 0 0 2.4-1.152l-1.1-1.264a14.381 14.381 0 0 1-3.76 1.7 8 8 0 0 0-1.572-1.876h6.016v-3.9H17.48c.384-.32.768-.672 1.168-1.072v-1.072h-4.816c.224-.224.448-.464.672-.688l-1.76-.4a14.876 14.876 0 0 1-5.12 3.28l1.04 1.28c.256-.132.496-.244.752-.356zm5.968-.976h-4.256c.416-.272.816-.56 1.216-.864h4.176c-.384.32-.768.608-1.136.864zm4.192 2.528h-3.7a6.187 6.187 0 0 0 .464-1.152h3.232zm-5.552 0h-2.96v-1.152h3.584a4.5 4.5 0 0 1-.624 1.152z" transform="translate(32.424 17.296)"/>
            </g>
        </g>
    </g>
    <g id="fc_box_big_no_btn" transform="translate(114 1330)">
        <g transform="translate(-114 -1330)" style="filter:url(#box-5)">
            <g id="box-15" data-name="box" class="cls-7">
                <path class="cls-11" d="M0 0h1108v130H0z" transform="translate(114 1330)"/>
                <path class="cls-13" d="M1 1h1106v128H1z" transform="translate(114 1330)"/>
            </g>
        </g>
        <path id="패스_10857" data-name="패스 10857" class="cls-8" d="m488.408 5.008-2.64.432a16.935 16.935 0 0 1 1.008 2.088h-8.328V9.9h4.224l.792 2.928h-4.824v5.544a13.181 13.181 0 0 1-1.92 7.368l1.9 1.7c1.632-2.28 2.472-5.3 2.568-9.072v-3.12h16.944v-2.416H492.7a20.783 20.783 0 0 0 .94-2.932h3.984V7.528h-8.28a21.512 21.512 0 0 0-.936-2.52zm-2.472 7.824-.792-2.932h6.1a18.16 18.16 0 0 1-.96 2.928zm19.176-6.792v8.568h13.8V6.04zm11.28 6.216h-8.76V8.392h8.76zm-5.472 3.936h-9.048v10.944h2.448v-1.128h4.18v1.128h2.424zm-6.6 7.488v-5.136h4.18v5.136zm17.808-7.488h-9.336v10.944h2.448v-1.128h4.392v1.128h2.5zm-6.888 7.488v-5.136h4.392v5.136zm18-17.5v2.356h5.352v8.328h-6.048v2.376h6.048v8.28h2.448v-8.28h6.144v-2.376h-6.144V8.536h5.4V6.184zm10.584 3.168a31.36 31.36 0 0 1-1.752 5.856l2.088.744a31.389 31.389 0 0 0 1.848-6.024zm-8.232.072-2.136.72A41.317 41.317 0 0 1 535.16 16l2.136-.528a50.759 50.759 0 0 0-1.704-6.048zm-7.32-3.984L526.5 7.168a21.97 21.97 0 0 1 3.936 3.528l1.728-1.752a33.615 33.615 0 0 0-3.892-3.504zm-3.408 6.936v2.4h3.288V23.3a1.683 1.683 0 0 1-.624 1.3l.936 2.256a35.766 35.766 0 0 0 4.728-3.816l-.7-2.64c-.672.672-1.32 1.3-1.92 1.848v-9.872zm28.008-.216v2.352h6V23.9h-.024a7.553 7.553 0 0 1-4.176-3.48 28.85 28.85 0 0 0 1.056-3.84l-2.424-.432a18.013 18.013 0 0 1-4.512 9.288l1.608 2.016a16.8 16.8 0 0 0 3.336-4.776 9.608 9.608 0 0 0 3.72 3.072c2.208.912 5.856 1.368 10.992 1.368h2.088l.5-2.472c-1.272.12-2.5.192-3.7.192a45.366 45.366 0 0 1-5.976-.384v-4.228h6.816v-2.352h-6.816v-3.36h5.808V12.16zm17.28-4.68h-8.76c-.312-.888-.624-1.7-.96-2.424l-2.688.432A17.192 17.192 0 0 1 558.8 7.48h-8.952v5.688h2.452V9.784h15.4v3.264h2.448z" transform="translate(30 51)"/>
    </g>
    <g id="fc_box_big_no_btn-2" data-name="fc_box_big_no_btn" transform="translate(114 1510)">
        <g transform="translate(-114 -1510)" style="filter:url(#box-6)">
            <g id="box-16" data-name="box" class="cls-7">
                <path class="cls-11" d="M0 0h1108v130H0z" transform="translate(114 1510)"/>
                <path class="cls-13" d="M1 1h1106v128H1z" transform="translate(114 1510)"/>
            </g>
        </g>
        <path id="패스_10858" data-name="패스 10858" class="cls-8" d="m488.408 5.008-2.64.432a16.935 16.935 0 0 1 1.008 2.088h-8.328V9.9h4.224l.792 2.928h-4.824v5.544a13.181 13.181 0 0 1-1.92 7.368l1.9 1.7c1.632-2.28 2.472-5.3 2.568-9.072v-3.12h16.944v-2.416H492.7a20.783 20.783 0 0 0 .94-2.932h3.984V7.528h-8.28a21.512 21.512 0 0 0-.936-2.52zm-2.472 7.824-.792-2.932h6.1a18.16 18.16 0 0 1-.96 2.928zm19.176-6.792v8.568h13.8V6.04zm11.28 6.216h-8.76V8.392h8.76zm-5.472 3.936h-9.048v10.944h2.448v-1.128h4.18v1.128h2.424zm-6.6 7.488v-5.136h4.18v5.136zm17.808-7.488h-9.336v10.944h2.448v-1.128h4.392v1.128h2.5zm-6.888 7.488v-5.136h4.392v5.136zm14.976-5.112h4.608v2.016h-4.608zm4.608 4.3v4.728h2.5v-4.732H542v1.176h2.448V12.016h-7.128v-1.968h-2.5v1.968h-7.056v12.1h2.448v-1.252zm2.5-2.28v-2.02H542v2.016zm4.68-4.2h-4.68V14.32H542zm-7.176-2.064v2.064h-4.608V14.32zm11.448-7.464h-9.12q-.288-1.008-.576-1.8l-2.664.432c.216.432.432.888.624 1.368h-8.9v4.776h2.448v-2.5h15.744v2.376h2.448zm9.888 8.664c-.648.264-1.3.528-1.944.768v-4.42h2.112V9.448h-2.112V5.3h-2.448v4.148h-2.424v2.424h2.424v5.184c-.912.24-1.824.432-2.736.6l.6 2.4c.72-.192 1.416-.384 2.136-.6v4.752c0 .576-.288.864-.816.864a10.5 10.5 0 0 1-1.7-.168l.528 2.448h2.04a2.174 2.174 0 0 0 2.4-2.5V18.64c.648-.24 1.3-.5 1.944-.768zm3.312-.912h2.952V12.16h-2.952V5.416H557v18.1a1.381 1.381 0 0 1-1.056 1.44l.624 2.328a41.128 41.128 0 0 0 6.048-1.848l-.456-2.3a19.57 19.57 0 0 1-2.688 1.008zm8.352 12.648a2.572 2.572 0 0 0 2.04-.768c.48-.528.816-2.208 1.008-5.016l-2.28-.72a12.673 12.673 0 0 1-.408 3.576.9.9 0 0 1-.816.552h-.936q-.72 0-.72-.792v-9.6a33.729 33.729 0 0 0 5.04-2.184l-1.44-2.064a20.891 20.891 0 0 1-3.6 1.776V5.368h-2.476V24.64c0 1.728.792 2.616 2.424 2.616z" transform="translate(30 51)"/>
    </g>
    <g id="fc_box_big_no_btn-3" data-name="fc_box_big_no_btn" transform="translate(114 1870)">
        <g transform="translate(-114 -1870)" style="filter:url(#box-7)">
            <g id="box-17" data-name="box" class="cls-7">
                <path class="cls-11" d="M0 0h1108v130H0z" transform="translate(114 1870)"/>
                <path class="cls-13" d="M1 1h1106v128H1z" transform="translate(114 1870)"/>
            </g>
        </g>
        <path id="패스_10860" data-name="패스 10860" class="cls-8" d="M460.688 6.712a11.272 11.272 0 0 1-4.8 3.624l.792 2.016c.5-.264.984-.456 1.44-.72v8.04h9.864v.888h-11.9v1.848h4.608l-1.608 1.248a12.65 12.65 0 0 1 2.712 2.808l1.824-1.416a13.954 13.954 0 0 0-2.784-2.64h7.152v.984c0 .648-.5.7-1.2.7a6.075 6.075 0 0 1-.912-.072 6.777 6.777 0 0 1-1.056-.168l.528 2.28.84.144a8.7 8.7 0 0 0 .912.048c2.4 0 3.216-.48 3.216-2.424v-1.492h4.7V20.56h-4.7v-.888h2.664V11.3h-5.184v-.912h1.92V9.016a14.386 14.386 0 0 0 4.968 2.952l.648-2.352a11.818 11.818 0 0 1-5.5-3.6H462.9v1.992h5.736l.912.888h-7.828c.264-.288.5-.6.816-.936zm8.376 6.336c-.1.744-.12.84-.576.84h-.408c-.168-.024-.288-.12-.288-.384v-.528h3.024V15.9H460.3v-2.924h2.28a4.544 4.544 0 0 1-2.016 1.344l.936 1.488c1.752-.744 2.664-1.584 3.1-2.832h1.368v1.416c0 .648.552 1.008 2.424 1.008 1.416 0 1.776-.216 2.016-.7a4.141 4.141 0 0 0 .312-1.224zM460.3 17.32h10.512v.7H460.3zm2.784-6.024H458.7a13.482 13.482 0 0 0 2.612-1.996v1.08h1.8c0 .34-.024.652-.024.92zm1.9-.912h.984v.916h-1.032c.024-.268.048-.6.048-.916zM495.9 26.2v-2.064h-8.424V23.08h7.024v-1.824h-7.032v-1.1h6.336v-7.7h-6.336v-1.04h8.04v-2.04h-8.04V8.224c2.112-.168 4.248-.384 6.36-.72l-1.44-1.92a78.591 78.591 0 0 1-14.328.984l.84 1.992c2.016-.024 4.032-.1 6.048-.192v1.008h-7.68v2.04h7.68v1.032h-6.024v7.7h6.024v1.1h-6.788v1.832h6.792v1.056h-8.112V26.2zm-8.424-9.024h3.888v1.1h-3.888zm3.888-2.832v1.032h-3.888v-1.032zm-9.96 2.832h3.552v1.1H481.4zm0-2.832h3.552v1.032H481.4zm19.56-9v4.272H498.3v2.424h2.64a21.62 21.62 0 0 1-3.432 7.272l1.08 2.736a31.91 31.91 0 0 0 2.376-4.992V27.5h2.472V16.264c.576.816 1.224 1.824 1.968 3.024l1.416-2.136q-1.728-2.016-3.384-3.672v-1.44h2.52V9.616h-2.52V5.344zm7.1 10.92a25.739 25.739 0 0 1-3.1 7.8l2.184 1.392a31.04 31.04 0 0 0 3.192-8.688zm9.456-.216-2.232.768a90.705 90.705 0 0 1 2.328 8.9l2.3-1.032a80.243 80.243 0 0 0-2.396-8.636zm-5.808 11.184a2.22 2.22 0 0 0 2.5-2.52v-10.08h5.616v-2.4h-13.68v2.4h5.568v9.456c0 .624-.288.96-.84.96a16.441 16.441 0 0 1-2.112-.144l.528 2.328zm-4.32-20.76v2.376h11.184V6.472zm23.5-.024V18.4h11.736V6.448zM540.1 16h-6.72V8.872h6.72zM525.032 5.44l-1.752 1.728a22.563 22.563 0 0 1 3.912 3.5l1.7-1.728a31.4 31.4 0 0 0-3.86-3.5zm-3.36 6.936v2.4h3.24V23.3a1.683 1.683 0 0 1-.624 1.3l.96 2.256a35.391 35.391 0 0 0 4.7-3.84l-.7-2.616c-.672.672-1.32 1.3-1.92 1.848v-9.872zm11.712 7.008a26.343 26.343 0 0 1-4.08 6.672l2.208 1.608a30.526 30.526 0 0 0 4.08-7.224zm6.552-.12-2.04 1.3a54.244 54.244 0 0 1 4.1 6.984l2.16-1.512a58.992 58.992 0 0 0-4.22-6.772zm9.024-13.92v4.272h-2.66v2.424h2.64a21.62 21.62 0 0 1-3.432 7.272l1.08 2.736a31.9 31.9 0 0 0 2.376-4.992V27.5h2.472V16.264c.576.816 1.224 1.824 1.968 3.024l1.416-2.136q-1.728-2.016-3.384-3.672v-1.44h2.52V9.616h-2.52V5.344zm7.1 10.92a25.741 25.741 0 0 1-3.1 7.8l2.184 1.392a31.039 31.039 0 0 0 3.192-8.688zm9.456-.216-2.232.768a90.739 90.739 0 0 1 2.328 8.9l2.3-1.032a80.257 80.257 0 0 0-2.392-8.636zm-5.808 11.184a2.22 2.22 0 0 0 2.5-2.52v-10.08h5.616v-2.4h-13.68v2.4h5.568v9.456c0 .624-.288.96-.84.96a16.441 16.441 0 0 1-2.112-.144l.528 2.328zm-4.32-20.76v2.376h11.184V6.472zm16.536-.6-2.16 1.344a43.854 43.854 0 0 1 3.576 5.76l2.088-1.44a45.581 45.581 0 0 0-3.5-5.664zm1.276 10.584a99.962 99.962 0 0 1-3.384 9.888l2.376 1.056c1.2-3.12 2.3-6.48 3.288-10.032zm6.72-.1h4.2v2.5h-4.2zm0 4.776h4.2V23.9h-4.2zm0 5.088h11.808V23.9h-5.184v-2.76h4.224v-2.28h-4.224v-2.5h4.176v-2.3h-4.176v-2.572h4.68V9.136h-4.368a55.49 55.49 0 0 0-1.224-4.056l-2.424.672a35.252 35.252 0 0 1 1.272 3.384h-4.2a32.9 32.9 0 0 0 1.128-3.384l-2.376-.48a26.244 26.244 0 0 1-4.176 9.024l.816 2.592q.936-1.188 1.8-2.448v13.08h2.448zm4.2-14.736v2.568h-4.2v-2.564z" transform="translate(30 51)"/>
    </g>
    <g id="fc_box_big_no_btn-4" data-name="fc_box_big_no_btn" transform="translate(114 1690)">
        <g transform="translate(-114 -1690)" style="filter:url(#box-8)">
            <g id="box-18" data-name="box" class="cls-7">
                <path class="cls-11" d="M0 0h1108v130H0z" transform="translate(114 1690)"/>
                <path class="cls-13" d="M1 1h1106v128H1z" transform="translate(114 1690)"/>
            </g>
        </g>
        <path id="패스_10859" data-name="패스 10859" class="cls-8" d="M310.533 6.064a17.288 17.288 0 0 1-1.824 5.328l2.04 1.08a10.522 10.522 0 0 0 .888-1.9h2.04v1.948h-4.728v2.18h4.728v1.608h-3.888v8.812h2.352v-6.6h1.536v8.04h2.4v-8.04h1.632v3.38c0 .336-.216.408-.624.408a2.779 2.779 0 0 1-.792-.144l.432 2.544a6.571 6.571 0 0 0 1.32.1 1.765 1.765 0 0 0 1.992-1.92v-6.576h-3.96V14.7h4.512v-2.18h-4.512v-1.944h3.768V8.368h-3.768V5.776h-2.4v2.592h-1.32l.384-1.7zm16.9-.288h-2.376v17.16c0 .672-.336.864-.816.888h-.552c-.624-.048-1.248-.168-1.9-.264l.624 2.52a15.273 15.273 0 0 0 1.824.192c2.5 0 3.192-.7 3.192-2.208zm-3.82 15.624V8.032H321.5V21.4zm24.216-6.528v-2.208h-5.376v-2.28h4.1V8.152h-4.1V5.8h-2.5v2.352H338.3c.144-.5.288-1.032.408-1.536l-2.184-.5a13.685 13.685 0 0 1-2.352 5.016l1.968 1.2a21.968 21.968 0 0 0 1.176-1.944h2.64v2.252h-.024v.024h-5.376v2.208zm-1.248 7.848v-6.6H335.9v6.6zm2.064.984c-2.208.12-4.392.264-6.36.288h-.792a19.943 19.943 0 0 1-5.328-.528 2.715 2.715 0 0 1-1.632-1.152 3.208 3.208 0 0 1-.5-.72V16.48h-4.848v2.232h2.472v3.336a16.8 16.8 0 0 1-2.64 1.752l1.1 2.448a27.561 27.561 0 0 0 2.976-2.472 4.239 4.239 0 0 0 2.544 1.944 26.417 26.417 0 0 0 6.5.576h.84c1.968 0 3.072-.048 5.016-.12zM338.4 18.352h5.664v2.136H338.4zm-4.251-4.852a19.883 19.883 0 0 0-3.672-2.832l-1.392 1.752a19.471 19.471 0 0 1 3.576 2.952zm.408-4.9a22.232 22.232 0 0 0-3.48-2.712l-1.44 1.656a19.186 19.186 0 0 1 3.336 2.856zm18.053 10.93a1.956 1.956 0 1 0 0-3.912 1.956 1.956 0 1 0 0 3.912zm6.75-14.042-1.728 1.632a23.48 23.48 0 0 1 3.96 3.888l1.8-1.776a30.887 30.887 0 0 0-4.032-3.744zm13.656 21.624h5.5l.6-2.472q-.972.072-2.808.144c-1.248 0-2.448.024-3.648.024-1.824 0-3.432-.024-4.8-.048a7.6 7.6 0 0 1-3.12-.6 6.212 6.212 0 0 1-1.632-1.416l-.24-.24V13.36h-5.5v2.3h3.168v6.58a10.56 10.56 0 0 0-3.216 3.672l1.848 1.7c1.2-2.16 2.016-3.216 2.472-3.216.288 0 .576.192.888.6a5.147 5.147 0 0 0 2.472 1.66 17.753 17.753 0 0 0 3.792.408c1.508.024 2.928.048 4.224.048zm-8.3-18.288v2.328h2.544v1.632a19.362 19.362 0 0 1-.144 2.424h-3.24v2.352h2.76a7.39 7.39 0 0 1-2.664 4.056l1.512 1.992a10.356 10.356 0 0 0 3.616-6.048h3.6v6.384h2.448V17.56h3.528v-2.352h-3.528v-4.056h2.76V8.824h-2.76V5.3H372.7v3.524h-3.02V5.248h-2.424v3.576zm4.968 2.328h3.016v4.056h-3.192a29.336 29.336 0 0 0 .168-3zm31.392-3.24h-18.12v19.2h2.52v-1.3h13.056v1.3h2.544zm-15.6 15.456V10.36h13.056v13.008zm24.6-11.52h5.088v4.7h-6.768v2.424h6.768v5.232h-9.672v2.5h21.36v-2.5h-9.172v-5.228h7.152v-2.424h-7.152v-4.7h7.608V9.424h-7.608V5.488h-2.52v3.936h-4.176c.288-.912.528-1.9.744-2.928l-2.568-.48a17.676 17.676 0 0 1-4.344 9.1l1.656 2.088a17.191 17.191 0 0 0 3.6-5.356zm29.616-6.624a18.042 18.042 0 0 1-3.168 8.088l1.824 1.56a14.477 14.477 0 0 0 2.088-3.576h1.008c-.888 4.248-2.5 7.344-4.8 9.312l1.608 1.872c2.616-2.352 4.416-6.1 5.424-11.184h1.2a33.566 33.566 0 0 1-1.944 8.088 17.663 17.663 0 0 1-4.416 5.952l1.56 1.992a20.6 20.6 0 0 0 4.92-6.864A38.794 38.794 0 0 0 447.1 11.3h.864c-.048 6.792-.12 10.752-.264 11.88a2.049 2.049 0 0 1-2.208 1.992c-.576 0-1.224-.048-1.992-.12l.576 2.232c.864.072 1.488.12 1.824.12q3.672 0 4.1-3.1.36-2.88.36-15.408h-9.06c.264-.96.5-1.968.744-3.048zm-8.064 7.224h1.32v5.736a32.522 32.522 0 0 1-3.912 1.056l.6 2.424a71.374 71.374 0 0 0 3.312-1.1V27.5h2.448v-7.92c.5-.24 1.008-.456 1.536-.7v-2.352c-.528.24-1.032.48-1.536.72v-4.8h1.632v-2.4h-1.632V5.32h-2.448v4.728h-1.032c.072-.912.12-1.824.168-2.736l-2.232-.168a37.093 37.093 0 0 1-1.1 7.968l2.208.624c.256-1.056.472-2.16.664-3.288zm22.44-5.784v2.424h19.848V6.664zm3.552 5.064a23.481 23.481 0 0 1-3.336 5.832L456.32 19a26.9 26.9 0 0 0 3.48-6.216zm13.7-.1a24.629 24.629 0 0 1-2.976 5.664l2.04 1.44a26.434 26.434 0 0 0 3.1-6.048zm-8.472-1.528v4.056q-.54 6.408-10.08 11.064l1.7 2.208q7.7-4.032 9.72-9.5c1.632 3.984 4.728 7.152 9.336 9.5l1.7-2.208c-5.808-2.832-9.1-6.5-9.84-11.064V10.1zm14.52 6.144v2.448h9.408v5.52a.711.711 0 0 1-.816.768 26.256 26.256 0 0 1-2.688-.144l.552 2.424h3a2.174 2.174 0 0 0 2.5-2.4v-6.172h9.288V16.24h-9.292v-2.28h-2.544v2.28zm16.416-10.9a39.429 39.429 0 0 1-5.016 3.432 109.936 109.936 0 0 0-8.064-2.976l-1.32 1.968c2.232.7 4.464 1.488 6.7 2.4a42.368 42.368 0 0 1-8.208 2.784l1.3 2.136a81.2 81.2 0 0 0 9.6-3.768 91.542 91.542 0 0 1 7.656 3.864l1.344-2.088a94.366 94.366 0 0 0-6.432-3.192A40.45 40.45 0 0 0 495.9 6.64zm-11.4 13.92a23.258 23.258 0 0 1-5.112 5.52l1.488 1.968a26.278 26.278 0 0 0 5.4-5.9zm10.8.072-1.656 1.56a32.421 32.421 0 0 1 5.4 5.832l1.7-1.728a44.012 44.012 0 0 0-5.444-5.664zm19.224-14.328-2.64.432a16.935 16.935 0 0 1 1.008 2.088h-8.328V9.9h4.224l.792 2.928h-4.824v5.544a13.181 13.181 0 0 1-1.92 7.368l1.9 1.7c1.632-2.28 2.472-5.3 2.568-9.072v-3.12h16.944v-2.416H516.7a20.775 20.775 0 0 0 .94-2.932h3.984V7.528h-8.28a21.507 21.507 0 0 0-.936-2.52zm-2.472 7.824-.792-2.932h6.1a18.163 18.163 0 0 1-.96 2.928zm19.176-6.792v8.568h13.8V6.04zm11.28 6.216h-8.76V8.392h8.76zm-5.472 3.936h-9.048v10.944h2.448v-1.128h4.18v1.128h2.424zm-6.6 7.488v-5.136h4.18v5.136zm17.808-7.488h-9.336v10.944h2.448v-1.128h4.392v1.128h2.5zm-6.888 7.488v-5.136h4.392v5.136zM555.7 5.008l-2.3 1.1a30.643 30.643 0 0 1 1.92 3.432h-5.136v2.424h4.8v2.16c-.024.96-.1 1.848-.192 2.712H549.2v2.424h5.16a13.169 13.169 0 0 1-.6 1.872 8.948 8.948 0 0 1-4.272 4.2l1.464 2.328a10.253 10.253 0 0 0 4.872-4.728 17.4 17.4 0 0 0 1.152-3.672h5.924v8.112h2.544v-8.108h5.376V16.84h-5.376v-4.872h4.44V9.544h-4.752a26.179 26.179 0 0 0 1.872-3.576l-2.712-.96a43.547 43.547 0 0 1-2.088 4.536h-5.9l1.464-.72a40.094 40.094 0 0 0-2.068-3.816zm1.632 11.832c.1-.864.144-1.752.168-2.712v-2.16h5.4v4.872zm23.184-.648v2.448h5.16v5.616h-6.024V26.7h15.1v-2.444h-6.528V18.64h5.5v-2.448h-5.5v-4.128h-2.544v4.128zm-4.2 2.4v8.976h2.472V15.832a29.693 29.693 0 0 0 3.24-5.112h12.72V8.272h-11.612c.36-.96.7-1.92.984-2.928l-2.592-.312a30.683 30.683 0 0 1-1.176 3.24h-6.792v2.448h5.592a27.607 27.607 0 0 1-6.456 7.608l1.608 2.088c.696-.6 1.368-1.2 2.016-1.824zm25.728-8.64v2.256h4.68v2.736h-3.912v2.208h3.912V20.3H601.4v2.256h13.224V20.3h-2.256l1.176-.528a13.5 13.5 0 0 0-1.392-2.448l-1.992.648a12.536 12.536 0 0 1 1.3 2.328h-2.184v-3.148h3.912v-2.208h-3.912v-2.736h4.656V9.952zm16.128-3.816h-20.348v21.336h2.544v-.888h15.264v.888h2.544zm-17.808 18.1V8.488h15.264v15.744zm31.68-8.184a40.183 40.183 0 0 1 4.8 5.88l1.944-1.944a51.915 51.915 0 0 0-5.976-6.432c.168-.72.312-1.464.432-2.256h6v12.524q0 1.008-.864 1.008l-3.624-.12.672 2.5h3.772c1.7 0 2.568-.96 2.568-2.832V8.872h-8.256c.1-1.128.144-2.352.144-3.648h-2.568c0 1.3-.048 2.5-.144 3.648h-8.712V27.5h2.52V11.3h5.88a29.904 29.904 0 0 1-.5 2.328 12.154 12.154 0 0 1-5.016 6.48l1.68 2.04a13.929 13.929 0 0 0 5.252-6.1zm27.288-10.68v6.384H654.9V27.4h2.5v-5.064h6.336V23.9c0 .792-.264 1.2-.792 1.2l-2.136-.12.648 2.376h2.28c1.656 0 2.5-.984 2.5-2.9v-12.7h-4.416V5.368zm-1.944 12.864h6.336v1.992h-6.336zm6.336-2.112h-6.336v-1.996h6.336zM656.36 6.28l-2.088 1.008a29.822 29.822 0 0 1 2.16 3.912l2.016-1.008a39.3 39.3 0 0 0-2.088-3.912zm8.424-.264a22.025 22.025 0 0 1-2.16 4.128l2.016 1.056a21.819 21.819 0 0 0 2.208-4.176zm-16.992-.672a24.93 24.93 0 0 1-3.12 7.752l2.04 1.3q.36-.576.72-1.224v1.68h1.152V17.1h-3.024v2.3h3.024v4.464c0 .432-.312.768-.912.984l1.032 2.16a28.1 28.1 0 0 0 5.688-2.16l-.432-2.184a19.268 19.268 0 0 1-2.928 1.416V19.4h3.024v-2.3h-3.024v-2.252h2.208v-2.232h-5.52c.384-.768.768-1.608 1.128-2.5h4.8V7.744h-3.984c.192-.6.36-1.224.528-1.9zm41.064 14.832h-16.848v7.44h2.472v-.984h11.9v.984h2.472zm-14.376 4.3v-2.188h11.9v2.184zm-2.4-11.952v6.408h18.1V16.84h-7.368v-1.2h5.9v-1.92h-5.9v-1.128h5.856v-1.92h-5.856V9.5h6.912V7.432h-6.672a40.064 40.064 0 0 0-.936-2.352l-2.592.432a16.033 16.033 0 0 1 1.056 1.92h-4.968c.288-.576.528-1.152.768-1.776l-2.448-.48a18.62 18.62 0 0 1-5.04 7.2l.792 2.472a38.706 38.706 0 0 0 2.396-2.328zm8.256 4.32h-5.9v-1.2h5.9zm0-3.12h-5.9v-1.132h5.9zm0-3.048h-5.9V9.5h5.9zm15.054 8.854a1.956 1.956 0 1 0 0-3.912 1.956 1.956 0 1 0 0 3.912zm22.829-4.394c-1.272-1.68-2.712-3.552-3.816-4.728l-1.8 1.2a19.187 19.187 0 0 1 1.32 1.584c-1.416.144-3.24.24-5.016.312a34.033 34.033 0 0 0 1.536-3.216h7.657V8.032h-5.808v-2.28h-2.472l-.024 2.28h-5.3v.528a28.661 28.661 0 0 0-2.856-2.76l-1.656 1.512a37.73 37.73 0 0 1 3.168 3.384l1.344-1.3v.888h3.384a26.786 26.786 0 0 1-1.68 3.316c-.768.024-1.464.048-1.992.048l.288 2.3a417.52 417.52 0 0 0 10.824-.84c.336.552.672 1.032 1.008 1.536zm-1.44 5.88a15.628 15.628 0 0 1-.24 2.736c-.072.24-.336.264-.648.264s-.672-.024-.672-.264v-7.608h-2.28v8.424c0 1.248.768 1.68 2.664 1.68 2.04 0 2.448-.24 2.832-1.2a10.946 10.946 0 0 0 .48-3.216zm-8.352-4.752h-2.28v2.112c0 3.528-.792 4.968-3.408 6.576l1.584 1.752c2.9-1.848 4.1-4.056 4.1-8.208zm3.312 9.576v-9.384h-2.232v9.384zm-9.339-8.016a36.045 36.045 0 0 1-2.784 7.032l1.9 1.776a59.44 59.44 0 0 0 2.76-7.392zm1.872-3.408a41.608 41.608 0 0 0-3.5-2.808l-1.416 1.776a26.885 26.885 0 0 1 3.408 3.1zm29.5 8.28V19.24h2.808v1.1c0 .264-.072.384-.192.456a.741.741 0 0 1-.264.048h-.216a5.388 5.388 0 0 1-.576-.072c-.192-.024-.48-.1-.864-.144l.456 2.232a5.017 5.017 0 0 0 .912.12c.264.024.48.024.744.024 1.7 0 2.28-.768 2.28-2.376v-9.74h-3.384a32.231 32.231 0 0 0 3.432-3.1L737.3 6.64h-10.969v1.968h8.616c-.72.6-1.488 1.176-2.232 1.752-.864-.624-1.56-1.1-2.256-1.632l-1.92 1.008c.624.48 1.152.816 1.632 1.152h-3.6V22.84h2.376v-3.6h2.52v3.46zm-8.28-6.5h-5.064v2.232h2.616V21.4a19.889 19.889 0 0 1-2.952 2.568l1.128 2.424a30.63 30.63 0 0 0 2.928-2.928A5.325 5.325 0 0 0 727 25.528a24.982 24.982 0 0 0 6.264.6c2.424 0 3.648-.048 5.88-.1l.576-2.448c-2.184.12-4.32.24-6.288.264h-.72a19.247 19.247 0 0 1-5.16-.528 3.719 3.719 0 0 1-2.064-1.344zm0-3.12a18.756 18.756 0 0 0-1.776-1.368c-.624-.384-1.248-.768-1.944-1.224l-1.368 1.9a27.4 27.4 0 0 1 3.624 2.712zm.24-4.776c-.6-.456-1.1-.864-1.632-1.224-.552-.384-1.152-.768-1.824-1.2L720.811 7.6a21.967 21.967 0 0 1 3.384 2.736zm8.04 7.752h2.808v1.344h-2.808zm2.808-3.12V14.2h-2.808v-1.272zm-7.632 3.12h2.52v1.344h-2.52zm0-3.12h2.52V14.2h-2.52z" transform="translate(30 51)"/>
    </g>
    <path id="세로-9" data-name="세로" class="cls-10" transform="translate(668 1640)" d="M0 0h1v50H0z"/>
    <path id="세로-10" data-name="세로" class="cls-10" transform="translate(668 2000)" d="M0 0h1v50H0z"/>
    <path id="세로-11" data-name="세로" class="cls-10" transform="translate(668 1460)" d="M0 0h1v50H0z"/>
    <path id="세로-12" data-name="세로" class="cls-10" transform="translate(668 1820)" d="M0 0h1v50H0z"/>
    <path id="세로-13" data-name="세로" class="cls-10" transform="translate(953 1000)" d="M0 0h1v50H0z"/>
    <path id="세로-14" data-name="세로" class="cls-10" transform="translate(953 1281)" d="M0 0h1v50H0z"/>
    <path id="세로-15" data-name="세로" class="cls-10" transform="translate(862 1231)" d="M0 0h1v50H0z"/>
    <path id="세로-16" data-name="세로" class="cls-10" transform="translate(1044 1231)" d="M0 0h1v50H0z"/>
    <path id="사각형_913" data-name="사각형 913" class="cls-10" transform="translate(863 1050)" d="M0 0h181v1H0z"/>
    <path id="사각형_914" data-name="사각형 914" class="cls-10" transform="translate(863 1280)" d="M0 0h181v1H0z"/>
    <path id="세로-17" data-name="세로" class="cls-10" transform="translate(1044 1050)" d="M0 0h1v50H0z"/>
    <path id="세로-18" data-name="세로" class="cls-10" transform="translate(862 1050)" d="M0 0h1v50H0z"/>
    <g id="fc_box_smaller_long" transform="translate(961 1100)">
        <g transform="translate(-961 -1100)" style="filter:url(#box-9)">
            <g id="box-19" data-name="box" class="cls-7">
                <path class="cls-11" d="M0 0h166v130H0z" transform="translate(961 1100)"/>
                <path class="cls-13" d="M1 1h164v128H1z" transform="translate(961 1100)"/>
            </g>
        </g>
        <path id="패스_10856" data-name="패스 10856" class="cls-8" d="m13.34 4.34-2.2.36a14.109 14.109 0 0 1 .84 1.74H5.04v1.98h3.52l.66 2.44H5.2v4.62a10.984 10.984 0 0 1-1.6 6.14l1.58 1.42a13.325 13.325 0 0 0 2.14-7.56v-2.6h14.12v-2.02h-4.52a17.318 17.318 0 0 0 .78-2.44h3.32V6.44h-6.9a17.927 17.927 0 0 0-.78-2.1zm-2.06 6.52-.66-2.44h5.08a15.133 15.133 0 0 1-.8 2.44zM27.26 5.2v7.14h11.5V5.2zm9.4 5.18h-7.3V7.16h7.3zm-4.56 3.28h-7.54v9.12h2.04v-.94h3.48v.94h2.02zm-5.5 6.24v-4.28h3.48v4.28zm14.84-6.24h-7.78v9.12h2.04v-.94h3.66v.94h2.08zM35.7 19.9v-4.28h3.66v4.28zM61.52 5.62h-9.76V23.1h1.98v-1.12h5.74v1.1h2.04zm-7.78 14.42v-2.86h5.74v2.86zm0-4.78V12.3h5.74v2.96zm0-4.88V7.56h5.74v2.82zm-5.04 3c.42.6.92 1.36 1.48 2.26l1.12-1.68c-.86-1.04-1.72-2-2.6-2.88v-.82h2.34V8.28H48.7v-3.7h-2.06v3.7h-2.58v1.98h2.54a17.045 17.045 0 0 1-2.98 5.96l.82 2.08a24.193 24.193 0 0 0 2.2-4.24v9.02h2.06zm20.96 7.06a42.036 42.036 0 0 0 5.56-2.3l-.52-1.8a24.818 24.818 0 0 1-2.44 1.18V5.16h-2.04v12.16q0 .78-1.2 1.2zm-3.58-7.9v10.44h2.04V9.4a23.561 23.561 0 0 0 1.7-4l-1.96-.92a21.718 21.718 0 0 1-4.26 7.94l.68 2.22q.96-1.02 1.8-2.1zm12.36-7.88a41.918 41.918 0 0 1-.92 9.5 14.046 14.046 0 0 1-4.82 7.34l1.34 1.62A15.27 15.27 0 0 0 78 18.48a45.174 45.174 0 0 1 2.76 4.4l1.66-1.14a46.1 46.1 0 0 0-3.56-5.14 17.777 17.777 0 0 0 .6-2.08 43.375 43.375 0 0 0 .96-9.86zm-3.82 2.26-1.64.56a35.231 35.231 0 0 1 2.24 5.26l1.68-.76a32.4 32.4 0 0 0-2.28-5.06zm9.64 1.6a26.683 26.683 0 0 1-.7 5.34l1.68.48a32.3 32.3 0 0 0 .62-5.7zm5.6-.5-1.44.46V4.62h-2.1v18.4h2.1V8.68a31.519 31.519 0 0 1 .98 3.36l.78-.2c-.12.24-.24.48-.36.74l1.56 1.38a16.562 16.562 0 0 0 1.5-3.78h2.56v4.26h-4.42v2.04h4.42v4.06h-5.48v2.02h12.26v-2.02h-4.66v-4.06h3.94v-2.04h-3.94v-4.26h4.12V8.16h-4.12v-3.5h-2.12v3.5h-2.16c.08-.64.12-1.28.16-1.96l-1.9-.26a17.7 17.7 0 0 1-.82 4.54 23.523 23.523 0 0 0-.86-2.46zm-64.64 26.7a44.881 44.881 0 0 1-.84 9.34 13.419 13.419 0 0 1-4.44 7.2L21.36 53a14.723 14.723 0 0 0 5.08-8.52c.04-.16.06-.34.1-.52A28.381 28.381 0 0 0 31 52.94l1.52-1.74a24.789 24.789 0 0 1-5.36-11.64c.12-1.48.18-3.1.18-4.84zm-8.66-.02-1.48 1.44a18.309 18.309 0 0 1 3.28 2.94l1.44-1.46a28.017 28.017 0 0 0-3.24-2.92zm-2.78 5.78v2h2.74v6.9a1.345 1.345 0 0 1-.54 1.1l.8 1.86a30.809 30.809 0 0 0 4.16-3.22l-.56-2.14c-.64.62-1.26 1.18-1.84 1.66v-8.16zm23.28-.18v1.96h5v7.82h-.02a6.294 6.294 0 0 1-3.48-2.9 24.04 24.04 0 0 0 .88-3.2l-2.02-.36a15.011 15.011 0 0 1-3.76 7.74L35 53.04a13.994 13.994 0 0 0 2.78-3.98 8.007 8.007 0 0 0 3.1 2.56c1.84.76 4.88 1.14 9.16 1.14h1.74l.42-2.06c-1.06.1-2.08.16-3.08.16a37.8 37.8 0 0 1-4.98-.32v-3.52h5.68v-1.96h-5.68v-2.8h4.84V40.3zm14.4-3.9h-7.3c-.26-.74-.52-1.42-.8-2.02l-2.24.36A14.322 14.322 0 0 1 42 36.4h-7.46v4.74h2.04v-2.82h12.84v2.72h2.04zm10.52-1.74v2.76h-6.42v11.72h2.06v-1.16h4.36v5h2.12v-5h4.28V49h2.06V37.42H64.1v-2.76zm-4.36 11.36V43.6h4.36v2.42zm6.48 0V43.6h4.28v2.42zm-6.48-4.28v-2.38h4.36v2.38zm6.48 0v-2.38h4.28v2.38zm20.86-7.16v1.1h-4.6v1.68h4.6v.84H81.2v1.64h3.76v.86H79.8v1.72h12.4V40.7h-5.22v-.86h4.04V38.2h-4.04v-.84h4.74v-1.68h-4.74v-1.1zm-1.82 12.88h5.72v.98h-5.72zm5.72-1.56h-5.72v-1h5.72zm-5.72 4.12h5.72v.56c0 .42-.18.64-.54.64l-1.58-.08.5 1.82h1.66a1.732 1.732 0 0 0 1.96-1.94v-7.8h-9.68v9.86h1.96zm-6.58-15.3-1.48 1.42a18.3 18.3 0 0 1 3.28 2.92l1.44-1.44a26.239 26.239 0 0 0-3.24-2.9zm-2.84 5.76v2h2.66v7.06a1.452 1.452 0 0 1-.52 1.12l.78 1.88a31.221 31.221 0 0 0 3.78-3.18l-.56-2.2c-.5.52-.98 1.02-1.46 1.48v-8.16z" transform="translate(30 36)"/>
    </g>
    <g id="fc_box_smaller_long-2" data-name="fc_box_smaller_long" transform="translate(779 1100)">
        <g transform="translate(-779 -1100)" style="filter:url(#box-10)">
            <g id="box-20" data-name="box" class="cls-7">
                <path class="cls-11" d="M0 0h166v130H0z" transform="translate(779 1100)"/>
                <path class="cls-13" d="M1 1h164v128H1z" transform="translate(779 1100)"/>
            </g>
        </g>
        <path id="패스_10855" data-name="패스 10855" class="cls-8" d="m23.34 4.34-2.2.36a14.109 14.109 0 0 1 .84 1.74h-6.94v1.98h3.52l.66 2.44H15.2v4.62a10.984 10.984 0 0 1-1.6 6.14l1.58 1.42a13.325 13.325 0 0 0 2.14-7.56v-2.6h14.12v-2.02h-4.52a17.318 17.318 0 0 0 .78-2.44h3.32V6.44h-6.9a17.927 17.927 0 0 0-.78-2.1zm-2.06 6.52-.66-2.44h5.08a15.134 15.134 0 0 1-.8 2.44zM37.26 5.2v7.14h11.5V5.2zm9.4 5.18h-7.3V7.16h7.3zm-4.56 3.28h-7.54v9.12h2.04v-.94h3.48v.94h2.02zm-5.5 6.24v-4.28h3.48v4.28zm14.84-6.24h-7.78v9.12h2.04v-.94h3.66v.94h2.08zM45.7 19.9v-4.28h3.66v4.28zm12.48-4.26h3.84v1.68h-3.84zm3.84 3.58v3.94h2.08v-3.94H68v.98h2.04V10.18H64.1V8.54h-2.08v1.64h-5.88v10.08h2.04v-1.04zm2.08-1.9v-1.68H68v1.68zm3.9-3.5h-3.9V12.1H68zm-5.98-1.72v1.72h-3.84V12.1zm9.54-6.22h-7.6q-.24-.84-.48-1.5l-2.22.36c.18.36.36.74.52 1.14h-7.42v3.98h2.04V7.78h13.12v1.98h2.04zm8.24 7.22c-.54.22-1.08.44-1.62.64v-3.68h1.76V8.04h-1.76V4.58h-2.04v3.46h-2.02v2.02h2.02v4.32c-.76.2-1.52.36-2.28.5l.5 2c.6-.16 1.18-.32 1.78-.5v3.96c0 .48-.24.72-.68.72a8.753 8.753 0 0 1-1.42-.14l.44 2.04h1.7a1.812 1.812 0 0 0 2-2.08V15.7c.54-.2 1.08-.42 1.62-.64zm2.76-.76h2.46V10.3h-2.46V4.68H80.5v15.08a1.15 1.15 0 0 1-.88 1.2l.52 1.94a34.273 34.273 0 0 0 5.04-1.54l-.38-1.92a16.31 16.31 0 0 1-2.24.84zm6.96 10.54a2.143 2.143 0 0 0 1.7-.64c.4-.44.68-1.84.84-4.18l-1.9-.6a10.56 10.56 0 0 1-.34 2.98.747.747 0 0 1-.68.46h-.78q-.6 0-.6-.66v-8a28.109 28.109 0 0 0 4.2-1.82l-1.2-1.72a17.409 17.409 0 0 1-3 1.48V4.64H85.7V20.7c0 1.44.66 2.18 2.02 2.18zM43.93 52.34v-4.92h3.72v1.06h2.06V37.5h-5.78v-2.54h-2.08v2.54h-5.56v11.08h2.06v-1.16h3.5v4.92zm0-9.04h3.72v2.34h-3.72zm-5.58 0h3.5v2.34h-3.5zm9.3-4.04v2.2h-3.72v-2.2zm-9.3 0h3.5v2.2h-3.5zm25.26-4.68v1.1h-4.6v1.68h4.6v.84h-3.76v1.64h3.76v.86h-5.16v1.72h12.4V40.7h-5.22v-.86h4.04V38.2h-4.04v-.84h4.74v-1.68h-4.74v-1.1zm-1.82 12.88h5.72v.98h-5.72zm5.72-1.56h-5.72v-1h5.72zm-5.72 4.12h5.72v.56c0 .42-.18.64-.54.64l-1.58-.08.5 1.82h1.66a1.732 1.732 0 0 0 1.96-1.94v-7.8h-9.68v9.86h1.96zm-6.58-15.3-1.48 1.42a18.3 18.3 0 0 1 3.28 2.92l1.44-1.44a26.239 26.239 0 0 0-3.24-2.9zm-2.84 5.76v2h2.66v7.06a1.452 1.452 0 0 1-.52 1.12l.78 1.88a31.221 31.221 0 0 0 3.78-3.18l-.56-2.2c-.5.52-.98 1.02-1.46 1.48v-8.16z" transform="translate(30 36)"/>
    </g>
    <path id="다각형_14" data-name="다각형 14" class="cls-10" d="M7.5 0 15 11H0z" transform="rotate(180 338 143.5)"/>
    <path id="다각형_89" data-name="다각형 89" class="cls-10" d="M7.5 0 15 11H0z" transform="rotate(180 195.5 668)"/>
    <path id="다각형_90" data-name="다각형 90" class="cls-10" d="M7.5 0 15 11H0z" transform="rotate(180 195.5 438)"/>
    <path id="다각형_91" data-name="다각형 91" class="cls-10" d="M7.5 0 15 11H0z" transform="rotate(180 195.5 323)"/>
    <path id="다각형_92" data-name="다각형 92" class="cls-10" d="M7.5 0 15 11H0z" transform="rotate(180 480.5 668)"/>
    <path id="다각형_93" data-name="다각형 93" class="cls-10" d="M7.5 0 15 11H0z" transform="rotate(180 480.5 438)"/>
    <path id="다각형_94" data-name="다각형 94" class="cls-10" d="M7.5 0 15 11H0z" transform="rotate(180 480.5 323)"/>
    <path id="다각형_95" data-name="다각형 95" class="cls-10" d="M7.5 0 15 11H0z" transform="rotate(180 435 553)"/>
    <path id="다각형_96" data-name="다각형 96" class="cls-10" d="M7.5 0 15 11H0z" transform="rotate(180 526 553)"/>
    <path id="다각형_97" data-name="다각형 97" class="cls-10" d="M7.5 0 15 11H0z" transform="rotate(180 338 758)"/>
    <path id="다각형_98" data-name="다각형 98" class="cls-10" d="M7.5 0 15 11H0z" transform="rotate(180 338 848)"/>
    <path id="다각형_99" data-name="다각형 99" class="cls-10" d="M7.5 0 15 11H0z" transform="rotate(180 338 938)"/>
    <path id="다각형_100" data-name="다각형 100" class="cls-10" d="M7.5 0 15 11H0z" transform="rotate(180 338 1028)"/>
</svg>
