<svg id="CHN_flow_chart_2_7_3" xmlns="http://www.w3.org/2000/svg" width="1336" height="2000" viewBox="0 0 1336 2000">
    <defs>
        <filter id="area" x="105" y="94" width="1126" height="148" filterUnits="userSpaceOnUse">
            <feOffset dy="3"/>
            <feGaussianBlur stdDeviation="3" result="blur"/>
            <feFlood flood-color="#111" flood-opacity=".102"/>
            <feComposite operator="in" in2="blur"/>
            <feComposite in="SourceGraphic"/>
        </filter>
        <filter id="box" x="105" y="274" width="1126" height="148" filterUnits="userSpaceOnUse">
            <feOffset dy="3"/>
            <feGaussianBlur stdDeviation="3" result="blur-2"/>
            <feFlood flood-color="#111" flood-opacity=".102"/>
            <feComposite operator="in" in2="blur-2"/>
            <feComposite in="SourceGraphic"/>
        </filter>
        <filter id="box-2" x="105" y="454" width="1126" height="148" filterUnits="userSpaceOnUse">
            <feOffset dy="3"/>
            <feGaussianBlur stdDeviation="3" result="blur-3"/>
            <feFlood flood-color="#111" flood-opacity=".102"/>
            <feComposite operator="in" in2="blur-3"/>
            <feComposite in="SourceGraphic"/>
        </filter>
        <filter id="box-3" x="105" y="634" width="1126" height="148" filterUnits="userSpaceOnUse">
            <feOffset dy="3"/>
            <feGaussianBlur stdDeviation="3" result="blur-4"/>
            <feFlood flood-color="#111" flood-opacity=".102"/>
            <feComposite operator="in" in2="blur-4"/>
            <feComposite in="SourceGraphic"/>
        </filter>
        <filter id="box-4" x="105" y="814" width="1126" height="148" filterUnits="userSpaceOnUse">
            <feOffset dy="3"/>
            <feGaussianBlur stdDeviation="3" result="blur-5"/>
            <feFlood flood-color="#111" flood-opacity=".102"/>
            <feComposite operator="in" in2="blur-5"/>
            <feComposite in="SourceGraphic"/>
        </filter>
        <filter id="다각형_3" x="390" y="994" width="556" height="278" filterUnits="userSpaceOnUse">
            <feOffset dy="3"/>
            <feGaussianBlur stdDeviation="3" result="blur-6"/>
            <feFlood flood-color="#111" flood-opacity=".102"/>
            <feComposite operator="in" in2="blur-6"/>
            <feComposite in="SourceGraphic"/>
        </filter>
        <filter id="area-2" x="105" y="1764" width="1126" height="148" filterUnits="userSpaceOnUse">
            <feOffset dy="3"/>
            <feGaussianBlur stdDeviation="3" result="blur-7"/>
            <feFlood flood-color="#111" flood-opacity=".102"/>
            <feComposite operator="in" in2="blur-7"/>
            <feComposite in="SourceGraphic"/>
        </filter>
        <filter id="box-5" x="105" y="1354" width="556" height="148" filterUnits="userSpaceOnUse">
            <feOffset dy="3"/>
            <feGaussianBlur stdDeviation="3" result="blur-8"/>
            <feFlood flood-color="#111" flood-opacity=".102"/>
            <feComposite operator="in" in2="blur-8"/>
            <feComposite in="SourceGraphic"/>
        </filter>
        <filter id="box-6" x="105" y="1534" width="556" height="148" filterUnits="userSpaceOnUse">
            <feOffset dy="3"/>
            <feGaussianBlur stdDeviation="3" result="blur-9"/>
            <feFlood flood-color="#111" flood-opacity=".102"/>
            <feComposite operator="in" in2="blur-9"/>
            <feComposite in="SourceGraphic"/>
        </filter>
        <style>
            .cls-1{fill:#f8f8f8}.cls-2,.cls-5{fill:#fff}.cls-2{stroke:#999;stroke-width:2px}.cls-3{fill:#333}.cls-4{fill:red;opacity:0}.cls-5,.cls-6{stroke:#326f5e;stroke-width:1.5px}.cls-13,.cls-6{fill:none}.cls-7{fill:#326f5e}.cls-10{fill:#999}.cls-12{stroke:none}
        </style>
    </defs>
    <path id="bg" class="cls-1" d="M0 0h1336v2000H0z"/>
    <g id="fc_boxes" transform="translate(-293 -944)">
        <g id="fc_start_end" transform="translate(407 1044)">
            <g transform="translate(-114 -100)" style="filter:url(#area)">
                <g id="area-3" data-name="area" class="cls-2" transform="translate(114 100)">
                    <rect class="cls-12" width="1108" height="130" rx="65"/>
                    <rect class="cls-13" x="1" y="1" width="1106" height="128" rx="64"/>
                </g>
            </g>
            <path id="패스_10767" data-name="패스 10767" class="cls-3" d="M420.517 13.945c-.481-3.9-3.431-6.149-7.343-6.149-4.483 0-7.889 3.182-7.889 8.718s3.348 8.718 7.889 8.718c4.309 0 6.945-2.859 7.343-5.992l-3.564-.017a3.521 3.521 0 0 1-3.721 2.884c-2.6 0-4.376-1.931-4.376-5.594 0-3.572 1.749-5.594 4.392-5.594a3.5 3.5 0 0 1 3.7 3.025zm15.05-1.061c-.05-3.008-2.528-5.088-6.29-5.088-3.7 0-6.431 2.047-6.414 5.122-.008 2.5 1.757 3.928 4.616 4.624l1.856.456c1.848.456 2.892.994 2.9 2.146-.008 1.276-1.2 2.13-3.05 2.13-1.873 0-3.232-.854-3.348-2.561h-3.423c.1 3.63 2.718 5.528 6.812 5.528 4.135 0 6.555-1.981 6.572-5.08-.017-2.834-2.18-4.318-5.08-4.972l-1.533-.373c-1.467-.34-2.735-.887-2.71-2.13 0-1.119.994-1.939 2.776-1.939 1.724 0 2.793.787 2.925 2.138zM451.436 25l-3.613-6.6a4.885 4.885 0 0 0 3-4.84c0-3.348-2.213-5.528-6.075-5.528H438.1V25h3.522v-6.033h2.685L447.533 25zm-7.343-14.08c2.1 0 3.108.936 3.108 2.635s-1.011 2.561-3.1 2.561h-2.478v-5.2zm14.884 11.032a26.415 26.415 0 0 1-5.928 1.968l.312 2.4a25.75 25.75 0 0 0 5.616-2.064zM456.17 5.2a48.729 48.729 0 0 1-2.52 6.864 2.171 2.171 0 0 1-1.032.912l.624 2.232c1.1-.168 2.184-.336 3.192-.48a21.525 21.525 0 0 1-2.4 3.648 3.214 3.214 0 0 1-1.1.7l.648 2.208a32.623 32.623 0 0 0 6.312-1.488v-2.212a34.628 34.628 0 0 1-3.456 1.008 60.244 60.244 0 0 0 4.488-7.656l-2.16-.816c-.408.84-.792 1.632-1.176 2.4-.72.12-1.44.216-2.16.312a39.09 39.09 0 0 0 3.072-6.72zm16.152 22.2a1.689 1.689 0 0 0 1.9-1.9v-9.812H463.25l.072-1.464h10.8v-6.7h-5.376c-.264-.888-.528-1.7-.792-2.424l-2.592.432a17.1 17.1 0 0 1 .912 1.992h-5.232v6.12q-.036 7.488-2.76 12.24l1.8 1.608a26.016 26.016 0 0 0 2.808-8.424v8.452h2.04v-5.16h1.27v4.632h1.752V22.36h1.176v4.632h1.728V25.84l.432 1.56zm-1.464-5.04h1.3v2.688c0 .36-.168.552-.456.552l-.84-.1zm-5.928-2.016V17.8h1.27v2.544zm3.024-2.544h1.176v2.544h-1.176zm2.9 0h1.3v2.544h-1.3zm.96-8.088v2.4h-8.5v-2.4zm12.58 3.788h9.984v-2.348h-9.432c.144-.6.264-1.224.408-1.9l-2.472-.24a92.008 92.008 0 0 1-2.352 9.24h13.392c-.072 3.7-.288 5.784-.624 6.216a2.993 2.993 0 0 1-2.208.624c-.864 0-1.824-.024-2.832-.072l.72 2.328h2.016c2.184 0 3.624-.408 4.3-1.176s1.056-4.176 1.152-10.224h-12.772q.36-1.148.72-2.448zm-6.936 6.84v2.4h14.5v-2.4zm20.28-14.256h-19.824V11.7h2.472V8.44h14.88v3.288h2.472zm13.8 5.232a23.145 23.145 0 0 0 9.408 15.816l1.608-2.616a19.836 19.836 0 0 1-5.808-5.856 15.619 15.619 0 0 0 4.824-3.984l-1.776-1.776a16.79 16.79 0 0 1-4.152 3.792 20.634 20.634 0 0 1-1.7-5.568h8.28V8.7h-9.024a40.687 40.687 0 0 0-1.272-3.384l-2.712.432a23.919 23.919 0 0 1 1.364 2.952h-9.144v2.424h7.56a20.669 20.669 0 0 1-8.16 8.232l1.344 2.16a33.412 33.412 0 0 0 3.576-2.616v4.848a1.283 1.283 0 0 1-.96 1.224l.576 2.376a79.107 79.107 0 0 0 8.808-2.784l-.456-2.448a43.11 43.11 0 0 1-5.472 2.016v-7.724a22.253 22.253 0 0 0 3.288-5.088zm23.976-6.1a18.042 18.042 0 0 1-3.168 8.088l1.824 1.56a14.478 14.478 0 0 0 2.088-3.576h1.008c-.888 4.248-2.5 7.344-4.8 9.312l1.608 1.872c2.616-2.352 4.416-6.1 5.424-11.184h1.2a33.564 33.564 0 0 1-1.944 8.088 17.663 17.663 0 0 1-4.416 5.952l1.56 1.992a20.6 20.6 0 0 0 4.92-6.864 38.8 38.8 0 0 0 2.112-9.156h.864c-.048 6.792-.12 10.752-.264 11.88a2.049 2.049 0 0 1-2.208 1.992c-.576 0-1.224-.048-1.992-.12l.576 2.232c.864.072 1.488.12 1.824.12q3.672 0 4.1-3.1.36-2.88.36-15.408h-9.072c.264-.96.5-1.968.744-3.048zm-8.064 7.224h1.32v5.736a32.523 32.523 0 0 1-3.912 1.056l.6 2.424a71.374 71.374 0 0 0 3.312-1.1V27.5h2.448v-7.92c.5-.24 1.008-.456 1.536-.7v-2.352c-.528.24-1.032.48-1.536.72v-4.8h1.632v-2.4h-1.632V5.32h-2.448v4.728h-1.032c.072-.912.12-1.824.168-2.736l-2.232-.168a37.1 37.1 0 0 1-1.1 7.968l2.208.624c.26-1.056.476-2.16.668-3.288zm28.272-7.392a25.474 25.474 0 0 1-7.1 9.7l.816 2.616a47.256 47.256 0 0 0 3-2.736v12.916h2.5V11.7a25.494 25.494 0 0 0 3.144-5.544zm11.544 22.056a3.144 3.144 0 0 0 2.52-.84c.456-.576.768-2.256.936-5.016l-2.3-.792a10.656 10.656 0 0 1-.432 3.744 1.332 1.332 0 0 1-1.152.528h-3.456c-.744 0-1.1-.336-1.1-.984v-7.576a41.306 41.306 0 0 0 7.8-6.216l-1.76-1.992a33.409 33.409 0 0 1-6.048 5.184v-7.68h-2.5v9.216a56.637 56.637 0 0 1-3.624 1.8l1.128 2.376c.84-.408 1.68-.816 2.5-1.248v6.5c0 1.992 1.008 3 3.024 3zm27.048-17.176h-4.344a25.426 25.426 0 0 0 2.33-3.792l-2.592-.96a29.688 29.688 0 0 1-2.472 4.752h-3.672l1.992-1.008a41.582 41.582 0 0 0-2.256-3.888l-2.28 1.1a26.786 26.786 0 0 1 2.232 3.792H578.5l1.44-.72a37.317 37.317 0 0 0-2.352-3.672l-2.28 1.1a25.407 25.407 0 0 1 2.256 3.288h-4.224v5.98h2.472v-3.572h16.008V15.9h2.5zm-16.992 3.7v2.208h9.36c-.96.48-2.232 1.032-3.816 1.7v1.776h-9.384v2.352h9.384v2.664c0 .576-.24.888-.7.888a52.01 52.01 0 0 1-2.856-.072l.624 2.28h3.072c1.584 0 2.376-.768 2.376-2.256v-3.5h8.856v-2.356h-8.856v-.672a52.392 52.392 0 0 0 4.968-2.808v-2.208zm30.192-8.4a18.042 18.042 0 0 1-3.168 8.088l1.824 1.56a14.478 14.478 0 0 0 2.088-3.576h1.008c-.888 4.248-2.5 7.344-4.8 9.312l1.608 1.872c2.616-2.352 4.416-6.1 5.424-11.184h1.2a33.564 33.564 0 0 1-1.944 8.088 17.663 17.663 0 0 1-4.416 5.952l1.56 1.992a20.6 20.6 0 0 0 4.92-6.864 38.8 38.8 0 0 0 2.112-9.168h.864c-.048 6.792-.12 10.752-.264 11.88a2.049 2.049 0 0 1-2.208 1.992c-.576 0-1.224-.048-1.992-.12l.576 2.232c.864.072 1.488.12 1.824.12q3.672 0 4.1-3.1.36-2.88.36-15.408h-9.072c.264-.96.5-1.968.744-3.048zm-8.064 7.224h1.32v5.736a32.523 32.523 0 0 1-3.912 1.056l.6 2.424a71.374 71.374 0 0 0 3.312-1.1V27.5h2.448v-7.92c.5-.24 1.008-.456 1.536-.7v-2.352c-.528.24-1.032.48-1.536.72v-4.8h1.632v-2.4h-1.632V5.32h-2.448v4.728h-1.032c.072-.912.12-1.824.168-2.736l-2.232-.168a37.1 37.1 0 0 1-1.1 7.968l2.208.624c.26-1.056.476-2.16.668-3.288zm25.968.312h6.936l-.36 1.56h-4.968v8.448h2.424v-6.148h8.712v6.144h2.424V14.32h-6.048l.36-1.56h7.656v-2.3h-7.272c.072-.48.144-.984.192-1.464l-2.5-.312-.216 1.776h-7.344V8.9A105.932 105.932 0 0 0 641.5 7.5l-1.224-2.232a98.979 98.979 0 0 1-17.28 1.536v7.68q-.18 7.092-2.448 11.088L622.3 27.4q2.952-4.824 3.12-12.912zm9.984 9.216-1.248 1.872a32.321 32.321 0 0 1 7.032 3.672l1.392-2.184a36.607 36.607 0 0 0-7.178-3.364zm-2.3-4.656a8.063 8.063 0 0 1-2.352 5.16 13.971 13.971 0 0 1-6.144 2.784l1.344 2.3a15.531 15.531 0 0 0 6.936-3.576 10.389 10.389 0 0 0 2.64-6.5z" transform="translate(30 50)"/>
        </g>
        <g id="fc_box_big_no_btn" transform="translate(407 1224)">
            <g transform="translate(-114 -280)" style="filter:url(#box)">
                <g id="box-7" data-name="box" class="cls-2">
                    <path class="cls-12" d="M0 0h1108v130H0z" transform="translate(114 280)"/>
                    <path class="cls-13" d="M1 1h1106v128H1z" transform="translate(114 280)"/>
                </g>
            </g>
            <path id="패스_10768" data-name="패스 10768" class="cls-3" d="m452.853 8.028-4.2 2.669v3.133l3.9-2.445h.1V25h3.53V8.028zm8.412 17.18a1.96 1.96 0 1 0 0-3.92 1.96 1.96 0 1 0 0 3.92zm27.435.657V23.92h-7.728v-1.8h4.3v-1.152a17.434 17.434 0 0 0 2.76 1.608l1.584-2.04a16.157 16.157 0 0 1-4.8-2.76h4.272v-1.992h-3.552V9.4h2.832V7.408h-2.832V5.68h-2.472v1.728h-6.72V5.68h-2.52v1.728h-2.688V9.4h2.688v6.384h-3.456v1.992h4.512a17.048 17.048 0 0 1-4.9 3.144l1.584 1.968a20.628 20.628 0 0 0 2.856-1.848v1.08h4.056v1.8h-7.7v1.944zm-4.44-5.64h-3.288V18.4h-2.5v1.824h-3.048a24.411 24.411 0 0 0 2.52-2.448h3.624a22.371 22.371 0 0 0 2.691 2.448zm-7.92-8.16h6.72v1.055h-6.72zm0-2.664h6.72v1.032h-6.72zm0 5.424h6.72v.96h-6.72zm34.152 5.76a26.271 26.271 0 0 1-8.424-8.736h7.272V9.568h-7.7V5.776h-2.544v3.792h-7.512v2.28h6.936a25.438 25.438 0 0 1-7.872 9.48l1.488 2.112a31.7 31.7 0 0 0 3-2.784v1.68h3.96v4.248h2.544v-4.248h4.128v-2.208a34.046 34.046 0 0 0 3.1 2.736zm-8.856-3.216c0-.576-.024-1.56-.072-2.3a32.718 32.718 0 0 0 4.056 4.92h-3.984zm-2.448-2.136c-.048.792-.1 1.752-.1 2.328v2.424h-3.336a29.081 29.081 0 0 0 3.436-4.753zm30.6 11.16V19.1h-11.16v7.488h2.4v-1.012h6.336v.816zm-13.368.216V11.56a44.949 44.949 0 0 0 1.752-5.16l-2.352-.792a23.225 23.225 0 0 1-4.224 9.5l1.056 2.76a17.759 17.759 0 0 0 1.272-1.656c-.024.6-.024 1.128-.024 1.7V26.6zM531.036 11.8V9.64h-13.56v2.16zm-1.656 3.144v-2.088h-10.32v2.088zm.168-6.336v-2.04h-10.3v2.04zm-.168 9.408v-2.064h-10.32v2.064zm-8.352 3.072h6.336v2.5h-6.336zm19.8-15.456c-.264.672-.48 1.248-.84 1.968H534.9v10.848h6.312l-1.1 1.152a14.774 14.774 0 0 1 3.072 2.664l1.7-1.728a29.747 29.747 0 0 0-2.544-2.088h6.912V7.6h-6.216l.648-1.3zm4.488 15.7c-.048.72-.048 2.064-.744 2.4a5.618 5.618 0 0 1-2.3.264c-2.736 0-2.76-.168-2.76-.984v-3.796h-2.572v4.632c0 1.824.48 2.3 5.184 2.3 3.72 0 4.488-.6 4.824-1.08a5.622 5.622 0 0 0 .792-2.9zm6.528 3.12c-1.08-2.016-1.344-2.688-2.664-4.776l-2.16 1.2a27.375 27.375 0 0 1 2.592 4.944zm-17.688-4.44a18.7 18.7 0 0 1-1.872 4.848l2.28 1.056a18.683 18.683 0 0 0 1.9-5.232zM537.54 9.62h9.12v1.032h-9.12zm0 5.76h9.12v1.032h-9.12zm0-2.88h9.12v1h-9.12zm27.96 4.9h2.28v2.44h-2.28zm-.168 4.584h2.448v5.088h2.28v-5.096h2.424v2.592a.463.463 0 0 1-.5.528 11.286 11.286 0 0 1-1.512-.12l.6 2.256h1.608c1.416 0 2.136-.624 2.136-1.848V10.768h-3.6a21.437 21.437 0 0 0 1.8-2.16V6.856h-5.544c.192-.336.36-.672.552-1.056l-2.424-.552a17.813 17.813 0 0 1-4.536 5.9L562.6 13c.192-.168.408-.336.6-.528v7.3a10.9 10.9 0 0 1-1.68 6.048l1.824 1.632a12.314 12.314 0 0 0 1.988-5.476zm3.192-11.208h-3.672c.456-.576.912-1.176 1.368-1.824h3.864a20.519 20.519 0 0 1-1.56 1.816zm3.96 9.072h-2.424v-2.456h2.424zm0-4.608h-2.424v-2.28h2.424zm-4.7-2.28v2.28H565.5v-2.28zm-13.828-6.584v2.4h2.376a24.2 24.2 0 0 1-3.168 8.544l1.44 2.328c.288-.432.552-.864.84-1.32V26.7h2.356v-1.56h3.936V13.5h-4.1a34.05 34.05 0 0 0 1.152-4.728h3.408v-2.4zm3.84 16.488v-7.056h1.68v7.056zm33.336-17.4a53.855 53.855 0 0 1-1.008 11.208 16.1 16.1 0 0 1-5.328 8.64l1.7 2.088a17.668 17.668 0 0 0 6.1-10.224c.048-.192.072-.408.12-.624a34.058 34.058 0 0 0 5.352 10.776l1.824-2.088c-3.072-3.48-5.232-8.136-6.432-13.968.144-1.776.216-3.72.216-5.808zM580.74 5.44l-1.776 1.728A21.97 21.97 0 0 1 582.9 10.7l1.728-1.752a33.615 33.615 0 0 0-3.888-3.508zm-3.34 6.936v2.4h3.288v8.28a1.614 1.614 0 0 1-.648 1.32l.96 2.232a36.97 36.97 0 0 0 5-3.864l-.672-2.568a38.475 38.475 0 0 1-2.208 1.992v-9.792z" transform="translate(30 33)"/>
            <g id="fc_textlink" transform="translate(671 76)">
                <g id="stack" transform="translate(-2524.094 20210)">
                    <g id="ico_fc_pop_up" transform="translate(2431.094 -20209)">
                        <g id="그룹_1025" data-name="그룹 1025" transform="translate(-1101.074 -1125)">
                            <g id="그룹_1026" data-name="그룹 1026" transform="translate(1108.074 1129)">
                                <path id="사각형_878" data-name="사각형 878" class="cls-5" d="M0 0h9v9H0z"/>
                            </g>
                            <path id="패스_6896" data-name="패스 6896" class="cls-6" d="M1104.574 1132.941v9h9" transform="translate(.5 -.941)"/>
                        </g>
                    </g>
                    <path id="패스_10769" data-name="패스 10769" class="cls-7" d="M-28.864-7.184v6.048h9.792v-6.048zm8.32 4.7h-6.848v-1.004h6.848zm-6.848-2.288V-5.84h6.848v1.072zm-3.2-7.04v1.412h4.56a15.673 15.673 0 0 1-5.344 2.352l.816 1.348a13.56 13.56 0 0 0 5.86-3.668v2.7h1.472v-2.72a12.6 12.6 0 0 0 5.92 3.68l.656-1.376a13.57 13.57 0 0 1-5.216-2.32h4.528v-1.408h-5.888v-1.344H-24.7v1.344zm-.32 11.632v1.396h13.84V-.176zm16.8-10.128v1.3h4.336c-.16.256-.352.528-.544.8h-4.656v1.344h3.568a22.321 22.321 0 0 1-3.984 3.376l.816 1.3A26.871 26.871 0 0 0-12.224-4v5.664h1.44v-.608h6.928v.608h1.44v-7.728h-7.76c.208-.256.416-.528.64-.8H-.9v-1.344h-7.74c.16-.256.3-.528.464-.8h6.352v-1.3h-5.744q.168-.432.336-.912a42.4 42.4 0 0 0 5.312-.72l-.7-1.2a61.528 61.528 0 0 1-11.392.9l.432 1.248c1.728 0 3.36-.048 4.864-.128-.112.272-.224.544-.352.816zm3.328 7.408h6.928v.752h-6.928zm6.928-1.152h-6.928v-.784h6.928zm-6.928 3.06h6.928v.816h-6.928zM1.072-12.576v1.424h6.176v1.1H2.4v6.576h4.592A5.555 5.555 0 0 1 6.3-1.824a14 14 0 0 1-2.24-1.424l-1.168.8A14.869 14.869 0 0 0 5.248-.832 10.3 10.3 0 0 1 .64.288L1.3 1.68A11 11 0 0 0 6.736-.1a22.944 22.944 0 0 0 8.352 1.8l.384-1.476A23.3 23.3 0 0 1 7.712-1.2a6.617 6.617 0 0 0 .816-2.272h5.12v-6.576h-4.9v-1.1h6.192v-1.424zM12.144-4.8H8.7a9.269 9.269 0 0 0 .048-.976v-.384h3.392zM7.2-4.8H3.9v-1.36h3.348v.384c0 .32-.016.656-.048.976zM3.9-7.408v-1.344h3.348v1.344zm4.852-1.344h3.392v1.344H8.752zM23.776-13.2a11.209 11.209 0 0 1-6.336 2.976l.9 1.392a14.792 14.792 0 0 0 4.38-1.648h4.3a8.266 8.266 0 0 1-3.488 2.64 21.069 21.069 0 0 0-1.52-1.632l-1.312.624a15.69 15.69 0 0 1 1.412 1.488 17.766 17.766 0 0 1-3.6.544l.64 1.376c4.688-.384 7.888-2.128 9.616-5.2v-1.184H24.5c.208-.208.416-.432.64-.672zm-.256 10-1.344.64a16.586 16.586 0 0 1 1.536 1.744 21.082 21.082 0 0 1-6.24.816l.608 1.456q9.36-.24 12.784-5.856v-1.184h-4.08a9.249 9.249 0 0 0 .928-.848l-1.3-.7c-1.632 1.728-4.208 2.752-7.7 3.088l.912 1.36a21.8 21.8 0 0 0 4.9-1.52h4.384a9.622 9.622 0 0 1-3.76 2.848A19.989 19.989 0 0 0 23.52-3.2zM-32 3h64v1h-64z" transform="translate(2395.094 -20194)"/>
                </g>
            </g>
        </g>
        <g id="fc_box_big_no_btn-2" data-name="fc_box_big_no_btn" transform="translate(407 1404)">
            <g transform="translate(-114 -460)" style="filter:url(#box-2)">
                <g id="box-8" data-name="box" class="cls-2">
                    <path class="cls-12" d="M0 0h1108v130H0z" transform="translate(114 460)"/>
                    <path class="cls-13" d="M1 1h1106v128H1z" transform="translate(114 460)"/>
                </g>
            </g>
            <path id="패스_10770" data-name="패스 10770" class="cls-3" d="M450.612 25v-2.892h-7.26v-.116l2.586-2.494c3.5-3.166 4.434-4.757 4.442-6.688-.008-2.942-2.42-5.014-6.066-5.014-3.564 0-6.025 2.122-6.017 5.445h3.348a2.674 2.674 0 0 1 5.337-.207c-.008 1.359-.862 2.3-2.436 3.812l-6.1 5.61.008 2.544zm4.558.207a1.96 1.96 0 1 0 0-3.92 1.96 1.96 0 1 0 0 3.92zm13.683-17.775a16.06 16.06 0 0 1-4.92 7.536l1.584 2.04a17.589 17.589 0 0 0 1.992-2.016v1.056h2.952c-.36 4.512-2.328 6.936-6.072 8.424l1.464 2.184c3.96-1.728 6.648-4.68 7.152-10.608h3.816a34.208 34.208 0 0 1-.552 7.008c-.12.456-.336.72-1.392.72a16.487 16.487 0 0 1-2.424-.264l.5 2.544c.744.072 1.488.144 2.3.144 2.16 0 3.1-.5 3.5-2.328a55.25 55.25 0 0 0 .624-8.856 15.667 15.667 0 0 0 2.4 2.064l1.656-2.328c-3.648-2.208-5.016-5.16-5.952-8.16h-6.072V8.92h4.128a16.755 16.755 0 0 0 2.712 4.848H468.4a23.238 23.238 0 0 0 2.808-5.3zm28.512 6.528a42.11 42.11 0 0 1 7.368 3.36l1.368-2.088a58.21 58.21 0 0 0-8.736-2.928v-.168h8.952V9.808h-8.952v-4.56h-2.544v4.56h-8.952v2.328h6.7a19.645 19.645 0 0 1-6.84 3.288l1.32 2.16q5.58-2.268 7.776-5.328v3.912h2.544zm-1.44 7.776a18.315 18.315 0 0 0 9.7 5.856l1.272-2.256a18.278 18.278 0 0 1-8.597-4.176h8.208v-2.328h-9.432q.216-.936.36-1.944h-2.544a12.713 12.713 0 0 1-.432 1.944h-8.784v2.328h7.656a8.963 8.963 0 0 1-1.032 1.128c-1.44 1.248-3.744 2.208-6.96 2.9l1.008 2.328c3.816-.912 6.48-2.136 8.016-3.672a11.738 11.738 0 0 0 1.561-2.108zm-5.4-16.128-2.16.72a17.9 17.9 0 0 1 1.8 3.24l2.112-.552a19.638 19.638 0 0 0-1.752-3.408zm11.112-.048a12.211 12.211 0 0 1-1.848 3.24l2.088.744a12.746 12.746 0 0 0 1.944-3.408zm9.845 13.97a1.956 1.956 0 1 0 0-3.912 1.956 1.956 0 1 0 0 3.912zm7.59-14.186v4.272h-2.664v2.424h2.64a21.62 21.62 0 0 1-3.432 7.272l1.08 2.736a31.9 31.9 0 0 0 2.376-4.992V27.5h2.472V16.264c.576.816 1.224 1.824 1.968 3.024l1.416-2.136q-1.728-2.016-3.384-3.672v-1.44h2.52V9.616h-2.52V5.344zm7.1 10.92a25.741 25.741 0 0 1-3.1 7.8l2.184 1.392a31.039 31.039 0 0 0 3.192-8.688zm9.456-.216-2.232.768a90.739 90.739 0 0 1 2.328 8.9l2.3-1.032a80.257 80.257 0 0 0-2.392-8.636zm-5.808 11.184a2.22 2.22 0 0 0 2.5-2.52v-10.08h5.616v-2.4h-13.68v2.4h5.568v9.456c0 .624-.288.96-.84.96a16.441 16.441 0 0 1-2.112-.144l.528 2.328zm-4.32-20.76v2.376h11.184V6.472zm23.5-.024V18.4h11.736V6.448zM558.216 16H551.5V8.872h6.72zM543.144 5.44l-1.752 1.728a22.563 22.563 0 0 1 3.912 3.5l1.7-1.728a31.4 31.4 0 0 0-3.86-3.5zm-3.36 6.936v2.4h3.24V23.3a1.683 1.683 0 0 1-.624 1.3l.96 2.256a35.391 35.391 0 0 0 4.7-3.84l-.7-2.616c-.672.672-1.32 1.3-1.92 1.848v-9.872zm11.716 7.008a26.343 26.343 0 0 1-4.08 6.672l2.208 1.608a30.526 30.526 0 0 0 4.08-7.224zm6.552-.12-2.04 1.3a54.244 54.244 0 0 1 4.1 6.984l2.16-1.512a58.992 58.992 0 0 0-4.224-6.772zm17.848-1.872h2.28v2.448h-2.28zm-.168 4.584h2.448v5.088h2.28v-5.088h2.424v2.592a.463.463 0 0 1-.5.528 11.286 11.286 0 0 1-1.512-.12l.6 2.256h1.608c1.416 0 2.136-.624 2.136-1.848V10.768h-3.6a21.437 21.437 0 0 0 1.8-2.16V6.856h-5.544c.192-.336.36-.672.552-1.056L576 5.248a17.813 17.813 0 0 1-4.536 5.9L573 13c.192-.168.408-.336.6-.528v7.3a10.9 10.9 0 0 1-1.68 6.048l1.824 1.632a12.314 12.314 0 0 0 1.992-5.476zm3.192-11.208h-3.672c.456-.576.912-1.176 1.368-1.824h3.864a20.519 20.519 0 0 1-1.556 1.824zm3.96 9.072h-2.424v-2.448h2.424zm0-4.608h-2.424v-2.28h2.424zm-4.7-2.28v2.28H575.9v-2.28zM564.36 6.376v2.4h2.376a24.2 24.2 0 0 1-3.168 8.544l1.44 2.328c.288-.432.552-.864.84-1.32V26.7h2.352v-1.56h3.936V13.5h-4.1a34.05 34.05 0 0 0 1.152-4.728h3.408v-2.4zm3.84 16.488v-7.056h1.68v7.056zm33.336-17.4a53.855 53.855 0 0 1-1.008 11.208 16.1 16.1 0 0 1-5.328 8.64l1.7 2.088a17.668 17.668 0 0 0 6.1-10.224c.048-.192.072-.408.12-.624a34.058 34.058 0 0 0 5.352 10.776l1.828-2.088c-3.072-3.48-5.232-8.136-6.432-13.968.144-1.776.216-3.72.216-5.808zm-10.392-.024-1.776 1.728A21.97 21.97 0 0 1 593.3 10.7l1.728-1.752a33.615 33.615 0 0 0-3.884-3.508zm-3.336 6.936v2.4h3.292v8.28a1.614 1.614 0 0 1-.648 1.32l.96 2.232a36.97 36.97 0 0 0 4.992-3.864l-.672-2.568a38.475 38.475 0 0 1-2.208 1.992v-9.792z" transform="translate(30 51)"/>
        </g>
        <g id="fc_box_big_no_btn-3" data-name="fc_box_big_no_btn" transform="translate(407 1584)">
            <g transform="translate(-114 -640)" style="filter:url(#box-3)">
                <g id="box-9" data-name="box" class="cls-2">
                    <path class="cls-12" d="M0 0h1108v130H0z" transform="translate(114 640)"/>
                    <path class="cls-13" d="M1 1h1106v128H1z" transform="translate(114 640)"/>
                </g>
            </g>
            <path id="패스_10771" data-name="패스 10771" class="cls-3" d="M463.283 25.232c3.82 0 6.58-2.088 6.564-4.989.017-2.122-1.359-3.638-3.862-3.945v-.133a3.6 3.6 0 0 0 3.224-3.6c.017-2.677-2.345-4.773-5.876-4.773-3.481 0-6.116 2.03-6.174 4.948h3.381c.05-1.3 1.276-2.138 2.776-2.138a2.224 2.224 0 0 1 2.494 2.18c.008 1.343-1.16 2.254-2.843 2.254h-1.575v2.61h1.575c2 0 3.224.978 3.215 2.362.008 1.367-1.2 2.3-2.892 2.3-1.633 0-2.859-.837-2.917-2.088h-3.555c.059 2.965 2.727 5.012 6.465 5.012zm10.616-.025a1.96 1.96 0 1 0 0-3.92 1.96 1.96 0 1 0 0 3.92zM489.6 5.56c-.216.888-.48 1.776-.768 2.664h-4.992v2.256h4.128a23.939 23.939 0 0 1-4.824 7.152l1.536 2.136c.768-.792 1.416-1.56 2.088-2.376v9.24h2.5V21.64h7.608v1.56c0 .6-.336.7-.888.7a7.911 7.911 0 0 1-2.04-.192l.672 2.544a20.835 20.835 0 0 0 2.232.1c1.656 0 2.52-.648 2.52-2.328V12.28h-9.462c.264-.6.528-1.2.768-1.8h11.064V8.224h-10.248l.648-2.184zm-.336 12.456h7.608v1.536h-7.608zm0-3.5h7.608v1.464h-7.608zm33.384 3.864v-1.996h-8.258v-1.032h6.41v-1.968h-6.41v-.936h5.5V10.5h-5.5V9.28h5.832v2.808h2.4v-4.9h-8.232V5.752h-2.5v1.44h-8.112v4.872h2.424V9.28h5.712v1.22h-5.352v1.944h5.352v.936h-6.264v1.968h6.264v1.032h-8.16v1.992zm-1.728 8.016V19.36h-15.314v7.272h2.4v-1.008h10.488v.768zm-12.912-5.016h10.488v2.232h-10.49zm25.15-14.548a25.691 25.691 0 0 1-.84 5.544 29.213 29.213 0 0 0-1.128-3.168l-1.416.7v-4.18h-2.424v20.856h2.424V10.408a22.78 22.78 0 0 1 .984 3.6l1.176-.576a13.774 13.774 0 0 1-.792 1.7l2.136 1.176a19.578 19.578 0 0 0 1.416-3.84h1.92v4.252h-3.96v2.256h3.96v4.7h-5.208v2.232h12.312V23.68h-4.632v-4.7H543v-2.26h-3.912v-4.248h4.056v-2.256h-4.056V5.728h-2.472v4.488h-1.44c.168-.984.288-1.992.408-3.048zm-8.256 3.24a23.419 23.419 0 0 1-.744 6.1l1.92.888a28.529 28.529 0 0 0 .816-6.552zm28.68-3.888v2.352h5.352v8.328h-6.048v2.376h6.048v8.28h2.448v-8.28h6.144v-2.376h-6.144V8.536h5.4V6.184zm10.584 3.168a31.36 31.36 0 0 1-1.752 5.856l2.088.744a31.389 31.389 0 0 0 1.848-6.024zm-8.232.072-2.136.72A41.317 41.317 0 0 1 555.5 16l2.136-.528a50.759 50.759 0 0 0-1.702-6.048zm-7.32-3.984-1.776 1.728a21.97 21.97 0 0 1 3.936 3.528l1.726-1.752a33.615 33.615 0 0 0-3.886-3.504zm-3.408 6.936v2.4h3.288V23.3a1.683 1.683 0 0 1-.624 1.3l.936 2.256a35.766 35.766 0 0 0 4.728-3.816l-.7-2.64c-.672.672-1.32 1.3-1.92 1.848v-9.872zm26.76 2.472v12.5h2.544V10.7a29.679 29.679 0 0 0 1.752-4.416l-2.352-1.1a26.585 26.585 0 0 1-4.848 9.5l.84 2.688c.72-.82 1.416-1.66 2.064-2.524zm12.864-1.056V27.28h2.424V13.792zm-6 .072v3.528c-.048 3.936-1.032 6.816-2.976 8.592l1.9 1.656c2.28-2.16 3.456-5.592 3.5-10.248v-3.528zm3.024-8.448a21.363 21.363 0 0 1-7.128 8.3l1.392 2.136a21.45 21.45 0 0 0 6.864-8.04 20.339 20.339 0 0 0 7.224 7.8l1.416-2.136a19.82 19.82 0 0 1-7.488-8.064z" transform="translate(30 51)"/>
        </g>
        <g id="fc_box_big_no_btn-4" data-name="fc_box_big_no_btn" transform="translate(407 1764)">
            <g transform="translate(-114 -820)" style="filter:url(#box-4)">
                <g id="box-10" data-name="box" class="cls-2">
                    <path class="cls-12" d="M0 0h1108v130H0z" transform="translate(114 820)"/>
                    <path class="cls-13" d="M1 1h1106v128H1z" transform="translate(114 820)"/>
                </g>
            </g>
            <path id="패스_10772" data-name="패스 10772" class="cls-3" d="M423.786 19.166V8.028h-4.426l-7.185 11.188v2.776h8.246V25h3.365v-3.008h2.138v-2.826zm-3.472-7.276h.157v7.276h-4.74v-.133zm9.622 13.318a1.96 1.96 0 1 0 0-3.92 1.96 1.96 0 1 0 0 3.92zM441.89 8.776c-.456 3.6-1.392 6.336-2.808 8.16l1.248 2.208a13.811 13.811 0 0 0 2.952-5.52h2.592a27.278 27.278 0 0 1-.912 4.1 11.643 11.643 0 0 0-2.112-1.3l-1.032 1.976a12.6 12.6 0 0 1 2.28 1.464 12.633 12.633 0 0 1-4.584 5.424l1.224 2.232q6.192-3.96 7.344-14.04v-2.16h-4.2c.144-.792.288-1.632.408-2.544h4.44V6.424h-9.168v2.352zm17.664.744-5.16.768V5.272h-2.544v5.4l-2.952.456.36 2.3 2.664-.408a24.6 24.6 0 0 0 .168 2.3l-3.792.624.36 2.352 3.744-.6c.072.48.168.984.264 1.464a21.818 21.818 0 0 0 .888 2.9 19.749 19.749 0 0 1-6.1 2.976l1.464 2.016a19.442 19.442 0 0 0 5.664-2.784c.144.264.336.528.528.816 1.032 1.464 2.136 2.208 3.336 2.232q1.872 0 2.808-4.608l-2.132-1.408c-.264 2.232-.576 3.36-.96 3.36-.5 0-1.08-.576-1.7-1.7l-.072-.144a27.464 27.464 0 0 0 3.648-4.2l-1.92-1.3a20.842 20.842 0 0 1-2.64 3.12 17.694 17.694 0 0 1-.576-2.568 2.368 2.368 0 0 1-.072-.576l5.76-.96-.384-2.352-5.616.936c-.072-.72-.12-1.488-.144-2.28l5.472-.816zm-2.664-4.3-1.824 1.152a20.556 20.556 0 0 1 2.256 2.928l1.872-1.32a23.179 23.179 0 0 0-2.304-2.756zm26.016 11.184h-17.52v11.14h2.472v-.864h12.576v.84h2.472zm-15.048 7.944v-1.7h5.112v1.7zm7.608 0v-1.7h4.968v1.7zm-7.608-3.912v-1.7h5.112v1.7zm7.608-1.7h4.968v1.7h-4.968zm-3.72-9.84-2.352.672q.5 1.188.936 2.448-1.44.576-3.672 1.224v-4.2a20.729 20.729 0 0 0 6.7-1.9l-1.248-2.088a22.885 22.885 0 0 1-7.872 1.968v5.26a2.093 2.093 0 0 1-.816 1.7l.888 2.28a50.89 50.89 0 0 0 6.768-2.016c.192.6.36 1.224.552 1.848l2.37-.884a49.789 49.789 0 0 0-2.254-6.308zm4.512-.36a15.132 15.132 0 0 1-.648 2.832 8.514 8.514 0 0 1-1.68 2.736l1.488 1.9a10.874 10.874 0 0 0 2.328-3.528 19.58 19.58 0 0 0 .912-3.936h2.9a22.83 22.83 0 0 1-.264 3.96c-.168.744-.552 1.128-1.128 1.152-.624 0-1.368-.048-2.232-.1l.744 2.184a16.121 16.121 0 0 0 1.752.12 2.781 2.781 0 0 0 2.9-1.92q.576-1.512.72-7.848h-10.024v2.448zm11.352 1.488a32.018 32.018 0 0 1-.84 6.408l2.016.576a38.763 38.763 0 0 0 .744-6.84zm6.72-.6-1.728.552V5.344h-2.52v22.08h2.52V10.216a37.826 37.826 0 0 1 1.176 4.032l.936-.24c-.144.288-.288.576-.432.888l1.872 1.656a19.874 19.874 0 0 0 1.8-4.536h3.072v5.112h-5.3v2.448h5.3v4.872h-6.576v2.424h14.712v-2.424h-5.592v-4.872h4.73v-2.448h-4.73v-5.112h4.944V9.592h-4.944v-4.2h-2.544v4.2h-2.592c.1-.768.144-1.536.192-2.352l-2.28-.312a21.243 21.243 0 0 1-.984 5.448 28.23 28.23 0 0 0-1.032-2.952zm19.158 10.106a1.956 1.956 0 1 0 0-3.912 1.956 1.956 0 1 0 0 3.912zm5.333-10.178c.96-.12 1.9-.24 2.808-.384v2.616h-3.264v2.424h3.12a17.426 17.426 0 0 1-3.888 6.336l1.056 2.64a24.865 24.865 0 0 0 2.976-5.376V27.4h2.352V17.224a77.509 77.509 0 0 1 1.872 3.264l1.416-2.136a45.532 45.532 0 0 0-3.288-3.432v-.912h2.619v-2.424h-2.616V8.512a53.53 53.53 0 0 0 2.616-.7l-.888-2.352a30.282 30.282 0 0 1-7.392 1.512zm8.808-2.88v11.9h11.112v-11.9zm8.64 9.552h-6.144V8.848h6.144zm-6.552 3.36a26.079 26.079 0 0 1-3.768 6.72l2.16 1.536a30.777 30.777 0 0 0 3.792-7.2zm6.624-.12-1.992 1.272a59.758 59.758 0 0 1 3.792 7.008l2.136-1.488a58.526 58.526 0 0 0-3.936-6.792zm15.624 8.16a2.022 2.022 0 0 0 2.28-2.28v-3.312c1.872-.1 3.816-.216 5.856-.36.432.48.816.96 1.2 1.44l1.992-1.368a37.739 37.739 0 0 0-4.08-4.152l-1.92 1.224c.432.408.864.816 1.272 1.248-2.736.168-5.544.312-8.4.432a42.241 42.241 0 0 0 9.024-3.96l-2.089-1.368a64.68 64.68 0 0 1-2.712 1.56l-4.824.288a25.017 25.017 0 0 0 3.312-2.232h8.664V6.04h-17.327v8.544h5.424a25.945 25.945 0 0 1-2.544 1.608 6.95 6.95 0 0 1-2.256.264l.456 2.088c1.92-.144 3.84-.288 5.808-.384a31.9 31.9 0 0 1-5.856 1.992c-.7 0-1.416-.024-2.136-.072l.5 2.232c2.5-.1 5.208-.192 8.088-.336v2.568c0 .456-.192.7-.576.7a13.879 13.879 0 0 1-1.944-.168l.528 2.352zm4.608-5.04-1.224 1.848a34.066 34.066 0 0 1 6.744 2.952l1.32-2.088a40.22 40.22 0 0 0-6.84-2.712zm-7.92.048a24.145 24.145 0 0 1-6.5 2.424l1.08 2.28a27.2 27.2 0 0 0 6.912-3.024zm10.464-9.816h-4.992v-1.344h4.992zm-4.992-3.264V8.008h4.992v1.344zm-2.5 3.264h-4.992v-1.344h4.992zm-4.992-3.264V8.008h4.992v1.344zm19.752.672a32.022 32.022 0 0 1-.84 6.408l2.016.576a38.765 38.765 0 0 0 .744-6.84zm6.72-.6-1.728.552V5.344h-2.52v22.08h2.52V10.216a37.826 37.826 0 0 1 1.176 4.032l.936-.24c-.144.288-.288.576-.432.888l1.872 1.656a19.878 19.878 0 0 0 1.8-4.536h3.072v5.112h-5.3v2.448h5.3v4.872h-6.576v2.424h14.712v-2.424h-5.592v-4.872h4.728v-2.448h-4.728v-5.112h4.944V9.592h-4.944v-4.2h-2.544v4.2h-2.592c.1-.768.144-1.536.192-2.352l-2.28-.312a21.244 21.244 0 0 1-.984 5.448 28.209 28.209 0 0 0-1.028-2.952zm25.008-3.24v2.352h5.352v8.328h-6.048v2.376h6.048v8.28h2.448v-8.28h6.144v-2.376h-6.144V8.536h5.4V6.184zM608.7 9.352a31.36 31.36 0 0 1-1.752 5.856l2.088.744a31.389 31.389 0 0 0 1.848-6.024zm-8.232.072-2.136.72a41.317 41.317 0 0 1 1.7 5.856l2.136-.528a50.759 50.759 0 0 0-1.699-6.048zm-7.32-3.984-1.776 1.728a21.97 21.97 0 0 1 3.936 3.528l1.728-1.752a33.615 33.615 0 0 0-3.887-3.504zm-3.408 6.936v2.4h3.288V23.3a1.683 1.683 0 0 1-.624 1.3l.936 2.256a35.766 35.766 0 0 0 4.728-3.816l-.7-2.64c-.672.672-1.32 1.3-1.92 1.848v-9.872zm26.76 2.472v12.5h2.544V10.7a29.679 29.679 0 0 0 1.756-4.42l-2.352-1.1a26.585 26.585 0 0 1-4.848 9.5l.84 2.688a41.77 41.77 0 0 0 2.06-2.52zm12.864-1.056V27.28h2.424V13.792zm-6 .072v3.528c-.048 3.936-1.032 6.816-2.976 8.592l1.9 1.656c2.28-2.16 3.456-5.592 3.5-10.248v-3.528zm3.024-8.448a21.363 21.363 0 0 1-7.128 8.3l1.392 2.136a21.45 21.45 0 0 0 6.864-8.04 20.339 20.339 0 0 0 7.224 7.8l1.416-2.136a19.82 19.82 0 0 1-7.488-8.064z" transform="translate(30 51)"/>
        </g>
        <g id="fc_diamond_long" transform="translate(692 1944)">
            <g transform="translate(-399 -1000)" style="filter:url(#다각형_3)">
                <g id="다각형_3-2" data-name="다각형 3" style="fill:#fff">
                    <path class="cls-12" d="M269 258.89 2.298 130 269 1.11 535.702 130 269 258.89z" transform="translate(399 1000)"/>
                    <path d="M269 2.221 4.596 130 269 257.779 533.404 130 269 2.221M269 0l269 130-269 130L0 130 269 0z" style="fill:#999;stroke:none" transform="translate(399 1000)"/>
                </g>
            </g>
            <path id="패스_10773" data-name="패스 10773" d="M93.614 10.936a9.076 9.076 0 0 1-.882 1.44l-.324-.4a21.867 21.867 0 0 0 1.8-3.87l-1.026-.864h-1.008V4.528h-1.746v2.718h-1.4v1.71h2.934a15.044 15.044 0 0 1-3.262 5.076l.936 1.692c.27-.288.522-.612.792-.918v5.436h1.746v-6.21a7.578 7.578 0 0 0 1.386 1.458l.864-1.458a12.178 12.178 0 0 1-1.278 4.914l1.35 1.368a12.486 12.486 0 0 0 .7-1.494l.972 1.458a13.8 13.8 0 0 0 3.33-2.394 14.015 14.015 0 0 0 3.114 2.2l1.08-1.584a12.076 12.076 0 0 1-3.006-1.944 14.516 14.516 0 0 0 2.484-5.04l-1.152-.81h-1.854V8.2h1.476a9.952 9.952 0 0 1-.666 1.656l1.692.594a27.623 27.623 0 0 0 1.044-3.078l-1.132-.772h-2.412V4.51H98.33V6.6h-3.762v3c0 .774 0 1.44-.018 2.088zm2.664 2.322a12.667 12.667 0 0 0 2.016 3.366 10.577 10.577 0 0 1-3.024 2.016 17.262 17.262 0 0 0 1.008-5.382zm4.752-.918a10.983 10.983 0 0 1-1.566 2.952 10.273 10.273 0 0 1-1.836-2.952zm-4.662-1.64V8.2h1.962v2.5zm-1.944 3.276c-.252-.2-.54-.432-.774-.648A14.177 14.177 0 0 0 94.532 12c-.018.7-.054 1.366-.108 1.978zM107.6 12.43a10.3 10.3 0 0 1-3.186 6.192l1.26 1.44a10.828 10.828 0 0 0 2.286-2.988 6.13 6.13 0 0 0 3.582 2.286 17.634 17.634 0 0 0 3.168.288c.558.018 1.062.036 1.62.036.63 0 1.332-.018 2.214-.018l.594-1.926c-1.566.072-2.9.144-4.05.144a18.5 18.5 0 0 1-2.376-.144v-2.808h4.122v-1.656h-4.122v-2.052h4.77V9.946h.99V6.094h-5.85v-1.62h-1.872v1.62h-5.76v3.852h1.026v1.278h4.842v6.03a5.406 5.406 0 0 1-2.2-1.818 16.5 16.5 0 0 0 .72-2.61zm-.7-4.63h9.684v1.7H106.9zm16.236-3.186-1.422 1.026a25.646 25.646 0 0 1 2.358 2.772l1.476-1.008a22.377 22.377 0 0 0-2.414-2.786zm6.516 7.56-1.512.954a32.082 32.082 0 0 1 2.682 3.726l1.656-1.152a30.444 30.444 0 0 0-2.828-3.524zM126.68 4.2v2.722c-.018.522-.054 1.044-.09 1.566h-5.58v1.836h5.382a17.411 17.411 0 0 1-1.116 4.23 10.07 10.07 0 0 1-4.878 4.59l1.062 1.674a10.7 10.7 0 0 0 5.238-4.842 18.176 18.176 0 0 0 1.584-5.652h5.58c0 2.124-.054 4.1-.162 5.9s-.54 2.736-1.278 2.808a26.729 26.729 0 0 1-2.79-.18l.5 1.818a22.021 22.021 0 0 0 2.376.108 2.688 2.688 0 0 0 2.574-2.178c.468-1.44.7-4.824.7-10.116h-7.326c.036-.5.054-1.026.072-1.566V4.2zm17.5 6.822h6.552v1.44h-6.552zm6.552 3.06v1.4h-6.552v-1.4zm0 3.024v1.458q0 .594-.648.594c-.576 0-1.206-.036-1.872-.09l.45 1.692h2.016c1.206-.036 1.818-.558 1.818-1.6V9.406h-8.136c.306-.522.594-1.044.882-1.584h9.378V6h-8.59c.2-.54.378-1.1.558-1.674l-1.926-.226a18.684 18.684 0 0 1-.702 1.9h-5.238v1.822h4.338a19.257 19.257 0 0 1-4.824 5.49l1.224 1.6a24.592 24.592 0 0 0 2.952-2.844v8.784h1.764V17.11zm8.388-6.444v1.422h4.5v.828h-6.92V14.5h6.912v.594h1.908V14.5h6.93v-1.584h-6.93v-.828h4.518v-1.422h-4.518v-.774h5.508v-1.1h1.116V5.41h-6.516q-.243-.756-.486-1.35l-2.016.324q.27.486.54 1.026h-6.642v3.726h1.08v.756h5.508v.774zm11.2-2.268h-4.788V7.66h-1.908v.74h-4.752V7.138h11.448zm.288 7.074h-12.05v5.4h1.836v-.608h8.37v.612h1.836zm-10.206 3.2v-1.62h8.37v1.62zm14.298-10.9a24.015 24.015 0 0 1-.63 4.806l1.512.432a29.074 29.074 0 0 0 .558-5.13zm5.04-.45-1.3.414V4.258h-1.89v16.56h1.89V7.912a28.369 28.369 0 0 1 .882 3.024l.7-.18c-.108.216-.216.432-.324.666l1.4 1.242a14.907 14.907 0 0 0 1.35-3.4h2.3V13.1h-3.978v1.836h3.978v3.654h-4.932v1.81h11.034v-1.814h-4.194v-3.654h3.546V13.1h-3.546V9.262h3.708V7.444h-3.708v-3.15h-1.908v3.15h-1.944c.072-.576.108-1.152.144-1.764l-1.71-.234a15.933 15.933 0 0 1-.738 4.086 21.167 21.167 0 0 0-.756-2.214zm13.572 2.25v5.778h6.988V9.568zm5.13 4.086h-3.258V11.3h3.258zm2.268 2.214a52.092 52.092 0 0 1-8.3 1.656l.45 1.872a75.664 75.664 0 0 0 7.848-1.728zm5.994 4.95c.972 0 1.71-1.26 2.214-3.762l-1.6-1.062c-.234 1.836-.5 2.754-.828 2.754-.45 0-.954-.45-1.494-1.314-.108-.2-.216-.4-.324-.612a25.734 25.734 0 0 0 3.06-6.66l-1.656-.882a24.807 24.807 0 0 1-2.178 5.256c-.09-.36-.162-.72-.234-1.116a33.887 33.887 0 0 1-.45-5.256h5.418V6.328h-1.656a18.3 18.3 0 0 0-.792-1.764l-1.89.306a11.446 11.446 0 0 1 .846 1.458h-1.94V4.222h-1.89v2.106h-8.82v1.836h8.82a29.877 29.877 0 0 0 .684 6.264 13.063 13.063 0 0 0 .612 2.052 11.706 11.706 0 0 1-3.258 2.88l1.044 1.62a13.211 13.211 0 0 0 3.1-2.628 6.309 6.309 0 0 0 .486.72 3.608 3.608 0 0 0 2.73 1.746zM73.143 33.271V46h2.642v-4.146h2.287c2.927 0 4.612-1.753 4.612-4.282s-1.66-4.3-4.556-4.3zm2.642 6.452V35.44h1.852c1.573 0 2.331.852 2.331 2.132a2.042 2.042 0 0 1-2.325 2.151zM89.757 46c2.872 0 4.388-1.492 4.388-3.506a2.955 2.955 0 0 0-2.8-3.1v-.124a2.708 2.708 0 0 0 2.3-2.729c0-1.914-1.417-3.269-4.22-3.269h-5.063V46zM87 35.415h2.082c1.206 0 1.89.628 1.89 1.554 0 1.019-.827 1.635-1.939 1.635H87zm0 5h2.287a1.874 1.874 0 0 1 2.126 1.821c0 .963-.665 1.6-2.182 1.6H87zm12.22-4.954V46h2.617V35.459h3.9v-2.188H95.314v2.188zm8.683 5.432a12.458 12.458 0 0 0 2.511 7.869h2.48a14.723 14.723 0 0 1 0-15.744h-2.48a12.463 12.463 0 0 0-2.508 7.873zm6.6-6.123a21.663 21.663 0 0 1-.63 4.806l1.494.4a28.475 28.475 0 0 0 .558-5.094zm4.932-.45-1.3.414v-3.476h-1.836v16.56h1.836V34.876a34.323 34.323 0 0 1 .918 3.96l1.458-.4a38.626 38.626 0 0 0-1.07-4.118zm3.654-3.06v4.158h-2.628v1.8h2.556q-.4 6.4-3.582 9.486l1.4 1.242q3.564-3.51 4.014-10.728h.648v8.622c0 1.152.5 1.746 1.53 1.746h1.98a1.531 1.531 0 0 0 1.116-.558 10.715 10.715 0 0 0 .558-3.42l-1.674-.558a14.5 14.5 0 0 1-.18 2.538c-.09.18-.18.288-.288.288h-1.008c-.18 0-.252-.126-.252-.378v-8.28h2.844v-1.8h-5.2v-4.16zm3.906.2-1.224 1.152a15.621 15.621 0 0 1 2.448 2.448l1.278-1.278A16.572 16.572 0 0 0 127 31.456zm11.34-.288v3.218h-5v5.58a16.279 16.279 0 0 1-1.314 6.7l1.368 1.224a17.271 17.271 0 0 0 1.674-7.92v-4h10.89a10.507 10.507 0 0 1-.63 1.566l1.764.486a16.491 16.491 0 0 0 .81-2.808v-.828h-7.7v-.9h6.246v-1.548h-6.246v-.774zm6.408 5.544-4.572.558v-1.012h-1.782v1.224l-2.934.342.216 1.512 2.718-.324v.468c0 .99.666 1.494 2 1.494h4.41a2.706 2.706 0 0 0 1.494-.324c.342-.216.594-.9.738-2.052l-1.746-.54q-.054 1.026-.27 1.188a.75.75 0 0 1-.558.2h-3.582c-.468 0-.7-.108-.7-.306V38.8l4.825-.576zm-8.928 5.742a15.776 15.776 0 0 1-1.26 3.978l1.53.972a19.586 19.586 0 0 0 1.422-4.608zm6.1-1.314-1.512.5a19.526 19.526 0 0 1 1.746 3.06L143.7 44a18.091 18.091 0 0 0-1.777-2.86zm4.806.846-1.638.54a29.777 29.777 0 0 1 1.872 4.446l1.656-.738a30.361 30.361 0 0 0-1.882-4.252zm-3.021 5.774a2.248 2.248 0 0 0 1.4-.4 5.275 5.275 0 0 0 .666-2.7l-1.71-.54a4.874 4.874 0 0 1-.234 1.638.538.538 0 0 1-.45.234h-2.826c-.432 0-.63-.234-.63-.684V42.2h-1.836v3.492c0 1.368.63 2.07 1.89 2.07zm11.06-6.873a12.459 12.459 0 0 0-2.5-7.875h-2.486a14.689 14.689 0 0 1 0 15.744h2.486a12.454 12.454 0 0 0 2.505-7.869zm3.019-8.067a29.279 29.279 0 0 1-.792 5.652l1.512.792a20.736 20.736 0 0 0 .558-2.754h.756v3.366c-.936.36-1.854.684-2.682.99l.486 1.854c.72-.288 1.476-.63 2.2-.936v5.418h1.764V40.96c.576-.27 1.116-.558 1.566-.774l-.072-1.728.2.144a15.626 15.626 0 0 0 1.4-2.646h.486a13.333 13.333 0 0 1-3.474 6.8l1.17 1.206a16.72 16.72 0 0 0 4-8.01h.774a16.135 16.135 0 0 1-4.9 9.756l1.188 1.278c3.2-3.006 4.7-6.84 5.364-11.034h.288a48.388 48.388 0 0 1-.72 8.748c-.09.36-.216.522-.72.522h-.18a9.585 9.585 0 0 1-1.71-.2l.36 1.854a10.855 10.855 0 0 0 1.638.126c1.368.018 2-.432 2.25-1.674a61.283 61.283 0 0 0 .792-11.088h-5.991a21.81 21.81 0 0 0 .666-2.394l-1.692-.36a19.864 19.864 0 0 1-1.332 4.3v-.946h-1.35v-3.294h-1.764v3.294h-.558c.054-.63.072-1.242.108-1.8zm4.14 4.734 1.116.882-1.458.666v-2.592h.972c-.175.342-.391.686-.625 1.044zm14.2-.738h5.2l-.27 1.17h-3.726v6.336h1.818v-4.608h6.534v4.608h1.825V37.99h-4.536l.27-1.17h5.742v-1.728h-5.454c.054-.36.108-.738.144-1.1l-1.866-.232-.162 1.332h-5.508v-1.17a79.449 79.449 0 0 0 12.06-1.044l-.918-1.674a74.234 74.234 0 0 1-12.96 1.152v5.76a17.9 17.9 0 0 1-1.836 8.316l1.314 1.368q2.214-3.618 2.34-9.684zm7.488 6.912-.936 1.4a24.242 24.242 0 0 1 5.274 2.754L189 46.252a27.455 27.455 0 0 0-5.386-2.52zm-1.728-3.492a6.048 6.048 0 0 1-1.764 3.87 10.478 10.478 0 0 1-4.608 2.088l1.008 1.728a11.648 11.648 0 0 0 5.2-2.682 7.792 7.792 0 0 0 1.98-4.878zm14.562-7.7h-5.292v13.622h1.764v-1.188h1.787v.81h1.746zm-3.521 10.67v-8.946h1.78v8.946zm5.868-8.676-1.062 6.138h7.236c0 2.448-.162 3.924-.45 4.428s-1.17.756-2.646.756a12.726 12.726 0 0 1-1.656-.2l.594 1.962a14.824 14.824 0 0 0 1.53.09c1.836 0 3.042-.36 3.618-1.044.558-.684.846-3.276.846-7.776h-1.944l1.062-7.092h-8.46v1.8h6.336l-.828 5.292h-3.2l.864-4.266zm-1.908 7.812v1.764h7.11v-1.764zm15.75-9.45a4.3 4.3 0 0 0-3.15 1.134 4.114 4.114 0 0 0-1.17 3.132h2.052a2.94 2.94 0 0 1 .45-1.764 1.879 1.879 0 0 1 1.692-.738 1.753 1.753 0 0 1 1.944 1.908 1.993 1.993 0 0 1-.486 1.278l-.216.252a9.784 9.784 0 0 0-2.106 2.286 3.812 3.812 0 0 0-.36 1.764v.252h2.07v-.252a2.544 2.544 0 0 1 .27-1.17 2.789 2.789 0 0 1 .72-.9c.864-.756 1.386-1.242 1.548-1.422a3.6 3.6 0 0 0 .666-2.214 3.265 3.265 0 0 0-1.08-2.592 4.091 4.091 0 0 0-2.844-.95zm-.324 10.386a1.387 1.387 0 0 0-.99.378 1.391 1.391 0 0 0 0 1.944 1.4 1.4 0 0 0 .99.4 1.387 1.387 0 0 0 .99-.378 1.391 1.391 0 0 0 .018-1.962 1.431 1.431 0 0 0-1.008-.382z" transform="translate(120 104)" style="fill:#111"/>
        </g>
        <g id="fc_start_end-2" data-name="fc_start_end" transform="translate(407 2714)">
            <g transform="translate(-114 -1770)" style="filter:url(#area-2)">
                <g id="area-4" data-name="area" class="cls-2" transform="translate(114 1770)">
                    <rect class="cls-12" width="1108" height="130" rx="65"/>
                    <rect class="cls-13" x="1" y="1" width="1106" height="128" rx="64"/>
                </g>
            </g>
            <path id="패스_10781" data-name="패스 10781" class="cls-3" d="M380.84 5.632a16.859 16.859 0 0 1-5.208 6.792l1.416 2.16c.288-.264.6-.5.864-.744v2.136c0 2.76-.1 6.048-2.616 9.048l1.776 1.728c2.712-3.24 3.264-6.744 3.264-10.656V13.48h13.848v-2.208h-5.928a29.641 29.641 0 0 0 1.464-2.688L388.136 7.5h-5.4c.192-.36.36-.72.528-1.1zm11.112 15.432a6.114 6.114 0 0 1-.384 2.184c-.288.456-.744.672-4.032.672-2.784 0-3.528-.024-3.528-.672v-6.216h5.016v2.136c0 .384-.216.576-.744.576a12.146 12.146 0 0 1-1.92-.216l.528 2.232c.888.024 1.32.048 2.016.048 1.752 0 2.568-.576 2.568-2.112v-4.752h-9.936v9.072c0 1.872 1.32 2.04 5.952 2.04 4.56 0 5.592-.384 6.264-1.464a7.848 7.848 0 0 0 .672-2.664zm-5.616-11.5a13.2 13.2 0 0 1-.984 1.7h-5.04a14.285 14.285 0 0 0 1.272-1.7zm28.728 8.808v-1.988h-8.256v-1.032h6.408v-1.968h-6.408v-.936h5.5V10.5h-5.5V9.28h5.832v2.808h2.4v-4.9h-8.232V5.752h-2.5v1.44H396.2v4.872h2.424V9.28h5.712v1.22h-5.352v1.944h5.352v.936h-6.264v1.968h6.264v1.032h-8.16v1.992zm-1.728 8.016V19.36h-15.312v7.272h2.4v-1.008h10.488v.768zm-12.912-5.016h10.488v2.232h-10.488zm25.152-14.54a25.689 25.689 0 0 1-.84 5.544 29.206 29.206 0 0 0-1.128-3.168l-1.416.7v-4.18h-2.424v20.856h2.424V10.408a22.774 22.774 0 0 1 .984 3.6l1.176-.576a13.774 13.774 0 0 1-.792 1.7l2.136 1.176a19.584 19.584 0 0 0 1.416-3.84h1.92v4.252h-3.96v2.256h3.96v4.7h-5.208v2.232h12.312V23.68H431.5v-4.7h3.912v-2.26H431.5v-4.248h4.056v-2.256H431.5V5.728h-2.472v4.488h-1.44c.168-.984.288-1.992.408-3.048zm-8.256 3.24a23.421 23.421 0 0 1-.744 6.1l1.92.888a28.53 28.53 0 0 0 .816-6.552zm29.64 2.016V9.64h-2.736V5.728h-2.592V9.64h-3.216v2.448h2.88a21.4 21.4 0 0 1-3.5 7.68l1.44 2.376a14.879 14.879 0 0 0 2.472-4.68 34.282 34.282 0 0 0-.072 2.064v7.08h2.592v-7.656c0-.7-.048-1.776-.1-2.664a16.52 16.52 0 0 0 1.92 3.408l1.392-2.064v8.976h2.688V25h3.648v1.32h2.712V6.52h-9.048v10.728a17.673 17.673 0 0 1-2.9-5.16zm3.168 7.416h3.648v3.12h-3.648zm0-5.3h3.648v3h-3.648zm0-5.256h3.648v2.9h-3.648zm15.24-3.552-2.3 1.1a28.838 28.838 0 0 1 2.4 3.5h-4.992v2.448h7.776v.576a20.621 20.621 0 0 1-.36 3.12H459.1v2.448h8.064a11.475 11.475 0 0 1-1.056 2.016c-1.3 1.8-3.768 3.312-7.464 4.512l1.368 2.184q5.544-1.728 7.992-4.968a15.14 15.14 0 0 0 1.512-2.76q2.124 4.932 9.528 7.968l1.488-2.376c-4.752-1.632-7.728-3.816-8.88-6.576h8.28v-2.444h-9.48a24.366 24.366 0 0 0 .336-3.12v-.576h7.752V10h-4.44a21.543 21.543 0 0 0 1.9-4.1l-2.448-.672A23.252 23.252 0 0 1 471.3 10h-4.728l1.392-.7a46.077 46.077 0 0 0-2.596-3.908zm19.176.168L483.3 7.408a17.248 17.248 0 0 1 3.864 1.848L488.5 7.24a21.125 21.125 0 0 0-3.956-1.68zm7.152-.384a8.07 8.07 0 0 1-3 4.08l1.488 1.944a12.941 12.941 0 0 0 2.208-2.232h2.4a5.432 5.432 0 0 1-1.56 2.52 11.2 11.2 0 0 1-4.824 1.92l.936 2.232c2.76-.648 4.7-1.536 5.808-2.688.216-.24.432-.5.672-.792 1.512 1.728 3.936 2.928 7.3 3.624l.888-2.184c-3.5-.624-5.88-1.776-7.152-3.408.12-.384.24-.792.336-1.224h3.24a10.889 10.889 0 0 1-.864 2.064l2.4.72A27.3 27.3 0 0 0 503 8.272V6.784h-9.336a10.387 10.387 0 0 0 .5-1.3zm9.72 10.728h-15.84v7.464h2.5v-5.14H498.9v4.848h2.52zm-9 2.88c-.168 2.256-.768 3.864-1.824 4.8q-1.8 1.4-7.416 1.656l1.008 2.28c4.536-.384 7.392-1.2 8.568-2.472 1.1-.96 1.848-3 2.184-6.072zm-4.944-8.592a23.1 23.1 0 0 1-4.656 3.12l1.632 1.944a22.581 22.581 0 0 0 4.464-3.36zm7.872 12.7-1.272 1.9a46.493 46.493 0 0 1 8.4 2.928l1.344-2.088a54.009 54.009 0 0 0-8.472-2.748zm13.464-15.632-2.064.672a34.325 34.325 0 0 1 1.392 4.848l1.92-.528a39.815 39.815 0 0 0-1.248-4.992zm5.88-.24a21.154 21.154 0 0 1-.864 4.992l1.848.6a19.014 19.014 0 0 0 1.1-5.3zM506.7 13.48v2.42h3.84a17.885 17.885 0 0 1-4.224 5.5l1.056 2.616a24.972 24.972 0 0 0 3.36-5.136v8.568h2.52v-8.76c.552.816 1.2 1.848 1.92 3.048l1.488-2.232a45.994 45.994 0 0 0-3.408-3.168V15.9h3.312v-2.42h-3.312V5.368h-2.52v8.112zm16.94-8.088v13.656l-6.864 1.032.36 2.5 6.5-.984v5.856h2.472v-6.24l2.616-.384-.432-2.5-2.184.336V5.392zm-4.2 1.56-1.656 1.608a23.107 23.107 0 0 1 3.792 3.528l1.7-1.7a27.775 27.775 0 0 0-3.836-3.436zm-.576 5.64-1.68 1.584a23.689 23.689 0 0 1 3.744 3.624l1.7-1.728a28.336 28.336 0 0 0-3.764-3.48zm20.664-3.408h-3.648a22.117 22.117 0 0 0 1.056-3.624l-2.52-.336a21.637 21.637 0 0 1-.936 3.96h-2.3V26.7h2.4v-1.9h3.552V26h2.4zM533.576 22.5v-4.532h3.552V22.5zm0-6.768v-4.2h3.552v4.2zm10.32-.72-2.04 1.272a43.7 43.7 0 0 1 3.576 5.256l2.016-1.392a41.219 41.219 0 0 0-3.548-5.132zm7.992-5.832h-7.3a31.58 31.58 0 0 0 .912-3.672l-2.468-.308a20.444 20.444 0 0 1-3.216 8.328l1.512 1.992a19.329 19.329 0 0 0 2.3-3.888h5.808c-.048 6.792-.12 10.752-.264 11.9a1.436 1.436 0 0 1-1.512 1.416c-.792 0-1.728-.048-2.784-.12l.6 2.28q1.872.144 2.592.144 3.1 0 3.456-2.52.364-2.948.364-15.548zm8.784 12.768a26.415 26.415 0 0 1-5.928 1.968l.312 2.4a25.749 25.749 0 0 0 5.616-2.064zM557.864 5.2a48.721 48.721 0 0 1-2.52 6.864 2.171 2.171 0 0 1-1.032.912l.624 2.232c1.1-.168 2.184-.336 3.192-.48a21.525 21.525 0 0 1-2.4 3.648 3.214 3.214 0 0 1-1.1.7l.648 2.208a32.625 32.625 0 0 0 6.312-1.488v-2.212a34.626 34.626 0 0 1-3.456 1.008 60.244 60.244 0 0 0 4.488-7.656l-2.16-.816c-.408.84-.792 1.632-1.176 2.4-.72.12-1.44.216-2.16.312a39.087 39.087 0 0 0 3.072-6.72zm16.152 22.2a1.689 1.689 0 0 0 1.9-1.9v-9.812h-10.972l.072-1.464h10.8v-6.7h-5.376c-.264-.888-.528-1.7-.792-2.424l-2.592.432a17.1 17.1 0 0 1 .912 1.992h-5.232v6.12q-.036 7.488-2.76 12.24l1.8 1.608a26.016 26.016 0 0 0 2.808-8.424v8.452h2.04v-5.16h1.276v4.632h1.752V22.36h1.176v4.632h1.728V25.84l.432 1.56zm-1.464-5.04h1.3v2.688c0 .36-.168.552-.456.552l-.84-.1zm-5.928-2.016V17.8h1.276v2.544zm3.024-2.544h1.176v2.544h-1.176zm2.9 0h1.3v2.544h-1.3zm.96-8.088v2.4h-8.5v-2.4zm12.58 3.788h9.984v-2.348h-9.432c.144-.6.264-1.224.408-1.9l-2.472-.24a91.992 91.992 0 0 1-2.352 9.24h13.392c-.072 3.7-.288 5.784-.624 6.216a2.993 2.993 0 0 1-2.208.624c-.864 0-1.824-.024-2.832-.072l.72 2.328h2.016c2.184 0 3.624-.408 4.3-1.176s1.052-4.172 1.148-10.22h-12.768q.36-1.152.72-2.452zm-6.936 6.84v2.4h14.5v-2.4zm20.28-14.256h-19.824V11.7h2.472V8.44h14.88v3.288h2.472zm7.248-.884-1.18 10.992h13.488c0 4.152-.264 6.672-.792 7.536-.48.816-1.992 1.224-4.488 1.224-.48 0-1.368-.072-2.616-.192l.7 2.28c.84.072 1.656.12 2.448.12 3 0 4.968-.528 5.88-1.536.912-1.08 1.392-4.992 1.392-11.76h-13.224l.336-3.192h14.184v-2.4h-13.944l.288-2.88zm-4.032 14.112v2.4h13.512v-2.4zm26.808 7.968a2.181 2.181 0 0 0 2.472-2.448v-6.576l1.728-.864v-2.544c-.576.288-1.152.6-1.728.888v-3.7h2.136v-2.42h-2.136V5.368h-2.544v4.248h-2.616v2.424h2.616v4.752a32.87 32.87 0 0 1-3 .864l.624 2.544a54.807 54.807 0 0 0 2.376-.84v4.824a.717.717 0 0 1-.792.816 11.843 11.843 0 0 1-1.8-.144l.552 2.424zm6.168-21.264v8.76h10.9v-8.76zm8.448 6.744h-6.024v-1.44h6.024zm-6.024-3.312V8.032h6.024v1.416zm-3.96 6.432v2.232h5.76v5.952a.084.084 0 0 1-.048-.024 5.369 5.369 0 0 1-2.424-2.52 15.449 15.449 0 0 0 .336-2.448l-2.208-.264a12.614 12.614 0 0 1-2.808 7.056l1.872 1.632a16.242 16.242 0 0 0 2.04-3.528 5.882 5.882 0 0 0 2.208 2.16c1.2.576 3.384.864 6.6.888.744.024 1.584.048 2.5.048l.7-2.424a32.212 32.212 0 0 1-3.36.168 26.654 26.654 0 0 1-2.976-.168v-2.328h4.584V20.1h-4.584v-1.988h5.664V15.88zm16.728-7.992v2.376h21.432V7.888h-9.264a34.051 34.051 0 0 0-1.272-2.784l-2.808.48a17.832 17.832 0 0 1 1.3 2.3zm14.736 2.52-1.7 1.632a40.991 40.991 0 0 1 6.576 6.36l1.848-1.872a50.1 50.1 0 0 0-6.724-6.12zm-.36 4.536a18.6 18.6 0 0 1-3.672 4.848 16.874 16.874 0 0 1-3.768-4.7l-2.16 1.224a20.985 20.985 0 0 0 3.984 5.088 26.212 26.212 0 0 1-9 3.912l1.56 2.3a25.571 25.571 0 0 0 9.48-4.512 28.266 28.266 0 0 0 9.408 4.44l1.56-2.352a28.264 28.264 0 0 1-9.024-3.816 22.025 22.025 0 0 0 3.936-5.4zm-7.872-4.512a26.736 26.736 0 0 1-6.576 5.712l1.608 2.112a27.348 27.348 0 0 0 6.792-6.24z" transform="translate(30 50)"/>
        </g>
        <g id="fc_box_medium_link" transform="translate(407 2304)">
            <g transform="translate(-114 -1360)" style="filter:url(#box-5)">
                <g id="box-11" data-name="box" class="cls-2">
                    <path class="cls-12" d="M0 0h538v130H0z" transform="translate(114 1360)"/>
                    <path class="cls-13" d="M1 1h536v128H1z" transform="translate(114 1360)"/>
                </g>
            </g>
            <g id="fc_textlink-2" data-name="fc_textlink" transform="translate(386 76)">
                <g id="stack-2" data-name="stack" transform="translate(-2524.094 20210)">
                    <g id="ico_fc_pop_up-2" data-name="ico_fc_pop_up" transform="translate(2431.094 -20209)">
                        <g id="그룹_1025-2" data-name="그룹 1025" transform="translate(-1101.074 -1125)">
                            <g id="그룹_1026-2" data-name="그룹 1026" transform="translate(1108.074 1129)">
                                <path id="사각형_878-2" data-name="사각형 878" class="cls-5" d="M0 0h9v9H0z"/>
                            </g>
                            <path id="패스_6896-2" data-name="패스 6896" class="cls-6" d="M1104.574 1132.941v9h9" transform="translate(.5 -.941)"/>
                        </g>
                    </g>
                    <path id="패스_10778" data-name="패스 10778" class="cls-7" d="M-28.864-7.184v6.048h9.792v-6.048zm8.32 4.7h-6.848v-1.004h6.848zm-6.848-2.288V-5.84h6.848v1.072zm-3.2-7.04v1.412h4.56a15.673 15.673 0 0 1-5.344 2.352l.816 1.348a13.56 13.56 0 0 0 5.86-3.668v2.7h1.472v-2.72a12.6 12.6 0 0 0 5.92 3.68l.656-1.376a13.57 13.57 0 0 1-5.216-2.32h4.528v-1.408h-5.888v-1.344H-24.7v1.344zm-.32 11.632v1.396h13.84V-.176zm16.8-10.128v1.3h4.336c-.16.256-.352.528-.544.8h-4.656v1.344h3.568a22.321 22.321 0 0 1-3.984 3.376l.816 1.3A26.871 26.871 0 0 0-12.224-4v5.664h1.44v-.608h6.928v.608h1.44v-7.728h-7.76c.208-.256.416-.528.64-.8H-.9v-1.344h-7.74c.16-.256.3-.528.464-.8h6.352v-1.3h-5.744q.168-.432.336-.912a42.4 42.4 0 0 0 5.312-.72l-.7-1.2a61.528 61.528 0 0 1-11.392.9l.432 1.248c1.728 0 3.36-.048 4.864-.128-.112.272-.224.544-.352.816zm3.328 7.408h6.928v.752h-6.928zm6.928-1.152h-6.928v-.784h6.928zm-6.928 3.06h6.928v.816h-6.928zM1.072-12.576v1.424h6.176v1.1H2.4v6.576h4.592A5.555 5.555 0 0 1 6.3-1.824a14 14 0 0 1-2.24-1.424l-1.168.8A14.869 14.869 0 0 0 5.248-.832 10.3 10.3 0 0 1 .64.288L1.3 1.68A11 11 0 0 0 6.736-.1a22.944 22.944 0 0 0 8.352 1.8l.384-1.476A23.3 23.3 0 0 1 7.712-1.2a6.617 6.617 0 0 0 .816-2.272h5.12v-6.576h-4.9v-1.1h6.192v-1.424zM12.144-4.8H8.7a9.269 9.269 0 0 0 .048-.976v-.384h3.392zM7.2-4.8H3.9v-1.36h3.348v.384c0 .32-.016.656-.048.976zM3.9-7.408v-1.344h3.348v1.344zm4.852-1.344h3.392v1.344H8.752zM23.776-13.2a11.209 11.209 0 0 1-6.336 2.976l.9 1.392a14.792 14.792 0 0 0 4.38-1.648h4.3a8.266 8.266 0 0 1-3.488 2.64 21.069 21.069 0 0 0-1.52-1.632l-1.312.624a15.69 15.69 0 0 1 1.412 1.488 17.766 17.766 0 0 1-3.6.544l.64 1.376c4.688-.384 7.888-2.128 9.616-5.2v-1.184H24.5c.208-.208.416-.432.64-.672zm-.256 10-1.344.64a16.586 16.586 0 0 1 1.536 1.744 21.082 21.082 0 0 1-6.24.816l.608 1.456q9.36-.24 12.784-5.856v-1.184h-4.08a9.249 9.249 0 0 0 .928-.848l-1.3-.7c-1.632 1.728-4.208 2.752-7.7 3.088l.912 1.36a21.8 21.8 0 0 0 4.9-1.52h4.384a9.622 9.622 0 0 1-3.76 2.848A19.989 19.989 0 0 0 23.52-3.2zM-32 3h64v1h-64z" transform="translate(2395.094 -20194)"/>
                </g>
            </g>
            <path id="패스_13676" data-name="패스 13676" class="cls-3" d="M188.783 25.232c3.812 0 6.414-2.453 6.406-5.884a5.322 5.322 0 0 0-5.42-5.586 4.294 4.294 0 0 0-3.406 1.442h-.133l.464-4.285h7.541V8.028h-10.441l-.928 9.771h3.207a2.728 2.728 0 0 1 2.652-1.417 2.937 2.937 0 0 1 3.058 3.058 2.88 2.88 0 0 1-3 3.017 2.571 2.571 0 0 1-2.776-2.229h-3.423c.066 2.916 2.66 5.004 6.199 5.004zm10.326-.025a1.96 1.96 0 1 0 0-3.92 1.96 1.96 0 1 0 0 3.92zm27.531-1.335a28.245 28.245 0 0 1-4.752-1.536c.384-.384.816-.792 1.176-1.224a16.737 16.737 0 0 0 3.24 1.44l1.176-2.064a14.286 14.286 0 0 1-4.68-1.988h4.224v-1.732h-5.088v-.96h3.936V14.1h-3.936v-.84h2.688V6.52h-14.16v6.744h2.88v.84h-4.008v1.7h4.008v.96h-5.184V18.5h4.32a13.75 13.75 0 0 1-4.656 2.088l1.1 1.944a20.882 20.882 0 0 0 3.408-1.536 10.447 10.447 0 0 1 1.2 1.32 24.1 24.1 0 0 1-5.088 1.464l.984 2.064a36.226 36.226 0 0 0 4.632-1.656l.552 2.16a8.31 8.31 0 0 0 1.248.1h.6c1.56 0 2.5-.432 2.5-2.088v-1.424a30.559 30.559 0 0 0 6.552 2.976zm-13.776-13.224h9.36v.912h-9.36zm0-2.424h9.36v.888h-9.36zm3.144 12.936a21.259 21.259 0 0 1-1.968.96l1.368-1.1a15.693 15.693 0 0 0-1.2-1.272 9.248 9.248 0 0 0 1.32-1.248h1.08v5.04c0 .552-.12.72-.864.72a8.2 8.2 0 0 1-1.488-.168c.816-.36 1.608-.744 2.352-1.1zm5.208-1.272a12.926 12.926 0 0 1-1.392 1.416l-.864-.5V18.5h.744a12.092 12.092 0 0 0 1.512 1.388zm-5.472-4.08h3.792v.96h-3.792zm0-2.544h3.792v.84h-3.792zm21.48 10.176-2.3.36v-1.248h1.968v-1.44l.5 1.032a4.733 4.733 0 0 0 .84-.168v4.656h2.208v-.624h3.84v.408h2.232v-4.8a8.234 8.234 0 0 0 .816.144l.792-1.872a20.522 20.522 0 0 1-3.648-.768 17.148 17.148 0 0 0 2.64-2.472l-1.3-1.128h-3.984l.48-.6-.984-.336h2.592v-1.416h-3.672v1.152a11.451 11.451 0 0 1-3.408 3.168v-2.352h-7.128v4.68h3.024v4.224l-.84.1v-3.46h-2.088v3.672l-1.128.12.36 2.088c2.808-.384 5.64-.768 8.256-1.272zm2.208-8.616V10.6h5.3v3.072h2.4V8.944h-7.7v-.768h6.312V6.448H230.96v1.728h6.048v.768h-7.488v4.728h2.38V10.6h5.112v4.224zm-2.592 4.992v-1.752l.888 1.176a11.736 11.736 0 0 0 1.392-.936c.432.336.888.672 1.344.96a16.65 16.65 0 0 1-3.936 1.1l.264.528h-1.872v-1.08zm3.6 3.1h3.84v1.536h-3.84zm3.48-10.3v-1.392h-3.672v1.392zm-7.752 1.968v-1.416h-3.48v1.416zm0-1.968v-1.392h-3.48v1.392zm-4.268 4.056h2.712v1.608H231.9zm8.52.5.12-.12h3.6a12.84 12.84 0 0 1-1.752 1.248 13.112 13.112 0 0 1-1.972-1.124zm5.112 4.224h-5.3c.792-.336 1.56-.648 2.28-1.032a23.338 23.338 0 0 0 3.016 1.036zm12.5-15.216v2.356h5.352v8.328h-6.048v2.376h6.048v8.28h2.448v-8.28h6.144v-2.376h-6.144V8.536h5.4V6.184zm10.584 3.168a31.362 31.362 0 0 1-1.752 5.856l2.088.744a31.393 31.393 0 0 0 1.848-6.02zm-8.232.072-2.136.72a41.321 41.321 0 0 1 1.7 5.856l2.136-.528a50.76 50.76 0 0 0-1.7-6.044zm-7.32-3.984-1.776 1.728a21.972 21.972 0 0 1 3.936 3.528l1.728-1.752a33.621 33.621 0 0 0-3.888-3.5zm-3.408 6.936v2.4h3.288V23.3a1.683 1.683 0 0 1-.624 1.3l.936 2.256a35.761 35.761 0 0 0 4.728-3.816l-.7-2.64c-.672.672-1.32 1.3-1.92 1.848v-9.872zm26.76 2.472v12.5h2.544V10.7a29.679 29.679 0 0 0 1.752-4.416l-2.352-1.1a26.586 26.586 0 0 1-4.848 9.5l.84 2.688c.72-.82 1.416-1.66 2.064-2.524zm12.864-1.056V27.28h2.42V13.792zm-6 .072v3.528c-.048 3.936-1.032 6.816-2.976 8.592l1.9 1.656c2.28-2.16 3.456-5.592 3.5-10.248v-3.524zm3.02-8.444a21.363 21.363 0 0 1-7.128 8.3l1.392 2.136a21.45 21.45 0 0 0 6.864-8.04 20.339 20.339 0 0 0 7.224 7.8l1.416-2.136a19.82 19.82 0 0 1-7.488-8.064z" transform="translate(30 33)"/>
        </g>
        <g id="fc_box_medium" transform="translate(407 2484)">
            <g transform="translate(-114 -1540)" style="filter:url(#box-6)">
                <g id="box-12" data-name="box" class="cls-2">
                    <path class="cls-12" d="M0 0h538v130H0z" transform="translate(114 1540)"/>
                    <path class="cls-13" d="M1 1h536v128H1z" transform="translate(114 1540)"/>
                </g>
            </g>
            <path id="패스_10779" data-name="패스 10779" class="cls-3" d="M119.572 14.44v4.584h5.616v.888h-6.768V27.5h2.3v-5.62h4.464v1.56c-1.152.1-2.328.168-3.5.24l.5 2.04c2.736-.264 5.328-.576 7.776-.96a5.517 5.517 0 0 0 .192.6l-.552-.024.552 2.088h2.448c1.512 0 2.28-.792 2.28-2.376v-5.136h-7.34v-.888h5.712V14.44h-5.712v-.864c2.5-.12 4.68-.288 6.552-.48l-1.032-1.752c-3.984.384-8.808.576-14.52.576l.6 1.8q3.2 0 6.048-.072v.792zm7.824 7.44h1.44q.252.54.5 1.152l-1.944.216zm3.624-4.608h-3.48v-1.056h3.48zm-5.832 0h-3.36v-1.056h3.36zm5.544 8.112 1.2-.528a40.524 40.524 0 0 0-1.2-2.976h1.9v2.688c0 .576-.24.864-.7.864zm1.3-17.4V9.16h-13.996V7.984zm-13.992 3h16.36V6.04h-18.788v7.3a29.24 29.24 0 0 1-2.212 12.068l1.872 1.7a32.184 32.184 0 0 0 2.76-13.776zm21.284-4.944v2.448h8.16v5.568h-9.648v2.5h9.648v7.416c0 .648-.36.984-1.08.984-1.1 0-2.28-.048-3.5-.144l.528 2.424h3.84c1.824 0 2.736-.888 2.736-2.616v-8.068h9.24v-2.5H150V8.488h7.584V6.04zm22.44.528v2.424h16.128v15.024c0 .672-.312 1.032-.888 1.032-1.2 0-2.472-.048-3.768-.144l.576 2.424h4.056c1.68 0 2.544-.912 2.544-2.688V8.992h2.976V6.568zm12.48 5.3h-9.912V23.2h2.4v-1.92h7.512zm-7.512 7.152V14.1h5.136v4.92zm32.3 1.032v4.368h-6.168v2.424h14.716v-2.42h-6.024v-4.368h5.136v-2.328h-12.864v2.328zm-10.56 7.224a2.181 2.181 0 0 0 2.472-2.448v-6.572q.864-.432 1.8-.864v-2.544c-.6.312-1.2.624-1.8.912v-3.72h1.728V9.616h-1.728V5.32H188.4v4.3h-2.66v2.42h2.66v4.728a29.183 29.183 0 0 1-3.144.888l.624 2.544q1.26-.4 2.52-.864v4.848a.717.717 0 0 1-.792.816 11.842 11.842 0 0 1-1.8-.144l.552 2.424zm12.052-22.268-2.568.432a15.086 15.086 0 0 1 1.08 2.256h-5.592v4.968h2.356V9.928h8.952v2.736h2.328V7.7h-5.52c-.34-.988-.7-1.876-1.036-2.692zm-3.072 5.976a10.807 10.807 0 0 1-3.72 4.68l1.8 1.584a12.938 12.938 0 0 0 4.1-5.4zm5.376-.048-2.064.912a31.935 31.935 0 0 1 3.624 5.232l2.208-1.128a27.7 27.7 0 0 0-3.768-5.016zm15.72-1.752H214.9a22.114 22.114 0 0 0 1.056-3.624l-2.52-.336a21.637 21.637 0 0 1-.936 3.96h-2.3V26.7h2.4v-1.9h3.552V26h2.4zM212.6 22.5v-4.532h3.552V22.5zm0-6.768v-4.2h3.552v4.2zm10.32-.72-2.04 1.272a43.7 43.7 0 0 1 3.576 5.256l2.016-1.392a41.222 41.222 0 0 0-3.556-5.132zm7.992-5.832h-7.3a31.576 31.576 0 0 0 .912-3.672l-2.472-.308a20.443 20.443 0 0 1-3.216 8.328l1.512 1.992a19.329 19.329 0 0 0 2.3-3.888h5.808c-.048 6.792-.12 10.752-.264 11.9a1.436 1.436 0 0 1-1.512 1.416c-.792 0-1.728-.048-2.784-.12l.6 2.28q1.872.144 2.592.144 3.1 0 3.456-2.52.364-2.948.364-15.548zm23.976-1.776h-9c-.336-.864-.648-1.632-.984-2.328l-2.832.48a13.46 13.46 0 0 1 .984 1.848h-8.88v5.52h2.544v-3.1h15.62v3.12h2.544zm-21 6.648v2.4h5.28a83.12 83.12 0 0 1-2.3 3.864 73.168 73.168 0 0 1 6.384 2.352 16.115 16.115 0 0 1-9.432 2.52l1.464 2.328a16.29 16.29 0 0 0 10.584-3.7 73.211 73.211 0 0 1 7.3 3.816l1.7-2.208a80.413 80.413 0 0 0-7.2-3.48 23.6 23.6 0 0 0 3.024-5.5h4.56v-2.4H243.46l1.512-2.88-2.592-.792c-.6 1.2-1.224 2.424-1.9 3.672zm8.232 2.4h5.808a16.035 16.035 0 0 1-2.736 4.488c-1.632-.624-3.24-1.176-4.8-1.608q.788-1.256 1.724-2.876zm25.532-11.228a34.444 34.444 0 0 1-10.44 7.32l1.224 2.232a35.53 35.53 0 0 0 3.408-1.872v2.184h5.424v3.36h-6.7v2.424h6.7v3.552h-8.832v2.448h20.232v-2.448h-8.856v-3.552h6.672v-2.424h-6.672v-3.36h5.424v-2.16a36.407 36.407 0 0 0 3.312 1.8L279.8 12.5a34.031 34.031 0 0 1-10.368-7.272zm-5.424 7.44A30.915 30.915 0 0 0 268.54 7.5a31.514 31.514 0 0 0 6.288 5.16zm19.9-1.536v2.4h5.5a17.189 17.189 0 0 1-6.312 9.6l1.584 2.064q5.472-4.1 7.2-12.1v-1.964zM300.46 8.9a33.006 33.006 0 0 1-4.776 5.208A28.392 28.392 0 0 1 294 10.24V5.248h-2.54v18.84c0 .672-.264 1.032-.768 1.032-.912 0-1.872-.072-2.88-.168l.552 2.448h3.192q2.444 0 2.444-2.664v-9.36a30.671 30.671 0 0 0 8.28 10.1l1.56-2.3a23.913 23.913 0 0 1-7.008-7.128 36.808 36.808 0 0 0 5.64-5.64zm6.312-2.76v2.444h8.4v8.256h-9.36v2.424h9.36v8.208h2.544v-8.208h9.552V16.84h-9.552V8.584h8.664V6.136zm3.528 3.404-2.328 1.128a45.265 45.265 0 0 1 2.472 5.376L312.8 14.9c-.82-1.972-1.636-3.748-2.5-5.356zm12.7-.1a29.319 29.319 0 0 1-2.616 5.3l2.256 1.152a28.606 28.606 0 0 0 2.64-5.376zm14.232-2.4h-7.056v18.172h2.352v-1.584h2.372v1.08h2.328zm-4.7 14.232V9.352h2.368V21.28zm7.824-11.568-1.424 8.192h9.648c0 3.264-.216 5.232-.6 5.9s-1.56 1.008-3.528 1.008a16.968 16.968 0 0 1-2.208-.264l.792 2.616a19.765 19.765 0 0 0 2.04.12c2.448 0 4.056-.48 4.824-1.392.744-.912 1.128-4.368 1.128-10.368h-2.592l1.416-9.456h-11.28v2.4h8.448l-1.1 7.056h-4.272l1.152-5.688zm-2.556 10.42v2.352h9.48v-2.352zm22.2-.208v-.265a3.249 3.249 0 0 1 1.906-3.182 4.53 4.53 0 0 0 2.544-4.086c0-2.892-2.312-4.591-5.586-4.591-2.992 0-5.445 1.583-5.511 4.873h3.331a2.09 2.09 0 0 1 2.155-2.1 1.926 1.926 0 0 1 2.055 1.923c0 1.094-.779 1.823-1.8 2.47-1.392.878-2.18 1.773-2.2 4.691v.265zm-1.483 5.287a1.96 1.96 0 1 0 0-3.92 1.96 1.96 0 1 0 0 3.92z" transform="translate(30 50)"/>
        </g>
    </g>
    <g id="fc_line" transform="translate(-293 -944)">
        <path id="세로" class="cls-10" transform="translate(961 2203)" d="M0 0h1v50H0z"/>
        <path id="사각형_1195" data-name="사각형 1195" class="cls-10" transform="translate(675 2253)" d="M0 0h572v1H0z"/>
        <path id="세로-2" data-name="세로" class="cls-10" transform="translate(675 2254)" d="M0 0h1v50H0z"/>
        <path id="세로-3" data-name="세로" class="cls-10" transform="translate(1246 2254)" d="M0 0h1v458H0z"/>
        <path id="세로-4" data-name="세로" class="cls-10" transform="translate(675 2434)" d="M0 0h1v50H0z"/>
        <path id="세로-5" data-name="세로" class="cls-10" transform="translate(675 2614)" d="M0 0h1v100H0z"/>
        <path id="패스_7154" data-name="패스 7154" d="M1584.279 3631.74h-57v-901h57" transform="translate(-1177.279 -1082.523)" style="fill:none;stroke:#999"/>
        <path id="세로-6" data-name="세로" class="cls-10" transform="translate(961 1174)" d="M0 0h1v50H0z"/>
        <path id="세로-7" data-name="세로" class="cls-10" transform="translate(961 1354)" d="M0 0h1v50H0z"/>
        <path id="세로-8" data-name="세로" class="cls-10" transform="translate(961 1534)" d="M0 0h1v50H0z"/>
        <path id="세로-9" data-name="세로" class="cls-10" transform="translate(961 1714)" d="M0 0h1v50H0z"/>
        <path id="세로-10" data-name="세로" class="cls-10" transform="translate(961 1894)" d="M0 0h1v50H0z"/>
        <path id="다각형_182" data-name="다각형 182" class="cls-10" d="M7.5 0 15 11H0z" transform="rotate(180 484.5 615)"/>
        <path id="다각형_186" data-name="다각형 186" class="cls-10" d="M7.5 0 15 11H0z" transform="rotate(180 484.5 795)"/>
        <path id="다각형_184" data-name="다각형 184" class="cls-10" d="M7.5 0 15 11H0z" transform="rotate(180 484.5 705)"/>
        <path id="다각형_185" data-name="다각형 185" class="cls-10" d="M7.5 0 15 11H0z" transform="rotate(180 484.5 885)"/>
        <path id="다각형_187" data-name="다각형 187" class="cls-10" d="M7.5 0 15 11H0z" transform="rotate(180 484.5 975.5)"/>
        <path id="다각형_188" data-name="다각형 188" class="cls-10" d="M7.5 0 15 11H0z" transform="rotate(180 341.5 1155)"/>
        <path id="다각형_189" data-name="다각형 189" class="cls-10" d="M7.5 0 15 11H0z" transform="rotate(180 341.5 1245)"/>
        <path id="다각형_191" data-name="다각형 191" class="cls-10" d="M7.5 0 15 11H0z" transform="rotate(180 341.5 1360)"/>
        <path id="다각형_192" data-name="다각형 192" class="cls-10" d="M7.5 0 15 11H0z" transform="rotate(180 627 1360)"/>
        <path id="다각형_190" data-name="다각형 190" class="cls-10" d="M7.5 0 15 11H0z" transform="rotate(90 -1064.5 1477.5)"/>
    </g>
    <g id="fc_yes" transform="translate(-467 1105)">
        <g id="fc_yes-2" data-name="fc_yes" transform="translate(507.704 399.776)">
            <path id="사각형_515" data-name="사각형 515" class="cls-1" d="M0 0h32.576v21.296H0z"/>
            <path id="패스_10774" data-name="패스 10774" class="cls-3" d="M5.064.928V-5.12H-4.968v6.192H-3.3v-.8h6.732v.656zM.792-5.456v-3.008a34.38 34.38 0 0 1 4.48 2.7L6.28-7.088a46.433 46.433 0 0 0-4.656-2.656L.792-8.56v-1.2c.288-.3.56-.64.816-.96H5.9v-1.5H-5.752v1.5h5.3A14.821 14.821 0 0 1-6.3-6.96l.8 1.472a18.811 18.811 0 0 0 4.64-2.7v2.736zM-3.3-3.6h6.732v2.32H-3.3z" transform="translate(16.296 16.224)"/>
        </g>
    </g>
    <g id="fc_yes-3" data-name="fc_yes" transform="translate(-140 1309)">
        <g id="fc_yes-4" data-name="fc_yes" transform="translate(474.864 398.784)">
            <path id="사각형_515-2" data-name="사각형 515" class="cls-1" d="M0 0h98.464v23.024H0z"/>
            <path id="패스_10780" data-name="패스 10780" class="cls-3" d="m-37.984-12.96-.832 1.232A11.5 11.5 0 0 1-36.24-10.5l.9-1.344a14.083 14.083 0 0 0-2.644-1.116zm4.768-.256a5.38 5.38 0 0 1-2 2.72l.992 1.3a8.627 8.627 0 0 0 1.472-1.488h1.6a3.621 3.621 0 0 1-1.04 1.68 7.464 7.464 0 0 1-3.216 1.28l.624 1.488a7.865 7.865 0 0 0 3.872-1.792c.144-.16.288-.336.448-.528A8.566 8.566 0 0 0-25.6-6.144l.592-1.456c-2.336-.416-3.92-1.184-4.768-2.272.08-.256.16-.528.224-.816h2.16a7.259 7.259 0 0 1-.576 1.376l1.6.48a18.2 18.2 0 0 0 .688-2.32v-.992h-6.22a6.922 6.922 0 0 0 .336-.864zm6.48 7.152H-37.3v4.976h1.664v-3.424h7.216v3.232h1.68zm-6 1.92a4.6 4.6 0 0 1-1.216 3.2q-1.2.936-4.944 1.1l.672 1.52C-35.2 1.424-33.3.88-32.512.032c.736-.64 1.232-2 1.456-4.048zm-3.3-5.728a15.4 15.4 0 0 1-3.1 2.08l1.088 1.3a15.054 15.054 0 0 0 2.976-2.24zm5.248 8.464-.848 1.264a31 31 0 0 1 5.6 1.952l.9-1.392a36.007 36.007 0 0 0-5.648-1.824zm8.976-10.416-1.376.448a22.884 22.884 0 0 1 .928 3.232l1.28-.352a26.542 26.542 0 0 0-.828-3.328zm3.92-.16a14.1 14.1 0 0 1-.576 3.328l1.232.4a12.678 12.678 0 0 0 .736-3.536zm-5.328 4.3v1.616h2.56A11.924 11.924 0 0 1-23.472-2.4l.7 1.744a16.648 16.648 0 0 0 2.24-3.424v5.712h1.68v-5.84c.368.544.8 1.232 1.28 2.032l.992-1.488a30.661 30.661 0 0 0-2.272-2.112v-.288h2.208V-7.68h-2.208v-5.408h-1.68v5.408zm11.3-5.392v9.1l-4.58.696.24 1.664 4.336-.656v3.9h1.648v-4.16l1.744-.256-.288-1.664-1.456.224v-8.848zm-2.8 1.04-1.1 1.072a15.406 15.406 0 0 1 2.52 2.356l1.136-1.136a18.517 18.517 0 0 0-2.556-2.288zm-.384 3.76-1.12 1.056a15.792 15.792 0 0 1 2.5 2.416l1.136-1.152A18.89 18.89 0 0 0-15.1-8.272zm8.192-4.176v1.632h6.784a17.45 17.45 0 0 1-7.3 7.04l1.1 1.456A23.5 23.5 0 0 0-.864-6.736V1.7H.864V-9.088a17.8 17.8 0 0 0 .912-1.728h5.136v-1.632zM2.88-8.064l-1.2 1.152A27.44 27.44 0 0 1 6.064-2.56l1.312-1.328A32.922 32.922 0 0 0 2.88-8.064zm8.128-4.576v5.808h4.5v6.256c-.192-.064-.368-.112-.528-.176a5.126 5.126 0 0 1-2.352-2.5 25.159 25.159 0 0 0 .624-2.464L11.616-6A13.2 13.2 0 0 1 8.752.448l1.056 1.344a12.475 12.475 0 0 0 2.24-3.472 5.317 5.317 0 0 0 2.208 2.3c1.04.5 2.976.752 5.824.768.8.016 1.712.032 2.72.032l.48-1.648q-1.344.1-3.312.1a23.658 23.658 0 0 1-2.784-.144V-3.04h5.168v-1.632h-5.168v-2.16h4.224v-5.808zm8.7 4.24h-7.02v-2.64h7.024zm10.352-3.68h-4.972V.368h1.632V-.976h1.744v.96h1.6zm-3.34 9.552V-5.84h1.744v3.312zm0-4.864v-3.168h1.744v3.168zm5.792.16-1.376.864a35.177 35.177 0 0 1 2.208 4l1.392-.96a34.9 34.9 0 0 0-2.224-3.904zm3.44 8.732A1.475 1.475 0 0 0 37.6-.176v-8.592h1.728v-1.616H37.6v-2.624h-1.7v2.624h-5.244v1.616H35.9v8.176c0 .384-.192.576-.544.576q-1.248 0-2.64-.1l.372 1.616z" transform="translate(49.136 17.216)"/>
        </g>
    </g>
    <g id="fc_yes-5" data-name="fc_yes" transform="translate(795.704 1298.775)">
        <path id="사각형_515-3" data-name="사각형 515" class="cls-1" d="M0 0h32.576v21.296H0z"/>
        <path id="패스_10776" data-name="패스 10776" class="cls-3" d="M5.064.928V-5.12H-4.968v6.192H-3.3v-.8h6.732v.656zM.792-5.456v-3.008a34.38 34.38 0 0 1 4.48 2.7L6.28-7.088a46.433 46.433 0 0 0-4.656-2.656L.792-8.56v-1.2c.288-.3.56-.64.816-.96H5.9v-1.5H-5.752v1.5h5.3A14.821 14.821 0 0 1-6.3-6.96l.8 1.472a18.811 18.811 0 0 0 4.64-2.7v2.736zM-3.3-3.6h6.732v2.32H-3.3z" transform="translate(16.296 16.224)"/>
    </g>
    <g id="fc_yes-6" data-name="fc_yes" transform="translate(1 899)">
        <g id="fc_yes-7" data-name="fc_yes" transform="translate(507.512 399.728)">
            <path id="사각형_515-4" data-name="사각형 515" class="cls-1" d="M0 0h32.976v21.36H0z"/>
            <path id="패스_10775" data-name="패스 10775" class="cls-3" d="M6.088-4.832V-6.24H-6.36v1.408h5.488v3.84a3.961 3.961 0 0 1-2.1-1.2 13.381 13.381 0 0 0 .688-2l-1.644-.448A8.165 8.165 0 0 1-6.488-.1l1.136 1.184a9.17 9.17 0 0 0 1.7-1.952A4.822 4.822 0 0 0-.552.64a27.657 27.657 0 0 0 3.008.144c1.152 0 2.4-.064 3.52-.128l.512-1.648c-1.424.128-3.008.224-4.416.224-.448 0-.848-.016-1.248-.032v-1.5h4.112v-1.412H.824v-1.12zM4.344-7.024v-5.248h-8.976v5.248zm-7.232-3.984h5.5v.784h-5.5zm0 1.936h5.5v.784h-5.5z" transform="translate(16.488 16.272)"/>
        </g>
    </g>
</svg>
