<svg id="CHN_flow_chart_2_5" xmlns="http://www.w3.org/2000/svg" width="1336" height="2130" viewBox="0 0 1336 2130">
    <defs>
        <filter id="다각형_3" x="390" y="274" width="556" height="278" filterUnits="userSpaceOnUse">
            <feOffset dy="3"/>
            <feGaussianBlur stdDeviation="3" result="blur"/>
            <feFlood flood-color="#111" flood-opacity=".102"/>
            <feComposite operator="in" in2="blur"/>
            <feComposite in="SourceGraphic"/>
        </filter>
        <filter id="box" x="105" y="1354" width="1126" height="148" filterUnits="userSpaceOnUse">
            <feOffset dy="3"/>
            <feGaussianBlur stdDeviation="3" result="blur-2"/>
            <feFlood flood-color="#111" flood-opacity=".102"/>
            <feComposite operator="in" in2="blur-2"/>
            <feComposite in="SourceGraphic"/>
        </filter>
        <filter id="box-2" x="105" y="1714" width="1126" height="148" filterUnits="userSpaceOnUse">
            <feOffset dy="3"/>
            <feGaussianBlur stdDeviation="3" result="blur-3"/>
            <feFlood flood-color="#111" flood-opacity=".102"/>
            <feComposite operator="in" in2="blur-3"/>
            <feComposite in="SourceGraphic"/>
        </filter>
        <filter id="area" x="105" y="1894" width="1126" height="148" filterUnits="userSpaceOnUse">
            <feOffset dy="3"/>
            <feGaussianBlur stdDeviation="3" result="blur-4"/>
            <feFlood flood-color="#111" flood-opacity=".102"/>
            <feComposite operator="in" in2="blur-4"/>
            <feComposite in="SourceGraphic"/>
        </filter>
        <filter id="box-3" x="105" y="994" width="556" height="148" filterUnits="userSpaceOnUse">
            <feOffset dy="3"/>
            <feGaussianBlur stdDeviation="3" result="blur-5"/>
            <feFlood flood-color="#111" flood-opacity=".102"/>
            <feComposite operator="in" in2="blur-5"/>
            <feComposite in="SourceGraphic"/>
        </filter>
        <filter id="area-2" x="105" y="94" width="1126" height="148" filterUnits="userSpaceOnUse">
            <feOffset dy="3"/>
            <feGaussianBlur stdDeviation="3" result="blur-6"/>
            <feFlood flood-color="#111" flood-opacity=".102"/>
            <feComposite operator="in" in2="blur-6"/>
            <feComposite in="SourceGraphic"/>
        </filter>
        <filter id="box-4" x="105" y="1174" width="556" height="148" filterUnits="userSpaceOnUse">
            <feOffset dy="3"/>
            <feGaussianBlur stdDeviation="3" result="blur-7"/>
            <feFlood flood-color="#111" flood-opacity=".102"/>
            <feComposite operator="in" in2="blur-7"/>
            <feComposite in="SourceGraphic"/>
        </filter>
        <filter id="box-5" x="105" y="814" width="556" height="148" filterUnits="userSpaceOnUse">
            <feOffset dy="3"/>
            <feGaussianBlur stdDeviation="3" result="blur-8"/>
            <feFlood flood-color="#111" flood-opacity=".102"/>
            <feComposite operator="in" in2="blur-8"/>
            <feComposite in="SourceGraphic"/>
        </filter>
        <filter id="box-6" x="105" y="1534" width="556" height="148" filterUnits="userSpaceOnUse">
            <feOffset dy="3"/>
            <feGaussianBlur stdDeviation="3" result="blur-9"/>
            <feFlood flood-color="#111" flood-opacity=".102"/>
            <feComposite operator="in" in2="blur-9"/>
            <feComposite in="SourceGraphic"/>
        </filter>
        <filter id="box-7" x="675" y="814" width="556" height="148" filterUnits="userSpaceOnUse">
            <feOffset dy="3"/>
            <feGaussianBlur stdDeviation="3" result="blur-10"/>
            <feFlood flood-color="#111" flood-opacity=".102"/>
            <feComposite operator="in" in2="blur-10"/>
            <feComposite in="SourceGraphic"/>
        </filter>
        <filter id="box-8" x="675" y="634" width="556" height="148" filterUnits="userSpaceOnUse">
            <feOffset dy="3"/>
            <feGaussianBlur stdDeviation="3" result="blur-11"/>
            <feFlood flood-color="#111" flood-opacity=".102"/>
            <feComposite operator="in" in2="blur-11"/>
            <feComposite in="SourceGraphic"/>
        </filter>
        <filter id="box-9" x="675" y="994" width="556" height="148" filterUnits="userSpaceOnUse">
            <feOffset dy="3"/>
            <feGaussianBlur stdDeviation="3" result="blur-12"/>
            <feFlood flood-color="#111" flood-opacity=".102"/>
            <feComposite operator="in" in2="blur-12"/>
            <feComposite in="SourceGraphic"/>
        </filter>
        <filter id="box-10" x="675" y="1174" width="556" height="148" filterUnits="userSpaceOnUse">
            <feOffset dy="3"/>
            <feGaussianBlur stdDeviation="3" result="blur-13"/>
            <feFlood flood-color="#111" flood-opacity=".102"/>
            <feComposite operator="in" in2="blur-13"/>
            <feComposite in="SourceGraphic"/>
        </filter>
        <style>
            .cls-1{fill:#f8f8f8}.cls-4{fill:#fff}.cls-3{fill:#333}.cls-4{stroke:#999;stroke-width:2px}.cls-5{fill:red;opacity:0}.cls-7{stroke:#326f5e;stroke-width:1.5px}.cls-13,.cls-7{fill:none}.cls-8{fill:#326f5e}.cls-9{fill:#999}.cls-11{stroke:none}
        </style>
    </defs>
    <path id="bg" class="cls-1" d="M0 0h1336v2130H0z"/>
    <g id="fc_diamond" transform="translate(399 280)">
        <g transform="translate(-399 -280)" style="filter:url(#다각형_3)">
            <g id="다각형_3-2" data-name="다각형 3" style="fill:#fff">
                <path class="cls-11" d="M269 258.89 2.298 130 269 1.11 535.702 130 269 258.89z" transform="translate(399 280)"/>
                <path d="M269 2.221 4.596 130 269 257.779 533.404 130 269 2.221M269 0l269 130-269 130L0 130 269 0z" style="fill:#999;stroke:none" transform="translate(399 280)"/>
            </g>
        </g>
        <path id="패스_10726" data-name="패스 10726" class="cls-3" d="M115.664 24.256c-1.344-.96-2.64-1.8-3.936-2.544a13.982 13.982 0 0 0 2.064-5.088h1.584V14.56h-6.5a34.61 34.61 0 0 0 .792-2.952l-2.4-.5c-.264 1.152-.528 2.3-.864 3.456h-3.288v2.064h2.584a32.867 32.867 0 0 1-1.7 3.864c1.392.528 2.664 1.128 3.888 1.728a12.993 12.993 0 0 1-5.784 2.136l1.344 2.232a13.809 13.809 0 0 0 6.672-3.1 39.926 39.926 0 0 1 3.96 2.832zm-14.688-18.48h-2.448v4.08h-2.184v2.3h2.184v4.3c-.888.336-1.728.624-2.5.864l.72 2.472 1.776-.7v4.128c0 .552-.024.7-.624.7a14.809 14.809 0 0 1-1.488-.168l.5 2.448a12.723 12.723 0 0 0 1.368.072c2.28 0 2.688-.912 2.688-2.592v-5.688a41.69 41.69 0 0 1 1.8-.912l-.168-2.3-1.632.7v-3.32h1.872v-2.3h-1.872zm14.136 7.608V8.08h-4.872V5.752h-2.472V8.08h-4.512v5.42h2.472v-3.12h6.888v3zm-7.92 5.976c.384-.912.7-1.8 1.008-2.736h3.144a9.2 9.2 0 0 1-1.752 3.888 30.283 30.283 0 0 0-2.4-1.152zm28.944 6.84v-2.064h-8.424V23.08h7.032v-1.824h-7.032v-1.1h6.336v-7.7h-6.336v-1.04h8.04v-2.04h-8.04V8.224c2.112-.168 4.248-.384 6.36-.72l-1.44-1.92a78.591 78.591 0 0 1-14.328.984l.84 1.992c2.016-.024 4.032-.1 6.048-.192v1.008h-7.68v2.04h7.68v1.032h-6.024v7.7h6.024v1.1H118.4v1.832h6.792v1.056h-8.112V26.2zm-8.424-9.024h3.888v1.1h-3.888zm3.888-2.832v1.032h-3.888v-1.032zm-9.96 2.832h3.552v1.1h-3.552zm0-2.832h3.552v1.032h-3.552zm35.3 11.76V24.4h-8.472v-.744h6.84v-1.488h-6.84v-.72h6.24V15.4h-14.76v6.048h6.072v.72h-6.6v1.488h6.6v.744h-8.232v1.7zm-2.472-13.9V6.472h-14.132v5.736zm2.256 2.448v-1.7H137.96v1.7zM142.736 10h9.312v.744h-9.312zm0-2.016h9.312v.672h-9.312zm5.736 11.116h3.816v.84h-3.816zm-6.12 0h3.672v.84h-3.672zm9.936-2.208v.792h-3.816v-.792zm-9.936 0h3.672v.792h-3.672zm30.672-10.66a9.77 9.77 0 0 1-1.872 2.184 25.848 25.848 0 0 1-1.44-2.424l-1.872 1.176a26.4 26.4 0 0 0 3.192 4.9h-5.688a19.625 19.625 0 0 0 2.688-4.416l-1.464-1.224h-6.816v2.18h5.208a10.533 10.533 0 0 1-1.584 2.328c-.912-.744-1.848-1.512-2.712-2.16l-1.512 1.632c.864.72 1.776 1.416 2.64 2.208a14.732 14.732 0 0 1-3.6 2.472l1.272 2.016a21.4 21.4 0 0 0 2.136-1.344v5.448h1.632c.312.84.576 1.656.792 2.376h-5.3v2.28h18.672v-2.28h-5.3c.24-.72.432-1.488.648-2.376h1.872V15.52a15.745 15.745 0 0 0 1.992 1.3l1.488-2.064a16.184 16.184 0 0 1-3.144-2.064 23.052 23.052 0 0 0 2.664-2.832l-1.824-1.464a28.007 28.007 0 0 1-2.424 2.784 7.381 7.381 0 0 1-.84-.936c.792-.768 1.56-1.632 2.352-2.544zm-8.736 7.1v.912h7.584v-1.172a19.783 19.783 0 0 0 2.688 2.428h-12.672a18.766 18.766 0 0 0 2.4-2.164zM164 17.56h8.16v1.584H164zm5.592 6.024h-3.048c-.216-.744-.48-1.536-.72-2.376h4.416a30.986 30.986 0 0 1-.648 2.376zm32.328-2.832-2.5-.816a17.078 17.078 0 0 1-.432 3.48 1.426 1.426 0 0 1-1.536.96H192.7a.965.965 0 0 1-1-1.076v-7.492h8.376v-9.6h-11.812v2.4h9.408v4.8h-8.424V24.3a2.108 2.108 0 0 0 2.352 2.424h6.264c1.536 0 2.52-.384 2.976-1.1a13.083 13.083 0 0 0 1.08-4.872zM182.792 5.44l-1.776 1.728a21.972 21.972 0 0 1 3.936 3.528l1.728-1.752a33.621 33.621 0 0 0-3.888-3.504zm-3.336 6.936v2.4h3.288V23.3a1.635 1.635 0 0 1-.648 1.3l.96 2.256a37.083 37.083 0 0 0 5.232-3.84l-.672-2.616a53.944 53.944 0 0 1-2.448 2.112V12.376z" transform="translate(120 114)"/>
    </g>
    <g id="fc_box_big_no_btn" transform="translate(114 1360)">
        <g transform="translate(-114 -1360)" style="filter:url(#box)">
            <g id="box-11" data-name="box" class="cls-4">
                <path class="cls-11" d="M0 0h1108v130H0z" transform="translate(114 1360)"/>
                <path class="cls-13" d="M1 1h1106v128H1z" transform="translate(114 1360)"/>
            </g>
        </g>
        <path id="패스_10739" data-name="패스 10739" class="cls-3" d="M390.128 26.608V20.7h4.464v1.272h2.472V8.8h-6.936V5.752h-2.5V8.8h-6.668v13.3h2.472v-1.4h4.2v5.9zm0-10.848h4.464v2.808h-4.464zm-6.7 0h4.2v2.808h-4.2zm11.16-4.848v2.64h-4.464v-2.64zm-11.16 0h4.2v2.64h-4.2zm25.344 3.648c-.816.432-1.656.816-2.472 1.2v-3.936h2.424V9.448H406.3v-4.08h-2.472v4.08h-3.188v2.376h3.192v4.9a31.918 31.918 0 0 1-3.672 1.008l.624 2.472a50.626 50.626 0 0 0 3.048-1.032v5.16c0 .576-.288.864-.816.864a14.528 14.528 0 0 1-1.968-.168l.576 2.4h2.28a2.167 2.167 0 0 0 2.4-2.472v-6.772c.816-.36 1.656-.744 2.472-1.128zm3.24 2.352h.912a13.112 13.112 0 0 0 2.784 6.048 11.517 11.517 0 0 1-3.384 2.424l1.2 2.208a13.756 13.756 0 0 0 3.888-2.76 22.683 22.683 0 0 0 3.552 2.736l1.68-1.944a21.212 21.212 0 0 1-3.816-2.592 15.438 15.438 0 0 0 2.232-6.24v-2.16h-9.048V8.32h6.5a7.376 7.376 0 0 1-.312 2.256 1.022 1.022 0 0 1-.6.456 8.062 8.062 0 0 1-1.248.072c-.552 0-1.008-.024-1.368-.024l.672 2.136h1.824q2.448 0 2.952-1.368a22.581 22.581 0 0 0 .48-5.784H409.64V27.52h2.376zm3.12 0h3.576a13.852 13.852 0 0 1-1.632 4.248 10.366 10.366 0 0 1-1.94-4.248zm11.646 2.618a1.956 1.956 0 1 0 0-3.912 1.956 1.956 0 1 0 0 3.912zm18.654-13.3a9.77 9.77 0 0 1-1.872 2.184 25.845 25.845 0 0 1-1.44-2.424l-1.872 1.176a26.4 26.4 0 0 0 3.192 4.9h-5.688a19.626 19.626 0 0 0 2.688-4.416l-1.464-1.224h-6.816v2.182h5.208a10.535 10.535 0 0 1-1.584 2.328c-.912-.744-1.848-1.512-2.712-2.16l-1.512 1.632c.864.72 1.776 1.416 2.64 2.208a14.733 14.733 0 0 1-3.6 2.472l1.272 2.016a21.4 21.4 0 0 0 2.136-1.344v5.448h1.632c.312.84.576 1.656.792 2.376h-5.3v2.28H449.8v-2.28h-5.3c.24-.72.432-1.488.648-2.376h1.872V15.52a15.748 15.748 0 0 0 1.992 1.3l1.488-2.064a16.185 16.185 0 0 1-3.144-2.064 23.052 23.052 0 0 0 2.664-2.832l-1.824-1.464a28 28 0 0 1-2.424 2.784 7.381 7.381 0 0 1-.84-.936c.792-.768 1.56-1.632 2.352-2.544zm-8.736 7.1v.912h7.584v-1.17a19.785 19.785 0 0 0 2.688 2.424H434.3a18.767 18.767 0 0 0 2.4-2.16zm-.288 4.224h8.16v1.584h-8.16zm5.592 6.03h-3.048c-.216-.744-.48-1.536-.72-2.376h4.416a28.464 28.464 0 0 1-.648 2.376zm32.328-2.832-2.5-.816a17.078 17.078 0 0 1-.432 3.48 1.426 1.426 0 0 1-1.536.96h-4.752a.965.965 0 0 1-1.008-1.08v-7.488h8.376v-9.6h-11.801v2.4h9.408v4.8h-8.424V24.3a2.108 2.108 0 0 0 2.352 2.424h6.264c1.536 0 2.52-.384 2.976-1.1a13.084 13.084 0 0 0 1.08-4.872zM455.2 5.44l-1.776 1.728a21.972 21.972 0 0 1 3.936 3.528l1.728-1.752A33.623 33.623 0 0 0 455.2 5.44zm-3.336 6.936v2.4h3.288V23.3a1.635 1.635 0 0 1-.648 1.3l.96 2.256a37.085 37.085 0 0 0 5.232-3.84l-.672-2.616a53.944 53.944 0 0 1-2.448 2.112V12.376zm33.84-6.984V8.7H478v14.068h2.472v-1.392h5.232v6h2.544v-6h5.136V22.6h2.472V8.7h-7.608V5.392zm-5.232 13.632v-2.9h5.232v2.9zm7.776 0v-2.9h5.136v2.9zm-7.776-5.136v-2.856h5.232v2.856zm7.776 0v-2.856h5.136v2.856zM513.283 5.3v1.32h-5.52v2.012h5.52V9.64h-4.512v1.968h4.512v1.032h-6.192v2.06h14.88v-2.06h-6.264v-1.032h4.848V9.64h-4.848V8.632h5.688V6.616h-5.688V5.3zM511.1 20.752h6.864v1.176H511.1zm6.864-1.872H511.1v-1.2h6.864zm-6.864 4.944h6.864v.676c0 .5-.216.768-.648.768l-1.9-.1.6 2.184h1.992a2.078 2.078 0 0 0 2.352-2.328v-9.36h-11.613V27.5h2.353zm-7.9-18.36-1.776 1.7a21.958 21.958 0 0 1 3.936 3.5l1.728-1.728a31.489 31.489 0 0 0-3.888-3.472zm-3.408 6.912v2.4h3.192v8.472a1.743 1.743 0 0 1-.624 1.344l.936 2.256a37.466 37.466 0 0 0 4.536-3.816l-.672-2.64c-.6.624-1.176 1.224-1.752 1.776v-9.792zm26.16-6.816-1.248 1.848a17.248 17.248 0 0 1 3.864 1.848l1.344-2.016a21.125 21.125 0 0 0-3.957-1.68zm7.152-.384a8.071 8.071 0 0 1-3 4.08l1.488 1.944a12.94 12.94 0 0 0 2.208-2.232h2.4a5.431 5.431 0 0 1-1.56 2.52 11.2 11.2 0 0 1-4.824 1.92l.936 2.232c2.76-.648 4.7-1.536 5.808-2.688.216-.24.432-.5.672-.792 1.512 1.728 3.936 2.928 7.3 3.624l.888-2.184c-3.5-.624-5.88-1.776-7.152-3.408.12-.384.24-.792.336-1.224h3.24a10.889 10.889 0 0 1-.864 2.064l2.4.72a27.29 27.29 0 0 0 1.032-3.48V6.784h-9.336a10.378 10.378 0 0 0 .5-1.3zm9.72 10.728h-15.84v7.464h2.5v-5.136h10.824v4.848h2.52zm-9 2.88c-.168 2.256-.768 3.864-1.824 4.8q-1.8 1.4-7.416 1.656l1.008 2.28c4.536-.384 7.392-1.2 8.568-2.472 1.1-.96 1.848-3 2.184-6.072zm-4.944-8.592a23.1 23.1 0 0 1-4.656 3.12l1.632 1.944a22.581 22.581 0 0 0 4.464-3.36zm7.872 12.7-1.272 1.9a46.494 46.494 0 0 1 8.4 2.928l1.344-2.088a54.011 54.011 0 0 0-8.469-2.744zm13.467-15.628-2.064.672a34.334 34.334 0 0 1 1.392 4.848l1.92-.528a39.815 39.815 0 0 0-1.248-4.992zm5.88-.24a21.154 21.154 0 0 1-.864 4.992l1.848.6a19.014 19.014 0 0 0 1.1-5.3zm-7.992 6.456v2.42h3.84a17.886 17.886 0 0 1-4.224 5.5l1.056 2.616a24.974 24.974 0 0 0 3.36-5.136v8.568h2.52v-8.76c.552.816 1.2 1.848 1.92 3.048l1.488-2.232a45.994 45.994 0 0 0-3.408-3.168V15.9h3.312v-2.42h-3.312V5.368h-2.52v8.112zm16.944-8.088v13.656l-6.864 1.032.36 2.5 6.5-.984v5.856h2.472v-6.24l2.616-.384-.432-2.5-2.184.336V5.392zm-4.2 1.56-1.656 1.608a23.11 23.11 0 0 1 3.792 3.528l1.7-1.7a27.775 27.775 0 0 0-3.836-3.436zm-.576 5.64-1.68 1.584a23.689 23.689 0 0 1 3.744 3.624l1.7-1.728a28.336 28.336 0 0 0-3.764-3.48zm19.32-5.784v2.136h5.616c-.048.336-.12.672-.168 1.056h-4.224v10.944h-1.872v-2.016c-.672.288-1.368.576-2.088.84v-6.5h2.184v-2.356h-2.184v-5.52h-2.424v5.52h-2.4v2.352h2.4v7.224a26.406 26.406 0 0 1-2.664.576l.624 2.424a50.5 50.5 0 0 0 6.36-2.016v1.68h4.488a20.62 20.62 0 0 1-4.68 2.664l1.464 1.872a21.05 21.05 0 0 0 5.136-3.312l-1.416-1.224h5.4l-1.32 1.224a27.838 27.838 0 0 1 4.56 3.288l1.512-1.728a24.468 24.468 0 0 0-4.248-2.784h4.488v-2.208H592.1V10h-4.68c.048-.336.12-.7.168-1.056h5.712V6.808h-5.424l.144-1.32-2.424-.336-.144 1.656zm3.576 14.136v-1.032h6.576v1.032zm0-2.736v-.984h6.576v.984zm0-2.664v-.96h6.576v.96zm0-2.664v-.96h6.576v.96zm20.329.62h9.984v-2.348h-9.432c.144-.6.264-1.224.408-1.9l-2.472-.24a92.01 92.01 0 0 1-2.352 9.24h13.392c-.072 3.7-.288 5.784-.624 6.216a2.993 2.993 0 0 1-2.208.624c-.864 0-1.824-.024-2.832-.072l.72 2.328h2.016c2.184 0 3.624-.408 4.3-1.176s1.056-4.176 1.152-10.224h-12.773q.36-1.148.721-2.448zm-6.936 6.84v2.4h14.5v-2.4zm20.28-14.256h-19.825V11.7h2.472V8.44h14.88v3.288h2.472zm7.781 1.144-5.47 20.32h3l5.47-20.32zm11.984 10.88a9.585 9.585 0 0 1-3.264 6.456l1.584 1.9a15.405 15.405 0 0 0 2.424-2.9 7.54 7.54 0 0 0 4.608 2.448 18.818 18.818 0 0 0 3.624.336c.408 0 .864 0 1.464-.024l.816-2.448c-.7 0-1.368-.024-1.944-.024a21.866 21.866 0 0 1-3.384-.24v-1.996h4.32v-2.208h-4.32V17.7h5.208v-2.2H635.5v2.2h4.728v5.14a6.892 6.892 0 0 1-1.8-1.68 12.074 12.074 0 0 0 .528-2.712zm10.152-3.6V6.3h-10.585v8.208zM633.368 5.8h-2.328v4.176h-2.3v2.28h2.3v4.584c-.816.288-1.656.552-2.448.792l.6 2.448c.624-.216 1.224-.48 1.848-.744v3.936c0 .6-.312.672-.984.672h-.312a5.154 5.154 0 0 1-1.08-.144l.5 2.448c.552.048.912.072 1.512.072 2.232 0 2.688-.936 2.688-2.616V18.28c.648-.288 1.272-.648 1.872-.936l-.024-2.352-1.848.864v-3.6h2.016v-2.28h-2.016zm5.184 2.712h5.76V9.64h-5.76zm0 2.784h5.76v1.032h-5.76zm23.5 3.6a19.976 19.976 0 0 1-3.168 4.512 23.609 23.609 0 0 1-3.48-4.32l-1.944 1.2a28.127 28.127 0 0 0 3.744 4.656 18.722 18.722 0 0 1-7.584 3.408l1.056 2.256a21.593 21.593 0 0 0 8.256-4.152 21.059 21.059 0 0 0 8.376 3.96l1.032-2.28a19.276 19.276 0 0 1-7.728-3.264 25.323 25.323 0 0 0 3.528-4.9zm5.544-4.488V8.176h-7.536V5.8h-2.52v2.376h-7.1v2.232zm-12.768.36a15.412 15.412 0 0 1-4.848 5.064l1.728 1.752a20.3 20.3 0 0 0 5.376-5.9zm13.2 4.728a19.166 19.166 0 0 1-5.232-4.728l-2.112.936a21.555 21.555 0 0 0 5.64 5.592z" transform="translate(30 51)"/>
    </g>
    <g id="fc_box_big_no_btn-2" data-name="fc_box_big_no_btn" transform="translate(114 1720)">
        <g transform="translate(-114 -1720)" style="filter:url(#box-2)">
            <g id="box-12" data-name="box" class="cls-4">
                <path class="cls-11" d="M0 0h1108v130H0z" transform="translate(114 1720)"/>
                <path class="cls-13" d="M1 1h1106v128H1z" transform="translate(114 1720)"/>
            </g>
        </g>
        <path id="패스_10742" data-name="패스 10742" class="cls-3" d="M481.472 22.7v-3.46h2.808v1.1c0 .264-.072.384-.192.456a.741.741 0 0 1-.264.048h-.216a5.387 5.387 0 0 1-.576-.072c-.192-.024-.48-.1-.864-.144l.456 2.232a5.016 5.016 0 0 0 .912.12c.264.024.48.024.744.024 1.7 0 2.28-.768 2.28-2.376v-9.74h-3.384a32.237 32.237 0 0 0 3.432-3.1L485 6.64h-10.968v1.968h8.616c-.72.6-1.488 1.176-2.232 1.752-.864-.624-1.56-1.1-2.256-1.632l-1.92 1.008c.624.48 1.152.816 1.632 1.152h-3.6V22.84h2.376v-3.6h2.52v3.46zm-8.28-6.5h-5.064v2.232h2.616V21.4a19.888 19.888 0 0 1-2.952 2.568l1.128 2.424a30.638 30.638 0 0 0 2.928-2.928 5.325 5.325 0 0 0 2.856 2.064 24.982 24.982 0 0 0 6.264.6c2.424 0 3.648-.048 5.88-.1l.576-2.448c-2.184.12-4.32.24-6.288.264h-.72a19.247 19.247 0 0 1-5.16-.528 3.72 3.72 0 0 1-2.064-1.344zm0-3.12a18.752 18.752 0 0 0-1.776-1.368c-.624-.384-1.248-.768-1.944-1.224l-1.368 1.9a27.4 27.4 0 0 1 3.624 2.712zm.24-4.776c-.6-.456-1.1-.864-1.632-1.224-.552-.384-1.152-.768-1.824-1.2l-1.464 1.72a21.968 21.968 0 0 1 3.384 2.736zm8.04 7.752h2.808V17.4h-2.808zm2.808-3.12V14.2h-2.808v-1.272zm-7.632 3.12h2.52V17.4h-2.52zm0-3.12h2.52V14.2h-2.52zm22.464 3.648v-2.16h-3.144c.12-1.1.144-2.328.168-3.576h2.64V8.7h-5.088c.264-.84.5-1.68.7-2.5l-2.4-.528a15.644 15.644 0 0 1-3.024 6.936l1.9 1.464a14.271 14.271 0 0 0 1.968-3.24h.912c-.024.744-.024 1.416-.024 2.04a23.066 23.066 0 0 1-.1 1.536h-4.18v2.16h3.888a13.885 13.885 0 0 1-4.248 8.136l1.728 1.92a16.308 16.308 0 0 0 4.008-6.336 19.523 19.523 0 0 0 3.384 4.592l1.464-2.064v3.624h2.4v-1.776h3.264v1.56h2.448V7.864h-8.112V22.6a13.288 13.288 0 0 1-3.984-5.784.739.739 0 0 1 .024-.24zm2.952-6.48h3.264v12.36h-3.264zm16.128-4.92v3.96H511.4v2.4h6.792v4.032h-8.184V18h8.184v9.552h2.52v-9.56h7.464c-.048 2.5-.192 3.912-.432 4.224a1.7 1.7 0 0 1-1.2.528c-.816 0-1.7-.024-2.64-.024l.672 2.352h1.536a11.512 11.512 0 0 0 1.8-.216 2.805 2.805 0 0 0 1.488-.744c.816-.816 1.224-3.672 1.248-8.544h-3.336l.456-5.232v-1.2h-7.056v-3.96zm2.52 10.392v-4.04h4.536l-.36 4.032zm5.928-10.352-1.272 1.9a21.607 21.607 0 0 1 4.7 3.072l1.348-2.096a26.294 26.294 0 0 0-4.776-2.876zm17.3.816v2.352h4.56c-.1.648-.192 1.3-.312 1.92h-3.428v11.976h2.448v-9.672h5.4v9.432h2.448V10.312h-4.416c.12-.624.216-1.248.312-1.92h4.56V6.04zm8.04 15.84-1.68 1.608a24.75 24.75 0 0 1 3.864 4.152l1.8-1.8a34.536 34.536 0 0 0-3.98-3.96zm-3.28-8.136v4.176a10.821 10.821 0 0 1-1.128 4.752 7.677 7.677 0 0 1-3.912 2.832l1.32 2.088a8.85 8.85 0 0 0 4.488-3.36 13.06 13.06 0 0 0 1.584-6.312v-4.176zm-10.54-8.376a35.521 35.521 0 0 1-4.752 6.72l1.44 2.016a38.731 38.731 0 0 0 4.512-6.336 52.971 52.971 0 0 1 3.648 5.28l1.656-1.776c-1.464-2.04-3-4.008-4.632-5.9zm-3.336 10.368v2.328h6.216a42.729 42.729 0 0 1-2.232 3.7c-.648-.552-1.32-1.1-1.992-1.632l-1.656 1.608a36.511 36.511 0 0 1 5.808 5.712l1.776-1.8q-1.044-1.188-2.3-2.376a31.273 31.273 0 0 0 3.288-5.448v-2.092zm4.512-5.016-1.776 1.1a26.557 26.557 0 0 1 2.256 3.72l1.776-1.272a28.6 28.6 0 0 0-2.256-3.548zm30.7 9.672c-.624.144-1.272.312-1.944.48V8.368h1.3V9.76h.96a29.187 29.187 0 0 0 2.948 10.632 18.582 18.582 0 0 1-4.56 5.112l1.7 1.968a20.1 20.1 0 0 0 4.248-4.632 28.812 28.812 0 0 0 3.672 4.632l1.68-1.968a23.072 23.072 0 0 1-4.008-4.944A32.839 32.839 0 0 0 579.1 9.64V7.36h-9.456V6.016h-11.612v2.352h1.656v14.04c-.648.1-1.3.168-1.968.24l.624 2.472c2.5-.384 4.944-.792 7.3-1.272v3.576h2.448v-4.08c.624-.144 1.272-.312 1.944-.456zm2.612-10.632h4.1a29.61 29.61 0 0 1-2.136 8.064 25.489 25.489 0 0 1-1.964-8.064zM565.64 21.4c-1.152.24-2.3.456-3.5.648v-3.264h3.5zm-3.5-4.872v-2.952h3.5v2.952zm0-5.208V8.368h3.5v2.952z" transform="translate(30 49)"/>
    </g>
    <g id="fc_start_end_link" transform="translate(114 1900)">
        <g transform="translate(-114 -1900)" style="filter:url(#area)">
            <g id="area-3" data-name="area" class="cls-4" transform="translate(114 1900)">
                <rect class="cls-11" width="1108" height="130" rx="65"/>
                <rect class="cls-13" x="1" y="1" width="1106" height="128" rx="64"/>
            </g>
        </g>
        <g id="fc_textlink" transform="translate(671 76)">
            <g id="stack" transform="translate(-2524.094 20210)">
                <g id="ico_fc_pop_up" transform="translate(2431.094 -20209)">
                    <g id="그룹_1025" data-name="그룹 1025" transform="translate(-1101.074 -1125)">
                        <g id="그룹_1026" data-name="그룹 1026" transform="translate(1108.074 1129)">
                            <path id="사각형_878" data-name="사각형 878" style="stroke:#326f5e;stroke-width:1.5px;fill:#fff" d="M0 0h9v9H0z"/>
                        </g>
                        <path id="패스_6896" data-name="패스 6896" class="cls-7" d="M1104.574 1132.941v9h9" transform="translate(.5 -.941)"/>
                    </g>
                </g>
                <path id="패스_10744" data-name="패스 10744" class="cls-8" d="M-28.864-7.184v6.048h9.792v-6.048zm8.32 4.7h-6.848v-1.004h6.848zm-6.848-2.288V-5.84h6.848v1.072zm-3.2-7.04v1.412h4.56a15.673 15.673 0 0 1-5.344 2.352l.816 1.348a13.56 13.56 0 0 0 5.86-3.668v2.7h1.472v-2.72a12.6 12.6 0 0 0 5.92 3.68l.656-1.376a13.57 13.57 0 0 1-5.216-2.32h4.528v-1.408h-5.888v-1.344H-24.7v1.344zm-.32 11.632v1.396h13.84V-.176zm16.8-10.128v1.3h4.336c-.16.256-.352.528-.544.8h-4.656v1.344h3.568a22.321 22.321 0 0 1-3.984 3.376l.816 1.3A26.871 26.871 0 0 0-12.224-4v5.664h1.44v-.608h6.928v.608h1.44v-7.728h-7.76c.208-.256.416-.528.64-.8H-.9v-1.344h-7.74c.16-.256.3-.528.464-.8h6.352v-1.3h-5.744q.168-.432.336-.912a42.4 42.4 0 0 0 5.312-.72l-.7-1.2a61.528 61.528 0 0 1-11.392.9l.432 1.248c1.728 0 3.36-.048 4.864-.128-.112.272-.224.544-.352.816zm3.328 7.408h6.928v.752h-6.928zm6.928-1.152h-6.928v-.784h6.928zm-6.928 3.06h6.928v.816h-6.928zM1.072-12.576v1.424h6.176v1.1H2.4v6.576h4.592A5.555 5.555 0 0 1 6.3-1.824a14 14 0 0 1-2.24-1.424l-1.168.8A14.869 14.869 0 0 0 5.248-.832 10.3 10.3 0 0 1 .64.288L1.3 1.68A11 11 0 0 0 6.736-.1a22.944 22.944 0 0 0 8.352 1.8l.384-1.476A23.3 23.3 0 0 1 7.712-1.2a6.617 6.617 0 0 0 .816-2.272h5.12v-6.576h-4.9v-1.1h6.192v-1.424zM12.144-4.8H8.7a9.269 9.269 0 0 0 .048-.976v-.384h3.392zM7.2-4.8H3.9v-1.36h3.348v.384c0 .32-.016.656-.048.976zM3.9-7.408v-1.344h3.348v1.344zm4.852-1.344h3.392v1.344H8.752zM23.776-13.2a11.209 11.209 0 0 1-6.336 2.976l.9 1.392a14.792 14.792 0 0 0 4.38-1.648h4.3a8.266 8.266 0 0 1-3.488 2.64 21.069 21.069 0 0 0-1.52-1.632l-1.312.624a15.69 15.69 0 0 1 1.412 1.488 17.766 17.766 0 0 1-3.6.544l.64 1.376c4.688-.384 7.888-2.128 9.616-5.2v-1.184H24.5c.208-.208.416-.432.64-.672zm-.256 10-1.344.64a16.586 16.586 0 0 1 1.536 1.744 21.082 21.082 0 0 1-6.24.816l.608 1.456q9.36-.24 12.784-5.856v-1.184h-4.08a9.249 9.249 0 0 0 .928-.848l-1.3-.7c-1.632 1.728-4.208 2.752-7.7 3.088l.912 1.36a21.8 21.8 0 0 0 4.9-1.52h4.384a9.622 9.622 0 0 1-3.76 2.848A19.989 19.989 0 0 0 23.52-3.2zM-32 3h64v1h-64z" transform="translate(2395.094 -20194)"/>
            </g>
        </g>
        <path id="패스_10743" data-name="패스 10743" class="cls-3" d="M494.216 2.7h-2.568v1.492H483.8V6.16h7.848v.96h-6.168v4.248h6.168v.912h-6.768v1.8h6.768v.936h-8.424v1.824h8.424v.912h-6.84V19.6h6.84v.912c0 .408-.144.552-.96.552a12.869 12.869 0 0 1-2.4-.216l.576 2.28a24.012 24.012 0 0 0 2.448.144c2.016 0 2.9-.552 2.9-2.472v-1.2h6.388v-2.76h1.9v-1.824h-1.9V12.28h-6.384v-.912h6.12V7.12h-6.12v-.96h7.656V4.192h-7.656zm-6.336 5.9h3.768v1.1h-3.768zm10.08 0v1.1h-3.744V8.6zm.216 5.472v.936h-3.96v-.928zm-3.96 3.672v-.904h3.96v.912zM520.424 2.9a47.955 47.955 0 0 1-14.184 1.748v6.072c0 4.848-.432 7.776-2.28 10.752l1.632 2.28c2.5-3.816 3.12-7.272 3.168-12.5h14.52v-2.26h-14.52V6.808a75.417 75.417 0 0 0 13.392-1.776zm1.152 20.352v-9.676h-11.688v9.816h2.544v-1.536h6.6v1.392zm-9.144-7.368h6.6v3.672h-6.6zm29.28 7.536v-5.692h-10.824v-.96h9.336V12.04h-11.832v11.568h2.5v-.816h8.376v.624zm-5.064-20.74a13.072 13.072 0 0 1-1.872 3.336v-1.7h-5.112l.5-1.2-2.5-.408A12.927 12.927 0 0 1 524.6 7.48l2.136 1.32a13.945 13.945 0 0 0 1.848-2.448h1.1a14.5 14.5 0 0 1 .624 2.256l2.4-.312c-.192-.648-.384-1.3-.648-1.944h2.448a7.6 7.6 0 0 1-.96 1.008l1.08.672h-1.584V9.28h-7.68v4.392h2.472v-2.544h13.3V13.7h2.472V9.28h-8.04v-.672l.168.072a15.2 15.2 0 0 0 1.776-2.328h1.128a12.536 12.536 0 0 1 .672 2.232l2.52-.312a13.143 13.143 0 0 0-.72-1.92h3v-2.04h-5.544a9.8 9.8 0 0 0 .528-1.3zm2.616 16.872v1.416h-8.376v-1.416zm-8.376-5.664h6.864v1.056h-6.864zm33.984 8.976v-2.256H559.5v-2.4h4.632V16H559.5v-1.9h4.248V3.64H552.9V14.1h4.176V16h-4.488v2.208h4.488v2.4H551.7v2.256zm-12.6-6.312c-.624.288-1.32.552-2.112.84v-4.7h2.04V10.5h-2.04V5.944h2.208V3.712H545.6v2.232h2.256V10.5h-2.064v2.184h2.064v5.424c-.864.288-1.728.528-2.472.7l.432 2.448c2.328-.864 4.656-1.512 6.576-2.376zm7.228-6.744h1.92v2.112h-1.92zm-4.272 0h1.848v2.112h-1.848zm6.192-4.032v1.992h-1.92V5.776zm-6.192 0h1.848v1.992h-1.848z" transform="translate(30 33)"/>
    </g>
    <g id="fc_box_medium" transform="translate(114 1000)">
        <g transform="translate(-114 -1000)" style="filter:url(#box-3)">
            <g id="box-13" data-name="box" class="cls-4">
                <path class="cls-11" d="M0 0h538v130H0z" transform="translate(114 1000)"/>
                <path class="cls-13" d="M1 1h536v128H1z" transform="translate(114 1000)"/>
            </g>
        </g>
        <path id="패스_10734" data-name="패스 10734" class="cls-3" d="m158.024 5.56-1.248 1.848a17.248 17.248 0 0 1 3.864 1.848l1.344-2.016a21.124 21.124 0 0 0-3.96-1.68zm7.152-.384a8.071 8.071 0 0 1-3 4.08l1.488 1.944a12.94 12.94 0 0 0 2.208-2.232h2.4a5.432 5.432 0 0 1-1.56 2.52 11.2 11.2 0 0 1-4.824 1.92l.936 2.232c2.76-.648 4.7-1.536 5.808-2.688.216-.24.432-.5.672-.792 1.512 1.728 3.936 2.928 7.3 3.624l.888-2.184c-3.5-.624-5.88-1.776-7.152-3.408.12-.384.24-.792.336-1.224h3.24a10.89 10.89 0 0 1-.864 2.064l2.4.72a27.292 27.292 0 0 0 1.032-3.48V6.784h-9.336a10.382 10.382 0 0 0 .5-1.3zM174.9 15.9h-15.84v7.464h2.5v-5.132h10.824v4.848h2.52zm-9 2.88c-.168 2.256-.768 3.864-1.824 4.8q-1.8 1.4-7.416 1.656l1.008 2.28c4.536-.384 7.392-1.2 8.568-2.472 1.1-.96 1.848-3 2.184-6.072zm-4.944-8.592a23.1 23.1 0 0 1-4.656 3.12l1.632 1.944a22.58 22.58 0 0 0 4.464-3.36zm7.872 12.7-1.272 1.9a46.493 46.493 0 0 1 8.4 2.928l1.344-2.088a54.011 54.011 0 0 0-8.476-2.74zm13.46-15.624-2.064.672a34.325 34.325 0 0 1 1.392 4.848l1.92-.528a39.812 39.812 0 0 0-1.248-4.992zm5.88-.24a21.151 21.151 0 0 1-.864 4.992l1.848.6a19.017 19.017 0 0 0 1.1-5.3zm-7.992 6.456v2.42h3.84a17.886 17.886 0 0 1-4.224 5.5l1.056 2.616a24.972 24.972 0 0 0 3.36-5.136v8.568h2.52v-8.76c.552.816 1.2 1.848 1.92 3.048l1.488-2.232a45.991 45.991 0 0 0-3.408-3.168V15.9h3.312v-2.42h-3.312V5.368h-2.52v8.112zm16.944-8.088v13.656l-6.864 1.032.36 2.5 6.5-.984v5.856h2.472v-6.24l2.616-.384-.432-2.5-2.184.336V5.392zm-4.2 1.56-1.656 1.608a23.109 23.109 0 0 1 3.792 3.528l1.7-1.7a27.776 27.776 0 0 0-3.836-3.436zm-.576 5.64-1.68 1.584a23.688 23.688 0 0 1 3.744 3.624l1.7-1.728a28.335 28.335 0 0 0-3.764-3.48zm12.648 10.368a62.39 62.39 0 0 0 5.064-1.536v5.9h2.472V25.6l1.152 1.872a19.453 19.453 0 0 0 5.832-4.632 30.75 30.75 0 0 0 4.992 4.824l1.728-2.04a29.013 29.013 0 0 1-5.184-4.944 20.34 20.34 0 0 0 2.712-9.552h1.824V8.656h-7.416c.24-.936.456-1.944.648-3l-2.52-.432a22.36 22.36 0 0 1-3.768 9.984V5.392h-2.472v13.632c-.888.336-1.8.648-2.712.936V7.408H204.9V20.08a.846.846 0 0 1-.624.768zM217.4 11.128h3.984a18.145 18.145 0 0 1-1.92 7.368 27.434 27.434 0 0 1-2.784-5.568q.36-.864.72-1.8zm-2.184 4.488a28.849 28.849 0 0 0 2.76 5.16 15.5 15.5 0 0 1-5.448 4.248v-9.672l1.488 1.848a17.081 17.081 0 0 0 1.2-1.584zm19.8 6.312a21.3 21.3 0 0 1-6.744 2.928l1.32 2.16c3.816-1.44 6.48-3.12 8.016-5.088h.216v5.616h2.5v-5.616h.216c1.68 2.04 4.392 3.7 8.136 4.992l1.08-2.232a18.687 18.687 0 0 1-6.6-2.76h6.288v-2.28h-9.12v-.864h-2.5v.864h-9.264v2.28zm-4.344-9.84v6.264h18.072v-2.064h-7.8v-1.1h6.36v-1.876h-6.36V12.28h6.36v-1.872h-6.36V9.352h7.344V7.288H240.8c-.288-.816-.6-1.536-.912-2.208l-2.568.432a18 18 0 0 1 1.008 1.776h-4.392c.24-.528.48-1.056.672-1.608l-2.328-.5a17.225 17.225 0 0 1-4.44 6.408l1.464 1.9c.48-.464.936-.92 1.368-1.4zm7.8 4.2h-5.5v-1.1h5.5zm0-2.976h-5.5V12.28h5.5zm0-2.9h-5.5v-1.06h5.5zm19.272-1.872v1.82q-.108 10.584-5.832 15.408l1.944 1.7q4.536-3.924 5.88-11.136a19.881 19.881 0 0 0 4.152 5.736 27.425 27.425 0 0 1-6.936 3.288l1.464 2.328a24.823 24.823 0 0 0 7.56-3.816 31.487 31.487 0 0 0 6.192 3.672l1.68-2.232a32.657 32.657 0 0 1-5.9-3.192 16.329 16.329 0 0 0 4.248-8.04v-1.46h-4.756a67.883 67.883 0 0 0 1.32-4.9V6.088h-14.88v2.448zm8.112 11.976a17.078 17.078 0 0 1-5.616-8.76c.024-.456.048-.912.048-1.392V8.536H266a52.8 52.8 0 0 1-1.68 6.36h5.208a13.3 13.3 0 0 1-3.672 5.616zM284.24 6.184v2.352h5.352v8.328h-6.048v2.376h6.048v8.28h2.448v-8.28h6.144v-2.376h-6.144V8.536h5.4V6.184zm10.584 3.168a31.362 31.362 0 0 1-1.752 5.856l2.088.744a31.391 31.391 0 0 0 1.848-6.024zm-8.232.072-2.136.72A41.321 41.321 0 0 1 286.16 16l2.136-.528a50.76 50.76 0 0 0-1.704-6.048zm-7.32-3.984L277.5 7.168a21.972 21.972 0 0 1 3.936 3.528l1.728-1.752a33.623 33.623 0 0 0-3.892-3.504zm-3.408 6.936v2.4h3.288V23.3a1.683 1.683 0 0 1-.624 1.3l.936 2.256a35.76 35.76 0 0 0 4.728-3.816l-.7-2.64c-.672.672-1.32 1.3-1.92 1.848v-9.872zm28.992-7.3a26.622 26.622 0 0 1-5.184 9.624l.84 2.664a38.355 38.355 0 0 0 1.824-2.112v12.292h2.52V11.56a29.25 29.25 0 0 0 2.376-5.376zm1.8 4.7V12.2h6.288v4.32h-5.088V27.5h2.5v-.94h7.9v.94h2.472V16.528h-5.232v-4.32h6.576V9.784h-6.576V5.32h-2.544v4.464zm3.7 14.376V18.9h7.9v5.26z" transform="translate(30 50)"/>
    </g>
    <g id="fc_start_end" transform="translate(114 100)">
        <g transform="translate(-114 -100)" style="filter:url(#area-2)">
            <g id="area-4" data-name="area" class="cls-4" transform="translate(114 100)">
                <rect class="cls-11" width="1108" height="130" rx="65"/>
                <rect class="cls-13" x="1" y="1" width="1106" height="128" rx="64"/>
            </g>
        </g>
        <path id="패스_10725" data-name="패스 10725" class="cls-3" d="M418.393 25.144a15.9 15.9 0 0 0 2.736-3.672 18.973 18.973 0 0 0-.072 1.44v3.72h2.448v-3.864c0-.432-.072-1.08-.12-1.68a14.975 14.975 0 0 0 2.064 2.784l1.272-2.232a13.61 13.61 0 0 1-2.736-2.976h2.76v-2.208h-3.24V14.9h3.6v-2.188h-1.92l.384-2.736h1.2v-2.16h-3.408V5.728h-2.352v2.088h-3.336v2.16h1.176l.384 2.736h-1.968V14.9h3.792v1.56h-3.528v2.208h2.832a18.071 18.071 0 0 1-3.361 4.34zm16.248-19.416a20.313 20.313 0 0 1-7.152 2.04v6.6c0 5.76-.12 7.92-2.376 10.824l1.992 1.584c2.256-3.024 2.76-5.928 2.808-11.472h2.04v11.328h2.4V15.3h2.16v-2.2h-6.6V9.64a24.317 24.317 0 0 0 6.024-1.968zm-13.584 4.248h2.3l-.384 2.736h-1.56zm33.768 10.464a8.506 8.506 0 0 1-.336 2.64c-.24.6-.984.7-2.112.7-1.512 0-2.328-.048-2.328-.792v-7.06a34.609 34.609 0 0 0 6.648-4.512l-1.536-2.064a24.986 24.986 0 0 1-5.112 3.96v-7.44h-2.544v18c0 1.944 1.1 2.28 4.944 2.28 2.832 0 3.672-.432 4.08-1.3a5.9 5.9 0 0 0 .5-1.68c.1-.6.144-1.2.24-1.776zm-11.376 6.12V11.776a29.853 29.853 0 0 0 2.184-5.28l-2.4-.84a21.008 21.008 0 0 1-5.424 9.648l1.224 2.52a21.266 21.266 0 0 0 2.04-2.4c-.048.816-.12 1.632-.12 2.376v8.76zm36.96-16.632h-4.344a25.426 25.426 0 0 0 2.328-3.792l-2.592-.96a29.686 29.686 0 0 1-2.472 4.752h-3.672l1.992-1.008a41.582 41.582 0 0 0-2.256-3.888l-2.28 1.1a26.786 26.786 0 0 1 2.232 3.792h-4.752l1.44-.72a37.317 37.317 0 0 0-2.352-3.672l-2.28 1.1a25.4 25.4 0 0 1 2.256 3.288h-4.224v5.98h2.472v-3.572h16.008V15.9h2.5zm-16.992 3.7v2.208h9.36c-.96.48-2.232 1.032-3.816 1.7v1.776h-9.384v2.352h9.384v2.664c0 .576-.24.888-.7.888a52.01 52.01 0 0 1-2.856-.072l.624 2.28h3.072c1.584 0 2.376-.768 2.376-2.256v-3.5h8.856v-2.356h-8.856v-.672a52.38 52.38 0 0 0 4.968-2.808v-2.208zm30.192-8.4a18.042 18.042 0 0 1-3.168 8.088l1.824 1.56a14.477 14.477 0 0 0 2.088-3.576h1.008c-.888 4.248-2.5 7.344-4.8 9.312l1.608 1.872c2.616-2.352 4.416-6.1 5.424-11.184h1.2a33.567 33.567 0 0 1-1.944 8.088 17.663 17.663 0 0 1-4.416 5.952l1.56 1.992a20.6 20.6 0 0 0 4.92-6.864 38.794 38.794 0 0 0 2.112-9.168h.864c-.048 6.792-.12 10.752-.264 11.88a2.049 2.049 0 0 1-2.208 1.992c-.576 0-1.224-.048-1.992-.12L498 27.28c.864.072 1.488.12 1.824.12q3.672 0 4.1-3.1.36-2.88.36-15.408h-9.072c.264-.96.5-1.968.744-3.048zm-8.064 7.224h1.32v5.736a32.522 32.522 0 0 1-3.912 1.056l.6 2.424a71.374 71.374 0 0 0 3.312-1.1V27.5h2.448v-7.92c.5-.24 1.008-.456 1.536-.7v-2.352c-.528.24-1.032.48-1.536.72v-4.8h1.632v-2.4h-1.632V5.32h-2.448v4.728h-1.032c.072-.912.12-1.824.168-2.736l-2.232-.168a37.093 37.093 0 0 1-1.1 7.968l2.208.624c.26-1.056.476-2.16.668-3.288zm25.968.312h6.936l-.36 1.56h-4.968v8.448h2.424v-6.148h8.712v6.144h2.424V14.32h-6.048l.36-1.56h7.656v-2.3h-7.272c.072-.48.144-.984.192-1.464l-2.5-.312-.216 1.776h-7.344V8.9a105.932 105.932 0 0 0 16.084-1.4l-1.224-2.232a98.98 98.98 0 0 1-17.28 1.536v7.68q-.18 7.092-2.448 11.088l1.752 1.824q2.952-4.824 3.12-12.912zm9.984 9.216-1.248 1.872a32.323 32.323 0 0 1 7.032 3.672l1.392-2.184a36.607 36.607 0 0 0-7.173-3.364zm-2.3-4.656a8.064 8.064 0 0 1-2.352 5.16 13.971 13.971 0 0 1-6.144 2.784l1.344 2.3a15.531 15.531 0 0 0 6.936-3.576 10.389 10.389 0 0 0 2.64-6.5zM540.7 5.392V8.7H533v14.068h2.472v-1.392h5.228v6h2.544v-6h5.136V22.6h2.472V8.7h-7.608V5.392zm-5.232 13.632v-2.9h5.232v2.9zm7.776 0v-2.9h5.136v2.9zm-7.776-5.136v-2.856h5.232v2.856zm7.776 0v-2.856h5.136v2.856zm20.064.672c-.816.432-1.656.816-2.472 1.2v-3.936h2.424V9.448h-2.424v-4.08h-2.472v4.08h-3.192v2.376h3.192v4.9a31.918 31.918 0 0 1-3.672 1.008l.624 2.472a50.626 50.626 0 0 0 3.048-1.032v5.16c0 .576-.288.864-.816.864a14.528 14.528 0 0 1-1.968-.168l.576 2.4h2.28a2.167 2.167 0 0 0 2.4-2.472v-6.772c.816-.36 1.656-.744 2.472-1.128zm3.24 2.352h.912a13.111 13.111 0 0 0 2.784 6.048 11.516 11.516 0 0 1-3.384 2.424l1.2 2.208a13.756 13.756 0 0 0 3.888-2.76 22.682 22.682 0 0 0 3.552 2.736l1.68-1.944a21.214 21.214 0 0 1-3.816-2.592 15.438 15.438 0 0 0 2.232-6.24v-2.16h-9.048V8.32h6.5a7.373 7.373 0 0 1-.312 2.256 1.022 1.022 0 0 1-.6.456 8.062 8.062 0 0 1-1.248.072c-.552 0-1.008-.024-1.368-.024l.672 2.136h1.824q2.448 0 2.952-1.368a22.58 22.58 0 0 0 .48-5.784h-11.28V27.52h2.376zm3.12 0h3.576a13.852 13.852 0 0 1-1.632 4.248 10.364 10.364 0 0 1-1.947-4.248zm13.949-9.68-5.47 20.32h3l5.47-20.32zm18.488-1a9.769 9.769 0 0 1-1.872 2.184 25.838 25.838 0 0 1-1.44-2.424l-1.872 1.176a26.4 26.4 0 0 0 3.192 4.9h-5.688a19.622 19.622 0 0 0 2.688-4.416l-1.464-1.224h-6.816v2.18h5.208a10.535 10.535 0 0 1-1.584 2.328c-.912-.744-1.848-1.512-2.712-2.16l-1.512 1.632c.864.72 1.776 1.416 2.64 2.208a14.732 14.732 0 0 1-3.6 2.472l1.272 2.016a21.4 21.4 0 0 0 2.136-1.344v5.448h1.632c.312.84.576 1.656.792 2.376h-5.3v2.28h18.672v-2.28h-5.3c.24-.72.432-1.488.648-2.376h1.872V15.52a15.739 15.739 0 0 0 1.992 1.3l1.488-2.064a16.183 16.183 0 0 1-3.144-2.064 23.052 23.052 0 0 0 2.664-2.832l-1.824-1.464a28 28 0 0 1-2.424 2.784 7.381 7.381 0 0 1-.84-.936c.792-.768 1.56-1.632 2.352-2.544zm-8.736 7.1v.912h7.584v-1.172a19.785 19.785 0 0 0 2.688 2.424h-12.674a18.767 18.767 0 0 0 2.4-2.16zm-.288 4.224h8.16v1.584h-8.16zm5.592 6.024h-3.048c-.216-.744-.48-1.536-.72-2.376h4.416c-.194.82-.41 1.636-.65 2.38zM631 20.752l-2.5-.816a17.077 17.077 0 0 1-.432 3.48 1.426 1.426 0 0 1-1.536.96h-4.752a.965.965 0 0 1-1.008-1.08v-7.488h8.376v-9.6h-11.805v2.4h9.408v4.8h-8.424V24.3a2.108 2.108 0 0 0 2.352 2.424h6.264c1.536 0 2.52-.384 2.976-1.1A13.085 13.085 0 0 0 631 20.752zM611.871 5.44l-1.776 1.728a21.97 21.97 0 0 1 3.936 3.528l1.728-1.752a33.615 33.615 0 0 0-3.888-3.504zm-3.336 6.936v2.4h3.288V23.3a1.635 1.635 0 0 1-.648 1.3l.96 2.256a37.087 37.087 0 0 0 5.232-3.84l-.672-2.616a53.944 53.944 0 0 1-2.448 2.112V12.376z" transform="translate(30 50)"/>
    </g>
    <g id="fc_box_medium-2" data-name="fc_box_medium" transform="translate(114 1180)">
        <g transform="translate(-114 -1180)" style="filter:url(#box-4)">
            <g id="box-14" data-name="box" class="cls-4">
                <path class="cls-11" d="M0 0h538v130H0z" transform="translate(114 1180)"/>
                <path class="cls-13" d="M1 1h536v128H1z" transform="translate(114 1180)"/>
            </g>
        </g>
        <path id="패스_10737" data-name="패스 10737" class="cls-3" d="M133.016 5.56c-.216.888-.48 1.776-.768 2.664h-4.992v2.256h4.128a23.939 23.939 0 0 1-4.824 7.152l1.536 2.136c.768-.792 1.416-1.56 2.088-2.376v9.24h2.5V21.64h7.608v1.56c0 .6-.336.7-.888.7a7.911 7.911 0 0 1-2.04-.192l.672 2.544a20.836 20.836 0 0 0 2.232.1c1.656 0 2.52-.648 2.52-2.328V12.28h-9.456c.264-.6.528-1.2.768-1.8h11.06V8.224h-10.248l.648-2.184zm-.336 12.456h7.608v1.536h-7.608zm0-3.5h7.608v1.464h-7.608zm33.384 3.864v-1.996h-8.256v-1.032h6.408v-1.968h-6.408v-.936h5.5V10.5h-5.5V9.28h5.832v2.808h2.4v-4.9h-8.232V5.752h-2.5v1.44H147.2v4.872h2.424V9.28h5.712v1.22h-5.352v1.944h5.352v.936h-6.264v1.968h6.264v1.032h-8.16v1.992zm-1.728 8.016V19.36h-15.312v7.272h2.4v-1.008h10.488v.768zm-12.912-5.016h10.488v2.232h-10.488zm25.152-14.548a25.69 25.69 0 0 1-.84 5.544 29.213 29.213 0 0 0-1.128-3.168l-1.416.7v-4.18h-2.424v20.856h2.424V10.408a22.774 22.774 0 0 1 .984 3.6l1.176-.576a13.779 13.779 0 0 1-.792 1.7l2.136 1.176a19.582 19.582 0 0 0 1.416-3.84h1.92v4.252h-3.96v2.256h3.96v4.7h-5.208v2.232h12.312V23.68H182.5v-4.7h3.912v-2.26H182.5v-4.248h4.056v-2.256H182.5V5.728h-2.472v4.488h-1.44c.168-.984.288-1.992.408-3.048zm-8.256 3.24a23.421 23.421 0 0 1-.744 6.1l1.92.888a28.53 28.53 0 0 0 .816-6.552zm24.96-2.64a16.06 16.06 0 0 1-4.92 7.536l1.584 2.04a17.59 17.59 0 0 0 1.992-2.016v1.056h2.952c-.36 4.512-2.328 6.936-6.072 8.424l1.464 2.184c3.96-1.728 6.648-4.68 7.152-10.608h3.816a34.207 34.207 0 0 1-.552 7.008c-.12.456-.336.72-1.392.72a16.487 16.487 0 0 1-2.424-.264l.5 2.544c.744.072 1.488.144 2.3.144 2.16 0 3.1-.5 3.5-2.328a55.252 55.252 0 0 0 .624-8.856 15.667 15.667 0 0 0 2.4 2.064l1.656-2.328c-3.648-2.208-5.016-5.16-5.952-8.16h-6.072V8.92h4.128a16.755 16.755 0 0 0 2.712 4.848h-9.864a23.238 23.238 0 0 0 2.808-5.3zm28.512 6.528a42.108 42.108 0 0 1 7.368 3.36l1.368-2.088a58.211 58.211 0 0 0-8.736-2.928v-.168h8.952V9.808h-8.952v-4.56h-2.544v4.56H210.3v2.328h6.7a19.646 19.646 0 0 1-6.84 3.288l1.32 2.16q5.58-2.268 7.776-5.328v3.912h2.544zm-1.44 7.776a18.315 18.315 0 0 0 9.7 5.856l1.272-2.256a18.278 18.278 0 0 1-8.592-4.176h8.208v-2.328h-9.44q.216-.936.36-1.944h-2.54a12.714 12.714 0 0 1-.432 1.944H210.1v2.328h7.656a8.965 8.965 0 0 1-1.032 1.128c-1.44 1.248-3.744 2.208-6.96 2.9l1.008 2.328c3.816-.912 6.48-2.136 8.016-3.672a11.737 11.737 0 0 0 1.564-2.108zm-5.4-16.128-2.16.72a17.906 17.906 0 0 1 1.8 3.24l2.112-.552a19.638 19.638 0 0 0-1.752-3.408zm11.112-.048a12.211 12.211 0 0 1-1.848 3.24l2.088.744a12.746 12.746 0 0 0 1.944-3.408zm13.2 2.976v1.824q-.108 10.584-5.832 15.408l1.944 1.7q4.536-3.924 5.88-11.136a19.881 19.881 0 0 0 4.152 5.736 27.424 27.424 0 0 1-6.936 3.288l1.464 2.328a24.822 24.822 0 0 0 7.56-3.816 31.487 31.487 0 0 0 6.192 3.672l1.68-2.232a32.656 32.656 0 0 1-5.9-3.192 16.329 16.329 0 0 0 4.248-8.04v-1.46h-4.756a67.883 67.883 0 0 0 1.32-4.9V6.088H235.4v2.448zm8.112 11.976a17.077 17.077 0 0 1-5.616-8.76c.024-.456.048-.912.048-1.392V8.536h5.712a52.8 52.8 0 0 1-1.68 6.36h5.208a13.3 13.3 0 0 1-3.672 5.616zm14.688-6.36h5.28v3.456h-5.28zm-.12 5.76h5.4v6.768h2.544v-6.768h5.712v3.336c0 .912-.384 1.392-1.1 1.392-.816 0-1.68-.048-2.64-.144l.672 2.448h2.76c1.9 0 2.856-.936 2.856-2.784V6.04h-18.6v11.88a13.467 13.467 0 0 1-2.184 7.7l1.92 1.728a14.842 14.842 0 0 0 2.66-7.436zm13.656-2.3h-5.712v-3.46h5.712zm0-5.76h-5.712V8.488h5.712zm-8.256-3.36v3.36h-5.28V8.488zm23.5 9.192a16.51 16.51 0 0 1-2.592 4.152l1.872 1.32a20.922 20.922 0 0 0 2.664-4.512zm9.12-.192-1.848 1.152a39.166 39.166 0 0 1 2.808 4.632l1.944-1.368a37.872 37.872 0 0 0-2.908-4.42zM294.68 5.32a17.058 17.058 0 0 1-6.648 5.568l1.32 1.968a19.318 19.318 0 0 0 1.944-1.1v1.224h3.288v1.92h-5.544v2.232h5.544v3.72c0 .552-.24.84-.7.84a11.966 11.966 0 0 1-1.8-.168l.552 2.328h2.088c1.512 0 2.28-.816 2.28-2.4v-4.32h5.5V14.9h-5.5v-1.92h3v-1.44q.936.576 2.088 1.152l1.32-2.016a15.958 15.958 0 0 1-6.768-5.352zm-2.064 5.472a17.688 17.688 0 0 0 3.048-3.216 14.209 14.209 0 0 0 3.24 3.216zm-8.76-5.3-1.7 1.608a25 25 0 0 1 4.008 3.912l1.752-1.728a33.1 33.1 0 0 0-4.06-3.796zm13.68 21.624h5.5l.6-2.472q-.972.072-2.808.144c-1.248 0-2.448.024-3.624.024-1.872 0-3.5-.024-4.9-.048a7.773 7.773 0 0 1-3.168-.6 6.358 6.358 0 0 1-1.68-1.416l-.264-.264V13.36h-5.5v2.3h3.168v6.58a10.561 10.561 0 0 0-3.216 3.672l1.856 1.728c1.2-2.16 2.016-3.24 2.5-3.24.264 0 .552.192.888.6a5.394 5.394 0 0 0 2.52 1.656 18.062 18.062 0 0 0 3.84.408c1.528.024 2.968.048 4.288.048zm25.128-18.532v5.9h-2.976v-5.9zm0 8.328v10.536h2.424V16.912h2.592v-2.424h-2.592v-5.9h1.92V6.232h-11.592v2.352h1.824v5.9h-2.352v2.424h2.328c-.192 4.08-1.416 7.056-3.648 8.976l1.9 1.68c2.544-2.3 3.96-5.856 4.2-10.656zM308.6 8.728a22.059 22.059 0 0 1-3.408 8.376l1.32 2.16c.336-.48.7-.984 1.032-1.512v8.9h2.3v-1.7h4.08v-11.5h-4.244a28.428 28.428 0 0 0 1.3-4.728h3.6v-2.4h-8.544v2.4zm1.248 14.04v-7.1h1.776v7.1zm33.216-12.5-1.248 1.9a30.959 30.959 0 0 1 6.744 4.464l1.368-2.088a33.325 33.325 0 0 0-6.864-4.28zm-5.3-.1A20.521 20.521 0 0 1 330.8 14.3l1.056 2.256a25.461 25.461 0 0 0 7.416-4.632zM341 5.224l-2.784.432c.312.528.6 1.08.888 1.656h-8.616V12.5h2.5V9.616h15.072v2.9h2.5V7.312h-8.736A22.375 22.375 0 0 0 341 5.224zm-3.432 8.976v2.16l-.048.624h-6.048v2.352h5.616a9.263 9.263 0 0 1-1.248 2.592c-1.056 1.32-3.1 2.424-6.072 3.336l1.344 2.136c3.072-.912 5.3-2.184 6.672-3.864a10.751 10.751 0 0 0 1.92-4.2h4.032v5.52c0 1.608.864 2.424 2.64 2.424h1.9q2.3 0 2.736-1.3a28.58 28.58 0 0 0 .5-3.888l-2.3-.7c0 1.056-.048 2.064-.12 3.024-.1.336-.36.5-.84.5h-1.512c-.36 0-.528-.168-.528-.48v-7.452h-6.172c0-.192.024-.384.048-.624V14.2z" transform="translate(30 50)"/>
    </g>
    <g id="fc_box_medium-3" data-name="fc_box_medium" transform="translate(114 820)">
        <g transform="translate(-114 -820)" style="filter:url(#box-5)">
            <g id="box-15" data-name="box" class="cls-4">
                <path class="cls-11" d="M0 0h538v130H0z" transform="translate(114 820)"/>
                <path class="cls-13" d="M1 1h536v128H1z" transform="translate(114 820)"/>
            </g>
        </g>
        <path id="패스_10733" data-name="패스 10733" class="cls-3" d="M134.516 7.432a39.038 39.038 0 0 1-1.056 7.536l2.016 1.056a27.65 27.65 0 0 0 .744-3.672h1.008v4.488c-1.248.48-2.472.912-3.576 1.32l.648 2.472c.96-.384 1.968-.84 2.928-1.248v7.224h2.352V18.28c.768-.36 1.488-.744 2.088-1.032l-.1-2.3.264.192a20.834 20.834 0 0 0 1.872-3.528h.648a17.777 17.777 0 0 1-4.632 9.072l1.56 1.608a22.293 22.293 0 0 0 5.328-10.68h1.032c-.648 4.536-2.688 9.648-6.528 13.008l1.584 1.7c4.272-4.008 6.264-9.12 7.152-14.712h.384c-.12 4.9-.408 9.84-.96 11.664-.12.48-.288.7-.96.7h-.24a12.78 12.78 0 0 1-2.28-.264l.48 2.472a14.474 14.474 0 0 0 2.184.168c1.824.024 2.664-.576 3-2.232.624-2.736.984-7.752 1.056-14.784h-7.992a29.078 29.078 0 0 0 .888-3.192l-2.256-.48a26.483 26.483 0 0 1-1.776 5.736V10.12h-1.8V5.728h-2.352v4.392h-.744c.072-.84.1-1.656.144-2.4zm5.52 6.312 1.488 1.176-1.944.888v-3.456h1.3c-.244.456-.532.912-.844 1.392zm18.936-.984h6.936l-.36 1.56h-4.968v8.448H163v-6.144h8.712v6.144h2.424V14.32h-6.048l.36-1.56h7.656v-2.3h-7.272c.072-.48.144-.984.192-1.464l-2.5-.312-.216 1.776h-7.344V8.9a105.931 105.931 0 0 0 16.088-1.4l-1.224-2.232a98.979 98.979 0 0 1-17.28 1.536v7.68q-.18 7.092-2.448 11.088l1.752 1.824q2.952-4.824 3.12-12.912zm9.984 9.216-1.248 1.872a32.323 32.323 0 0 1 7.032 3.672l1.392-2.184a36.606 36.606 0 0 0-7.176-3.36zm-2.3-4.656a8.064 8.064 0 0 1-2.352 5.16 13.971 13.971 0 0 1-6.144 2.784l1.344 2.3a15.531 15.531 0 0 0 6.936-3.576 10.389 10.389 0 0 0 2.64-6.5zm14.04-2.16v12.384h2.472V11.272a27.427 27.427 0 0 0 2.088-5.136l-2.352-1.1a27.665 27.665 0 0 1-4.848 9.648l.84 2.688c.62-.724 1.22-1.444 1.796-2.212zm4.004-7.08v2.352h15.816V8.08h-6.456a18.793 18.793 0 0 0-1.08-2.856l-2.4.648c.36.72.7 1.44 1.008 2.208zm2.16 3.624v2.232h11.64V11.7zm0 3.384v2.256h11.64v-2.256zm12.168 3.576h-12.72V27.5h2.448v-1.2h7.844v1.2h2.424zm-10.272 5.256v-2.928h7.844v2.928zm16.968-17.064V19.12h15.5V6.856h-7.484a7.517 7.517 0 0 0 .576-1.44l-2.64-.36a8.067 8.067 0 0 1-.648 1.8zM218.8 17.008h-10.652v-1.392H218.8zm-10.656-3.36V12.3H218.8v1.344zm0-3.312V8.992H218.8v1.344zM204.4 20.44a15.237 15.237 0 0 1-2.064 4.92l2.112 1.368a20.965 20.965 0 0 0 2.3-5.808zm12.12 6.7a3.577 3.577 0 0 0 2.16-.552q.756-.576 1.08-3.672l-2.4-.792a5.1 5.1 0 0 1-.456 2.424 1.055 1.055 0 0 1-.864.384h-4.9c-.48 0-.7-.264-.7-.744v-3.772h-2.544v4.32c0 1.584.84 2.4 2.52 2.4zm-2.856-7.7-1.848 1.152a27.222 27.222 0 0 1 2.568 3.264l1.9-1.3a32.714 32.714 0 0 0-2.616-3.124zm7.632.48-1.968 1.224A39.812 39.812 0 0 1 222.5 26.2l2.016-1.392a43.977 43.977 0 0 0-3.216-4.896zm17.112-2.52h2.28v2.44h-2.28zm-.168 4.584h2.448v5.088h2.28v-5.096h2.432v2.592a.463.463 0 0 1-.5.528 11.286 11.286 0 0 1-1.512-.12l.6 2.256h1.608c1.416 0 2.136-.624 2.136-1.848V10.768h-3.6a21.431 21.431 0 0 0 1.8-2.16V6.856h-5.552c.192-.336.36-.672.552-1.056l-2.424-.552a17.813 17.813 0 0 1-4.536 5.9L235.508 13c.192-.168.408-.336.6-.528v7.3a10.9 10.9 0 0 1-1.68 6.048l1.824 1.632a12.314 12.314 0 0 0 1.992-5.476zm3.192-11.208h-3.672c.456-.576.912-1.176 1.368-1.824H243a20.509 20.509 0 0 1-1.564 1.816zm3.96 9.072h-2.424v-2.456h2.432zm0-4.608h-2.424v-2.28h2.432zm-4.7-2.28v2.28h-2.28v-2.28zm-13.824-6.584v2.4h2.376a24.2 24.2 0 0 1-3.168 8.544l1.44 2.328c.288-.432.552-.864.84-1.32V26.7h2.352v-1.56h3.936V13.5h-4.1a34.053 34.053 0 0 0 1.152-4.728h3.404v-2.4zm3.84 16.488v-7.056h1.68v7.056zm33.336-17.4a53.855 53.855 0 0 1-1.008 11.208 16.1 16.1 0 0 1-5.328 8.64l1.7 2.088a17.668 17.668 0 0 0 6.1-10.224c.048-.192.072-.408.12-.624a34.057 34.057 0 0 0 5.352 10.776l1.82-2.088c-3.072-3.48-5.232-8.136-6.432-13.968.144-1.776.216-3.72.216-5.808zm-10.392-.024-1.776 1.728a21.972 21.972 0 0 1 3.936 3.528l1.728-1.752a33.623 33.623 0 0 0-3.888-3.504zm-3.336 6.936v2.4h3.284v8.28a1.614 1.614 0 0 1-.648 1.32l.96 2.232a36.972 36.972 0 0 0 4.992-3.864l-.672-2.568a38.475 38.475 0 0 1-2.208 1.992v-9.792zm29.808-3.84v1.824q-.108 10.584-5.832 15.408l1.944 1.7q4.536-3.924 5.88-11.136a19.881 19.881 0 0 0 4.152 5.736 27.425 27.425 0 0 1-6.936 3.288l1.464 2.328a24.823 24.823 0 0 0 7.56-3.816 31.487 31.487 0 0 0 6.192 3.672l1.68-2.232a32.657 32.657 0 0 1-5.9-3.192 16.329 16.329 0 0 0 4.248-8.04v-1.46h-4.756a67.883 67.883 0 0 0 1.32-4.9V6.088h-14.88v2.448zm8.112 11.976a17.078 17.078 0 0 1-5.616-8.76c.024-.456.048-.912.048-1.392V8.536h5.712a52.8 52.8 0 0 1-1.68 6.36h5.208a13.3 13.3 0 0 1-3.672 5.616zM306.62 6.184v2.352h5.352v8.328h-6.048v2.376h6.048v8.28h2.448v-8.28h6.144v-2.376h-6.144V8.536h5.4V6.184zm10.58 3.168a31.362 31.362 0 0 1-1.752 5.856l2.088.744a31.391 31.391 0 0 0 1.848-6.024zm-8.232.072-2.136.72A41.321 41.321 0 0 1 308.54 16l2.136-.528a50.76 50.76 0 0 0-1.704-6.048zm-7.32-3.984-1.776 1.728a21.972 21.972 0 0 1 3.936 3.528l1.728-1.752a33.623 33.623 0 0 0-3.884-3.504zm-3.408 6.936v2.4h3.288V23.3a1.683 1.683 0 0 1-.624 1.3l.936 2.256a35.76 35.76 0 0 0 4.728-3.816l-.7-2.64c-.672.672-1.32 1.3-1.92 1.848v-9.872zm28.992-7.3a26.622 26.622 0 0 1-5.184 9.624l.84 2.664a38.355 38.355 0 0 0 1.824-2.112v12.292h2.52V11.56a29.25 29.25 0 0 0 2.376-5.376zm1.8 4.7V12.2h6.288v4.32h-5.088V27.5h2.5v-.94h7.9v.94h2.468V16.528h-5.232v-4.32h6.576V9.784h-6.576V5.32h-2.544v4.464zm3.7 14.376V18.9h7.9v5.26z" transform="translate(30 50)"/>
    </g>
    <g id="fc_box_medium-4" data-name="fc_box_medium" transform="translate(114 1540)">
        <g transform="translate(-114 -1540)" style="filter:url(#box-6)">
            <g id="box-16" data-name="box" class="cls-4">
                <path class="cls-11" d="M0 0h538v130H0z" transform="translate(114 1540)"/>
                <path class="cls-13" d="M1 1h536v128H1z" transform="translate(114 1540)"/>
            </g>
        </g>
        <path id="패스_10740" data-name="패스 10740" class="cls-3" d="M166.825 8.028V18.8h-.149l-7.4-10.773h-3.1V25h3.524V14.218h.124L167.281 25h3.05V8.028zm6.373 0V25h3.522V8.028zM191.008 25v-2.917h-7.9v-4.119h7.276v-2.909h-7.274v-4.11h7.865V8.028h-11.387V25zm16.044 0-3.613-6.6a4.885 4.885 0 0 0 3-4.84c0-3.348-2.213-5.528-6.075-5.528h-6.646V25h3.522v-6.033h2.685L203.149 25zm-7.343-14.08c2.1 0 3.108.936 3.108 2.635s-1.011 2.561-3.1 2.561h-2.477v-5.2zm32.348 7.192V15.9h-17.232v2.208h4.344c-.192 3.36-1.488 5.28-5.52 6.288l1.224 2.208c4.272-1.344 6.5-3.36 6.768-8.5h2.664V23.8c0 1.728.816 2.28 3.96 2.28 2.784 0 3.7-.336 4.152-1.368a10.792 10.792 0 0 0 .648-3.1l-2.424-.72v.264a7.385 7.385 0 0 1-.264 2.04c-.24.552-.624.624-1.848.624h-.552c-.792 0-1.272-.072-1.272-.624v-5.084zm.24-4.92V7.816h-7.632V5.8h-2.5v2.016h-7.512v5.376h2.424v-3.168h12.744v3.168zm-3.5.888V11.9h-10.68v2.18zm6.936 3.768v1.944h7.416v4.176h-2.28V20.7h-2.4v3.264H234.7v2.04h18.744v-2.04h-7.776V22.72h5.328v-1.9h-5.328v-1.028h6.72v-1.944h-6.792a11.4 11.4 0 0 0 3.888-2.208 13.621 13.621 0 0 0 3.5 1.9l.984-2.112a10.174 10.174 0 0 1-3.1-1.464 11.776 11.776 0 0 0 1.7-4.3h1.08V7.648H248.2c.192-.552.36-1.1.5-1.68l-2.16-.48a17.844 17.844 0 0 1-2.52 6.072V9.472h-3.456v-.84h3.912V6.856h-3.912v-1.08l-2.208-.024v1.1h-3.912v1.78h3.912v.84l-3.384-.024v4.488h2.688a14.766 14.766 0 0 1-3.408 2.112l1.152 1.9a13.848 13.848 0 0 0 2.976-2.256 7.041 7.041 0 0 0-.024.816v1.008h2.208V16.5a8.833 8.833 0 0 0-.072-.984 14.883 14.883 0 0 0 2.88 2.112l1.152-1.9a11.547 11.547 0 0 1-3.144-1.8h2.64v-1.744l1.38 1.176a10.1 10.1 0 0 0 .936-1.392 11.65 11.65 0 0 0 1.584 2.208 9.182 9.182 0 0 1-3.432 1.8l1.1 1.872zm11.712-8.064a.216.216 0 0 0 .024-.12h2.976a10.959 10.959 0 0 1-1.152 2.928 8.056 8.056 0 0 1-1.852-2.808zm-5.472 1.272v1.32h-1.392v-1.32zm-4.944 0h1.344v1.32h-1.344zm27.048-4.224a25.689 25.689 0 0 1-.84 5.544 29.206 29.206 0 0 0-1.128-3.168l-1.416.7v-4.18h-2.424v20.856h2.424V10.408a22.774 22.774 0 0 1 .984 3.6l1.176-.576a13.774 13.774 0 0 1-.792 1.7l2.136 1.176a19.584 19.584 0 0 0 1.416-3.84h1.92v4.252h-3.96v2.256h3.96v4.7h-5.208v2.232h12.312V23.68H270v-4.7h3.912v-2.26H270v-4.248h4.056v-2.256H270V5.728h-2.472v4.488h-1.44c.168-.984.288-1.992.408-3.048zm-8.256 3.24a23.421 23.421 0 0 1-.744 6.1l1.92.888a28.53 28.53 0 0 0 .816-6.552zM293.4 8.584v5.9h-2.976v-5.9zm0 8.328v10.536h2.424V16.912h2.592v-2.424h-2.592v-5.9h1.92V6.232h-11.591v2.352h1.824v5.9h-2.352v2.424h2.328c-.192 4.08-1.416 7.056-3.648 8.976l1.9 1.68c2.544-2.3 3.96-5.856 4.2-10.656zm-14.063-8.184a22.059 22.059 0 0 1-3.408 8.376l1.32 2.16c.336-.48.7-.984 1.032-1.512v8.9h2.3v-1.7h4.08v-11.5h-4.248a28.428 28.428 0 0 0 1.3-4.728h3.6v-2.4h-8.544v2.4zm1.248 14.04v-7.1h1.776v7.1zm33.216-12.5-1.248 1.9a30.959 30.959 0 0 1 6.744 4.464l1.368-2.088a33.325 33.325 0 0 0-6.865-4.28zm-5.3-.1a20.521 20.521 0 0 1-6.96 4.128l1.056 2.256a25.461 25.461 0 0 0 7.416-4.632zm3.24-4.944-2.784.432c.312.528.6 1.08.888 1.656h-8.616V12.5h2.5V9.616h15.072v2.9h2.5V7.312h-8.736a22.375 22.375 0 0 0-.828-2.088zm-3.436 8.976v2.16l-.048.624h-6.048v2.352h5.616a9.263 9.263 0 0 1-1.248 2.592c-1.056 1.32-3.1 2.424-6.072 3.336l1.344 2.136c3.072-.912 5.3-2.184 6.672-3.864a10.751 10.751 0 0 0 1.92-4.2h4.032v5.52c0 1.608.864 2.424 2.64 2.424h1.9q2.3 0 2.736-1.3a28.58 28.58 0 0 0 .5-3.888l-2.3-.7c0 1.056-.048 2.064-.12 3.024-.1.336-.36.5-.84.5h-1.512c-.36 0-.528-.168-.528-.48v-7.452h-6.168c0-.192.024-.384.048-.624V14.2z" transform="translate(30 50)"/>
    </g>
    <path id="세로" class="cls-9" transform="translate(668 540)" d="M0 0h1v50H0z"/>
    <path id="사각형_514" data-name="사각형 514" class="cls-9" transform="translate(383 590)" d="M0 0h571v1H0z"/>
    <path id="세로-2" data-name="세로" class="cls-9" transform="translate(953 591)" d="M0 0h1v50H0z"/>
    <path id="세로-3" data-name="세로" class="cls-9" d="M0 0h1v51H0z" transform="translate(382 590)"/>
    <path id="세로-4" data-name="세로" class="cls-9" transform="translate(668 230)" d="M0 0h1v50H0z"/>
    <path id="세로-5" data-name="세로" class="cls-9" transform="translate(382 950)" d="M0 0h1v50H0z"/>
    <path id="세로-6" data-name="세로" class="cls-9" transform="translate(382 641)" d="M0 0h1v178H0z"/>
    <path id="세로-7" data-name="세로" class="cls-9" transform="translate(382 1489)" d="M0 0h1v50H0z"/>
    <path id="패스_7154" data-name="패스 7154" d="M1584.279 2910.74h-57v-180h57" transform="translate(-1470.279 -1303.74)" style="fill:none;stroke:#999"/>
    <path id="세로-8" data-name="세로" class="cls-9" transform="translate(382 1129)" d="M0 0h1v50H0z"/>
    <path id="세로-9" data-name="세로" class="cls-9" transform="translate(382 1309)" d="M0 0h1v50H0z"/>
    <path id="세로-10" data-name="세로" class="cls-9" transform="translate(382 1669)" d="M0 0h1v50H0z"/>
    <g id="그룹_17113" data-name="그룹 17113" transform="translate(570)">
        <g id="fc_box_medium_link" transform="translate(114 820)">
            <g transform="translate(-684 -820)" style="filter:url(#box-7)">
                <g id="box-17" data-name="box" class="cls-4">
                    <path class="cls-11" d="M0 0h538v130H0z" transform="translate(684 820)"/>
                    <path class="cls-13" d="M1 1h536v128H1z" transform="translate(684 820)"/>
                </g>
            </g>
            <g id="fc_textlink-2" data-name="fc_textlink" transform="translate(386 76)">
                <g id="stack-2" data-name="stack" transform="translate(-2524.094 20210)">
                    <g id="ico_fc_go_tab" transform="translate(2431.094 -20209)">
                        <path id="패스_7163" data-name="패스 7163" class="cls-7" d="m8.62 5.071 5 5-5 5" transform="translate(-2.62 -.072)"/>
                    </g>
                    <path id="패스_10732" data-name="패스 10732" class="cls-8" d="M-28.864-7.184v6.048h9.792v-6.048zm8.32 4.7h-6.848v-1.004h6.848zm-6.848-2.288V-5.84h6.848v1.072zm-3.2-7.04v1.412h4.56a15.673 15.673 0 0 1-5.344 2.352l.816 1.348a13.56 13.56 0 0 0 5.86-3.668v2.7h1.472v-2.72a12.6 12.6 0 0 0 5.92 3.68l.656-1.376a13.57 13.57 0 0 1-5.216-2.32h4.528v-1.408h-5.888v-1.344H-24.7v1.344zm-.32 11.632v1.396h13.84V-.176zm16.8-10.128v1.3h4.336c-.16.256-.352.528-.544.8h-4.656v1.344h3.568a22.321 22.321 0 0 1-3.984 3.376l.816 1.3A26.871 26.871 0 0 0-12.224-4v5.664h1.44v-.608h6.928v.608h1.44v-7.728h-7.76c.208-.256.416-.528.64-.8H-.9v-1.344h-7.74c.16-.256.3-.528.464-.8h6.352v-1.3h-5.744q.168-.432.336-.912a42.4 42.4 0 0 0 5.312-.72l-.7-1.2a61.528 61.528 0 0 1-11.392.9l.432 1.248c1.728 0 3.36-.048 4.864-.128-.112.272-.224.544-.352.816zm3.328 7.408h6.928v.752h-6.928zm6.928-1.152h-6.928v-.784h6.928zm-6.928 3.06h6.928v.816h-6.928zM1.072-12.576v1.424h6.176v1.1H2.4v6.576h4.592A5.555 5.555 0 0 1 6.3-1.824a14 14 0 0 1-2.24-1.424l-1.168.8A14.869 14.869 0 0 0 5.248-.832 10.3 10.3 0 0 1 .64.288L1.3 1.68A11 11 0 0 0 6.736-.1a22.944 22.944 0 0 0 8.352 1.8l.384-1.476A23.3 23.3 0 0 1 7.712-1.2a6.617 6.617 0 0 0 .816-2.272h5.12v-6.576h-4.9v-1.1h6.192v-1.424zM12.144-4.8H8.7a9.269 9.269 0 0 0 .048-.976v-.384h3.392zM7.2-4.8H3.9v-1.36h3.348v.384c0 .32-.016.656-.048.976zM3.9-7.408v-1.344h3.348v1.344zm4.852-1.344h3.392v1.344H8.752zM23.776-13.2a11.209 11.209 0 0 1-6.336 2.976l.9 1.392a14.792 14.792 0 0 0 4.38-1.648h4.3a8.266 8.266 0 0 1-3.488 2.64 21.069 21.069 0 0 0-1.52-1.632l-1.312.624a15.69 15.69 0 0 1 1.412 1.488 17.766 17.766 0 0 1-3.6.544l.64 1.376c4.688-.384 7.888-2.128 9.616-5.2v-1.184H24.5c.208-.208.416-.432.64-.672zm-.256 10-1.344.64a16.586 16.586 0 0 1 1.536 1.744 21.082 21.082 0 0 1-6.24.816l.608 1.456q9.36-.24 12.784-5.856v-1.184h-4.08a9.249 9.249 0 0 0 .928-.848l-1.3-.7c-1.632 1.728-4.208 2.752-7.7 3.088l.912 1.36a21.8 21.8 0 0 0 4.9-1.52h4.384a9.622 9.622 0 0 1-3.76 2.848A19.989 19.989 0 0 0 23.52-3.2zM-32 3h64v1h-64z" transform="translate(2395.094 -20194)"/>
                </g>
            </g>
            <path id="패스_10731" data-name="패스 10731" class="cls-3" d="M158.348 6.028h-6.041V23h5.983c5.171 0 8.3-3.2 8.3-8.5-.004-5.29-3.129-8.472-8.242-8.472zm-2.519 13.948V9.052h2.329c3.207 0 4.906 1.666 4.906 5.445 0 3.8-1.7 5.478-4.923 5.478zm18.564-9.87c-3.381 0-5.3 1.74-5.5 3.953h3.29a1.925 1.925 0 0 1 2.13-1.409c1.285 0 2.014.613 2.022 1.691v1.028c-.53.017-2.254.091-3.157.149-2.445.157-4.732 1.077-4.732 3.928 0 2.511 1.807 3.8 4.235 3.8a3.906 3.906 0 0 0 3.721-2.006h.1V23h3.29v-8.577c-.005-3.067-2.624-4.323-5.4-4.323zm-.729 10.724c-1.11 0-1.9-.506-1.9-1.492s.762-1.55 1.972-1.649c.6-.058 2.1-.141 2.611-.166v.928a2.463 2.463 0 0 1-2.684 2.378zm14.287-.456c-.713-.025-1.21-.265-1.21-1.276v-6.217h2.4v-2.61h-2.4v-3.05h-3.472v3.05h-1.749v2.61h1.749v6.688c-.017 2.478 1.691 3.6 4.21 3.6a11.971 11.971 0 0 0 1.831-.124v-2.73c-.41.025-1.02.066-1.36.058zM196.66 10.1c-3.381 0-5.3 1.74-5.5 3.953h3.29a1.925 1.925 0 0 1 2.13-1.409c1.285 0 2.014.613 2.022 1.691v1.028c-.53.017-2.254.091-3.157.149-2.445.157-4.732 1.077-4.732 3.928 0 2.511 1.807 3.8 4.235 3.8a3.906 3.906 0 0 0 3.721-2.006h.1V23h3.29v-8.577c-.004-3.067-2.623-4.323-5.399-4.323zm-.729 10.724c-1.11 0-1.9-.506-1.9-1.492s.762-1.55 1.972-1.649c.6-.058 2.1-.141 2.611-.166v.928a2.463 2.463 0 0 1-2.683 2.384zm22.3-4.218h3.669c-.05 2.138-1.5 3.5-3.9 3.5-2.71 0-4.442-2.022-4.442-5.61 0-3.564 1.782-5.577 4.4-5.577a3.488 3.488 0 0 1 3.6 2.577h3.588c-.472-3.348-3.423-5.7-7.251-5.7-4.475 0-7.914 3.232-7.914 8.735 0 5.37 3.224 8.7 7.989 8.7 4.276 0 7.334-2.71 7.334-7.169v-2.12h-7.077zm14.935-6.506c-3.381 0-5.3 1.74-5.5 3.953h3.29a1.925 1.925 0 0 1 2.13-1.409c1.285 0 2.014.613 2.022 1.691v1.028c-.53.017-2.254.091-3.157.149-2.445.157-4.732 1.077-4.732 3.928 0 2.511 1.807 3.8 4.235 3.8a3.906 3.906 0 0 0 3.721-2.006h.1V23h3.29v-8.577c-.004-3.067-2.623-4.323-5.399-4.323zm-.729 10.724c-1.11 0-1.9-.506-1.9-1.492s.762-1.55 1.972-1.649c.6-.058 2.1-.141 2.611-.166v.928a2.463 2.463 0 0 1-2.684 2.384zm12.232 6.945v-6.8h.108a3.776 3.776 0 0 0 3.622 2.238c2.909 0 5.171-2.3 5.171-6.555 0-4.359-2.354-6.547-5.171-6.547a3.753 3.753 0 0 0-3.622 2.3h-.157v-2.134h-3.42v17.5zm-.075-11.138c0-2.3.97-3.754 2.718-3.754 1.773 0 2.71 1.525 2.71 3.754 0 2.246-.953 3.8-2.71 3.8-1.732.008-2.718-1.508-2.718-3.796zM264.931 23v-7.036h6.92v-2.909h-6.92v-4.11h7.669V6.028h-11.191V23zm11.644-14.4a1.833 1.833 0 0 0 1.889-1.765 1.894 1.894 0 0 0-3.779 0 1.833 1.833 0 0 0 1.89 1.765zm1.732 14.4V10.271h-3.472V23zm2.7-16.972V23h3.472V6.028zm6.174 0V23h3.472V6.028zM295.1 8.6a1.833 1.833 0 0 0 1.889-1.765 1.894 1.894 0 0 0-3.779 0A1.833 1.833 0 0 0 295.1 8.6zm1.729 14.4V10.271h-3.472V23zM303 15.633a2.373 2.373 0 0 1 2.445-2.644 2.2 2.2 0 0 1 2.279 2.511V23h3.476v-8.1c0-2.975-1.732-4.79-4.384-4.79a3.843 3.843 0 0 0-3.829 2.4h-.149v-2.239h-3.308V23H303zm16.583 12.406c3.622 0 6.182-1.649 6.182-4.906V10.271h-3.431v2.138h-.134a3.77 3.77 0 0 0-3.638-2.3c-2.809 0-5.171 2.146-5.171 6.456 0 4.235 2.3 6.257 5.18 6.257a3.718 3.718 0 0 0 3.638-2.08h.149v2.345c0 1.765-1.077 2.445-2.693 2.445-1.376 0-2.337-.456-2.528-1.483h-3.427c.207 2.415 2.37 3.99 5.876 3.99zm.066-7.831c-1.765 0-2.718-1.4-2.718-3.613 0-2.188.936-3.713 2.718-3.713 1.732 0 2.71 1.459 2.71 3.713s-.992 3.612-2.707 3.612z" transform="translate(30 33)"/>
        </g>
        <g id="fc_box_medium_link-2" data-name="fc_box_medium_link" transform="translate(114 640)">
            <g transform="translate(-684 -640)" style="filter:url(#box-8)">
                <g id="box-18" data-name="box" class="cls-4">
                    <path class="cls-11" d="M0 0h538v130H0z" transform="translate(684 640)"/>
                    <path class="cls-13" d="M1 1h536v128H1z" transform="translate(684 640)"/>
                </g>
            </g>
            <g id="fc_textlink-3" data-name="fc_textlink" transform="translate(386 76)">
                <g id="stack-3" data-name="stack" transform="translate(-2524.094 20210)">
                    <g id="ico_fc_go_tab-2" data-name="ico_fc_go_tab" transform="translate(2431.094 -20209)">
                        <path id="패스_7163-2" data-name="패스 7163" class="cls-7" d="m8.62 5.071 5 5-5 5" transform="translate(-2.62 -.072)"/>
                    </g>
                    <path id="패스_10730" data-name="패스 10730" class="cls-8" d="M-28.864-7.184v6.048h9.792v-6.048zm8.32 4.7h-6.848v-1.004h6.848zm-6.848-2.288V-5.84h6.848v1.072zm-3.2-7.04v1.412h4.56a15.673 15.673 0 0 1-5.344 2.352l.816 1.348a13.56 13.56 0 0 0 5.86-3.668v2.7h1.472v-2.72a12.6 12.6 0 0 0 5.92 3.68l.656-1.376a13.57 13.57 0 0 1-5.216-2.32h4.528v-1.408h-5.888v-1.344H-24.7v1.344zm-.32 11.632v1.396h13.84V-.176zm16.8-10.128v1.3h4.336c-.16.256-.352.528-.544.8h-4.656v1.344h3.568a22.321 22.321 0 0 1-3.984 3.376l.816 1.3A26.871 26.871 0 0 0-12.224-4v5.664h1.44v-.608h6.928v.608h1.44v-7.728h-7.76c.208-.256.416-.528.64-.8H-.9v-1.344h-7.74c.16-.256.3-.528.464-.8h6.352v-1.3h-5.744q.168-.432.336-.912a42.4 42.4 0 0 0 5.312-.72l-.7-1.2a61.528 61.528 0 0 1-11.392.9l.432 1.248c1.728 0 3.36-.048 4.864-.128-.112.272-.224.544-.352.816zm3.328 7.408h6.928v.752h-6.928zm6.928-1.152h-6.928v-.784h6.928zm-6.928 3.06h6.928v.816h-6.928zM1.072-12.576v1.424h6.176v1.1H2.4v6.576h4.592A5.555 5.555 0 0 1 6.3-1.824a14 14 0 0 1-2.24-1.424l-1.168.8A14.869 14.869 0 0 0 5.248-.832 10.3 10.3 0 0 1 .64.288L1.3 1.68A11 11 0 0 0 6.736-.1a22.944 22.944 0 0 0 8.352 1.8l.384-1.476A23.3 23.3 0 0 1 7.712-1.2a6.617 6.617 0 0 0 .816-2.272h5.12v-6.576h-4.9v-1.1h6.192v-1.424zM12.144-4.8H8.7a9.269 9.269 0 0 0 .048-.976v-.384h3.392zM7.2-4.8H3.9v-1.36h3.348v.384c0 .32-.016.656-.048.976zM3.9-7.408v-1.344h3.348v1.344zm4.852-1.344h3.392v1.344H8.752zM23.776-13.2a11.209 11.209 0 0 1-6.336 2.976l.9 1.392a14.792 14.792 0 0 0 4.38-1.648h4.3a8.266 8.266 0 0 1-3.488 2.64 21.069 21.069 0 0 0-1.52-1.632l-1.312.624a15.69 15.69 0 0 1 1.412 1.488 17.766 17.766 0 0 1-3.6.544l.64 1.376c4.688-.384 7.888-2.128 9.616-5.2v-1.184H24.5c.208-.208.416-.432.64-.672zm-.256 10-1.344.64a16.586 16.586 0 0 1 1.536 1.744 21.082 21.082 0 0 1-6.24.816l.608 1.456q9.36-.24 12.784-5.856v-1.184h-4.08a9.249 9.249 0 0 0 .928-.848l-1.3-.7c-1.632 1.728-4.208 2.752-7.7 3.088l.912 1.36a21.8 21.8 0 0 0 4.9-1.52h4.384a9.622 9.622 0 0 1-3.76 2.848A19.989 19.989 0 0 0 23.52-3.2zM-32 3h64v1h-64z" transform="translate(2395.094 -20194)"/>
                </g>
            </g>
            <path id="패스_10729" data-name="패스 10729" class="cls-3" d="M143.588 6.028h-6.041V23h5.983c5.171 0 8.3-3.2 8.3-8.5-.004-5.29-3.13-8.472-8.242-8.472zm-2.519 13.948V9.052h2.331c3.207 0 4.906 1.666 4.906 5.445 0 3.8-1.7 5.478-4.923 5.478zm18.564-9.87c-3.381 0-5.3 1.74-5.5 3.953h3.29a1.925 1.925 0 0 1 2.13-1.409c1.285 0 2.014.613 2.022 1.691v1.028c-.53.017-2.254.091-3.157.149-2.445.157-4.732 1.077-4.732 3.928 0 2.511 1.807 3.8 4.235 3.8a3.906 3.906 0 0 0 3.721-2.006h.1V23h3.29v-8.577c-.004-3.067-2.623-4.323-5.399-4.323zm-.733 10.723c-1.11 0-1.9-.506-1.9-1.492s.762-1.55 1.972-1.649c.6-.058 2.1-.141 2.611-.166v.928a2.463 2.463 0 0 1-2.683 2.379zm14.287-.456c-.713-.025-1.21-.265-1.21-1.276v-6.216h2.4v-2.61h-2.4v-3.05h-3.472v3.05h-1.745v2.61h1.749v6.688c-.017 2.478 1.691 3.6 4.21 3.6a11.971 11.971 0 0 0 1.831-.124v-2.73c-.415.025-1.02.066-1.359.058zM181.9 10.1c-3.381 0-5.3 1.74-5.5 3.953h3.29a1.925 1.925 0 0 1 2.13-1.409c1.285 0 2.014.613 2.022 1.691v1.028c-.53.017-2.254.091-3.157.149-2.445.157-4.732 1.077-4.732 3.928 0 2.511 1.807 3.8 4.235 3.8a3.906 3.906 0 0 0 3.721-2.006h.1V23h3.29v-8.577c.001-3.067-2.622-4.323-5.399-4.323zm-.729 10.724c-1.11 0-1.9-.506-1.9-1.492s.762-1.55 1.972-1.649c.6-.058 2.1-.141 2.611-.166v.928a2.463 2.463 0 0 1-2.683 2.384zm22.3-4.218h3.671c-.05 2.138-1.5 3.5-3.9 3.5-2.71 0-4.442-2.022-4.442-5.61 0-3.564 1.782-5.577 4.4-5.577a3.488 3.488 0 0 1 3.6 2.577h3.588c-.472-3.348-3.423-5.7-7.251-5.7-4.475 0-7.914 3.232-7.914 8.735 0 5.37 3.224 8.7 7.989 8.7 4.276 0 7.334-2.71 7.334-7.169v-2.12h-7.077zm14.935-6.506c-3.381 0-5.3 1.74-5.5 3.953h3.29a1.925 1.925 0 0 1 2.13-1.409c1.285 0 2.014.613 2.022 1.691v1.028c-.53.017-2.254.091-3.157.149-2.445.157-4.732 1.077-4.732 3.928 0 2.511 1.807 3.8 4.235 3.8a3.906 3.906 0 0 0 3.721-2.006h.1V23h3.29v-8.577c-.005-3.067-2.623-4.323-5.399-4.323zm-.729 10.724c-1.11 0-1.9-.506-1.9-1.492s.762-1.55 1.972-1.649c.6-.058 2.1-.141 2.611-.166v.928a2.463 2.463 0 0 1-2.683 2.384zm12.232 6.945v-6.8h.108a3.776 3.776 0 0 0 3.622 2.238c2.909 0 5.171-2.3 5.171-6.555 0-4.359-2.354-6.547-5.171-6.547a3.753 3.753 0 0 0-3.622 2.3h-.157v-2.134h-3.423v17.5zm-.075-11.138c0-2.3.97-3.754 2.718-3.754 1.773 0 2.71 1.525 2.71 3.754 0 2.246-.953 3.8-2.71 3.8-1.732.008-2.718-1.508-2.718-3.796zM261.964 23 256.1 6.028h-4.533L245.7 23h3.779l1.276-3.912h6.157L258.185 23zm-8.2-13.144h.133l2.113 6.472h-4.359zm13.508 5.776a2.373 2.373 0 0 1 2.445-2.644 2.2 2.2 0 0 1 2.279 2.511V23h3.472v-8.1c0-2.975-1.732-4.79-4.384-4.79a3.843 3.843 0 0 0-3.829 2.4h-.155v-2.239h-3.3V23h3.472zm16.214-5.532c-3.381 0-5.3 1.74-5.5 3.953h3.29a1.925 1.925 0 0 1 2.13-1.409c1.285 0 2.014.613 2.022 1.691v1.028c-.53.017-2.254.091-3.157.149-2.445.157-4.732 1.077-4.732 3.928 0 2.511 1.807 3.8 4.235 3.8a3.906 3.906 0 0 0 3.721-2.006h.1V23h3.29v-8.577c-.004-3.067-2.623-4.323-5.399-4.323zm-.729 10.724c-1.111 0-1.9-.506-1.9-1.492s.762-1.55 1.972-1.649c.6-.058 2.1-.141 2.611-.166v.928a2.463 2.463 0 0 1-2.683 2.384zm8.76-14.8V23h3.472V6.028zm8.221 21.746a4.6 4.6 0 0 0 4.8-3.373l4.964-14.13h-3.671l-2.693 9.381H303l-2.669-9.381h-3.651l4.575 13.086-.2.539a1.481 1.481 0 0 1-1.674 1.16c-.431 0-.961-.008-1.4-.041l-.008 2.7a19.25 19.25 0 0 0 1.765.062zm21.978-13.715c-.182-2.428-2.171-3.953-5.4-3.953-3.273 0-5.37 1.525-5.362 3.97-.008 1.881 1.235 3.133 3.671 3.613l2.1.414c1.193.249 1.724.655 1.732 1.318-.008.82-.845 1.318-2.1 1.318-1.285 0-2.088-.514-2.262-1.508h-3.481c.282 2.486 2.3 4.019 5.743 4.019 3.381 0 5.627-1.674 5.635-4.177-.008-1.84-1.2-2.942-3.663-3.448l-2.3-.464c-1.193-.257-1.641-.7-1.633-1.285-.008-.762.845-1.293 1.972-1.293a1.887 1.887 0 0 1 2.088 1.475zm4.151-5.455a1.833 1.833 0 0 0 1.889-1.765 1.894 1.894 0 0 0-3.779 0 1.833 1.833 0 0 0 1.89 1.765zM327.6 23V10.271h-3.472V23zm13.226-8.942c-.182-2.428-2.171-3.953-5.4-3.953-3.273 0-5.37 1.525-5.362 3.97-.008 1.881 1.235 3.133 3.671 3.613l2.1.414c1.193.249 1.724.655 1.732 1.318-.008.82-.845 1.318-2.1 1.318-1.285 0-2.088-.514-2.262-1.508h-3.481c.282 2.486 2.3 4.019 5.743 4.019 3.381 0 5.627-1.674 5.635-4.177-.008-1.84-1.2-2.942-3.663-3.448l-2.3-.464c-1.193-.257-1.641-.7-1.633-1.285-.008-.762.845-1.293 1.972-1.293a1.887 1.887 0 0 1 2.088 1.475z" transform="translate(30 33)"/>
        </g>
        <g id="fc_box_medium-5" data-name="fc_box_medium" transform="translate(114 1000)">
            <g transform="translate(-684 -1000)" style="filter:url(#box-9)">
                <g id="box-19" data-name="box" class="cls-4">
                    <path class="cls-11" d="M0 0h538v130H0z" transform="translate(684 1000)"/>
                    <path class="cls-13" d="M1 1h536v128H1z" transform="translate(684 1000)"/>
                </g>
            </g>
            <path id="패스_10735" data-name="패스 10735" class="cls-3" d="M161.456 6.184a29.441 29.441 0 0 1-7.248 12.768v-8.76h-2.52V21.16a24.092 24.092 0 0 1-4.992 2.976l1.344 2.136a26.622 26.622 0 0 0 3.7-2.16c.264 1.368 1.368 1.728 5.256 1.728 3.792 0 4.368-.336 4.9-1.008a7.663 7.663 0 0 0 1.152-3.96l-2.52-.864a6.741 6.741 0 0 1-.576 2.976c-.24.36-.36.5-2.928.5-2.232 0-2.808-.144-2.808-.84v-.432A32.976 32.976 0 0 0 163.832 7.1zm-13.248 6.576a34.289 34.289 0 0 1-1.608 7.632l2.328 1.008a35.025 35.025 0 0 0 1.656-8.232zm18.432 7.68a62.584 62.584 0 0 0-3.144-7.08l-2.28.984a58.248 58.248 0 0 1 3.024 7.128zm-7.632-11.52a32.107 32.107 0 0 0-5.064-3.288l-1.368 1.824a33.724 33.724 0 0 1 4.92 3.552zm27.624 15.36c-1.992-.6-3.888-1.152-5.784-1.656A11.967 11.967 0 0 0 183.3 19.5h3.36v-1.94h-9.864c.312-.48.624-1.008.936-1.512h7.632v-5.856h-4.632V8.7h5.88V6.64h-18.268V8.7h5.688v1.488h-4.512v5.856h5.448c-.312.48-.648 1.008-1.008 1.512h-5.688V19.5h4.3a26.947 26.947 0 0 1-2.088 2.472c1.776.432 3.456.84 5.136 1.272a24.236 24.236 0 0 1-7.536 1.08l.912 2.256c3.72-.264 7.056-.84 9.792-2.448 1.944.6 4.032 1.32 6.384 2.208zm-12.384-3.312c.408-.456.768-.96 1.152-1.464h5.112a8.91 8.91 0 0 1-2.3 2.424c-1.324-.336-2.644-.672-3.964-.96zm2.04-8.784h2.184v1.9h-2.184zm6.624 0v1.9h-2.184v-1.9zm-10.944 0h2.064v1.9h-2.064zm4.32-3.48h2.184v1.488h-2.184zm22.368 8.424v6.12l-2.088.288.624 2.4a70.343 70.343 0 0 0 6.672-1.488V22.12c-.912.24-1.824.48-2.76.672v-5.664h1.996V14.8h-6.408v2.328zm9.48 10.224c1.152 0 2.184-1.776 3.048-5.28l-1.968-1.584c-.384 2.688-.744 4.056-1.08 4.128-.6-.144-1.128-1.584-1.608-4.32a77.051 77.051 0 0 1-.624-8.52h4.44V9.328h-4.488c-.048-1.3-.048-2.664-.048-4.128h-2.448c0 1.416 0 2.784.048 4.128h-7.272v2.448h7.344a75.057 75.057 0 0 0 .576 7.68 18.67 18.67 0 0 0 1.7 5.976c.676 1.268 1.468 1.92 2.38 1.92zM207.8 5.176l-1.7 1.08a24.857 24.857 0 0 1 2.28 3l1.728-1.2a28.539 28.539 0 0 0-2.308-2.88zm-15.768.264-1.776 1.728A22.566 22.566 0 0 1 194 10.7l1.7-1.752a30.553 30.553 0 0 0-3.668-3.508zm-3.408 6.936v2.4h3.144v8.568a1.548 1.548 0 0 1-.648 1.248l.96 2.256a32.179 32.179 0 0 0 4.3-3.84l-.648-2.64a88.436 88.436 0 0 0-1.56 1.656v-9.648zm35.832.6v1.3h6.888V12.88a22.074 22.074 0 0 0 2.448 2.208L235.16 13a18.353 18.353 0 0 1-6.1-7.7h-2.208a19.364 19.364 0 0 1-6.072 7.776l1.32 2.016a19.27 19.27 0 0 0 2.356-2.116zm6.144-.96h-5.3a23.95 23.95 0 0 0 2.664-4.272 17.565 17.565 0 0 0 2.636 4.272zm-9.12 12.336v2.4h13.344v-2.4h-3.288a59.548 59.548 0 0 0 2.256-8.4l-2.4-.624a70.083 70.083 0 0 1-2.208 9.024zm2.784-8.328-2.136.744a53.063 53.063 0 0 1 1.944 6.528l2.136-.5a55.462 55.462 0 0 0-1.944-6.772zm3.7-.744-2.136.7a56.4 56.4 0 0 1 1.56 6.312l2.136-.5a59.235 59.235 0 0 0-1.564-6.512zm-9.408-6.864-1.008 7.632h-2.136l.912-6.24-2.28-.12-1.128 8.568h6.024a28.335 28.335 0 0 1-.336 5.856c-.216.648-.84.984-1.872.984a15.327 15.327 0 0 1-1.752-.192l.672 2.208c.552.048 1.08.1 1.608.1 1.632 0 2.712-.456 3.216-1.32s.768-4.152.768-9.84H219.9l1.128-9.888h-8.016v2.252zm-.528 11.3a36.131 36.131 0 0 1-5.616 1.3l.312 2.352a31.992 31.992 0 0 0 5.3-1.416zm21.528-9.912v10.588c-.912.24-1.872.5-2.88.744l.744 2.472a62.334 62.334 0 0 0 7.248-2.424v-2.5c-.816.312-1.656.624-2.568.936V9.808h2.52V7.36h-7.632v2.448zm5.736-3.768v2.452h5.52c-.1.624-.216 1.224-.36 1.824h-4.32v11.736h2.424v-9.432h6.936v9.432h2.448V10.312h-5.02c.144-.576.264-1.2.36-1.824h5.544V6.04zm9.072 15.792-1.68 1.608a27.26 27.26 0 0 1 4.608 4.2l1.8-1.8a36.115 36.115 0 0 0-4.732-4.004zm-3.652-8.128v4.22a8.359 8.359 0 0 1-1.584 4.728c-.984 1.1-2.88 2.04-5.664 2.808l1.368 2.136a12.555 12.555 0 0 0 6.216-3.36 10.639 10.639 0 0 0 2.16-6.312V13.7zm29.544-7.488h-16.968v21.332h2.544V26.1h11.9v1.4h2.52zM265.832 23.68v-3.744h11.9v3.744zm0-6.024v-3.48h11.9v3.48zm0-5.784V8.608h11.9v3.264zm24-.024h5.088v4.7h-6.768v2.424h6.768v5.232h-9.672v2.5h21.36v-2.5h-9.168v-5.228h7.152v-2.424h-7.152v-4.7h7.608V9.424h-7.608V5.488h-2.52v3.936h-4.176c.288-.912.528-1.9.744-2.928l-2.568-.48a17.676 17.676 0 0 1-4.344 9.1l1.656 2.088a17.191 17.191 0 0 0 3.6-5.356zm30.336-6.84-2.64.432a16.935 16.935 0 0 1 1.008 2.088h-8.328V9.9h4.224l.792 2.928H310.4v5.544a13.181 13.181 0 0 1-1.92 7.368l1.9 1.7c1.632-2.28 2.472-5.3 2.568-9.072v-3.12h16.944v-2.416h-5.424A20.783 20.783 0 0 0 325.4 9.9h3.984V7.528H321.1a21.512 21.512 0 0 0-.932-2.52zm-2.468 7.824-.8-2.932h6.1a18.16 18.16 0 0 1-.96 2.928z" transform="translate(30 50)"/>
        </g>
        <g id="fc_box_medium_link-3" data-name="fc_box_medium_link" transform="translate(114 1180)">
            <g transform="translate(-684 -1180)" style="filter:url(#box-10)">
                <g id="box-20" data-name="box" class="cls-4">
                    <path class="cls-11" d="M0 0h538v130H0z" transform="translate(684 1180)"/>
                    <path class="cls-13" d="M1 1h536v128H1z" transform="translate(684 1180)"/>
                </g>
            </g>
            <g id="fc_textlink-4" data-name="fc_textlink" transform="translate(386 76)">
                <g id="stack-4" data-name="stack" transform="translate(-2524.094 20210)">
                    <g id="ico_fc_go_tab-3" data-name="ico_fc_go_tab" transform="translate(2431.094 -20209)">
                        <path id="패스_7163-3" data-name="패스 7163" class="cls-7" d="m8.62 5.071 5 5-5 5" transform="translate(-2.62 -.072)"/>
                    </g>
                    <path id="패스_10738" data-name="패스 10738" class="cls-8" d="M-28.864-7.184v6.048h9.792v-6.048zm8.32 4.7h-6.848v-1.004h6.848zm-6.848-2.288V-5.84h6.848v1.072zm-3.2-7.04v1.412h4.56a15.673 15.673 0 0 1-5.344 2.352l.816 1.348a13.56 13.56 0 0 0 5.86-3.668v2.7h1.472v-2.72a12.6 12.6 0 0 0 5.92 3.68l.656-1.376a13.57 13.57 0 0 1-5.216-2.32h4.528v-1.408h-5.888v-1.344H-24.7v1.344zm-.32 11.632v1.396h13.84V-.176zm16.8-10.128v1.3h4.336c-.16.256-.352.528-.544.8h-4.656v1.344h3.568a22.321 22.321 0 0 1-3.984 3.376l.816 1.3A26.871 26.871 0 0 0-12.224-4v5.664h1.44v-.608h6.928v.608h1.44v-7.728h-7.76c.208-.256.416-.528.64-.8H-.9v-1.344h-7.74c.16-.256.3-.528.464-.8h6.352v-1.3h-5.744q.168-.432.336-.912a42.4 42.4 0 0 0 5.312-.72l-.7-1.2a61.528 61.528 0 0 1-11.392.9l.432 1.248c1.728 0 3.36-.048 4.864-.128-.112.272-.224.544-.352.816zm3.328 7.408h6.928v.752h-6.928zm6.928-1.152h-6.928v-.784h6.928zm-6.928 3.06h6.928v.816h-6.928zM1.072-12.576v1.424h6.176v1.1H2.4v6.576h4.592A5.555 5.555 0 0 1 6.3-1.824a14 14 0 0 1-2.24-1.424l-1.168.8A14.869 14.869 0 0 0 5.248-.832 10.3 10.3 0 0 1 .64.288L1.3 1.68A11 11 0 0 0 6.736-.1a22.944 22.944 0 0 0 8.352 1.8l.384-1.476A23.3 23.3 0 0 1 7.712-1.2a6.617 6.617 0 0 0 .816-2.272h5.12v-6.576h-4.9v-1.1h6.192v-1.424zM12.144-4.8H8.7a9.269 9.269 0 0 0 .048-.976v-.384h3.392zM7.2-4.8H3.9v-1.36h3.348v.384c0 .32-.016.656-.048.976zM3.9-7.408v-1.344h3.348v1.344zm4.852-1.344h3.392v1.344H8.752zM23.776-13.2a11.209 11.209 0 0 1-6.336 2.976l.9 1.392a14.792 14.792 0 0 0 4.38-1.648h4.3a8.266 8.266 0 0 1-3.488 2.64 21.069 21.069 0 0 0-1.52-1.632l-1.312.624a15.69 15.69 0 0 1 1.412 1.488 17.766 17.766 0 0 1-3.6.544l.64 1.376c4.688-.384 7.888-2.128 9.616-5.2v-1.184H24.5c.208-.208.416-.432.64-.672zm-.256 10-1.344.64a16.586 16.586 0 0 1 1.536 1.744 21.082 21.082 0 0 1-6.24.816l.608 1.456q9.36-.24 12.784-5.856v-1.184h-4.08a9.249 9.249 0 0 0 .928-.848l-1.3-.7c-1.632 1.728-4.208 2.752-7.7 3.088l.912 1.36a21.8 21.8 0 0 0 4.9-1.52h4.384a9.622 9.622 0 0 1-3.76 2.848A19.989 19.989 0 0 0 23.52-3.2zM-32 3h64v1h-64z" transform="translate(2395.094 -20194)"/>
                </g>
            </g>
            <path id="패스_10736" data-name="패스 10736" class="cls-3" d="M110.649 5.632a16.859 16.859 0 0 1-5.208 6.792l1.416 2.16c.288-.264.6-.5.864-.744v2.136c0 2.76-.1 6.048-2.616 9.048l1.776 1.728c2.712-3.24 3.264-6.744 3.264-10.656V13.48h13.848v-2.208h-5.928a29.646 29.646 0 0 0 1.464-2.688L117.945 7.5h-5.4c.192-.36.36-.72.528-1.1zm11.112 15.432a6.115 6.115 0 0 1-.384 2.184c-.288.456-.744.672-4.032.672-2.784 0-3.528-.024-3.528-.672v-6.216h5.016v2.136c0 .384-.216.576-.744.576a12.146 12.146 0 0 1-1.92-.216l.528 2.232c.888.024 1.32.048 2.016.048 1.752 0 2.568-.576 2.568-2.112v-4.752h-9.936v9.072c0 1.872 1.32 2.04 5.952 2.04 4.56 0 5.592-.384 6.264-1.464a7.848 7.848 0 0 0 .672-2.664zm-5.616-11.5a13.206 13.206 0 0 1-.984 1.7h-5.04a14.287 14.287 0 0 0 1.272-1.7zm28.728 8.808v-1.988h-8.256v-1.032h6.408v-1.968h-6.408v-.936h5.5V10.5h-5.5V9.28h5.832v2.808h2.4v-4.9h-8.232V5.752h-2.5v1.44h-8.112v4.872h2.424V9.28h5.712v1.22h-5.352v1.944h5.352v.936h-6.264v1.968h6.264v1.032h-8.16v1.992zm-1.728 8.016V19.36h-15.312v7.272h2.4v-1.008h10.488v.768zm-12.912-5.016h10.488v2.232h-10.488zm25.152-14.54a25.691 25.691 0 0 1-.84 5.544 29.216 29.216 0 0 0-1.128-3.168L152 9.9V5.728h-2.424v20.856H152V10.408a22.774 22.774 0 0 1 .984 3.6l1.176-.576a13.779 13.779 0 0 1-.792 1.7l2.136 1.176a19.582 19.582 0 0 0 1.416-3.84h1.92v4.252h-3.96v2.256h3.96v4.7h-5.208v2.232h12.312V23.68h-4.632v-4.7h3.912v-2.26h-3.912v-4.248h4.056v-2.256h-4.056V5.728h-2.472v4.488h-1.44c.168-.984.288-1.992.408-3.048zm-8.256 3.24a23.421 23.421 0 0 1-.744 6.1l1.92.888a28.53 28.53 0 0 0 .816-6.552zm29.64 2.016V9.64h-2.736V5.728h-2.592V9.64h-3.216v2.448h2.88a21.4 21.4 0 0 1-3.5 7.68l1.44 2.376a14.879 14.879 0 0 0 2.472-4.68 34.282 34.282 0 0 0-.072 2.064v7.08h2.592v-7.656c0-.7-.048-1.776-.1-2.664a16.52 16.52 0 0 0 1.92 3.408l1.392-2.064v8.976h2.688V25h3.648v1.32h2.715V6.52h-9.048v10.728a17.674 17.674 0 0 1-2.9-5.16zm3.168 7.416h3.648v3.12h-3.648zm0-5.3h3.648v3h-3.648zm0-5.256h3.648v2.9h-3.648zm15.24-3.552-2.3 1.1a28.838 28.838 0 0 1 2.4 3.5h-4.992v2.448h7.776v.576a20.619 20.619 0 0 1-.36 3.12h-8.784v2.448h8.064a11.472 11.472 0 0 1-1.056 2.016c-1.3 1.8-3.768 3.312-7.464 4.512l1.368 2.184q5.544-1.728 7.992-4.968a15.14 15.14 0 0 0 1.512-2.76q2.124 4.932 9.528 7.968l1.488-2.376c-4.752-1.632-7.728-3.816-8.88-6.576h8.28v-2.444h-9.48a24.366 24.366 0 0 0 .336-3.12v-.576h7.752V10h-4.44a21.541 21.541 0 0 0 1.9-4.1l-2.448-.672A23.252 23.252 0 0 1 201.105 10h-4.728l1.392-.7a46.077 46.077 0 0 0-2.592-3.908zm19.176.168-1.248 1.848a17.248 17.248 0 0 1 3.864 1.848l1.344-2.016a21.124 21.124 0 0 0-3.96-1.684zm7.152-.384a8.071 8.071 0 0 1-3 4.08l1.488 1.944a12.94 12.94 0 0 0 2.207-2.236h2.4a5.432 5.432 0 0 1-1.56 2.52 11.2 11.2 0 0 1-4.824 1.92l.936 2.232c2.76-.648 4.7-1.536 5.808-2.688.216-.24.432-.5.672-.792 1.512 1.728 3.936 2.928 7.3 3.624l.888-2.184c-3.5-.624-5.88-1.776-7.152-3.408.12-.384.24-.792.336-1.224h3.24a10.89 10.89 0 0 1-.864 2.064l2.4.72a27.292 27.292 0 0 0 1.032-3.48V6.784h-9.336a10.382 10.382 0 0 0 .5-1.3zm9.72 10.728h-15.84v7.464h2.5v-5.14h10.824v4.848h2.52zm-9 2.88c-.168 2.256-.768 3.864-1.824 4.8q-1.8 1.4-7.416 1.656l1.008 2.28c4.536-.384 7.392-1.2 8.568-2.472 1.1-.96 1.848-3 2.184-6.072zm-4.944-8.592a23.1 23.1 0 0 1-4.656 3.12l1.632 1.944a22.58 22.58 0 0 0 4.464-3.36zm7.872 12.7-1.272 1.9a46.493 46.493 0 0 1 8.4 2.928l1.344-2.088a54.011 54.011 0 0 0-8.472-2.748zm13.464-15.632-2.064.672a34.325 34.325 0 0 1 1.392 4.848l1.92-.528a39.812 39.812 0 0 0-1.248-4.992zm5.88-.24a21.151 21.151 0 0 1-.864 4.992l1.848.6a19.016 19.016 0 0 0 1.1-5.3zm-7.992 6.456v2.42h3.84a17.886 17.886 0 0 1-4.224 5.5l1.056 2.616a24.972 24.972 0 0 0 3.36-5.136v8.568h2.52v-8.76c.552.816 1.2 1.848 1.92 3.048l1.488-2.232a45.991 45.991 0 0 0-3.408-3.168V15.9h3.312v-2.42h-3.312V5.368h-2.52v8.112zm16.944-8.088v13.656l-6.864 1.032.36 2.5 6.5-.984v5.856h2.472v-6.24l2.616-.384-.432-2.5-2.184.336V5.392zm-4.2 1.56-1.656 1.608a23.109 23.109 0 0 1 3.792 3.528l1.7-1.7a27.776 27.776 0 0 0-3.836-3.436zm-.576 5.64-1.68 1.584a23.688 23.688 0 0 1 3.744 3.624l1.7-1.728a28.335 28.335 0 0 0-3.764-3.48zm12.778 5.6A16.61 16.61 0 0 0 264.8 28.68h3.307c-1.715-2.188-3.041-6.572-3.041-10.492s1.326-8.312 3.041-10.5H264.8a16.618 16.618 0 0 0-3.349 10.5zm23.586-4.243c-.481-3.9-3.431-6.149-7.343-6.149-4.483 0-7.889 3.182-7.889 8.718s3.348 8.718 7.889 8.718c4.309 0 6.945-2.859 7.343-5.992l-3.564-.017a3.521 3.521 0 0 1-3.721 2.884c-2.6 0-4.376-1.931-4.376-5.594 0-3.572 1.749-5.594 4.392-5.594a3.5 3.5 0 0 1 3.7 3.025zm15.05-1.061c-.05-3.008-2.528-5.088-6.29-5.088-3.7 0-6.431 2.047-6.414 5.122-.008 2.5 1.757 3.928 4.616 4.624l1.856.456c1.848.456 2.892.994 2.9 2.146-.008 1.276-1.2 2.13-3.05 2.13-1.873 0-3.232-.854-3.348-2.561h-3.423c.1 3.63 2.718 5.528 6.812 5.528 4.135 0 6.555-1.981 6.572-5.08-.017-2.834-2.18-4.318-5.08-4.972l-1.533-.373c-1.467-.34-2.735-.887-2.71-2.13 0-1.119.994-1.939 2.776-1.939 1.724 0 2.793.787 2.925 2.138zM315.956 25l-3.613-6.6a4.885 4.885 0 0 0 3-4.84c0-3.348-2.213-5.528-6.075-5.528h-6.646V25h3.522v-6.033h2.685L312.053 25zm-7.343-14.08c2.1 0 3.108.936 3.108 2.635s-1.011 2.561-3.1 2.561h-2.478v-5.2zm14.967 7.268a16.612 16.612 0 0 0-3.34-10.5h-3.315c1.724 2.188 3.05 6.572 3.05 10.5s-1.326 8.3-3.05 10.492h3.315a16.6 16.6 0 0 0 3.341-10.492zm10.794-11.38v2.136h5.616c-.048.336-.12.672-.168 1.056H335.6v10.944h-1.872v-2.016c-.672.288-1.368.576-2.088.84v-6.5h2.184v-2.356h-2.184v-5.52h-2.424v5.52h-2.4v2.352h2.4v7.224a26.406 26.406 0 0 1-2.664.576l.624 2.424a50.5 50.5 0 0 0 6.36-2.016v1.68h4.488a20.619 20.619 0 0 1-4.68 2.664l1.464 1.872a21.05 21.05 0 0 0 5.136-3.312l-1.416-1.224h5.4l-1.32 1.224a27.837 27.837 0 0 1 4.56 3.288l1.512-1.728a24.467 24.467 0 0 0-4.248-2.784h4.488v-2.208h-2.04V10h-4.68c.048-.336.12-.7.168-1.056h5.712V6.808h-5.424l.144-1.32-2.424-.336-.144 1.656zm3.576 14.136v-1.032h6.576v1.032zm0-2.736v-.984h6.576v.984zm0-2.664v-.96h6.576v.96zm0-2.664v-.96h6.576v.96zm20.328.624h9.984v-2.352h-9.432c.144-.6.264-1.224.408-1.9l-2.472-.24a92.008 92.008 0 0 1-2.352 9.24h13.392c-.072 3.7-.288 5.784-.624 6.216a2.993 2.993 0 0 1-2.208.624c-.864 0-1.824-.024-2.832-.072l.72 2.328h2.016c2.184 0 3.624-.408 4.3-1.176s1.056-4.176 1.152-10.224h-12.771q.36-1.148.72-2.448zm-6.936 6.84v2.4h14.5v-2.4zm20.28-14.256H351.8V11.7h2.472V8.44h14.88v3.288h2.472z" transform="translate(30 33)"/>
        </g>
        <path id="세로-11" data-name="세로" class="cls-9" transform="translate(383 770)" d="M0 0h1v50H0z"/>
        <path id="세로-12" data-name="세로" class="cls-9" transform="translate(383 1129)" d="M0 0h1v50H0z"/>
        <path id="세로-13" data-name="세로" class="cls-9" transform="translate(383 1309)" d="M0 0h1v50H0z"/>
        <path id="세로-14" data-name="세로" class="cls-9" transform="translate(383 949)" d="M0 0h1v50H0z"/>
    </g>
    <path id="세로-15" data-name="세로" class="cls-9" transform="translate(953 1489)" d="M0 0h1v230H0z"/>
    <path id="세로-16" data-name="세로" class="cls-9" transform="translate(668 1850)" d="M0 0h1v50H0z"/>
    <g id="fc_yes" transform="translate(478.234 579.904)">
        <path id="사각형_515" data-name="사각형 515" class="cls-1" d="M0 0h93.217v23.455H0z"/>
        <path id="패스_10728" data-name="패스 10728" class="cls-3" d="M-29.662 1.056v-8.128a48.914 48.914 0 0 1 4.48 4.1l1.2-1.328a49.076 49.076 0 0 0-5.168-4.24l-.512.624V-8.9c.288-.528.56-1.056.816-1.632h4.3v-1.536h-11.68v1.536h5.568a15.972 15.972 0 0 1-6.16 6.464l.9 1.408a19.811 19.811 0 0 0 4.576-3.872v7.588zm8.912-7.264a8.625 8.625 0 0 1-2.288 5.84l1.264 1.312a9.279 9.279 0 0 0 1.84-2.816C-18.558.064-17.294.5-14.766.608c.624.064 1.328.08 2.032.08.672 0 1.36-.016 2.032-.032l.64-1.76c-.864.064-1.632.1-2.368.112h-.5c-.432 0-.848-.016-1.232-.032a18.145 18.145 0 0 1-1.408-.08V-3.6h4.688v-1.536h-4.688v-1.68h3.84V-12.1h-9.488v5.28h3.968v5.328a4.879 4.879 0 0 1-2.16-2.064 17.725 17.725 0 0 0 .368-2.4zm1.168-4.416h6.224V-8.3h-6.224zm13.5-.691-2.8 1.779v2.088l2.6-1.63h.066V0h2.354v-11.315zM3.149.243c2.829 0 4.541-2.16 4.541-5.889.006-3.7-1.718-5.823-4.541-5.823s-4.536 2.115-4.541 5.823S.315.238 3.149.243zm0-1.956C1.84-1.713.995-3.028 1-5.646c.006-2.586.845-3.89 2.149-3.89s2.144 1.3 2.149 3.89c.002 2.618-.839 3.933-2.149 3.933zM13.713.243c2.829 0 4.541-2.16 4.541-5.889.006-3.7-1.718-5.823-4.541-5.823S9.177-9.354 9.171-5.646 10.879.238 13.713.243zm0-1.956c-1.309 0-2.155-1.315-2.149-3.934.006-2.586.845-3.89 2.149-3.89s2.144 1.3 2.149 3.89c0 2.619-.84 3.934-2.149 3.934zM27.917 0l-3.331-4.812 3.166-3.674h-2.658l-2.757 3.243h-.127v-6.072H19.9V0h2.31v-2.713l.646-.735L25.2 0zm4.365 3.359C34.7 3.359 36.4 2.26 36.4.088v-8.574h-2.284v1.425h-.094A2.513 2.513 0 0 0 31.6-8.6c-1.873 0-3.448 1.431-3.448 4.3 0 2.823 1.536 4.171 3.453 4.171a2.479 2.479 0 0 0 2.425-1.387h.1V.055c0 1.177-.718 1.63-1.8 1.63-.917 0-1.558-.3-1.685-.989h-2.28c.135 1.613 1.58 2.663 3.917 2.663zm.044-5.221c-1.177 0-1.812-.934-1.812-2.409 0-1.459.624-2.475 1.812-2.475 1.155 0 1.807.972 1.807 2.475s-.663 2.409-1.807 2.409z" transform="translate(46.814 16.096)"/>
    </g>
    <g id="fc_yes-2" data-name="fc_yes" transform="translate(764.484 579.2)">
        <path id="사각형_515-2" data-name="사각형 515" class="cls-1" d="M0 0h93.281v24.159H0z"/>
        <path id="패스_10727" data-name="패스 10727" class="cls-3" d="m-33.763-11.315-2.8 1.779v2.088l2.6-1.63h.066V0h2.354v-11.315zM-24.531.243c2.829 0 4.541-2.16 4.541-5.889.006-3.7-1.718-5.823-4.541-5.823s-4.536 2.116-4.541 5.823S-27.365.238-24.531.243zm0-1.956c-1.309 0-2.155-1.315-2.149-3.934.006-2.586.845-3.89 2.149-3.89s2.144 1.3 2.149 3.89c.001 2.619-.839 3.934-2.149 3.934zM-13.967.243c2.829 0 4.541-2.16 4.541-5.889.006-3.7-1.718-5.823-4.541-5.823s-4.533 2.115-4.542 5.823S-16.8.238-13.967.243zm0-1.956c-1.309 0-2.155-1.315-2.149-3.934.006-2.586.845-3.89 2.149-3.89s2.144 1.3 2.149 3.89c0 2.619-.84 3.934-2.149 3.934zM.237 0l-3.331-4.812L.072-8.486h-2.658l-2.757 3.243h-.127v-6.072h-2.315V0h2.315v-2.713l.646-.735L-2.475 0zM4.6 3.359c2.414 0 4.122-1.1 4.122-3.271v-8.574H6.436v1.425h-.094A2.513 2.513 0 0 0 3.917-8.6C2.044-8.6.469-7.166.469-4.293c0 2.823 1.536 4.171 3.453 4.171a2.479 2.479 0 0 0 2.426-1.386h.1V.055c0 1.177-.718 1.63-1.8 1.63-.917 0-1.558-.3-1.685-.989H.685C.823 2.309 2.265 3.359 4.6 3.359zm.044-5.221c-1.177 0-1.812-.934-1.812-2.409 0-1.459.624-2.475 1.812-2.475 1.155 0 1.807.972 1.807 2.475S5.79-1.862 4.646-1.862zM23.1-.464a31.667 31.667 0 0 0-2.944-2.928A10.81 10.81 0 0 0 21.1-8.24v-4.448h-1.7v4.368c0 3.072-.7 6-5.152 7.952l.952 1.456a10.925 10.925 0 0 0 4.08-3.056 19.34 19.34 0 0 1 2.64 2.9zM16.878-4.88a29.759 29.759 0 0 1-3.856 1.968v-9.552h-1.664v10.192c-.464.16-.928.336-1.36.464l.528 1.648a43.065 43.065 0 0 0 6.768-3.328zm1.3-4.5a20.459 20.459 0 0 0-3.136-2.944L13.9-11.248a19.965 19.965 0 0 1 3.01 3.088zM36.718.3v-1.548h-5.84v-5.616h5.008v-1.5h-5.008V-12.8h-1.712v11.552h-5.12V.3z" transform="translate(46.564 16.8)"/>
    </g>
    <g id="fc_yes-3" data-name="fc_yes" transform="translate(31.39 1494.686)">
        <path id="사각형_515-3" data-name="사각형 515" class="cls-1" d="M0 0h53.917v44.995H0z"/>
        <path id="패스_10741" data-name="패스 10741" class="cls-3" d="M-9.511-11.315v7.182h-.1l-4.934-7.182h-2.065V0h2.348v-7.188h.083L-9.207 0h2.033v-11.315zm4.249 0V0h2.348v-11.315zM6.61 0v-1.945H1.345v-2.746H6.2V-6.63H1.345v-2.74h5.243v-1.945H-1V0zm10.7 0L14.9-4.4a3.257 3.257 0 0 0 2-3.227c0-2.232-1.475-3.685-4.05-3.685H8.417V0h2.348v-4.022h1.79L14.7 0zm-4.9-9.387c1.4 0 2.072.624 2.072 1.757s-.674 1.707-2.066 1.707h-1.651v-3.464zM-12.9 19.568v6.112h1.632v-6.272a18.191 18.191 0 0 1 2.02 2.192l.912-1.44q-.576-.552-1.2-1.056a6.339 6.339 0 0 0 1.248-1.28l-.944-.944a6.378 6.378 0 0 1-1.36 1.408l-.672-.448v-.064a11.893 11.893 0 0 0 1.888-3.248v-1.36h-1.68c-.224-.7-.512-1.488-.88-2.352l-1.616.432c.3.624.576 1.264.832 1.92h-2.288v1.52h3.968a14.987 14.987 0 0 1-4.4 4.96l.512 1.7a24.835 24.835 0 0 0 2.028-1.78zm6.352-8.688v14.784H-4.9V17.84c.912.672 2.032 1.616 3.36 2.8l.992-1.472A51.814 51.814 0 0 0-4.9 16.112V10.88zm14.768-.128-1.792.288a15.637 15.637 0 0 1 .816 1.552h-5.9v1.552h4.24a10.159 10.159 0 0 1-2.816 3.04 1.09 1.09 0 0 1-.352.128l.384 1.5q4.92-.264 9.1-.72c.368.544.7 1.088 1.008 1.616l1.376-.976a35.742 35.742 0 0 0-3.04-4.128l-1.3.816c.336.432.672.88 1.008 1.328-2.016.24-4.016.416-6.032.544a18.908 18.908 0 0 0 2.384-3.152h7.344v-1.548H8.944a17.01 17.01 0 0 0-.72-1.84zm-3.3 8.528a5.686 5.686 0 0 1-.992 3.28A7.12 7.12 0 0 1 .96 24.32l1.056 1.344a8.235 8.235 0 0 0 3.424-2.352 8 8 0 0 0 1.1-4.032zM13 25.408a2.2 2.2 0 0 0 1.36-.464c.288-.272.512-1.248.688-2.944l-1.536-.48a4.632 4.632 0 0 1-.384 2.1.861.861 0 0 1-.544.24H10.88a.573.573 0 0 1-.64-.656v-4.116H8.576v4.4c0 1.28.608 1.92 1.84 1.92z" transform="translate(26.61 15.315)"/>
    </g>
    <path id="다각형_163" data-name="다각형 163" class="cls-9" d="M7.5 0 15 11H0z" transform="rotate(180 480.5 323)"/>
    <path id="다각형_164" data-name="다각형 164" class="cls-9" d="M7.5 0 15 11H0z" transform="rotate(180 480.5 413)"/>
    <path id="다각형_167" data-name="다각형 167" class="cls-9" d="M7.5 0 15 11H0z" transform="rotate(180 480.5 503)"/>
    <path id="다각형_169" data-name="다각형 169" class="cls-9" d="M7.5 0 15 11H0z" transform="rotate(180 480.5 593)"/>
    <path id="다각형_171" data-name="다각형 171" class="cls-9" d="M7.5 0 15 11H0z" transform="rotate(180 480.5 683)"/>
    <path id="다각형_165" data-name="다각형 165" class="cls-9" d="M7.5 0 15 11H0z" transform="rotate(180 195 413)"/>
    <path id="다각형_166" data-name="다각형 166" class="cls-9" d="M7.5 0 15 11H0z" transform="rotate(180 195 503)"/>
    <path id="다각형_168" data-name="다각형 168" class="cls-9" d="M7.5 0 15 11H0z" transform="rotate(180 195 593)"/>
    <path id="다각형_170" data-name="다각형 170" class="cls-9" d="M7.5 0 15 11H0z" transform="rotate(180 195 683)"/>
    <path id="다각형_172" data-name="다각형 172" class="cls-9" d="M7.5 0 15 11H0z" transform="rotate(180 195 773)"/>
    <path id="다각형_174" data-name="다각형 174" class="cls-9" d="M7.5 0 15 11H0z" transform="rotate(180 195 863)"/>
    <path id="다각형_175" data-name="다각형 175" class="cls-9" d="M7.5 0 15 11H0z" transform="rotate(180 480.5 863)"/>
    <path id="다각형_176" data-name="다각형 176" class="cls-9" d="M7.5 0 15 11H0z" transform="rotate(180 338 953)"/>
    <path id="다각형_173" data-name="다각형 173" class="cls-9" d="M7.5 0 15 11H0z" transform="rotate(90 -650 770)"/>
    <path id="다각형_177" data-name="다각형 177" class="cls-9" d="M7.5 0 15 11H0z" transform="rotate(180 338 143.5)"/>
</svg>
