<svg xmlns="http://www.w3.org/2000/svg" width="26" height="26" viewBox="0 0 26 26">
    <path style="fill:none;opacity:.2" d="M0 0h26v26H0z"/>
    <path data-name="패스 88" d="M18.358 2.74v3.238a.322.322 0 0 1-.039 0h-1.9a3.374 3.374 0 0 0-.46.029 1.917 1.917 0 0 0-.561.156 1.122 1.122 0 0 0-.443.358 1.378 1.378 0 0 0-.223.522 2.9 2.9 0 0 0-.061.616v2.3a.3.3 0 0 0 0 .03c0 .03.008.036.037.038h3.471c.07 0 .072 0 .063.072l-.089.689-.11.851-.128.995-.121.937c-.01.078-.009.078-.085.078h-3a.029.029 0 0 0-.033.032V22.918h-3.739V13.694c0-.021-.009-.04-.043-.042H7.8v-3.625h3.03c.1 0 .092.006.092-.094V7.492c0-.135 0-.27.006-.4.008-.185.022-.371.044-.556a5.252 5.252 0 0 1 .306-1.262 4.027 4.027 0 0 1 1.047-1.56 3.965 3.965 0 0 1 1.068-.7 5.154 5.154 0 0 1 1.89-.423.174.174 0 0 0 .056-.007h.713a.22.22 0 0 0 .07.006c.173 0 .346.007.518.013.209.007.419.02.628.031.153.009.307.018.46.03.211.032.421.051.63.076z"/>
</svg>
