<svg xmlns="http://www.w3.org/2000/svg" width="26" height="26" viewBox="0 0 26 26">
    <path style="fill:none;opacity:.2" d="M0 0h26v26H0z"/>
    <g data-name="그룹 151">
        <path data-name="패스 92" d="M12.667 7.049a8.352 8.352 0 0 0-2.052.255V5.725a.509.509 0 0 0-.012-.108 3.131 3.131 0 0 0-6.258 0c-.007.036-.011 5.93-.011 5.93v3.915a8.332 8.332 0 1 0 8.332-8.414zm0 15.386a7.053 7.053 0 0 1-7.053-7.053v-9.6a1.86 1.86 0 1 1 3.721 0v9.513a3.409 3.409 0 0 0 3.336 3.424 3.34 3.34 0 1 0-2.052-5.975v-1.429a4.553 4.553 0 1 1-2.5 4.064V5.721a.641.641 0 0 0-1.281 0v9.658c0 .147.007.291.017.435a5.828 5.828 0 1 0 3.763-5.9V8.625a7.054 7.054 0 1 1 2.052 13.8zm-2.052-7.053a2.052 2.052 0 1 1 2.052 2.052 2.052 2.052 0 0 1-2.052-2.051z"/>
    </g>
</svg>
