<svg xmlns="http://www.w3.org/2000/svg" width="26" height="26" viewBox="0 0 26 26">
    <path style="fill:none;opacity:.2" d="M0 0h26v26H0z"/>
    <path data-name="패스 93" d="M23.442 7.639a2.786 2.786 0 0 0-1.96-1.973C19.753 5.2 12.82 5.2 12.82 5.2s-6.933 0-8.662.466a2.785 2.785 0 0 0-1.96 1.973 31.353 31.353 0 0 0 0 10.742 2.785 2.785 0 0 0 1.96 1.973c1.729.466 8.662.466 8.662.466s6.933 0 8.662-.466a2.786 2.786 0 0 0 1.96-1.973 31.369 31.369 0 0 0 0-10.742zm-12.89 8.668V9.714l5.795 3.3z"/>
</svg>
