<svg xmlns="http://www.w3.org/2000/svg" width="26" height="26" viewBox="0 0 26 26">
    <path style="fill:none;opacity:.2" d="M0 0h26v26H0z"/>
    <g data-name="그룹 150" transform="translate(2.601 2.6)">
        <path data-name="패스 90" d="M14.743 0H5.982A5.982 5.982 0 0 0 0 5.982v8.764a5.982 5.982 0 0 0 5.982 5.982h8.761a5.982 5.982 0 0 0 5.982-5.982V5.985A5.982 5.982 0 0 0 14.743 0zm4.073 14.9a3.971 3.971 0 0 1-3.971 3.971H5.879A3.971 3.971 0 0 1 1.908 14.9V5.934a3.971 3.971 0 0 1 3.971-3.971h8.966a3.971 3.971 0 0 1 3.971 3.971z"/>
        <path data-name="패스 91" d="M10.362 5.036a5.377 5.377 0 1 0 5.377 5.377 5.377 5.377 0 0 0-5.377-5.377zm0 8.863a3.486 3.486 0 1 1 3.486-3.486 3.486 3.486 0 0 1-3.486 3.486z"/>
        <circle data-name="타원 6" cx="1.253" cy="1.253" r="1.253" transform="translate(14.666 3.579)"/>
    </g>
</svg>
