<svg xmlns="http://www.w3.org/2000/svg" xmlns:xlink="http://www.w3.org/1999/xlink" width="314.4" height="121.696" viewBox="0 0 314.4 121.696">
  <defs>
    <style>
      .cls-1, .cls-2 {
        fill: #fff;
      }

      .cls-1 {
        opacity: 0;
      }

      .cls-3 {
        filter: url(#패스_7284);
      }
    </style>
    <filter id="패스_7284" x="0" y="0" width="314.4" height="121.696" filterUnits="userSpaceOnUse">
      <feOffset input="SourceAlpha"/>
      <feGaussianBlur stdDeviation="5" result="blur"/>
      <feFlood flood-opacity="0.161"/>
      <feComposite operator="in" in2="blur"/>
      <feComposite in="SourceGraphic"/>
    </filter>
  </defs>
  <g id="footer_text_mo_ENG" transform="translate(9506.4 16011.353)">
    <rect id="area" class="cls-1" width="290" height="110" transform="translate(-9492 -16004)"/>
    <g class="cls-3" transform="matrix(1, 0, 0, 1, -9506.4, -16011.35)">
      <path id="패스_7284-2" data-name="패스 7284" class="cls-2" d="M15.408.192l.048-13.92c0-1.992.216-2.136,1.824-2.28v-.648h-4.7v.648c1.56.144,1.8.288,1.8,2.28v10.3h-.24L4.08-16.656H1.32v.648c1.272.216,1.9.6,1.9,2.592V-2.808c0,1.992-.168,2.16-1.848,2.28V.144H6.216V-.528c-1.7-.12-1.92-.264-1.92-2.28V-13.056H4.56L14.592.192Zm11.04-1.968c0,1.008.312,2.088,1.128,2.088A4.45,4.45,0,0,0,29.64-.336V-.912c-.36.024-.432.048-.84.048s-.7-.144-.7-1.008v-6.96c0-2.208-1.128-3.408-3.624-3.408-1.728,0-4.728,1.008-4.56,3.1.072.936,1.272,1.008,1.848.408a2.772,2.772,0,0,1,.432-1.992,2.293,2.293,0,0,1,1.68-.648A2.42,2.42,0,0,1,26.424-8.76v1.224c-2.568,0-7.224,1.464-7.224,4.68A3.018,3.018,0,0,0,22.464.312,5.528,5.528,0,0,0,26.448-1.776ZM23.4-1.008c-1.3.048-2.328-.336-2.328-2.112,0-2.376,3.624-3.5,5.352-3.5v4.056A4.715,4.715,0,0,1,23.4-1.008Zm17.784-.816v-7.1a4.73,4.73,0,0,1,3.288-1.9C46.152-10.8,46.9-9.672,46.9-7.9v6.24c0,.84-.624,1.056-1.392,1.08v.7C46.248.1,46.968.1,47.664.1c.72,0,1.584,0,2.376.024v-.7C49.3-.6,48.576-1.008,48.576-1.824V-8.9a3.059,3.059,0,0,0-3.024-3.264A5.675,5.675,0,0,0,41.3-10.032h-.288a2.7,2.7,0,0,0-2.664-2.136c-2.064-.048-3.312,1.536-4.032,2.4H34.1V-11.88c0-.216-.168-.264-.384-.216l-2.64.768v.6h.336c.792,0,1.08.192,1.08,1.3v7.776c0,.84-.624,1.056-1.368,1.08v.7C31.848.1,32.64.1,33.384.1c.672,0,1.464,0,2.28.024v-.7C34.9-.6,34.176-1.008,34.176-1.824V-8.4c.648-1.032,1.824-2.448,3.192-2.424C39.024-10.8,39.5-9.672,39.5-7.9v6.24c0,.84-.6,1.056-1.368,1.08v.7C38.88.1,39.648.1,40.344.1c.72,0,1.512,0,2.3.024v-.7C41.9-.6,41.184-1.008,41.184-1.824ZM74.16-9.72H69.84v.7c.888,0,1.056.216,1.056.6a10.82,10.82,0,0,1-1.608,4.416c-1.536-1.488-3.912-3.96-5.424-5.64,2.88-1.1,4.152-2.352,4.176-4.248.024-2.04-2.04-3.12-3.72-3.144-2.4-.048-4.488,1.224-4.488,3.672,0,1.392.456,2.208,1.9,3.768C59.04-8.136,58.08-6.168,58.08-4.128,58.08-1.2,60.552.528,63.168.528A7.663,7.663,0,0,0,68.952-2.04C70.872-.264,71.16,0,73.1,0h1.008V-.648C73.128-.84,72.36-.96,69.936-3.36A21.67,21.67,0,0,0,71.64-6.7c.792-1.968,1.08-2.256,2.52-2.328Zm-10.344,9A3.791,3.791,0,0,1,59.9-4.44a4.92,4.92,0,0,1,2.448-4.512c1.7,1.8,4.272,4.608,5.976,6.288A6.062,6.062,0,0,1,63.816-.72Zm-.6-9.528a4.464,4.464,0,0,1-1.68-3.456,2.45,2.45,0,0,1,2.616-2.544,2.187,2.187,0,0,1,2.4,2.28C66.552-12.312,65.28-11.136,63.216-10.248ZM96.168.192l.048-13.92c0-1.992.216-2.136,1.824-2.28v-.648h-4.7v.648c1.56.144,1.8.288,1.8,2.28v10.3H94.9L84.84-16.656H82.08v.648c1.272.216,1.9.6,1.9,2.592V-2.808c0,1.992-.168,2.16-1.848,2.28V.144h4.848V-.528c-1.7-.12-1.92-.264-1.92-2.28V-13.056h.264L95.352.192Zm11.04-1.968c0,1.008.312,2.088,1.128,2.088A4.45,4.45,0,0,0,110.4-.336V-.912c-.36.024-.432.048-.84.048s-.7-.144-.7-1.008v-6.96c0-2.208-1.128-3.408-3.624-3.408-1.728,0-4.728,1.008-4.56,3.1.072.936,1.272,1.008,1.848.408a2.772,2.772,0,0,1,.432-1.992,2.293,2.293,0,0,1,1.68-.648,2.42,2.42,0,0,1,2.544,2.616v1.224c-2.568,0-7.224,1.464-7.224,4.68A3.018,3.018,0,0,0,103.224.312,5.528,5.528,0,0,0,107.208-1.776Zm-3.048.768c-1.3.048-2.328-.336-2.328-2.112,0-2.376,3.624-3.5,5.352-3.5v4.056A4.715,4.715,0,0,1,104.16-1.008Zm17.784-.816v-7.1a4.73,4.73,0,0,1,3.288-1.9c1.68.024,2.424,1.152,2.424,2.928v6.24c0,.84-.624,1.056-1.392,1.08v.7C127.008.1,127.728.1,128.424.1c.72,0,1.584,0,2.376.024v-.7c-.744-.024-1.464-.432-1.464-1.248V-8.9a3.059,3.059,0,0,0-3.024-3.264,5.675,5.675,0,0,0-4.248,2.136h-.288a2.7,2.7,0,0,0-2.664-2.136c-2.064-.048-3.312,1.536-4.032,2.4h-.216V-11.88c0-.216-.168-.264-.384-.216l-2.64.768v.6h.336c.792,0,1.08.192,1.08,1.3v7.776c0,.84-.624,1.056-1.368,1.08v.7C112.608.1,113.4.1,114.144.1c.672,0,1.464,0,2.28.024v-.7c-.768-.024-1.488-.432-1.488-1.248V-8.4c.648-1.032,1.824-2.448,3.192-2.424,1.656.024,2.136,1.152,2.136,2.928v6.24c0,.84-.6,1.056-1.368,1.08v.7C119.64.1,120.408.1,121.1.1c.72,0,1.512,0,2.3.024v-.7C122.664-.6,121.944-1.008,121.944-1.824ZM143.88.144V-.528c-1.7-.12-1.9-.264-1.9-2.28v-10.92c0-1.992.192-2.136,1.824-2.28v-.648h-5.376v.648c1.56.144,1.824.288,1.824,2.28v10.92c0,1.992-.192,2.16-1.9,2.28V.144Zm12.6-8.952a3.183,3.183,0,0,0-3.24-3.36,5.845,5.845,0,0,0-4.3,2.256h-.192V-11.88c0-.216-.168-.264-.408-.216l-2.664.768v.6h.336c.792,0,1.08.192,1.08,1.3v7.776c0,.84-.6,1.056-1.368,1.08v.7C146.472.1,147.192.1,147.936.1c.7,0,1.464,0,2.28.024v-.7c-.768-.024-1.464-.432-1.464-1.248V-8.4c.624-1.032,2.184-2.448,3.552-2.424,1.656.024,2.52,1.248,2.52,3.024v6.144c0,.84-.6,1.056-1.368,1.08v.7C154.2.1,154.9.1,155.616.1s1.488,0,2.3.024v-.7c-.768-.024-1.44-.432-1.44-1.248Zm4.152-1.392v7.44c0,2.5.936,3.072,2.016,3.072A7.281,7.281,0,0,0,165.72-.6l-.1-.624a10.819,10.819,0,0,1-2.184.168c-.816-.1-1.128-.888-1.128-2.352v-7.2h3.312v-1.1h-3.312V-14.88c0-.12-.072-.168-.168-.144l-1.416.624v2.5l-2.208.6v.672h1.632C160.44-10.632,160.632-10.56,160.632-10.2Zm6.288,4.368c0,3.528,2.112,6.144,5.448,6.144a6.618,6.618,0,0,0,4.656-1.9l-.384-.6a5.885,5.885,0,0,1-3.408,1.1c-2.784,0-4.584-1.824-4.584-5.5l8.424-.048a7.8,7.8,0,0,0,.048-.792,4.52,4.52,0,0,0-4.488-4.824C169.464-12.24,166.92-9.5,166.92-5.832Zm5.352-5.3a3.119,3.119,0,0,1,2.976,3.408l-6.528.144C168.96-9.672,170.16-11.136,172.272-11.136Zm9.5-.768c0-.24-.168-.288-.408-.24l-2.688.792v.6h.288c.792.048,1.128.192,1.128,1.3v7.848c0,.768-.624,1.056-1.368,1.08V.12c.72-.048,1.488-.048,2.28-.048.768,0,1.56,0,2.376.048V-.528c-.768-.072-1.608-.312-1.608-1.272V-8.736a4.123,4.123,0,0,1,2.544-1.632,2.1,2.1,0,0,1,1.464.384,1.227,1.227,0,0,0,.816-1.128c0-.624-.552-1.08-1.536-1.08-1.392,0-2.712,1.656-3.1,2.5h-.192Zm16.464,3.1a3.183,3.183,0,0,0-3.24-3.36,5.845,5.845,0,0,0-4.3,2.256h-.192V-11.88c0-.216-.168-.264-.408-.216l-2.664.768v.6h.336c.792,0,1.08.192,1.08,1.3v7.776c0,.84-.6,1.056-1.368,1.08v.7C188.232.1,188.952.1,189.7.1c.7,0,1.464,0,2.28.024v-.7c-.768-.024-1.464-.432-1.464-1.248V-8.4c.624-1.032,2.184-2.448,3.552-2.424,1.656.024,2.52,1.248,2.52,3.024v6.144c0,.84-.6,1.056-1.368,1.08v.7C195.96.1,196.656.1,197.376.1s1.488,0,2.3.024v-.7c-.768-.024-1.44-.432-1.44-1.248Zm10.008,7.032c0,1.008.312,2.088,1.128,2.088a4.45,4.45,0,0,0,2.064-.648V-.912c-.36.024-.432.048-.84.048s-.7-.144-.7-1.008v-6.96c0-2.208-1.128-3.408-3.624-3.408-1.728,0-4.728,1.008-4.56,3.1.072.936,1.272,1.008,1.848.408A2.772,2.772,0,0,1,204-10.728a2.293,2.293,0,0,1,1.68-.648,2.42,2.42,0,0,1,2.544,2.616v1.224c-2.568,0-7.224,1.464-7.224,4.68A3.018,3.018,0,0,0,204.264.312,5.528,5.528,0,0,0,208.248-1.776Zm-3.048.768c-1.3.048-2.328-.336-2.328-2.112,0-2.376,3.624-3.5,5.352-3.5v4.056A4.715,4.715,0,0,1,205.2-1.008Zm9.072-9.192v7.44c0,2.5.936,3.072,2.016,3.072A7.281,7.281,0,0,0,219.36-.6l-.1-.624a10.819,10.819,0,0,1-2.184.168c-.816-.1-1.128-.888-1.128-2.352v-7.2h3.312v-1.1h-3.312V-14.88c0-.12-.072-.168-.168-.144l-1.416.624v2.5l-2.208.6v.672h1.632C214.08-10.632,214.272-10.56,214.272-10.2Zm8.568-4.992a1.229,1.229,0,0,0,1.3-1.272,1.262,1.262,0,0,0-1.272-1.368,1.313,1.313,0,0,0-1.32,1.368A1.27,1.27,0,0,0,222.84-15.192ZM223.9-11.9c0-.216-.144-.264-.384-.216l-2.712.768v.624h.384c.792,0,1.032.168,1.032,1.272v7.9c0,.768-.672,1.056-1.392,1.08V.192c.7-.024,1.584-.048,2.376-.048.744,0,1.584.024,2.4.048V-.48c-.768-.072-1.7-.24-1.7-1.2Zm8.808-.336c-3.216,0-5.832,2.616-5.88,6.384-.024,3.84,2.424,6.168,5.544,6.168,3.36,0,5.784-2.664,5.832-6.408C238.2-9.864,235.752-12.24,232.7-12.24Zm3.7,6.6c0,2.232-.744,4.848-3.576,4.848-2.784,0-4.2-2.784-4.248-5.424-.048-3.216,1.488-4.944,3.6-4.944C235.224-11.16,236.352-8.136,236.4-5.64Zm14.16-3.168a3.183,3.183,0,0,0-3.24-3.36,5.845,5.845,0,0,0-4.3,2.256h-.192V-11.88c0-.216-.168-.264-.408-.216l-2.664.768v.6h.336c.792,0,1.08.192,1.08,1.3v7.776c0,.84-.6,1.056-1.368,1.08v.7C240.552.1,241.272.1,242.016.1c.7,0,1.464,0,2.28.024v-.7c-.768-.024-1.464-.432-1.464-1.248V-8.4c.624-1.032,2.184-2.448,3.552-2.424,1.656.024,2.52,1.248,2.52,3.024v6.144c0,.84-.6,1.056-1.368,1.08v.7C248.28.1,248.976.1,249.7.1s1.488,0,2.3.024v-.7c-.768-.024-1.44-.432-1.44-1.248Zm10.008,7.032c0,1.008.312,2.088,1.128,2.088a4.45,4.45,0,0,0,2.064-.648V-.912c-.36.024-.432.048-.84.048s-.7-.144-.7-1.008v-6.96c0-2.208-1.128-3.408-3.624-3.408-1.728,0-4.728,1.008-4.56,3.1.072.936,1.272,1.008,1.848.408a2.772,2.772,0,0,1,.432-1.992,2.293,2.293,0,0,1,1.68-.648,2.42,2.42,0,0,1,2.544,2.616v1.224c-2.568,0-7.224,1.464-7.224,4.68A3.018,3.018,0,0,0,256.584.312,5.528,5.528,0,0,0,260.568-1.776Zm-3.048.768c-1.3.048-2.328-.336-2.328-2.112,0-2.376,3.624-3.5,5.352-3.5v4.056A4.715,4.715,0,0,1,257.52-1.008Zm10.8-17.112c0-.216-.168-.264-.384-.216l-2.736.816v.6h.336c.792,0,1.056.192,1.056,1.248V-1.608c0,.84-.6,1.1-1.344,1.1v.7c.72-.024,1.464-.048,2.208-.048.672,0,1.488.024,2.3.048V-.5a1.351,1.351,0,0,1-1.488-1.272ZM17.4,24.1c-1.416.048-2.208.024-3.624,0v.648c1.1,0,1.152.336.96,1.176-.528,2.208-1.152,4.368-1.728,6.528H12.7c-.936-2.64-2.016-5.76-2.88-8.328H9.168L6.24,32.544H5.9l-1.9-6.768c-.264-.912.168-.96.864-1.032V24.1c-1.56.048-2.688.024-4.272,0v.648c1.056.12,1.464.408,1.848,1.776C3.408,29.688,4.44,32.856,5.3,36.1H5.88c1.008-2.76,2.208-6.072,3.1-8.88h.216c1.08,2.76,2.232,6.12,3.12,8.88h.456c1.176-3.264,1.944-6.336,2.9-9.6.384-1.3.888-1.632,1.728-1.752Zm3.24-3.288a1.229,1.229,0,0,0,1.3-1.272,1.262,1.262,0,0,0-1.272-1.368,1.313,1.313,0,0,0-1.32,1.368A1.27,1.27,0,0,0,20.64,20.808ZM21.7,24.1c0-.216-.144-.264-.384-.216l-2.712.768v.624h.384c.792,0,1.032.168,1.032,1.272v7.9c0,.768-.672,1.056-1.392,1.08v.672c.7-.024,1.584-.048,2.376-.048.744,0,1.584.024,2.4.048V35.52c-.768-.072-1.7-.24-1.7-1.2ZM27.84,17.88c0-.216-.168-.264-.384-.216l-2.736.816v.6h.336c.792,0,1.056.192,1.056,1.248V34.392c0,.84-.6,1.1-1.344,1.1v.7c.72-.024,1.464-.048,2.208-.048.672,0,1.488.024,2.3.048v-.7a1.351,1.351,0,0,1-1.488-1.272Zm6.24,0c0-.216-.168-.264-.384-.216l-2.736.816v.6H31.3c.792,0,1.056.192,1.056,1.248V34.392c0,.84-.6,1.1-1.344,1.1v.7c.72-.024,1.464-.048,2.208-.048.672,0,1.488.024,2.3.048v-.7a1.351,1.351,0,0,1-1.488-1.272ZM45.408,35.544a4.644,4.644,0,0,0,2.448.672,6.413,6.413,0,0,0,6.264-6.624c0-4.1-2.136-5.664-4.44-5.664a5.952,5.952,0,0,0-3.432,1.68H46.08V17.88c0-.216-.168-.264-.408-.216l-2.712.816v.6h.312c.816,0,1.1.192,1.1,1.248v11.4A26.676,26.676,0,0,1,44.064,36l.6.216Zm.648-8.808a4.681,4.681,0,0,1,2.928-1.416c2.376,0,3.5,1.992,3.456,4.944-.048,3.36-2.136,4.872-3.984,4.872a2.238,2.238,0,0,1-2.4-1.488Zm9.384,3.432c0,3.528,2.112,6.144,5.448,6.144a6.618,6.618,0,0,0,4.656-1.9l-.384-.6a5.885,5.885,0,0,1-3.408,1.1c-2.784,0-4.584-1.824-4.584-5.5l8.424-.048a7.8,7.8,0,0,0,.048-.792,4.52,4.52,0,0,0-4.488-4.824C57.984,23.76,55.44,26.5,55.44,30.168Zm5.352-5.3a3.119,3.119,0,0,1,2.976,3.408l-6.528.144C57.48,26.328,58.68,24.864,60.792,24.864ZM89.4,24.1c-1.416.048-2.208.024-3.624,0v.648c1.1,0,1.152.336.96,1.176-.528,2.208-1.152,4.368-1.728,6.528H84.7c-.936-2.64-2.016-5.76-2.88-8.328h-.648L78.24,32.544H77.9l-1.9-6.768c-.264-.912.168-.96.864-1.032V24.1c-1.56.048-2.688.024-4.272,0v.648c1.056.12,1.464.408,1.848,1.776.96,3.168,1.992,6.336,2.856,9.576h.576c1.008-2.76,2.208-6.072,3.1-8.88h.216c1.08,2.76,2.232,6.12,3.12,8.88h.456c1.176-3.264,1.944-6.336,2.9-9.6.384-1.3.888-1.632,1.728-1.752Zm3.24-3.288a1.229,1.229,0,0,0,1.3-1.272,1.262,1.262,0,0,0-1.272-1.368,1.313,1.313,0,0,0-1.32,1.368A1.27,1.27,0,0,0,92.64,20.808ZM93.7,24.1c0-.216-.144-.264-.384-.216l-2.712.768v.624h.384c.792,0,1.032.168,1.032,1.272v7.9c0,.768-.672,1.056-1.392,1.08v.672c.7-.024,1.584-.048,2.376-.048.744,0,1.584.024,2.4.048V35.52c-.768-.072-1.7-.24-1.7-1.2Zm4.416,1.7v7.44c0,2.5.936,3.072,2.016,3.072A7.281,7.281,0,0,0,103.2,35.4l-.1-.624a10.819,10.819,0,0,1-2.184.168c-.816-.1-1.128-.888-1.128-2.352v-7.2H103.1v-1.1H99.792V21.12c0-.12-.072-.168-.168-.144l-1.416.624v2.5L96,24.7v.672h1.632C97.92,25.368,98.112,25.44,98.112,25.8Zm17.208,1.416a3.256,3.256,0,0,0-3.36-3.336,5.377,5.377,0,0,0-4.1,2.3h-.192v-8.3c0-.216-.168-.264-.408-.216l-2.736.816v.6h.336c.792,0,1.08.192,1.08,1.248V34.392c0,.84-.6,1.1-1.368,1.1v.7c.744-.024,1.488-.048,2.232-.048.7,0,1.464.024,2.28.048v-.7c-.768,0-1.464-.36-1.464-1.176V27.648c.624-1.032,2.04-2.448,3.408-2.424,1.584.024,2.616,1.152,2.616,3.048v6.12c0,.84-.6,1.1-1.368,1.1v.7c.744-.024,1.44-.048,2.16-.048s1.512.024,2.328.048v-.7c-.768,0-1.44-.36-1.44-1.176Zm10.008,13.3c0,.744.36,1.3,1.056,1.3.552,0,1.032-.432,1.56-1.368a51.609,51.609,0,0,0,2.5-5.52c1.152-2.832,2.3-5.736,3.36-8.52.48-1.224.864-1.536,1.68-1.632v-.7c-.984.024-1.752.048-2.544.048-.384,0-.792,0-1.224-.024v.7c.816.048,1.1.288,1.1.7a2.344,2.344,0,0,1-.12.624c-.792,2.52-1.68,4.824-2.688,7.3h-.24l-2.928-7.32a1.55,1.55,0,0,1-.144-.6c0-.384.264-.648.912-.72v-.7c-.864.024-1.512.048-2.3.048-.6,0-1.2-.024-1.944-.048v.7c1.056.12,1.224.408,1.824,1.7l3.888,8.976A8.743,8.743,0,0,1,125.328,40.512ZM142.1,23.76c-3.216,0-5.832,2.616-5.88,6.384-.024,3.84,2.424,6.168,5.544,6.168,3.36,0,5.784-2.664,5.832-6.408C147.6,26.136,145.152,23.76,142.1,23.76Zm3.7,6.6c0,2.232-.744,4.848-3.576,4.848-2.784,0-4.2-2.784-4.248-5.424-.048-3.216,1.488-4.944,3.6-4.944C144.624,24.84,145.752,27.864,145.8,30.36Zm4.656-3.984v6.48a3.483,3.483,0,0,0,3.336,3.456,5.526,5.526,0,0,0,4.128-2.232h.1l.048,1.9c0,.24.168.312.408.24l2.568-.792v-.6h-.312c-.792,0-1.032-.192-1.032-1.3v-9.48c0-.264-.1-.312-.336-.264l-3,.7V25.1h.48c.888.024,1.176.216,1.176,1.272V32.76c-.672,1.032-1.992,2.184-3.24,2.16-1.584-.024-2.664-.816-2.664-2.928V24.048c0-.264-.072-.312-.312-.264l-2.76.7V25.1h.336C150.24,25.128,150.456,25.32,150.456,26.376Zm23.928-2.616c-3.216,0-5.832,2.616-5.88,6.384-.024,3.84,2.424,6.168,5.544,6.168,3.36,0,5.784-2.664,5.832-6.408C179.88,26.136,177.432,23.76,174.384,23.76Zm3.7,6.6c0,2.232-.744,4.848-3.576,4.848-2.784,0-4.2-2.784-4.248-5.424-.048-3.216,1.488-4.944,3.6-4.944C176.9,24.84,178.032,27.864,178.08,30.36Zm14.16-3.168a3.183,3.183,0,0,0-3.24-3.36,5.845,5.845,0,0,0-4.3,2.256h-.192V24.12c0-.216-.168-.264-.408-.216l-2.664.768v.6h.336c.792,0,1.08.192,1.08,1.3v7.776c0,.84-.6,1.056-1.368,1.08v.7c.744-.024,1.464-.024,2.208-.024.7,0,1.464,0,2.28.024v-.7c-.768-.024-1.464-.432-1.464-1.248V27.6c.624-1.032,2.184-2.448,3.552-2.424,1.656.024,2.52,1.248,2.52,3.024v6.144c0,.84-.6,1.056-1.368,1.08v.7c.744-.024,1.44-.024,2.16-.024s1.488,0,2.3.024v-.7c-.768-.024-1.44-.432-1.44-1.248ZM202.392,25.8v7.44c0,2.5.936,3.072,2.016,3.072a7.281,7.281,0,0,0,3.072-.912l-.1-.624a10.819,10.819,0,0,1-2.184.168c-.816-.1-1.128-.888-1.128-2.352v-7.2h3.312v-1.1h-3.312V21.12c0-.12-.072-.168-.168-.144l-1.416.624v2.5l-2.208.6v.672h1.632C202.2,25.368,202.392,25.44,202.392,25.8ZM219.6,27.216a3.256,3.256,0,0,0-3.36-3.336,5.378,5.378,0,0,0-4.1,2.3h-.192v-8.3c0-.216-.168-.264-.408-.216l-2.736.816v.6h.336c.792,0,1.08.192,1.08,1.248V34.392c0,.84-.6,1.1-1.368,1.1v.7c.744-.024,1.488-.048,2.232-.048.7,0,1.464.024,2.28.048v-.7c-.768,0-1.464-.36-1.464-1.176V27.648c.624-1.032,2.04-2.448,3.408-2.424,1.584.024,2.616,1.152,2.616,3.048v6.12c0,.84-.6,1.1-1.368,1.1v.7c.744-.024,1.44-.048,2.16-.048s1.512.024,2.328.048v-.7c-.768,0-1.44-.36-1.44-1.176Zm2.76,2.952c0,3.528,2.112,6.144,5.448,6.144a6.618,6.618,0,0,0,4.656-1.9l-.384-.6a5.885,5.885,0,0,1-3.408,1.1c-2.784,0-4.584-1.824-4.584-5.5l8.424-.048a7.8,7.8,0,0,0,.048-.792,4.52,4.52,0,0,0-4.488-4.824C224.9,23.76,222.36,26.5,222.36,30.168Zm5.352-5.3a3.119,3.119,0,0,1,2.976,3.408l-6.528.144C224.4,26.328,225.6,24.864,227.712,24.864ZM245.28,36.072a6.382,6.382,0,0,0,6.24-6.576c0-4.1-2.136-5.712-4.44-5.712a5.96,5.96,0,0,0-3.432,1.728h-.192l.024-1.536c0-.24-.168-.288-.408-.24l-2.712.816v.6h.312c.816,0,1.08.192,1.08,1.272v5.208l.024,7.968c0,.96-.768,1.176-1.536,1.248v.672c.816-.024,1.584-.048,2.352-.048.792,0,1.68.024,2.4.048v-.672c-.744-.024-1.512-.432-1.512-1.2v-3.96A4.184,4.184,0,0,0,245.28,36.072Zm-1.848-9.432a4.237,4.237,0,0,1,2.832-1.416c2.52,0,3.648,1.992,3.6,4.944-.048,3.312-2.184,4.872-4.008,4.872-.912,0-2.112-.168-2.424-1.416Zm16.9,7.584c0,1.008.312,2.088,1.128,2.088a4.45,4.45,0,0,0,2.064-.648v-.576c-.36.024-.432.048-.84.048s-.7-.144-.7-1.008v-6.96c0-2.208-1.128-3.408-3.624-3.408-1.728,0-4.728,1.008-4.56,3.1.072.936,1.272,1.008,1.848.408a2.772,2.772,0,0,1,.432-1.992,2.293,2.293,0,0,1,1.68-.648A2.42,2.42,0,0,1,260.3,27.24v1.224c-2.568,0-7.224,1.464-7.224,4.68a3.018,3.018,0,0,0,3.264,3.168A5.528,5.528,0,0,0,260.328,34.224Zm-3.048.768c-1.3.048-2.328-.336-2.328-2.112,0-2.376,3.624-3.5,5.352-3.5v4.056A4.715,4.715,0,0,1,257.28,34.992Zm9.072-9.192v7.44c0,2.5.936,3.072,2.016,3.072a7.281,7.281,0,0,0,3.072-.912l-.1-.624a10.819,10.819,0,0,1-2.184.168c-.816-.1-1.128-.888-1.128-2.352v-7.2h3.312v-1.1h-3.312V21.12c0-.12-.072-.168-.168-.144l-1.416.624v2.5l-2.208.6v.672h1.632C266.16,25.368,266.352,25.44,266.352,25.8Zm17.208,1.416a3.256,3.256,0,0,0-3.36-3.336,5.377,5.377,0,0,0-4.1,2.3H275.9v-8.3c0-.216-.168-.264-.408-.216l-2.736.816v.6h.336c.792,0,1.08.192,1.08,1.248V34.392c0,.84-.6,1.1-1.368,1.1v.7c.744-.024,1.488-.048,2.232-.048.7,0,1.464.024,2.28.048v-.7c-.768,0-1.464-.36-1.464-1.176V27.648c.624-1.032,2.04-2.448,3.408-2.424,1.584.024,2.616,1.152,2.616,3.048v6.12c0,.84-.6,1.1-1.368,1.1v.7c.744-.024,1.44-.048,2.16-.048s1.512.024,2.328.048v-.7c-.768,0-1.44-.36-1.44-1.176ZM2.712,61.8v7.44c0,2.5.936,3.072,2.016,3.072A7.281,7.281,0,0,0,7.8,71.4l-.1-.624a10.819,10.819,0,0,1-2.184.168c-.816-.1-1.128-.888-1.128-2.352v-7.2H7.7v-1.1H4.392V57.12c0-.12-.072-.168-.168-.144L2.808,57.6v2.5L.6,60.7v.672H2.232C2.52,61.368,2.712,61.44,2.712,61.8Zm12.312-2.04c-3.216,0-5.832,2.616-5.88,6.384-.024,3.84,2.424,6.168,5.544,6.168,3.36,0,5.784-2.664,5.832-6.408C20.52,62.136,18.072,59.76,15.024,59.76Zm3.7,6.6c0,2.232-.744,4.848-3.576,4.848-2.784,0-4.2-2.784-4.248-5.424-.048-3.216,1.488-4.944,3.6-4.944C17.544,60.84,18.672,63.864,18.72,66.36Zm9.12.048c0,3.528,2.352,5.9,5.472,5.9A5.749,5.749,0,0,0,37.68,70.56l-.36-.552a5.7,5.7,0,0,1-3.072.888c-3.072.024-4.728-2.016-4.728-5.208,0-2.688,1.848-4.776,3.984-4.776a2.518,2.518,0,0,1,2.424,1.68A1.155,1.155,0,0,0,37.3,61.416c0-1.08-1.2-1.656-2.832-1.656A6.637,6.637,0,0,0,27.84,66.408Zm12.336-4.032v6.48a3.483,3.483,0,0,0,3.336,3.456A5.526,5.526,0,0,0,47.64,70.08h.1l.048,1.9c0,.24.168.312.408.24l2.568-.792v-.6h-.312c-.792,0-1.032-.192-1.032-1.3v-9.48c0-.264-.1-.312-.336-.264l-3,.7V61.1h.48c.888.024,1.176.216,1.176,1.272V68.76c-.672,1.032-1.992,2.184-3.24,2.16-1.584-.024-2.664-.816-2.664-2.928V60.048c0-.264-.072-.312-.312-.264l-2.76.7V61.1H39.1C39.96,61.128,40.176,61.32,40.176,62.376ZM52.32,68.448c0,.576.048,2.256.144,2.928a6.232,6.232,0,0,0,3.336.912c3.048,0,4.56-1.848,4.56-3.576,0-3.888-6.12-2.928-6.144-6a2.082,2.082,0,0,1,2.16-2.064,2.515,2.515,0,0,1,2.664,2.208l.552-.072.144-2.088a6,6,0,0,0-3.1-.936c-2.832,0-3.96,1.824-3.96,3.336,0,3.792,5.9,2.784,5.9,6.1A2.451,2.451,0,0,1,55.9,71.424c-1.8-.072-2.712-1.392-2.976-3.024ZM63.312,61.8v7.44c0,2.5.936,3.072,2.016,3.072A7.281,7.281,0,0,0,68.4,71.4l-.1-.624a10.819,10.819,0,0,1-2.184.168c-.816-.1-1.128-.888-1.128-2.352v-7.2H68.3v-1.1H64.992V57.12c0-.12-.072-.168-.168-.144l-1.416.624v2.5l-2.208.6v.672h1.632C63.12,61.368,63.312,61.44,63.312,61.8Zm12.312-2.04c-3.216,0-5.832,2.616-5.88,6.384-.024,3.84,2.424,6.168,5.544,6.168,3.36,0,5.784-2.664,5.832-6.408C81.12,62.136,78.672,59.76,75.624,59.76Zm3.7,6.6c0,2.232-.744,4.848-3.576,4.848-2.784,0-4.2-2.784-4.248-5.424-.048-3.216,1.488-4.944,3.6-4.944C78.144,60.84,79.272,63.864,79.32,66.36ZM92.9,70.176v-7.1a4.73,4.73,0,0,1,3.288-1.9c1.68.024,2.424,1.152,2.424,2.928v6.24c0,.84-.624,1.056-1.392,1.08v.7c.744-.024,1.464-.024,2.16-.024.72,0,1.584,0,2.376.024v-.7c-.744-.024-1.464-.432-1.464-1.248V63.1a3.059,3.059,0,0,0-3.024-3.264,5.675,5.675,0,0,0-4.248,2.136h-.288a2.7,2.7,0,0,0-2.664-2.136c-2.064-.048-3.312,1.536-4.032,2.4h-.216V60.12c0-.216-.168-.264-.384-.216l-2.64.768v.6h.336c.792,0,1.08.192,1.08,1.3v7.776c0,.84-.624,1.056-1.368,1.08v.7c.72-.024,1.512-.024,2.256-.024.672,0,1.464,0,2.28.024v-.7c-.768-.024-1.488-.432-1.488-1.248V63.6c.648-1.032,1.824-2.448,3.192-2.424,1.656.024,2.136,1.152,2.136,2.928v6.24c0,.84-.6,1.056-1.368,1.08v.7c.744-.024,1.512-.024,2.208-.024.72,0,1.512,0,2.3.024v-.7C93.624,71.4,92.9,70.992,92.9,70.176Zm10.176-4.008c0,3.528,2.112,6.144,5.448,6.144a6.618,6.618,0,0,0,4.656-1.9l-.384-.6a5.885,5.885,0,0,1-3.408,1.1c-2.784,0-4.584-1.824-4.584-5.5l8.424-.048a7.8,7.8,0,0,0,.048-.792,4.52,4.52,0,0,0-4.488-4.824C105.624,59.76,103.08,62.5,103.08,66.168Zm5.352-5.3a3.119,3.119,0,0,1,2.976,3.408l-6.528.144C105.12,62.328,106.32,60.864,108.432,60.864Zm9.5-.768c0-.24-.168-.288-.408-.24l-2.688.792v.6h.288c.792.048,1.128.192,1.128,1.3v7.848c0,.768-.624,1.056-1.368,1.08v.648c.72-.048,1.488-.048,2.28-.048.768,0,1.56,0,2.376.048v-.648c-.768-.072-1.608-.312-1.608-1.272V63.264a4.123,4.123,0,0,1,2.544-1.632,2.1,2.1,0,0,1,1.464.384,1.227,1.227,0,0,0,.816-1.128c0-.624-.552-1.08-1.536-1.08-1.392,0-2.712,1.656-3.1,2.5h-.192Zm11.784,8.352c0,.576.048,2.256.144,2.928a6.232,6.232,0,0,0,3.336.912c3.048,0,4.56-1.848,4.56-3.576,0-3.888-6.12-2.928-6.144-6a2.082,2.082,0,0,1,2.16-2.064,2.515,2.515,0,0,1,2.664,2.208l.552-.072.144-2.088a6,6,0,0,0-3.1-.936c-2.832,0-3.96,1.824-3.96,3.336,0,3.792,5.9,2.784,5.9,6.1a2.451,2.451,0,0,1-2.688,2.232c-1.8-.072-2.712-1.392-2.976-3.024ZM140.5,62.376v6.48a3.483,3.483,0,0,0,3.336,3.456,5.526,5.526,0,0,0,4.128-2.232h.1l.048,1.9c0,.24.168.312.408.24l2.568-.792v-.6h-.312c-.792,0-1.032-.192-1.032-1.3v-9.48c0-.264-.1-.312-.336-.264l-3,.7V61.1h.48c.888.024,1.176.216,1.176,1.272V68.76c-.672,1.032-1.992,2.184-3.24,2.16-1.584-.024-2.664-.816-2.664-2.928V60.048c0-.264-.072-.312-.312-.264l-2.76.7V61.1h.336C140.28,61.128,140.5,61.32,140.5,62.376Zm11.784,4.032c0,3.528,2.352,5.9,5.472,5.9a5.749,5.749,0,0,0,4.368-1.752l-.36-.552a5.7,5.7,0,0,1-3.072.888c-3.072.024-4.728-2.016-4.728-5.208,0-2.688,1.848-4.776,3.984-4.776a2.518,2.518,0,0,1,2.424,1.68,1.155,1.155,0,0,0,1.368-1.176c0-1.08-1.2-1.656-2.832-1.656A6.637,6.637,0,0,0,152.28,66.408Zm10.8,0c0,3.528,2.352,5.9,5.472,5.9a5.749,5.749,0,0,0,4.368-1.752l-.36-.552a5.7,5.7,0,0,1-3.072.888c-3.072.024-4.728-2.016-4.728-5.208,0-2.688,1.848-4.776,3.984-4.776a2.518,2.518,0,0,1,2.424,1.68,1.155,1.155,0,0,0,1.368-1.176c0-1.08-1.2-1.656-2.832-1.656A6.637,6.637,0,0,0,163.08,66.408Zm10.92-.24c0,3.528,2.112,6.144,5.448,6.144a6.618,6.618,0,0,0,4.656-1.9l-.384-.6a5.885,5.885,0,0,1-3.408,1.1c-2.784,0-4.584-1.824-4.584-5.5l8.424-.048a7.8,7.8,0,0,0,.048-.792,4.52,4.52,0,0,0-4.488-4.824C176.544,59.76,174,62.5,174,66.168Zm5.352-5.3a3.119,3.119,0,0,1,2.976,3.408l-6.528.144C176.04,62.328,177.24,60.864,179.352,60.864Zm6.528,7.584c0,.576.048,2.256.144,2.928a6.232,6.232,0,0,0,3.336.912c3.048,0,4.56-1.848,4.56-3.576,0-3.888-6.12-2.928-6.144-6a2.082,2.082,0,0,1,2.16-2.064,2.515,2.515,0,0,1,2.664,2.208l.552-.072L193.3,60.7a6,6,0,0,0-3.1-.936c-2.832,0-3.96,1.824-3.96,3.336,0,3.792,5.9,2.784,5.9,6.1a2.451,2.451,0,0,1-2.688,2.232c-1.8-.072-2.712-1.392-2.976-3.024Zm9.6,0c0,.576.048,2.256.144,2.928a6.232,6.232,0,0,0,3.336.912c3.048,0,4.56-1.848,4.56-3.576,0-3.888-6.12-2.928-6.144-6a2.082,2.082,0,0,1,2.16-2.064,2.515,2.515,0,0,1,2.664,2.208l.552-.072L202.9,60.7a6,6,0,0,0-3.1-.936c-2.832,0-3.96,1.824-3.96,3.336,0,3.792,5.9,2.784,5.9,6.1a2.451,2.451,0,0,1-2.688,2.232c-1.8-.072-2.712-1.392-2.976-3.024Zm11.3,2.04A1.461,1.461,0,0,0,205.32,71.9a1.481,1.481,0,0,0,1.464,1.44A1.455,1.455,0,0,0,208.2,71.9,1.434,1.434,0,0,0,206.784,70.488Z" transform="translate(14.4 33.35)"/>
    </g>
  </g>
</svg>
