<svg xmlns="http://www.w3.org/2000/svg" width="787.44" height="147.475" viewBox="0 0 787.44 147.475">
    <defs>
        <filter id="a" x="0" y="0" width="787.44" height="147.475" filterUnits="userSpaceOnUse">
            <feOffset/>
            <feGaussianBlur stdDeviation="5" result="blur"/>
            <feFlood flood-opacity=".161"/>
            <feComposite operator="in" in2="blur"/>
            <feComposite in="SourceGraphic"/>
        </filter>
    </defs>
    <g style="filter:url(#a)">
        <path data-name="footer_text" d="M34.992-1.728c2.64 0 5.9.048 8.256.144a.328.328 0 0 0 .336-.336l.1-2.4a.339.339 0 0 0-.432-.336 68.893 68.893 0 0 1-8.256.912c-4.656.288-9.552.432-14.112.48a16.027 16.027 0 0 0 .616-3.408c.144-2.784.192-4.752.192-7.3 0-1.1.144-3.264.288-4.368a.417.417 0 0 0-.24-.48 16.173 16.173 0 0 0-6.528-1.728l-.384 1.008c2.976 1.1 3.36 2.112 3.408 4.608l.288 11.712c-3.168 0-6.1 0-8.5-.048a34.291 34.291 0 0 1-7.768-.812l-.576.72A7.747 7.747 0 0 0 5.808-.528a22.051 22.051 0 0 1 5.616-.772c8.064-.236 15.408-.38 23.568-.428zm-17.712-28.8c5.232-.144 9.36-.336 14.928-.432.288 0 .48.048.48.48a64.857 64.857 0 0 1-2.5 19.872l1.392.432c2.976-3.456 4.752-11.952 5.376-18.288l.432-4.128a.36.36 0 0 0-.24-.432 15.007 15.007 0 0 0-4.416-.288 13.945 13.945 0 0 1-4.656.624c-4.608.192-8.016.336-13.2.336a29.284 29.284 0 0 1-6.144-.576l-.576.72A6.228 6.228 0 0 0 11.9-29.76a19.718 19.718 0 0 1 5.38-.768zm51.456 11.76a26.325 26.325 0 0 0 .624 6.624 2.273 2.273 0 0 0 1.1-.144c.96-1.488 1.248-3.6 1.344-6.624v-3.36c2.112-.1 3.744-.144 6.24-.144l.048 4.224a26.325 26.325 0 0 0 .624 6.624 2.273 2.273 0 0 0 1.1-.144c1.008-1.488 1.344-3.6 1.44-6.624v-13.728a26.766 26.766 0 0 1 .288-4.224.361.361 0 0 0-.192-.432 19.9 19.9 0 0 0-7.1-1.872l-.332 1.152c3.216 1.008 3.984 2.064 4.032 4.56l.1 8.592c-1.872.144-4.8.24-6.192.192l.04-6.144a26.261 26.261 0 0 1 .192-4.224.361.361 0 0 0-.192-.436 17.592 17.592 0 0 0-6.672-1.728l-.328 1.156c3.216 1.008 3.7 1.968 3.744 4.416zm8.112 11.28c.288 0 .48.1.48.432l.048 8.112A18.841 18.841 0 0 0 78 6.336a2.476 2.476 0 0 0 1.1-.144c.576-.432 1.536-2.4 1.632-5.424l.144-6.192c.048-1.344.24-3.456.288-3.84 0-.144.048-.24-.192-.336a14.214 14.214 0 0 0-4.08-.144 12.845 12.845 0 0 1-3.552.576c-3.648.24-8.4.384-12.144.336a30.221 30.221 0 0 1-6.768-.624l-.576.672a6.165 6.165 0 0 0 3.552 2.4 23.171 23.171 0 0 1 5.664-.672c3.412-.096 9.748-.336 13.78-.432zM58.128-32.64a6.951 6.951 0 0 1-1.968.48 38.474 38.474 0 0 1-5.04.288 18.217 18.217 0 0 1-4.992-.384l-.528.72a5.689 5.689 0 0 0 3.072 2.016 16.516 16.516 0 0 1 4.176-.72l5.088-.288c.288 0 .48 0 .48.432a35.237 35.237 0 0 1-3.36 17.376l1.248.576c2.928-3.024 5.184-9.216 5.76-15.5.144-1.584.24-3.168.384-4.512a.357.357 0 0 0-.288-.432 13.831 13.831 0 0 0-4.032-.052zm76.944 30.672c0-5.136-4.512-8.256-10.272-8.256-6.192 0-10.32 3.552-10.32 8.256 0 5.04 4.464 8.256 10.32 8.256 5.952 0 10.272-3.216 10.272-8.256zm-17.04-.048c0-3.744 2.64-6.528 6.768-6.528 3.936 0 6.72 2.448 6.72 6.528 0 4.128-2.88 6.528-6.72 6.528-3.888 0-6.768-2.4-6.768-6.528zm13.92-15.024a30.151 30.151 0 0 0 .672 7.056 1.871 1.871 0 0 0 1.1-.192c1.152-1.488 1.44-3.984 1.536-7.008v-14.832a26.766 26.766 0 0 1 .288-4.224.361.361 0 0 0-.192-.432c-1.44-.912-4.752-1.632-7.536-1.824l-.336 1.248c3.216 1.008 4.224 1.92 4.272 4.416l.048 5.76a71.424 71.424 0 0 1-4.464.24 29.978 29.978 0 0 1-6.144-.192l-.432.672a5.761 5.761 0 0 0 3.648 2.016 13.852 13.852 0 0 1 3.84-.816c1.2-.144 2.4-.192 3.6-.288zm-32.16 4.416a33.4 33.4 0 0 0 12.96-11.136 63.447 63.447 0 0 1 8.256 9.792 1.92 1.92 0 0 0 2.16-1.968c.1-3.216-6.768-7.2-10.08-8.3a26.661 26.661 0 0 0 4.032-8.592c.048-.384 0-.48-.288-.624a18.881 18.881 0 0 0-6.576-1.92l-.336.96c1.68.72 3.072 1.632 2.832 2.592-1.1 6.192-7.584 14.976-13.632 18.48zM173.04-2.16c0-5.136-4.56-8.16-10.416-8.16-6.192 0-10.368 3.456-10.368 8.16 0 4.992 4.512 8.16 10.368 8.16 6.048 0 10.416-3.168 10.416-8.16zm-17.232-.048c0-3.7 2.592-6.48 6.816-6.48 4.08 0 6.864 2.5 6.864 6.48s-2.88 6.48-6.864 6.48c-3.936 0-6.816-2.496-6.816-6.48zm19.1-12.96c2.64 0 5.664.048 8.016.192a.328.328 0 0 0 .336-.336l.1-2.352a.339.339 0 0 0-.432-.336 64.741 64.741 0 0 1-8.016.912c-4.272.192-9.024.384-13.44.48a14.142 14.142 0 0 0 .432-3.024l.144-2.736c.048-1.1.144-2.208.24-3.12a.4.4 0 0 0-.192-.48 15.774 15.774 0 0 0-6-1.392l-.336.96c2.928 1.1 3.072 1.776 3.168 4.272l.192 5.568c-3.5.048-6.816.048-9.408 0a34.763 34.763 0 0 1-7.776-.768l-.576.72a6.89 6.89 0 0 0 3.7 2.64 22.73 22.73 0 0 1 5.472-.672c8.06-.192 16.22-.48 24.38-.528zM158.4-33.216c4.416-.1 8.208-.288 12.912-.288.288 0 .432.048.432.384a54.022 54.022 0 0 1-1.632 12.576l1.392.432c3.264-4.272 4.224-11.136 4.7-15.024 0-.1.1-.288-.192-.384a16.089 16.089 0 0 0-4.464-.336 13.557 13.557 0 0 1-3.548.576c-4.224.24-7.488.288-11.76.336a35.346 35.346 0 0 1-7.3-.576l-.576.672a5.412 5.412 0 0 0 3.5 2.4 33.86 33.86 0 0 1 6.536-.768zm42.816-.768c-5.76 0-10.848 2.976-10.848 8.88 0 6 5.472 8.976 10.848 8.976 5.664 0 10.752-3.072 10.752-8.976 0-5.616-4.944-8.88-10.752-8.88zm17.472 32.112a30.283 30.283 0 0 0 .624 7.056 2.09 2.09 0 0 0 1.056-.144c1.056-1.344 1.584-4.176 1.68-7.056l.1-29.856a26.766 26.766 0 0 1 .288-4.224.361.361 0 0 0-.192-.432c-1.488-.912-4.944-1.728-7.728-1.968l-.384 1.2c3.216 1.008 4.464 2.112 4.512 4.608v20.976c-4.608 1.776-15.936 3.744-27.552 3.5a23.2 23.2 0 0 1-4.512-.48l-.576.72a7.282 7.282 0 0 0 3.648 2.784 33.386 33.386 0 0 1 5.232-.768c10.176-.768 19.392-2.4 23.76-4.416zM201.216-32.3c5.28 0 7.3 3.84 7.3 7.248 0 4.176-2.736 7.2-7.3 7.2a6.972 6.972 0 0 1-7.392-7.2 6.992 6.992 0 0 1 7.392-7.248zM266.5-11.616c-2.256.1-8.352.288-10.56.288a25.637 25.637 0 0 1-5.712-.528l-.576.72a5.406 5.406 0 0 0 3.12 1.968 17.537 17.537 0 0 1 4.08-.528l13.1-.336c.288 0 .384.048.384.384v5.184c-4.848.24-12.384.336-16.416.288a34.7 34.7 0 0 0-5.04-.288l-.192.912c2.688.624 2.832 1.2 2.832 2.832v2.256c0 1.536.624 3.552 2.928 3.6l13.2-.192c2.832-.048 5.808-.144 8.4-.1.24 0 .336-.1.336-.336l.1-2.016c-.048-.288-.24-.336-.48-.288a46.039 46.039 0 0 1-7.248.912c-4.224.192-8.448.24-12.624.192-1.008 0-1.152-.672-1.152-1.584v-4.32c5.9-.144 14.5-.288 18.816-.288.24 0 .336-.144.336-.288l.1-1.3c0-.24-.1-.336-.384-.288l-1.2.144a7.919 7.919 0 0 0 .768-2.112c.336-1.632.576-3.168.864-4.8.048-.24 0-.336-.192-.384a13.9 13.9 0 0 0-3.6-.192 17.1 17.1 0 0 1-3.988.488zM255.312-33.84a9.226 9.226 0 0 1-3.36.528c-2.064.1-3.648.24-5.856.24a19.536 19.536 0 0 1-4.996-.428l-.624.72a5.92 5.92 0 0 0 3.312 2.208 14.825 14.825 0 0 1 4.176-.672c2.352-.192 4.8-.336 7.152-.336.288 0 .48 0 .48.432a35.914 35.914 0 0 1-2.928 16.416l1.344.672c2.976-3.216 4.752-7.968 5.424-14.688.144-1.584.24-3.312.336-4.656a.357.357 0 0 0-.288-.432 20.117 20.117 0 0 0-4.172-.004zm15.5 13.248a27.869 27.869 0 0 0 .624 6.528 2.273 2.273 0 0 0 1.1-.144c1.008-.96 1.488-3.5 1.584-6.528l.1-11.28a26.768 26.768 0 0 1 .288-4.224.361.361 0 0 0-.192-.432c-1.488-.912-4.752-1.632-7.584-1.824l-.288 1.248c3.216 1.008 4.224 1.92 4.272 4.416zm13.584 18a2.411 2.411 0 0 0-2.688 2.256 2.993 2.993 0 0 0 .532 1.636c1.824.192 2.448 1.3 2.448 2.352a6.1 6.1 0 0 1-3.168 4.608l.672.816A8.879 8.879 0 0 0 287.52 1.3c0-2.068-1.248-3.844-3.12-3.892zM15.36 74.976a10.956 10.956 0 0 0 .672 3.84 1.78 1.78 0 0 0 1.1-.144 3.781 3.781 0 0 0 .96-1.728c3.36-.048 10.8-.048 18.192-.048.24 0 .336-.048.336-.336l.144-1.3c0-.24-.144-.384-.432-.336-.576.048-1.008.1-1.488.1a10.334 10.334 0 0 0 1.2-3.552c.336-1.872.768-6.96 1.008-8.736.048-.24 0-.432-.24-.48a12.336 12.336 0 0 0-3.936-.24 12.7 12.7 0 0 1-3.7.48c-4.128.144-8.352.288-11.424.24a33.246 33.246 0 0 0-6.048-.576l-.336 1.056c2.448.72 3.264 1.3 3.456 3.6zM10.992 44.5a36.854 36.854 0 0 1 .192-3.744.417.417 0 0 0-.24-.48c-1.3-.864-4.128-1.536-7.152-1.824L3.36 39.5c2.928 1.1 3.936 1.92 4.032 4.416v8.16c0 2.544 1.392 3.792 2.88 3.984 10.8-.144 19.872-3.84 23.088-5.9l.048 3.648a25.484 25.484 0 0 0 .624 6.528 2.09 2.09 0 0 0 1.056-.144c.96-.96 1.536-3.5 1.632-6.528v-3.6c2.592.048 5.136.1 7.728.24a.371.371 0 0 0 .336-.384l.1-2.5a.339.339 0 0 0-.432-.336 52.026 52.026 0 0 1-7.728 1.344l.048-8.448a26.767 26.767 0 0 1 .288-4.224.361.361 0 0 0-.192-.432c-1.488-.912-4.752-1.632-7.536-1.824l-.336 1.248c3.216 1.008 4.272 1.92 4.32 4.416l.048 9.792c-4.08 2.448-14.16 4.752-21.408 4.416-.624-.048-.96-.384-.96-1.584zm21.6 19.632c.288 0 .432.048.432.384l-.1 10.608c-2.448.1-10.7.144-14.592.192v-.676l-.1-10.176zM58.224 40.56c-5.328 0-9.744 3.408-9.744 8.736 0 5.28 4.416 8.688 9.744 8.688 5.232 0 9.7-3.264 9.7-8.688-.004-5.328-4.372-8.736-9.7-8.736zm13.392 19.968a26.107 26.107 0 0 0 .672 6.672 2.273 2.273 0 0 0 1.1-.144c.96-1.488 1.2-3.6 1.3-6.672l.048-8.16c1.824-.1 3.408-.1 5.664-.1l.048 9.5a25.949 25.949 0 0 0 .672 6.624 2.273 2.273 0 0 0 1.1-.144c1.056-1.488 1.344-3.6 1.44-6.624v-21.5a26.767 26.767 0 0 1 .288-4.224.361.361 0 0 0-.192-.432 19.989 19.989 0 0 0-7.1-1.824l-.336 1.152c3.216 1.008 3.984 2.016 4.032 4.512l.048 11.092c-1.728.144-4.176.192-5.664.192l.048-8.592a25.46 25.46 0 0 1 .192-4.176.361.361 0 0 0-.192-.432 16.676 16.676 0 0 0-6.672-1.776l-.336 1.152c3.216 1.056 3.7 1.968 3.744 4.416zM58.224 42.192c4.08 0 6.192 3.216 6.192 7.1 0 4.56-2.64 7.008-6.192 7.008-3.7 0-6.24-2.832-6.24-7.008 0-4.46 2.592-7.1 6.24-7.1zm20.352 32.592c-4.128.24-10.368.288-12.288.192-1.008-.1-1.776-.528-1.776-2.256v-4.128a35.112 35.112 0 0 1 .192-3.648.388.388 0 0 0-.24-.48 20.06 20.06 0 0 0-6.336-1.056l-.336 1.056c2.784.96 3.12 1.344 3.216 3.84v4.464c0 2.736 1.872 4.128 3.408 4.128l14.544-.144c2.784-.048 4.9 0 6.768 0 .24 0 .336-.1.336-.336l.1-2.208c0-.288-.192-.336-.432-.288a45.57 45.57 0 0 1-7.156.864zm37.68-35.616c-3.84.24-12.384.576-16.608.576a38.073 38.073 0 0 0-5.856-.624l-.292 1.056c2.976.912 3.744 1.872 3.792 4.32v8.112c0 2.688 1.44 3.792 2.976 3.792l14.592-.192c2.784-.048 6.528-.1 9.12-.1.24 0 .336-.1.336-.336l.1-2.064c0-.288-.192-.336-.432-.288a82.355 82.355 0 0 1-9.456.864c-4.128.144-8.064.288-12.192.24-1.152-.1-1.392-.816-1.392-1.92V41.52c4.656-.144 12.432-.384 15.216-.384 2.736 0 4.656-.1 7.2-.048.24 0 .336-.1.336-.336l.1-1.968c0-.288-.288-.384-.528-.336a83.785 83.785 0 0 1-7.012.72zm6.576 31.152c2.64 0 5.9.048 8.256.144a.328.328 0 0 0 .336-.336l.1-2.4a.339.339 0 0 0-.432-.336 68.893 68.893 0 0 1-8.256.912c-8.784.576-18.576.576-24.96.48a34.291 34.291 0 0 1-7.776-.816l-.576.72a7.747 7.747 0 0 0 4.128 2.832 22.051 22.051 0 0 1 5.616-.768c8.06-.24 15.404-.384 23.564-.432zm24.048 4.656a10.957 10.957 0 0 0 .672 3.84 1.78 1.78 0 0 0 1.1-.144 3.781 3.781 0 0 0 .96-1.728c3.36-.048 10.8-.048 18.192-.048.24 0 .336-.048.336-.336l.144-1.3c0-.24-.144-.384-.432-.336-.576.048-1.008.1-1.488.1a10.334 10.334 0 0 0 1.2-3.552c.336-1.872.768-6.96 1.008-8.736.048-.24 0-.432-.24-.48a12.336 12.336 0 0 0-3.936-.24 12.7 12.7 0 0 1-3.7.48c-4.128.144-8.352.288-11.424.24a33.246 33.246 0 0 0-6.048-.576l-.336 1.056c2.448.72 3.264 1.3 3.456 3.6zM142.512 44.5a36.85 36.85 0 0 1 .192-3.744.417.417 0 0 0-.24-.48c-1.3-.864-4.128-1.536-7.152-1.824l-.432 1.048c2.928 1.1 3.936 1.92 4.032 4.416v8.16c0 2.544 1.392 3.792 2.88 3.984 10.8-.144 19.872-3.84 23.088-5.9l.048 3.648a25.484 25.484 0 0 0 .624 6.528 2.09 2.09 0 0 0 1.056-.144c.96-.96 1.536-3.5 1.632-6.528v-3.6c2.592.048 5.136.1 7.728.24a.371.371 0 0 0 .336-.384l.1-2.5a.339.339 0 0 0-.432-.336 52.026 52.026 0 0 1-7.728 1.344l.048-8.448a26.766 26.766 0 0 1 .288-4.224.361.361 0 0 0-.192-.432c-1.488-.912-4.752-1.632-7.536-1.824l-.336 1.248c3.216 1.008 4.272 1.92 4.32 4.416l.048 9.792c-4.08 2.448-14.16 4.752-21.408 4.416-.624-.048-.96-.384-.96-1.584zm21.6 19.632c.288 0 .432.048.432.384l-.1 10.608c-2.448.1-10.7.144-14.592.192v-.676l-.1-10.176zm46.08-3.408a30.009 30.009 0 0 0 .624 7.056 2.09 2.09 0 0 0 1.056-.144c1.152-1.488 1.536-3.984 1.632-7.056V39.984a26.766 26.766 0 0 1 .288-4.224.361.361 0 0 0-.192-.432c-1.488-.912-4.752-1.632-7.536-1.824l-.336 1.248c3.216 1.008 4.224 1.92 4.272 4.416zm-18.864-21.7c-5.952 0-10.608 3.408-10.608 9.072 0 5.712 4.992 9.12 10.608 9.12 5.856 0 10.56-3.456 10.56-9.12 0-5.472-4.56-9.072-10.56-9.072zm0 1.68c4.848 0 6.96 3.7 6.96 7.392 0 4.416-2.688 7.392-6.96 7.392-4.56 0-7.056-3.408-7.056-7.392 0-4.272 2.736-7.396 7.056-7.396zm17.088 34.08c-4.128.24-10.128.288-12.048.192-1.008-.1-1.776-.528-1.776-2.256v-4.368a35.113 35.113 0 0 1 .192-3.648.388.388 0 0 0-.24-.48 20.06 20.06 0 0 0-6.336-1.056l-.336 1.056c2.784.96 3.12 1.344 3.216 3.84v4.7c0 2.736 1.872 4.128 3.408 4.128l14.3-.144c2.784-.048 4.9 0 6.768 0 .24 0 .336-.1.336-.336l.1-2.208c0-.288-.192-.336-.432-.288a45.57 45.57 0 0 1-7.152.868zm16.56-29.232.048 15.408c0 2.448 1.44 4.08 2.832 4.224a47.755 47.755 0 0 0 19.056-4.416l-.48-1.392c-4.176 1.824-11.472 3.072-16.848 3.072-.816 0-1.1-.672-1.1-1.824v-8.16c1.776-.048 3.7-.048 6-.048 2.736 0 3.984-.048 6.528 0 .24 0 .336-.1.336-.336l.1-1.824c0-.288-.288-.384-.528-.336a56.172 56.172 0 0 1-6.384.576c-2.352.144-4.224.192-6.048.24V42.48c2.544-.048 5.664-.1 8.16-.1 2.688 0 3.648 0 6.144.048.24 0 .336-.1.336-.336l.1-1.92c0-.288-.192-.384-.432-.336-1.92.288-3.792.48-6.288.624-2.832.144-6.144.288-8.832.24a34.847 34.847 0 0 0-6.1-.672l-.288 1.1c3.16.972 3.64 1.972 3.688 4.424zm27.552 24.576a30.283 30.283 0 0 0 .624 7.056 2.09 2.09 0 0 0 1.056-.144c1.2-1.536 1.584-3.984 1.68-7.056l.1-29.856a26.764 26.764 0 0 1 .288-4.224.361.361 0 0 0-.192-.432c-1.488-.912-4.944-1.728-7.728-1.968l-.384 1.2c3.216 1.008 4.464 2.112 4.512 4.608v10.944l-2.592.1a29.979 29.979 0 0 1-6.144-.192l-.432.672a5.761 5.761 0 0 0 3.648 2.016 14.351 14.351 0 0 1 3.888-.816l1.632-.144zm44.256 0c0 2.5.144 5.856.576 7.056a2.273 2.273 0 0 0 1.1-.144c1.1-1.488 1.344-4.032 1.44-7.056V40.032a26.764 26.764 0 0 1 .288-4.224.361.361 0 0 0-.192-.432 18.944 18.944 0 0 0-7.1-1.872l-.336 1.248c3.216 1.008 3.936 2.064 3.984 4.56l.1 12.864c-1.872.144-4.848.192-6.672.192V41.952a25.461 25.461 0 0 1 .192-4.176c.048-.24-.048-.336-.192-.48a17.009 17.009 0 0 0-6.72-1.728l-.336 1.2c3.216 1.056 3.7 1.92 3.744 4.368l.1 16.272a36.6 36.6 0 0 1-15.408 3.5c-.576 0-.672-.432-.672-1.248v-12.1a26.993 26.993 0 0 1 .288-3.888c-.192-.864-4.7-2.352-7.248-2.4l-.432 1.056c2.928 1.056 3.888 2.352 3.984 4.7v12.444c0 2.256.912 3.888 2.5 4.128a38.951 38.951 0 0 0 16.992-4.9l.1 9.072a30.282 30.282 0 0 0 .624 7.056 2.273 2.273 0 0 0 1.1-.144c1.056-1.536 1.3-4.032 1.392-7.056V54.144c1.968-.1 4.32-.1 6.672-.1zm42.144 0a30.283 30.283 0 0 0 .624 7.056 2.09 2.09 0 0 0 1.056-.144c1.2-1.536 1.584-3.984 1.68-7.056l.1-29.856a26.768 26.768 0 0 1 .288-4.224.361.361 0 0 0-.192-.432c-1.488-.912-4.944-1.728-7.728-1.968l-.384 1.2c3.216 1.008 4.464 2.112 4.512 4.608v4.9c-1.584.144-2.64.192-4.128.24a26.368 26.368 0 0 1-5.9-.24l-.48.624a6.115 6.115 0 0 0 3.408 2.064 14.549 14.549 0 0 1 3.936-.768c1.008-.1 2.064-.144 3.168-.192v7.536c-1.488.144-2.544.192-4.032.288a31.152 31.152 0 0 1-6.144-.144l-.432.672a5.761 5.761 0 0 0 3.64 2.008 13.33 13.33 0 0 1 3.888-.864c1.008-.1 2.016-.24 3.072-.288zm-32.88-5.664c4.416-2.3 9.552-7.1 13.3-12.816a78.7 78.7 0 0 1 8.4 12.144 1.991 1.991 0 0 0 2.448-1.968c.144-3.888-7.3-9.216-10.464-10.8A32.443 32.443 0 0 0 324 41.28c.1-.384 0-.528-.336-.768-1.44-1.056-4.944-1.92-6.672-2.16l-.384.96c1.056.432 3.12 1.392 2.976 2.64-1.248 8.4-8.544 17.664-14.3 21.744zm70.368-4.08c-2.208.1-8.3.288-10.512.288a25.637 25.637 0 0 1-5.712-.528l-.576.72a5.444 5.444 0 0 0 3.072 1.968 18.353 18.353 0 0 1 4.08-.528l13.152-.336c.288 0 .384.048.384.384v5.184c-4.848.24-12.384.336-16.416.288a34.7 34.7 0 0 0-5.04-.288l-.192.912c2.688.624 2.832 1.2 2.832 2.832v2.256c0 1.536.576 3.552 2.928 3.6l13.2-.192c2.832-.048 5.808-.144 8.352-.1.24 0 .336-.1.336-.336l.1-2.016c-.048-.288-.24-.336-.48-.288a45.325 45.325 0 0 1-7.2.912c-4.224.192-8.448.24-12.624.192-1.008 0-1.152-.672-1.152-1.584v-4.32c5.952-.144 14.5-.288 18.816-.288.24 0 .336-.144.336-.288l.1-1.3c0-.24-.1-.336-.384-.288l-1.2.144a6.542 6.542 0 0 0 .768-2.112c.336-1.632.576-3.168.864-4.8.048-.24 0-.336-.192-.384a14.04 14.04 0 0 0-3.6-.192 17.222 17.222 0 0 1-4.04.488zm4.512-8.976a25.116 25.116 0 0 0 .672 6.528 2.273 2.273 0 0 0 1.1-.144c1.008-.96 1.488-3.5 1.584-6.528l.1-11.28a26.768 26.768 0 0 1 .288-4.224.361.361 0 0 0-.192-.432c-1.488-.912-4.752-1.632-7.584-1.824l-.336 1.248c3.264 1.008 4.272 1.92 4.32 4.416v3.888c-2.112.192-4.032.24-5.808.336a29.777 29.777 0 0 1-6.144-.192l-.432.672a5.768 5.768 0 0 0 3.6 2.016 14.351 14.351 0 0 1 3.888-.816c1.3-.144 3.36-.288 4.9-.384zm-6.144-.576c-3.792 1.632-11.76 2.976-16.176 2.784-.624-.048-1.056-.384-1.056-1.584V44.5a36.859 36.859 0 0 1 .192-3.744.417.417 0 0 0-.24-.48c-1.3-.864-4.128-1.536-7.152-1.824l-.432 1.048c2.928 1.1 3.936 1.92 4.032 4.416v8.352c0 2.544 1.392 3.84 2.88 4.032a48.806 48.806 0 0 0 18.432-4.08zm48.288 19.3a30.283 30.283 0 0 0 .624 7.056 2.09 2.09 0 0 0 1.056-.144c1.2-1.488 1.488-4.032 1.584-7.056l.048-29.856a26.764 26.764 0 0 1 .288-4.224.361.361 0 0 0-.192-.432 20.645 20.645 0 0 0-7.536-1.968l-.336 1.152c3.216 1.008 4.224 2.16 4.272 4.656zM392.64 50.736c0 5.9 4.752 9.84 11.184 9.84 6.384 0 11.136-3.936 11.136-9.84 0-5.952-4.752-9.888-11.136-9.888-6.432 0-11.184 3.792-11.184 9.888zm3.552 0c0-4.992 3.216-8.208 7.632-8.208s7.584 3.264 7.584 8.208c0 4.9-3.168 8.16-7.584 8.16s-7.632-3.264-7.632-8.16zm61.872 24.24a11.773 11.773 0 0 0 .72 3.84 1.78 1.78 0 0 0 1.1-.144 3.781 3.781 0 0 0 .96-1.728c3.312-.048 10.56-.048 17.952-.048.24 0 .336-.048.336-.336l.144-1.3c0-.24-.144-.384-.432-.336-.576.048-1.008.1-1.488.1a9.4 9.4 0 0 0 1.2-3.552c.288-1.872.72-5.76.96-7.536.048-.24 0-.432-.24-.48a13.882 13.882 0 0 0-3.936-.192 15.261 15.261 0 0 1-3.744.432c-4.128.144-8.16.336-11.088.288a33.337 33.337 0 0 0-5.952-.528l-.336 1.008c2.448.72 3.216 1.3 3.408 3.6zm.624-29.184c-4.9 0-9.168 2.64-9.168 7.248 0 4.9 4.56 7.2 9.168 7.2 4.8 0 9.12-2.592 9.12-7.2 0-4.56-4.176-7.248-9.12-7.248zm16.368 19.536c.288 0 .432.048.432.384l-.048 9.408c-2.448.1-10.512.144-14.352.192v-.672l-.1-8.928zm.864-10.56a25.484 25.484 0 0 0 .624 6.528 2.273 2.273 0 0 0 1.1-.144c.96-.96 1.536-3.5 1.632-6.528v-3.552c2.544.048 5.136.1 7.728.192a.328.328 0 0 0 .336-.336l.1-2.544a.339.339 0 0 0-.432-.336 52.027 52.027 0 0 1-7.728 1.344l.048-9.408a26.768 26.768 0 0 1 .288-4.224.361.361 0 0 0-.192-.432c-1.488-.912-4.752-1.632-7.584-1.824l-.336 1.248c3.264 1.008 4.32 1.92 4.32 4.416zm-17.232-7.392a5.541 5.541 0 0 1 5.76 5.76 5.435 5.435 0 0 1-5.76 5.376c-3.7 0-5.808-2.544-5.808-5.376a5.516 5.516 0 0 1 5.808-5.76zM451.872 42a27.43 27.43 0 0 1-6.384-.528l-.528.72a6.642 6.642 0 0 0 3.312 2.256 18.03 18.03 0 0 1 4.416-.72c2.64-.144 8.448-.336 11.76-.336 1.968 0 4.512.048 6.576.1.192 0 .24-.1.24-.336l.1-1.968a.266.266 0 0 0-.336-.288c-1.872.336-4.464.624-6.576.768-3.172.232-9.552.332-12.58.332zm-.624-6.48a14.658 14.658 0 0 0 9.6 3.12c2.3 0 4.656-.528 4.656-2.064 0-.384-.192-.72-.384-.768-1.1.1-2.352.144-3.456.144a35.84 35.84 0 0 1-9.936-1.2zm43.68 30.336c3.552-5.04 5.712-15.744 5.76-22.752a3.9 3.9 0 0 0 1.2.48 8.227 8.227 0 0 1 2.5-.528l2.016-.1c.288 0 .432.1.48.48.768 7.728-1.536 18.672-3.456 23.568l1.584.432c2.544-3.936 4.176-9.84 4.9-16.08a5.351 5.351 0 0 0 2.448.96 14.43 14.43 0 0 1 3.312-.624l.624-.048.1 16.128c0 2.5.1 5.856.528 7.056a2.273 2.273 0 0 0 1.1-.144c1.056-1.536 1.3-4.032 1.392-7.056V41.952a25.455 25.455 0 0 1 .192-4.176c.048-.24-.048-.336-.192-.48a17.06 17.06 0 0 0-6.576-1.632l-.336 1.2c3.216 1.056 3.7 1.824 3.744 4.272l.048 8.784-2.448.144a20.8 20.8 0 0 1-3.792-.144 73.469 73.469 0 0 0 .336-8.544.313.313 0 0 0-.24-.384 14.635 14.635 0 0 0-3.312 0 12.2 12.2 0 0 1-3.792.48 17.98 17.98 0 0 1-2.352-.048c-.048-.1-.1-.24-.24-.288a10.559 10.559 0 0 0-3.264-.048 13.052 13.052 0 0 1-4.464.528 13.379 13.379 0 0 1-3.072-.336l-.528.768a4.752 4.752 0 0 0 2.772 1.632 11.441 11.441 0 0 1 2.832-.528l2.016-.144c.288 0 .48 0 .48.384.432 7.344-1.632 17.424-3.7 21.888zm29.184 4.272c0 2.5.144 5.856.576 7.056a2.273 2.273 0 0 0 1.1-.144c1.1-1.488 1.3-4.032 1.392-7.056V40.032a26.768 26.768 0 0 1 .288-4.224.361.361 0 0 0-.192-.432 18.124 18.124 0 0 0-6.96-1.872l-.336 1.248c3.216 1.008 3.936 2.064 3.984 4.56zm23.568-20.5c-5.328 0-9.84 3.216-9.84 8.112 0 5.088 4.512 8.3 9.84 8.3 5.76 0 9.792-3.552 9.792-8.3 0-4.84-4.172-8.108-9.792-8.108zm16.992 20.5a30.286 30.286 0 0 0 .624 7.056 2.09 2.09 0 0 0 1.056-.144c1.2-1.536 1.584-3.984 1.68-7.056l.048-14.256q4.1 0 8.208.144a.328.328 0 0 0 .336-.336l.1-2.544a.361.361 0 0 0-.336-.336h-.1a57.446 57.446 0 0 1-8.208 1.392l.048-13.92a26.761 26.761 0 0 1 .288-4.224.361.361 0 0 0-.192-.432c-1.488-.912-4.944-1.728-7.728-1.968l-.384 1.2c3.216 1.008 4.464 2.112 4.512 4.608zM547.68 51.312c3.984 0 6.288 2.928 6.288 6.48a6.059 6.059 0 0 1-6.288 6.432 6.232 6.232 0 0 1-6.336-6.432 6.137 6.137 0 0 1 6.336-6.48zm6.768-6.672c-3.36.24-10.272.336-14.016.336a29.789 29.789 0 0 1-6.384-.576l-.528.72a7.334 7.334 0 0 0 3.5 2.352 16.707 16.707 0 0 1 4.7-.72c3.168-.144 9.072-.336 13.2-.336 1.872 0 4.08.1 6.1.192.24 0 .288-.1.288-.336l.1-2.16a.287.287 0 0 0-.384-.288 60.758 60.758 0 0 1-6.576.816zm-14.5-7.488c2.16 2.064 6.384 3.6 10.464 3.6 2.544 0 4.656-.72 4.656-2.256a1.1 1.1 0 0 0-.288-.72c-1.056.1-2.208.144-3.36.144a36.2 36.2 0 0 1-10.992-1.584zm51.456 2.256a6.951 6.951 0 0 1-1.968.48 38.473 38.473 0 0 1-5.04.288 18.217 18.217 0 0 1-4.992-.384l-.528.72a5.689 5.689 0 0 0 3.072 2.016 16.516 16.516 0 0 1 4.176-.72l5.088-.288c.288 0 .48 0 .48.432a35.236 35.236 0 0 1-3.36 17.376l1.248.576c2.352-2.4 4.272-6.912 5.232-11.808a5.721 5.721 0 0 0 2.88 1.344 11.438 11.438 0 0 1 3.072-.672l2.16-.144.048 4.416a25.948 25.948 0 0 0 .672 6.624 2.273 2.273 0 0 0 1.1-.144c.96-1.488 1.248-3.6 1.344-6.624l.048-11.04a26.261 26.261 0 0 1 .192-4.224.361.361 0 0 0-.192-.432 17.593 17.593 0 0 0-6.672-1.728l-.336 1.152c3.216 1.008 3.7 1.968 3.744 4.416l.048 5.9c-1.3.144-2.544.192-3.792.24a16.083 16.083 0 0 1-4.128-.144c.144-.864.24-1.728.336-2.64.144-1.584.24-3.168.384-4.512a.357.357 0 0 0-.288-.432 13.83 13.83 0 0 0-4.024-.044zm6.816 39.024a28.268 28.268 0 0 0 11.14-9.792 68.018 68.018 0 0 1 6.624 9.216c1.2.336 2.064-.96 1.968-2.16-.288-3.312-5.808-6.528-8.208-7.68a18.632 18.632 0 0 0 2.448-5.424.615.615 0 0 0-.24-.72 15.336 15.336 0 0 0-5.712-1.824l-.384.864c.816.336 2.4 1.152 2.352 2.256-.48 3.7-4.56 10.416-10.7 14.592zm13.1-25.248a25.948 25.948 0 0 0 .68 6.624 2.273 2.273 0 0 0 1.1-.144c1.056-1.488 1.344-3.6 1.44-6.624V39.984a26.768 26.768 0 0 1 .288-4.224.361.361 0 0 0-.192-.432 19.989 19.989 0 0 0-7.1-1.824l-.336 1.152c3.216 1.008 3.984 2.016 4.032 4.512zm-28.7 24.768c4.176-1.488 9.312-5.664 12.336-10.032a67.636 67.636 0 0 1 5.184 6.144 1.554 1.554 0 0 0 1.536-1.68c0-2.016-3.408-3.984-6.288-5.136a16.67 16.67 0 0 0 1.732-3.648c.144-.336.144-.528-.1-.768a18.629 18.629 0 0 0-5.616-2.016l-.432.864c.816.432 2.448 1.2 2.256 2.256-.48 3.984-6.1 10.464-11.232 13.248zm48.772-3.452a15.711 15.711 0 0 0 .624 4.368 3.377 3.377 0 0 0 1.152-.1 4.663 4.663 0 0 0 1.008-1.728c2.592-.048 11.424 0 19.728 0 .24 0 .336 0 .384-.288l.144-1.392c0-.24 0-.384-.384-.336a9.372 9.372 0 0 0-1.1.1 8.48 8.48 0 0 0 .816-3.6l.1-5.04a35.076 35.076 0 0 1 .192-4.128.43.43 0 0 0-.24-.528 15.638 15.638 0 0 0-5.9-1.3l-.336 1.056c2.5.864 2.88 1.44 2.88 3.6v1.68c-4.7.24-11.04.288-15.744.288a35.138 35.138 0 0 1 .144-3.744c.048-.24 0-.384-.144-.48a13.813 13.813 0 0 0-6-1.584l-.336 1.056c2.736 1.056 2.88 1.872 2.928 4.416zm19.1-5.808.048 6.576c-5.52.24-13.152.192-15.984.144a12.183 12.183 0 0 0 .144-1.44v-5.14c4.852-.048 11.092-.144 15.8-.144zm-25.824-17.76c3.984-.672 11.52-4.128 16.128-8.88a79.615 79.615 0 0 1 14.88 7.1 1.7 1.7 0 0 0 1.3-1.968c-.192-3.7-11.04-5.424-15.792-5.616a13.056 13.056 0 0 0 3.12-5.184c.1-.336 0-.432-.144-.528-.864-.672-4.272-1.632-6.336-1.776l-.336 1.008c.816.288 2.688.96 2.592 2.016-1.056 4.56-9.36 10.848-15.84 12.768zm29.28 6c2.64 0 5.664.048 8.016.192a.328.328 0 0 0 .336-.336l.1-2.352a.339.339 0 0 0-.432-.336 64.741 64.741 0 0 1-8.016.912c-8.544.384-18.816.624-25.2.528a34.762 34.762 0 0 1-7.776-.768l-.576.72a6.89 6.89 0 0 0 3.7 2.64 22.731 22.731 0 0 1 5.472-.672c8.06-.196 16.22-.484 24.38-.532zm43.056 13.2a30.282 30.282 0 0 0 .624 7.056 2.09 2.09 0 0 0 1.056-.144c1.2-1.536 1.584-3.984 1.68-7.056l.1-29.856a26.768 26.768 0 0 1 .288-4.224.361.361 0 0 0-.192-.432c-1.488-.912-4.944-1.728-7.728-1.968l-.384 1.2c3.216 1.008 4.464 2.112 4.512 4.608v16.268c-5.136 2.784-15.168 5.232-22.416 5.04-.816 0-1.1-.672-1.1-1.776V47.04a24.683 24.683 0 0 1 .24-4.08.36.36 0 0 0-.192-.432 18.39 18.39 0 0 0-7.3-2.064l-.432 1.1c3.216 1.008 4.128 2.208 4.176 4.656l.048 12.912c0 2.448 1.44 4.08 2.832 4.224a55.069 55.069 0 0 0 24.144-6.384zm17.956-10.516v-16.56c2.688-.048 6-.144 8.544-.144 2.688 0 3.648-.048 6.144 0 .24 0 .336-.1.336-.336l.1-1.92c0-.288-.192-.384-.432-.336-1.92.288-3.792.528-6.288.672-2.832.144-6.432.384-9.264.336a34.809 34.809 0 0 0-6.048-.672l-.288 1.1c3.168.96 3.648 1.968 3.7 4.416V59.76c0 2.448 1.44 3.936 2.832 4.08 10.992-.1 20.688-4.512 23.616-6.384l.048 12.672a30.286 30.286 0 0 0 .624 7.056 2.09 2.09 0 0 0 1.056-.144c1.2-1.536 1.584-3.984 1.68-7.056l.048-15.456q4.1 0 8.208.144a.328.328 0 0 0 .336-.336l.1-2.544a.339.339 0 0 0-.432-.336 58.614 58.614 0 0 1-8.208 1.392l.048-12.72a26.761 26.761 0 0 1 .28-4.228.361.361 0 0 0-.192-.432c-1.488-.912-4.944-1.728-7.728-1.968l-.384 1.2c3.216 1.008 4.464 2.112 4.512 4.608v16.756a49.681 49.681 0 0 1-21.936 5.088c-.82-.052-1.012-.72-1.012-1.536zm41.328 9.36a2.921 2.921 0 0 0-2.928 2.832 2.962 2.962 0 0 0 2.928 2.88 2.911 2.911 0 0 0 2.832-2.88 2.869 2.869 0 0 0-2.832-2.832z" transform="translate(13.32 53.59)" style="fill:#fff"/>
    </g>
</svg>
