<svg xmlns="http://www.w3.org/2000/svg" width="242.502" height="124.737" viewBox="0 0 242.502 124.737">
    <defs>
        <filter id="a" x="0" y="0" width="242.502" height="124.737" filterUnits="userSpaceOnUse">
            <feOffset/>
            <feGaussianBlur stdDeviation="5" result="blur"/>
            <feFlood flood-opacity=".161"/>
            <feComposite operator="in" in2="blur"/>
            <feComposite in="SourceGraphic"/>
        </filter>
    </defs>
    <g style="filter:url(#a)" data-name="footer_text_mo">
        <path data-name="footer_text_mo" d="M17.5-.864c1.32 0 2.952.024 4.128.072a.164.164 0 0 0 .168-.168l.048-1.2a.17.17 0 0 0-.216-.168 34.447 34.447 0 0 1-4.128.456c-2.328.144-4.776.216-7.056.24a8.013 8.013 0 0 0 .312-1.7c.072-1.392.1-2.376.1-3.648 0-.552.072-1.632.144-2.184a.208.208 0 0 0-.12-.24 8.087 8.087 0 0 0-3.264-.864l-.192.5c1.488.552 1.68 1.056 1.7 2.3l.144 5.856c-1.584 0-3.048 0-4.248-.024a17.145 17.145 0 0 1-3.892-.404l-.288.36A3.873 3.873 0 0 0 2.9-.264a11.025 11.025 0 0 1 2.812-.384C9.744-.768 13.416-.84 17.5-.864zm-8.86-14.4c2.616-.072 4.68-.168 7.464-.216.144 0 .24.024.24.24A32.429 32.429 0 0 1 15.1-5.3l.7.216c1.488-1.728 2.376-5.976 2.688-9.144L18.7-16.3a.18.18 0 0 0-.12-.216 7.5 7.5 0 0 0-2.208-.144 6.973 6.973 0 0 1-2.328.312c-2.3.1-4.008.168-6.6.168a14.642 14.642 0 0 1-3.072-.288l-.288.36a3.114 3.114 0 0 0 1.868 1.228 9.859 9.859 0 0 1 2.688-.384zm25.728 5.88a13.163 13.163 0 0 0 .312 3.312 1.136 1.136 0 0 0 .552-.072 6.576 6.576 0 0 0 .668-3.312v-1.68a61.816 61.816 0 0 1 3.12-.072l.028 2.108a13.163 13.163 0 0 0 .312 3.312 1.136 1.136 0 0 0 .552-.072 6.278 6.278 0 0 0 .72-3.312v-6.864a13.383 13.383 0 0 1 .144-2.112.18.18 0 0 0-.1-.216 9.949 9.949 0 0 0-3.552-.936l-.168.576c1.608.5 1.992 1.032 2.016 2.28l.048 4.3c-.936.072-2.4.12-3.1.1l.024-3.072a13.131 13.131 0 0 1 .1-2.112.18.18 0 0 0-.1-.216 8.8 8.8 0 0 0-3.336-.864l-.168.576c1.608.5 1.848.984 1.872 2.208zm4.056 5.64c.144 0 .24.048.24.216l.024 4.056A9.421 9.421 0 0 0 39 3.168a1.238 1.238 0 0 0 .552-.072 4.142 4.142 0 0 0 .816-2.712l.072-3.1c.024-.672.12-1.728.144-1.92 0-.072.024-.12-.1-.168a7.107 7.107 0 0 0-2.04-.072 6.422 6.422 0 0 1-1.776.288c-1.824.12-4.2.192-6.072.168a15.111 15.111 0 0 1-3.384-.312l-.288.336a3.083 3.083 0 0 0 1.776 1.2 11.586 11.586 0 0 1 2.832-.336c1.708-.044 4.876-.168 6.892-.212zm-9.36-12.576a3.475 3.475 0 0 1-.984.24 19.237 19.237 0 0 1-2.52.144 9.108 9.108 0 0 1-2.5-.192l-.264.36a2.845 2.845 0 0 0 1.536 1.008 8.258 8.258 0 0 1 2.088-.36l2.544-.144c.144 0 .24 0 .24.216a17.619 17.619 0 0 1-1.68 8.688l.624.288c1.464-1.512 2.592-4.608 2.88-7.752.072-.792.12-1.584.192-2.256a.179.179 0 0 0-.144-.216 6.915 6.915 0 0 0-2.012-.024zM67.536-.984c0-2.568-2.256-4.128-5.136-4.128-3.1 0-5.16 1.776-5.16 4.128 0 2.52 2.232 4.128 5.16 4.128 2.976 0 5.136-1.608 5.136-4.128zm-8.52-.024A3.17 3.17 0 0 1 62.4-4.272a3.112 3.112 0 0 1 3.36 3.264 3.124 3.124 0 0 1-3.36 3.264 3.13 3.13 0 0 1-3.384-3.264zm6.96-7.512a15.076 15.076 0 0 0 .336 3.528.935.935 0 0 0 .552-.1 6.326 6.326 0 0 0 .768-3.5v-7.416a13.383 13.383 0 0 1 .144-2.112.18.18 0 0 0-.1-.216 9.841 9.841 0 0 0-3.768-.912l-.168.624c1.608.5 2.112.96 2.136 2.208l.024 2.88c-.864.072-1.392.1-2.232.12a14.989 14.989 0 0 1-3.072-.1l-.216.336a2.88 2.88 0 0 0 1.824 1.008 6.926 6.926 0 0 1 1.92-.408c.6-.072 1.2-.1 1.8-.144zM49.9-6.312a16.7 16.7 0 0 0 6.48-5.568 31.723 31.723 0 0 1 4.128 4.9.96.96 0 0 0 1.08-.984c.048-1.608-3.384-3.6-5.04-4.152a13.33 13.33 0 0 0 2.016-4.3c.024-.192 0-.24-.144-.312a9.44 9.44 0 0 0-3.288-.96l-.168.48c.84.36 1.536.816 1.416 1.3-.552 3.1-3.792 7.488-6.816 9.24zM86.52-1.08c0-2.568-2.28-4.08-5.208-4.08-3.1 0-5.184 1.728-5.184 4.08 0 2.5 2.256 4.08 5.184 4.08 3.024 0 5.208-1.584 5.208-4.08zM77.9-1.1a3.159 3.159 0 0 1 3.408-3.24 3.14 3.14 0 0 1 3.436 3.24 3.165 3.165 0 0 1-3.432 3.24A3.157 3.157 0 0 1 77.9-1.1zm9.552-6.48c1.32 0 2.832.024 4.008.1a.164.164 0 0 0 .168-.168l.048-1.176A.17.17 0 0 0 91.464-9a32.371 32.371 0 0 1-4.008.456c-2.136.1-4.512.192-6.72.24a7.071 7.071 0 0 0 .216-1.512l.072-1.368c.024-.552.072-1.1.12-1.56a.2.2 0 0 0-.1-.24 7.887 7.887 0 0 0-3-.7l-.168.48c1.464.552 1.536.888 1.584 2.136l.1 2.784c-1.752.024-3.408.024-4.7 0a17.381 17.381 0 0 1-3.888-.384l-.288.36a3.445 3.445 0 0 0 1.848 1.32 11.365 11.365 0 0 1 2.736-.336c4.032-.092 8.108-.236 12.188-.26zM79.2-16.608c2.208-.048 4.1-.144 6.456-.144.144 0 .216.024.216.192a27.011 27.011 0 0 1-.816 6.288l.7.216c1.632-2.136 2.112-5.568 2.352-7.512 0-.048.048-.144-.1-.192a8.044 8.044 0 0 0-2.232-.168A6.779 6.779 0 0 1 84-17.64c-2.112.12-3.744.144-5.88.168a17.673 17.673 0 0 1-3.648-.288l-.288.336a2.706 2.706 0 0 0 1.752 1.2 16.93 16.93 0 0 1 3.264-.384zm21.408-.384c-2.88 0-5.424 1.488-5.424 4.44 0 3 2.736 4.488 5.424 4.488 2.832 0 5.376-1.536 5.376-4.488 0-2.808-2.472-4.44-5.376-4.44zm8.736 16.056a15.142 15.142 0 0 0 .312 3.528 1.045 1.045 0 0 0 .528-.072 6.806 6.806 0 0 0 .84-3.528l.048-14.928a13.383 13.383 0 0 1 .144-2.112.18.18 0 0 0-.1-.216 10.893 10.893 0 0 0-3.864-.984l-.192.6c1.608.5 2.232 1.056 2.256 2.3v10.492c-2.3.888-7.968 1.872-13.776 1.752a11.6 11.6 0 0 1-2.256-.24l-.284.36a3.641 3.641 0 0 0 1.824 1.392 16.693 16.693 0 0 1 2.616-.384c5.088-.384 9.7-1.2 11.88-2.208zm-8.736-15.216a3.429 3.429 0 0 1 3.648 3.624 3.414 3.414 0 0 1-3.648 3.6 3.486 3.486 0 0 1-3.7-3.6 3.5 3.5 0 0 1 3.7-3.624zm32.64 10.344c-1.128.048-4.176.144-5.28.144a12.818 12.818 0 0 1-2.856-.264l-.288.36a2.7 2.7 0 0 0 1.56.984 8.768 8.768 0 0 1 2.04-.264l6.552-.168c.144 0 .192.024.192.192v2.592c-2.424.12-6.192.168-8.208.144a17.351 17.351 0 0 0-2.52-.144l-.1.456c1.344.312 1.416.6 1.416 1.416V.768c0 .768.312 1.776 1.464 1.8l6.6-.1c1.416-.024 2.9-.072 4.2-.048.12 0 .168-.048.168-.168l.048-1.008c-.024-.144-.12-.168-.24-.144a23.02 23.02 0 0 1-3.624.456c-2.112.1-4.224.12-6.312.1-.5 0-.576-.336-.576-.792V-1.3c2.952-.072 7.248-.144 9.408-.144.12 0 .168-.072.168-.144l.048-.648c0-.12-.048-.168-.192-.144l-.6.072a3.96 3.96 0 0 0 .384-1.052c.168-.816.288-1.584.432-2.4.024-.12 0-.168-.1-.192a6.951 6.951 0 0 0-1.8-.1 8.551 8.551 0 0 1-1.984.244zm-5.592-11.112a4.613 4.613 0 0 1-1.68.264c-1.032.048-1.824.12-2.928.12a9.768 9.768 0 0 1-2.5-.216l-.312.36a2.96 2.96 0 0 0 1.656 1.1 7.413 7.413 0 0 1 2.088-.336c1.176-.1 2.4-.168 3.576-.168.144 0 .24 0 .24.216a17.957 17.957 0 0 1-1.464 8.208l.672.336c1.488-1.608 2.376-3.984 2.712-7.344.072-.792.12-1.656.168-2.328a.179.179 0 0 0-.144-.216 10.059 10.059 0 0 0-2.084.004zm7.752 6.624a13.935 13.935 0 0 0 .312 3.264 1.136 1.136 0 0 0 .552-.072c.5-.48.744-1.752.792-3.264l.048-5.64a13.384 13.384 0 0 1 .144-2.112.18.18 0 0 0-.1-.216 9.975 9.975 0 0 0-3.792-.912l-.144.624c1.608.5 2.112.96 2.136 2.208zm6.792 9a1.205 1.205 0 0 0-1.344 1.128 1.5 1.5 0 0 0 .264.816c.912.1 1.224.648 1.224 1.176a3.049 3.049 0 0 1-1.584 2.3l.336.408A4.44 4.44 0 0 0 143.76.648 1.773 1.773 0 0 0 142.2-1.3zM7.68 37.488a5.478 5.478 0 0 0 .336 1.92.89.89 0 0 0 .552-.072 1.891 1.891 0 0 0 .48-.864c1.68-.024 5.4-.024 9.1-.024.12 0 .168-.024.168-.168l.072-.648c0-.12-.072-.192-.216-.168-.288.024-.5.048-.744.048a5.167 5.167 0 0 0 .6-1.776c.168-.936.384-3.48.5-4.368.024-.12 0-.216-.12-.24a6.168 6.168 0 0 0-1.968-.12 6.347 6.347 0 0 1-1.848.24c-2.064.072-4.176.144-5.712.12a16.623 16.623 0 0 0-3.024-.288l-.168.528c1.224.36 1.632.648 1.728 1.8zM5.5 22.248a18.427 18.427 0 0 1 .1-1.872.208.208 0 0 0-.12-.24 9.09 9.09 0 0 0-3.58-.912l-.216.528c1.464.552 1.968.96 2.016 2.208v4.08a1.773 1.773 0 0 0 1.44 1.992 24.515 24.515 0 0 0 11.54-2.952l.02 1.82a12.742 12.742 0 0 0 .312 3.264 1.045 1.045 0 0 0 .528-.072 5.547 5.547 0 0 0 .816-3.264v-1.8c1.3.024 2.568.048 3.864.12a.185.185 0 0 0 .168-.192l.048-1.248a.17.17 0 0 0-.216-.168 26.013 26.013 0 0 1-3.864.672l.024-4.224a13.383 13.383 0 0 1 .144-2.112.18.18 0 0 0-.1-.216 9.958 9.958 0 0 0-3.768-.912l-.168.624c1.608.5 2.136.96 2.16 2.208l.024 4.9c-2.04 1.224-7.08 2.376-10.7 2.208-.312-.024-.48-.192-.48-.792zm10.8 9.816c.144 0 .216.024.216.192l-.048 5.3c-1.224.048-5.352.072-7.3.1v-.336l-.048-5.088zM29.112 20.28c-2.664 0-4.872 1.7-4.872 4.368 0 2.64 2.208 4.344 4.872 4.344 2.616 0 4.848-1.632 4.848-4.344 0-2.664-2.184-4.368-4.848-4.368zm6.7 9.984a13.053 13.053 0 0 0 .336 3.336 1.136 1.136 0 0 0 .552-.072 6.649 6.649 0 0 0 .648-3.336l.024-4.08c.912-.048 1.7-.048 2.832-.048l.024 4.752a12.974 12.974 0 0 0 .336 3.312 1.136 1.136 0 0 0 .552-.072 6.056 6.056 0 0 0 .72-3.312V19.992a13.383 13.383 0 0 1 .144-2.112.18.18 0 0 0-.1-.216 9.994 9.994 0 0 0-3.552-.912l-.168.576c1.608.5 1.992 1.008 2.016 2.256l.024 5.544c-.864.072-2.088.1-2.832.1l.024-4.3a12.73 12.73 0 0 1 .1-2.088.18.18 0 0 0-.1-.216 8.338 8.338 0 0 0-3.336-.888l-.168.576c1.608.528 1.848.984 1.872 2.208zm-6.7-9.168c2.04 0 3.1 1.608 3.1 3.552 0 2.28-1.32 3.5-3.1 3.5-1.848 0-3.12-1.416-3.12-3.5 0-2.232 1.296-3.548 3.12-3.548zm10.176 16.3c-2.064.12-5.184.144-6.144.1-.5-.048-.888-.264-.888-1.128V34.3a17.556 17.556 0 0 1 .1-1.824.194.194 0 0 0-.12-.24 10.03 10.03 0 0 0-3.168-.528l-.168.528c1.392.48 1.56.672 1.608 1.92v2.232a1.877 1.877 0 0 0 1.7 2.064l7.272-.072c1.392-.024 2.448 0 3.384 0 .12 0 .168-.048.168-.168l.048-1.1c0-.144-.1-.168-.216-.144a22.785 22.785 0 0 1-3.576.424zm18.84-17.808c-1.92.12-6.192.288-8.3.288a19.036 19.036 0 0 0-2.928-.316l-.144.528c1.488.456 1.872.936 1.9 2.16V26.3c0 1.344.72 1.9 1.488 1.9l7.3-.1c1.392-.024 3.264-.048 4.56-.048.12 0 .168-.048.168-.168l.048-1.032c0-.144-.1-.168-.216-.144a41.177 41.177 0 0 1-4.728.432c-2.064.072-4.032.144-6.1.12-.576-.048-.7-.408-.7-.96v-5.54c2.328-.072 6.216-.192 7.608-.192 1.368 0 2.328-.048 3.6-.024.12 0 .168-.048.168-.168l.048-.984c0-.144-.144-.192-.264-.168-.988.144-2.26.288-3.508.36zm3.288 15.572c1.32 0 2.952.024 4.128.072a.164.164 0 0 0 .168-.168l.048-1.2a.17.17 0 0 0-.216-.168 34.446 34.446 0 0 1-4.128.456c-4.392.288-9.288.288-12.48.24a17.145 17.145 0 0 1-3.888-.408l-.288.36a3.873 3.873 0 0 0 2.064 1.416 11.026 11.026 0 0 1 2.808-.384c4.032-.12 7.704-.192 11.784-.216zm12.024 2.328a5.478 5.478 0 0 0 .336 1.92.89.89 0 0 0 .552-.072 1.89 1.89 0 0 0 .48-.864c1.68-.024 5.4-.024 9.1-.024.12 0 .168-.024.168-.168l.072-.648c0-.12-.072-.192-.216-.168-.288.024-.5.048-.744.048a5.167 5.167 0 0 0 .6-1.776c.168-.936.384-3.48.5-4.368.024-.12 0-.216-.12-.24a6.168 6.168 0 0 0-1.968-.12 6.347 6.347 0 0 1-1.848.24c-2.064.072-4.176.144-5.712.12a16.623 16.623 0 0 0-3.024-.288l-.168.528c1.224.36 1.632.648 1.728 1.8zm-2.184-15.24a18.425 18.425 0 0 1 .1-1.872.208.208 0 0 0-.12-.24 9.09 9.09 0 0 0-3.576-.912l-.216.528c1.464.552 1.968.96 2.016 2.208v4.08a1.773 1.773 0 0 0 1.44 1.992 24.515 24.515 0 0 0 11.54-2.952l.024 1.824a12.742 12.742 0 0 0 .312 3.264 1.045 1.045 0 0 0 .524-.068 5.547 5.547 0 0 0 .816-3.264v-1.8c1.3.024 2.568.048 3.864.12a.185.185 0 0 0 .168-.192l.048-1.248a.17.17 0 0 0-.216-.168 26.013 26.013 0 0 1-3.864.672l.024-4.224a13.383 13.383 0 0 1 .144-2.112.18.18 0 0 0-.1-.216 9.958 9.958 0 0 0-3.768-.912l-.168.624c1.608.5 2.136.96 2.16 2.208l.024 4.9c-2.04 1.224-7.08 2.376-10.7 2.208-.312-.024-.48-.192-.48-.792zm10.8 9.816c.144 0 .216.024.216.192l-.048 5.3c-1.224.048-5.352.072-7.3.1v-.336l-.048-5.088zm23.04-1.7a15 15 0 0 0 .312 3.528 1.045 1.045 0 0 0 .528-.072 6.328 6.328 0 0 0 .816-3.528v-10.3a13.383 13.383 0 0 1 .144-2.112.18.18 0 0 0-.1-.216 9.958 9.958 0 0 0-3.768-.912l-.168.624c1.608.5 2.112.96 2.136 2.208zm-9.432-10.852c-2.976 0-5.3 1.7-5.3 4.536 0 2.856 2.5 4.56 5.3 4.56 2.928 0 5.28-1.728 5.28-4.56 0-2.736-2.28-4.536-5.28-4.536zm0 .84a3.4 3.4 0 0 1 3.48 3.7 3.374 3.374 0 0 1-3.48 3.7 3.444 3.444 0 0 1-3.528-3.7 3.435 3.435 0 0 1 3.528-3.7zm8.544 17.04c-2.064.12-5.064.144-6.024.1-.5-.048-.888-.264-.888-1.128v-2.188a17.557 17.557 0 0 1 .1-1.824.194.194 0 0 0-.12-.24 10.03 10.03 0 0 0-3.168-.528l-.168.528c1.392.48 1.56.672 1.608 1.92v2.352a1.877 1.877 0 0 0 1.7 2.064l7.152-.072c1.392-.024 2.448 0 3.384 0 .12 0 .168-.048.168-.168L108 37.1c0-.144-.1-.168-.216-.144a22.785 22.785 0 0 1-3.576.436zm8.28-14.616.024 7.7a1.958 1.958 0 0 0 1.416 2.112 23.878 23.878 0 0 0 9.528-2.208l-.24-.7a24.478 24.478 0 0 1-8.424 1.536c-.408 0-.552-.336-.552-.912v-4.08c.888-.024 1.848-.024 3-.024 1.368 0 1.992-.024 3.264 0 .12 0 .168-.048.168-.168l.048-.912c0-.144-.144-.192-.264-.168a28.086 28.086 0 0 1-3.192.288 73.27 73.27 0 0 1-3.024.12v-4.12a234 234 0 0 1 4.08-.048c1.344 0 1.824 0 3.072.024.12 0 .168-.048.168-.168l.048-.96c0-.144-.1-.192-.216-.168-.96.144-1.9.24-3.144.312-1.416.072-3.072.144-4.416.12a17.423 17.423 0 0 0-3.048-.336l-.144.552c1.584.48 1.824.984 1.848 2.208zm13.776 12.288a15.141 15.141 0 0 0 .312 3.528 1.045 1.045 0 0 0 .528-.072 6.171 6.171 0 0 0 .84-3.528l.048-14.928a13.382 13.382 0 0 1 .144-2.112.18.18 0 0 0-.1-.216 10.893 10.893 0 0 0-3.864-.984l-.192.6c1.608.5 2.232 1.056 2.256 2.3v5.472l-1.3.048a14.989 14.989 0 0 1-3.072-.1l-.216.336a2.88 2.88 0 0 0 1.824 1.008 7.176 7.176 0 0 1 1.944-.408l.816-.072zm22.128 0a15.36 15.36 0 0 0 .288 3.528 1.136 1.136 0 0 0 .552-.072 6.678 6.678 0 0 0 .72-3.528V20.016a13.382 13.382 0 0 1 .148-2.116.18.18 0 0 0-.1-.216 9.472 9.472 0 0 0-3.552-.936l-.168.624c1.608.5 1.968 1.032 1.992 2.28l.048 6.432c-.936.072-2.424.1-3.336.1v-5.208a12.731 12.731 0 0 1 .1-2.088c.024-.12-.024-.168-.1-.24a8.5 8.5 0 0 0-3.36-.864l-.168.6c1.608.528 1.848.96 1.872 2.184l.048 8.136a18.3 18.3 0 0 1-7.7 1.752c-.288 0-.336-.216-.336-.624v-6.048a13.5 13.5 0 0 1 .144-1.944c-.1-.432-2.352-1.176-3.624-1.2l-.216.528c1.464.528 1.944 1.176 1.992 2.352v6.216c0 1.128.456 1.944 1.248 2.064a19.476 19.476 0 0 0 8.5-2.448l.048 4.536a15.141 15.141 0 0 0 .312 3.528 1.136 1.136 0 0 0 .552-.072 7.005 7.005 0 0 0 .7-3.528v-6.744c.984-.048 2.16-.048 3.336-.048zm21.072 0a15.141 15.141 0 0 0 .312 3.528 1.045 1.045 0 0 0 .528-.072 6.171 6.171 0 0 0 .84-3.528l.048-14.928a13.384 13.384 0 0 1 .144-2.112.18.18 0 0 0-.1-.216 10.893 10.893 0 0 0-3.864-.984l-.192.6c1.608.5 2.232 1.056 2.256 2.3V22.1c-.792.072-1.32.1-2.064.12a13.184 13.184 0 0 1-2.952-.12l-.24.312a3.058 3.058 0 0 0 1.7 1.032 7.274 7.274 0 0 1 1.968-.384c.5-.048 1.032-.072 1.584-.1v3.768c-.744.072-1.272.1-2.016.144a15.576 15.576 0 0 1-3.072-.072l-.216.336a2.88 2.88 0 0 0 1.824 1.008 6.665 6.665 0 0 1 1.944-.432c.5-.048 1.008-.12 1.536-.144zm-16.44-2.832a19.628 19.628 0 0 0 6.648-6.408 39.352 39.352 0 0 1 4.2 6.072 1 1 0 0 0 1.224-.984c.072-1.944-3.648-4.608-5.232-5.4A16.221 16.221 0 0 0 162 20.64c.048-.192 0-.264-.168-.384a9.557 9.557 0 0 0-3.336-1.08l-.192.48c.528.216 1.56.7 1.488 1.32-.624 4.2-4.272 8.832-7.152 10.872zm35.184-2.04c-1.1.048-4.152.144-5.256.144a12.818 12.818 0 0 1-2.856-.264l-.288.36a2.722 2.722 0 0 0 1.536.984 9.176 9.176 0 0 1 2.04-.264l6.576-.168c.144 0 .192.024.192.192v2.592c-2.424.12-6.192.168-8.208.144a17.351 17.351 0 0 0-2.52-.144l-.1.456c1.344.312 1.416.6 1.416 1.416v1.128c0 .768.288 1.776 1.464 1.8l6.6-.1c1.416-.024 2.9-.072 4.176-.048.12 0 .168-.048.168-.168l.048-1.008c-.024-.144-.12-.168-.24-.144a22.663 22.663 0 0 1-3.6.456c-2.112.1-4.224.12-6.312.1-.5 0-.576-.336-.576-.792V34.7c2.976-.072 7.248-.144 9.408-.144.12 0 .168-.072.168-.144l.048-.648c0-.12-.048-.168-.192-.144l-.6.072a3.271 3.271 0 0 0 .384-1.056c.168-.816.288-1.584.432-2.4.024-.12 0-.168-.1-.192a7.02 7.02 0 0 0-1.8-.1 8.611 8.611 0 0 1-2.008.248zm2.256-4.488a12.558 12.558 0 0 0 .336 3.264 1.136 1.136 0 0 0 .552-.072c.5-.48.744-1.752.792-3.264l.048-5.64a13.384 13.384 0 0 1 .144-2.112.18.18 0 0 0-.1-.216 9.975 9.975 0 0 0-3.792-.912l-.168.624c1.632.5 2.136.96 2.16 2.208v1.944c-1.056.1-2.016.12-2.9.168a14.888 14.888 0 0 1-3.072-.1l-.216.336a2.884 2.884 0 0 0 1.8 1.008 7.176 7.176 0 0 1 1.944-.408c.648-.072 1.68-.144 2.448-.192zm-3.072-.288a23.764 23.764 0 0 1-8.088 1.392c-.312-.024-.528-.192-.528-.792v-3.768a18.429 18.429 0 0 1 .1-1.872.208.208 0 0 0-.12-.24 9.09 9.09 0 0 0-3.576-.912l-.216.528c1.464.552 1.968.96 2.016 2.208v4.176a1.8 1.8 0 0 0 1.44 2.016 24.4 24.4 0 0 0 9.216-2.04zm24.144 9.648a15.141 15.141 0 0 0 .312 3.528 1.045 1.045 0 0 0 .528-.072 6.2 6.2 0 0 0 .792-3.528l.024-14.928a13.382 13.382 0 0 1 .144-2.112.18.18 0 0 0-.1-.216 10.323 10.323 0 0 0-3.768-.984l-.168.576c1.608.5 2.112 1.08 2.136 2.328zm-15.216-9.7c0 2.952 2.376 4.92 5.592 4.92 3.192 0 5.568-1.968 5.568-4.92 0-2.976-2.376-4.944-5.568-4.944-3.212.004-5.592 1.9-5.592 4.948zm1.776 0a3.815 3.815 0 1 1 7.608 0 3.813 3.813 0 1 1-7.608 0zM7.752 73.488a5.886 5.886 0 0 0 .36 1.92.89.89 0 0 0 .552-.072 1.891 1.891 0 0 0 .48-.864c1.656-.024 5.28-.024 8.976-.024.12 0 .168-.024.168-.168l.072-.648c0-.12-.072-.192-.216-.168-.288.024-.5.048-.744.048a4.7 4.7 0 0 0 .6-1.776c.144-.936.36-2.88.48-3.768.024-.12 0-.216-.12-.24a6.941 6.941 0 0 0-1.968-.1 7.631 7.631 0 0 1-1.872.216c-2.064.072-4.08.168-5.544.144A16.669 16.669 0 0 0 6 67.728l-.168.5c1.224.36 1.608.648 1.7 1.8zM8.064 58.9c-2.448 0-4.584 1.32-4.584 3.624 0 2.448 2.28 3.6 4.584 3.6 2.4 0 4.56-1.3 4.56-3.6 0-2.284-2.088-3.624-4.56-3.624zm8.184 9.768c.144 0 .216.024.216.192l-.024 4.7c-1.224.048-5.256.072-7.176.1v-.34l-.048-4.464zm.432-5.28a12.742 12.742 0 0 0 .312 3.264 1.136 1.136 0 0 0 .552-.072 5.547 5.547 0 0 0 .816-3.264v-1.78c1.272.024 2.568.048 3.864.1a.164.164 0 0 0 .168-.168l.048-1.272a.17.17 0 0 0-.216-.168 26.014 26.014 0 0 1-3.864.672l.024-4.7a13.384 13.384 0 0 1 .144-2.112.18.18 0 0 0-.1-.216 9.975 9.975 0 0 0-3.792-.912l-.168.624c1.632.5 2.16.96 2.16 2.208zm-8.616-3.7a2.771 2.771 0 0 1 2.88 2.88 2.717 2.717 0 0 1-2.88 2.688 2.7 2.7 0 0 1-2.9-2.688 2.758 2.758 0 0 1 2.9-2.88zM4.656 57a13.715 13.715 0 0 1-3.192-.264L1.2 57.1a3.321 3.321 0 0 0 1.656 1.128 9.015 9.015 0 0 1 2.208-.36c1.32-.072 4.224-.168 5.88-.168.984 0 2.256.024 3.288.048.1 0 .12-.048.12-.168l.048-.984a.133.133 0 0 0-.168-.144c-.936.168-2.232.312-3.288.384-1.584.116-4.776.164-6.288.164zm-.312-3.24a7.329 7.329 0 0 0 4.8 1.56c1.152 0 2.328-.264 2.328-1.032 0-.192-.1-.36-.192-.384-.552.048-1.176.072-1.728.072a17.92 17.92 0 0 1-4.968-.6zm21.84 15.168c1.776-2.52 2.856-7.872 2.88-11.376a1.949 1.949 0 0 0 .6.24 4.113 4.113 0 0 1 1.248-.264l1.008-.048c.144 0 .216.048.24.24a30.912 30.912 0 0 1-1.728 11.78l.792.216a19.611 19.611 0 0 0 2.448-8.04 2.676 2.676 0 0 0 1.224.48 7.215 7.215 0 0 1 1.656-.312l.312-.024.048 8.064a15.587 15.587 0 0 0 .264 3.528 1.136 1.136 0 0 0 .552-.072 7.005 7.005 0 0 0 .7-3.528V56.976a12.73 12.73 0 0 1 .1-2.088c.024-.12-.024-.168-.1-.24a8.53 8.53 0 0 0-3.288-.816l-.168.6c1.608.528 1.848.912 1.872 2.136l.024 4.392-1.224.072a10.4 10.4 0 0 1-1.9-.072 36.734 36.734 0 0 0 .168-4.272.157.157 0 0 0-.12-.192 7.317 7.317 0 0 0-1.656 0 6.1 6.1 0 0 1-1.9.24 8.989 8.989 0 0 1-1.176-.024c-.024-.048-.048-.12-.12-.144a5.28 5.28 0 0 0-1.632-.024 6.526 6.526 0 0 1-2.232.264 6.69 6.69 0 0 1-1.536-.168l-.264.384a2.376 2.376 0 0 0 1.392.816 5.721 5.721 0 0 1 1.416-.264L27.1 57.5c.144 0 .24 0 .24.192a28.019 28.019 0 0 1-1.852 10.948zm14.592 2.136a15.36 15.36 0 0 0 .288 3.528 1.136 1.136 0 0 0 .552-.072 6.7 6.7 0 0 0 .7-3.528V56.016a13.383 13.383 0 0 1 .144-2.112.18.18 0 0 0-.1-.216 9.062 9.062 0 0 0-3.48-.936l-.168.624c1.608.5 1.968 1.032 1.992 2.28zM52.56 60.816c-2.664 0-4.92 1.608-4.92 4.056 0 2.544 2.256 4.152 4.92 4.152 2.88 0 4.9-1.776 4.9-4.152-.004-2.424-2.092-4.056-4.9-4.056zm8.5 10.248a15.141 15.141 0 0 0 .312 3.528 1.045 1.045 0 0 0 .528-.072 6.171 6.171 0 0 0 .84-3.528l.024-7.128q2.052 0 4.1.072a.164.164 0 0 0 .168-.168l.048-1.268a.18.18 0 0 0-.168-.168h-.048a28.724 28.724 0 0 1-4.1.7l.024-6.96a13.384 13.384 0 0 1 .144-2.112.18.18 0 0 0-.1-.216 10.893 10.893 0 0 0-3.864-.984l-.192.6c1.608.5 2.232 1.056 2.256 2.3zm-8.5-9.408a3.229 3.229 0 0 1 0 6.456 3.116 3.116 0 0 1-3.168-3.212 3.068 3.068 0 0 1 3.168-3.244zm3.384-3.336c-1.68.12-5.136.168-7.008.168a14.894 14.894 0 0 1-3.192-.288l-.264.36a3.667 3.667 0 0 0 1.752 1.176 8.353 8.353 0 0 1 2.352-.36c1.584-.072 4.536-.168 6.6-.168.936 0 2.04.048 3.048.1.12 0 .144-.048.144-.168l.048-1.08a.143.143 0 0 0-.192-.144 30.378 30.378 0 0 1-3.288.404zM48.7 54.576a8.118 8.118 0 0 0 5.232 1.8c1.272 0 2.328-.36 2.328-1.128a.55.55 0 0 0-.144-.36c-.528.048-1.1.072-1.68.072a18.1 18.1 0 0 1-5.5-.792zM74.424 55.7a3.475 3.475 0 0 1-.984.24 19.236 19.236 0 0 1-2.52.144 9.108 9.108 0 0 1-2.5-.192l-.264.36a2.845 2.845 0 0 0 1.544 1.012 8.258 8.258 0 0 1 2.088-.36l2.544-.144c.144 0 .24 0 .24.216a17.619 17.619 0 0 1-1.68 8.688l.624.288a12.27 12.27 0 0 0 2.616-5.9 2.861 2.861 0 0 0 1.44.672 5.72 5.72 0 0 1 1.536-.336l1.08-.072.024 2.208a12.974 12.974 0 0 0 .336 3.312 1.136 1.136 0 0 0 .552-.072 6.576 6.576 0 0 0 .672-3.312l.024-5.52a13.13 13.13 0 0 1 .1-2.112.18.18 0 0 0-.1-.216 8.8 8.8 0 0 0-3.336-.864l-.168.576c1.608.5 1.848.984 1.872 2.208l.024 2.952c-.648.072-1.272.1-1.9.12a8.041 8.041 0 0 1-2.064-.072c.072-.432.12-.864.168-1.32.072-.792.12-1.584.192-2.256a.179.179 0 0 0-.144-.216 6.915 6.915 0 0 0-2.016-.032zm3.408 19.512a14.134 14.134 0 0 0 5.568-4.9 34.008 34.008 0 0 1 3.312 4.608c.6.168 1.032-.48.984-1.08-.144-1.656-2.9-3.264-4.1-3.84a9.315 9.315 0 0 0 1.22-2.7.308.308 0 0 0-.12-.36 7.668 7.668 0 0 0-2.856-.912l-.192.432c.408.168 1.2.576 1.176 1.128-.24 1.848-2.28 5.208-5.352 7.3zm6.552-12.624a12.974 12.974 0 0 0 .336 3.312 1.136 1.136 0 0 0 .552-.072 6.056 6.056 0 0 0 .72-3.312v-6.524a13.384 13.384 0 0 1 .144-2.112.18.18 0 0 0-.1-.216 9.995 9.995 0 0 0-3.552-.912l-.168.576c1.608.5 1.992 1.008 2.016 2.256zM70.032 74.976A14.481 14.481 0 0 0 76.2 69.96a33.818 33.818 0 0 1 2.592 3.072.777.777 0 0 0 .768-.84c0-1.008-1.7-1.992-3.144-2.568a8.336 8.336 0 0 0 .864-1.824c.072-.168.072-.264-.048-.384a9.314 9.314 0 0 0-2.808-1.008l-.216.432c.408.216 1.224.6 1.128 1.128-.24 1.992-3.048 5.232-5.616 6.624zm24.384-1.728a7.856 7.856 0 0 0 .312 2.184 1.688 1.688 0 0 0 .576-.048 2.331 2.331 0 0 0 .5-.864c1.3-.024 5.712 0 9.864 0 .12 0 .168 0 .192-.144l.072-.7c0-.12 0-.192-.192-.168a4.687 4.687 0 0 0-.552.048 4.24 4.24 0 0 0 .408-1.8l.048-2.52a17.535 17.535 0 0 1 .1-2.064.215.215 0 0 0-.12-.264 7.819 7.819 0 0 0-2.952-.648l-.168.528c1.248.432 1.44.72 1.44 1.8v.84c-2.352.12-5.52.144-7.872.144a17.565 17.565 0 0 1 .072-1.872c.024-.12 0-.192-.072-.24a6.907 6.907 0 0 0-3-.792l-.172.532c1.368.528 1.44.936 1.464 2.208zm9.552-2.9.024 3.288c-2.76.12-6.576.1-7.992.072a6.08 6.08 0 0 0 .072-.72v-2.572c2.428-.024 5.544-.072 7.896-.072zm-12.912-8.88a17.392 17.392 0 0 0 8.064-4.44 39.806 39.806 0 0 1 7.44 3.552.852.852 0 0 0 .648-.984c-.1-1.848-5.52-2.712-7.9-2.808a6.528 6.528 0 0 0 1.56-2.592c.048-.168 0-.216-.072-.264a8.635 8.635 0 0 0-3.168-.888l-.168.5c.408.144 1.344.48 1.3 1.008-.528 2.28-4.68 5.424-7.92 6.384zm14.64 3c1.32 0 2.832.024 4.008.1a.164.164 0 0 0 .168-.168l.048-1.176a.17.17 0 0 0-.216-.168 32.37 32.37 0 0 1-4.008.456c-4.272.192-9.408.312-12.6.264a17.381 17.381 0 0 1-3.888-.384l-.288.36a3.445 3.445 0 0 0 1.848 1.32 11.365 11.365 0 0 1 2.736-.336c4.032-.104 8.112-.248 12.196-.272zm21.528 6.6a15.142 15.142 0 0 0 .312 3.528 1.045 1.045 0 0 0 .528-.072 6.171 6.171 0 0 0 .84-3.528l.048-14.928a13.382 13.382 0 0 1 .144-2.112.18.18 0 0 0-.1-.216 10.893 10.893 0 0 0-3.864-.984l-.192.6c1.608.5 2.232 1.056 2.256 2.3v8.136a26.393 26.393 0 0 1-11.208 2.52c-.408 0-.552-.336-.552-.888v-5.9a12.341 12.341 0 0 1 .12-2.04.18.18 0 0 0-.1-.216 9.2 9.2 0 0 0-3.648-1.032l-.216.552c1.608.5 2.064 1.1 2.088 2.328l.024 6.456a1.958 1.958 0 0 0 1.416 2.112 27.534 27.534 0 0 0 12.08-3.196zm8.976-5.256v-8.28c1.344-.024 3-.072 4.272-.072 1.344 0 1.824-.024 3.072 0 .12 0 .168-.048.168-.168l.048-.96c0-.144-.1-.192-.216-.168-.96.144-1.9.264-3.144.336-1.416.072-3.216.192-4.632.168a17.4 17.4 0 0 0-3.024-.336l-.144.552c1.584.48 1.824.984 1.848 2.208v6.788a1.869 1.869 0 0 0 1.416 2.04 25.2 25.2 0 0 0 11.808-3.192l.024 6.336a15.141 15.141 0 0 0 .312 3.528 1.045 1.045 0 0 0 .528-.072 6.171 6.171 0 0 0 .84-3.528l.024-7.728q2.052 0 4.1.072a.164.164 0 0 0 .168-.168l.048-1.272a.17.17 0 0 0-.216-.168 29.307 29.307 0 0 1-4.1.7l.024-6.36a13.384 13.384 0 0 1 .144-2.112.18.18 0 0 0-.1-.216 10.893 10.893 0 0 0-3.864-.984l-.192.6c1.608.5 2.232 1.056 2.256 2.3v8.376a24.841 24.841 0 0 1-10.968 2.544c-.4-.024-.5-.36-.5-.768zm20.664 4.68A1.461 1.461 0 0 0 155.4 71.9a1.481 1.481 0 0 0 1.464 1.44 1.455 1.455 0 0 0 1.416-1.44 1.434 1.434 0 0 0-1.416-1.412z" transform="translate(14.16 34.296)" style="fill:#fff"/>
    </g>
</svg>
