<svg xmlns="http://www.w3.org/2000/svg" width="306.023" height="122.065" viewBox="0 0 306.023 122.065">
    <defs>
        <filter id="0wcueouwpa" x="0" y="0" width="306.023" height="122.065" filterUnits="userSpaceOnUse">
            <feOffset/>
            <feGaussianBlur stdDeviation="5" result="blur"/>
            <feFlood flood-opacity=".161"/>
            <feComposite operator="in" in2="blur"/>
            <feComposite in="SourceGraphic"/>
        </filter>
    </defs>
    <g style="filter:url(#0wcueouwpa)">
        <path data-name="패스 7281" d="m15.408.192.048-13.92c0-1.992.216-2.136 1.824-2.28v-.648h-4.7v.648c1.56.144 1.8.288 1.8 2.28v10.3h-.24L4.08-16.656H1.32v.648c1.272.216 1.9.6 1.9 2.592v10.608c0 1.992-.168 2.16-1.848 2.28v.672h4.844v-.672c-1.7-.12-1.92-.264-1.92-2.28v-10.248h.264L14.592.192zm13.2-6.072 1.344 3.936c.216.816-.12 1.32-.792 1.392l-.6.048v.648c1.656-.024 3.624-.024 5.28 0V-.5c-1.1-.072-1.728-.576-2.208-1.9l-5.16-14.568-1.1.528c-3.288 9.048-4.9 13.368-5.424 14.448C19.392-.864 18.936-.576 18-.528v.672c1.224-.024 2.664-.024 4.512 0v-.672a5.425 5.425 0 0 1-.624-.024c-.888-.1-1.008-.432-.672-1.392l1.416-3.936zm-3.024-8.136h.216l2.424 7.1h-5.232zM52.032-1.92l-.408-12.288c-.024-1.536.768-1.728 1.776-1.776v-.672h-3.744l-5.3 12.84h-.336l-5.3-12.84h-3.752v.672c.792.048 1.7.24 1.7 1.368l-.384 12.7c-.02 1.004-1.076 1.34-1.964 1.388v.672c1.536-.044 3.24-.024 4.656 0v-.672c-.888-.024-1.608-.312-1.608-1.344l.312-11.976h.22L43.392-.7h.888l5.4-13.032h.22l.36 11.856c0 1.032-.768 1.32-1.656 1.344v.676C50.04.12 52.344.1 53.88.144v-.672c-.888-.048-1.824-.264-1.848-1.392zM78-9.72h-4.32v.7c.888 0 1.056.216 1.056.6a10.82 10.82 0 0 1-1.608 4.416A143.987 143.987 0 0 1 67.7-9.648c2.88-1.1 4.152-2.352 4.176-4.248.024-2.04-2.04-3.12-3.72-3.144-2.4-.048-4.488 1.224-4.488 3.672 0 1.392.456 2.208 1.9 3.768-2.688 1.464-3.648 3.432-3.648 5.472 0 2.928 2.472 4.656 5.088 4.656a7.663 7.663 0 0 0 5.784-2.568C74.712-.264 75 0 76.944 0h1.008v-.648C76.968-.84 76.2-.96 73.776-3.36A21.67 21.67 0 0 0 75.48-6.7c.792-1.968 1.08-2.256 2.52-2.328zm-10.344 9a3.791 3.791 0 0 1-3.912-3.72 4.92 4.92 0 0 1 2.448-4.512c1.7 1.8 4.272 4.608 5.976 6.288A6.062 6.062 0 0 1 67.656-.72zm-.6-9.528a4.464 4.464 0 0 1-1.68-3.456 2.45 2.45 0 0 1 2.616-2.544 2.187 2.187 0 0 1 2.4 2.28c0 1.656-1.272 2.832-3.336 3.72zM100.008.192l.048-13.92c0-1.992.216-2.136 1.824-2.28v-.648h-4.7v.648c1.56.144 1.8.288 1.8 2.28v10.3h-.24L88.68-16.656h-2.76v.648c1.272.216 1.9.6 1.9 2.592v10.608c0 1.992-.168 2.16-1.848 2.28v.672h4.848v-.672c-1.7-.12-1.92-.264-1.92-2.28v-10.248h.264L99.192.192zm13.2-6.072 1.344 3.936c.216.816-.12 1.32-.792 1.392l-.6.048v.648c1.656-.024 3.624-.024 5.28 0V-.5c-1.1-.072-1.728-.576-2.208-1.9l-5.16-14.568-1.1.528c-3.288 9.048-4.9 13.368-5.424 14.448-.552 1.128-1.008 1.416-1.944 1.464v.672c1.224-.024 2.664-.024 4.512 0v-.672a5.424 5.424 0 0 1-.624-.024c-.888-.1-1.008-.432-.672-1.392l1.416-3.936zm-3.024-8.136h.216l2.424 7.1h-5.232zm26.448 12.1-.408-12.288c-.024-1.536.768-1.728 1.776-1.776v-.672h-3.744l-5.3 12.84h-.336l-5.3-12.84h-3.744v.672c.792.048 1.7.24 1.7 1.368l-.384 12.7c-.024 1.008-1.08 1.344-1.968 1.392v.664c1.536-.048 3.24-.024 4.656 0v-.672c-.888-.024-1.608-.312-1.608-1.344l.312-11.976h.216L127.992-.7h.888l5.4-13.032h.216l.36 11.856c0 1.032-.768 1.32-1.656 1.344v.676c1.44-.024 3.744-.048 5.28 0v-.672c-.888-.048-1.824-.264-1.848-1.392zM6.048 21.312v1.56h5.064v3.456h-4.3v1.536h4.3v3.816H5.4v1.584h13.224V31.68h-5.736v-3.816h4.3v-1.536h-4.3v-3.456h5.04v-1.56zM21.864 17.5H2.136v20.852h1.752V37.32h16.224v1.032h1.752zM3.888 35.688v-16.56h16.224v16.56zm11.832-7.32-1.368.456a15.4 15.4 0 0 1 1.584 2.808l1.344-.624a15.277 15.277 0 0 0-1.56-2.64zm19.44-1.032a26.943 26.943 0 0 1-3.216 8.136l1.44.912a31.257 31.257 0 0 0 3.36-8.712zm8.352-.312-1.512.5a68.926 68.926 0 0 1 2.736 8.88l1.536-.7a72.273 72.273 0 0 0-2.76-8.68zm-5.28 11.256a1.9 1.9 0 0 0 2.112-2.16V25.272h5.88v-1.68h-13.56v1.68h5.952v10.416c0 .72-.336 1.08-.96 1.08-.7 0-1.416-.048-2.136-.12l.336 1.632zm-4.1-20.448v1.656h10.844v-1.656zM25.32 17.4v21.024H27V19.032h3.84a64.655 64.655 0 0 1-2.592 6.72A9.492 9.492 0 0 1 30.48 31.2a1.422 1.422 0 0 1-.408 1.152 2.537 2.537 0 0 1-1.536.432 7.894 7.894 0 0 1-.912-.1l.552 1.68a4.991 4.991 0 0 0 3.288-.888 3.2 3.2 0 0 0 .7-2.28 12.1 12.1 0 0 0-2.208-5.712c.984-2.328 1.848-4.56 2.568-6.72V17.4zm25.512 7.344H54.7V28.8h-3.868zm3.868-1.608h-3.868v-4.3H54.7zm-3.912 7.3H54.7v5.4c0 .672-.336 1.032-.96 1.032q-.828 0-1.8-.072l.408 1.488h1.872q2.088 0 2.088-1.872V17.3h-7.06v11.6a18.287 18.287 0 0 1-1.748 8.372l1.3 1.176a19.37 19.37 0 0 0 1.984-8.016zm6.888-3.816v1.68h1.152a13.118 13.118 0 0 0 3.336 5.712 17.24 17.24 0 0 1-5.3 2.9l.96 1.464a18.188 18.188 0 0 0 5.664-3.168 22.844 22.844 0 0 0 5.3 3.192l.912-1.488a21.35 21.35 0 0 1-5.068-2.812 14.134 14.134 0 0 0 3.192-5.88v-1.604zm2.76 1.68h5.736a12.924 12.924 0 0 1-2.856 4.656 11.126 11.126 0 0 1-2.884-4.656zM59.16 17.328v3.192a4.492 4.492 0 0 1-1.968 3.888l1.152 1.32a6.361 6.361 0 0 0 2.52-5.376V18.96h4.08v3.888a1.775 1.775 0 0 0 1.968 2.04h2.4V23.28h-1.968c-.48 0-.7-.264-.7-.768v-5.184zM82.1 27.456a19.439 19.439 0 0 1-1.536 5.5 12.55 12.55 0 0 1-3.384 3.912l1.1 1.416a13.936 13.936 0 0 0 3.84-4.56 23.674 23.674 0 0 0 1.68-6.264H88a65.574 65.574 0 0 1-.288 7.056c-.144 1.272-.648 1.92-1.56 1.92-.768 0-1.656-.048-2.688-.1l.408 1.632c1.2.048 2.04.072 2.544.072 1.752 0 2.736-.936 2.928-2.808a70.058 70.058 0 0 0 .36-9.456H79.1v1.68zm-5.8-11.088a26.448 26.448 0 0 1-5.664 9.768l.552 1.8a30.809 30.809 0 0 0 2.592-3.024v13.536h1.776v-16.2a29.464 29.464 0 0 0 2.328-5.16zm5.232.264a20.4 20.4 0 0 1-5.232 8.856l1.34 1.152a22.954 22.954 0 0 0 5.472-9.384zm5.688-.288-1.464.816a18.34 18.34 0 0 0 5.9 9.12l1.152-1.344a17.539 17.539 0 0 1-5.592-8.592zm14.3 8.688h9.528v2.616h-9.528zm9.528 4.128v2.54h-9.528v-2.54zm0 4.056v2.736q0 .864-.936.864c-.792 0-1.656-.048-2.568-.1l.432 1.584h2.688c1.344-.048 2.016-.648 2.016-1.824V23.52h-11.136a28.564 28.564 0 0 0 1.56-2.784h12.648v-1.68h-11.928c.336-.84.624-1.7.912-2.592l-1.752-.216a26.729 26.729 0 0 1-1.056 2.808h-7.152v1.68h6.36a26.362 26.362 0 0 1-7.008 8.232l1.128 1.464a30.189 30.189 0 0 0 4.632-4.632v12.552h1.632v-5.136zm7.368-15.864v21.072h1.68V19.008h3.96a60.992 60.992 0 0 1-2.64 6.744c1.68 2.016 2.52 3.864 2.52 5.5a1.274 1.274 0 0 1-.456 1.08 4.259 4.259 0 0 1-1.8.36 8.809 8.809 0 0 1-.936-.1l.576 1.752a5.963 5.963 0 0 0 3.6-.864 2.972 2.972 0 0 0 .744-2.232 11.265 11.265 0 0 0-2.472-5.76c1.008-2.352 1.872-4.584 2.592-6.744v-1.392zm10.2 6h7.08v2.712h-7.08zm7.08-1.584h-7.08v-2.76h7.08zm-4.32 5.88a15.393 15.393 0 0 0 7.224 10.56l.96-1.512a14.36 14.36 0 0 1-4.368-3.888 12.057 12.057 0 0 0 3.7-3l-1.132-1.128a12.289 12.289 0 0 1-3.36 2.9 12.928 12.928 0 0 1-1.464-3.936h4.44V17.376h-10.464v18.576c0 .24-.192.432-.528.552l.408 1.488a47.775 47.775 0 0 0 6.5-2.16l-.384-1.608a33.488 33.488 0 0 1-4.3 1.632v-8.208zm16.2-11.016a25.38 25.38 0 0 1-6.792 10.968l1.344 1.176c2.928-2.64 5.256-6.48 7.032-11.52zm8.184 12.72-1.56.528a48.854 48.854 0 0 1 2.9 4.752c-3.432.552-7.1.96-11.016 1.2A51.622 51.622 0 0 0 152.28 25.1l-1.68-.576q-4.356 9.864-7.224 11.376l.312 1.68c5.232-.336 9.96-.816 14.184-1.488q.54 1.08 1.08 2.3l1.608-.72a48.452 48.452 0 0 0-4.8-8.32zm-.36-12.888-1.464.816a23.237 23.237 0 0 0 7.464 11.544l1.224-1.416a22.516 22.516 0 0 1-7.224-10.944zm11.112 10.176v7.392H177.1V26.64zm8.928 5.86h-7.248v-4.3h7.248zm5.832 5.736c1.632 0 2.448-.864 2.448-2.568V17.4h-18.048v1.68h16.32v16.1c0 .96-.384 1.44-1.1 1.44l-3.36-.048.432 1.656zm-16.56-16.1v1.56h14.76v-1.56zm30.768 5.9v1.656h9.12v6.048c0 .7-.408 1.056-1.176 1.056-.936 0-1.92-.048-2.952-.12l.36 1.656h3.192q2.3 0 2.3-2.16v-6.48h2.9v-1.66h-2.9v-2.424H204.6v2.424zm-3.168-11.64v11.948a37.852 37.852 0 0 1-5.16 3.984l.768 1.656a33.569 33.569 0 0 0 4.392-3.552v7.944h1.752V16.392zm6.216 14.28-1.272.792a33.907 33.907 0 0 1 3 4.008l1.344-.96a30.451 30.451 0 0 0-3.072-3.844zm1.68-10.92h6.24a9.61 9.61 0 0 1-3.888 3.576 26.435 26.435 0 0 0-2.52-2.088l-1.224.936a21.419 21.419 0 0 1 2.28 1.848 31.012 31.012 0 0 1-4.992 1.488l.864 1.536q9.288-2.124 11.352-7.392v-1.492h-7.008c.264-.48.5-.96.72-1.464l-1.776-.336a10.374 10.374 0 0 1-5.28 5.232l1.1 1.344a13.857 13.857 0 0 0 4.132-3.192zm-11.544-.556-1.488.6a28.384 28.384 0 0 1 2.88 5.256l1.512-.624a31.678 31.678 0 0 0-2.904-5.232zm29.472 8.376v1.68h5.5v6.624h-6.48v1.7H232.2v-1.7h-6.816v-6.624h5.736v-1.68h-5.736v-4.464h-1.752v4.464zm-3.864 1.056v9.84h1.7V26.664a29.586 29.586 0 0 0 3.36-5.3h12.84v-1.7H220.1a33.854 33.854 0 0 0 1.128-3.216l-1.8-.216a27.825 27.825 0 0 1-1.248 3.432h-6.98v1.7h6.168a27.651 27.651 0 0 1-7.008 8.5l1.08 1.416a37.176 37.176 0 0 0 2.832-2.648zm37.584 2.328h-13.68v7.512h1.68V37.44h10.32v1.032h1.68zm-12 4.92v-3.36h10.32v3.36zm1.92-15.624a17.784 17.784 0 0 1-5.856 5.4l1.1 1.344a22.794 22.794 0 0 0 3-2.256 21.738 21.738 0 0 0 3.384 2.448 47.009 47.009 0 0 1-9.624 2.424l.648 1.536A44.067 44.067 0 0 0 245.16 28.1a27.974 27.974 0 0 0 10.2 2.568l.384-1.56a29.846 29.846 0 0 1-8.784-1.9 13.124 13.124 0 0 0 4.248-3.624V22.2h-8.856c.384-.5.744-1.032 1.1-1.584zm3.408 6.168a21.571 21.571 0 0 1-4.152-2.688l.072-.072h8.04a14.37 14.37 0 0 1-3.96 2.76zm9.36-8.232h-8.856c-.288-.72-.552-1.392-.84-1.968l-1.9.288a15.561 15.561 0 0 1 .888 1.68h-8.784v4.536h1.752v-2.976h15.984v2.976h1.752zm20.712 2.856v4.68h-13.7v-4.68zm-13.7 6.36h15.456v-8.064h-7.584q-.648-1.728-1.3-3.1l-1.848.288a25.5 25.5 0 0 1 1.392 2.808h-7.824v7.512c-.048 4.3-1.032 7.8-2.976 10.488l1.272 1.152a19.888 19.888 0 0 0 3.408-11.084zM16.224 59.736a24.656 24.656 0 0 1-2.232 5.664 33.265 33.265 0 0 1-1.152-7.152h6.46v-1.44h-6.556c-.048-1.152-.1-2.328-.1-3.576h-1.58c.024 1.248.024 2.424.1 3.576h-8.02v4.56c0 5.352-.456 8.28-2.16 10.968l1.44 1.08C4.248 70.464 4.7 67.392 4.752 62.76H8.3a46.338 46.338 0 0 1-.288 4.872c-.072.384-.12.5-.84.5a11.56 11.56 0 0 1-1.728-.216l.312 1.512a8.832 8.832 0 0 0 1.728.144c1.248 0 1.872-.288 2.088-1.536a63.854 63.854 0 0 0 .312-6.672H4.776v-3.12h6.456A34.455 34.455 0 0 0 12.84 67.2a16.247 16.247 0 0 1-5.832 4.992l1.08 1.272a18.545 18.545 0 0 0 5.448-4.56 12.933 12.933 0 0 0 2.016 3.048 2.5 2.5 0 0 0 1.824.984 1.636 1.636 0 0 0 1.368-.768A9.039 9.039 0 0 0 19.8 69.5l-1.3-.888a11.431 11.431 0 0 1-.7 2.04c-.144.312-.336.432-.528.432-.24 0-.552-.312-.888-.72a12.124 12.124 0 0 1-1.728-3 27.763 27.763 0 0 0 3.048-7.056zm1.152-4.152a19.653 19.653 0 0 0-2.424-2.28l-1.152.864a14.354 14.354 0 0 1 2.3 2.4zM33.72 53.16h-1.7v4.7h-2.9v1.512H32c-.168 5.952-1.464 9.768-5.3 12.84l1.248 1.272c3.984-3.456 5.5-7.2 5.712-14.112h3.66a69.016 69.016 0 0 1-.792 11.088c-.12.624-.384 1.008-1.3 1.008a10.342 10.342 0 0 1-2.28-.312l.312 1.632a13.862 13.862 0 0 0 2.16.192c1.7 0 2.4-.288 2.712-1.824.5-2.424.744-6.936.864-13.3H33.7v-.1zm-4.1 12.1c-.96.384-2.16.792-3.456 1.2v-9.7h3.12V55.3h-7.7v1.46H24.5v10.152a41.96 41.96 0 0 1-3.312.84l.384 1.656a67.267 67.267 0 0 0 8.064-2.592zM45 53.184a29.877 29.877 0 0 1-.912 3.36H42v15.984h1.584v-1.8h3.384v1.416H48.6V61.152l1.056 1.1a17.433 17.433 0 0 0 2.592-4.032h5.016c0 5.4-.168 10.08-.792 12.36-.144.6-.432.936-1.368.936a10.874 10.874 0 0 1-2.448-.288l.48 1.7a13.506 13.506 0 0 0 2.112.192c1.44 0 2.5-.384 2.88-1.992.7-3 .768-8.136.84-14.424h-6.1a27.142 27.142 0 0 0 .936-3.264l-1.632-.288a17.376 17.376 0 0 1-3.572 7.76v-4.368h-2.928c.384-1.1.72-2.136.984-3.048zm-1.416 10.9h3.384v5.184h-3.384zm0-6.072h3.384v4.608h-3.384zm11.688 8.208a51.964 51.964 0 0 0-2.832-4.8l-1.32.816a35.977 35.977 0 0 1 2.664 4.824zm22.9 3.312V58.9h-5.236c.216-.528.48-1.056.7-1.7h5.832v-1.424h-3.48c.384-.624.816-1.32 1.224-2.04l-1.656-.552a22.246 22.246 0 0 1-1.344 2.592h-2.356c-.6-.96-1.08-1.776-1.584-2.568l-1.512.528a22.883 22.883 0 0 1 1.272 2.04H66.7v1.416h5.16c-.216.552-.336 1.056-.648 1.7h-3.388v10.636zm1.752 1.488c-2.16.192-4.608.36-6.84.36a20.113 20.113 0 0 1-5.352-.528 3.926 3.926 0 0 1-2.332-1.828v-5.28h-4.008v1.464h2.4v4.008a20.537 20.537 0 0 1-2.664 2.352l.864 1.56a31.855 31.855 0 0 0 2.688-2.784 4.777 4.777 0 0 0 2.76 1.968 23.48 23.48 0 0 0 5.928.576c.672 0 1.272 0 1.944-.024 1.488-.024 2.808-.1 4.152-.144zm-10.536-4.8h7.172v1.92h-7.176zm0-5.976h7.172v1.752h-7.176zm0 3h7.172v1.728h-7.176zm-3.768-2.592a37.936 37.936 0 0 0-3.288-2.5l-.912 1.2a39.093 39.093 0 0 1 3.168 2.616zm.648-4.584a39.425 39.425 0 0 0-3.192-2.52l-.936 1.176a33.308 33.308 0 0 1 3.048 2.64zm22.82 12.788c-.888.312-1.752.648-2.592.912v-4.3h2.04v-1.484H86.5v-2.856h2.136v-1.8l1.028 1.172a26.037 26.037 0 0 0 1.752-1.992A17.207 17.207 0 0 0 93.5 61.3a17.116 17.116 0 0 1-4.824 2.952l.768 1.488 1.008-.5v8.184h1.56V72.36h4.8v.94h1.608v-8.28h-7.56a20.483 20.483 0 0 0 3.744-2.64 17.526 17.526 0 0 0 4.608 3l.816-1.488a15.792 15.792 0 0 1-4.32-2.592 18.307 18.307 0 0 0 3.384-5.28l-1.148-.92H93.36c.216-.48.408-1.008.6-1.536l-1.608-.456a14.18 14.18 0 0 1-3.72 6.1v-5.16h-6.5v7.08h2.928V70.2a11.943 11.943 0 0 0-1.32.384V63h-1.468v7.944l-1.152.264.36 1.68a79.31 79.31 0 0 0 7.656-2.588zm2.928-2.424h4.8v4.488h-4.8zm-8.328-10.968H87.1v4.248h-3.412zm9 1.056H97.1a13.342 13.342 0 0 1-2.52 3.744 13.807 13.807 0 0 1-2.28-3.072zm26.928 15.816V70.8h-8.736v-9.072h7.776v-1.512h-7.776V53.4h-1.752v17.4H101.5v1.536zm6.048-20.04-1.128 10.536h13.656c0 4.56-.288 7.344-.84 8.328-.528.912-2.16 1.368-4.872 1.368-.48 0-1.3-.072-2.472-.168l.456 1.584c.816.048 1.608.1 2.376.1 2.928 0 4.848-.5 5.736-1.488.912-1.032 1.368-4.8 1.368-11.328h-13.488l.408-3.912h14.712v-1.66h-14.544l.336-3.216zM121.44 66.7v1.656H135V66.7zm36.048-.96c1.2 0 1.824-.672 1.824-1.992v-6.5h-1.728v6.1c0 .6-.24.912-.672.912a14.565 14.565 0 0 1-1.7-.12l.36 1.608zm-9.84-6.888v6.908h1.68v-9.168a28.063 28.063 0 0 0 2.088-3.864l-1.68-.36a21.326 21.326 0 0 1-5.328 7.392l1.08 1.32a23.9 23.9 0 0 0 2.16-2.232zm7.488-6.5a17.608 17.608 0 0 1-4.392 6.144l1.056 1.3a19.234 19.234 0 0 0 3.12-3.648h8.856a13.476 13.476 0 0 1-1.008 2.616l1.56.408a26.442 26.442 0 0 0 1.176-3.528v-1.08h-9.624c.288-.576.6-1.2.888-1.848zm-7.9 14.64a18.678 18.678 0 0 1-2.208 5.424l1.464.936a21.785 21.785 0 0 0 2.4-6.024zm11.808 7.056a2.741 2.741 0 0 0 1.92-.576c.48-.456.792-1.728.96-3.84L160.3 69.1a6.237 6.237 0 0 1-.552 2.88 1.2 1.2 0 0 1-1.032.432h-5.28c-.672 0-.984-.36-.984-1.032v-4.7H150.7v5.064c0 1.536.72 2.3 2.208 2.3zm4.08-7.8-1.416.864a44.321 44.321 0 0 1 3.5 5.688l1.416-1.008a43.575 43.575 0 0 0-3.496-5.552zm-8.64-6.7a19.382 19.382 0 0 1-3.1 4.536l1.32.912a21.357 21.357 0 0 0 3.168-4.8zm7.968-.024-1.464.624a28.86 28.86 0 0 1 3.048 4.944l1.464-.744a27.022 27.022 0 0 0-3.044-4.828zm-6.768 6.5-1.344.84a28.877 28.877 0 0 1 2.736 3.7l1.344-.936a26.468 26.468 0 0 0-2.732-3.604zm30.648 8.28c1.392 0 2.088-.792 2.088-2.352V53.328h-19.244v21.048h1.724V55.008h15.8v16.56c0 .72-.312 1.08-.912 1.08l-3.12-.072.48 1.728zm-13.68-16.536v1.608h12.312v-1.608zm1.344 4.2V69.7h9.624v-7.732zm7.944 6.192h-6.26v-4.632h6.264zm16.76-4.584v1.68h5.5v6.624h-6.48v1.7h15.04v-1.7h-6.816v-6.624h5.736v-1.68h-5.736v-4.464h-1.752v4.464zm-3.864 1.056v9.84h1.7V62.664a29.586 29.586 0 0 0 3.36-5.3h12.84v-1.7h-12.072a33.855 33.855 0 0 0 1.128-3.216l-1.8-.216a27.824 27.824 0 0 1-1.248 3.432h-6.984v1.7h6.168a27.651 27.651 0 0 1-7.008 8.5l1.08 1.408a37.178 37.178 0 0 0 2.832-2.64zm22.488 4.92a2.736 2.736 0 1 0 2.76 2.736 2.7 2.7 0 0 0-2.764-2.736zm0 .744a1.992 1.992 0 0 1 0 3.984 1.967 1.967 0 0 1-1.968-1.992 1.938 1.938 0 0 1 1.964-1.988z" transform="translate(14.016 32.041)" style="fill:#fff"/>
    </g>
</svg>
