<svg xmlns="http://www.w3.org/2000/svg" width="907.552" height="149.746" viewBox="0 0 907.552 149.746">
    <defs>
        <filter id="a" x="0" y="0" width="901.872" height="149.746" filterUnits="userSpaceOnUse">
            <feOffset/>
            <feGaussianBlur stdDeviation="5" result="blur"/>
            <feFlood flood-opacity=".161"/>
            <feComposite operator="in" in2="blur"/>
            <feComposite in="SourceGraphic"/>
        </filter>
    </defs>
    <g style="filter:url(#a)">
        <path data-name="패스 7283" d="m30.816.384.1-27.84c0-3.984.432-4.272 3.648-4.56v-1.3h-9.412v1.3c3.12.288 3.6.576 3.6 4.56v20.592h-.48L8.16-33.312H2.64v1.3c2.544.432 3.792 1.2 3.792 5.184v21.212c0 3.984-.336 4.32-3.7 4.56V.288h9.7v-1.344c-3.408-.24-3.84-.528-3.84-4.56v-20.5h.528L29.184.384zM52.9-3.552c0 2.016.624 4.176 2.256 4.176a8.9 8.9 0 0 0 4.128-1.3v-1.148c-.72.048-.864.1-1.68.1s-1.392-.288-1.392-2.016v-13.92c0-4.416-2.256-6.816-7.248-6.816-3.456 0-9.456 2.016-9.12 6.192.144 1.872 2.544 2.016 3.7.816-.048-.96-.192-2.784.864-3.984a4.586 4.586 0 0 1 3.36-1.3c3.5-.1 5.088 2.592 5.088 5.232v2.448c-5.136 0-14.448 2.928-14.448 9.36 0 4.9 3.744 6.336 6.528 6.336 2.248 0 6.232-1.584 7.964-4.176zm-6.1 1.536c-2.592.1-4.656-.672-4.656-4.224 0-4.752 7.248-7.008 10.7-7.008v8.112a9.431 9.431 0 0 1-6.044 3.12zm35.568-1.632v-14.208c1.392-1.872 4.272-3.84 6.576-3.792 3.36.048 4.848 2.3 4.848 5.856v12.48c0 1.68-1.248 2.112-2.784 2.16V.24C92.5.192 93.936.192 95.328.192c1.44 0 3.168 0 4.752.048v-1.392c-1.488-.048-2.928-.864-2.928-2.5v-14.16c0-3.888-2.64-6.48-6.048-6.528-3.984-.1-7.008 2.544-8.5 4.272h-.576a5.407 5.407 0 0 0-5.328-4.268c-4.128-.1-6.624 3.072-8.064 4.8h-.432v-4.224c0-.432-.336-.528-.768-.432l-5.28 1.536v1.2h.672c1.584 0 2.16.384 2.16 2.592v15.552c0 1.68-1.248 2.112-2.736 2.16V.24C63.7.192 65.28.192 66.768.192c1.344 0 2.928 0 4.56.048v-1.392c-1.536-.048-2.976-.864-2.976-2.5V-16.8c1.3-2.064 3.648-4.9 6.384-4.848 3.312.048 4.272 2.3 4.272 5.856v12.48c0 1.68-1.2 2.112-2.736 2.16V.24C77.76.192 79.3.192 80.688.192c1.44 0 3.024 0 4.608.048v-1.392c-1.488-.048-2.928-.864-2.928-2.496zM148.32-19.44h-8.64v1.392c1.776 0 2.112.432 2.112 1.2a21.64 21.64 0 0 1-3.216 8.832c-3.072-2.976-7.824-7.92-10.848-11.28 5.76-2.208 8.3-4.7 8.352-8.5.048-4.08-4.08-6.24-7.44-6.288-4.8-.1-8.976 2.448-8.976 7.344 0 2.784.912 4.416 3.792 7.536-5.376 2.928-7.3 6.864-7.3 10.944 0 5.856 4.944 9.312 10.176 9.312A15.327 15.327 0 0 0 137.9-4.08C141.74-.528 142.316 0 146.2 0h2.016v-1.3c-1.968-.384-3.5-.624-8.352-5.424a43.339 43.339 0 0 0 3.408-6.672c1.584-3.936 2.16-4.512 5.04-4.656zm-20.688 18a7.582 7.582 0 0 1-7.824-7.44 9.84 9.84 0 0 1 4.9-9.024c3.408 3.6 8.544 9.216 11.952 12.576a12.125 12.125 0 0 1-9.028 3.888zm-1.2-19.056c-1.824-1.92-3.408-3.552-3.36-6.912A4.9 4.9 0 0 1 128.3-32.5c3.216.048 4.8 2.016 4.8 4.56 0 3.316-2.54 5.668-6.668 7.44zm65.9 20.88.1-27.84c0-3.984.432-4.272 3.648-4.56v-1.3h-9.408v1.3c3.12.288 3.6.576 3.6 4.56v20.592h-.48L169.68-33.312h-5.52v1.3c2.544.432 3.792 1.2 3.792 5.184v21.212c0 3.984-.336 4.32-3.7 4.56V.288h9.7v-1.344c-3.408-.24-3.84-.528-3.84-4.56v-20.5h.528L190.7.384zm22.08-3.936c0 2.016.624 4.176 2.256 4.176a8.9 8.9 0 0 0 4.128-1.3v-1.148c-.72.048-.864.1-1.68.1s-1.392-.288-1.392-2.016v-13.92c0-4.416-2.256-6.816-7.248-6.816-3.456 0-9.456 2.016-9.12 6.192.144 1.872 2.544 2.016 3.7.816-.048-.96-.192-2.784.864-3.984a4.586 4.586 0 0 1 3.36-1.3c3.5-.1 5.088 2.592 5.088 5.232v2.448c-5.136 0-14.448 2.928-14.448 9.36 0 4.9 3.744 6.336 6.528 6.336 2.252 0 6.24-1.584 7.968-4.176zm-6.1 1.536c-2.592.1-4.656-.672-4.656-4.224 0-4.752 7.248-7.008 10.7-7.008v8.112a9.431 9.431 0 0 1-6.036 3.12zm35.568-1.632v-14.208c1.392-1.872 4.272-3.84 6.576-3.792 3.36.048 4.848 2.3 4.848 5.856v12.48c0 1.68-1.248 2.112-2.784 2.16V.24c1.488-.048 2.928-.048 4.32-.048 1.44 0 3.168 0 4.752.048v-1.392c-1.488-.048-2.928-.864-2.928-2.5v-14.16c0-3.888-2.64-6.48-6.048-6.528-3.984-.1-7.008 2.544-8.5 4.272h-.576a5.407 5.407 0 0 0-5.328-4.272c-4.128-.1-6.624 3.072-8.064 4.8h-.432v-4.22c0-.432-.336-.528-.768-.432l-5.28 1.536v1.2h.672c1.584 0 2.16.384 2.16 2.592v15.552c0 1.68-1.248 2.112-2.736 2.16V.24c1.44-.048 3.024-.048 4.512-.048 1.344 0 2.928 0 4.56.048v-1.392c-1.536-.048-2.976-.864-2.976-2.5V-16.8c1.3-2.064 3.648-4.9 6.384-4.848 3.312.048 4.272 2.3 4.272 5.856v12.48c0 1.68-1.2 2.112-2.736 2.16V.24c1.488-.048 3.024-.048 4.416-.048 1.44 0 3.024 0 4.608.048v-1.392c-1.476-.048-2.916-.864-2.916-2.496zM287.76.288v-1.344c-3.408-.24-3.792-.528-3.792-4.56v-21.84c0-3.984.384-4.272 3.648-4.56v-1.3h-10.752v1.3c3.12.288 3.648.576 3.648 4.56v21.84c0 3.984-.384 4.32-3.792 4.56V.288zm25.2-17.9a6.365 6.365 0 0 0-6.48-6.72c-4.08-.1-7.1 2.832-8.592 4.512h-.388v-3.94c0-.432-.336-.528-.816-.432l-5.328 1.536v1.2h.672c1.584 0 2.16.384 2.16 2.592v15.552c0 1.68-1.2 2.112-2.736 2.16V.24c1.488-.048 2.928-.048 4.416-.048 1.392 0 2.928 0 4.56.048v-1.392c-1.536-.048-2.928-.864-2.928-2.5V-16.8c1.248-2.064 4.368-4.9 7.1-4.848 3.312.048 5.04 2.5 5.04 6.048v12.288c0 1.68-1.2 2.112-2.736 2.16V.24c1.488-.048 2.88-.048 4.32-.048s2.976 0 4.608.048v-1.392c-1.536-.048-2.88-.864-2.88-2.5zm8.3-2.784V-5.52c0 4.992 1.872 6.144 4.032 6.144A14.562 14.562 0 0 0 331.44-1.2l-.192-1.248a21.637 21.637 0 0 1-4.368.336c-1.632-.192-2.256-1.776-2.256-4.7v-14.4h6.624v-2.208h-6.624v-6.34c0-.24-.144-.336-.336-.288l-2.832 1.248v4.992l-4.416 1.2v1.344h3.26c.58 0 .964.144.964.864zm12.576 8.736c0 7.056 4.224 12.288 10.9 12.288a13.237 13.237 0 0 0 9.312-3.792l-.768-1.2a11.769 11.769 0 0 1-6.816 2.208c-5.568 0-9.168-3.648-9.168-10.992l16.848-.1a15.6 15.6 0 0 0 .1-1.584c0-5.328-3.552-9.648-8.976-9.648-6.34 0-11.428 5.472-11.428 12.816zm10.7-10.608c3.648 0 5.952 3.12 5.952 6.816l-13.056.288c.488-4.18 2.888-7.108 7.112-7.108zm19.008-1.536c0-.48-.336-.576-.816-.48L357.36-22.7v1.2h.576c1.584.1 2.256.384 2.256 2.592v15.7c0 1.536-1.248 2.112-2.736 2.16V.24c1.44-.1 2.976-.1 4.56-.1 1.536 0 3.12 0 4.752.1v-1.3c-1.536-.144-3.216-.624-3.216-2.544v-13.868a8.246 8.246 0 0 1 5.088-3.264 4.2 4.2 0 0 1 2.928.768 2.453 2.453 0 0 0 1.632-2.256c0-1.248-1.1-2.16-3.072-2.16-2.784 0-5.424 3.312-6.192 4.992h-.384zm32.928 6.192a6.365 6.365 0 0 0-6.48-6.72c-4.08-.1-7.1 2.832-8.592 4.512h-.384v-3.94c0-.432-.336-.528-.816-.432l-5.328 1.536v1.2h.672c1.584 0 2.16.384 2.16 2.592v15.552c0 1.68-1.2 2.112-2.736 2.16V.24c1.488-.048 2.928-.048 4.416-.048 1.392 0 2.928 0 4.56.048v-1.392c-1.536-.048-2.928-.864-2.928-2.5V-16.8c1.248-2.064 4.368-4.9 7.1-4.848 3.312.048 5.04 2.5 5.04 6.048v12.288c0 1.68-1.2 2.112-2.736 2.16V.24c1.488-.048 2.88-.048 4.32-.048s2.976 0 4.608.048v-1.392c-1.536-.048-2.88-.864-2.88-2.5zM416.5-3.552c0 2.016.624 4.176 2.256 4.176a8.9 8.9 0 0 0 4.128-1.3v-1.148c-.72.048-.864.1-1.68.1s-1.392-.288-1.392-2.016v-13.92c0-4.416-2.256-6.816-7.248-6.816-3.456 0-9.456 2.016-9.12 6.192.144 1.872 2.544 2.016 3.7.816-.048-.96-.192-2.784.864-3.984a4.586 4.586 0 0 1 3.36-1.3c3.5-.1 5.088 2.592 5.088 5.232v2.448c-5.136 0-14.448 2.928-14.448 9.36 0 4.9 3.744 6.336 6.528 6.336 2.248 0 6.232-1.584 7.964-4.176zm-6.1 1.536c-2.592.1-4.656-.672-4.656-4.224 0-4.752 7.248-7.008 10.7-7.008v8.112a9.431 9.431 0 0 1-6.044 3.12zM428.544-20.4v14.88c0 4.992 1.872 6.144 4.032 6.144A14.562 14.562 0 0 0 438.72-1.2l-.192-1.248a21.637 21.637 0 0 1-4.368.336c-1.632-.192-2.256-1.776-2.256-4.7v-14.4h6.624v-2.208H431.9v-6.34c0-.24-.144-.336-.336-.288l-2.828 1.248v4.992l-4.416 1.2v1.344h3.264c.576 0 .96.144.96.864zm17.136-9.984a2.457 2.457 0 0 0 2.592-2.544 2.524 2.524 0 0 0-2.544-2.736 2.626 2.626 0 0 0-2.64 2.736 2.541 2.541 0 0 0 2.592 2.544zm2.112 6.576c0-.432-.288-.528-.768-.432L441.6-22.7v1.248h.768c1.584 0 2.064.336 2.064 2.544V-3.12c0 1.536-1.344 2.112-2.784 2.16V.384c1.392-.048 3.168-.1 4.752-.1 1.488 0 3.168.048 4.8.1V-.96c-1.536-.144-3.408-.48-3.408-2.4zm17.616-.672c-6.432 0-11.664 5.232-11.76 12.768C453.6-4.032 458.5.624 464.736.624c6.72 0 11.568-5.328 11.664-12.816 0-7.536-4.9-12.288-10.992-12.288zm7.392 13.2c0 4.464-1.488 9.7-7.152 9.7-5.568 0-8.4-5.568-8.5-10.848-.1-6.432 2.976-9.888 7.2-9.888 6.1-.004 8.352 6.044 8.452 11.036zm28.32-6.336a6.365 6.365 0 0 0-6.48-6.72c-4.08-.1-7.1 2.832-8.592 4.512h-.384v-3.936c0-.432-.336-.528-.816-.432l-5.328 1.536v1.2h.672c1.584 0 2.16.384 2.16 2.592v15.552c0 1.68-1.2 2.112-2.736 2.16V.24c1.488-.048 2.928-.048 4.416-.048 1.392 0 2.928 0 4.56.048v-1.392c-1.536-.048-2.928-.864-2.928-2.5V-16.8c1.248-2.064 4.368-4.9 7.1-4.848 3.312.048 5.04 2.5 5.04 6.048v12.288c0 1.68-1.2 2.112-2.736 2.16V.24c1.488-.048 2.88-.048 4.32-.048s2.976 0 4.608.048v-1.392c-1.536-.048-2.88-.864-2.88-2.5zm20.016 14.064c0 2.016.624 4.176 2.256 4.176a8.9 8.9 0 0 0 4.128-1.3v-1.148c-.72.048-.864.1-1.68.1s-1.392-.288-1.392-2.016v-13.92c0-4.416-2.256-6.816-7.248-6.816-3.456 0-9.456 2.016-9.12 6.192.144 1.872 2.544 2.016 3.7.816-.048-.96-.192-2.784.864-3.984a4.586 4.586 0 0 1 3.36-1.3c3.5-.1 5.088 2.592 5.088 5.232v2.448c-5.136 0-14.448 2.928-14.448 9.36 0 4.9 3.744 6.336 6.528 6.336 2.252 0 6.236-1.584 7.964-4.176zm-6.1 1.536c-2.592.1-4.656-.672-4.656-4.224 0-4.752 7.248-7.008 10.7-7.008v8.112a9.431 9.431 0 0 1-6.04 3.12zm21.6-34.224c0-.432-.336-.528-.768-.432L530.4-35.04v1.2h.672c1.584 0 2.112.384 2.112 2.5v28.124c0 1.68-1.2 2.208-2.688 2.208V.384c1.44-.048 2.928-.1 4.416-.1 1.344 0 2.976.048 4.608.1v-1.392a2.7 2.7 0 0 1-2.976-2.544zm50.4 12.432c-2.832.1-4.416.048-7.248 0v1.3c2.208 0 2.3.672 1.92 2.352-1.056 4.416-2.3 8.736-3.456 13.056h-.624a1162.87 1162.87 0 0 1-5.76-16.656h-1.3L564.72-6.912h-.672l-3.792-13.536c-.528-1.824.336-1.92 1.728-2.064v-1.3c-3.12.1-5.376.048-8.544 0v1.3c2.112.24 2.928.816 3.7 3.552 1.92 6.336 3.984 12.672 5.712 19.152H564c2.016-5.52 4.416-12.144 6.192-17.76h.432c2.16 5.52 4.464 12.24 6.24 17.76h.912c2.352-6.528 3.888-12.672 5.808-19.2.768-2.592 1.776-3.264 3.456-3.5zm6.48-6.576a2.457 2.457 0 0 0 2.592-2.544 2.524 2.524 0 0 0-2.544-2.736 2.626 2.626 0 0 0-2.64 2.736 2.541 2.541 0 0 0 2.596 2.544zm2.112 6.576c0-.432-.288-.528-.768-.432l-5.42 1.54v1.248h.768c1.584 0 2.064.336 2.064 2.544V-3.12c0 1.536-1.344 2.112-2.784 2.16V.384c1.392-.048 3.168-.1 4.752-.1 1.488 0 3.168.048 4.8.1V-.96c-1.536-.144-3.408-.48-3.408-2.4zM607.92-36.24c0-.432-.336-.528-.768-.432l-5.472 1.632v1.2h.672c1.584 0 2.112.384 2.112 2.5v28.124c0 1.68-1.2 2.208-2.688 2.208V.384c1.44-.048 2.928-.1 4.416-.1 1.344 0 2.976.048 4.608.1v-1.392a2.7 2.7 0 0 1-2.976-2.544zm12.48 0c0-.432-.336-.528-.768-.432l-5.472 1.632v1.2h.672c1.584 0 2.112.384 2.112 2.5v28.124c0 1.68-1.2 2.208-2.688 2.208V.384c1.44-.048 2.928-.1 4.416-.1 1.344 0 2.976.048 4.608.1v-1.392a2.7 2.7 0 0 1-2.98-2.544zM643.056-.912a9.288 9.288 0 0 0 4.9 1.344 12.827 12.827 0 0 0 12.524-13.248c0-8.208-4.272-11.328-8.88-11.328-2.784 0-6.24 2.592-6.864 3.36h-.336V-36.24c0-.432-.336-.528-.816-.432l-5.424 1.632v1.2h.624c1.632 0 2.208.384 2.208 2.5v22.8a53.352 53.352 0 0 1-.624 8.54l1.2.432zm1.3-17.616c1.152-1.584 4.416-2.832 5.856-2.832 4.752 0 7.008 3.984 6.912 9.888-.1 6.72-4.272 9.744-7.968 9.744-1.824 0-4.176-.576-4.8-2.976zm18.768 6.864c0 7.056 4.224 12.288 10.9 12.288a13.237 13.237 0 0 0 9.312-3.792l-.768-1.2a11.769 11.769 0 0 1-6.816 2.208c-5.568 0-9.168-3.648-9.168-10.992l16.848-.1a15.6 15.6 0 0 0 .1-1.584c0-5.328-3.552-9.648-8.976-9.648-6.348.004-11.436 5.476-11.436 12.82zm10.7-10.608c3.648 0 5.952 3.12 5.952 6.816l-13.056.288c.48-4.176 2.88-7.104 7.104-7.104zm57.216-1.536c-2.832.1-4.416.048-7.248 0v1.3c2.208 0 2.3.672 1.92 2.352-1.056 4.416-2.3 8.736-3.456 13.056h-.624a1162.87 1162.87 0 0 1-5.76-16.656h-1.3L708.72-6.912h-.672l-3.792-13.536c-.528-1.824.336-1.92 1.728-2.064v-1.3c-3.12.1-5.376.048-8.544 0v1.3c2.112.24 2.928.816 3.7 3.552 1.92 6.336 3.984 12.672 5.712 19.152H708c2.016-5.52 4.416-12.144 6.192-17.76h.432c2.16 5.52 4.464 12.24 6.24 17.76h.912c2.352-6.528 3.888-12.672 5.808-19.2.768-2.592 1.776-3.264 3.456-3.5zm6.48-6.576a2.457 2.457 0 0 0 2.592-2.544 2.524 2.524 0 0 0-2.544-2.736 2.626 2.626 0 0 0-2.64 2.736 2.541 2.541 0 0 0 2.592 2.544zm2.112 6.576c0-.432-.288-.528-.768-.432l-5.424 1.54v1.248h.768c1.584 0 2.064.336 2.064 2.544V-3.12c0 1.536-1.344 2.112-2.784 2.16V.384c1.392-.048 3.168-.1 4.752-.1 1.488 0 3.168.048 4.8.1V-.96c-1.536-.144-3.408-.48-3.408-2.4zm8.832 3.408v14.88c0 4.992 1.872 6.144 4.032 6.144A14.562 14.562 0 0 0 758.64-1.2l-.192-1.248a21.638 21.638 0 0 1-4.368.336c-1.632-.192-2.256-1.776-2.256-4.7v-14.4h6.624v-2.208h-6.624v-6.34c0-.24-.144-.336-.336-.288l-2.832 1.248v4.992l-4.416 1.2v1.344h3.26c.58 0 .964.144.964.864zm34.416 2.832a6.512 6.512 0 0 0-6.72-6.672c-4.08-.048-6.72 2.832-8.208 4.608h-.384V-36.24c0-.432-.336-.528-.816-.432l-5.472 1.632v1.2h.672c1.584 0 2.16.384 2.16 2.5v28.124c0 1.68-1.2 2.208-2.736 2.208V.384c1.488-.048 2.976-.1 4.464-.1 1.392 0 2.928.048 4.56.1v-1.392c-1.536 0-2.928-.72-2.928-2.352V-16.7c1.248-2.064 4.08-4.9 6.816-4.848 3.168.048 5.232 2.3 5.232 6.1v12.24c0 1.68-1.2 2.208-2.736 2.208V.384c1.488-.048 2.88-.1 4.32-.1s3.024.048 4.656.1v-1.392c-1.536 0-2.88-.72-2.88-2.352zM802.9 9.024c0 1.488.72 2.592 2.112 2.592 1.1 0 2.064-.864 3.12-2.736a103.218 103.218 0 0 0 4.988-11.04c2.3-5.664 4.608-11.472 6.72-17.04.96-2.448 1.728-3.072 3.36-3.264v-1.392c-1.968.048-3.5.1-5.088.1-.768 0-1.584 0-2.448-.048v1.392c1.632.1 2.208.576 2.208 1.392a4.689 4.689 0 0 1-.24 1.248c-1.584 5.04-3.36 9.648-5.376 14.592h-.48l-5.856-14.64a3.1 3.1 0 0 1-.288-1.2c0-.768.528-1.3 1.824-1.44v-1.392c-1.728.048-3.024.1-4.608.1-1.2 0-2.4-.048-3.888-.1v1.392c2.112.24 2.448.816 3.648 3.408L810.384-1.1c-2.16 6.572-5.904 9.164-7.484 10.124zm33.552-33.5c-6.432 0-11.664 5.232-11.76 12.768C824.64-4.032 829.536.624 835.776.624c6.72 0 11.568-5.328 11.664-12.816 0-7.536-4.896-12.288-10.992-12.288zm7.392 13.2c0 4.464-1.488 9.7-7.152 9.7-5.568 0-8.4-5.568-8.5-10.848-.1-6.432 2.976-9.888 7.2-9.888 6.096-.008 8.352 6.04 8.448 11.032zm9.312-7.968v12.96a6.965 6.965 0 0 0 6.668 6.908c4.08.048 6.768-2.784 8.256-4.464h.192l.1 3.792c0 .48.336.624.816.48l5.136-1.584v-1.2h-.624c-1.584 0-2.064-.384-2.064-2.592V-23.9c0-.528-.192-.624-.672-.528l-6 1.392v1.248h.96c1.776.048 2.352.432 2.352 2.544V-6.48c-1.344 2.064-3.984 4.368-6.48 4.32-3.168-.048-5.328-1.632-5.328-5.856V-23.9c0-.528-.144-.624-.624-.528l-5.52 1.392v1.248h.672c1.724.044 2.156.428 2.156 2.54zM14.208 47.52c-6.432 0-11.664 5.232-11.76 12.768C2.4 67.968 7.3 72.624 13.536 72.624c6.72 0 11.568-5.328 11.664-12.816 0-7.536-4.9-12.288-10.992-12.288zm7.392 13.2c0 4.464-1.488 9.7-7.152 9.7-5.568 0-8.4-5.568-8.5-10.848-.1-6.432 2.976-9.888 7.2-9.888 6.1-.004 8.352 6.044 8.452 11.036zm28.32-6.336a6.365 6.365 0 0 0-6.48-6.72c-4.08-.1-7.1 2.832-8.592 4.512h-.384V48.24c0-.432-.336-.528-.816-.432l-5.328 1.536v1.2h.672c1.584 0 2.16.384 2.16 2.592v15.552c0 1.68-1.2 2.112-2.736 2.16v1.392c1.488-.048 2.928-.048 4.416-.048 1.392 0 2.928 0 4.56.048v-1.392c-1.536-.048-2.928-.864-2.928-2.5V55.2c1.248-2.064 4.368-4.9 7.1-4.848 3.312.048 5.04 2.5 5.04 6.048v12.288c0 1.68-1.2 2.112-2.736 2.16v1.392c1.488-.048 2.88-.048 4.32-.048s2.976 0 4.608.048v-1.392c-1.536-.048-2.88-.864-2.88-2.5zm20.3-2.784v14.88c0 4.992 1.872 6.144 4.032 6.144A14.562 14.562 0 0 0 80.4 70.8l-.192-1.248a21.638 21.638 0 0 1-4.368.336c-1.632-.192-2.256-1.776-2.256-4.7v-14.4h6.624v-2.212h-6.624V42.24c0-.24-.144-.336-.336-.288L70.416 43.2v4.992L66 49.392v1.344h3.264c.576 0 .96.144.96.864zm34.416 2.832a6.512 6.512 0 0 0-6.72-6.672c-4.08-.048-6.72 2.832-8.208 4.608h-.384V35.76c0-.432-.336-.528-.816-.432L83.04 36.96v1.2h.672c1.584 0 2.16.384 2.16 2.5v28.124c0 1.68-1.2 2.208-2.736 2.208v1.392c1.488-.048 2.976-.1 4.464-.1 1.392 0 2.928.048 4.56.1v-1.392c-1.536 0-2.928-.72-2.928-2.352V55.3c1.248-2.064 4.08-4.9 6.816-4.848 3.168.048 5.232 2.3 5.232 6.1v12.24c0 1.68-1.2 2.208-2.736 2.208v1.392c1.488-.048 2.88-.1 4.32-.1s3.024.048 4.656.1v-1.4c-1.536 0-2.88-.72-2.88-2.352zm5.52 5.9c0 7.056 4.224 12.288 10.9 12.288a13.237 13.237 0 0 0 9.312-3.792l-.768-1.2a11.769 11.769 0 0 1-6.816 2.208c-5.568 0-9.168-3.648-9.168-10.992l16.848-.1a15.609 15.609 0 0 0 .1-1.584c0-5.328-3.552-9.648-8.976-9.648-6.34.008-11.428 5.48-11.428 12.824zm10.7-10.608c3.648 0 5.952 3.12 5.952 6.816l-13.056.288c.488-4.172 2.888-7.1 7.112-7.1zM156 72.144a12.763 12.763 0 0 0 12.48-13.152c0-8.208-4.272-11.424-8.88-11.424-2.784 0-6.24 2.688-6.864 3.456h-.384l.048-3.072c0-.48-.336-.576-.816-.48L146.16 49.1v1.2h.624c1.632 0 2.16.384 2.16 2.544v10.42l.048 15.936c0 1.92-1.536 2.352-3.072 2.5v1.34c1.632-.048 3.168-.1 4.7-.1 1.584 0 3.36.048 4.8.1V81.7c-1.488-.048-3.024-.864-3.024-2.4v-7.92a8.368 8.368 0 0 0 3.604.764zm-3.7-18.864c1.152-1.68 4.224-2.832 5.664-2.832 5.04 0 7.3 3.984 7.2 9.888-.1 6.624-4.368 9.744-8.016 9.744-1.824 0-4.224-.336-4.848-2.832zm33.8 15.168c0 2.016.624 4.176 2.256 4.176a8.9 8.9 0 0 0 4.128-1.3v-1.148c-.72.048-.864.1-1.68.1s-1.392-.288-1.392-2.016V54.336c0-4.416-2.256-6.816-7.248-6.816-3.456 0-9.456 2.016-9.12 6.192.144 1.872 2.544 2.016 3.7.816-.048-.96-.192-2.784.864-3.984a4.586 4.586 0 0 1 3.36-1.3c3.5-.1 5.088 2.592 5.088 5.232v2.448c-5.136 0-14.448 2.928-14.448 9.36 0 4.9 3.744 6.336 6.528 6.336 2.248.004 6.232-1.58 7.964-4.172zm-6.1 1.536c-2.592.1-4.656-.672-4.656-4.224 0-4.752 7.248-7.008 10.7-7.008v8.112a9.431 9.431 0 0 1-6.044 3.12zM198.144 51.6v14.88c0 4.992 1.872 6.144 4.032 6.144a14.562 14.562 0 0 0 6.144-1.824l-.192-1.248a21.638 21.638 0 0 1-4.368.336c-1.632-.192-2.256-1.776-2.256-4.7v-14.4h6.624v-2.212H201.5V42.24c0-.24-.144-.336-.336-.288l-2.828 1.248v4.992l-4.416 1.2v1.344h3.264c.576 0 .96.144.96.864zm34.416 2.832a6.512 6.512 0 0 0-6.72-6.672c-4.08-.048-6.72 2.832-8.208 4.608h-.384V35.76c0-.432-.336-.528-.816-.432l-5.472 1.632v1.2h.672c1.584 0 2.16.384 2.16 2.5v28.124c0 1.68-1.2 2.208-2.736 2.208v1.392c1.488-.048 2.976-.1 4.464-.1 1.392 0 2.928.048 4.56.1v-1.392c-1.536 0-2.928-.72-2.928-2.352V55.3c1.248-2.064 4.08-4.9 6.816-4.848 3.168.048 5.232 2.3 5.232 6.1v12.24c0 1.68-1.2 2.208-2.736 2.208v1.392c1.488-.048 2.88-.1 4.32-.1s3.024.048 4.656.1v-1.4c-1.536 0-2.88-.72-2.88-2.352zm20.784-2.832v14.88c0 4.992 1.872 6.144 4.032 6.144a14.562 14.562 0 0 0 6.144-1.824l-.192-1.248a21.638 21.638 0 0 1-4.368.336c-1.632-.192-2.256-1.776-2.256-4.7v-14.4h6.624v-2.212H256.7V42.24c0-.24-.144-.336-.336-.288l-2.828 1.248v4.992l-4.416 1.2v1.344h3.264c.576 0 .96.144.96.864zm24.624-4.08c-6.432 0-11.664 5.232-11.76 12.768-.048 7.68 4.848 12.336 11.088 12.336 6.72 0 11.568-5.328 11.664-12.816 0-7.536-4.896-12.288-10.992-12.288zm7.392 13.2c0 4.464-1.488 9.7-7.152 9.7-5.568 0-8.4-5.568-8.5-10.848-.1-6.432 2.976-9.888 7.2-9.888 6.1-.004 8.356 6.044 8.452 11.036zm18.24.1c0 7.056 4.7 11.808 10.944 11.808a11.5 11.5 0 0 0 8.736-3.5l-.72-1.1a11.394 11.394 0 0 1-6.144 1.776c-6.144.048-9.456-4.032-9.456-10.416 0-5.376 3.7-9.552 7.968-9.552a5.035 5.035 0 0 1 4.848 3.36 2.31 2.31 0 0 0 2.736-2.352c0-2.16-2.4-3.312-5.664-3.312A13.275 13.275 0 0 0 303.6 60.816zm24.672-8.064v12.96a6.965 6.965 0 0 0 6.672 6.912c4.08.048 6.768-2.784 8.256-4.464h.192l.1 3.792c0 .48.336.624.816.48l5.136-1.584v-1.2h-.624c-1.584 0-2.064-.384-2.064-2.592V48.1c0-.528-.192-.624-.672-.528l-6 1.392v1.248h.96c1.776.048 2.352.432 2.352 2.544V65.52c-1.344 2.064-3.984 4.368-6.48 4.32-3.168-.048-5.328-1.632-5.328-5.856V48.1c0-.528-.144-.624-.624-.528l-5.52 1.392v1.248h.672c1.724.044 2.156.428 2.156 2.54zM352.56 64.9c0 1.152.1 4.512.288 5.856a12.464 12.464 0 0 0 6.672 1.824c6.1 0 9.12-3.7 9.12-7.152 0-7.776-12.24-5.856-12.288-12a4.165 4.165 0 0 1 4.32-4.128c3.216.144 4.848 1.776 5.328 4.416l1.1-.144.288-4.176a12.01 12.01 0 0 0-6.188-1.876c-5.664 0-7.92 3.648-7.92 6.672 0 7.584 11.808 5.568 11.808 12.192 0 2.448-2.256 4.464-5.376 4.464-3.6-.144-5.424-2.784-5.952-6.048zm21.984-13.3v14.88c0 4.992 1.872 6.144 4.032 6.144a14.562 14.562 0 0 0 6.144-1.824l-.192-1.248a21.638 21.638 0 0 1-4.368.336c-1.632-.192-2.256-1.776-2.256-4.7v-14.4h6.624v-2.212H377.9V42.24c0-.24-.144-.336-.336-.288l-2.828 1.248v4.992l-4.416 1.2v1.344h3.264c.576 0 .96.144.96.864zm24.624-4.08c-6.432 0-11.664 5.232-11.76 12.768-.048 7.68 4.848 12.336 11.088 12.336 6.72 0 11.568-5.328 11.664-12.816 0-7.536-4.896-12.288-10.992-12.288zm7.392 13.2c0 4.464-1.488 9.7-7.152 9.7-5.568 0-8.4-5.568-8.5-10.848-.1-6.432 2.976-9.888 7.2-9.888 6.1-.004 8.356 6.044 8.452 11.036zm27.168 7.632V54.144c1.392-1.872 4.272-3.84 6.576-3.792 3.36.048 4.848 2.3 4.848 5.856v12.48c0 1.68-1.248 2.112-2.784 2.16v1.392c1.488-.048 2.928-.048 4.32-.048 1.44 0 3.168 0 4.752.048v-1.392c-1.488-.048-2.928-.864-2.928-2.5V54.192c0-3.888-2.64-6.48-6.048-6.528-3.984-.1-7.008 2.544-8.5 4.272h-.576a5.407 5.407 0 0 0-5.328-4.272c-4.128-.1-6.624 3.072-8.064 4.8h-.432V48.24c0-.432-.336-.528-.768-.432l-5.28 1.536v1.2h.672c1.584 0 2.16.384 2.16 2.592v15.552c0 1.68-1.248 2.112-2.736 2.16v1.392c1.44-.048 3.024-.048 4.512-.048 1.344 0 2.928 0 4.56.048v-1.392c-1.536-.048-2.976-.864-2.976-2.5V55.2c1.3-2.064 3.648-4.9 6.384-4.848 3.312.048 4.272 2.3 4.272 5.856v12.48c0 1.68-1.2 2.112-2.736 2.16v1.392c1.488-.048 3.024-.048 4.416-.048 1.44 0 3.024 0 4.608.048v-1.392c-1.484-.048-2.924-.864-2.924-2.496zm20.352-8.016c0 7.056 4.224 12.288 10.9 12.288a13.237 13.237 0 0 0 9.312-3.792l-.768-1.2a11.769 11.769 0 0 1-6.824 2.208c-5.568 0-9.168-3.648-9.168-10.992l16.848-.1a15.6 15.6 0 0 0 .1-1.584c0-5.328-3.552-9.648-8.976-9.648-6.336.004-11.424 5.476-11.424 12.82zm10.7-10.608c3.648 0 5.952 3.12 5.952 6.816l-13.056.288c.484-4.176 2.884-7.104 7.108-7.104zm19.008-1.536c0-.48-.336-.576-.816-.48L477.6 49.3v1.2h.576c1.584.1 2.256.384 2.256 2.592v15.7c0 1.536-1.248 2.112-2.736 2.16v1.3c1.44-.1 2.976-.1 4.56-.1 1.536 0 3.12 0 4.752.1v-1.3c-1.536-.144-3.216-.624-3.216-2.544v-13.88a8.246 8.246 0 0 1 5.088-3.264 4.2 4.2 0 0 1 2.928.768 2.453 2.453 0 0 0 1.632-2.256c0-1.248-1.1-2.16-3.072-2.16-2.784 0-5.424 3.312-6.192 4.992h-.384zM507.36 64.9c0 1.152.1 4.512.288 5.856a12.464 12.464 0 0 0 6.672 1.824c6.1 0 9.12-3.7 9.12-7.152 0-7.776-12.24-5.856-12.288-12a4.165 4.165 0 0 1 4.32-4.128c3.216.144 4.848 1.776 5.328 4.416l1.1-.144.288-4.176A12.01 12.01 0 0 0 516 47.52c-5.664 0-7.92 3.648-7.92 6.672 0 7.584 11.808 5.568 11.808 12.192 0 2.448-2.256 4.464-5.376 4.464-3.6-.144-5.424-2.784-5.952-6.048zm21.552-12.144v12.96a6.965 6.965 0 0 0 6.672 6.912c4.08.048 6.768-2.784 8.256-4.464h.192l.1 3.792c0 .48.336.624.816.48l5.136-1.584v-1.2h-.624c-1.584 0-2.064-.384-2.064-2.592V48.1c0-.528-.192-.624-.672-.528l-6 1.392v1.248h.96c1.776.048 2.352.432 2.352 2.544V65.52c-1.344 2.064-3.984 4.368-6.48 4.32-3.168-.048-5.328-1.632-5.328-5.856V48.1c0-.528-.144-.624-.624-.528l-5.52 1.392v1.248h.672c1.724.044 2.156.428 2.156 2.54zm23.568 8.064c0 7.056 4.7 11.808 10.944 11.808a11.5 11.5 0 0 0 8.736-3.5l-.72-1.1a11.394 11.394 0 0 1-6.144 1.776c-6.144.048-9.456-4.032-9.456-10.416 0-5.376 3.7-9.552 7.968-9.552a5.035 5.035 0 0 1 4.848 3.36 2.31 2.31 0 0 0 2.736-2.352c0-2.16-2.4-3.312-5.664-3.312a13.275 13.275 0 0 0-13.248 13.284zm21.6 0c0 7.056 4.7 11.808 10.944 11.808a11.5 11.5 0 0 0 8.736-3.5l-.72-1.1a11.394 11.394 0 0 1-6.144 1.776c-6.144.048-9.456-4.032-9.456-10.416 0-5.376 3.7-9.552 7.968-9.552a5.035 5.035 0 0 1 4.848 3.36 2.31 2.31 0 0 0 2.736-2.352c0-2.16-2.4-3.312-5.664-3.312a13.275 13.275 0 0 0-13.248 13.284zm21.84-.48c0 7.056 4.224 12.288 10.9 12.288a13.237 13.237 0 0 0 9.312-3.792l-.768-1.2a11.769 11.769 0 0 1-6.816 2.208c-5.568 0-9.168-3.648-9.168-10.992l16.848-.1a15.6 15.6 0 0 0 .1-1.584c0-5.328-3.552-9.648-8.976-9.648-6.344 0-11.432 5.472-11.432 12.816zm10.7-10.608c3.648 0 5.952 3.12 5.952 6.816l-13.056.288c.484-4.18 2.884-7.108 7.108-7.108zM619.68 64.9c0 1.152.1 4.512.288 5.856a12.464 12.464 0 0 0 6.672 1.824c6.1 0 9.12-3.7 9.12-7.152 0-7.776-12.24-5.856-12.288-12a4.164 4.164 0 0 1 4.32-4.128c3.216.144 4.848 1.776 5.328 4.416l1.1-.144.288-4.176a12.01 12.01 0 0 0-6.192-1.872c-5.664 0-7.92 3.648-7.92 6.672 0 7.584 11.808 5.568 11.808 12.192 0 2.448-2.256 4.464-5.376 4.464-3.6-.144-5.424-2.784-5.952-6.048zm19.2 0c0 1.152.1 4.512.288 5.856a12.464 12.464 0 0 0 6.672 1.824c6.1 0 9.12-3.7 9.12-7.152 0-7.776-12.24-5.856-12.288-12a4.164 4.164 0 0 1 4.32-4.128c3.216.144 4.848 1.776 5.328 4.416l1.1-.144.288-4.176a12.01 12.01 0 0 0-6.192-1.872c-5.664 0-7.92 3.648-7.92 6.672 0 7.584 11.808 5.568 11.808 12.192 0 2.448-2.256 4.464-5.376 4.464-3.6-.144-5.424-2.784-5.952-6.048zm22.608 4.08a2.921 2.921 0 0 0-2.928 2.832 2.962 2.962 0 0 0 2.928 2.88 2.911 2.911 0 0 0 2.832-2.88 2.869 2.869 0 0 0-2.832-2.836z" transform="translate(12.552 51.706)" style="fill:#fff"/>
    </g>
</svg>
