<svg xmlns="http://www.w3.org/2000/svg" width="859.488" height="147.6" viewBox="0 0 859.488 147.6">
    <defs>
        <filter id="a" x="0" y="0" width="859.488" height="147.6" filterUnits="userSpaceOnUse">
            <feOffset/>
            <feGaussianBlur stdDeviation="5" result="blur"/>
            <feFlood flood-opacity=".161"/>
            <feComposite operator="in" in2="blur"/>
            <feComposite in="SourceGraphic"/>
        </filter>
    </defs>
    <g style="filter:url(#a)">
        <path data-name="패스 7282" d="m30.816.384.1-27.84c0-3.984.432-4.272 3.648-4.56v-1.3h-9.412v1.3c3.12.288 3.6.576 3.6 4.56v20.592h-.48L8.16-33.312H2.64v1.3c2.544.432 3.792 1.2 3.792 5.184v21.212c0 3.984-.336 4.32-3.7 4.56V.288h9.7v-1.344c-3.408-.24-3.84-.528-3.84-4.56v-20.5h.528L29.184.384zm26.4-12.144L59.9-3.888c.432 1.632-.24 2.64-1.584 2.784l-1.2.1v1.3C60.432.24 64.368.24 67.68.288v-1.3c-2.208-.14-3.456-1.148-4.416-3.788l-10.32-29.136-2.208 1.056c-6.576 18.1-9.792 26.736-10.848 28.9C38.784-1.728 37.872-1.152 36-1.056V.288c2.448-.048 5.328-.048 9.024 0v-1.344a10.849 10.849 0 0 1-1.248-.044C42-1.3 41.76-1.968 42.432-3.888l2.832-7.872zm-6.048-16.272h.432l4.848 14.208H45.984zm52.9 24.192-.816-24.576c-.048-3.072 1.536-3.456 3.552-3.552v-1.344h-7.492L88.7-7.632h-.672l-10.604-25.68h-7.488v1.344c1.584.1 3.408.48 3.408 2.736L72.576-3.84c-.048 2.016-2.16 2.688-3.936 2.784V.288c3.072-.1 6.48-.048 9.312 0v-1.344c-1.776-.048-3.216-.624-3.216-2.688L75.36-27.7h.432L86.784-1.4h1.776l10.8-26.064h.432l.72 23.712c0 2.064-1.536 2.64-3.312 2.688V.288c2.88-.048 7.488-.1 10.56 0v-1.344c-1.776-.096-3.648-.528-3.696-2.784zM156-19.44h-8.64v1.392c1.776 0 2.112.432 2.112 1.2a21.64 21.64 0 0 1-3.216 8.832c-3.072-2.976-7.824-7.92-10.848-11.28 5.76-2.208 8.3-4.7 8.352-8.5.048-4.08-4.08-6.24-7.44-6.288-4.8-.1-8.976 2.448-8.976 7.344 0 2.784.912 4.416 3.792 7.536-5.376 2.928-7.3 6.864-7.3 10.944 0 5.856 4.944 9.312 10.176 9.312a15.327 15.327 0 0 0 11.572-5.132C149.424-.528 150 0 153.888 0h2.012v-1.3c-1.968-.384-3.5-.624-8.352-5.424a43.341 43.341 0 0 0 3.408-6.672c1.584-3.936 2.16-4.512 5.04-4.656zm-20.688 18a7.582 7.582 0 0 1-7.824-7.44 9.84 9.84 0 0 1 4.9-9.024c3.408 3.6 8.544 9.216 11.952 12.576a12.125 12.125 0 0 1-9.028 3.888zm-1.2-19.056c-1.824-1.92-3.408-3.552-3.36-6.912a4.9 4.9 0 0 1 5.232-5.088c3.216.048 4.8 2.016 4.8 4.56 0 3.312-2.544 5.664-6.672 7.436zm65.9 20.88.1-27.84c0-3.984.432-4.272 3.648-4.56v-1.3h-9.408v1.3c3.12.288 3.6.576 3.6 4.56v20.592h-.48L177.36-33.312h-5.52v1.3c2.544.432 3.792 1.2 3.792 5.184v21.212c0 3.984-.336 4.32-3.7 4.56V.288h9.7v-1.344c-3.408-.24-3.84-.528-3.84-4.56v-20.5h.528l20.064 26.5zm26.4-12.144 2.688 7.872c.432 1.632-.24 2.64-1.584 2.784l-1.2.1v1.3c3.312-.048 7.248-.048 10.56 0v-1.3c-2.208-.144-3.456-1.152-4.416-3.792l-10.32-29.136-2.208 1.056c-6.576 18.1-9.792 26.736-10.848 28.9-1.1 2.256-2.016 2.832-3.888 2.928V.288c2.448-.048 5.328-.048 9.024 0v-1.344a10.849 10.849 0 0 1-1.248-.048c-1.776-.192-2.016-.864-1.344-2.784l2.832-7.872zm-6.048-16.272h.432l4.848 14.208h-10.46zm52.9 24.192-.816-24.576c-.048-3.072 1.536-3.456 3.552-3.552v-1.344h-7.488L257.9-7.632h-.672l-10.608-25.68h-7.488v1.344c1.584.1 3.408.48 3.408 2.736l-.764 25.392c-.048 2.016-2.16 2.688-3.936 2.784V.288c3.072-.1 6.48-.048 9.312 0v-1.344c-1.776-.048-3.216-.624-3.216-2.688l.624-23.956h.432l10.992 26.3h1.776l10.8-26.064h.432l.72 23.712c0 2.064-1.536 2.64-3.312 2.688V.288c2.88-.048 7.488-.1 10.56 0v-1.344c-1.776-.096-3.648-.528-3.696-2.784zm16.272-25.536v3.12h10.128v6.912h-8.592v3.072h8.592v7.632H288.24v3.168h26.448V-8.64h-11.472v-7.632h8.592v-3.072h-8.592v-6.912H313.3v-3.12zm31.632-7.632h-39.456V4.7h3.5V2.64h32.448V4.7h3.5zM285.216-.624v-33.12h32.448v33.12zm23.664-14.64-2.736.912a30.8 30.8 0 0 1 3.168 5.616L312-9.984a30.555 30.555 0 0 0-3.12-5.28zm38.88-2.064a53.886 53.886 0 0 1-6.432 16.272l2.88 1.824a62.514 62.514 0 0 0 6.72-17.424zm16.7-.624-3.024 1.008a137.851 137.851 0 0 1 5.476 17.76l3.072-1.392a144.547 144.547 0 0 0-5.52-17.376zM353.9 4.56c2.784 0 4.224-1.44 4.224-4.32v-21.7h11.76v-3.36h-27.12v3.36h11.9V-.624c0 1.44-.672 2.16-1.92 2.16-1.392 0-2.832-.1-4.272-.24l.672 3.264zm-8.208-40.9v3.312h21.7v-3.312zm-17.612-.86V4.848h3.36v-38.784h7.68a129.3 129.3 0 0 1-5.184 13.44c2.976 4.032 4.464 7.632 4.464 10.9a2.844 2.844 0 0 1-.816 2.3 5.074 5.074 0 0 1-3.072.864 15.788 15.788 0 0 1-1.824-.192l1.1 3.36c3.12-.048 5.328-.624 6.576-1.776a6.4 6.4 0 0 0 1.396-4.56c-.192-3.408-1.68-7.2-4.416-11.424 1.968-4.656 3.7-9.12 5.136-13.44V-37.2zm51.02 14.688h7.728v8.112H379.1zm7.728-3.216H379.1v-8.592h7.728zm-7.824 14.592h7.824v10.8c0 1.344-.672 2.064-1.92 2.064q-1.656 0-3.6-.144l.816 2.976h3.744q4.176 0 4.176-3.744v-38.208h-14.108v23.184c-.048 6.768-1.2 12.336-3.5 16.752l2.588 2.356c2.256-4.228 3.6-9.556 3.984-16.036zm13.776-7.632v3.36h2.3a26.236 26.236 0 0 0 6.68 11.424 34.481 34.481 0 0 1-10.608 5.808l1.92 2.928A36.376 36.376 0 0 0 404.4-1.584 45.688 45.688 0 0 0 415.008 4.8l1.824-2.976A42.7 42.7 0 0 1 406.7-3.792a28.269 28.269 0 0 0 6.384-11.76v-3.216zm5.52 3.36h11.472a25.849 25.849 0 0 1-5.708 9.308 22.251 22.251 0 0 1-5.764-9.308zm-2.54-21.936v6.384a8.984 8.984 0 0 1-3.936 7.776l2.3 2.64c3.36-2.544 5.04-6.144 5.04-10.752v-2.784h8.16v7.78c0 2.688 1.3 4.08 3.936 4.08h4.8v-3.22h-3.936c-.96 0-1.392-.528-1.392-1.536v-10.368zm45.888 20.256A38.879 38.879 0 0 1 438.576-6.1a25.1 25.1 0 0 1-6.768 7.824l2.208 2.832a27.871 27.871 0 0 0 7.68-9.12 47.347 47.347 0 0 0 3.36-12.528h8.4q-.144 11.808-.576 14.112c-.288 2.544-1.3 3.84-3.12 3.84-1.536 0-3.312-.1-5.376-.192l.816 3.264c2.4.1 4.08.144 5.088.144 3.5 0 5.472-1.872 5.856-5.616.48-2.448.72-8.736.72-18.912h-21.216v3.36zm-11.616-22.176A52.9 52.9 0 0 1 418.7-19.728l1.1 3.6a61.618 61.618 0 0 0 5.184-6.048V4.9h3.552v-32.4a58.929 58.929 0 0 0 4.656-10.32zm10.464.528c-2.352 7.44-5.856 13.344-10.464 17.712l2.688 2.3q6.768-6.48 10.944-18.768zm11.376-.576-2.928 1.632a36.681 36.681 0 0 0 11.808 18.24l2.3-2.688a35.077 35.077 0 0 1-11.18-17.184zm28.608 17.376h19.056v5.236H480.48zm19.056 8.256v5.088H480.48v-5.088zm0 8.112V-.1q0 1.728-1.872 1.728c-1.584 0-3.312-.1-5.136-.192l.864 3.168h5.376c2.688-.1 4.032-1.3 4.032-3.648V-24.96h-22.272a57.122 57.122 0 0 0 3.12-5.568h25.3v-3.36h-23.86c.672-1.68 1.248-3.408 1.824-5.184l-3.5-.432a53.45 53.45 0 0 1-2.112 5.616H467v3.36h12.72a52.724 52.724 0 0 1-14.02 16.464l2.256 2.928a60.379 60.379 0 0 0 9.264-9.264V4.7h3.264V-5.568zM514.272-37.3V4.848h3.36v-38.832h7.92a121.972 121.972 0 0 1-5.28 13.488c3.36 4.032 5.04 7.728 5.04 10.992a2.549 2.549 0 0 1-.912 2.16 8.518 8.518 0 0 1-3.6.72 17.619 17.619 0 0 1-1.872-.192l1.152 3.5q5.184-.072 7.2-1.728a5.943 5.943 0 0 0 1.488-4.456c-.192-3.456-1.872-7.3-4.944-11.52 2.016-4.7 3.744-9.168 5.184-13.488V-37.3zm20.4 12h14.16v5.424h-14.16zm14.16-3.168h-14.16v-5.52h14.16zm-8.64 11.76c1.632 8.976 6.48 16.032 14.448 21.12l1.92-3.024a28.719 28.719 0 0 1-8.736-7.776 24.114 24.114 0 0 0 7.392-6l-2.256-2.252a24.577 24.577 0 0 1-6.72 5.808 25.856 25.856 0 0 1-2.928-7.872h8.88v-20.544h-20.928V-.1c0 .48-.384.864-1.056 1.1l.816 2.976a95.551 95.551 0 0 0 13.008-4.32l-.768-3.216a66.975 66.975 0 0 1-8.592 3.264V-16.7zm32.4-22.032q-4.608 13.756-13.584 21.94l2.688 2.352c5.856-5.28 10.512-12.96 14.064-23.04zM588.96-13.3l-3.12 1.056a97.715 97.715 0 0 1 5.808 9.5c-6.864 1.1-14.208 1.92-22.032 2.4Q575.808-8.112 582-21.792l-3.36-1.152Q569.928-3.216 564.192-.192l.624 3.36c10.464-.668 19.92-1.632 28.368-2.976q1.08 2.16 2.16 4.608l3.216-1.44a96.9 96.9 0 0 0-9.6-16.66zm-.72-25.776-2.928 1.632a46.475 46.475 0 0 0 14.928 23.092l2.448-2.832a45.032 45.032 0 0 1-14.448-21.888zm22.224 20.356v14.784h21.168V-18.72zM628.32-7.008h-14.5V-15.6h14.5zm11.664 11.472c3.264 0 4.9-1.728 4.9-5.136V-37.2h-36.1v3.36h32.64v32.208c0 1.92-.768 2.88-2.208 2.88l-6.72-.1.864 3.312zm-33.12-32.208v3.12h29.52v-3.12zM668.4-15.936v3.312h18.24v12.1c0 1.392-.816 2.112-2.352 2.112-1.872 0-3.84-.1-5.9-.24l.72 3.312h6.384q4.608 0 4.608-4.32v-12.96h5.8v-3.312h-5.8v-4.848h-3.46v4.848zm-6.336-23.28v23.9a75.7 75.7 0 0 1-10.32 7.968l1.536 3.312a67.138 67.138 0 0 0 8.784-7.1V4.752h3.5v-43.968zm12.436 28.56-2.544 1.584a67.8 67.8 0 0 1 6 8.016l2.688-1.92a60.9 60.9 0 0 0-6.144-7.68zm3.36-21.84h12.48a19.22 19.22 0 0 1-7.776 7.152 52.879 52.879 0 0 0-5.04-4.176l-2.448 1.872a42.826 42.826 0 0 1 4.56 3.7 62.023 62.023 0 0 1-9.984 2.976l1.728 3.072q18.576-4.248 22.7-14.784v-2.976h-14.016c.528-.96 1.008-1.92 1.44-2.928l-3.552-.672c-1.824 4.368-5.328 7.872-10.56 10.464l2.208 2.688a27.714 27.714 0 0 0 8.256-6.392zm-23.088-1.1-2.976 1.2a56.77 56.77 0 0 1 5.76 10.512l3.024-1.248a63.358 63.358 0 0 0-5.812-10.468zm58.944 16.752v3.36H724.7V-.24h-12.96v3.408h30.1V-.24h-13.632v-13.248h11.472v-3.36h-11.472v-8.928h-3.5v8.928zm-7.728 2.112V4.944h3.408v-23.616a59.172 59.172 0 0 0 6.72-10.608h25.68v-3.408h-24.148a67.726 67.726 0 0 0 2.252-6.432l-3.6-.432a55.644 55.644 0 0 1-2.5 6.864h-13.96v3.408h12.336a55.3 55.3 0 0 1-14.016 16.992l2.16 2.832a74.352 74.352 0 0 0 5.664-5.28zm75.168 4.656h-27.36v15.02h3.36V2.88h20.64v2.064h3.36zm-24 9.84V-6.96h20.64v6.72zm3.84-31.248a35.568 35.568 0 0 1-11.712 10.8L751.488-18a45.588 45.588 0 0 0 6-4.512 43.477 43.477 0 0 0 6.768 4.9 94.019 94.019 0 0 1-19.248 4.848L746.3-9.7c8.64-1.488 15.792-3.5 21.456-6.1a55.949 55.949 0 0 0 20.4 5.136l.768-3.12a59.692 59.692 0 0 1-17.568-3.792 26.248 26.248 0 0 0 8.5-7.248V-27.6h-17.712a52.738 52.738 0 0 0 2.208-3.168zm6.816 12.336a43.142 43.142 0 0 1-8.3-5.376l.144-.144h16.08a28.741 28.741 0 0 1-7.928 5.516zm18.72-16.464h-17.716c-.576-1.44-1.1-2.784-1.68-3.936l-3.792.576a31.134 31.134 0 0 1 1.776 3.36h-17.568v9.072h3.5v-5.96h31.968v5.952h3.5zm41.42 5.712v9.36h-27.408v-9.36zm-27.408 12.72h30.912v-16.132h-15.168q-1.3-3.456-2.592-6.192l-3.7.576a51 51 0 0 1 2.784 5.616h-15.644v15.024c-.1 8.592-2.064 15.6-5.952 20.976l2.544 2.3q6.48-9.288 6.816-22.172zM32.448 47.472A49.313 49.313 0 0 1 27.984 58.8a66.531 66.531 0 0 1-2.3-14.3h12.908v-2.88h-13.1c-.1-2.3-.192-4.656-.192-7.152h-3.172c.048 2.5.048 4.848.192 7.152H6.288v9.12c0 10.7-.912 16.56-4.32 21.936l2.88 2.16C8.5 68.928 9.408 62.784 9.5 53.52h7.1a92.675 92.675 0 0 1-.576 9.744c-.144.768-.24 1.008-1.68 1.008a23.12 23.12 0 0 1-3.444-.432l.624 3.024a17.664 17.664 0 0 0 3.456.288c2.5 0 3.744-.576 4.176-3.072a127.707 127.707 0 0 0 .624-13.344H9.552V44.5h12.912c.48 6.72 1.392 12.768 3.216 17.9a32.493 32.493 0 0 1-11.664 9.984l2.16 2.544a37.089 37.089 0 0 0 10.9-9.12A25.866 25.866 0 0 0 31.1 71.9a5 5 0 0 0 3.648 1.968 3.272 3.272 0 0 0 2.736-1.536 18.078 18.078 0 0 0 2.116-5.324l-2.592-1.776a22.862 22.862 0 0 1-1.392 4.08c-.288.624-.672.864-1.056.864-.48 0-1.1-.624-1.776-1.44a24.248 24.248 0 0 1-3.456-6 55.527 55.527 0 0 0 6.1-14.112zm2.3-8.3a39.306 39.306 0 0 0-4.848-4.56l-2.3 1.728a28.708 28.708 0 0 1 4.608 4.8zM67.44 34.32h-3.408v9.408h-5.808v3.024h5.76c-.336 11.9-2.928 19.536-10.608 25.68l2.5 2.544c7.968-6.912 10.992-14.4 11.424-28.224h7.34c-.1 9.744-.72 17.9-1.584 22.176-.24 1.248-.768 2.016-2.592 2.016a20.684 20.684 0 0 1-4.56-.624l.624 3.264a27.726 27.726 0 0 0 4.32.384c3.408 0 4.8-.576 5.424-3.648C77.28 65.472 77.76 56.448 78 43.728H67.392v-.192zm-8.208 24.192c-1.92.768-4.32 1.584-6.912 2.4V41.52h6.24v-2.928H43.152v2.928h5.856v20.3a83.921 83.921 0 0 1-6.624 1.68l.768 3.312a134.538 134.538 0 0 0 16.128-5.18zM90 34.368a59.754 59.754 0 0 1-1.824 6.72H84v31.968h3.168v-3.6h6.768v2.832H97.2V50.3l2.112 2.208a34.867 34.867 0 0 0 5.184-8.064h10.032c0 10.8-.336 20.16-1.584 24.72-.288 1.2-.864 1.872-2.736 1.872a21.747 21.747 0 0 1-4.9-.576l.96 3.408a27.013 27.013 0 0 0 4.224.384c2.88 0 4.992-.768 5.76-3.984 1.392-6 1.536-16.272 1.68-28.848h-12.188a54.285 54.285 0 0 0 1.872-6.528l-3.264-.576c-1.344 5.664-3.168 10.9-7.152 15.5v-8.728h-5.856c.768-2.208 1.44-4.272 1.968-6.1zM87.168 56.16h6.768v10.368h-6.768zm0-12.144h6.768v9.216h-6.768zm23.376 16.416a103.931 103.931 0 0 0-5.664-9.6l-2.64 1.632a71.955 71.955 0 0 1 5.328 9.648zm45.792 6.624V45.792h-10.464c.432-1.056.96-2.112 1.392-3.408h11.664v-2.832h-6.96c.768-1.248 1.632-2.64 2.448-4.08l-3.312-1.1a44.493 44.493 0 0 1-2.688 5.184h-4.7c-1.2-1.92-2.16-3.552-3.168-5.136l-3.024 1.056a45.765 45.765 0 0 1 2.544 4.08h-6.672v2.832h10.32c-.432 1.1-.672 2.112-1.3 3.408h-6.768v21.26zm3.5 2.976c-4.32.384-9.216.72-13.68.72-4.32 0-8.256-.288-10.7-1.056a7.853 7.853 0 0 1-4.656-3.648v-10.56h-8.016v2.928h4.8v8.016a41.074 41.074 0 0 1-5.328 4.7l1.728 3.12a63.709 63.709 0 0 0 5.376-5.568 9.553 9.553 0 0 0 5.52 3.936c2.88.864 7.056 1.1 11.856 1.152 1.344 0 2.544 0 3.888-.048 2.976-.048 5.616-.192 8.3-.288zm-21.072-9.6h14.356v3.84h-14.352zm0-11.952h14.356v3.5h-14.352zm0 6h14.356v3.456h-14.352zm-7.532-5.18a75.872 75.872 0 0 0-6.576-4.992l-1.824 2.4a78.186 78.186 0 0 1 6.336 5.232zm1.3-9.168a78.85 78.85 0 0 0-6.384-5.04l-1.872 2.352a66.617 66.617 0 0 1 6.1 5.28zm45.648 25.584c-1.776.624-3.5 1.3-5.184 1.824v-8.596h4.08v-2.976h-4.08v-5.712h4.272v-3.6l2.064 2.352a52.075 52.075 0 0 0 3.5-3.984 34.414 34.414 0 0 0 4.176 5.568 34.232 34.232 0 0 1-9.648 5.9l1.536 2.976 2.016-1.008v16.372h3.12V72.72h9.6v1.872h3.216v-16.56h-15.12a40.966 40.966 0 0 0 7.488-5.28 35.053 35.053 0 0 0 9.216 6l1.632-2.976a31.583 31.583 0 0 1-8.64-5.184 36.615 36.615 0 0 0 6.768-10.56l-2.3-1.824h-9.172c.432-.96.816-2.016 1.2-3.072l-3.216-.912a28.36 28.36 0 0 1-7.44 12.192V36.1h-13.008v14.16h5.856V68.4a23.884 23.884 0 0 0-2.64.768V54h-2.928v15.888l-2.3.528.72 3.36a158.62 158.62 0 0 0 15.312-5.184zm5.856-4.848h9.6v8.972h-9.6zm-16.66-21.94h6.816v8.5h-6.816zm18 2.112h8.832a26.684 26.684 0 0 1-5.04 7.488 27.615 27.615 0 0 1-4.56-6.144zm53.856 31.632V69.6H221.76V51.456h15.552v-3.024H221.76V34.8h-3.5v34.8h-15.268v3.072zm12.1-40.08-2.256 21.072h27.312c0 9.12-.576 14.688-1.68 16.656-1.056 1.824-4.32 2.736-9.744 2.736-.96 0-2.592-.144-4.944-.336l.912 3.168c1.632.1 3.216.192 4.752.192 5.856 0 9.7-1.008 11.472-2.976 1.824-2.064 2.736-9.6 2.736-22.656h-26.98l.816-7.824h29.424v-3.312h-29.088l.672-6.432zm-8.448 28.8V64.7H270v-3.308zm72.1-1.92c2.4 0 3.648-1.344 3.648-3.984V42.48h-3.456v12.192c0 1.2-.48 1.824-1.344 1.824a29.129 29.129 0 0 1-3.408-.24l.72 3.216zM295.3 45.7v13.82h3.36V41.184a56.126 56.126 0 0 0 4.176-7.728l-3.36-.72a42.653 42.653 0 0 1-10.66 14.784l2.16 2.64a47.807 47.807 0 0 0 4.324-4.46zm14.976-13.008a35.216 35.216 0 0 1-8.784 12.288l2.112 2.592a38.469 38.469 0 0 0 6.24-7.3h17.712a26.952 26.952 0 0 1-2.016 5.232l3.12.816a52.884 52.884 0 0 0 2.352-7.056V37.1H311.76c.576-1.152 1.2-2.4 1.776-3.7zM294.48 61.968a37.355 37.355 0 0 1-4.416 10.848l2.928 1.872a43.571 43.571 0 0 0 4.8-12.048zM318.1 76.08a5.483 5.483 0 0 0 3.84-1.152c.96-.912 1.584-3.456 1.92-7.68l-3.264-1.056c-.192 3.168-.528 5.088-1.1 5.76a2.392 2.392 0 0 1-2.064.864h-10.56c-1.344 0-1.968-.72-1.968-2.064v-9.408h-3.5v10.128c0 3.072 1.44 4.608 4.416 4.608zm8.16-15.6-2.832 1.728a88.641 88.641 0 0 1 7.008 11.376l2.832-2.016a87.151 87.151 0 0 0-7.012-11.088zm-17.28-13.392a38.764 38.764 0 0 1-6.192 9.072l2.64 1.824a42.715 42.715 0 0 0 6.336-9.6zm15.936-.048-2.928 1.248a57.72 57.72 0 0 1 6.1 9.888l2.928-1.488a54.043 54.043 0 0 0-6.104-9.648zm-13.54 13.008-2.688 1.68a57.753 57.753 0 0 1 5.472 7.392l2.688-1.872a52.936 52.936 0 0 0-5.472-7.2zm61.3 16.56c2.784 0 4.176-1.584 4.176-4.7V34.656h-38.5v42.1h3.456v-38.74h31.584v33.12c0 1.44-.624 2.16-1.824 2.16l-6.24-.144.96 3.456zm-27.36-33.072v3.216h24.624v-3.216zm2.688 8.4v15.456h19.248V51.936zm15.884 12.384H351.36v-9.264h12.528zm33.5-9.168v3.36h10.992V71.76h-12.96v3.408h30.1V71.76h-13.632V58.512h11.472v-3.36h-11.472v-8.928h-3.5v8.928zm-7.728 2.112v19.68h3.408V53.328a59.172 59.172 0 0 0 6.72-10.608h25.68v-3.408h-24.14a67.709 67.709 0 0 0 2.256-6.432l-3.6-.432a55.649 55.649 0 0 1-2.5 6.864H383.52v3.408h12.336a55.3 55.3 0 0 1-14.016 16.992l2.16 2.832a74.352 74.352 0 0 0 5.664-5.28zm44.98 9.836a5.472 5.472 0 1 0 5.52 5.472 5.391 5.391 0 0 0-5.52-5.472zm0 1.488a3.984 3.984 0 0 1 0 7.968 3.934 3.934 0 0 1-3.936-3.984 3.875 3.875 0 0 1 3.936-3.98z" transform="translate(13.032 54.552)" style="fill:#fff"/>
    </g>
</svg>
