<svg width="32" height="32" viewBox="0 0 32 32" fill="none" xmlns="http://www.w3.org/2000/svg">
<g clip-path="url(#clip0_195_955)">
<g clip-path="url(#clip1_195_955)">
<path d="M17.52 26.0702V19.4102H14.52V26.0702H7.67C7.42681 26.0676 7.19431 25.9698 7.02234 25.7978C6.85036 25.6259 6.7526 25.3934 6.75 25.1502V13.1502C6.75151 13.0107 6.78471 12.8734 6.84707 12.7487C6.90944 12.624 6.99935 12.515 7.11 12.4302L15.46 5.91016C15.6176 5.78011 15.8156 5.70898 16.02 5.70898C16.2244 5.70898 16.4224 5.78011 16.58 5.91016L24.93 12.4002C25.0407 12.485 25.1306 12.594 25.1929 12.7187C25.2553 12.8434 25.2885 12.9807 25.29 13.1202V25.1202C25.2874 25.3634 25.1896 25.5959 25.0177 25.7678C24.8457 25.9398 24.6132 26.0376 24.37 26.0402L17.52 26.0702Z" fill="#161616"/>
<path d="M16.0196 6.5C16.0522 6.49055 16.0869 6.49055 16.1196 6.5L24.4696 12.99C24.4903 13.005 24.5073 13.0245 24.5194 13.047C24.5316 13.0695 24.5384 13.0945 24.5396 13.12V25.12C24.5372 25.1643 24.5185 25.2062 24.4871 25.2375C24.4557 25.2689 24.4139 25.2876 24.3696 25.29H18.2696V18.66H13.7696V25.32H7.66958C7.62528 25.3176 7.58342 25.2989 7.55204 25.2675C7.52066 25.2362 7.50198 25.1943 7.49958 25.15V13.15C7.50073 13.1245 7.50761 13.0995 7.51973 13.077C7.53185 13.0545 7.54889 13.035 7.56958 13.02L15.9196 6.54C15.9522 6.53055 15.9869 6.53055 16.0196 6.54V6.5ZM16.0196 5.04C15.6554 5.0449 15.3033 5.17164 15.0196 5.4L6.64958 11.85C6.45152 12.0058 6.29176 12.2048 6.18255 12.4319C6.07334 12.659 6.0176 12.908 6.01958 13.16V25.16C6.01958 25.6029 6.19553 26.0277 6.50871 26.3409C6.8219 26.6541 7.24667 26.83 7.68958 26.83H24.3896C24.8273 26.8195 25.2433 26.6376 25.5482 26.3234C25.853 26.0092 26.0223 25.5878 26.0196 25.15V13.15C26.0192 12.8964 25.9604 12.6463 25.8476 12.4191C25.7349 12.1919 25.5713 11.9937 25.3696 11.84L17.0196 5.36C16.7358 5.13164 16.3838 5.0049 16.0196 5V5.04ZM15.2696 26.86V20.16H16.7696V26.82L15.2696 26.86Z" fill="#161616"/>
</g>
</g>
<defs>
<clipPath id="clip0_195_955">
<rect width="20.04" height="21.82" fill="white" transform="translate(6 5)"/>
</clipPath>
<clipPath id="clip1_195_955">
<rect width="20.03" height="21.81" fill="white" transform="translate(6 5)"/>
</clipPath>
</defs>
</svg>
