<svg width="24" height="25" viewBox="0 0 24 25" fill="none" xmlns="http://www.w3.org/2000/svg">
<path d="M2.69922 5.75C2.28501 5.75 1.94922 6.08579 1.94922 6.5C1.94922 6.91421 2.28501 7.25 2.69922 7.25V5.75ZM21.2992 7.25C21.7134 7.25 22.0492 6.91421 22.0492 6.5C22.0492 6.08579 21.7134 5.75 21.2992 5.75V7.25ZM2.69922 7.25H21.2992V5.75H2.69922V7.25Z" fill="#999999"/>
<path d="M5.78535 22.1L4.5 6.5H19.5L18.2147 22.1H5.78535Z" stroke="#999999" stroke-width="1.5" stroke-linecap="square" stroke-linejoin="round"/>
<path d="M10.6484 11.3C10.6484 10.8858 10.3127 10.55 9.89844 10.55C9.48422 10.55 9.14844 10.8858 9.14844 11.3H10.6484ZM9.14844 17.3C9.14844 17.7143 9.48422 18.05 9.89844 18.05C10.3127 18.05 10.6484 17.7143 10.6484 17.3H9.14844ZM9.14844 11.3V17.3H10.6484V11.3H9.14844Z" fill="#999999"/>
<path d="M14.8496 11.3C14.8496 10.8858 14.5138 10.55 14.0996 10.55C13.6854 10.55 13.3496 10.8858 13.3496 11.3H14.8496ZM13.3496 17.3C13.3496 17.7143 13.6854 18.05 14.0996 18.05C14.5138 18.05 14.8496 17.7143 14.8496 17.3H13.3496ZM13.3496 11.3V17.3H14.8496V11.3H13.3496Z" fill="#999999"/>
<path d="M7.5 6.5V3.5H16.5V6.5" stroke="#999999" stroke-width="1.5" stroke-linecap="square" stroke-linejoin="round"/>
</svg>
