<svg width="40" height="40" viewBox="0 0 40 40" fill="none" xmlns="http://www.w3.org/2000/svg">
<g opacity="0.2">
<path d="M4.5 9C3.94772 9 3.5 9.44772 3.5 10C3.5 10.5523 3.94772 11 4.5 11V9ZM35.5 11C36.0523 11 36.5 10.5523 36.5 10C36.5 9.44772 36.0523 9 35.5 9V11ZM4.5 11H35.5V9H4.5V11Z" fill="#161616"/>
<path d="M9.64224 36L7.5 10H32.5L30.3578 36H9.64224Z" stroke="#161616" stroke-width="2" stroke-linecap="square" stroke-linejoin="round"/>
<path d="M17.5 18C17.5 17.4477 17.0523 17 16.5 17C15.9477 17 15.5 17.4477 15.5 18H17.5ZM15.5 28C15.5 28.5523 15.9477 29 16.5 29C17.0523 29 17.5 28.5523 17.5 28H15.5ZM15.5 18V28H17.5V18H15.5Z" fill="#161616"/>
<path d="M24.5 18C24.5 17.4477 24.0523 17 23.5 17C22.9477 17 22.5 17.4477 22.5 18H24.5ZM22.5 28C22.5 28.5523 22.9477 29 23.5 29C24.0523 29 24.5 28.5523 24.5 28H22.5ZM22.5 18V28H24.5V18H22.5Z" fill="#161616"/>
<path d="M12.5 10V5H27.5V10" stroke="#161616" stroke-width="2" stroke-linecap="square" stroke-linejoin="round"/>
</g>
</svg>
