<svg width="40" height="40" viewBox="0 0 40 40" fill="none" xmlns="http://www.w3.org/2000/svg">
<path d="M5 14.9993C5 14.1153 5.35119 13.2674 5.97631 12.6423C6.60143 12.0172 7.44928 11.666 8.33333 11.666H9.88333C10.432 11.6661 10.9722 11.5308 11.4559 11.272C11.9397 11.0132 12.3522 10.6391 12.6567 10.1827L14.01 8.14935C14.3145 7.69296 14.7269 7.31879 15.2107 7.06003C15.6945 6.80128 16.2347 6.66593 16.7833 6.66602H23.2167C23.7653 6.66593 24.3055 6.80128 24.7893 7.06003C25.2731 7.31879 25.6855 7.69296 25.99 8.14935L27.3433 10.1827C27.6478 10.6391 28.0603 11.0132 28.5441 11.272C29.0278 11.5308 29.568 11.6661 30.1167 11.666H31.6667C32.5507 11.666 33.3986 12.0172 34.0237 12.6423C34.6488 13.2674 35 14.1153 35 14.9993V29.9993C35 30.8834 34.6488 31.7312 34.0237 32.3564C33.3986 32.9815 32.5507 33.3327 31.6667 33.3327H8.33333C7.44928 33.3327 6.60143 32.9815 5.97631 32.3564C5.35119 31.7312 5 30.8834 5 29.9993V14.9993Z" stroke="#444444" stroke-width="2" stroke-linecap="round" stroke-linejoin="round"/>
<path d="M25 21.666C25 22.9921 24.4732 24.2639 23.5355 25.2016C22.5979 26.1392 21.3261 26.666 20 26.666C18.6739 26.666 17.4021 26.1392 16.4645 25.2016C15.5268 24.2639 15 22.9921 15 21.666C15 20.3399 15.5268 19.0682 16.4645 18.1305C17.4021 17.1928 18.6739 16.666 20 16.666C21.3261 16.666 22.5979 17.1928 23.5355 18.1305C24.4732 19.0682 25 20.3399 25 21.666V21.666Z" stroke="#444444" stroke-width="2" stroke-linecap="round" stroke-linejoin="round"/>
</svg>
