<svg width="44" height="44" viewBox="0 0 44 44" fill="none" xmlns="http://www.w3.org/2000/svg">
<path d="M6.61395 4.31836C6.25204 4.59036 6.00037 5.00922 6 5.49243V38.4999C6 38.9901 6.25186 39.4058 6.6167 39.6797L25.1236 22.0003L6.61395 4.31836Z" fill="#29B6F6"/>
<path d="M6.61395 4.31836C6.25204 4.59036 6.00037 5.00922 6 5.49243V38.4999C6 38.9901 6.25186 39.4058 6.6167 39.6797L25.1236 22.0003L6.61395 4.31836Z" fill="url(#paint0_linear_153_3525)"/>
<path d="M30.8246 16.5543C23.2392 12.341 13.8165 7.17932 8.19537 4.17209C7.64706 3.87967 7.0495 3.99091 6.61426 4.31812L25.1239 22.0001L30.8246 16.5543Z" fill="#00E676"/>
<path d="M30.8246 16.5543C23.2392 12.341 13.8165 7.17932 8.19537 4.17209C7.64706 3.87967 7.0495 3.99091 6.61426 4.31812L25.1239 22.0001L30.8246 16.5543Z" fill="url(#paint1_linear_153_3525)"/>
<path d="M6.61719 39.6794C6.86786 39.8677 7.16367 40 7.50049 40C7.73779 40 7.97144 39.9392 8.19482 39.8197C13.8152 36.8132 23.2352 31.6532 30.8195 27.4407L25.1241 22L6.61719 39.6794Z" fill="#F44336"/>
<path d="M6.61719 39.6794C6.86786 39.8677 7.16367 40 7.50049 40C7.73779 40 7.97144 39.9392 8.19482 39.8197C13.8152 36.8132 23.2352 31.6532 30.8195 27.4407L25.1241 22L6.61719 39.6794Z" fill="url(#paint2_linear_153_3525)"/>
<path d="M38.2372 20.7028C36.2183 19.5598 33.6447 18.1206 30.8246 16.5542L25.124 21.9999L30.8194 27.4406C33.6415 25.8733 36.217 24.4331 38.2372 23.2896C38.7082 23.0229 39.0004 22.5276 39.0004 21.9958C39.0004 21.464 38.7082 20.9687 38.2372 20.7028Z" fill="#FFEA00"/>
<path d="M38.2372 20.7028C36.2183 19.5598 33.6447 18.1206 30.8246 16.5542L25.124 21.9999L30.8194 27.4406C33.6415 25.8733 36.217 24.4331 38.2372 23.2896C38.7082 23.0229 39.0004 22.5276 39.0004 21.9958C39.0004 21.464 38.7082 20.9687 38.2372 20.7028Z" fill="url(#paint3_linear_153_3525)"/>
<path opacity="0.2" d="M8.08823 4.54699C15.8569 8.67218 30.8497 16.8603 38.3549 21.0778C38.6289 21.2314 38.833 21.466 38.9648 21.7356C38.886 21.3074 38.6292 20.9242 38.2371 20.7028C30.7876 16.4853 15.9063 8.29718 8.19534 4.17199C7.27322 3.68017 6.20581 4.31097 6.03516 5.24096C6.38727 4.53125 7.29135 4.12512 8.08823 4.54699Z" fill="white"/>
<path opacity="0.1" d="M8.08823 39.4532C15.8569 35.328 30.8497 27.1399 38.3549 22.9224C38.6289 22.7688 38.833 22.5342 38.9648 22.2646C38.886 22.6928 38.6292 23.076 38.2371 23.2974C30.7876 27.5149 15.9063 35.703 8.19534 39.8282C7.27322 40.32 6.20581 39.6892 6.03516 38.7592C6.38727 39.469 7.29135 39.8751 8.08823 39.4532Z" fill="#161616"/>
<path d="M38.2368 20.7013C36.2179 19.5582 13.8162 7.17665 8.19507 4.16917C7.64676 3.87673 7.04919 3.98798 6.61395 4.31521C6.25204 4.58724 6.00037 5.00612 6 5.48938V38.4995C6 38.9897 6.25186 39.4054 6.6167 39.6794C6.86737 39.8677 7.16318 40 7.5 40C7.7373 40 7.97095 39.9392 8.19434 39.8197C13.8148 36.813 36.2166 24.432 38.2368 23.2883C38.7078 23.0217 39 22.5263 39 21.9944C39 21.4626 38.7078 20.9672 38.2368 20.7013Z" fill="url(#paint4_linear_153_3525)"/>
<defs>
<linearGradient id="paint0_linear_153_3525" x1="15.5618" y1="7.1396" x2="15.5618" y2="31.0052" gradientUnits="userSpaceOnUse">
<stop stop-color="#00B8D4" stop-opacity="0"/>
<stop offset="1" stop-color="white" stop-opacity="0.3"/>
</linearGradient>
<linearGradient id="paint1_linear_153_3525" x1="5.05056" y1="7.67147" x2="29.6235" y2="19.13" gradientUnits="userSpaceOnUse">
<stop stop-color="white" stop-opacity="0.2"/>
<stop offset="1" stop-color="white" stop-opacity="0"/>
</linearGradient>
<linearGradient id="paint2_linear_153_3525" x1="15.7274" y1="30.5691" x2="21.7093" y2="36.551" gradientUnits="userSpaceOnUse">
<stop stop-opacity="0.1"/>
<stop offset="1" stop-opacity="0"/>
</linearGradient>
<linearGradient id="paint3_linear_153_3525" x1="28.7462" y1="18.3777" x2="35.9867" y2="25.6182" gradientUnits="userSpaceOnUse">
<stop stop-opacity="0.05"/>
<stop offset="1" stop-opacity="0"/>
</linearGradient>
<linearGradient id="paint4_linear_153_3525" x1="-0.168716" y1="18.413" x2="33.4998" y2="34.1129" gradientUnits="userSpaceOnUse">
<stop stop-color="white" stop-opacity="0.2"/>
<stop offset="1" stop-color="white" stop-opacity="0"/>
</linearGradient>
</defs>
</svg>
