<svg width="24" height="25" viewBox="0 0 24 25" fill="none" xmlns="http://www.w3.org/2000/svg">
<path d="M17.334 7.16536V17.832V7.16536ZM12.0007 11.1654V17.832V11.1654ZM6.66732 15.1654V17.832V15.1654ZM4.00065 23.1654H20.0007C20.7079 23.1654 21.3862 22.8844 21.8863 22.3843C22.3864 21.8842 22.6673 21.2059 22.6673 20.4987V4.4987C22.6673 3.79145 22.3864 3.11318 21.8863 2.61308C21.3862 2.11298 20.7079 1.83203 20.0007 1.83203H4.00065C3.29341 1.83203 2.61513 2.11298 2.11503 2.61308C1.61494 3.11318 1.33398 3.79145 1.33398 4.4987V20.4987C1.33398 21.2059 1.61494 21.8842 2.11503 22.3843C2.61513 22.8844 3.29341 23.1654 4.00065 23.1654Z" stroke="#444444" stroke-width="2" stroke-linecap="round" stroke-linejoin="round"/>
</svg>
