<svg width="24" height="24" viewBox="0 0 24 24" fill="none" xmlns="http://www.w3.org/2000/svg">
<path d="M15.8758 12.8758L12.2958 9.2958C12.2028 9.20207 12.0922 9.12768 11.9704 9.07691C11.8485 9.02614 11.7178 9 11.5858 9C11.4538 9 11.3231 9.02614 11.2012 9.07691C11.0794 9.12768 10.9688 9.20207 10.8758 9.2958L7.29581 12.8758C7.15539 13.0151 7.05942 13.1929 7.02003 13.3867C6.98064 13.5805 6.99961 13.7816 7.07454 13.9647C7.14947 14.1477 7.27698 14.3044 7.44097 14.415C7.60495 14.5255 7.79803 14.585 7.99581 14.5858H15.1758C15.3736 14.585 15.5667 14.5255 15.7306 14.415C15.8946 14.3044 16.0222 14.1477 16.0971 13.9647C16.172 13.7816 16.191 13.5805 16.1516 13.3867C16.1122 13.1929 16.0162 13.0151 15.8758 12.8758Z" fill="#FA5252"/>
</svg>
