<svg width="32" height="32" viewBox="0 0 32 32" fill="none" xmlns="http://www.w3.org/2000/svg">
<g clip-path="url(#clip0_195_1601)">
<path d="M16.0196 6.5C16.0522 6.49055 16.0869 6.49055 16.1196 6.5L24.4696 12.99C24.4903 13.005 24.5073 13.0245 24.5194 13.047C24.5316 13.0695 24.5384 13.0945 24.5396 13.12V25.12C24.5372 25.1643 24.5185 25.2062 24.4871 25.2375C24.4557 25.2689 24.4139 25.2876 24.3696 25.29H7.66958C7.62528 25.2876 7.58342 25.2689 7.55204 25.2375C7.52066 25.2062 7.50198 25.1643 7.49958 25.12V13.12C7.50073 13.0945 7.50761 13.0695 7.51973 13.047C7.53185 13.0245 7.54889 13.005 7.56958 12.99L15.9196 6.54C15.9522 6.53055 15.9869 6.53055 16.0196 6.54V6.5ZM16.0196 5.04C15.6554 5.0449 15.3033 5.17164 15.0196 5.4L6.64958 11.85C6.45152 12.0058 6.29176 12.2048 6.18255 12.4319C6.07334 12.659 6.0176 12.908 6.01958 13.16V25.16C6.01958 25.6029 6.19553 26.0277 6.50871 26.3409C6.8219 26.6541 7.24667 26.83 7.68958 26.83H24.3896C24.8273 26.8195 25.2433 26.6376 25.5482 26.3234C25.853 26.0092 26.0223 25.5878 26.0196 25.15V13.15C26.0192 12.8964 25.9604 12.6463 25.8476 12.4191C25.7349 12.1919 25.5713 11.9937 25.3696 11.84L17.0196 5.36C16.7358 5.13164 16.3838 5.0049 16.0196 5V5.04Z" fill="#AAAAAA"/>
<path d="M16.0195 26.8102V20.1602" stroke="#AAAAAA" stroke-width="1.5" stroke-miterlimit="10"/>
</g>
<defs>
<clipPath id="clip0_195_1601">
<rect width="20.03" height="21.81" fill="white" transform="translate(6 5)"/>
</clipPath>
</defs>
</svg>
