<svg width="20" height="20" viewBox="0 0 20 20" fill="none" xmlns="http://www.w3.org/2000/svg">
<rect x="3" y="3" width="14" height="14" stroke="#161616" stroke-width="1.5" stroke-linejoin="round"/>
<path d="M13 8C13.5523 8 14 7.55228 14 7C14 6.44772 13.5523 6 13 6C12.4477 6 12 6.44772 12 7C12 7.55228 12.4477 8 13 8Z" fill="#161616"/>
<path d="M4.50612 12.4356C4.19439 12.7083 4.16281 13.1821 4.43557 13.4939C4.70833 13.8056 5.18215 13.8372 5.49388 13.5644L4.50612 12.4356ZM9 9.5L9.49388 8.93557C9.21111 8.68814 8.78889 8.68814 8.50612 8.93557L9 9.5ZM13 13L12.5061 13.5644C12.8033 13.8244 13.2511 13.8095 13.5303 13.5303L13 13ZM15.5303 11.5303C15.8232 11.2374 15.8232 10.7626 15.5303 10.4697C15.2374 10.1768 14.7626 10.1768 14.4697 10.4697L15.5303 11.5303ZM5.49388 13.5644L9.49388 10.0644L8.50612 8.93557L4.50612 12.4356L5.49388 13.5644ZM8.50612 10.0644L12.5061 13.5644L13.4939 12.4356L9.49388 8.93557L8.50612 10.0644ZM13.5303 13.5303L15.5303 11.5303L14.4697 10.4697L12.4697 12.4697L13.5303 13.5303Z" fill="#161616"/>
</svg>
