<svg width="24" height="24" viewBox="0 0 24 24" fill="none" xmlns="http://www.w3.org/2000/svg">
<path d="M9.93824 2.54402C10.4625 0.382788 13.537 0.382788 14.0613 2.54402C14.14 2.86869 14.2942 3.17021 14.5114 3.42402C14.7286 3.67783 15.0027 3.87676 15.3113 4.00463C15.62 4.1325 15.9544 4.18568 16.2875 4.15986C16.6206 4.13403 16.9428 4.02993 17.2281 3.85602C19.1272 2.6991 21.3019 4.87263 20.145 6.77294C19.9713 7.05806 19.8674 7.38013 19.8416 7.71297C19.8159 8.04582 19.869 8.38004 19.9967 8.68849C20.1245 8.99693 20.3231 9.27088 20.5767 9.48808C20.8302 9.70528 21.1314 9.8596 21.4558 9.93848C23.617 10.4628 23.617 13.5373 21.4558 14.0616C21.1311 14.1402 20.8296 14.2944 20.5758 14.5117C20.322 14.7289 20.123 15.003 19.9952 15.3116C19.8673 15.6202 19.8141 15.9547 19.8399 16.2878C19.8658 16.6208 19.9699 16.9431 20.1438 17.2283C21.3007 19.1274 19.1272 21.3022 17.2269 20.1453C16.9417 19.9716 16.6197 19.8676 16.2868 19.8419C15.954 19.8161 15.6198 19.8693 15.3113 19.997C15.0029 20.1247 14.7289 20.3234 14.5117 20.5769C14.2945 20.8304 14.1402 21.1316 14.0613 21.456C13.537 23.6173 10.4625 23.6173 9.93824 21.456C9.85957 21.1313 9.70535 20.8298 9.48813 20.576C9.27091 20.3222 8.99683 20.1233 8.6882 19.9954C8.37957 19.8675 8.04511 19.8144 7.71204 19.8402C7.37897 19.866 7.0567 19.9701 6.77147 20.144C4.87239 21.3009 2.69762 19.1274 3.85454 17.2271C4.02821 16.942 4.13214 16.6199 4.15791 16.2871C4.18367 15.9542 4.13054 15.62 4.00282 15.3116C3.8751 15.0031 3.6764 14.7292 3.42288 14.512C3.16936 14.2948 2.86816 14.1404 2.54377 14.0616C0.382544 13.5373 0.382544 10.4628 2.54377 9.93848C2.86845 9.85981 3.16996 9.70559 3.42377 9.48838C3.67758 9.27116 3.87652 8.99708 4.00439 8.68845C4.13225 8.37982 4.18544 8.04535 4.15961 7.71228C4.13379 7.37921 4.02969 7.05694 3.85577 6.77171C2.69885 4.87263 4.87239 2.69786 6.7727 3.85479C7.99854 4.6031 9.59854 3.94094 9.93824 2.54402Z" stroke="#161616" stroke-width="1.5" stroke-linecap="round" stroke-linejoin="round"/>
<path d="M15.1793 11.9486C15.1793 12.8055 14.8389 13.6272 14.233 14.2331C13.6272 14.839 12.8054 15.1794 11.9485 15.1794C11.0917 15.1794 10.2699 14.839 9.66404 14.2331C9.05816 13.6272 8.71777 12.8055 8.71777 11.9486C8.71777 11.0918 9.05816 10.27 9.66404 9.6641C10.2699 9.05822 11.0917 8.71783 11.9485 8.71783C12.8054 8.71783 13.6272 9.05822 14.233 9.6641C14.8389 10.27 15.1793 11.0918 15.1793 11.9486V11.9486Z" stroke="#161616" stroke-width="1.5" stroke-linecap="round" stroke-linejoin="round"/>
</svg>
