<svg width="16" height="16" viewBox="0 0 16 16" fill="none" xmlns="http://www.w3.org/2000/svg">
<rect x="1.59961" y="1.59998" width="12.8" height="12.8" stroke="#161616" stroke-width="1.5" stroke-linejoin="round"/>
<path d="M10.3996 6.39999C10.8414 6.39999 11.1996 6.04182 11.1996 5.59999C11.1996 5.15816 10.8414 4.79999 10.3996 4.79999C9.95778 4.79999 9.59961 5.15816 9.59961 5.59999C9.59961 6.04182 9.95778 6.39999 10.3996 6.39999Z" fill="#161616"/>
<path d="M3.50612 9.83554C3.19439 10.1083 3.16281 10.5821 3.43557 10.8939C3.70833 11.2056 4.18215 11.2372 4.49388 10.9644L3.50612 9.83554ZM7.2 7.59998L7.69388 7.03554C7.41111 6.78812 6.98889 6.78812 6.70612 7.03554L7.2 7.59998ZM10.4 10.4L9.90612 10.9644C10.2033 11.2244 10.6511 11.2095 10.9303 10.9303L10.4 10.4ZM12.5303 9.33031C12.8232 9.03741 12.8232 8.56254 12.5303 8.26965C12.2374 7.97675 11.7626 7.97675 11.4697 8.26965L12.5303 9.33031ZM4.49388 10.9644L7.69388 8.16441L6.70612 7.03554L3.50612 9.83554L4.49388 10.9644ZM6.70612 8.16441L9.90612 10.9644L10.8939 9.83554L7.69388 7.03554L6.70612 8.16441ZM10.9303 10.9303L12.5303 9.33031L11.4697 8.26965L9.86967 9.86964L10.9303 10.9303Z" fill="#161616"/>
</svg>
