<svg width="24" height="24" viewBox="0 0 24 24" fill="none" xmlns="http://www.w3.org/2000/svg">
<path d="M21 21L15.6465 15.6465M17.7542 10.3771C17.7542 11.3459 17.5634 12.3052 17.1927 13.2002C16.8219 14.0952 16.2785 14.9085 15.5935 15.5935C14.9085 16.2785 14.0952 16.8219 13.2002 17.1927C12.3052 17.5634 11.3459 17.7542 10.3771 17.7542C9.40833 17.7542 8.44904 17.5634 7.55401 17.1927C6.65898 16.8219 5.84573 16.2785 5.16071 15.5935C4.47568 14.9085 3.93228 14.0952 3.56155 13.2002C3.19081 12.3052 3 11.3459 3 10.3771C3 8.42058 3.77723 6.54418 5.16071 5.16071C6.54418 3.77723 8.42058 3 10.3771 3C12.3336 3 14.21 3.77723 15.5935 5.16071C16.977 6.54418 17.7542 8.42058 17.7542 10.3771Z" stroke="#161616" stroke-width="1.5" stroke-linecap="round" stroke-linejoin="round"/>
</svg>
