<svg width="16" height="16" viewBox="0 0 16 16" fill="none" xmlns="http://www.w3.org/2000/svg">
<path d="M1.80005 3.25C1.38584 3.25 1.05005 3.58579 1.05005 4C1.05005 4.41421 1.38584 4.75 1.80005 4.75V3.25ZM14.2 4.75C14.6143 4.75 14.95 4.41421 14.95 4C14.95 3.58579 14.6143 3.25 14.2 3.25V4.75ZM1.80005 4.75H14.2V3.25H1.80005V4.75Z" fill="#161616"/>
<path d="M3.8569 14.4L3 4H13L12.1431 14.4H3.8569Z" stroke="#161616" stroke-width="1.5" stroke-linecap="square" stroke-linejoin="round"/>
<path d="M7.3501 7.19995C7.3501 6.78574 7.01431 6.44995 6.6001 6.44995C6.18588 6.44995 5.8501 6.78574 5.8501 7.19995H7.3501ZM5.8501 11.2C5.8501 11.6142 6.18588 11.95 6.6001 11.95C7.01431 11.95 7.3501 11.6142 7.3501 11.2H5.8501ZM5.8501 7.19995V11.2H7.3501V7.19995H5.8501Z" fill="#161616"/>
<path d="M10.1501 7.19995C10.1501 6.78574 9.81436 6.44995 9.40015 6.44995C8.98593 6.44995 8.65015 6.78574 8.65015 7.19995H10.1501ZM8.65015 11.2C8.65015 11.6142 8.98593 11.95 9.40015 11.95C9.81436 11.95 10.1501 11.6142 10.1501 11.2H8.65015ZM8.65015 7.19995V11.2H10.1501V7.19995H8.65015Z" fill="#161616"/>
<path d="M5 4V2H11V4" stroke="#161616" stroke-width="1.5" stroke-linecap="square" stroke-linejoin="round"/>
</svg>
