<svg width="24" height="24" viewBox="0 0 24 24" fill="none" xmlns="http://www.w3.org/2000/svg">
<path d="M8.68313 13.3424C8.88513 12.9384 8.99913 12.4824 8.99913 12.0004C8.99913 11.5184 8.88513 11.0624 8.68313 10.6584V13.3424ZM8.68313 13.3424C8.38083 13.9468 7.88333 14.4314 7.27122 14.7178C6.65911 15.0041 5.96825 15.0754 5.31056 14.9201C4.65287 14.7648 4.06688 14.392 3.64752 13.8621C3.22816 13.3322 3 12.6762 3 12.0004C3 11.3246 3.22816 10.6686 3.64752 10.1387C4.06688 9.60881 4.65287 9.23599 5.31056 9.08069C5.96825 8.92538 6.65911 8.99668 7.27122 9.28303C7.88333 9.56938 8.38083 10.054 8.68313 10.6584V13.3424ZM8.68313 13.3424L15.3152 16.6584L8.68313 13.3424ZM8.68313 10.6584L15.3152 7.34238L8.68313 10.6584ZM15.3152 7.34238C15.4914 7.69478 15.7353 8.00903 16.033 8.26716C16.3307 8.5253 16.6763 8.72228 17.0501 8.84685C17.4239 8.97142 17.8186 9.02114 18.2116 8.99318C18.6046 8.96522 18.9883 8.86012 19.3407 8.68389C19.6931 8.50765 20.0073 8.26373 20.2655 7.96605C20.5236 7.66837 20.7206 7.32277 20.8452 6.94896C20.9697 6.57516 21.0194 6.18048 20.9915 5.78746C20.9635 5.39444 20.8584 5.01077 20.6822 4.65837C20.3263 3.94665 19.7022 3.40548 18.9473 3.1539C18.1923 2.90232 17.3684 2.96094 16.6567 3.31686C15.945 3.67278 15.4038 4.29685 15.1522 5.05179C14.9006 5.80672 14.9592 6.63067 15.3152 7.34238V7.34238ZM15.3152 16.6584C14.9592 17.3703 14.9007 18.1943 15.1524 18.9494C15.404 19.7044 15.9453 20.3285 16.6572 20.6844C17.369 21.0404 18.1931 21.0989 18.9481 20.8473C19.7031 20.5956 20.3273 20.0543 20.6832 19.3424C21.0391 18.6306 21.0977 17.8065 20.846 17.0515C20.5943 16.2965 20.053 15.6723 19.3412 15.3164C18.9887 15.1402 18.605 15.0351 18.2119 15.0072C17.8188 14.9792 17.4241 15.029 17.0502 15.1536C16.2952 15.4053 15.6711 15.9466 15.3152 16.6584V16.6584Z" stroke="#161616" stroke-width="1.5" stroke-linecap="round" stroke-linejoin="round"/>
</svg>
