<svg width="24" height="24" viewBox="0 0 24 24" fill="none" xmlns="http://www.w3.org/2000/svg">
<path d="M0.399902 8.52909C0.399902 7.75148 1.03029 7.12109 1.8079 7.12109H7.8239V9.93709H1.8079C1.03029 9.93709 0.399902 9.30671 0.399902 8.52909Z" fill="#87BED7"/>
<path fill-rule="evenodd" clip-rule="evenodd" d="M16.0361 1.40717C16.0676 1.6169 15.9231 1.81242 15.7133 1.84388C14.8227 1.97748 14.2997 2.45918 13.9922 3.01358C13.676 3.58368 13.5892 4.23328 13.608 4.64669C13.6176 4.85855 13.4537 5.0381 13.2418 5.04773C13.03 5.05736 12.8504 4.89343 12.8408 4.68157C12.8169 4.15631 12.9221 3.35951 13.3206 2.64108C13.7278 1.90695 14.442 1.25799 15.5994 1.08438C15.8092 1.05292 16.0047 1.19744 16.0361 1.40717Z" fill="#EA513B"/>
<path d="M4.74659 5.02267C7.031 2.00216 11.1884 3.00834 12.8754 3.94676C12.9541 3.99052 13.0002 4.07382 13.0002 4.16384V21.3617C13.0002 21.4567 12.9475 21.5447 12.8618 21.5858C11.0187 22.4689 9.00424 21.7424 8.31165 21.2294C0.93399 15.7646 2.79413 7.36523 4.74659 5.02267Z" fill="#EA513B"/>
<path d="M22.0791 5.02267C19.5646 2.00015 14.9871 3.00968 13.1337 3.94863C13.0501 3.99101 13.0002 4.07708 13.0002 4.17086V21.3549C13.0002 21.4535 13.0568 21.544 13.1471 21.5835C15.1759 22.4701 17.3951 21.7429 18.1576 21.2294C26.273 15.7646 24.2268 7.36523 22.0791 5.02267Z" fill="#EA513B"/>
<path fill-rule="evenodd" clip-rule="evenodd" d="M0.406774 8.28125C0.402229 8.3273 0.399902 8.374 0.399902 8.42124V8.40052C0.399902 8.36018 0.402235 8.32038 0.406774 8.28125ZM17.8079 9.82924V16.0805H1.4239C0.858362 16.0805 0.399902 15.6221 0.399902 15.0565V8.42124C0.399902 9.19885 1.03028 9.82924 1.8079 9.82924H17.8079Z" fill="#CAECFC"/>
<path fill-rule="evenodd" clip-rule="evenodd" d="M4.2522 16.0819V13.1379C4.2522 12.9258 4.42413 12.7539 4.6362 12.7539C4.84828 12.7539 5.0202 12.9258 5.0202 13.1379V16.0819H4.2522Z" fill="#4B5473"/>
<path fill-rule="evenodd" clip-rule="evenodd" d="M8.75086 16.0819V13.1379C8.75086 12.9258 8.92278 12.7539 9.13486 12.7539C9.34694 12.7539 9.51886 12.9258 9.51886 13.1379V16.0819H8.75086Z" fill="#4B5473"/>
<path fill-rule="evenodd" clip-rule="evenodd" d="M13.2496 16.0819V13.1379C13.2496 12.9258 13.4215 12.7539 13.6336 12.7539C13.8457 12.7539 14.0176 12.9258 14.0176 13.1379V16.0819H13.2496Z" fill="#4B5473"/>
<path fill-rule="evenodd" clip-rule="evenodd" d="M6.50098 16.0812V14.4172C6.50098 14.2051 6.6729 14.0332 6.88498 14.0332C7.09706 14.0332 7.26898 14.2051 7.26898 14.4172V16.0812H6.50098Z" fill="#4B5473"/>
<path fill-rule="evenodd" clip-rule="evenodd" d="M10.9997 16.0812V14.4172C10.9997 14.2051 11.1716 14.0332 11.3837 14.0332C11.5958 14.0332 11.7677 14.2051 11.7677 14.4172V16.0812H10.9997Z" fill="#4B5473"/>
</svg>
