<svg width="24" height="24" viewBox="0 0 24 24" fill="none" xmlns="http://www.w3.org/2000/svg">
<g clip-path="url(#clip0_3837_43477)">
<path d="M16.8001 3.40039C14.7201 3.40039 12.6801 4.72039 12.0001 6.60039C11.3201 4.76039 9.28015 3.40039 7.20015 3.40039C5.93401 3.40035 4.71913 3.90057 3.8201 4.79211C2.92106 5.68365 2.4107 6.8943 2.40015 8.16039C2.40015 12.6404 5.92015 16.7604 12.0001 20.6004C18.0801 16.7604 21.6001 12.6404 21.6001 8.16039C21.5896 6.8943 21.0792 5.68365 20.1802 4.79211C19.2812 3.90057 18.0663 3.40035 16.8001 3.40039Z" fill="#EF5261"/>
<path d="M0 12.8051H7.12028C7.20164 12.8051 7.27746 12.7639 7.3217 12.6956L9.43397 9.43533C9.54518 9.26368 9.8064 9.3009 9.86524 9.49679L11.637 15.3949C11.7005 15.6063 11.9917 15.6271 12.0846 15.4269L14.3406 10.5625C14.4291 10.3718 14.7026 10.3789 14.781 10.574L16.0298 13.679C16.095 13.8411 16.3061 13.8814 16.4265 13.7548L17.2583 12.8797C17.3037 12.8321 17.3665 12.8051 17.4323 12.8051H24" stroke="white" stroke-width="0.72" stroke-linecap="round"/>
<circle cx="19" cy="16" r="4" fill="#CAECFC"/>
<path d="M17.9372 16.8665C17.7548 16.4624 17.9278 15.9729 18.3236 15.7732C18.7194 15.5736 19.1882 15.7393 19.3706 16.1433C19.553 16.5474 19.38 17.0369 18.9842 17.2366C18.5884 17.4363 18.1196 17.2706 17.9372 16.8665Z" fill="#4F5968"/>
<path d="M18.2892 16.108L20.1427 14.807C20.2981 14.698 20.4767 14.8921 20.3638 15.0476L19.0188 16.9012L18.2892 16.108Z" fill="#4F5968"/>
</g>
<defs>
<clipPath id="clip0_3837_43477">
<rect width="24" height="24" fill="white"/>
</clipPath>
</defs>
</svg>
