<svg width="40" height="40" viewBox="0 0 40 40" fill="none" xmlns="http://www.w3.org/2000/svg">
<g opacity="0.2">
<path d="M25.0896 35.62L6.95963 25.16C6.83872 25.0925 6.73316 25.0005 6.64964 24.89C6.56464 24.7805 6.50335 24.6545 6.46964 24.52L2.46964 9.52C2.43132 9.3885 2.4204 9.25053 2.4376 9.11464C2.4548 8.97874 2.49973 8.84784 2.56962 8.73003C2.71126 8.49602 2.93642 8.32446 3.19962 8.25002L18.1996 4.25002C18.3311 4.21169 18.4691 4.2008 18.605 4.218C18.7409 4.2352 18.8719 4.28014 18.9897 4.35002L37.1197 14.81C37.2395 14.8792 37.3444 14.9713 37.4285 15.0811C37.5126 15.191 37.5742 15.3163 37.6097 15.45C37.6782 15.7165 37.6424 15.999 37.5096 16.24L26.5096 35.24C26.4436 35.3592 26.3539 35.4637 26.246 35.547C26.1381 35.6302 26.0143 35.6905 25.8823 35.7243C25.7503 35.758 25.6127 35.7644 25.4781 35.743C25.3435 35.7216 25.2148 35.673 25.0996 35.6L25.0896 35.62Z" stroke="#161616" stroke-width="2" stroke-linecap="round" stroke-linejoin="round"/>
<path d="M10.9198 15.44C11.1934 15.5986 11.5079 15.6725 11.8236 15.6525C12.1392 15.6324 12.4418 15.5192 12.6932 15.3273C12.9446 15.1353 13.1334 14.8731 13.2358 14.5739C13.3383 14.2747 13.3497 13.9518 13.2688 13.6461C13.1878 13.3403 13.018 13.0654 12.7809 12.8561C12.5438 12.6468 12.2499 12.5125 11.9365 12.4701C11.6231 12.4277 11.3041 12.4792 11.0199 12.618C10.7357 12.7568 10.499 12.9767 10.3398 13.25C10.2338 13.4318 10.1647 13.6327 10.1365 13.8412C10.1083 14.0498 10.1215 14.2619 10.1754 14.4653C10.2293 14.6687 10.3227 14.8595 10.4505 15.0268C10.5782 15.194 10.7377 15.3344 10.9198 15.44V15.44Z" fill="#161616"/>
</g>
</svg>
