<svg width="20" height="20" viewBox="0 0 20 20" fill="none" xmlns="http://www.w3.org/2000/svg">
<path fill-rule="evenodd" clip-rule="evenodd" d="M2.25 7C2.25 6.58579 2.58579 6.25 3 6.25C3.41421 6.25 3.75 6.58579 3.75 7V17.25H10H16.25V7C16.25 6.58579 16.5858 6.25 17 6.25C17.4142 6.25 17.75 6.58579 17.75 7V18C17.75 18.4142 17.4142 18.75 17 18.75H10H3C2.58579 18.75 2.25 18.4142 2.25 18V7Z" fill="#161616"/>
<path d="M10 7V17.5" stroke="#161616" stroke-width="1.5" stroke-linecap="round"/>
<path d="M10 4.5C10 5.192 9.99354 7 9.99354 7C9.99354 7 8.18871 7 7.5 7C6.11929 7 5 5.88071 5 4.5C5 3.11929 6.11929 2 7.5 2C8.88071 2 10 3.11929 10 4.5Z" stroke="#161616" stroke-width="1.5"/>
<path d="M10 4.5C10 5.192 10.0065 7 10.0065 7C10.0065 7 11.8113 7 12.5 7C13.8807 7 15 5.88071 15 4.5C15 3.11929 13.8807 2 12.5 2C11.1193 2 10 3.11929 10 4.5Z" stroke="#161616" stroke-width="1.5"/>
<path d="M1 7H19" stroke="#161616" stroke-width="1.5" stroke-linecap="round"/>
</svg>
