<svg width="20" height="20" viewBox="0 0 20 20" fill="none" xmlns="http://www.w3.org/2000/svg">
<g clip-path="url(#clip0_1589_27126)">
<path d="M7.64334 4.10746L8.82185 5.28597M11.1789 7.64299L12.3574 8.8215M14.7144 11.1785L15.8929 12.357M0.833496 10.9173L11.1076 0.643223M0.643677 11.2499L3.51854 14.1248C3.8311 13.8122 4.25503 13.6367 4.69706 13.6367C5.13908 13.6367 5.56301 13.8122 5.87557 14.1248C6.18813 14.4374 6.36372 14.8613 6.36372 15.3033C6.36372 15.7453 6.18813 16.1693 5.87557 16.4818L8.75016 19.3564M8.89353 19.3564L19.1668 9.08312M19.3569 8.74994L16.4822 5.87523C16.1696 6.18779 15.7457 6.36338 15.3037 6.36338C14.8616 6.36338 14.4377 6.18779 14.1251 5.87523C13.8126 5.56267 13.637 5.13874 13.637 4.69672C13.637 4.25469 13.8126 3.83077 14.1251 3.51821L11.2502 0.643223" stroke="#161616" stroke-width="1.5" stroke-linecap="round" stroke-linejoin="round"/>
</g>
<defs>
<clipPath id="clip0_1589_27126">
<rect width="20" height="20" fill="white"/>
</clipPath>
</defs>
</svg>
