<svg width="52" height="52" viewBox="0 0 52 52" fill="none" xmlns="http://www.w3.org/2000/svg">
<path d="M42.1194 15.512C41.05 16.5627 41.0712 18.2757 41.9587 19.484C43.4968 21.5779 44.5088 23.9794 44.9274 26.529C45.1695 28.003 46.3571 29.2221 47.8509 29.2221C49.3447 29.2221 50.5735 28.0063 50.389 26.5239C49.8804 22.4369 48.2314 18.6963 45.7641 15.6189C44.8494 14.4779 43.1625 14.4872 42.1194 15.512Z" fill="#48A069"/>
<path d="M5.62827 34.8038C5.38623 33.3298 4.19862 32.1107 2.7048 32.1107C1.21098 32.1107 -0.017782 33.3265 0.166682 34.8089C0.67525 38.8959 2.32425 42.6364 4.79146 45.7138C5.70617 46.8548 7.39315 46.8454 8.43621 45.8205C9.50537 44.7699 9.48416 43.0573 8.59687 41.8492C7.05892 39.7551 6.04692 37.3536 5.62827 34.8038Z" fill="#CC6152"/>
<path d="M47.8505 32.1107C46.3569 32.1107 45.1694 33.3296 44.9274 34.8035C44.5088 37.3533 43.4966 39.7549 41.9582 41.8493C41.0708 43.0573 41.0496 44.7699 42.1187 45.8205C43.1618 46.8454 44.8488 46.8548 45.7635 45.7138C48.2308 42.6363 49.8798 38.8956 50.3883 34.8086C50.5727 33.3264 49.3441 32.1107 47.8505 32.1107Z" fill="#477EEB"/>
<path d="M36.7151 14.2847C37.9028 15.1378 39.5641 15.1587 40.6071 14.1338C41.6763 13.0832 41.6845 11.3456 40.4956 10.4326C37.3535 8.01969 33.5388 6.41352 29.374 5.93056C27.9159 5.76149 26.7217 6.96776 26.7217 8.43562C26.7217 9.90347 27.9185 11.0718 29.3695 11.2938C32.0326 11.7012 34.5393 12.7218 36.7151 14.2847Z" fill="#97C236"/>
<path d="M9.94841 14.1336C10.9916 15.1586 12.653 15.1377 13.8408 14.2845C16.0164 12.7218 18.5227 11.7012 21.1855 11.2938C22.6365 11.0718 23.8333 9.90347 23.8333 8.43562C23.8333 6.96776 22.6391 5.76149 21.181 5.93059C17.0169 6.41355 13.2025 8.01948 10.0602 10.4318C8.87097 11.3447 8.87901 13.0828 9.94841 14.1336Z" fill="#FFD464"/>
<path d="M8.59701 19.4838C9.48456 18.2756 9.50588 16.5626 8.43654 15.5119C7.39332 14.4868 5.70607 14.4775 4.7913 15.6187C2.32423 18.6964 0.675311 22.4368 0.166715 26.5232C-0.0177825 28.0055 1.21098 29.2213 2.7048 29.2213C4.19862 29.2213 5.38622 28.0023 5.62828 26.5282C6.04694 23.9788 7.05893 21.5776 8.59701 19.4838Z" fill="#E78244"/>
<g clip-path="url(#clip0_1015_20491)">
<path d="M30.22 40.2627C32.2964 38.0948 32.2964 34.5798 30.22 32.4118C28.1437 30.2438 24.7773 30.2438 22.7009 32.4118C20.6246 34.5798 20.6246 38.0948 22.7009 40.2627C24.7773 42.4307 28.1437 42.4307 30.22 40.2627Z" fill="#4F5968"/>
<path d="M29.684 34.6288L20.7872 22.1416C20.041 21.0946 18.463 21.9308 18.8326 23.1783L23.2366 38.0467L29.684 34.6288Z" fill="#4F5968"/>
</g>
<defs>
<clipPath id="clip0_1015_20491">
<rect width="13" height="20.2222" fill="white" transform="translate(18.7773 21.6667)"/>
</clipPath>
</defs>
</svg>
