<svg width="24" height="24" viewBox="0 0 24 24" fill="none" xmlns="http://www.w3.org/2000/svg">
<path fill-rule="evenodd" clip-rule="evenodd" d="M11.2149 0.338867C11.7671 0.338867 12.2149 0.786582 12.2149 1.33887V2.91165C16.5387 3.41786 19.9237 7.01075 19.9237 11.4129C19.9237 11.5019 19.9121 11.5882 19.8902 11.6704C19.912 11.7525 19.9237 11.8387 19.9237 11.9277V16.0441L21.2168 19.0359C21.3504 19.345 21.3195 19.7005 21.1346 19.9819C20.9496 20.2633 20.6356 20.4327 20.2989 20.4327H15.0105C14.7451 22.2748 13.1269 23.6606 11.2148 23.6606C9.30256 23.6606 7.68438 22.2748 7.41897 20.4327H2.13086C1.79891 20.4327 1.4886 20.268 1.3026 19.993C1.11659 19.7181 1.07915 19.3688 1.20265 19.0606L2.40617 16.0581V11.9277C2.40617 11.8387 2.4178 11.7525 2.43961 11.6703C2.4178 11.5882 2.40617 11.5019 2.40617 11.4129C2.40617 6.97691 5.84339 3.36268 10.2149 2.90052V1.33887C10.2149 0.786582 10.6626 0.338867 11.2149 0.338867ZM9.46746 20.4327C9.70042 21.1335 10.3797 21.6606 11.2148 21.6606C12.0499 21.6606 12.7291 21.1335 12.962 20.4327H9.46746ZM4.40617 11.4129C4.40617 7.81267 7.40785 4.85059 11.1649 4.85059C14.922 4.85059 17.9237 7.81267 17.9237 11.4129C17.9237 11.5019 17.9353 11.5882 17.9571 11.6703C17.9353 11.7525 17.9237 11.8387 17.9237 11.9277V16.251C17.9237 16.3875 17.9516 16.5225 18.0057 16.6478L18.7772 18.4327H3.60903L4.33438 16.6231C4.3818 16.5048 4.40617 16.3785 4.40617 16.251V11.9277C4.40617 11.8387 4.39455 11.7525 4.37273 11.6703C4.39455 11.5882 4.40617 11.5019 4.40617 11.4129Z" fill="#161616"/>
</svg>
