<svg width="24" height="24" viewBox="0 0 24 24" fill="none" xmlns="http://www.w3.org/2000/svg">
<path d="M18.79 13.23L9.13001 18.81C8.9135 18.9327 8.66888 18.9972 8.42001 18.9972C8.17115 18.9972 7.92653 18.9327 7.71001 18.81C7.49342 18.6861 7.31358 18.507 7.18884 18.2909C7.06411 18.0748 6.99895 17.8295 7.00001 17.58V6.42C6.99895 6.17049 7.06411 5.92517 7.18884 5.70908C7.31358 5.49299 7.49342 5.31387 7.71001 5.19C7.92694 5.06797 8.17114 5.00263 8.42001 5C8.66822 5.00738 8.9113 5.07243 9.13001 5.19L18.79 10.77C18.9516 10.8632 19.0932 10.9873 19.2067 11.1353C19.3203 11.2833 19.4036 11.4521 19.4519 11.6323C19.5002 11.8124 19.5125 12.0003 19.4882 12.1853C19.4638 12.3702 19.4033 12.5485 19.31 12.71C19.1903 12.9298 19.0098 13.1103 18.79 13.23Z" fill="white" stroke="white" stroke-width="1.5" stroke-miterlimit="10"/>
</svg>
