<svg width="32" height="32" viewBox="0 0 32 32" fill="none" xmlns="http://www.w3.org/2000/svg">
<path d="M27 16C27 17.4445 26.7155 18.8749 26.1627 20.2095C25.6099 21.5441 24.7996 22.7567 23.7782 23.7782C22.7567 24.7996 21.5441 25.6099 20.2095 26.1627C18.8749 26.7155 17.4445 27 16 27C14.5555 27 13.1251 26.7155 11.7905 26.1627C10.4559 25.6099 9.24327 24.7996 8.22183 23.7782C7.20038 22.7567 6.39013 21.5441 5.83733 20.2095C5.28452 18.8749 5 17.4445 5 16C5 13.0826 6.15893 10.2847 8.22183 8.22183C10.2847 6.15892 13.0826 5 16 5C18.9174 5 21.7153 6.15892 23.7782 8.22183C25.8411 10.2847 27 13.0826 27 16Z" stroke="#161616" stroke-width="2" stroke-linecap="round" stroke-linejoin="round"/>
<path d="M16 2.255V6.92482M16 25.0852V29.755" stroke="black" stroke-width="2" stroke-linecap="round"/>
<path d="M29.75 16L25.0802 16M6.91981 16L2.25 16" stroke="black" stroke-width="2" stroke-linecap="round"/>
<path d="M16 16H16.02" stroke="black" stroke-width="2" stroke-linecap="round"/>
</svg>
