<svg width="32" height="32" viewBox="0 0 32 32" fill="none" xmlns="http://www.w3.org/2000/svg">
<path d="M17.1141 6.16923V13.0464C17.117 13.1724 17.1434 13.2965 17.192 13.4117C17.2406 13.5269 17.3103 13.6309 17.3972 13.7178C17.4841 13.8047 17.5864 13.8728 17.6983 13.9181C17.8102 13.9635 17.9296 13.9852 18.0495 13.9821H24.9092V24.871C24.9063 24.9985 24.8795 25.1241 24.8304 25.2407C24.7812 25.3574 24.7107 25.4627 24.6228 25.5507C24.5349 25.6386 24.4313 25.7076 24.3181 25.7535C24.2048 25.7994 24.084 25.8215 23.9626 25.8184H8.06062C7.93831 25.8246 7.81603 25.8053 7.70089 25.7615C7.58574 25.7178 7.48003 25.6504 7.38989 25.5633C7.29975 25.4763 7.22698 25.3713 7.17581 25.2544C7.12463 25.1376 7.09608 25.0112 7.0918 24.8827V7.1166C7.09469 6.98911 7.12147 6.86346 7.17061 6.74684C7.21974 6.63022 7.29028 6.52492 7.37818 6.43694C7.46609 6.34896 7.56963 6.28003 7.6829 6.2341C7.79618 6.18817 7.91696 6.16612 8.03835 6.16923H17.1141Z" stroke="#AAAAAA" stroke-width="1.5" stroke-linecap="round" stroke-linejoin="round"/>
<path d="M17.1016 6.18164L24.8744 13.9594" stroke="#AAAAAA" stroke-width="1.5" stroke-linecap="round" stroke-linejoin="round"/>
</svg>
