<svg width="32" height="32" viewBox="0 0 32 32" fill="none" xmlns="http://www.w3.org/2000/svg">
<g clip-path="url(#clip0_1929_33225)">
<path d="M23.5596 6.31998C21.5438 4.35076 18.8376 3.24829 16.0196 3.24829C13.2016 3.24829 10.4954 4.35076 8.4796 6.31998C7.4923 7.28355 6.707 8.43425 6.16957 9.70483C5.63215 10.9754 5.3534 12.3404 5.34961 13.72C5.34961 21.87 16.0196 28.85 16.0196 28.85C16.0196 28.85 26.6896 21.85 26.6896 13.72C26.6858 12.3404 26.4071 10.9754 25.8696 9.70483C25.3322 8.43425 24.5469 7.28355 23.5596 6.31998ZM16.0196 17.12C15.2795 17.1219 14.5554 16.9043 13.9391 16.4945C13.3227 16.0848 12.8418 15.5014 12.5572 14.8181C12.2726 14.1349 12.1971 13.3826 12.3403 12.6565C12.4834 11.9303 12.8388 11.263 13.3615 10.739C13.8841 10.2149 14.5505 9.85771 15.2763 9.71259C16.002 9.56746 16.7546 9.64093 17.4385 9.92371C18.1225 10.2065 18.7072 10.6859 19.1186 11.3011C19.53 11.9164 19.7496 12.6398 19.7496 13.38C19.7509 13.8706 19.6554 14.3568 19.4686 14.8105C19.2817 15.2642 19.0071 15.6765 18.6606 16.024C18.3142 16.3714 17.9025 16.647 17.4493 16.8351C16.9961 17.0232 16.5103 17.12 16.0196 17.12Z" fill="#161616" stroke="#161616" stroke-width="1.5" stroke-linecap="round" stroke-linejoin="round"/>
</g>
<defs>
<clipPath id="clip0_1929_33225">
<rect width="22.83" height="27.1" fill="white" transform="translate(4.59961 2.5)"/>
</clipPath>
</defs>
</svg>
