<svg width="12" height="12" viewBox="0 0 12 12" fill="none" xmlns="http://www.w3.org/2000/svg">
<path d="M7.77101 3.20086L3.77962 6.86967C3.66385 6.97244 3.57151 7.09538 3.50799 7.23131C3.44446 7.36723 3.41103 7.51343 3.40963 7.66136C3.40823 7.80929 3.4389 7.956 3.49984 8.09292C3.56079 8.22984 3.65079 8.35424 3.76459 8.45884C3.8784 8.56345 4.01373 8.64618 4.16269 8.7022C4.31165 8.75822 4.47126 8.78641 4.6322 8.78512C4.79314 8.78384 4.95219 8.7531 5.10007 8.69471C5.24795 8.63632 5.38169 8.55145 5.4935 8.44504L9.38066 4.77623C9.82224 4.35598 10.0666 3.79312 10.0611 3.20888C10.0555 2.62464 9.80059 2.06577 9.35113 1.65264C8.90167 1.2395 8.29365 1.00516 7.65805 1.00008C7.02244 0.995007 6.41009 1.2196 5.95288 1.62549L2.06512 5.29374C1.38314 5.92061 1 6.77083 1 7.65735C1 8.54388 1.38314 9.39409 2.06512 10.021C2.74711 10.6478 3.67208 11 4.63656 11C5.60104 11 6.52601 10.6478 7.208 10.021L11 6.54323" stroke="#161616" stroke-linecap="round" stroke-linejoin="round"/>
</svg>
