<svg width="93" height="39" viewBox="0 0 93 39" fill="none" xmlns="http://www.w3.org/2000/svg">
<path d="M12.216 28.112H8.808L9.456 23.168H6.216L5.592 28.112H2.184L2.832 23.168H0.384V20.288H3.192L3.768 15.872H1.32V12.992H4.152L4.68 8.816H8.064L7.512 12.992H10.776L11.328 8.816H14.688L14.16 12.992H16.488V15.872H13.8L13.224 20.288H15.528V23.168H12.864L12.216 28.112ZM9.816 20.288L10.416 15.872H7.152L6.6 20.288H9.816Z" fill="#FA5252"/>
<path d="M44.8686 29.384H25.9566V23.144H40.7166V22.16H25.9566V19.472H44.3886V25.64H29.6526V26.696H44.8686V29.384ZM33.5406 18.68C32.6126 18.296 31.7646 17.832 30.9966 17.288C30.2446 16.728 29.6126 16.064 29.1006 15.296C28.6846 16.016 28.0686 16.712 27.2526 17.384C26.4526 18.056 25.5086 18.632 24.4206 19.112L22.2126 16.76C23.6366 16.184 24.7646 15.488 25.5966 14.672C26.4286 13.856 26.9406 12.968 27.1326 12.008H23.4126V9.176H27.3006V6.992H30.7806V9.176H34.4286V12.008H30.9246C31.1006 12.92 31.5646 13.696 32.3166 14.336C33.0686 14.96 34.0526 15.512 35.2686 15.992L33.5406 18.68ZM44.3886 18.752H40.8846V14.768H38.9646V18.752H35.5566V7.808H38.9646V11.648H40.8846V7.808H44.3886V18.752ZM67.278 23.432H63.63V7.808H67.278V23.432ZM62.334 20.648H47.406V13.064H57.102V11.12H47.406V8.288H60.726V15.776H51.03V17.792H62.334V20.648ZM67.518 29.072H49.446V22.208H53.094V26.12H67.518V29.072ZM83.3034 27.944C82.1194 27.096 81.0234 26.128 80.0154 25.04C79.0234 23.936 78.2314 22.808 77.6394 21.656C77.0794 22.952 76.3114 24.16 75.3354 25.28C74.3594 26.4 73.2394 27.416 71.9754 28.328L69.4314 25.88C70.3434 25.288 71.1754 24.624 71.9274 23.888C72.6794 23.136 73.3274 22.32 73.8714 21.44C74.4314 20.56 74.8634 19.616 75.1674 18.608C75.4714 17.6 75.6234 16.544 75.6234 15.44V11.6H70.4634V8.6H84.3834V11.6H79.3914V15.44C79.3914 16.4 79.5514 17.36 79.8714 18.32C80.1914 19.264 80.6314 20.168 81.1914 21.032C81.7514 21.896 82.4074 22.704 83.1594 23.456C83.9114 24.192 84.7194 24.832 85.5834 25.376L83.3034 27.944ZM90.3354 29.36H86.6634V7.808H90.3354V29.36Z" fill="#161616"/>
</svg>
