<svg width="171" height="40" viewBox="0 0 171 40" fill="none" xmlns="http://www.w3.org/2000/svg">
<path d="M119.395 16.6768H106.976V17.814H119.395V16.6768Z" fill="#1C1C1C"/>
<path d="M143.851 16.2087H146.418V27.2883H143.851V16.2087ZM148.407 14.5342H141.862V30.9861H143.851V28.9697H146.418V30.0861H148.407V14.5412V14.5342Z" fill="#1C1C1C"/>
<path d="M117.218 21.9648H111.385V22.9765H117.218V21.9648Z" fill="#1C1C1C"/>
<path d="M68.8458 15.2451H62.6223V16.4382H68.8458V15.2451Z" fill="#1C1C1C"/>
<path d="M117.218 24.3252H111.385V25.3369H117.218V24.3252Z" fill="#1C1C1C"/>
<path d="M140.856 17.6543H130.16V19.3358H140.856V17.6543Z" fill="#1C1C1C"/>
<path d="M136.58 14.3555H134.591V31.9028H136.58V14.3555Z" fill="#1C1C1C"/>
<path d="M111.937 14.4521C111.902 17.7453 109.565 21.5199 106.99 22.8386V23.9758C109.467 23.2851 113.207 19.3849 113.549 14.4521H111.937Z" fill="#1C1C1C"/>
<path d="M63.8723 21.2051C63.8304 24.882 61.8419 27.2472 59.6302 27.9659V29.2357C62.1908 28.6147 65.2746 26.1797 65.5328 21.2051H63.8653H63.8723Z" fill="#1C1C1C"/>
<path d="M62.7965 13.2422C62.657 15.0702 62.0221 16.5563 60.7453 17.5819V18.8308C62.971 17.6657 64.1292 15.6842 64.4571 13.2422H62.7965Z" fill="#1C1C1C"/>
<path d="M170.021 15.0566H151.755V16.8567H170.021V15.0566Z" fill="#1C1C1C"/>
<path d="M158.752 11.9023C158.564 19.6539 156.254 25.8704 151.475 29.7288V31.6474C156.408 28.8636 160.908 21.9214 161.236 11.9023H158.752Z" fill="#1C1C1C"/>
<path d="M167.375 19.4171H158.57V21.2102H165.191L165.072 20.7428C164.981 25.7244 160 28.8292 154.955 30.0641V31.7386C161.284 30.5874 166.942 26.9245 167.382 20.5404V19.4102L167.375 19.4171Z" fill="#1C1C1C"/>
<path d="M159.867 20.8135C160.614 24.9439 165.756 28.4115 170.012 29.7581V31.8163C166.593 31.4326 159.735 27.665 158.214 21.0228L159.867 20.8135Z" fill="#1C1C1C"/>
<path d="M104.449 21.2408C104.449 18.6314 105.231 16.2522 106.514 14.4521H105.642C104.1 16.1615 103.145 18.5686 103.145 21.2408C103.145 23.9131 104.114 26.3481 105.67 28.0574H106.535C105.245 26.2574 104.456 23.8642 104.456 21.2408" fill="#1C1C1C"/>
<path d="M121.94 21.2408C121.94 18.6314 121.159 16.2522 119.882 14.4521H120.754C122.289 16.1615 123.252 18.5686 123.252 21.2408C123.252 23.9131 122.282 26.3481 120.733 28.0574H119.868C121.159 26.2574 121.947 23.8642 121.947 21.2408" fill="#1C1C1C"/>
<path d="M84.4179 15.8691H75.9547V17.2087H84.4179V15.8691Z" fill="#1C1C1C"/>
<path d="M74.018 14.7578V16.1672L71.3179 15.1555V13.6484L74.018 14.7578Z" fill="#1C1C1C"/>
<path d="M74.018 17.9044V19.3138L71.3179 18.3021V16.7881L74.018 17.9044Z" fill="#1C1C1C"/>
<path d="M85.8715 20.3877H74.9872V21.7273H85.8715V20.3877Z" fill="#1C1C1C"/>
<path d="M80.9221 13.2422H79.3314V21.3216H80.9221V13.2422Z" fill="#1C1C1C"/>
<path d="M79.2215 22.2988C78.1331 24.364 76.1795 26.4153 74.4841 27.1758V28.2782C77.5191 27.1549 79.9681 24.6641 81.0146 22.2988H79.2146H79.2215Z" fill="#1C1C1C"/>
<path d="M66.5087 16.1445C65.832 18.2935 63.8295 20.0657 61.5411 20.561V21.7611C65.0156 21.0076 67.332 18.5167 68.1763 16.1445H66.5087Z" fill="#1C1C1C"/>
<path d="M71.0591 26.792C72.5173 25.6687 72.8382 22.7801 72.8661 20.373H73.9685C73.9127 23.1011 73.9406 27.706 71.0591 29.3456V26.792Z" fill="#1C1C1C"/>
<path d="M82.4658 26.9551C81.9355 27.0667 81.0773 27.1295 80.5401 27.1295H74.0584V28.5249H80.2889C80.8122 28.5249 81.7053 28.4412 82.2565 28.3505C82.8146 28.2528 83.5891 28.0574 84.0216 27.7993V26.4736C83.5193 26.7178 82.9123 26.8574 82.4727 26.9481" fill="#1C1C1C"/>
<path d="M80.7778 24.2041C82.1384 25.2995 83.485 27.3229 84.0989 28.8299H85.7944C85.0757 27.0228 83.2756 24.9227 82.3686 24.2041H80.7778Z" fill="#1C1C1C"/>
<path d="M50.6586 15.8691H42.1954V17.2087H50.6586V15.8691Z" fill="#1C1C1C"/>
<path d="M40.2539 14.7578V16.1672L37.5537 15.1555V13.6484L40.2539 14.7578Z" fill="#1C1C1C"/>
<path d="M40.2539 17.9044V19.3138L37.5537 18.3021V16.7881L40.2539 17.9044Z" fill="#1C1C1C"/>
<path d="M52.1073 20.3877H41.2231V21.7273H52.1073V20.3877Z" fill="#1C1C1C"/>
<path d="M47.1629 13.2422H45.5721V21.3216H47.1629V13.2422Z" fill="#1C1C1C"/>
<path d="M45.4577 22.2988C44.3762 24.364 42.4157 26.4153 40.7272 27.1758V28.2782C43.7622 27.1549 46.2042 24.6641 47.2647 22.2988H45.4646H45.4577Z" fill="#1C1C1C"/>
<path d="M37.2949 26.792C38.7531 25.6687 39.0741 22.7801 39.102 20.373H40.2043C40.1485 23.1011 40.1765 27.706 37.2949 29.3456V26.792Z" fill="#1C1C1C"/>
<path d="M48.7038 26.9551C48.1805 27.0667 47.3223 27.1295 46.7781 27.1295H40.2894V28.5249H46.5269C47.0502 28.5249 47.9433 28.4412 48.4875 28.3505C49.0456 28.2528 49.8201 28.0574 50.2527 27.7993V26.4736C49.7503 26.7178 49.1433 26.8574 48.7038 26.9481" fill="#1C1C1C"/>
<path d="M47.0161 24.2041C48.3766 25.2995 49.7232 27.3229 50.3372 28.8299H52.0326C51.314 27.0228 49.5139 24.9227 48.6139 24.2041H47.0231H47.0161Z" fill="#1C1C1C"/>
<path d="M130.489 14.0769V15.7235C132.54 15.6258 139.064 15.3886 140.418 12.2559H137.703C135.324 14.0629 131.48 13.9443 130.489 14.0838" fill="#1C1C1C"/>
<path d="M130.16 26.5914V28.3566C132.184 27.6728 135.616 24.3029 135.826 20.7725L134.751 18.791C134.542 22.1261 131.765 25.7123 130.16 26.5914Z" fill="#1C1C1C"/>
<path d="M53.7549 25.5052V26.9146C55.248 26.3704 57.7807 23.6772 57.9342 20.8445L57.1458 19.2607C56.9923 21.926 54.941 24.7935 53.7549 25.4982" fill="#1C1C1C"/>
<path d="M136.161 19.6475L135.784 21.2731C136.789 22.829 139.007 25.4663 140.856 26.492V24.0779C138.784 22.7871 136.831 20.7708 136.161 19.6475Z" fill="#1C1C1C"/>
<path d="M63.1248 15.3809L62.5666 16.2809C62.8666 17.6414 65.504 20.5439 69.0832 22.1416V20.3555C66.5715 19.4206 63.7667 17.3414 63.1248 15.3809Z" fill="#1C1C1C"/>
<path d="M94.7371 17.7949L94.0813 19.1624C94.9604 21.5835 98.3722 27.3186 101.868 29.4606V27.2628C98.1489 24.2976 95.4069 19.6299 94.7371 17.8019" fill="#1C1C1C"/>
<path d="M95.2197 15.2734V13.7314H93.2801V15.6153C93.1685 20.6946 90.1614 25.732 87.1055 27.7554V29.1717C90.3568 28.1391 95.2197 22.1249 95.2197 15.2804" fill="#1C1C1C"/>
<path d="M54.3258 13.9775V15.2543H58.8399C58.5539 16.1614 57.9608 16.887 57.0887 17.501L57.8422 18.401C59.6004 17.5847 60.8563 15.6241 60.8354 14.4659V13.9775H54.3258Z" fill="#1C1C1C"/>
<path d="M117.971 27.3599C117.971 27.7646 117.643 28.0855 117.245 28.0855H115.334V27.0739H116.625V20.6689H111.936V28.1065H110.582V19.6084H117.978V27.3599H117.971Z" fill="#1C1C1C"/>
<path d="M54.0331 18.5059V19.7757H57.1239V28.1482H55.7146V29.2785H57.7728C58.2333 29.2785 58.61 28.8947 58.61 28.4273V19.7757H59.7961C59.7682 20.4176 59.6845 21.3455 59.5589 21.806H60.9683C61.1148 21.213 61.2055 19.978 61.2125 19.3291V18.5059H54.0401H54.0331Z" fill="#1C1C1C"/>
<path d="M56.6578 15.918H55.0949C56.0578 16.7064 56.8462 17.9902 57.5369 19.2111H59.344C58.5067 17.8018 57.3346 16.4622 56.6578 15.918Z" fill="#1C1C1C"/>
<path d="M66.6284 27.8633C67.0261 27.2215 67.1447 25.4842 67.2005 24.1097H60.1188V22.8398H68.7076V23.6632C68.6238 25.4772 68.4703 27.4029 67.975 28.3866C67.7517 28.8611 67.3401 29.2448 66.8796 29.2448H64.8213V28.1145H66.2168C66.4052 28.1145 66.5098 28.0796 66.6214 27.8703" fill="#1C1C1C"/>
<path d="M24.8624 0.132812H0.135475V39.8633H24.8624V0.132812Z" fill="#7A716F"/>
<path d="M5.26677 0.132812H4.96808V6.80616H5.26677V0.132812Z" fill="white"/>
<path d="M5.40382 6.94284H4.83058V0H5.40382V6.94284ZM5.10513 6.6721H5.13055V0.269491H5.10513V6.6721Z" fill="white"/>
<path d="M11.3647 26.5373H11.0647V6.95472H0.137497V6.66016H11.3647V26.5373Z" fill="white"/>
<path d="M11.5017 26.6713H10.9272V7.08749H0V6.52344H11.5017V26.6713ZM11.2005 26.4019H11.2272V6.79293H0.274547V6.818H11.2005V26.4019Z" fill="white"/>
<path d="M15.507 20.8281H0.137497V21.1239H15.507V20.8281Z" fill="white"/>
<path d="M15.6428 21.258H0V20.6914H15.6428V21.258ZM0.273275 20.9885H15.3695V20.9634H0.274546V20.9885H0.273275Z" fill="white"/>
<path d="M24.863 26.5156H8.81596V26.8127H24.863V26.5156Z" fill="white"/>
<path d="M25 26.9494H8.67847V26.3828H25V26.9494ZM8.95301 26.6799H24.7267V26.6523H8.95301V26.6799Z" fill="white"/>
<path d="M18.4692 26.668H18.1718V39.8668H18.4692V26.668Z" fill="white"/>
<path d="M18.6063 40.0008H18.0343V26.5312H18.6063V40.0008ZM18.3089 39.7313H18.3317V26.802H18.3089V39.7313Z" fill="white"/>
<path d="M5.29382 16.043C3.89058 16.043 2.74791 14.5101 2.74791 12.6224C2.74791 10.7347 3.89186 9.19922 5.29382 9.19922C6.69579 9.19922 7.84482 10.7347 7.84482 12.6224C7.84482 14.5101 6.6996 16.043 5.29382 16.043ZM5.29382 9.49629C4.05709 9.49629 3.04407 10.8964 3.04407 12.6224C3.04407 14.3484 4.05582 15.7485 5.29382 15.7485C6.53182 15.7485 7.54612 14.3446 7.54612 12.6224C7.54612 10.9001 6.53436 9.49629 5.29382 9.49629Z" fill="white"/>
<path d="M5.2936 16.1758C3.8141 16.1758 2.61041 14.5802 2.61041 12.621C2.61041 10.6619 3.8141 9.0625 5.2936 9.0625C6.7731 9.0625 7.98059 10.6581 7.98059 12.621C7.98059 14.5839 6.77564 16.1758 5.2936 16.1758ZM5.2936 9.33199C3.96535 9.33199 2.88369 10.8073 2.88369 12.6198C2.88369 14.4323 3.96535 15.9051 5.2936 15.9051C6.62184 15.9051 7.70732 14.431 7.70732 12.6198C7.70732 10.8086 6.62439 9.33199 5.2936 9.33199ZM5.2936 15.8813C3.97679 15.8813 2.90784 14.4185 2.90784 12.621C2.90784 10.8236 3.97806 9.35957 5.2936 9.35957C6.60913 9.35957 7.6819 10.8223 7.6819 12.621C7.6819 14.4197 6.6104 15.8813 5.2936 15.8813ZM5.2936 9.62906C4.12805 9.62906 3.18112 10.9702 3.18112 12.6198C3.18112 14.2693 4.12932 15.6105 5.2936 15.6105C6.45788 15.6105 7.40862 14.2693 7.40862 12.6198C7.40862 10.9702 6.45915 9.62906 5.2936 9.62906Z" fill="white"/>
<path d="M4.51955 21.1024L4.36956 20.848C6.05243 19.8891 5.1055 17.1578 5.0966 17.1278L5.37751 17.0312C5.41945 17.1503 6.41214 20.0232 4.51828 21.1024" fill="white"/>
<path d="M4.46952 21.2853L4.18354 20.7977L4.30175 20.7313C5.80285 19.8764 5.05929 17.4497 4.96905 17.1765L4.92837 17.0512L5.05166 16.9998L5.46348 16.8594L5.50924 16.986C5.55373 17.1113 6.58074 20.0845 4.58773 21.2176L4.46952 21.2853ZM4.55596 20.893L4.5674 20.913C6.02402 19.9591 5.46348 17.7631 5.29189 17.2028L5.26647 17.2116C5.43806 17.7982 5.95665 19.9667 4.55468 20.893" fill="white"/>
<path d="M18.3212 23.545C16.7362 23.545 15.4461 22.343 15.4461 20.8677C15.4461 19.3924 16.7362 18.1953 18.3212 18.1953C19.9062 18.1953 21.1951 19.3898 21.1951 20.8677C21.1951 22.3455 19.9062 23.545 18.3212 23.545ZM18.3212 18.4924C16.9028 18.4924 15.7474 19.5578 15.7474 20.8677C15.7474 22.1775 16.9028 23.2442 18.3212 23.2442C19.7397 23.2442 20.8938 22.1788 20.8938 20.8677C20.8938 19.5566 19.741 18.4924 18.3212 18.4924Z" fill="white"/>
<path d="M18.323 23.6778C16.6631 23.6778 15.3107 22.4156 15.3107 20.8663C15.3107 19.3171 16.6618 18.0586 18.323 18.0586C19.9843 18.0586 21.3342 19.3183 21.3342 20.8663C21.3342 22.4143 19.9843 23.6778 18.323 23.6778ZM18.323 18.3293C16.8143 18.3293 15.5852 19.4662 15.5852 20.8663C15.5852 22.2664 16.8143 23.4083 18.323 23.4083C19.8318 23.4083 21.0596 22.2677 21.0596 20.8663C21.0596 19.465 19.833 18.3293 18.323 18.3293ZM18.323 23.3782C16.8283 23.3782 15.6106 22.2514 15.6106 20.8663C15.6106 19.4813 16.8283 18.3557 18.323 18.3557C19.8178 18.3557 21.0316 19.4813 21.0316 20.8663C21.0316 22.2514 19.8165 23.3782 18.323 23.3782ZM18.323 18.6252C16.9795 18.6252 15.8864 19.6304 15.8864 20.8663C15.8864 22.1022 16.9795 23.1062 18.323 23.1062C19.6665 23.1062 20.7584 22.101 20.7584 20.8663C20.7584 19.6317 19.6665 18.6252 18.323 18.6252Z" fill="white"/>
</svg>
