<svg width="171" height="40" viewBox="0 0 171 40" fill="none" xmlns="http://www.w3.org/2000/svg">
<path d="M119.395 16.6768H106.976V17.814H119.395V16.6768Z" fill="white"/>
<path d="M143.851 16.2087H146.419V27.2883H143.851V16.2087ZM148.407 14.5342H141.863V30.9861H143.851V28.9697H146.419V30.0861H148.407V14.5412V14.5342Z" fill="white"/>
<path d="M117.218 21.9648H111.385V22.9765H117.218V21.9648Z" fill="white"/>
<path d="M68.8458 15.2451H62.6223V16.4382H68.8458V15.2451Z" fill="white"/>
<path d="M117.218 24.3252H111.385V25.3369H117.218V24.3252Z" fill="white"/>
<path d="M140.856 17.6543H130.16V19.3358H140.856V17.6543Z" fill="white"/>
<path d="M136.58 14.3555H134.592V31.9028H136.58V14.3555Z" fill="white"/>
<path d="M111.937 14.4521C111.902 17.7453 109.565 21.5199 106.99 22.8386V23.9758C109.467 23.2851 113.207 19.3849 113.549 14.4521H111.937Z" fill="white"/>
<path d="M63.8722 21.2051C63.8303 24.882 61.8419 27.2472 59.6301 27.9659V29.2357C62.1907 28.6147 65.2746 26.1797 65.5327 21.2051H63.8652H63.8722Z" fill="white"/>
<path d="M62.7966 13.2422C62.6571 15.0702 62.0222 16.5563 60.7454 17.5819V18.8308C62.971 17.6657 64.1292 15.6842 64.4572 13.2422H62.7966Z" fill="white"/>
<path d="M170.021 15.0566H151.755V16.8567H170.021V15.0566Z" fill="white"/>
<path d="M158.752 11.9023C158.564 19.6539 156.254 25.8704 151.475 29.7288V31.6474C156.408 28.8636 160.908 21.9214 161.236 11.9023H158.752Z" fill="white"/>
<path d="M167.375 19.4171H158.57V21.2102H165.191L165.072 20.7428C164.982 25.7244 160 28.8292 154.956 30.0641V31.7386C161.284 30.5874 166.942 26.9245 167.382 20.5404V19.4102L167.375 19.4171Z" fill="white"/>
<path d="M159.867 20.8135C160.614 24.9439 165.756 28.4115 170.012 29.7581V31.8163C166.593 31.4326 159.735 27.665 158.214 21.0228L159.867 20.8135Z" fill="white"/>
<path d="M104.449 21.2408C104.449 18.6314 105.231 16.2522 106.514 14.4521H105.642C104.1 16.1615 103.145 18.5686 103.145 21.2408C103.145 23.9131 104.114 26.3481 105.67 28.0574H106.535C105.245 26.2574 104.456 23.8642 104.456 21.2408" fill="white"/>
<path d="M121.94 21.2408C121.94 18.6314 121.159 16.2522 119.882 14.4521H120.754C122.289 16.1615 123.252 18.5686 123.252 21.2408C123.252 23.9131 122.282 26.3481 120.733 28.0574H119.868C121.159 26.2574 121.947 23.8642 121.947 21.2408" fill="white"/>
<path d="M84.418 15.8691H75.9548V17.2087H84.418V15.8691Z" fill="white"/>
<path d="M74.018 14.7578V16.1672L71.3179 15.1555V13.6484L74.018 14.7578Z" fill="white"/>
<path d="M74.018 17.9044V19.3138L71.3179 18.3021V16.7881L74.018 17.9044Z" fill="white"/>
<path d="M85.8716 20.3877H74.9873V21.7273H85.8716V20.3877Z" fill="white"/>
<path d="M80.922 13.2422H79.3313V21.3216H80.922V13.2422Z" fill="white"/>
<path d="M79.2215 22.2988C78.1331 24.364 76.1796 26.4153 74.4841 27.1758V28.2782C77.5192 27.1549 79.9681 24.6641 81.0147 22.2988H79.2146H79.2215Z" fill="white"/>
<path d="M66.5087 16.1445C65.8319 18.2935 63.8295 20.0657 61.541 20.561V21.7611C65.0156 21.0076 67.332 18.5167 68.1762 16.1445H66.5087Z" fill="white"/>
<path d="M71.0591 26.792C72.5173 25.6687 72.8382 22.7801 72.8661 20.373H73.9685C73.9127 23.1011 73.9406 27.706 71.0591 29.3456V26.792Z" fill="white"/>
<path d="M82.4657 26.9551C81.9355 27.0667 81.0773 27.1295 80.54 27.1295H74.0583V28.5249H80.2889C80.8121 28.5249 81.7052 28.4412 82.2564 28.3505C82.8146 28.2528 83.589 28.0574 84.0216 27.7993V26.4736C83.5192 26.7178 82.9123 26.8574 82.4727 26.9481" fill="white"/>
<path d="M80.7778 24.2041C82.1384 25.2995 83.4849 27.3229 84.0989 28.8299H85.7943C85.0757 27.0228 83.2756 24.9227 82.3686 24.2041H80.7778Z" fill="white"/>
<path d="M50.6585 15.8691H42.1953V17.2087H50.6585V15.8691Z" fill="white"/>
<path d="M40.2538 14.7578V16.1672L37.5537 15.1555V13.6484L40.2538 14.7578Z" fill="white"/>
<path d="M40.2538 17.9044V19.3138L37.5537 18.3021V16.7881L40.2538 17.9044Z" fill="white"/>
<path d="M52.1074 20.3877H41.2231V21.7273H52.1074V20.3877Z" fill="white"/>
<path d="M47.1628 13.2422H45.572V21.3216H47.1628V13.2422Z" fill="white"/>
<path d="M45.4577 22.2988C44.3763 24.364 42.4157 26.4153 40.7273 27.1758V28.2782C43.7623 27.1549 46.2043 24.6641 47.2648 22.2988H45.4647H45.4577Z" fill="white"/>
<path d="M37.2949 26.792C38.7531 25.6687 39.0741 22.7801 39.102 20.373H40.2043C40.1485 23.1011 40.1765 27.706 37.2949 29.3456V26.792Z" fill="white"/>
<path d="M48.7037 26.9551C48.1804 27.0667 47.3222 27.1295 46.778 27.1295H40.2893V28.5249H46.5268C47.0501 28.5249 47.9432 28.4412 48.4874 28.3505C49.0455 28.2528 49.82 28.0574 50.2526 27.7993V26.4736C49.7502 26.7178 49.1432 26.8574 48.7037 26.9481" fill="white"/>
<path d="M47.0161 24.2041C48.3766 25.2995 49.7232 27.3229 50.3372 28.8299H52.0326C51.314 27.0228 49.5139 24.9227 48.6139 24.2041H47.0231H47.0161Z" fill="white"/>
<path d="M130.489 14.0769V15.7235C132.541 15.6258 139.064 15.3886 140.418 12.2559H137.704C135.324 14.0629 131.48 13.9443 130.489 14.0838" fill="white"/>
<path d="M130.16 26.5914V28.3566C132.184 27.6728 135.616 24.3029 135.826 20.7725L134.751 18.791C134.542 22.1261 131.765 25.7123 130.16 26.5914Z" fill="white"/>
<path d="M53.7549 25.5052V26.9146C55.248 26.3704 57.7806 23.6772 57.9341 20.8445L57.1457 19.2607C56.9922 21.926 54.941 24.7935 53.7549 25.4982" fill="white"/>
<path d="M136.161 19.6475L135.784 21.2731C136.789 22.829 139.007 25.4663 140.856 26.492V24.0779C138.784 22.7871 136.831 20.7708 136.161 19.6475Z" fill="white"/>
<path d="M63.1248 15.3809L62.5667 16.2809C62.8667 17.6414 65.504 20.5439 69.0832 22.1416V20.3555C66.5715 19.4206 63.7667 17.3414 63.1248 15.3809Z" fill="white"/>
<path d="M94.7371 17.7949L94.0813 19.1624C94.9604 21.5835 98.3722 27.3186 101.868 29.4606V27.2628C98.1489 24.2976 95.4069 19.6299 94.7371 17.8019" fill="white"/>
<path d="M95.2198 15.2734V13.7314H93.2802V15.6153C93.1685 20.6946 90.1614 25.732 87.1055 27.7554V29.1717C90.3568 28.1391 95.2198 22.1249 95.2198 15.2804" fill="white"/>
<path d="M54.3257 13.9775V15.2543H58.8398C58.5538 16.1614 57.9608 16.887 57.0886 17.501L57.8421 18.401C59.6004 17.5847 60.8562 15.6241 60.8353 14.4659V13.9775H54.3257Z" fill="white"/>
<path d="M117.971 27.3599C117.971 27.7646 117.643 28.0855 117.246 28.0855H115.334V27.0739H116.625V20.6689H111.936V28.1065H110.583V19.6084H117.978V27.3599H117.971Z" fill="white"/>
<path d="M54.033 18.5059V19.7757H57.1238V28.1482H55.7144V29.2785H57.7727C58.2331 29.2785 58.6099 28.8947 58.6099 28.4273V19.7757H59.796C59.7681 20.4176 59.6844 21.3455 59.5588 21.806H60.9682C61.1147 21.213 61.2054 19.978 61.2124 19.3291V18.5059H54.0399H54.033Z" fill="white"/>
<path d="M56.6578 15.918H55.095C56.0578 16.7064 56.8462 17.9902 57.5369 19.2111H59.344C58.5068 17.8018 57.3346 16.4622 56.6578 15.918Z" fill="white"/>
<path d="M66.6285 27.8633C67.0262 27.2215 67.1448 25.4842 67.2006 24.1097H60.1189V22.8398H68.7076V23.6632C68.6239 25.4772 68.4704 27.4029 67.9751 28.3866C67.7518 28.8611 67.3401 29.2448 66.8797 29.2448H64.8214V28.1145H66.2169C66.4053 28.1145 66.5099 28.0796 66.6215 27.8703" fill="white"/>
<path d="M24.8625 0.132812H0.135498V39.8633H24.8625V0.132812Z" fill="#7A716F"/>
<path d="M5.26671 0.132812H4.96802V6.80616H5.26671V0.132812Z" fill="white"/>
<path d="M5.40381 6.94284H4.83057V0H5.40381V6.94284ZM5.10511 6.6721H5.13053V0.269491H5.10511V6.6721Z" fill="white"/>
<path d="M11.3646 26.5373H11.0647V6.95472H0.137451V6.66016H11.3646V26.5373Z" fill="white"/>
<path d="M11.5017 26.6713H10.9272V7.08749H0V6.52344H11.5017V26.6713ZM11.2005 26.4019H11.2272V6.79293H0.274547V6.818H11.2005V26.4019Z" fill="white"/>
<path d="M15.507 20.8281H0.137451V21.1239H15.507V20.8281Z" fill="white"/>
<path d="M15.6428 21.258H0V20.6914H15.6428V21.258ZM0.273275 20.9885H15.3695V20.9634H0.274546V20.9885H0.273275Z" fill="white"/>
<path d="M24.8629 26.5156H8.81592V26.8127H24.8629V26.5156Z" fill="white"/>
<path d="M25 26.9494H8.67847V26.3828H25V26.9494ZM8.95301 26.6799H24.7267V26.6523H8.95301V26.6799Z" fill="white"/>
<path d="M18.4693 26.668H18.1719V39.8668H18.4693V26.668Z" fill="white"/>
<path d="M18.6064 40.0008H18.0344V26.5312H18.6064V40.0008ZM18.309 39.7313H18.3318V26.802H18.309V39.7313Z" fill="white"/>
<path d="M5.29371 16.043C3.89048 16.043 2.7478 14.5101 2.7478 12.6224C2.7478 10.7347 3.89175 9.19922 5.29371 9.19922C6.69568 9.19922 7.84471 10.7347 7.84471 12.6224C7.84471 14.5101 6.69949 16.043 5.29371 16.043ZM5.29371 9.49629C4.05698 9.49629 3.04396 10.8964 3.04396 12.6224C3.04396 14.3484 4.05571 15.7485 5.29371 15.7485C6.53171 15.7485 7.54601 14.3446 7.54601 12.6224C7.54601 10.9001 6.53426 9.49629 5.29371 9.49629Z" fill="white"/>
<path d="M5.29353 16.1758C3.81403 16.1758 2.61035 14.5802 2.61035 12.621C2.61035 10.6619 3.81403 9.0625 5.29353 9.0625C6.77304 9.0625 7.98053 10.6581 7.98053 12.621C7.98053 14.5839 6.77558 16.1758 5.29353 16.1758ZM5.29353 9.33199C3.96529 9.33199 2.88363 10.8073 2.88363 12.6198C2.88363 14.4323 3.96529 15.9051 5.29353 15.9051C6.62178 15.9051 7.70726 14.431 7.70726 12.6198C7.70726 10.8086 6.62432 9.33199 5.29353 9.33199ZM5.29353 15.8813C3.97673 15.8813 2.90778 14.4185 2.90778 12.621C2.90778 10.8236 3.978 9.35957 5.29353 9.35957C6.60907 9.35957 7.68183 10.8223 7.68183 12.621C7.68183 14.4197 6.61034 15.8813 5.29353 15.8813ZM5.29353 9.62906C4.12798 9.62906 3.18105 10.9702 3.18105 12.6198C3.18105 14.2693 4.12925 15.6105 5.29353 15.6105C6.45782 15.6105 7.40856 14.2693 7.40856 12.6198C7.40856 10.9702 6.45909 9.62906 5.29353 9.62906Z" fill="white"/>
<path d="M4.51961 21.1024L4.36963 20.848C6.0525 19.8891 5.10557 17.1578 5.09667 17.1278L5.37757 17.0312C5.41952 17.1503 6.4122 20.0232 4.51834 21.1024" fill="white"/>
<path d="M4.46958 21.2853L4.18359 20.7977L4.3018 20.7313C5.80291 19.8764 5.05935 17.4497 4.9691 17.1765L4.92843 17.0512L5.05172 16.9998L5.46354 16.8594L5.5093 16.986C5.55378 17.1113 6.58079 20.0845 4.58779 21.2176L4.46958 21.2853ZM4.55601 20.893L4.56745 20.913C6.02407 19.9591 5.46354 17.7631 5.29195 17.2028L5.26653 17.2116C5.43812 17.7982 5.95671 19.9667 4.55474 20.893" fill="white"/>
<path d="M18.3212 23.545C16.7362 23.545 15.446 22.343 15.446 20.8677C15.446 19.3924 16.7362 18.1953 18.3212 18.1953C19.9062 18.1953 21.195 19.3898 21.195 20.8677C21.195 22.3455 19.9062 23.545 18.3212 23.545ZM18.3212 18.4924C16.9027 18.4924 15.7473 19.5578 15.7473 20.8677C15.7473 22.1775 16.9027 23.2442 18.3212 23.2442C19.7396 23.2442 20.8938 22.1788 20.8938 20.8677C20.8938 19.5566 19.7409 18.4924 18.3212 18.4924Z" fill="white"/>
<path d="M18.3229 23.6778C16.6629 23.6778 15.3105 22.4156 15.3105 20.8663C15.3105 19.3171 16.6617 18.0586 18.3229 18.0586C19.9842 18.0586 21.334 19.3183 21.334 20.8663C21.334 22.4143 19.9842 23.6778 18.3229 23.6778ZM18.3229 18.3293C16.8142 18.3293 15.5851 19.4662 15.5851 20.8663C15.5851 22.2664 16.8142 23.4083 18.3229 23.4083C19.8317 23.4083 21.0595 22.2677 21.0595 20.8663C21.0595 19.465 19.8329 18.3293 18.3229 18.3293ZM18.3229 23.3782C16.8282 23.3782 15.6105 22.2514 15.6105 20.8663C15.6105 19.4813 16.8282 18.3557 18.3229 18.3557C19.8177 18.3557 21.0315 19.4813 21.0315 20.8663C21.0315 22.2514 19.8164 23.3782 18.3229 23.3782ZM18.3229 18.6252C16.9794 18.6252 15.8863 19.6304 15.8863 20.8663C15.8863 22.1022 16.9794 23.1062 18.3229 23.1062C19.6664 23.1062 20.7583 22.101 20.7583 20.8663C20.7583 19.6317 19.6664 18.6252 18.3229 18.6252Z" fill="white"/>
</svg>
