<svg width="146" height="36" viewBox="0 0 146 36" fill="none" xmlns="http://www.w3.org/2000/svg">
<g clip-path="url(#clip0_7163_98020)">
<path d="M25.3108 7.28027C22.082 7.28027 19.457 9.90527 19.457 13.134V18.9878H31.1645V13.134C31.1645 9.90527 28.5395 7.28027 25.3108 7.28027ZM28.7758 16.599H21.8545V13.134C21.8545 11.2265 23.4033 9.66902 25.3195 9.66902C27.2358 9.66902 28.7845 11.2178 28.7845 13.134V16.599H28.7758Z" fill="url(#paint0_linear_7163_98020)"/>
<path d="M16.2547 18.9961H17.8734V7.41113H15.4759V11.8824C14.5047 11.1649 13.3059 10.7361 12.0109 10.7361C10.7159 10.7361 9.51719 11.1649 8.54594 11.8824V7.41113H6.14844V18.9874H16.2372L16.2547 18.9961ZM8.55469 16.5986C8.55469 14.6911 10.1034 13.1336 12.0197 13.1336C13.9359 13.1336 15.4847 14.6824 15.4847 16.5986H8.56344H8.55469Z" fill="url(#paint1_linear_7163_98020)"/>
<path d="M18.6696 26.3995L13.4196 21.1582L11.5996 22.9782L18.6696 30.0395L25.7309 22.9782L23.9109 21.1582L18.6696 26.3995Z" fill="url(#paint2_linear_7163_98020)"/>
</g>
<g clip-path="url(#clip1_7163_98020)">
<path d="M58.0524 21.974H50.9046V26.1803H48.1336V21.974H41V19.7004H58.0524V21.974ZM56.5603 18.2225H42.4495V9.82422H45.2063V11.8989H53.8177V9.82422H56.5603V18.2225ZM53.8177 16.0057V14.1015H45.2063V16.0057H53.8177Z" fill="#717171"/>
<path d="M75.6309 25.3274H58.5928V23.0538H65.6695V20.2544H68.5116V23.0538H75.6451V25.3274H75.6309ZM74.1389 19.4586H60.0422V10.165H74.1531V19.4586H74.1389ZM71.3963 17.2134V12.4387H62.7848V17.2134H71.3963Z" fill="#717171"/>
<path d="M88.4342 17.9519H77.3359V10.0652H80.0785V15.7493H88.4342V17.9377V17.9519ZM92.1715 25.9097H78.6007V19.3303H92.1715V25.9097ZM89.4289 23.6929V21.5187H81.3575V23.6929H89.4289ZM92.1715 18.6482H89.4147V9.70996H92.1715V18.6625V18.6482Z" fill="#717171"/>
<path d="M109.764 21.3063H107.007V17.6401H103.995C103.568 18.1516 103 18.5495 102.304 18.8337C101.593 19.1179 100.755 19.2742 99.7885 19.2742C98.9359 19.2742 98.1685 19.1606 97.5291 18.919C96.8754 18.6774 96.3354 18.3648 95.8807 17.9811C95.4402 17.5832 95.1133 17.1285 94.886 16.6169C94.6586 16.0911 94.5449 15.5511 94.5449 14.9685V13.9312C94.5449 13.3485 94.6586 12.7943 94.886 12.2828C95.1133 11.757 95.4402 11.3023 95.8807 10.9186C96.3212 10.5207 96.8754 10.2081 97.5291 9.9807C98.1828 9.75333 98.9359 9.63965 99.7885 9.63965C100.726 9.63965 101.551 9.78175 102.247 10.066C102.943 10.3502 103.512 10.7338 103.938 11.2028H107.007V9.7107H109.764V21.3063ZM109.949 25.7826H96.2928V20.2548H99.0496V23.5373H109.949V25.7826ZM102.247 14.1017C102.247 13.7891 102.204 13.4906 102.105 13.2206C102.005 12.9507 101.863 12.7091 101.65 12.5101C101.451 12.3112 101.181 12.1407 100.883 12.027C100.57 11.8991 100.215 11.8422 99.8027 11.8422C99.3906 11.8422 99.007 11.8991 98.6943 12.027C98.3817 12.1549 98.1259 12.3112 97.927 12.5101C97.728 12.7091 97.5859 12.9507 97.4865 13.2206C97.387 13.4906 97.3444 13.7891 97.3444 14.1017V14.7696C97.3444 15.0822 97.387 15.3806 97.4865 15.6648C97.5859 15.949 97.728 16.1906 97.927 16.3895C98.1259 16.5885 98.3817 16.759 98.6943 16.8727C99.007 17.0006 99.3764 17.0574 99.8027 17.0574C100.229 17.0574 100.57 17.0006 100.883 16.8727C101.195 16.759 101.451 16.5885 101.65 16.3895C101.849 16.1906 102.005 15.949 102.105 15.6648C102.204 15.3806 102.247 15.0964 102.247 14.7696V14.1017ZM107.022 15.4375V13.3912H104.975C104.975 13.4906 104.99 13.5759 105.004 13.6612C105.004 13.7464 105.004 13.8317 105.004 13.9312V14.9685C105.004 15.0538 105.004 15.139 105.004 15.2101C105.004 15.2954 104.99 15.3664 104.975 15.4517H107.022V15.4375Z" fill="#717171"/>
<path d="M128.408 20.8366H121.075V26.1797H118.319V20.8366H111.355V18.563H128.408V20.8366ZM126.916 17.7672H124.173V12.2536H112.535V9.99414H126.916V17.7672Z" fill="#717171"/>
<path d="M146 25.3271H128.947V23.0534H136.024V19.5151H138.866V23.0534H146V25.3271ZM144.266 20.2256C143.555 20.0266 142.859 19.7566 142.177 19.444C141.495 19.1314 140.87 18.7761 140.273 18.3782C139.676 17.9803 139.15 17.5682 138.667 17.1135C138.184 16.6588 137.8 16.1898 137.473 15.7067C137.147 16.1898 136.749 16.6588 136.266 17.1135C135.782 17.5682 135.257 17.9945 134.674 18.3782C134.091 18.7619 133.452 19.1314 132.784 19.444C132.102 19.7566 131.406 20.0124 130.681 20.2256L129.231 18.1935C130.269 17.9093 131.207 17.5398 132.045 17.0851C132.884 16.6446 133.608 16.1472 134.205 15.6072C134.802 15.0672 135.257 14.4988 135.583 13.902C135.91 13.3051 136.067 12.7083 136.067 12.1399V9.99414H138.88V12.1399C138.88 12.7225 139.037 13.3051 139.363 13.902C139.69 14.4988 140.145 15.0672 140.742 15.6072C141.339 16.1472 142.063 16.6446 142.902 17.0851C143.74 17.5256 144.692 17.8951 145.744 18.1935L144.28 20.2256H144.266Z" fill="#717171"/>
</g>
<defs>
<linearGradient id="paint0_linear_7163_98020" x1="32.0395" y1="8.12902" x2="6.87453" y2="33.294" gradientUnits="userSpaceOnUse">
<stop offset="0.09" stop-color="#DF2126"/>
<stop offset="0.89" stop-color="#FF0098"/>
</linearGradient>
<linearGradient id="paint1_linear_7163_98020" x1="24.9347" y1="0.288634" x2="-0.239057" y2="25.4624" gradientUnits="userSpaceOnUse">
<stop offset="0.09" stop-color="#DF2126"/>
<stop offset="0.89" stop-color="#FF0098"/>
</linearGradient>
<linearGradient id="paint2_linear_7163_98020" x1="31.9696" y1="9.6782" x2="8.09086" y2="33.5482" gradientUnits="userSpaceOnUse">
<stop offset="0.09" stop-color="#DF2126"/>
<stop offset="0.89" stop-color="#FF0098"/>
</linearGradient>
<clipPath id="clip0_7163_98020">
<rect width="35.8313" height="35.8312" fill="white" transform="translate(0.75)"/>
</clipPath>
<clipPath id="clip1_7163_98020">
<rect width="105" height="16.555" fill="white" transform="translate(41 9.625)"/>
</clipPath>
</defs>
</svg>
