<svg id="ENG_flow_chart_2_7_3" xmlns="http://www.w3.org/2000/svg" width="1336" height="2000" viewBox="0 0 1336 2000">
    <defs>
        <filter id="area" x="105" y="94" width="1126" height="148" filterUnits="userSpaceOnUse">
            <feOffset dy="3"/>
            <feGaussianBlur stdDeviation="3" result="blur"/>
            <feFlood flood-color="#111" flood-opacity=".102"/>
            <feComposite operator="in" in2="blur"/>
            <feComposite in="SourceGraphic"/>
        </filter>
        <filter id="box" x="105" y="274" width="1126" height="148" filterUnits="userSpaceOnUse">
            <feOffset dy="3"/>
            <feGaussianBlur stdDeviation="3" result="blur-2"/>
            <feFlood flood-color="#111" flood-opacity=".102"/>
            <feComposite operator="in" in2="blur-2"/>
            <feComposite in="SourceGraphic"/>
        </filter>
        <filter id="box-2" x="105" y="454" width="1126" height="148" filterUnits="userSpaceOnUse">
            <feOffset dy="3"/>
            <feGaussianBlur stdDeviation="3" result="blur-3"/>
            <feFlood flood-color="#111" flood-opacity=".102"/>
            <feComposite operator="in" in2="blur-3"/>
            <feComposite in="SourceGraphic"/>
        </filter>
        <filter id="box-3" x="105" y="634" width="1126" height="148" filterUnits="userSpaceOnUse">
            <feOffset dy="3"/>
            <feGaussianBlur stdDeviation="3" result="blur-4"/>
            <feFlood flood-color="#111" flood-opacity=".102"/>
            <feComposite operator="in" in2="blur-4"/>
            <feComposite in="SourceGraphic"/>
        </filter>
        <filter id="box-4" x="105" y="814" width="1126" height="148" filterUnits="userSpaceOnUse">
            <feOffset dy="3"/>
            <feGaussianBlur stdDeviation="3" result="blur-5"/>
            <feFlood flood-color="#111" flood-opacity=".102"/>
            <feComposite operator="in" in2="blur-5"/>
            <feComposite in="SourceGraphic"/>
        </filter>
        <filter id="다각형_3" x="390" y="994" width="556" height="278" filterUnits="userSpaceOnUse">
            <feOffset dy="3"/>
            <feGaussianBlur stdDeviation="3" result="blur-6"/>
            <feFlood flood-color="#111" flood-opacity=".102"/>
            <feComposite operator="in" in2="blur-6"/>
            <feComposite in="SourceGraphic"/>
        </filter>
        <filter id="area-2" x="105" y="1764" width="1126" height="148" filterUnits="userSpaceOnUse">
            <feOffset dy="3"/>
            <feGaussianBlur stdDeviation="3" result="blur-7"/>
            <feFlood flood-color="#111" flood-opacity=".102"/>
            <feComposite operator="in" in2="blur-7"/>
            <feComposite in="SourceGraphic"/>
        </filter>
        <filter id="box-5" x="105" y="1354" width="556" height="148" filterUnits="userSpaceOnUse">
            <feOffset dy="3"/>
            <feGaussianBlur stdDeviation="3" result="blur-8"/>
            <feFlood flood-color="#111" flood-opacity=".102"/>
            <feComposite operator="in" in2="blur-8"/>
            <feComposite in="SourceGraphic"/>
        </filter>
        <filter id="box-6" x="105" y="1534" width="556" height="148" filterUnits="userSpaceOnUse">
            <feOffset dy="3"/>
            <feGaussianBlur stdDeviation="3" result="blur-9"/>
            <feFlood flood-color="#111" flood-opacity=".102"/>
            <feComposite operator="in" in2="blur-9"/>
            <feComposite in="SourceGraphic"/>
        </filter>
        <style>
            .cls-1{fill:#f8f8f8}.cls-2,.cls-5{fill:#fff}.cls-2{stroke:#999;stroke-width:2px}.cls-3{fill:#333}.cls-4{fill:red;opacity:0}.cls-5,.cls-6{stroke:#326f5e;stroke-width:1.5px}.cls-13,.cls-6{fill:none}.cls-7{fill:#326f5e}.cls-10{fill:#999}.cls-12{stroke:none}
        </style>
    </defs>
    <path id="bg" class="cls-1" d="M0 0h1336v2000H0z"/>
    <g id="fc_boxes" transform="translate(-293 -944)">
        <g id="fc_start_end" transform="translate(407 1044)">
            <g transform="translate(-114 -100)" style="filter:url(#area)">
                <g id="area-3" data-name="area" class="cls-2" transform="translate(114 100)">
                    <rect class="cls-12" width="1108" height="130" rx="65"/>
                    <rect class="cls-13" x="1" y="1" width="1106" height="128" rx="64"/>
                </g>
            </g>
            <path id="패스_11060" data-name="패스 11060" class="cls-3" d="M363.541 11.945c-.481-3.9-3.431-6.149-7.343-6.149-4.483 0-7.889 3.182-7.889 8.718s3.348 8.718 7.889 8.718c4.309 0 6.945-2.859 7.343-5.992l-3.564-.017a3.521 3.521 0 0 1-3.721 2.884c-2.6 0-4.376-1.931-4.376-5.594 0-3.572 1.749-5.594 4.392-5.594a3.5 3.5 0 0 1 3.7 3.025zm5.851 3.688a2.4 2.4 0 0 1 2.486-2.644 2.2 2.2 0 0 1 2.3 2.511V23h3.472v-8.1c0-2.992-1.749-4.79-4.4-4.79a3.759 3.759 0 0 0-3.8 2.4h-.149V6.028h-3.381V23h3.472zm22.533.928c0-4.343-2.635-6.456-5.975-6.456-3.729 0-6.157 2.66-6.157 6.588 0 4.036 2.4 6.555 6.3 6.555 3.141 0 5.246-1.525 5.743-3.87h-3.3a2.468 2.468 0 0 1-2.387 1.268 2.813 2.813 0 0 1-2.925-3.116h8.7zm-8.7-1.2a2.753 2.753 0 0 1 2.793-2.66 2.558 2.558 0 0 1 2.635 2.66zM397.577 23v-7.649a2.163 2.163 0 0 1 2.1-2.378 1.9 1.9 0 0 1 1.972 2.055V23H405v-7.79a2.014 2.014 0 0 1 2.072-2.238 1.908 1.908 0 0 1 2 2.138V23h3.472v-8.561c0-2.768-1.657-4.334-4.019-4.334a3.85 3.85 0 0 0-3.829 2.4h-.133a3.372 3.372 0 0 0-3.456-2.4 3.576 3.576 0 0 0-3.547 2.4h-.149v-2.234H394.1V23zm19.368-14.4a1.833 1.833 0 0 0 1.889-1.765 1.894 1.894 0 0 0-3.779 0 1.833 1.833 0 0 0 1.89 1.765zm1.732 14.4V10.271H415.2V23zm8.436.249c3.365 0 5.486-1.981 5.652-4.873h-3.273a2.284 2.284 0 0 1-2.345 2.113c-1.674 0-2.76-1.4-2.76-3.854 0-2.428 1.094-3.82 2.76-3.82a2.3 2.3 0 0 1 2.345 2.13h3.273c-.157-2.925-2.378-4.84-5.668-4.84-3.845 0-6.24 2.677-6.24 6.58-.001 3.87 2.343 6.564 6.256 6.564zM440.257 10.1c-3.381 0-5.3 1.74-5.5 3.953h3.29a1.925 1.925 0 0 1 2.13-1.409c1.285 0 2.014.613 2.022 1.691v1.028c-.53.017-2.254.091-3.157.149-2.445.157-4.732 1.077-4.732 3.928 0 2.511 1.807 3.8 4.235 3.8a3.906 3.906 0 0 0 3.721-2.006h.1V23h3.29v-8.577c-.004-3.067-2.623-4.323-5.399-4.323zm-.729 10.724c-1.111 0-1.9-.506-1.9-1.492s.762-1.55 1.972-1.649c.6-.058 2.1-.141 2.611-.166v.928a2.463 2.463 0 0 1-2.683 2.384zm8.76-14.8V23h3.472V6.028zm16.7 8.03c-.182-2.428-2.171-3.953-5.4-3.953-3.273 0-5.37 1.525-5.362 3.97-.008 1.881 1.235 3.133 3.671 3.613l2.1.414c1.193.249 1.724.655 1.732 1.318-.008.82-.845 1.318-2.1 1.318-1.285 0-2.088-.514-2.262-1.508h-3.481c.282 2.486 2.3 4.019 5.743 4.019 3.381 0 5.627-1.674 5.635-4.177-.008-1.84-1.2-2.942-3.663-3.448l-2.3-.464c-1.193-.257-1.641-.7-1.633-1.285-.008-.762.845-1.293 1.972-1.293a1.887 1.887 0 0 1 2.088 1.475zm18.472 0c-.182-2.428-2.171-3.953-5.4-3.953-3.273 0-5.37 1.525-5.362 3.97-.008 1.881 1.235 3.133 3.671 3.613l2.1.414c1.193.249 1.724.655 1.732 1.318-.008.82-.845 1.318-2.1 1.318-1.285 0-2.088-.514-2.262-1.508h-3.481c.282 2.486 2.3 4.019 5.743 4.019 3.381 0 5.627-1.674 5.635-4.177-.008-1.84-1.2-2.942-3.663-3.448l-2.3-.464c-1.193-.257-1.641-.7-1.633-1.285-.008-.762.845-1.293 1.972-1.293a1.887 1.887 0 0 1 2.088 1.475zm10.575 3.522a2.439 2.439 0 0 1-2.461 2.644 2.193 2.193 0 0 1-2.229-2.453v-7.5h-3.475v8.1c.008 2.983 1.749 4.79 4.309 4.79a3.908 3.908 0 0 0 3.854-2.47h.133V23h3.334V10.271h-3.464zM503.7 23v-2.03h.149a3.785 3.785 0 0 0 3.622 2.238c2.917 0 5.18-2.3 5.18-6.555 0-4.359-2.362-6.547-5.171-6.547a3.766 3.766 0 0 0-3.63 2.3h-.1V6.028h-3.464V23zm-.025-6.365c0-2.3.978-3.754 2.71-3.754 1.782 0 2.718 1.525 2.718 3.754 0 2.246-.953 3.8-2.718 3.8-1.719.004-2.714-1.512-2.714-3.8zm12.92-8.03a1.833 1.833 0 0 0 1.89-1.765 1.894 1.894 0 0 0-3.779 0 1.833 1.833 0 0 0 1.885 1.76zm-1.728 14.975c0 .978-.414 1.475-1.541 1.475-.157 0-.29-.008-.472-.017v2.718c.265.008.464.017.713.017 2.967 0 4.773-1.2 4.773-4.135V10.271h-3.472zm17.785-7.019c0-4.343-2.635-6.456-5.975-6.456-3.729 0-6.157 2.66-6.157 6.588 0 4.036 2.4 6.555 6.3 6.555 3.141 0 5.246-1.525 5.743-3.87h-3.3a2.468 2.468 0 0 1-2.387 1.268 2.813 2.813 0 0 1-2.925-3.116h8.7zm-8.7-1.2a2.753 2.753 0 0 1 2.793-2.66 2.558 2.558 0 0 1 2.635 2.66zm16.616 7.889c3.365 0 5.486-1.981 5.652-4.873h-3.273a2.284 2.284 0 0 1-2.345 2.113c-1.674 0-2.76-1.4-2.76-3.854 0-2.428 1.094-3.82 2.76-3.82a2.3 2.3 0 0 1 2.345 2.13h3.273c-.157-2.925-2.378-4.84-5.669-4.84-3.845 0-6.24 2.677-6.24 6.58-.002 3.869 2.344 6.563 6.255 6.563zm13.318-2.876c-.713-.025-1.21-.265-1.21-1.276v-6.217h2.4v-2.61h-2.4v-3.05H549.2v3.05h-1.749v2.61h1.749v6.688c-.017 2.478 1.691 3.6 4.21 3.6a11.971 11.971 0 0 0 1.831-.124v-2.73c-.412.025-1.017.066-1.357.058zm14.42 0c-.713-.025-1.21-.265-1.21-1.276v-6.217h2.4v-2.61h-2.4v-3.05h-3.472v3.05h-1.749v2.61h1.749v6.688c-.017 2.478 1.691 3.6 4.21 3.6a11.971 11.971 0 0 0 1.831-.124v-2.73c-.416.025-1.021.066-1.365.058zm8.958 2.876c3.845 0 6.24-2.644 6.24-6.564 0-3.945-2.4-6.58-6.24-6.58s-6.257 2.635-6.257 6.58c-.002 3.914 2.402 6.563 6.255 6.563zm.017-2.693c-1.815 0-2.743-1.657-2.743-3.9s.928-3.9 2.743-3.9c1.773 0 2.7 1.674 2.7 3.9s-.929 3.898-2.702 3.898zM597.417 23l2.2-8.08h.166L602 23h3.655l3.481-12.729h-3.514l-1.964 8.544h-.116l-2.1-8.544h-3.448l-2.088 8.6h-.116l-2-8.6h-3.514L593.754 23zm16.939 0v-7.235a2.592 2.592 0 0 1 2.718-2.66 6.212 6.212 0 0 1 1.483.191V10.2a6.641 6.641 0 0 0-1.11-.108 3.1 3.1 0 0 0-3.066 2.4h-.133v-2.221h-3.365V23zm7.633-14.4a1.833 1.833 0 0 0 1.889-1.765 1.894 1.894 0 0 0-3.779 0 1.833 1.833 0 0 0 1.89 1.765zm1.732 14.4V10.271h-3.472V23zm8.229-2.627c-.713-.025-1.21-.265-1.21-1.276v-6.216h2.4v-2.61h-2.4v-3.05h-3.472v3.05h-1.749v2.61h1.749v6.688c-.017 2.478 1.691 3.6 4.21 3.6a11.971 11.971 0 0 0 1.831-.124v-2.73c-.414.025-1.019.066-1.359.058zm14.834-3.812c0-4.343-2.635-6.456-5.975-6.456-3.729 0-6.157 2.66-6.157 6.588 0 4.036 2.4 6.555 6.3 6.555 3.141 0 5.246-1.525 5.743-3.87h-3.3a2.468 2.468 0 0 1-2.387 1.268 2.813 2.813 0 0 1-2.925-3.116h8.7zm-8.7-1.2a2.753 2.753 0 0 1 2.793-2.66 2.558 2.558 0 0 1 2.635 2.66zm31.409-3.414c-.481-3.9-3.431-6.149-7.343-6.149-4.483 0-7.89 3.182-7.89 8.718s3.348 8.718 7.89 8.718c4.309 0 6.945-2.859 7.343-5.992l-3.564-.017a3.521 3.521 0 0 1-3.721 2.884c-2.6 0-4.376-1.931-4.376-5.594 0-3.572 1.749-5.594 4.392-5.594a3.5 3.5 0 0 1 3.7 3.025zm15.05-1.061c-.05-3.008-2.528-5.088-6.29-5.088-3.7 0-6.431 2.047-6.414 5.122-.008 2.5 1.757 3.928 4.616 4.624l1.856.456c1.848.456 2.892.994 2.9 2.146-.008 1.276-1.2 2.13-3.05 2.13-1.873 0-3.232-.854-3.348-2.561h-3.423c.1 3.63 2.718 5.528 6.812 5.528 4.135 0 6.555-1.981 6.572-5.08-.017-2.834-2.18-4.318-5.08-4.972l-1.533-.373c-1.467-.34-2.735-.887-2.71-2.13 0-1.119.995-1.939 2.776-1.939 1.724 0 2.793.787 2.925 2.138zM700.412 23l-3.612-6.6a4.885 4.885 0 0 0 3-4.84c0-3.348-2.213-5.528-6.075-5.528h-6.646V23h3.521v-6.033h2.685L696.508 23zm-7.343-14.08c2.1 0 3.108.936 3.108 2.635s-1.011 2.561-3.1 2.561H690.6V8.92z" transform="translate(30 50)"/>
        </g>
        <g id="fc_box_big_no_btn" transform="translate(407 1224)">
            <g transform="translate(-114 -280)" style="filter:url(#box)">
                <g id="box-7" data-name="box" class="cls-2">
                    <path class="cls-12" d="M0 0h1108v130H0z" transform="translate(114 280)"/>
                    <path class="cls-13" d="M1 1h1106v128H1z" transform="translate(114 280)"/>
                </g>
            </g>
            <path id="패스_11061" data-name="패스 11061" class="cls-3" d="m419.738 6.028-4.2 2.669v3.133l3.9-2.445h.1V23h3.53V6.028zm8.412 17.18a1.96 1.96 0 1 0 0-3.92 1.96 1.96 0 1 0 0 3.92zM444.939 23c3.829 0 5.851-1.989 5.851-4.674a3.94 3.94 0 0 0-3.729-4.135v-.166a3.611 3.611 0 0 0 3.066-3.638c0-2.552-1.889-4.359-5.627-4.359h-6.754V23zm-3.671-14.113h2.776c1.608 0 2.519.837 2.519 2.072 0 1.359-1.1 2.18-2.586 2.18h-2.71zm0 6.663h3.05c1.749 0 2.834 1 2.834 2.428 0 1.285-.887 2.13-2.909 2.13h-2.975zm17.022-5.45c-3.381 0-5.3 1.74-5.5 3.953h3.29a1.925 1.925 0 0 1 2.13-1.409c1.285 0 2.014.613 2.022 1.691v1.028c-.53.017-2.254.091-3.157.149-2.445.157-4.732 1.077-4.732 3.928 0 2.511 1.807 3.8 4.235 3.8a3.906 3.906 0 0 0 3.721-2.006h.1V23h3.29v-8.577c-.004-3.067-2.623-4.323-5.399-4.323zm-.729 10.724c-1.111 0-1.9-.506-1.9-1.492s.762-1.55 1.972-1.649c.6-.058 2.1-.141 2.611-.166v.928a2.463 2.463 0 0 1-2.683 2.384zm19.285-6.771c-.182-2.428-2.171-3.953-5.4-3.953-3.273 0-5.37 1.525-5.362 3.97-.008 1.881 1.235 3.133 3.671 3.613l2.1.414c1.193.249 1.724.655 1.732 1.318-.008.82-.845 1.318-2.1 1.318-1.285 0-2.088-.514-2.262-1.508h-3.481c.282 2.486 2.3 4.019 5.743 4.019 3.381 0 5.627-1.674 5.635-4.177-.008-1.84-1.2-2.942-3.663-3.448l-2.3-.464c-1.193-.257-1.641-.7-1.633-1.285-.008-.762.845-1.293 1.972-1.293a1.887 1.887 0 0 1 2.088 1.475zM481 8.6a1.833 1.833 0 0 0 1.889-1.765 1.894 1.894 0 0 0-3.779 0A1.833 1.833 0 0 0 481 8.6zm1.729 14.4V10.271h-3.472V23zm8.436.249c3.365 0 5.486-1.981 5.652-4.873h-3.273a2.284 2.284 0 0 1-2.345 2.113c-1.674 0-2.76-1.4-2.76-3.854 0-2.428 1.094-3.82 2.76-3.82a2.3 2.3 0 0 1 2.345 2.13h3.273c-.157-2.925-2.378-4.84-5.668-4.84-3.845 0-6.24 2.677-6.24 6.58 0 3.87 2.345 6.564 6.257 6.564zM506.232 8.6a1.833 1.833 0 0 0 1.889-1.765 1.894 1.894 0 0 0-3.779 0 1.833 1.833 0 0 0 1.89 1.765zm1.732 14.4V10.271h-3.472V23zm6.174-7.367a2.373 2.373 0 0 1 2.445-2.644 2.2 2.2 0 0 1 2.279 2.511V23h3.472v-8.1c0-2.975-1.732-4.79-4.384-4.79a3.843 3.843 0 0 0-3.829 2.4h-.149v-2.239h-3.307V23h3.472zm16.823-7.624a8.322 8.322 0 0 1 1.069.075V5.439a9.7 9.7 0 0 0-2.08-.207c-2.544 0-4.16 1.4-4.16 4.086v.953h-1.807v2.61h1.807V23h3.472V12.881h2.538v-2.61h-2.536v-.779c-.002-1.053.587-1.484 1.697-1.484zm8.138 15.24c3.845 0 6.24-2.644 6.24-6.564 0-3.945-2.4-6.58-6.24-6.58s-6.257 2.635-6.257 6.58c.001 3.915 2.404 6.564 6.258 6.564zm.017-2.693c-1.815 0-2.743-1.657-2.743-3.9s.928-3.9 2.743-3.9c1.773 0 2.7 1.674 2.7 3.9s-.927 3.899-2.7 3.899zM551 23v-7.235a2.592 2.592 0 0 1 2.718-2.66 6.212 6.212 0 0 1 1.483.191V10.2a6.641 6.641 0 0 0-1.11-.108 3.1 3.1 0 0 0-3.066 2.4h-.133v-2.221h-3.365V23zm9.365 0v-7.649a2.163 2.163 0 0 1 2.1-2.378 1.9 1.9 0 0 1 1.972 2.055V23h3.356v-7.79a2.014 2.014 0 0 1 2.072-2.238 1.908 1.908 0 0 1 2 2.138V23h3.472v-8.561c0-2.768-1.657-4.334-4.019-4.334a3.85 3.85 0 0 0-3.829 2.4h-.133a3.372 3.372 0 0 0-3.456-2.4 3.576 3.576 0 0 0-3.547 2.4h-.153v-2.234h-3.307V23zm22.981-12.9c-3.381 0-5.3 1.74-5.5 3.953h3.29a1.925 1.925 0 0 1 2.13-1.409c1.285 0 2.014.613 2.022 1.691v1.028c-.53.017-2.254.091-3.157.149-2.445.157-4.732 1.077-4.732 3.928 0 2.511 1.807 3.8 4.235 3.8a3.906 3.906 0 0 0 3.721-2.006h.1V23h3.29v-8.577c-.005-3.067-2.623-4.323-5.4-4.323zm-.729 10.724c-1.111 0-1.9-.506-1.9-1.492s.762-1.55 1.972-1.649c.6-.058 2.1-.141 2.61-.166v.928a2.463 2.463 0 0 1-2.683 2.384zm14.287-.456c-.713-.025-1.21-.265-1.21-1.276v-6.211h2.4v-2.61h-2.4v-3.05h-3.472v3.05h-1.749v2.61h1.749v6.688c-.017 2.478 1.691 3.6 4.21 3.6a11.971 11.971 0 0 0 1.831-.124v-2.73c-.415.025-1.02.066-1.363.058zM602 8.6a1.833 1.833 0 0 0 1.889-1.765 1.894 1.894 0 0 0-3.779 0A1.833 1.833 0 0 0 602 8.6zm1.732 14.4V10.271h-3.472V23zm8.437.249c3.845 0 6.24-2.644 6.24-6.564 0-3.945-2.4-6.58-6.24-6.58s-6.257 2.635-6.257 6.58c0 3.915 2.403 6.564 6.257 6.564zm.017-2.693c-1.815 0-2.743-1.657-2.743-3.9s.928-3.9 2.743-3.9c1.773 0 2.7 1.674 2.7 3.9s-.927 3.899-2.701 3.899zm11.884-4.923a2.373 2.373 0 0 1 2.445-2.644 2.2 2.2 0 0 1 2.279 2.511V23h3.472v-8.1c0-2.975-1.732-4.79-4.384-4.79a3.843 3.843 0 0 0-3.829 2.4h-.153v-2.239h-3.3V23h3.472z" transform="translate(30 36)"/>
            <g id="fc_textlink" transform="translate(671 79)">
                <g id="stack" transform="translate(-2524.094 20210)">
                    <g id="ico_fc_pop_up" transform="translate(2461.409 -20209)">
                        <g id="그룹_1025" data-name="그룹 1025" transform="translate(-1101.074 -1125)">
                            <g id="그룹_1026" data-name="그룹 1026" transform="translate(1108.074 1129)">
                                <path id="사각형_878" data-name="사각형 878" class="cls-5" d="M0 0h9v9H0z"/>
                            </g>
                            <path id="패스_6896" data-name="패스 6896" class="cls-6" d="M1104.574 1132.941v9h9" transform="translate(.5 -.941)"/>
                        </g>
                    </g>
                    <path id="패스_11062" data-name="패스 11062" class="cls-7" d="M-61.008 0h1.646v-8.182h.094l3.326 8.166h1.359l3.326-8.149h.1V0h1.641v-11.315H-51.6l-3.586 8.768h-.133l-3.591-8.768h-2.094zm17.248.171c2.393 0 3.96-1.751 3.96-4.371 0-2.641-1.564-4.392-3.956-4.392s-3.971 1.747-3.971 4.392c0 2.62 1.57 4.371 3.967 4.371zm.006-1.392c-1.552 0-2.293-1.365-2.293-2.989s.74-3 2.293-3c1.536 0 2.271 1.381 2.271 3s-.735 2.989-2.271 2.989zM-36.483 0v-5.171a1.911 1.911 0 0 1 2.028-1.912 4.455 4.455 0 0 1 .867.1v-1.592a7.022 7.022 0 0 0-.713-.039 2.2 2.2 0 0 0-2.149 1.481h-.088v-1.353h-1.613V0zM-25.3-4.331c0-3.066-1.84-4.265-3.773-4.265C-31.434-8.6-33-6.8-33-4.188c0 2.636 1.544 4.359 4.047 4.359a3.368 3.368 0 0 0 3.541-2.3H-27.1a1.965 1.965 0 0 1-1.84.934 2.328 2.328 0 0 1-2.4-2.541h6.04zm-6.033-.657a2.288 2.288 0 0 1 2.282-2.238 2.086 2.086 0 0 1 2.11 2.238zM-18.9-9.79a1.022 1.022 0 0 0 1.044-.989 1.022 1.022 0 0 0-1.044-.989 1.025 1.025 0 0 0-1.055.989 1.025 1.025 0 0 0 1.055.989zm.825 9.79v-8.486h-1.669V0zm3.7-5.033A1.914 1.914 0 0 1-12.4-7.155a1.729 1.729 0 0 1 1.79 1.961V0h1.669v-5.4c0-2.094-1.149-3.2-2.89-3.2a2.523 2.523 0 0 0-2.5 1.5h-.1v-1.386h-1.6V0h1.669zM-3.4-10.4a5.092 5.092 0 0 1 .7.055v-1.387a5.874 5.874 0 0 0-1.133-.11 2.256 2.256 0 0 0-2.53 2.381v.978h-1.314v1.331h1.315V0h1.669v-7.155h1.818v-1.331h-1.818v-.74c0-.824.408-1.174 1.293-1.174zM1.881.171C4.273.171 5.837-1.58 5.837-4.2c0-2.645-1.564-4.4-3.956-4.4s-3.967 1.755-3.967 4.4c0 2.62 1.569 4.371 3.967 4.371zm.006-1.392C.334-1.221-.406-2.586-.406-4.21s.74-3 2.293-3c1.536 0 2.271 1.381 2.271 3s-.735 2.989-2.271 2.989zM9.157 0v-5.171a1.911 1.911 0 0 1 2.028-1.912 4.455 4.455 0 0 1 .867.1v-1.592a7.022 7.022 0 0 0-.713-.039 2.2 2.2 0 0 0-2.148 1.481H9.1v-1.353H7.489V0zm5.807 0v-5.227A1.806 1.806 0 0 1 16.7-7.155a1.453 1.453 0 0 1 1.546 1.525V0H19.9v-5.409a1.615 1.615 0 0 1 1.7-1.746 1.471 1.471 0 0 1 1.586 1.63V0h1.669v-5.691c0-1.939-1.088-2.906-2.624-2.906a2.636 2.636 0 0 0-2.547 1.5h-.088a2.287 2.287 0 0 0-2.282-1.5A2.318 2.318 0 0 0 15-7.1h-.1v-1.386h-1.6V0zm15.249-8.6c-2 0-3.315 1.022-3.47 2.425h1.663a1.623 1.623 0 0 1 1.746-1.077c1.138 0 1.729.552 1.729 1.508v.691c-.365.011-1.657.077-2.232.116-1.525.11-3.171.608-3.171 2.536A2.58 2.58 0 0 0 29.345.188a2.649 2.649 0 0 0 2.509-1.348h.066V0h1.624v-5.635c0-2.465-1.978-2.965-3.331-2.965zm-.5 7.453c-.934 0-1.6-.414-1.6-1.232 0-.834.685-1.249 1.773-1.326.4-.028 1.619-.11 2-.133v.773a1.989 1.989 0 0 1-2.171 1.921zm9.1-.221C38.273-1.37 37.8-1.541 37.8-2.5v-4.655h1.729v-1.331H37.8v-2.033h-1.67v2.033h-1.243v1.331h1.243v5A2.234 2.234 0 0 0 38.611.11a6.37 6.37 0 0 0 1.033-.071V-1.4c-.221.013-.592.035-.829.035zM42-9.79a1.022 1.022 0 0 0 1.044-.989A1.022 1.022 0 0 0 42-11.768a1.025 1.025 0 0 0-1.055.989A1.025 1.025 0 0 0 42-9.79zM42.826 0v-8.486h-1.669V0zm5.619.171C50.837.171 52.4-1.58 52.4-4.2c0-2.641-1.564-4.392-3.956-4.392S44.478-6.845 44.478-4.2c0 2.62 1.569 4.371 3.967 4.371zm.006-1.392c-1.552 0-2.293-1.365-2.293-2.989s.74-3 2.293-3c1.536 0 2.271 1.381 2.271 3s-.736 2.989-2.272 2.989zm7.271-3.812a1.914 1.914 0 0 1 1.972-2.122 1.729 1.729 0 0 1 1.79 1.961V0h1.669v-5.4c0-2.094-1.149-3.2-2.889-3.2a2.523 2.523 0 0 0-2.5 1.5h-.1v-1.386h-1.6V0h1.669zM-62.157 2H62.157v1H-62.157z" transform="translate(2395.094 -20194)"/>
                </g>
            </g>
        </g>
        <g id="fc_box_big_no_btn-2" data-name="fc_box_big_no_btn" transform="translate(407 1404)">
            <g transform="translate(-114 -460)" style="filter:url(#box-2)">
                <g id="box-8" data-name="box" class="cls-2">
                    <path class="cls-12" d="M0 0h1108v130H0z" transform="translate(114 460)"/>
                    <path class="cls-13" d="M1 1h1106v128H1z" transform="translate(114 460)"/>
                </g>
            </g>
            <path id="패스_11063" data-name="패스 11063" class="cls-3" d="M327.442 23v-2.892h-7.26v-.116l2.586-2.494c3.5-3.166 4.434-4.757 4.442-6.688-.01-2.943-2.42-5.01-6.066-5.01-3.564 0-6.025 2.122-6.017 5.445h3.348a2.674 2.674 0 0 1 5.337-.207c-.008 1.359-.862 2.3-2.436 3.812l-6.1 5.61.009 2.54zm4.558.207a1.96 1.96 0 1 0 0-3.92 1.96 1.96 0 1 0 0 3.92zm24.505-11.262c-.481-3.9-3.431-6.149-7.343-6.149-4.483 0-7.889 3.182-7.889 8.718s3.348 8.718 7.889 8.718c4.309 0 6.945-2.859 7.343-5.992l-3.564-.017a3.521 3.521 0 0 1-3.721 2.884c-2.6 0-4.376-1.931-4.376-5.594 0-3.572 1.749-5.594 4.392-5.594a3.5 3.5 0 0 1 3.7 3.025zm5.851 3.688a2.4 2.4 0 0 1 2.486-2.644 2.2 2.2 0 0 1 2.3 2.511V23h3.472v-8.1c0-2.992-1.749-4.79-4.4-4.79a3.759 3.759 0 0 0-3.8 2.4h-.149V6.028h-3.373V23h3.472zm22.533.928c0-4.343-2.635-6.456-5.975-6.456-3.729 0-6.157 2.66-6.157 6.588 0 4.036 2.4 6.555 6.3 6.555 3.141 0 5.246-1.525 5.743-3.87h-3.3a2.468 2.468 0 0 1-2.387 1.268 2.813 2.813 0 0 1-2.925-3.116h8.7zm-8.7-1.2a2.753 2.753 0 0 1 2.793-2.66 2.558 2.558 0 0 1 2.635 2.66zm16.611 7.888c3.365 0 5.486-1.981 5.652-4.873h-3.273a2.284 2.284 0 0 1-2.345 2.113c-1.674 0-2.76-1.4-2.76-3.854 0-2.428 1.094-3.82 2.76-3.82a2.3 2.3 0 0 1 2.345 2.13h3.273c-.157-2.925-2.378-4.84-5.668-4.84-3.845 0-6.24 2.677-6.24 6.58.003 3.87 2.348 6.564 6.256 6.564zM412.627 23l-5-7.218 4.749-5.511h-3.986l-4.135 4.865h-.191V6.028h-3.472V23h3.472v-4.069l.97-1.1L408.558 23zm12.63.249c3.365 0 5.486-1.981 5.652-4.873h-3.273a2.284 2.284 0 0 1-2.345 2.113c-1.674 0-2.76-1.4-2.76-3.854 0-2.428 1.094-3.82 2.76-3.82a2.3 2.3 0 0 1 2.345 2.13h3.273c-.157-2.925-2.378-4.84-5.668-4.84-3.845 0-6.24 2.677-6.24 6.58-.001 3.87 2.344 6.564 6.256 6.564zm7.79-17.221V23h3.472V6.028zm11.528 4.072c-3.381 0-5.3 1.74-5.5 3.953h3.29a1.925 1.925 0 0 1 2.13-1.409c1.285 0 2.014.613 2.022 1.691v1.028c-.53.017-2.254.091-3.157.149-2.445.157-4.732 1.077-4.732 3.928 0 2.511 1.807 3.8 4.235 3.8a3.906 3.906 0 0 0 3.721-2.006h.1V23h3.29v-8.577c-.004-3.067-2.623-4.323-5.399-4.323zm-.729 10.724c-1.111 0-1.9-.506-1.9-1.492s.762-1.55 1.972-1.649c.6-.058 2.1-.141 2.611-.166v.928a2.463 2.463 0 0 1-2.684 2.384zm19.285-6.771c-.182-2.428-2.171-3.953-5.4-3.953-3.273 0-5.37 1.525-5.362 3.97-.008 1.881 1.235 3.133 3.671 3.613l2.1.414c1.193.249 1.724.655 1.732 1.318-.008.82-.845 1.318-2.1 1.318-1.285 0-2.088-.514-2.262-1.508h-3.481c.282 2.486 2.3 4.019 5.743 4.019 3.381 0 5.627-1.674 5.635-4.177-.008-1.84-1.2-2.942-3.663-3.448l-2.3-.464c-1.193-.257-1.641-.7-1.633-1.285-.008-.762.845-1.293 1.972-1.293a1.887 1.887 0 0 1 2.088 1.475zm12.936 0c-.182-2.428-2.171-3.953-5.4-3.953-3.273 0-5.37 1.525-5.362 3.97-.008 1.881 1.235 3.133 3.671 3.613l2.1.414c1.193.249 1.724.655 1.732 1.318-.008.82-.845 1.318-2.1 1.318-1.285 0-2.088-.514-2.262-1.508h-3.476c.282 2.486 2.3 4.019 5.743 4.019 3.381 0 5.627-1.674 5.635-4.177-.008-1.84-1.2-2.942-3.663-3.448l-2.3-.464c-1.193-.257-1.641-.7-1.633-1.285-.008-.762.845-1.293 1.972-1.293a1.887 1.887 0 0 1 2.088 1.475zm4.151-5.453a1.833 1.833 0 0 0 1.889-1.765 1.894 1.894 0 0 0-3.779 0 1.833 1.833 0 0 0 1.89 1.765zM481.95 23V10.271h-3.472V23zm8.66-14.992a8.321 8.321 0 0 1 1.069.075V5.439a9.7 9.7 0 0 0-2.08-.207c-2.544 0-4.16 1.4-4.16 4.086v.953h-1.807v2.61h1.807V23h3.472V12.881h2.536v-2.61h-2.536v-.779c.001-1.053.589-1.484 1.699-1.484zm4.6.6a1.833 1.833 0 0 0 1.89-1.768 1.894 1.894 0 0 0-3.779 0 1.833 1.833 0 0 0 1.889 1.76zM496.942 23V10.271h-3.472V23zm8.436.249c3.365 0 5.486-1.981 5.652-4.873h-3.273a2.284 2.284 0 0 1-2.345 2.113c-1.674 0-2.76-1.4-2.76-3.854 0-2.428 1.094-3.82 2.76-3.82a2.3 2.3 0 0 1 2.345 2.13h3.273c-.157-2.925-2.378-4.84-5.668-4.84-3.845 0-6.24 2.677-6.24 6.58 0 3.87 2.345 6.564 6.256 6.564zM518.522 10.1c-3.381 0-5.3 1.74-5.5 3.953h3.29a1.925 1.925 0 0 1 2.13-1.409c1.285 0 2.014.613 2.022 1.691v1.028c-.53.017-2.254.091-3.157.149-2.445.157-4.732 1.077-4.732 3.928 0 2.511 1.807 3.8 4.235 3.8a3.906 3.906 0 0 0 3.721-2.006h.1V23h3.29v-8.577c-.004-3.067-2.621-4.323-5.399-4.323zm-.729 10.724c-1.111 0-1.9-.506-1.9-1.492s.762-1.55 1.972-1.649c.6-.058 2.1-.141 2.61-.166v.928a2.463 2.463 0 0 1-2.682 2.384zm14.287-.456c-.713-.025-1.21-.265-1.21-1.276v-6.211h2.4v-2.61h-2.4v-3.05h-3.47v3.05h-1.749v2.61h1.749v6.688c-.017 2.478 1.691 3.6 4.21 3.6a11.971 11.971 0 0 0 1.831-.124v-2.73c-.416.025-1.021.066-1.361.058zm5.1-11.768a1.833 1.833 0 0 0 1.889-1.765 1.894 1.894 0 0 0-3.779 0 1.833 1.833 0 0 0 1.887 1.765zm1.729 14.4V10.271h-3.472V23zm8.436.249c3.845 0 6.24-2.644 6.24-6.564 0-3.945-2.4-6.58-6.24-6.58s-6.257 2.635-6.257 6.58c0 3.915 2.404 6.564 6.257 6.564zm.017-2.693c-1.815 0-2.743-1.657-2.743-3.9s.928-3.9 2.743-3.9c1.773 0 2.7 1.674 2.7 3.9s-.927 3.899-2.7 3.899zm11.884-4.923a2.373 2.373 0 0 1 2.445-2.644 2.2 2.2 0 0 1 2.279 2.511V23h3.472v-8.1c0-2.975-1.732-4.79-4.384-4.79a3.843 3.843 0 0 0-3.829 2.4h-.149v-2.239h-3.307V23h3.472zM581 10.1c-3.381 0-5.3 1.74-5.5 3.953h3.29a1.925 1.925 0 0 1 2.13-1.409c1.285 0 2.014.613 2.022 1.691v1.028c-.53.017-2.254.091-3.157.149-2.445.157-4.732 1.077-4.732 3.928 0 2.511 1.807 3.8 4.235 3.8a3.906 3.906 0 0 0 3.721-2.006h.1V23h3.29v-8.577c-.004-3.067-2.623-4.323-5.399-4.323zm-.729 10.724c-1.111 0-1.9-.506-1.9-1.492s.762-1.55 1.972-1.649c.6-.058 2.1-.141 2.61-.166v.928a2.463 2.463 0 0 1-2.682 2.384zm12.232-5.2a2.373 2.373 0 0 1 2.445-2.644 2.2 2.2 0 0 1 2.279 2.511V23h3.473v-8.1c0-2.975-1.732-4.79-4.384-4.79a3.843 3.843 0 0 0-3.829 2.4h-.149v-2.239h-3.308V23h3.47zm15.564 7.575a3.785 3.785 0 0 0 3.622-2.238h.149V23h3.414V6.028h-3.464v6.381h-.1a3.757 3.757 0 0 0-3.63-2.3c-2.809 0-5.171 2.188-5.171 6.547 0 4.244 2.262 6.551 5.179 6.551zm1.086-2.768c-1.765 0-2.718-1.558-2.718-3.8 0-2.229.936-3.754 2.718-3.754 1.732 0 2.71 1.459 2.71 3.754s-.996 3.808-2.711 3.808zM625.312 8.6a1.833 1.833 0 0 0 1.888-1.76 1.894 1.894 0 0 0-3.779 0 1.833 1.833 0 0 0 1.891 1.76zm1.732 14.4V10.271h-3.472V23zm6.174-7.367a2.373 2.373 0 0 1 2.445-2.644 2.2 2.2 0 0 1 2.279 2.511V23h3.472v-8.1c0-2.975-1.732-4.79-4.384-4.79a3.843 3.843 0 0 0-3.829 2.4h-.149v-2.239h-3.307V23h3.472zm15.564 7.575a3.785 3.785 0 0 0 3.618-2.238h.149V23h3.414V6.028H652.5v6.381h-.1a3.757 3.757 0 0 0-3.63-2.3c-2.809 0-5.171 2.188-5.171 6.547.001 4.244 2.266 6.551 5.183 6.551zm1.086-2.768c-1.765 0-2.718-1.558-2.718-3.8 0-2.229.936-3.754 2.718-3.754 1.732 0 2.71 1.459 2.71 3.754s-.995 3.799-2.711 3.799zM660.492 8.6a1.833 1.833 0 0 0 1.889-1.765 1.894 1.894 0 0 0-3.779 0 1.833 1.833 0 0 0 1.89 1.765zm1.732 14.4V10.271h-3.472V23zm8.437.249c3.365 0 5.486-1.981 5.652-4.873h-3.273a2.284 2.284 0 0 1-2.345 2.113c-1.674 0-2.76-1.4-2.76-3.854 0-2.428 1.094-3.82 2.76-3.82a2.3 2.3 0 0 1 2.345 2.13h3.273c-.157-2.925-2.378-4.84-5.669-4.84-3.845 0-6.24 2.677-6.24 6.58-.004 3.87 2.345 6.564 6.256 6.564zM683.8 10.1c-3.381 0-5.3 1.74-5.5 3.953h3.29a1.925 1.925 0 0 1 2.13-1.409c1.285 0 2.014.613 2.022 1.691v1.028c-.53.017-2.254.091-3.157.149-2.445.157-4.732 1.077-4.732 3.928 0 2.511 1.807 3.8 4.235 3.8a3.906 3.906 0 0 0 3.721-2.006h.1V23h3.29v-8.577c.001-3.067-2.619-4.323-5.399-4.323zm-.729 10.724c-1.111 0-1.9-.506-1.9-1.492s.762-1.55 1.972-1.649c.6-.058 2.1-.141 2.61-.166v.928a2.463 2.463 0 0 1-2.678 2.384zm14.287-.456c-.713-.025-1.21-.265-1.21-1.276v-6.211h2.4v-2.61h-2.4v-3.05h-3.468v3.05h-1.749v2.61h1.749v6.688c-.017 2.478 1.691 3.6 4.21 3.6a11.971 11.971 0 0 0 1.831-.124v-2.73c-.414.025-1.021.066-1.359.058zm5.1-11.768a1.833 1.833 0 0 0 1.889-1.765 1.894 1.894 0 0 0-3.779 0 1.833 1.833 0 0 0 1.891 1.765zm1.733 14.4V10.271h-3.472V23zm8.436.249c3.845 0 6.24-2.644 6.24-6.564 0-3.945-2.4-6.58-6.24-6.58s-6.257 2.635-6.257 6.58c0 3.915 2.403 6.564 6.257 6.564zm.017-2.693c-1.815 0-2.743-1.657-2.743-3.9s.928-3.9 2.743-3.9c1.773 0 2.7 1.674 2.7 3.9s-.927 3.899-2.7 3.899zm11.884-4.923a2.373 2.373 0 0 1 2.445-2.644 2.2 2.2 0 0 1 2.279 2.511V23h3.472v-8.1c0-2.975-1.732-4.79-4.384-4.79a3.843 3.843 0 0 0-3.829 2.4h-.149v-2.239h-3.307V23h3.472z" transform="translate(30 51)"/>
        </g>
        <g id="fc_box_big_no_btn-3" data-name="fc_box_big_no_btn" transform="translate(407 1584)">
            <g transform="translate(-114 -640)" style="filter:url(#box-3)">
                <g id="box-9" data-name="box" class="cls-2">
                    <path class="cls-12" d="M0 0h1108v130H0z" transform="translate(114 640)"/>
                    <path class="cls-13" d="M1 1h1106v128H1z" transform="translate(114 640)"/>
                </g>
            </g>
            <path id="패스_11064" data-name="패스 11064" class="cls-3" d="M423.309 23.232c3.82 0 6.58-2.088 6.564-4.989.017-2.122-1.359-3.638-3.862-3.945v-.133a3.6 3.6 0 0 0 3.224-3.6c.017-2.677-2.345-4.773-5.876-4.773-3.481 0-6.116 2.03-6.174 4.948h3.381c.05-1.3 1.276-2.138 2.776-2.138a2.224 2.224 0 0 1 2.494 2.18c.008 1.343-1.16 2.254-2.843 2.254h-1.573v2.61h1.575c2 0 3.224.978 3.215 2.362.008 1.367-1.2 2.3-2.892 2.3-1.633 0-2.859-.837-2.917-2.088h-3.555c.054 2.965 2.726 5.012 6.463 5.012zm10.616-.025a1.96 1.96 0 1 0 0-3.92 1.96 1.96 0 1 0 0 3.92zM456.856 23l-3.613-6.6a4.885 4.885 0 0 0 3-4.84c0-3.348-2.213-5.528-6.075-5.528h-6.646V23h3.522v-6.033h2.685L452.953 23zm-7.342-14.08c2.1 0 3.108.936 3.108 2.635s-1.011 2.561-3.1 2.561h-2.478V8.92zm10.823-.32a1.833 1.833 0 0 0 1.889-1.765 1.894 1.894 0 0 0-3.779 0 1.833 1.833 0 0 0 1.89 1.765zm1.732 14.4V10.271H458.6V23zm13.231-8.942c-.182-2.428-2.171-3.953-5.4-3.953-3.273 0-5.37 1.525-5.362 3.97-.008 1.881 1.235 3.133 3.671 3.613l2.1.414c1.193.249 1.724.655 1.732 1.318-.008.82-.845 1.318-2.1 1.318-1.285 0-2.088-.514-2.262-1.508H464.2c.282 2.486 2.3 4.019 5.743 4.019 3.381 0 5.627-1.674 5.635-4.177-.008-1.84-1.2-2.942-3.663-3.448l-2.3-.464c-1.193-.257-1.641-.7-1.633-1.285-.008-.762.845-1.293 1.972-1.293a1.887 1.887 0 0 1 2.088 1.475zM489.74 23l-5-7.218 4.749-5.511h-3.986l-4.135 4.865h-.191V6.028h-3.472V23h3.472v-4.069l.97-1.1L485.671 23zm12.249-12.9c-3.381 0-5.3 1.74-5.5 3.953h3.29a1.925 1.925 0 0 1 2.13-1.409c1.285 0 2.014.613 2.022 1.691v1.028c-.53.017-2.254.091-3.157.149-2.445.157-4.732 1.077-4.732 3.928 0 2.511 1.807 3.8 4.235 3.8a3.906 3.906 0 0 0 3.721-2.006h.1V23h3.29v-8.577c-.004-3.067-2.623-4.323-5.399-4.323zm-.729 10.724c-1.111 0-1.9-.506-1.9-1.492s.762-1.55 1.972-1.649c.6-.058 2.1-.141 2.611-.166v.928a2.463 2.463 0 0 1-2.683 2.384zm19.285-6.771c-.182-2.428-2.171-3.953-5.4-3.953-3.273 0-5.37 1.525-5.362 3.97-.008 1.881 1.235 3.133 3.671 3.613l2.1.414c1.193.249 1.724.655 1.732 1.318-.008.82-.845 1.318-2.1 1.318-1.285 0-2.088-.514-2.262-1.508h-3.481c.282 2.486 2.3 4.019 5.743 4.019 3.381 0 5.627-1.674 5.635-4.177-.008-1.84-1.2-2.942-3.663-3.448l-2.3-.464c-1.193-.257-1.641-.7-1.633-1.285-.008-.762.845-1.293 1.972-1.293a1.887 1.887 0 0 1 2.088 1.475zm12.936 0c-.182-2.428-2.171-3.953-5.4-3.953-3.273 0-5.37 1.525-5.362 3.97-.008 1.881 1.235 3.133 3.671 3.613l2.1.414c1.193.249 1.724.655 1.732 1.318-.008.82-.845 1.318-2.1 1.318-1.285 0-2.088-.514-2.262-1.508h-3.481c.282 2.486 2.3 4.019 5.743 4.019 3.381 0 5.627-1.674 5.635-4.177-.008-1.84-1.2-2.942-3.663-3.448l-2.3-.464c-1.193-.257-1.641-.7-1.633-1.285-.008-.762.845-1.293 1.972-1.293a1.887 1.887 0 0 1 2.088 1.475zm14.022 2.5c0-4.343-2.635-6.456-5.975-6.456-3.729 0-6.157 2.66-6.157 6.588 0 4.036 2.4 6.555 6.3 6.555 3.141 0 5.246-1.525 5.743-3.87h-3.3a2.468 2.468 0 0 1-2.387 1.268 2.813 2.813 0 0 1-2.927-3.108h8.7zm-8.7-1.2a2.753 2.753 0 0 1 2.793-2.66 2.558 2.558 0 0 1 2.635 2.66zm21.406-1.3c-.182-2.428-2.171-3.953-5.4-3.953-3.273 0-5.37 1.525-5.362 3.97-.008 1.881 1.235 3.133 3.671 3.613l2.1.414c1.193.249 1.724.655 1.732 1.318-.008.82-.845 1.318-2.1 1.318-1.285 0-2.088-.514-2.262-1.508h-3.478c.282 2.486 2.3 4.019 5.743 4.019 3.381 0 5.627-1.674 5.635-4.177-.008-1.84-1.2-2.942-3.663-3.448l-2.3-.464c-1.193-.257-1.641-.7-1.633-1.285-.008-.762.845-1.293 1.972-1.293a1.887 1.887 0 0 1 2.088 1.475zm12.936 0c-.182-2.428-2.171-3.953-5.4-3.953-3.273 0-5.37 1.525-5.362 3.97-.008 1.881 1.235 3.133 3.671 3.613l2.1.414c1.193.249 1.724.655 1.732 1.318-.008.82-.845 1.318-2.1 1.318-1.285 0-2.088-.514-2.262-1.508h-3.481c.282 2.486 2.3 4.019 5.743 4.019 3.381 0 5.627-1.674 5.635-4.177-.008-1.84-1.2-2.942-3.663-3.448l-2.3-.464c-1.193-.257-1.641-.7-1.633-1.285-.008-.762.845-1.293 1.972-1.293a1.887 1.887 0 0 1 2.088 1.475zM579.028 23v-7.649a2.163 2.163 0 0 1 2.1-2.378 1.9 1.9 0 0 1 1.972 2.055V23h3.356v-7.79a2.014 2.014 0 0 1 2.072-2.238 1.908 1.908 0 0 1 2 2.138V23H594v-8.561c0-2.768-1.657-4.334-4.019-4.334a3.85 3.85 0 0 0-3.829 2.4h-.133a3.372 3.372 0 0 0-3.456-2.4 3.576 3.576 0 0 0-3.547 2.4h-.149v-2.234h-3.307V23zm29.238-6.439c0-4.343-2.635-6.456-5.975-6.456-3.729 0-6.157 2.66-6.157 6.588 0 4.036 2.4 6.555 6.3 6.555 3.141 0 5.246-1.525 5.743-3.87h-3.3a2.468 2.468 0 0 1-2.387 1.268 2.813 2.813 0 0 1-2.925-3.116h8.7zm-8.7-1.2a2.753 2.753 0 0 1 2.793-2.66 2.558 2.558 0 0 1 2.635 2.66zm14.354.273a2.373 2.373 0 0 1 2.445-2.644 2.2 2.2 0 0 1 2.279 2.511V23h3.472v-8.1c0-2.975-1.732-4.79-4.384-4.79a3.843 3.843 0 0 0-3.829 2.4h-.149v-2.239h-3.307V23h3.472zm16.392 4.74c-.713-.025-1.21-.265-1.21-1.276v-6.217h2.4v-2.61h-2.4v-3.05h-3.472v3.05h-1.749v2.61h1.749v6.688c-.017 2.478 1.691 3.6 4.21 3.6a11.971 11.971 0 0 0 1.831-.124v-2.73c-.417.025-1.022.066-1.362.058z" transform="translate(30 51)"/>
        </g>
        <g id="fc_box_big_no_btn-4" data-name="fc_box_big_no_btn" transform="translate(407 1764)">
            <g transform="translate(-114 -820)" style="filter:url(#box-4)">
                <g id="box-10" data-name="box" class="cls-2">
                    <path class="cls-12" d="M0 0h1108v130H0z" transform="translate(114 820)"/>
                    <path class="cls-13" d="M1 1h1106v128H1z" transform="translate(114 820)"/>
                </g>
            </g>
            <path id="패스_11065" data-name="패스 11065" class="cls-3" d="M293.07 17.166V6.028h-4.425l-7.185 11.187v2.776h8.246V23h3.365v-3.008h2.138v-2.826zM289.6 9.89h.157v7.276h-4.74v-.133zm9.622 13.318a1.96 1.96 0 1 0 0-3.92 1.96 1.96 0 1 0 0 3.92zM320.236 23v-2.917h-7.9v-4.119h7.276v-2.909h-7.276v-4.11h7.864V6.028h-11.384V23zM331 10.271l-2.669 9.149h-.131l-2.677-9.149h-3.671L326.311 23h3.9l4.459-12.729zm10.36-.171c-3.381 0-5.3 1.74-5.5 3.953h3.29a1.925 1.925 0 0 1 2.13-1.409c1.285 0 2.014.613 2.022 1.691v1.028c-.53.017-2.254.091-3.157.149-2.445.157-4.732 1.077-4.732 3.928 0 2.511 1.807 3.8 4.235 3.8a3.906 3.906 0 0 0 3.721-2.006h.1V23h3.29v-8.577c-.004-3.067-2.622-4.323-5.399-4.323zm-.729 10.724c-1.111 0-1.9-.506-1.9-1.492s.762-1.55 1.972-1.649c.6-.058 2.1-.141 2.611-.166v.928a2.463 2.463 0 0 1-2.683 2.384zm8.76-14.8V23h3.472V6.028zm14.337 11.556a2.439 2.439 0 0 1-2.461 2.644 2.193 2.193 0 0 1-2.229-2.453v-7.5h-3.472v8.1c.008 2.983 1.749 4.79 4.309 4.79a3.908 3.908 0 0 0 3.854-2.47h.133V23h3.332V10.271h-3.464zm11.519-7.48c-3.381 0-5.3 1.74-5.5 3.953h3.29a1.925 1.925 0 0 1 2.13-1.409c1.285 0 2.014.613 2.022 1.691v1.028c-.53.017-2.254.091-3.157.149-2.445.157-4.732 1.077-4.732 3.928 0 2.511 1.807 3.8 4.235 3.8a3.906 3.906 0 0 0 3.721-2.006h.1V23h3.29v-8.577c-.004-3.067-2.623-4.323-5.399-4.323zm-.729 10.724c-1.111 0-1.9-.506-1.9-1.492s.762-1.55 1.972-1.649c.6-.058 2.1-.141 2.611-.166v.928a2.463 2.463 0 0 1-2.683 2.384zm14.287-.456c-.713-.025-1.21-.265-1.21-1.276v-6.211H390v-2.61h-2.4v-3.05h-3.472v3.05h-1.749v2.61h1.749v6.688c-.017 2.478 1.691 3.6 4.21 3.6a11.971 11.971 0 0 0 1.831-.124v-2.73c-.419.025-1.024.066-1.364.058zM393.9 8.6a1.833 1.833 0 0 0 1.889-1.765 1.894 1.894 0 0 0-3.779 0A1.833 1.833 0 0 0 393.9 8.6zm1.734 14.4V10.271h-3.472V23zm8.436.249c3.845 0 6.24-2.644 6.24-6.564 0-3.945-2.4-6.58-6.24-6.58s-6.257 2.635-6.257 6.58c0 3.915 2.404 6.564 6.257 6.564zm.017-2.693c-1.815 0-2.743-1.657-2.743-3.9s.928-3.9 2.743-3.9c1.773 0 2.7 1.674 2.7 3.9s-.927 3.899-2.7 3.899zm11.884-4.923a2.373 2.373 0 0 1 2.445-2.644 2.2 2.2 0 0 1 2.279 2.511V23h3.472v-8.1c0-2.975-1.732-4.79-4.384-4.79a3.843 3.843 0 0 0-3.829 2.4h-.149v-2.239H412.5V23h3.472zm22.135 7.616c3.845 0 6.24-2.644 6.24-6.564 0-3.945-2.4-6.58-6.24-6.58s-6.257 2.635-6.257 6.58c0 3.915 2.404 6.564 6.257 6.564zm.017-2.693c-1.815 0-2.743-1.657-2.743-3.9s.928-3.9 2.743-3.9c1.773 0 2.7 1.674 2.7 3.9s-.923 3.899-2.7 3.899zm14.37-12.547a8.321 8.321 0 0 1 1.069.075V5.439a9.7 9.7 0 0 0-2.08-.207c-2.544 0-4.16 1.4-4.16 4.086v.953h-1.807v2.61h1.807V23h3.472V12.881h2.536v-2.61h-2.536v-.779c0-1.053.588-1.484 1.699-1.484zm11.867 19.764v-6.8h.108a3.777 3.777 0 0 0 3.622 2.238c2.909 0 5.171-2.3 5.171-6.555 0-4.359-2.354-6.547-5.171-6.547a3.753 3.753 0 0 0-3.622 2.3h-.157v-2.138h-3.423v17.5zm-.075-11.138c0-2.3.97-3.754 2.718-3.754 1.773 0 2.71 1.525 2.71 3.754 0 2.246-.953 3.8-2.71 3.8-1.731.004-2.717-1.512-2.717-3.8zm22.807-.075c0-4.343-2.635-6.456-5.975-6.456-3.729 0-6.157 2.66-6.157 6.588 0 4.036 2.4 6.555 6.3 6.555 3.141 0 5.246-1.525 5.743-3.87h-3.3a2.468 2.468 0 0 1-2.387 1.268 2.813 2.813 0 0 1-2.925-3.116h8.7zm-8.7-1.2a2.753 2.753 0 0 1 2.793-2.66 2.558 2.558 0 0 1 2.635 2.66zM492.744 23v-7.235a2.592 2.592 0 0 1 2.718-2.66 6.212 6.212 0 0 1 1.483.191V10.2a6.64 6.64 0 0 0-1.11-.108 3.1 3.1 0 0 0-3.066 2.4h-.133v-2.221h-3.365V23zm16.417-8.942c-.182-2.428-2.171-3.953-5.4-3.953-3.273 0-5.37 1.525-5.362 3.97-.008 1.881 1.235 3.133 3.671 3.613l2.1.414c1.193.249 1.724.655 1.732 1.318-.008.82-.845 1.318-2.1 1.318-1.285 0-2.088-.514-2.262-1.508h-3.481c.282 2.486 2.3 4.019 5.743 4.019 3.381 0 5.627-1.674 5.635-4.177-.008-1.84-1.2-2.942-3.663-3.448l-2.3-.464c-1.193-.257-1.641-.7-1.633-1.285-.008-.762.845-1.293 1.972-1.293a1.887 1.887 0 0 1 2.088 1.475zm4.152-5.458a1.833 1.833 0 0 0 1.887-1.76 1.894 1.894 0 0 0-3.779 0 1.833 1.833 0 0 0 1.892 1.76zm1.732 14.4V10.271h-3.472V23zm13.227-8.942c-.182-2.428-2.171-3.953-5.4-3.953-3.273 0-5.37 1.525-5.362 3.97-.008 1.881 1.235 3.133 3.671 3.613l2.1.414c1.193.249 1.724.655 1.732 1.318-.008.82-.845 1.318-2.1 1.318-1.285 0-2.088-.514-2.262-1.508h-3.481c.282 2.486 2.3 4.019 5.743 4.019 3.381 0 5.627-1.674 5.635-4.177-.008-1.84-1.2-2.942-3.663-3.448l-2.3-.464c-1.193-.257-1.641-.7-1.633-1.285-.008-.762.845-1.293 1.972-1.293a1.887 1.887 0 0 1 2.088 1.475zm7.939 6.315c-.713-.025-1.21-.265-1.21-1.276v-6.216h2.4v-2.61H535v-3.05h-3.472v3.05h-1.748v2.61h1.749v6.688c-.017 2.478 1.691 3.6 4.21 3.6a11.971 11.971 0 0 0 1.831-.124v-2.73c-.414.025-1.019.066-1.359.058zm14.834-3.812c0-4.343-2.635-6.456-5.975-6.456-3.729 0-6.157 2.66-6.157 6.588 0 4.036 2.4 6.555 6.3 6.555 3.141 0 5.246-1.525 5.743-3.87h-3.3a2.468 2.468 0 0 1-2.387 1.268 2.813 2.813 0 0 1-2.925-3.116h8.7zm-8.7-1.2a2.753 2.753 0 0 1 2.793-2.66 2.558 2.558 0 0 1 2.635 2.66zm14.354.273a2.373 2.373 0 0 1 2.445-2.644 2.2 2.2 0 0 1 2.279 2.511V23h3.472v-8.1c0-2.975-1.732-4.79-4.384-4.79a3.843 3.843 0 0 0-3.829 2.4h-.149v-2.239h-3.307V23h3.474zm16.6 7.616c3.365 0 5.486-1.981 5.652-4.873h-3.273a2.284 2.284 0 0 1-2.345 2.113c-1.674 0-2.76-1.4-2.76-3.854 0-2.428 1.094-3.82 2.76-3.82a2.3 2.3 0 0 1 2.345 2.13h3.273c-.157-2.925-2.378-4.84-5.669-4.84-3.845 0-6.24 2.677-6.24 6.58-.002 3.869 2.343 6.563 6.258 6.563zm19.4-6.688c0-4.343-2.635-6.456-5.975-6.456-3.729 0-6.157 2.66-6.157 6.588 0 4.036 2.4 6.555 6.3 6.555 3.141 0 5.246-1.525 5.743-3.87h-3.3a2.468 2.468 0 0 1-2.387 1.268A2.813 2.813 0 0 1 584 17.53h8.7zm-8.7-1.2a2.753 2.753 0 0 1 2.793-2.66 2.558 2.558 0 0 1 2.635 2.66zm18.41-1.119a1.525 1.525 0 0 0 1.488 1.608 1.488 1.488 0 0 0 1.512-1.608 1.463 1.463 0 0 0-1.488-1.584 1.509 1.509 0 0 0-1.515 1.581zM620.99 10.1c-3.381 0-5.3 1.74-5.5 3.953h3.29a1.925 1.925 0 0 1 2.13-1.409c1.285 0 2.014.613 2.022 1.691v1.028c-.53.017-2.254.091-3.157.149-2.445.157-4.732 1.077-4.732 3.928 0 2.511 1.807 3.8 4.235 3.8A3.906 3.906 0 0 0 623 21.235h.1V23h3.29v-8.577c-.005-3.067-2.623-4.323-5.4-4.323zm-.729 10.724c-1.111 0-1.9-.506-1.9-1.492s.762-1.55 1.972-1.649c.6-.058 2.1-.141 2.61-.166v.928a2.463 2.463 0 0 1-2.682 2.384zm14.494 2.42c3.365 0 5.486-1.981 5.652-4.873h-3.273a2.284 2.284 0 0 1-2.345 2.113c-1.674 0-2.76-1.4-2.76-3.854 0-2.428 1.094-3.82 2.76-3.82a2.3 2.3 0 0 1 2.345 2.13h3.273c-.157-2.925-2.378-4.84-5.669-4.84-3.845 0-6.24 2.677-6.24 6.58.002 3.875 2.346 6.569 6.258 6.569zm13.525 0c3.365 0 5.486-1.981 5.652-4.873h-3.273a2.284 2.284 0 0 1-2.345 2.113c-1.674 0-2.76-1.4-2.76-3.854 0-2.428 1.094-3.82 2.76-3.82a2.3 2.3 0 0 1 2.345 2.13h3.273c-.157-2.925-2.378-4.84-5.669-4.84-3.845 0-6.24 2.677-6.24 6.58.001 3.875 2.346 6.569 6.258 6.569zm15.953-5.669a2.439 2.439 0 0 1-2.461 2.644 2.193 2.193 0 0 1-2.229-2.453v-7.5h-3.472v8.1c.008 2.983 1.749 4.79 4.309 4.79a3.908 3.908 0 0 0 3.854-2.47h.133V23h3.333V10.271h-3.464zM673.872 23v-7.649a2.163 2.163 0 0 1 2.1-2.378 1.9 1.9 0 0 1 1.972 2.055V23h3.356v-7.79a2.014 2.014 0 0 1 2.072-2.238 1.908 1.908 0 0 1 2 2.138V23h3.472v-8.561c0-2.768-1.657-4.334-4.019-4.334a3.85 3.85 0 0 0-3.829 2.4h-.133a3.372 3.372 0 0 0-3.456-2.4 3.576 3.576 0 0 0-3.547 2.4h-.149v-2.234H670.4V23zm25.79-5.42a2.439 2.439 0 0 1-2.461 2.644 2.193 2.193 0 0 1-2.229-2.453v-7.5H691.5v8.1c.008 2.983 1.749 4.79 4.309 4.79a3.908 3.908 0 0 0 3.854-2.47h.133V23h3.331V10.271h-3.464zm6.166-11.552V23h3.472V6.028zm11.527 4.072c-3.381 0-5.3 1.74-5.5 3.953h3.29a1.925 1.925 0 0 1 2.13-1.409c1.285 0 2.014.613 2.022 1.691v1.028c-.53.017-2.254.091-3.157.149-2.445.157-4.732 1.077-4.732 3.928 0 2.511 1.807 3.8 4.235 3.8a3.906 3.906 0 0 0 3.721-2.006h.1V23h3.29v-8.577c-.004-3.067-2.623-4.323-5.399-4.323zm-.729 10.724c-1.111 0-1.9-.506-1.9-1.492s.762-1.55 1.972-1.649c.6-.058 2.1-.141 2.61-.166v.928a2.463 2.463 0 0 1-2.682 2.384zm14.287-.456c-.713-.025-1.21-.265-1.21-1.276v-6.211h2.4v-2.61h-2.4v-3.05h-3.472v3.05h-1.749v2.61h1.749v6.688c-.017 2.478 1.691 3.6 4.21 3.6a11.971 11.971 0 0 0 1.831-.124v-2.73c-.414.025-1.019.066-1.359.058zM736.01 8.6a1.833 1.833 0 0 0 1.89-1.76 1.894 1.894 0 0 0-3.779 0 1.833 1.833 0 0 0 1.889 1.76zm1.732 14.4V10.271h-3.472V23zm8.436.249c3.845 0 6.24-2.644 6.24-6.564 0-3.945-2.4-6.58-6.24-6.58s-6.257 2.635-6.257 6.58c0 3.915 2.404 6.564 6.257 6.564zm.017-2.693c-1.815 0-2.743-1.657-2.743-3.9s.928-3.9 2.743-3.9c1.773 0 2.7 1.674 2.7 3.9s-.927 3.899-2.7 3.899zm11.884-4.923a2.373 2.373 0 0 1 2.445-2.644A2.2 2.2 0 0 1 762.8 15.5V23h3.472v-8.1c0-2.975-1.732-4.79-4.384-4.79a3.843 3.843 0 0 0-3.829 2.4h-.149v-2.239h-3.307V23h3.472z" transform="translate(30 51)"/>
        </g>
        <g id="fc_diamond_long" transform="translate(692 1944)">
            <g transform="translate(-399 -1000)" style="filter:url(#다각형_3)">
                <g id="다각형_3-2" data-name="다각형 3" style="fill:#fff">
                    <path class="cls-12" d="M269 258.89 2.298 130 269 1.11 535.702 130 269 258.89z" transform="translate(399 1000)"/>
                    <path d="M269 2.221 4.596 130 269 257.779 533.404 130 269 2.221M269 0l269 130-269 130L0 130 269 0z" style="fill:#999;stroke:none" transform="translate(399 1000)"/>
                </g>
            </g>
            <path id="패스_11066" data-name="패스 11066" d="M22.621 4.271V17h2.642V4.271zm12.624 6.023c-.137-1.821-1.628-2.965-4.046-2.965-2.455 0-4.028 1.144-4.021 2.977-.006 1.411.926 2.349 2.753 2.71l1.579.311c.9.186 1.293.491 1.3.988-.006.615-.634.988-1.579.988-.963 0-1.566-.385-1.7-1.131h-2.61c.211 1.865 1.722 3.015 4.307 3.015 2.536 0 4.22-1.256 4.227-3.133-.006-1.38-.9-2.206-2.747-2.586l-1.722-.348c-.9-.193-1.231-.528-1.224-.963-.006-.572.634-.97 1.479-.97a1.416 1.416 0 0 1 1.566 1.106zM42.51 6.2a1.375 1.375 0 0 0 1.417-1.32 1.42 1.42 0 0 0-2.834 0A1.375 1.375 0 0 0 42.51 6.2zm1.3 10.8V7.453h-2.6V17zm6.172-1.97c-.535-.019-.907-.2-.907-.957V9.411h1.8V7.453h-1.8V5.166h-2.6v2.287h-1.317v1.958h1.312v5.016c-.012 1.858 1.268 2.7 3.157 2.7a8.978 8.978 0 0 0 1.373-.09v-2.051c-.31.014-.764.05-1.019.044zm10.97 2.157c2.523 0 4.115-1.485 4.239-3.655h-2.456a1.713 1.713 0 0 1-1.759 1.585c-1.256 0-2.07-1.05-2.07-2.89 0-1.821.82-2.865 2.07-2.865a1.726 1.726 0 0 1 1.759 1.6h2.455c-.118-2.194-1.784-3.63-4.251-3.63-2.884 0-4.68 2.008-4.68 4.935 0 2.899 1.759 4.919 4.693 4.919zm5.842-12.916V17h2.6V4.271zm8.646 3.058c-2.536 0-3.978 1.305-4.127 2.965h2.467a1.444 1.444 0 0 1 1.6-1.057c.963 0 1.51.46 1.517 1.268v.771c-.4.012-1.691.068-2.368.112-1.834.118-3.549.808-3.549 2.946 0 1.883 1.355 2.847 3.176 2.847a2.929 2.929 0 0 0 2.791-1.5h.075V17h2.468v-6.433c-.004-2.3-1.968-3.238-4.05-3.238zm-.547 8.043c-.833 0-1.423-.379-1.423-1.119s.572-1.162 1.479-1.237a58.379 58.379 0 0 1 1.958-.124v.7a1.847 1.847 0 0 1-2.014 1.78zm14.463-5.078c-.137-1.821-1.628-2.965-4.046-2.965-2.455 0-4.028 1.144-4.021 2.977-.006 1.411.926 2.349 2.753 2.71l1.579.311c.9.186 1.293.491 1.3.988-.006.615-.634.988-1.579.988-.963 0-1.566-.385-1.7-1.131h-2.61c.211 1.865 1.722 3.015 4.307 3.015 2.536 0 4.22-1.256 4.227-3.133-.006-1.38-.9-2.206-2.747-2.586L85.1 11.12c-.9-.193-1.231-.528-1.224-.963-.006-.572.634-.97 1.479-.97a1.416 1.416 0 0 1 1.566 1.106zm9.7 0c-.137-1.821-1.628-2.965-4.046-2.965-2.455 0-4.028 1.144-4.021 2.977-.006 1.411.926 2.349 2.753 2.71l1.579.311c.9.186 1.293.491 1.3.988-.006.615-.634.988-1.579.988-.963 0-1.566-.385-1.7-1.131h-2.61c.211 1.865 1.722 3.015 4.307 3.015 2.536 0 4.22-1.256 4.227-3.133-.006-1.38-.9-2.206-2.747-2.586L94.8 11.12c-.9-.193-1.231-.528-1.224-.963-.006-.572.634-.97 1.479-.97a1.416 1.416 0 0 1 1.566 1.106zm3.114-4.09a1.375 1.375 0 0 0 1.42-1.324 1.42 1.42 0 0 0-2.834 0 1.375 1.375 0 0 0 1.417 1.32zm1.3 10.8V7.453h-2.6V17zm6.5-11.244a6.241 6.241 0 0 1 .8.056V3.829a7.277 7.277 0 0 0-1.56-.155 2.818 2.818 0 0 0-3.12 3.064v.715h-1.355v1.958h1.355V17h2.6V9.411h1.9V7.453h-1.9v-.584c.003-.79.444-1.113 1.277-1.113zm3.45.448a1.375 1.375 0 0 0 1.417-1.324 1.42 1.42 0 0 0-2.834 0 1.375 1.375 0 0 0 1.413 1.316zm1.3 10.8V7.453h-2.6V17zm10.734-4.829c0-3.257-1.977-4.842-4.481-4.842-2.8 0-4.618 2-4.618 4.941 0 3.027 1.8 4.916 4.724 4.916 2.356 0 3.934-1.144 4.307-2.9h-2.474a1.851 1.851 0 0 1-1.79.951 2.11 2.11 0 0 1-2.194-2.337h6.526zm-6.526-.9a2.064 2.064 0 0 1 2.095-2 1.918 1.918 0 0 1 1.977 2zm11.685 5.886a2.839 2.839 0 0 0 2.716-1.678h.112V17H136V4.271h-2.6v4.786h-.075a2.818 2.818 0 0 0-2.725-1.728c-2.107 0-3.878 1.641-3.878 4.91.002 3.188 1.699 4.916 3.886 4.916zm.814-2.076c-1.324 0-2.039-1.169-2.039-2.853s.7-2.816 2.039-2.816c1.3 0 2.032 1.094 2.032 2.816s-.75 2.843-2.036 2.843zm14.83-7.751c-2.536 0-3.978 1.305-4.127 2.965h2.468a1.444 1.444 0 0 1 1.6-1.057c.963 0 1.51.46 1.517 1.268v.771c-.4.012-1.691.068-2.368.112-1.834.118-3.549.808-3.549 2.946 0 1.883 1.355 2.847 3.176 2.847a2.929 2.929 0 0 0 2.791-1.5h.075V17h2.46v-6.433c0-2.3-1.965-3.238-4.047-3.238zm-.547 8.043c-.833 0-1.423-.379-1.423-1.119s.572-1.162 1.479-1.237a58.379 58.379 0 0 1 1.958-.124v.7a1.847 1.847 0 0 1-2.018 1.771zm14.463-5.078c-.137-1.821-1.628-2.965-4.046-2.965-2.455 0-4.028 1.144-4.021 2.977-.006 1.411.926 2.349 2.753 2.71l1.579.311c.9.186 1.293.491 1.3.988-.006.615-.634.988-1.579.988-.963 0-1.566-.385-1.7-1.131h-2.61c.211 1.865 1.722 3.015 4.307 3.015 2.536 0 4.22-1.256 4.227-3.133-.006-1.38-.9-2.206-2.747-2.586l-1.722-.348c-.9-.193-1.231-.528-1.224-.963-.006-.572.634-.97 1.479-.97a1.416 1.416 0 0 1 1.566 1.106zm8.565 1.181a1.8 1.8 0 0 1 1.862-1.992 1.65 1.65 0 0 1 1.722 1.883V17h2.6v-6.079c0-2.244-1.311-3.593-3.3-3.593a2.82 2.82 0 0 0-2.853 1.8h-.112V4.271h-2.53V17h2.6zm12.207-4.146c-2.536 0-3.978 1.305-4.127 2.965h2.468a1.444 1.444 0 0 1 1.6-1.057c.963 0 1.51.46 1.517 1.268v.771c-.4.012-1.691.068-2.368.112-1.834.118-3.549.808-3.549 2.946 0 1.883 1.355 2.847 3.176 2.847a2.929 2.929 0 0 0 2.791-1.5h.075V17h2.468v-6.433c-.008-2.3-1.973-3.238-4.055-3.238zm-.547 8.043c-.833 0-1.423-.379-1.423-1.119s.572-1.162 1.479-1.237a58.379 58.379 0 0 1 1.958-.124v.7a1.847 1.847 0 0 1-2.018 1.771zM194.907 17v-2.082h-4.587v-.068l4.425-5.693v-1.7h-7.682v2.078h4.544V9.6l-4.705 5.83V17zm5.942-9.671c-2.536 0-3.978 1.305-4.127 2.965h2.468a1.444 1.444 0 0 1 1.6-1.057c.963 0 1.51.46 1.517 1.268v.771c-.4.012-1.691.068-2.368.112-1.834.118-3.549.808-3.549 2.946 0 1.883 1.355 2.847 3.176 2.847a2.929 2.929 0 0 0 2.791-1.5h.075V17h2.468v-6.433c0-2.3-1.968-3.238-4.051-3.238zm-.547 8.043c-.833 0-1.423-.379-1.423-1.119s.572-1.162 1.479-1.237a58.379 58.379 0 0 1 1.958-.124v.7a1.847 1.847 0 0 1-2.016 1.78zM209.477 17v-5.426a1.944 1.944 0 0 1 2.039-2 4.66 4.66 0 0 1 1.113.143V7.4a4.98 4.98 0 0 0-.833-.081 2.327 2.327 0 0 0-2.3 1.8h-.1V7.453h-2.523V17zm7.645.155a2.839 2.839 0 0 0 2.716-1.678h.112V17h2.561V4.271h-2.6v4.786h-.075a2.818 2.818 0 0 0-2.722-1.728c-2.107 0-3.878 1.641-3.878 4.91.001 3.188 1.698 4.916 3.886 4.916zm.814-2.076c-1.324 0-2.039-1.169-2.039-2.853s.7-2.816 2.039-2.816c1.3 0 2.032 1.094 2.032 2.816s-.746 2.853-2.032 2.853zm10.964 2.107c2.884 0 4.68-1.983 4.68-4.923 0-2.959-1.8-4.935-4.68-4.935s-4.693 1.977-4.693 4.935c0 2.937 1.803 4.923 4.693 4.923zm.012-2.02c-1.361 0-2.057-1.243-2.057-2.921s.7-2.927 2.057-2.927c1.33 0 2.026 1.256 2.026 2.927s-.696 2.921-2.026 2.921zm12.431-2.231a1.829 1.829 0 0 1-1.846 1.983 1.645 1.645 0 0 1-1.672-1.84V7.453h-2.6v6.079c.006 2.238 1.311 3.593 3.232 3.593a2.931 2.931 0 0 0 2.89-1.852h.1V17h2.5V7.453h-2.6zm12.518-2.642c-.137-1.821-1.628-2.965-4.046-2.965-2.455 0-4.028 1.144-4.021 2.977-.006 1.411.926 2.349 2.753 2.71l1.579.311c.9.186 1.293.491 1.3.988-.006.615-.634.988-1.579.988-.963 0-1.566-.385-1.7-1.131h-2.61c.211 1.865 1.722 3.015 4.307 3.015 2.536 0 4.22-1.256 4.227-3.133-.006-1.38-.9-2.206-2.747-2.586l-1.724-.347c-.9-.193-1.231-.528-1.224-.963-.006-.572.634-.97 1.479-.97a1.416 1.416 0 0 1 1.566 1.106zm10.262 6.893c2.884 0 4.68-1.983 4.68-4.923 0-2.959-1.8-4.935-4.68-4.935s-4.693 1.977-4.693 4.935c0 2.937 1.803 4.923 4.693 4.923zm.012-2.02c-1.361 0-2.057-1.243-2.057-2.921s.7-2.927 2.057-2.927c1.33 0 2.026 1.256 2.026 2.927s-.696 2.921-2.026 2.921zM273.048 17v-5.426a1.944 1.944 0 0 1 2.039-2 4.659 4.659 0 0 1 1.113.143V7.4a4.98 4.98 0 0 0-.833-.081 2.327 2.327 0 0 0-2.3 1.8h-.1V7.453h-2.523V17zM16.794 33.2a1.327 1.327 0 1 0-1.417-1.324 1.375 1.375 0 0 0 1.417 1.324zm1.3 10.8v-9.547h-2.6V44zm9.92-6.706c-.137-1.821-1.628-2.965-4.046-2.965-2.455 0-4.028 1.144-4.021 2.977-.006 1.411.926 2.349 2.753 2.71l1.579.311c.9.186 1.293.491 1.3.988-.006.615-.634.988-1.579.988-.963 0-1.566-.385-1.7-1.131h-2.61c.211 1.865 1.722 3.014 4.307 3.014 2.536 0 4.22-1.256 4.227-3.133-.006-1.38-.9-2.206-2.747-2.586l-1.722-.348c-.9-.193-1.231-.528-1.224-.963-.006-.572.634-.97 1.479-.97a1.416 1.416 0 0 1 1.566 1.106zm7.266-4.09a1.327 1.327 0 1 0-1.417-1.324 1.375 1.375 0 0 0 1.416 1.32zm1.3 10.8v-9.551h-2.6V44zm6.172-1.97c-.535-.019-.907-.2-.907-.957v-4.666h1.8v-1.958h-1.8v-2.287h-2.6v2.287h-1.319v1.958h1.311v5.016c-.012 1.858 1.268 2.7 3.157 2.7a8.978 8.978 0 0 0 1.374-.093v-2.048c-.31.014-.768.05-1.018.044zm10.684-7.7c-2.536 0-3.978 1.305-4.127 2.965h2.468a1.444 1.444 0 0 1 1.6-1.057c.963 0 1.51.46 1.517 1.268v.771c-.4.012-1.691.068-2.368.112-1.834.118-3.549.808-3.549 2.946 0 1.883 1.355 2.847 3.176 2.847a2.929 2.929 0 0 0 2.791-1.5h.075V44h2.461v-6.433c0-2.3-1.964-3.238-4.046-3.238zm-.547 8.043c-.833 0-1.423-.379-1.423-1.119s.572-1.162 1.479-1.237a58.379 58.379 0 0 1 1.958-.124v.7a1.847 1.847 0 0 1-2.016 1.775zm10.784-11.1V44h2.642v-4.146H68.6c2.927 0 4.612-1.753 4.612-4.282s-1.66-4.3-4.556-4.3zm2.642 6.452V33.44h1.852c1.573 0 2.331.852 2.331 2.132a2.042 2.042 0 0 1-2.325 2.151zM80.285 44c2.872 0 4.388-1.492 4.388-3.506a2.955 2.955 0 0 0-2.8-3.1v-.124a2.708 2.708 0 0 0 2.3-2.729c0-1.914-1.417-3.269-4.22-3.269H74.89V44zm-2.754-10.585h2.082c1.206 0 1.89.628 1.89 1.554 0 1.019-.827 1.635-1.939 1.635h-2.033zm0 5h2.287a1.874 1.874 0 0 1 2.126 1.821c0 .963-.665 1.6-2.182 1.6h-2.231zm12.22-4.954V44h2.617V33.459h3.9v-2.188H85.841v2.188zm12.835 5.432a12.458 12.458 0 0 0 2.514 7.867h2.48a14.723 14.723 0 0 1 0-15.744h-2.48a12.463 12.463 0 0 0-2.514 7.875zm10.666 5.3c2.523 0 4.115-1.485 4.239-3.655h-2.455a1.713 1.713 0 0 1-1.759 1.585c-1.256 0-2.07-1.05-2.07-2.89 0-1.821.82-2.865 2.07-2.865a1.726 1.726 0 0 1 1.759 1.6h2.455c-.118-2.194-1.784-3.63-4.251-3.63-2.884 0-4.68 2.008-4.68 4.935-.001 2.893 1.758 4.913 4.692 4.913zm10.144 0c2.884 0 4.68-1.983 4.68-4.923 0-2.959-1.8-4.935-4.68-4.935s-4.693 1.977-4.693 4.935c-.003 2.93 1.802 4.916 4.697 4.916zm.012-2.02c-1.361 0-2.057-1.243-2.057-2.921s.7-2.927 2.057-2.927c1.33 0 2.026 1.256 2.026 2.927s-.696 2.914-2.026 2.914zm8.913-3.692a1.78 1.78 0 0 1 1.834-1.983 1.652 1.652 0 0 1 1.709 1.883V44h2.6v-6.079c0-2.231-1.3-3.593-3.288-3.593a2.882 2.882 0 0 0-2.872 1.8h-.104v-1.675h-2.48V44h2.6zm12.45 5.712c2.523 0 4.115-1.485 4.239-3.655h-2.455a1.713 1.713 0 0 1-1.759 1.585c-1.256 0-2.07-1.05-2.07-2.89 0-1.821.82-2.865 2.07-2.865a1.726 1.726 0 0 1 1.759 1.6h2.455c-.118-2.194-1.784-3.63-4.251-3.63-2.884 0-4.68 2.008-4.68 4.935-.001 2.893 1.758 4.913 4.691 4.913zm14.55-5.016c0-3.257-1.977-4.842-4.481-4.842-2.8 0-4.618 2-4.618 4.941 0 3.027 1.8 4.916 4.724 4.916 2.356 0 3.934-1.144 4.307-2.9h-2.474a1.851 1.851 0 0 1-1.79.951 2.11 2.11 0 0 1-2.194-2.337h6.526zm-6.526-.9a2.064 2.064 0 0 1 2.095-2 1.918 1.918 0 0 1 1.977 2zM163.56 44v-5.426a1.944 1.944 0 0 1 2.039-2 4.66 4.66 0 0 1 1.113.143V34.4a4.98 4.98 0 0 0-.833-.081 2.327 2.327 0 0 0-2.3 1.8h-.1v-1.66h-2.523V44zm7.023-5.526a1.78 1.78 0 0 1 1.834-1.983 1.652 1.652 0 0 1 1.709 1.883V44h2.6v-6.079c0-2.231-1.3-3.593-3.288-3.593a2.882 2.882 0 0 0-2.872 1.8h-.112v-1.675h-2.48V44h2.6zm12.561.416a12.459 12.459 0 0 0-2.5-7.875h-2.486a14.689 14.689 0 0 1 0 15.744h2.486a12.454 12.454 0 0 0 2.501-7.868zm14.656-1.6c-.137-1.821-1.628-2.965-4.046-2.965-2.455 0-4.028 1.144-4.021 2.977-.006 1.411.926 2.349 2.753 2.71l1.579.311c.9.186 1.293.491 1.3.988-.006.615-.634.988-1.579.988-.963 0-1.566-.385-1.7-1.131h-2.61c.211 1.865 1.722 3.014 4.307 3.014 2.536 0 4.22-1.256 4.227-3.133-.006-1.38-.9-2.206-2.747-2.586l-1.722-.348c-.9-.193-1.231-.528-1.224-.963-.006-.572.634-.97 1.479-.97a1.416 1.416 0 0 1 1.566 1.106zm7.931 2.642a1.829 1.829 0 0 1-1.846 1.983 1.645 1.645 0 0 1-1.672-1.84v-5.622h-2.6v6.079c.006 2.238 1.311 3.593 3.232 3.593a2.931 2.931 0 0 0 2.89-1.852h.1V44h2.5v-9.547h-2.6zM212.979 44v-1.523h.112a2.839 2.839 0 0 0 2.716 1.678c2.188 0 3.885-1.728 3.885-4.916 0-3.269-1.771-4.91-3.878-4.91a2.824 2.824 0 0 0-2.722 1.728h-.075v-4.786h-2.6V44zm-.019-4.773c0-1.722.733-2.816 2.032-2.816 1.336 0 2.039 1.144 2.039 2.816s-.715 2.853-2.039 2.853c-1.286-.001-2.032-1.138-2.032-2.853zm16.291-1.933c-.137-1.821-1.628-2.965-4.046-2.965-2.455 0-4.028 1.144-4.021 2.977-.006 1.411.926 2.349 2.753 2.71l1.579.311c.9.186 1.293.491 1.3.988-.006.615-.634.988-1.579.988-.963 0-1.566-.385-1.7-1.131h-2.61c.211 1.865 1.722 3.014 4.307 3.014 2.536 0 4.22-1.256 4.227-3.133-.006-1.38-.9-2.206-2.747-2.586l-1.722-.348c-.9-.193-1.231-.528-1.224-.963-.006-.572.634-.97 1.479-.97a1.416 1.416 0 0 1 1.566 1.106zm5.954 4.736c-.535-.019-.907-.2-.907-.957v-4.662h1.8v-1.958h-1.8v-2.287h-2.6v2.287h-1.311v1.958h1.311v5.016c-.012 1.858 1.268 2.7 3.157 2.7a8.978 8.978 0 0 0 1.374-.093v-2.048c-.315.014-.769.05-1.024.044zm6.532-7.7c-2.536 0-3.978 1.305-4.127 2.965h2.468a1.444 1.444 0 0 1 1.6-1.057c.963 0 1.51.46 1.517 1.268v.771c-.4.012-1.691.068-2.368.112-1.834.118-3.549.808-3.549 2.946 0 1.883 1.355 2.847 3.176 2.847a2.929 2.929 0 0 0 2.791-1.5h.075V44h2.468v-6.433c-.004-2.3-1.968-3.238-4.05-3.238zm-.547 8.043c-.833 0-1.423-.379-1.423-1.119s.572-1.162 1.479-1.237a58.379 58.379 0 0 1 1.958-.124v.7a1.847 1.847 0 0 1-2.013 1.779zm9.174-3.9a1.78 1.78 0 0 1 1.834-1.983 1.652 1.652 0 0 1 1.709 1.883V44h2.6v-6.079c0-2.231-1.3-3.593-3.288-3.593a2.882 2.882 0 0 0-2.872 1.8h-.112v-1.675h-2.48V44h2.6zm12.45 5.712c2.523 0 4.115-1.485 4.239-3.655H264.6a1.713 1.713 0 0 1-1.759 1.585c-1.256 0-2.07-1.05-2.07-2.89 0-1.821.82-2.865 2.07-2.865a1.726 1.726 0 0 1 1.759 1.6h2.455c-.118-2.194-1.784-3.63-4.251-3.63-2.884 0-4.68 2.008-4.68 4.935-.002 2.901 1.757 4.921 4.691 4.921zm14.55-5.016c0-3.257-1.977-4.842-4.481-4.842-2.8 0-4.618 2-4.618 4.941 0 3.027 1.8 4.916 4.724 4.916 2.356 0 3.934-1.144 4.307-2.9h-2.474a1.851 1.851 0 0 1-1.79.951 2.11 2.11 0 0 1-2.194-2.337h6.526zm-6.526-.9a2.064 2.064 0 0 1 2.095-2 1.918 1.918 0 0 1 1.977 2zm12.742 1.921v-.2a2.436 2.436 0 0 1 1.43-2.387 3.4 3.4 0 0 0 1.908-3.064c0-2.169-1.734-3.443-4.189-3.443-2.244 0-4.084 1.187-4.133 3.655h2.5a1.568 1.568 0 0 1 1.616-1.573 1.445 1.445 0 0 1 1.541 1.442c0 .82-.584 1.367-1.349 1.852-1.044.659-1.635 1.33-1.647 3.518v.2zm-1.113 3.965a1.47 1.47 0 1 0 0-2.94 1.47 1.47 0 1 0 0 2.94z" transform="translate(120 106)" style="fill:#111"/>
        </g>
        <g id="fc_start_end-2" data-name="fc_start_end" transform="translate(407 2714)">
            <g transform="translate(-114 -1770)" style="filter:url(#area-2)">
                <g id="area-4" data-name="area" class="cls-2" transform="translate(114 1770)">
                    <rect class="cls-12" width="1108" height="130" rx="65"/>
                    <rect class="cls-13" x="1" y="1" width="1106" height="128" rx="64"/>
                </g>
            </g>
            <path id="패스_11074" data-name="패스 11074" class="cls-3" d="M260.58 6.028V23h3.52v-5.528h3.05c3.9 0 6.149-2.337 6.149-5.71 0-3.356-2.213-5.735-6.075-5.735zm3.522 8.6V8.92h2.47c2.1 0 3.108 1.135 3.108 2.843s-1.011 2.867-3.1 2.867zM278.928 23v-7.235a2.592 2.592 0 0 1 2.718-2.66 6.212 6.212 0 0 1 1.483.191V10.2a6.64 6.64 0 0 0-1.11-.108 3.1 3.1 0 0 0-3.066 2.4h-.133v-2.221h-3.365V23zm17.1-6.439c0-4.343-2.635-6.456-5.975-6.456-3.729 0-6.157 2.66-6.157 6.588 0 4.036 2.4 6.555 6.3 6.555 3.141 0 5.246-1.525 5.743-3.87h-3.3a2.468 2.468 0 0 1-2.387 1.268 2.813 2.813 0 0 1-2.925-3.116h8.7zm-8.7-1.2a2.753 2.753 0 0 1 2.793-2.66 2.558 2.558 0 0 1 2.635 2.66zm14.354 12.414v-6.8h.108a3.777 3.777 0 0 0 3.622 2.238c2.909 0 5.171-2.3 5.171-6.555 0-4.359-2.354-6.547-5.171-6.547a3.753 3.753 0 0 0-3.622 2.3h-.157v-2.14h-3.423v17.5zm-.075-11.138c0-2.3.97-3.754 2.718-3.754 1.773 0 2.71 1.525 2.71 3.754 0 2.246-.953 3.8-2.71 3.8-1.725.002-2.714-1.514-2.714-3.802zm16.55-6.53c-3.381 0-5.3 1.74-5.5 3.953h3.29a1.925 1.925 0 0 1 2.13-1.409c1.285 0 2.014.613 2.022 1.691v1.028c-.53.017-2.254.091-3.157.149-2.445.157-4.732 1.077-4.732 3.928 0 2.511 1.807 3.8 4.235 3.8a3.906 3.906 0 0 0 3.721-2.006h.1V23h3.29v-8.577c-.001-3.067-2.62-4.323-5.396-4.323zm-.729 10.724c-1.111 0-1.9-.506-1.9-1.492s.762-1.55 1.972-1.649c.6-.058 2.1-.141 2.611-.166v.928a2.463 2.463 0 0 1-2.68 2.377zM329.663 23v-7.235a2.592 2.592 0 0 1 2.718-2.66 6.212 6.212 0 0 1 1.483.191V10.2a6.64 6.64 0 0 0-1.11-.108 3.1 3.1 0 0 0-3.066 2.4h-.133v-2.221h-3.365V23zm10.9-12.9c-3.381 0-5.3 1.74-5.5 3.953h3.29a1.925 1.925 0 0 1 2.13-1.409c1.285 0 2.014.613 2.022 1.691v1.028c-.53.017-2.254.091-3.157.149-2.445.157-4.732 1.077-4.732 3.928 0 2.511 1.807 3.8 4.235 3.8a3.906 3.906 0 0 0 3.721-2.006h.1V23h3.29v-8.577c-.006-3.067-2.625-4.323-5.401-4.323zm-.729 10.724c-1.111 0-1.9-.506-1.9-1.492s.762-1.55 1.972-1.649c.6-.058 2.1-.141 2.611-.166v.928a2.463 2.463 0 0 1-2.685 2.384zm14.287-.456c-.713-.025-1.21-.265-1.21-1.276v-6.211h2.4v-2.61h-2.4v-3.05h-3.472v3.05h-1.749v2.61h1.749v6.688c-.017 2.478 1.691 3.6 4.21 3.6a11.971 11.971 0 0 0 1.831-.124v-2.73c-.416.025-1.021.066-1.361.058zm5.1-11.768a1.833 1.833 0 0 0 1.879-1.76 1.894 1.894 0 0 0-3.779 0 1.833 1.833 0 0 0 1.894 1.76zm1.727 14.4V10.271h-3.472V23zm8.436.249c3.845 0 6.24-2.644 6.24-6.564 0-3.945-2.4-6.58-6.24-6.58s-6.257 2.635-6.257 6.58c0 3.915 2.403 6.564 6.257 6.564zm.017-2.693c-1.815 0-2.743-1.657-2.743-3.9s.928-3.9 2.743-3.9c1.773 0 2.7 1.674 2.7 3.9s-.927 3.899-2.701 3.899zm11.884-4.923a2.373 2.373 0 0 1 2.445-2.644 2.2 2.2 0 0 1 2.279 2.511V23h3.472v-8.1c0-2.975-1.732-4.79-4.384-4.79a3.843 3.843 0 0 0-3.829 2.4h-.149v-2.239h-3.307V23h3.472zm21.754-5.533c-3.381 0-5.3 1.74-5.5 3.953h3.29a1.925 1.925 0 0 1 2.13-1.409c1.285 0 2.014.613 2.022 1.691v1.028c-.53.017-2.254.091-3.157.149-2.445.157-4.732 1.077-4.732 3.928 0 2.511 1.807 3.8 4.235 3.8a3.906 3.906 0 0 0 3.721-2.006h.1V23h3.29v-8.577c-.004-3.067-2.623-4.323-5.399-4.323zm-.729 10.724c-1.111 0-1.9-.506-1.9-1.492s.762-1.55 1.972-1.649c.6-.058 2.1-.141 2.611-.166v.928a2.463 2.463 0 0 1-2.684 2.384zm12.232-5.2a2.373 2.373 0 0 1 2.445-2.644 2.2 2.2 0 0 1 2.279 2.511V23h3.472v-8.1c0-2.975-1.732-4.79-4.384-4.79a3.843 3.843 0 0 0-3.829 2.4h-.149v-2.239h-3.307V23h3.472zm15.558 7.583a3.785 3.785 0 0 0 3.622-2.238h.149V23h3.414V6.028h-3.464v6.381h-.1a3.757 3.757 0 0 0-3.63-2.3c-2.809 0-5.171 2.188-5.171 6.547.005 4.244 2.268 6.551 5.18 6.551zm1.086-2.768c-1.765 0-2.718-1.558-2.718-3.8 0-2.229.936-3.754 2.718-3.754 1.732 0 2.71 1.459 2.71 3.754s-.99 3.8-2.705 3.8zm24.945-6.381c-.182-2.428-2.171-3.953-5.4-3.953-3.273 0-5.37 1.525-5.362 3.97-.008 1.881 1.235 3.133 3.671 3.613l2.1.414c1.193.249 1.724.655 1.732 1.318-.008.82-.845 1.318-2.1 1.318-1.285 0-2.088-.514-2.262-1.508h-3.481c.282 2.486 2.3 4.019 5.743 4.019 3.381 0 5.627-1.674 5.635-4.177-.008-1.84-1.2-2.942-3.663-3.448l-2.3-.464c-1.193-.257-1.641-.7-1.633-1.285-.008-.762.845-1.293 1.972-1.293a1.887 1.887 0 0 1 2.088 1.475zm10.579 3.522a2.439 2.439 0 0 1-2.461 2.644 2.193 2.193 0 0 1-2.229-2.453v-7.5h-3.472v8.1c.008 2.983 1.749 4.79 4.309 4.79a3.908 3.908 0 0 0 3.854-2.47h.133V23h3.332V10.271h-3.466zm9.663 5.42v-2.03h.149a3.785 3.785 0 0 0 3.622 2.238c2.917 0 5.18-2.3 5.18-6.555 0-4.359-2.362-6.547-5.171-6.547a3.766 3.766 0 0 0-3.63 2.3h-.1V6.028h-3.464V23zm-.025-6.365c0-2.3.978-3.754 2.71-3.754 1.782 0 2.718 1.525 2.718 3.754 0 2.246-.953 3.8-2.718 3.8-1.715.004-2.71-1.512-2.71-3.8zM491.017 23v-7.649a2.163 2.163 0 0 1 2.1-2.378 1.9 1.9 0 0 1 1.972 2.055V23h3.356v-7.79a2.014 2.014 0 0 1 2.072-2.238 1.908 1.908 0 0 1 2 2.138V23h3.472v-8.561c0-2.768-1.657-4.334-4.019-4.334a3.85 3.85 0 0 0-3.829 2.4H498a3.372 3.372 0 0 0-3.456-2.4 3.576 3.576 0 0 0-3.547 2.4h-.149v-2.234h-3.307V23zm19.367-14.4a1.833 1.833 0 0 0 1.889-1.765 1.894 1.894 0 0 0-3.779 0 1.833 1.833 0 0 0 1.89 1.765zm1.732 14.4V10.271h-3.472V23zm13.227-8.942c-.182-2.428-2.171-3.953-5.4-3.953-3.273 0-5.37 1.525-5.362 3.97-.008 1.881 1.235 3.133 3.671 3.613l2.1.414c1.193.249 1.724.655 1.732 1.318-.008.82-.845 1.318-2.1 1.318-1.285 0-2.088-.514-2.262-1.508h-3.481c.282 2.486 2.3 4.019 5.743 4.019 3.381 0 5.627-1.674 5.635-4.177-.008-1.84-1.2-2.942-3.663-3.448l-2.3-.464c-1.193-.257-1.641-.7-1.633-1.285-.008-.762.845-1.293 1.972-1.293a1.887 1.887 0 0 1 2.088 1.475zm12.936 0c-.182-2.428-2.171-3.953-5.4-3.953-3.273 0-5.37 1.525-5.362 3.97-.008 1.881 1.235 3.133 3.671 3.613l2.1.414c1.193.249 1.724.655 1.732 1.318-.008.82-.845 1.318-2.1 1.318-1.285 0-2.088-.514-2.262-1.508h-3.481c.282 2.486 2.3 4.019 5.743 4.019 3.381 0 5.627-1.674 5.635-4.177-.008-1.84-1.2-2.942-3.663-3.448l-2.3-.464c-1.193-.257-1.641-.7-1.633-1.285-.008-.762.845-1.293 1.972-1.293a1.887 1.887 0 0 1 2.088 1.475zm4.152-5.458a1.833 1.833 0 0 0 1.889-1.76 1.894 1.894 0 0 0-3.779 0 1.833 1.833 0 0 0 1.89 1.76zm1.732 14.4V10.271h-3.472V23zm8.436.249c3.845 0 6.24-2.644 6.24-6.564 0-3.945-2.4-6.58-6.24-6.58s-6.257 2.635-6.257 6.58c.001 3.915 2.404 6.564 6.258 6.564zm.017-2.693c-1.815 0-2.743-1.657-2.743-3.9s.928-3.9 2.743-3.9c1.773 0 2.7 1.674 2.7 3.9s-.927 3.899-2.7 3.899zm11.884-4.923a2.373 2.373 0 0 1 2.445-2.644 2.2 2.2 0 0 1 2.279 2.511V23h3.476v-8.1c0-2.975-1.732-4.79-4.384-4.79a3.843 3.843 0 0 0-3.829 2.4h-.149v-2.239h-3.307V23h3.469zm22.135 7.616c3.845 0 6.24-2.644 6.24-6.564 0-3.945-2.4-6.58-6.24-6.58s-6.257 2.635-6.257 6.58c0 3.915 2.404 6.564 6.257 6.564zm.017-2.693c-1.815 0-2.743-1.657-2.743-3.9s.928-3.9 2.743-3.9c1.773 0 2.7 1.674 2.7 3.9s-.927 3.899-2.7 3.899zm14.37-12.547a8.322 8.322 0 0 1 1.069.075V5.439a9.7 9.7 0 0 0-2.08-.207c-2.544 0-4.16 1.4-4.16 4.086v.953h-1.807v2.61h1.807V23h3.472V12.881h2.536v-2.61h-2.536v-.779c0-1.053.589-1.484 1.699-1.484zm13.094 15.2a3.785 3.785 0 0 0 3.622-2.238h.149V23h3.413V6.028h-3.464v6.381h-.1a3.757 3.757 0 0 0-3.63-2.3c-2.809 0-5.171 2.188-5.171 6.547.001 4.244 2.265 6.551 5.181 6.551zm1.086-2.768c-1.765 0-2.718-1.558-2.718-3.8 0-2.229.936-3.754 2.718-3.754 1.732 0 2.71 1.459 2.71 3.754s-.995 3.798-2.712 3.798zM629.439 10.1c-3.381 0-5.3 1.74-5.5 3.953h3.29a1.925 1.925 0 0 1 2.13-1.409c1.285 0 2.014.613 2.022 1.691v1.028c-.53.017-2.254.091-3.157.149-2.445.157-4.732 1.077-4.732 3.928 0 2.511 1.807 3.8 4.235 3.8a3.906 3.906 0 0 0 3.721-2.006h.1V23h3.29v-8.577c-.004-3.067-2.622-4.323-5.399-4.323zm-.729 10.724c-1.111 0-1.9-.506-1.9-1.492s.762-1.55 1.972-1.649c.6-.058 2.1-.141 2.61-.166v.928a2.463 2.463 0 0 1-2.682 2.384zm14.29-.451c-.713-.025-1.21-.265-1.21-1.276v-6.216h2.4v-2.61h-2.4v-3.05h-3.472v3.05h-1.749v2.61h1.749v6.688c-.017 2.478 1.691 3.6 4.21 3.6a11.971 11.971 0 0 0 1.831-.124v-2.73c-.417.025-1.022.066-1.359.058zm8.71-10.268c-3.381 0-5.3 1.74-5.5 3.953h3.29a1.925 1.925 0 0 1 2.13-1.409c1.285 0 2.014.613 2.022 1.691v1.028c-.53.017-2.254.091-3.157.149-2.445.157-4.732 1.077-4.732 3.928 0 2.511 1.807 3.8 4.235 3.8a3.906 3.906 0 0 0 3.721-2.006h.1V23h3.29v-8.577c-.009-3.067-2.626-4.323-5.402-4.323zm-.729 10.724c-1.111 0-1.9-.506-1.9-1.492s.762-1.55 1.972-1.649c.6-.058 2.1-.141 2.61-.166v.928a2.463 2.463 0 0 1-2.685 2.379zm20.03 2.42c3.845 0 6.24-2.644 6.24-6.564 0-3.945-2.4-6.58-6.24-6.58s-6.257 2.635-6.257 6.58c-.003 3.915 2.401 6.564 6.254 6.564zm.017-2.693c-1.815 0-2.743-1.657-2.743-3.9s.928-3.9 2.743-3.9c1.773 0 2.7 1.674 2.7 3.9s-.928 3.899-2.703 3.899zm11.884-4.923a2.373 2.373 0 0 1 2.445-2.644 2.2 2.2 0 0 1 2.279 2.511V23h3.472v-8.1c0-2.975-1.732-4.79-4.384-4.79a3.843 3.843 0 0 0-3.829 2.4h-.149v-2.239h-3.307V23h3.472zm19.873 0a2.4 2.4 0 0 1 2.486-2.644 2.2 2.2 0 0 1 2.3 2.511V23h3.472v-8.1c0-2.992-1.749-4.79-4.4-4.79a3.759 3.759 0 0 0-3.8 2.4h-.149V6.028h-3.373V23h3.472zm16.273-5.533c-3.381 0-5.3 1.74-5.5 3.953h3.29a1.925 1.925 0 0 1 2.13-1.409c1.285 0 2.014.613 2.022 1.691v1.028c-.53.017-2.254.091-3.157.149-2.445.157-4.732 1.077-4.732 3.928 0 2.511 1.807 3.8 4.235 3.8a3.906 3.906 0 0 0 3.721-2.006h.1V23h3.29v-8.577c-.004-3.067-2.623-4.323-5.399-4.323zm-.729 10.724c-1.111 0-1.9-.506-1.9-1.492s.762-1.55 1.972-1.649c.6-.058 2.1-.141 2.61-.166v.928a2.463 2.463 0 0 1-2.682 2.384zM737.68 23v-2.776h-6.116v-.091l5.9-7.591v-2.271h-10.243v2.776h6.058v.091l-6.273 7.773V23zm7.92-12.9c-3.381 0-5.3 1.74-5.5 3.953h3.29a1.925 1.925 0 0 1 2.13-1.409c1.285 0 2.014.613 2.022 1.691v1.028c-.53.017-2.254.091-3.157.149-2.445.157-4.732 1.077-4.732 3.928 0 2.511 1.807 3.8 4.235 3.8a3.906 3.906 0 0 0 3.721-2.006h.1V23H751v-8.577c0-3.067-2.622-4.323-5.4-4.323zm-.729 10.724c-1.111 0-1.9-.506-1.9-1.492s.762-1.55 1.972-1.649c.6-.058 2.1-.141 2.61-.166v.928a2.463 2.463 0 0 1-2.68 2.384zM757.1 23v-7.235a2.592 2.592 0 0 1 2.718-2.66 6.212 6.212 0 0 1 1.483.191V10.2a6.641 6.641 0 0 0-1.11-.108 3.1 3.1 0 0 0-3.066 2.4H757v-2.221h-3.365V23zm10.193.207a3.785 3.785 0 0 0 3.622-2.238h.149V23h3.414V6.028h-3.464v6.381h-.1a3.757 3.757 0 0 0-3.63-2.3c-2.809 0-5.171 2.188-5.171 6.547.006 4.244 2.268 6.551 5.187 6.551zm1.086-2.768c-1.765 0-2.718-1.558-2.718-3.8 0-2.229.936-3.754 2.718-3.754 1.732 0 2.71 1.459 2.71 3.754s-.989 3.8-2.705 3.8zm19.409-6.381c-.182-2.428-2.171-3.953-5.4-3.953-3.273 0-5.37 1.525-5.362 3.97-.008 1.881 1.235 3.133 3.671 3.613l2.1.414c1.193.249 1.724.655 1.732 1.318-.008.82-.845 1.318-2.1 1.318-1.285 0-2.088-.514-2.262-1.508H776.7c.282 2.486 2.3 4.019 5.743 4.019 3.381 0 5.627-1.674 5.635-4.177-.008-1.84-1.2-2.942-3.663-3.448l-2.3-.464c-1.193-.257-1.641-.7-1.633-1.285-.008-.762.845-1.293 1.972-1.293a1.887 1.887 0 0 1 2.088 1.475z" transform="translate(30 50)"/>
        </g>
        <g id="fc_box_medium_link" transform="translate(407 2304)">
            <g transform="translate(-114 -1360)" style="filter:url(#box-5)">
                <g id="box-11" data-name="box" class="cls-2">
                    <path class="cls-12" d="M0 0h538v130H0z" transform="translate(114 1360)"/>
                    <path class="cls-13" d="M1 1h536v128H1z" transform="translate(114 1360)"/>
                </g>
            </g>
            <g id="fc_textlink-2" data-name="fc_textlink" transform="translate(386 79)">
                <g id="stack-2" data-name="stack" transform="translate(-2524.094 20210)">
                    <g id="ico_fc_pop_up-2" data-name="ico_fc_pop_up" transform="translate(2461.409 -20209)">
                        <g id="그룹_1025-2" data-name="그룹 1025" transform="translate(-1101.074 -1125)">
                            <g id="그룹_1026-2" data-name="그룹 1026" transform="translate(1108.074 1129)">
                                <path id="사각형_878-2" data-name="사각형 878" class="cls-5" d="M0 0h9v9H0z"/>
                            </g>
                            <path id="패스_6896-2" data-name="패스 6896" class="cls-6" d="M1104.574 1132.941v9h9" transform="translate(.5 -.941)"/>
                        </g>
                    </g>
                    <path id="패스_11070" data-name="패스 11070" class="cls-7" d="M-61.008 0h1.646v-8.182h.094l3.326 8.166h1.359l3.326-8.149h.1V0h1.641v-11.315H-51.6l-3.586 8.768h-.133l-3.591-8.768h-2.094zm17.248.171c2.393 0 3.96-1.751 3.96-4.371 0-2.641-1.564-4.392-3.956-4.392s-3.971 1.747-3.971 4.392c0 2.62 1.57 4.371 3.967 4.371zm.006-1.392c-1.552 0-2.293-1.365-2.293-2.989s.74-3 2.293-3c1.536 0 2.271 1.381 2.271 3s-.735 2.989-2.271 2.989zM-36.483 0v-5.171a1.911 1.911 0 0 1 2.028-1.912 4.455 4.455 0 0 1 .867.1v-1.592a7.022 7.022 0 0 0-.713-.039 2.2 2.2 0 0 0-2.149 1.481h-.088v-1.353h-1.613V0zM-25.3-4.331c0-3.066-1.84-4.265-3.773-4.265C-31.434-8.6-33-6.8-33-4.188c0 2.636 1.544 4.359 4.047 4.359a3.368 3.368 0 0 0 3.541-2.3H-27.1a1.965 1.965 0 0 1-1.84.934 2.328 2.328 0 0 1-2.4-2.541h6.04zm-6.033-.657a2.288 2.288 0 0 1 2.282-2.238 2.086 2.086 0 0 1 2.11 2.238zM-18.9-9.79a1.022 1.022 0 0 0 1.044-.989 1.022 1.022 0 0 0-1.044-.989 1.025 1.025 0 0 0-1.055.989 1.025 1.025 0 0 0 1.055.989zm.825 9.79v-8.486h-1.669V0zm3.7-5.033A1.914 1.914 0 0 1-12.4-7.155a1.729 1.729 0 0 1 1.79 1.961V0h1.669v-5.4c0-2.094-1.149-3.2-2.89-3.2a2.523 2.523 0 0 0-2.5 1.5h-.1v-1.386h-1.6V0h1.669zM-3.4-10.4a5.092 5.092 0 0 1 .7.055v-1.387a5.874 5.874 0 0 0-1.133-.11 2.256 2.256 0 0 0-2.53 2.381v.978h-1.314v1.331h1.315V0h1.669v-7.155h1.818v-1.331h-1.818v-.74c0-.824.408-1.174 1.293-1.174zM1.881.171C4.273.171 5.837-1.58 5.837-4.2c0-2.645-1.564-4.4-3.956-4.4s-3.967 1.755-3.967 4.4c0 2.62 1.569 4.371 3.967 4.371zm.006-1.392C.334-1.221-.406-2.586-.406-4.21s.74-3 2.293-3c1.536 0 2.271 1.381 2.271 3s-.735 2.989-2.271 2.989zM9.157 0v-5.171a1.911 1.911 0 0 1 2.028-1.912 4.455 4.455 0 0 1 .867.1v-1.592a7.022 7.022 0 0 0-.713-.039 2.2 2.2 0 0 0-2.148 1.481H9.1v-1.353H7.489V0zm5.807 0v-5.227A1.806 1.806 0 0 1 16.7-7.155a1.453 1.453 0 0 1 1.546 1.525V0H19.9v-5.409a1.615 1.615 0 0 1 1.7-1.746 1.471 1.471 0 0 1 1.586 1.63V0h1.669v-5.691c0-1.939-1.088-2.906-2.624-2.906a2.636 2.636 0 0 0-2.547 1.5h-.088a2.287 2.287 0 0 0-2.282-1.5A2.318 2.318 0 0 0 15-7.1h-.1v-1.386h-1.6V0zm15.249-8.6c-2 0-3.315 1.022-3.47 2.425h1.663a1.623 1.623 0 0 1 1.746-1.077c1.138 0 1.729.552 1.729 1.508v.691c-.365.011-1.657.077-2.232.116-1.525.11-3.171.608-3.171 2.536A2.58 2.58 0 0 0 29.345.188a2.649 2.649 0 0 0 2.509-1.348h.066V0h1.624v-5.635c0-2.465-1.978-2.965-3.331-2.965zm-.5 7.453c-.934 0-1.6-.414-1.6-1.232 0-.834.685-1.249 1.773-1.326.4-.028 1.619-.11 2-.133v.773a1.989 1.989 0 0 1-2.171 1.921zm9.1-.221C38.273-1.37 37.8-1.541 37.8-2.5v-4.655h1.729v-1.331H37.8v-2.033h-1.67v2.033h-1.243v1.331h1.243v5A2.234 2.234 0 0 0 38.611.11a6.37 6.37 0 0 0 1.033-.071V-1.4c-.221.013-.592.035-.829.035zM42-9.79a1.022 1.022 0 0 0 1.044-.989A1.022 1.022 0 0 0 42-11.768a1.025 1.025 0 0 0-1.055.989A1.025 1.025 0 0 0 42-9.79zM42.826 0v-8.486h-1.669V0zm5.619.171C50.837.171 52.4-1.58 52.4-4.2c0-2.641-1.564-4.392-3.956-4.392S44.478-6.845 44.478-4.2c0 2.62 1.569 4.371 3.967 4.371zm.006-1.392c-1.552 0-2.293-1.365-2.293-2.989s.74-3 2.293-3c1.536 0 2.271 1.381 2.271 3s-.736 2.989-2.272 2.989zm7.271-3.812a1.914 1.914 0 0 1 1.972-2.122 1.729 1.729 0 0 1 1.79 1.961V0h1.669v-5.4c0-2.094-1.149-3.2-2.889-3.2a2.523 2.523 0 0 0-2.5 1.5h-.1v-1.386h-1.6V0h1.669zM-62.157 2H62.157v1H-62.157z" transform="translate(2395.094 -20194)"/>
                </g>
            </g>
            <path id="패스_11069" data-name="패스 11069" class="cls-3" d="M109.2 23.232c3.812 0 6.414-2.453 6.406-5.884a5.322 5.322 0 0 0-5.42-5.586 4.294 4.294 0 0 0-3.406 1.442h-.133l.464-4.285h7.541V6.028h-10.445l-.928 9.771h3.207a2.728 2.728 0 0 1 2.652-1.417 2.937 2.937 0 0 1 3.058 3.058 2.88 2.88 0 0 1-3 3.017 2.571 2.571 0 0 1-2.776-2.229H103c.064 2.916 2.657 5.004 6.2 5.004zm10.326-.025a1.96 1.96 0 1 0 0-3.92 1.96 1.96 0 1 0 0 3.92zM140.539 23v-2.917h-7.9v-4.119h7.276v-2.909h-7.276v-4.11h7.865V6.028h-11.385V23zm1.931-12.729 3.663 6.365L142.337 23h3.6l2.486-4.425L150.956 23h3.555l-3.8-6.365 3.713-6.365h-3.58l-2.42 4.475-2.354-4.475zm17.387 17.5v-6.8h.108a3.777 3.777 0 0 0 3.622 2.238c2.909 0 5.171-2.3 5.171-6.555 0-4.359-2.354-6.547-5.171-6.547a3.753 3.753 0 0 0-3.622 2.3h-.157v-2.136h-3.423v17.5zm-.075-11.138c0-2.3.97-3.754 2.718-3.754 1.773 0 2.71 1.525 2.71 3.754 0 2.246-.953 3.8-2.71 3.8-1.732.006-2.718-1.51-2.718-3.798zm16.931 6.613c3.845 0 6.24-2.644 6.24-6.564 0-3.945-2.4-6.58-6.24-6.58s-6.257 2.635-6.257 6.58c0 3.918 2.403 6.567 6.257 6.567zm.017-2.693c-1.815 0-2.743-1.657-2.743-3.9s.928-3.9 2.743-3.9c1.773 0 2.7 1.674 2.7 3.9s-.93 3.902-2.701 3.902zm18.936-6.5c-.182-2.428-2.171-3.953-5.4-3.953-3.273 0-5.37 1.525-5.362 3.97-.008 1.881 1.235 3.133 3.671 3.613l2.1.414c1.193.249 1.724.655 1.732 1.318-.008.82-.845 1.318-2.1 1.318-1.285 0-2.088-.514-2.262-1.508h-3.481c.282 2.486 2.3 4.019 5.743 4.019 3.381 0 5.627-1.674 5.635-4.177-.008-1.84-1.2-2.942-3.663-3.448l-2.3-.464c-1.193-.257-1.641-.7-1.633-1.285-.008-.762.845-1.293 1.972-1.293a1.887 1.887 0 0 1 2.088 1.475zm10.574 3.527a2.439 2.439 0 0 1-2.461 2.644 2.193 2.193 0 0 1-2.229-2.453v-7.5h-3.472v8.1c.008 2.983 1.749 4.79 4.309 4.79a3.908 3.908 0 0 0 3.854-2.47h.133V23h3.326V10.271h-3.46zm9.638 5.42v-7.235A2.592 2.592 0 0 1 218.6 13.1a6.213 6.213 0 0 1 1.483.191V10.2a6.64 6.64 0 0 0-1.11-.108 3.1 3.1 0 0 0-3.066 2.4h-.133v-2.221h-3.365V23zm17.1-6.439c0-4.343-2.635-6.456-5.975-6.456-3.729 0-6.157 2.66-6.157 6.588 0 4.036 2.4 6.555 6.3 6.555 3.141 0 5.246-1.525 5.743-3.87h-3.3a2.468 2.468 0 0 1-2.387 1.268 2.813 2.813 0 0 1-2.925-3.116h8.7zm-8.7-1.2a2.753 2.753 0 0 1 2.793-2.66 2.558 2.558 0 0 1 2.635 2.66zm21.774-5.261c-3.381 0-5.3 1.74-5.5 3.953h3.29a1.925 1.925 0 0 1 2.13-1.409c1.285 0 2.014.613 2.022 1.691v1.028c-.53.017-2.254.091-3.157.149-2.445.157-4.732 1.077-4.732 3.928 0 2.511 1.807 3.8 4.235 3.8a3.906 3.906 0 0 0 3.721-2.006h.1V23h3.29v-8.577c-.003-3.067-2.622-4.323-5.399-4.323zm-.729 10.724c-1.11 0-1.9-.506-1.9-1.492s.762-1.55 1.972-1.649c.6-.058 2.1-.141 2.611-.166v.928a2.463 2.463 0 0 1-2.683 2.384zm19.285-6.771c-.182-2.428-2.171-3.953-5.4-3.953-3.273 0-5.37 1.525-5.362 3.97-.008 1.881 1.235 3.133 3.671 3.613l2.1.414c1.193.249 1.724.655 1.732 1.318-.008.82-.845 1.318-2.1 1.318-1.285 0-2.088-.514-2.262-1.508h-3.481c.282 2.486 2.3 4.019 5.743 4.019 3.381 0 5.627-1.674 5.635-4.177-.008-1.84-1.2-2.942-3.663-3.448l-2.3-.464c-1.193-.257-1.641-.7-1.633-1.285-.008-.762.845-1.293 1.972-1.293a1.887 1.887 0 0 1 2.088 1.475zm12.936 0c-.182-2.428-2.171-3.953-5.4-3.953-3.273 0-5.37 1.525-5.362 3.97-.008 1.881 1.235 3.133 3.671 3.613l2.1.414c1.193.249 1.724.655 1.732 1.318-.008.82-.845 1.318-2.1 1.318-1.285 0-2.088-.514-2.262-1.508h-3.481c.282 2.486 2.3 4.019 5.743 4.019 3.381 0 5.627-1.674 5.635-4.177-.008-1.84-1.2-2.942-3.663-3.448l-2.3-.464c-1.193-.257-1.641-.7-1.633-1.285-.008-.762.845-1.293 1.972-1.293a1.887 1.887 0 0 1 2.088 1.475zm14.022 2.5c0-4.343-2.635-6.456-5.975-6.456-3.729 0-6.157 2.66-6.157 6.588 0 4.036 2.4 6.555 6.3 6.555 3.141 0 5.246-1.525 5.743-3.87h-3.3a2.468 2.468 0 0 1-2.387 1.268 2.813 2.813 0 0 1-2.925-3.116h8.7zm-8.7-1.2a2.753 2.753 0 0 1 2.793-2.66 2.558 2.558 0 0 1 2.635 2.66zm21.406-1.3c-.182-2.428-2.171-3.953-5.4-3.953-3.273 0-5.37 1.525-5.362 3.97-.008 1.881 1.235 3.133 3.671 3.613l2.1.414c1.193.249 1.724.655 1.732 1.318-.008.82-.845 1.318-2.1 1.318-1.285 0-2.088-.514-2.262-1.508h-3.481c.282 2.486 2.3 4.019 5.743 4.019 3.381 0 5.627-1.674 5.635-4.177-.008-1.84-1.2-2.942-3.663-3.448l-2.3-.464c-1.193-.257-1.641-.7-1.633-1.285-.008-.762.845-1.293 1.972-1.293a1.887 1.887 0 0 1 2.088 1.475zm12.936 0c-.182-2.428-2.171-3.953-5.4-3.953-3.273 0-5.37 1.525-5.362 3.97-.008 1.881 1.235 3.133 3.671 3.613l2.1.414c1.193.249 1.724.655 1.732 1.318-.008.82-.845 1.318-2.1 1.318-1.285 0-2.088-.514-2.262-1.508h-3.477c.282 2.486 2.3 4.019 5.743 4.019 3.381 0 5.627-1.674 5.635-4.177-.008-1.84-1.2-2.942-3.663-3.448l-2.3-.464c-1.193-.257-1.641-.7-1.633-1.285-.008-.762.845-1.293 1.972-1.293a1.887 1.887 0 0 1 2.088 1.475zM323.091 23v-7.649a2.163 2.163 0 0 1 2.1-2.378 1.9 1.9 0 0 1 1.972 2.055V23h3.356v-7.79a2.014 2.014 0 0 1 2.072-2.238 1.908 1.908 0 0 1 2 2.138V23h3.472v-8.561c0-2.768-1.657-4.334-4.019-4.334a3.85 3.85 0 0 0-3.829 2.4h-.133a3.372 3.372 0 0 0-3.456-2.4 3.576 3.576 0 0 0-3.547 2.4h-.149v-2.234h-3.307V23zm29.238-6.439c0-4.343-2.635-6.456-5.975-6.456-3.729 0-6.157 2.66-6.157 6.588 0 4.036 2.4 6.555 6.3 6.555 3.141 0 5.246-1.525 5.743-3.87h-3.3a2.468 2.468 0 0 1-2.387 1.268 2.813 2.813 0 0 1-2.925-3.116h8.7zm-8.7-1.2a2.753 2.753 0 0 1 2.793-2.66 2.558 2.558 0 0 1 2.635 2.66zm14.354.273a2.373 2.373 0 0 1 2.445-2.644 2.2 2.2 0 0 1 2.272 2.51V23h3.472v-8.1c0-2.975-1.732-4.79-4.384-4.79a3.843 3.843 0 0 0-3.829 2.4h-.149v-2.239h-3.307V23h3.472zm16.392 4.74c-.713-.025-1.21-.265-1.21-1.276v-6.217h2.4v-2.61h-2.4v-3.05h-3.472v3.05h-1.749v2.61h1.749v6.688c-.017 2.478 1.691 3.6 4.21 3.6a11.972 11.972 0 0 0 1.832-.124v-2.73c-.417.025-1.022.066-1.362.058z" transform="translate(30 36)"/>
        </g>
        <g id="fc_box_medium" transform="translate(407 2484)">
            <g transform="translate(-114 -1540)" style="filter:url(#box-6)">
                <g id="box-12" data-name="box" class="cls-2">
                    <path class="cls-12" d="M0 0h538v130H0z" transform="translate(114 1540)"/>
                    <path class="cls-13" d="M1 1h536v128H1z" transform="translate(114 1540)"/>
                </g>
            </g>
            <path id="패스_11071" data-name="패스 11071" class="cls-3" d="M53.037 6.028V23h3.522V6.028zm16.831 8.03c-.182-2.428-2.171-3.953-5.4-3.953-3.273 0-5.37 1.525-5.362 3.97-.008 1.881 1.235 3.133 3.671 3.613l2.1.414c1.193.249 1.724.655 1.732 1.318-.008.82-.845 1.318-2.1 1.318-1.285 0-2.088-.514-2.262-1.508h-3.475c.282 2.486 2.3 4.019 5.743 4.019 3.381 0 5.627-1.674 5.635-4.177-.008-1.84-1.2-2.942-3.663-3.448l-2.3-.464c-1.193-.257-1.641-.7-1.633-1.285-.008-.762.845-1.293 1.972-1.293a1.887 1.887 0 0 1 2.088 1.475zM79.557 8.6a1.833 1.833 0 0 0 1.89-1.765 1.894 1.894 0 0 0-3.779 0A1.833 1.833 0 0 0 79.557 8.6zM81.289 23V10.271h-3.473V23zm8.229-2.627c-.713-.025-1.21-.265-1.21-1.276v-6.216h2.4v-2.61h-2.4v-3.05h-3.472v3.05h-1.749v2.61h1.749v6.688c-.017 2.478 1.691 3.6 4.21 3.6a11.971 11.971 0 0 0 1.831-.124v-2.73c-.414.025-1.019.066-1.359.058zM103.764 10.1c-3.381 0-5.3 1.74-5.5 3.953h3.29a1.925 1.925 0 0 1 2.13-1.409c1.285 0 2.014.613 2.022 1.691v1.028c-.53.017-2.254.091-3.157.149-2.445.157-4.732 1.077-4.732 3.928 0 2.511 1.807 3.8 4.235 3.8a3.906 3.906 0 0 0 3.721-2.006h.1V23h3.29v-8.577c-.004-3.067-2.623-4.323-5.399-4.323zm-.729 10.724c-1.11 0-1.9-.506-1.9-1.492s.762-1.55 1.972-1.649c.6-.058 2.1-.141 2.61-.166v.928a2.463 2.463 0 0 1-2.682 2.384zm20.03 2.42c3.365 0 5.486-1.981 5.652-4.873h-3.273a2.284 2.284 0 0 1-2.345 2.113c-1.674 0-2.76-1.4-2.76-3.854 0-2.428 1.094-3.82 2.76-3.82a2.3 2.3 0 0 1 2.345 2.13h3.273c-.157-2.925-2.378-4.84-5.669-4.84-3.845 0-6.24 2.677-6.24 6.58 0 3.875 2.345 6.569 6.257 6.569zm13.525 0c3.845 0 6.24-2.644 6.24-6.564 0-3.945-2.4-6.58-6.24-6.58s-6.257 2.635-6.257 6.58c0 3.92 2.403 6.569 6.257 6.569zm.017-2.693c-1.815 0-2.743-1.657-2.743-3.9s.928-3.9 2.743-3.9c1.773 0 2.7 1.674 2.7 3.9s-.927 3.904-2.701 3.904zm11.884-4.923a2.373 2.373 0 0 1 2.445-2.644 2.2 2.2 0 0 1 2.279 2.511V23h3.472v-8.1c0-2.975-1.732-4.79-4.384-4.79a3.843 3.843 0 0 0-3.829 2.4h-.149v-2.239h-3.307V23h3.472zm16.392 4.74c-.713-.025-1.21-.265-1.21-1.276v-6.211h2.4v-2.61h-2.4v-3.05H160.2v3.05h-1.749v2.61h1.749v6.688c-.017 2.478 1.691 3.6 4.21 3.6a11.971 11.971 0 0 0 1.831-.124v-2.73c-.414.025-1.019.066-1.358.058zM171.711 23v-7.235a2.592 2.592 0 0 1 2.718-2.66 6.213 6.213 0 0 1 1.483.191V10.2a6.64 6.64 0 0 0-1.11-.108 3.1 3.1 0 0 0-3.066 2.4h-.136v-2.221h-3.365V23zm11.229.249c3.845 0 6.24-2.644 6.24-6.564 0-3.945-2.4-6.58-6.24-6.58s-6.257 2.635-6.257 6.58c.001 3.915 2.404 6.564 6.258 6.564zm.017-2.693c-1.815 0-2.743-1.657-2.743-3.9s.928-3.9 2.743-3.9c1.773 0 2.7 1.674 2.7 3.9s-.926 3.899-2.7 3.899zm8.412-14.528V23h3.472V6.028zm6.174 0V23h3.472V6.028zM209.07 10.1c-3.381 0-5.3 1.74-5.5 3.953h3.29a1.925 1.925 0 0 1 2.13-1.409c1.285 0 2.014.613 2.022 1.691v1.028c-.53.017-2.254.091-3.157.149-2.445.157-4.732 1.077-4.732 3.928 0 2.511 1.807 3.8 4.235 3.8a3.906 3.906 0 0 0 3.721-2.006h.1V23h3.29v-8.577c-.004-3.067-2.622-4.323-5.399-4.323zm-.729 10.724c-1.11 0-1.9-.506-1.9-1.492s.762-1.55 1.972-1.649c.6-.058 2.1-.141 2.611-.166v.928a2.463 2.463 0 0 1-2.683 2.384zM220.6 23v-2.03h.149a3.785 3.785 0 0 0 3.622 2.238c2.917 0 5.18-2.3 5.18-6.555 0-4.359-2.362-6.547-5.171-6.547a3.766 3.766 0 0 0-3.63 2.3h-.1V6.028h-3.464V23zm-.025-6.365c0-2.3.978-3.754 2.71-3.754 1.782 0 2.718 1.525 2.718 3.754 0 2.246-.953 3.8-2.718 3.8-1.717.004-2.712-1.512-2.712-3.8zm11.2-10.608V23h3.472V6.028zM249.56 16.56c0-4.343-2.635-6.456-5.975-6.456-3.729 0-6.157 2.66-6.157 6.588 0 4.036 2.4 6.555 6.3 6.555 3.141 0 5.246-1.525 5.743-3.87h-3.3a2.468 2.468 0 0 1-2.387 1.268 2.813 2.813 0 0 1-2.925-3.116h8.7zm-8.7-1.2a2.753 2.753 0 0 1 2.793-2.66 2.558 2.558 0 0 1 2.635 2.66zm16.417-9.331V23h3.472V6.028zm17.785 10.533c0-4.343-2.635-6.456-5.975-6.456-3.729 0-6.157 2.66-6.157 6.588 0 4.036 2.4 6.555 6.3 6.555 3.141 0 5.246-1.525 5.743-3.87h-3.3a2.468 2.468 0 0 1-2.387 1.268 2.813 2.813 0 0 1-2.925-3.116h8.7zm-8.7-1.2a2.753 2.753 0 0 1 2.793-2.66 2.558 2.558 0 0 1 2.635 2.66zm18.663-5.088-2.669 9.149h-.133l-2.677-9.149h-3.671L280.325 23h3.9l4.459-12.729zm16.55 6.29c0-4.343-2.635-6.456-5.975-6.456-3.729 0-6.157 2.66-6.157 6.588 0 4.036 2.4 6.555 6.3 6.555 3.141 0 5.246-1.525 5.743-3.87h-3.3a2.468 2.468 0 0 1-2.387 1.268 2.813 2.813 0 0 1-2.925-3.116h8.7zm-8.7-1.2a2.753 2.753 0 0 1 2.793-2.66 2.558 2.558 0 0 1 2.635 2.66zm10.881-9.331V23h3.472V6.028zm17.445 17.221c3.845 0 6.24-2.644 6.24-6.564 0-3.945-2.4-6.58-6.24-6.58s-6.257 2.635-6.257 6.58c-.012 3.91 2.392 6.559 6.245 6.559zm.017-2.693c-1.815 0-2.743-1.657-2.743-3.9s.928-3.9 2.743-3.9c1.773 0 2.7 1.674 2.7 3.9s-.939 3.894-2.712 3.894zm14.37-12.547a8.321 8.321 0 0 1 1.069.075v-2.65a9.7 9.7 0 0 0-2.08-.207c-2.544 0-4.16 1.4-4.16 4.086v.953H328.6v2.61h1.8V23h3.472V12.881h2.536v-2.61h-2.536v-.779c.005-1.053.593-1.484 1.704-1.484zm18.92 6.05c-.182-2.428-2.171-3.953-5.4-3.953-3.273 0-5.37 1.525-5.362 3.97-.008 1.881 1.235 3.133 3.671 3.613l2.1.414c1.193.249 1.724.655 1.732 1.318-.008.82-.845 1.318-2.1 1.318-1.285 0-2.088-.514-2.262-1.508H343.4c.282 2.486 2.3 4.019 5.743 4.019 3.381 0 5.627-1.674 5.635-4.177-.008-1.84-1.2-2.942-3.663-3.448l-2.3-.464c-1.193-.257-1.641-.7-1.633-1.285-.008-.762.845-1.293 1.972-1.293a1.887 1.887 0 0 1 2.088 1.475zm7.765-3.953c-3.381 0-5.3 1.74-5.5 3.953h3.29a1.925 1.925 0 0 1 2.13-1.409c1.285 0 2.014.613 2.022 1.691v1.028c-.53.017-2.254.091-3.157.149-2.445.157-4.732 1.077-4.732 3.928 0 2.511 1.807 3.8 4.235 3.8a3.906 3.906 0 0 0 3.721-2.006h.1V23h3.29v-8.577c-.016-3.067-2.635-4.323-5.411-4.323zm-.729 10.724c-1.111 0-1.9-.506-1.9-1.492s.762-1.55 1.972-1.649c.6-.058 2.1-.141 2.611-.166v.928a2.463 2.463 0 0 1-2.695 2.373zM376.25 8.008a8.321 8.321 0 0 1 1.069.075V5.439a9.7 9.7 0 0 0-2.08-.207c-2.544 0-4.16 1.4-4.16 4.086v.953h-1.807v2.61h1.807V23h3.472V12.881h2.536v-2.61h-2.536v-.779c0-1.053.588-1.484 1.699-1.484zm14.014 8.552c0-4.343-2.635-6.456-5.975-6.456-3.729 0-6.157 2.66-6.157 6.588 0 4.036 2.4 6.555 6.3 6.555 3.141 0 5.246-1.525 5.743-3.87h-3.3a2.468 2.468 0 0 1-2.387 1.268 2.813 2.813 0 0 1-2.925-3.116h8.7zm-8.7-1.2a2.753 2.753 0 0 1 2.793-2.66 2.558 2.558 0 0 1 2.635 2.66zm16.409 5.014c-.713-.025-1.21-.265-1.21-1.276v-6.217h2.4v-2.61h-2.4v-3.05h-3.472v3.05h-1.751v2.61h1.749v6.688c-.017 2.478 1.691 3.6 4.21 3.6a11.971 11.971 0 0 0 1.831-.124v-2.73c-.414.025-1.019.066-1.359.058zm5.4 7.4a4.6 4.6 0 0 0 4.8-3.373l4.964-14.13h-3.671l-2.693 9.381h-.133l-2.669-9.381h-3.655l4.575 13.086-.2.539a1.481 1.481 0 0 1-1.674 1.16c-.431 0-.961-.008-1.4-.041l-.008 2.7c.456.042 1.091.058 1.765.058zm17.561-9.854v-.265a3.249 3.249 0 0 1 1.906-3.182 4.53 4.53 0 0 0 2.544-4.086c0-2.892-2.312-4.591-5.586-4.591-2.992 0-5.445 1.583-5.511 4.873h3.331a2.09 2.09 0 0 1 2.155-2.1 1.926 1.926 0 0 1 2.055 1.923c0 1.094-.779 1.823-1.8 2.47-1.392.878-2.18 1.773-2.2 4.691v.265zm-1.483 5.287a1.96 1.96 0 1 0 0-3.92 1.96 1.96 0 1 0 0 3.92z" transform="translate(30 50)"/>
        </g>
    </g>
    <g id="fc_line" transform="translate(-293 -944)">
        <path id="세로" class="cls-10" transform="translate(961 2203)" d="M0 0h1v50H0z"/>
        <path id="사각형_1195" data-name="사각형 1195" class="cls-10" transform="translate(675 2253)" d="M0 0h572v1H0z"/>
        <path id="세로-2" data-name="세로" class="cls-10" transform="translate(675 2254)" d="M0 0h1v50H0z"/>
        <path id="세로-3" data-name="세로" class="cls-10" transform="translate(1246 2254)" d="M0 0h1v458H0z"/>
        <path id="세로-4" data-name="세로" class="cls-10" transform="translate(675 2434)" d="M0 0h1v50H0z"/>
        <path id="세로-5" data-name="세로" class="cls-10" transform="translate(675 2614)" d="M0 0h1v100H0z"/>
        <path id="패스_7154" data-name="패스 7154" d="M1584.279 3631.74h-57v-901h57" transform="translate(-1177.279 -1082.523)" style="fill:none;stroke:#999"/>
        <path id="세로-6" data-name="세로" class="cls-10" transform="translate(961 1174)" d="M0 0h1v50H0z"/>
        <path id="세로-7" data-name="세로" class="cls-10" transform="translate(961 1354)" d="M0 0h1v50H0z"/>
        <path id="세로-8" data-name="세로" class="cls-10" transform="translate(961 1534)" d="M0 0h1v50H0z"/>
        <path id="세로-9" data-name="세로" class="cls-10" transform="translate(961 1714)" d="M0 0h1v50H0z"/>
        <path id="세로-10" data-name="세로" class="cls-10" transform="translate(961 1894)" d="M0 0h1v50H0z"/>
        <path id="다각형_182" data-name="다각형 182" class="cls-10" d="M7.5 0 15 11H0z" transform="rotate(180 484.5 615)"/>
        <path id="다각형_186" data-name="다각형 186" class="cls-10" d="M7.5 0 15 11H0z" transform="rotate(180 484.5 795)"/>
        <path id="다각형_184" data-name="다각형 184" class="cls-10" d="M7.5 0 15 11H0z" transform="rotate(180 484.5 705)"/>
        <path id="다각형_185" data-name="다각형 185" class="cls-10" d="M7.5 0 15 11H0z" transform="rotate(180 484.5 885)"/>
        <path id="다각형_187" data-name="다각형 187" class="cls-10" d="M7.5 0 15 11H0z" transform="rotate(180 484.5 975.5)"/>
        <path id="다각형_188" data-name="다각형 188" class="cls-10" d="M7.5 0 15 11H0z" transform="rotate(180 341.5 1155)"/>
        <path id="다각형_189" data-name="다각형 189" class="cls-10" d="M7.5 0 15 11H0z" transform="rotate(180 341.5 1245)"/>
        <path id="다각형_191" data-name="다각형 191" class="cls-10" d="M7.5 0 15 11H0z" transform="rotate(180 341.5 1360)"/>
        <path id="다각형_192" data-name="다각형 192" class="cls-10" d="M7.5 0 15 11H0z" transform="rotate(180 627 1360)"/>
        <path id="다각형_190" data-name="다각형 190" class="cls-10" d="M7.5 0 15 11H0z" transform="rotate(90 -1064.5 1477.5)"/>
    </g>
    <g id="fc_yes" transform="translate(-467 1105)">
        <g id="fc_yes-2" data-name="fc_yes" transform="translate(504.561 400.685)">
            <path id="사각형_515" data-name="사각형 515" class="cls-1" d="M0 0h39.276v19.481H0z"/>
            <path id="패스_11072" data-name="패스 11072" class="cls-3" d="M-2.34-11.315v7.182h-.1l-4.934-7.182h-2.065V0h2.348v-7.188h.083L-2.036 0H0v-11.315zM5.677.166c2.563 0 4.16-1.766 4.16-4.376 0-2.63-1.6-4.387-4.16-4.387S1.506-6.84 1.506-4.21C1.506-1.6 3.108.166 5.677.166zm.011-1.8c-1.21 0-1.829-1.1-1.829-2.6s.619-2.6 1.829-2.6c1.182 0 1.8 1.116 1.8 2.6S6.87-1.63 5.688-1.63z" transform="translate(19.439 15.315)"/>
        </g>
    </g>
    <g id="fc_yes-3" data-name="fc_yes" transform="translate(-140 1309)">
        <g id="fc_yes-4" data-name="fc_yes" transform="translate(415.588 400.05)">
            <path id="사각형_515-2" data-name="사각형 515" class="cls-1" d="M0 0h216.923v20.116H0z"/>
            <path id="패스_11073" data-name="패스 11073" class="cls-3" d="M-98.412-11.315V0h2.348v-11.315zm6.519 6.4a1.582 1.582 0 0 1 1.63-1.762A1.469 1.469 0 0 1-88.743-5v5h2.315v-5.4c0-1.983-1.155-3.193-2.923-3.193a2.562 2.562 0 0 0-2.552 1.6H-92v-1.493h-2.2V0h2.315zM-77.135.166c2.243 0 3.657-1.32 3.768-3.249h-2.183a1.523 1.523 0 0 1-1.564 1.409c-1.116 0-1.84-.934-1.84-2.569 0-1.619.729-2.547 1.84-2.547a1.534 1.534 0 0 1 1.564 1.42h2.182c-.1-1.95-1.586-3.227-3.779-3.227-2.564 0-4.16 1.785-4.16 4.387 0 2.58 1.564 4.376 4.172 4.376zm8.762-8.766c-2.254 0-3.536 1.16-3.669 2.635h2.193a1.284 1.284 0 0 1 1.42-.939c.856 0 1.343.409 1.348 1.127v.685c-.354.011-1.5.061-2.1.1-1.63.1-3.155.718-3.155 2.619 0 1.674 1.2 2.53 2.823 2.53a2.6 2.6 0 0 0 2.481-1.337h.066V0h2.193v-5.718c-.003-2.044-1.749-2.882-3.6-2.882zm-.486 7.149c-.74 0-1.265-.337-1.265-.994s.508-1.033 1.315-1.1c.4-.039 1.4-.094 1.74-.11v.619a1.642 1.642 0 0 1-1.79 1.588zM-56-5.961C-56.124-7.58-57.45-8.6-59.6-8.6c-2.182 0-3.58 1.017-3.575 2.646-.006 1.254.823 2.088 2.448 2.409l1.4.276c.8.166 1.149.436 1.155.878-.006.547-.564.878-1.4.878-.856 0-1.392-.343-1.508-1.006h-2.32c.188 1.657 1.53 2.68 3.829 2.68 2.254 0 3.751-1.116 3.757-2.785-.006-1.227-.8-1.961-2.442-2.3l-1.53-.309c-.8-.171-1.094-.47-1.088-.856-.006-.508.564-.862 1.315-.862a1.258 1.258 0 0 1 1.392.983zm9.348 1.669c0-2.9-1.757-4.3-3.983-4.3-2.486 0-4.1 1.773-4.1 4.392 0 2.691 1.6 4.37 4.2 4.37 2.094 0 3.5-1.017 3.829-2.58h-2.2a1.645 1.645 0 0 1-1.591.845 1.876 1.876 0 0 1-1.95-2.077h5.8zm-5.8-.8a1.835 1.835 0 0 1 1.862-1.773 1.705 1.705 0 0 1 1.757 1.773zM-37.688.166c2.564 0 4.16-1.762 4.16-4.376 0-2.63-1.6-4.387-4.16-4.387s-4.171 1.757-4.171 4.387c0 2.61 1.602 4.376 4.171 4.376zm.011-1.8c-1.21 0-1.829-1.1-1.829-2.6s.619-2.6 1.829-2.6c1.182 0 1.8 1.116 1.8 2.6s-.617 2.604-1.8 2.604zm9.58-8.365a5.547 5.547 0 0 1 .713.05v-1.762a6.469 6.469 0 0 0-1.387-.138 2.505 2.505 0 0 0-2.773 2.724v.635h-1.2v1.74h1.2V0h2.315v-6.746h1.691v-1.74h-1.691v-.519c0-.702.392-.989 1.129-.989zm6.757.4a1.222 1.222 0 0 0 1.26-1.177 1.226 1.226 0 0 0-1.26-1.177 1.226 1.226 0 0 0-1.26 1.177A1.222 1.222 0 0 0-21.34-9.6zM-20.185 0v-8.486H-22.5V0zm4.116-4.912a1.582 1.582 0 0 1 1.63-1.762A1.469 1.469 0 0 1-12.92-5v5h2.32v-5.4c0-1.983-1.155-3.193-2.923-3.193a2.562 2.562 0 0 0-2.552 1.6h-.1v-1.493h-2.2V0h2.315zm14.26-1.05C-1.931-7.58-3.257-8.6-5.406-8.6c-2.182 0-3.58 1.017-3.575 2.646-.006 1.254.823 2.088 2.448 2.409l1.4.276c.8.166 1.149.436 1.155.878-.006.547-.564.878-1.4.878-.856 0-1.392-.343-1.508-1.006h-2.32C-9.019-.856-7.677.166-5.378.166c2.254 0 3.751-1.116 3.757-2.785-.006-1.227-.8-1.961-2.442-2.3l-1.53-.309c-.8-.171-1.094-.47-1.088-.856-.006-.508.564-.862 1.315-.862a1.258 1.258 0 0 1 1.392.983zM5.24-3.613A1.626 1.626 0 0 1 3.6-1.851a1.462 1.462 0 0 1-1.487-1.635v-5H-.2v5.4C-.2-1.094.964.11 2.671.11A2.605 2.605 0 0 0 5.24-1.536h.088V0H7.55v-8.486H5.24zm8.083-6.381a5.547 5.547 0 0 1 .713.05v-1.762a6.469 6.469 0 0 0-1.387-.138 2.505 2.505 0 0 0-2.773 2.722v.635h-1.2v1.74h1.2V0h2.315v-6.746h1.691v-1.74h-1.691v-.519c0-.702.392-.989 1.132-.989zm5.878 0a5.547 5.547 0 0 1 .713.05v-1.762a6.469 6.469 0 0 0-1.387-.138 2.505 2.505 0 0 0-2.773 2.724v.635h-1.2v1.74h1.2V0h2.315v-6.746h1.691v-1.74h-1.691v-.519c0-.702.392-.989 1.131-.989zm3.066.4a1.222 1.222 0 0 0 1.26-1.177 1.226 1.226 0 0 0-1.26-1.177 1.226 1.226 0 0 0-1.26 1.177A1.222 1.222 0 0 0 22.268-9.6zM23.423 0v-8.486h-2.315V0zm5.624.166c2.243 0 3.657-1.32 3.768-3.249h-2.182a1.523 1.523 0 0 1-1.564 1.409c-1.116 0-1.84-.934-1.84-2.569 0-1.619.729-2.547 1.84-2.547a1.534 1.534 0 0 1 1.564 1.42h2.182c-.105-1.95-1.586-3.23-3.779-3.23-2.564 0-4.16 1.785-4.16 4.387 0 2.583 1.563 4.379 4.171 4.379zM35.4-9.6a1.222 1.222 0 0 0 1.26-1.177 1.226 1.226 0 0 0-1.26-1.173 1.226 1.226 0 0 0-1.26 1.177A1.222 1.222 0 0 0 35.4-9.6zM36.555 0v-8.486H34.24V0zM46.1-4.293c0-2.9-1.757-4.3-3.983-4.3-2.486 0-4.1 1.773-4.1 4.392 0 2.691 1.6 4.37 4.2 4.37 2.094 0 3.5-1.017 3.829-2.58h-2.2a1.645 1.645 0 0 1-1.591.845 1.876 1.876 0 0 1-1.955-2.08h5.8zm-5.8-.8a1.835 1.835 0 0 1 1.862-1.773 1.705 1.705 0 0 1 1.757 1.773zm9.569.182a1.582 1.582 0 0 1 1.63-1.762A1.469 1.469 0 0 1 53.014-5v5h2.315v-5.4c0-1.983-1.155-3.193-2.923-3.193a2.562 2.562 0 0 0-2.552 1.6h-.1v-1.493h-2.2V0h2.315zm10.928 3.16c-.475-.017-.807-.177-.807-.851v-4.144h1.6v-1.74h-1.6v-2.033h-2.319v2.033h-1.165v1.74h1.166v4.459C57.66-.635 58.8.116 60.478.116A7.981 7.981 0 0 0 61.7.033V-1.79c-.277.017-.681.044-.907.039zM69.854.138a2.524 2.524 0 0 0 2.414-1.492h.1V0h2.276v-11.315h-2.31v4.254h-.066a2.5 2.5 0 0 0-2.42-1.539c-1.873 0-3.448 1.462-3.448 4.368 0 2.832 1.509 4.37 3.454 4.37zm.724-1.845c-1.177 0-1.812-1.039-1.812-2.536s.624-2.5 1.812-2.5c1.155 0 1.807.972 1.807 2.5s-.664 2.536-1.808 2.536zM80.069-8.6c-2.254 0-3.536 1.16-3.669 2.635h2.193a1.284 1.284 0 0 1 1.42-.939c.856 0 1.343.409 1.348 1.127v.685c-.354.011-1.5.061-2.1.1-1.63.1-3.155.718-3.155 2.619C76.1-.7 77.307.16 78.925.16a2.6 2.6 0 0 0 2.481-1.337h.066V0h2.193v-5.718C83.666-7.762 81.92-8.6 80.069-8.6zm-.486 7.149c-.74 0-1.265-.337-1.265-.994s.508-1.033 1.315-1.1c.4-.039 1.4-.094 1.74-.11v.619a1.642 1.642 0 0 1-1.79 1.588zm9.525-.3c-.475-.017-.807-.177-.807-.851v-4.144h1.6v-1.74H88.3v-2.033h-2.314v2.033H84.82v1.74h1.166v4.459c-.011 1.652 1.127 2.4 2.807 2.4a7.981 7.981 0 0 0 1.221-.08V-1.79c-.276.017-.68.044-.906.039zM94.914-8.6c-2.254 0-3.536 1.16-3.669 2.635h2.193a1.284 1.284 0 0 1 1.42-.939c.856 0 1.343.409 1.348 1.127v.685c-.354.011-1.5.061-2.1.1-1.63.1-3.155.718-3.155 2.619 0 1.674 1.2 2.53 2.823 2.53a2.6 2.6 0 0 0 2.481-1.337h.066V0h2.193v-5.718c-.003-2.044-1.749-2.882-3.6-2.882zm-.486 7.149c-.74 0-1.265-.337-1.265-.994s.508-1.033 1.315-1.1c.4-.039 1.4-.094 1.74-.11v.619a1.642 1.642 0 0 1-1.79 1.588z" transform="translate(108.412 15.95)"/>
        </g>
    </g>
    <g id="fc_yes-5" data-name="fc_yes" transform="translate(792.561 1299.686)">
        <path id="사각형_515-3" data-name="사각형 515" class="cls-1" d="M0 0h39.276v19.481H0z"/>
        <path id="패스_11068" data-name="패스 11068" class="cls-3" d="M-2.34-11.315v7.182h-.1l-4.934-7.182h-2.065V0h2.348v-7.188h.083L-2.036 0H0v-11.315zM5.677.166c2.563 0 4.16-1.766 4.16-4.376 0-2.63-1.6-4.387-4.16-4.387S1.506-6.84 1.506-4.21C1.506-1.6 3.108.166 5.677.166zm.011-1.8c-1.21 0-1.829-1.1-1.829-2.6s.619-2.6 1.829-2.6c1.182 0 1.8 1.116 1.8 2.6S6.87-1.63 5.688-1.63z" transform="translate(19.439 15.315)"/>
    </g>
    <g id="fc_yes-6" data-name="fc_yes" transform="translate(1 899)">
        <g id="fc_yes-7" data-name="fc_yes" transform="translate(500.666 400.685)">
            <path id="사각형_515-4" data-name="사각형 515" class="cls-1" d="M0 0h46.42v19.481H0z"/>
            <path id="패스_11067" data-name="패스 11067" class="cls-3" d="M-9.207-4.028V0h2.337v-4.028l4.127-7.287h-2.641l-2.6 4.884h-.1l-2.6-4.884h-2.641zm13.635-.265c0-2.9-1.757-4.3-3.983-4.3-2.486 0-4.1 1.773-4.1 4.392 0 2.691 1.6 4.37 4.2 4.37 2.094 0 3.5-1.017 3.829-2.58h-2.2a1.645 1.645 0 0 1-1.591.845 1.876 1.876 0 0 1-1.95-2.077h5.8zm-5.8-.8A1.835 1.835 0 0 1 .489-6.867a1.705 1.705 0 0 1 1.757 1.773zM12.9-5.961C12.776-7.58 11.45-8.6 9.3-8.6c-2.181 0-3.579 1.02-3.573 2.65-.006 1.25.823 2.088 2.447 2.409l1.4.276c.8.166 1.149.436 1.155.878-.006.547-.564.878-1.4.878-.856 0-1.392-.343-1.508-1.006H5.5C5.688-.856 7.03.166 9.329.166c2.254 0 3.751-1.116 3.757-2.785-.006-1.227-.8-1.961-2.442-2.3l-1.53-.309c-.8-.171-1.094-.47-1.088-.856-.006-.508.564-.862 1.315-.862a1.258 1.258 0 0 1 1.392.983z" transform="translate(23.334 15.315)"/>
        </g>
    </g>
</svg>
