<svg id="ENG_fc_box_smaller_color_12" xmlns="http://www.w3.org/2000/svg" width="538" height="135" viewBox="0 0 538 135">
    <defs>
        <clipPath id="clip-path">
            <path id="사각형_664" data-name="사각형 664" style="stroke:#527773;stroke-width:2px;fill:none" d="M0 0h20v20H0z"/>
        </clipPath>
        <style>
            .cls-6{fill:none;stroke:#527773;stroke-width:2px}.cls-3{fill:#527773}.cls-6{stroke-miterlimit:10}.cls-7{fill:#999}
        </style>
    </defs>
    <g id="fc_box_medium_color" transform="translate(0 5)">
        <g id="box" style="fill:#d7eae1;stroke:#527773;stroke-width:2px">
            <path style="stroke:none" d="M0 0h538v130H0z"/>
            <path style="fill:none" d="M1 1h536v128H1z"/>
        </g>
        <g id="그룹_1834" data-name="그룹 1834" transform="translate(-94 -810)">
            <path id="line" class="cls-3" transform="translate(232 889)" d="M0 0h262v1H0z"/>
            <g id="그룹_1835" data-name="그룹 1835">
                <g id="ico_flowchart_info" transform="translate(467.066 862)">
                    <g id="그룹_883" data-name="그룹 883" transform="translate(2 2)">
                        <g id="그룹_882" data-name="그룹 882" style="clip-path:url(#clip-path)">
                            <circle id="타원_113" data-name="타원 113" class="cls-6" cx="9" cy="9" r="9" transform="translate(1 1)"/>
                            <path id="선_136" data-name="선 136" class="cls-6" transform="translate(10 9)" d="M0 0v6"/>
                            <path id="선_137" data-name="선 137" class="cls-6" transform="translate(10 5)" d="M0 0v2"/>
                        </g>
                    </g>
                </g>
                <path id="패스_11100" data-name="패스 11100" class="cls-3" d="M-108.282 0c3.829 0 5.851-1.989 5.851-4.674a3.94 3.94 0 0 0-3.729-4.135v-.166a3.611 3.611 0 0 0 3.066-3.638c0-2.552-1.89-4.359-5.627-4.359h-6.754V0zm-3.671-14.113h2.776c1.608 0 2.519.837 2.519 2.072 0 1.359-1.1 2.18-2.586 2.18h-2.71zm0 6.663h3.05c1.749 0 2.834 1 2.834 2.428 0 1.285-.887 2.13-2.909 2.13h-2.975zm19.831 2.03a2.439 2.439 0 0 1-2.461 2.644 2.193 2.193 0 0 1-2.229-2.453v-7.5h-3.472v8.1c.008 2.983 1.749 4.79 4.309 4.79A3.908 3.908 0 0 0-92.122-2.3h.133V0h3.331v-12.729h-3.464zm16.691-3.522c-.182-2.428-2.171-3.953-5.4-3.953-3.273 0-5.37 1.525-5.362 3.97-.008 1.881 1.235 3.133 3.671 3.613l2.1.414c1.193.249 1.724.655 1.732 1.318-.008.82-.845 1.318-2.1 1.318-1.285 0-2.088-.514-2.262-1.508h-3.481c.282 2.486 2.3 4.019 5.743 4.019 3.381 0 5.627-1.674 5.635-4.177-.008-1.84-1.2-2.942-3.663-3.448l-2.3-.464c-1.193-.257-1.641-.7-1.633-1.285-.008-.762.845-1.293 1.972-1.293a1.887 1.887 0 0 1 2.099 1.476zm4.152-5.453a1.833 1.833 0 0 0 1.89-1.765 1.839 1.839 0 0 0-1.89-1.765 1.839 1.839 0 0 0-1.889 1.765 1.833 1.833 0 0 0 1.889 1.76zM-69.547 0v-12.729h-3.472V0zm6.174-7.367a2.373 2.373 0 0 1 2.445-2.644A2.2 2.2 0 0 1-58.649-7.5V0h3.472v-8.1c0-2.975-1.732-4.79-4.384-4.79a3.843 3.843 0 0 0-3.829 2.4h-.149v-2.238h-3.307V0h3.472zm22.475.928c0-4.343-2.635-6.456-5.975-6.456-3.729 0-6.157 2.66-6.157 6.588 0 4.036 2.4 6.555 6.3 6.555 3.141 0 5.246-1.525 5.743-3.87h-3.3a2.468 2.468 0 0 1-2.387 1.268A2.813 2.813 0 0 1-49.6-5.47h8.7zm-8.7-1.2a2.753 2.753 0 0 1 2.793-2.66 2.558 2.558 0 0 1 2.635 2.66zm21.406-1.3c-.182-2.428-2.171-3.953-5.4-3.953-3.273 0-5.37 1.525-5.362 3.97-.008 1.881 1.235 3.133 3.671 3.613l2.1.414c1.193.249 1.724.655 1.732 1.318-.008.82-.845 1.318-2.1 1.318-1.285 0-2.088-.514-2.262-1.508h-3.477c.282 2.486 2.3 4.019 5.743 4.019 3.381 0 5.627-1.674 5.635-4.177-.008-1.84-1.2-2.942-3.663-3.448l-2.3-.464c-1.193-.257-1.641-.7-1.633-1.285-.008-.762.845-1.293 1.972-1.293a1.887 1.887 0 0 1 2.088 1.475zm12.936 0c-.182-2.428-2.171-3.953-5.4-3.953-3.273 0-5.37 1.525-5.362 3.97-.008 1.881 1.235 3.133 3.671 3.613l2.1.414c1.193.249 1.724.655 1.732 1.318-.008.82-.845 1.318-2.1 1.318-1.285 0-2.088-.514-2.262-1.508h-3.481c.282 2.486 2.3 4.019 5.743 4.019 3.381 0 5.627-1.674 5.635-4.177-.008-1.84-1.2-2.942-3.663-3.448l-2.3-.464c-1.193-.257-1.641-.7-1.633-1.285-.008-.762.845-1.293 1.972-1.293a1.887 1.887 0 0 1 2.088 1.475zM-3.837 4.773v-6.8h.108A3.777 3.777 0 0 0-.108.207C2.8.207 5.064-2.1 5.064-6.348c0-4.359-2.354-6.547-5.171-6.547a3.753 3.753 0 0 0-3.622 2.3h-.157v-2.138h-3.423v17.5zm-.075-11.138c0-2.3.97-3.754 2.718-3.754 1.773 0 2.71 1.525 2.71 3.754 0 2.246-.953 3.8-2.71 3.8-1.731.004-2.718-1.512-2.718-3.8zM18.9-6.439c0-4.343-2.635-6.456-5.975-6.456-3.729 0-6.157 2.66-6.157 6.588 0 4.036 2.4 6.555 6.3 6.555 3.141 0 5.246-1.525 5.743-3.87h-3.3a2.468 2.468 0 0 1-2.387 1.268 2.813 2.813 0 0 1-2.931-3.116h8.7zm-8.7-1.2a2.753 2.753 0 0 1 2.793-2.66 2.558 2.558 0 0 1 2.635 2.66zM24.547 0v-7.235A2.592 2.592 0 0 1 27.265-9.9a6.213 6.213 0 0 1 1.483.191v-3.1a6.64 6.64 0 0 0-1.11-.108 3.1 3.1 0 0 0-3.066 2.4h-.133v-2.213h-3.364V0zm9.365 0v-7.649a2.163 2.163 0 0 1 2.1-2.378 1.9 1.9 0 0 1 1.972 2.055V0h3.356v-7.79a2.014 2.014 0 0 1 2.072-2.238 1.908 1.908 0 0 1 2 2.138V0h3.472v-8.561c0-2.768-1.657-4.334-4.019-4.334a3.85 3.85 0 0 0-3.829 2.4H40.9a3.372 3.372 0 0 0-3.456-2.4 3.576 3.576 0 0 0-3.547 2.4h-.149v-2.238h-3.309V0zm19.367-14.4a1.833 1.833 0 0 0 1.889-1.765 1.839 1.839 0 0 0-1.889-1.765 1.839 1.839 0 0 0-1.89 1.765 1.833 1.833 0 0 0 1.89 1.765zM55.011 0v-12.729h-3.472V0zm13.227-8.942c-.182-2.428-2.171-3.953-5.4-3.953-3.273 0-5.37 1.525-5.362 3.97-.008 1.881 1.235 3.133 3.671 3.613l2.1.414c1.193.249 1.724.655 1.732 1.318-.008.82-.845 1.318-2.1 1.318-1.285 0-2.088-.514-2.262-1.508h-3.476c.282 2.486 2.3 4.019 5.743 4.019 3.381 0 5.627-1.674 5.635-4.177-.008-1.84-1.2-2.942-3.663-3.448l-2.3-.464c-1.193-.257-1.641-.7-1.633-1.285-.008-.762.845-1.293 1.972-1.293a1.887 1.887 0 0 1 2.088 1.475zm12.936 0C80.992-11.37 79-12.9 75.779-12.9c-3.273 0-5.37 1.525-5.362 3.97-.008 1.881 1.235 3.133 3.671 3.613l2.1.414c1.193.249 1.724.655 1.732 1.318-.008.82-.845 1.318-2.1 1.318-1.285 0-2.088-.514-2.262-1.508h-3.481c.282 2.486 2.3 4.019 5.743 4.019 3.381 0 5.627-1.674 5.635-4.177-.008-1.84-1.2-2.942-3.663-3.448L75.5-7.84c-1.193-.257-1.641-.7-1.633-1.285-.008-.762.845-1.293 1.972-1.293a1.887 1.887 0 0 1 2.088 1.475zm4.152-5.458a1.833 1.833 0 0 0 1.89-1.765 1.839 1.839 0 0 0-1.89-1.765 1.839 1.839 0 0 0-1.889 1.765 1.833 1.833 0 0 0 1.889 1.765zM87.058 0v-12.729h-3.472V0zm8.436.249c3.845 0 6.24-2.644 6.24-6.564 0-3.945-2.4-6.58-6.24-6.58s-6.257 2.635-6.257 6.58C89.238-2.4 91.641.249 95.494.249zm.017-2.693c-1.815 0-2.743-1.657-2.743-3.9s.928-3.9 2.743-3.9c1.773 0 2.7 1.674 2.7 3.9s-.926 3.899-2.7 3.899zM107.4-7.367a2.373 2.373 0 0 1 2.445-2.644 2.2 2.2 0 0 1 2.274 2.511V0h3.472v-8.1c0-2.975-1.732-4.79-4.384-4.79a3.843 3.843 0 0 0-3.829 2.4h-.149v-2.238h-3.307V0h3.478z" transform="translate(347.475 883)"/>
            </g>
        </g>
    </g>
    <path id="다각형_125" data-name="다각형 125" class="cls-7" d="M7.5 0 15 11H0z" transform="rotate(180 163 5.5)"/>
    <path id="다각형_127" data-name="다각형 127" class="cls-7" d="M7.5 0 15 11H0z" transform="rotate(180 45 5.5)"/>
    <path id="다각형_126" data-name="다각형 126" class="cls-7" d="M7.5 0 15 11H0z" transform="rotate(180 238.5 5.5)"/>
</svg>
