<svg id="ENG_fc_box_smaller_color_10" xmlns="http://www.w3.org/2000/svg" width="166" height="195" viewBox="0 0 166 195">
    <defs>
        <clipPath id="clip-path">
            <path id="사각형_664" data-name="사각형 664" style="stroke:#527773;stroke-width:2px;fill:none" d="M0 0h20v20H0z"/>
        </clipPath>
        <style>
            .cls-7{fill:none;stroke:#527773;stroke-width:2px}.cls-3,.cls-4{fill:#326f5e}.cls-3{font-size:20px;font-family:Pretendard-Bold,Pretendard;font-weight:700}.cls-7{stroke-miterlimit:10}
        </style>
    </defs>
    <g id="fc_box_smaller_long_color" transform="translate(0 5)">
        <g id="box" style="fill:#f5faf8;stroke-width:2px;stroke:#6c918e;">
            <path style="stroke:none" d="M0 0h166v190H0z"/>
            <path style="fill:none" d="M1 1h164v188H1z"/>
        </g>
        <g id="그룹_11127" data-name="그룹 11127" transform="translate(-80 -1239)">
            <text id="How_to" data-name="How to" class="cls-3" transform="translate(163 1325)"><tspan x="-33.008" y="0">How to</tspan></text>
            <path id="line" class="cls-4" transform="translate(130 1332)" d="M0 0h66v1H0z"/>
        </g>
        <g id="그룹_11129" data-name="그룹 11129" transform="translate(-94 -1209)">
            <path id="line-2" data-name="line" class="cls-4" transform="translate(123 1332)" d="M0 0h108v1H0z"/>
            <g id="그룹_17156" data-name="그룹 17156">
                <text id="comply_" data-name="comply?" class="cls-3" transform="translate(163 1325)"><tspan x="-39.98" y="0">comply?</tspan></text>
                <g id="ico_flowchart_info" transform="translate(207 1306)">
                    <g id="그룹_883" data-name="그룹 883" transform="translate(2 2)">
                        <g id="그룹_882" data-name="그룹 882" style="clip-path:url(#clip-path)">
                            <circle id="타원_113" data-name="타원 113" class="cls-7" cx="9" cy="9" r="9" transform="translate(1 1)"/>
                            <path id="선_136" data-name="선 136" class="cls-7" transform="translate(10 9)" d="M0 0v6"/>
                            <path id="선_137" data-name="선 137" class="cls-7" transform="translate(10 5)" d="M0 0v2"/>
                        </g>
                    </g>
                </g>
            </g>
        </g>
    </g>
    <path id="다각형_196" data-name="다각형 196" d="M7.5 0 15 11H0z" transform="rotate(180 45 5.5)" style="fill:#999"/>
</svg>
