<svg id="ENG_fc_box_smaller_color_03" xmlns="http://www.w3.org/2000/svg" width="348" height="135" viewBox="0 0 348 135">
    <defs>
        <clipPath id="clip-path">
            <path id="사각형_664" data-name="사각형 664" style="stroke:#527773;stroke-width:2px;fill:none" d="M0 0h20v20H0z"/>
        </clipPath>
        <style>
            .cls-5{fill:none;stroke:#527773;stroke-width:2px;stroke-miterlimit:10}.cls-6{fill:#326f5e}
        </style>
    </defs>
    <g id="fc_box_small_color" transform="translate(0 5)">
        <g id="box" style="fill:#f5faf8;stroke-width:2px;stroke:#6c918e;">
            <path style="stroke:none" d="M0 0h348v130H0z"/>
            <path style="fill:none" d="M1 1h346v128H1z"/>
        </g>
        <g id="그룹_1838" data-name="그룹 1838" transform="translate(-605 -2798)">
            <g id="그룹_1843" data-name="그룹 1843" transform="translate(1)">
                <g id="ico_flowchart_info" transform="translate(869.253 2850)">
                    <g id="그룹_883" data-name="그룹 883" transform="translate(2 2)">
                        <g id="그룹_882" data-name="그룹 882" style="clip-path:url(#clip-path)">
                            <circle id="타원_113" data-name="타원 113" class="cls-5" cx="9" cy="9" r="9" transform="translate(1 1)"/>
                            <path id="선_136" data-name="선 136" class="cls-5" transform="translate(10 9)" d="M0 0v6"/>
                            <path id="선_137" data-name="선 137" class="cls-5" transform="translate(10 5)" d="M0 0v2"/>
                        </g>
                    </g>
                </g>
                <path id="패스_10966" data-name="패스 10966" class="cls-6" d="M-101.578-14.144V0h2.935v-14.144zm8.149 8a1.977 1.977 0 0 1 2.037-2.2 1.836 1.836 0 0 1 1.9 2.093V0h2.892v-6.754c0-2.479-1.443-3.992-3.653-3.992a3.2 3.2 0 0 0-3.191 2h-.124v-1.865h-2.756V0h2.894zm12.97 6.317a3.155 3.155 0 0 0 3.018-1.865h.124V0h2.845v-14.144h-2.887v5.318h-.083a3.131 3.131 0 0 0-3.025-1.92c-2.341 0-4.309 1.823-4.309 5.456 0 3.543 1.886 5.463 4.317 5.463zm.9-2.307c-1.471 0-2.265-1.3-2.265-3.17s.78-3.128 2.265-3.128c1.443 0 2.258 1.215 2.258 3.128s-.824 3.17-2.254 3.17zM-70.7-12a1.528 1.528 0 0 0 1.575-1.471 1.532 1.532 0 0 0-1.575-1.467 1.532 1.532 0 0 0-1.575 1.471A1.528 1.528 0 0 0-70.7-12zm1.443 12v-10.608h-2.894V0zm9.033-10.608-2.224 7.624h-.111l-2.231-7.624h-3.059L-64.133 0h3.253l3.715-10.608zM-54.306-12a1.528 1.528 0 0 0 1.575-1.471 1.532 1.532 0 0 0-1.575-1.471 1.532 1.532 0 0 0-1.575 1.471A1.528 1.528 0 0 0-54.306-12zm1.443 12v-10.608h-2.894V0zm6.163.173a3.155 3.155 0 0 0 3.018-1.865h.124V0h2.845v-14.144H-43.6v5.318h-.083a3.131 3.131 0 0 0-3.025-1.92c-2.341 0-4.309 1.823-4.309 5.456.005 3.543 1.891 5.463 4.317 5.463zm.9-2.307c-1.471 0-2.265-1.3-2.265-3.17s.78-3.128 2.265-3.128c1.443 0 2.258 1.215 2.258 3.128s-.819 3.17-2.249 3.17zm14.206-2.383a2.033 2.033 0 0 1-2.051 2.2 1.828 1.828 0 0 1-1.858-2.044v-6.25h-2.894v6.754C-38.381-1.367-36.93.138-34.8.138a3.257 3.257 0 0 0 3.215-2.058h.11V0h2.775v-10.608h-2.887zm9.6-6.229c-2.818 0-4.42 1.45-4.586 3.294h2.742a1.6 1.6 0 0 1 1.775-1.174c1.07 0 1.678.511 1.685 1.409v.856c-.442.014-1.878.076-2.631.124-2.037.131-3.943.9-3.943 3.273C-26.944-.87-25.439.2-23.415.2a3.255 3.255 0 0 0 3.1-1.671h.083V0h2.742v-7.148c0-2.552-2.182-3.598-4.495-3.598zm-.608 8.936c-.925 0-1.581-.421-1.581-1.243s.635-1.291 1.644-1.374a70.68 70.68 0 0 1 2.175-.138v.773a2.052 2.052 0 0 1-2.229 1.983zm7.3-12.334V0h2.902v-14.144zM-2.642 0v-6.029A2.16 2.16 0 0 1-.376-8.246a5.177 5.177 0 0 1 1.236.159v-2.583a5.534 5.534 0 0 0-.925-.09 2.585 2.585 0 0 0-2.555 2h-.11v-1.844h-2.8V0zm14.255-5.366c0-3.619-2.2-5.38-4.979-5.38-3.108 0-5.131 2.217-5.131 5.49C1.5-1.892 3.5.207 6.751.207c2.617 0 4.372-1.271 4.786-3.225H8.788A2.056 2.056 0 0 1 6.8-1.961a2.344 2.344 0 0 1-2.438-2.6h7.251zm-7.251-1a2.294 2.294 0 0 1 2.327-2.218 2.131 2.131 0 0 1 2.2 2.217zM18.194 4.2c3.018 0 5.152-1.374 5.152-4.088v-10.72h-2.859v1.782h-.117a3.141 3.141 0 0 0-3.032-1.92c-2.341 0-4.309 1.789-4.309 5.38 0 3.529 1.92 5.214 4.316 5.214a3.1 3.1 0 0 0 3.032-1.733h.123V.069c0 1.471-.9 2.037-2.244 2.037-1.146 0-1.948-.38-2.106-1.236H13.3c.17 2.017 1.973 3.33 4.894 3.33zm.055-6.526c-1.471 0-2.265-1.167-2.265-3.011 0-1.823.78-3.094 2.265-3.094 1.443 0 2.258 1.215 2.258 3.094s-.828 3.01-2.258 3.01zM27.055-12a1.528 1.528 0 0 0 1.575-1.471 1.532 1.532 0 0 0-1.575-1.471 1.532 1.532 0 0 0-1.575 1.471A1.528 1.528 0 0 0 27.055-12zM28.5 0v-10.608h-2.9V0zm11.02-7.452c-.152-2.023-1.809-3.294-4.5-3.294-2.728 0-4.475 1.271-4.468 3.308-.007 1.568 1.029 2.61 3.059 3.011l1.754.345c.994.207 1.436.546 1.443 1.1-.007.684-.7 1.1-1.754 1.1-1.07 0-1.74-.428-1.885-1.257h-2.9c.239 2.069 1.917 3.346 4.79 3.346 2.818 0 4.689-1.4 4.7-3.481-.007-1.533-1-2.452-3.052-2.873l-1.913-.387c-.994-.214-1.367-.587-1.36-1.07-.007-.635.7-1.077 1.644-1.077a1.573 1.573 0 0 1 1.74 1.229zm6.616 5.262c-.594-.021-1.008-.221-1.008-1.064v-5.18h2v-2.175h-2v-2.541h-2.894v2.541h-1.457v2.175h1.457v5.573c-.014 2.065 1.409 3 3.508 3a9.976 9.976 0 0 0 1.526-.1v-2.277c-.345.021-.849.056-1.132.049zM51.827 0v-6.029a2.16 2.16 0 0 1 2.265-2.217 5.177 5.177 0 0 1 1.236.159v-2.583a5.534 5.534 0 0 0-.925-.09 2.585 2.585 0 0 0-2.555 2h-.111v-1.844h-2.8V0zm9.081-10.746c-2.818 0-4.42 1.45-4.586 3.294h2.742a1.6 1.6 0 0 1 1.775-1.174c1.07 0 1.678.511 1.685 1.409v.856c-.442.014-1.878.076-2.631.124-2.037.131-3.943.9-3.943 3.273C55.95-.87 57.455.2 59.479.2a3.255 3.255 0 0 0 3.1-1.671h.083V0H65.4v-7.148c0-2.552-2.178-3.598-4.492-3.598zM60.3-1.809c-.925 0-1.581-.421-1.581-1.243s.635-1.291 1.644-1.374a70.68 70.68 0 0 1 2.175-.138v.773A2.052 2.052 0 0 1 60.3-1.809zm11.906-.38C71.613-2.21 71.2-2.41 71.2-3.253v-5.18h2v-2.175h-2v-2.541h-2.9v2.541h-1.453v2.175H68.3v5.573c-.014 2.065 1.409 3 3.508 3a9.976 9.976 0 0 0 1.526-.1v-2.278c-.34.021-.844.056-1.128.049zM76.454-12a1.528 1.528 0 0 0 1.575-1.471 1.532 1.532 0 0 0-1.575-1.471 1.532 1.532 0 0 0-1.575 1.471A1.528 1.528 0 0 0 76.454-12zM77.9 0v-10.608H75V0zm7.03.207c3.2 0 5.2-2.2 5.2-5.47 0-3.287-2-5.483-5.2-5.483s-5.214 2.2-5.214 5.483c-.003 3.263 2 5.47 5.211 5.47zm.014-2.244c-1.512 0-2.286-1.381-2.286-3.246s.773-3.253 2.286-3.253c1.478 0 2.251 1.4 2.251 3.253s-.776 3.246-2.254 3.246zm9.9-4.1a1.977 1.977 0 0 1 2.037-2.2 1.836 1.836 0 0 1 1.9 2.093V0h2.894v-6.754c0-2.479-1.443-3.992-3.653-3.992a3.2 3.2 0 0 0-3.191 2h-.124v-1.865h-2.756V0h2.894z" transform="translate(763.578 2869)"/>
            </g>
            <path id="line" class="cls-6" transform="translate(664 2876)" d="M0 0h231v1H0z"/>
        </g>
    </g>
    <path id="다각형_145" data-name="다각형 145" d="M7.5 0 15 11H0z" transform="rotate(180 91 5.5)" style="fill:#999"/>
</svg>
