<svg id="ENG_fc_box_smaller_color_13" xmlns="http://www.w3.org/2000/svg" width="1108" height="135" viewBox="0 0 1108 135">
    <defs>
        <clipPath id="clip-path">
            <path id="사각형_664" data-name="사각형 664" style="stroke:#527773;stroke-width:2px;fill:none" d="M0 0h20v20H0z"/>
        </clipPath>
        <style>
            .cls-6{fill:none;stroke:#527773;stroke-width:2px}.cls-3{fill:#527773}.cls-6{stroke-miterlimit:10}.cls-7{fill:#999}
        </style>
    </defs>
    <g id="fc_start_end_color" transform="translate(0 5)">
        <g id="fc_start_end_color-2" data-name="fc_start_end_color">
            <g id="fc_start_end">
                <g id="area" style="fill:#f5faf8;stroke-width:2px;stroke:#6c918e;">
                    <rect width="1108" height="130" rx="65" style="stroke:none"/>
                    <rect x="1" y="1" width="1106" height="128" rx="64" style="fill:none"/>
                </g>
                <g id="그룹_1862" data-name="그룹 1862" transform="translate(191 -810)">
                    <path id="line" class="cls-3" transform="translate(26 889)" d="M0 0h674v1H0z"/>
                    <g id="그룹_1835" data-name="그룹 1835">
                        <g id="ico_flowchart_info" transform="translate(674.238 862)">
                            <g id="그룹_883" data-name="그룹 883" transform="translate(2 2)">
                                <g id="그룹_882" data-name="그룹 882" style="clip-path:url(#clip-path)">
                                    <circle id="타원_113" data-name="타원 113" class="cls-6" cx="9" cy="9" r="9" transform="translate(1 1)"/>
                                    <path id="선_136" data-name="선 136" class="cls-6" transform="translate(10 9)" d="M0 0v6"/>
                                    <path id="선_137" data-name="선 137" class="cls-6" transform="translate(10 5)" d="M0 0v2"/>
                                </g>
                            </g>
                        </g>
                        <path id="패스_11105" data-name="패스 11105" class="cls-3" d="M-311.142-16.972V-6.2h-.149l-7.4-10.773h-3.1V0h3.522v-10.782h.124L-310.686 0h3.05v-16.972zM-299.117.249c3.845 0 6.24-2.644 6.24-6.564 0-3.945-2.4-6.58-6.24-6.58s-6.257 2.635-6.257 6.58c0 3.915 2.403 6.564 6.257 6.564zm.017-2.693c-1.815 0-2.743-1.657-2.743-3.9s.928-3.9 2.743-3.9c1.773 0 2.7 1.674 2.7 3.9s-.927 3.899-2.7 3.899zm13.939-.182c-.713-.025-1.21-.265-1.21-1.276v-6.215h2.4v-2.61h-2.4v-3.05h-3.472v3.05h-1.749v2.61h1.749v6.688c-.017 2.478 1.691 3.6 4.21 3.6A11.971 11.971 0 0 0-283.8.05v-2.735c-.417.025-1.022.066-1.362.058zm5.1-11.768a1.833 1.833 0 0 0 1.889-1.765 1.839 1.839 0 0 0-1.889-1.765 1.839 1.839 0 0 0-1.889 1.765 1.833 1.833 0 0 0 1.885 1.759zM-278.333 0v-12.729h-3.472V0zm8.436.249c3.365 0 5.486-1.981 5.652-4.873h-3.273a2.284 2.284 0 0 1-2.345 2.113c-1.674 0-2.76-1.4-2.76-3.854 0-2.428 1.094-3.82 2.76-3.82a2.3 2.3 0 0 1 2.345 2.13h3.273c-.157-2.925-2.378-4.84-5.668-4.84-3.845 0-6.24 2.677-6.24 6.58 0 3.87 2.345 6.564 6.253 6.564zm19.4-6.688c0-4.343-2.635-6.456-5.975-6.456-3.729 0-6.157 2.66-6.157 6.588 0 4.036 2.4 6.555 6.3 6.555 3.141 0 5.246-1.525 5.743-3.87h-3.3a2.468 2.468 0 0 1-2.387 1.268A2.813 2.813 0 0 1-259.2-5.47h8.7zm-8.7-1.2A2.753 2.753 0 0 1-256.4-10.3a2.558 2.558 0 0 1 2.635 2.66zm22.151 7.888c3.845 0 6.24-2.644 6.24-6.564 0-3.945-2.4-6.58-6.24-6.58s-6.257 2.635-6.257 6.58C-243.3-2.4-240.9.249-237.046.249zm.017-2.693c-1.815 0-2.743-1.657-2.743-3.9s.928-3.9 2.743-3.9c1.773 0 2.7 1.674 2.7 3.9s-.927 3.899-2.7 3.899zm11.884-4.923a2.373 2.373 0 0 1 2.445-2.644 2.2 2.2 0 0 1 2.279 2.511V0h3.472v-8.1c0-2.975-1.732-4.79-4.384-4.79a3.843 3.843 0 0 0-3.829 2.4h-.149v-2.238h-3.307V0h3.472zM-203.01.249c3.365 0 5.486-1.981 5.652-4.873h-3.273a2.284 2.284 0 0 1-2.345 2.113c-1.674 0-2.76-1.4-2.76-3.854 0-2.428 1.094-3.82 2.76-3.82a2.3 2.3 0 0 1 2.345 2.13h3.273c-.157-2.925-2.378-4.84-5.669-4.84-3.845 0-6.24 2.677-6.24 6.58 0 3.87 2.346 6.564 6.257 6.564zm13.525 0c3.845 0 6.24-2.644 6.24-6.564 0-3.945-2.4-6.58-6.24-6.58s-6.257 2.635-6.257 6.58c0 3.915 2.404 6.564 6.257 6.564zm.017-2.693c-1.815 0-2.743-1.657-2.743-3.9s.928-3.9 2.743-3.9c1.773 0 2.7 1.674 2.7 3.9s-.927 3.899-2.7 3.899zM-177.584 0v-7.649a2.163 2.163 0 0 1 2.1-2.378 1.9 1.9 0 0 1 1.972 2.055V0h3.356v-7.79a2.014 2.014 0 0 1 2.072-2.238 1.908 1.908 0 0 1 2 2.138V0h3.472v-8.561c0-2.768-1.657-4.334-4.019-4.334a3.85 3.85 0 0 0-3.829 2.4h-.133a3.372 3.372 0 0 0-3.456-2.4 3.576 3.576 0 0 0-3.547 2.4h-.149v-2.238h-3.307V0zm21.1 4.773v-6.8h.108a3.777 3.777 0 0 0 3.62 2.234c2.909 0 5.171-2.3 5.171-6.555 0-4.359-2.354-6.547-5.171-6.547a3.753 3.753 0 0 0-3.622 2.3h-.157v-2.138h-3.423v17.5zm-.075-11.138c0-2.3.97-3.754 2.718-3.754 1.773 0 2.71 1.525 2.71 3.754 0 2.246-.953 3.8-2.71 3.8-1.732.004-2.718-1.512-2.718-3.8zm11.2-10.608V0h3.472v-16.972zm7.914 2.577a1.833 1.833 0 0 0 1.89-1.765 1.839 1.839 0 0 0-1.89-1.765 1.839 1.839 0 0 0-1.889 1.765 1.833 1.833 0 0 0 1.885 1.761zM-135.717 0v-12.729h-3.472V0zm8.055-12.9c-3.381 0-5.3 1.74-5.5 3.953h3.29a1.925 1.925 0 0 1 2.13-1.409c1.285 0 2.014.613 2.022 1.691v1.028c-.53.017-2.254.091-3.157.149-2.445.157-4.732 1.077-4.732 3.928 0 2.511 1.807 3.8 4.235 3.8a3.906 3.906 0 0 0 3.721-2.006h.1V0h3.29v-8.577c-.004-3.067-2.622-4.323-5.399-4.323zm-.729 10.724c-1.11 0-1.9-.506-1.9-1.492s.762-1.55 1.972-1.649c.6-.058 2.1-.141 2.611-.166v.928a2.463 2.463 0 0 1-2.683 2.384zm12.232-5.2a2.373 2.373 0 0 1 2.445-2.644 2.2 2.2 0 0 1 2.279 2.52V0h3.472v-8.1c0-2.975-1.732-4.79-4.384-4.79a3.843 3.843 0 0 0-3.829 2.4h-.149v-2.238h-3.307V0h3.472zm16.6 7.616c3.365 0 5.486-1.981 5.652-4.873h-3.273a2.284 2.284 0 0 1-2.345 2.113c-1.674 0-2.76-1.4-2.76-3.854 0-2.428 1.094-3.82 2.76-3.82a2.3 2.3 0 0 1 2.345 2.13h3.273c-.157-2.925-2.378-4.84-5.669-4.84-3.845 0-6.24 2.677-6.24 6.58 0 3.879 2.345 6.573 6.257 6.573zm19.4-6.688c0-4.343-2.635-6.456-5.975-6.456-3.729 0-6.157 2.66-6.157 6.588 0 4.036 2.4 6.555 6.3 6.555 3.141 0 5.246-1.525 5.743-3.87h-3.3a2.468 2.468 0 0 1-2.387 1.268A2.813 2.813 0 0 1-88.86-5.47h8.7zm-8.7-1.2a2.753 2.753 0 0 1 2.793-2.66 2.558 2.558 0 0 1 2.635 2.66zM-66.253 0l2.2-8.08h.166L-61.67 0h3.655l3.481-12.729h-3.514l-1.964 8.544h-.116l-2.1-8.544h-3.448l-2.088 8.6h-.116l-2-8.6h-3.52L-69.916 0zm15.207-14.4a1.833 1.833 0 0 0 1.889-1.765 1.839 1.839 0 0 0-1.889-1.765 1.839 1.839 0 0 0-1.89 1.765 1.833 1.833 0 0 0 1.89 1.765zM-49.314 0v-12.729h-3.472V0zm8.229-2.627c-.713-.025-1.21-.265-1.21-1.276v-6.215h2.4v-2.61h-2.4v-3.05h-3.472v3.05h-1.749v2.61h1.749v6.688c-.017 2.478 1.691 3.6 4.21 3.6a11.971 11.971 0 0 0 1.832-.12v-2.735c-.415.025-1.019.066-1.359.058zm7.094-4.74a2.4 2.4 0 0 1 2.491-2.644A2.2 2.2 0 0 1-29.2-7.5V0h3.472v-8.1c0-2.992-1.749-4.79-4.4-4.79a3.759 3.759 0 0 0-3.8 2.4h-.149v-6.481h-3.373V0h3.472zm26.984-1.575C-7.189-11.37-9.178-12.9-12.4-12.9c-3.273 0-5.37 1.525-5.362 3.97-.008 1.881 1.235 3.133 3.671 3.613l2.1.414c1.193.249 1.724.655 1.732 1.318-.008.82-.845 1.318-2.1 1.318-1.285 0-2.088-.514-2.262-1.508H-18.1c.282 2.486 2.3 4.019 5.743 4.019 3.381 0 5.627-1.674 5.635-4.177-.008-1.84-1.2-2.942-3.663-3.448l-2.3-.464c-1.193-.257-1.641-.7-1.633-1.285-.008-.762.845-1.293 1.972-1.293a1.887 1.887 0 0 1 2.088 1.475zM3.568-5.42a2.439 2.439 0 0 1-2.462 2.644 2.193 2.193 0 0 1-2.229-2.453v-7.5H-4.6v8.1C-4.587-1.641-2.847.166-.286.166A3.908 3.908 0 0 0 3.568-2.3H3.7V0h3.332v-12.729H3.568zM13.231 0v-2.03h.149A3.785 3.785 0 0 0 17 .207c2.917 0 5.18-2.3 5.18-6.555 0-4.359-2.362-6.547-5.171-6.547a3.766 3.766 0 0 0-3.63 2.3h-.1v-6.381H9.816V0zm-.025-6.365c0-2.3.978-3.754 2.71-3.754 1.782 0 2.718 1.525 2.718 3.754 0 2.246-.953 3.8-2.718 3.8-1.716.004-2.71-1.512-2.71-3.8zm21.721-2.577c-.182-2.428-2.171-3.953-5.4-3.953-3.273 0-5.37 1.525-5.362 3.97-.008 1.881 1.235 3.133 3.671 3.613l2.1.414c1.193.249 1.724.655 1.732 1.318-.008.82-.845 1.318-2.1 1.318-1.285 0-2.088-.514-2.262-1.508H23.83c.282 2.486 2.3 4.019 5.743 4.019 3.381 0 5.627-1.674 5.635-4.177-.008-1.84-1.2-2.942-3.663-3.448l-2.3-.464c-1.193-.257-1.641-.7-1.633-1.285-.008-.762.845-1.293 1.972-1.293a1.887 1.887 0 0 1 2.088 1.475zm7.939 6.315c-.713-.025-1.21-.265-1.21-1.276v-6.215h2.4v-2.61h-2.4v-3.05h-3.472v3.05h-1.749v2.61h1.749v6.688c-.017 2.478 1.691 3.6 4.21 3.6a11.971 11.971 0 0 0 1.831-.12v-2.735c-.414.025-1.019.066-1.359.058zm8.71-10.273c-3.381 0-5.3 1.74-5.5 3.953h3.29a1.925 1.925 0 0 1 2.13-1.409c1.285 0 2.014.613 2.022 1.691v1.028c-.53.017-2.254.091-3.157.149-2.445.157-4.732 1.077-4.732 3.928 0 2.511 1.807 3.8 4.235 3.8a3.906 3.906 0 0 0 3.721-2.006h.1V0h3.29v-8.577c-.004-3.067-2.623-4.323-5.399-4.323zm-.729 10.729c-1.11 0-1.9-.506-1.9-1.492s.762-1.55 1.972-1.649c.6-.058 2.1-.141 2.61-.166v.928a2.463 2.463 0 0 1-2.682 2.379zm12.232-5.2a2.373 2.373 0 0 1 2.445-2.644A2.2 2.2 0 0 1 67.8-7.5V0h3.472v-8.1c0-2.975-1.732-4.79-4.384-4.79a3.843 3.843 0 0 0-3.829 2.4h-.149v-2.238h-3.304V0h3.472zM79.678.249c3.365 0 5.486-1.981 5.652-4.873h-3.273a2.284 2.284 0 0 1-2.345 2.113c-1.674 0-2.76-1.4-2.76-3.854 0-2.428 1.094-3.82 2.76-3.82a2.3 2.3 0 0 1 2.345 2.13h3.273c-.157-2.925-2.378-4.84-5.669-4.84-3.845 0-6.24 2.677-6.24 6.58 0 3.87 2.346 6.564 6.257 6.564zm19.4-6.688c0-4.343-2.635-6.456-5.975-6.456-3.729 0-6.157 2.66-6.157 6.588 0 4.036 2.4 6.555 6.3 6.555 3.141 0 5.246-1.525 5.743-3.87h-3.3A2.468 2.468 0 0 1 93.3-2.354a2.813 2.813 0 0 1-2.923-3.116h8.7zm-8.7-1.2A2.753 2.753 0 0 1 93.17-10.3a2.558 2.558 0 0 1 2.635 2.66zm19.89.273a2.4 2.4 0 0 1 2.486-2.644 2.2 2.2 0 0 1 2.3 2.511V0h3.472v-8.1c0-2.992-1.749-4.79-4.4-4.79a3.759 3.759 0 0 0-3.8 2.4h-.149v-6.481h-3.373V0h3.472zm16.275-5.534c-3.381 0-5.3 1.74-5.5 3.953h3.29a1.925 1.925 0 0 1 2.13-1.409c1.285 0 2.014.613 2.022 1.691v1.028c-.53.017-2.254.091-3.157.149-2.445.157-4.732 1.077-4.732 3.928 0 2.511 1.807 3.8 4.235 3.8a3.906 3.906 0 0 0 3.721-2.006h.1V0h3.29v-8.577c-.004-3.067-2.623-4.323-5.399-4.323zm-.729 10.724c-1.11 0-1.9-.506-1.9-1.492s.762-1.55 1.972-1.649c.6-.058 2.1-.141 2.61-.166v.928a2.463 2.463 0 0 1-2.682 2.384zm12.232-5.2a2.373 2.373 0 0 1 2.445-2.644 2.2 2.2 0 0 1 2.278 2.52V0h3.472v-8.1c0-2.975-1.732-4.79-4.384-4.79a3.843 3.843 0 0 0-3.829 2.4h-.149v-2.238h-3.307V0h3.472zM153.609.207a3.785 3.785 0 0 0 3.622-2.238h.149V0h3.414v-16.972h-3.464v6.381h-.1a3.757 3.757 0 0 0-3.63-2.3c-2.809 0-5.171 2.188-5.171 6.547.001 4.244 2.263 6.551 5.18 6.551zm1.086-2.768c-1.765 0-2.718-1.558-2.718-3.8 0-2.229.936-3.754 2.718-3.754 1.732 0 2.71 1.459 2.71 3.754s-.995 3.8-2.71 3.8zm8.884-14.412V0h3.472v-16.972zm7.914 2.577a1.833 1.833 0 0 0 1.89-1.765 1.839 1.839 0 0 0-1.89-1.765 1.839 1.839 0 0 0-1.893 1.766 1.833 1.833 0 0 0 1.893 1.76zM173.225 0v-12.729h-3.472V0zm6.175-7.367a2.373 2.373 0 0 1 2.445-2.644 2.2 2.2 0 0 1 2.278 2.511V0h3.477v-8.1c0-2.975-1.732-4.79-4.384-4.79a3.843 3.843 0 0 0-3.829 2.4h-.149v-2.238h-3.307V0h3.469zm16.582 12.406c3.622 0 6.182-1.649 6.182-4.906v-12.862h-3.431v2.138h-.141a3.77 3.77 0 0 0-3.638-2.3c-2.809 0-5.171 2.146-5.171 6.456 0 4.235 2.3 6.257 5.18 6.257a3.718 3.718 0 0 0 3.638-2.08h.149V.083c0 1.765-1.077 2.445-2.693 2.445-1.376 0-2.337-.456-2.528-1.483h-3.423c.208 2.419 2.371 3.994 5.876 3.994zm.066-7.831c-1.765 0-2.718-1.4-2.718-3.613 0-2.188.936-3.713 2.718-3.713 1.732 0 2.71 1.459 2.71 3.713s-.994 3.612-2.71 3.612zm24.887-6.149c-.182-2.428-2.171-3.953-5.4-3.953-3.273 0-5.37 1.525-5.362 3.97-.008 1.881 1.235 3.133 3.671 3.613l2.1.414c1.193.249 1.724.655 1.732 1.318-.008.82-.845 1.318-2.1 1.318-1.285 0-2.088-.514-2.262-1.508h-3.481c.282 2.486 2.3 4.019 5.743 4.019 3.381 0 5.627-1.674 5.635-4.177-.008-1.84-1.2-2.942-3.663-3.448l-2.3-.464c-1.193-.257-1.641-.7-1.633-1.285-.008-.762.845-1.293 1.972-1.293a1.887 1.887 0 0 1 2.088 1.475zm7.939 6.315c-.713-.025-1.21-.265-1.21-1.276v-6.215h2.4v-2.61h-2.4v-3.05h-3.472v3.05h-1.749v2.61h1.749v6.688c-.017 2.478 1.691 3.6 4.21 3.6a11.971 11.971 0 0 0 1.831-.121v-2.735c-.414.025-1.019.066-1.359.058zm8.71-10.268c-3.381 0-5.3 1.74-5.5 3.953h3.29a1.925 1.925 0 0 1 2.13-1.409c1.285 0 2.014.613 2.022 1.691v1.028c-.53.017-2.254.091-3.157.149-2.445.157-4.732 1.077-4.732 3.928 0 2.511 1.807 3.8 4.235 3.8a3.906 3.906 0 0 0 3.721-2.006h.1V0h3.29v-8.577c-.004-3.067-2.622-4.323-5.399-4.323zm-.729 10.724c-1.11 0-1.9-.506-1.9-1.492s.762-1.55 1.972-1.649c.6-.058 2.1-.141 2.611-.166v.928a2.463 2.463 0 0 1-2.683 2.378zm12.232-5.2a2.373 2.373 0 0 1 2.445-2.644 2.2 2.2 0 0 1 2.279 2.514V0h3.472v-8.1c0-2.975-1.732-4.79-4.384-4.79a3.843 3.843 0 0 0-3.829 2.4h-.149v-2.238h-3.307V0h3.472zM264.651.207a3.785 3.785 0 0 0 3.622-2.238h.149V0h3.414v-16.972h-3.464v6.381h-.1a3.757 3.757 0 0 0-3.63-2.3c-2.809 0-5.171 2.188-5.171 6.547 0 4.244 2.262 6.551 5.18 6.551zm1.086-2.768c-1.765 0-2.718-1.558-2.718-3.8 0-2.229.936-3.754 2.718-3.754 1.732 0 2.71 1.459 2.71 3.754s-.995 3.8-2.711 3.8zM279.974-12.9c-3.381 0-5.3 1.74-5.5 3.953h3.29a1.925 1.925 0 0 1 2.13-1.409c1.285 0 2.014.613 2.022 1.691v1.028c-.53.017-2.254.091-3.157.149-2.445.157-4.732 1.077-4.732 3.928 0 2.511 1.807 3.8 4.235 3.8a3.906 3.906 0 0 0 3.721-2.006h.1V0h3.29v-8.577c-.004-3.067-2.623-4.323-5.399-4.323zm-.729 10.724c-1.111 0-1.9-.506-1.9-1.492s.762-1.55 1.972-1.649c.6-.058 2.1-.141 2.611-.166v.928a2.463 2.463 0 0 1-2.684 2.384zM291.477 0v-7.235a2.592 2.592 0 0 1 2.718-2.66 6.213 6.213 0 0 1 1.483.191v-3.1a6.641 6.641 0 0 0-1.111-.108 3.1 3.1 0 0 0-3.066 2.4h-.133v-2.213H288V0zm10.193.207a3.785 3.785 0 0 0 3.622-2.238h.149V0h3.414v-16.972h-3.464v6.381h-.1a3.757 3.757 0 0 0-3.63-2.3c-2.809 0-5.171 2.188-5.171 6.547 0 4.244 2.263 6.551 5.18 6.551zm1.086-2.768c-1.765 0-2.718-1.558-2.718-3.8 0-2.229.936-3.754 2.718-3.754 1.732 0 2.71 1.459 2.71 3.754s-.995 3.8-2.711 3.8zm19.409-6.381c-.182-2.428-2.171-3.953-5.4-3.953-3.273 0-5.37 1.525-5.362 3.97-.008 1.881 1.235 3.133 3.671 3.613l2.1.414c1.193.249 1.724.655 1.732 1.318-.008.82-.845 1.318-2.1 1.318-1.285 0-2.088-.514-2.262-1.508h-3.481c.282 2.486 2.3 4.019 5.743 4.019 3.381 0 5.627-1.674 5.635-4.177-.008-1.84-1.2-2.942-3.663-3.448l-2.3-.464c-1.193-.257-1.641-.7-1.633-1.285-.008-.762.845-1.293 1.972-1.293a1.887 1.887 0 0 1 2.088 1.475z" transform="translate(347.791 883)"/>
                    </g>
                </g>
            </g>
        </g>
    </g>
    <path id="다각형_128" data-name="다각형 128" class="cls-7" d="M7.5 0 15 11H0z" transform="rotate(180 163.5 5.5)"/>
    <path id="다각형_129" data-name="다각형 129" class="cls-7" d="M7.5 0 15 11H0z" transform="rotate(180 399 5.5)"/>
    <path id="다각형_130" data-name="다각형 130" class="cls-7" d="M7.5 0 15 11H0z" transform="rotate(180 516.5 5.5)"/>
</svg>
