<svg id="ENG_fc_box_smaller_color_05" xmlns="http://www.w3.org/2000/svg" width="166" height="135" viewBox="0 0 166 135">
    <defs>
        <clipPath id="clip-path">
            <path id="사각형_664" data-name="사각형 664" style="stroke:#527773;stroke-width:2px;fill:none" d="M0 0h20v20H0z"/>
        </clipPath>
        <style>
            .cls-6{fill:none;stroke:#527773;stroke-width:2px}.cls-3{fill:#527773}.cls-6{stroke-miterlimit:10}
        </style>
    </defs>
    <g id="fc_box_small_link_color" transform="translate(0 5)">
        <g id="box" style="fill:#f5faf8;stroke-width:2px;stroke:#6c918e;">
            <path style="stroke:none" d="M0 0h166v130H0z"/>
            <path style="fill:none" d="M1 1h164v128H1z"/>
        </g>
        <path id="line" class="cls-3" transform="translate(39 79)" d="M0 0h87v1H0z"/>
        <g id="text" transform="translate(-101)">
            <g id="ic_info" transform="translate(203.413 53)">
                <g id="그룹_883" data-name="그룹 883" transform="translate(2 2)">
                    <g id="그룹_882" data-name="그룹 882" style="clip-path:url(#clip-path)">
                        <circle id="타원_113" data-name="타원 113" class="cls-6" cx="9" cy="9" r="9" transform="translate(1 1)"/>
                        <path id="선_136" data-name="선 136" class="cls-6" transform="translate(10 9)" d="M0 0v6"/>
                        <path id="선_137" data-name="선 137" class="cls-6" transform="translate(10 5)" d="M0 0v2"/>
                    </g>
                </g>
            </g>
            <path id="패스_10972" data-name="패스 10972" class="cls-3" d="M10.069-14.144v8.978h-.124l-6.167-8.978H1.195V0H4.13v-8.985h.1L10.449 0h2.541v-14.144zM20.09.207c3.2 0 5.2-2.2 5.2-5.47 0-3.287-2-5.483-5.2-5.483s-5.214 2.2-5.214 5.483c0 3.263 2.002 5.47 5.214 5.47zm.01-2.244c-1.512 0-2.286-1.381-2.286-3.246s.773-3.253 2.286-3.253c1.478 0 2.251 1.4 2.251 3.253s-.77 3.246-2.251 3.246zm11.62-.152c-.594-.021-1.008-.221-1.008-1.064v-5.18h2v-2.175h-2v-2.541h-2.894v2.541H26.36v2.175h1.457v5.573c-.014 2.065 1.409 3 3.508 3a9.976 9.976 0 0 0 1.526-.1v-2.278c-.344.021-.851.056-1.131.049zM35.967-12a1.528 1.528 0 0 0 1.575-1.471 1.532 1.532 0 0 0-1.575-1.471 1.532 1.532 0 0 0-1.575 1.471A1.528 1.528 0 0 0 35.967-12zM37.41 0v-10.608h-2.893V0zm7.03.207c2.8 0 4.572-1.651 4.71-4.061h-2.727a1.9 1.9 0 0 1-1.954 1.761c-1.4 0-2.3-1.167-2.3-3.211 0-2.023.912-3.184 2.3-3.184a1.918 1.918 0 0 1 1.954 1.775h2.728c-.131-2.438-1.982-4.033-4.724-4.033-3.2 0-5.2 2.231-5.2 5.483 0 3.226 1.954 5.47 5.214 5.47zm16.168-5.573c0-3.619-2.2-5.38-4.979-5.38-3.108 0-5.131 2.217-5.131 5.49 0 3.363 2 5.463 5.249 5.463 2.617 0 4.372-1.271 4.786-3.225h-2.75a2.056 2.056 0 0 1-1.989 1.057 2.344 2.344 0 0 1-2.438-2.6h7.251zm-7.251-1a2.294 2.294 0 0 1 2.327-2.217 2.131 2.131 0 0 1 2.2 2.217z" transform="translate(138.805 72)"/>
        </g>
    </g>
    <path id="다각형_142" data-name="다각형 142" d="M7.5 0 15 11H0z" transform="rotate(180 45.5 5.5)" style="fill:#999"/>
</svg>
