<svg id="ENG_fc_box_smaller_color_09" xmlns="http://www.w3.org/2000/svg" width="166" height="195" viewBox="0 0 166 195">
    <defs>
        <clipPath id="clip-path">
            <path id="사각형_664" data-name="사각형 664" style="stroke:#527773;stroke-width:2px;fill:none" d="M0 0h20v20H0z"/>
        </clipPath>
        <style>
            .cls-5{fill:none;stroke:#527773;stroke-width:2px;stroke-miterlimit:10}.cls-6{fill:#326f5e}
        </style>
    </defs>
    <g id="fc_box_smaller_long_color" transform="translate(0 5)">
        <g id="box" style="fill:#f5faf8;stroke-width:2px;stroke:#6c918e;">
            <path style="stroke:none" d="M0 0h166v190H0z"/>
            <path style="fill:none" d="M1 1h164v188H1z"/>
        </g>
        <g id="그룹_1841" data-name="그룹 1841" transform="translate(-80 -1209)">
            <g id="그룹_1846" data-name="그룹 1846" transform="translate(53)">
                <g id="ico_flowchart_info" transform="translate(152.693 1336)">
                    <g id="그룹_883" data-name="그룹 883" transform="translate(2 2)">
                        <g id="그룹_882" data-name="그룹 882" style="clip-path:url(#clip-path)">
                            <circle id="타원_113" data-name="타원 113" class="cls-5" cx="9" cy="9" r="9" transform="translate(1 1)"/>
                            <path id="선_136" data-name="선 136" class="cls-5" transform="translate(10 9)" d="M0 0v6"/>
                            <path id="선_137" data-name="선 137" class="cls-5" transform="translate(10 5)" d="M0 0v2"/>
                        </g>
                    </g>
                </g>
                <path id="패스_11099" data-name="패스 11099" class="cls-6" d="M-43.94-5.366c0-3.619-2.2-5.38-4.979-5.38-3.108 0-5.131 2.217-5.131 5.49 0 3.363 2 5.463 5.249 5.463 2.617 0 4.372-1.271 4.786-3.225h-2.749a2.056 2.056 0 0 1-1.989 1.057 2.344 2.344 0 0 1-2.438-2.6h7.251zm-7.251-1a2.294 2.294 0 0 1 2.327-2.217 2.131 2.131 0 0 1 2.2 2.217zm8.308-4.24 3.052 5.3L-42.994 0h3l2.072-3.688L-35.811 0h2.963l-3.17-5.3 3.094-5.3h-2.983l-2.017 3.729-1.961-3.729zm14.489 14.584v-5.67h.09A3.147 3.147 0 0 0-25.287.173c2.424 0 4.309-1.92 4.309-5.463 0-3.633-1.961-5.456-4.309-5.456a3.128 3.128 0 0 0-3.013 1.92h-.131v-1.782h-2.852V3.978zm-.062-9.278c0-1.913.808-3.128 2.265-3.128 1.478 0 2.258 1.271 2.258 3.128s-.794 3.17-2.258 3.17c-1.444-.004-2.265-1.27-2.265-3.17zM-14.347.207c3.2 0 5.2-2.2 5.2-5.47 0-3.287-2-5.483-5.2-5.483s-5.214 2.2-5.214 5.483c0 3.263 2.002 5.47 5.214 5.47zm.014-2.244c-1.512 0-2.286-1.381-2.286-3.246s.773-3.253 2.286-3.253c1.478 0 2.251 1.4 2.251 3.253s-.774 3.246-2.252 3.246zM-4.43 0v-6.029a2.16 2.16 0 0 1 2.265-2.217 5.177 5.177 0 0 1 1.236.159v-2.583a5.534 5.534 0 0 0-.925-.09 2.585 2.585 0 0 0-2.555 2h-.11v-1.844h-2.8V0zM5.618-2.189C5.024-2.21 4.61-2.41 4.61-3.253v-5.18h2v-2.175h-2v-2.541H1.716v2.541H.259v2.175h1.457v5.573c-.014 2.065 1.409 3 3.508 3A9.976 9.976 0 0 0 6.75.04v-2.278c-.345.021-.85.056-1.132.049zm7.258-8.557c-2.818 0-4.42 1.45-4.586 3.294h2.742a1.6 1.6 0 0 1 1.775-1.174c1.07 0 1.678.511 1.685 1.409v.856c-.442.014-1.878.076-2.631.124-2.037.131-3.943.9-3.943 3.273C7.918-.87 9.423.2 11.447.2a3.255 3.255 0 0 0 3.1-1.671h.083V0h2.742v-7.148c0-2.552-2.182-3.598-4.496-3.598zm-.608 8.936c-.925 0-1.581-.421-1.581-1.243s.635-1.291 1.644-1.374a70.68 70.68 0 0 1 2.175-.138v.773a2.052 2.052 0 0 1-2.237 1.983zm11.906-.38c-.594-.021-1.008-.221-1.008-1.064v-5.18h2v-2.175h-2v-2.541h-2.893v2.541h-1.457v2.175h1.457v5.573c-.014 2.065 1.409 3 3.508 3a9.976 9.976 0 0 0 1.526-.1v-2.277c-.345.021-.849.056-1.132.049zM28.422-12A1.528 1.528 0 0 0 30-13.467a1.532 1.532 0 0 0-1.575-1.471 1.532 1.532 0 0 0-1.575 1.471A1.528 1.528 0 0 0 28.422-12zm1.443 12v-10.608h-2.893V0zM36.9.207c3.2 0 5.2-2.2 5.2-5.47 0-3.287-2-5.483-5.2-5.483s-5.214 2.2-5.214 5.483C31.682-2 33.684.207 36.9.207zm.014-2.244c-1.512 0-2.286-1.381-2.286-3.246s.772-3.253 2.282-3.253c1.478 0 2.251 1.4 2.251 3.253s-.774 3.246-2.251 3.246zm9.9-4.1a1.977 1.977 0 0 1 2.037-2.2 1.836 1.836 0 0 1 1.9 2.093V0h2.894v-6.754c0-2.479-1.443-3.992-3.653-3.992a3.2 3.2 0 0 0-3.191 2h-.124v-1.865h-2.758V0h2.894z" transform="translate(95.05 1355)"/>
            </g>
            <path id="line" class="cls-6" transform="translate(94 1362)" d="M0 0h138v1H0z"/>
        </g>
        <g id="그룹_1840" data-name="그룹 1840" transform="translate(-80 -1269)">
            <path id="패스_11096" data-name="패스 11096" class="cls-6" d="M-66.785-14.144V0h2.935v-4.606h2.541c3.253 0 5.124-1.948 5.124-4.758s-1.844-4.779-5.062-4.779zm2.935 7.169v-4.758h2.058c1.747 0 2.59.946 2.59 2.369a2.269 2.269 0 0 1-2.583 2.39zm18.964 1.609c0-3.619-2.2-5.38-4.979-5.38-3.108 0-5.131 2.217-5.131 5.49 0 3.363 2 5.463 5.249 5.463 2.617 0 4.372-1.271 4.786-3.225h-2.749a2.056 2.056 0 0 1-1.99 1.057 2.344 2.344 0 0 1-2.438-2.6h7.251zm-7.251-1a2.294 2.294 0 0 1 2.327-2.218 2.131 2.131 0 0 1 2.2 2.217zM-40.176 0v-6.029a2.16 2.16 0 0 1 2.265-2.217 5.177 5.177 0 0 1 1.236.159v-2.583a5.534 5.534 0 0 0-.925-.09 2.585 2.585 0 0 0-2.555 2h-.111v-1.844h-2.8V0zm7.8 0v-6.374a1.8 1.8 0 0 1 1.747-1.982 1.581 1.581 0 0 1 1.644 1.713V0h2.8v-6.492a1.678 1.678 0 0 1 1.727-1.865 1.59 1.59 0 0 1 1.664 1.782V0h2.894v-7.134c0-2.307-1.381-3.612-3.349-3.612a3.208 3.208 0 0 0-3.191 2h-.11a2.81 2.81 0 0 0-2.88-2 2.98 2.98 0 0 0-2.956 2h-.124v-1.865h-2.756V0zm16.14-12a1.528 1.528 0 0 0 1.575-1.471 1.532 1.532 0 0 0-1.575-1.471 1.532 1.532 0 0 0-1.575 1.471A1.528 1.528 0 0 0-16.233-12zm1.443 12v-10.608h-2.894V0zm11.026-7.452c-.152-2.023-1.809-3.294-4.5-3.294-2.728 0-4.475 1.271-4.468 3.308-.007 1.568 1.029 2.61 3.059 3.011l1.754.345c.994.207 1.436.546 1.443 1.1-.007.684-.7 1.1-1.754 1.1-1.07 0-1.74-.428-1.885-1.257h-2.9C-12.78-1.07-11.1.207-8.229.207c2.818 0 4.689-1.4 4.7-3.481-.007-1.533-1-2.452-3.052-2.873L-8.5-6.533c-.994-.214-1.367-.587-1.36-1.07-.007-.635.7-1.077 1.644-1.077a1.573 1.573 0 0 1 1.74 1.229zm10.78 0c-.152-2.023-1.809-3.294-4.5-3.294-2.728 0-4.475 1.271-4.468 3.308-.003 1.568 1.033 2.611 3.063 3.011l1.754.345c.994.207 1.436.546 1.443 1.1-.007.684-.7 1.1-1.754 1.1-1.07 0-1.74-.428-1.885-1.257h-2.9C-2-1.07-.321.207 2.552.207c2.818 0 4.689-1.4 4.7-3.481-.007-1.533-1-2.452-3.052-2.873l-1.918-.386C1.288-6.747.915-7.12.922-7.6c-.007-.635.7-1.077 1.644-1.077a1.573 1.573 0 0 1 1.74 1.229zM10.473-12a1.528 1.528 0 0 0 1.575-1.471 1.532 1.532 0 0 0-1.575-1.471A1.532 1.532 0 0 0 8.9-13.467 1.528 1.528 0 0 0 10.473-12zm1.443 12v-10.608H9.023V0zm7.03.207c3.2 0 5.2-2.2 5.2-5.47 0-3.287-2-5.483-5.2-5.483s-5.214 2.2-5.214 5.483C13.733-2 15.735.207 18.947.207zm.014-2.244c-1.512 0-2.286-1.381-2.286-3.246s.773-3.253 2.286-3.253c1.478 0 2.251 1.4 2.251 3.253s-.772 3.246-2.25 3.246zm9.9-4.1a1.977 1.977 0 0 1 2.037-2.2A1.836 1.836 0 0 1 32.8-6.25V0h2.894v-6.754c0-2.479-1.443-3.992-3.653-3.992a3.2 3.2 0 0 0-3.191 2h-.124v-1.865H25.97V0h2.894zm18.64-6.356a6.934 6.934 0 0 1 .891.062v-2.2a8.086 8.086 0 0 0-1.733-.173 3.131 3.131 0 0 0-3.467 3.4v.794h-1.509v2.175h1.506V0h2.894v-8.432h2.113v-2.175h-2.114v-.649c0-.878.49-1.237 1.419-1.237zm6.778 12.7c3.2 0 5.2-2.2 5.2-5.47 0-3.287-2-5.483-5.2-5.483s-5.214 2.2-5.214 5.483c0 3.263 2.003 5.47 5.214 5.47zm.014-2.244c-1.512 0-2.286-1.381-2.286-3.246s.773-3.253 2.286-3.253c1.478 0 2.251 1.4 2.251 3.253s-.773 3.246-2.251 3.246zM64.2 0v-6.029a2.16 2.16 0 0 1 2.265-2.217 5.177 5.177 0 0 1 1.236.159v-2.583a5.534 5.534 0 0 0-.925-.09 2.585 2.585 0 0 0-2.555 2h-.11v-1.844H61.3V0z" transform="translate(163 1325)"/>
            <path id="line-2" data-name="line" class="cls-6" transform="translate(95 1332)" d="M0 0h136v1H0z"/>
        </g>
        <g id="그룹_11125" data-name="그룹 11125" transform="translate(-80 -1209)">
            <path id="패스_11098" data-name="패스 11098" class="cls-6" d="M-66.785-14.144V0h2.935v-4.606h2.541c3.253 0 5.124-1.948 5.124-4.758s-1.844-4.779-5.062-4.779zm2.935 7.169v-4.758h2.058c1.747 0 2.59.946 2.59 2.369a2.269 2.269 0 0 1-2.583 2.39zm18.964 1.609c0-3.619-2.2-5.38-4.979-5.38-3.108 0-5.131 2.217-5.131 5.49 0 3.363 2 5.463 5.249 5.463 2.617 0 4.372-1.271 4.786-3.225h-2.749a2.056 2.056 0 0 1-1.99 1.057 2.344 2.344 0 0 1-2.438-2.6h7.251zm-7.251-1a2.294 2.294 0 0 1 2.327-2.218 2.131 2.131 0 0 1 2.2 2.217zM-40.176 0v-6.029a2.16 2.16 0 0 1 2.265-2.217 5.177 5.177 0 0 1 1.236.159v-2.583a5.534 5.534 0 0 0-.925-.09 2.585 2.585 0 0 0-2.555 2h-.111v-1.844h-2.8V0zm7.8 0v-6.374a1.8 1.8 0 0 1 1.747-1.982 1.581 1.581 0 0 1 1.644 1.713V0h2.8v-6.492a1.678 1.678 0 0 1 1.727-1.865 1.59 1.59 0 0 1 1.664 1.782V0h2.894v-7.134c0-2.307-1.381-3.612-3.349-3.612a3.208 3.208 0 0 0-3.191 2h-.11a2.81 2.81 0 0 0-2.88-2 2.98 2.98 0 0 0-2.956 2h-.124v-1.865h-2.756V0zm16.14-12a1.528 1.528 0 0 0 1.575-1.471 1.532 1.532 0 0 0-1.575-1.471 1.532 1.532 0 0 0-1.575 1.471A1.528 1.528 0 0 0-16.233-12zm1.443 12v-10.608h-2.894V0zm11.026-7.452c-.152-2.023-1.809-3.294-4.5-3.294-2.728 0-4.475 1.271-4.468 3.308-.007 1.568 1.029 2.61 3.059 3.011l1.754.345c.994.207 1.436.546 1.443 1.1-.007.684-.7 1.1-1.754 1.1-1.07 0-1.74-.428-1.885-1.257h-2.9C-12.78-1.07-11.1.207-8.229.207c2.818 0 4.689-1.4 4.7-3.481-.007-1.533-1-2.452-3.052-2.873L-8.5-6.533c-.994-.214-1.367-.587-1.36-1.07-.007-.635.7-1.077 1.644-1.077a1.573 1.573 0 0 1 1.74 1.229zm10.78 0c-.152-2.023-1.809-3.294-4.5-3.294-2.728 0-4.475 1.271-4.468 3.308-.003 1.568 1.033 2.611 3.063 3.011l1.754.345c.994.207 1.436.546 1.443 1.1-.007.684-.7 1.1-1.754 1.1-1.07 0-1.74-.428-1.885-1.257h-2.9C-2-1.07-.321.207 2.552.207c2.818 0 4.689-1.4 4.7-3.481-.007-1.533-1-2.452-3.052-2.873l-1.918-.386C1.288-6.747.915-7.12.922-7.6c-.007-.635.7-1.077 1.644-1.077a1.573 1.573 0 0 1 1.74 1.229zM10.473-12a1.528 1.528 0 0 0 1.575-1.471 1.532 1.532 0 0 0-1.575-1.471A1.532 1.532 0 0 0 8.9-13.467 1.528 1.528 0 0 0 10.473-12zm1.443 12v-10.608H9.023V0zm7.03.207c3.2 0 5.2-2.2 5.2-5.47 0-3.287-2-5.483-5.2-5.483s-5.214 2.2-5.214 5.483C13.733-2 15.735.207 18.947.207zm.014-2.244c-1.512 0-2.286-1.381-2.286-3.246s.773-3.253 2.286-3.253c1.478 0 2.251 1.4 2.251 3.253s-.772 3.246-2.25 3.246zm9.9-4.1a1.977 1.977 0 0 1 2.037-2.2A1.836 1.836 0 0 1 32.8-6.25V0h2.894v-6.754c0-2.479-1.443-3.992-3.653-3.992a3.2 3.2 0 0 0-3.191 2h-.124v-1.865H25.97V0h2.894zm18.64-6.356a6.934 6.934 0 0 1 .891.062v-2.2a8.086 8.086 0 0 0-1.733-.173 3.131 3.131 0 0 0-3.467 3.4v.794h-1.509v2.175h1.506V0h2.894v-8.432h2.113v-2.175h-2.114v-.649c0-.878.49-1.237 1.419-1.237zm6.778 12.7c3.2 0 5.2-2.2 5.2-5.47 0-3.287-2-5.483-5.2-5.483s-5.214 2.2-5.214 5.483c0 3.263 2.003 5.47 5.214 5.47zm.014-2.244c-1.512 0-2.286-1.381-2.286-3.246s.773-3.253 2.286-3.253c1.478 0 2.251 1.4 2.251 3.253s-.773 3.246-2.251 3.246zM64.2 0v-6.029a2.16 2.16 0 0 1 2.265-2.217 5.177 5.177 0 0 1 1.236.159v-2.583a5.534 5.534 0 0 0-.925-.09 2.585 2.585 0 0 0-2.555 2h-.11v-1.844H61.3V0z" transform="translate(163 1325)"/>
            <path id="line-3" data-name="line" class="cls-6" transform="translate(95 1332)" d="M0 0h136v1H0z"/>
        </g>
        <g id="그룹_11124" data-name="그룹 11124" transform="translate(-80 -1239)">
            <path id="패스_11097" data-name="패스 11097" class="cls-6" d="M-55.238-12a1.528 1.528 0 0 0 1.575-1.471 1.532 1.532 0 0 0-1.575-1.471 1.532 1.532 0 0 0-1.575 1.471A1.528 1.528 0 0 0-55.238-12zm1.443 12v-10.608h-2.894V0zm5.145 0v-6.374a1.8 1.8 0 0 1 1.75-1.982 1.581 1.581 0 0 1 1.644 1.713V0h2.8v-6.492a1.678 1.678 0 0 1 1.727-1.865 1.59 1.59 0 0 1 1.664 1.782V0h2.894v-7.134c0-2.307-1.381-3.612-3.349-3.612a3.208 3.208 0 0 0-3.191 2h-.11a2.81 2.81 0 0 0-2.88-2 2.98 2.98 0 0 0-2.956 2h-.124v-1.865h-2.756V0zm17.583 3.978v-5.67h.09A3.147 3.147 0 0 0-27.959.173c2.424 0 4.309-1.92 4.309-5.463 0-3.633-1.961-5.456-4.309-5.456a3.128 3.128 0 0 0-3.018 1.92h-.131v-1.782h-2.852V3.978zm-.062-9.278c0-1.913.808-3.128 2.265-3.128 1.478 0 2.258 1.271 2.258 3.128s-.794 3.17-2.258 3.17c-1.443-.004-2.265-1.27-2.265-3.17zM-17.02.207c3.2 0 5.2-2.2 5.2-5.47 0-3.287-2-5.483-5.2-5.483s-5.214 2.2-5.214 5.483c0 3.263 2.003 5.47 5.214 5.47zm.014-2.244c-1.512 0-2.286-1.381-2.286-3.246s.773-3.253 2.286-3.253c1.478 0 2.251 1.4 2.251 3.253s-.773 3.246-2.251 3.246zM-7.1 0v-6.029a2.16 2.16 0 0 1 2.262-2.217 5.177 5.177 0 0 1 1.238.159v-2.583a5.534 5.534 0 0 0-.925-.09 2.585 2.585 0 0 0-2.555 2h-.11v-1.844H-10V0zM2.945-2.189c-.593-.021-1.008-.221-1.008-1.064v-5.18h2v-2.175h-2v-2.541H-.956v2.541h-1.458v2.175h1.458v5.573C-.97-.794.452.145 2.552.145a9.976 9.976 0 0 0 1.526-.1v-2.283c-.345.021-.849.056-1.133.049zm7.255-8.557c-2.818 0-4.42 1.45-4.586 3.294H8.36a1.6 1.6 0 0 1 1.775-1.174c1.07 0 1.678.511 1.685 1.409v.856c-.442.014-1.878.076-2.631.124-2.037.131-3.943.9-3.943 3.273C5.245-.87 6.751.2 8.774.2a3.255 3.255 0 0 0 3.1-1.671h.083V0H14.7v-7.148c0-2.552-2.183-3.598-4.5-3.598zm-.6 8.937c-.925 0-1.581-.421-1.581-1.243s.631-1.292 1.639-1.375a70.68 70.68 0 0 1 2.175-.138v.773A2.052 2.052 0 0 1 9.6-1.809zm11.9-.38c-.594-.021-1.008-.221-1.008-1.064v-5.18h2v-2.175h-2v-2.541H17.6v2.541h-1.457v2.175H17.6v5.573c-.014 2.065 1.409 3 3.508 3a9.976 9.976 0 0 0 1.526-.1v-2.278c-.345.021-.849.056-1.134.049zM25.749-12a1.528 1.528 0 0 0 1.575-1.471 1.532 1.532 0 0 0-1.575-1.471 1.532 1.532 0 0 0-1.575 1.471A1.528 1.528 0 0 0 25.749-12zm1.444 12v-10.608H24.3V0zm7.03.207c3.2 0 5.2-2.2 5.2-5.47 0-3.287-2-5.483-5.2-5.483s-5.214 2.2-5.214 5.483c0 3.263 2.003 5.47 5.214 5.47zm.014-2.244c-1.512 0-2.286-1.381-2.286-3.246s.773-3.253 2.286-3.253c1.478 0 2.251 1.4 2.251 3.253s-.773 3.246-2.251 3.246zm9.9-4.1a1.977 1.977 0 0 1 2.037-2.2 1.836 1.836 0 0 1 1.9 2.093V0h2.896v-6.754c0-2.479-1.443-3.992-3.653-3.992a3.2 3.2 0 0 0-3.191 2H44v-1.865h-2.753V0h2.893zm9.416 4.687-.967 5.559h2.065l1.685-5.559z" transform="translate(163 1325)"/>
            <path id="line-4" data-name="line" class="cls-6" transform="translate(105 1332)" d="M0 0h116v1H0z"/>
        </g>
    </g>
    <path id="다각형_124" data-name="다각형 124" d="M7.5 0 15 11H0z" transform="rotate(180 45.5 5.5)" style="fill:#999"/>
</svg>
