<svg id="ENG_fc_box_smaller_color_02" xmlns="http://www.w3.org/2000/svg" width="348" height="163" viewBox="0 0 348 163">
    <defs>
        <clipPath id="clip-path">
            <path id="사각형_664" data-name="사각형 664" style="stroke:#527773;stroke-width:2px;fill:none" d="M0 0h20v20H0z"/>
        </clipPath>
        <style>
            .cls-6{fill:none;stroke:#527773;stroke-width:2px}.cls-3{fill:#326f5e}.cls-6{stroke-miterlimit:10}
        </style>
    </defs>
    <g id="fc_box_small_long_color" transform="translate(0 5)">
        <g id="box" style="fill:#d7eae1;stroke:#527773;stroke-width:2px">
            <path style="stroke:none" d="M0 0h348v158H0z"/>
            <path style="fill:none" d="M1 1h346v156H1z"/>
        </g>
        <path id="패스_10964" data-name="패스 10964" class="cls-3" d="m-39.89 0-4.89-14.144h-3.778L-53.446 0h3.146l1.064-3.26h5.136L-43.039 0zm-6.837-10.953h.11l1.761 5.394h-3.633zM-35.47 3.978v-5.67h.09A3.147 3.147 0 0 0-32.362.173c2.424 0 4.309-1.92 4.309-5.463 0-3.633-1.961-5.456-4.309-5.456a3.128 3.128 0 0 0-3.018 1.92h-.131v-1.782h-2.852V3.978zm-.062-9.278c0-1.913.808-3.128 2.265-3.128 1.478 0 2.258 1.271 2.258 3.128s-.794 3.17-2.258 3.17c-1.443-.004-2.265-1.27-2.265-3.17zm12.224 9.282v-5.67h.09A3.147 3.147 0 0 0-20.2.173c2.424 0 4.309-1.92 4.309-5.463 0-3.633-1.961-5.456-4.309-5.456a3.128 3.128 0 0 0-3.018 1.92h-.131v-1.782H-26.2V3.978zM-23.37-5.3c0-1.913.808-3.128 2.265-3.128 1.478 0 2.258 1.271 2.258 3.128s-.794 3.17-2.258 3.17c-1.443-.004-2.265-1.27-2.265-3.17zm9.33-8.84V0h2.894v-14.144zM-7.445-12a1.528 1.528 0 0 0 1.575-1.467 1.532 1.532 0 0 0-1.575-1.471 1.532 1.532 0 0 0-1.575 1.471A1.528 1.528 0 0 0-7.445-12zM-6 0v-10.608h-2.9V0zm7.03.207c2.8 0 4.572-1.651 4.71-4.061H3.011a1.9 1.9 0 0 1-1.954 1.761c-1.4 0-2.3-1.167-2.3-3.211 0-2.023.912-3.184 2.3-3.184a1.918 1.918 0 0 1 1.954 1.775h2.728c-.131-2.438-1.982-4.033-4.724-4.033-3.2 0-5.2 2.231-5.2 5.483 0 3.226 1.954 5.47 5.214 5.47zm10.952-10.953c-2.818 0-4.42 1.45-4.586 3.294h2.742a1.6 1.6 0 0 1 1.775-1.174c1.07 0 1.678.511 1.685 1.409v.856c-.442.014-1.878.076-2.631.124-2.037.131-3.943.9-3.943 3.273C7.023-.87 8.529.2 10.552.2a3.255 3.255 0 0 0 3.1-1.671h.083V0h2.742v-7.148c.001-2.552-2.177-3.598-4.495-3.598zm-.608 8.936c-.925 0-1.581-.421-1.581-1.243s.635-1.291 1.644-1.374a70.68 70.68 0 0 1 2.175-.138v.773a2.052 2.052 0 0 1-2.238 1.983zm11.906-.38c-.594-.021-1.008-.221-1.008-1.064v-5.18h2v-2.175h-2v-2.541h-2.894v2.541h-1.457v2.175h1.457v5.573c-.014 2.065 1.409 3 3.508 3a9.976 9.976 0 0 0 1.526-.1v-2.277c-.344.021-.848.056-1.132.049zM27.528-12a1.528 1.528 0 0 0 1.572-1.467 1.532 1.532 0 0 0-1.575-1.471 1.532 1.532 0 0 0-1.575 1.471A1.528 1.528 0 0 0 27.528-12zm1.443 12v-10.608h-2.894V0zM36 .207c3.2 0 5.2-2.2 5.2-5.47 0-3.287-2-5.483-5.2-5.483s-5.214 2.2-5.214 5.483C30.787-2 32.79.207 36 .207zm.014-2.244c-1.512 0-2.286-1.381-2.286-3.246s.773-3.253 2.286-3.253c1.478 0 2.251 1.4 2.251 3.253s-.772 3.246-2.25 3.246zm9.9-4.1a1.977 1.977 0 0 1 2.037-2.2 1.836 1.836 0 0 1 1.9 2.093V0h2.894v-6.754c0-2.479-1.443-3.992-3.653-3.992a3.2 3.2 0 0 0-3.191 2h-.121v-1.865h-2.755V0h2.894z" transform="translate(174 70)"/>
        <path id="line" class="cls-3" transform="translate(49 107)" d="M0 0h250v1H0z"/>
        <g id="그룹_1844" data-name="그룹 1844" transform="translate(1)">
            <g id="ico_flowchart_info" transform="translate(274.155 81)">
                <g id="그룹_883" data-name="그룹 883" transform="translate(2 2)">
                    <g id="그룹_882" data-name="그룹 882" style="clip-path:url(#clip-path)">
                        <circle id="타원_113" data-name="타원 113" class="cls-6" cx="9" cy="9" r="9" transform="translate(1 1)"/>
                        <path id="선_136" data-name="선 136" class="cls-6" transform="translate(10 9)" d="M0 0v6"/>
                        <path id="선_137" data-name="선 137" class="cls-6" transform="translate(10 5)" d="M0 0v2"/>
                    </g>
                </g>
            </g>
            <path id="패스_10965" data-name="패스 10965" class="cls-3" d="M-105.673-12.493a6.934 6.934 0 0 1 .891.062v-2.2a8.086 8.086 0 0 0-1.733-.173 3.131 3.131 0 0 0-3.467 3.4v.794h-1.506v2.175h1.506V0h2.894v-8.432h2.113v-2.175h-2.113v-.649c-.001-.878.488-1.237 1.415-1.237zm6.782 12.7c3.2 0 5.2-2.2 5.2-5.47 0-3.287-2-5.483-5.2-5.483s-5.214 2.2-5.214 5.483C-104.106-2-102.1.207-98.892.207zm.014-2.244c-1.512 0-2.286-1.381-2.286-3.246s.773-3.253 2.286-3.253c1.478 0 2.251 1.4 2.251 3.253s-.774 3.246-2.252 3.246zM-88.974 0v-6.029a2.16 2.16 0 0 1 2.265-2.217 5.177 5.177 0 0 1 1.236.159v-2.583a5.534 5.534 0 0 0-.925-.09 2.585 2.585 0 0 0-2.555 2h-.11v-1.844h-2.8V0zm22.017-9.213c-.4-3.253-2.859-5.124-6.119-5.124-3.736 0-6.575 2.652-6.575 7.265s2.79 7.265 6.574 7.265A5.831 5.831 0 0 0-66.958-4.8l-2.97-.014a2.934 2.934 0 0 1-3.1 2.4c-2.169 0-3.646-1.609-3.646-4.662 0-2.977 1.457-4.662 3.66-4.662a2.913 2.913 0 0 1 3.087 2.521zm4.876 3.073a2 2 0 0 1 2.072-2.2A1.833 1.833 0 0 1-58.1-6.25V0h2.9v-6.754c0-2.493-1.457-3.992-3.667-3.992a3.133 3.133 0 0 0-3.17 2h-.124v-5.4h-2.811V0h2.894zm18.778.773c0-3.619-2.2-5.38-4.979-5.38-3.108 0-5.131 2.217-5.131 5.49 0 3.363 2 5.463 5.249 5.463 2.617 0 4.372-1.271 4.786-3.225h-2.749a2.056 2.056 0 0 1-1.989 1.057 2.344 2.344 0 0 1-2.438-2.6h7.254zm-7.251-1a2.294 2.294 0 0 1 2.327-2.217 2.131 2.131 0 0 1 2.2 2.217zM-38.595 0v-6.374a1.8 1.8 0 0 1 1.747-1.982A1.581 1.581 0 0 1-35.2-6.644V0h2.8v-6.492a1.678 1.678 0 0 1 1.72-1.864 1.59 1.59 0 0 1 1.664 1.782V0h2.894v-7.134c0-2.307-1.381-3.612-3.349-3.612a3.208 3.208 0 0 0-3.191 2h-.11a2.81 2.81 0 0 0-2.88-2 2.98 2.98 0 0 0-2.956 2h-.124v-1.865h-2.756V0zm16.14-12a1.528 1.528 0 0 0 1.575-1.471 1.532 1.532 0 0 0-1.575-1.471 1.532 1.532 0 0 0-1.575 1.471A1.528 1.528 0 0 0-22.455-12zm1.443 12v-10.608h-2.894V0zm7.03.207c2.8 0 4.572-1.651 4.71-4.061H-12a1.9 1.9 0 0 1-1.954 1.761c-1.4 0-2.3-1.167-2.3-3.211 0-2.023.912-3.184 2.3-3.184A1.918 1.918 0 0 1-12-6.713h2.728C-9.4-9.151-11.253-10.746-14-10.746c-3.2 0-5.2 2.231-5.2 5.483 0 3.226 1.959 5.47 5.219 5.47zm10.954-10.953c-2.818 0-4.42 1.45-4.586 3.294h2.742A1.6 1.6 0 0 1-3.1-8.626c1.07 0 1.678.511 1.685 1.409v.856c-.442.014-1.878.076-2.631.124-2.037.131-3.943.9-3.943 3.273C-7.987-.87-6.481.2-4.458.2a3.255 3.255 0 0 0 3.1-1.671h.083V0h2.743v-7.148c0-2.552-2.183-3.598-4.496-3.598zm-.608 8.936c-.925 0-1.581-.421-1.581-1.243s.635-1.291 1.644-1.374a70.68 70.68 0 0 1 2.175-.138v.773a2.052 2.052 0 0 1-2.238 1.983zm7.3-12.334V0h2.893v-14.144zM23.1-5.366c0-3.619-2.2-5.38-4.979-5.38-3.108 0-5.131 2.217-5.131 5.49 0 3.363 2 5.463 5.249 5.463 2.617 0 4.372-1.271 4.786-3.225h-2.752a2.056 2.056 0 0 1-1.989 1.057 2.344 2.344 0 0 1-2.438-2.6H23.1zm-7.251-1a2.294 2.294 0 0 1 2.327-2.217 2.131 2.131 0 0 1 2.2 2.217zm8.308-4.24 3.052 5.3L24.044 0h3l2.072-3.688L31.226 0h2.963l-3.17-5.3 3.094-5.3h-2.984l-2.016 3.722-1.961-3.729zm20.874 5.24c0-3.619-2.2-5.38-4.979-5.38-3.108 0-5.131 2.217-5.131 5.49 0 3.363 2 5.463 5.249 5.463 2.617 0 4.372-1.271 4.786-3.225h-2.75a2.056 2.056 0 0 1-1.989 1.057 2.344 2.344 0 0 1-2.438-2.6h7.251zm-7.251-1a2.294 2.294 0 0 1 2.327-2.217 2.131 2.131 0 0 1 2.2 2.217zM49.741 0v-6.374a1.8 1.8 0 0 1 1.747-1.982 1.581 1.581 0 0 1 1.644 1.713V0h2.8v-6.492a1.678 1.678 0 0 1 1.727-1.865 1.59 1.59 0 0 1 1.661 1.782V0h2.894v-7.134c0-2.307-1.381-3.612-3.349-3.612a3.208 3.208 0 0 0-3.191 2h-.11a2.81 2.81 0 0 0-2.88-2 2.98 2.98 0 0 0-2.956 2H49.6v-1.865h-2.753V0zm17.583 3.978v-5.67h.09A3.147 3.147 0 0 0 70.432.173c2.424 0 4.309-1.92 4.309-5.463 0-3.633-1.961-5.456-4.309-5.456a3.128 3.128 0 0 0-3.018 1.92h-.131v-1.782H64.43V3.978zM67.262-5.3c0-1.913.808-3.128 2.265-3.128 1.478 0 2.258 1.271 2.258 3.128s-.794 3.17-2.258 3.17c-1.443-.004-2.265-1.27-2.265-3.17zM81.2-2.189c-.6-.021-1.01-.221-1.01-1.064v-5.18h2v-2.175h-2v-2.541H77.3v2.541h-1.461v2.175H77.3v5.573c-.014 2.065 1.409 3 3.508 3a9.976 9.976 0 0 0 1.526-.1v-2.278c-.349.021-.853.056-1.134.049zM85.445-12a1.528 1.528 0 0 0 1.575-1.471 1.532 1.532 0 0 0-1.575-1.471 1.532 1.532 0 0 0-1.575 1.471A1.528 1.528 0 0 0 85.445-12zm1.444 12v-10.608H84V0zm7.03.207c3.2 0 5.2-2.2 5.2-5.47 0-3.287-2-5.483-5.2-5.483s-5.214 2.2-5.214 5.483c0 3.263 2.003 5.47 5.214 5.47zm.014-2.244c-1.512 0-2.286-1.381-2.286-3.246s.773-3.253 2.286-3.253c1.478 0 2.251 1.4 2.251 3.253s-.773 3.246-2.251 3.246zm9.9-4.1a1.977 1.977 0 0 1 2.037-2.2 1.836 1.836 0 0 1 1.9 2.093V0h2.894v-6.754c0-2.479-1.443-3.992-3.653-3.992a3.2 3.2 0 0 0-3.191 2h-.12v-1.865h-2.756V0h2.894z" transform="translate(159.488 100)"/>
        </g>
        <path id="line-2" data-name="line" class="cls-3" transform="translate(120 77)" d="M0 0h108v1H0z"/>
    </g>
    <path id="다각형_146" data-name="다각형 146" d="M7.5 0 15 11H0z" transform="rotate(180 91 5.5)" style="fill:#999"/>
</svg>
