<svg id="ENG_fc_box_smaller_color_08" xmlns="http://www.w3.org/2000/svg" width="166" height="195" viewBox="0 0 166 195">
    <defs>
        <clipPath id="clip-path">
            <path id="사각형_664" data-name="사각형 664" style="stroke:#527773;stroke-width:2px;fill:none" d="M0 0h20v20H0z"/>
        </clipPath>
        <style>
            .cls-5{fill:none;stroke:#527773;stroke-width:2px;stroke-miterlimit:10}.cls-6{fill:#326f5e}
        </style>
    </defs>
    <g id="fc_box_smaller_long_color" transform="translate(0 5)">
        <g id="box" style="fill:#d7eae1;stroke:#527773;stroke-width:2px">
            <path style="stroke:none" d="M0 0h166v190H0z"/>
            <path style="fill:none" d="M1 1h164v188H1z"/>
        </g>
        <g id="그룹_1841" data-name="그룹 1841" transform="translate(-80 -1209)">
            <g id="그룹_1846" data-name="그룹 1846" transform="translate(53)">
                <g id="ico_flowchart_info" transform="translate(144.594 1336)">
                    <g id="그룹_883" data-name="그룹 883" transform="translate(2 2)">
                        <g id="그룹_882" data-name="그룹 882" style="clip-path:url(#clip-path)">
                            <circle id="타원_113" data-name="타원 113" class="cls-5" cx="9" cy="9" r="9" transform="translate(1 1)"/>
                            <path id="선_136" data-name="선 136" class="cls-5" transform="translate(10 9)" d="M0 0v6"/>
                            <path id="선_137" data-name="선 137" class="cls-5" transform="translate(10 5)" d="M0 0v2"/>
                        </g>
                    </g>
                </g>
                <path id="패스_11101" data-name="패스 11101" class="cls-6" d="m-34.154 0-3.011-5.5a4.071 4.071 0 0 0 2.5-4.033c0-2.79-1.844-4.606-5.062-4.606h-5.539V0h2.935v-5.028h2.238L-37.407 0zm-6.119-11.733c1.747 0 2.59.78 2.59 2.2S-38.526-7.4-40.266-7.4h-2.065v-4.33zM-23.2-5.366c0-3.619-2.2-5.38-4.979-5.38-3.108 0-5.131 2.217-5.131 5.49 0 3.363 2 5.463 5.249 5.463 2.617 0 4.372-1.271 4.786-3.225h-2.749a2.056 2.056 0 0 1-1.989 1.057 2.344 2.344 0 0 1-2.438-2.6h7.251zm-7.251-1a2.294 2.294 0 0 1 2.327-2.217 2.131 2.131 0 0 1 2.2 2.217zm11.96 10.344v-5.67h.09A3.147 3.147 0 0 0-15.383.173c2.424 0 4.309-1.92 4.309-5.463 0-3.633-1.961-5.456-4.309-5.456a3.128 3.128 0 0 0-3.017 1.92h-.131v-1.782h-2.852V3.978zm-.062-9.278c0-1.913.808-3.128 2.265-3.128 1.478 0 2.258 1.271 2.258 3.128s-.794 3.17-2.258 3.17c-1.443-.004-2.265-1.27-2.265-3.17zM-4.444.207c3.2 0 5.2-2.2 5.2-5.47 0-3.287-2-5.483-5.2-5.483s-5.214 2.2-5.214 5.483C-9.658-2-7.655.207-4.444.207zm.014-2.244c-1.512 0-2.286-1.381-2.286-3.246s.773-3.253 2.286-3.253c1.478 0 2.251 1.4 2.251 3.253s-.773 3.246-2.251 3.246zM5.473 0v-6.029a2.16 2.16 0 0 1 2.265-2.217 5.177 5.177 0 0 1 1.236.159v-2.583a5.534 5.534 0 0 0-.925-.09 2.585 2.585 0 0 0-2.555 2h-.11v-1.844h-2.8V0zm10.048-2.189c-.594-.021-1.008-.221-1.008-1.064v-5.18h2v-2.175h-2v-2.541h-2.894v2.541h-1.457v2.175h1.457v5.573c-.014 2.065 1.409 3 3.508 3a9.976 9.976 0 0 0 1.526-.1v-2.278c-.344.021-.853.056-1.132.049zM19.769-12a1.528 1.528 0 0 0 1.575-1.471 1.532 1.532 0 0 0-1.575-1.471 1.532 1.532 0 0 0-1.575 1.471A1.528 1.528 0 0 0 19.769-12zm1.443 12v-10.608h-2.894V0zm5.145-6.139a1.977 1.977 0 0 1 2.037-2.2 1.836 1.836 0 0 1 1.9 2.093V0h2.894v-6.754c0-2.479-1.443-3.992-3.653-3.992a3.2 3.2 0 0 0-3.191 2h-.124v-1.865h-2.757V0h2.894zM40.176 4.2c3.018 0 5.152-1.374 5.152-4.088v-10.72h-2.859v1.782h-.117a3.141 3.141 0 0 0-3.032-1.92c-2.341 0-4.309 1.789-4.309 5.38 0 3.529 1.92 5.214 4.316 5.214a3.1 3.1 0 0 0 3.032-1.733h.124V.069c0 1.471-.9 2.037-2.244 2.037-1.146 0-1.948-.38-2.106-1.236H35.28c.172 2.017 1.975 3.33 4.896 3.33zm.055-6.526c-1.471 0-2.265-1.167-2.265-3.011 0-1.823.78-3.094 2.265-3.094 1.443 0 2.258 1.215 2.258 3.094s-.828 3.01-2.258 3.01z" transform="translate(95.266 1355)"/>
            </g>
            <path id="line" class="cls-6" transform="translate(103 1362)" d="M0 0h120v1H0z"/>
        </g>
        <g id="그룹_1840" data-name="그룹 1840" transform="translate(-80 -1269)">
            <path id="패스_11104" data-name="패스 11104" class="cls-6" d="M-30.111-14.144V0h2.935v-14.144zM-21.961 0v-6.374a1.8 1.8 0 0 1 1.747-1.982 1.581 1.581 0 0 1 1.644 1.712V0h2.8v-6.492a1.678 1.678 0 0 1 1.727-1.865 1.59 1.59 0 0 1 1.664 1.782V0h2.894v-7.134c0-2.307-1.381-3.612-3.349-3.612a3.208 3.208 0 0 0-3.191 2h-.11a2.81 2.81 0 0 0-2.88-2 2.98 2.98 0 0 0-2.956 2h-.129v-1.865h-2.756V0zm17.583 3.978v-5.67h.09A3.147 3.147 0 0 0-1.271.173c2.424 0 4.309-1.92 4.309-5.463 0-3.633-1.961-5.456-4.309-5.456a3.128 3.128 0 0 0-3.018 1.92h-.131v-1.782h-2.852V3.978zM-4.441-5.3c0-1.913.808-3.128 2.265-3.128C-.7-8.432.083-7.162.083-5.3s-.794 3.17-2.258 3.17C-3.619-2.134-4.441-3.4-4.441-5.3zM9.669.207c3.2 0 5.2-2.2 5.2-5.47 0-3.287-2-5.483-5.2-5.483S4.454-8.55 4.454-5.262C4.454-2 6.457.207 9.669.207zm.014-2.244C8.17-2.037 7.4-3.419 7.4-5.283s.77-3.253 2.282-3.253c1.478 0 2.251 1.4 2.251 3.253s-.773 3.246-2.251 3.246zM19.586 0v-6.029a2.16 2.16 0 0 1 2.265-2.217 5.177 5.177 0 0 1 1.236.159v-2.583a5.534 5.534 0 0 0-.925-.09 2.585 2.585 0 0 0-2.555 2H19.5v-1.844h-2.8V0zm10.048-2.189c-.594-.021-1.008-.221-1.008-1.064v-5.18h2v-2.175h-2v-2.541h-2.894v2.541h-1.457v2.175h1.457v5.573c-.014 2.065 1.409 3 3.508 3a9.976 9.976 0 0 0 1.526-.1v-2.278c-.345.021-.849.056-1.132.049z" transform="translate(163 1325)"/>
            <path id="line-2" data-name="line" class="cls-6" transform="translate(132 1332)" d="M0 0h62v1H0z"/>
        </g>
        <g id="그룹_11125" data-name="그룹 11125" transform="translate(-80 -1209)">
            <path id="패스_11102" data-name="패스 11102" class="cls-6" d="M-23-9.213c-.4-3.253-2.859-5.124-6.119-5.124-3.736 0-6.575 2.652-6.575 7.265S-32.9.193-29.119.193A5.831 5.831 0 0 0-23-4.8l-2.97-.014a2.934 2.934 0 0 1-3.1 2.4c-2.169 0-3.646-1.609-3.646-4.662 0-2.977 1.457-4.662 3.66-4.662a2.913 2.913 0 0 1 3.086 2.525zm4.876 3.073a2 2 0 0 1 2.072-2.2 1.833 1.833 0 0 1 1.912 2.09V0h2.894v-6.754c0-2.493-1.457-3.992-3.667-3.992a3.133 3.133 0 0 0-3.17 2h-.124v-5.4h-2.811V0h2.894zm13.564-4.606c-2.818 0-4.42 1.45-4.586 3.294h2.742a1.6 1.6 0 0 1 1.773-1.174c1.07 0 1.678.511 1.685 1.409v.856c-.442.014-1.878.076-2.631.124-2.037.131-3.943.9-3.943 3.273C-9.52-.87-8.015.2-5.991.2a3.255 3.255 0 0 0 3.1-1.671h.083V0h2.742v-7.148c0-2.552-2.182-3.598-4.495-3.598zm-.608 8.936c-.925 0-1.581-.421-1.581-1.243s.635-1.291 1.644-1.374a70.68 70.68 0 0 1 2.175-.138v.773a2.052 2.052 0 0 1-2.239 1.983zM5.024-6.139a1.977 1.977 0 0 1 2.037-2.2 1.836 1.836 0 0 1 1.9 2.093V0h2.894v-6.754c0-2.479-1.443-3.992-3.653-3.992a3.2 3.2 0 0 0-3.191 2h-.125v-1.865H2.131V0h2.893zM18.843 4.2C21.861 4.2 24 2.825 24 .11v-10.718h-2.864v1.782h-.117a3.141 3.141 0 0 0-3.032-1.92c-2.341 0-4.309 1.789-4.309 5.38 0 3.529 1.92 5.214 4.316 5.214a3.1 3.1 0 0 0 3.032-1.733h.124V.069c0 1.471-.9 2.037-2.244 2.037-1.146 0-1.948-.38-2.106-1.236h-2.853c.172 2.017 1.975 3.33 4.896 3.33zm.057-6.527c-1.471 0-2.265-1.167-2.265-3.011 0-1.823.78-3.094 2.265-3.094 1.443 0 2.258 1.215 2.258 3.094s-.83 3.011-2.258 3.011zm17.03-3.039c0-3.619-2.2-5.38-4.979-5.38-3.108 0-5.131 2.217-5.131 5.49 0 3.363 2 5.463 5.249 5.463 2.617 0 4.372-1.271 4.786-3.225H33.1a2.056 2.056 0 0 1-1.989 1.057 2.344 2.344 0 0 1-2.438-2.6h7.251zm-7.251-1A2.294 2.294 0 0 1 31-8.584a2.131 2.131 0 0 1 2.2 2.217z" transform="translate(163 1325)"/>
            <path id="line-3" data-name="line" class="cls-6" transform="translate(126 1332)" d="M0 0h74v1H0z"/>
        </g>
        <g id="그룹_11124" data-name="그룹 11124" transform="translate(-80 -1239)">
            <path id="패스_11103" data-name="패스 11103" class="cls-6" d="M-50.956.173a3.155 3.155 0 0 0 3.018-1.865h.124V0h2.845v-14.144h-2.887v5.318h-.083a3.131 3.131 0 0 0-3.025-1.92c-2.341 0-4.309 1.823-4.309 5.456 0 3.543 1.886 5.463 4.317 5.463zm.9-2.307c-1.471 0-2.265-1.3-2.265-3.17s.78-3.128 2.265-3.128c1.443 0 2.258 1.215 2.258 3.128s-.824 3.17-2.254 3.17zm17.079-3.232c0-3.619-2.2-5.38-4.979-5.38-3.108 0-5.131 2.217-5.131 5.49 0 3.363 2 5.463 5.249 5.463 2.617 0 4.372-1.271 4.786-3.225H-35.8a2.056 2.056 0 0 1-1.989 1.057 2.344 2.344 0 0 1-2.438-2.6h7.251zm-7.251-1A2.294 2.294 0 0 1-37.9-8.584a2.131 2.131 0 0 1 2.2 2.217zm13.85 6.573c2.8 0 4.572-1.651 4.71-4.061H-24.4a1.9 1.9 0 0 1-1.95 1.761c-1.4 0-2.3-1.167-2.3-3.211 0-2.023.912-3.184 2.3-3.184a1.918 1.918 0 0 1 1.95 1.775h2.728c-.131-2.438-1.982-4.033-4.724-4.033-3.2 0-5.2 2.231-5.2 5.483.004 3.226 1.959 5.47 5.218 5.47zm6.492-14.351V0h2.894v-14.144zm9.606 3.4c-2.818 0-4.42 1.45-4.586 3.294h2.742a1.6 1.6 0 0 1 1.775-1.174c1.07 0 1.678.511 1.685 1.409v.856c-.442.014-1.878.076-2.631.124-2.037.131-3.943.9-3.943 3.273C-15.238-.87-13.733.2-11.709.2a3.255 3.255 0 0 0 3.1-1.671h.083V0h2.742v-7.148c0-2.552-2.182-3.598-4.496-3.598zm-.608 8.936c-.925 0-1.581-.421-1.581-1.243s.635-1.291 1.644-1.374a70.68 70.68 0 0 1 2.175-.138v.773a2.052 2.052 0 0 1-2.237 1.981zM-.694 0v-6.029a2.16 2.16 0 0 1 2.265-2.217 5.177 5.177 0 0 1 1.236.159v-2.583a5.534 5.534 0 0 0-.925-.09 2.585 2.585 0 0 0-2.555 2h-.11v-1.844h-2.8V0zm9.081-10.746c-2.818 0-4.42 1.45-4.586 3.294h2.743a1.6 1.6 0 0 1 1.774-1.174c1.07 0 1.678.511 1.685 1.409v.856c-.442.014-1.878.076-2.631.124-2.037.131-3.943.9-3.943 3.273C3.429-.87 4.934.2 6.958.2a3.255 3.255 0 0 0 3.1-1.671h.083V0h2.742v-7.148c0-2.552-2.183-3.598-4.496-3.598zM7.78-1.809c-.925 0-1.581-.421-1.581-1.243s.635-1.291 1.644-1.374a70.68 70.68 0 0 1 2.175-.138v.773A2.052 2.052 0 0 1 7.78-1.809zm11.906-.38c-.594-.021-1.008-.221-1.008-1.064v-5.18h2v-2.175h-2v-2.541h-2.894v2.541h-1.457v2.175h1.457v5.573c-.014 2.065 1.409 3 3.508 3a9.976 9.976 0 0 0 1.526-.1v-2.278c-.345.021-.849.056-1.132.049zM23.933-12a1.528 1.528 0 0 0 1.575-1.471 1.532 1.532 0 0 0-1.575-1.471 1.532 1.532 0 0 0-1.575 1.471A1.528 1.528 0 0 0 23.933-12zm1.443 12v-10.608h-2.893V0zm7.03.207c3.2 0 5.2-2.2 5.2-5.47 0-3.287-2-5.483-5.2-5.483s-5.214 2.2-5.214 5.483C27.193-2 29.2.207 32.407.207zm.014-2.244c-1.512 0-2.286-1.381-2.286-3.246s.773-3.253 2.286-3.253c1.478 0 2.251 1.4 2.251 3.253s-.771 3.246-2.25 3.246zm9.9-4.1a1.977 1.977 0 0 1 2.037-2.2 1.836 1.836 0 0 1 1.9 2.093V0h2.894v-6.754c0-2.479-1.443-3.992-3.653-3.992a3.2 3.2 0 0 0-3.191 2h-.124v-1.865H39.43V0h2.894zm9.417 4.687-.967 5.559h2.065L54.52-1.45z" transform="translate(163 1325)"/>
            <path id="line-4" data-name="line" class="cls-6" transform="translate(107 1332)" d="M0 0h112v1H0z"/>
        </g>
    </g>
    <path id="다각형_123" data-name="다각형 123" d="M7.5 0 15 11H0z" transform="rotate(180 45.5 5.5)" style="fill:#999"/>
</svg>
