<svg id="ENG_flow_chart_2_7_2" xmlns="http://www.w3.org/2000/svg" width="1336" height="858" viewBox="0 0 1336 858">
    <defs>
        <filter id="box" x="675" y="588" width="556" height="182" filterUnits="userSpaceOnUse">
            <feOffset dy="3"/>
            <feGaussianBlur stdDeviation="3" result="blur"/>
            <feFlood flood-color="#111" flood-opacity=".102"/>
            <feComposite operator="in" in2="blur"/>
            <feComposite in="SourceGraphic"/>
        </filter>
        <filter id="area" x="105" y="94" width="1126" height="148" filterUnits="userSpaceOnUse">
            <feOffset dy="3"/>
            <feGaussianBlur stdDeviation="3" result="blur-2"/>
            <feFlood flood-color="#111" flood-opacity=".102"/>
            <feComposite operator="in" in2="blur-2"/>
            <feComposite in="SourceGraphic"/>
        </filter>
        <filter id="box-2" x="105" y="588" width="556" height="182" filterUnits="userSpaceOnUse">
            <feOffset dy="3"/>
            <feGaussianBlur stdDeviation="3" result="blur-3"/>
            <feFlood flood-color="#111" flood-opacity=".102"/>
            <feComposite operator="in" in2="blur-3"/>
            <feComposite in="SourceGraphic"/>
        </filter>
        <filter id="box-3" x="675" y="324" width="556" height="182" filterUnits="userSpaceOnUse">
            <feOffset dy="3"/>
            <feGaussianBlur stdDeviation="3" result="blur-4"/>
            <feFlood flood-color="#111" flood-opacity=".102"/>
            <feComposite operator="in" in2="blur-4"/>
            <feComposite in="SourceGraphic"/>
        </filter>
        <style>
            .cls-1{fill:#f8f8f8}.cls-2{fill:#fff;stroke:#999;stroke-width:2px}.cls-3{fill:#333}.cls-4{fill:red;opacity:0}.cls-11,.cls-5{fill:none}.cls-5{stroke:#326f5e;stroke-width:1.5px}.cls-6{fill:#326f5e}.cls-9{fill:#999}.cls-10{stroke:none}
        </style>
    </defs>
    <path id="bg" class="cls-1" d="M0 0h1336v858H0z"/>
    <g id="fc_box_medium_long_link" transform="translate(684 594)">
        <g transform="translate(-684 -594)" style="filter:url(#box)">
            <g id="box-4" data-name="box" class="cls-2">
                <path class="cls-10" d="M0 0h538v164H0z" transform="translate(684 594)"/>
                <path class="cls-11" d="M1 1h536v162H1z" transform="translate(684 594)"/>
            </g>
        </g>
        <path id="패스_11057" data-name="패스 11057" class="cls-3" d="m51.069 23-3.613-6.6a4.885 4.885 0 0 0 3-4.84c0-3.348-2.213-5.528-6.075-5.528h-6.646V23h3.522v-6.033h2.685L47.166 23zM43.727 8.92c2.1 0 3.108.936 3.108 2.635s-1.011 2.561-3.1 2.561h-2.478V8.92zm20.486 7.641c0-4.343-2.635-6.456-5.975-6.456-3.729 0-6.157 2.66-6.157 6.588 0 4.036 2.4 6.555 6.3 6.555 3.141 0 5.246-1.525 5.743-3.87h-3.3a2.468 2.468 0 0 1-2.387 1.268 2.813 2.813 0 0 1-2.925-3.116h8.7zm-8.7-1.2A2.753 2.753 0 0 1 58.3 12.7a2.558 2.558 0 0 1 2.635 2.66zm22.763 12.412v-17.5h-3.414v2.138h-.149a3.757 3.757 0 0 0-3.63-2.3c-2.809 0-5.171 2.188-5.171 6.547 0 4.251 2.262 6.555 5.18 6.555a3.785 3.785 0 0 0 3.622-2.238h.1v6.8zm-6.1-7.334c-1.765 0-2.718-1.558-2.718-3.8 0-2.229.936-3.754 2.718-3.754 1.732 0 2.71 1.459 2.71 3.754s-.994 3.8-2.709 3.8zm16.973-2.859a2.439 2.439 0 0 1-2.461 2.644 2.193 2.193 0 0 1-2.229-2.453v-7.5h-3.473v8.1c.008 2.983 1.749 4.79 4.309 4.79a3.908 3.908 0 0 0 3.854-2.47h.133V23h3.331V10.271h-3.464zm17.776-1.019c0-4.343-2.635-6.456-5.975-6.456-3.729 0-6.157 2.66-6.157 6.588 0 4.036 2.4 6.555 6.3 6.555 3.141 0 5.246-1.525 5.743-3.87h-3.3a2.468 2.468 0 0 1-2.387 1.268 2.813 2.813 0 0 1-2.925-3.116h8.7zm-8.7-1.2a2.753 2.753 0 0 1 2.793-2.66 2.558 2.558 0 0 1 2.635 2.66zm21.406-1.3c-.182-2.428-2.171-3.953-5.4-3.953-3.273 0-5.37 1.525-5.362 3.97-.008 1.881 1.235 3.133 3.671 3.613l2.1.414c1.193.249 1.724.655 1.732 1.318-.008.82-.845 1.318-2.1 1.318-1.285 0-2.088-.514-2.262-1.508h-3.481c.282 2.486 2.3 4.019 5.743 4.019 3.381 0 5.627-1.674 5.635-4.177-.008-1.84-1.2-2.942-3.663-3.448l-2.3-.464c-1.193-.257-1.641-.7-1.633-1.285-.008-.762.845-1.293 1.972-1.293a1.887 1.887 0 0 1 2.088 1.475zm7.939 6.315c-.713-.025-1.21-.265-1.21-1.276v-6.219h2.4v-2.61h-2.4v-3.05h-3.472v3.05h-1.749v2.61h1.749v6.688c-.017 2.478 1.691 3.6 4.21 3.6a11.971 11.971 0 0 0 1.831-.124v-2.73c-.415.025-1.02.066-1.36.058zM141.815 10.1c-3.381 0-5.3 1.74-5.5 3.953h3.29a1.925 1.925 0 0 1 2.13-1.409c1.285 0 2.014.613 2.022 1.691v1.028c-.53.017-2.254.091-3.157.149-2.445.157-4.732 1.077-4.732 3.928 0 2.511 1.807 3.8 4.235 3.8a3.906 3.906 0 0 0 3.721-2.006h.1V23h3.29v-8.577c-.004-3.067-2.623-4.323-5.399-4.323zm-.729 10.724c-1.11 0-1.9-.506-1.9-1.492s.762-1.55 1.972-1.649c.6-.058 2.1-.141 2.611-.166v.928a2.463 2.463 0 0 1-2.683 2.384zm19.823-.456c-.713-.025-1.21-.265-1.21-1.276v-6.211h2.4v-2.61h-2.4v-3.05h-3.472v3.05h-1.749v2.61h1.749v6.688c-.017 2.478 1.691 3.6 4.21 3.6a11.971 11.971 0 0 0 1.831-.124v-2.73c-.414.025-1.019.066-1.359.058zm14.834-3.812c0-4.343-2.635-6.456-5.975-6.456-3.729 0-6.157 2.66-6.157 6.588 0 4.036 2.4 6.555 6.3 6.555 3.141 0 5.246-1.525 5.743-3.87h-3.3a2.468 2.468 0 0 1-2.387 1.268 2.813 2.813 0 0 1-2.925-3.116h8.7zm-8.7-1.2a2.753 2.753 0 0 1 2.793-2.66 2.558 2.558 0 0 1 2.635 2.66zm21.406-1.3c-.182-2.428-2.171-3.953-5.4-3.953-3.273 0-5.37 1.525-5.362 3.97-.008 1.881 1.235 3.133 3.671 3.613l2.1.414c1.193.249 1.724.655 1.732 1.318-.008.82-.845 1.318-2.1 1.318-1.285 0-2.088-.514-2.262-1.508h-3.481c.282 2.486 2.3 4.019 5.743 4.019 3.381 0 5.627-1.674 5.635-4.177-.008-1.84-1.2-2.942-3.663-3.448l-2.3-.464c-1.193-.257-1.641-.7-1.633-1.285-.008-.762.845-1.293 1.972-1.293a1.887 1.887 0 0 1 2.088 1.475zm7.939 6.315c-.713-.025-1.21-.265-1.21-1.276v-6.214h2.4v-2.61h-2.4v-3.05H191.7v3.05h-1.749v2.61h1.749v6.688c-.017 2.478 1.691 3.6 4.21 3.6a11.971 11.971 0 0 0 1.831-.124v-2.73c-.41.025-1.014.066-1.354.058zm14.42 0c-.713-.025-1.21-.265-1.21-1.276v-6.214H212v-2.61h-2.4v-3.05h-3.472v3.05h-1.749v2.61h1.749v6.688c-.017 2.478 1.691 3.6 4.21 3.6a11.971 11.971 0 0 0 1.831-.124v-2.73c-.418.025-1.023.066-1.362.058zm8.959 2.876c3.845 0 6.24-2.644 6.24-6.564 0-3.945-2.4-6.58-6.24-6.58s-6.257 2.635-6.257 6.58c-.002 3.917 2.402 6.566 6.255 6.566zm.017-2.693c-1.815 0-2.743-1.657-2.743-3.9s.928-3.9 2.743-3.9c1.773 0 2.7 1.674 2.7 3.9s-.929 3.901-2.702 3.901zm19.475-.182c-.713-.025-1.21-.265-1.21-1.276v-6.215h2.4v-2.61h-2.4v-3.05h-3.472v3.05h-1.749v2.61h1.749v6.688c-.017 2.478 1.691 3.6 4.21 3.6a11.971 11.971 0 0 0 1.831-.124v-2.73c-.418.025-1.018.066-1.361.058zm7.094-4.74a2.4 2.4 0 0 1 2.486-2.644 2.2 2.2 0 0 1 2.3 2.511V23h3.461v-8.1c0-2.992-1.749-4.79-4.4-4.79a3.759 3.759 0 0 0-3.8 2.4h-.149V6.028h-3.373V23h3.472zm22.533.928c0-4.343-2.635-6.456-5.975-6.456-3.729 0-6.157 2.66-6.157 6.588 0 4.036 2.4 6.555 6.3 6.555 3.141 0 5.246-1.525 5.743-3.87h-3.3a2.468 2.468 0 0 1-2.387 1.268 2.813 2.813 0 0 1-2.925-3.116h8.7zm-8.7-1.2a2.753 2.753 0 0 1 2.793-2.66 2.558 2.558 0 0 1 2.635 2.66zm24.414 1.251h3.671c-.05 2.138-1.5 3.5-3.9 3.5-2.71 0-4.442-2.022-4.442-5.61 0-3.564 1.782-5.577 4.4-5.577a3.488 3.488 0 0 1 3.6 2.577h3.588c-.472-3.348-3.423-5.7-7.251-5.7-4.475 0-7.914 3.232-7.914 8.735 0 5.37 3.224 8.7 7.989 8.7 4.276 0 7.334-2.71 7.334-7.169v-2.125H284.6zM305.091 23v-2.917h-7.3V6.028h-3.522V23zm2.271-16.972V23h3.522v-5.528h3.05c3.9 0 6.149-2.337 6.149-5.71 0-3.356-2.213-5.735-6.075-5.735zm3.522 8.6V8.92h2.47c2.1 0 3.108 1.135 3.108 2.843s-1.011 2.867-3.1 2.867zm18.63-6.028a1.833 1.833 0 0 0 1.886-1.76 1.894 1.894 0 0 0-3.779 0 1.833 1.833 0 0 0 1.893 1.76zm1.732 14.4V10.271h-3.472V23zm6.174-7.367a2.373 2.373 0 0 1 2.445-2.644 2.2 2.2 0 0 1 2.279 2.511V23h3.472v-8.1c0-2.975-1.732-4.79-4.384-4.79a3.843 3.843 0 0 0-3.829 2.4h-.149v-2.239h-3.307V23h3.472zm21.389-1.575c-.182-2.428-2.171-3.953-5.4-3.953-3.273 0-5.37 1.525-5.362 3.97-.008 1.881 1.235 3.133 3.671 3.613l2.1.414c1.193.249 1.724.655 1.732 1.318-.008.82-.845 1.318-2.1 1.318-1.285 0-2.088-.514-2.262-1.508h-3.481c.282 2.486 2.3 4.019 5.743 4.019 3.381 0 5.627-1.674 5.635-4.177-.008-1.84-1.2-2.942-3.663-3.448l-2.3-.464c-1.193-.257-1.641-.7-1.633-1.285-.008-.762.845-1.293 1.972-1.293a1.887 1.887 0 0 1 2.088 1.475zm7.939 6.315c-.713-.025-1.21-.265-1.21-1.276v-6.216h2.4v-2.61h-2.4v-3.05h-3.472v3.05h-1.749v2.61h1.749v6.688c-.017 2.478 1.691 3.6 4.21 3.6a11.971 11.971 0 0 0 1.831-.124v-2.73c-.414.025-1.019.066-1.358.058zm5.1-11.768a1.833 1.833 0 0 0 1.889-1.765 1.894 1.894 0 0 0-3.779 0 1.833 1.833 0 0 0 1.887 1.76zM373.577 23V10.271H370.1V23zm8.229-2.627c-.713-.025-1.21-.265-1.21-1.276v-6.216H383v-2.61h-2.4v-3.05h-3.472v3.05h-1.749v2.61h1.749v6.688c-.017 2.478 1.691 3.6 4.21 3.6a11.972 11.972 0 0 0 1.832-.124v-2.73c-.419.025-1.024.066-1.363.058zm11.519-2.793a2.439 2.439 0 0 1-2.461 2.644 2.193 2.193 0 0 1-2.229-2.453v-7.5h-3.472v8.1c.008 2.983 1.749 4.79 4.309 4.79a3.908 3.908 0 0 0 3.854-2.47h.133V23h3.332V10.271h-3.464zm11.693 2.793c-.713-.025-1.21-.265-1.21-1.276v-6.216h2.4v-2.61h-2.4v-3.05h-3.472v3.05h-1.749v2.61h1.749v6.688c-.017 2.478 1.691 3.6 4.21 3.6a11.972 11.972 0 0 0 1.832-.124v-2.73c-.414.025-1.019.066-1.359.058zm5.1-11.768a1.833 1.833 0 0 0 1.889-1.765 1.894 1.894 0 0 0-3.779 0 1.833 1.833 0 0 0 1.888 1.76zM411.848 23V10.271h-3.472V23zm8.436.249c3.845 0 6.24-2.644 6.24-6.564 0-3.945-2.4-6.58-6.24-6.58s-6.257 2.635-6.257 6.58c.001 3.915 2.404 6.564 6.258 6.564zm.017-2.693c-1.815 0-2.743-1.657-2.743-3.9s.928-3.9 2.743-3.9c1.773 0 2.7 1.674 2.7 3.9s-.926 3.899-2.701 3.899zm11.884-4.923a2.373 2.373 0 0 1 2.445-2.644 2.2 2.2 0 0 1 2.279 2.511V23h3.472v-8.1c0-2.975-1.732-4.79-4.384-4.79a3.843 3.843 0 0 0-3.829 2.4h-.149v-2.239h-3.307V23h3.472zM110.572 44.008a8.321 8.321 0 0 1 1.069.075v-2.644a9.7 9.7 0 0 0-2.08-.207c-2.544 0-4.16 1.4-4.16 4.086v.953h-1.807v2.61h1.806V59h3.472V48.881h2.536v-2.61h-2.536v-.779c.001-1.053.589-1.484 1.7-1.484zm8.138 15.24c3.845 0 6.24-2.644 6.24-6.564 0-3.945-2.4-6.58-6.24-6.58s-6.257 2.635-6.257 6.58c0 3.916 2.403 6.565 6.257 6.565zm.017-2.693c-1.815 0-2.743-1.657-2.743-3.9s.928-3.9 2.743-3.9c1.773 0 2.7 1.674 2.7 3.9s-.927 3.9-2.7 3.9zM130.611 59v-7.235a2.592 2.592 0 0 1 2.718-2.66 6.213 6.213 0 0 1 1.483.191V46.2a6.641 6.641 0 0 0-1.111-.108 3.1 3.1 0 0 0-3.066 2.4h-.135v-2.221h-3.365V59zm13.169-14.4a1.769 1.769 0 1 0-1.889-1.765 1.833 1.833 0 0 0 1.888 1.765zm1.731 14.4V46.271h-3.472V59zm6.174-7.367a2.373 2.373 0 0 1 2.445-2.644 2.2 2.2 0 0 1 2.279 2.511V59h3.472v-8.1c0-2.975-1.732-4.79-4.384-4.79a3.843 3.843 0 0 0-3.829 2.4h-.149v-2.239h-3.307V59h3.472zm21.39-1.575c-.182-2.428-2.171-3.953-5.4-3.953-3.273 0-5.37 1.525-5.362 3.97-.008 1.881 1.235 3.133 3.671 3.613l2.1.414c1.193.249 1.724.655 1.732 1.318-.008.82-.845 1.318-2.1 1.318-1.285 0-2.088-.514-2.262-1.508h-3.481c.282 2.486 2.3 4.019 5.743 4.019 3.381 0 5.627-1.674 5.635-4.177-.008-1.84-1.2-2.942-3.663-3.448l-2.3-.464c-1.193-.257-1.641-.7-1.633-1.285-.008-.762.845-1.293 1.972-1.293a1.887 1.887 0 0 1 2.088 1.475zm10.575 3.522a2.439 2.439 0 0 1-2.461 2.644 2.193 2.193 0 0 1-2.229-2.453v-7.5h-3.472v8.1c.008 2.983 1.749 4.79 4.309 4.79a3.908 3.908 0 0 0 3.854-2.47h.133V59h3.331V46.271h-3.464zm12.124-9.572a8.321 8.321 0 0 1 1.069.075v-2.644a9.7 9.7 0 0 0-2.08-.207c-2.544 0-4.16 1.4-4.16 4.086v.953H188.8v2.61h1.8V59h3.472V48.881h2.536v-2.61h-2.536v-.779c.003-1.053.591-1.484 1.701-1.484zm8.818 0a8.321 8.321 0 0 1 1.069.075v-2.644a9.7 9.7 0 0 0-2.08-.207c-2.544 0-4.16 1.4-4.16 4.086v.953h-1.807v2.61h1.807V59h3.472V48.881h2.536v-2.61h-2.536v-.779c-.001-1.053.588-1.484 1.698-1.484zm4.6.6a1.769 1.769 0 1 0-1.892-1.768 1.833 1.833 0 0 0 1.891 1.76zM210.923 59V46.271h-3.473V59zm8.436.249c3.365 0 5.486-1.981 5.652-4.873h-3.273a2.284 2.284 0 0 1-2.345 2.113c-1.674 0-2.76-1.4-2.76-3.854 0-2.428 1.094-3.82 2.76-3.82a2.3 2.3 0 0 1 2.345 2.13h3.273c-.157-2.925-2.378-4.84-5.669-4.84-3.845 0-6.24 2.677-6.24 6.58-.002 3.87 2.346 6.564 6.257 6.564zm9.53-14.644A1.769 1.769 0 1 0 227 42.84a1.833 1.833 0 0 0 1.889 1.76zM230.622 59V46.271h-3.472V59zm14.312-6.439c0-4.343-2.635-6.456-5.975-6.456-3.729 0-6.157 2.66-6.157 6.588 0 4.036 2.4 6.555 6.3 6.555 3.141 0 5.246-1.525 5.743-3.87h-3.3a2.468 2.468 0 0 1-2.387 1.268 2.813 2.813 0 0 1-2.925-3.116h8.7zm-8.7-1.2a2.753 2.753 0 0 1 2.793-2.66 2.558 2.558 0 0 1 2.635 2.66zm14.354.273a2.373 2.373 0 0 1 2.445-2.644 2.2 2.2 0 0 1 2.279 2.511V59h3.472v-8.1c0-2.975-1.732-4.79-4.384-4.79a3.843 3.843 0 0 0-3.829 2.4h-.149v-2.239h-3.307V59h3.472zm16.392 4.74c-.713-.025-1.21-.265-1.21-1.276v-6.217h2.4v-2.61h-2.4v-3.05h-3.47v3.05h-1.749v2.61h1.749v6.688c-.017 2.478 1.691 3.6 4.21 3.6a11.972 11.972 0 0 0 1.832-.124v-2.73c-.419.025-1.024.066-1.364.058zm14.42 0c-.713-.025-1.21-.265-1.21-1.276v-6.217h2.4v-2.61h-2.4v-3.05h-3.472v3.05h-1.749v2.61h1.749v6.688c-.017 2.478 1.691 3.6 4.21 3.6a11.971 11.971 0 0 0 1.831-.124v-2.73c-.416.025-1.021.066-1.359.058zm14.834-3.812c0-4.343-2.635-6.456-5.975-6.456-3.729 0-6.157 2.66-6.157 6.588 0 4.036 2.4 6.555 6.3 6.555 3.141 0 5.246-1.525 5.743-3.87h-3.3a2.468 2.468 0 0 1-2.387 1.268 2.813 2.813 0 0 1-2.925-3.116h8.7zm-8.7-1.2a2.753 2.753 0 0 1 2.793-2.66 2.558 2.558 0 0 1 2.635 2.66zm21.406-1.3c-.182-2.428-2.171-3.953-5.4-3.953-3.273 0-5.37 1.525-5.362 3.97-.008 1.881 1.235 3.133 3.671 3.613l2.1.414c1.193.249 1.724.655 1.732 1.318-.008.82-.845 1.318-2.1 1.318-1.285 0-2.088-.514-2.262-1.508h-3.479c.282 2.486 2.3 4.019 5.743 4.019 3.381 0 5.627-1.674 5.635-4.177-.008-1.84-1.2-2.942-3.663-3.448l-2.3-.464c-1.193-.257-1.641-.7-1.633-1.285-.008-.762.845-1.293 1.972-1.293a1.887 1.887 0 0 1 2.088 1.475zm7.939 6.315c-.713-.025-1.21-.265-1.21-1.276v-6.22h2.4v-2.61h-2.4v-3.05h-3.472v3.05h-1.749v2.61h1.749v6.688c-.017 2.478 1.691 3.6 4.21 3.6a11.971 11.971 0 0 0 1.831-.124v-2.73c-.418.025-1.023.066-1.362.058zm13.591 2.834a3.785 3.785 0 0 0 3.622-2.238h.149V59h3.414V42.028h-3.464v6.381h-.1a3.757 3.757 0 0 0-3.63-2.3c-2.809 0-5.171 2.188-5.171 6.547-.003 4.244 2.26 6.551 5.177 6.551zm1.086-2.768c-1.765 0-2.718-1.558-2.718-3.8 0-2.229.936-3.754 2.718-3.754 1.732 0 2.71 1.459 2.71 3.754s-.998 3.796-2.714 3.796zM345.79 46.1c-3.381 0-5.3 1.74-5.5 3.953h3.29a1.925 1.925 0 0 1 2.13-1.409c1.285 0 2.014.613 2.022 1.691v1.028c-.53.017-2.254.091-3.157.149-2.445.157-4.732 1.077-4.732 3.928 0 2.511 1.807 3.8 4.235 3.8a3.906 3.906 0 0 0 3.721-2.006h.1V59h3.29v-8.577c-.004-3.067-2.623-4.323-5.399-4.323zm-.729 10.724c-1.111 0-1.9-.506-1.9-1.492s.762-1.55 1.972-1.649c.6-.058 2.1-.141 2.611-.166v.928a2.463 2.463 0 0 1-2.683 2.384zm14.287-.456c-.713-.025-1.21-.265-1.21-1.276v-6.211h2.4v-2.61h-2.4v-3.05h-3.472v3.05h-1.749v2.61h1.749v6.688c-.017 2.478 1.691 3.6 4.21 3.6a11.971 11.971 0 0 0 1.831-.124v-2.73c-.414.025-1.019.066-1.359.058zm8.71-10.268c-3.381 0-5.3 1.74-5.5 3.953h3.29a1.925 1.925 0 0 1 2.13-1.409c1.285 0 2.014.613 2.022 1.691v1.028c-.53.017-2.254.091-3.157.149-2.445.157-4.732 1.077-4.732 3.928 0 2.511 1.807 3.8 4.235 3.8a3.906 3.906 0 0 0 3.721-2.006h.1V59h3.29v-8.577c-.004-3.067-2.623-4.323-5.399-4.323zm-.729 10.724c-1.111 0-1.9-.506-1.9-1.492s.762-1.55 1.972-1.649c.6-.058 2.1-.141 2.611-.166v.928a2.463 2.463 0 0 1-2.683 2.384z" transform="translate(30 32)"/>
        <g id="fc_textlink" transform="translate(386 111)">
            <g id="stack" transform="translate(-2524.094 20210)">
                <g id="ico_fc_pdf" transform="translate(2461.409 -20210)">
                    <g id="그룹_1025" data-name="그룹 1025" transform="translate(-1101.5 -1126.5)">
                        <path id="패스_6892" data-name="패스 6892" class="cls-5" d="M1108.592 1130.5h7.714l4.286 4.286v7.714h-12z" transform="translate(-3.092)"/>
                        <path id="패스_6891" data-name="패스 6891" class="cls-5" d="M1052.728 2115.047v5h5" transform="translate(59.772 -984.547)"/>
                    </g>
                </g>
                <path id="패스_11059" data-name="패스 11059" class="cls-6" d="M-61.008 0h1.646v-8.182h.094l3.326 8.166h1.359l3.326-8.149h.1V0h1.641v-11.315H-51.6l-3.586 8.768h-.133l-3.591-8.768h-2.094zm17.248.171c2.393 0 3.96-1.751 3.96-4.371 0-2.641-1.564-4.392-3.956-4.392s-3.971 1.747-3.971 4.392c0 2.62 1.57 4.371 3.967 4.371zm.006-1.392c-1.552 0-2.293-1.365-2.293-2.989s.74-3 2.293-3c1.536 0 2.271 1.381 2.271 3s-.735 2.989-2.271 2.989zM-36.483 0v-5.171a1.911 1.911 0 0 1 2.028-1.912 4.455 4.455 0 0 1 .867.1v-1.592a7.022 7.022 0 0 0-.713-.039 2.2 2.2 0 0 0-2.149 1.481h-.088v-1.353h-1.613V0zM-25.3-4.331c0-3.066-1.84-4.265-3.773-4.265C-31.434-8.6-33-6.8-33-4.188c0 2.636 1.544 4.359 4.047 4.359a3.368 3.368 0 0 0 3.541-2.3H-27.1a1.965 1.965 0 0 1-1.84.934 2.328 2.328 0 0 1-2.4-2.541h6.04zm-6.033-.657a2.288 2.288 0 0 1 2.282-2.238 2.086 2.086 0 0 1 2.11 2.238zM-18.9-9.79a1.022 1.022 0 0 0 1.044-.989 1.022 1.022 0 0 0-1.044-.989 1.025 1.025 0 0 0-1.055.989 1.025 1.025 0 0 0 1.055.989zm.825 9.79v-8.486h-1.669V0zm3.7-5.033A1.914 1.914 0 0 1-12.4-7.155a1.729 1.729 0 0 1 1.79 1.961V0h1.669v-5.4c0-2.094-1.149-3.2-2.89-3.2a2.523 2.523 0 0 0-2.5 1.5h-.1v-1.386h-1.6V0h1.669zM-3.4-10.4a5.092 5.092 0 0 1 .7.055v-1.387a5.874 5.874 0 0 0-1.133-.11 2.256 2.256 0 0 0-2.53 2.381v.978h-1.314v1.331h1.315V0h1.669v-7.155h1.818v-1.331h-1.818v-.74c0-.824.408-1.174 1.293-1.174zM1.881.171C4.273.171 5.837-1.58 5.837-4.2c0-2.645-1.564-4.4-3.956-4.4s-3.967 1.755-3.967 4.4c0 2.62 1.569 4.371 3.967 4.371zm.006-1.392C.334-1.221-.406-2.586-.406-4.21s.74-3 2.293-3c1.536 0 2.271 1.381 2.271 3s-.735 2.989-2.271 2.989zM9.157 0v-5.171a1.911 1.911 0 0 1 2.028-1.912 4.455 4.455 0 0 1 .867.1v-1.592a7.022 7.022 0 0 0-.713-.039 2.2 2.2 0 0 0-2.148 1.481H9.1v-1.353H7.489V0zm5.807 0v-5.227A1.806 1.806 0 0 1 16.7-7.155a1.453 1.453 0 0 1 1.546 1.525V0H19.9v-5.409a1.615 1.615 0 0 1 1.7-1.746 1.471 1.471 0 0 1 1.586 1.63V0h1.669v-5.691c0-1.939-1.088-2.906-2.624-2.906a2.636 2.636 0 0 0-2.547 1.5h-.088a2.287 2.287 0 0 0-2.282-1.5A2.318 2.318 0 0 0 15-7.1h-.1v-1.386h-1.6V0zm15.249-8.6c-2 0-3.315 1.022-3.47 2.425h1.663a1.623 1.623 0 0 1 1.746-1.077c1.138 0 1.729.552 1.729 1.508v.691c-.365.011-1.657.077-2.232.116-1.525.11-3.171.608-3.171 2.536A2.58 2.58 0 0 0 29.345.188a2.649 2.649 0 0 0 2.509-1.348h.066V0h1.624v-5.635c0-2.465-1.978-2.965-3.331-2.965zm-.5 7.453c-.934 0-1.6-.414-1.6-1.232 0-.834.685-1.249 1.773-1.326.4-.028 1.619-.11 2-.133v.773a1.989 1.989 0 0 1-2.171 1.921zm9.1-.221C38.273-1.37 37.8-1.541 37.8-2.5v-4.655h1.729v-1.331H37.8v-2.033h-1.67v2.033h-1.243v1.331h1.243v5A2.234 2.234 0 0 0 38.611.11a6.37 6.37 0 0 0 1.033-.071V-1.4c-.221.013-.592.035-.829.035zM42-9.79a1.022 1.022 0 0 0 1.044-.989A1.022 1.022 0 0 0 42-11.768a1.025 1.025 0 0 0-1.055.989A1.025 1.025 0 0 0 42-9.79zM42.826 0v-8.486h-1.669V0zm5.619.171C50.837.171 52.4-1.58 52.4-4.2c0-2.641-1.564-4.392-3.956-4.392S44.478-6.845 44.478-4.2c0 2.62 1.569 4.371 3.967 4.371zm.006-1.392c-1.552 0-2.293-1.365-2.293-2.989s.74-3 2.293-3c1.536 0 2.271 1.381 2.271 3s-.736 2.989-2.272 2.989zm7.271-3.812a1.914 1.914 0 0 1 1.972-2.122 1.729 1.729 0 0 1 1.79 1.961V0h1.669v-5.4c0-2.094-1.149-3.2-2.889-3.2a2.523 2.523 0 0 0-2.5 1.5h-.1v-1.386h-1.6V0h1.669zM-62.157 2H62.157v1H-62.157z" transform="translate(2395.094 -20194)"/>
            </g>
        </g>
    </g>
    <g id="fc_start_end_link" transform="translate(114 100)">
        <g transform="translate(-114 -100)" style="filter:url(#area)">
            <g id="area-2" data-name="area" class="cls-2" transform="translate(114 100)">
                <rect class="cls-10" width="1108" height="130" rx="65"/>
                <rect class="cls-11" x="1" y="1" width="1106" height="128" rx="64"/>
            </g>
        </g>
        <g id="fc_textlink-2" data-name="fc_textlink" transform="translate(671 79)">
            <g id="stack-2" data-name="stack" transform="translate(-2524.094 20210)">
                <g id="ico_fc_pop_up" transform="translate(2461.409 -20209)">
                    <g id="그룹_1025-2" data-name="그룹 1025" transform="translate(-1101.074 -1125)">
                        <g id="그룹_1026" data-name="그룹 1026" transform="translate(1108.074 1129)">
                            <path id="사각형_878" data-name="사각형 878" style="stroke:#326f5e;stroke-width:1.5px;fill:#fff" d="M0 0h9v9H0z"/>
                        </g>
                        <path id="패스_6896" data-name="패스 6896" class="cls-5" d="M1104.574 1132.941v9h9" transform="translate(.5 -.941)"/>
                    </g>
                </g>
                <path id="패스_11049" data-name="패스 11049" class="cls-6" d="M-61.008 0h1.646v-8.182h.094l3.326 8.166h1.359l3.326-8.149h.1V0h1.641v-11.315H-51.6l-3.586 8.768h-.133l-3.591-8.768h-2.094zm17.248.171c2.393 0 3.96-1.751 3.96-4.371 0-2.641-1.564-4.392-3.956-4.392s-3.971 1.747-3.971 4.392c0 2.62 1.57 4.371 3.967 4.371zm.006-1.392c-1.552 0-2.293-1.365-2.293-2.989s.74-3 2.293-3c1.536 0 2.271 1.381 2.271 3s-.735 2.989-2.271 2.989zM-36.483 0v-5.171a1.911 1.911 0 0 1 2.028-1.912 4.455 4.455 0 0 1 .867.1v-1.592a7.022 7.022 0 0 0-.713-.039 2.2 2.2 0 0 0-2.149 1.481h-.088v-1.353h-1.613V0zM-25.3-4.331c0-3.066-1.84-4.265-3.773-4.265C-31.434-8.6-33-6.8-33-4.188c0 2.636 1.544 4.359 4.047 4.359a3.368 3.368 0 0 0 3.541-2.3H-27.1a1.965 1.965 0 0 1-1.84.934 2.328 2.328 0 0 1-2.4-2.541h6.04zm-6.033-.657a2.288 2.288 0 0 1 2.282-2.238 2.086 2.086 0 0 1 2.11 2.238zM-18.9-9.79a1.022 1.022 0 0 0 1.044-.989 1.022 1.022 0 0 0-1.044-.989 1.025 1.025 0 0 0-1.055.989 1.025 1.025 0 0 0 1.055.989zm.825 9.79v-8.486h-1.669V0zm3.7-5.033A1.914 1.914 0 0 1-12.4-7.155a1.729 1.729 0 0 1 1.79 1.961V0h1.669v-5.4c0-2.094-1.149-3.2-2.89-3.2a2.523 2.523 0 0 0-2.5 1.5h-.1v-1.386h-1.6V0h1.669zM-3.4-10.4a5.092 5.092 0 0 1 .7.055v-1.387a5.874 5.874 0 0 0-1.133-.11 2.256 2.256 0 0 0-2.53 2.381v.978h-1.314v1.331h1.315V0h1.669v-7.155h1.818v-1.331h-1.818v-.74c0-.824.408-1.174 1.293-1.174zM1.881.171C4.273.171 5.837-1.58 5.837-4.2c0-2.645-1.564-4.4-3.956-4.4s-3.967 1.755-3.967 4.4c0 2.62 1.569 4.371 3.967 4.371zm.006-1.392C.334-1.221-.406-2.586-.406-4.21s.74-3 2.293-3c1.536 0 2.271 1.381 2.271 3s-.735 2.989-2.271 2.989zM9.157 0v-5.171a1.911 1.911 0 0 1 2.028-1.912 4.455 4.455 0 0 1 .867.1v-1.592a7.022 7.022 0 0 0-.713-.039 2.2 2.2 0 0 0-2.148 1.481H9.1v-1.353H7.489V0zm5.807 0v-5.227A1.806 1.806 0 0 1 16.7-7.155a1.453 1.453 0 0 1 1.546 1.525V0H19.9v-5.409a1.615 1.615 0 0 1 1.7-1.746 1.471 1.471 0 0 1 1.586 1.63V0h1.669v-5.691c0-1.939-1.088-2.906-2.624-2.906a2.636 2.636 0 0 0-2.547 1.5h-.088a2.287 2.287 0 0 0-2.282-1.5A2.318 2.318 0 0 0 15-7.1h-.1v-1.386h-1.6V0zm15.249-8.6c-2 0-3.315 1.022-3.47 2.425h1.663a1.623 1.623 0 0 1 1.746-1.077c1.138 0 1.729.552 1.729 1.508v.691c-.365.011-1.657.077-2.232.116-1.525.11-3.171.608-3.171 2.536A2.58 2.58 0 0 0 29.345.188a2.649 2.649 0 0 0 2.509-1.348h.066V0h1.624v-5.635c0-2.465-1.978-2.965-3.331-2.965zm-.5 7.453c-.934 0-1.6-.414-1.6-1.232 0-.834.685-1.249 1.773-1.326.4-.028 1.619-.11 2-.133v.773a1.989 1.989 0 0 1-2.171 1.921zm9.1-.221C38.273-1.37 37.8-1.541 37.8-2.5v-4.655h1.729v-1.331H37.8v-2.033h-1.67v2.033h-1.243v1.331h1.243v5A2.234 2.234 0 0 0 38.611.11a6.37 6.37 0 0 0 1.033-.071V-1.4c-.221.013-.592.035-.829.035zM42-9.79a1.022 1.022 0 0 0 1.044-.989A1.022 1.022 0 0 0 42-11.768a1.025 1.025 0 0 0-1.055.989A1.025 1.025 0 0 0 42-9.79zM42.826 0v-8.486h-1.669V0zm5.619.171C50.837.171 52.4-1.58 52.4-4.2c0-2.641-1.564-4.392-3.956-4.392S44.478-6.845 44.478-4.2c0 2.62 1.569 4.371 3.967 4.371zm.006-1.392c-1.552 0-2.293-1.365-2.293-2.989s.74-3 2.293-3c1.536 0 2.271 1.381 2.271 3s-.736 2.989-2.272 2.989zm7.271-3.812a1.914 1.914 0 0 1 1.972-2.122 1.729 1.729 0 0 1 1.79 1.961V0h1.669v-5.4c0-2.094-1.149-3.2-2.889-3.2a2.523 2.523 0 0 0-2.5 1.5h-.1v-1.386h-1.6V0h1.669zM-62.157 2H62.157v1H-62.157z" transform="translate(2395.094 -20194)"/>
            </g>
        </g>
        <path id="패스_11048" data-name="패스 11048" class="cls-3" d="M145.59 6.028V23h3.522V6.028zm11.01 17.179a3.785 3.785 0 0 0 3.622-2.238h.149V23h3.414V6.028h-3.464v6.381h-.1a3.757 3.757 0 0 0-3.63-2.3c-2.809 0-5.171 2.188-5.171 6.547-.004 4.244 2.258 6.551 5.18 6.551zm1.086-2.768c-1.765 0-2.718-1.558-2.718-3.8 0-2.229.936-3.754 2.718-3.754 1.732 0 2.71 1.459 2.71 3.754s-.996 3.8-2.715 3.8zm20.494-3.878c0-4.343-2.635-6.456-5.975-6.456-3.729 0-6.157 2.66-6.157 6.588 0 4.036 2.4 6.555 6.3 6.555 3.141 0 5.246-1.525 5.743-3.87h-3.3a2.468 2.468 0 0 1-2.387 1.268 2.813 2.813 0 0 1-2.925-3.116h8.7zm-8.7-1.2a2.753 2.753 0 0 1 2.793-2.66 2.558 2.558 0 0 1 2.635 2.66zm14.354.273a2.373 2.373 0 0 1 2.445-2.644 2.2 2.2 0 0 1 2.279 2.511V23h3.472v-8.1c0-2.975-1.732-4.79-4.384-4.79a3.843 3.843 0 0 0-3.829 2.4h-.149v-2.239h-3.307V23h3.472zm16.392 4.74c-.713-.025-1.21-.265-1.21-1.276v-6.217h2.4v-2.61h-2.4v-3.05h-3.472v3.05h-1.749v2.61h1.749v6.688c-.017 2.478 1.691 3.6 4.21 3.6a11.971 11.971 0 0 0 1.831-.124v-2.73c-.421.025-1.026.066-1.365.058zm5.1-11.768a1.833 1.833 0 0 0 1.89-1.765 1.894 1.894 0 0 0-3.779 0 1.833 1.833 0 0 0 1.879 1.759zM207.048 23V10.271h-3.472V23zm8.66-14.992a8.321 8.321 0 0 1 1.069.075V5.439a9.7 9.7 0 0 0-2.08-.207c-2.544 0-4.16 1.4-4.16 4.086v.953h-1.807v2.61h1.807V23h3.472V12.881h2.536v-2.61h-2.535v-.779c0-1.053.59-1.484 1.699-1.484zm4.906 19.765a4.6 4.6 0 0 0 4.8-3.373l4.964-14.13h-3.671l-2.693 9.381h-.133l-2.669-9.381h-3.655l4.575 13.086-.2.539a1.481 1.481 0 0 1-1.674 1.16c-.431 0-.961-.008-1.4-.041l-.008 2.7c.455.043 1.093.059 1.765.059zM233.808 8.6a1.833 1.833 0 0 0 1.892-1.76 1.894 1.894 0 0 0-3.779 0 1.833 1.833 0 0 0 1.887 1.76zM235.54 23V10.271h-3.472V23zm6.174-7.367a2.373 2.373 0 0 1 2.445-2.644 2.2 2.2 0 0 1 2.279 2.511V23h3.472v-8.1c0-2.975-1.732-4.79-4.384-4.79a3.843 3.843 0 0 0-3.829 2.4h-.149v-2.239h-3.307V23h3.472zM258.3 28.039c3.622 0 6.182-1.649 6.182-4.906V10.271h-3.431v2.138h-.141a3.77 3.77 0 0 0-3.638-2.3c-2.809 0-5.171 2.146-5.171 6.456 0 4.235 2.3 6.257 5.18 6.257a3.718 3.718 0 0 0 3.638-2.08h.149v2.345c0 1.765-1.077 2.445-2.693 2.445-1.376 0-2.337-.456-2.528-1.483h-3.423c.204 2.415 2.367 3.99 5.876 3.99zm.066-7.831c-1.765 0-2.718-1.4-2.718-3.613 0-2.188.936-3.713 2.718-3.713 1.732 0 2.71 1.459 2.71 3.713s-.997 3.612-2.713 3.612zM278.916 23l2.2-8.08h.166L283.5 23h3.655l3.481-12.729h-3.516l-1.964 8.544h-.116l-2.1-8.544h-3.448l-2.088 8.6h-.116l-2-8.6h-3.514L275.253 23zm16.939-7.367a2.4 2.4 0 0 1 2.486-2.644 2.2 2.2 0 0 1 2.3 2.511V23h3.472v-8.1c0-2.992-1.749-4.79-4.4-4.79a3.759 3.759 0 0 0-3.8 2.4h-.149V6.028h-3.373V23h3.472zm22.533.928c0-4.343-2.635-6.456-5.975-6.456-3.729 0-6.157 2.66-6.157 6.588 0 4.036 2.4 6.555 6.3 6.555 3.141 0 5.246-1.525 5.743-3.87H315a2.468 2.468 0 0 1-2.387 1.268 2.813 2.813 0 0 1-2.925-3.116h8.7zm-8.7-1.2a2.753 2.753 0 0 1 2.793-2.66 2.558 2.558 0 0 1 2.635 2.66zm16.412 5.012c-.713-.025-1.21-.265-1.21-1.276v-6.216h2.4v-2.61h-2.4v-3.05h-3.472v3.05h-1.749v2.61h1.749v6.688c-.017 2.478 1.691 3.6 4.21 3.6a11.971 11.971 0 0 0 1.831-.124v-2.73c-.419.025-1.024.066-1.359.058zm7.094-4.74a2.4 2.4 0 0 1 2.486-2.644 2.2 2.2 0 0 1 2.3 2.511V23h3.472v-8.1c0-2.992-1.749-4.79-4.4-4.79a3.759 3.759 0 0 0-3.8 2.4h-.149V6.028h-3.373V23h3.472zm22.533.928c0-4.343-2.635-6.456-5.975-6.456-3.729 0-6.157 2.66-6.157 6.588 0 4.036 2.4 6.555 6.3 6.555 3.141 0 5.246-1.525 5.743-3.87h-3.3a2.468 2.468 0 0 1-2.387 1.268 2.813 2.813 0 0 1-2.925-3.116h8.7zm-8.7-1.2a2.753 2.753 0 0 1 2.793-2.66 2.558 2.558 0 0 1 2.635 2.66zM361.374 23v-7.235a2.592 2.592 0 0 1 2.718-2.66 6.212 6.212 0 0 1 1.483.191V10.2a6.64 6.64 0 0 0-1.11-.108 3.1 3.1 0 0 0-3.066 2.4h-.133v-2.221H357.9V23zm14.9 0v-7.649a2.163 2.163 0 0 1 2.1-2.378 1.9 1.9 0 0 1 1.972 2.055V23h3.354v-7.79a2.014 2.014 0 0 1 2.072-2.238 1.908 1.908 0 0 1 2 2.138V23h3.472v-8.561c0-2.768-1.657-4.334-4.019-4.334a3.85 3.85 0 0 0-3.829 2.4h-.133a3.372 3.372 0 0 0-3.456-2.4 3.576 3.576 0 0 0-3.547 2.4h-.149v-2.234H372.8V23zm29.238-6.439c0-4.343-2.635-6.456-5.975-6.456-3.729 0-6.157 2.66-6.157 6.588 0 4.036 2.4 6.555 6.3 6.555 3.141 0 5.246-1.525 5.743-3.87h-3.3a2.468 2.468 0 0 1-2.387 1.268 2.813 2.813 0 0 1-2.925-3.116h8.7zm-8.7-1.2A2.753 2.753 0 0 1 399.6 12.7a2.558 2.558 0 0 1 2.635 2.66zM411.164 23v-7.649a2.163 2.163 0 0 1 2.1-2.378 1.9 1.9 0 0 1 1.972 2.055V23h3.356v-7.79a2.014 2.014 0 0 1 2.072-2.238 1.908 1.908 0 0 1 2 2.138V23h3.472v-8.561c0-2.768-1.657-4.334-4.019-4.334a3.85 3.85 0 0 0-3.829 2.4h-.133a3.372 3.372 0 0 0-3.456-2.4 3.576 3.576 0 0 0-3.547 2.4H411v-2.234h-3.307V23zm21.124 0v-2.03h.149a3.785 3.785 0 0 0 3.622 2.238c2.917 0 5.18-2.3 5.18-6.555 0-4.359-2.362-6.547-5.171-6.547a3.766 3.766 0 0 0-3.63 2.3h-.1V6.028h-3.464V23zm-.025-6.365c0-2.3.978-3.754 2.71-3.754 1.782 0 2.718 1.525 2.718 3.754 0 2.246-.953 3.8-2.718 3.8-1.715.004-2.709-1.512-2.709-3.8zm22.807-.075c0-4.343-2.635-6.456-5.975-6.456-3.729 0-6.157 2.66-6.157 6.588 0 4.036 2.4 6.555 6.3 6.555 3.141 0 5.246-1.525 5.743-3.87h-3.3a2.468 2.468 0 0 1-2.387 1.268 2.813 2.813 0 0 1-2.925-3.116h8.7zm-8.7-1.2a2.753 2.753 0 0 1 2.793-2.66 2.558 2.558 0 0 1 2.635 2.66zM460.722 23v-7.235a2.592 2.592 0 0 1 2.718-2.66 6.212 6.212 0 0 1 1.483.191V10.2a6.64 6.64 0 0 0-1.11-.108 3.1 3.1 0 0 0-3.066 2.4h-.133v-2.221h-3.364V23zm17.163.249c3.365 0 5.486-1.981 5.652-4.873h-3.273a2.284 2.284 0 0 1-2.345 2.113c-1.674 0-2.76-1.4-2.76-3.854 0-2.428 1.094-3.82 2.76-3.82a2.3 2.3 0 0 1 2.345 2.13h3.273c-.157-2.925-2.378-4.84-5.668-4.84-3.845 0-6.24 2.677-6.24 6.58-.001 3.87 2.345 6.564 6.256 6.564zm13.525 0c3.845 0 6.24-2.644 6.24-6.564 0-3.945-2.4-6.58-6.24-6.58s-6.257 2.635-6.257 6.58c0 3.915 2.404 6.564 6.257 6.564zm.017-2.693c-1.815 0-2.743-1.657-2.743-3.9s.928-3.9 2.743-3.9c1.773 0 2.7 1.674 2.7 3.9s-.927 3.899-2.7 3.899zM503.311 23v-7.649a2.163 2.163 0 0 1 2.1-2.378 1.9 1.9 0 0 1 1.972 2.055V23h3.356v-7.79a2.014 2.014 0 0 1 2.072-2.238 1.908 1.908 0 0 1 2 2.138V23h3.472v-8.561c0-2.768-1.657-4.334-4.019-4.334a3.85 3.85 0 0 0-3.829 2.4h-.135a3.372 3.372 0 0 0-3.456-2.4 3.576 3.576 0 0 0-3.547 2.4h-.149v-2.234h-3.307V23zm21.1 4.773v-6.8h.108a3.777 3.777 0 0 0 3.622 2.238c2.909 0 5.171-2.3 5.171-6.555 0-4.359-2.354-6.547-5.171-6.547a3.753 3.753 0 0 0-3.622 2.3h-.157v-2.138h-3.423v17.5zm-.075-11.138c0-2.3.97-3.754 2.718-3.754 1.773 0 2.71 1.525 2.71 3.754 0 2.246-.953 3.8-2.71 3.8-1.732.004-2.718-1.512-2.718-3.8zm16.55-6.53c-3.381 0-5.3 1.74-5.5 3.953h3.29a1.925 1.925 0 0 1 2.13-1.409c1.285 0 2.014.613 2.022 1.691v1.028c-.53.017-2.254.091-3.157.149-2.445.157-4.732 1.077-4.732 3.928 0 2.511 1.807 3.8 4.235 3.8a3.906 3.906 0 0 0 3.721-2.006h.1V23h3.29v-8.577c-.005-3.067-2.623-4.323-5.4-4.323zm-.729 10.724c-1.111 0-1.9-.506-1.9-1.492s.762-1.55 1.972-1.649c.6-.058 2.1-.141 2.61-.166v.928a2.463 2.463 0 0 1-2.683 2.379zm12.232-5.2a2.373 2.373 0 0 1 2.445-2.644 2.2 2.2 0 0 1 2.279 2.511V23h3.472v-8.1c0-2.975-1.732-4.79-4.384-4.79a3.843 3.843 0 0 0-3.829 2.4h-.149v-2.239h-3.307V23h3.472zm12.6-7.028a1.833 1.833 0 0 0 1.889-1.765 1.894 1.894 0 0 0-3.779 0 1.833 1.833 0 0 0 1.894 1.764zM566.725 23V10.271h-3.472V23zm14.312-6.439c0-4.343-2.635-6.456-5.975-6.456-3.729 0-6.157 2.66-6.157 6.588 0 4.036 2.4 6.555 6.3 6.555 3.141 0 5.246-1.525 5.743-3.87h-3.3a2.468 2.468 0 0 1-2.387 1.268 2.813 2.813 0 0 1-2.925-3.116h8.7zm-8.7-1.2a2.753 2.753 0 0 1 2.793-2.66 2.558 2.558 0 0 1 2.635 2.66zm21.406-1.3c-.182-2.428-2.171-3.953-5.4-3.953-3.273 0-5.37 1.525-5.362 3.97-.008 1.881 1.235 3.133 3.671 3.613l2.1.414c1.193.249 1.724.655 1.732 1.318-.008.82-.845 1.318-2.1 1.318-1.285 0-2.088-.514-2.262-1.508h-3.481c.282 2.486 2.3 4.019 5.743 4.019 3.381 0 5.627-1.674 5.635-4.177-.008-1.84-1.2-2.942-3.663-3.448l-2.3-.464c-1.193-.257-1.641-.7-1.633-1.285-.008-.762.845-1.293 1.972-1.293a1.887 1.887 0 0 1 2.088 1.475zm3.133-8.022-1.169 6.671h2.486l2.022-6.671zM609.745 8.6a1.833 1.833 0 0 0 1.889-1.765 1.894 1.894 0 0 0-3.779 0 1.833 1.833 0 0 0 1.89 1.765zm1.732 14.4V10.271H608V23zm6.174-7.367a2.373 2.373 0 0 1 2.445-2.644 2.2 2.2 0 0 1 2.279 2.511V23h3.472v-8.1c0-2.975-1.732-4.79-4.384-4.79a3.843 3.843 0 0 0-3.829 2.4h-.149v-2.239h-3.307V23h3.472zm16.392 4.74c-.713-.025-1.21-.265-1.21-1.276v-6.216h2.4v-2.61h-2.4v-3.05h-3.473v3.05h-1.749v2.61h1.749v6.688c-.017 2.478 1.691 3.6 4.21 3.6a11.971 11.971 0 0 0 1.831-.124v-2.73c-.413.025-1.018.066-1.358.058zm14.834-3.812c0-4.343-2.635-6.456-5.975-6.456-3.729 0-6.157 2.66-6.157 6.588 0 4.036 2.4 6.555 6.3 6.555 3.141 0 5.246-1.525 5.743-3.87h-3.3a2.468 2.468 0 0 1-2.387 1.268 2.813 2.813 0 0 1-2.925-3.116h8.7zm-8.7-1.2a2.753 2.753 0 0 1 2.793-2.66 2.558 2.558 0 0 1 2.635 2.66zM654.529 23v-7.235a2.592 2.592 0 0 1 2.718-2.66 6.212 6.212 0 0 1 1.483.191V10.2a6.641 6.641 0 0 0-1.11-.108 3.1 3.1 0 0 0-3.066 2.4h-.133v-2.221h-3.365V23zm9.365-7.367a2.373 2.373 0 0 1 2.445-2.644 2.2 2.2 0 0 1 2.279 2.511V23h3.472v-8.1c0-2.975-1.732-4.79-4.384-4.79a3.843 3.843 0 0 0-3.829 2.4h-.149v-2.239h-3.307V23h3.472zm16.218-5.533c-3.381 0-5.3 1.74-5.5 3.953h3.29a1.925 1.925 0 0 1 2.13-1.409c1.285 0 2.014.613 2.022 1.691v1.028c-.53.017-2.254.091-3.157.149-2.445.157-4.732 1.077-4.732 3.928 0 2.511 1.807 3.8 4.235 3.8a3.906 3.906 0 0 0 3.721-2.006h.1V23h3.29v-8.577c-.004-3.067-2.623-4.323-5.399-4.323zm-.729 10.724c-1.111 0-1.9-.506-1.9-1.492s.762-1.55 1.972-1.649c.6-.058 2.1-.141 2.61-.166v.928a2.463 2.463 0 0 1-2.682 2.384zm8.76-14.8V23h3.472V6.028zm16.409 17.18a3.785 3.785 0 0 0 3.622-2.238h.149V23h3.414V6.028h-3.464v6.381h-.1a3.757 3.757 0 0 0-3.63-2.3c-2.809 0-5.171 2.188-5.171 6.547 0 4.244 2.262 6.551 5.179 6.551zm1.086-2.768c-1.765 0-2.718-1.558-2.718-3.8 0-2.229.936-3.754 2.718-3.754 1.732 0 2.71 1.459 2.71 3.754s-.996 3.803-2.711 3.803zM719.874 10.1c-3.381 0-5.3 1.74-5.5 3.953h3.29a1.925 1.925 0 0 1 2.13-1.409c1.285 0 2.014.613 2.022 1.691v1.028c-.53.017-2.254.091-3.157.149-2.445.157-4.732 1.077-4.732 3.928 0 2.511 1.807 3.8 4.235 3.8a3.906 3.906 0 0 0 3.721-2.006h.1V23h3.29v-8.577c-.004-3.067-2.622-4.323-5.399-4.323zm-.729 10.724c-1.111 0-1.9-.506-1.9-1.492s.762-1.55 1.972-1.649c.6-.058 2.1-.141 2.61-.166v.928a2.463 2.463 0 0 1-2.682 2.384zm14.287-.456c-.713-.025-1.21-.265-1.21-1.276v-6.211h2.4v-2.61h-2.4v-3.05h-3.472v3.05H727v2.61h1.749v6.688c-.017 2.478 1.691 3.6 4.21 3.6a11.971 11.971 0 0 0 1.831-.124v-2.73c-.413.025-1.018.066-1.358.058zm8.71-10.268c-3.381 0-5.3 1.74-5.5 3.953h3.29a1.925 1.925 0 0 1 2.13-1.409c1.285 0 2.014.613 2.022 1.691v1.028c-.53.017-2.254.091-3.157.149-2.445.157-4.732 1.077-4.732 3.928 0 2.511 1.807 3.8 4.235 3.8a3.906 3.906 0 0 0 3.721-2.006h.1V23h3.29v-8.577c-.004-3.067-2.623-4.323-5.399-4.323zm-.729 10.724c-1.111 0-1.9-.506-1.9-1.492s.762-1.55 1.972-1.649c.6-.058 2.1-.141 2.61-.166v.928a2.463 2.463 0 0 1-2.682 2.384zM757.449 8.6a1.833 1.833 0 0 0 1.889-1.765 1.894 1.894 0 0 0-3.779 0 1.833 1.833 0 0 0 1.89 1.765zm1.732 14.4V10.271h-3.472V23zm13.227-8.942c-.182-2.428-2.171-3.953-5.4-3.953-3.273 0-5.37 1.525-5.362 3.97-.008 1.881 1.235 3.133 3.671 3.613l2.1.414c1.193.249 1.724.655 1.732 1.318-.008.82-.845 1.318-2.1 1.318-1.285 0-2.088-.514-2.262-1.508h-3.481c.282 2.486 2.3 4.019 5.743 4.019 3.381 0 5.627-1.674 5.635-4.177-.008-1.84-1.2-2.942-3.663-3.448l-2.3-.464c-1.193-.257-1.641-.7-1.633-1.285-.008-.762.845-1.293 1.972-1.293a1.887 1.887 0 0 1 2.088 1.475zM783.852 23v-2.03H784a3.785 3.785 0 0 0 3.622 2.238c2.917 0 5.18-2.3 5.18-6.555 0-4.359-2.362-6.547-5.171-6.547a3.766 3.766 0 0 0-3.63 2.3h-.1V6.028h-3.464V23zm-.025-6.365c0-2.3.978-3.754 2.71-3.754 1.782 0 2.718 1.525 2.718 3.754 0 2.246-.953 3.8-2.718 3.8-1.715.004-2.71-1.512-2.71-3.8zm22.807-.075c0-4.343-2.635-6.456-5.975-6.456-3.729 0-6.157 2.66-6.157 6.588 0 4.036 2.4 6.555 6.3 6.555 3.141 0 5.246-1.525 5.743-3.87h-3.3a2.468 2.468 0 0 1-2.387 1.268 2.813 2.813 0 0 1-2.925-3.116h8.7zm-8.7-1.2a2.753 2.753 0 0 1 2.793-2.66 2.558 2.558 0 0 1 2.635 2.66zm12.62-6.76a1.833 1.833 0 0 0 1.889-1.765 1.894 1.894 0 0 0-3.779 0 1.833 1.833 0 0 0 1.89 1.765zm1.732 14.4V10.271h-3.472V23zm6.174-7.367a2.373 2.373 0 0 1 2.445-2.644 2.2 2.2 0 0 1 2.279 2.511V23h3.472v-8.1c0-2.975-1.732-4.79-4.384-4.79a3.843 3.843 0 0 0-3.829 2.4h-.149v-2.239h-3.307V23h3.472zm16.583 12.406c3.622 0 6.182-1.649 6.182-4.906V10.271h-3.431v2.138h-.141a3.77 3.77 0 0 0-3.638-2.3c-2.809 0-5.171 2.146-5.171 6.456 0 4.235 2.3 6.257 5.18 6.257a3.718 3.718 0 0 0 3.638-2.08h.149v2.345c0 1.765-1.077 2.445-2.693 2.445-1.376 0-2.337-.456-2.528-1.483h-3.423c.207 2.415 2.37 3.99 5.876 3.99zm.066-7.831c-1.765 0-2.718-1.4-2.718-3.613 0-2.188.936-3.713 2.718-3.713 1.732 0 2.71 1.459 2.71 3.713s-.994 3.612-2.71 3.612zm22.525-2.627a2.439 2.439 0 0 1-2.461 2.644 2.193 2.193 0 0 1-2.229-2.453v-7.5h-3.472v8.1c.008 2.983 1.749 4.79 4.309 4.79a3.908 3.908 0 0 0 3.854-2.47h.133V23h3.332V10.271h-3.464zm16.691-3.522c-.182-2.428-2.171-3.953-5.4-3.953-3.273 0-5.37 1.525-5.362 3.97-.008 1.881 1.235 3.133 3.671 3.613l2.1.414c1.193.249 1.724.655 1.732 1.318-.008.82-.845 1.318-2.1 1.318-1.285 0-2.088-.514-2.262-1.508h-3.481c.282 2.486 2.3 4.019 5.743 4.019 3.381 0 5.627-1.674 5.635-4.177-.008-1.84-1.2-2.942-3.663-3.448l-2.3-.464c-1.193-.257-1.641-.7-1.633-1.285-.008-.762.845-1.293 1.972-1.293a1.887 1.887 0 0 1 2.088 1.475zm14.022 2.5c0-4.343-2.635-6.456-5.975-6.456-3.729 0-6.157 2.66-6.157 6.588 0 4.036 2.4 6.555 6.3 6.555 3.141 0 5.246-1.525 5.743-3.87h-3.3a2.468 2.468 0 0 1-2.387 1.268 2.813 2.813 0 0 1-2.925-3.116h8.7zm-8.7-1.2a2.753 2.753 0 0 1 2.793-2.66 2.558 2.558 0 0 1 2.635 2.66zm15.58 7.848a3.785 3.785 0 0 0 3.622-2.238H899V23h3.414V6.028h-3.464v6.381h-.1a3.757 3.757 0 0 0-3.63-2.3c-2.809 0-5.171 2.188-5.171 6.547-.003 4.244 2.259 6.551 5.176 6.551zm1.086-2.768c-1.765 0-2.718-1.558-2.718-3.8 0-2.229.936-3.754 2.718-3.754 1.732 0 2.71 1.459 2.71 3.754s-.997 3.8-2.712 3.8z" transform="translate(30 36)"/>
    </g>
    <g id="fc_box_medium_no_btn" transform="translate(114 594)">
        <g transform="translate(-114 -594)" style="filter:url(#box-2)">
            <g id="box-5" data-name="box" style="fill:#eee;stroke:#999;stroke-width:2px">
                <path class="cls-10" d="M0 0h538v164H0z" transform="translate(114 594)"/>
                <path class="cls-11" d="M1 1h536v162H1z" transform="translate(114 594)"/>
            </g>
        </g>
        <path id="패스_11058" data-name="패스 11058" class="cls-3" d="M134.974 6.028h-6.041V23h5.983c5.171 0 8.3-3.2 8.3-8.5-.005-5.29-3.129-8.472-8.242-8.472zm-2.519 13.948V9.052h2.329c3.207 0 4.906 1.666 4.906 5.445 0 3.8-1.7 5.478-4.923 5.478zm18.945 3.273c3.845 0 6.24-2.644 6.24-6.564 0-3.945-2.4-6.58-6.24-6.58s-6.257 2.635-6.257 6.58c-.001 3.915 2.403 6.564 6.257 6.564zm.017-2.693c-1.815 0-2.743-1.657-2.743-3.9s.928-3.9 2.743-3.9c1.773 0 2.7 1.674 2.7 3.9s-.928 3.899-2.701 3.899zm18.936-6.5c-.182-2.428-2.171-3.953-5.4-3.953-3.273 0-5.37 1.525-5.362 3.97-.008 1.881 1.235 3.133 3.671 3.613l2.1.414c1.193.249 1.724.655 1.732 1.318-.008.82-.845 1.318-2.1 1.318-1.285 0-2.088-.514-2.262-1.508h-3.481c.282 2.486 2.3 4.019 5.743 4.019 3.381 0 5.627-1.674 5.635-4.177-.008-1.84-1.2-2.942-3.663-3.448l-2.3-.464c-1.193-.257-1.641-.7-1.633-1.285-.008-.762.845-1.293 1.972-1.293a1.887 1.887 0 0 1 2.088 1.475zm12.936 0c-.182-2.428-2.171-3.953-5.4-3.953-3.273 0-5.37 1.525-5.362 3.97-.008 1.881 1.235 3.133 3.671 3.613l2.1.414c1.193.249 1.724.655 1.732 1.318-.008.82-.845 1.318-2.1 1.318-1.285 0-2.088-.514-2.262-1.508h-3.481c.282 2.486 2.3 4.019 5.743 4.019 3.381 0 5.627-1.674 5.635-4.177-.008-1.84-1.2-2.942-3.663-3.448l-2.3-.464c-1.193-.257-1.641-.7-1.633-1.285-.008-.762.845-1.293 1.972-1.293a1.887 1.887 0 0 1 2.088 1.475zm4.152-5.456a1.833 1.833 0 0 0 1.89-1.765 1.894 1.894 0 0 0-3.779 0 1.833 1.833 0 0 0 1.889 1.765zm1.732 14.4V10.271H185.7V23zm14.312-6.439c0-4.343-2.635-6.456-5.975-6.456-3.729 0-6.157 2.66-6.157 6.588 0 4.036 2.4 6.555 6.3 6.555 3.141 0 5.246-1.525 5.743-3.87h-3.3a2.468 2.468 0 0 1-2.387 1.268 2.813 2.813 0 0 1-2.925-3.116h8.7zm-8.7-1.2a2.753 2.753 0 0 1 2.793-2.66 2.558 2.558 0 0 1 2.635 2.66zM209.137 23v-7.235a2.592 2.592 0 0 1 2.718-2.66 6.213 6.213 0 0 1 1.483.191V10.2a6.64 6.64 0 0 0-1.11-.108 3.1 3.1 0 0 0-3.066 2.4h-.133v-2.221h-3.365V23zm14.9 4.773v-6.8h.108a3.776 3.776 0 0 0 3.622 2.238c2.909 0 5.171-2.3 5.171-6.555 0-4.359-2.354-6.547-5.171-6.547a3.753 3.753 0 0 0-3.622 2.3h-.157v-2.138h-3.423v17.5zm-.075-11.138c0-2.3.97-3.754 2.718-3.754 1.773 0 2.71 1.525 2.71 3.754 0 2.246-.953 3.8-2.71 3.8-1.731.004-2.717-1.512-2.717-3.8zM238.631 23v-7.235a2.592 2.592 0 0 1 2.718-2.66 6.213 6.213 0 0 1 1.483.191V10.2a6.64 6.64 0 0 0-1.11-.108 3.1 3.1 0 0 0-3.066 2.4h-.133v-2.221h-3.365V23zm17.1-6.439c0-4.343-2.635-6.456-5.975-6.456-3.729 0-6.157 2.66-6.157 6.588 0 4.036 2.4 6.555 6.3 6.555 3.141 0 5.246-1.525 5.743-3.87h-3.3a2.468 2.468 0 0 1-2.387 1.268 2.813 2.813 0 0 1-2.925-3.116h8.7zm-8.7-1.2a2.753 2.753 0 0 1 2.793-2.66 2.558 2.558 0 0 1 2.635 2.66zm14.354 12.414v-6.8h.108a3.777 3.777 0 0 0 3.622 2.238c2.909 0 5.171-2.3 5.171-6.555 0-4.359-2.354-6.547-5.171-6.547a3.753 3.753 0 0 0-3.622 2.3h-.157v-2.14h-3.423v17.5zm-.075-11.138c0-2.3.97-3.754 2.718-3.754 1.773 0 2.71 1.525 2.71 3.754 0 2.246-.953 3.8-2.71 3.8-1.728.002-2.714-1.514-2.714-3.802zm16.55-6.53c-3.381 0-5.3 1.74-5.5 3.953h3.29a1.925 1.925 0 0 1 2.13-1.409c1.285 0 2.014.613 2.022 1.691v1.028c-.53.017-2.254.091-3.157.149-2.445.157-4.732 1.077-4.732 3.928 0 2.511 1.807 3.8 4.235 3.8a3.906 3.906 0 0 0 3.721-2.006h.1V23h3.29v-8.577c-.001-3.067-2.62-4.323-5.396-4.323zm-.729 10.724c-1.111 0-1.9-.506-1.9-1.492s.762-1.55 1.972-1.649c.6-.058 2.1-.141 2.611-.166v.928a2.463 2.463 0 0 1-2.68 2.377zM289.366 23v-7.235a2.592 2.592 0 0 1 2.718-2.66 6.213 6.213 0 0 1 1.483.191V10.2a6.641 6.641 0 0 0-1.111-.108 3.1 3.1 0 0 0-3.066 2.4h-.133v-2.221h-3.365V23zm10.9-12.9c-3.381 0-5.3 1.74-5.5 3.953h3.29a1.925 1.925 0 0 1 2.13-1.409c1.285 0 2.014.613 2.022 1.691v1.028c-.53.017-2.254.091-3.157.149-2.445.157-4.732 1.077-4.732 3.928 0 2.511 1.807 3.8 4.235 3.8a3.906 3.906 0 0 0 3.721-2.006h.1V23h3.29v-8.577c-.006-3.067-2.625-4.323-5.401-4.323zm-.729 10.724c-1.111 0-1.9-.506-1.9-1.492s.762-1.55 1.972-1.649c.6-.058 2.1-.141 2.611-.166v.928a2.463 2.463 0 0 1-2.685 2.384zm14.287-.456c-.713-.025-1.21-.265-1.21-1.276v-6.211h2.4v-2.61h-2.4v-3.05h-3.472v3.05h-1.749v2.61h1.749v6.688c-.017 2.478 1.691 3.6 4.21 3.6a11.971 11.971 0 0 0 1.831-.124v-2.73c-.416.025-1.021.066-1.361.058zm5.1-11.768a1.833 1.833 0 0 0 1.889-1.765 1.894 1.894 0 0 0-3.779 0 1.833 1.833 0 0 0 1.885 1.765zm1.727 14.4V10.271h-3.472V23zm8.436.249c3.845 0 6.24-2.644 6.24-6.564 0-3.945-2.4-6.58-6.24-6.58s-6.257 2.635-6.257 6.58c0 3.915 2.403 6.564 6.257 6.564zm.017-2.693c-1.815 0-2.743-1.657-2.743-3.9s.928-3.9 2.743-3.9c1.773 0 2.7 1.674 2.7 3.9s-.927 3.899-2.704 3.899zm11.884-4.923a2.373 2.373 0 0 1 2.445-2.644 2.2 2.2 0 0 1 2.279 2.511V23h3.472v-8.1c0-2.975-1.732-4.79-4.384-4.79a3.843 3.843 0 0 0-3.829 2.4h-.149v-2.239h-3.307V23h3.472z" transform="translate(30 68)"/>
    </g>
    <g id="fc_box_medium_long_link-2" data-name="fc_box_medium_long_link" transform="translate(684 330)">
        <g transform="translate(-684 -330)" style="filter:url(#box-3)">
            <g id="box-6" data-name="box" class="cls-2">
                <path class="cls-10" d="M0 0h538v164H0z" transform="translate(684 330)"/>
                <path class="cls-11" d="M1 1h536v162H1z" transform="translate(684 330)"/>
            </g>
        </g>
        <path id="패스_11053" data-name="패스 11053" class="cls-3" d="M92.075 11.945c-.481-3.9-3.431-6.149-7.343-6.149-4.483 0-7.889 3.182-7.889 8.718s3.348 8.718 7.889 8.718c4.309 0 6.945-2.859 7.343-5.992l-3.564-.017a3.521 3.521 0 0 1-3.721 2.884c-2.6 0-4.376-1.931-4.376-5.594 0-3.572 1.749-5.594 4.392-5.594a3.5 3.5 0 0 1 3.7 3.025zm5.851 3.688a2.4 2.4 0 0 1 2.486-2.644 2.2 2.2 0 0 1 2.3 2.511V23h3.472v-8.1c0-2.992-1.749-4.79-4.4-4.79a3.759 3.759 0 0 0-3.8 2.4h-.149V6.028h-3.382V23h3.472zm22.533.928c0-4.343-2.635-6.456-5.975-6.456-3.729 0-6.157 2.66-6.157 6.588 0 4.036 2.4 6.555 6.3 6.555 3.141 0 5.246-1.525 5.743-3.87h-3.3a2.468 2.468 0 0 1-2.387 1.268 2.813 2.813 0 0 1-2.925-3.116h8.7zm-8.7-1.2a2.753 2.753 0 0 1 2.793-2.66 2.558 2.558 0 0 1 2.635 2.66zm16.616 7.889c3.365 0 5.486-1.981 5.652-4.873h-3.273a2.284 2.284 0 0 1-2.345 2.113c-1.674 0-2.76-1.4-2.76-3.854 0-2.428 1.094-3.82 2.76-3.82a2.3 2.3 0 0 1 2.345 2.13h3.273c-.157-2.925-2.378-4.84-5.669-4.84-3.845 0-6.24 2.677-6.24 6.58-.002 3.869 2.343 6.563 6.255 6.563zM148.2 23l-5-7.218 4.749-5.511h-3.986l-4.135 4.865h-.191V6.028h-3.472V23h3.472v-4.069l.97-1.1 3.52 5.169zm13.086 0 2.2-8.08h.166l2.213 8.08h3.655L173 10.271h-3.514l-1.964 8.544h-.116l-2.1-8.544h-3.448l-2.088 8.6h-.116l-2-8.6h-3.514L157.619 23zm16.939-7.367a2.4 2.4 0 0 1 2.486-2.644A2.2 2.2 0 0 1 183 15.5V23h3.472v-8.1c0-2.992-1.749-4.79-4.4-4.79a3.759 3.759 0 0 0-3.8 2.4h-.149V6.028h-3.373V23h3.472zm22.533.928c0-4.343-2.635-6.456-5.975-6.456-3.729 0-6.157 2.66-6.157 6.588 0 4.036 2.4 6.555 6.3 6.555 3.141 0 5.246-1.525 5.743-3.87h-3.3a2.468 2.468 0 0 1-2.387 1.268 2.813 2.813 0 0 1-2.925-3.116h8.7zm-8.7-1.2a2.753 2.753 0 0 1 2.793-2.66 2.558 2.558 0 0 1 2.635 2.66zm16.409 5.014c-.713-.025-1.21-.265-1.21-1.276v-6.218h2.4v-2.61h-2.4v-3.05h-3.472v3.05h-1.755v2.61h1.749v6.688c-.017 2.478 1.691 3.6 4.21 3.6a11.971 11.971 0 0 0 1.831-.124v-2.73c-.414.025-1.02.066-1.359.058zm7.094-4.74a2.4 2.4 0 0 1 2.486-2.644 2.2 2.2 0 0 1 2.3 2.511V23h3.472v-8.1c0-2.992-1.749-4.79-4.4-4.79a3.759 3.759 0 0 0-3.8 2.4h-.149V6.028h-3.373V23h3.472zm22.533.928c0-4.343-2.635-6.456-5.975-6.456-3.729 0-6.157 2.66-6.157 6.588 0 4.036 2.4 6.555 6.3 6.555 3.141 0 5.246-1.525 5.743-3.87h-3.3a2.468 2.468 0 0 1-2.387 1.268 2.813 2.813 0 0 1-2.925-3.116h8.7zm-8.7-1.2a2.753 2.753 0 0 1 2.793-2.66 2.558 2.558 0 0 1 2.635 2.66zM243.74 23v-7.235a2.592 2.592 0 0 1 2.718-2.66 6.213 6.213 0 0 1 1.483.191V10.2a6.64 6.64 0 0 0-1.11-.108 3.1 3.1 0 0 0-3.066 2.4h-.133v-2.221h-3.365V23zm23.039-6.439c0-4.343-2.635-6.456-5.975-6.456-3.729 0-6.157 2.66-6.157 6.588 0 4.036 2.4 6.555 6.3 6.555 3.141 0 5.246-1.525 5.743-3.87h-3.3a2.468 2.468 0 0 1-2.39 1.268 2.813 2.813 0 0 1-2.925-3.116h8.7zm-8.7-1.2a2.753 2.753 0 0 1 2.793-2.66 2.558 2.558 0 0 1 2.635 2.66zm9.97-5.088 3.663 6.365L267.914 23h3.6L274 18.575 276.533 23h3.555l-3.8-6.365L280 10.271h-3.58L274 14.746l-2.354-4.475zm19.442 10.1c-.713-.025-1.21-.265-1.21-1.276v-6.216h2.4v-2.61h-2.4v-3.05h-3.472v3.05h-1.749v2.61h1.749v6.688c-.017 2.478 1.691 3.6 4.21 3.6a11.971 11.971 0 0 0 1.831-.124v-2.73c-.416.025-1.021.066-1.361.058zm14.834-3.812c0-4.343-2.635-6.456-5.975-6.456-3.729 0-6.157 2.66-6.157 6.588 0 4.036 2.4 6.555 6.3 6.555 3.141 0 5.246-1.525 5.743-3.87h-3.3a2.468 2.468 0 0 1-2.387 1.268 2.813 2.813 0 0 1-2.925-3.116h8.7zm-8.7-1.2a2.753 2.753 0 0 1 2.793-2.66 2.558 2.558 0 0 1 2.635 2.66zM307.975 23v-7.235a2.592 2.592 0 0 1 2.718-2.66 6.212 6.212 0 0 1 1.483.191V10.2a6.64 6.64 0 0 0-1.11-.108 3.1 3.1 0 0 0-3.066 2.4h-.133v-2.221H304.5V23zm9.365-7.367a2.373 2.373 0 0 1 2.445-2.644 2.2 2.2 0 0 1 2.279 2.511V23h3.472v-8.1c0-2.975-1.732-4.79-4.384-4.79a3.843 3.843 0 0 0-3.829 2.4h-.149v-2.239h-3.307V23h3.472zm16.218-5.533c-3.381 0-5.3 1.74-5.5 3.953h3.29a1.925 1.925 0 0 1 2.13-1.409c1.285 0 2.014.613 2.022 1.691v1.028c-.53.017-2.254.091-3.157.149-2.445.157-4.732 1.077-4.732 3.928 0 2.511 1.807 3.8 4.235 3.8a3.906 3.906 0 0 0 3.721-2.006h.1V23h3.29v-8.577c-.004-3.067-2.623-4.323-5.399-4.323zm-.729 10.724c-1.111 0-1.9-.506-1.9-1.492s.762-1.55 1.972-1.649c.6-.058 2.1-.141 2.611-.166v.928a2.463 2.463 0 0 1-2.683 2.384zm8.76-14.8V23h3.472V6.028zM358 23.207a3.785 3.785 0 0 0 3.622-2.238h.149V23h3.414V6.028h-3.464v6.381h-.1a3.757 3.757 0 0 0-3.63-2.3c-2.809 0-5.171 2.188-5.171 6.547-.002 4.244 2.26 6.551 5.18 6.551zm1.086-2.768c-1.765 0-2.718-1.558-2.718-3.8 0-2.229.936-3.754 2.718-3.754 1.732 0 2.71 1.459 2.71 3.754s-.996 3.8-2.713 3.8zM373.32 10.1c-3.381 0-5.3 1.74-5.5 3.953h3.29a1.925 1.925 0 0 1 2.13-1.409c1.285 0 2.014.613 2.022 1.691v1.028c-.53.017-2.254.091-3.157.149-2.445.157-4.732 1.077-4.732 3.928 0 2.511 1.807 3.8 4.235 3.8a3.906 3.906 0 0 0 3.721-2.006h.1V23h3.29v-8.577c-.004-3.067-2.619-4.323-5.399-4.323zm-.729 10.724c-1.111 0-1.9-.506-1.9-1.492s.762-1.55 1.972-1.649c.6-.058 2.1-.141 2.611-.166v.928a2.463 2.463 0 0 1-2.683 2.384zm14.287-.456c-.713-.025-1.21-.265-1.21-1.276v-6.211h2.4v-2.61h-2.4v-3.05H382.2v3.05h-1.749v2.61h1.749v6.688c-.017 2.478 1.691 3.6 4.21 3.6a11.971 11.971 0 0 0 1.831-.124v-2.73c-.418.025-1.023.066-1.363.058zm8.71-10.268c-3.381 0-5.3 1.74-5.5 3.953h3.29a1.925 1.925 0 0 1 2.13-1.409c1.285 0 2.014.613 2.022 1.691v1.028c-.53.017-2.254.091-3.157.149-2.445.157-4.732 1.077-4.732 3.928 0 2.511 1.807 3.8 4.235 3.8a3.906 3.906 0 0 0 3.721-2.006h.1V23h3.29v-8.577c-.004-3.067-2.622-4.323-5.399-4.323zm-.729 10.724c-1.111 0-1.9-.506-1.9-1.492s.762-1.55 1.972-1.649c.6-.058 2.1-.141 2.611-.166v.928a2.463 2.463 0 0 1-2.683 2.384zm-292.62 29.234c-.182-2.428-2.171-3.953-5.4-3.953-3.273 0-5.37 1.525-5.362 3.97-.008 1.881 1.235 3.133 3.671 3.613l2.1.414c1.193.249 1.724.655 1.732 1.318-.008.82-.845 1.318-2.1 1.318-1.285 0-2.088-.514-2.262-1.508h-3.476c.282 2.486 2.3 4.019 5.743 4.019 3.381 0 5.627-1.674 5.635-4.177-.008-1.84-1.2-2.942-3.663-3.448l-2.3-.464c-1.193-.257-1.641-.7-1.633-1.285-.008-.762.845-1.293 1.972-1.293a1.887 1.887 0 0 1 2.088 1.475zm10.575 3.522a2.439 2.439 0 0 1-2.461 2.644 2.193 2.193 0 0 1-2.229-2.453v-7.5h-3.472v8.1c.008 2.983 1.749 4.79 4.309 4.79a3.908 3.908 0 0 0 3.854-2.47h.133V59h3.331V46.271h-3.464zm11.9 5.669c3.365 0 5.486-1.981 5.652-4.873h-3.273a2.284 2.284 0 0 1-2.345 2.113c-1.674 0-2.76-1.4-2.76-3.854 0-2.428 1.094-3.82 2.76-3.82a2.3 2.3 0 0 1 2.345 2.13h3.273c-.157-2.925-2.378-4.84-5.669-4.84-3.845 0-6.24 2.677-6.24 6.58 0 3.87 2.343 6.564 6.257 6.564zm11.262-7.616a2.4 2.4 0 0 1 2.486-2.644 2.2 2.2 0 0 1 2.3 2.511V59h3.472v-8.1c0-2.992-1.749-4.79-4.4-4.79a3.759 3.759 0 0 0-3.8 2.4h-.149v-6.482H132.5V59h3.472zm21.813-5.533c-3.381 0-5.3 1.74-5.5 3.953h3.29a1.925 1.925 0 0 1 2.13-1.409c1.285 0 2.014.613 2.022 1.691v1.028c-.53.017-2.254.091-3.157.149-2.445.157-4.732 1.077-4.732 3.928 0 2.511 1.807 3.8 4.235 3.8a3.906 3.906 0 0 0 3.721-2.006h.1V59h3.29v-8.577c-.004-3.067-2.623-4.323-5.399-4.323zm-.729 10.724c-1.11 0-1.9-.506-1.9-1.492s.762-1.55 1.972-1.649c.6-.058 2.1-.141 2.611-.166v.928a2.463 2.463 0 0 1-2.684 2.384zm19.285-6.771c-.182-2.428-2.171-3.953-5.4-3.953-3.273 0-5.37 1.525-5.362 3.97-.008 1.881 1.235 3.133 3.671 3.613l2.1.414c1.193.249 1.724.655 1.732 1.318-.008.82-.845 1.318-2.1 1.318-1.285 0-2.088-.514-2.262-1.508h-3.481c.282 2.486 2.3 4.019 5.743 4.019 3.381 0 5.627-1.674 5.635-4.177-.008-1.84-1.2-2.942-3.663-3.448l-2.3-.464c-1.193-.257-1.641-.7-1.633-1.285-.008-.762.845-1.293 1.972-1.293a1.887 1.887 0 0 1 2.088 1.475zM195.794 59v-2.917h-7.9v-4.119h7.276v-2.909h-7.27v-4.11h7.865v-2.917h-11.391V59zM209 52.751a3.491 3.491 0 0 1-6.978 0V42.028H198.5V53.05c0 3.713 2.785 6.191 7.011 6.191 4.2 0 7.019-2.478 7.019-6.191V42.028H209zm17.586 6.5c3.365 0 5.486-1.981 5.652-4.873h-3.273a2.284 2.284 0 0 1-2.345 2.113c-1.674 0-2.76-1.4-2.76-3.854 0-2.428 1.094-3.82 2.76-3.82a2.3 2.3 0 0 1 2.345 2.13h3.273c-.157-2.925-2.378-4.84-5.669-4.84-3.845 0-6.24 2.677-6.24 6.58.004 3.868 2.349 6.562 6.261 6.562zm13.525 0c3.845 0 6.24-2.644 6.24-6.564 0-3.945-2.4-6.58-6.24-6.58s-6.257 2.635-6.257 6.58c.004 3.913 2.407 6.562 6.261 6.562zm.017-2.693c-1.815 0-2.743-1.657-2.743-3.9s.928-3.9 2.743-3.9c1.773 0 2.7 1.674 2.7 3.9s-.928 3.897-2.697 3.897zm16.575-2.975a2.439 2.439 0 0 1-2.461 2.644 2.193 2.193 0 0 1-2.229-2.453v-7.5h-3.472v8.1c.008 2.983 1.749 4.79 4.309 4.79a3.908 3.908 0 0 0 3.854-2.47h.133V59h3.332V46.271h-3.464zm9.638-1.948a2.373 2.373 0 0 1 2.445-2.644 2.2 2.2 0 0 1 2.279 2.511V59h3.472v-8.1c0-2.975-1.732-4.79-4.384-4.79a3.843 3.843 0 0 0-3.829 2.4h-.149v-2.239h-3.307V59h3.472zm16.6 7.616c3.365 0 5.486-1.981 5.652-4.873h-3.273a2.284 2.284 0 0 1-2.345 2.113c-1.674 0-2.76-1.4-2.76-3.854 0-2.428 1.094-3.82 2.76-3.82a2.3 2.3 0 0 1 2.345 2.13h3.28c-.157-2.925-2.378-4.84-5.668-4.84-3.845 0-6.24 2.677-6.24 6.58-.006 3.868 2.34 6.562 6.251 6.562zm9.53-14.644a1.769 1.769 0 1 0-1.889-1.765 1.833 1.833 0 0 0 1.892 1.758zM294.206 59V46.271h-3.472V59zm2.7-16.972V59h3.472V42.028zm13.45 2.577a1.769 1.769 0 1 0-1.889-1.765 1.833 1.833 0 0 0 1.891 1.76zM312.09 59V46.271h-3.472V59zm13.227-8.942c-.182-2.428-2.171-3.953-5.4-3.953-3.273 0-5.37 1.525-5.362 3.97-.008 1.881 1.235 3.133 3.671 3.613l2.1.414c1.193.249 1.724.655 1.732 1.318-.008.82-.845 1.318-2.1 1.318-1.285 0-2.088-.514-2.262-1.508h-3.476c.282 2.486 2.3 4.019 5.743 4.019 3.381 0 5.627-1.674 5.635-4.177-.008-1.84-1.2-2.942-3.663-3.448l-2.3-.464c-1.193-.257-1.641-.7-1.633-1.285-.008-.762.845-1.293 1.972-1.293a1.887 1.887 0 0 1 2.088 1.475zm16.11 3.522a2.439 2.439 0 0 1-2.461 2.644 2.193 2.193 0 0 1-2.229-2.453v-7.5h-3.472v8.1c.008 2.983 1.749 4.79 4.309 4.79a3.908 3.908 0 0 0 3.854-2.47h.133V59h3.332V46.271h-3.464zm16.691-3.522c-.182-2.428-2.171-3.953-5.4-3.953-3.273 0-5.37 1.525-5.362 3.97-.008 1.881 1.235 3.133 3.671 3.613l2.1.414c1.193.249 1.724.655 1.732 1.318-.008.82-.845 1.318-2.1 1.318-1.285 0-2.088-.514-2.262-1.508h-3.481c.282 2.486 2.3 4.019 5.743 4.019 3.381 0 5.627-1.674 5.635-4.177-.008-1.84-1.2-2.942-3.663-3.448l-2.3-.464c-1.193-.257-1.641-.7-1.633-1.285-.008-.762.845-1.293 1.972-1.293a1.887 1.887 0 0 1 2.088 1.475zm14.022 2.5c0-4.343-2.635-6.456-5.975-6.456-3.729 0-6.157 2.66-6.157 6.588 0 4.036 2.4 6.555 6.3 6.555 3.141 0 5.246-1.525 5.743-3.87h-3.3a2.468 2.468 0 0 1-2.387 1.268 2.813 2.813 0 0 1-2.925-3.116h8.7zm-8.7-1.2a2.753 2.753 0 0 1 2.793-2.66 2.558 2.558 0 0 1 2.635 2.66zm15.58 7.848a3.785 3.785 0 0 0 3.622-2.238h.149V59h3.409V42.028h-3.464v6.381h-.1a3.757 3.757 0 0 0-3.63-2.3c-2.809 0-5.171 2.188-5.171 6.547.003 4.244 2.265 6.551 5.183 6.551zm1.086-2.768c-1.765 0-2.718-1.558-2.718-3.8 0-2.229.936-3.754 2.718-3.754 1.732 0 2.71 1.459 2.71 3.754s-.997 3.801-2.716 3.801z" transform="translate(30 32)"/>
        <g id="fc_textlink-3" data-name="fc_textlink" transform="translate(386 111)">
            <g id="stack-3" data-name="stack" transform="translate(-2524.094 20210)">
                <g id="ico_fc_pdf-2" data-name="ico_fc_pdf" transform="translate(2461.409 -20210)">
                    <g id="그룹_1025-3" data-name="그룹 1025" transform="translate(-1101.5 -1126.5)">
                        <path id="패스_6892-2" data-name="패스 6892" class="cls-5" d="M1108.592 1130.5h7.714l4.286 4.286v7.714h-12z" transform="translate(-3.092)"/>
                        <path id="패스_6891-2" data-name="패스 6891" class="cls-5" d="M1052.728 2115.047v5h5" transform="translate(59.772 -984.547)"/>
                    </g>
                </g>
                <path id="패스_11055" data-name="패스 11055" class="cls-6" d="M-61.008 0h1.646v-8.182h.094l3.326 8.166h1.359l3.326-8.149h.1V0h1.641v-11.315H-51.6l-3.586 8.768h-.133l-3.591-8.768h-2.094zm17.248.171c2.393 0 3.96-1.751 3.96-4.371 0-2.641-1.564-4.392-3.956-4.392s-3.971 1.747-3.971 4.392c0 2.62 1.57 4.371 3.967 4.371zm.006-1.392c-1.552 0-2.293-1.365-2.293-2.989s.74-3 2.293-3c1.536 0 2.271 1.381 2.271 3s-.735 2.989-2.271 2.989zM-36.483 0v-5.171a1.911 1.911 0 0 1 2.028-1.912 4.455 4.455 0 0 1 .867.1v-1.592a7.022 7.022 0 0 0-.713-.039 2.2 2.2 0 0 0-2.149 1.481h-.088v-1.353h-1.613V0zM-25.3-4.331c0-3.066-1.84-4.265-3.773-4.265C-31.434-8.6-33-6.8-33-4.188c0 2.636 1.544 4.359 4.047 4.359a3.368 3.368 0 0 0 3.541-2.3H-27.1a1.965 1.965 0 0 1-1.84.934 2.328 2.328 0 0 1-2.4-2.541h6.04zm-6.033-.657a2.288 2.288 0 0 1 2.282-2.238 2.086 2.086 0 0 1 2.11 2.238zM-18.9-9.79a1.022 1.022 0 0 0 1.044-.989 1.022 1.022 0 0 0-1.044-.989 1.025 1.025 0 0 0-1.055.989 1.025 1.025 0 0 0 1.055.989zm.825 9.79v-8.486h-1.669V0zm3.7-5.033A1.914 1.914 0 0 1-12.4-7.155a1.729 1.729 0 0 1 1.79 1.961V0h1.669v-5.4c0-2.094-1.149-3.2-2.89-3.2a2.523 2.523 0 0 0-2.5 1.5h-.1v-1.386h-1.6V0h1.669zM-3.4-10.4a5.092 5.092 0 0 1 .7.055v-1.387a5.874 5.874 0 0 0-1.133-.11 2.256 2.256 0 0 0-2.53 2.381v.978h-1.314v1.331h1.315V0h1.669v-7.155h1.818v-1.331h-1.818v-.74c0-.824.408-1.174 1.293-1.174zM1.881.171C4.273.171 5.837-1.58 5.837-4.2c0-2.645-1.564-4.4-3.956-4.4s-3.967 1.755-3.967 4.4c0 2.62 1.569 4.371 3.967 4.371zm.006-1.392C.334-1.221-.406-2.586-.406-4.21s.74-3 2.293-3c1.536 0 2.271 1.381 2.271 3s-.735 2.989-2.271 2.989zM9.157 0v-5.171a1.911 1.911 0 0 1 2.028-1.912 4.455 4.455 0 0 1 .867.1v-1.592a7.022 7.022 0 0 0-.713-.039 2.2 2.2 0 0 0-2.148 1.481H9.1v-1.353H7.489V0zm5.807 0v-5.227A1.806 1.806 0 0 1 16.7-7.155a1.453 1.453 0 0 1 1.546 1.525V0H19.9v-5.409a1.615 1.615 0 0 1 1.7-1.746 1.471 1.471 0 0 1 1.586 1.63V0h1.669v-5.691c0-1.939-1.088-2.906-2.624-2.906a2.636 2.636 0 0 0-2.547 1.5h-.088a2.287 2.287 0 0 0-2.282-1.5A2.318 2.318 0 0 0 15-7.1h-.1v-1.386h-1.6V0zm15.249-8.6c-2 0-3.315 1.022-3.47 2.425h1.663a1.623 1.623 0 0 1 1.746-1.077c1.138 0 1.729.552 1.729 1.508v.691c-.365.011-1.657.077-2.232.116-1.525.11-3.171.608-3.171 2.536A2.58 2.58 0 0 0 29.345.188a2.649 2.649 0 0 0 2.509-1.348h.066V0h1.624v-5.635c0-2.465-1.978-2.965-3.331-2.965zm-.5 7.453c-.934 0-1.6-.414-1.6-1.232 0-.834.685-1.249 1.773-1.326.4-.028 1.619-.11 2-.133v.773a1.989 1.989 0 0 1-2.171 1.921zm9.1-.221C38.273-1.37 37.8-1.541 37.8-2.5v-4.655h1.729v-1.331H37.8v-2.033h-1.67v2.033h-1.243v1.331h1.243v5A2.234 2.234 0 0 0 38.611.11a6.37 6.37 0 0 0 1.033-.071V-1.4c-.221.013-.592.035-.829.035zM42-9.79a1.022 1.022 0 0 0 1.044-.989A1.022 1.022 0 0 0 42-11.768a1.025 1.025 0 0 0-1.055.989A1.025 1.025 0 0 0 42-9.79zM42.826 0v-8.486h-1.669V0zm5.619.171C50.837.171 52.4-1.58 52.4-4.2c0-2.641-1.564-4.392-3.956-4.392S44.478-6.845 44.478-4.2c0 2.62 1.569 4.371 3.967 4.371zm.006-1.392c-1.552 0-2.293-1.365-2.293-2.989s.74-3 2.293-3c1.536 0 2.271 1.381 2.271 3s-.736 2.989-2.272 2.989zm7.271-3.812a1.914 1.914 0 0 1 1.972-2.122 1.729 1.729 0 0 1 1.79 1.961V0h1.669v-5.4c0-2.094-1.149-3.2-2.889-3.2a2.523 2.523 0 0 0-2.5 1.5h-.1v-1.386h-1.6V0h1.669zM-62.157 2H62.157v1H-62.157z" transform="translate(2395.094 -20194)"/>
            </g>
        </g>
    </g>
    <path id="세로" class="cls-9" transform="translate(668 230)" d="M0 0h1v50H0z"/>
    <path id="사각형_1195" data-name="사각형 1195" class="cls-9" transform="translate(383 280)" d="M0 0h571v1H0z"/>
    <path id="세로-2" data-name="세로" class="cls-9" transform="translate(953 281)" d="M0 0h1v49H0z"/>
    <path id="세로-3" data-name="세로" class="cls-9" transform="translate(953 494)" d="M0 0h1v100H0z"/>
    <path id="세로-4" data-name="세로" class="cls-9" d="M0 0h1v312.5H0z" transform="translate(383 280.5)"/>
    <path id="사각형_1196" data-name="사각형 1196" class="cls-9" transform="translate(384 430)" d="M0 0h300v1H0z"/>
    <g id="fc_yes" transform="translate(845.588 533.05)">
        <path id="사각형_515" data-name="사각형 515" class="cls-1" d="M0 0h216.923v20.116H0z"/>
        <path id="패스_11056" data-name="패스 11056" class="cls-3" d="M-98.412-11.315V0h2.348v-11.315zm6.519 6.4a1.582 1.582 0 0 1 1.63-1.762A1.469 1.469 0 0 1-88.743-5v5h2.315v-5.4c0-1.983-1.155-3.193-2.923-3.193a2.562 2.562 0 0 0-2.552 1.6H-92v-1.493h-2.2V0h2.315zM-77.135.166c2.243 0 3.657-1.32 3.768-3.249h-2.183a1.523 1.523 0 0 1-1.564 1.409c-1.116 0-1.84-.934-1.84-2.569 0-1.619.729-2.547 1.84-2.547a1.534 1.534 0 0 1 1.564 1.42h2.182c-.1-1.95-1.586-3.227-3.779-3.227-2.564 0-4.16 1.785-4.16 4.387 0 2.58 1.564 4.376 4.172 4.376zm8.762-8.766c-2.254 0-3.536 1.16-3.669 2.635h2.193a1.284 1.284 0 0 1 1.42-.939c.856 0 1.343.409 1.348 1.127v.685c-.354.011-1.5.061-2.1.1-1.63.1-3.155.718-3.155 2.619 0 1.674 1.2 2.53 2.823 2.53a2.6 2.6 0 0 0 2.481-1.337h.066V0h2.193v-5.718c-.003-2.044-1.749-2.882-3.6-2.882zm-.486 7.149c-.74 0-1.265-.337-1.265-.994s.508-1.033 1.315-1.1c.4-.039 1.4-.094 1.74-.11v.619a1.642 1.642 0 0 1-1.79 1.588zM-56-5.961C-56.124-7.58-57.45-8.6-59.6-8.6c-2.182 0-3.58 1.017-3.575 2.646-.006 1.254.823 2.088 2.448 2.409l1.4.276c.8.166 1.149.436 1.155.878-.006.547-.564.878-1.4.878-.856 0-1.392-.343-1.508-1.006h-2.32c.188 1.657 1.53 2.68 3.829 2.68 2.254 0 3.751-1.116 3.757-2.785-.006-1.227-.8-1.961-2.442-2.3l-1.53-.309c-.8-.171-1.094-.47-1.088-.856-.006-.508.564-.862 1.315-.862a1.258 1.258 0 0 1 1.392.983zm9.348 1.669c0-2.9-1.757-4.3-3.983-4.3-2.486 0-4.1 1.773-4.1 4.392 0 2.691 1.6 4.37 4.2 4.37 2.094 0 3.5-1.017 3.829-2.58h-2.2a1.645 1.645 0 0 1-1.591.845 1.876 1.876 0 0 1-1.95-2.077h5.8zm-5.8-.8a1.835 1.835 0 0 1 1.862-1.773 1.705 1.705 0 0 1 1.757 1.773zM-37.688.166c2.564 0 4.16-1.762 4.16-4.376 0-2.63-1.6-4.387-4.16-4.387s-4.171 1.757-4.171 4.387c0 2.61 1.602 4.376 4.171 4.376zm.011-1.8c-1.21 0-1.829-1.1-1.829-2.6s.619-2.6 1.829-2.6c1.182 0 1.8 1.116 1.8 2.6s-.617 2.604-1.8 2.604zm9.58-8.365a5.547 5.547 0 0 1 .713.05v-1.762a6.469 6.469 0 0 0-1.387-.138 2.505 2.505 0 0 0-2.773 2.724v.635h-1.2v1.74h1.2V0h2.315v-6.746h1.691v-1.74h-1.691v-.519c0-.702.392-.989 1.129-.989zm6.757.4a1.222 1.222 0 0 0 1.26-1.177 1.226 1.226 0 0 0-1.26-1.177 1.226 1.226 0 0 0-1.26 1.177A1.222 1.222 0 0 0-21.34-9.6zM-20.185 0v-8.486H-22.5V0zm4.116-4.912a1.582 1.582 0 0 1 1.63-1.762A1.469 1.469 0 0 1-12.92-5v5h2.32v-5.4c0-1.983-1.155-3.193-2.923-3.193a2.562 2.562 0 0 0-2.552 1.6h-.1v-1.493h-2.2V0h2.315zm14.26-1.05C-1.931-7.58-3.257-8.6-5.406-8.6c-2.182 0-3.58 1.017-3.575 2.646-.006 1.254.823 2.088 2.448 2.409l1.4.276c.8.166 1.149.436 1.155.878-.006.547-.564.878-1.4.878-.856 0-1.392-.343-1.508-1.006h-2.32C-9.019-.856-7.677.166-5.378.166c2.254 0 3.751-1.116 3.757-2.785-.006-1.227-.8-1.961-2.442-2.3l-1.53-.309c-.8-.171-1.094-.47-1.088-.856-.006-.508.564-.862 1.315-.862a1.258 1.258 0 0 1 1.392.983zM5.24-3.613A1.626 1.626 0 0 1 3.6-1.851a1.462 1.462 0 0 1-1.487-1.635v-5H-.2v5.4C-.2-1.094.964.11 2.671.11A2.605 2.605 0 0 0 5.24-1.536h.088V0H7.55v-8.486H5.24zm8.083-6.381a5.547 5.547 0 0 1 .713.05v-1.762a6.469 6.469 0 0 0-1.387-.138 2.505 2.505 0 0 0-2.773 2.722v.635h-1.2v1.74h1.2V0h2.315v-6.746h1.691v-1.74h-1.691v-.519c0-.702.392-.989 1.132-.989zm5.878 0a5.547 5.547 0 0 1 .713.05v-1.762a6.469 6.469 0 0 0-1.387-.138 2.505 2.505 0 0 0-2.773 2.724v.635h-1.2v1.74h1.2V0h2.315v-6.746h1.691v-1.74h-1.691v-.519c0-.702.392-.989 1.131-.989zm3.066.4a1.222 1.222 0 0 0 1.26-1.177 1.226 1.226 0 0 0-1.26-1.177 1.226 1.226 0 0 0-1.26 1.177A1.222 1.222 0 0 0 22.268-9.6zM23.423 0v-8.486h-2.315V0zm5.624.166c2.243 0 3.657-1.32 3.768-3.249h-2.182a1.523 1.523 0 0 1-1.564 1.409c-1.116 0-1.84-.934-1.84-2.569 0-1.619.729-2.547 1.84-2.547a1.534 1.534 0 0 1 1.564 1.42h2.182c-.105-1.95-1.586-3.23-3.779-3.23-2.564 0-4.16 1.785-4.16 4.387 0 2.583 1.563 4.379 4.171 4.379zM35.4-9.6a1.222 1.222 0 0 0 1.26-1.177 1.226 1.226 0 0 0-1.26-1.173 1.226 1.226 0 0 0-1.26 1.177A1.222 1.222 0 0 0 35.4-9.6zM36.555 0v-8.486H34.24V0zM46.1-4.293c0-2.9-1.757-4.3-3.983-4.3-2.486 0-4.1 1.773-4.1 4.392 0 2.691 1.6 4.37 4.2 4.37 2.094 0 3.5-1.017 3.829-2.58h-2.2a1.645 1.645 0 0 1-1.591.845 1.876 1.876 0 0 1-1.955-2.08h5.8zm-5.8-.8a1.835 1.835 0 0 1 1.862-1.773 1.705 1.705 0 0 1 1.757 1.773zm9.569.182a1.582 1.582 0 0 1 1.63-1.762A1.469 1.469 0 0 1 53.014-5v5h2.315v-5.4c0-1.983-1.155-3.193-2.923-3.193a2.562 2.562 0 0 0-2.552 1.6h-.1v-1.493h-2.2V0h2.315zm10.928 3.16c-.475-.017-.807-.177-.807-.851v-4.144h1.6v-1.74h-1.6v-2.033h-2.319v2.033h-1.165v1.74h1.166v4.459C57.66-.635 58.8.116 60.478.116A7.981 7.981 0 0 0 61.7.033V-1.79c-.277.017-.681.044-.907.039zM69.854.138a2.524 2.524 0 0 0 2.414-1.492h.1V0h2.276v-11.315h-2.31v4.254h-.066a2.5 2.5 0 0 0-2.42-1.539c-1.873 0-3.448 1.462-3.448 4.368 0 2.832 1.509 4.37 3.454 4.37zm.724-1.845c-1.177 0-1.812-1.039-1.812-2.536s.624-2.5 1.812-2.5c1.155 0 1.807.972 1.807 2.5s-.664 2.536-1.808 2.536zM80.069-8.6c-2.254 0-3.536 1.16-3.669 2.635h2.193a1.284 1.284 0 0 1 1.42-.939c.856 0 1.343.409 1.348 1.127v.685c-.354.011-1.5.061-2.1.1-1.63.1-3.155.718-3.155 2.619C76.1-.7 77.307.16 78.925.16a2.6 2.6 0 0 0 2.481-1.337h.066V0h2.193v-5.718C83.666-7.762 81.92-8.6 80.069-8.6zm-.486 7.149c-.74 0-1.265-.337-1.265-.994s.508-1.033 1.315-1.1c.4-.039 1.4-.094 1.74-.11v.619a1.642 1.642 0 0 1-1.79 1.588zm9.525-.3c-.475-.017-.807-.177-.807-.851v-4.144h1.6v-1.74H88.3v-2.033h-2.314v2.033H84.82v1.74h1.166v4.459c-.011 1.652 1.127 2.4 2.807 2.4a7.981 7.981 0 0 0 1.221-.08V-1.79c-.276.017-.68.044-.906.039zM94.914-8.6c-2.254 0-3.536 1.16-3.669 2.635h2.193a1.284 1.284 0 0 1 1.42-.939c.856 0 1.343.409 1.348 1.127v.685c-.354.011-1.5.061-2.1.1-1.63.1-3.155.718-3.155 2.619 0 1.674 1.2 2.53 2.823 2.53a2.6 2.6 0 0 0 2.481-1.337h.066V0h2.193v-5.718c-.003-2.044-1.749-2.882-3.6-2.882zm-.486 7.149c-.74 0-1.265-.337-1.265-.994s.508-1.033 1.315-1.1c.4-.039 1.4-.094 1.74-.11v.619a1.642 1.642 0 0 1-1.79 1.588z" transform="translate(108.412 15.95)"/>
    </g>
    <g id="fc_yes-2" data-name="fc_yes" transform="translate(2 -130)">
        <g id="fc_yes-3" data-name="fc_yes" transform="translate(432.605 400.05)">
            <path id="사각형_515-2" data-name="사각형 515" class="cls-1" d="M0 0h182.79v20.116H0z"/>
            <path id="패스_11051" data-name="패스 11051" class="cls-3" d="M-81.4-11.315V0h2.348v-11.315zm8.177 1.32a5.547 5.547 0 0 1 .713.05v-1.762a6.468 6.468 0 0 0-1.387-.138 2.505 2.505 0 0 0-2.773 2.724v.635h-1.2v1.74h1.2V0h2.315v-6.746h1.691v-1.74h-1.691v-.519c.004-.702.396-.989 1.137-.989zm9.282 8.243c-.475-.017-.807-.177-.807-.851v-4.143h1.6v-1.74h-1.6v-2.033h-2.315v2.033h-1.166v1.74h1.166v4.459c-.011 1.652 1.127 2.4 2.807 2.4a7.981 7.981 0 0 0 1.226-.08V-1.79c-.277.017-.68.044-.906.039zm4.729-3.16a1.6 1.6 0 0 1 1.662-1.762A1.466 1.466 0 0 1-56.019-5v5h2.319v-5.4c0-2-1.17-3.2-2.938-3.2A2.506 2.506 0 0 0-59.174-7h-.1v-4.32h-2.249V0h2.315zm15.022.619c0-2.9-1.757-4.3-3.983-4.3-2.486 0-4.1 1.773-4.1 4.392 0 2.691 1.6 4.37 4.2 4.37 2.094 0 3.5-1.017 3.829-2.58h-2.2a1.645 1.645 0 0 1-1.591.845 1.876 1.876 0 0 1-1.95-2.077h5.8zm-5.8-.8a1.835 1.835 0 0 1 1.862-1.773 1.705 1.705 0 0 1 1.757 1.773zm14.63 3.343c-.475-.017-.807-.177-.807-.851v-4.145h1.6v-1.74h-1.6v-2.033h-2.315v2.033h-1.166v1.74h1.166v4.459c-.011 1.652 1.127 2.4 2.807 2.4a7.981 7.981 0 0 0 1.225-.08V-1.79c-.277.017-.68.044-.906.039zm9.89-2.541c0-2.9-1.757-4.3-3.983-4.3-2.486 0-4.1 1.773-4.1 4.392 0 2.691 1.6 4.37 4.2 4.37 2.094 0 3.5-1.017 3.829-2.58h-2.2a1.645 1.645 0 0 1-1.591.845 1.876 1.876 0 0 1-1.95-2.077h5.8zm-5.8-.8a1.835 1.835 0 0 1 1.862-1.773 1.705 1.705 0 0 1 1.757 1.773zm14.27-.87c-.122-1.619-1.448-2.635-3.6-2.635-2.182 0-3.58 1.017-3.575 2.646-.006 1.254.823 2.088 2.448 2.409l1.4.276c.8.166 1.149.436 1.155.878-.006.547-.564.878-1.4.878-.856 0-1.392-.343-1.508-1.006h-2.32c.188 1.657 1.53 2.68 3.829 2.68 2.254 0 3.751-1.116 3.757-2.785-.006-1.227-.8-1.961-2.442-2.3l-1.53-.309c-.8-.171-1.094-.47-1.088-.856-.006-.508.564-.862 1.315-.862a1.258 1.258 0 0 1 1.392.983zm5.293 4.21c-.475-.017-.807-.177-.807-.851v-4.144h1.6v-1.74h-1.6v-2.033h-2.315v2.033h-1.166v1.74h1.166v4.459c-.011 1.652 1.127 2.4 2.807 2.4A7.981 7.981 0 0 0-10.8.033V-1.79c-.275.017-.678.044-.9.039zM-4.616-9.6a1.222 1.222 0 0 0 1.26-1.177 1.226 1.226 0 0 0-1.26-1.177 1.226 1.226 0 0 0-1.26 1.177A1.222 1.222 0 0 0-4.616-9.6zM-3.461 0v-8.486h-2.315V0zm5.486-1.751c-.475-.017-.807-.177-.807-.851v-4.144h1.6v-1.74h-1.6v-2.033H-1.1v2.033h-1.162v1.74H-1.1v4.459C-1.108-.635.03.116 1.71.116A7.981 7.981 0 0 0 2.931.033V-1.79c-.276.017-.68.044-.906.039zm9.889-2.541c0-2.9-1.757-4.3-3.983-4.3-2.486 0-4.1 1.773-4.1 4.392 0 2.691 1.6 4.37 4.2 4.37 2.094 0 3.5-1.017 3.829-2.58h-2.2a1.645 1.645 0 0 1-1.591.845 1.876 1.876 0 0 1-1.95-2.077h5.8zm-5.8-.8a1.835 1.835 0 0 1 1.861-1.775 1.705 1.705 0 0 1 1.757 1.773zM15.682 0v-5.1a1.442 1.442 0 0 1 1.4-1.586A1.265 1.265 0 0 1 18.4-5.315V0h2.238v-5.193a1.343 1.343 0 0 1 1.381-1.492 1.272 1.272 0 0 1 1.326 1.425V0h2.315v-5.707a2.6 2.6 0 0 0-2.68-2.89 2.567 2.567 0 0 0-2.552 1.6h-.088a2.248 2.248 0 0 0-2.3-1.6 2.384 2.384 0 0 0-2.365 1.6h-.1v-1.489h-2.2V0zm16.6-9.6a1.222 1.222 0 0 0 1.26-1.177 1.226 1.226 0 0 0-1.26-1.177 1.226 1.226 0 0 0-1.26 1.177A1.222 1.222 0 0 0 32.285-9.6zM33.439 0v-8.486h-2.315V0zm8.818-5.961C42.135-7.58 40.809-8.6 38.66-8.6c-2.182 0-3.58 1.017-3.575 2.646-.006 1.254.823 2.088 2.448 2.409l1.4.276c.8.166 1.149.436 1.155.878-.006.547-.564.878-1.4.878-.856 0-1.392-.343-1.508-1.006h-2.32c.188 1.657 1.53 2.68 3.829 2.68 2.254 0 3.751-1.116 3.757-2.785-.006-1.227-.8-1.961-2.442-2.3l-1.53-.309c-.8-.171-1.094-.47-1.088-.856-.006-.508.564-.862 1.315-.862a1.258 1.258 0 0 1 1.392.983zm10.724-2.525L51.2-2.387h-.088l-1.785-6.1h-2.446L49.854 0h2.6l2.972-8.486zm6.906-.11c-2.254 0-3.536 1.16-3.669 2.635h2.193a1.284 1.284 0 0 1 1.42-.939c.856 0 1.343.409 1.348 1.127v.685c-.354.011-1.5.061-2.1.1-1.63.1-3.155.718-3.155 2.619 0 1.674 1.2 2.53 2.823 2.53a2.6 2.6 0 0 0 2.481-1.337h.066V0h2.193v-5.718c-.004-2.044-1.749-2.882-3.6-2.882zM59.4-1.448c-.74 0-1.265-.337-1.265-.994s.508-1.033 1.315-1.1c.4-.039 1.4-.094 1.74-.11v.619a1.642 1.642 0 0 1-1.79 1.585zm5.84-9.867V0h2.315v-11.315zM70.517-9.6a1.222 1.222 0 0 0 1.26-1.177 1.226 1.226 0 0 0-1.26-1.177 1.226 1.226 0 0 0-1.26 1.177 1.222 1.222 0 0 0 1.26 1.177zM71.671 0v-8.486h-2.315V0zM76.6.138a2.524 2.524 0 0 0 2.414-1.492h.1V0H81.4v-11.315h-2.314v4.254h-.066A2.5 2.5 0 0 0 76.6-8.6c-1.873 0-3.448 1.459-3.448 4.365C73.152-1.4 74.66.138 76.6.138zm.724-1.845c-1.177 0-1.812-1.039-1.812-2.536s.624-2.5 1.812-2.5c1.155 0 1.807.972 1.807 2.5s-.659 2.536-1.802 2.536z" transform="translate(91.395 15.95)"/>
        </g>
    </g>
    <g id="fc_yes-4" data-name="fc_yes" transform="translate(290 -130)">
        <g id="fc_yes-5" data-name="fc_yes" transform="translate(415.588 400.05)">
            <path id="사각형_515-3" data-name="사각형 515" class="cls-1" d="M0 0h216.923v20.116H0z"/>
            <path id="패스_11052" data-name="패스 11052" class="cls-3" d="M-98.412-11.315V0h2.348v-11.315zm6.519 6.4a1.582 1.582 0 0 1 1.63-1.762A1.469 1.469 0 0 1-88.743-5v5h2.315v-5.4c0-1.983-1.155-3.193-2.923-3.193a2.562 2.562 0 0 0-2.552 1.6H-92v-1.493h-2.2V0h2.315zM-77.135.166c2.243 0 3.657-1.32 3.768-3.249h-2.183a1.523 1.523 0 0 1-1.564 1.409c-1.116 0-1.84-.934-1.84-2.569 0-1.619.729-2.547 1.84-2.547a1.534 1.534 0 0 1 1.564 1.42h2.182c-.1-1.95-1.586-3.227-3.779-3.227-2.564 0-4.16 1.785-4.16 4.387 0 2.58 1.564 4.376 4.172 4.376zm8.762-8.766c-2.254 0-3.536 1.16-3.669 2.635h2.193a1.284 1.284 0 0 1 1.42-.939c.856 0 1.343.409 1.348 1.127v.685c-.354.011-1.5.061-2.1.1-1.63.1-3.155.718-3.155 2.619 0 1.674 1.2 2.53 2.823 2.53a2.6 2.6 0 0 0 2.481-1.337h.066V0h2.193v-5.718c-.003-2.044-1.749-2.882-3.6-2.882zm-.486 7.149c-.74 0-1.265-.337-1.265-.994s.508-1.033 1.315-1.1c.4-.039 1.4-.094 1.74-.11v.619a1.642 1.642 0 0 1-1.79 1.588zM-56-5.961C-56.124-7.58-57.45-8.6-59.6-8.6c-2.182 0-3.58 1.017-3.575 2.646-.006 1.254.823 2.088 2.448 2.409l1.4.276c.8.166 1.149.436 1.155.878-.006.547-.564.878-1.4.878-.856 0-1.392-.343-1.508-1.006h-2.32c.188 1.657 1.53 2.68 3.829 2.68 2.254 0 3.751-1.116 3.757-2.785-.006-1.227-.8-1.961-2.442-2.3l-1.53-.309c-.8-.171-1.094-.47-1.088-.856-.006-.508.564-.862 1.315-.862a1.258 1.258 0 0 1 1.392.983zm9.348 1.669c0-2.9-1.757-4.3-3.983-4.3-2.486 0-4.1 1.773-4.1 4.392 0 2.691 1.6 4.37 4.2 4.37 2.094 0 3.5-1.017 3.829-2.58h-2.2a1.645 1.645 0 0 1-1.591.845 1.876 1.876 0 0 1-1.95-2.077h5.8zm-5.8-.8a1.835 1.835 0 0 1 1.862-1.773 1.705 1.705 0 0 1 1.757 1.773zM-37.688.166c2.564 0 4.16-1.762 4.16-4.376 0-2.63-1.6-4.387-4.16-4.387s-4.171 1.757-4.171 4.387c0 2.61 1.602 4.376 4.171 4.376zm.011-1.8c-1.21 0-1.829-1.1-1.829-2.6s.619-2.6 1.829-2.6c1.182 0 1.8 1.116 1.8 2.6s-.617 2.604-1.8 2.604zm9.58-8.365a5.547 5.547 0 0 1 .713.05v-1.762a6.469 6.469 0 0 0-1.387-.138 2.505 2.505 0 0 0-2.773 2.724v.635h-1.2v1.74h1.2V0h2.315v-6.746h1.691v-1.74h-1.691v-.519c0-.702.392-.989 1.129-.989zm6.757.4a1.222 1.222 0 0 0 1.26-1.177 1.226 1.226 0 0 0-1.26-1.177 1.226 1.226 0 0 0-1.26 1.177A1.222 1.222 0 0 0-21.34-9.6zM-20.185 0v-8.486H-22.5V0zm4.116-4.912a1.582 1.582 0 0 1 1.63-1.762A1.469 1.469 0 0 1-12.92-5v5h2.32v-5.4c0-1.983-1.155-3.193-2.923-3.193a2.562 2.562 0 0 0-2.552 1.6h-.1v-1.493h-2.2V0h2.315zm14.26-1.05C-1.931-7.58-3.257-8.6-5.406-8.6c-2.182 0-3.58 1.017-3.575 2.646-.006 1.254.823 2.088 2.448 2.409l1.4.276c.8.166 1.149.436 1.155.878-.006.547-.564.878-1.4.878-.856 0-1.392-.343-1.508-1.006h-2.32C-9.019-.856-7.677.166-5.378.166c2.254 0 3.751-1.116 3.757-2.785-.006-1.227-.8-1.961-2.442-2.3l-1.53-.309c-.8-.171-1.094-.47-1.088-.856-.006-.508.564-.862 1.315-.862a1.258 1.258 0 0 1 1.392.983zM5.24-3.613A1.626 1.626 0 0 1 3.6-1.851a1.462 1.462 0 0 1-1.487-1.635v-5H-.2v5.4C-.2-1.094.964.11 2.671.11A2.605 2.605 0 0 0 5.24-1.536h.088V0H7.55v-8.486H5.24zm8.083-6.381a5.547 5.547 0 0 1 .713.05v-1.762a6.469 6.469 0 0 0-1.387-.138 2.505 2.505 0 0 0-2.773 2.722v.635h-1.2v1.74h1.2V0h2.315v-6.746h1.691v-1.74h-1.691v-.519c0-.702.392-.989 1.132-.989zm5.878 0a5.547 5.547 0 0 1 .713.05v-1.762a6.469 6.469 0 0 0-1.387-.138 2.505 2.505 0 0 0-2.773 2.724v.635h-1.2v1.74h1.2V0h2.315v-6.746h1.691v-1.74h-1.691v-.519c0-.702.392-.989 1.131-.989zm3.066.4a1.222 1.222 0 0 0 1.26-1.177 1.226 1.226 0 0 0-1.26-1.177 1.226 1.226 0 0 0-1.26 1.177A1.222 1.222 0 0 0 22.268-9.6zM23.423 0v-8.486h-2.315V0zm5.624.166c2.243 0 3.657-1.32 3.768-3.249h-2.182a1.523 1.523 0 0 1-1.564 1.409c-1.116 0-1.84-.934-1.84-2.569 0-1.619.729-2.547 1.84-2.547a1.534 1.534 0 0 1 1.564 1.42h2.182c-.105-1.95-1.586-3.23-3.779-3.23-2.564 0-4.16 1.785-4.16 4.387 0 2.583 1.563 4.379 4.171 4.379zM35.4-9.6a1.222 1.222 0 0 0 1.26-1.177 1.226 1.226 0 0 0-1.26-1.173 1.226 1.226 0 0 0-1.26 1.177A1.222 1.222 0 0 0 35.4-9.6zM36.555 0v-8.486H34.24V0zM46.1-4.293c0-2.9-1.757-4.3-3.983-4.3-2.486 0-4.1 1.773-4.1 4.392 0 2.691 1.6 4.37 4.2 4.37 2.094 0 3.5-1.017 3.829-2.58h-2.2a1.645 1.645 0 0 1-1.591.845 1.876 1.876 0 0 1-1.955-2.08h5.8zm-5.8-.8a1.835 1.835 0 0 1 1.862-1.773 1.705 1.705 0 0 1 1.757 1.773zm9.569.182a1.582 1.582 0 0 1 1.63-1.762A1.469 1.469 0 0 1 53.014-5v5h2.315v-5.4c0-1.983-1.155-3.193-2.923-3.193a2.562 2.562 0 0 0-2.552 1.6h-.1v-1.493h-2.2V0h2.315zm10.928 3.16c-.475-.017-.807-.177-.807-.851v-4.144h1.6v-1.74h-1.6v-2.033h-2.319v2.033h-1.165v1.74h1.166v4.459C57.66-.635 58.8.116 60.478.116A7.981 7.981 0 0 0 61.7.033V-1.79c-.277.017-.681.044-.907.039zM69.854.138a2.524 2.524 0 0 0 2.414-1.492h.1V0h2.276v-11.315h-2.31v4.254h-.066a2.5 2.5 0 0 0-2.42-1.539c-1.873 0-3.448 1.462-3.448 4.368 0 2.832 1.509 4.37 3.454 4.37zm.724-1.845c-1.177 0-1.812-1.039-1.812-2.536s.624-2.5 1.812-2.5c1.155 0 1.807.972 1.807 2.5s-.664 2.536-1.808 2.536zM80.069-8.6c-2.254 0-3.536 1.16-3.669 2.635h2.193a1.284 1.284 0 0 1 1.42-.939c.856 0 1.343.409 1.348 1.127v.685c-.354.011-1.5.061-2.1.1-1.63.1-3.155.718-3.155 2.619C76.1-.7 77.307.16 78.925.16a2.6 2.6 0 0 0 2.481-1.337h.066V0h2.193v-5.718C83.666-7.762 81.92-8.6 80.069-8.6zm-.486 7.149c-.74 0-1.265-.337-1.265-.994s.508-1.033 1.315-1.1c.4-.039 1.4-.094 1.74-.11v.619a1.642 1.642 0 0 1-1.79 1.588zm9.525-.3c-.475-.017-.807-.177-.807-.851v-4.144h1.6v-1.74H88.3v-2.033h-2.314v2.033H84.82v1.74h1.166v4.459c-.011 1.652 1.127 2.4 2.807 2.4a7.981 7.981 0 0 0 1.221-.08V-1.79c-.276.017-.68.044-.906.039zM94.914-8.6c-2.254 0-3.536 1.16-3.669 2.635h2.193a1.284 1.284 0 0 1 1.42-.939c.856 0 1.343.409 1.348 1.127v.685c-.354.011-1.5.061-2.1.1-1.63.1-3.155.718-3.155 2.619 0 1.674 1.2 2.53 2.823 2.53a2.6 2.6 0 0 0 2.481-1.337h.066V0h2.193v-5.718c-.003-2.044-1.749-2.882-3.6-2.882zm-.486 7.149c-.74 0-1.265-.337-1.265-.994s.508-1.033 1.315-1.1c.4-.039 1.4-.094 1.74-.11v.619a1.642 1.642 0 0 1-1.79 1.588z" transform="translate(108.412 15.95)"/>
        </g>
    </g>
    <g id="fc_yes-6" data-name="fc_yes" transform="translate(434.605 420.05)">
        <path id="사각형_515-4" data-name="사각형 515" class="cls-1" d="M0 0h182.79v20.116H0z"/>
        <path id="패스_11054" data-name="패스 11054" class="cls-3" d="M-81.4-11.315V0h2.348v-11.315zm8.177 1.32a5.547 5.547 0 0 1 .713.05v-1.762a6.468 6.468 0 0 0-1.387-.138 2.505 2.505 0 0 0-2.773 2.724v.635h-1.2v1.74h1.2V0h2.315v-6.746h1.691v-1.74h-1.691v-.519c.004-.702.396-.989 1.137-.989zm9.282 8.243c-.475-.017-.807-.177-.807-.851v-4.143h1.6v-1.74h-1.6v-2.033h-2.315v2.033h-1.166v1.74h1.166v4.459c-.011 1.652 1.127 2.4 2.807 2.4a7.981 7.981 0 0 0 1.226-.08V-1.79c-.277.017-.68.044-.906.039zm4.729-3.16a1.6 1.6 0 0 1 1.662-1.762A1.466 1.466 0 0 1-56.019-5v5h2.319v-5.4c0-2-1.17-3.2-2.938-3.2A2.506 2.506 0 0 0-59.174-7h-.1v-4.32h-2.249V0h2.315zm15.022.619c0-2.9-1.757-4.3-3.983-4.3-2.486 0-4.1 1.773-4.1 4.392 0 2.691 1.6 4.37 4.2 4.37 2.094 0 3.5-1.017 3.829-2.58h-2.2a1.645 1.645 0 0 1-1.591.845 1.876 1.876 0 0 1-1.95-2.077h5.8zm-5.8-.8a1.835 1.835 0 0 1 1.862-1.773 1.705 1.705 0 0 1 1.757 1.773zm14.63 3.343c-.475-.017-.807-.177-.807-.851v-4.145h1.6v-1.74h-1.6v-2.033h-2.315v2.033h-1.166v1.74h1.166v4.459c-.011 1.652 1.127 2.4 2.807 2.4a7.981 7.981 0 0 0 1.225-.08V-1.79c-.277.017-.68.044-.906.039zm9.89-2.541c0-2.9-1.757-4.3-3.983-4.3-2.486 0-4.1 1.773-4.1 4.392 0 2.691 1.6 4.37 4.2 4.37 2.094 0 3.5-1.017 3.829-2.58h-2.2a1.645 1.645 0 0 1-1.591.845 1.876 1.876 0 0 1-1.95-2.077h5.8zm-5.8-.8a1.835 1.835 0 0 1 1.862-1.773 1.705 1.705 0 0 1 1.757 1.773zm14.27-.87c-.122-1.619-1.448-2.635-3.6-2.635-2.182 0-3.58 1.017-3.575 2.646-.006 1.254.823 2.088 2.448 2.409l1.4.276c.8.166 1.149.436 1.155.878-.006.547-.564.878-1.4.878-.856 0-1.392-.343-1.508-1.006h-2.32c.188 1.657 1.53 2.68 3.829 2.68 2.254 0 3.751-1.116 3.757-2.785-.006-1.227-.8-1.961-2.442-2.3l-1.53-.309c-.8-.171-1.094-.47-1.088-.856-.006-.508.564-.862 1.315-.862a1.258 1.258 0 0 1 1.392.983zm5.293 4.21c-.475-.017-.807-.177-.807-.851v-4.144h1.6v-1.74h-1.6v-2.033h-2.315v2.033h-1.166v1.74h1.166v4.459c-.011 1.652 1.127 2.4 2.807 2.4A7.981 7.981 0 0 0-10.8.033V-1.79c-.275.017-.678.044-.9.039zM-4.616-9.6a1.222 1.222 0 0 0 1.26-1.177 1.226 1.226 0 0 0-1.26-1.177 1.226 1.226 0 0 0-1.26 1.177A1.222 1.222 0 0 0-4.616-9.6zM-3.461 0v-8.486h-2.315V0zm5.486-1.751c-.475-.017-.807-.177-.807-.851v-4.144h1.6v-1.74h-1.6v-2.033H-1.1v2.033h-1.162v1.74H-1.1v4.459C-1.108-.635.03.116 1.71.116A7.981 7.981 0 0 0 2.931.033V-1.79c-.276.017-.68.044-.906.039zm9.889-2.541c0-2.9-1.757-4.3-3.983-4.3-2.486 0-4.1 1.773-4.1 4.392 0 2.691 1.6 4.37 4.2 4.37 2.094 0 3.5-1.017 3.829-2.58h-2.2a1.645 1.645 0 0 1-1.591.845 1.876 1.876 0 0 1-1.95-2.077h5.8zm-5.8-.8a1.835 1.835 0 0 1 1.861-1.775 1.705 1.705 0 0 1 1.757 1.773zM15.682 0v-5.1a1.442 1.442 0 0 1 1.4-1.586A1.265 1.265 0 0 1 18.4-5.315V0h2.238v-5.193a1.343 1.343 0 0 1 1.381-1.492 1.272 1.272 0 0 1 1.326 1.425V0h2.315v-5.707a2.6 2.6 0 0 0-2.68-2.89 2.567 2.567 0 0 0-2.552 1.6h-.088a2.248 2.248 0 0 0-2.3-1.6 2.384 2.384 0 0 0-2.365 1.6h-.1v-1.489h-2.2V0zm16.6-9.6a1.222 1.222 0 0 0 1.26-1.177 1.226 1.226 0 0 0-1.26-1.177 1.226 1.226 0 0 0-1.26 1.177A1.222 1.222 0 0 0 32.285-9.6zM33.439 0v-8.486h-2.315V0zm8.818-5.961C42.135-7.58 40.809-8.6 38.66-8.6c-2.182 0-3.58 1.017-3.575 2.646-.006 1.254.823 2.088 2.448 2.409l1.4.276c.8.166 1.149.436 1.155.878-.006.547-.564.878-1.4.878-.856 0-1.392-.343-1.508-1.006h-2.32c.188 1.657 1.53 2.68 3.829 2.68 2.254 0 3.751-1.116 3.757-2.785-.006-1.227-.8-1.961-2.442-2.3l-1.53-.309c-.8-.171-1.094-.47-1.088-.856-.006-.508.564-.862 1.315-.862a1.258 1.258 0 0 1 1.392.983zm10.724-2.525L51.2-2.387h-.088l-1.785-6.1h-2.446L49.854 0h2.6l2.972-8.486zm6.906-.11c-2.254 0-3.536 1.16-3.669 2.635h2.193a1.284 1.284 0 0 1 1.42-.939c.856 0 1.343.409 1.348 1.127v.685c-.354.011-1.5.061-2.1.1-1.63.1-3.155.718-3.155 2.619 0 1.674 1.2 2.53 2.823 2.53a2.6 2.6 0 0 0 2.481-1.337h.066V0h2.193v-5.718c-.004-2.044-1.749-2.882-3.6-2.882zM59.4-1.448c-.74 0-1.265-.337-1.265-.994s.508-1.033 1.315-1.1c.4-.039 1.4-.094 1.74-.11v.619a1.642 1.642 0 0 1-1.79 1.585zm5.84-9.867V0h2.315v-11.315zM70.517-9.6a1.222 1.222 0 0 0 1.26-1.177 1.226 1.226 0 0 0-1.26-1.177 1.226 1.226 0 0 0-1.26 1.177 1.222 1.222 0 0 0 1.26 1.177zM71.671 0v-8.486h-2.315V0zM76.6.138a2.524 2.524 0 0 0 2.414-1.492h.1V0H81.4v-11.315h-2.314v4.254h-.066A2.5 2.5 0 0 0 76.6-8.6c-1.873 0-3.448 1.459-3.448 4.365C73.152-1.4 74.66.138 76.6.138zm.724-1.845c-1.177 0-1.812-1.039-1.812-2.536s.624-2.5 1.812-2.5c1.155 0 1.807.972 1.807 2.5s-.659 2.536-1.802 2.536z" transform="translate(91.395 15.95)"/>
    </g>
    <path id="다각형_179" data-name="다각형 179" class="cls-9" d="M7.5 0 15 11H0z" transform="rotate(180 480.5 168)"/>
    <path id="다각형_182" data-name="다각형 182" class="cls-9" d="M7.5 0 15 11H0z" transform="rotate(180 480.5 300)"/>
    <path id="다각형_183" data-name="다각형 183" class="cls-9" d="M7.5 0 15 11H0z" transform="rotate(180 195.5 300)"/>
</svg>
