<svg id="ENG_fc_box_smaller_color_01" xmlns="http://www.w3.org/2000/svg" width="258" height="135" viewBox="0 0 258 135">
    <defs>
        <clipPath id="clip-path">
            <path id="사각형_664" data-name="사각형 664" style="stroke:#527773;stroke-width:2px;fill:none" d="M0 0h20v20H0z"/>
        </clipPath>
        <style>
            .cls-5{fill:none;stroke:#527773;stroke-width:2px;stroke-miterlimit:10}.cls-6{fill:#326f5e}
        </style>
    </defs>
    <g id="fc_box_small2_color" transform="translate(0 5)">
        <g id="fc_box_small2_color-2" data-name="fc_box_small2_color">
            <g id="fc_box_medium_small_color">
                <g id="box" style="fill:#f5faf8;stroke-width:2px;stroke:#6c918e;">
                    <path style="stroke:none" d="M0 0h258v130H0z"/>
                    <path style="fill:none" d="M1 1h256v128H1z"/>
                </g>
                <g id="그룹_1860" data-name="그룹 1860" transform="translate(-650 -2798)">
                    <g id="그룹_1843" data-name="그룹 1843">
                        <g id="ico_flowchart_info" transform="translate(841.504 2850)">
                            <g id="그룹_883" data-name="그룹 883" transform="translate(2 2)">
                                <g id="그룹_882" data-name="그룹 882" style="clip-path:url(#clip-path)">
                                    <circle id="타원_113" data-name="타원 113" class="cls-5" cx="9" cy="9" r="9" transform="translate(1 1)"/>
                                    <path id="선_136" data-name="선 136" class="cls-5" transform="translate(10 9)" d="M0 0v6"/>
                                    <path id="선_137" data-name="선 137" class="cls-5" transform="translate(10 5)" d="M0 0v2"/>
                                </g>
                            </g>
                        </g>
                        <path id="패스_10959" data-name="패스 10959" class="cls-6" d="m-59.34 0-4.89-14.144h-3.778L-72.9 0h3.149l1.064-3.26h5.131L-62.49 0zm-6.837-10.953h.11l1.761 5.394h-3.633zM-54.375.173a3.155 3.155 0 0 0 3.018-1.865h.124V0h2.845v-14.144h-2.887v5.318h-.083a3.131 3.131 0 0 0-3.025-1.92c-2.341 0-4.309 1.823-4.309 5.456.001 3.543 1.886 5.463 4.317 5.463zm.9-2.307c-1.471 0-2.265-1.3-2.265-3.17s.78-3.128 2.265-3.128c1.443 0 2.258 1.215 2.258 3.128s-.824 3.17-2.253 3.17zm14.185-8.474-2.224 7.624h-.111l-2.231-7.624h-3.054L-43.194 0h3.253l3.715-10.608zm8.633-.138c-2.818 0-4.42 1.45-4.586 3.294h2.743a1.6 1.6 0 0 1 1.775-1.174c1.07 0 1.678.511 1.685 1.409v.856c-.442.014-1.878.076-2.631.124-2.037.131-3.943.9-3.943 3.273C-35.611-.87-34.106.2-32.082.2a3.255 3.255 0 0 0 3.1-1.671h.083V0h2.742v-7.148c0-2.552-2.182-3.598-4.496-3.598zm-.608 8.936c-.925 0-1.581-.421-1.581-1.243s.635-1.291 1.644-1.374a70.68 70.68 0 0 1 2.175-.138v.773a2.052 2.052 0 0 1-2.233 1.983zm10.193-4.33a1.977 1.977 0 0 1 2.037-2.2 1.836 1.836 0 0 1 1.9 2.093V0h2.894v-6.754c0-2.479-1.443-3.992-3.653-3.992a3.2 3.2 0 0 0-3.191 2h-.124v-1.865h-2.756V0h2.894zM-7.234.207c2.8 0 4.572-1.651 4.71-4.061h-2.728a1.9 1.9 0 0 1-1.954 1.761c-1.4 0-2.3-1.167-2.3-3.211 0-2.023.912-3.184 2.3-3.184a1.918 1.918 0 0 1 1.954 1.775h2.728c-.131-2.438-1.982-4.033-4.724-4.033-3.2 0-5.2 2.231-5.2 5.483 0 3.226 1.954 5.47 5.214 5.47zM8.933-5.366c0-3.619-2.2-5.38-4.979-5.38-3.108 0-5.131 2.217-5.131 5.49 0 3.363 2 5.463 5.249 5.463 2.617 0 4.372-1.271 4.786-3.225h-2.75a2.056 2.056 0 0 1-1.989 1.057 2.344 2.344 0 0 1-2.438-2.6h7.252zm-7.251-1a2.294 2.294 0 0 1 2.327-2.218 2.131 2.131 0 0 1 2.2 2.217zm16.575.228a1.977 1.977 0 0 1 2.037-2.2 1.836 1.836 0 0 1 1.9 2.093V0h2.894v-6.754c0-2.479-1.443-3.992-3.653-3.992a3.2 3.2 0 0 0-3.191 2h-.124v-1.865h-2.757V0h2.894zM32.089.207c3.2 0 5.2-2.2 5.2-5.47 0-3.287-2-5.483-5.2-5.483s-5.214 2.2-5.214 5.483c0 3.263 2.003 5.47 5.214 5.47zm.011-2.244c-1.512 0-2.286-1.381-2.286-3.246s.776-3.253 2.286-3.253c1.478 0 2.251 1.4 2.251 3.253s-.77 3.246-2.251 3.246zm11.616-.152c-.594-.021-1.008-.221-1.008-1.064v-5.18h2v-2.175h-2v-2.541h-2.891v2.541H38.36v2.175h1.457v5.573c-.014 2.065 1.409 3 3.508 3a9.976 9.976 0 0 0 1.526-.1v-2.278c-.345.021-.851.056-1.132.049zM47.966-12a1.528 1.528 0 0 0 1.575-1.471 1.532 1.532 0 0 0-1.575-1.471 1.532 1.532 0 0 0-1.575 1.471A1.528 1.528 0 0 0 47.966-12zM49.41 0v-10.608h-2.894V0zm7.03.207c2.8 0 4.572-1.651 4.71-4.061h-2.728a1.9 1.9 0 0 1-1.954 1.761c-1.4 0-2.3-1.167-2.3-3.211 0-2.023.912-3.184 2.3-3.184a1.918 1.918 0 0 1 1.954 1.775h2.728c-.131-2.438-1.982-4.033-4.724-4.033-3.2 0-5.2 2.231-5.2 5.483 0 3.226 1.954 5.47 5.214 5.47zm16.167-5.573c0-3.619-2.2-5.38-4.979-5.38-3.108 0-5.131 2.217-5.131 5.49 0 3.363 2 5.463 5.249 5.463 2.617 0 4.372-1.271 4.786-3.225h-2.75a2.056 2.056 0 0 1-1.989 1.057 2.344 2.344 0 0 1-2.438-2.6h7.251zm-7.251-1a2.294 2.294 0 0 1 2.327-2.217 2.131 2.131 0 0 1 2.2 2.217z" transform="translate(765 2869)"/>
                    </g>
                    <path id="line" class="cls-6" transform="translate(692 2876)" d="M0 0h174v1H0z"/>
                </g>
            </g>
        </g>
    </g>
    <path id="다각형_147" data-name="다각형 147" d="M7.5 0 15 11H0z" transform="rotate(180 68.5 5.5)" style="fill:#999"/>
</svg>
