<svg id="ENG_fc_box_smaller_color_06" xmlns="http://www.w3.org/2000/svg" width="166" height="135" viewBox="0 0 166 135">
    <defs>
        <clipPath id="clip-path">
            <path id="사각형_664" data-name="사각형 664" style="stroke:#527773;stroke-width:2px;fill:none" d="M0 0h20v20H0z"/>
        </clipPath>
        <style>
            .cls-5{fill:none;stroke:#527773;stroke-width:2px;stroke-miterlimit:10}.cls-6{fill:#527773}
        </style>
    </defs>
    <g id="fc_box_small_link_hover" transform="translate(0 5)">
        <g id="box" style="fill:#f5faf8;stroke-width:2px;stroke:#6c918e;">
            <path style="stroke:none" d="M0 0h166v130H0z"/>
            <path style="fill:none" d="M1 1h164v128H1z"/>
        </g>
        <g id="text" transform="translate(-154)">
            <g id="ic_info" transform="translate(283.127 53)">
                <g id="그룹_883" data-name="그룹 883" transform="translate(2 2)">
                    <g id="그룹_882" data-name="그룹 882" style="clip-path:url(#clip-path)">
                        <circle id="타원_113" data-name="타원 113" class="cls-5" cx="9" cy="9" r="9" transform="translate(1 1)"/>
                        <path id="선_136" data-name="선 136" class="cls-5" transform="translate(10 9)" d="M0 0v6"/>
                        <path id="선_137" data-name="선 137" class="cls-5" transform="translate(10 5)" d="M0 0v2"/>
                    </g>
                </g>
            </g>
            <path id="패스_10973" data-name="패스 10973" class="cls-6" d="M12.307 0 9.3-5.5a4.071 4.071 0 0 0 2.5-4.033c0-2.79-1.844-4.606-5.062-4.606H1.195V0H4.13v-5.028h2.237L9.054 0zM6.188-11.733c1.747 0 2.59.78 2.59 2.2S7.935-7.4 6.195-7.4H4.13v-4.33zM23.26-5.366c0-3.619-2.2-5.38-4.979-5.38-3.108 0-5.131 2.217-5.131 5.49 0 3.363 2 5.463 5.249 5.463 2.617 0 4.372-1.271 4.786-3.225h-2.75a2.056 2.056 0 0 1-1.989 1.057 2.344 2.344 0 0 1-2.438-2.6h7.252zm-7.251-1a2.294 2.294 0 0 1 2.327-2.217 2.131 2.131 0 0 1 2.2 2.217zM29.841 4.2c3.018 0 5.152-1.374 5.152-4.088v-10.72h-2.859v1.782h-.117a3.141 3.141 0 0 0-3.032-1.92c-2.341 0-4.309 1.789-4.309 5.38 0 3.529 1.92 5.214 4.316 5.214a3.1 3.1 0 0 0 3.032-1.733h.124V.069c0 1.471-.9 2.037-2.244 2.037-1.146 0-1.948-.38-2.106-1.236h-2.853c.172 2.017 1.975 3.33 4.896 3.33zm.059-6.527c-1.471 0-2.265-1.167-2.265-3.011 0-1.823.78-3.094 2.265-3.094 1.443 0 2.258 1.215 2.258 3.094s-.832 3.011-2.258 3.011zM38.7-12a1.528 1.528 0 0 0 1.575-1.471 1.532 1.532 0 0 0-1.575-1.467 1.532 1.532 0 0 0-1.575 1.471A1.528 1.528 0 0 0 38.7-12zm1.445 12v-10.608h-2.894V0zm11.022-7.452c-.152-2.023-1.809-3.294-4.5-3.294-2.728 0-4.475 1.271-4.468 3.308-.007 1.568 1.029 2.61 3.059 3.011l1.754.345c.994.207 1.436.546 1.443 1.1-.007.684-.7 1.1-1.754 1.1-1.07 0-1.74-.428-1.885-1.257h-2.9c.239 2.069 1.917 3.346 4.79 3.346 2.818 0 4.689-1.4 4.7-3.481-.007-1.533-1-2.452-3.052-2.873l-1.913-.387c-.994-.214-1.367-.587-1.36-1.07-.007-.635.7-1.077 1.644-1.077a1.573 1.573 0 0 1 1.74 1.229zm6.616 5.262c-.594-.021-1.008-.221-1.008-1.064v-5.18h2v-2.175h-2v-2.541h-2.894v2.541h-1.457v2.175h1.457v5.573c-.014 2.065 1.409 3 3.508 3a9.976 9.976 0 0 0 1.526-.1v-2.277c-.345.021-.849.056-1.132.049zM63.474 0v-6.029a2.16 2.16 0 0 1 2.265-2.217 5.177 5.177 0 0 1 1.236.159v-2.583a5.534 5.534 0 0 0-.925-.09 2.585 2.585 0 0 0-2.555 2h-.111v-1.844h-2.8V0zm9.081-10.746c-2.818 0-4.42 1.45-4.586 3.294h2.742a1.6 1.6 0 0 1 1.775-1.174c1.07 0 1.678.511 1.685 1.409v.856c-.442.014-1.878.076-2.631.124-2.04.137-3.94.899-3.94 3.274C67.6-.87 69.1.2 71.126.2a3.255 3.255 0 0 0 3.1-1.671h.083V0h2.742v-7.148c0-2.552-2.182-3.598-4.496-3.598zm-.608 8.936c-.925 0-1.581-.421-1.581-1.243S71-4.344 72.01-4.427a70.68 70.68 0 0 1 2.175-.138v.773a2.052 2.052 0 0 1-2.237 1.983zm11.906-.38c-.594-.021-1.008-.221-1.008-1.064v-5.18h2v-2.175h-2v-2.541h-2.893v2.541h-1.458v2.175h1.457v5.573c-.014 2.065 1.409 3 3.508 3a9.976 9.976 0 0 0 1.526-.1v-2.277c-.344.021-.848.056-1.131.049zM88.1-12a1.528 1.528 0 0 0 1.575-1.471 1.532 1.532 0 0 0-1.575-1.467 1.532 1.532 0 0 0-1.575 1.471A1.528 1.528 0 0 0 88.1-12zm1.444 12v-10.608h-2.893V0zm7.03.207c3.2 0 5.2-2.2 5.2-5.47 0-3.287-2-5.483-5.2-5.483S91.36-8.55 91.36-5.262C91.36-2 93.363.207 96.575.207zm.014-2.244c-1.512 0-2.286-1.381-2.286-3.246s.773-3.253 2.286-3.253c1.478 0 2.251 1.4 2.251 3.253s-.773 3.246-2.251 3.246zm9.9-4.1a1.977 1.977 0 0 1 2.037-2.2 1.836 1.836 0 0 1 1.9 2.093V0h2.894v-6.754c0-2.479-1.443-3.992-3.653-3.992a3.2 3.2 0 0 0-3.191 2h-.124v-1.865H103.6V0h2.894z" transform="translate(165.805 72)"/>
        </g>
        <path id="사각형_782" data-name="사각형 782" class="cls-6" transform="translate(13 79)" d="M0 0h140v1H0z"/>
    </g>
    <path id="다각형_143" data-name="다각형 143" d="M7.5 0 15 11H0z" transform="rotate(180 45.5 5.5)" style="fill:#999"/>
</svg>
