<svg id="ENG_fc_box_smaller_color_07" xmlns="http://www.w3.org/2000/svg" width="258" height="163" viewBox="0 0 258 163">
    <defs>
        <clipPath id="clip-path">
            <path id="사각형_664" data-name="사각형 664" style="stroke:#527773;stroke-width:2px;fill:none" d="M0 0h20v20H0z"/>
        </clipPath>
        <style>
            .cls-6{fill:none;stroke:#527773;stroke-width:2px}.cls-3{fill:#326f5e}.cls-6{stroke-miterlimit:10}
        </style>
    </defs>
    <g id="fc_box_small2__long_color" data-name="fc_box_small2_ long_color" transform="translate(0 5)">
        <g id="fc_box_smaller_small_long_link_color">
            <g id="fc_box_smaller_small_long_link_color-2" data-name="fc_box_smaller_small_long_link_color">
                <g id="box" style="fill:#d7eae1;stroke:#527773;stroke-width:2px">
                    <path style="stroke:none" d="M0 0h258v158H0z"/>
                    <path style="fill:none" d="M1 1h256v156H1z"/>
                </g>
                <path id="패스_11083" data-name="패스 11083" class="cls-3" d="M-55.173-10.1c-.041-2.507-2.106-4.24-5.242-4.24-3.087 0-5.359 1.706-5.345 4.268-.007 2.089 1.46 3.272 3.847 3.857l1.547.38c1.54.38 2.41.829 2.417 1.789-.007 1.064-1 1.775-2.541 1.775-1.561 0-2.693-.711-2.79-2.134h-2.852C-66.05-1.381-63.867.2-60.456.2c3.446 0 5.463-1.651 5.477-4.233-.014-2.362-1.816-3.6-4.233-4.144l-1.278-.311c-1.222-.283-2.279-.739-2.258-1.775 0-.932.829-1.616 2.314-1.616 1.436 0 2.327.656 2.438 1.782zm8.847 5.58a2.033 2.033 0 0 1-2.051 2.2 1.828 1.828 0 0 1-1.858-2.044v-6.25h-2.894v6.754c.007 2.486 1.457 3.992 3.591 3.992a3.257 3.257 0 0 0 3.212-2.052h.11V0h2.776v-10.608h-2.887zM-38.273 0v-1.692h.124A3.155 3.155 0 0 0-35.131.173c2.431 0 4.316-1.92 4.316-5.463 0-3.633-1.968-5.456-4.309-5.456a3.138 3.138 0 0 0-3.025 1.92h-.083v-5.318h-2.887V0zm-.021-5.3c0-1.913.815-3.128 2.258-3.128 1.485 0 2.265 1.271 2.265 3.128s-.794 3.17-2.265 3.17c-1.429-.004-2.258-1.27-2.258-3.17zM-26.07 0v-6.374a1.8 1.8 0 0 1 1.747-1.982 1.581 1.581 0 0 1 1.643 1.712V0h2.8v-6.492a1.678 1.678 0 0 1 1.727-1.865 1.59 1.59 0 0 1 1.664 1.782V0h2.889v-7.134c0-2.307-1.381-3.612-3.349-3.612a3.208 3.208 0 0 0-3.191 2h-.11a2.81 2.81 0 0 0-2.88-2 2.98 2.98 0 0 0-2.956 2h-.124v-1.865h-2.756V0zm16.14-12a1.528 1.528 0 0 0 1.575-1.471 1.532 1.532 0 0 0-1.575-1.471 1.532 1.532 0 0 0-1.575 1.471A1.528 1.528 0 0 0-9.931-12zm1.442 12v-10.608h-2.894V0zM2.535-7.452c-.152-2.023-1.809-3.294-4.5-3.294-2.728 0-4.475 1.271-4.468 3.308C-6.436-5.87-5.4-4.827-3.37-4.427l1.754.345c.994.207 1.436.546 1.443 1.1-.007.684-.7 1.1-1.754 1.1-1.07 0-1.74-.428-1.885-1.257h-2.9C-6.478-1.07-4.8.207-1.927.207c2.818 0 4.689-1.4 4.7-3.481-.007-1.533-1-2.452-3.052-2.873L-2.2-6.533c-.994-.214-1.367-.587-1.36-1.07-.007-.635.7-1.077 1.644-1.077A1.573 1.573 0 0 1-.173-7.452zm10.78 0c-.152-2.023-1.809-3.294-4.5-3.294-2.728 0-4.475 1.271-4.468 3.308C4.344-5.87 5.38-4.827 7.41-4.427l1.754.345c.994.207 1.436.546 1.443 1.1-.007.684-.7 1.1-1.754 1.1-1.07 0-1.74-.428-1.885-1.257h-2.9C4.3-1.07 5.981.207 8.854.207c2.818 0 4.689-1.4 4.7-3.481-.007-1.533-1-2.452-3.052-2.873l-1.918-.386C7.59-6.747 7.217-7.12 7.224-7.6c-.007-.635.7-1.077 1.644-1.077a1.573 1.573 0 0 1 1.74 1.229zM16.775-12a1.528 1.528 0 0 0 1.575-1.471 1.532 1.532 0 0 0-1.575-1.471 1.532 1.532 0 0 0-1.575 1.475A1.528 1.528 0 0 0 16.775-12zm1.443 12v-10.608h-2.893V0zm7.03.207c3.2 0 5.2-2.2 5.2-5.47 0-3.287-2-5.483-5.2-5.483s-5.214 2.2-5.214 5.483C20.035-2 22.037.207 25.249.207zm.014-2.244c-1.512 0-2.286-1.381-2.286-3.246s.773-3.253 2.286-3.253c1.478 0 2.251 1.4 2.251 3.253s-.773 3.246-2.251 3.246zm9.9-4.1a1.977 1.977 0 0 1 2.037-2.2A1.836 1.836 0 0 1 39.1-6.25V0H42v-6.754c0-2.479-1.443-3.992-3.653-3.992a3.2 3.2 0 0 0-3.191 2h-.124v-1.865h-2.76V0h2.894zM53.612.207c3.2 0 5.2-2.2 5.2-5.47 0-3.287-2-5.483-5.2-5.483S48.4-8.55 48.4-5.262C48.4-2 50.4.207 53.612.207zm.014-2.244c-1.512 0-2.286-1.381-2.286-3.246s.773-3.253 2.286-3.253c1.478 0 2.251 1.4 2.251 3.253s-.777 3.246-2.251 3.246zM65.6-12.493a6.934 6.934 0 0 1 .891.062v-2.2a8.086 8.086 0 0 0-1.733-.173 3.131 3.131 0 0 0-3.467 3.4v.794h-1.505v2.175h1.506V0h2.894v-8.432H66.3v-2.175h-2.115v-.649c0-.878.49-1.237 1.415-1.237z" transform="translate(129 54)"/>
                <path id="패스_11084" data-name="패스 11084" class="cls-3" d="M-95.559.173a3.155 3.155 0 0 0 3.018-1.865h.124V0h2.845v-14.144h-2.887v5.318h-.083a3.131 3.131 0 0 0-3.025-1.92c-2.341 0-4.309 1.823-4.309 5.456 0 3.543 1.886 5.463 4.317 5.463zm.9-2.307c-1.471 0-2.265-1.3-2.265-3.17s.78-3.128 2.265-3.128c1.443 0 2.258 1.215 2.258 3.128s-.824 3.17-2.254 3.17zm17.079-3.232c0-3.619-2.2-5.38-4.979-5.38-3.108 0-5.131 2.217-5.131 5.49 0 3.363 2 5.463 5.249 5.463 2.617 0 4.372-1.271 4.786-3.225H-80.4a2.056 2.056 0 0 1-1.99 1.057 2.344 2.344 0 0 1-2.438-2.6h7.251zm-7.251-1A2.294 2.294 0 0 1-82.5-8.584a2.131 2.131 0 0 1 2.2 2.217zm13.674 4.178c-.594-.021-1.008-.221-1.008-1.064v-5.18h2v-2.175h-2v-2.541h-2.894v2.541h-1.457v2.175h1.457v5.573c-.014 2.065 1.409 3 3.508 3a9.976 9.976 0 0 0 1.526-.1v-2.279c-.341.021-.845.056-1.128.049zm7.258-8.557c-2.818 0-4.42 1.45-4.586 3.294h2.742a1.6 1.6 0 0 1 1.775-1.174c1.07 0 1.678.511 1.685 1.409v.856c-.442.014-1.878.076-2.631.124-2.037.131-3.943.9-3.943 3.273C-68.854-.87-67.348.2-65.325.2a3.255 3.255 0 0 0 3.1-1.671h.083V0h2.742v-7.148c0-2.552-2.182-3.598-4.5-3.598zm-.601 8.936c-.925 0-1.581-.421-1.581-1.243s.635-1.291 1.644-1.374a70.68 70.68 0 0 1 2.175-.138v.773A2.052 2.052 0 0 1-64.5-1.809zM-55.753-12a1.528 1.528 0 0 0 1.575-1.471 1.532 1.532 0 0 0-1.575-1.471 1.532 1.532 0 0 0-1.575 1.471A1.528 1.528 0 0 0-55.753-12zm1.443 12v-10.608h-2.89V0zm2.251-14.144V0h2.894v-14.144zm14.82 8.778c0-3.619-2.2-5.38-4.979-5.38-3.108 0-5.131 2.217-5.131 5.49 0 3.363 2 5.463 5.249 5.463 2.617 0 4.372-1.271 4.786-3.225h-2.749a2.056 2.056 0 0 1-1.989 1.057 2.344 2.344 0 0 1-2.438-2.6h7.251zm-7.251-1a2.294 2.294 0 0 1 2.327-2.217 2.131 2.131 0 0 1 2.2 2.217zM-31.506.173a3.155 3.155 0 0 0 3.018-1.865h.124V0h2.845v-14.144H-28.4v5.318h-.083a3.131 3.131 0 0 0-3.025-1.92c-2.341 0-4.309 1.823-4.309 5.456-.005 3.543 1.881 5.463 4.311 5.463zm.9-2.307c-1.471 0-2.265-1.3-2.265-3.17s.78-3.128 2.265-3.128c1.443 0 2.258 1.215 2.258 3.128s-.823 3.17-2.252 3.17zm20.792-5.318c-.152-2.023-1.809-3.294-4.5-3.294-2.728 0-4.475 1.271-4.468 3.308-.007 1.568 1.029 2.61 3.059 3.011l1.754.345c.994.207 1.436.546 1.443 1.1-.007.684-.7 1.1-1.754 1.1-1.07 0-1.74-.428-1.885-1.257h-2.9c.239 2.069 1.917 3.346 4.79 3.346 2.818 0 4.689-1.4 4.7-3.481-.007-1.533-1-2.452-3.052-2.873l-1.913-.387c-.994-.214-1.367-.587-1.36-1.07-.007-.635.7-1.077 1.644-1.077a1.573 1.573 0 0 1 1.74 1.229zM-3.2-2.189c-.594-.021-1.008-.221-1.008-1.064v-5.18h2v-2.175h-2v-2.541H-7.1v2.541h-1.457v2.175H-7.1v5.573c-.014 2.065 1.409 3 3.508 3a9.976 9.976 0 0 0 1.526-.1v-2.278c-.344.021-.848.056-1.134.049zm7.258-8.557c-2.818 0-4.42 1.45-4.586 3.294h2.745a1.6 1.6 0 0 1 1.775-1.174c1.07 0 1.678.511 1.685 1.409v.856c-.442.014-1.878.076-2.631.124C1.008-6.1-.9-5.338-.9-2.963-.9-.87.608.2 2.631.2a3.255 3.255 0 0 0 3.1-1.671h.083V0h2.743v-7.148c0-2.552-2.183-3.598-4.496-3.598zm-.605 8.937c-.925 0-1.581-.421-1.581-1.243s.635-1.291 1.644-1.374a70.68 70.68 0 0 1 2.175-.138v.773a2.052 2.052 0 0 1-2.238 1.982zm11.906-.38c-.594-.021-1.008-.221-1.008-1.064v-5.18h2v-2.175h-2v-2.541h-2.894v2.541H10v2.175h1.457v5.573c-.014 2.065 1.409 3 3.508 3a9.976 9.976 0 0 0 1.526-.1v-2.278c-.345.021-.849.056-1.132.049zm12.362-3.177c0-3.619-2.2-5.38-4.979-5.38-3.108 0-5.131 2.217-5.131 5.49 0 3.363 2 5.463 5.249 5.463 2.617 0 4.372-1.271 4.786-3.225H24.9a2.056 2.056 0 0 1-1.989 1.057 2.344 2.344 0 0 1-2.438-2.6h7.251zm-7.251-1a2.294 2.294 0 0 1 2.33-2.218A2.131 2.131 0 0 1 25-6.367zM32.431 0v-6.374a1.8 1.8 0 0 1 1.747-1.982 1.581 1.581 0 0 1 1.644 1.713V0h2.8v-6.492a1.678 1.678 0 0 1 1.727-1.865 1.59 1.59 0 0 1 1.661 1.782V0h2.89v-7.134c0-2.307-1.381-3.612-3.349-3.612a3.208 3.208 0 0 0-3.191 2h-.11a2.81 2.81 0 0 0-2.88-2 2.98 2.98 0 0 0-2.956 2h-.124v-1.865h-2.753V0zM56.8-5.366c0-3.619-2.2-5.38-4.979-5.38-3.108 0-5.131 2.217-5.131 5.49 0 3.363 2 5.463 5.249 5.463 2.617 0 4.372-1.271 4.786-3.225h-2.754a2.056 2.056 0 0 1-1.989 1.057 2.344 2.344 0 0 1-2.438-2.6H56.8zm-7.251-1a2.294 2.294 0 0 1 2.327-2.217 2.131 2.131 0 0 1 2.2 2.217zm11.961.228a1.977 1.977 0 0 1 2.037-2.2 1.836 1.836 0 0 1 1.9 2.093V0h2.894v-6.754c0-2.479-1.443-3.992-3.653-3.992a3.2 3.2 0 0 0-3.191 2h-.124v-1.865h-2.761V0h2.894zm13.66 3.95c-.594-.021-1.008-.221-1.008-1.064v-5.18h2v-2.175h-2v-2.541h-2.898v2.541h-1.457v2.175h1.457v5.573c-.014 2.065 1.409 3 3.508 3a9.976 9.976 0 0 0 1.528-.1v-2.279c-.347.021-.851.056-1.134.049zM87.355.207c3.2 0 5.2-2.2 5.2-5.47 0-3.287-2-5.483-5.2-5.483s-5.214 2.2-5.214 5.483c0 3.263 2.003 5.47 5.214 5.47zm.014-2.244c-1.512 0-2.286-1.381-2.286-3.246s.773-3.253 2.286-3.253c1.478 0 2.251 1.4 2.251 3.253s-.773 3.246-2.251 3.246zm11.975-10.456a6.934 6.934 0 0 1 .891.062v-2.2a8.086 8.086 0 0 0-1.733-.173 3.131 3.131 0 0 0-3.467 3.4v.794h-1.506v2.175h1.506V0h2.894v-8.432h2.113v-2.175h-2.114v-.649c0-.878.491-1.237 1.416-1.237z" transform="translate(129 84)"/>
                <g id="그룹_11123" data-name="그룹 11123" transform="translate(-45 14)">
                    <g id="ico_flowchart_info" transform="translate(260.434 81)">
                        <g id="그룹_883" data-name="그룹 883" transform="translate(2 2)">
                            <g id="그룹_882" data-name="그룹 882" style="clip-path:url(#clip-path)">
                                <circle id="타원_113" data-name="타원 113" class="cls-6" cx="9" cy="9" r="9" transform="translate(1 1)"/>
                                <path id="선_136" data-name="선 136" class="cls-6" transform="translate(10 9)" d="M0 0v6"/>
                                <path id="선_137" data-name="선 137" class="cls-6" transform="translate(10 5)" d="M0 0v2"/>
                            </g>
                        </g>
                    </g>
                    <path id="패스_11085" data-name="패스 11085" class="cls-3" d="M-92.206.207c2.8 0 4.572-1.651 4.71-4.061h-2.728a1.9 1.9 0 0 1-1.954 1.761c-1.4 0-2.3-1.167-2.3-3.211 0-2.023.912-3.184 2.3-3.184a1.918 1.918 0 0 1 1.954 1.775h2.724c-.131-2.438-1.982-4.033-4.724-4.033-3.2 0-5.2 2.231-5.2 5.483.003 3.226 1.958 5.47 5.218 5.47zm9.385-6.347a2 2 0 0 1 2.072-2.2 1.833 1.833 0 0 1 1.913 2.09V0h2.894v-6.754c0-2.493-1.457-3.992-3.667-3.992a3.133 3.133 0 0 0-3.17 2h-.121v-5.4h-2.811V0h2.894zm18.778.773c0-3.619-2.2-5.38-4.979-5.38-3.108 0-5.131 2.217-5.131 5.49 0 3.363 2 5.463 5.249 5.463 2.617 0 4.372-1.271 4.786-3.225h-2.749a2.056 2.056 0 0 1-1.989 1.057 2.344 2.344 0 0 1-2.438-2.6h7.251zm-7.251-1a2.294 2.294 0 0 1 2.327-2.217 2.131 2.131 0 0 1 2.2 2.217zM-59.334 0v-6.374a1.8 1.8 0 0 1 1.747-1.982 1.581 1.581 0 0 1 1.644 1.713V0h2.8v-6.492a1.678 1.678 0 0 1 1.727-1.865 1.59 1.59 0 0 1 1.664 1.782V0h2.894v-7.134c0-2.307-1.381-3.612-3.349-3.612a3.208 3.208 0 0 0-3.191 2h-.11a2.81 2.81 0 0 0-2.88-2 2.98 2.98 0 0 0-2.956 2h-.124v-1.865h-2.756V0zm16.14-12a1.528 1.528 0 0 0 1.575-1.471 1.532 1.532 0 0 0-1.575-1.471 1.532 1.532 0 0 0-1.575 1.471A1.528 1.528 0 0 0-43.194-12zm1.443 12v-10.608h-2.894V0zm7.03.207c2.8 0 4.572-1.651 4.71-4.061h-2.728a1.9 1.9 0 0 1-1.954 1.761c-1.4 0-2.3-1.167-2.3-3.211 0-2.023.912-3.184 2.3-3.184a1.918 1.918 0 0 1 1.954 1.775h2.728c-.131-2.438-1.982-4.033-4.724-4.033-3.2 0-5.2 2.231-5.2 5.483.001 3.226 1.955 5.47 5.215 5.47zm10.953-10.953c-2.818 0-4.42 1.45-4.586 3.294h2.742a1.6 1.6 0 0 1 1.775-1.174c1.07 0 1.678.511 1.685 1.409v.856c-.442.014-1.878.076-2.631.124-2.037.131-3.943.9-3.943 3.273C-28.726-.87-27.22.2-25.2.2a3.255 3.255 0 0 0 3.1-1.671h.083V0h2.742v-7.148c.004-2.552-2.179-3.598-4.492-3.598zm-.608 8.936c-.925 0-1.581-.421-1.581-1.243s.635-1.291 1.644-1.374a70.68 70.68 0 0 1 2.175-.138v.773a2.052 2.052 0 0 1-2.237 1.983zm7.3-12.334V0h2.894v-14.144zm16.54 3.536-2.223 7.625h-.11L-5.1-10.608h-3.06L-4.444 0h3.253l3.715-10.608zm13.792 5.242c0-3.619-2.2-5.38-4.979-5.38-3.108 0-5.131 2.217-5.131 5.49 0 3.363 2 5.463 5.249 5.463 2.617 0 4.372-1.271 4.786-3.225h-2.749a2.056 2.056 0 0 1-1.989 1.057A2.344 2.344 0 0 1 6-4.558h7.251zM6-6.367a2.294 2.294 0 0 1 2.332-2.217 2.131 2.131 0 0 1 2.2 2.217zM17.966 0v-6.029a2.16 2.16 0 0 1 2.265-2.217 5.177 5.177 0 0 1 1.236.159v-2.583a5.534 5.534 0 0 0-.925-.09 2.585 2.585 0 0 0-2.555 2h-.11v-1.844h-2.8V0zm6.36-12a1.528 1.528 0 0 0 1.574-1.467 1.532 1.532 0 0 0-1.575-1.471 1.532 1.532 0 0 0-1.575 1.471A1.528 1.528 0 0 0 24.327-12zM25.77 0v-10.608h-2.894V0zm7.217-12.493a6.934 6.934 0 0 1 .891.062v-2.2a8.086 8.086 0 0 0-1.733-.173 3.131 3.131 0 0 0-3.467 3.4v.794h-1.506v2.175h1.506V0h2.894v-8.432h2.113v-2.175h-2.114v-.649c0-.878.49-1.237 1.416-1.237zm3.833.5a1.528 1.528 0 0 0 1.575-1.471 1.532 1.532 0 0 0-1.575-1.471 1.532 1.532 0 0 0-1.575 1.471A1.528 1.528 0 0 0 36.82-12zM38.263 0v-10.608h-2.894V0zm7.03.207c2.8 0 4.572-1.651 4.71-4.061h-2.727a1.9 1.9 0 0 1-1.954 1.761c-1.4 0-2.3-1.167-2.3-3.211 0-2.023.912-3.184 2.3-3.184a1.918 1.918 0 0 1 1.954 1.775H50c-.131-2.438-1.982-4.033-4.724-4.033-3.2 0-5.2 2.231-5.2 5.483.003 3.226 1.958 5.47 5.218 5.47zm10.954-10.953c-2.818 0-4.42 1.45-4.586 3.294H54.4a1.6 1.6 0 0 1 1.775-1.174c1.07 0 1.678.511 1.685 1.409v.856c-.442.014-1.878.076-2.631.124-2.037.131-3.943.9-3.943 3.273C51.288-.87 52.794.2 54.817.2a3.255 3.255 0 0 0 3.1-1.671H58V0h2.742v-7.148c0-2.552-2.182-3.598-4.495-3.598zm-.608 8.936c-.925 0-1.581-.421-1.581-1.243s.635-1.291 1.644-1.374a70.68 70.68 0 0 1 2.175-.138v.773a2.052 2.052 0 0 1-2.238 1.983zm11.906-.38c-.594-.021-1.008-.221-1.008-1.064v-5.18h2v-2.175h-2v-2.541h-2.894v2.541h-1.457v2.175h1.457v5.573c-.014 2.065 1.409 3 3.508 3a9.976 9.976 0 0 0 1.526-.1v-2.277c-.345.021-.849.056-1.132.049zM71.792-12a1.528 1.528 0 0 0 1.575-1.471 1.532 1.532 0 0 0-1.575-1.471 1.532 1.532 0 0 0-1.575 1.471A1.528 1.528 0 0 0 71.792-12zm1.443 12v-10.608h-2.893V0zm7.03.207c3.2 0 5.2-2.2 5.2-5.47 0-3.287-2-5.483-5.2-5.483s-5.214 2.2-5.214 5.483C75.052-2 77.055.207 80.266.207zm.014-2.244c-1.512 0-2.286-1.381-2.286-3.246s.773-3.253 2.286-3.253c1.478 0 2.251 1.4 2.251 3.253s-.772 3.246-2.25 3.246zm9.9-4.1a1.977 1.977 0 0 1 2.037-2.2 1.836 1.836 0 0 1 1.9 2.093V0h2.894v-6.754c0-2.479-1.443-3.992-3.653-3.992a3.2 3.2 0 0 0-3.191 2h-.124v-1.865h-2.753V0h2.894z" transform="translate(159.421 100)"/>
                </g>
                <path id="line" class="cls-3" transform="translate(28 91)" d="M0 0h202v1H0z"/>
                <path id="line-2" data-name="line" class="cls-3" transform="translate(17 121)" d="M0 0h224v1H0z"/>
                <path id="line-3" data-name="line" class="cls-3" transform="translate(62 61)" d="M0 0h134v1H0z"/>
            </g>
        </g>
    </g>
    <path id="다각형_133" data-name="다각형 133" d="M7.5 0 15 11H0z" transform="rotate(180 68.5 5.5)" style="fill:#999"/>
</svg>
